# .PCD v0.7 - Point Cloud Data file format
# 3 104 1
# 1 37 0
# 38 72 0
# 73 104 1
VERSION 0.7
FIELDS x y z normal_x normal_y normal_z curvature
SIZE 4 4 4 4 4 4 4
TYPE F F F F F F F
COUNT 1 1 1 1 1 1 1
WIDTH 104
HEIGHT 1
VIEWPOINT 0 0 0 1 0 0 0
POINTS 104
DATA ascii
-37.08900100 16.62780000 383.60501000 -0.96926397 -0.24457400 0.02665750 1.905766e-42
-37.25000000 17.06170100 381.86499000 -0.97478902 -0.22302400 -0.00682644 1.905766e-42
-37.31790200 17.56130000 380.13699000 -0.97875798 -0.20076500 -0.04155290 1.905766e-42
-37.33440000 18.23160000 378.46701000 -0.98055798 -0.18435700 -0.06721410 1.905766e-42
-37.29330100 18.59040100 376.70300000 -0.98135799 -0.17067499 -0.08835100 1.905766e-42
-37.23090000 19.20389900 375.01199000 -0.98141599 -0.15801600 -0.10887200 1.905766e-42
-37.06000100 20.13069900 373.47900000 -0.98061198 -0.15435199 -0.12073200 1.905766e-42
-36.81169900 20.73180000 371.79999000 -0.97966897 -0.16252500 -0.11761600 1.905766e-42
-36.83100100 20.94829900 370.01401000 -0.97918898 -0.16978499 -0.11118500 1.905766e-42
-36.64320000 21.02280000 368.22501000 -0.97916299 -0.17685600 -0.09980870 1.905766e-42
-36.66899900 21.93280000 366.67200000 -0.97984999 -0.18241000 -0.08136260 1.905766e-42
-36.62670100 22.47640000 364.95700000 -0.98062998 -0.18870001 -0.05251340 1.905766e-42
-36.73440200 22.83939900 363.19699000 -0.98049599 -0.19526200 -0.02236460 1.905766e-42
-36.61959800 23.23049900 362.23999000 -0.97983199 -0.19972301 -0.00628802 1.905766e-42
-36.80339800 23.46910100 360.46500000 -0.97821999 -0.20654599 0.02060290 1.905766e-42
-36.81829800 23.80290000 358.69601000 -0.97575998 -0.21410500 0.04529950 1.905766e-42
-37.01890200 23.31069900 356.97699000 -0.97441602 -0.21597500 0.06219900 1.905766e-42
-37.24869900 23.87730000 355.28400000 -0.97325701 -0.21734001 0.07439720 1.905766e-42
-37.38489900 23.98690000 353.49200000 -0.97184402 -0.21882901 0.08736850 1.905766e-42
-37.66270100 24.98100100 352.01801000 -0.97013003 -0.22105300 0.09991670 1.905766e-42
-37.88750100 25.53080000 350.31799000 -0.96800601 -0.22299600 0.11505700 1.905766e-42
-38.33459900 25.69520000 348.58301000 -0.96673101 -0.22078700 0.12916701 1.905766e-42
-38.53590000 26.23979900 346.87900000 -0.96598297 -0.21701699 0.14064400 1.905766e-42
-38.95660000 26.27350000 345.12900000 -0.96485698 -0.21442200 0.15189999 1.905766e-42
-39.26860000 26.33190000 343.35699000 -0.96367699 -0.21290000 0.16124800 1.905766e-42
-39.50640100 26.11470000 341.58600000 -0.96250999 -0.21258000 0.16847600 1.905766e-42
-39.82130100 26.22440000 339.81699000 -0.96307898 -0.20917100 0.16948700 1.905766e-42
-40.21889900 27.06600000 338.27701000 -0.96529102 -0.20138501 0.16630299 1.905766e-42
-40.54219800 26.85140000 336.51901000 -0.96590799 -0.19851200 0.16617900 1.905766e-42
-40.88410200 27.20450000 334.78799000 -0.96741599 -0.18741301 0.17024200 1.905766e-42
-41.22460200 27.06119900 333.02600000 -0.96801001 -0.17369300 0.18107200 1.905766e-42
-41.53319900 27.03650100 331.25299000 -0.96434402 -0.17016301 0.20269400 1.905766e-42
-41.96160100 26.87450000 329.51199000 -0.95700997 -0.17237400 0.23327699 1.905766e-42
-42.28630100 27.06259900 327.75101000 -0.94937801 -0.17328000 0.26202199 1.905766e-42
-42.75970100 26.31930000 326.18201000 -0.94259900 -0.16905600 0.28797200 1.905766e-42
-43.22340000 25.88670000 324.49701000 -0.93532401 -0.17002600 0.31025901 1.905766e-42
-43.62379800 25.19450000 322.88501000 -0.92976099 -0.17285700 0.32506001 1.905766e-42
-43.92869900 24.05410000 321.52600000 -0.92794001 -0.17474300 0.32923001 1.905766e-42
-43.68579900 22.27260000 321.60999000 -0.93264598 -0.16374500 0.32149401 1.905766e-42
-42.99369800 20.65230000 321.97900000 -0.93828702 -0.14694500 0.31309000 1.905766e-42
-42.67869900 19.08219900 322.80099000 -0.94471401 -0.12869900 0.30158299 1.905766e-42
-42.24670000 17.50490000 323.55301000 -0.95232701 -0.10902200 0.28493401 1.905766e-42
-41.93349800 15.80100000 324.04099000 -0.95867699 -0.09212030 0.26916799 1.905766e-42
-41.56959900 14.17810000 324.73001000 -0.95833999 -0.08769210 0.27183399 1.905766e-42
-41.13610100 12.66740000 325.60699000 -0.95782799 -0.08358630 0.27491799 1.905766e-42
-40.69990200 10.92200000 325.66599000 -0.95773900 -0.07664880 0.27724001 1.905766e-42
-40.61209900 9.41384030 326.64499000 -0.95707101 -0.07010200 0.28124899 1.905766e-42
-40.29930100 7.77782010 327.32700000 -0.95734900 -0.05836050 0.28298000 1.905766e-42
-40.03550000 6.08010010 327.86401000 -0.95883203 -0.04399930 0.28054500 1.905766e-42
-39.76419800 4.56221010 328.79300000 -0.95998800 -0.03003030 0.27842799 1.905766e-42
-39.49350000 2.82376000 329.17300000 -0.96115601 -0.01459760 0.27562001 1.905766e-42
-39.15670000 1.18995000 329.84900000 -0.96192199 0.00122202 0.27332199 1.905766e-42
-38.93569900 0.05951830 331.23199000 -0.96217799 0.01315520 0.27210301 1.905766e-42
-38.88309900 -1.73553000 331.35501000 -0.96227098 0.02704830 0.27074400 1.905766e-42
-38.68389900 -3.37347010 332.07401000 -0.96205902 0.03816970 0.27015999 1.905766e-42
-38.64950200 -4.92794990 332.98099000 -0.96174300 0.04682000 0.26992500 1.905766e-42
-38.41930000 -6.58615020 333.64200000 -0.96108401 0.05480270 0.27076501 1.905766e-42
-38.32160200 -8.19256970 334.44901000 -0.96349198 0.07442140 0.25718400 1.905766e-42
-38.29480000 -9.58432010 335.59000000 -0.96543801 0.09705150 0.24188700 1.905766e-42
-38.19220000 -11.19030000 336.39600000 -0.96569401 0.12405100 0.22813800 1.905766e-42
-38.17910000 -12.67550000 337.41299000 -0.96536601 0.15111700 0.21267700 1.905766e-42
-38.21730000 -13.99340000 338.63800000 -0.96459401 0.17467000 0.19761001 1.905766e-42
-38.31259900 -15.59100000 339.46201000 -0.96358699 0.19341201 0.18464001 1.905766e-42
-38.43600100 -17.19770100 340.26401000 -0.96314502 0.20646900 0.17240299 1.905766e-42
-38.47639800 -18.73970000 341.19199000 -0.96352202 0.21452700 0.16001400 1.905766e-42
-38.69329800 -19.84170000 342.59900000 -0.96512401 0.21742301 0.14581700 1.905766e-42
-38.83900100 -21.22100100 343.74600000 -0.96571898 0.20030500 0.16512300 1.905766e-42
-38.94400000 -22.58169900 344.92001000 -0.96552902 0.18175800 0.18632700 1.905766e-42
-38.98840000 -24.08820000 345.90399000 -0.96434402 0.16128400 0.20983100 1.905766e-42
-38.78070100 -25.51040100 346.98700000 -0.96224397 0.13419101 0.23681200 1.905766e-42
-38.66000000 -26.97920000 348.02100000 -0.94794899 0.06181300 0.31236401 1.905766e-42
-38.26129900 -28.01720000 349.43600000 -0.92139798 -0.04669800 0.38580501 1.905766e-42
-37.46680100 -28.33600000 351.01999000 -0.88201499 -0.20826100 0.42270201 1.905766e-42
-36.58980200 -27.56530000 352.39001000 -0.90734297 -0.15776899 0.38966301 1.905766e-42
-36.74840200 -26.02739900 353.31100000 -0.93409997 -0.06656040 0.35075101 1.905766e-42
-36.51359900 -24.69470000 354.49799000 -0.94726598 -0.04500800 0.31727299 1.905766e-42
-35.99300000 -23.60380000 355.83200000 -0.95742202 -0.04009090 0.28589401 1.905766e-42
-35.83449900 -22.11470000 356.83099000 -0.96423501 -0.01977010 0.26431200 1.905766e-42
-35.50040100 -20.94190000 358.15500000 -0.96705198 -0.01780050 0.25395399 1.905766e-42
-35.21760200 -19.64889900 359.37500000 -0.96782100 -0.01792260 0.25100201 1.905766e-42
-34.86930100 -18.47550000 360.69501000 -0.96780097 -0.03113200 0.24978501 1.905766e-42
-34.40119900 -17.41420000 362.07101000 -0.96752203 -0.04912270 0.24796700 1.905766e-42
-34.27439900 -16.03319900 363.21799000 -0.96907800 -0.06210140 0.23881400 1.905766e-42
-34.16420000 -14.59030000 364.28900000 -0.97095799 -0.07332850 0.22773500 1.905766e-42
-34.01670100 -13.15270000 365.36200000 -0.97246599 -0.08330230 0.21764600 1.905766e-42
-33.62039900 -12.10430000 366.76999000 -0.97072798 -0.10025900 0.21825500 1.905766e-42
-33.91579800 -10.46430000 367.45099000 -0.97459400 -0.10089000 0.19996800 1.905766e-42
-33.61690100 -9.30379960 368.79401000 -0.97336000 -0.11584000 0.19786701 1.905766e-42
-33.69179900 -7.79152010 369.76700000 -0.97515798 -0.12169000 0.18508901 1.905766e-42
-33.73180000 -6.29336980 370.76401000 -0.97649699 -0.12837000 0.17313001 1.905766e-42
-33.66120100 -4.94239000 371.95200000 -0.97625101 -0.13936900 0.16586100 1.905766e-42
-33.66080100 -3.48478010 373.00800000 -0.97660899 -0.14826401 0.15573099 1.905766e-42
-33.76210000 -1.97664000 373.98499000 -0.97712100 -0.15649401 0.14403000 1.905766e-42
-33.65770000 -0.59957701 375.14001000 -0.97631800 -0.16864300 0.13551000 1.905766e-42
-33.90589900 0.99896097 375.92899000 -0.97738802 -0.17450000 0.11942700 1.905766e-42
-34.40340000 2.67540000 376.35599000 -0.97956598 -0.17492899 0.09925220 1.905766e-42
-34.37870000 3.95381000 377.62299000 -0.97821200 -0.18682800 0.09053060 1.905766e-42
-34.76900100 5.59310010 378.25500000 -0.97869802 -0.19096699 0.07537450 1.905766e-42
-34.97769900 7.09456010 379.22601000 -0.97677898 -0.20408700 0.06520630 1.905766e-42
-35.21600000 8.62335970 380.14600000 -0.97368002 -0.22117700 0.05502570 1.905766e-42
-35.53580100 10.19260000 380.96701000 -0.97057199 -0.23595200 0.04813460 1.905766e-42
-35.92400000 11.81110000 381.65302000 -0.96923900 -0.24219500 0.04378690 1.905766e-42
-36.28699900 13.39120000 382.43500000 -0.96830398 -0.24631600 0.04142900 1.905766e-42
-36.56470100 14.92790000 383.32999000 -0.96736503 -0.25001401 0.04121900 1.905766e-42
