# .PCD v0.7 - Point Cloud Data file format
# 3 71 0
# 1 17 0
# 18 45 0
# 46 71 0
VERSION 0.7
FIELDS x y z normal_x normal_y normal_z curvature
SIZE 4 4 4 4 4 4 4
TYPE F F F F F F F
COUNT 1 1 1 1 1 1 1
WIDTH 71
HEIGHT 1
VIEWPOINT 0 0 0 1 0 0 0
POINTS 71
DATA ascii
28.73350000 11.51390000 450.39200000 0.19985799 0.93115300 -0.30497801 1.905766e-42
25.83040000 12.14820000 450.90302000 0.19994999 0.94630003 -0.25404000 1.905766e-42
24.14069900 12.60540000 451.32300000 0.19467101 0.95295203 -0.23234800 1.905766e-42
22.38890100 12.83970000 451.66400000 0.19937000 0.95329702 -0.22688600 1.905766e-42
21.22279900 13.60620000 452.80099000 0.21236300 0.95216000 -0.21975701 1.905766e-42
19.44809900 13.84740000 452.98099000 0.26802301 0.93213600 -0.24348800 1.905766e-42
17.94800000 14.56820000 453.66599000 0.33057201 0.90663201 -0.26218399 1.905766e-42
16.30649900 15.29010000 453.51099000 0.38442400 0.88244802 -0.27111399 1.905766e-42
14.67970000 16.00289900 453.21799000 0.43847999 0.85671300 -0.27162001 1.905766e-42
13.18470000 16.99589900 453.35599000 0.48300299 0.83464599 -0.26471499 1.905766e-42
11.58820000 17.82630000 453.39600000 0.50218898 0.82706398 -0.25253001 1.905766e-42
10.08170000 18.79190100 453.59100000 0.51289302 0.82090503 -0.25110799 1.905766e-42
8.54337020 19.72660100 453.59500000 0.53237802 0.80783403 -0.25293899 1.905766e-42
7.04908990 20.73000000 453.58099000 0.55832100 0.79126298 -0.24936000 1.905766e-42
5.53860000 21.62459900 453.18301000 0.59195602 0.76776499 -0.24520700 1.905766e-42
4.16492990 22.60090100 452.55099000 0.62365299 0.74309200 -0.24263600 1.905766e-42
2.83714010 23.65519900 451.94699000 0.65530002 0.71687198 -0.23806900 1.905766e-42
1.41479000 24.61450000 451.40201000 0.64906502 0.73226798 -0.20615099 1.905766e-42
0.87238699 25.68960000 452.73999000 0.64348900 0.74853498 -0.16005500 1.905766e-42
1.03649000 25.90650000 454.51901000 0.58521801 0.80097902 -0.12630200 1.905766e-42
1.97057000 25.50510000 456.00500000 0.51318198 0.84653300 -0.14151500 1.905766e-42
2.73268010 25.28100000 457.62000000 0.42667201 0.89095598 -0.15539700 1.905766e-42
3.23800990 24.97510000 459.32001000 0.30830401 0.94023800 -0.14457101 1.905766e-42
2.81596990 24.64200000 461.03799000 -0.07763550 0.98944098 0.12238600 1.905766e-42
2.32435990 24.03809900 462.66101000 -0.35340801 0.88018900 0.31681100 1.905766e-42
2.61959000 24.59140000 464.34799000 -0.43913800 0.85185897 0.28547099 1.905766e-42
3.81961010 24.70089900 465.68500000 -0.44469601 0.86873102 0.21806300 1.905766e-42
5.04172990 24.84250100 466.99899000 -0.41670299 0.89516902 0.15820999 1.905766e-42
6.83676000 24.92799900 467.10199000 -0.21337400 0.97617799 0.03935550 1.905766e-42
8.48816010 25.63050100 466.96301000 0.28025001 0.91747999 -0.28229600 1.905766e-42
9.72949030 25.70750000 468.26401000 0.38555101 0.83040798 -0.40221000 1.905766e-42
10.51290000 26.05410000 469.84698000 0.28422800 0.86997199 -0.40294299 1.905766e-42
11.53980000 26.45159900 471.27100000 0.27848500 0.84835303 -0.45027101 1.905766e-42
12.42400000 26.89469900 472.77499000 0.24706399 0.85763401 -0.45102400 1.905766e-42
13.51290000 27.37550000 474.12500000 0.24356200 0.85241997 -0.46266401 1.905766e-42
14.45870000 27.87350100 475.57300000 0.23245300 0.85255802 -0.46809199 1.905766e-42
15.37280000 28.35160100 477.04901000 0.21257401 0.84486502 -0.49093199 1.905766e-42
16.67580000 28.77290000 478.21701000 0.23138200 0.81178802 -0.53615499 1.905766e-42
18.13500000 29.10980000 479.21500000 0.25854000 0.76838797 -0.58543801 1.905766e-42
19.43170000 29.55920000 480.38000000 0.25513700 0.73833799 -0.62430900 1.905766e-42
20.61290000 30.14740000 481.60400000 0.23328100 0.71465898 -0.65942597 1.905766e-42
22.32340000 30.37890100 482.11499000 0.25494400 0.65664202 -0.70980603 1.905766e-42
23.39940100 31.20800000 483.29599000 0.22167900 0.64683700 -0.72969800 1.905766e-42
24.89200000 31.72780000 484.15701000 0.22860201 0.64092797 -0.73277098 1.905766e-42
26.20550000 32.35179900 485.21799000 0.22056600 0.64708698 -0.72981501 1.905766e-42
27.68460100 32.85390100 486.11301000 0.21606299 0.64541900 -0.73263299 1.905766e-42
28.41770000 31.49119900 485.19299000 0.24915600 0.60939300 -0.75270301 1.905766e-42
28.72349900 29.99420000 484.24100000 0.25999400 0.60515702 -0.75245500 1.905766e-42
28.71139900 28.71470100 482.97501000 0.24800301 0.62447900 -0.74062198 1.905766e-42
28.94599900 27.30060000 481.88699000 0.23810500 0.64879698 -0.72275102 1.905766e-42
29.08110000 25.97330100 480.67801000 0.23667800 0.67494798 -0.69887602 1.905766e-42
29.56060000 24.60630000 479.60999000 0.23758200 0.69592601 -0.67767400 1.905766e-42
29.48650000 23.50300000 478.19000000 0.23666300 0.71944600 -0.65298402 1.905766e-42
29.59520000 22.19860100 476.95401000 0.23207501 0.74801499 -0.62178397 1.905766e-42
29.57140000 21.10759900 475.52301000 0.22016600 0.78204399 -0.58303797 1.905766e-42
30.09569900 20.03260000 474.17700000 0.19731601 0.81757402 -0.54096198 1.905766e-42
30.42470000 19.09910000 472.67401000 0.17780501 0.84384900 -0.50626498 1.905766e-42
31.69689900 18.12270000 471.85699000 0.15340900 0.86426002 -0.47908199 1.905766e-42
31.44190000 17.51070000 470.18301000 0.14263301 0.88076800 -0.45155600 1.905766e-42
31.53170000 16.71080000 468.57300000 0.12645800 0.89950699 -0.41820601 1.905766e-42
31.75880100 15.81130000 467.03101000 0.10766600 0.91874599 -0.37988800 1.905766e-42
31.90189900 15.31490000 465.30600000 0.08763590 0.93794698 -0.33552200 1.905766e-42
32.39120100 14.64520000 463.70901000 0.04642330 0.96007901 -0.27584901 1.905766e-42
32.36930100 14.24580000 461.95401000 0.02104160 0.96858197 -0.24780200 1.905766e-42
33.56430100 13.99390000 460.63199000 -0.00681387 0.97071302 -0.24014500 1.905766e-42
34.44340100 13.58730000 459.11401000 -0.02580220 0.96676600 -0.25435901 1.905766e-42
33.17440000 13.23220000 457.88800000 -0.01381420 0.96004802 -0.27949300 1.905766e-42
32.33390000 12.70290000 456.38699000 0.00783241 0.95496601 -0.29661199 1.905766e-42
31.10000000 12.47050000 455.09698000 0.06085790 0.95917702 -0.27617899 1.905766e-42
30.28310000 11.99190000 453.56601000 0.11477900 0.95702100 -0.26633799 1.905766e-42
29.68610000 11.58560000 451.91800000 0.16389300 0.94464701 -0.28422099 1.905766e-42
