# .PCD v0.7 - Point Cloud Data file format
# 3 53 0
# 1 20 0
# 21 34 0
# 35 53 0
VERSION 0.7
FIELDS x y z normal_x normal_y normal_z curvature
SIZE 4 4 4 4 4 4 4
TYPE F F F F F F F
COUNT 1 1 1 1 1 1 1
WIDTH 53
HEIGHT 1
VIEWPOINT 0 0 0 1 0 0 0
POINTS 53
DATA ascii
22.92670100 15.26190000 480.37299000 -0.19341099 -0.86385202 0.46513599 1.905766e-42
21.21110000 15.65040000 479.99100000 -0.20818800 -0.85471499 0.47552100 1.905766e-42
20.72570000 15.22130000 479.19601000 -0.20184100 -0.86332297 0.46252999 1.905766e-42
19.39489900 14.92890000 478.01999000 -0.19560000 -0.86885399 0.45478800 1.905766e-42
17.91640100 14.72530000 477.01401000 -0.18321100 -0.85890901 0.47823501 1.905766e-42
16.43779900 14.47490000 476.01801000 -0.17500500 -0.84827101 0.49981001 1.905766e-42
15.25510000 13.91960000 474.78000000 -0.15674400 -0.84199601 0.51621199 1.905766e-42
13.74750000 13.61860000 473.84399000 -0.15037701 -0.82664597 0.54225802 1.905766e-42
12.21990000 13.33950000 472.93301000 -0.14584900 -0.80946600 0.56876498 1.905766e-42
11.27400000 12.51330000 471.64401000 -0.12449700 -0.80599201 0.57868600 1.905766e-42
9.80360030 12.03570000 470.72198000 -0.12675300 -0.78857398 0.60173398 1.905766e-42
8.20919040 11.88420000 469.90100000 -0.15625501 -0.75421500 0.63776499 1.905766e-42
7.20400000 10.87430000 468.80099000 -0.13343599 -0.74529999 0.65324098 1.905766e-42
5.52858020 10.84920000 468.14301000 -0.17802399 -0.69710600 0.69451499 1.905766e-42
3.92810010 10.52290000 467.38699000 -0.21520101 -0.65524298 0.72411698 1.905766e-42
2.31694010 10.28710000 466.62000000 -0.24653400 -0.61409801 0.74973601 1.905766e-42
0.86120898 9.65126990 465.77301000 -0.21638000 -0.61408299 0.75900102 1.905766e-42
-0.74177498 9.28059010 465.04300000 -0.18755300 -0.61279899 0.76765901 1.905766e-42
-2.25064990 8.66837020 464.27600000 -0.16146600 -0.60403299 0.78043097 1.905766e-42
-3.78004000 8.16485020 463.47101000 -0.13863800 -0.59534103 0.79142201 1.905766e-42
-5.16355990 7.41781000 462.59500000 -0.12710799 -0.59135902 0.79632801 1.905766e-42
-5.08850000 5.89064980 461.64499000 -0.12286700 -0.59024698 0.79781699 1.905766e-42
-3.59829000 4.98772000 461.19400000 -0.12976500 -0.59431398 0.79369497 1.905766e-42
-2.16012000 3.99850990 460.75400000 -0.08581090 -0.63549501 0.76732099 1.905766e-42
-0.79830801 3.04397990 460.06500000 -0.02390130 -0.67417002 0.73819000 1.905766e-42
0.80358899 2.51656010 459.43600000 0.05344270 -0.71003997 0.70213097 1.905766e-42
2.26802990 1.85527000 458.62500000 0.05350290 -0.69573599 0.71630198 1.905766e-42
3.79222010 1.17851000 457.94800000 -0.00295420 -0.66540498 0.74647701 1.905766e-42
5.49252990 0.68897599 457.61700000 -0.07175900 -0.63811898 0.76658601 1.905766e-42
6.76102020 -0.40053800 456.95099000 -0.12250300 -0.61748099 0.77698803 1.905766e-42
8.09809970 -1.40416000 456.28400000 -0.11571500 -0.63251603 0.76585501 1.905766e-42
9.40003010 -2.40686010 455.54901000 -0.09703010 -0.64709198 0.75621200 1.905766e-42
10.99160000 -3.17604990 455.20999000 -0.06557340 -0.66555899 0.74345899 1.905766e-42
12.52580000 -3.89566990 454.60300000 -0.03590950 -0.68182802 0.73063099 1.905766e-42
14.31750000 -4.01532980 454.47900000 -0.01952990 -0.68317503 0.72999299 1.905766e-42
14.61120000 -2.71004010 455.68301000 -0.01227970 -0.67581397 0.73697001 1.905766e-42
15.36390000 -1.51227000 456.79599000 -0.02469220 -0.69339401 0.72013497 1.905766e-42
15.81450000 -0.30732000 458.05499000 -0.03575060 -0.70968902 0.70360702 1.905766e-42
16.65690000 0.87542599 459.11899000 -0.04243260 -0.72940201 0.68276799 1.905766e-42
16.75939900 1.97285000 460.54199000 -0.07574190 -0.73018903 0.67903399 1.905766e-42
17.54880000 3.08831000 461.71399000 -0.09245110 -0.73907900 0.66724497 1.905766e-42
17.77310000 4.18301010 463.12500000 -0.12025700 -0.74086303 0.66080302 1.905766e-42
18.14590100 5.27062990 464.51001000 -0.14077599 -0.74721700 0.64949900 1.905766e-42
18.83760100 6.31960010 465.79901000 -0.15451699 -0.75616598 0.63587499 1.905766e-42
18.95520000 7.41854000 467.21899000 -0.19107200 -0.75073898 0.63236302 1.905766e-42
19.71460000 8.41077040 468.51501000 -0.20395200 -0.75853997 0.61888599 1.905766e-42
19.92810100 9.42508980 469.98700000 -0.23081800 -0.75885701 0.60898203 1.905766e-42
20.39769900 10.40300000 471.42300000 -0.23729999 -0.76923102 0.59327298 1.905766e-42
20.52870000 11.44430000 472.88501000 -0.23963700 -0.78296798 0.57405198 1.905766e-42
21.40090000 12.30940000 474.20099000 -0.23207100 -0.80129600 0.55142403 1.905766e-42
22.05369900 13.25320000 475.58801000 -0.22421700 -0.82405299 0.52025402 1.905766e-42
22.22290000 13.91890000 477.25101000 -0.21050200 -0.85546702 0.47314501 1.905766e-42
22.12350100 14.74440000 478.84799000 -0.19735999 -0.86687702 0.45779201 1.905766e-42
