# .PCD v0.7 - Point Cloud Data file format
# 3 59 0
# 1 22 0
# 23 38 0
# 39 59 0
VERSION 0.7
FIELDS x y z normal_x normal_y normal_z curvature
SIZE 4 4 4 4 4 4 4
TYPE F F F F F F F
COUNT 1 1 1 1 1 1 1
WIDTH 59
HEIGHT 1
VIEWPOINT 0 0 0 1 0 0 0
POINTS 59
DATA ascii
14.39930000 11.99040000 452.96500000 0.24180201 0.68347901 -0.68875903 1.905766e-42
13.23330000 13.09180000 453.66699000 0.20729800 0.69537300 -0.68810201 1.905766e-42
11.77560000 13.97300000 454.24899000 0.15905900 0.71144003 -0.68450999 1.905766e-42
10.98220000 15.25350000 455.23401000 0.12780701 0.73524398 -0.66564399 1.905766e-42
9.52221970 16.01750000 455.95901000 0.09154780 0.74223298 -0.66385901 1.905766e-42
8.26939010 16.97559900 456.82599000 0.06891840 0.73657799 -0.67283201 1.905766e-42
6.80777980 17.73760000 457.54901000 0.05654430 0.73381299 -0.67699498 1.905766e-42
5.45335010 18.53780000 458.42401000 0.04591190 0.73916602 -0.67195600 1.905766e-42
4.58059980 19.63859900 459.54999000 0.02992150 0.75026000 -0.66046602 1.905766e-42
3.30823990 20.47900000 460.50601000 0.01036310 0.76091200 -0.64877200 1.905766e-42
2.26635000 21.43740100 461.61801000 -0.00803008 0.76869100 -0.63957000 1.905766e-42
1.17064000 22.32460000 462.73700000 -0.02400530 0.77485800 -0.63168001 1.905766e-42
0.25838101 23.28949900 463.95200000 -0.03436900 0.78074300 -0.62390602 1.905766e-42
-1.06610000 24.02220000 464.92599000 -0.04257760 0.78712898 -0.61531699 1.905766e-42
-2.20694990 24.81950000 466.06799000 -0.05699630 0.79312003 -0.60639298 1.905766e-42
-3.02271010 25.72030100 467.39499000 -0.07371030 0.79929698 -0.59639800 1.905766e-42
-3.29038000 26.77470000 468.82901000 -0.08520500 0.80948198 -0.58092999 1.905766e-42
-3.78249000 27.72430000 470.27701000 -0.09478570 0.82070398 -0.56343699 1.905766e-42
-4.22181990 28.66970100 471.74500000 -0.10061900 0.83445102 -0.54181898 1.905766e-42
-4.73126980 29.55150000 473.22900000 -0.10568900 0.85109699 -0.51425999 1.905766e-42
-5.83576010 30.03380000 474.56601000 -0.12665799 0.86645401 -0.48292300 1.905766e-42
-7.13683990 30.39730100 475.75500000 -0.14511301 0.88583702 -0.44072101 1.905766e-42
-8.29078010 31.03360000 476.98199000 -0.15015499 0.89635301 -0.41713899 1.905766e-42
-7.49292990 31.76930000 478.41800000 -0.11994400 0.91539502 -0.38427299 1.905766e-42
-5.71281000 31.98740000 478.57101000 -0.05574910 0.93804199 -0.34200701 1.905766e-42
-4.04815010 32.25350200 479.20200000 -0.05088140 0.94792098 -0.31441501 1.905766e-42
-2.25431990 32.40129900 479.22000000 -0.03634380 0.94925600 -0.31239799 1.905766e-42
-0.46133000 32.54499800 479.28699000 -0.01476330 0.95034200 -0.31085601 1.905766e-42
1.17071000 32.52980000 480.04599000 0.00450151 0.95439601 -0.29850900 1.905766e-42
2.96086000 32.69500000 480.13599000 0.03099780 0.95598698 -0.29176801 1.905766e-42
4.62991000 32.83029900 480.79599000 0.05721080 0.95907903 -0.27729800 1.905766e-42
6.42028000 32.64709900 480.82800000 0.08093940 0.95903498 -0.27147701 1.905766e-42
8.21416000 32.52199900 480.90701000 0.10591200 0.95864099 -0.26417899 1.905766e-42
9.85779000 32.53030000 481.64099000 0.15661301 0.95820898 -0.23939000 1.905766e-42
11.63000000 32.27539800 481.82599000 0.21343701 0.94971597 -0.22909500 1.905766e-42
13.28240000 32.04900000 482.50299000 0.26535401 0.94319201 -0.19993900 1.905766e-42
14.84260000 31.52470000 483.23199000 0.31435701 0.93965203 -0.13502900 1.905766e-42
16.57150100 31.04060000 483.36200000 0.31095701 0.94664103 -0.08471270 1.905766e-42
18.15720000 30.41980000 483.94501000 0.30162501 0.95300502 0.02834870 1.905766e-42
18.99160000 30.31200000 482.35300000 0.22764701 0.96749002 -0.11018200 1.905766e-42
18.59230000 30.05670000 480.61700000 0.21207300 0.95321703 -0.21541300 1.905766e-42
18.76059900 29.49210000 478.91599000 0.19728801 0.93408602 -0.29759300 1.905766e-42
18.68770000 28.96050100 477.19800000 0.20019300 0.89992499 -0.38737401 1.905766e-42
18.78949900 28.24060100 475.55099000 0.21011101 0.86547202 -0.45476499 1.905766e-42
18.85730000 27.27199900 474.03601000 0.23895800 0.83590400 -0.49412900 1.905766e-42
18.80250000 26.21730000 472.57800000 0.27199101 0.80652100 -0.52492398 1.905766e-42
18.82609900 25.06040000 471.19901000 0.30551001 0.77526700 -0.55283397 1.905766e-42
18.69669900 24.00510000 469.74701000 0.31690001 0.77678901 -0.54421800 1.905766e-42
18.66960000 22.96769900 468.27600000 0.32401901 0.77431703 -0.54354799 1.905766e-42
18.43849900 22.28900000 466.62500000 0.33126700 0.76446599 -0.55304098 1.905766e-42
18.29950000 21.40889900 465.06100000 0.31990901 0.74600202 -0.58407199 1.905766e-42
17.85370100 20.36570000 463.66299000 0.31052300 0.72956598 -0.60935199 1.905766e-42
17.28080000 19.40679900 462.25201000 0.30827299 0.71703702 -0.62515998 1.905766e-42
16.77870000 18.37879900 460.86200000 0.30867699 0.71499997 -0.62729102 1.905766e-42
17.28570000 17.07000000 459.73499000 0.31405899 0.71322799 -0.62663603 1.905766e-42
16.79920000 16.07200100 458.31900000 0.30176899 0.71286201 -0.63305902 1.905766e-42
16.31130000 15.03440000 456.93100000 0.29661599 0.70925099 -0.63951701 1.905766e-42
15.78610000 14.01420000 455.54401000 0.29262301 0.70153499 -0.64978498 1.905766e-42
15.33330000 12.88990000 454.21301000 0.27036399 0.69055700 -0.67084497 1.905766e-42
