# .PCD v0.7 - Point Cloud Data file format
# 3 37 1
# 1 12 1
# 13 27 0
# 28 37 0
VERSION 0.7
FIELDS x y z normal_x normal_y normal_z curvature
SIZE 4 4 4 4 4 4 4
TYPE F F F F F F F
COUNT 1 1 1 1 1 1 1
WIDTH 37
HEIGHT 1
VIEWPOINT 0 0 0 1 0 0 0
POINTS 37
DATA ascii
11.23670000 8.98437020 450.75101000 0.10504300 -0.51764202 -0.84912503 1.905766e-42
12.02460000 10.42570000 450.01401000 0.13856700 -0.49789900 -0.85609299 1.905766e-42
13.42430000 11.49290000 449.63800000 0.16208300 -0.47284600 -0.86610901 1.905766e-42
15.05740000 12.24680000 449.56799000 0.18521900 -0.44800401 -0.87463498 1.905766e-42
16.75620100 12.84110000 449.59500000 0.21425600 -0.43856299 -0.87278700 1.905766e-42
17.93800000 13.60740000 449.60901000 0.22944100 -0.43398300 -0.87121499 1.905766e-42
19.62019900 14.24300000 449.68799000 0.25353801 -0.42603400 -0.86845499 1.905766e-42
21.29080000 14.81260000 450.04099000 0.32203400 -0.41388100 -0.85146701 1.905766e-42
22.98259900 15.28540000 450.43301000 0.32384300 -0.39373699 -0.86028898 1.905766e-42
24.35070000 16.45260000 450.51099000 0.29019600 -0.37182301 -0.88177902 1.905766e-42
26.06130000 16.42530100 451.07001000 0.36457300 -0.39277601 -0.84428298 1.905766e-42
27.45430000 17.55789900 451.20001000 0.40344501 -0.36112300 -0.84072697 1.905766e-42
28.74589900 18.79929900 451.37500000 0.41914400 -0.34517899 -0.83974397 1.905766e-42
29.08729900 17.20780000 452.14401000 0.41368899 -0.36809999 -0.83268499 1.905766e-42
28.60030000 15.59290000 452.77200000 0.40272799 -0.41542700 -0.81561702 1.905766e-42
27.94339900 13.98170000 453.23300000 0.40637401 -0.43643200 -0.80273700 1.905766e-42
27.78179900 12.38360000 454.04501000 0.41098899 -0.45435801 -0.79034603 1.905766e-42
27.07350000 10.81450000 454.57101000 0.40631801 -0.47412401 -0.78109699 1.905766e-42
26.53490100 9.27349000 455.32901000 0.40411100 -0.48796800 -0.77367997 1.905766e-42
26.02199900 7.69649980 456.02899000 0.40771201 -0.49732500 -0.76579303 1.905766e-42
24.76490000 6.42223980 456.21899000 0.37521601 -0.51348400 -0.77171701 1.905766e-42
24.70229900 4.92585990 457.21701000 0.39927199 -0.54834402 -0.73478001 1.905766e-42
24.59790000 3.59096000 458.42001000 0.42455199 -0.56285203 -0.70919198 1.905766e-42
23.81990100 2.05306010 458.94000000 0.43852401 -0.56439602 -0.69939500 1.905766e-42
23.12660000 0.57117701 459.69000000 0.46109200 -0.58326697 -0.66872603 1.905766e-42
22.89699900 -0.81419498 460.81601000 0.52182102 -0.65254003 -0.54944903 1.905766e-42
21.43260000 -1.85501000 460.92801000 0.42070699 -0.67727298 -0.60357898 1.905766e-42
19.73150100 -2.31194000 460.55701000 0.31068501 -0.61607498 -0.72382802 1.905766e-42
18.78940000 -1.35459010 459.35901000 0.27111399 -0.58210802 -0.76658100 1.905766e-42
17.48900000 -0.59221399 458.37500000 0.22827099 -0.57739598 -0.78390402 1.905766e-42
16.34149900 0.36837599 457.37500000 0.17945901 -0.58952302 -0.78756398 1.905766e-42
14.96950000 1.22677000 456.58701000 0.15738299 -0.59680599 -0.78679901 1.905766e-42
14.32890000 2.47214010 455.45599000 0.14361800 -0.57934701 -0.80232799 1.905766e-42
13.20440000 3.53652000 454.53799000 0.09012730 -0.57312202 -0.81449902 1.905766e-42
12.89900000 4.94900990 453.46500000 0.09483910 -0.56081200 -0.82249397 1.905766e-42
11.75560000 6.06969980 452.64301000 0.05053260 -0.54970998 -0.83382601 1.905766e-42
11.11400000 7.44223020 451.67099000 0.07349330 -0.53442401 -0.84201503 1.905766e-42
