# .PCD v0.7 - Point Cloud Data file format
# 3 352 0
# 1 154 0
# 155 175 0
# 176 352 0
VERSION 0.7
FIELDS x y z normal_x normal_y normal_z curvature
SIZE 4 4 4 4 4 4 4
TYPE F F F F F F F
COUNT 1 1 1 1 1 1 1
WIDTH 352
HEIGHT 1
VIEWPOINT 0 0 0 1 0 0 0
POINTS 352
DATA ascii
50.60620100 -29.82850100 358.14200000 0.36640400 -0.92743999 -0.07485720 1.905766e-42
52.16669800 -29.41400000 358.93701000 0.36963001 -0.92683101 -0.06602140 1.905766e-42
53.62080000 -28.91350000 359.87299000 0.38393199 -0.92185700 -0.05269730 1.905766e-42
54.93840000 -28.56370000 361.04800000 0.41134000 -0.91073501 -0.03689970 1.905766e-42
56.24269900 -28.12610100 362.20901000 0.43237001 -0.90142101 -0.02226610 1.905766e-42
56.97230100 -28.00499900 363.85001000 0.44591001 -0.89503503 -0.00876008 1.905766e-42
57.87200200 -27.41320000 365.29199000 0.45843899 -0.88870800 0.00557815 1.905766e-42
58.84360100 -27.07700000 366.76999000 0.46802899 -0.88348103 0.02027390 1.905766e-42
60.16540100 -26.21530000 367.63599000 0.46634099 -0.88380802 0.03754210 1.905766e-42
61.45600100 -25.57930000 368.71701000 0.44485700 -0.89331001 0.06402740 1.905766e-42
62.30640000 -25.11450000 370.23401000 0.42883700 -0.89867598 0.09209520 1.905766e-42
62.89009900 -24.70599900 371.88699000 0.43884200 -0.89173102 0.11060700 1.905766e-42
63.27280000 -24.39489900 373.61801000 0.47069299 -0.87445498 0.11737000 1.905766e-42
63.67900100 -23.96369900 375.31799000 0.49605000 -0.85926199 0.12491600 1.905766e-42
63.98600000 -23.57210000 377.04800000 0.52003801 -0.84404898 0.13092799 1.905766e-42
64.07460000 -23.28120000 378.82199000 0.54010099 -0.83001697 0.13915400 1.905766e-42
64.11090100 -22.92480100 380.58600000 0.55476600 -0.81884497 0.14740300 1.905766e-42
64.54509700 -22.27070000 382.20599000 0.56534600 -0.80979502 0.15689600 1.905766e-42
64.57720200 -21.89060000 383.96500000 0.57418603 -0.80146903 0.16720800 1.905766e-42
64.41929600 -21.70430000 385.74799000 0.57993501 -0.79506999 0.17759299 1.905766e-42
64.40270200 -21.17680000 387.46899000 0.58370602 -0.78981102 0.18837599 1.905766e-42
64.06189700 -21.02990000 389.23099000 0.58240002 -0.78808701 0.19932200 1.905766e-42
64.03289800 -20.62400100 390.98401000 0.58154899 -0.78566903 0.21100800 1.905766e-42
64.03939800 -20.06489900 392.69501000 0.57915300 -0.78430903 0.22235300 1.905766e-42
64.07930000 -19.52310000 394.41101000 0.57428002 -0.78473002 0.23324101 1.905766e-42
63.66059900 -19.35689900 396.15399000 0.56620002 -0.78610301 0.24791200 1.905766e-42
63.59159900 -18.85040100 397.88000000 0.56055802 -0.78599101 0.26075500 1.905766e-42
63.27280000 -18.48110000 399.61200000 0.55445302 -0.78582102 0.27398500 1.905766e-42
63.05619800 -17.82060100 401.27301000 0.54982001 -0.78478903 0.28601399 1.905766e-42
62.62540100 -17.73560000 403.01801000 0.54370600 -0.78442001 0.29844499 1.905766e-42
62.31589900 -17.36210100 404.75201000 0.53878897 -0.78328001 0.31012699 1.905766e-42
61.82199900 -17.14959900 406.46899000 0.53312200 -0.78252500 0.32161501 1.905766e-42
61.20380000 -16.92639900 408.14499000 0.52712399 -0.78193802 0.33273700 1.905766e-42
61.11159900 -16.22890100 409.80200000 0.52439201 -0.77947599 0.34268200 1.905766e-42
60.72570000 -15.67870000 411.47198000 0.52018499 -0.77769899 0.35297599 1.905766e-42
60.17470200 -15.32770000 413.14899000 0.51486301 -0.77651799 0.36323100 1.905766e-42
59.86130100 -14.68500000 414.80099000 0.51121998 -0.77432299 0.37293100 1.905766e-42
59.12340200 -14.40610000 416.41901000 0.50490397 -0.77364200 0.38281900 1.905766e-42
58.68230100 -13.84530000 418.07101000 0.50039500 -0.77177501 0.39238700 1.905766e-42
58.46699900 -13.08040000 419.68600000 0.49740100 -0.76908797 0.40136901 1.905766e-42
57.81069900 -12.67650000 421.31299000 0.49140000 -0.76792300 0.41087800 1.905766e-42
57.43009900 -11.99280000 422.93399000 0.48720801 -0.76568002 0.41995400 1.905766e-42
56.85120000 -11.48320000 424.56100000 0.48152500 -0.76412398 0.42924201 1.905766e-42
56.57840000 -10.64580000 426.13000000 0.47799999 -0.76145202 0.43784299 1.905766e-42
56.07939900 -9.94285960 427.71100000 0.47287399 -0.75945300 0.44678900 1.905766e-42
55.56909900 -9.31612970 429.31900000 0.46744201 -0.75750297 0.45572701 1.905766e-42
54.81430100 -8.91014960 430.90201000 0.46035999 -0.75627297 0.46488699 1.905766e-42
54.55950200 -7.89227010 432.36401000 0.45723099 -0.75307500 0.47309399 1.905766e-42
54.31829800 -7.04429010 433.93399000 0.45354399 -0.74993002 0.48156399 1.905766e-42
54.02000000 -6.28492020 435.53799000 0.44926101 -0.74688202 0.49023601 1.905766e-42
54.08969900 -5.24235010 437.00400000 0.44753200 -0.74288100 0.49783799 1.905766e-42
53.94670100 -4.35621020 438.56400000 0.44412199 -0.73927498 0.50619000 1.905766e-42
54.01900100 -3.30620000 440.02399000 0.44208601 -0.73520499 0.51384199 1.905766e-42
54.18100000 -2.26381990 441.48300000 0.44026899 -0.73105103 0.52127498 1.905766e-42
54.39040000 -1.18067000 442.90500000 0.43857601 -0.72685999 0.52851200 1.905766e-42
54.50299800 -0.13282201 444.36401000 0.43612599 -0.72276098 0.53610802 1.905766e-42
54.26520200 0.77455199 445.90100000 0.43171901 -0.71896303 0.54471201 1.905766e-42
53.72969800 1.57342990 447.42200000 0.42582801 -0.71546698 0.55387503 1.905766e-42
53.64090000 2.75795010 448.77499000 0.42243901 -0.71128500 0.56180000 1.905766e-42
53.13779800 3.75299000 450.18799000 0.41674900 -0.70745498 0.57081300 1.905766e-42
52.83499900 4.60746000 451.74301000 0.41131699 -0.70344102 0.57964599 1.905766e-42
52.71300100 5.72751000 453.14600000 0.40707201 -0.69912899 0.58780098 1.905766e-42
52.46720100 6.81934020 454.55600000 0.40201601 -0.69484901 0.59629500 1.905766e-42
52.06240100 7.86751990 455.96201000 0.39606300 -0.69269001 0.60275602 1.905766e-42
51.99020000 9.17240050 457.20001000 0.39191800 -0.69244301 0.60574198 1.905766e-42
51.61460100 10.06720000 458.71600000 0.38505599 -0.69226700 0.61032599 1.905766e-42
51.50799900 11.28000000 460.04199000 0.37959599 -0.69228798 0.61371398 1.905766e-42
51.10590000 12.30810000 461.46399000 0.37206399 -0.69219798 0.61840999 1.905766e-42
51.14469900 13.58910000 462.72800000 0.36652899 -0.69261998 0.62123698 1.905766e-42
50.83369800 14.67830000 464.12701000 0.35859299 -0.69273901 0.62571901 1.905766e-42
50.55670200 15.77820000 465.52399000 0.35037401 -0.69292098 0.63015699 1.905766e-42
50.30110200 16.99110000 466.82901000 0.34201300 -0.69324303 0.63438201 1.905766e-42
49.90819900 18.00219900 468.26599000 0.33245099 -0.69314402 0.63955301 1.905766e-42
49.82910200 19.27640000 469.53500000 0.32394400 -0.69391000 0.64307702 1.905766e-42
49.31700100 20.20389900 470.98999000 0.31328201 -0.69332701 0.64896297 1.905766e-42
48.97620000 21.31520100 472.36401000 0.30287600 -0.69322097 0.65399700 1.905766e-42
48.59199900 22.46349900 473.69601000 0.29206401 -0.69293302 0.65919900 1.905766e-42
48.33739900 23.67320100 475.00400000 0.28122199 -0.69301897 0.66380697 1.905766e-42
48.10329800 24.81940100 476.37201000 0.26995799 -0.69302303 0.66846198 1.905766e-42
47.54430000 25.86300100 477.72800000 0.25809601 -0.69154400 0.67465103 1.905766e-42
47.73199800 27.32259900 478.76501000 0.24723800 -0.69358897 0.67661500 1.905766e-42
47.10940200 28.21789900 480.19699000 0.23525800 -0.69168103 0.68281102 1.905766e-42
46.60200100 29.25309900 481.57901000 0.22396900 -0.69329399 0.68496799 1.905766e-42
46.58110000 30.57780100 482.79800000 0.21195100 -0.69766498 0.68435401 1.905766e-42
45.99179800 31.60010000 484.15701000 0.20056500 -0.69866902 0.68675703 1.905766e-42
45.77230100 32.81020000 485.47101000 0.18794399 -0.70190603 0.68702602 1.905766e-42
45.07880000 33.89230000 486.73199000 0.17702401 -0.70210701 0.68971598 1.905766e-42
44.83039900 35.14870100 487.99600000 0.16394100 -0.70513803 0.68985701 1.905766e-42
44.34510000 36.30659900 489.28601000 0.15187199 -0.70648903 0.69123697 1.905766e-42
43.78450000 37.46580100 490.54401000 0.14037000 -0.70719701 0.69294202 1.905766e-42
43.54000100 38.79970200 491.72800000 0.12637401 -0.71016997 0.69259501 1.905766e-42
42.70760000 39.78360000 492.98401000 0.11806000 -0.70834398 0.69592398 1.905766e-42
42.29069900 41.04660000 494.19699000 0.10545000 -0.70978498 0.69648099 1.905766e-42
41.81750100 42.33060100 495.36700000 0.09338060 -0.71070200 0.69726801 1.905766e-42
41.33829900 43.64289900 496.50201000 0.08141560 -0.71145499 0.69799900 1.905766e-42
40.57609900 44.68849900 497.75299000 0.07424670 -0.70949399 0.70078897 1.905766e-42
39.54600100 45.51129900 498.97800000 0.07403910 -0.70467198 0.70565897 1.905766e-42
39.24980200 46.89329900 500.09299000 0.06008430 -0.70654202 0.70511502 1.905766e-42
38.49089800 47.90029900 501.37799000 0.05595780 -0.70394599 0.70804602 1.905766e-42
37.77800000 48.95809900 502.64801000 0.05238090 -0.70380598 0.70845801 1.905766e-42
37.35319900 50.16540100 503.91299000 0.04330770 -0.71127898 0.70157498 1.905766e-42
36.60530100 51.24639900 505.14301000 0.04384660 -0.71526098 0.69748098 1.905766e-42
36.11489900 52.42890200 506.40799000 0.03768120 -0.72191697 0.69095302 1.905766e-42
35.65020000 53.65980100 507.63699000 0.03089140 -0.72876501 0.68406701 1.905766e-42
35.08549900 54.80419900 508.90601000 0.02760910 -0.73445499 0.67809498 1.905766e-42
34.43539800 55.84709900 510.22101000 0.02790090 -0.73902202 0.67310297 1.905766e-42
33.92789800 56.95090100 511.54901000 0.02303010 -0.74507499 0.66658300 1.905766e-42
33.27619900 57.96690000 512.88501000 0.02035100 -0.74970698 0.66145700 1.905766e-42
32.59120200 58.96229900 514.21899000 -0.00047856 -0.75586599 0.65472603 1.905766e-42
32.14230000 60.19760100 515.44897000 -0.01859880 -0.76293898 0.64620298 1.905766e-42
31.54190100 61.34000000 516.70398000 -0.03956880 -0.76868802 0.63839900 1.905766e-42
31.20159900 62.56549800 517.97699000 -0.05754000 -0.77554399 0.62866598 1.905766e-42
30.57090000 63.61439900 519.29700000 -0.08006220 -0.78004801 0.62057698 1.905766e-42
29.81100100 64.60369900 520.59497000 -0.10452300 -0.78289700 0.61330801 1.905766e-42
29.27529900 65.74960300 521.87500000 -0.12684600 -0.78671902 0.60413897 1.905766e-42
28.44290000 66.67919900 523.17297000 -0.15251000 -0.78751397 0.59712797 1.905766e-42
28.30139900 67.94490100 524.44501000 -0.17085400 -0.79289299 0.58491898 1.905766e-42
27.01190000 68.77339900 525.38800000 -0.20012000 -0.78576201 0.58526099 1.905766e-42
26.60129900 69.89489700 526.73499000 -0.22115000 -0.78498000 0.57870400 1.905766e-42
26.20120000 71.07160200 528.03699000 -0.24170101 -0.78399801 0.57177699 1.905766e-42
25.31110000 72.16369600 529.15802000 -0.26614299 -0.77889800 0.56787801 1.905766e-42
24.41760100 73.24929800 530.28101000 -0.28962699 -0.77374798 0.56340897 1.905766e-42
23.84070000 74.43890400 531.50299000 -0.30978900 -0.77102798 0.55636901 1.905766e-42
23.12850000 75.60959600 532.66998000 -0.33026001 -0.76722300 0.54981500 1.905766e-42
22.37700100 76.77510100 533.81799000 -0.35012600 -0.76316202 0.54313499 1.905766e-42
22.11090100 78.09819800 535.00897000 -0.36575300 -0.76236999 0.53386903 1.905766e-42
21.27630000 79.22350300 536.13898000 -0.38440800 -0.75792903 0.52704298 1.905766e-42
20.44750000 80.36699700 537.25500000 -0.40210900 -0.75366700 0.51989901 1.905766e-42
19.77260000 81.54090100 538.44098000 -0.41802701 -0.75071102 0.51155198 1.905766e-42
19.10010000 82.72309900 539.62000000 -0.43314001 -0.74791998 0.50299603 1.905766e-42
18.32939900 83.90830200 540.73401000 -0.44799200 -0.74459302 0.49485800 1.905766e-42
17.11580100 84.93319700 541.58002000 -0.46338901 -0.73866600 0.48953399 1.905766e-42
16.48850100 86.01460300 542.87500000 -0.47545701 -0.73733097 0.47987801 1.905766e-42
15.63860000 87.19920300 543.93103000 -0.48816800 -0.73429298 0.47170600 1.905766e-42
15.24970000 88.36100000 545.25000000 -0.49810401 -0.73441899 0.46100101 1.905766e-42
14.25380000 89.48220100 546.24500000 -0.50980699 -0.73203403 0.45191100 1.905766e-42
13.70530000 90.68730200 547.46503000 -0.52054602 -0.73435903 0.43560100 1.905766e-42
12.82460000 91.86440300 548.50299000 -0.54019099 -0.73012799 0.41845801 1.905766e-42
12.13060000 93.12760200 549.58197000 -0.56016201 -0.72512299 0.40051901 1.905766e-42
11.39770000 94.32530200 550.70801000 -0.58060497 -0.71861798 0.38273501 1.905766e-42
10.74000000 95.56359900 551.83698000 -0.60072899 -0.71121401 0.36510101 1.905766e-42
9.79671000 96.79139700 552.75500000 -0.62570298 -0.69796902 0.34832999 1.905766e-42
9.10070040 98.07219700 553.81097000 -0.64705098 -0.68672699 0.33125600 1.905766e-42
8.34690000 99.28150200 554.90997000 -0.66792101 -0.67457801 0.31436801 1.905766e-42
7.63251020 100.54800000 555.97101000 -0.68853903 -0.66125000 0.29776400 1.905766e-42
6.77008010 101.79200000 556.94501000 -0.71009701 -0.64524901 0.28180701 1.905766e-42
6.02830980 103.09100000 557.94598000 -0.72994798 -0.62964201 0.26594600 1.905766e-42
5.48480990 104.27100000 559.19202000 -0.74519497 -0.61828101 0.24982700 1.905766e-42
5.27420000 105.14900000 559.99402000 -0.75465399 -0.61092299 0.23931099 1.905766e-42
4.60227010 106.48700000 560.99402000 -0.77212900 -0.59456098 0.22430900 1.905766e-42
3.80749010 107.74200000 562.00897000 -0.78868598 -0.57790202 0.20977201 1.905766e-42
3.12086010 109.10100000 562.96997000 -0.80439901 -0.56093001 0.19570300 1.905766e-42
2.72403000 110.27500000 564.27502000 -0.81502801 -0.55031198 0.18134600 1.905766e-42
1.98072000 111.57400000 565.27502000 -0.82864600 -0.53394198 0.16808499 1.905766e-42
1.21373000 113.02300000 566.01801000 -0.84286201 -0.51499403 0.15609200 1.905766e-42
0.14933200 114.41200000 565.59497000 -0.85827798 -0.49044299 0.15108199 1.905766e-42
-0.67373198 115.84000000 564.87201000 -0.87165803 -0.46714801 0.14827099 1.905766e-42
-1.46233000 116.77400000 563.55103000 -0.88133299 -0.44765201 0.15119401 1.905766e-42
-2.22256990 117.76800000 562.25598000 -0.89029002 -0.42860800 0.15388100 1.905766e-42
-2.94636010 118.71400000 560.90698000 -0.89813203 -0.41066799 0.15719800 1.905766e-42
-3.57732010 119.37100000 559.35498000 -0.90392601 -0.39538699 0.16305400 1.905766e-42
-3.94081000 120.44800000 557.95898000 -0.91037202 -0.37877500 0.16658799 1.905766e-42
-4.56651020 120.37800000 556.27301000 -0.91232002 -0.36918101 0.17713800 1.905766e-42
-5.15463020 121.15600000 554.76001000 -0.91751200 -0.35307899 0.18304799 1.905766e-42
-5.77470020 122.06700000 553.33698000 -0.92300802 -0.33590499 0.18768100 1.905766e-42
-6.39271020 122.91700000 551.87500000 -0.92799598 -0.31884301 0.19277900 1.905766e-42
-6.93576000 123.51500000 550.26703000 -0.93170702 -0.30308899 0.20014700 1.905766e-42
-7.42872000 124.58900000 548.90802000 -0.93681198 -0.28491199 0.20299900 1.905766e-42
-7.93071990 124.66500000 547.18103000 -0.93813801 -0.27226701 0.21393700 1.905766e-42
-8.27256970 125.03700000 545.45398000 -0.94018900 -0.25750199 0.22301900 1.905766e-42
-8.73762990 125.70700000 543.84900000 -0.94322503 -0.24051499 0.22908200 1.905766e-42
-9.25333980 126.04800000 542.15900000 -0.94496500 -0.22509401 0.23743100 1.905766e-42
-9.71572020 126.65600000 540.52899000 -0.94738698 -0.20811900 0.24319600 1.905766e-42
-10.17660000 126.82700000 538.79700000 -0.94818300 -0.19343500 0.25205600 1.905766e-42
-10.69800000 127.35700000 537.15802000 -0.95004398 -0.17653900 0.25739199 1.905766e-42
-11.21460000 127.55100000 535.44397000 -0.94564301 -0.16760100 0.27869201 1.905766e-42
-11.39500000 126.21300000 534.25299000 -0.93817902 -0.17027099 0.30137599 1.905766e-42
-11.35780000 124.92900000 532.99298000 -0.93018901 -0.17262200 0.32396001 1.905766e-42
-11.38720000 123.14100000 532.79102000 -0.92587203 -0.17993601 0.33223999 1.905766e-42
-11.34810000 121.85500000 531.53101000 -0.91703802 -0.18199500 0.35484999 1.905766e-42
-11.42190000 120.08100000 531.23999000 -0.91148400 -0.18903500 0.36532599 1.905766e-42
-11.61730000 118.75700000 530.03497000 -0.90159303 -0.19050799 0.38837701 1.905766e-42
-11.70690000 117.24800000 529.05798000 -0.89217502 -0.19363400 0.40808001 1.905766e-42
-11.79480000 115.62100000 528.29303000 -0.88314003 -0.19795001 0.42529801 1.905766e-42
-11.96660000 114.56300000 526.84698000 -0.87165999 -0.19629399 0.44908500 1.905766e-42
-12.21640000 112.84700000 526.36200000 -0.86278802 -0.20121901 0.46379799 1.905766e-42
-12.44420000 111.25500000 525.55499000 -0.85224998 -0.20401300 0.48171499 1.905766e-42
-12.53870000 109.64200000 524.76202000 -0.84164399 -0.20723200 0.49868900 1.905766e-42
-12.78250000 108.62300000 523.29797000 -0.83000201 -0.20537500 0.51857299 1.905766e-42
-12.91110000 106.83400000 523.14697000 -0.82211202 -0.22069500 0.52481103 1.905766e-42
-13.21960000 105.42300000 522.07300000 -0.81120801 -0.22905999 0.53802800 1.905766e-42
-13.51210000 104.07200000 520.91998000 -0.80038798 -0.23617600 0.55099899 1.905766e-42
-13.63440000 102.41900000 520.21899000 -0.78995901 -0.24749599 0.56098998 1.905766e-42
-13.76590000 100.86700000 519.31598000 -0.77907801 -0.25679001 0.57192397 1.905766e-42
-14.16680000 99.57749900 518.12598000 -0.76856297 -0.26101601 0.58410800 1.905766e-42
-14.39940000 98.08999600 517.14001000 -0.75777799 -0.26782200 0.59501499 1.905766e-42
-14.79640000 96.80419900 515.94397000 -0.74784797 -0.27074301 0.60615301 1.905766e-42
-14.90410000 95.19940200 515.13599000 -0.73677099 -0.27864999 0.61605400 1.905766e-42
-15.26190000 93.81870300 514.03802000 -0.72680700 -0.28160900 0.62645602 1.905766e-42
-15.86240000 92.80049900 512.68103000 -0.71974599 -0.27870700 0.63583702 1.905766e-42
-16.04810000 91.20939600 511.85999000 -0.70897502 -0.28409299 0.64548099 1.905766e-42
-16.33060100 89.75869800 510.83200000 -0.69927502 -0.28630200 0.65501601 1.905766e-42
-16.80120100 88.32820100 509.84601000 -0.69046003 -0.28653401 0.66420102 1.905766e-42
-17.11380000 86.85050200 508.86700000 -0.68096602 -0.28749299 0.67352301 1.905766e-42
-17.52269900 85.36820200 507.93100000 -0.67187399 -0.28723401 0.68270200 1.905766e-42
-18.05150000 84.00050400 506.88699000 -0.66450900 -0.28404599 0.69119197 1.905766e-42
-19.08359900 83.19670100 505.65100000 -0.66345602 -0.27231899 0.69689900 1.905766e-42
-19.80780000 81.97810400 504.54199000 -0.64501399 -0.26712599 0.71596098 1.905766e-42
-20.12380000 80.43969700 503.66199000 -0.62824398 -0.26824901 0.73030901 1.905766e-42
-20.90070000 79.28170000 502.52399000 -0.61271900 -0.26638600 0.74405301 1.905766e-42
-21.65940100 78.10109700 501.39700000 -0.59920698 -0.26600099 0.75511199 1.905766e-42
-22.45430000 76.91700000 500.29901000 -0.58768398 -0.26656401 0.76391798 1.905766e-42
-23.16850100 75.57070200 499.34100000 -0.57768703 -0.26961601 0.77044499 1.905766e-42
-23.82720000 74.20320100 498.37299000 -0.56923097 -0.27364400 0.77530301 1.905766e-42
-24.43510100 72.79029800 497.43799000 -0.56208497 -0.27864701 0.77872801 1.905766e-42
-24.89730100 71.28859700 496.56000000 -0.55576098 -0.28507900 0.78093499 1.905766e-42
-26.06230000 70.58570100 495.38199000 -0.55426800 -0.28446499 0.78221899 1.905766e-42
-26.88360000 69.35749800 494.35400000 -0.55182499 -0.28857300 0.78244102 1.905766e-42
-27.65080100 68.04950000 493.38400000 -0.55009198 -0.29342800 0.78185600 1.905766e-42
-28.52879900 66.86779800 492.34799000 -0.54515201 -0.29779100 0.78366399 1.905766e-42
-29.34750000 65.61000100 491.35400000 -0.53935999 -0.30263600 0.78581297 1.905766e-42
-29.74340100 64.07109800 490.50900000 -0.53380698 -0.30971801 0.78684503 1.905766e-42
-29.60850000 62.37979900 489.90799000 -0.52856398 -0.31873000 0.78678501 1.905766e-42
-29.03890000 60.69570200 489.62601000 -0.52358001 -0.32889399 0.78593397 1.905766e-42
-28.95859900 59.02710000 488.95599000 -0.51755100 -0.33762300 0.78622699 1.905766e-42
-28.77470000 57.35820000 488.30701000 -0.51125097 -0.34661001 0.78643799 1.905766e-42
-28.69090100 55.71410000 487.57901000 -0.50471503 -0.35504499 0.78689599 1.905766e-42
-28.69420100 54.15070000 486.68701000 -0.49818900 -0.36266899 0.78757799 1.905766e-42
-28.11669900 52.46659900 486.42200000 -0.49072701 -0.37304899 0.78741503 1.905766e-42
-28.43790100 51.01419800 485.40799000 -0.48472700 -0.37879401 0.78838801 1.905766e-42
-28.22160000 49.32220100 484.83301000 -0.47730300 -0.38807699 0.78840202 1.905766e-42
-28.13740000 47.66859800 484.12701000 -0.47042900 -0.39669201 0.78824598 1.905766e-42
-28.07810000 46.03900100 483.36499000 -0.46392900 -0.40514401 0.78780001 1.905766e-42
-28.38640000 44.53640000 482.42300000 -0.45944899 -0.41173601 0.78700697 1.905766e-42
-28.17200100 42.92020000 481.66000000 -0.45298001 -0.42078301 0.78597099 1.905766e-42
-28.21950000 41.35120000 480.78000000 -0.44792601 -0.42874199 0.78456497 1.905766e-42
-28.03640000 39.73880000 480.00101000 -0.44187099 -0.43768200 0.78306103 1.905766e-42
-28.04890100 38.17250100 479.11401000 -0.43709499 -0.44579500 0.78116298 1.905766e-42
-28.28039900 36.70880100 478.09201000 -0.43415499 -0.45280901 0.77876502 1.905766e-42
-28.02619900 35.10480100 477.31601000 -0.42814600 -0.46192899 0.77673203 1.905766e-42
-28.20949900 33.60220000 476.34201000 -0.42525899 -0.46927300 0.77391100 1.905766e-42
-28.35650100 32.11710000 475.33499000 -0.42252901 -0.47670400 0.77085900 1.905766e-42
-28.00370000 30.54820100 474.52701000 -0.41628399 -0.48592600 0.76849502 1.905766e-42
-28.13880000 29.08260000 473.48999000 -0.41390100 -0.49329999 0.76507598 1.905766e-42
-28.31749900 27.61949900 472.45700000 -0.41204101 -0.50050598 0.76139098 1.905766e-42
-28.15280000 26.08779900 471.52600000 -0.40752801 -0.50896400 0.75820601 1.905766e-42
-28.77090100 24.85750000 470.36700000 -0.41024601 -0.51385301 0.75342798 1.905766e-42
-28.81489900 23.35269900 469.38000000 -0.40777099 -0.52151603 0.74949503 1.905766e-42
-28.86780000 21.89399900 468.32700000 -0.40562800 -0.52964997 0.74494100 1.905766e-42
-29.13830000 20.46150000 467.27100000 -0.40535301 -0.53729498 0.73959601 1.905766e-42
-28.89760000 18.90650000 466.39700000 -0.40019101 -0.54690403 0.73535299 1.905766e-42
-29.28790100 17.64139900 465.17700000 -0.40194201 -0.55374098 0.72925597 1.905766e-42
-29.26790000 16.21080000 464.08499000 -0.39946699 -0.56250900 0.72388500 1.905766e-42
-29.60290000 15.07070000 462.73300000 -0.40155801 -0.56926000 0.71742201 1.905766e-42
-29.68199900 13.63170000 461.65500000 -0.39982101 -0.57777399 0.71156102 1.905766e-42
-29.81270000 12.24150000 460.51901000 -0.39874801 -0.58600903 0.70540297 1.905766e-42
-30.17650000 11.00580000 459.26199000 -0.40043601 -0.59296298 0.69860297 1.905766e-42
-29.70290000 9.58123020 458.26801000 -0.39332601 -0.60318702 0.69387400 1.905766e-42
-30.22830000 8.50463960 456.92499000 -0.39693800 -0.60900497 0.68669701 1.905766e-42
-30.40600000 7.25445990 455.64200000 -0.39650899 -0.61671102 0.68003601 1.905766e-42
-30.48100100 5.93202020 454.42300000 -0.39454600 -0.62498099 0.67359602 1.905766e-42
-30.81430100 4.78238010 453.07901000 -0.39547700 -0.63172698 0.66672200 1.905766e-42
-31.11660000 3.61435010 451.74301000 -0.39211100 -0.63929099 0.66148001 1.905766e-42
-31.10890000 2.26281000 450.55399000 -0.38740501 -0.64809698 0.65565801 1.905766e-42
-31.88400100 1.49140000 449.12500000 -0.38716301 -0.65279901 0.65112001 1.905766e-42
-32.00479900 0.16565400 447.91299000 -0.38328800 -0.66104698 0.64506400 1.905766e-42
-32.50809900 -0.73902899 446.44101000 -0.38207901 -0.66712099 0.63950402 1.905766e-42
-32.74340100 -1.78573000 444.99500000 -0.37976199 -0.67402500 0.63361698 1.905766e-42
-32.89390200 -3.05607010 443.72900000 -0.37689400 -0.68135703 0.62745899 1.905766e-42
-33.23469900 -4.22584010 442.40399000 -0.37533900 -0.68797100 0.62114102 1.905766e-42
-33.54869800 -5.27271990 440.97400000 -0.37419900 -0.69448602 0.61454397 1.905766e-42
-33.79909900 -6.37760020 439.57501000 -0.37285101 -0.70127797 0.60761100 1.905766e-42
-34.01810100 -7.48719980 438.17499000 -0.37154001 -0.70815098 0.60039997 1.905766e-42
-34.30199800 -8.55447010 436.75299000 -0.37079599 -0.71477997 0.59295797 1.905766e-42
-34.79629900 -9.46284010 435.28000000 -0.37151301 -0.72059202 0.58542699 1.905766e-42
-35.19900100 -10.36490000 433.77499000 -0.37197801 -0.72670001 0.57752901 1.905766e-42
-35.15290100 -11.51790000 432.39401000 -0.37006301 -0.73413903 0.56929302 1.905766e-42
-35.93820200 -12.22710000 430.93799000 -0.37286100 -0.73883498 0.56133503 1.905766e-42
-36.64300200 -12.82500000 429.39301000 -0.37557799 -0.74372298 0.55300802 1.905766e-42
-37.23899800 -13.69650000 427.93500000 -0.37740999 -0.74947298 0.54392302 1.905766e-42
-37.94329800 -14.46770000 426.46899000 -0.37996200 -0.75488502 0.53458101 1.905766e-42
-38.45769900 -15.42920000 425.03699000 -0.38162199 -0.76111901 0.52446401 1.905766e-42
-38.60990100 -16.40140000 423.53000000 -0.38219899 -0.76814598 0.51368898 1.905766e-42
-37.86529900 -17.54509900 422.35599000 -0.37901300 -0.77568603 0.50463903 1.905766e-42
-37.21699900 -18.68709900 421.12500000 -0.37641701 -0.78309399 0.49504900 1.905766e-42
-36.84920100 -19.55789900 419.59299000 -0.37619501 -0.78969997 0.48461500 1.905766e-42
-36.25510000 -20.68650100 418.32300000 -0.37432700 -0.79464799 0.47792700 1.905766e-42
-35.47119900 -21.84410100 417.18900000 -0.37009901 -0.80021298 0.47189599 1.905766e-42
-34.62850200 -22.93240000 416.03000000 -0.36451799 -0.80642003 0.46563199 1.905766e-42
-34.83000200 -23.68820000 414.40799000 -0.36481801 -0.81092697 0.45749801 1.905766e-42
-34.49390000 -24.52310000 412.85001000 -0.36076900 -0.81686097 0.45009300 1.905766e-42
-33.98640100 -25.53770100 411.45200000 -0.35408500 -0.82368702 0.44290301 1.905766e-42
-32.89550000 -26.62649900 410.52200000 -0.34334800 -0.83184999 0.43604699 1.905766e-42
-32.39329900 -27.29030000 408.92599000 -0.33558199 -0.83904201 0.42824399 1.905766e-42
-31.45739900 -28.09989900 407.61899000 -0.32461599 -0.84764802 0.41966501 1.905766e-42
-30.28319900 -29.23280000 406.85901000 -0.31239399 -0.85659301 0.41068000 1.905766e-42
-29.12380000 -30.09480100 405.78601000 -0.30024400 -0.86564797 0.40063199 1.905766e-42
-27.58790000 -31.01639900 405.60699000 -0.28805000 -0.87320900 0.39310601 1.905766e-42
-26.57180000 -31.68100000 404.27802000 -0.27673501 -0.88182199 0.38184699 1.905766e-42
-25.40189900 -32.51340100 403.19299000 -0.26460800 -0.89033800 0.37051401 1.905766e-42
-23.98550000 -33.36809900 402.48300000 -0.25165701 -0.89811498 0.36063701 1.905766e-42
-22.56690000 -34.12049900 401.67001000 -0.23840100 -0.90564197 0.35068199 1.905766e-42
-21.52440100 -34.83390000 400.38800000 -0.22706699 -0.91319001 0.33841500 1.905766e-42
-20.32239900 -35.54190100 399.25000000 -0.21477300 -0.92033100 0.32689899 1.905766e-42
-18.86479900 -36.18940000 398.41599000 -0.19950400 -0.92688102 0.31794700 1.905766e-42
-17.71060000 -36.78640000 397.17001000 -0.18710800 -0.93390697 0.30464599 1.905766e-42
-16.36930100 -37.39270000 396.13400000 -0.17318600 -0.94040698 0.29264700 1.905766e-42
-15.18960000 -37.76890200 394.82800000 -0.16053900 -0.94669002 0.27929401 1.905766e-42
-13.82760000 -38.32730100 393.79199000 -0.14619800 -0.95248997 0.26718700 1.905766e-42
-12.50230000 -38.75280000 392.65100000 -0.13189401 -0.95806903 0.25437701 1.905766e-42
-11.26730000 -39.24819900 391.43900000 -0.11753000 -0.96343499 0.24078900 1.905766e-42
-10.12500000 -39.56010100 390.08301000 -0.10307200 -0.96853298 0.22653900 1.905766e-42
-8.44464970 -40.01990100 389.63000000 -0.08669470 -0.97256303 0.21588200 1.905766e-42
-7.24279020 -40.29980100 388.32001000 -0.07047450 -0.97716498 0.20045500 1.905766e-42
-5.85404010 -40.60300100 387.21600000 -0.05637810 -0.98118103 0.18467601 1.905766e-42
-4.60335020 -40.79079800 385.93500000 -0.04245910 -0.98485601 0.16809601 1.905766e-42
-3.14689990 -41.03130000 384.90500000 -0.02899380 -0.98798901 0.15177999 1.905766e-42
-1.58689000 -41.30659900 384.04999000 -0.01633710 -0.99059403 0.13585301 1.905766e-42
-0.35870400 -41.45980100 382.74301000 -0.00298247 -0.99300802 0.11800800 1.905766e-42
1.03246000 -41.53200100 381.60300000 0.00997780 -0.99491602 0.10020800 1.905766e-42
2.64685990 -41.69829900 380.82501000 0.02152890 -0.99626899 0.08357030 1.905766e-42
4.26633980 -41.71200200 380.03900000 0.03290690 -0.99723798 0.06658210 1.905766e-42
5.81884000 -41.77389900 379.13000000 0.04667580 -0.99772602 0.04862640 1.905766e-42
6.29922010 -41.63919800 377.40100000 0.06078990 -0.99770200 0.02992670 1.905766e-42
7.35384990 -41.65480000 375.94199000 0.07622000 -0.99703902 0.01015260 1.905766e-42
8.51113030 -41.46110200 374.57700000 0.08991740 -0.99590498 -0.00939514 1.905766e-42
9.56134990 -41.06190100 373.17099000 0.10168600 -0.99440497 -0.02861580 1.905766e-42
11.11690000 -40.80390200 372.30301000 0.10880900 -0.99302602 -0.04538700 1.905766e-42
12.56630000 -40.80379900 371.23499000 0.11391800 -0.99154699 -0.06210920 1.905766e-42
14.29390000 -40.79280100 370.73001000 0.11365500 -0.99080098 -0.07345670 1.905766e-42
16.09040100 -40.78300100 370.84201000 0.10969400 -0.99098998 -0.07685340 1.905766e-42
17.83090000 -40.45389900 370.52200000 0.10532400 -0.99103397 -0.08221200 1.905766e-42
19.62109900 -40.32080100 370.39001000 0.12042200 -0.98926997 -0.08272780 1.905766e-42
21.41010100 -40.12550000 370.35300000 0.13727400 -0.98718798 -0.08133330 1.905766e-42
23.02910000 -39.75690100 369.65799000 0.15152800 -0.98466998 -0.08639660 1.905766e-42
24.61969900 -39.25809900 368.97800000 0.16510500 -0.98210901 -0.09056680 1.905766e-42
26.25589900 -38.90090200 368.31900000 0.17839500 -0.97952402 -0.09331800 1.905766e-42
28.02370100 -38.68560000 368.05701000 0.19354901 -0.97691900 -0.09037290 1.905766e-42
29.79660000 -38.38019900 367.99500000 0.20980200 -0.97411197 -0.08419460 1.905766e-42
31.39959900 -37.96009800 367.29300000 0.22510800 -0.97068602 -0.08423420 1.905766e-42
32.98440200 -37.48189900 366.58499000 0.24241100 -0.96650398 -0.08429740 1.905766e-42
34.48899800 -36.96189900 365.74500000 0.25878000 -0.96209902 -0.08600990 1.905766e-42
35.81940100 -36.20620000 364.79700000 0.27374199 -0.95764601 -0.08932330 1.905766e-42
37.36340000 -35.61650100 364.08401000 0.29205000 -0.95217901 -0.08978500 1.905766e-42
39.14950200 -35.42160000 363.97699000 0.31384900 -0.94568902 -0.08467990 1.905766e-42
40.60670100 -34.63040200 363.27600000 0.33168101 -0.93947202 -0.08591020 1.905766e-42
42.32020200 -34.09989900 363.12601000 0.35259500 -0.93213803 -0.08243040 1.905766e-42
43.50820200 -33.50560000 361.91199000 0.35374901 -0.93109298 -0.08903870 1.905766e-42
44.79040100 -32.89020200 360.80899000 0.35400999 -0.93056601 -0.09339660 1.905766e-42
46.34299900 -32.23469900 360.17599000 0.35683700 -0.92973697 -0.09086160 1.905766e-42
47.59069800 -31.43310000 359.15601000 0.35951501 -0.92902398 -0.08754000 1.905766e-42
49.01340100 -30.62389900 358.40701000 0.36274001 -0.92823899 -0.08241310 1.905766e-42
