# .PCD v0.7 - Point Cloud Data file format
# 5 154 0
# 1 39 0
# 40 66 0
# 67 86 0
# 87 127 0
# 128 154 0
VERSION 0.7
FIELDS x y z normal_x normal_y normal_z curvature
SIZE 4 4 4 4 4 4 4
TYPE F F F F F F F
COUNT 1 1 1 1 1 1 1
WIDTH 154
HEIGHT 1
VIEWPOINT 0 0 0 1 0 0 0
POINTS 154
DATA ascii
35.33350000 34.15589900 539.61902000 0.42171499 -0.40153900 0.81297100 1.905766e-42
33.65020000 34.02299900 540.24298000 0.40000901 -0.33285299 0.85393298 1.905766e-42
32.18629800 34.96060200 540.71002000 0.33279100 -0.17465299 0.92668599 1.905766e-42
30.46250000 35.01120000 541.22498000 0.27423501 -0.08981310 0.95745999 1.905766e-42
28.90980000 34.16809800 541.57001000 0.25039601 -0.09707030 0.96326500 1.905766e-42
27.25659900 33.55569800 541.93298000 0.21026200 -0.07824460 0.97450900 1.905766e-42
25.80570000 32.50920100 542.13202000 0.19909100 -0.11724300 0.97294199 1.905766e-42
24.11410000 31.97260100 542.43298000 0.15925300 -0.09574490 0.98258400 1.905766e-42
22.48640100 31.22320000 542.60303000 0.14476100 -0.11656100 0.98257703 1.905766e-42
20.89150000 30.41300000 542.80298000 0.14713000 -0.16390100 0.97544301 1.905766e-42
19.21229900 29.78150000 542.95001000 0.14757800 -0.19759899 0.96911103 1.905766e-42
17.43199900 29.59030000 543.13397000 0.13303700 -0.18685500 0.97333801 1.905766e-42
15.74590000 28.96200000 543.18201000 0.11185700 -0.22562701 0.96777099 1.905766e-42
13.95400000 28.80900000 543.25702000 0.07036190 -0.20504899 0.97621900 1.905766e-42
12.57850000 28.29060000 543.19897000 0.04387920 -0.23394600 0.97125900 1.905766e-42
10.79970000 28.02319900 543.13300000 -0.00099414 -0.22292601 0.97483498 1.905766e-42
9.00650020 27.88299900 543.06403000 -0.04731510 -0.19500799 0.97965997 1.905766e-42
7.31899980 27.30460000 542.82300000 -0.07363940 -0.23188099 0.96995300 1.905766e-42
5.53173020 27.19990000 542.63702000 -0.10873200 -0.20884401 0.97188598 1.905766e-42
3.93187000 26.45109900 542.29102000 -0.12373100 -0.28470001 0.95059800 1.905766e-42
2.16113000 26.29229900 542.00897000 -0.15211700 -0.28202200 0.94727200 1.905766e-42
0.38190800 26.36030000 541.74500000 -0.17725900 -0.25687599 0.95005000 1.905766e-42
-1.25679000 25.74430100 541.32703000 -0.18656600 -0.33596399 0.92321199 1.905766e-42
-2.96024990 26.27300100 541.08398000 -0.20304300 -0.26890901 0.94152099 1.905766e-42
-4.71502020 26.38349900 540.69897000 -0.21864399 -0.25567701 0.94171298 1.905766e-42
-6.44662000 26.30110000 540.21503000 -0.25017899 -0.26932999 0.92998499 1.905766e-42
-8.10853000 26.90060000 539.87000000 -0.28562799 -0.20647600 0.93583399 1.905766e-42
-9.83242990 27.01190000 539.36401000 -0.31847200 -0.19774100 0.92707801 1.905766e-42
-11.54260000 27.13570000 538.81702000 -0.34798199 -0.19016100 0.91801298 1.905766e-42
-13.22760000 27.15169900 538.18402000 -0.37320900 -0.19703700 0.90658200 1.905766e-42
-14.87080000 27.65140000 537.64502000 -0.39294201 -0.16177499 0.90522099 1.905766e-42
-16.51810100 27.93940000 536.97900000 -0.41274801 -0.15403700 0.89772600 1.905766e-42
-18.13410000 27.93499900 536.18597000 -0.44232699 -0.18140800 0.87831497 1.905766e-42
-19.68210000 28.58670000 535.53900000 -0.46147701 -0.15430100 0.87362999 1.905766e-42
-21.18300100 29.30200000 534.84900000 -0.47261000 -0.13313299 0.87115800 1.905766e-42
-22.74080100 29.24589900 533.94897000 -0.49335399 -0.19054900 0.84870100 1.905766e-42
-24.25950100 29.78240000 533.14600000 -0.49343601 -0.21353300 0.84316301 1.905766e-42
-25.76470000 30.17040100 532.23798000 -0.48703799 -0.27165201 0.83006001 1.905766e-42
-27.24290100 30.28790100 531.21802000 -0.49226800 -0.37872201 0.78373599 1.905766e-42
-28.69809900 30.31360100 530.15900000 -0.49885899 -0.49390000 0.71218097 1.905766e-42
-29.49270100 28.95710000 529.28198000 -0.54031801 -0.59905601 0.59092200 1.905766e-42
-30.33000000 28.64510000 527.71899000 -0.55775398 -0.67885500 0.47756299 1.905766e-42
-30.29019900 27.72720000 526.17200000 -0.58010298 -0.72436899 0.37251899 1.905766e-42
-30.26910000 26.83070000 524.61102000 -0.58735400 -0.75443000 0.29300401 1.905766e-42
-30.41510000 26.39769900 522.87000000 -0.59001797 -0.77226198 0.23556300 1.905766e-42
-30.28910100 25.81419900 521.17200000 -0.58605498 -0.78533500 0.19946900 1.905766e-42
-30.36750000 25.48210000 519.40399000 -0.58601898 -0.78938502 0.18290199 1.905766e-42
-29.98830000 24.86520000 517.75598000 -0.59462398 -0.77875698 0.19989900 1.905766e-42
-29.17330000 23.82370000 516.53497000 -0.59367198 -0.77348500 0.22197901 1.905766e-42
-29.21290000 23.21050100 514.84399000 -0.60930997 -0.75870597 0.23044901 1.905766e-42
-30.10350000 23.74609900 513.37402000 -0.63616103 -0.74025601 0.21753100 1.905766e-42
-30.84820000 23.78660000 511.73599000 -0.66044903 -0.72084701 0.21020700 1.905766e-42
-31.46910100 23.85560000 510.04700000 -0.68381202 -0.70045799 0.20435099 1.905766e-42
-32.36880100 24.35390100 508.57001000 -0.70958298 -0.67795497 0.19201200 1.905766e-42
-33.19969900 24.85430000 507.05399000 -0.73497599 -0.65329498 0.18170200 1.905766e-42
-33.82080100 25.04830000 505.37601000 -0.75820899 -0.62647599 0.18068300 1.905766e-42
-34.53300100 25.57970000 503.81000000 -0.78492200 -0.59549201 0.17113200 1.905766e-42
-35.03990200 26.27689900 502.23001000 -0.80624998 -0.56944603 0.16028599 1.905766e-42
-35.66420000 26.37400100 500.54501000 -0.82086599 -0.55084997 0.15081000 1.905766e-42
-36.09209800 26.84079900 498.85999000 -0.83285999 -0.53662699 0.13556100 1.905766e-42
-36.44839900 26.53370100 497.12201000 -0.84189999 -0.52525699 0.12372800 1.905766e-42
-36.95169800 26.99959900 495.45801000 -0.85147202 -0.51356298 0.10605900 1.905766e-42
-37.26680000 27.09830100 493.68900000 -0.86028898 -0.50157899 0.09122160 1.905766e-42
-37.39659900 27.80880000 492.04001000 -0.86786401 -0.49116600 0.07461910 1.905766e-42
-37.53170000 27.95540000 490.25101000 -0.87642503 -0.47739601 0.06303410 1.905766e-42
-37.51060100 27.90049900 488.45200000 -0.88571900 -0.46067101 0.05731380 1.905766e-42
-37.06290100 27.12760000 486.88901000 -0.89329100 -0.44416499 0.06891350 1.905766e-42
-36.52719900 25.47240100 486.42700000 -0.89146298 -0.44636801 0.07778010 1.905766e-42
-35.93999900 23.77280000 486.34698000 -0.88622999 -0.45412099 0.09148540 1.905766e-42
-35.13230100 22.28340000 485.73999000 -0.88185000 -0.45943800 0.10610200 1.905766e-42
-34.50230000 20.60260000 485.60599000 -0.87400401 -0.46991801 0.12367200 1.905766e-42
-33.73450100 18.97460000 485.60001000 -0.86398500 -0.48290500 0.14259399 1.905766e-42
-32.78530100 17.66090000 484.81699000 -0.85821402 -0.48655701 0.16349600 1.905766e-42
-32.09790000 15.99830000 484.75900000 -0.84788299 -0.49626100 0.18659800 1.905766e-42
-31.19000100 14.44430000 484.78500000 -0.83603698 -0.50720000 0.20926200 1.905766e-42
-30.35790100 13.05890000 483.99301000 -0.82969600 -0.50771302 0.23201901 1.905766e-42
-29.53570000 11.45770000 483.99301000 -0.81743902 -0.51703799 0.25389999 1.905766e-42
-28.74160000 9.97101020 483.36099000 -0.80943000 -0.51850802 0.27563000 1.905766e-42
-27.84059900 8.41683010 483.24799000 -0.79755300 -0.52525997 0.29666600 1.905766e-42
-27.02269900 7.05545000 482.40100000 -0.79082501 -0.52321100 0.31756300 1.905766e-42
-26.15720000 5.47716000 482.39801000 -0.77746803 -0.52993000 0.33870000 1.905766e-42
-25.18750000 3.96069000 482.39899000 -0.76324201 -0.53669202 0.35975501 1.905766e-42
-24.75820000 2.63489010 481.26001000 -0.75902200 -0.52780098 0.38119799 1.905766e-42
-23.99040000 1.07658000 480.78799000 -0.74653399 -0.52887100 0.40371099 1.905766e-42
-23.16510000 -0.43840799 480.27499000 -0.72910702 -0.54209101 0.41778001 1.905766e-42
-22.17499900 -1.92037000 480.02301000 -0.71007103 -0.55685598 0.43094099 1.905766e-42
-21.06119900 -3.33384990 479.98499000 -0.69043398 -0.57229900 0.44246501 1.905766e-42
-19.80719900 -4.49918990 480.54099000 -0.67110902 -0.59000200 0.44889900 1.905766e-42
-18.49959900 -5.71496010 480.76999000 -0.65241498 -0.60485798 0.45662001 1.905766e-42
-17.06250000 -6.32559010 481.66501000 -0.63627702 -0.61972398 0.45944899 1.905766e-42
-15.70840000 -7.35838990 482.24799000 -0.62147897 -0.62751698 0.46902701 1.905766e-42
-14.45500000 -8.39447980 483.01999000 -0.60850602 -0.63075399 0.48152900 1.905766e-42
-12.87880000 -9.19647980 483.35501000 -0.58808601 -0.63265997 0.50388098 1.905766e-42
-11.30590000 -9.66996960 484.09100000 -0.55825800 -0.63965100 0.52838898 1.905766e-42
-9.84760000 -10.50420000 484.73700000 -0.52814102 -0.64565200 0.55154401 1.905766e-42
-8.46063040 -11.43390000 485.40900000 -0.49727899 -0.65186298 0.57252800 1.905766e-42
-6.88018990 -11.94570000 486.10199000 -0.46421200 -0.65949702 0.59124500 1.905766e-42
-5.19541980 -12.54700000 486.30200000 -0.43363699 -0.66470897 0.60837603 1.905766e-42
-3.71386000 -12.81680000 487.28799000 -0.40205199 -0.67165798 0.62227798 1.905766e-42
-2.19498990 -12.83860000 488.25400000 -0.36844200 -0.67756999 0.63651401 1.905766e-42
-0.57885998 -12.83580000 489.04599000 -0.33379200 -0.68327898 0.64939398 1.905766e-42
0.96096200 -12.63290000 489.95599000 -0.30011600 -0.68926501 0.65942699 1.905766e-42
2.21480990 -12.19840000 491.17200000 -0.27083001 -0.69558102 0.66544598 1.905766e-42
3.83520010 -11.84340000 491.87100000 -0.23830099 -0.70056200 0.67262602 1.905766e-42
5.40251020 -11.57920000 492.71600000 -0.20670000 -0.70494199 0.67847800 1.905766e-42
6.91640000 -11.03610000 493.52399000 -0.17306700 -0.70815903 0.68451399 1.905766e-42
8.11796000 -10.43580000 494.72198000 -0.14253400 -0.71167701 0.68789500 1.905766e-42
9.36738010 -9.71273040 495.79800000 -0.11191700 -0.71485198 0.69026202 1.905766e-42
10.78250000 -8.99816990 496.64999000 -0.07924610 -0.71685302 0.69270599 1.905766e-42
12.40560000 -8.53676990 497.27701000 -0.04409820 -0.71673101 0.69595402 1.905766e-42
13.81920000 -7.80629010 498.11801000 -0.01253070 -0.71748400 0.69646198 1.905766e-42
15.49640000 -7.35167980 498.58701000 0.02167370 -0.71546799 0.69830900 1.905766e-42
16.93549900 -6.55249980 499.31601000 0.05226990 -0.71498603 0.69718200 1.905766e-42
18.39970000 -5.76746990 500.00800000 0.08335760 -0.71380001 0.69537097 1.905766e-42
19.89160000 -4.95145990 500.59900000 0.11495400 -0.71183503 0.69287598 1.905766e-42
21.58869900 -4.37259010 500.75601000 0.14943700 -0.70687401 0.69137400 1.905766e-42
22.96740000 -3.44815990 501.45200000 0.17927200 -0.70497400 0.68620300 1.905766e-42
24.65600000 -2.83056000 501.53699000 0.21393999 -0.69890398 0.68246901 1.905766e-42
26.36860100 -2.27743010 501.57199000 0.24894100 -0.69192100 0.67769700 1.905766e-42
28.06370000 -1.67706000 501.49500000 0.28314701 -0.68405098 0.67223698 1.905766e-42
29.60400000 -0.80857402 501.83099000 0.31414399 -0.67730802 0.66525799 1.905766e-42
31.20459900 -0.00648307 501.64499000 0.34624100 -0.66730398 0.65941000 1.905766e-42
32.42269900 1.12297000 502.33801000 0.37139601 -0.66072202 0.65231198 1.905766e-42
33.97370100 1.77190010 501.69501000 0.40155801 -0.64778000 0.64740402 1.905766e-42
35.52999900 2.66643000 501.56299000 0.43148801 -0.63480002 0.64097399 1.905766e-42
37.04629900 3.62746000 501.69501000 0.46003899 -0.62161398 0.63400298 1.905766e-42
38.54560100 4.61790990 501.59000000 0.47782499 -0.61606097 0.62622100 1.905766e-42
39.79190100 5.91601990 501.54901000 0.49019200 -0.61189401 0.62072301 1.905766e-42
39.25880100 6.75556990 503.04901000 0.48805600 -0.61521399 0.61912298 1.905766e-42
39.17139800 8.04734990 504.29901000 0.49254999 -0.61453098 0.61623502 1.905766e-42
38.63750100 8.97914980 505.74399000 0.49247301 -0.61707300 0.61375099 1.905766e-42
38.40179800 10.07760000 507.14999000 0.49681100 -0.61725497 0.61006200 1.905766e-42
38.56409800 11.68110000 507.95200000 0.51051098 -0.61088502 0.60514301 1.905766e-42
38.30630100 12.61880000 509.46600000 0.51425499 -0.61188298 0.60095000 1.905766e-42
38.19120000 13.88200000 510.74399000 0.52088100 -0.60878998 0.59838003 1.905766e-42
37.80569800 14.74460000 512.27600000 0.52019900 -0.61182398 0.59587300 1.905766e-42
37.60839800 16.00760100 513.54303000 0.52572399 -0.61227697 0.59053499 1.905766e-42
37.43190000 17.09830100 514.96399000 0.52912098 -0.61601400 0.58357298 1.905766e-42
37.08060100 18.02070000 516.46899000 0.52747399 -0.62445801 0.57604098 1.905766e-42
36.84489800 19.10619900 517.88599000 0.52862698 -0.63216102 0.56650400 1.905766e-42
36.84500100 20.42569900 519.10999000 0.53418499 -0.63857901 0.55395198 1.905766e-42
36.63430000 21.43050000 520.58801000 0.52754301 -0.65529501 0.54063499 1.905766e-42
36.31610100 22.26639900 522.15100000 0.52061898 -0.67141598 0.52740502 1.905766e-42
36.27360200 23.42210000 523.53003000 0.51935899 -0.68686998 0.50840598 1.905766e-42
36.09479900 24.30540100 525.08801000 0.51859599 -0.70314002 0.48647001 1.905766e-42
36.04859900 25.21730000 526.63898000 0.51986998 -0.71688497 0.46455500 1.905766e-42
36.05939900 26.21530000 528.13702000 0.52311301 -0.72774702 0.44355199 1.905766e-42
36.13539900 27.31040000 529.56403000 0.52846497 -0.73527700 0.42437199 1.905766e-42
35.99369800 28.14320000 531.15302000 0.53243798 -0.74215698 0.40707901 1.905766e-42
36.33260000 29.27660000 532.51001000 0.53068501 -0.73522598 0.42168200 1.905766e-42
36.49190100 30.14950000 534.07599000 0.52028197 -0.71837598 0.46178201 1.905766e-42
36.25370000 30.96500000 535.66302000 0.50464898 -0.68811500 0.52137101 1.905766e-42
36.46250200 32.35979800 536.78101000 0.49050501 -0.63749897 0.59413803 1.905766e-42
36.18870200 33.38019900 538.23901000 0.46052200 -0.54304397 0.70215601 1.905766e-42
