# .PCD v0.7 - Point Cloud Data file format
# 3 67 0
# 1 24 0
# 25 52 0
# 53 67 0
VERSION 0.7
FIELDS x y z normal_x normal_y normal_z curvature
SIZE 4 4 4 4 4 4 4
TYPE F F F F F F F
COUNT 1 1 1 1 1 1 1
WIDTH 67
HEIGHT 1
VIEWPOINT 0 0 0 1 0 0 0
POINTS 67
DATA ascii
14.52830000 48.16339900 327.07001000 -0.01272350 -0.48137000 -0.87642503 1.905766e-42
14.78100000 46.60540000 327.93500000 0.04200060 -0.49577701 -0.86743301 1.905766e-42
14.35230000 45.08630000 328.79999000 0.04710980 -0.49212101 -0.86925101 1.905766e-42
14.22970000 43.56539900 329.75500000 0.04468970 -0.49819899 -0.86590999 1.905766e-42
13.51980000 42.05920000 330.43900000 -0.01554120 -0.51466000 -0.85725403 1.905766e-42
12.77320000 40.72240100 331.38501000 -0.11615900 -0.53395599 -0.83749503 1.905766e-42
12.27650000 39.33390000 332.41699000 -0.13539600 -0.54936099 -0.82454199 1.905766e-42
12.26500000 37.86869800 333.46301000 -0.13177601 -0.56806099 -0.81236798 1.905766e-42
11.48640000 36.59339900 334.46600000 -0.15830199 -0.57802701 -0.80051500 1.905766e-42
11.42460000 35.15869900 335.55200000 -0.14975600 -0.58819801 -0.79473001 1.905766e-42
10.93550000 33.81420100 336.64401000 -0.15440400 -0.59326899 -0.79005802 1.905766e-42
10.56330000 32.49280200 337.80801000 -0.15629600 -0.60061401 -0.78411400 1.905766e-42
9.73810010 31.25680000 338.82401000 -0.18886800 -0.60589600 -0.77279902 1.905766e-42
8.86769010 30.15420000 339.94901000 -0.22872800 -0.60967499 -0.75893301 1.905766e-42
9.21226980 28.73679900 341.00400000 -0.21312700 -0.62270200 -0.75287402 1.905766e-42
9.50699040 27.37980100 342.14899000 -0.19987400 -0.63539600 -0.74586999 1.905766e-42
9.29877000 26.08090000 343.37799000 -0.20695899 -0.64097899 -0.73913002 1.905766e-42
8.14144990 25.14559900 344.39099000 -0.25240201 -0.63841599 -0.72713101 1.905766e-42
8.03944970 23.82379900 345.60800000 -0.26192901 -0.64633000 -0.71669400 1.905766e-42
8.14461040 22.49799900 346.82101000 -0.26631799 -0.65691698 -0.70536101 1.905766e-42
8.39673040 21.15830000 347.99701000 -0.26967099 -0.66759902 -0.69396597 1.905766e-42
8.07822040 19.96430000 349.30499000 -0.29548201 -0.67549098 -0.67557502 1.905766e-42
8.65530970 18.65460000 350.39700000 -0.30432099 -0.67794198 -0.66916603 1.905766e-42
8.91088010 18.04950000 351.06299000 -0.31375700 -0.67837000 -0.66435701 1.905766e-42
7.38833000 17.73060000 351.96899000 -0.34721300 -0.68923497 -0.63592303 1.905766e-42
5.91845990 18.74670000 351.75201000 -0.37538800 -0.68640399 -0.62284303 1.905766e-42
4.62220000 19.86130000 351.18799000 -0.40642399 -0.67572999 -0.61498702 1.905766e-42
3.18226000 20.94059900 351.14801000 -0.44735900 -0.66029900 -0.60321999 1.905766e-42
1.92609000 22.20109900 350.87701000 -0.48543200 -0.64108598 -0.59444499 1.905766e-42
0.85551500 23.47690000 350.19400000 -0.48999801 -0.62861800 -0.60393798 1.905766e-42
-0.00593740 24.85260000 349.41599000 -0.46913099 -0.62761599 -0.62129998 1.905766e-42
-1.05771010 26.22110000 348.90500000 -0.43614799 -0.63047200 -0.64209002 1.905766e-42
-1.75241010 27.62200000 348.01401000 -0.42183501 -0.62999099 -0.65204799 1.905766e-42
-2.49700000 28.98609900 347.10599000 -0.41155899 -0.61774099 -0.67008603 1.905766e-42
-3.31538010 30.38719900 346.32700000 -0.40625501 -0.60174501 -0.68764901 1.905766e-42
-4.01303010 31.83160000 345.51001000 -0.41159901 -0.58279401 -0.70066899 1.905766e-42
-4.68862010 33.33509800 344.78699000 -0.43315899 -0.56520498 -0.70208102 1.905766e-42
-4.97383020 34.79040100 343.76599000 -0.44459400 -0.55460799 -0.70338202 1.905766e-42
-5.67242000 36.29219800 343.06201000 -0.46446601 -0.54070097 -0.70136601 1.905766e-42
-6.21958020 37.81370200 342.27100000 -0.47828099 -0.52973902 -0.70044500 1.905766e-42
-6.82320980 39.33250000 341.51700000 -0.49055201 -0.52213198 -0.69766498 1.905766e-42
-7.20209980 40.86520000 340.65201000 -0.49882901 -0.51612699 -0.69626302 1.905766e-42
-7.93949990 42.43389900 340.16699000 -0.51093298 -0.50833899 -0.69321001 1.905766e-42
-8.12679000 43.87360000 339.10300000 -0.51481497 -0.50181401 -0.69508898 1.905766e-42
-8.89085010 45.42810100 338.61301000 -0.52399600 -0.49355501 -0.69414097 1.905766e-42
-9.46236040 47.01319900 337.98001000 -0.52862298 -0.48744801 -0.69494802 1.905766e-42
-9.56834030 48.52640200 337.01099000 -0.52723902 -0.48162001 -0.70004398 1.905766e-42
-9.55484010 49.93940000 335.89600000 -0.52791601 -0.47387600 -0.70480299 1.905766e-42
-9.82052990 51.52010000 335.07700000 -0.53790897 -0.46120101 -0.70565403 1.905766e-42
-10.34840000 53.15990100 334.55499000 -0.55818999 -0.44434500 -0.70070100 1.905766e-42
-10.10210000 54.57149900 333.46600000 -0.56025499 -0.44404101 -0.69924402 1.905766e-42
-9.83911990 56.00849900 332.41400000 -0.55377102 -0.44460201 -0.70403701 1.905766e-42
-9.12959000 57.06790200 331.14301000 -0.53312999 -0.44645000 -0.71864802 1.905766e-42
-7.93027020 55.72950000 331.04199000 -0.49434701 -0.45707300 -0.73939502 1.905766e-42
-6.38202000 55.09080100 330.38199000 -0.47203699 -0.46019399 -0.75193202 1.905766e-42
-4.87592980 54.16090000 330.05499000 -0.46111900 -0.45631501 -0.76101601 1.905766e-42
-3.27872990 53.49160000 329.56400000 -0.42236701 -0.45229000 -0.78551900 1.905766e-42
-1.70225000 52.68399800 329.24399000 -0.38232300 -0.45032701 -0.80686700 1.905766e-42
-0.03693710 52.37279900 328.63599000 -0.34634101 -0.44792399 -0.82426399 1.905766e-42
1.63037000 51.79530000 328.28000000 -0.31326401 -0.44376200 -0.83960700 1.905766e-42
3.33699990 51.31909900 327.96301000 -0.27828500 -0.44114500 -0.85319901 1.905766e-42
5.07495020 51.11420100 327.54099000 -0.24727599 -0.44534099 -0.86053801 1.905766e-42
6.81257010 50.84479900 327.15601000 -0.24077700 -0.44711500 -0.86146098 1.905766e-42
8.50730990 50.26179900 326.98901000 -0.22791600 -0.44476500 -0.86616302 1.905766e-42
10.23360000 49.76440000 326.87701000 -0.19574900 -0.43967500 -0.87656599 1.905766e-42
11.91960000 50.18880100 326.41101000 -0.12482400 -0.42129499 -0.89829201 1.905766e-42
13.61530000 49.58630000 326.45200000 -0.07806150 -0.45119500 -0.88900501 1.905766e-42
