# .PCD v0.7 - Point Cloud Data file format
# 3 145 0
# 1 56 0
# 57 123 0
# 124 145 0
VERSION 0.7
FIELDS x y z normal_x normal_y normal_z curvature
SIZE 4 4 4 4 4 4 4
TYPE F F F F F F F
COUNT 1 1 1 1 1 1 1
WIDTH 145
HEIGHT 1
VIEWPOINT 0 0 0 1 0 0 0
POINTS 145
DATA ascii
4.63547990 1.48821000 433.75601000 -0.49682701 -0.86177802 0.10247700 1.905766e-42
5.54076000 -0.07169760 431.99200000 -0.50554597 -0.80683100 0.30568999 1.905766e-42
7.00404980 -1.11984000 431.97900000 -0.47506699 -0.81299001 0.33668801 1.905766e-42
8.46061990 -2.17330000 431.88599000 -0.44707900 -0.81974101 0.35797200 1.905766e-42
10.15270000 -2.78009010 431.98001000 -0.42161000 -0.83818102 0.34597501 1.905766e-42
11.78370000 -3.30323000 432.53299000 -0.40004501 -0.86564201 0.30104500 1.905766e-42
13.46270000 -3.90095000 432.78500000 -0.36771601 -0.88998502 0.26965001 1.905766e-42
15.09620000 -4.01793000 433.53201000 -0.34445399 -0.91585600 0.20629901 1.905766e-42
16.89010000 -4.16166020 433.56500000 -0.29423800 -0.94123501 0.16583300 1.905766e-42
18.46260100 -4.70568990 434.25201000 -0.24818200 -0.96348798 0.10048000 1.905766e-42
19.97680100 -5.00044010 435.17999000 -0.21500701 -0.97566599 0.04299770 1.905766e-42
21.62039900 -5.41471000 435.78500000 -0.17706300 -0.98419702 -0.00216567 1.905766e-42
23.37890100 -5.76211980 435.95001000 -0.13851000 -0.98951298 -0.04097360 1.905766e-42
25.01580000 -6.08425000 436.62601000 -0.12405300 -0.98998803 -0.06733600 1.905766e-42
26.43429900 -6.39092020 437.69000000 -0.12382000 -0.98952699 -0.07419290 1.905766e-42
28.10269900 -6.48524000 438.35901000 -0.12196700 -0.98948097 -0.07778640 1.905766e-42
29.51870000 -6.78729010 439.42899000 -0.10247700 -0.99323398 -0.05463440 1.905766e-42
31.23130000 -6.66205980 439.96899000 -0.06905250 -0.99686903 -0.03851240 1.905766e-42
32.62160100 -6.93818000 441.07800000 -0.03952690 -0.99920797 -0.00457583 1.905766e-42
34.38390000 -6.97303010 441.44299000 -0.00507092 -0.99991500 0.01200670 1.905766e-42
36.05360000 -7.03339000 442.11200000 0.02888720 -0.99883598 0.03864070 1.905766e-42
37.53760100 -6.96049020 443.12799000 0.06189850 -0.99528998 0.07461160 1.905766e-42
39.23270000 -6.78339000 443.70700000 0.09685760 -0.99026400 0.09998190 1.905766e-42
40.81150100 -6.50369980 444.52499000 0.11868600 -0.98494601 0.12568100 1.905766e-42
42.42030000 -6.17434980 445.26300000 0.14069600 -0.97893399 0.14796101 1.905766e-42
44.17869900 -5.88065000 445.51099000 0.16378100 -0.97334898 0.16052200 1.905766e-42
45.76580000 -5.33514980 446.16101000 0.18818100 -0.96549100 0.18004300 1.905766e-42
47.32659900 -4.92270990 446.95801000 0.21324401 -0.95632303 0.19993100 1.905766e-42
48.84610000 -4.40701010 447.77301000 0.23876400 -0.94607902 0.21892001 1.905766e-42
50.26350000 -3.80082010 448.70200000 0.26293999 -0.93495601 0.23815800 1.905766e-42
51.99150100 -3.30146000 448.77100000 0.28542799 -0.92608202 0.24678500 1.905766e-42
53.47060000 -2.56302000 449.48300000 0.30904600 -0.91325903 0.26542199 1.905766e-42
54.93579900 -1.80448000 450.20300000 0.33361799 -0.89884502 0.28421101 1.905766e-42
56.23070100 -0.99813402 451.15799000 0.35804701 -0.88311303 0.30317399 1.905766e-42
56.89390200 -0.23874700 452.64899000 0.37543800 -0.86979401 0.32016301 1.905766e-42
58.37830000 0.67801601 453.09201000 0.40009999 -0.85596001 0.32749501 1.905766e-42
59.95480000 1.53750000 453.21899000 0.41909099 -0.84580100 0.33012599 1.905766e-42
61.49770000 2.42477010 453.48700000 0.42802799 -0.84090698 0.33116099 1.905766e-42
63.12350100 3.19357990 453.56201000 0.43705401 -0.83508402 0.33409300 1.905766e-42
64.68620300 4.08690020 453.57401000 0.44611001 -0.82826298 0.33906499 1.905766e-42
66.24379700 4.98897980 453.58301000 0.45516199 -0.82035798 0.34617901 1.905766e-42
67.79260300 5.90615990 453.59299000 0.46419400 -0.81126201 0.35549799 1.905766e-42
69.06759600 6.99303010 454.25101000 0.47913900 -0.80235702 0.35587600 1.905766e-42
69.68979600 7.80481000 455.73199000 0.49935400 -0.78247601 0.37199000 1.905766e-42
69.28459900 8.38984010 457.38501000 0.49923399 -0.76203799 0.41238800 1.905766e-42
68.77909900 8.97463040 459.01099000 0.49560499 -0.74325502 0.44938600 1.905766e-42
69.20990000 10.15680000 460.29800000 0.50703102 -0.71507698 0.48123300 1.905766e-42
70.34300200 11.48020000 460.75000000 0.52616000 -0.69045198 0.49641901 1.905766e-42
71.58550300 12.68280000 461.25000000 0.54255199 -0.66937101 0.50752300 1.905766e-42
72.62539700 14.01860000 461.86200000 0.55657101 -0.65240800 0.51438600 1.905766e-42
73.82510400 15.33040000 462.14401000 0.57042599 -0.63718802 0.51827198 1.905766e-42
74.70320100 16.70949900 462.89700000 0.58096701 -0.62261200 0.52424401 1.905766e-42
75.39189900 18.09260000 463.82101000 0.58982402 -0.60922003 0.53005499 1.905766e-42
75.86160300 19.41659900 464.94601000 0.59688300 -0.59739202 0.53558701 1.905766e-42
75.99089800 20.65690000 466.24399000 0.60148001 -0.58794999 0.54086602 1.905766e-42
76.55449700 22.18590000 467.00900000 0.60733098 -0.56521302 0.55828601 1.905766e-42
76.41480300 23.43820000 468.29401000 0.60536897 -0.54418600 0.58085299 1.905766e-42
76.10749800 24.52020100 469.69901000 0.60015899 -0.52601600 0.60259098 1.905766e-42
76.01370200 25.83370000 470.92599000 0.59703898 -0.50747800 0.62129700 1.905766e-42
75.23449700 26.72240100 472.28400000 0.58540702 -0.49636900 0.64102799 1.905766e-42
74.41359700 27.53520000 473.66501000 0.57241303 -0.49000499 0.65744901 1.905766e-42
73.38530000 28.14060000 475.01199000 0.55458403 -0.48467299 0.67640901 1.905766e-42
72.19069700 28.66410100 476.25299000 0.53343999 -0.47882700 0.69725698 1.905766e-42
71.16960100 29.41120000 477.53299000 0.51205599 -0.46950999 0.71927702 1.905766e-42
70.01499900 30.10590000 478.72601000 0.48826501 -0.45901200 0.74223000 1.905766e-42
68.89340200 30.87310000 479.90701000 0.46216100 -0.44606000 0.76644498 1.905766e-42
67.43509700 31.16920100 480.92001000 0.43253899 -0.43271700 0.79099000 1.905766e-42
66.23390200 32.10660200 481.87799000 0.40239701 -0.41295800 0.81703299 1.905766e-42
64.77210200 32.63420100 482.78601000 0.37151799 -0.39143199 0.84187597 1.905766e-42
63.25289900 32.89839900 483.71500000 0.34805101 -0.37645799 0.85856801 1.905766e-42
61.70859900 33.60710100 484.30899000 0.33804601 -0.37961701 0.86117101 1.905766e-42
60.20410200 33.41579800 485.27802000 0.33231699 -0.37924001 0.86356401 1.905766e-42
58.54159900 33.63810000 485.93201000 0.32984701 -0.37903699 0.86459899 1.905766e-42
56.86130100 33.86579900 486.53500000 0.32793799 -0.37831101 0.86564302 1.905766e-42
55.18280000 33.64210100 487.14600000 0.30272001 -0.38918000 0.87000000 1.905766e-42
53.51730000 33.87379800 487.78799000 0.27583700 -0.39480400 0.87638098 1.905766e-42
51.88999900 34.27570000 488.44400000 0.24509899 -0.39744601 0.88428700 1.905766e-42
50.15890100 34.29180100 488.93701000 0.20988999 -0.40161499 0.89143199 1.905766e-42
48.45980100 33.72020000 489.10001000 0.17486200 -0.40148500 0.89901799 1.905766e-42
46.68520000 33.57709900 489.36499000 0.13794200 -0.40082300 0.90571100 1.905766e-42
44.92210000 33.84170200 489.61200000 0.10133300 -0.40044001 0.91070300 1.905766e-42
43.14830000 33.53630100 489.59299000 0.07484860 -0.39582801 0.91526902 1.905766e-42
41.45909900 32.91439800 489.58200000 0.05218720 -0.39160800 0.91865098 1.905766e-42
39.66000000 32.85870000 489.57599000 0.02887830 -0.38954100 0.92055601 1.905766e-42
37.86370100 32.74449900 489.59299000 0.00723765 -0.38752499 0.92183101 1.905766e-42
36.07140000 32.90090200 489.64999000 -0.01353420 -0.38460299 0.92298299 1.905766e-42
34.28089900 32.80239900 489.49399000 -0.03285820 -0.38123700 0.92389297 1.905766e-42
32.48400100 32.76820000 489.39401000 -0.06110110 -0.37808099 0.92375398 1.905766e-42
30.69780000 32.65280200 489.20401000 -0.09572870 -0.37609199 0.92162400 1.905766e-42
28.90290100 32.76590000 489.12900000 -0.12927300 -0.37103400 0.91957700 1.905766e-42
27.17219900 33.19910000 488.89099000 -0.16043600 -0.36311099 0.91782898 1.905766e-42
25.46970000 32.75999800 488.50500000 -0.18745300 -0.36747301 0.91094702 1.905766e-42
23.71019900 32.90790200 488.15500000 -0.21376000 -0.36651900 0.90552199 1.905766e-42
22.04890100 33.47760000 487.76099000 -0.23532300 -0.36295301 0.90160298 1.905766e-42
20.29640000 33.81380100 487.52399000 -0.25553399 -0.36428300 0.89554501 1.905766e-42
18.55600000 33.67760100 487.08600000 -0.27858001 -0.37226400 0.88533199 1.905766e-42
16.86280100 33.62490100 486.47699000 -0.30264500 -0.37926000 0.87439603 1.905766e-42
15.18360000 33.48709900 485.84399000 -0.32767400 -0.38594899 0.86236501 1.905766e-42
13.66990000 32.97029900 485.01801000 -0.35234201 -0.39459401 0.84861702 1.905766e-42
12.17400000 32.50980000 484.12900000 -0.37683699 -0.40056801 0.83518797 1.905766e-42
10.64950000 32.30680100 483.19400000 -0.40103200 -0.40248999 0.82290697 1.905766e-42
9.12386040 32.02759900 482.28000000 -0.41927600 -0.40464401 0.81269401 1.905766e-42
7.75267980 31.38649900 481.30600000 -0.43764201 -0.40980199 0.80033302 1.905766e-42
6.32664010 31.02720100 480.26801000 -0.45839000 -0.41402400 0.78642398 1.905766e-42
5.10090020 30.22270000 479.22400000 -0.47836000 -0.41961300 0.77142501 1.905766e-42
3.79549000 29.75690100 478.07599000 -0.50054199 -0.42334899 0.75513798 1.905766e-42
2.33554010 29.83840000 477.02600000 -0.52388197 -0.42504001 0.73816597 1.905766e-42
1.23564990 29.06020000 475.83200000 -0.54324299 -0.42670000 0.72305900 1.905766e-42
-0.11491400 28.78590000 474.67401000 -0.56250900 -0.42651701 0.70828497 1.905766e-42
-1.49486010 28.67499900 473.52399000 -0.58261698 -0.42477599 0.69290900 1.905766e-42
-2.64363000 28.22660100 472.21301000 -0.60211098 -0.41966099 0.67922503 1.905766e-42
-3.91351010 28.02520000 470.95300000 -0.62147403 -0.42224100 0.65991098 1.905766e-42
-5.14409020 28.46800000 469.71600000 -0.64258498 -0.41773999 0.64232200 1.905766e-42
-6.33856010 28.07160000 468.42999000 -0.66019100 -0.42390600 0.62004203 1.905766e-42
-7.17520000 27.29240000 467.03900000 -0.67321700 -0.43470499 0.59817201 1.905766e-42
-8.33267970 27.64040000 465.70499000 -0.69415599 -0.42865801 0.57827300 1.905766e-42
-9.35816960 27.24930000 464.27899000 -0.70894998 -0.43260899 0.55699098 1.905766e-42
-10.16030000 26.63390000 462.78900000 -0.72084701 -0.43859899 0.53666598 1.905766e-42
-11.18430000 26.39080000 461.32901000 -0.73471600 -0.43953699 0.51672000 1.905766e-42
-11.84040000 25.72970000 459.78900000 -0.74509901 -0.44343799 0.49818799 1.905766e-42
-12.84720000 26.20920000 458.37601000 -0.75937402 -0.44027701 0.47906899 1.905766e-42
-13.74040000 26.43740100 456.82999000 -0.77189302 -0.44209501 0.45687199 1.905766e-42
-14.33810000 25.49320000 455.41901000 -0.77936000 -0.45234799 0.43356600 1.905766e-42
-15.19670000 25.56909900 453.83899000 -0.79079998 -0.45375401 0.41078201 1.905766e-42
-14.74470000 24.01619900 453.04901000 -0.78852499 -0.46561000 0.40178999 1.905766e-42
-14.49910000 22.63460000 451.92099000 -0.78761202 -0.47617501 0.39105499 1.905766e-42
-14.03890000 21.25620100 450.85901000 -0.78183800 -0.49809000 0.37501600 1.905766e-42
-13.05790000 19.79670000 450.47501000 -0.76780999 -0.52811998 0.36270899 1.905766e-42
-12.07720000 18.28890000 450.40399000 -0.75160402 -0.55608797 0.35476401 1.905766e-42
-11.20850000 16.71649900 450.29099000 -0.73526502 -0.58291501 0.34582600 1.905766e-42
-11.30880000 16.12870000 448.59299000 -0.73544902 -0.59897399 0.31677300 1.905766e-42
-10.57550000 15.03690000 447.36401000 -0.72455198 -0.62421602 0.29219601 1.905766e-42
-9.87117000 13.57900000 446.57700000 -0.70858902 -0.65353900 0.26606101 1.905766e-42
-9.09074970 12.19660000 445.72900000 -0.69229102 -0.68135202 0.23768000 1.905766e-42
-8.04804990 10.92550000 444.99600000 -0.67503297 -0.70700002 0.21090800 1.905766e-42
-7.06724980 9.74666980 444.05399000 -0.65853697 -0.73080897 0.17957599 1.905766e-42
-5.91837980 8.59714030 443.28000000 -0.63972902 -0.75411803 0.14850301 1.905766e-42
-5.02458000 7.71963980 441.98700000 -0.61442900 -0.78214598 0.10356300 1.905766e-42
-4.01673980 6.95753000 440.70499000 -0.58164102 -0.81138402 0.05787730 1.905766e-42
-3.01698990 6.23848010 439.39200000 -0.54308897 -0.83960599 0.01079140 1.905766e-42
-1.92738000 5.50098990 438.16400000 -0.50091398 -0.86470902 -0.03692480 1.905766e-42
-0.70885199 4.91531990 436.97601000 -0.50920302 -0.86061698 -0.00719403 1.905766e-42
0.57425499 4.09568020 436.01501000 -0.51575899 -0.85648102 0.02078440 1.905766e-42
1.90058000 3.48668000 434.96201000 -0.51751000 -0.85413897 0.05128020 1.905766e-42
3.32032990 2.52145000 434.42099000 -0.50928199 -0.85809398 0.06561620 1.905766e-42
