# .PCD v0.7 - Point Cloud Data file format
# 3 68 0
# 1 30 0
# 31 52 0
# 53 68 0
VERSION 0.7
FIELDS x y z normal_x normal_y normal_z curvature
SIZE 4 4 4 4 4 4 4
TYPE F F F F F F F
COUNT 1 1 1 1 1 1 1
WIDTH 68
HEIGHT 1
VIEWPOINT 0 0 0 1 0 0 0
POINTS 68
DATA ascii
12.81330000 27.02640000 466.33499000 -0.17091700 -0.69980401 0.69358599 1.905766e-42
11.95540000 26.02669900 465.47699000 -0.19111000 -0.69726801 0.69086498 1.905766e-42
11.94680000 24.71530000 464.24399000 -0.19962400 -0.69394600 0.69180202 1.905766e-42
12.04690000 23.55590100 462.87000000 -0.20811699 -0.68952203 0.69371903 1.905766e-42
12.20570000 22.31340000 461.57800000 -0.21749900 -0.68349802 0.69679600 1.905766e-42
12.56250000 20.89090000 460.53400000 -0.21998300 -0.68568099 0.69386500 1.905766e-42
12.98860000 19.59020000 459.36499000 -0.21045800 -0.70482498 0.67744303 1.905766e-42
13.61580000 18.36070100 458.20999000 -0.19850101 -0.71985501 0.66513598 1.905766e-42
14.49630000 17.14100100 457.22101000 -0.18324800 -0.73000199 0.65842003 1.905766e-42
14.84960000 15.91830000 455.94800000 -0.18287501 -0.73355198 0.65456700 1.905766e-42
15.15750000 14.73680000 454.62601000 -0.18417600 -0.73721099 0.65007699 1.905766e-42
15.09690000 13.58850000 453.24100000 -0.19114700 -0.74149501 0.64315498 1.905766e-42
15.44670000 12.35210000 451.98001000 -0.19412801 -0.74784797 0.63485199 1.905766e-42
15.99410000 11.16450000 450.74301000 -0.19328000 -0.75481099 0.62681901 1.905766e-42
16.65730100 10.03230000 449.51099000 -0.18939100 -0.76157302 0.61978799 1.905766e-42
17.59320100 8.91049000 448.45999000 -0.17945300 -0.76786900 0.61495900 1.905766e-42
17.80780000 7.84813980 447.02301000 -0.18079500 -0.77514100 0.60536802 1.905766e-42
18.76380000 6.73453000 445.98099000 -0.16952100 -0.78223699 0.59947300 1.905766e-42
19.77280000 5.70480010 444.90302000 -0.15848400 -0.78946698 0.59298003 1.905766e-42
20.77820000 4.68940020 443.80801000 -0.15100500 -0.79539502 0.58697897 1.905766e-42
21.29460000 3.66502000 442.42099000 -0.15199400 -0.79971999 0.58081502 1.905766e-42
22.32640100 2.60561990 441.39499000 -0.15214700 -0.80325598 0.57587397 1.905766e-42
23.40819900 1.64277990 440.32599000 -0.15096700 -0.80651200 0.57161802 1.905766e-42
24.06769900 0.62984300 438.99200000 -0.15194000 -0.81231600 0.56307799 1.905766e-42
25.05439900 -0.32865101 437.83099000 -0.14485900 -0.81759202 0.55727899 1.905766e-42
25.84700000 -1.25402000 436.50601000 -0.14283000 -0.82473099 0.54719198 1.905766e-42
26.90700000 -2.23799990 435.43500000 -0.13456400 -0.83437598 0.53451800 1.905766e-42
28.00760100 -3.16248990 434.35101000 -0.12477200 -0.85085499 0.51037002 1.905766e-42
28.83790000 -4.05708980 433.02802000 -0.12136900 -0.86383301 0.48893899 1.905766e-42
29.67040100 -4.87422990 431.65701000 -0.11901400 -0.87291503 0.47313300 1.905766e-42
30.95170000 -5.55114980 430.59000000 -0.10320400 -0.87598598 0.47116601 1.905766e-42
30.87100000 -4.71997980 432.18399000 -0.07724800 -0.86435503 0.49691400 1.905766e-42
31.69540000 -3.93788000 433.57999000 -0.03139160 -0.84839499 0.52843302 1.905766e-42
32.18299900 -2.99668000 435.03500000 -0.02451030 -0.84070098 0.54094398 1.905766e-42
32.72869900 -2.02332000 436.44699000 -0.02753830 -0.83892697 0.54354697 1.905766e-42
32.86320100 -1.14272000 438.01099000 -0.03488670 -0.82983798 0.55691302 1.905766e-42
33.44469800 -0.13725699 439.38699000 -0.02763740 -0.81845599 0.57390499 1.905766e-42
33.84579800 0.84539503 440.84000000 -0.02008260 -0.80552000 0.59222800 1.905766e-42
34.09109900 1.90608000 442.27399000 -0.01818980 -0.79357499 0.60820103 1.905766e-42
34.50320100 2.98005010 443.65799000 -0.01558570 -0.78902298 0.61416698 1.905766e-42
35.25519900 4.00661990 444.93100000 -0.00536424 -0.78733701 0.61649901 1.905766e-42
35.83929800 5.02148010 446.29800000 0.00884792 -0.78228599 0.62285602 1.905766e-42
36.47020000 6.09458020 447.59900000 0.02681630 -0.77638501 0.62968802 1.905766e-42
37.11280100 7.19674020 448.86801000 0.02742080 -0.77490503 0.63148201 1.905766e-42
37.59970100 8.37254050 450.14099000 0.00986527 -0.76987302 0.63812101 1.905766e-42
37.71780000 9.43466000 451.59000000 0.00078246 -0.75962800 0.65035802 1.905766e-42
38.11209900 10.60390000 452.89999000 -0.00337653 -0.74723703 0.66454899 1.905766e-42
38.75630200 11.72470000 454.15302000 0.00735193 -0.72910702 0.68436003 1.905766e-42
39.22710000 12.93370000 455.39999000 0.02179900 -0.70914501 0.70472503 1.905766e-42
39.42750200 14.24480000 456.61700000 0.03765670 -0.68842101 0.72433400 1.905766e-42
39.73799900 15.54180000 457.82599000 0.05810170 -0.66185302 0.74737799 1.905766e-42
38.88639800 16.70150000 458.90799000 0.07692580 -0.64379698 0.76131999 1.905766e-42
38.22129800 17.86249900 460.11200000 0.09088770 -0.61450899 0.78365701 1.905766e-42
37.43500100 19.23940100 460.96399000 0.09830980 -0.58470303 0.80526900 1.905766e-42
35.69390100 19.32350000 461.41299000 0.06621030 -0.60080802 0.79664701 1.905766e-42
34.08879900 19.97110000 461.90701000 0.04462240 -0.61595702 0.78651500 1.905766e-42
32.32199900 20.14959900 462.20099000 0.01664240 -0.64084101 0.76749301 1.905766e-42
30.88159900 20.92289900 462.95401000 0.00145980 -0.63838398 0.76971698 1.905766e-42
29.37330100 21.85290000 463.27100000 -0.01404570 -0.63450700 0.77278900 1.905766e-42
27.64930000 22.19770100 463.65701000 -0.03594040 -0.63683498 0.77016199 1.905766e-42
25.90870100 22.47450100 464.02200000 -0.04640550 -0.63947898 0.76740700 1.905766e-42
24.28330000 23.20120000 464.28699000 -0.04511530 -0.64077401 0.76640302 1.905766e-42
22.51580000 23.44140100 464.52802000 -0.05092520 -0.65165198 0.75680602 1.905766e-42
20.85910000 24.04810000 464.88501000 -0.06116090 -0.66413200 0.74510902 1.905766e-42
19.15609900 24.56909900 465.14700000 -0.07531330 -0.67519897 0.73378098 1.905766e-42
17.59779900 25.27479900 465.70700000 -0.08521410 -0.68268698 0.72572500 1.905766e-42
15.80760000 25.43499900 465.60800000 -0.10958000 -0.69075698 0.71473598 1.905766e-42
14.06680000 25.84980000 465.80200000 -0.13506401 -0.69626498 0.70496303 1.905766e-42
