# .PCD v0.7 - Point Cloud Data file format
# 3 58 0
# 1 25 0
# 26 40 0
# 41 58 0
VERSION 0.7
FIELDS x y z normal_x normal_y normal_z curvature
SIZE 4 4 4 4 4 4 4
TYPE F F F F F F F
COUNT 1 1 1 1 1 1 1
WIDTH 58
HEIGHT 1
VIEWPOINT 0 0 0 1 0 0 0
POINTS 58
DATA ascii
25.3678 0.56242502 438.405 -0.072650097 -0.79284298 0.60508102 1.9057659e-42
26.415001 0.00389752 437.34299 -0.063804999 -0.796471 0.6013 1.9057659e-42
26.3307 0.91356897 438.89401 -0.049987301 -0.78396702 0.61878699 1.9057659e-42
26.0956 2.0446401 440.27399 -0.041284401 -0.77223998 0.63398802 1.9057659e-42
25.9189 3.36852 441.48099 -0.0455782 -0.77012098 0.63626802 1.9057659e-42
24.924801 4.2209401 442.716 -0.064456999 -0.76932597 0.63559598 1.9057659e-42
24.0147 5.20647 443.91599 -0.076391503 -0.76782203 0.63609302 1.9057659e-42
23.9091 6.3703799 445.285 -0.070752703 -0.76276898 0.64278901 1.9057659e-42
22.937401 7.4049501 446.392 -0.079669602 -0.76133299 0.64344698 1.9057659e-42
22.9067 8.5831604 447.75299 -0.076448001 -0.76025403 0.64511198 1.9057659e-42
22.386801 9.7225599 449.04501 -0.076322503 -0.75735301 0.64853102 1.9057659e-42
21.617701 10.8155 450.25101 -0.076386601 -0.75251198 0.65413398 1.9057659e-42
21.5835 12.1136 451.49799 -0.070181102 -0.74315202 0.66543198 1.9057659e-42
20.34 12.9534 452.492 -0.072749697 -0.73899502 0.66977102 1.9057659e-42
19.0896 13.9056 453.36899 -0.072993599 -0.73878998 0.66997099 1.9057659e-42
18.007999 14.8886 454.42001 -0.067935199 -0.74166 0.66732699 1.9057659e-42
16.913401 15.9134 455.41599 -0.064290397 -0.74542302 0.66348398 1.9057659e-42
15.624 16.7794 456.32501 -0.069970399 -0.74742198 0.66065502 1.9057659e-42
14.3856 17.708 457.24399 -0.077193499 -0.74679798 0.66055602 1.9057659e-42
13.3476 18.759501 458.272 -0.0802956 -0.74427801 0.66302502 1.9057659e-42
12.2285 19.7959 459.228 -0.086885497 -0.74132901 0.66549402 1.9057659e-42
10.9802 20.734301 460.12299 -0.0979627 -0.73908299 0.666453 1.9057659e-42
9.70714 21.681299 460.97299 -0.111065 -0.73730201 0.66637099 1.9057659e-42
8.1976995 22.4524 461.57901 -0.120087 -0.73719901 0.66491902 1.9057659e-42
7.19451 23.549 462.59399 -0.122566 -0.73599601 0.66579801 1.9057659e-42
5.4211202 23.800699 462.41599 -0.122827 -0.73654801 0.66513902 1.9057659e-42
4.8845501 22.6572 461.134 -0.12981801 -0.74676698 0.65229303 1.9057659e-42
4.0748701 21.687799 459.85101 -0.13337199 -0.75326103 0.64405799 1.9057659e-42
3.29375 20.7265 458.54501 -0.137922 -0.75777 0.637779 1.9057659e-42
2.3211 19.851101 457.30899 -0.14526001 -0.76075399 0.63257599 1.9057659e-42
1.4971499 18.911699 456.01401 -0.15514299 -0.76304799 0.627446 1.9057659e-42
1.01536 17.8885 454.61301 -0.161768 -0.76460499 0.62386698 1.9057659e-42
0.175271 16.993799 453.29599 -0.193488 -0.76729298 0.61141098 1.9057659e-42
-0.62573397 16.1399 451.92899 -0.25619701 -0.77790499 0.57378203 1.9057659e-42
-0.794478 15.3466 450.32199 -0.30557099 -0.78578198 0.53774899 1.9057659e-42
-1.5459 14.4042 448.98499 -0.41949701 -0.78387201 0.457784 1.9057659e-42
-2.20825 14.0399 447.35199 -0.53266299 -0.74788302 0.396157 1.9057659e-42
-2.36233 13.3396 445.70099 -0.561171 -0.70007199 0.44157299 1.9057659e-42
-2.9215701 12.6921 444.117 -0.59931898 -0.65017301 0.467004 1.9057659e-42
-3.2193 11.772 442.599 -0.579202 -0.60202998 0.54962301 1.9057659e-42
-3.2098601 10.5706 441.259 -0.553029 -0.54514199 0.630063 1.9057659e-42
-2.6065199 8.9233398 440.85599 -0.494784 -0.508039 0.70504302 1.9057659e-42
-1.68576 7.5778298 440.09299 -0.38858899 -0.53865403 0.747563 1.9057659e-42
-0.079291098 7.1918101 440.80701 -0.29272899 -0.62096202 0.72712898 1.9057659e-42
1.52847 6.4317002 440.52899 -0.191211 -0.66542101 0.72156298 1.9057659e-42
3.3036301 6.2571502 440.771 -0.17552499 -0.705091 0.68704998 1.9057659e-42
5.0251398 5.7390599 440.681 -0.188283 -0.73218298 0.654567 1.9057659e-42
6.5791202 5.02881 440.11499 -0.183819 -0.75707799 0.62693202 1.9057659e-42
8.30935 4.5420499 440.01801 -0.16962799 -0.78614998 0.59430099 1.9057659e-42
10.0571 4.1126099 439.98999 -0.138217 -0.791933 0.59475899 1.9057659e-42
11.7986 4.0060501 440.43301 -0.129256 -0.79334497 0.59489202 1.9057659e-42
13.4309 3.37712 440.008 -0.1286 -0.79803002 0.588736 1.9057659e-42
15.1003 2.86023 439.577 -0.124581 -0.80059499 0.58611202 1.9057659e-42
16.774401 2.4154699 439.08701 -0.123817 -0.79718602 0.59090102 1.9057659e-42
18.5355 2.0527201 439.17099 -0.11585 -0.79213798 0.59924698 1.9057659e-42
20.1833 1.61146 438.59698 -0.110947 -0.79177701 0.600649 1.9057659e-42
21.945499 1.53247 438.95499 -0.103115 -0.78728098 0.607912 1.9057659e-42
23.6647 1.0572 438.71301 -0.094616599 -0.79294199 0.601906 1.9057659e-42
