# .PCD v0.7 - Point Cloud Data file format
# 3 150 1
# 1 56 0
# 57 114 1
# 115 150 0
VERSION 0.7
FIELDS x y z normal_x normal_y normal_z curvature
SIZE 4 4 4 4 4 4 4
TYPE F F F F F F F
COUNT 1 1 1 1 1 1 1
WIDTH 150
HEIGHT 1
VIEWPOINT 0 0 0 1 0 0 0
POINTS 150
DATA ascii
-25.78300100 -1.77179000 331.18900000 -0.86977297 -0.01592070 0.49319500 1.905766e-42
-25.47550000 -3.47041990 331.69901000 -0.87313098 -0.01050830 0.48737201 1.905766e-42
-25.28910100 -5.24352980 331.94699000 -0.87706500 -0.00570690 0.48033801 1.905766e-42
-24.85910000 -6.82503990 332.69101000 -0.87771302 0.00286763 0.47917801 1.905766e-42
-24.52710000 -8.44869040 333.39401000 -0.87841499 0.01286660 0.47772500 1.905766e-42
-24.03770100 -9.87510970 334.37701000 -0.88275898 0.03480530 0.46853501 1.905766e-42
-24.22629900 -11.53820000 333.71399000 -0.88685399 0.04636490 0.45971701 1.905766e-42
-23.88960100 -12.91270000 334.82700000 -0.89009702 0.06389940 0.45126900 1.905766e-42
-23.60250100 -14.46730000 335.68799000 -0.89427799 0.07815720 0.44063500 1.905766e-42
-23.13760000 -15.84540000 336.74799000 -0.89957500 0.08950480 0.42749700 1.905766e-42
-22.58910000 -16.59320100 338.29099000 -0.90576798 0.10074200 0.41162500 1.905766e-42
-22.17090000 -17.73300000 339.62000000 -0.91288900 0.11080900 0.39287901 1.905766e-42
-21.71410000 -18.72250000 341.05200000 -0.91976202 0.12180300 0.37309700 1.905766e-42
-21.21209900 -19.51160000 342.59000000 -0.92535800 0.13464400 0.35437900 1.905766e-42
-20.87270000 -20.61050000 343.97501000 -0.93080699 0.14609900 0.33504200 1.905766e-42
-20.56049900 -21.75260000 345.33099000 -0.93567699 0.15751500 0.31575000 1.905766e-42
-20.18549900 -22.70420100 346.81201000 -0.93911701 0.17115100 0.29793900 1.905766e-42
-19.74900100 -22.90110000 348.54700000 -0.93852299 0.19022000 0.28808099 1.905766e-42
-19.52430000 -24.16400000 349.81000000 -0.94148999 0.20176899 0.26997200 1.905766e-42
-19.28980100 -24.75960000 351.49200000 -0.94029701 0.21845400 0.26099899 1.905766e-42
-18.92090000 -25.22220000 353.19199000 -0.93700498 0.23787700 0.25580600 1.905766e-42
-18.65150100 -25.97769900 354.80301000 -0.93448198 0.25628701 0.24710500 1.905766e-42
-18.27459900 -25.92410100 356.56299000 -0.92713398 0.28181201 0.24699099 1.905766e-42
-18.03070100 -26.70010000 358.16800000 -0.93254799 0.28707799 0.21895200 1.905766e-42
-17.77400000 -27.11030000 359.90201000 -0.93793702 0.29097399 0.18870100 1.905766e-42
-17.57959900 -27.62770100 361.61499000 -0.94096202 0.29794601 0.16068199 1.905766e-42
-17.34940000 -27.69000100 363.39899000 -0.94307399 0.30313799 0.13681300 1.905766e-42
-17.29560100 -28.19260000 365.12701000 -0.94284600 0.30973199 0.12291600 1.905766e-42
-17.22460000 -28.58099900 366.88300000 -0.94305199 0.30952799 0.12183900 1.905766e-42
-17.20900000 -29.28330000 368.54001000 -0.94168103 0.31301901 0.12351900 1.905766e-42
-17.15029900 -29.52220000 370.32300000 -0.93956703 0.31760699 0.12783100 1.905766e-42
-17.10210000 -30.29590000 371.94800000 -0.93724698 0.32398799 0.12884501 1.905766e-42
-16.84680000 -31.05340000 373.56100000 -0.93613303 0.32864800 0.12508100 1.905766e-42
-16.91770000 -31.43720100 375.31799000 -0.93546999 0.33303800 0.11824000 1.905766e-42
-16.97209900 -31.79990000 377.07999000 -0.93475002 0.33822700 0.10883800 1.905766e-42
-16.86389900 -32.50840000 378.73099000 -0.93345702 0.34545600 0.09652610 1.905766e-42
-16.81300000 -32.48550000 380.53000000 -0.93186200 0.35261399 0.08541960 1.905766e-42
-16.81040000 -33.30720100 382.13199000 -0.92957401 0.36148500 0.07225230 1.905766e-42
-16.86500000 -33.31650200 383.93100000 -0.92721301 0.36944100 0.06155430 1.905766e-42
-16.95459900 -33.39880000 385.72699000 -0.92546099 0.37574500 0.04834230 1.905766e-42
-16.97660100 -33.97340000 387.43301000 -0.92512798 0.37862000 0.02803090 1.905766e-42
-17.07020000 -34.01190200 389.23001000 -0.92588001 0.37779000 0.00465696 1.905766e-42
-17.06080100 -33.97530000 391.02899000 -0.92631000 0.37618601 -0.02083870 1.905766e-42
-17.17020000 -34.35549900 392.78500000 -0.92505699 0.37684199 -0.04754250 1.905766e-42
-17.26720000 -34.38480000 394.58200000 -0.92367500 0.37521499 -0.07770220 1.905766e-42
-17.48609900 -35.09790000 395.17200000 -0.92310500 0.37518400 -0.08434810 1.905766e-42
-17.72250000 -35.08110000 396.95599000 -0.92359197 0.36746699 -0.10929800 1.905766e-42
-17.82679900 -34.53730000 398.66901000 -0.92327797 0.36263600 -0.12670100 1.905766e-42
-17.98930000 -34.28500000 400.44400000 -0.92200100 0.36568800 -0.12722801 1.905766e-42
-18.29080000 -34.97119900 402.07999000 -0.92155403 0.36833200 -0.12276000 1.905766e-42
-18.39069900 -34.16640100 403.68701000 -0.92147702 0.37293801 -0.10861200 1.905766e-42
-18.59530100 -34.08660100 405.47400000 -0.92123502 0.37889901 -0.08810260 1.905766e-42
-18.73539900 -34.60310000 407.19299000 -0.91961402 0.38750300 -0.06443640 1.905766e-42
-18.86340000 -34.37780000 408.97400000 -0.91752702 0.39657900 -0.02949060 1.905766e-42
-18.77370100 -33.82300200 410.68399000 -0.91556799 0.40204200 0.00991660 1.905766e-42
-18.89550000 -34.23899800 412.43100000 -0.90910602 0.41350901 0.05036620 1.905766e-42
-17.96279900 -33.30239900 413.65302000 -0.90591103 0.41278601 0.09451230 1.905766e-42
-17.56520100 -31.67310000 412.99899000 -0.91318798 0.39854500 0.08514950 1.905766e-42
-16.82860000 -30.04080000 412.81699000 -0.91820300 0.38560101 0.09063760 1.905766e-42
-16.22900000 -28.39189900 412.41501000 -0.92407900 0.37188801 0.08818650 1.905766e-42
-15.57620000 -26.74589900 412.09100000 -0.92937499 0.35859400 0.08759280 1.905766e-42
-15.19210000 -25.21839900 411.22000000 -0.93664700 0.34377700 0.06715190 1.905766e-42
-14.56230000 -23.53960000 411.06201000 -0.94290698 0.32707000 0.06285610 1.905766e-42
-13.82980000 -21.89559900 411.03299000 -0.94775599 0.31276000 0.06276680 1.905766e-42
-13.34650000 -20.23550000 410.53299000 -0.95228201 0.30070099 0.05232340 1.905766e-42
-12.88160000 -18.57710100 410.01001000 -0.95720100 0.28546101 0.04772850 1.905766e-42
-12.31760000 -16.91130100 409.62601000 -0.96178699 0.26902100 0.05092180 1.905766e-42
-12.03400000 -15.29150000 408.89401000 -0.96627700 0.25299799 0.04796620 1.905766e-42
-11.76050000 -13.66870000 408.16501000 -0.97010499 0.23826300 0.04612650 1.905766e-42
-11.49910000 -12.14280000 407.24701000 -0.97367799 0.22409800 0.04160720 1.905766e-42
-11.00620000 -10.41230000 407.19800000 -0.97476602 0.21656001 0.05415660 1.905766e-42
-10.75780000 -8.78137020 406.47800000 -0.97682399 0.20672300 0.05551150 1.905766e-42
-10.50880000 -7.13880010 405.78500000 -0.97829199 0.19845399 0.05966790 1.905766e-42
-10.24300000 -5.57621000 404.93201000 -0.97958398 0.18791100 0.07145180 1.905766e-42
-9.38928990 -4.00970980 405.17200000 -0.97516799 0.19333699 0.10801900 1.905766e-42
-9.58294010 -2.45639990 404.28299000 -0.97810000 0.17579301 0.11143000 1.905766e-42
-9.02460960 -0.77869600 403.94601000 -0.97801101 0.16378900 0.12910500 1.905766e-42
-9.29574970 0.61026299 402.83401000 -0.98198497 0.14200699 0.12465600 1.905766e-42
-8.78835960 2.30574990 402.50500000 -0.98212701 0.12632200 0.13953300 1.905766e-42
-9.12874980 3.64862990 401.35599000 -0.98565000 0.10336300 0.13345601 1.905766e-42
-9.27128980 5.07800010 400.27100000 -0.98826098 0.08258310 0.12853000 1.905766e-42
-9.24079040 6.68999000 399.47101000 -0.98935199 0.06496860 0.13023800 1.905766e-42
-9.27573010 8.25640960 398.58499000 -0.99029601 0.04815540 0.13036500 1.905766e-42
-9.36353020 9.78450010 397.63800000 -0.99101597 0.03244950 0.12974900 1.905766e-42
-9.36933040 11.42140000 396.88901000 -0.99088502 0.01956490 0.13328101 1.905766e-42
-9.41236970 13.03810000 396.09900000 -0.99060601 0.00832055 0.13649601 1.905766e-42
-9.59778020 14.45300000 395.00201000 -0.99080098 -0.00309085 0.13528900 1.905766e-42
-9.61699960 16.15690000 394.42200000 -0.98904300 -0.01460040 0.14690600 1.905766e-42
-9.73847960 17.73640100 393.56699000 -0.98745298 -0.02842810 0.15533499 1.905766e-42
-10.09910000 18.90990100 392.25101000 -0.98673898 -0.04560470 0.15577599 1.905766e-42
-10.37240000 20.32490000 391.17200000 -0.98509401 -0.06034320 0.16108599 1.905766e-42
-10.48830000 21.99510000 390.51099000 -0.98242497 -0.06985890 0.17309400 1.905766e-42
-10.79910000 23.41370000 389.44800000 -0.98029202 -0.08261000 0.17945200 1.905766e-42
-11.19250000 24.74029900 388.29599000 -0.97814602 -0.09562510 0.18462500 1.905766e-42
-11.54550000 26.14020000 387.22101000 -0.97548801 -0.10722500 0.19216000 1.905766e-42
-11.81350000 27.70920000 386.38101000 -0.97218603 -0.11496500 0.20405100 1.905766e-42
-12.34430000 28.50700000 384.85699000 -0.97039503 -0.13262600 0.20185100 1.905766e-42
-12.71240000 30.08960000 384.08301000 -0.96667397 -0.13857700 0.21526100 1.905766e-42
-13.20740000 31.25589900 382.80399000 -0.96360302 -0.15171801 0.22011700 1.905766e-42
-13.55060000 32.88110000 382.10999000 -0.95946598 -0.15534900 0.23514000 1.905766e-42
-14.09150000 34.16809800 380.97400000 -0.95574200 -0.16569100 0.24311200 1.905766e-42
-14.25590000 35.70900000 380.05801000 -0.95229298 -0.16938500 0.25386199 1.905766e-42
-15.09410000 36.28889800 378.57501000 -0.95078802 -0.18348201 0.24967401 1.905766e-42
-15.66110000 37.56909900 377.44400000 -0.94768000 -0.18891799 0.25731799 1.905766e-42
-16.02899900 39.13050100 376.62701000 -0.94409001 -0.18796900 0.27085501 1.905766e-42
-16.45890000 40.42789800 375.45599000 -0.94022202 -0.19221599 0.28113201 1.905766e-42
-17.31469900 41.14960100 374.04599000 -0.93615597 -0.20433000 0.28611401 1.905766e-42
-17.96670000 42.29489900 372.82001000 -0.93112898 -0.21064700 0.29770300 1.905766e-42
-18.69120000 43.37120100 371.57300000 -0.92547601 -0.21768700 0.31000900 1.905766e-42
-19.16540000 44.96509900 370.88400000 -0.92073500 -0.20793401 0.33016700 1.905766e-42
-19.88400100 45.68450200 369.39801000 -0.91528600 -0.21734899 0.33913100 1.905766e-42
-20.72940100 46.23160200 367.90601000 -0.90988600 -0.23044200 0.34496999 1.905766e-42
-21.45669900 47.40140200 366.74799000 -0.90495700 -0.22474501 0.36130700 1.905766e-42
-22.23270000 48.45740100 365.51401000 -0.90002799 -0.21831600 0.37720999 1.905766e-42
-22.32659900 50.09999800 364.78400000 -0.89450997 -0.11038600 0.43320501 1.905766e-42
-23.40329900 49.58630000 363.43600000 -0.89252597 -0.22803600 0.38909799 1.905766e-42
-23.55150000 48.39709900 362.09299000 -0.89020598 -0.29113001 0.35039499 1.905766e-42
-23.54690000 47.12369900 360.82101000 -0.88597900 -0.33273301 0.32300201 1.905766e-42
-23.48749900 45.85649900 359.54401000 -0.87957901 -0.36433700 0.30594099 1.905766e-42
-23.28060000 44.45360200 358.43500000 -0.87550497 -0.38749701 0.28868201 1.905766e-42
-23.07640100 43.05419900 357.32101000 -0.87276101 -0.40496501 0.27256399 1.905766e-42
-22.88360000 41.74380100 356.10300000 -0.87060398 -0.41889700 0.25801799 1.905766e-42
-22.49060100 40.86579900 354.58099000 -0.86818498 -0.42605501 0.25442499 1.905766e-42
-22.17740100 39.30889900 353.73401000 -0.87138999 -0.40242401 0.28059599 1.905766e-42
-22.04310000 37.99010100 352.51599000 -0.87352300 -0.37424701 0.31128299 1.905766e-42
-21.98160000 36.70809900 351.25400000 -0.87563503 -0.34208599 0.34094200 1.905766e-42
-21.80419900 35.08610200 350.49399000 -0.87926900 -0.30439100 0.36637700 1.905766e-42
-21.91930000 33.84230000 349.19800000 -0.87988299 -0.26698300 0.39309800 1.905766e-42
-21.96450000 32.32709900 348.22699000 -0.88389599 -0.24500100 0.39837500 1.905766e-42
-21.93250100 30.74510000 347.36899000 -0.88686103 -0.22385500 0.40418699 1.905766e-42
-22.20100000 29.56489900 346.03699000 -0.88801497 -0.20749500 0.41033599 1.905766e-42
-22.34110100 28.15150100 344.93100000 -0.88868099 -0.19016400 0.41723299 1.905766e-42
-22.47860000 26.56290100 344.09601000 -0.88872302 -0.17410199 0.42409900 1.905766e-42
-22.68460100 25.18569900 342.95599000 -0.89064199 -0.17096899 0.42133901 1.905766e-42
-22.69540000 23.45120000 342.47501000 -0.89192897 -0.16911601 0.41936001 1.905766e-42
-22.98539900 22.00390100 341.44501000 -0.89261800 -0.17057399 0.41729799 1.905766e-42
-23.17060100 20.47320000 340.51599000 -0.89279598 -0.17390899 0.41553801 1.905766e-42
-23.27580100 19.14760000 339.30301000 -0.89216202 -0.17764300 0.41531900 1.905766e-42
-23.23730100 17.57379900 338.42999000 -0.88910198 -0.17285299 0.42381501 1.905766e-42
-23.21789900 15.84910000 337.91501000 -0.88613701 -0.16690600 0.43232399 1.905766e-42
-23.18409900 14.40750000 336.83801000 -0.88324100 -0.15702499 0.44184700 1.905766e-42
-23.45400000 12.83480000 336.00500000 -0.88059598 -0.14452900 0.45128900 1.905766e-42
-23.74939900 11.15390000 335.43201000 -0.87753201 -0.12781100 0.46217000 1.905766e-42
-23.86860100 9.57571030 334.57501000 -0.87061501 -0.10036700 0.48161700 1.905766e-42
-24.08550100 7.79722980 334.40201000 -0.86568600 -0.07209160 0.49536899 1.905766e-42
-24.32440000 6.10833980 333.82700000 -0.85851097 -0.04310630 0.51098001 1.905766e-42
-24.53710000 4.61129000 332.85101000 -0.84795803 -0.01684370 0.52979600 1.905766e-42
-24.80509900 2.83241010 332.78900000 -0.84054202 0.00570732 0.54171598 1.905766e-42
-25.49519900 1.78272000 331.50000000 -0.85187298 -0.01007010 0.52365100 1.905766e-42
-25.79010000 0.02775010 331.23001000 -0.86232001 -0.01553630 0.50612497 1.905766e-42
