# .PCD v0.7 - Point Cloud Data file format
# 3 176 0
# 1 71 0
# 72 93 0
# 94 176 0
VERSION 0.7
FIELDS x y z normal_x normal_y normal_z curvature
SIZE 4 4 4 4 4 4 4
TYPE F F F F F F F
COUNT 1 1 1 1 1 1 1
WIDTH 176
HEIGHT 1
VIEWPOINT 0 0 0 1 0 0 0
POINTS 176
DATA ascii
8.37273980 25.62750100 511.91699000 0.11608200 -0.92183298 -0.36979499 1.905766e-42
7.02686980 25.82990100 510.73901000 0.13079600 -0.92559499 -0.35519901 1.905766e-42
6.72621010 26.66820000 509.17499000 0.13128699 -0.93071300 -0.34137401 1.905766e-42
7.60586980 27.16840000 507.68600000 0.14085899 -0.93355203 -0.32960501 1.905766e-42
7.33769990 27.80940100 506.02600000 0.14016999 -0.93873900 -0.31483600 1.905766e-42
7.26439000 28.50779900 504.36801000 0.14049400 -0.94372201 -0.29941499 1.905766e-42
7.87208990 29.02860100 502.75601000 0.14282100 -0.94823599 -0.28363901 1.905766e-42
7.48424010 29.64590100 501.10999000 0.14019400 -0.95347899 -0.26687601 1.905766e-42
8.47805980 29.93269900 499.63699000 0.13904700 -0.95835900 -0.24942701 1.905766e-42
8.01194000 30.31990100 497.94199000 0.13494401 -0.96370500 -0.23035100 1.905766e-42
8.45292000 30.62770100 496.22400000 0.12843500 -0.96999502 -0.20643300 1.905766e-42
8.38296990 30.93180100 494.45200000 0.12104200 -0.97619802 -0.17996000 1.905766e-42
7.97711990 31.17300000 492.71500000 0.11457200 -0.98176098 -0.15171599 1.905766e-42
7.88358020 31.39139900 490.92999000 0.10412400 -0.98786497 -0.11524300 1.905766e-42
7.05650000 31.71419900 489.36499000 0.10033300 -0.99160099 -0.08160990 1.905766e-42
6.44846010 31.58700000 487.67499000 0.09935020 -0.99340600 -0.05721340 1.905766e-42
5.46848010 31.65700000 486.16699000 0.10493200 -0.99387097 -0.03478160 1.905766e-42
5.02388000 31.67429900 484.42300000 0.10552800 -0.99440402 -0.00496675 1.905766e-42
4.27693990 31.54060000 482.79099000 0.11115300 -0.99352902 0.02333930 1.905766e-42
3.23036000 31.41820000 481.33099000 0.11127000 -0.99263799 0.04784940 1.905766e-42
2.03857990 31.09750000 480.02100000 0.11512800 -0.99072599 0.07215860 1.905766e-42
0.79748899 30.79470100 478.75299000 0.12252700 -0.98750103 0.09914420 1.905766e-42
-0.45606399 30.52039900 477.49100000 0.13393900 -0.98242098 0.13003300 1.905766e-42
-1.63706000 30.17320100 476.17700000 0.14990400 -0.97460598 0.16635101 1.905766e-42
-2.78350000 29.76000000 474.85300000 0.17130400 -0.96316499 0.20728900 1.905766e-42
-3.27915000 29.17890000 473.22299000 0.19450200 -0.94770497 0.25303099 1.905766e-42
-4.18097020 28.71430000 471.73599000 0.19467200 -0.93848598 0.28521401 1.905766e-42
-4.29094980 28.16860000 470.02399000 0.20350400 -0.92820299 0.31149000 1.905766e-42
-4.51938010 27.36570000 468.42899000 0.20783000 -0.91860098 0.33612400 1.905766e-42
-4.82317020 26.63250000 466.81400000 0.21085900 -0.90926701 0.35884899 1.905766e-42
-5.63096000 25.90690000 465.37799000 0.21178600 -0.90060198 0.37955600 1.905766e-42
-5.56441020 25.22360000 463.71399000 0.21787401 -0.89123201 0.39778900 1.905766e-42
-5.78401990 24.58289900 462.04599000 0.22342700 -0.88175899 0.41543001 1.905766e-42
-6.82526020 23.62730000 460.93201000 0.23592401 -0.86671901 0.43947601 1.905766e-42
-8.10196020 22.85230100 459.92700000 0.25554001 -0.84569198 0.46851400 1.905766e-42
-8.38467980 21.66099900 458.64801000 0.27566600 -0.82134002 0.49940899 1.905766e-42
-9.53952030 20.67270100 457.68399000 0.30509299 -0.79129702 0.52987498 1.905766e-42
-9.91059970 19.60530100 456.28299000 0.33217099 -0.76045501 0.55800700 1.905766e-42
-9.87444970 18.61270000 454.78201000 0.35360301 -0.73343903 0.58054399 1.905766e-42
-9.99740030 17.52940000 453.34900000 0.37708601 -0.70406801 0.60174298 1.905766e-42
-10.40870000 16.46410000 451.95801000 0.40424401 -0.67170298 0.62080699 1.905766e-42
-10.34000000 15.12360000 450.75900000 0.42480499 -0.64149302 0.63876998 1.905766e-42
-9.96926980 13.82800000 449.56500000 0.43671200 -0.61583102 0.65577000 1.905766e-42
-9.82409950 12.52030000 448.33701000 0.45088500 -0.58733898 0.67211300 1.905766e-42
-10.26730000 11.00950000 447.46500000 0.47927999 -0.54979402 0.68411797 1.905766e-42
-10.36230000 9.51861000 446.46100000 0.49788699 -0.51797098 0.69556803 1.905766e-42
-10.85070000 7.98744010 445.64999000 0.52327102 -0.48248801 0.70241898 1.905766e-42
-11.28720000 6.41564990 444.88901000 0.54571497 -0.44913799 0.70743901 1.905766e-42
-11.74500000 4.83314990 444.16400000 0.56609499 -0.41769499 0.71068102 1.905766e-42
-12.21300000 3.19748000 443.57599000 0.58318102 -0.38291001 0.71643603 1.905766e-42
-12.20520000 1.51639000 442.93301000 0.58835500 -0.35276499 0.72759598 1.905766e-42
-11.58210000 0.21128801 441.86099000 0.57427102 -0.32875600 0.74975502 1.905766e-42
-11.16220000 -1.23548000 440.87601000 0.56000698 -0.29884899 0.77271003 1.905766e-42
-11.11040000 -2.69987990 439.83099000 0.54702300 -0.26574501 0.79381698 1.905766e-42
-10.50500000 -4.24159000 439.12601000 0.52730000 -0.23024900 0.81788802 1.905766e-42
-9.92263030 -5.90583990 438.76401000 0.50976199 -0.19228099 0.83855301 1.905766e-42
-9.30016990 -7.43512010 438.04700000 0.49475399 -0.16821800 0.85259700 1.905766e-42
-8.73972030 -9.01871010 437.39999000 0.48672000 -0.15478800 0.85973501 1.905766e-42
-7.98735000 -10.48260000 436.67200000 0.48188001 -0.14017300 0.86495298 1.905766e-42
-7.32713990 -11.95460000 435.87299000 0.48071799 -0.12388000 0.86808097 1.905766e-42
-6.26807020 -13.27850000 435.26901000 0.48462200 -0.10703400 0.86815000 1.905766e-42
-5.40481000 -14.73540000 434.65900000 0.49067500 -0.08721430 0.86696702 1.905766e-42
-5.07608990 -16.45050000 434.22198000 0.49157000 -0.06398810 0.86848402 1.905766e-42
-4.03163000 -17.76930000 433.58200000 0.50407398 -0.04113090 0.86268002 1.905766e-42
-3.14267990 -19.10120000 432.76001000 0.52130699 -0.03193450 0.85277200 1.905766e-42
-2.69879010 -20.65110000 431.95901000 0.49645001 -0.03036650 0.86753398 1.905766e-42
-1.16992000 -21.59199900 431.82800000 0.43761501 -0.02335550 0.89885902 1.905766e-42
-0.86454397 -23.31699900 431.41400000 0.41162199 -0.01816670 0.91117400 1.905766e-42
0.50157601 -24.45900000 431.15100000 0.35470301 -0.00735655 0.93494999 1.905766e-42
1.45603000 -25.96640000 430.91299000 0.31279200 0.00338481 0.94981599 1.905766e-42
1.68119000 -27.71559900 430.55200000 0.29334399 0.01248660 0.95592499 1.905766e-42
2.47507000 -29.32889900 430.46899000 0.26256701 0.02436570 0.96460599 1.905766e-42
4.04534010 -30.18689900 430.27399000 0.22120900 0.03524000 0.97458899 1.905766e-42
5.82479000 -30.28720100 430.02200000 0.17125399 0.04073290 0.98438400 1.905766e-42
7.58479980 -30.33250000 429.64700000 0.11581900 0.04716760 0.99215001 1.905766e-42
9.36497020 -30.14069900 429.46201000 0.06319030 0.05175940 0.99665803 1.905766e-42
11.15780000 -30.10700000 429.30499000 0.01210910 0.05718520 0.99829000 1.905766e-42
12.95530000 -30.20030000 429.32101000 -0.03667850 0.06308050 0.99733400 1.905766e-42
14.75400000 -30.24589900 429.36899000 -0.07190430 0.06608780 0.99522001 1.905766e-42
16.52470000 -30.47820100 429.59500000 -0.09723820 0.07115510 0.99271399 1.905766e-42
18.17610000 -31.19430000 429.59299000 -0.12136500 0.08282370 0.98914701 1.905766e-42
19.92530100 -31.33659900 429.99301000 -0.14519200 0.09072020 0.98523599 1.905766e-42
21.65360100 -31.62719900 430.40399000 -0.16796900 0.10158000 0.98054498 1.905766e-42
23.39580000 -31.86000100 430.79199000 -0.18963800 0.11279600 0.97535300 1.905766e-42
25.14860000 -31.95179900 431.19101000 -0.21408901 0.12133100 0.96925002 1.905766e-42
26.75359900 -32.70349900 431.50500000 -0.23854300 0.13523699 0.96166903 1.905766e-42
28.49570100 -32.86780200 431.92700000 -0.26466399 0.13970201 0.95416802 1.905766e-42
30.20200000 -33.21910100 432.38000000 -0.29145300 0.14409800 0.94566900 1.905766e-42
31.75020000 -33.99179800 432.87601000 -0.31601599 0.15094700 0.93666899 1.905766e-42
32.18759900 -35.70729800 433.20099000 -0.31769201 0.16604100 0.93354303 1.905766e-42
32.87360000 -37.27000000 433.77301000 -0.31373501 0.17498700 0.93324703 1.905766e-42
33.14979900 -39.03920000 433.95700000 -0.30587301 0.18543901 0.93383801 1.905766e-42
34.39070100 -39.50040100 435.17599000 -0.30981600 0.18042800 0.93352002 1.905766e-42
36.08100100 -39.28139900 435.75500000 -0.32037601 0.16883001 0.93212402 1.905766e-42
37.65679900 -38.44549900 435.99600000 -0.33476001 0.15475200 0.92950898 1.905766e-42
39.36990000 -37.91379900 436.14600000 -0.34924299 0.14148900 0.92628902 1.905766e-42
40.36809900 -36.54470100 436.75299000 -0.36573899 0.12698799 0.92201298 1.905766e-42
41.79439900 -35.60720100 437.32501000 -0.38802999 0.11280700 0.91471702 1.905766e-42
43.39979900 -35.24589900 438.05499000 -0.41092801 0.10051200 0.90610999 1.905766e-42
44.99250000 -35.01789900 438.86200000 -0.43424699 0.08834170 0.89645100 1.905766e-42
46.70140100 -34.58850100 439.22900000 -0.45851099 0.07488000 0.88552803 1.905766e-42
46.79209900 -32.82020200 439.55301000 -0.47160399 0.06270470 0.87957799 1.905766e-42
47.47050100 -31.17190000 439.80399000 -0.48997599 0.04575970 0.87053400 1.905766e-42
48.07490200 -29.51090000 440.14401000 -0.50780702 0.02625570 0.86107099 1.905766e-42
49.57930000 -28.78290000 440.81299000 -0.53414702 0.00907996 0.84534299 1.905766e-42
50.47779800 -27.36840100 441.47000000 -0.55696303 -0.01505800 0.83040100 1.905766e-42
51.97769900 -26.81390000 442.29599000 -0.58200502 -0.03585140 0.81239498 1.905766e-42
53.30210100 -26.26230000 443.38300000 -0.60670602 -0.06104770 0.79257900 1.905766e-42
54.42100100 -25.05960100 444.11899000 -0.63162303 -0.09077550 0.76994300 1.905766e-42
54.55519900 -23.36340000 444.70599000 -0.64887798 -0.11668600 0.75189197 1.905766e-42
55.14419900 -21.79390000 445.36200000 -0.66807097 -0.14270100 0.73028600 1.905766e-42
55.24959900 -20.19150000 446.17499000 -0.68241298 -0.16652900 0.71174502 1.905766e-42
56.03970000 -19.00680000 447.27600000 -0.70379299 -0.18698400 0.68535602 1.905766e-42
56.99959900 -18.08989900 448.49200000 -0.72679502 -0.20299900 0.65617102 1.905766e-42
57.91339900 -17.13159900 449.71100000 -0.74877000 -0.21693499 0.62632501 1.905766e-42
57.56919900 -15.44630000 450.24200000 -0.75178301 -0.23364300 0.61663097 1.905766e-42
57.54169800 -13.75340000 450.85300000 -0.75683701 -0.25204000 0.60305399 1.905766e-42
58.30369900 -12.80070000 452.17599000 -0.77784199 -0.26295701 0.57080299 1.905766e-42
58.40810000 -11.23220000 453.05301000 -0.78516001 -0.27947500 0.55264598 1.905766e-42
59.07690000 -9.99096970 454.17200000 -0.79941201 -0.29084900 0.52568799 1.905766e-42
59.12170000 -8.42467980 455.05801000 -0.80296999 -0.30734101 0.51066601 1.905766e-42
58.89519900 -6.94934990 456.06400000 -0.80404299 -0.32496199 0.49791101 1.905766e-42
59.11940000 -5.59850980 457.23199000 -0.80944300 -0.34078100 0.47819501 1.905766e-42
59.33980200 -4.63344000 458.73499000 -0.81948203 -0.35787201 0.44763401 1.905766e-42
59.79900000 -3.78182010 460.25299000 -0.83036399 -0.37152699 0.41528699 1.905766e-42
60.44570200 -3.16872000 461.81699000 -0.84224600 -0.38001600 0.38237399 1.905766e-42
60.49750100 -2.02711010 463.20801000 -0.84384799 -0.40072599 0.35684499 1.905766e-42
60.60390100 -0.86707503 464.57999000 -0.84377599 -0.42167899 0.33200800 1.905766e-42
60.34240000 0.32401001 465.90399000 -0.83947003 -0.44617799 0.31018600 1.905766e-42
60.30279900 1.48559000 467.27899000 -0.83536398 -0.46886101 0.28694499 1.905766e-42
60.57540100 2.42348000 468.79099000 -0.83425802 -0.48146901 0.26870400 1.905766e-42
59.56980100 3.54916000 469.77100000 -0.82182199 -0.50642502 0.26104099 1.905766e-42
59.34400200 4.62139990 471.19901000 -0.81329298 -0.52693802 0.24676000 1.905766e-42
58.47740200 6.19903990 471.20599000 -0.79482198 -0.55648398 0.24203999 1.905766e-42
57.40409900 7.64193010 471.28400000 -0.77629399 -0.58437097 0.23638600 1.905766e-42
56.49250000 9.00152020 472.03299000 -0.76038003 -0.61056101 0.22144300 1.905766e-42
55.65370200 10.29300000 472.96500000 -0.74637300 -0.63413298 0.20199700 1.905766e-42
54.82360100 11.63070000 473.83801000 -0.73388600 -0.65474498 0.18088900 1.905766e-42
54.02800000 12.84970000 474.89600000 -0.72482598 -0.67082298 0.15692200 1.905766e-42
53.22169900 13.93900000 476.08099000 -0.71971297 -0.68074000 0.13640501 1.905766e-42
53.37020100 14.74730000 477.68301000 -0.71385300 -0.69088399 0.11442800 1.905766e-42
51.92660100 15.64440000 478.27499000 -0.71305901 -0.69452900 0.09579450 1.905766e-42
51.32020200 16.58630000 479.68399000 -0.70897901 -0.70177001 0.06976730 1.905766e-42
50.32799900 17.61070100 480.78201000 -0.71009898 -0.70280999 0.04264280 1.905766e-42
49.18450200 18.62150000 481.73700000 -0.68572599 -0.72725397 0.02966910 1.905766e-42
48.54650100 19.27300100 483.28900000 -0.67071402 -0.74169302 0.00588319 1.905766e-42
47.61660000 20.09310000 484.59399000 -0.64970702 -0.76011801 -0.01013490 1.905766e-42
46.30049900 21.07550000 485.32999000 -0.62306601 -0.78203398 -0.01456190 1.905766e-42
45.28239800 22.05870100 486.44199000 -0.60133499 -0.79858202 -0.02573800 1.905766e-42
43.92030000 23.02580100 487.11301000 -0.57572198 -0.81696099 -0.03344050 1.905766e-42
43.23440200 23.72580000 488.62299000 -0.56025600 -0.82655197 -0.05408240 1.905766e-42
41.97040200 24.15600000 489.82999000 -0.53900898 -0.83910400 -0.07330630 1.905766e-42
41.06440000 24.67030000 491.29800000 -0.51922101 -0.84910798 -0.09708230 1.905766e-42
39.66199900 25.17750000 492.30600000 -0.49404499 -0.86134702 -0.11833100 1.905766e-42
38.85660200 25.43490000 493.89499000 -0.47059199 -0.87032598 -0.14517400 1.905766e-42
37.99150100 25.54740000 495.46899000 -0.44576901 -0.87839699 -0.17236200 1.905766e-42
37.61370100 25.46139900 497.22699000 -0.43181399 -0.88277400 -0.18506099 1.905766e-42
36.19070100 25.69459900 498.30399000 -0.40246201 -0.89365900 -0.19848700 1.905766e-42
35.03099800 25.99790000 499.64700000 -0.37666100 -0.90176302 -0.21201500 1.905766e-42
33.95740100 26.08040000 501.08899000 -0.35327101 -0.90797299 -0.22535300 1.905766e-42
32.85820000 26.31830000 502.49500000 -0.32968000 -0.91336602 -0.23890100 1.905766e-42
31.44730000 26.41080100 503.60901000 -0.30534801 -0.91796899 -0.25317001 1.905766e-42
29.73060000 26.69720100 504.06799000 -0.28264600 -0.92151099 -0.26632300 1.905766e-42
28.42070000 26.73200000 505.30200000 -0.26140901 -0.92336202 -0.28119099 1.905766e-42
27.42849900 26.62080000 506.79999000 -0.24106000 -0.92446798 -0.29538101 1.905766e-42
26.16650000 26.44619900 508.07101000 -0.20897099 -0.92802501 -0.30838299 1.905766e-42
25.05890100 26.28580100 509.48099000 -0.17864899 -0.92993599 -0.32140899 1.905766e-42
23.57560000 26.18910000 510.49600000 -0.14264899 -0.93143499 -0.33478299 1.905766e-42
21.99490000 25.98310100 511.33200000 -0.10696200 -0.93126303 -0.34829399 1.905766e-42
20.32729900 26.17260000 511.98300000 -0.07305140 -0.92964298 -0.36114800 1.905766e-42
18.54470100 26.39520100 512.09601000 -0.04350350 -0.92731303 -0.37175000 1.905766e-42
16.74889900 26.38920000 512.21802000 -0.01761810 -0.92438000 -0.38106599 1.905766e-42
15.30290000 26.49530000 511.15201000 0.00231611 -0.92463398 -0.38085100 1.905766e-42
13.50500000 26.41080100 511.17099000 0.03246810 -0.92318702 -0.38297799 1.905766e-42
11.92130000 26.14040000 511.98199000 0.05733350 -0.92038298 -0.38679299 1.905766e-42
10.16910000 25.72860000 511.97000000 0.08582920 -0.92074698 -0.38060200 1.905766e-42
