# .PCD v0.7 - Point Cloud Data file format
# 3 41 0
# 1 18 0
# 19 30 0
# 31 41 0
VERSION 0.7
FIELDS x y z normal_x normal_y normal_z curvature
SIZE 4 4 4 4 4 4 4
TYPE F F F F F F F
COUNT 1 1 1 1 1 1 1
WIDTH 41
HEIGHT 1
VIEWPOINT 0 0 0 1 0 0 0
POINTS 41
DATA ascii
7.17983010 9.59796050 447.89600000 0.18217900 0.74005800 -0.64739799 1.905766e-42
6.80761000 8.77038000 446.83801000 0.18504500 0.73663902 -0.65047801 1.905766e-42
6.48654990 9.89610000 448.20499000 0.16186100 0.74665499 -0.64521801 1.905766e-42
7.47698020 10.78050000 449.42001000 0.17674200 0.74758899 -0.64021301 1.905766e-42
8.32732960 11.59200000 450.78400000 0.19132800 0.75472403 -0.62752301 1.905766e-42
9.45271970 12.34670000 451.96899000 0.22832000 0.75774598 -0.61130297 1.905766e-42
10.67560000 12.99570000 453.11899000 0.27766901 0.74646300 -0.60472500 1.905766e-42
11.75560000 13.59840000 454.42700000 0.29637399 0.72789001 -0.61833501 1.905766e-42
12.49640000 14.50450000 455.79401000 0.25670001 0.74023700 -0.62141299 1.905766e-42
13.60570000 15.21510000 457.02100000 0.21951900 0.74858600 -0.62564498 1.905766e-42
14.22940000 16.14790000 458.42801000 0.19103999 0.76401001 -0.61627299 1.905766e-42
14.74730000 17.11759900 459.85400000 0.16472800 0.78355998 -0.59908098 1.905766e-42
15.61860000 17.97330100 461.17599000 0.15357301 0.79366201 -0.58865601 1.905766e-42
16.88069900 18.57210000 462.31100000 0.15319499 0.79595602 -0.58565003 1.905766e-42
17.45800000 19.49690100 463.74301000 0.12853600 0.81879902 -0.55950499 1.905766e-42
18.42989900 20.21500000 465.07700000 0.10678000 0.84100699 -0.53038198 1.905766e-42
18.83610000 20.97390000 466.65799000 0.07781270 0.87273300 -0.48195699 1.905766e-42
20.31749900 21.49760100 467.53601000 0.06600440 0.87638301 -0.47707000 1.905766e-42
21.52210000 22.01400000 468.76999000 0.04652320 0.88366503 -0.46580201 1.905766e-42
22.45640000 21.35040100 467.38199000 -0.10009000 0.90623498 -0.41075701 1.905766e-42
22.50320100 20.63340000 465.73199000 -0.17311200 0.91640902 -0.36087000 1.905766e-42
22.41799900 19.83239900 464.12201000 -0.20424999 0.90113902 -0.38240001 1.905766e-42
22.28490100 19.22040000 462.43399000 -0.27056801 0.86444801 -0.42370099 1.905766e-42
22.34520000 18.24659900 460.92200000 -0.18886900 0.84546500 -0.49951801 1.905766e-42
22.51240000 17.18790100 459.47601000 0.01609550 0.77632999 -0.63012099 1.905766e-42
22.87190100 15.99060000 458.18100000 0.21449800 0.73814303 -0.63963699 1.905766e-42
23.10440100 14.86520000 456.79501000 0.28024900 0.71334702 -0.64233601 1.905766e-42
24.02230100 13.47650000 456.10999000 0.56805903 0.60631800 -0.55649602 1.905766e-42
24.47640000 12.12770000 455.00800000 0.59543002 0.57756102 -0.55846798 1.905766e-42
25.51800000 10.70260000 454.65601000 0.65522498 0.58506298 -0.47789201 1.905766e-42
25.33480100 9.54491040 453.29001000 0.50949800 0.57781100 -0.63761002 1.905766e-42
23.77759900 9.24127960 452.44000000 -0.02219730 0.47165501 -0.88150400 1.905766e-42
22.08440000 8.63103960 452.46301000 -0.18700300 0.56684601 -0.80231899 1.905766e-42
20.56380100 7.91743990 451.81601000 0.10469100 0.68889499 -0.71726102 1.905766e-42
19.07570100 7.44660000 450.92001000 0.29321301 0.68405902 -0.66790003 1.905766e-42
17.36879900 7.61357020 450.37299000 0.28455999 0.69024003 -0.66527802 1.905766e-42
15.64210000 8.03034020 450.08200000 0.27279299 0.68989599 -0.67054200 1.905766e-42
13.93410000 8.19653990 449.53900000 0.30843100 0.68310201 -0.66199899 1.905766e-42
12.25290000 8.78466030 449.27802000 0.35195300 0.67556602 -0.64787400 1.905766e-42
10.56610000 9.10608010 448.73801000 0.32989001 0.68330902 -0.65135401 1.905766e-42
8.85163020 9.62520030 448.56299000 0.25603399 0.71083099 -0.65510798 1.905766e-42
