# .PCD v0.7 - Point Cloud Data file format
# 3 72 1
# 1 23 0
# 24 50 1
# 51 72 0
VERSION 0.7
FIELDS x y z normal_x normal_y normal_z curvature
SIZE 4 4 4 4 4 4 4
TYPE F F F F F F F
COUNT 1 1 1 1 1 1 1
WIDTH 72
HEIGHT 1
VIEWPOINT 0 0 0 1 0 0 0
POINTS 72
DATA ascii
20.80640000 19.75519900 447.91101000 0.14139099 -0.40907401 0.90148002 1.905766e-42
19.08410100 19.11630100 447.87799000 0.13929300 -0.42876300 0.89261401 1.905766e-42
17.49819900 18.30500000 447.62000000 0.12453100 -0.45980099 0.87924701 1.905766e-42
16.23140000 17.22530000 446.93500000 0.11107000 -0.50720602 0.85463798 1.905766e-42
14.86870000 16.25560000 446.26901000 0.10378800 -0.55991697 0.82202297 1.905766e-42
13.99600000 14.75000000 445.80899000 0.11166600 -0.61762899 0.77850199 1.905766e-42
12.96120000 13.52620000 444.98999000 0.11775300 -0.65012401 0.75064802 1.905766e-42
11.62200000 12.57400000 444.25500000 0.12232800 -0.67317802 0.72929198 1.905766e-42
10.47340000 11.47920000 443.40500000 0.11961500 -0.69907200 0.70497602 1.905766e-42
9.54288010 10.32130000 442.38901000 0.11032200 -0.72817200 0.67645800 1.905766e-42
8.43202020 9.39840030 441.31400000 0.09839630 -0.75529099 0.64796197 1.905766e-42
7.97658010 8.16681960 440.08301000 0.08396300 -0.77880400 0.62162203 1.905766e-42
7.04687980 7.15245010 438.92300000 0.06792450 -0.80166602 0.59390002 1.905766e-42
6.23860980 6.25672010 437.58701000 0.05149610 -0.81851798 0.57216799 1.905766e-42
5.58602000 5.45731020 436.11200000 0.03891900 -0.82879698 0.55819398 1.905766e-42
5.70960000 4.23041010 434.80099000 0.02889610 -0.83531398 0.54901397 1.905766e-42
5.91096020 3.31328010 433.26501000 0.02007800 -0.85435301 0.51930499 1.905766e-42
5.21576020 2.48498990 431.82599000 0.01887640 -0.87278497 0.48774001 1.905766e-42
5.47254990 1.60360000 430.27802000 0.01462870 -0.88576299 0.46390700 1.905766e-42
5.23314000 0.74540102 428.71399000 0.00694620 -0.88968599 0.45652100 1.905766e-42
5.58571000 0.04924510 427.09201000 -0.01699920 -0.89118600 0.45332000 1.905766e-42
5.38638020 -0.74826598 425.48999000 -0.01997370 -0.94404000 0.32922700 1.905766e-42
4.95963000 -0.95272398 423.75400000 0.03654840 -0.96091002 0.27443901 1.905766e-42
6.07086990 -1.55154000 422.47101000 0.07553710 -0.97368300 0.21502601 1.905766e-42
7.78897000 -1.43541000 422.99500000 -0.02885990 -0.98749602 0.15498200 1.905766e-42
9.37845990 -0.82465202 422.41101000 -0.06252480 -0.99310601 0.09914970 1.905766e-42
11.10940000 -1.29370000 422.56500000 -0.09605060 -0.99354798 0.06030280 1.905766e-42
12.69130000 -1.83758000 423.23001000 -0.09595730 -0.99159998 0.08672350 1.905766e-42
14.31510000 -2.00081990 423.98901000 -0.07386820 -0.98653400 0.14592800 1.905766e-42
16.10899900 -1.96738990 424.13400000 -0.04922510 -0.98403800 0.17101599 1.905766e-42
17.77750000 -1.84482000 424.79800000 -0.03129140 -0.97296703 0.22881600 1.905766e-42
19.52409900 -1.42123000 424.89899000 -0.01678200 -0.97039300 0.24094900 1.905766e-42
21.28949900 -1.59842000 425.20200000 -0.00329727 -0.97010201 0.24267501 1.905766e-42
23.03480000 -1.60532000 425.64200000 -0.06208520 -0.96856898 0.24087100 1.905766e-42
24.83270100 -1.58188000 425.72400000 -0.12742200 -0.96427798 0.23223300 1.905766e-42
26.35190000 -2.25313000 426.41800000 -0.17618500 -0.95106399 0.25384301 1.905766e-42
28.12140100 -2.40699010 426.70999000 -0.19005500 -0.93362600 0.30367899 1.905766e-42
29.85370100 -2.35498000 427.19601000 -0.16547200 -0.91321999 0.37235501 1.905766e-42
31.65290100 -2.40045000 427.22198000 -0.14879800 -0.90772301 0.39229700 1.905766e-42
33.19969900 -2.41985010 428.14200000 -0.13122100 -0.87052202 0.47431299 1.905766e-42
34.88620000 -2.39281990 428.77100000 -0.14783201 -0.83646703 0.52770102 1.905766e-42
36.61529900 -2.35785010 429.26999000 -0.16316999 -0.80385202 0.57201201 1.905766e-42
38.31990100 -2.40290000 429.84601000 -0.17420501 -0.76568002 0.61918300 1.905766e-42
40.02479900 -2.29984000 430.41400000 -0.17641699 -0.71929502 0.67193103 1.905766e-42
41.79550200 -2.39841010 430.72198000 -0.18649299 -0.68644500 0.70286101 1.905766e-42
43.52209900 -2.38706990 431.23099000 -0.19731000 -0.65860301 0.72616202 1.905766e-42
45.26699800 -2.49629000 431.65900000 -0.19576199 -0.64123601 0.74195200 1.905766e-42
47.00980000 -2.72414990 432.04700000 -0.17569900 -0.62664402 0.75924098 1.905766e-42
48.79990000 -2.62175010 432.20599000 -0.15715000 -0.60188299 0.78296900 1.905766e-42
50.34989900 -2.03929000 432.91199000 -0.12284600 -0.56569397 0.81541401 1.905766e-42
50.97160000 -0.62735999 433.83899000 -0.07595290 -0.53760099 0.83977097 1.905766e-42
49.64740000 0.37196100 434.53699000 -0.07157300 -0.54505301 0.83534098 1.905766e-42
48.20119900 1.30106000 435.07101000 -0.07640710 -0.54544801 0.83465397 1.905766e-42
47.00790000 2.51001000 435.66699000 -0.07596740 -0.53443301 0.84179002 1.905766e-42
45.44540000 3.29342010 436.09698000 -0.08424520 -0.54256999 0.83577502 1.905766e-42
44.17160000 4.41790010 436.69101000 -0.06113050 -0.54251099 0.83782101 1.905766e-42
42.80870100 5.49897000 437.15302000 -0.04083670 -0.53983003 0.84078300 1.905766e-42
41.35960000 6.46159980 437.61499000 -0.02158660 -0.53766298 0.84288400 1.905766e-42
39.63620000 6.79020980 438.01801000 -0.01539490 -0.55292302 0.83309001 1.905766e-42
38.59230000 8.05972000 438.75201000 0.00750956 -0.53738397 0.84330398 1.905766e-42
37.18579900 9.03905010 439.30200000 0.02086120 -0.54334599 0.83925003 1.905766e-42
35.67810100 9.76714040 439.96301000 0.03277590 -0.54775798 0.83599502 1.905766e-42
34.10879900 10.41530000 440.56000000 0.04234370 -0.55098897 0.83343703 1.905766e-42
32.72100100 11.35460000 441.21701000 0.05512810 -0.54429102 0.83708298 1.905766e-42
31.57029900 12.51440000 441.97299000 0.07313770 -0.53476799 0.84182799 1.905766e-42
30.33250000 13.56480000 442.75000000 0.09075080 -0.53579402 0.83945698 1.905766e-42
29.04940000 14.50640000 443.59100000 0.10525700 -0.53293598 0.83958298 1.905766e-42
27.81259900 15.54920000 444.38000000 0.11404200 -0.52417302 0.84394097 1.905766e-42
26.56200000 16.65500100 445.05399000 0.12771900 -0.50432700 0.85401499 1.905766e-42
25.19570000 17.46190100 445.90302000 0.13998599 -0.48366800 0.86398399 1.905766e-42
23.88850000 18.51219900 446.55801000 0.14716700 -0.45608899 0.87768102 1.905766e-42
22.40710100 19.13740000 447.36700000 0.14313500 -0.43127900 0.89079201 1.905766e-42
