# .PCD v0.7 - Point Cloud Data file format
# 2 101 0
# 1 51 0
# 52 101 0
VERSION 0.7
FIELDS x y z normal_x normal_y normal_z curvature
SIZE 4 4 4 4 4 4 4
TYPE F F F F F F F
COUNT 1 1 1 1 1 1 1
WIDTH 101
HEIGHT 1
VIEWPOINT 0 0 0 1 0 0 0
POINTS 101
DATA ascii
40.02240000 43.75510000 475.24399000 0.08476800 -0.77436000 0.62704098 1.905766e-42
39.20320100 43.97900000 475.76700000 0.04921840 -0.76821703 0.63829499 1.905766e-42
37.83750200 43.30400100 474.80801000 0.02490910 -0.76049000 0.64887202 1.905766e-42
36.47470100 42.51229900 473.93900000 0.00867012 -0.75419998 0.65658802 1.905766e-42
35.25870100 41.50109900 473.07901000 0.00052054 -0.75090301 0.66041201 1.905766e-42
34.19920000 40.51950100 472.00500000 -0.00735259 -0.74930102 0.66218901 1.905766e-42
32.88050100 39.75149900 471.04999000 -0.02395490 -0.74629599 0.66518301 1.905766e-42
31.29320000 39.23809800 470.37399000 -0.04914850 -0.74043101 0.67033303 1.905766e-42
29.64250000 39.08509800 469.67300000 -0.07803080 -0.72983199 0.67915797 1.905766e-42
28.42580000 38.07239900 468.81699000 -0.08224340 -0.72204399 0.68694103 1.905766e-42
27.48010100 37.07389800 467.65500000 -0.07878440 -0.71460497 0.69507700 1.905766e-42
26.13830000 36.32160200 466.72000000 -0.08938910 -0.70459199 0.70396000 1.905766e-42
24.52440100 35.91420000 466.03500000 -0.11186700 -0.69341600 0.71180099 1.905766e-42
23.33490000 35.10509900 464.95401000 -0.11985300 -0.68696600 0.71673799 1.905766e-42
22.54159900 33.97010000 463.80399000 -0.12556800 -0.68085903 0.72157001 1.905766e-42
21.94319900 32.73939900 462.63400000 -0.13150799 -0.67427599 0.72667599 1.905766e-42
21.07099900 31.69910000 461.45200000 -0.14417000 -0.67302698 0.72543001 1.905766e-42
20.67890000 30.45900000 460.20801000 -0.14703500 -0.67501599 0.72300398 1.905766e-42
19.74720000 29.41190000 459.07901000 -0.16042501 -0.67416698 0.72094601 1.905766e-42
18.44549900 28.79260100 458.00101000 -0.18251000 -0.67007703 0.71950501 1.905766e-42
17.79340000 27.58589900 456.83499000 -0.18837900 -0.67031002 0.71777201 1.905766e-42
17.54880000 26.28319900 455.61700000 -0.18327400 -0.67497098 0.71472001 1.905766e-42
16.93530100 25.12500000 454.38300000 -0.18666700 -0.68093401 0.70815599 1.905766e-42
16.13470100 24.10750000 453.13300000 -0.19432200 -0.68474001 0.70240301 1.905766e-42
15.20290000 23.18170000 451.90201000 -0.20361900 -0.68712503 0.69742298 1.905766e-42
14.62850000 22.03809900 450.63599000 -0.20258200 -0.69394797 0.69093901 1.905766e-42
14.28700000 20.80550000 449.37000000 -0.19579200 -0.70334297 0.68335497 1.905766e-42
13.51650000 19.93849900 447.99301000 -0.19713800 -0.70711499 0.67906100 1.905766e-42
13.45580000 18.60910000 446.78101000 -0.18493800 -0.71366400 0.67563403 1.905766e-42
13.01920000 17.46970000 445.45801000 -0.18299501 -0.71492499 0.67482901 1.905766e-42
12.74310000 16.28330000 444.13300000 -0.18081599 -0.71539497 0.67491901 1.905766e-42
12.08020000 15.27220000 442.79901000 -0.19074500 -0.71209800 0.67567199 1.905766e-42
11.98370000 13.99970000 441.53000000 -0.18932100 -0.71011901 0.67815101 1.905766e-42
11.36440000 13.01860000 440.15399000 -0.20563100 -0.70494401 0.67879999 1.905766e-42
11.24280000 11.72520000 438.90799000 -0.20806099 -0.70489699 0.67810798 1.905766e-42
11.12860000 10.45240000 437.64001000 -0.20778801 -0.70663297 0.67638302 1.905766e-42
10.51270000 9.41783050 436.30200000 -0.22534400 -0.70504200 0.67241102 1.905766e-42
10.38380000 8.19653990 434.98599000 -0.22493599 -0.70774102 0.66970599 1.905766e-42
10.37590000 6.96186020 433.67599000 -0.21278100 -0.71435702 0.66664797 1.905766e-42
9.82071020 6.02145000 432.24500000 -0.23214500 -0.71280599 0.66182798 1.905766e-42
9.58924960 4.84259990 430.90500000 -0.23312099 -0.71726102 0.65665197 1.905766e-42
9.77845950 3.50205990 429.71899000 -0.21441799 -0.72690803 0.65240300 1.905766e-42
9.22282980 2.49728990 428.33301000 -0.23339400 -0.72782701 0.64482200 1.905766e-42
8.79656980 1.56350000 426.85400000 -0.24844401 -0.73005599 0.63662702 1.905766e-42
8.79434970 0.25972000 425.61301000 -0.24567001 -0.73634201 0.63043302 1.905766e-42
8.63095000 -0.84937501 424.20499000 -0.24332701 -0.74437398 0.62185103 1.905766e-42
8.73231030 -2.04027010 422.85901000 -0.21826500 -0.75898600 0.61343402 1.905766e-42
8.72776030 -3.17793990 421.46399000 -0.20299500 -0.76929200 0.60579097 1.905766e-42
8.47539040 -4.26809980 420.05399000 -0.20428200 -0.77351600 0.59995103 1.905766e-42
8.52781010 -5.36451010 418.62701000 -0.19877900 -0.77677900 0.59757900 1.905766e-42
8.04689980 -6.14845990 417.07999000 -0.21854299 -0.77382302 0.59450603 1.905766e-42
7.78439000 -7.24104980 415.67401000 -0.22586100 -0.77266002 0.59328198 1.905766e-42
9.56628990 -7.41595980 415.85901000 -0.15900500 -0.78676498 0.59642100 1.905766e-42
11.36330000 -7.40832000 415.96201000 -0.07920090 -0.80512202 0.58779699 1.905766e-42
12.40180000 -6.81385990 417.30600000 -0.04714270 -0.81030202 0.58411300 1.905766e-42
12.69100000 -5.86252020 418.80701000 -0.05866760 -0.80519199 0.59010500 1.905766e-42
13.68620000 -5.03714990 420.05899000 -0.03903590 -0.80751401 0.58855498 1.905766e-42
14.47340000 -4.13047980 421.39999000 -0.03628790 -0.80573303 0.59116602 1.905766e-42
15.96030000 -3.43950010 422.14301000 -0.03904060 -0.80833602 0.58742601 1.905766e-42
16.70280100 -2.55316000 423.52200000 -0.05126390 -0.80003899 0.59775299 1.905766e-42
18.13600000 -1.91892000 424.40799000 -0.05215600 -0.79657298 0.60228902 1.905766e-42
19.49690100 -1.19848000 425.34000000 -0.03437270 -0.79503900 0.60558301 1.905766e-42
20.31860000 -0.36659500 426.70801000 -0.02711190 -0.78667498 0.61677200 1.905766e-42
21.70960000 0.40712300 427.54901000 0.00967491 -0.78864700 0.61477101 1.905766e-42
22.82040000 1.27171000 428.67099000 0.03000530 -0.78581101 0.61773801 1.905766e-42
23.76950100 2.16753010 429.91000000 0.03712390 -0.78059399 0.62393498 1.905766e-42
24.75790000 3.12315990 431.07199000 0.04719560 -0.77840900 0.62598002 1.905766e-42
25.77170000 4.13225980 432.16501000 0.06114150 -0.77682000 0.62674803 1.905766e-42
26.77570000 5.18785000 433.22198000 0.07521890 -0.77504599 0.62741202 1.905766e-42
27.31930000 6.22562980 434.58899000 0.07074110 -0.76935500 0.63489300 1.905766e-42
28.23730100 7.24877020 435.75101000 0.07928310 -0.76716000 0.63653702 1.905766e-42
29.07390000 8.31703000 436.93399000 0.08186190 -0.76465702 0.63921702 1.905766e-42
29.57600000 9.45818040 438.23199000 0.07460080 -0.76222700 0.64299703 1.905766e-42
30.43670100 10.54940000 439.37601000 0.08196090 -0.76242900 0.64186102 1.905766e-42
30.94640000 11.66350000 440.69400000 0.08318920 -0.76144898 0.64286500 1.905766e-42
31.68170000 12.79870000 441.88199000 0.09510460 -0.76160198 0.64102799 1.905766e-42
32.48960100 13.97400000 442.98001000 0.11373100 -0.76168698 0.63788599 1.905766e-42
32.80300100 15.02370000 444.40900000 0.11982000 -0.76235598 0.63596898 1.905766e-42
33.35360000 16.21660000 445.63901000 0.13278399 -0.76083201 0.63521898 1.905766e-42
33.74910000 17.35360000 446.97699000 0.13657799 -0.75838202 0.63734001 1.905766e-42
34.28290200 18.54830000 448.21301000 0.14244699 -0.75516701 0.63986897 1.905766e-42
34.45420100 19.67550100 449.60599000 0.13323499 -0.75015903 0.64769602 1.905766e-42
35.00960200 20.87640000 450.82599000 0.13543200 -0.74541998 0.65269202 1.905766e-42
35.18460100 22.09160000 452.14301000 0.12361400 -0.73949200 0.66171902 1.905766e-42
35.23099900 23.31240100 453.46500000 0.10679500 -0.73460001 0.67004400 1.905766e-42
35.86679800 24.50470000 454.65399000 0.11087200 -0.73249203 0.67168599 1.905766e-42
35.98379900 25.75400000 455.94501000 0.09951430 -0.72832698 0.67796499 1.905766e-42
36.05649900 26.95949900 457.27899000 0.09003370 -0.72479701 0.68305397 1.905766e-42
36.63010000 28.16050000 458.49100000 0.09542240 -0.72260302 0.68464601 1.905766e-42
37.30749900 29.42680000 459.57599000 0.10347300 -0.72196102 0.68415302 1.905766e-42
37.52090100 30.65270000 460.87701000 0.09590320 -0.72080302 0.68647301 1.905766e-42
37.65200000 31.85870000 462.20700000 0.08740670 -0.71970898 0.68875200 1.905766e-42
37.54219800 33.08120000 463.52301000 0.07700140 -0.71977001 0.68992901 1.905766e-42
38.33169900 34.26150100 464.62900000 0.09199600 -0.72140598 0.68637401 1.905766e-42
38.50339900 35.50669900 465.91800000 0.09930180 -0.72514802 0.68139499 1.905766e-42
38.96720100 36.75000000 467.13400000 0.10845500 -0.73484099 0.66951197 1.905766e-42
39.14370000 37.91519900 468.49500000 0.11901000 -0.74766898 0.65332103 1.905766e-42
39.30479800 39.09949900 469.84100000 0.12296300 -0.75781101 0.64078200 1.905766e-42
39.31440000 40.23020200 471.24100000 0.10989900 -0.76446003 0.63523400 1.905766e-42
39.65390000 41.39630100 472.57001000 0.10818200 -0.76970798 0.62916201 1.905766e-42
39.99990100 42.58079900 473.88000000 0.10421300 -0.77355403 0.62510300 1.905766e-42
