# .PCD v0.7 - Point Cloud Data file format
# 2 91 0
# 1 47 0
# 48 91 0
VERSION 0.7
FIELDS x y z normal_x normal_y normal_z curvature
SIZE 4 4 4 4 4 4 4
TYPE F F F F F F F
COUNT 1 1 1 1 1 1 1
WIDTH 91
HEIGHT 1
VIEWPOINT 0 0 0 1 0 0 0
POINTS 91
DATA ascii
11.11110000 1.08824000 413.63400000 0.12760501 0.78342700 -0.60824299 1.905766e-42
9.52698990 0.88287598 412.79501000 0.10335600 0.79133999 -0.60257697 1.905766e-42
9.55161000 1.91041000 414.27301000 0.09733020 0.78807801 -0.60783201 1.905766e-42
9.44458960 3.05293010 415.65900000 0.08522690 0.78537798 -0.61312097 1.905766e-42
9.50607010 4.13832000 417.09399000 0.07676980 0.78128999 -0.61942899 1.905766e-42
9.79520030 5.27424000 418.45999000 0.07574730 0.77465498 -0.62783098 1.905766e-42
10.08740000 6.38445000 419.84698000 0.07518160 0.76571000 -0.63877702 1.905766e-42
10.16580000 7.50595000 421.25201000 0.06790040 0.75363201 -0.65377998 1.905766e-42
10.07660000 8.49503040 422.75400000 0.06690220 0.74930602 -0.65883499 1.905766e-42
10.27860000 9.83312990 423.94000000 0.07747100 0.75412202 -0.65214902 1.905766e-42
10.71540000 10.97800000 425.25900000 0.09512580 0.75888598 -0.64423800 1.905766e-42
11.00600000 12.11160000 426.62701000 0.10279700 0.76443100 -0.63645703 1.905766e-42
11.15830000 13.18770000 428.06100000 0.10584000 0.76941901 -0.62991500 1.905766e-42
11.07750000 14.22860000 429.52802000 0.10457000 0.76925600 -0.63032597 1.905766e-42
11.60180000 15.34980000 430.83499000 0.11789400 0.75981301 -0.63936299 1.905766e-42
11.83650000 16.48570100 432.21100000 0.12451500 0.75094801 -0.64851600 1.905766e-42
12.26490000 17.61630100 433.54501000 0.12825800 0.74422699 -0.65549701 1.905766e-42
12.51740000 18.77510100 434.89899000 0.12253000 0.74086398 -0.66038400 1.905766e-42
12.69450000 19.93359900 436.26501000 0.10824100 0.74219900 -0.66138101 1.905766e-42
12.69830000 21.07819900 437.65399000 0.09205780 0.75348002 -0.65099400 1.905766e-42
13.37920000 22.24700000 438.84201000 0.09462380 0.75768900 -0.64571899 1.905766e-42
13.49790000 23.43240000 440.19101000 0.08279550 0.76542598 -0.63817602 1.905766e-42
13.76880000 24.40539900 441.68100000 0.08016200 0.76938599 -0.63373399 1.905766e-42
14.38590000 25.44109900 443.01700000 0.09272780 0.76946503 -0.63192201 1.905766e-42
14.94930000 26.50050000 444.35901000 0.10311100 0.76396799 -0.63696200 1.905766e-42
15.57910000 27.59129900 445.64499000 0.10976700 0.75707603 -0.64403999 1.905766e-42
15.88760000 28.67680000 447.04700000 0.10498000 0.75315899 -0.64940798 1.905766e-42
16.47920000 29.68680000 448.41501000 0.10178700 0.74911898 -0.65456802 1.905766e-42
17.11689900 30.73690000 449.73001000 0.09426330 0.74594998 -0.65929800 1.905766e-42
18.06850100 31.78100000 450.84601000 0.09148150 0.74068898 -0.66559100 1.905766e-42
18.70960000 32.79679900 452.18701000 0.08049880 0.73990703 -0.66787601 1.905766e-42
19.70900000 33.78799800 453.30801000 0.08122810 0.73357999 -0.67473203 1.905766e-42
20.41460000 34.85860100 454.57199000 0.07005170 0.73193401 -0.67776501 1.905766e-42
21.44290000 35.81560100 455.69699000 0.07037540 0.72412997 -0.68606400 1.905766e-42
22.43689900 36.80690000 456.82401000 0.06665970 0.71715599 -0.69371700 1.905766e-42
23.42700000 37.83630000 457.91901000 0.06078730 0.71185499 -0.69969100 1.905766e-42
24.36290000 38.90050100 459.02899000 0.04870360 0.71006799 -0.70244700 1.905766e-42
25.70159900 39.69940200 459.92899000 0.05860650 0.70117199 -0.71057898 1.905766e-42
26.86949900 40.60329800 460.95801000 0.06965990 0.69563401 -0.71501201 1.905766e-42
28.23090000 41.31330100 461.89700000 0.06595120 0.69678599 -0.71424103 1.905766e-42
29.33560000 42.26940200 462.94901000 0.05177570 0.70371401 -0.70859402 1.905766e-42
30.70890000 43.07280000 463.79001000 0.02940530 0.71798003 -0.69544202 1.905766e-42
31.86330000 44.02130100 464.79401000 0.01994930 0.72851598 -0.68473798 1.905766e-42
33.32460000 44.74980200 465.55200000 0.00669811 0.73868799 -0.67401397 1.905766e-42
34.47460200 45.65860000 466.59698000 0.00092781 0.74697500 -0.66485101 1.905766e-42
35.88800000 46.11449800 467.61401000 -0.02031290 0.75748003 -0.65254200 1.905766e-42
37.54919800 46.76739900 467.84698000 -0.08229090 0.76952302 -0.63329500 1.905766e-42
39.18230100 46.34759900 467.21701000 -0.06233730 0.75564402 -0.65200901 1.905766e-42
38.44540000 45.32529800 465.93100000 -0.06051540 0.75057602 -0.65800703 1.905766e-42
38.35089900 44.12570200 464.59299000 -0.03866970 0.73853397 -0.67310703 1.905766e-42
38.42869900 42.86209900 463.31299000 -0.01761050 0.72671700 -0.68671203 1.905766e-42
38.27430000 41.57160200 462.06799000 -0.00364605 0.71603298 -0.69805700 1.905766e-42
38.17390100 40.29840100 460.79999000 0.01074960 0.70455700 -0.70956600 1.905766e-42
37.80279900 39.20420100 459.41901000 0.00487917 0.69833398 -0.71575499 1.905766e-42
37.66149900 37.87189900 458.21701000 0.02255790 0.69816601 -0.71557999 1.905766e-42
37.41019800 36.52870200 457.04599000 0.02983540 0.70073098 -0.71280098 1.905766e-42
36.69870000 35.41920100 455.82001000 0.00351765 0.70805502 -0.70614898 1.905766e-42
36.86890000 34.09899900 454.60800000 0.02603090 0.71144599 -0.70225799 1.905766e-42
36.65679900 32.85540000 453.32401000 0.01944010 0.71979302 -0.69391698 1.905766e-42
36.14550000 31.75079900 451.99799000 -0.00052037 0.73085397 -0.68253303 1.905766e-42
36.00389900 30.54870000 450.66599000 0.00514529 0.73877102 -0.67393702 1.905766e-42
35.63050100 29.38089900 449.34799000 0.00049115 0.74642199 -0.66547298 1.905766e-42
35.14569900 28.20579900 448.07401000 -0.00718033 0.75362402 -0.65726697 1.905766e-42
35.13150000 27.02330000 446.71600000 0.00451443 0.75817800 -0.65203100 1.905766e-42
34.59719800 25.94350100 445.37900000 -0.00178088 0.76475501 -0.64431900 1.905766e-42
34.44780000 24.69949900 444.08701000 0.00534240 0.76898199 -0.63924801 1.905766e-42
33.74179800 23.66770000 442.79199000 0.00109154 0.77418602 -0.63295698 1.905766e-42
33.56449900 22.54480000 441.39600000 0.01321170 0.77541697 -0.63131100 1.905766e-42
33.51580000 21.29360000 440.10300000 0.03055750 0.77334797 -0.63324499 1.905766e-42
32.83300000 20.38870000 438.70499000 0.03782260 0.77161402 -0.63496602 1.905766e-42
32.15309900 19.41620100 437.35101000 0.04261200 0.76534098 -0.64221299 1.905766e-42
31.19969900 18.45700100 436.16400000 0.03749250 0.76260501 -0.64577699 1.905766e-42
30.68460100 17.31790000 434.86899000 0.04638600 0.75414801 -0.65506399 1.905766e-42
30.17320100 16.14850000 433.59900000 0.05568500 0.74519402 -0.66451901 1.905766e-42
29.36490100 15.12020000 432.36301000 0.05493100 0.74134099 -0.66887599 1.905766e-42
28.91390000 13.96040000 431.06201000 0.07149430 0.74012399 -0.66865897 1.905766e-42
27.63500000 13.22960000 430.02802000 0.05267960 0.75309002 -0.65580499 1.905766e-42
27.18630000 12.16020000 428.65100000 0.07394870 0.75104702 -0.65609503 1.905766e-42
26.21080000 11.29090000 427.41299000 0.06522680 0.76030898 -0.64627898 1.905766e-42
25.25910000 10.32550000 426.22900000 0.04824470 0.77123898 -0.63471502 1.905766e-42
24.91950000 9.02563000 425.03101000 0.08424620 0.75443500 -0.65094501 1.905766e-42
23.85910000 8.11972050 423.89301000 0.04104090 0.76239699 -0.64580703 1.905766e-42
22.62520000 7.34876010 422.83301000 0.02882910 0.76210803 -0.64680803 1.905766e-42
21.60500000 6.41382980 421.68201000 0.04086340 0.75499398 -0.65445697 1.905766e-42
20.61260000 5.49494980 420.49399000 0.06097500 0.74683100 -0.66221303 1.905766e-42
19.22010000 4.87955000 419.53400000 0.08902750 0.74605501 -0.65990603 1.905766e-42
18.13890100 4.06350990 418.34900000 0.10425800 0.75388098 -0.64868599 1.905766e-42
16.87430000 3.32254000 417.30399000 0.10789900 0.76261598 -0.63778901 1.905766e-42
15.51020000 2.69468000 416.31100000 0.10903000 0.77041799 -0.62814701 1.905766e-42
14.02210000 2.16607000 415.44800000 0.12077200 0.77443802 -0.62101501 1.905766e-42
12.62270000 1.59077000 414.47198000 0.12900300 0.77812099 -0.61472398 1.905766e-42
