# .PCD v0.7 - Point Cloud Data file format
# 5 235 0
# 1 13 1
# 14 111 0
# 112 157 0
# 158 195 1
# 196 235 0
VERSION 0.7
FIELDS x y z normal_x normal_y normal_z curvature
SIZE 4 4 4 4 4 4 4
TYPE F F F F F F F
COUNT 1 1 1 1 1 1 1
WIDTH 235
HEIGHT 1
VIEWPOINT 0 0 0 1 0 0 0
POINTS 235
DATA ascii
-69.7882 0.45385399 469.06601 -0.464192 -0.61662799 0.63584203 1.9057659e-42
-68.655998 0.92021298 470.38501 -0.455874 -0.57635701 0.67822701 1.9057659e-42
-68.512604 0.88557202 470.48099 -0.455919 -0.57546902 0.67895001 1.9057659e-42
-66.932701 0.423673 471.20999 -0.45715201 -0.57023197 0.68252999 1.9057659e-42
-65.265404 -0.10504 471.634 -0.459052 -0.56764299 0.68341202 1.9057659e-42
-63.644001 -0.56154197 472.26901 -0.46072799 -0.56352103 0.68569201 1.9057659e-42
-62.067902 -1.23884 472.814 -0.46303001 -0.56077898 0.68638903 1.9057659e-42
-60.557999 -1.47768 473.76501 -0.46437499 -0.55532098 0.68990999 1.9057659e-42
-59.0368 -2.23244 474.36099 -0.467134 -0.55265403 0.69018799 1.9057659e-42
-57.556301 -3.25159 474.45901 -0.47084901 -0.55170798 0.68841797 1.9057659e-42
-55.9575 -4.0722299 474.35699 -0.474536 -0.55037701 0.68695003 1.9057659e-42
-54.491699 -4.80616 475.10101 -0.47755599 -0.54740798 0.68722999 1.9057659e-42
-52.927399 -5.0316701 475.96201 -0.47921899 -0.54403299 0.68875098 1.9057659e-42
-51.534401 -5.9528799 476.634 -0.47192901 -0.548738 0.69005102 1.9057659e-42
-50.639198 -5.6515098 478.16599 -0.46837601 -0.54528302 0.69519103 1.9057659e-42
-50.154099 -4.5684299 479.51901 -0.468034 -0.536461 0.70224899 1.9057659e-42
-49.345501 -4.1089702 481.06 -0.46633101 -0.52949101 0.70864302 1.9057659e-42
-48.949902 -2.5067501 481.77899 -0.46727499 -0.51618099 0.71778297 1.9057659e-42
-48.644699 -1.1022201 482.86301 -0.467522 -0.49957201 0.72928101 1.9057659e-42
-47.955601 0.130198 483.979 -0.46713001 -0.48634899 0.73841298 1.9057659e-42
-47.677101 1.6356601 484.92599 -0.46579099 -0.480885 0.74282402 1.9057659e-42
-46.5797 2.0402601 486.29401 -0.466901 -0.47567299 0.74547899 1.9057659e-42
-45.5881 2.7432499 487.621 -0.467985 -0.46946701 0.74872601 1.9057659e-42
-44.923801 4.1846399 488.47101 -0.467273 -0.46232101 0.75360101 1.9057659e-42
-44.020901 5.1944799 489.65601 -0.46742901 -0.454382 0.75831801 1.9057659e-42
-43.2197 6.3498502 490.78 -0.466454 -0.44686201 0.76337099 1.9057659e-42
-42.1129 7.2458801 491.88101 -0.46625301 -0.43980399 0.76758099 1.9057659e-42
-41.254299 8.2999401 493.06 -0.46408099 -0.43164101 0.77350801 1.9057659e-42
-40.023602 9.10923 494.095 -0.46287 -0.421085 0.78002501 1.9057659e-42
-38.884102 9.9548502 495.203 -0.46000701 -0.408281 0.78847897 1.9057659e-42
-37.799599 10.7402 496.40601 -0.45564699 -0.392735 0.79883999 1.9057659e-42
-36.532799 11.4563 497.465 -0.45061699 -0.37382099 0.81067997 1.9057659e-42
-35.325001 12.3035 498.496 -0.44172099 -0.355735 0.82361102 1.9057659e-42
-34.0667 12.9203 499.62601 -0.433786 -0.35188299 0.82946199 1.9057659e-42
-32.742699 12.8978 500.845 -0.432015 -0.342875 0.83414602 1.9057659e-42
-31.8799 14.4321 501.22101 -0.42209601 -0.352213 0.83533299 1.9057659e-42
-30.469999 15.043 502.159 -0.418571 -0.34889099 0.83849502 1.9057659e-42
-29.061701 15.7216 503.05099 -0.414765 -0.344971 0.84200102 1.9057659e-42
-27.608299 16.2705 503.95999 -0.41146901 -0.33744299 0.84665602 1.9057659e-42
-26.182501 16.916201 504.849 -0.406324 -0.32741201 0.85305399 1.9057659e-42
-24.7068 17.4771 505.71399 -0.40043801 -0.31189501 0.86160898 1.9057659e-42
-23.147301 17.708 506.582 -0.396723 -0.28939801 0.871126 1.9057659e-42
-21.6399 18.285 507.379 -0.386839 -0.26821199 0.88227999 1.9057659e-42
-20.0734 18.3127 508.26501 -0.38357601 -0.246134 0.89010602 1.9057659e-42
-18.5007 18.797899 508.99399 -0.37369701 -0.236196 0.89697403 1.9057659e-42
-16.904699 19.150801 509.74799 -0.361065 -0.22472601 0.90505803 1.9057659e-42
-15.2564 19.180401 510.47101 -0.342962 -0.207148 0.916224 1.9057659e-42
-13.7369 20.007799 510.96701 -0.32037601 -0.22315 0.920632 1.9057659e-42
-12.0428 20.0933 511.57001 -0.305044 -0.21619 0.92747498 1.9057659e-42
-10.3379 20.2488 512.125 -0.29021901 -0.215159 0.932459 1.9057659e-42
-8.6326399 20.3801 512.68701 -0.27639601 -0.216516 0.93633699 1.9057659e-42
-6.9903402 20.1887 513.39801 -0.26431799 -0.208601 0.94160599 1.9057659e-42
-5.24997 20.4739 513.758 -0.25152299 -0.22001299 0.94251299 1.9057659e-42
-3.5749199 20.128099 514.31897 -0.239985 -0.208574 0.94810599 1.9057659e-42
-1.8453701 20.1684 514.81598 -0.2279 -0.215315 0.949579 1.9057659e-42
-0.0841069 20.317101 515.15698 -0.216244 -0.227135 0.949552 1.9057659e-42
1.65367 20.6098 515.52301 -0.20540801 -0.24650601 0.94712299 1.9057659e-42
3.40064 20.2761 515.79999 -0.194409 -0.241273 0.95078498 1.9057659e-42
5.15275 19.8988 515.96698 -0.18309 -0.234981 0.95460099 1.9057659e-42
6.8013802 19.341801 516.427 -0.170922 -0.22655199 0.95888501 1.9057659e-42
8.6000795 19.295 516.47699 -0.15978999 -0.23480301 0.95881999 1.9057659e-42
10.3984 19.274 516.55298 -0.148488 -0.24509101 0.95806199 1.9057659e-42
12.0331 18.591499 516.87201 -0.13355 -0.238122 0.96201003 1.9057659e-42
13.8154 18.3412 516.89899 -0.119437 -0.245239 0.96207702 1.9057659e-42
15.4418 17.571699 516.95099 -0.100657 -0.240545 0.96540499 1.9057659e-42
17.2395 17.5056 516.88898 -0.085993998 -0.25735 0.962484 1.9057659e-42
18.7822 16.5823 516.97601 -0.062508501 -0.256706 0.96446598 1.9057659e-42
20.5229 16.1243 516.99103 -0.040699601 -0.27493501 0.96060097 1.9057659e-42
22.299801 15.8541 516.89203 -0.021427199 -0.305246 0.95203203 1.9057659e-42
23.973301 15.2318 516.664 -0.0127837 -0.332127 0.94314802 1.9057659e-42
25.7001 14.772 516.448 -0.0087352702 -0.35326901 0.93548101 1.9057659e-42
27.4617 14.4479 516.27002 -0.0078712804 -0.37031099 0.92887402 1.9057659e-42
28.3241 12.8685 516.22998 0.0027443599 -0.37486801 0.92707402 1.9057659e-42
30.023899 12.3948 515.87402 0.0021037301 -0.384184 0.92325401 1.9057659e-42
31.563601 11.5077 515.58698 0.0032124601 -0.388908 0.92127103 1.9057659e-42
33.071999 10.5539 515.35303 0.0039763199 -0.39146701 0.92018402 1.9057659e-42
34.7621 10.5184 514.73401 0.000844886 -0.39785501 0.91744798 1.9057659e-42
36.295601 9.6630201 514.33899 0.0022048601 -0.39983001 0.916587 1.9057659e-42
37.188599 8.1093998 514.16901 0.0095822904 -0.40334901 0.91499603 1.9057659e-42
38.623402 7.1364198 513.685 0.0148752 -0.412323 0.91091597 1.9057659e-42
40.0877 6.18119 513.25702 0.021283999 -0.421231 0.90670401 1.9057659e-42
41.500702 5.1774101 512.771 0.0297026 -0.429764 0.90245301 1.9057659e-42
43.127102 4.9530201 512.03302 0.035705701 -0.440451 0.897066 1.9057659e-42
44.392799 3.8569601 511.37201 0.045547701 -0.44819701 0.89277399 1.9057659e-42
45.750401 2.8563499 510.74301 0.052605402 -0.45593399 0.888457 1.9057659e-42
46.535599 1.30239 510.28601 0.062685601 -0.46422499 0.88349599 1.9057659e-42
47.8783 0.35837299 509.547 0.066814803 -0.47688401 0.876423 1.9057659e-42
48.948002 -0.934825 508.897 0.071103998 -0.48722401 0.87037802 1.9057659e-42
50.359901 -1.70933 508.09299 0.070856899 -0.49618199 0.86532199 1.9057659e-42
51.368301 -3.0267899 507.39401 0.072309397 -0.50380599 0.86078501 1.9057659e-42
52.2173 -4.44769 506.68701 0.0732968 -0.51057202 0.85670501 1.9057659e-42
53.2178 -5.7776699 506.00101 0.073678702 -0.52826399 0.84587699 1.9057659e-42
54.412998 -6.6925502 505.01401 0.0715122 -0.54208302 0.83727598 1.9057659e-42
55.805901 -7.33218 504.07001 0.067690603 -0.55015099 0.83231699 1.9057659e-42
57.359501 -7.59442 503.20001 0.063214302 -0.55449599 0.82978201 1.9057659e-42
59.089401 -7.1395001 503.40201 0.057829201 -0.55356002 0.83079898 1.9057659e-42
60.8778 -6.9675398 503.293 0.052542899 -0.55532098 0.829974 1.9057659e-42
62.623699 -6.56603 503.46899 0.046773002 -0.55672997 0.82937598 1.9057659e-42
64.363403 -6.3859701 503.89401 0.040901501 -0.55927098 0.82797599 1.9057659e-42
66.158798 -6.26373 503.853 0.044158399 -0.56312501 0.82519102 1.9057659e-42
67.8936 -6.55057 503.46799 0.0541027 -0.56716102 0.82182801 1.9057659e-42
69.430901 -5.7671199 503.98099 0.059916999 -0.566558 0.82183999 1.9057659e-42
71.222504 -5.59549 503.953 0.067861997 -0.56761599 0.82049203 1.9057659e-42
73.014999 -5.4360299 503.914 0.0750807 -0.56791902 0.81965297 1.9057659e-42
74.765404 -5.0433798 504.06201 0.0814244 -0.566553 0.81999201 1.9057659e-42
76.450699 -4.4626098 504.31201 0.087283403 -0.56366301 0.82138002 1.9057659e-42
78.082199 -3.7800801 504.647 0.092997797 -0.55930001 0.82373202 1.9057659e-42
79.780197 -3.21012 504.82599 0.0985981 -0.55431902 0.82644397 1.9057659e-42
81.545403 -2.85906 504.797 0.103321 -0.54920399 0.82927603 1.9057659e-42
83.023903 -1.90317 505.172 0.109503 -0.53972101 0.834692 1.9057659e-42
84.6119 -1.08244 505.384 0.115661 -0.52852702 0.84100097 1.9057659e-42
85.767799 0.168249 505.966 0.123856 -0.509013 0.85180098 1.9057659e-42
84.5821 1.21211 506.82901 0.127663 -0.51581699 0.84713298 1.9057659e-42
83.1735 2.1019001 507.51001 0.125673 -0.51902598 0.845469 1.9057659e-42
81.454399 2.2406399 508.026 0.11896 -0.52132702 0.845025 1.9057659e-42
80.176598 3.2414999 508.80399 0.114296 -0.51932102 0.84690201 1.9057659e-42
78.764198 4.10326 509.513 0.107798 -0.51681298 0.84928399 1.9057659e-42
77.2864 4.8636298 510.20401 0.100244 -0.514117 0.85184199 1.9057659e-42
75.832298 5.7424798 510.798 0.092467897 -0.51141298 0.85434598 1.9057659e-42
74.651299 6.8948302 511.51801 0.085749798 -0.50843602 0.85681897 1.9057659e-42
73.410698 8.0335503 512.15302 0.078172199 -0.50488198 0.85964102 1.9057659e-42
71.917 8.7130899 512.89301 0.068681903 -0.501921 0.86218202 1.9057659e-42
70.480499 9.5974102 513.521 0.059374101 -0.49848801 0.86486101 1.9057659e-42
69.102699 10.5604 514.16498 0.050458401 -0.49491099 0.86747801 1.9057659e-42
67.805 11.6116 514.836 0.0424481 -0.49134901 0.869928 1.9057659e-42
66.385902 12.5349 515.44702 0.033992801 -0.48817599 0.87208301 1.9057659e-42
65.426697 13.94 516.03601 0.029649301 -0.48203999 0.87564802 1.9057659e-42
63.907398 14.5691 516.76801 0.0209023 -0.48006999 0.87698102 1.9057659e-42
62.565899 15.6264 517.33502 0.019863199 -0.47602901 0.87920499 1.9057659e-42
61.4534 16.858299 518.03198 0.018758001 -0.47018 0.88237101 1.9057659e-42
60.053101 17.8675 518.54199 0.0156489 -0.46589199 0.88470298 1.9057659e-42
58.9454 19.1082 519.23102 0.0132999 -0.46022099 0.88770401 1.9057659e-42
57.617802 20.1964 519.77197 0.0095588099 -0.45694399 0.88944399 1.9057659e-42
56.755798 21.658899 520.37 0.0072799898 -0.451498 0.89224201 1.9057659e-42
55.6054 22.9109 520.961 0.0032635101 -0.44656301 0.89474601 1.9057659e-42
54.222301 23.887899 521.57202 -0.00216366 -0.44236499 0.896833 1.9057659e-42
52.942699 25.0072 522.16302 -0.0072804801 -0.437435 0.899221 1.9057659e-42
52.1558 26.564301 522.60602 -0.0102307 -0.43017501 0.90268803 1.9057659e-42
50.938099 27.756901 523.185 -0.0152129 -0.42213699 0.90640402 1.9057659e-42
49.514801 28.676001 523.79199 -0.0208814 -0.415591 0.90931201 1.9057659e-42
48.0224 29.5777 524.23901 -0.0264834 -0.40978399 0.911798 1.9057659e-42
46.655899 30.677999 524.64203 -0.030904301 -0.40317601 0.91460001 1.9057659e-42
45.124901 31.557699 524.99103 -0.0354219 -0.398646 0.916421 1.9057659e-42
43.9659 32.852901 525.46002 -0.037077699 -0.39147201 0.91944301 1.9057659e-42
42.522598 33.8536 525.854 -0.039216101 -0.38601199 0.92166001 1.9057659e-42
40.993599 34.7225 526.23798 -0.0413622 -0.380539 0.92383897 1.9057659e-42
39.820599 36.012501 526.685 -0.0432229 -0.370042 0.92800897 1.9057659e-42
38.633999 37.301399 527.09802 -0.045822099 -0.35878301 0.93229598 1.9057659e-42
37.411301 38.557301 527.50702 -0.048984699 -0.34715599 0.93652701 1.9057659e-42
36.2197 39.865299 527.83801 -0.0520388 -0.33470699 0.94088399 1.9057659e-42
35.049999 41.193199 528.16699 -0.054754298 -0.324893 0.94416499 1.9057659e-42
33.587101 42.178902 528.526 -0.0602054 -0.32302201 0.944475 1.9057659e-42
32.466499 43.5602 528.80103 -0.065630399 -0.317339 0.94603801 1.9057659e-42
31.055201 44.630699 529.12097 -0.073380597 -0.31021801 0.94782901 1.9057659e-42
29.5184 45.5397 529.34998 -0.0818583 -0.30153099 0.94993597 1.9057659e-42
28.2171 46.760899 529.58502 -0.090887599 -0.28998801 0.95270503 1.9057659e-42
26.8416 47.896599 529.82599 -0.10033 -0.27700299 0.95561701 1.9057659e-42
25.301901 48.818401 529.96503 -0.109127 -0.26352 0.958462 1.9057659e-42
23.5888 49.2799 529.66101 -0.115364 -0.25279999 0.96061599 1.9057659e-42
21.8613 48.793301 529.52301 -0.117892 -0.25077999 0.96083802 1.9057659e-42
20.903299 47.3358 529.078 -0.116373 -0.26370701 0.95755702 1.9057659e-42
19.254601 46.723099 528.69598 -0.122459 -0.26855901 0.95544702 1.9057659e-42
17.505699 47.130699 528.57202 -0.13125101 -0.26164699 0.95619798 1.9057659e-42
15.8953 46.481201 528.09802 -0.13834 -0.26991701 0.95289397 1.9057659e-42
14.6625 45.281799 527.56702 -0.143911 -0.28778201 0.94682199 1.9057659e-42
13.063 44.575298 527.14001 -0.15174501 -0.299784 0.94186199 1.9057659e-42
11.4603 43.9594 526.599 -0.15973701 -0.312006 0.93655598 1.9057659e-42
9.6894798 43.908798 526.28101 -0.16836999 -0.31426701 0.93428499 1.9057659e-42
7.99751 43.521198 525.80402 -0.17655399 -0.32309201 0.92975301 1.9057659e-42
6.342 43.047901 525.27899 -0.184383 -0.33391199 0.92439502 1.9057659e-42
4.6104798 43.086899 524.789 -0.192569 -0.33546799 0.92216003 1.9057659e-42
2.9476099 42.509998 524.41199 -0.199798 -0.34708801 0.91630298 1.9057659e-42
1.3163199 42.012699 523.836 -0.206688 -0.35867599 0.91029203 1.9057659e-42
-0.36750001 41.660198 523.30701 -0.213046 -0.36709401 0.90545702 1.9057659e-42
-2.0964799 41.5256 522.82501 -0.219767 -0.37062401 0.902408 1.9057659e-42
-3.7104101 42.157299 522.33899 -0.227332 -0.359806 0.90490901 1.9057659e-42
-5.5001602 42.248001 522.16998 -0.23470099 -0.356861 0.90419298 1.9057659e-42
-7.24196 42.119701 521.73401 -0.241771 -0.35911199 0.90143502 1.9057659e-42
-8.8545103 41.507801 521.21899 -0.24747901 -0.36919701 0.89579397 1.9057659e-42
-10.5869 41.575401 520.73499 -0.254951 -0.36684 0.89466703 1.9057659e-42
-12.2147 42.258301 520.383 -0.263183 -0.35633001 0.89652902 1.9057659e-42
-13.9371 42.548599 519.948 -0.27115899 -0.35164601 0.89600098 1.9057659e-42
-15.6707 42.3666 519.49902 -0.27844101 -0.35249999 0.89342803 1.9057659e-42
-17.3561 42.436001 518.87097 -0.28613499 -0.350624 0.891734 1.9057659e-42
-19.0226 42.0256 518.32898 -0.292402 -0.35163701 0.88929898 1.9057659e-42
-20.7377 42.125 517.79199 -0.29951999 -0.348272 0.88825399 1.9057659e-42
-22.427601 42.005699 517.18298 -0.30624601 -0.346668 0.88658601 1.9057659e-42
-24.136499 42.197498 516.65198 -0.31370699 -0.34319299 0.88532799 1.9057659e-42
-25.748699 42.801399 516.12598 -0.32161 -0.33706799 0.88484597 1.9057659e-42
-27.480499 42.914902 515.64899 -0.32910201 -0.33403799 0.88323802 1.9057659e-42
-29.125299 43.399601 515.10101 -0.33687001 -0.33178899 0.88115501 1.9057659e-42
-30.8242 43.175301 514.54999 -0.344035 -0.32853699 0.87960398 1.9057659e-42
-32.308998 44.044399 514.021 -0.35152301 -0.32963899 0.87622499 1.9057659e-42
-33.987202 43.944099 513.37799 -0.35916901 -0.32636401 0.87434798 1.9057659e-42
-35.696098 44.060101 512.82397 -0.367055 -0.32431 0.87183398 1.9057659e-42
-37.3097 43.947399 512.03497 -0.37196699 -0.31937501 0.87157398 1.9057659e-42
-38.446999 42.942001 511.06699 -0.372702 -0.32828999 0.86794001 1.9057659e-42
-39.214401 41.502499 510.30701 -0.37309301 -0.34177801 0.86254799 1.9057659e-42
-39.495998 39.8862 509.56601 -0.37280601 -0.35683501 0.85655397 1.9057659e-42
-40.010899 38.391701 508.70499 -0.37296301 -0.37106901 0.85041499 1.9057659e-42
-40.8955 37.2911 507.58899 -0.374329 -0.38261601 0.844679 1.9057659e-42
-41.504299 35.830601 506.73099 -0.37496501 -0.39365 0.83930999 1.9057659e-42
-42.185101 34.397598 505.88 -0.37601301 -0.40145999 0.83513099 1.9057659e-42
-42.6577 32.912102 504.98001 -0.376681 -0.409587 0.83087301 1.9057659e-42
-43.170898 31.499399 503.98999 -0.37767601 -0.41734499 0.82655001 1.9057659e-42
-44.306999 30.631599 502.896 -0.38109601 -0.42225301 0.82247698 1.9057659e-42
-44.967201 29.191601 502.04199 -0.38269699 -0.429443 0.81799901 1.9057659e-42
-45.3965 27.7628 501.034 -0.38446301 -0.43720499 0.81304401 1.9057659e-42
-45.7743 26.333099 500.008 -0.38692501 -0.44529101 0.807468 1.9057659e-42
-46.423801 24.979099 499.01599 -0.39048699 -0.453307 0.80126899 1.9057659e-42
-47.2924 23.873899 497.892 -0.39452201 -0.46095699 0.79490298 1.9057659e-42
-48.0704 22.6733 496.79901 -0.397728 -0.46891299 0.78862703 1.9057659e-42
-48.800301 21.4284 495.72299 -0.400655 -0.46984601 0.78658801 1.9057659e-42
-49.846199 20.4144 494.66599 -0.40365201 -0.46973801 0.785119 1.9057659e-42
-50.8153 19.4186 493.522 -0.40628099 -0.47063699 0.78322202 1.9057659e-42
-51.985298 18.576799 492.444 -0.40828499 -0.47283399 0.78085297 1.9057659e-42
-53.1078 17.805099 491.267 -0.40976599 -0.47602999 0.77812999 1.9057659e-42
-54.193699 16.8755 490.173 -0.41099399 -0.48027301 0.77486902 1.9057659e-42
-55.358799 16.194599 488.98199 -0.414226 -0.48526299 0.770024 1.9057659e-42
-56.488899 15.4183 487.81601 -0.420926 -0.48872799 0.76417601 1.9057659e-42
-57.538799 14.5474 486.64099 -0.42688099 -0.49222901 0.75860602 1.9057659e-42
-58.554001 13.7147 485.41 -0.43222401 -0.49578199 0.75324798 1.9057659e-42
-59.4673 12.5823 484.35001 -0.43699199 -0.49919501 0.74822599 1.9057659e-42
-60.528198 11.9594 483.03601 -0.44113299 -0.50273502 0.743411 1.9057659e-42
-61.222801 10.5671 482.13101 -0.44478801 -0.50576502 0.73916501 1.9057659e-42
-62.157101 9.6295404 480.91101 -0.44792601 -0.50940001 0.734761 1.9057659e-42
-62.890499 8.5293398 479.69 -0.450488 -0.51353699 0.73030102 1.9057659e-42
-64.093498 7.8935699 478.51099 -0.45221001 -0.51728803 0.72658002 1.9057659e-42
-65.092598 7.0506601 477.27399 -0.45355701 -0.52114099 0.72297901 1.9057659e-42
-66.305702 6.5708899 476.034 -0.45423299 -0.52437401 0.72021103 1.9057659e-42
-67.257896 5.58956 474.86301 -0.45465201 -0.52814603 0.71718401 1.9057659e-42
-68.408997 5.3246999 473.505 -0.454478 -0.53087801 0.71527499 1.9057659e-42
-69.026703 4.0598798 472.383 -0.45373899 -0.54040903 0.70857602 1.9057659e-42
-70.020302 3.3174 471.07901 -0.45270199 -0.552432 0.69991398 1.9057659e-42
-70.299103 1.91273 469.98801 -0.45339301 -0.57304502 0.68268198 1.9057659e-42
