# .PCD v0.7 - Point Cloud Data file format
# 3 158 0
# 1 92 0
# 93 116 0
# 117 158 0
VERSION 0.7
FIELDS x y z normal_x normal_y normal_z curvature
SIZE 4 4 4 4 4 4 4
TYPE F F F F F F F
COUNT 1 1 1 1 1 1 1
WIDTH 158
HEIGHT 1
VIEWPOINT 0 0 0 1 0 0 0
POINTS 158
DATA ascii
68.69629700 13.94200000 431.60999000 -0.63202602 0.71497399 -0.29892200 1.905766e-42
68.29019900 13.28520000 429.98401000 -0.64436603 0.70102900 -0.30553401 1.905766e-42
67.83029900 12.15190000 428.66299000 -0.65698701 0.68837798 -0.30741400 1.905766e-42
66.91500100 10.79630000 427.91199000 -0.67109799 0.67487502 -0.30687299 1.905766e-42
66.12400100 9.40791030 427.08301000 -0.67415100 0.68052202 -0.28707099 1.905766e-42
65.15640300 8.21870040 426.14001000 -0.66091400 0.70466501 -0.25814700 1.905766e-42
64.16190300 7.15710020 425.07999000 -0.64562500 0.72648197 -0.23535500 1.905766e-42
63.04090100 6.09194990 424.15900000 -0.62685800 0.74694198 -0.22164699 1.905766e-42
62.36920200 5.10029980 422.81500000 -0.61298299 0.76094300 -0.21264400 1.905766e-42
61.58560200 3.91543010 421.70901000 -0.60431701 0.76697701 -0.21574800 1.905766e-42
60.64260100 2.69993000 420.77499000 -0.59390098 0.77463698 -0.21729800 1.905766e-42
59.25700000 1.56494000 420.59601000 -0.58034098 0.78377998 -0.22111700 1.905766e-42
57.69920000 0.67051101 420.70999000 -0.56881499 0.79078102 -0.22608501 1.905766e-42
56.48090000 -0.43686199 419.98300000 -0.56109297 0.79729199 -0.22248700 1.905766e-42
54.91590100 -1.32592000 419.95999000 -0.53813201 0.81521100 -0.21411300 1.905766e-42
53.40359900 -2.26022010 419.67700000 -0.51081097 0.83561099 -0.20205300 1.905766e-42
52.01879900 -3.23060010 419.06000000 -0.48007599 0.85724401 -0.18617199 1.905766e-42
50.41490200 -4.04669000 419.02200000 -0.44702399 0.87734997 -0.17443000 1.905766e-42
48.79760000 -4.82216980 419.17401000 -0.41314900 0.89594698 -0.16305500 1.905766e-42
47.20900000 -5.64734980 418.98599000 -0.40121999 0.90044802 -0.16797300 1.905766e-42
44.68579900 -6.92308000 419.21600000 -0.38183501 0.90705597 -0.17734499 1.905766e-42
43.02489900 -7.61018990 419.31201000 -0.36759299 0.91188502 -0.18259700 1.905766e-42
41.34000000 -8.16903970 419.61099000 -0.35060200 0.91757500 -0.18743999 1.905766e-42
39.66070200 -8.69377990 419.99100000 -0.33042899 0.92411000 -0.19193099 1.905766e-42
37.95200000 -9.01097970 420.45999000 -0.29800701 0.93583697 -0.18814901 1.905766e-42
36.27000000 -9.64476970 420.36401000 -0.25576100 0.95068699 -0.17544299 1.905766e-42
34.53210100 -9.74707030 420.82199000 -0.21926600 0.96081603 -0.16957401 1.905766e-42
32.77280000 -10.04960000 421.05301000 -0.18146300 0.97052598 -0.15858901 1.905766e-42
31.04350100 -10.41220000 421.39600000 -0.14725900 0.97802699 -0.14757399 1.905766e-42
29.48959900 -10.44680000 422.30399000 -0.12573799 0.98102200 -0.14759700 1.905766e-42
27.91930000 -10.51930000 423.18100000 -0.10623300 0.98333699 -0.14752400 1.905766e-42
26.19039900 -10.65610000 423.66299000 -0.08314500 0.98679698 -0.13899399 1.905766e-42
24.63390000 -10.66200000 424.56699000 -0.07277340 0.98691702 -0.14387199 1.905766e-42
23.17330000 -10.62350000 425.61801000 -0.06715970 0.98585302 -0.15356900 1.905766e-42
21.38050100 -10.74310000 425.72400000 -0.05100920 0.98609298 -0.15817000 1.905766e-42
19.72620000 -10.66530000 426.42999000 -0.02888100 0.98527998 -0.16849200 1.905766e-42
18.14920000 -10.50320000 427.28201000 -0.00663128 0.98387402 -0.17873800 1.905766e-42
16.51289900 -10.30840000 428.00601000 0.01662750 0.98238403 -0.18613499 1.905766e-42
14.72010000 -10.32760000 428.16599000 0.04308710 0.98195499 -0.18414301 1.905766e-42
13.09350000 -10.05500000 428.88699000 0.06464750 0.97977501 -0.18937300 1.905766e-42
11.63830000 -9.71140960 429.89001000 0.08099290 0.97657698 -0.19934100 1.905766e-42
9.97185040 -9.46621040 430.52399000 0.10136900 0.97359198 -0.20455500 1.905766e-42
8.40703010 -9.07322980 431.32199000 0.12355200 0.96826798 -0.21723799 1.905766e-42
6.81546020 -8.66512010 432.05701000 0.14443800 0.96265697 -0.22897600 1.905766e-42
5.33300020 -8.23396970 432.98300000 0.16139500 0.95590401 -0.24535599 1.905766e-42
3.74606990 -7.76773020 433.69299000 0.17781700 0.94954002 -0.25836900 1.905766e-42
2.01614000 -7.44073010 434.06799000 0.19284099 0.94481498 -0.26483500 1.905766e-42
0.40613699 -6.99788000 434.73999000 0.20299800 0.93840301 -0.27962700 1.905766e-42
-1.05108000 -6.37336020 435.59201000 0.20942500 0.93028402 -0.30118600 1.905766e-42
-2.12659000 -5.53688000 436.76801000 0.21716000 0.91739303 -0.33351499 1.905766e-42
-3.84926010 -5.06678010 436.99500000 0.22607601 0.91024399 -0.34690699 1.905766e-42
-5.43739990 -4.47413020 437.60101000 0.23654000 0.89875501 -0.36917201 1.905766e-42
-6.80990980 -3.64433000 438.41800000 0.24935700 0.88395703 -0.39552599 1.905766e-42
-8.06538010 -2.77591990 439.37100000 0.26437101 0.86738402 -0.42160800 1.905766e-42
-9.61715030 -2.05975010 439.93600000 0.27983201 0.85225302 -0.44199401 1.905766e-42
-11.16380000 -1.35406010 440.52802000 0.29720101 0.83596897 -0.46133301 1.905766e-42
-12.32000000 -0.34260100 441.46600000 0.31584001 0.81875199 -0.47946900 1.905766e-42
-13.40320000 0.69594598 442.45999000 0.33094999 0.80548900 -0.49158901 1.905766e-42
-14.75040000 1.67444000 443.14401000 0.34801200 0.79258001 -0.50070399 1.905766e-42
-15.99530000 2.65091990 444.00201000 0.36644199 0.77995098 -0.50734299 1.905766e-42
-16.73790000 3.87001990 445.09900000 0.38178501 0.76923800 -0.51236099 1.905766e-42
-17.78100000 4.99125000 446.04501000 0.39900199 0.75784498 -0.51620603 1.905766e-42
-18.29400100 6.25732990 447.21701000 0.40874201 0.74789000 -0.52305901 1.905766e-42
-19.20949900 7.49474000 448.14999000 0.42158201 0.73567498 -0.53014302 1.905766e-42
-20.38620000 8.69349000 448.79700000 0.43575200 0.72337902 -0.53557700 1.905766e-42
-21.88209900 9.69124980 448.87799000 0.45601800 0.71341997 -0.53205198 1.905766e-42
-22.91169900 10.92910000 449.68301000 0.46454301 0.69644499 -0.54695898 1.905766e-42
-22.96270000 12.11050000 451.04001000 0.45405900 0.67082798 -0.58636200 1.905766e-42
-22.89740000 13.21740000 452.45801000 0.43541899 0.63601899 -0.63709497 1.905766e-42
-23.30839900 14.51890000 453.63199000 0.41776201 0.59456199 -0.68700099 1.905766e-42
-22.79780000 15.67380000 454.91400000 0.43212199 0.57986802 -0.69066900 1.905766e-42
-22.85619900 17.08960000 456.02399000 0.45080900 0.56920302 -0.68758899 1.905766e-42
-23.09720000 18.59050000 456.98801000 0.46941799 0.56075901 -0.68205303 1.905766e-42
-23.10450000 19.93790100 458.18201000 0.48788300 0.55872703 -0.67066699 1.905766e-42
-22.93510100 21.25180100 459.39999000 0.49818999 0.56766498 -0.65541101 1.905766e-42
-22.44400000 22.43630000 460.66400000 0.48871899 0.56324500 -0.66626501 1.905766e-42
-22.11350100 23.61230100 461.98599000 0.46980101 0.54558301 -0.69399297 1.905766e-42
-21.86910100 24.89290000 463.22699000 0.45299700 0.52442402 -0.72095299 1.905766e-42
-22.17860000 26.40550000 464.15201000 0.44205001 0.50375998 -0.74217099 1.905766e-42
-21.26230000 27.62130000 465.11200000 0.42400700 0.47904599 -0.76859099 1.905766e-42
-21.47870100 29.19870000 465.95200000 0.41883299 0.46083000 -0.78244102 1.905766e-42
-21.34170000 30.62610100 467.04001000 0.41751701 0.44570401 -0.79184997 1.905766e-42
-20.51540000 31.87159900 468.04300000 0.41583100 0.43123499 -0.80070001 1.905766e-42
-20.54140100 33.35089900 469.06799000 0.41567799 0.41312400 -0.81027198 1.905766e-42
-19.64870100 34.59940000 470.00900000 0.41539499 0.39606199 -0.81889099 1.905766e-42
-19.43730000 36.18190000 470.84000000 0.41411200 0.37185600 -0.83080298 1.905766e-42
-18.48189900 37.48500100 471.63300000 0.40609199 0.34562501 -0.84595102 1.905766e-42
-18.46769900 39.19250100 472.20200000 0.40188101 0.31816500 -0.85864002 1.905766e-42
-18.75480100 40.76210000 473.03500000 0.39950201 0.29329401 -0.86854899 1.905766e-42
-18.20150000 42.27399800 473.84000000 0.39489701 0.27182299 -0.87759298 1.905766e-42
-17.35790100 43.72040200 474.50101000 0.38941300 0.25623000 -0.88470501 1.905766e-42
-16.73290100 45.28390100 475.13699000 0.40740699 0.26439101 -0.87413800 1.905766e-42
-16.12210100 46.80799900 475.87500000 0.43197799 0.28603899 -0.85532302 1.905766e-42
-14.83260000 47.53229900 476.90100000 0.44687000 0.32259101 -0.83441103 1.905766e-42
-13.23700000 47.10670100 477.61700000 0.43840399 0.34789601 -0.82871598 1.905766e-42
-11.69100000 46.54340000 478.34698000 0.42394799 0.36859500 -0.82728797 1.905766e-42
-10.26040000 45.45690200 478.46100000 0.40129000 0.37127301 -0.83733100 1.905766e-42
-8.65773010 44.73880000 478.85501000 0.37422901 0.37576100 -0.84779501 1.905766e-42
-6.95634980 44.60049800 479.42599000 0.33583599 0.37135401 -0.86562699 1.905766e-42
-5.30947020 43.94150200 479.73199000 0.30348000 0.36540699 -0.87998700 1.905766e-42
-3.56591010 43.91270100 480.17801000 0.26660201 0.35574701 -0.89574999 1.905766e-42
-1.81072000 43.68610000 480.50699000 0.23251000 0.34372899 -0.90982997 1.905766e-42
-0.10476800 43.17210000 480.76300000 0.20403799 0.33117399 -0.92124498 1.905766e-42
1.65797000 43.05870100 481.10901000 0.17264400 0.31272301 -0.93402302 1.905766e-42
3.27892990 42.28139900 481.20001000 0.16711500 0.31821799 -0.93317199 1.905766e-42
5.01866010 41.94129900 481.51199000 0.18766700 0.37759501 -0.90675402 1.905766e-42
6.34539990 40.77450200 481.16800000 0.16031700 0.38099799 -0.91057098 1.905766e-42
8.10418030 40.67630000 481.53799000 0.17793900 0.43533301 -0.88251001 1.905766e-42
9.80949020 40.10250100 481.59000000 0.16975100 0.46339199 -0.86974299 1.905766e-42
11.50700000 39.50370000 481.59601000 0.15478200 0.48436701 -0.86106402 1.905766e-42
13.23380000 38.99729900 481.63699000 0.13504900 0.50250298 -0.85396302 1.905766e-42
14.97580000 38.83369800 482.06000000 0.11233300 0.52635503 -0.84281200 1.905766e-42
16.59740100 38.22060000 481.57599000 0.07482730 0.52169400 -0.84984499 1.905766e-42
18.36050000 37.85929900 481.54800000 0.02800820 0.52480501 -0.85076201 1.905766e-42
20.12949900 37.53749800 481.46201000 -0.02227430 0.52080101 -0.85338700 1.905766e-42
21.76790000 36.88919800 481.09399000 -0.06688700 0.50544399 -0.86026299 1.905766e-42
23.13279900 35.91130100 480.44601000 -0.09823430 0.48701200 -0.86785299 1.905766e-42
23.84970100 34.62749900 479.40701000 -0.10895500 0.47477600 -0.87333602 1.905766e-42
24.89209900 33.46749900 478.50900000 -0.12608200 0.46867201 -0.87432802 1.905766e-42
26.01740100 32.34320100 477.66599000 -0.14295700 0.46747500 -0.87237102 1.905766e-42
27.01740100 31.13540100 476.78201000 -0.15626100 0.47323799 -0.86696500 1.905766e-42
27.88130000 29.82620000 475.89899000 -0.16804200 0.48764700 -0.85671598 1.905766e-42
28.94059900 28.65959900 475.02899000 -0.18342200 0.50344598 -0.84433299 1.905766e-42
30.18899900 27.56279900 474.33801000 -0.20161700 0.51805300 -0.83124697 1.905766e-42
30.92939900 26.29290000 473.29901000 -0.20954800 0.54138201 -0.81424499 1.905766e-42
32.33260000 25.50120000 472.49600000 -0.23160601 0.55190903 -0.80109602 1.905766e-42
33.27970100 24.42709900 471.40601000 -0.24472199 0.56966400 -0.78459799 1.905766e-42
34.41260100 23.50289900 470.35599000 -0.26250899 0.58160698 -0.76994997 1.905766e-42
35.66460000 22.62109900 469.41000000 -0.27988300 0.58763498 -0.75917798 1.905766e-42
35.94279900 21.63270000 467.93100000 -0.28173101 0.59495300 -0.75276703 1.905766e-42
37.00159800 20.74210000 466.78000000 -0.29701400 0.59407699 -0.74756700 1.905766e-42
37.99549900 19.72030100 465.68100000 -0.31212300 0.59223402 -0.74285799 1.905766e-42
39.04690200 18.70579900 464.62900000 -0.32660401 0.59333801 -0.73571700 1.905766e-42
40.05590100 17.79060000 463.45300000 -0.34038401 0.59697402 -0.72647202 1.905766e-42
40.90679900 16.76240000 462.24500000 -0.35109499 0.60427600 -0.71525002 1.905766e-42
42.42710100 16.35880100 461.37000000 -0.37081400 0.60481101 -0.70477003 1.905766e-42
43.34330000 15.64130000 459.99701000 -0.38192299 0.61290801 -0.69172102 1.905766e-42
44.68030200 15.22970000 458.86401000 -0.39624101 0.61720401 -0.67974401 1.905766e-42
45.89080000 14.78500000 457.60800000 -0.40811101 0.62445700 -0.66595697 1.905766e-42
46.87210100 14.27230000 456.18900000 -0.41744599 0.63525301 -0.64976299 1.905766e-42
48.17990100 13.95110000 454.99500000 -0.42810100 0.64332199 -0.63471699 1.905766e-42
49.72169900 13.81800000 454.07501000 -0.43774199 0.64925200 -0.62197602 1.905766e-42
50.71170000 13.24330000 452.68600000 -0.44496799 0.66255599 -0.60251403 1.905766e-42
51.65919900 12.71360000 451.25000000 -0.45247000 0.67520702 -0.58255202 1.905766e-42
52.91690100 12.33550000 450.01901000 -0.46588999 0.68649900 -0.55827099 1.905766e-42
54.04690200 11.96790000 448.66699000 -0.48066500 0.69607002 -0.53333700 1.905766e-42
54.98970000 11.57700000 447.18500000 -0.49675199 0.70269197 -0.50937301 1.905766e-42
56.30970000 11.50600000 445.96301000 -0.51155001 0.70849901 -0.48615399 1.905766e-42
57.51079900 11.48420000 444.62299000 -0.52719599 0.71264398 -0.46282101 1.905766e-42
58.86629900 11.57270000 443.44101000 -0.54136997 0.71706498 -0.43901700 1.905766e-42
60.10829900 11.65850000 442.14099000 -0.55689102 0.71937001 -0.41518599 1.905766e-42
60.98560000 11.62090000 440.57001000 -0.57557797 0.71520001 -0.39648199 1.905766e-42
62.61460100 12.05260000 439.93799000 -0.57662201 0.72627801 -0.37420201 1.905766e-42
63.09380000 12.19030000 438.20801000 -0.59279299 0.71826202 -0.36427501 1.905766e-42
64.06250000 12.36530000 436.70099000 -0.60427099 0.71523899 -0.35112599 1.905766e-42
65.35630000 12.88910000 435.56500000 -0.60781503 0.72068900 -0.33341900 1.905766e-42
66.66459700 13.34130000 434.41400000 -0.61235303 0.72406000 -0.31742901 1.905766e-42
67.37100200 13.60010000 432.77899000 -0.62426800 0.71686202 -0.31048200 1.905766e-42
