# .PCD v0.7 - Point Cloud Data file format
# 2 102 1
# 1 67 1
# 68 102 0
VERSION 0.7
FIELDS x y z normal_x normal_y normal_z curvature
SIZE 4 4 4 4 4 4 4
TYPE F F F F F F F
COUNT 1 1 1 1 1 1 1
WIDTH 102
HEIGHT 1
VIEWPOINT 0 0 0 1 0 0 0
POINTS 102
DATA ascii
9.98657040 -15.96360000 429.55099000 -0.59484500 0.27377999 0.75577998 1.905766e-42
11.32780000 -15.91360000 430.75000000 -0.70488501 0.29542199 0.64487398 1.905766e-42
12.55440000 -15.71180000 432.05200000 -0.82747799 0.31300899 0.46616000 1.905766e-42
13.43110000 -15.10710000 433.50299000 -0.90274900 0.32613900 0.28049600 1.905766e-42
13.79370000 -14.95820000 435.26001000 -0.92495501 0.34264001 0.16448700 1.905766e-42
14.39900000 -14.22680000 436.78900000 -0.91800201 0.38378200 0.09992120 1.905766e-42
15.07830000 -12.56000000 436.78101000 -0.88747799 0.45017001 0.09863870 1.905766e-42
15.89770000 -10.95730000 436.79300000 -0.85344702 0.51347798 0.08926830 1.905766e-42
16.98450100 -9.52258010 436.77499000 -0.81399000 0.57589698 0.07591590 1.905766e-42
18.09440000 -8.16415980 436.37100000 -0.74882603 0.65722001 0.08556620 1.905766e-42
19.27860100 -6.86194990 435.99399000 -0.67061198 0.73721701 0.08240810 1.905766e-42
20.72570000 -5.79158020 435.99100000 -0.59003198 0.80552399 0.05471220 1.905766e-42
22.25160000 -4.84091000 435.90100000 -0.51479399 0.85715199 0.01665050 1.905766e-42
23.83060100 -4.00156020 435.69601000 -0.41663900 0.90905797 0.00513920 1.905766e-42
25.32259900 -3.13015010 435.19101000 -0.33109200 0.94250298 0.04544210 1.905766e-42
27.03760000 -2.58365990 435.17899000 -0.23698300 0.96944898 0.06330150 1.905766e-42
28.79950000 -2.21654010 435.14899000 -0.20337000 0.97714198 0.06192450 1.905766e-42
29.55839900 -1.72736000 433.59201000 -0.18629700 0.97138900 0.14729699 1.905766e-42
29.91890000 -1.76714000 431.82901000 -0.16364600 0.95290798 0.25531700 1.905766e-42
29.50160000 -1.14371000 430.19199000 -0.13168100 0.91120601 0.39033899 1.905766e-42
30.51269900 -0.66100299 428.78400000 -0.08970750 0.87735200 0.47138700 1.905766e-42
31.83390000 0.00887804 427.76099000 -0.05784980 0.86222899 0.50320500 1.905766e-42
32.82030100 1.08455000 426.70700000 -0.02713130 0.83395100 0.55117100 1.905766e-42
33.67850100 2.11081000 425.50299000 0.00300274 0.79941201 0.60077602 1.905766e-42
35.22860000 2.56767010 424.70999000 0.02721470 0.79107302 0.61111701 1.905766e-42
36.21340200 3.56147000 423.57800000 0.06976980 0.75854897 0.64787000 1.905766e-42
36.93909800 4.61466980 422.31100000 0.11701200 0.75006300 0.65093303 1.905766e-42
38.50230000 4.86981010 421.45599000 0.14572400 0.76306999 0.62967402 1.905766e-42
40.18590200 4.98073010 420.82901000 0.17106199 0.77537501 0.60789001 1.905766e-42
41.06969800 5.88273000 419.54599000 0.20505799 0.76374298 0.61208498 1.905766e-42
41.86520000 6.77190020 418.19901000 0.23224600 0.75093102 0.61819398 1.905766e-42
42.57720200 7.72228000 416.84601000 0.25217599 0.73820901 0.62566298 1.905766e-42
42.89350100 8.83343980 415.46600000 0.26446801 0.74336898 0.61437702 1.905766e-42
44.28220000 8.98610970 414.33099000 0.29318601 0.74214602 0.60271102 1.905766e-42
44.33459900 10.26210000 413.06201000 0.29021099 0.75131202 0.59271097 1.905766e-42
44.80220000 11.20950000 411.60501000 0.28919801 0.76106298 0.58064502 1.905766e-42
43.83169900 12.32080000 410.57401000 0.26567200 0.78182697 0.56406099 1.905766e-42
43.15090200 13.38700000 409.29300000 0.24571399 0.79957402 0.54800200 1.905766e-42
42.99140200 14.41200000 407.82199000 0.23612000 0.81177700 0.53410298 1.905766e-42
42.97110000 15.36770000 406.29700000 0.23142099 0.82227403 0.51991302 1.905766e-42
43.18909800 16.26989900 404.75500000 0.23077600 0.83152199 0.50528699 1.905766e-42
43.12680100 17.17480100 403.20001000 0.23021100 0.84077799 0.48999599 1.905766e-42
43.07640100 18.02790100 401.61600000 0.23156700 0.84792399 0.47686601 1.905766e-42
42.65940100 18.99440000 400.15601000 0.22670700 0.85649800 0.46369800 1.905766e-42
42.16519900 20.02570000 398.76599000 0.21091700 0.86845398 0.44866699 1.905766e-42
41.63790100 20.89679900 397.28101000 0.19787700 0.87945801 0.43289500 1.905766e-42
41.43090100 21.63990000 395.65500000 0.19464201 0.88827002 0.41604301 1.905766e-42
40.80640000 22.46400100 394.18201000 0.18790200 0.89605302 0.40222001 1.905766e-42
40.56110000 23.10740100 392.51901000 0.18634200 0.90356898 0.38579801 1.905766e-42
39.86729800 23.88559900 391.05099000 0.16769201 0.91554099 0.36560100 1.905766e-42
39.07980000 24.59880100 389.59799000 0.14371100 0.92934698 0.34009001 1.905766e-42
38.29499800 25.15420000 388.07700000 0.11985500 0.94293898 0.31064501 1.905766e-42
37.19490100 25.77980000 386.79700000 0.09401640 0.95559299 0.27929100 1.905766e-42
36.03870000 26.14679900 385.46701000 0.06657590 0.96712202 0.24544300 1.905766e-42
35.03580100 26.34350000 383.98499000 0.04442430 0.97650403 0.21087199 1.905766e-42
32.84690100 26.70960000 383.95499000 0.01943860 0.97979897 0.19904000 1.905766e-42
31.04789900 26.68779900 383.89801000 -0.01867600 0.98208302 0.18752301 1.905766e-42
29.30060000 26.38180000 383.59201000 -0.05736350 0.98359501 0.17102601 1.905766e-42
27.50919900 26.34760100 383.76401000 -0.08839070 0.98245901 0.16419800 1.905766e-42
25.72440000 26.28389900 383.98901000 -0.10490300 0.98052502 0.16602901 1.905766e-42
23.94759900 25.99620100 384.00101000 -0.12749501 0.97779000 0.16635001 1.905766e-42
22.19650100 25.57980000 384.01099000 -0.15226600 0.97379899 0.16891100 1.905766e-42
20.55810000 25.59180100 384.75601000 -0.17754699 0.96662003 0.18472400 1.905766e-42
18.80970000 25.16560000 384.79501000 -0.21151400 0.95913303 0.18795200 1.905766e-42
17.08330000 24.65600000 384.79401000 -0.25527301 0.94874400 0.18633600 1.905766e-42
15.36480000 24.12389900 384.85501000 -0.28628099 0.93914402 0.18987399 1.905766e-42
13.67460000 23.54600000 385.07700000 -0.30903700 0.92941099 0.20172299 1.905766e-42
12.21150000 22.96110000 385.94699000 -0.32956901 0.91624099 0.22778501 1.905766e-42
12.53380000 22.59510000 387.67999000 -0.33296099 0.90215200 0.27433300 1.905766e-42
12.74430000 22.10640000 389.39899000 -0.33516699 0.88773799 0.31557000 1.905766e-42
12.77920000 21.50320100 391.09500000 -0.33812299 0.87304002 0.35138899 1.905766e-42
12.82840000 20.81469900 392.75699000 -0.34029999 0.85875499 0.38306201 1.905766e-42
13.04060000 20.13139900 394.40900000 -0.33957899 0.84592199 0.41122001 1.905766e-42
13.53100000 19.51560000 396.02802000 -0.33120701 0.83947802 0.43078801 1.905766e-42
13.57930000 18.65720000 397.60901000 -0.33324701 0.83129102 0.44486201 1.905766e-42
13.52930000 17.81520100 399.19901000 -0.33912101 0.82216501 0.45721099 1.905766e-42
12.80240000 16.70470000 400.41501000 -0.35962299 0.80766702 0.46727499 1.905766e-42
12.98210000 15.82890000 401.97699000 -0.36109799 0.79984999 0.47942501 1.905766e-42
13.60850000 15.22810000 403.55399000 -0.35064101 0.79674703 0.49218300 1.905766e-42
14.08740000 14.45620000 405.10800000 -0.34214500 0.79188401 0.50582302 1.905766e-42
13.68870000 13.34230000 406.46500000 -0.35318899 0.77994901 0.51665902 1.905766e-42
12.86930000 12.19870000 407.58701000 -0.37419200 0.76531202 0.52371502 1.905766e-42
11.87700000 10.96990000 408.45099000 -0.40104601 0.74890703 0.52754200 1.905766e-42
11.79650000 10.06880000 410.00699000 -0.40228200 0.73947603 0.53976399 1.905766e-42
11.79810000 9.00049020 411.45599000 -0.40469801 0.72416401 0.55839598 1.905766e-42
11.10950000 7.71338990 412.50900000 -0.42729199 0.70157301 0.57027900 1.905766e-42
10.80310000 6.43413020 413.73801000 -0.43972901 0.68102700 0.58552599 1.905766e-42
10.61240000 5.19971990 415.03400000 -0.44836801 0.66115302 0.60153401 1.905766e-42
10.14720000 3.83222010 416.10800000 -0.46612400 0.63745898 0.61349398 1.905766e-42
10.17300000 2.59586000 417.41599000 -0.46909001 0.62010098 0.62883198 1.905766e-42
10.03690000 1.28297000 418.63901000 -0.47705200 0.60062701 0.64161402 1.905766e-42
9.59451010 -0.18309200 419.58499000 -0.49518099 0.57707298 0.64944798 1.905766e-42
9.59164050 -1.50867000 420.80301000 -0.50099099 0.55914599 0.66057903 1.905766e-42
9.26202010 -3.06603000 421.64301000 -0.51911902 0.53485101 0.66667098 1.905766e-42
9.43290040 -4.39277980 422.84799000 -0.52261603 0.51137698 0.68217701 1.905766e-42
9.08220010 -5.96502020 423.65100000 -0.53854001 0.47887501 0.69329101 1.905766e-42
9.32341960 -7.26882980 424.86801000 -0.53448701 0.45307100 0.71347702 1.905766e-42
8.76817040 -8.90779970 425.36401000 -0.55214399 0.41805401 0.72136497 1.905766e-42
8.77591990 -10.44170000 426.30600000 -0.55060297 0.38441899 0.74098498 1.905766e-42
8.32734010 -12.15730000 426.61499000 -0.57860601 0.32484901 0.74812299 1.905766e-42
8.47558980 -13.72690000 427.48401000 -0.58795398 0.28417701 0.75733298 1.905766e-42
8.82627960 -15.25190000 428.37299000 -0.59843397 0.25613201 0.75912702 1.905766e-42
