# .PCD v0.7 - Point Cloud Data file format
# 4 189 0
# 1 80 0
# 81 96 0
# 97 174 0
# 175 189 0
VERSION 0.7
FIELDS x y z normal_x normal_y normal_z curvature
SIZE 4 4 4 4 4 4 4
TYPE F F F F F F F
COUNT 1 1 1 1 1 1 1
WIDTH 189
HEIGHT 1
VIEWPOINT 0 0 0 1 0 0 0
POINTS 189
DATA ascii
85.17209600 1.55732000 453.19101000 -0.01604090 0.87512797 -0.48362601 1.905766e-42
83.45189700 1.35088000 452.70300000 -0.01132450 0.88008398 -0.47468299 1.905766e-42
81.87270400 0.86942297 451.98599000 -0.00644857 0.88704699 -0.46163401 1.905766e-42
80.07630200 0.98174101 451.96799000 -0.00281371 0.88806802 -0.45970401 1.905766e-42
78.29000100 0.76880199 451.90799000 0.00147972 0.88972300 -0.45649800 1.905766e-42
76.71180000 0.34808701 451.15100000 0.00537502 0.89622998 -0.44355601 1.905766e-42
74.91790000 0.47179300 451.06799000 0.00994764 0.89587301 -0.44420001 1.905766e-42
73.51380200 -0.04150260 450.06601000 0.01264860 0.90101600 -0.43360001 1.905766e-42
71.78209700 -0.12963200 449.58301000 0.01645200 0.90202898 -0.43136099 1.905766e-42
70.00689700 -0.38923699 449.43701000 0.02094480 0.90142602 -0.43242601 1.905766e-42
68.41700000 -0.82932699 448.71701000 0.02280960 0.90355200 -0.42787099 1.905766e-42
66.68299900 -0.91772801 448.24200000 0.02570320 0.90409201 -0.42656401 1.905766e-42
65.32420300 -1.23055010 447.10400000 0.02677270 0.90881699 -0.41633600 1.905766e-42
63.75310100 -1.32894000 446.23099000 0.02947260 0.91210097 -0.40890500 1.905766e-42
62.11489900 -1.42850010 445.49100000 0.03288150 0.91510701 -0.40186799 1.905766e-42
60.52080200 -1.83563010 444.76099000 0.03649550 0.91906798 -0.39240599 1.905766e-42
58.86690100 -2.23306990 444.17200000 0.04065250 0.92261702 -0.38356900 1.905766e-42
57.52010000 -2.85608010 443.15399000 0.04443490 0.92936403 -0.36648101 1.905766e-42
55.95480000 -3.20261000 442.33499000 0.04861370 0.93422300 -0.35336199 1.905766e-42
54.29550200 -3.20664000 441.63800000 0.05300220 0.93717301 -0.34481600 1.905766e-42
52.97720000 -3.53591990 440.45700000 0.05540890 0.94219601 -0.33044899 1.905766e-42
51.34199900 -3.48506000 439.70599000 0.05754040 0.94391900 -0.32512599 1.905766e-42
49.71120100 -3.48788000 438.94501000 0.05974730 0.94541597 -0.32034099 1.905766e-42
48.26219900 -3.70964000 437.89999000 0.06147620 0.94781601 -0.31283501 1.905766e-42
46.94640000 -4.04427000 436.71799000 0.06332530 0.95045602 -0.30434200 1.905766e-42
45.32780100 -4.17634010 435.94199000 0.06714460 0.95308000 -0.29517800 1.905766e-42
43.72700100 -4.34475990 435.13599000 0.07048450 0.95939499 -0.27311701 1.905766e-42
42.14759800 -4.59513000 434.31000000 0.07458280 0.96531999 -0.25018999 1.905766e-42
40.58260000 -4.84992980 433.45801000 0.07913340 0.97043198 -0.22803301 1.905766e-42
39.04349900 -4.92756990 432.52802000 0.08369590 0.97469401 -0.20728201 1.905766e-42
37.49169900 -4.90815020 431.61600000 0.08803230 0.97775298 -0.19039500 1.905766e-42
35.86959800 -4.78345010 430.84500000 0.08614860 0.97989202 -0.17997199 1.905766e-42
34.36470000 -4.85086010 429.85999000 0.08002780 0.98261100 -0.16754299 1.905766e-42
32.70290000 -4.66647010 429.19400000 0.07462370 0.98385900 -0.16264001 1.905766e-42
31.11780000 -4.80373000 428.35199000 0.06929570 0.98538601 -0.15560301 1.905766e-42
29.37089900 -4.77393010 427.91901000 0.06485550 0.98587799 -0.15439600 1.905766e-42
27.72670000 -4.80232000 427.18701000 0.06040230 0.98685199 -0.14991300 1.905766e-42
27.69070100 -4.75878000 427.23099000 0.06039930 0.98677403 -0.15042900 1.905766e-42
25.93339900 -4.80919980 426.84399000 0.05647540 0.98721200 -0.14907400 1.905766e-42
24.18770000 -4.58634000 427.22198000 0.05305270 0.98669302 -0.15369700 1.905766e-42
22.39399900 -4.63082980 427.36600000 0.04899230 0.98667097 -0.15517700 1.905766e-42
20.73410000 -4.30702020 427.98199000 0.04482540 0.98602003 -0.16048300 1.905766e-42
18.93450000 -4.34187980 427.99701000 0.04542320 0.98607802 -0.15995800 1.905766e-42
17.14010000 -4.20292000 428.02200000 0.04827100 0.98575097 -0.16113800 1.905766e-42
15.35980000 -3.98909000 428.17999000 0.05200810 0.98497403 -0.16468699 1.905766e-42
13.68440000 -3.64383010 428.73999000 0.05702100 0.98350102 -0.17168200 1.905766e-42
11.88620000 -3.57351990 428.78101000 0.06199890 0.98255098 -0.17535400 1.905766e-42
10.08660000 -3.60849000 428.78699000 0.06722780 0.98148698 -0.17934300 1.905766e-42
8.28658960 -3.60440990 428.79501000 0.07279410 0.98024303 -0.18391401 1.905766e-42
6.49119000 -3.47589990 428.79999000 0.07870610 0.97883701 -0.18890101 1.905766e-42
4.71176000 -3.30381990 429.01001000 0.08541290 0.97736800 -0.19353700 1.905766e-42
3.12387990 -2.68587990 429.59000000 0.09260050 0.97650898 -0.19456300 1.905766e-42
1.32522000 -2.61643000 429.58801000 0.08177970 0.97661901 -0.19881500 1.905766e-42
-0.47412500 -2.57201000 429.56900000 0.06914670 0.97693598 -0.20202599 1.905766e-42
-2.27327990 -2.51759000 429.56100000 0.05599510 0.97736901 -0.20399600 1.905766e-42
-4.06762980 -2.41252990 429.46500000 0.04235510 0.97756702 -0.20632300 1.905766e-42
-5.83170990 -2.43148990 429.10699000 0.02848020 0.97653198 -0.21348301 1.905766e-42
-7.62720010 -2.41500000 429.23401000 0.01426470 0.97718698 -0.21190000 1.905766e-42
-9.42681030 -2.44408990 429.20999000 -0.00042710 0.97705901 -0.21296801 1.905766e-42
-11.22360000 -2.41500000 429.31400000 -0.01540080 0.97741902 -0.21074700 1.905766e-42
-13.01970000 -2.43626000 429.42999000 -0.03066600 0.97760701 -0.20819300 1.905766e-42
-14.80200000 -2.45983000 429.68100000 -0.05851580 0.97716999 -0.20424201 1.905766e-42
-16.54910100 -2.44314000 430.11301000 -0.08804750 0.97718197 -0.19329400 1.905766e-42
-18.28500000 -2.48739000 430.58701000 -0.11813200 0.97630501 -0.18131000 1.905766e-42
-19.97060000 -2.59347010 431.20999000 -0.14807300 0.96999902 -0.19281299 1.905766e-42
-21.72130000 -3.00696990 431.27301000 -0.18135600 0.96409303 -0.19399799 1.905766e-42
-23.37719900 -3.23235010 431.94199000 -0.21235199 0.95558900 -0.20434400 1.905766e-42
-24.95089900 -3.36537000 432.80499000 -0.24166000 0.94588000 -0.21658900 1.905766e-42
-26.61920000 -3.68994000 433.39801000 -0.27376300 0.93547601 -0.22346701 1.905766e-42
-28.08510000 -3.73288010 434.44199000 -0.30060300 0.92424703 -0.23538400 1.905766e-42
-29.54730000 -4.09774020 435.42599000 -0.32907900 0.91228902 -0.24379300 1.905766e-42
-30.97020000 -4.41438010 436.48199000 -0.34848401 0.90350002 -0.24949200 1.905766e-42
-32.27100000 -4.40747020 437.72601000 -0.35694200 0.89850497 -0.25550300 1.905766e-42
-33.30070100 -4.35087010 439.20200000 -0.36427799 0.88720101 -0.28315300 1.905766e-42
-34.90420200 -4.96423010 439.74301000 -0.36877599 0.88430798 -0.28636399 1.905766e-42
-36.20190000 -5.22557020 440.96201000 -0.37325501 0.87446803 -0.30981600 1.905766e-42
-37.49280200 -5.30044980 442.21500000 -0.37648401 0.86335999 -0.33595899 1.905766e-42
-38.93080100 -5.49408010 443.28000000 -0.37880501 0.85385400 -0.35698700 1.905766e-42
-40.43980000 -5.57635020 444.25699000 -0.38042900 0.84433699 -0.37731799 1.905766e-42
-41.85979800 -5.66538000 445.35999000 -0.38134101 0.83341599 -0.39999601 1.905766e-42
-42.87850200 -5.48016980 446.83200000 -0.38107601 0.81822401 -0.43045399 1.905766e-42
-42.86230100 -4.59664010 448.40100000 -0.37890199 0.79923201 -0.46654099 1.905766e-42
-43.29200000 -3.84940000 449.98099000 -0.37696800 0.77985901 -0.49971500 1.905766e-42
-43.70449800 -3.22367000 451.61700000 -0.37509501 0.76045299 -0.53010798 1.905766e-42
-43.94940200 -2.30870010 453.14801000 -0.37305599 0.73968297 -0.56008798 1.905766e-42
-44.27090100 -1.15731000 454.49399000 -0.37153399 0.71759599 -0.58908302 1.905766e-42
-44.84320100 -0.39241099 456.01901000 -0.37169200 0.69539702 -0.61503500 1.905766e-42
-45.33319900 0.76179898 457.31100000 -0.37257099 0.67164600 -0.64037597 1.905766e-42
-45.78480100 1.87675000 458.64999000 -0.37270099 0.64060599 -0.67135501 1.905766e-42
-46.49480100 2.87257000 459.97000000 -0.37259799 0.60934502 -0.69990599 1.905766e-42
-47.10400000 3.99236010 461.24100000 -0.37080601 0.57637697 -0.72821200 1.905766e-42
-47.72660100 5.15800000 462.46301000 -0.36747500 0.54254103 -0.75538802 1.905766e-42
-48.08589900 6.58823010 463.49500000 -0.36300901 0.51409602 -0.77712899 1.905766e-42
-48.75719800 7.84766010 464.59201000 -0.36112100 0.48638499 -0.79562598 1.905766e-42
-49.29380000 9.26795960 465.55899000 -0.35867101 0.45525801 -0.81492001 1.905766e-42
-50.23560000 10.45890000 466.52600000 -0.35797599 0.42282701 -0.83250803 1.905766e-42
-50.31060000 11.98480000 467.47800000 -0.35780999 0.39983600 -0.84386200 1.905766e-42
-49.07120100 13.28950000 467.51901000 -0.35207900 0.38724399 -0.85210401 1.905766e-42
-47.76660200 14.52690000 467.43600000 -0.34413600 0.37394401 -0.86124098 1.905766e-42
-46.60229900 15.89370000 467.56299000 -0.33721501 0.35856199 -0.87047100 1.905766e-42
-45.57849900 17.32080100 467.95599000 -0.33226600 0.34253401 -0.87878901 1.905766e-42
-44.21210100 18.49239900 467.98001000 -0.31548500 0.32815701 -0.89038301 1.905766e-42
-42.91410100 19.73740000 468.05200000 -0.29670501 0.31625301 -0.90108299 1.905766e-42
-41.80929900 21.14270000 468.26300000 -0.27622801 0.30574599 -0.91116297 1.905766e-42
-40.40000200 22.19969900 467.89401000 -0.25259799 0.31068099 -0.91633600 1.905766e-42
-38.70999900 22.37680100 467.29999000 -0.23748100 0.32929599 -0.91387498 1.905766e-42
-36.94020100 22.32440000 466.97601000 -0.22427399 0.34849200 -0.91008502 1.905766e-42
-35.36309800 21.76170000 466.31601000 -0.21808100 0.36770001 -0.90401202 1.905766e-42
-33.70600100 21.27529900 465.80801000 -0.20094700 0.38959700 -0.89879602 1.905766e-42
-32.16529800 20.67960000 465.09299000 -0.18314500 0.41150400 -0.89281702 1.905766e-42
-30.42840000 20.38180000 464.72601000 -0.15848900 0.43298301 -0.88735998 1.905766e-42
-28.66340100 20.09190000 464.52399000 -0.13320000 0.45312399 -0.88143998 1.905766e-42
-27.00149900 19.66470000 463.98099000 -0.11206900 0.47258499 -0.87413001 1.905766e-42
-25.20229900 19.69669900 463.93900000 -0.08281810 0.48945200 -0.86808801 1.905766e-42
-23.40900000 19.61660000 463.80600000 -0.05526040 0.50571698 -0.86092800 1.905766e-42
-21.76269900 19.28060000 463.16000000 -0.03441840 0.52251101 -0.85193801 1.905766e-42
-19.96950000 19.18689900 463.03500000 -0.00751571 0.53706902 -0.84350502 1.905766e-42
-18.17000000 19.18740100 462.99399000 0.02002880 0.55031103 -0.83472002 1.905766e-42
-16.37050100 19.15150100 463.01700000 0.03891770 0.56094700 -0.82693702 1.905766e-42
-14.57310000 19.10400000 463.10199000 0.04908220 0.56881398 -0.82099998 1.905766e-42
-12.77800000 19.03370100 463.21301000 0.05958070 0.57590503 -0.81534201 1.905766e-42
-11.06760000 19.08620100 463.77200000 0.07159190 0.57780701 -0.81302798 1.905766e-42
-9.27999020 18.87630100 463.75299000 0.08178220 0.58538800 -0.80661798 1.905766e-42
-7.55623010 18.53230100 463.36499000 0.09075880 0.59581703 -0.79797500 1.905766e-42
-5.90899990 18.95130000 463.95801000 0.10367200 0.59129101 -0.79976702 1.905766e-42
-4.12633990 18.70240000 463.94400000 0.11474900 0.59684098 -0.79411203 1.905766e-42
-2.35794000 18.37579900 463.86600000 0.12593600 0.60287303 -0.78783500 1.905766e-42
-0.59106398 18.42350000 464.20700000 0.13846900 0.60117799 -0.78702700 1.905766e-42
1.09291010 18.66920100 464.79300000 0.14080800 0.59398901 -0.79205400 1.905766e-42
2.85860990 18.36680000 464.96899000 0.13605399 0.59612203 -0.79128301 1.905766e-42
4.63106010 18.39240100 465.28101000 0.13130701 0.59412402 -0.79358399 1.905766e-42
6.42365980 18.39620000 465.44400000 0.12656200 0.59427702 -0.79424000 1.905766e-42
8.21757980 18.41330000 465.59100000 0.12187900 0.59507602 -0.79437399 1.905766e-42
9.78316970 18.78130000 466.39999000 0.11914600 0.58636498 -0.80123699 1.905766e-42
11.57300000 18.59000000 466.40201000 0.11436900 0.59220999 -0.79762602 1.905766e-42
13.34680000 18.48710100 466.69000000 0.11020100 0.59530401 -0.79590797 1.905766e-42
15.04110000 18.81710100 467.20001000 0.10816300 0.58921897 -0.80070102 1.905766e-42
16.83610000 18.70879900 467.27899000 0.10404100 0.59609002 -0.79614902 1.905766e-42
18.62590000 18.66729900 467.46500000 0.10428600 0.60062897 -0.79269701 1.905766e-42
20.30579900 18.99370000 468.02301000 0.10765300 0.59450901 -0.79685003 1.905766e-42
22.09460100 18.79620000 468.05899000 0.10795600 0.60262501 -0.79068899 1.905766e-42
23.72130000 19.09550100 468.76901000 0.11120000 0.59688598 -0.79458201 1.905766e-42
25.52090100 19.07390000 468.79800000 0.11190900 0.60202199 -0.79059798 1.905766e-42
27.31970000 19.00740100 468.80200000 0.11244200 0.60755199 -0.78627998 1.905766e-42
29.10520000 18.78120000 468.82800000 0.11264900 0.61431801 -0.78097600 1.905766e-42
30.88170100 18.60390100 469.05801000 0.11340300 0.61842197 -0.77762097 1.905766e-42
32.58260000 18.76100000 469.62601000 0.11541900 0.61627197 -0.77903003 1.905766e-42
34.34090000 18.38400100 469.70401000 0.11545300 0.62275302 -0.77385402 1.905766e-42
36.13790100 18.37920000 469.80801000 0.11373100 0.62574297 -0.77169299 1.905766e-42
37.93220100 18.39399900 469.95099000 0.11168100 0.62856603 -0.76969701 1.905766e-42
39.72050100 18.43190000 470.15201000 0.10975900 0.63110900 -0.76788998 1.905766e-42
41.49940100 18.52310000 470.41101000 0.10806100 0.63328499 -0.76633698 1.905766e-42
43.28990200 18.38820100 470.53799000 0.10552900 0.63788003 -0.76287198 1.905766e-42
45.06940100 18.34110100 470.80499000 0.10344300 0.64134997 -0.76024300 1.905766e-42
46.84310200 18.15399900 471.04700000 0.10091700 0.64586103 -0.75675601 1.905766e-42
48.61759900 17.88590000 471.18701000 0.09791370 0.65129697 -0.75247997 1.905766e-42
50.38250000 17.53230100 471.18201000 0.09433090 0.65780699 -0.74725598 1.905766e-42
52.16880000 17.57140000 471.39999000 0.09179580 0.66134399 -0.74444401 1.905766e-42
53.94789900 17.72200000 471.62900000 0.08885570 0.66442901 -0.74204999 1.905766e-42
55.69200100 17.99350000 471.98099000 0.08641540 0.66679102 -0.74021798 1.905766e-42
57.49169900 17.95990000 471.97900000 0.08219160 0.67146802 -0.73646200 1.905766e-42
59.28799800 17.84560000 471.98499000 0.07768980 0.67607898 -0.73272198 1.905766e-42
61.02679800 17.38019900 471.96899000 0.07249320 0.68105400 -0.72863603 1.905766e-42
62.79250000 17.05670000 472.10199000 0.06782630 0.68476999 -0.72559601 1.905766e-42
64.53749800 17.13290000 472.53601000 0.06418610 0.68700898 -0.72380900 1.905766e-42
66.23110200 16.83280000 472.00601000 0.05897960 0.68981701 -0.72157699 1.905766e-42
68.02240000 17.00820000 471.98801000 0.05522680 0.69140702 -0.72035199 1.905766e-42
69.81590300 16.85670100 472.00601000 0.05313320 0.69327199 -0.71871400 1.905766e-42
71.59330000 16.72270000 472.25699000 0.05140020 0.69599599 -0.71620297 1.905766e-42
73.35489700 16.80579900 472.61700000 0.05047450 0.70034897 -0.71201301 1.905766e-42
75.14730100 16.87080000 472.76901000 0.04940770 0.70504498 -0.70743901 1.905766e-42
76.93460100 17.08270100 472.79800000 0.04866970 0.71054602 -0.70196497 1.905766e-42
78.73069800 17.07449900 472.91501000 0.04777450 0.71649098 -0.69595897 1.905766e-42
80.32779700 17.39469900 473.68100000 0.05098820 0.72559798 -0.68622702 1.905766e-42
82.09940300 17.33750000 473.99500000 0.05191280 0.73380601 -0.67737198 1.905766e-42
82.93550100 16.49230000 472.64301000 0.04093860 0.73206598 -0.68000299 1.905766e-42
83.59700000 15.38290000 471.39001000 0.02773440 0.73349798 -0.67912501 1.905766e-42
83.92849700 14.09820000 470.17300000 0.01710630 0.73596698 -0.67680103 1.905766e-42
84.56400300 12.93580000 468.95499000 0.00809437 0.74077499 -0.67170399 1.905766e-42
85.07520300 11.79250000 467.66199000 0.00045757 0.74857903 -0.66304600 1.905766e-42
85.28209700 10.61970000 466.31201000 -0.00569176 0.76345301 -0.64583898 1.905766e-42
85.54250300 9.45164010 464.96701000 -0.01021750 0.77756798 -0.62871599 1.905766e-42
85.56089800 8.37061980 463.52802000 -0.01199790 0.79089200 -0.61183900 1.905766e-42
85.51190200 7.30051990 462.08200000 -0.01211250 0.80507702 -0.59304702 1.905766e-42
85.68609600 6.20845990 460.66199000 -0.01361460 0.82020998 -0.57190102 1.905766e-42
86.22920200 5.15373990 459.30801000 -0.01715280 0.83451802 -0.55071300 1.905766e-42
85.91690100 4.24579000 457.78500000 -0.01899700 0.84816200 -0.52939600 1.905766e-42
85.44429800 3.39590000 456.27100000 -0.02009320 0.85735798 -0.51432902 1.905766e-42
85.37580100 2.44112990 454.74600000 -0.01964330 0.86575103 -0.50009000 1.905766e-42
