# .PCD v0.7 - Point Cloud Data file format
# 3 95 0
# 1 38 0
# 39 61 0
# 62 95 0
VERSION 0.7
FIELDS x y z normal_x normal_y normal_z curvature
SIZE 4 4 4 4 4 4 4
TYPE F F F F F F F
COUNT 1 1 1 1 1 1 1
WIDTH 95
HEIGHT 1
VIEWPOINT 0 0 0 1 0 0 0
POINTS 95
DATA ascii
6.44910000 -5.58912990 438.75800000 0.01481180 -0.92739999 0.37377700 1.905766e-42
7.91527990 -5.72125010 438.39700000 0.03046800 -0.93049598 0.36503300 1.905766e-42
9.30296040 -5.17820980 439.40701000 0.03344880 -0.92747498 0.37238601 1.905766e-42
10.63820000 -4.64678000 440.48999000 0.03948940 -0.92295802 0.38286901 1.905766e-42
11.16570000 -4.09040020 442.11899000 0.04458450 -0.91610199 0.39846000 1.905766e-42
12.49360000 -3.45802000 443.15701000 0.05745370 -0.90970999 0.41124901 1.905766e-42
12.75510000 -2.72323990 444.77899000 0.06054990 -0.89945799 0.43279099 1.905766e-42
13.77340000 -2.01703000 446.08401000 0.07246010 -0.89022601 0.44971800 1.905766e-42
14.86570000 -1.30181000 447.32300000 0.08353500 -0.88370001 0.46053800 1.905766e-42
16.09140000 -0.56311399 448.41501000 0.08577640 -0.87912202 0.46881500 1.905766e-42
16.54380000 0.27546400 449.94199000 0.08366710 -0.87368602 0.47924101 1.905766e-42
17.73670000 1.16098000 450.95901000 0.08711610 -0.87110901 0.48330101 1.905766e-42
18.29080000 1.92504000 452.49100000 0.08643530 -0.86467099 0.49484599 1.905766e-42
19.04400100 2.81987000 453.85999000 0.09040340 -0.85731900 0.50678498 1.905766e-42
20.18380000 3.67683010 454.95801000 0.10156200 -0.85101300 0.51523000 1.905766e-42
20.84110100 4.53809980 456.39499000 0.10595200 -0.84342402 0.52669698 1.905766e-42
21.63299900 5.51780990 457.68100000 0.11129500 -0.83640403 0.53669500 1.905766e-42
22.25040100 6.47124000 459.07700000 0.11133200 -0.82875502 0.54842502 1.905766e-42
22.84390100 7.42679020 460.48300000 0.10365400 -0.82204902 0.55990303 1.905766e-42
23.52210000 8.44964030 461.79901000 0.09389070 -0.81652802 0.56962001 1.905766e-42
24.08939900 9.47060010 463.16901000 0.08508430 -0.81112701 0.57864797 1.905766e-42
24.56880000 10.49330000 464.57101000 0.07815900 -0.80305898 0.59075201 1.905766e-42
25.34569900 11.53960000 465.81201000 0.07714550 -0.79513502 0.60150599 1.905766e-42
26.01840000 12.60090000 467.10101000 0.07644310 -0.78610802 0.61334401 1.905766e-42
26.33000000 13.68280000 468.50500000 0.07264040 -0.77562600 0.62699902 1.905766e-42
26.91950000 14.77830000 469.80600000 0.06859030 -0.76914197 0.63538599 1.905766e-42
27.44910000 15.98340000 471.03400000 0.06118780 -0.76634598 0.63950801 1.905766e-42
28.00770000 17.06810000 472.35800000 0.05189280 -0.76393002 0.64320898 1.905766e-42
28.45150000 18.16860000 473.71100000 0.04120520 -0.76107699 0.64735103 1.905766e-42
29.24889900 19.31860000 474.84299000 0.03197780 -0.76000297 0.64913303 1.905766e-42
29.55960100 20.45070100 476.20801000 0.02314930 -0.74834800 0.66290200 1.905766e-42
30.40940100 21.57550000 477.32700000 0.02256950 -0.73559302 0.67704803 1.905766e-42
30.82469900 22.70879900 478.66199000 0.02994860 -0.71360397 0.69990802 1.905766e-42
30.95280100 24.03980100 479.86700000 0.05305250 -0.68452001 0.72706097 1.905766e-42
30.00429900 25.14290000 480.92700000 0.05376330 -0.67426300 0.73653102 1.905766e-42
28.98200000 26.19879900 481.96600000 0.04428730 -0.66187900 0.74830198 1.905766e-42
28.04130000 27.29690000 483.03799000 0.03096670 -0.64806801 0.76095301 1.905766e-42
27.35930100 28.59460100 484.08301000 0.02108440 -0.63338602 0.77354902 1.905766e-42
26.71940000 29.89959900 485.14499000 0.01230820 -0.62144899 0.78335798 1.905766e-42
24.97370000 30.26390100 485.38901000 -0.03547720 -0.62482202 0.77995998 1.905766e-42
23.17849900 30.30410000 485.26300000 -0.07089270 -0.62313098 0.77889800 1.905766e-42
21.39800100 30.26250100 485.00299000 -0.09320810 -0.61843902 0.78028500 1.905766e-42
19.61899900 30.14380100 484.75500000 -0.10366500 -0.61285400 0.78336698 1.905766e-42
17.93689900 29.70459900 484.28900000 -0.10594000 -0.60874897 0.78625703 1.905766e-42
16.18199900 30.10380000 484.25800000 -0.11238700 -0.59691697 0.79439199 1.905766e-42
14.40360000 30.26560000 484.03201000 -0.11677900 -0.58606601 0.80180401 1.905766e-42
12.72850000 29.79150000 483.57501000 -0.11945800 -0.58112103 0.80500197 1.905766e-42
10.96790000 30.14510000 483.45099000 -0.12906399 -0.57023901 0.81127697 1.905766e-42
9.17578980 30.21509900 483.29800000 -0.13763000 -0.56235301 0.81536299 1.905766e-42
7.40050980 30.16610000 483.00500000 -0.14557500 -0.55711401 0.81757700 1.905766e-42
5.63269000 30.33000000 482.70901000 -0.15521500 -0.55077899 0.82009202 1.905766e-42
3.86200000 30.41420000 482.39600000 -0.16517700 -0.54484999 0.82210398 1.905766e-42
2.09774990 30.37480000 482.04099000 -0.17514899 -0.53925103 0.82372999 1.905766e-42
0.33025599 30.39139900 481.70099000 -0.18696000 -0.53323603 0.82504898 1.905766e-42
-1.43013000 30.37470100 481.32599000 -0.19975699 -0.52775902 0.82557100 1.905766e-42
-3.15468000 30.79600000 481.02899000 -0.21301600 -0.52052701 0.82684702 1.905766e-42
-4.91603990 30.85140000 480.66199000 -0.22290599 -0.51620400 0.82695001 1.905766e-42
-6.66390990 30.97660100 480.25000000 -0.23527700 -0.51159400 0.82638699 1.905766e-42
-8.40198990 31.18100000 479.82901000 -0.25313801 -0.50588000 0.82462502 1.905766e-42
-10.14870000 31.34240000 479.42599000 -0.27315000 -0.49936399 0.82220697 1.905766e-42
-11.86170000 31.64590100 478.96399000 -0.28713700 -0.49461001 0.82031298 1.905766e-42
-13.57810000 31.82160000 478.45099000 -0.29739401 -0.49157399 0.81848103 1.905766e-42
-13.64870000 30.26630000 477.54800000 -0.29530999 -0.51153600 0.80692202 1.905766e-42
-13.60420000 28.74360100 476.58899000 -0.29051000 -0.53142297 0.79573399 1.905766e-42
-13.64510000 27.24799900 475.58801000 -0.28426301 -0.55050898 0.78494197 1.905766e-42
-13.64970000 25.77549900 474.55301000 -0.27634600 -0.56905401 0.77447402 1.905766e-42
-13.62160000 24.34269900 473.46399000 -0.26939699 -0.58600402 0.76421499 1.905766e-42
-13.45050000 22.91519900 472.38000000 -0.26340100 -0.60172999 0.75401598 1.905766e-42
-13.64010000 21.66180000 471.10300000 -0.25992599 -0.61513799 0.74434102 1.905766e-42
-12.93930000 20.20929900 470.30301000 -0.25441501 -0.62853301 0.73499602 1.905766e-42
-12.25230000 18.84199900 469.35501000 -0.24984799 -0.64282101 0.72412503 1.905766e-42
-11.88200000 17.47170100 468.24799000 -0.24669600 -0.65751302 0.71191198 1.905766e-42
-11.32310000 16.13540100 467.17999000 -0.24349700 -0.67168599 0.69967699 1.905766e-42
-11.25000000 14.83340000 465.93900000 -0.24233399 -0.68572098 0.68633902 1.905766e-42
-10.74910000 13.54400000 464.78699000 -0.23285300 -0.70115900 0.67391098 1.905766e-42
-10.48200000 12.29580000 463.51801000 -0.22624899 -0.71656799 0.65980500 1.905766e-42
-9.94417000 11.06350000 462.32101000 -0.21648100 -0.73278999 0.64510000 1.905766e-42
-9.69733050 9.96263980 460.91901000 -0.21072400 -0.74877000 0.62844199 1.905766e-42
-8.96510980 8.75928020 459.79800000 -0.20083600 -0.76479298 0.61217397 1.905766e-42
-8.30904960 7.59507990 458.59201000 -0.19268700 -0.77654898 0.59987003 1.905766e-42
-7.34100010 6.49075980 457.55099000 -0.18393900 -0.78596598 0.59027398 1.905766e-42
-6.83378980 5.40835000 456.20599000 -0.17963400 -0.79579300 0.57831299 1.905766e-42
-5.98501010 4.37784000 454.99799000 -0.16573399 -0.80711901 0.56664902 1.905766e-42
-5.03200010 3.36435010 453.85599000 -0.14969900 -0.81880498 0.55421001 1.905766e-42
-4.05073020 2.39483000 452.70001000 -0.13397700 -0.83069199 0.54037100 1.905766e-42
-3.37643000 1.44469000 451.32800000 -0.12311700 -0.84273303 0.52406400 1.905766e-42
-2.49675990 0.55249500 450.03500000 -0.11141400 -0.85394001 0.50830501 1.905766e-42
-1.91696000 -0.36244401 448.59799000 -0.10495500 -0.86485797 0.49092299 1.905766e-42
-1.25357000 -1.14610000 447.11899000 -0.09608830 -0.87547302 0.47361800 1.905766e-42
-0.50853598 -1.90319000 445.66599000 -0.08600340 -0.88429999 0.45892999 1.905766e-42
0.53651297 -2.75304010 444.47198000 -0.07060530 -0.89191300 0.44666100 1.905766e-42
1.41140000 -3.45692990 443.06500000 -0.05643870 -0.89960700 0.43303800 1.905766e-42
2.31116010 -4.11832000 441.65399000 -0.04166220 -0.90712202 0.41880000 1.905766e-42
3.71466990 -4.53044990 440.60501000 -0.02389830 -0.91429698 0.40433899 1.905766e-42
5.36947010 -4.99529980 440.07001000 -0.00334108 -0.92040700 0.39094600 1.905766e-42
