# .PCD v0.7 - Point Cloud Data file format
# 2 95 0
# 1 55 0
# 56 95 0
VERSION 0.7
FIELDS x y z normal_x normal_y normal_z curvature
SIZE 4 4 4 4 4 4 4
TYPE F F F F F F F
COUNT 1 1 1 1 1 1 1
WIDTH 95
HEIGHT 1
VIEWPOINT 0 0 0 1 0 0 0
POINTS 95
DATA ascii
48.24309900 26.49700000 457.03799000 0.10622300 -0.53445798 0.83849299 1.905766e-42
46.78570200 27.26110100 457.76801000 0.08227630 -0.51861203 0.85104197 1.905766e-42
45.36790100 28.17550100 458.39499000 0.05932600 -0.50189602 0.86289102 1.905766e-42
44.63909900 28.75120000 457.57901000 0.05077330 -0.49906299 0.86507702 1.905766e-42
43.35440100 27.68619900 458.25400000 0.04272230 -0.50574702 0.86162299 1.905766e-42
41.70690200 27.00720000 457.99899000 0.02499990 -0.51468700 0.85701299 1.905766e-42
40.00370000 26.53809900 457.65399000 -0.00165527 -0.52125800 0.85339803 1.905766e-42
38.34080100 25.97600000 457.25601000 -0.02882470 -0.52732301 0.84917599 1.905766e-42
36.66050000 25.59199900 456.73700000 -0.05045830 -0.53252798 0.84490699 1.905766e-42
35.17839800 24.63789900 456.37201000 -0.06750840 -0.53977400 0.83909899 1.905766e-42
33.51440000 24.37109900 455.73999000 -0.08728790 -0.54072797 0.83665597 1.905766e-42
31.89500000 23.81580000 455.18399000 -0.10071100 -0.54641098 0.83143997 1.905766e-42
30.31740000 23.21680100 454.55701000 -0.11555300 -0.55232197 0.82558298 1.905766e-42
28.82290100 22.36630100 454.02499000 -0.13073599 -0.55825800 0.81930202 1.905766e-42
27.34730000 21.60590000 453.32901000 -0.14581800 -0.56299901 0.81349200 1.905766e-42
25.85140000 20.93750000 452.58401000 -0.15941601 -0.56653500 0.80847102 1.905766e-42
24.33110000 20.32840000 451.83701000 -0.17431299 -0.56841397 0.80406499 1.905766e-42
22.74630000 19.88789900 451.10599000 -0.19439299 -0.56946301 0.79870099 1.905766e-42
21.23070000 19.39930000 450.26700000 -0.21529500 -0.57006001 0.79289299 1.905766e-42
20.05740000 18.40950000 449.32700000 -0.21904200 -0.58199900 0.78313398 1.905766e-42
18.95630100 17.41210000 448.31100000 -0.22526000 -0.59143502 0.77424997 1.905766e-42
17.56259900 16.75079900 447.38300000 -0.23292200 -0.59877402 0.76630098 1.905766e-42
15.92320000 16.64020000 446.64801000 -0.24658200 -0.60648698 0.75589001 1.905766e-42
14.87770000 15.66640000 445.55301000 -0.26171800 -0.61418802 0.74449700 1.905766e-42
13.89270000 14.70130000 444.39700000 -0.27459401 -0.62166399 0.73357397 1.905766e-42
12.80580000 13.84830000 443.24301000 -0.28597701 -0.62856603 0.72327203 1.905766e-42
11.73750000 12.99230000 442.07401000 -0.29440600 -0.63563401 0.71364897 1.905766e-42
11.07990000 11.88470000 440.81699000 -0.29791701 -0.64490598 0.70380503 1.905766e-42
10.21380000 10.94450000 439.54901000 -0.30486000 -0.65198201 0.69424701 1.905766e-42
9.41384030 9.96601960 438.26801000 -0.31321499 -0.65839899 0.68440300 1.905766e-42
8.53555010 9.06425950 436.98099000 -0.32436901 -0.66342902 0.67427498 1.905766e-42
7.94711020 8.04224010 435.62100000 -0.33411300 -0.66836601 0.66457099 1.905766e-42
7.17805000 7.22399000 434.21500000 -0.34259799 -0.66916102 0.65943098 1.905766e-42
7.10410980 5.86400990 433.03799000 -0.34006000 -0.67581302 0.65393901 1.905766e-42
6.98225020 4.64276980 431.72101000 -0.33809599 -0.68355799 0.64687002 1.905766e-42
6.12572000 3.80942990 430.37500000 -0.34529099 -0.68740898 0.63893902 1.905766e-42
5.56707000 2.90068010 428.92499000 -0.34722900 -0.69166601 0.63326901 1.905766e-42
5.52498010 1.72281000 427.56500000 -0.34331000 -0.69284999 0.63411200 1.905766e-42
5.61463020 0.39174700 426.35599000 -0.34116799 -0.69273102 0.63539600 1.905766e-42
6.35481980 -0.89874101 425.34299000 -0.32735300 -0.69910198 0.63568598 1.905766e-42
6.10791020 -1.97560000 423.92200000 -0.32239899 -0.70291901 0.63400602 1.905766e-42
6.67681980 -3.25018000 422.78500000 -0.30697101 -0.71332401 0.63002998 1.905766e-42
7.48276000 -4.49069980 421.76001000 -0.29141301 -0.72441298 0.62474400 1.905766e-42
8.27211000 -5.66888000 420.65100000 -0.27585301 -0.73397899 0.62062800 1.905766e-42
9.39577010 -6.85961010 419.90302000 -0.25812000 -0.74272299 0.61784899 1.905766e-42
10.39240000 -7.97973010 418.90701000 -0.24214201 -0.74957198 0.61604297 1.905766e-42
11.38540000 -9.07736020 417.88300000 -0.22812800 -0.75511003 0.61462700 1.905766e-42
12.16470000 -10.17270000 416.68600000 -0.21571000 -0.76009101 0.61296898 1.905766e-42
13.69640000 -11.03710000 416.30301000 -0.19595300 -0.76831400 0.60934103 1.905766e-42
14.51460000 -12.15210000 415.15100000 -0.18087199 -0.77525401 0.60519898 1.905766e-42
15.55190000 -13.19040000 414.10901000 -0.16397800 -0.78235900 0.60085303 1.905766e-42
16.75630000 -14.11070000 413.13800000 -0.14645600 -0.78834200 0.59755200 1.905766e-42
18.09870000 -14.98050000 412.31201000 -0.12842301 -0.79315698 0.59532303 1.905766e-42
19.37730000 -15.84010000 411.38199000 -0.10640300 -0.79987502 0.59065998 1.905766e-42
20.51059900 -16.66260000 410.25101000 -0.07037570 -0.81302899 0.57795501 1.905766e-42
22.21910100 -17.12000100 409.91699000 -0.01072430 -0.83397001 0.55170602 1.905766e-42
23.19179900 -16.32950000 411.20801000 -0.01936630 -0.82839298 0.55981201 1.905766e-42
24.18560000 -15.45290000 412.42700000 -0.01645430 -0.82701302 0.56194198 1.905766e-42
24.82379900 -14.54290000 413.84201000 -0.01910400 -0.82355100 0.56692100 1.905766e-42
26.01680000 -13.74640000 414.92999000 -0.00909275 -0.82353401 0.56719500 1.905766e-42
26.94720100 -12.84830000 416.18201000 -0.00479920 -0.82132602 0.57043999 1.905766e-42
27.65370000 -12.02630000 417.61899000 -0.00472510 -0.81868398 0.57422501 1.905766e-42
28.50490000 -11.09810000 418.90500000 -0.00209400 -0.81708300 0.57651597 1.905766e-42
29.47950000 -10.16660000 420.09799000 0.00265632 -0.81629503 0.57762998 1.905766e-42
30.10890000 -9.26474000 421.52301000 0.00200721 -0.81424201 0.58052200 1.905766e-42
30.73189900 -8.27390960 422.89001000 0.00231622 -0.81157601 0.58424199 1.905766e-42
31.30920000 -7.26669980 424.26599000 0.00267418 -0.80860400 0.58834797 1.905766e-42
32.47539900 -6.39439010 425.32401000 0.01436910 -0.80829799 0.58859903 1.905766e-42
33.49520100 -5.38837000 426.41400000 0.02387780 -0.80734998 0.58959001 1.905766e-42
33.92770000 -4.55127000 427.94699000 0.02291010 -0.80452102 0.59348202 1.905766e-42
34.82020200 -3.56898000 429.16299000 0.03179120 -0.80177897 0.59677398 1.905766e-42
35.59170200 -2.54792000 430.42899000 0.03895310 -0.79744601 0.60213101 1.905766e-42
36.13900000 -1.51869000 431.79999000 0.04138740 -0.79222101 0.60882902 1.905766e-42
36.87070100 -0.51328301 433.10199000 0.04706880 -0.78753400 0.61447197 1.905766e-42
37.43750000 0.56139201 434.42999000 0.04931050 -0.78220099 0.62107199 1.905766e-42
38.45029800 1.67762990 435.41400000 0.06122020 -0.77782899 0.62548703 1.905766e-42
38.64640000 2.64271000 436.92099000 0.05658720 -0.76858401 0.63724101 1.905766e-42
39.66529800 3.70233990 437.95999000 0.06764420 -0.76207000 0.64395100 1.905766e-42
40.25890000 4.83792020 439.22400000 0.06952760 -0.75259101 0.65480697 1.905766e-42
40.98280000 5.95158000 440.43799000 0.07344140 -0.74305803 0.66518497 1.905766e-42
41.52669900 7.11457010 441.70001000 0.07420460 -0.73144001 0.67785698 1.905766e-42
42.19469800 8.32999040 442.84698000 0.07644780 -0.71856701 0.69124299 1.905766e-42
42.51340100 9.55068020 444.13101000 0.07275590 -0.70270002 0.70775700 1.905766e-42
43.54690200 10.70070000 445.05301000 0.07961790 -0.69063598 0.71880698 1.905766e-42
44.19870000 11.98170000 446.13699000 0.08109840 -0.67507899 0.73327398 1.905766e-42
44.74020000 13.24700000 447.29700000 0.08008800 -0.66355503 0.74382800 1.905766e-42
45.02489900 14.57670000 448.47601000 0.07918430 -0.65430802 0.75207102 1.905766e-42
45.95740100 15.82740000 449.37399000 0.08293530 -0.64636201 0.75850999 1.905766e-42
46.40660100 17.15580000 450.50201000 0.08817820 -0.63799298 0.76497698 1.905766e-42
47.24430100 18.47100100 451.40201000 0.09661590 -0.62785798 0.77230799 1.905766e-42
47.69120000 19.82280000 452.50299000 0.11465700 -0.61247700 0.78212899 1.905766e-42
47.98529800 21.24040000 453.57199000 0.12921800 -0.59949601 0.78987801 1.905766e-42
48.73199800 22.60549900 454.47699000 0.13726100 -0.58538002 0.79905599 1.905766e-42
49.19839900 24.05120100 455.44299000 0.13455500 -0.56963199 0.81081098 1.905766e-42
49.59880100 25.60409900 456.26001000 0.12789001 -0.55286902 0.82339501 1.905766e-42
