# .PCD v0.7 - Point Cloud Data file format
# 3 43 0
# 1 15 1
# 16 32 1
# 33 43 0
VERSION 0.7
FIELDS x y z normal_x normal_y normal_z curvature
SIZE 4 4 4 4 4 4 4
TYPE F F F F F F F
COUNT 1 1 1 1 1 1 1
WIDTH 43
HEIGHT 1
VIEWPOINT 0 0 0 1 0 0 0
POINTS 43
DATA ascii
23.990601 6.38592 427.16101 0.10264 0.88845098 -0.447348 1.9057659e-42
21.3536 7.1266799 427.487 -0.053653002 0.815382 -0.57643199 1.9057659e-42
20.506399 7.7842302 428.93301 -0.11523 0.76140398 -0.63795501 1.9057659e-42
19.208 8.8382597 429.59799 -0.167316 0.69829899 -0.69597697 1.9057659e-42
18.887199 9.8614101 431.04401 -0.129188 0.67219198 -0.72901899 1.9057659e-42
18.6591 11.0196 432.40302 -0.070156902 0.68097299 -0.72894001 1.9057659e-42
19.1467 12.1283 433.73401 0.17540801 0.76422298 -0.62064099 1.9057659e-42
19.7274 13.2436 435.022 0.406214 0.76203001 -0.50428098 1.9057659e-42
19.690001 14.1295 436.58899 0.50301301 0.67720199 -0.53700602 1.9057659e-42
20.0826 15.102 438.052 0.58277297 0.60122102 -0.54672599 1.9057659e-42
20.4692 16.154699 439.45999 0.65498501 0.58764201 -0.47504801 1.9057659e-42
20.3286 16.7803 441.142 0.71599901 0.66571802 -0.210153 1.9057659e-42
20.5051 17.000999 442.91901 0.75712597 0.65295899 -0.0201458 1.9057659e-42
20.091 17.4977 444.599 0.746777 0.66493398 -0.0136878 1.9057659e-42
20.9081 16.3901 445.759 0.74426401 0.66706699 -0.0330441 1.9057659e-42
21.868099 15.7347 447.133 0.73939502 0.67011702 -0.065096997 1.9057659e-42
22.975901 14.5728 447.948 0.74770302 0.660694 -0.066512503 1.9057659e-42
24.0303 13.4002 448.81601 0.76283401 0.64456397 -0.051195301 1.9057659e-42
25.1374 12.1229 449.43399 0.78177202 0.62198901 -0.044292402 1.9057659e-42
26.2248 10.7746 448.94501 0.78722203 0.61649197 -0.014779 1.9057659e-42
26.8132 9.91609 447.47601 0.78338897 0.62048101 -0.036125898 1.9057659e-42
27.691601 8.8093204 446.36099 0.77809602 0.62368298 -0.074740797 1.9057659e-42
28.028 8.0130196 444.78201 0.76453698 0.63113701 -0.130954 1.9057659e-42
28.8862 6.94345 443.616 0.69210303 0.71990401 -0.0522638 1.9057659e-42
29.7372 6.1393399 442.24899 0.60515702 0.79588401 0.018800201 1.9057659e-42
30.947399 5.2562399 441.25101 0.60741901 0.79438001 0.00148012 1.9057659e-42
32.328899 4.3144798 440.58499 0.61669397 0.78720099 -0.00190408 1.9057659e-42
33.493099 3.3503101 439.60699 0.61189801 0.79086298 -0.010805 1.9057659e-42
34.868401 2.32178 439.06799 0.62628198 0.779526 0.0105234 1.9057659e-42
36.143002 1.3388799 438.26199 0.61532497 0.78544801 0.066688098 1.9057659e-42
37.323399 0.103293 437.69699 0.62473202 0.76989901 0.13025001 1.9057659e-42
38.625999 -0.800834 436.845 0.63571399 0.75293601 0.17016301 1.9057659e-42
39.318802 -0.77355498 435.18399 0.617791 0.76641601 0.175899 1.9057659e-42
38.149502 0.34062499 434.38901 0.57963002 0.79708999 0.16934299 1.9057659e-42
37.133598 1.13853 433.13501 0.55419701 0.81254601 0.18065099 1.9057659e-42
35.830002 2.2794199 432.647 0.51383901 0.84205902 0.16403 1.9057659e-42
34.7019 3.1129899 431.51901 0.487333 0.86134899 0.143473 1.9057659e-42
33.563099 3.8965001 430.366 0.451664 0.88344699 0.124587 1.9057659e-42
32.228699 4.5751801 429.366 0.40759799 0.90577102 0.115946 1.9057659e-42
30.768801 5.3386402 428.64099 0.32296801 0.94455898 0.059161901 1.9057659e-42
29.211201 5.8108902 427.87299 0.235871 0.97158802 -0.019545199 1.9057659e-42
27.5679 6.08705 427.19199 0.13577101 0.97948098 -0.14894199 1.9057659e-42
25.7904 6.3706398 427.181 0.129345 0.94088799 -0.31304801 1.9057659e-42
