# .PCD v0.7 - Point Cloud Data file format
# 4 85 1
# 1 26 0
# 27 42 0
# 43 66 0
# 67 85 1
VERSION 0.7
FIELDS x y z normal_x normal_y normal_z curvature
SIZE 4 4 4 4 4 4 4
TYPE F F F F F F F
COUNT 1 1 1 1 1 1 1
WIDTH 85
HEIGHT 1
VIEWPOINT 0 0 0 1 0 0 0
POINTS 85
DATA ascii
43.31440000 30.63190100 393.59100000 0.58109498 0.58409101 0.56671602 1.905766e-42
42.78350100 31.65730100 392.79901000 0.56416398 0.60369003 0.56327403 1.905766e-42
41.73040000 31.99889900 394.21799000 0.54468697 0.60297000 0.58287400 1.905766e-42
40.31480000 32.02949900 395.32999000 0.50660402 0.60699397 0.61229998 1.905766e-42
38.80749900 32.05250200 396.31299000 0.45868200 0.60768801 0.64832598 1.905766e-42
37.58589900 31.56730100 397.54300000 0.40846199 0.59142703 0.69524997 1.905766e-42
35.99800100 31.69030000 398.38199000 0.40215099 0.57849902 0.70965701 1.905766e-42
34.62500000 31.31310100 399.48300000 0.38821301 0.57266301 0.72204399 1.905766e-42
33.02439900 31.26330000 400.30499000 0.36845300 0.57813698 0.72801101 1.905766e-42
31.33510000 31.21810000 400.92499000 0.30743399 0.58736700 0.74865502 1.905766e-42
30.44129900 30.33420000 402.21301000 0.26116201 0.57786602 0.77321702 1.905766e-42
28.96730000 29.77510100 403.08200000 0.19546799 0.56530398 0.80138898 1.905766e-42
27.50169900 29.04180000 403.82599000 0.12827000 0.54220200 0.83039999 1.905766e-42
26.23730100 28.03610000 404.62000000 0.05138220 0.50275397 0.86290097 1.905766e-42
24.53630100 27.45879900 404.73599000 -0.03054180 0.46163401 0.88654399 1.905766e-42
23.20470000 26.34429900 405.20999000 -0.10779500 0.40485999 0.90800297 1.905766e-42
21.67919900 25.41780100 405.44400000 -0.13859600 0.36996400 0.91864997 1.905766e-42
20.29430000 24.29410000 405.68701000 -0.13413700 0.36011800 0.92321301 1.905766e-42
18.51230000 24.07099900 405.56601000 -0.13859600 0.37357000 0.91718900 1.905766e-42
16.73140000 24.05590100 405.30499000 -0.15919501 0.39753801 0.90367001 1.905766e-42
15.04050000 23.45990000 405.14499000 -0.25226501 0.37211299 0.89324898 1.905766e-42
13.42480000 22.71130000 404.88199000 -0.33582500 0.32320899 0.88473600 1.905766e-42
11.84540000 21.94249900 404.48901000 -0.40581900 0.25988600 0.87622499 1.905766e-42
10.43810000 20.84690100 404.24600000 -0.35267001 0.26571599 0.89722902 1.905766e-42
8.84984020 20.08560000 403.87399000 -0.16827300 0.37475699 0.91172397 1.905766e-42
7.05651000 20.05320000 403.72299000 0.00450641 0.49471900 0.86904103 1.905766e-42
5.43141980 19.45330000 404.21201000 -0.00917236 0.59096098 0.80664802 1.905766e-42
4.84018990 18.24850100 405.41199000 -0.12297500 0.55839503 0.82041001 1.905766e-42
4.36708020 16.72460000 406.24500000 -0.29306599 0.40239599 0.86728901 1.905766e-42
4.08087020 14.94930000 406.16599000 -0.54210800 0.15110999 0.82661098 1.905766e-42
3.56504010 13.31990000 405.60101000 -0.74090397 -0.07253560 0.66768301 1.905766e-42
4.15310000 11.72660000 406.19800000 -0.75841498 -0.07839820 0.64703900 1.905766e-42
4.93557980 10.39550000 407.12299000 -0.71177799 0.01568750 0.70222998 1.905766e-42
5.07812980 8.60256960 407.19400000 -0.77071702 0.05788950 0.63454300 1.905766e-42
5.40958020 6.87562990 407.57800000 -0.74523002 0.13285001 0.65343899 1.905766e-42
5.56794980 5.09157990 407.75699000 -0.65414399 0.01022710 0.75630099 1.905766e-42
5.90100000 3.33785010 407.52600000 -0.51898599 -0.26688501 0.81204998 1.905766e-42
6.24888990 1.64297000 407.03000000 -0.51559001 -0.37004101 0.77281100 1.905766e-42
6.66439010 -0.06259900 406.63199000 -0.49437201 -0.42893600 0.75604898 1.905766e-42
7.83319000 -1.42207000 406.79199000 -0.43823200 -0.41628900 0.79665297 1.905766e-42
8.65808960 -3.00584010 406.56601000 -0.40755099 -0.28223100 0.86847401 1.905766e-42
9.76270010 -4.32116990 407.10400000 -0.35627100 -0.16218100 0.92019999 1.905766e-42
10.99130000 -5.47554020 407.73499000 -0.30627000 -0.09411310 0.94728100 1.905766e-42
12.77490000 -5.58672000 407.95099000 -0.28536999 -0.11957400 0.95092899 1.905766e-42
14.49460000 -5.69220020 408.47198000 -0.28588700 -0.12651600 0.94987500 1.905766e-42
16.20879900 -5.67656990 409.01999000 -0.30289501 -0.12860200 0.94430703 1.905766e-42
17.93420000 -5.68583010 409.53299000 -0.24213600 -0.10802400 0.96420997 1.905766e-42
19.67840000 -5.75841000 409.97198000 -0.16534600 -0.10767200 0.98034000 1.905766e-42
21.45270000 -5.67597010 410.26401000 -0.08817860 -0.10613500 0.99043399 1.905766e-42
23.25160000 -5.63124990 410.31100000 -0.06947130 -0.09423450 0.99312299 1.905766e-42
25.05010000 -5.65607980 410.37900000 -0.07706020 -0.09136440 0.99283099 1.905766e-42
26.85010000 -5.66752000 410.38101000 -0.07692170 -0.10140900 0.99186701 1.905766e-42
28.45690000 -4.97106980 410.79700000 -0.05476470 -0.11546600 0.99180102 1.905766e-42
30.25130100 -4.82883980 410.78799000 0.05351090 -0.11496600 0.99192703 1.905766e-42
32.02780200 -4.79842000 410.49899000 0.16364200 -0.12168100 0.97898698 1.905766e-42
33.74380100 -4.32082990 410.24100000 0.26022100 -0.11846700 0.95825398 1.905766e-42
35.44649900 -4.09314010 409.70300000 0.33417001 -0.11948100 0.93490899 1.905766e-42
37.06470100 -3.53570010 409.14600000 0.39703500 -0.10759200 0.91147500 1.905766e-42
38.68949900 -3.36250000 408.39001000 0.45370200 -0.09327590 0.88625902 1.905766e-42
40.28379800 -3.29431010 407.55801000 0.48556700 -0.08132350 0.87040800 1.905766e-42
41.83969900 -3.03649000 406.69000000 0.50026101 -0.07460000 0.86265498 1.905766e-42
43.32070200 -2.56490990 405.78201000 0.51604998 -0.06769600 0.85387897 1.905766e-42
44.80580100 -1.96577000 404.95999000 0.53377301 -0.06196970 0.84335399 1.905766e-42
46.31549800 -1.67428000 404.02399000 0.58137602 -0.05013640 0.81208903 1.905766e-42
47.63840100 -2.23198010 402.93900000 0.63737398 -0.05122210 0.76885098 1.905766e-42
48.90739800 -2.06651000 401.67300000 0.72227103 -0.05356610 0.68953300 1.905766e-42
49.81710100 -1.14247000 400.42401000 0.81398797 -0.04456430 0.57916898 1.905766e-42
50.13309900 0.59377098 400.07001000 0.84205401 -0.01621240 0.53915000 1.905766e-42
50.20539900 2.39103010 400.00201000 0.84877199 0.01750970 0.52846998 1.905766e-42
50.16210200 4.19049980 400.00000000 0.84509599 0.06595810 0.53053099 1.905766e-42
50.07389800 5.98833990 399.99600000 0.83801103 0.10830200 0.53479701 1.905766e-42
49.99470100 7.71224020 399.48401000 0.84342301 0.13461199 0.52011299 1.905766e-42
49.83150100 9.49207020 399.26999000 0.83435202 0.16271000 0.52667099 1.905766e-42
49.55320000 11.26920000 399.20401000 0.81716901 0.18986100 0.54423201 1.905766e-42
49.22620000 13.03920000 399.19501000 0.79345101 0.22022800 0.56739300 1.905766e-42
49.00230000 14.70440000 398.54901000 0.78429502 0.25399700 0.56600899 1.905766e-42
48.56580000 16.44780000 398.44901000 0.75812602 0.29757401 0.58025402 1.905766e-42
48.21200200 18.10980000 397.85501000 0.74658400 0.33353600 0.57564402 1.905766e-42
47.67860000 19.81740000 397.65601000 0.72434801 0.37312099 0.57974201 1.905766e-42
47.25339900 21.38299900 396.87601000 0.71582001 0.41160601 0.56407702 1.905766e-42
46.77909900 22.89040000 396.01401000 0.71246701 0.43520799 0.55044103 1.905766e-42
46.07429900 24.54660000 395.99799000 0.68589699 0.46199700 0.56223100 1.905766e-42
45.44649900 26.13590000 395.43201000 0.66668499 0.48794800 0.56341600 1.905766e-42
44.87229900 27.58700000 394.53500000 0.65020198 0.51102901 0.56221598 1.905766e-42
44.14510000 29.04520000 393.76999000 0.61686599 0.54859400 0.56437701 1.905766e-42
