# .PCD v0.7 - Point Cloud Data file format
# 4 170 0
# 1 30 0
# 31 95 0
# 96 106 0
# 107 170 0
VERSION 0.7
FIELDS x y z normal_x normal_y normal_z curvature
SIZE 4 4 4 4 4 4 4
TYPE F F F F F F F
COUNT 1 1 1 1 1 1 1
WIDTH 170
HEIGHT 1
VIEWPOINT 0 0 0 1 0 0 0
POINTS 170
DATA ascii
42.32239900 -15.00860000 429.90799000 0.48246399 0.54104799 -0.68883598 1.905766e-42
40.93460100 -15.17670000 428.77399000 0.47993299 0.53705198 -0.69371402 1.905766e-42
39.46649900 -15.23210000 427.73401000 0.46670601 0.53724098 -0.70253700 1.905766e-42
37.88309900 -14.99230000 426.91199000 0.44640699 0.54062700 -0.71305197 1.905766e-42
36.35920000 -15.05060000 425.95599000 0.42201200 0.54251099 -0.72635198 1.905766e-42
34.83760100 -15.31570000 425.03201000 0.40383801 0.54219401 -0.73684502 1.905766e-42
33.23569900 -15.12430000 424.23300000 0.38639101 0.54370898 -0.74503899 1.905766e-42
31.60630000 -15.03370000 423.47400000 0.37069800 0.54453498 -0.75237298 1.905766e-42
29.98280000 -15.12340000 422.70200000 0.35094601 0.54445797 -0.76184100 1.905766e-42
28.33620100 -14.99250000 421.98700000 0.32917199 0.54473197 -0.77130598 1.905766e-42
26.69910000 -15.21430000 421.27200000 0.30742100 0.54242998 -0.78183299 1.905766e-42
25.02920000 -15.31270000 420.60699000 0.28555000 0.53997499 -0.79176301 1.905766e-42
23.34100000 -15.50580000 420.01401000 0.26596001 0.53656799 -0.80084997 1.905766e-42
21.65239900 -15.70120000 419.42200000 0.24631099 0.53257197 -0.80975199 1.905766e-42
19.95700100 -15.40820000 418.89301000 0.22716200 0.53117102 -0.81624401 1.905766e-42
18.22150000 -15.25940000 418.43900000 0.20782401 0.52901399 -0.82277203 1.905766e-42
16.74630000 -16.10810100 417.85300000 0.19032900 0.52050799 -0.83237398 1.905766e-42
15.01940000 -16.05699900 417.34799000 0.17054300 0.51906198 -0.83754998 1.905766e-42
13.27570000 -16.03690000 416.90100000 0.15015100 0.51878101 -0.84161800 1.905766e-42
11.50710000 -16.01040100 416.56799000 0.12820899 0.51952600 -0.84478098 1.905766e-42
10.38190000 -17.32860000 416.08200000 0.11443000 0.51018000 -0.85242200 1.905766e-42
8.66059970 -17.38990000 415.55899000 0.09196440 0.50836301 -0.85621798 1.905766e-42
6.88605020 -17.28060000 415.27802000 0.06940700 0.50728601 -0.85897797 1.905766e-42
5.13738010 -17.54590000 414.94299000 0.05501180 0.50432199 -0.86176199 1.905766e-42
3.62552000 -18.35689900 414.39899000 0.04291150 0.49923199 -0.86540502 1.905766e-42
1.82963000 -18.23520100 414.39899000 0.02545370 0.50173998 -0.86464399 1.905766e-42
0.03581670 -18.36510100 414.32599000 -0.00172018 0.50157100 -0.86511499 1.905766e-42
-1.01821010 -19.67210000 413.67700000 -0.01874650 0.49360099 -0.86948597 1.905766e-42
-2.81451010 -19.75410100 413.59601000 -0.03865960 0.49348301 -0.86889601 1.905766e-42
-4.47586010 -20.01740100 413.53500000 -0.05218360 0.49557301 -0.86699700 1.905766e-42
-6.26267000 -20.22550000 413.59799000 -0.05736850 0.50326300 -0.86222702 1.905766e-42
-5.66825010 -18.71419900 414.37399000 -0.06362910 0.50728899 -0.85942400 1.905766e-42
-5.53452010 -17.16760100 415.28500000 -0.06972110 0.51805502 -0.85250098 1.905766e-42
-4.97413020 -15.67320000 416.11801000 -0.07115840 0.52760702 -0.84650302 1.905766e-42
-4.46095990 -14.19700000 417.01099000 -0.07232320 0.53840202 -0.83957899 1.905766e-42
-3.95383000 -12.73690000 417.93301000 -0.07258670 0.55058300 -0.83161801 1.905766e-42
-3.97686000 -11.27730000 418.98599000 -0.08041210 0.56658602 -0.82007003 1.905766e-42
-3.16181990 -9.89951040 419.80899000 -0.07227120 0.58034998 -0.81115401 1.905766e-42
-3.11644010 -8.48488040 420.92200000 -0.07881360 0.60019302 -0.79596198 1.905766e-42
-2.56232000 -7.07386020 421.89200000 -0.06922580 0.61692703 -0.78397000 1.905766e-42
-2.47252010 -5.78113990 423.14099000 -0.07175860 0.63109601 -0.77237898 1.905766e-42
-1.74940000 -4.39443020 424.03299000 -0.06248660 0.64245301 -0.76377302 1.905766e-42
-1.31690000 -3.07447000 425.17700000 -0.05811570 0.65567601 -0.75280303 1.905766e-42
-0.91787601 -1.69956990 426.26801000 -0.05300480 0.66921699 -0.74117398 1.905766e-42
-0.11398700 -0.47595000 427.31601000 -0.03783490 0.68165201 -0.73069799 1.905766e-42
0.36720100 0.76037902 428.53201000 -0.02877630 0.69519800 -0.71824199 1.905766e-42
0.97363102 1.96995000 429.71899000 -0.01597570 0.70819700 -0.70583397 1.905766e-42
1.62122000 3.18597010 430.87799000 -0.00158032 0.72057199 -0.69337898 1.905766e-42
1.91154000 4.34390020 432.22501000 0.00318262 0.73182398 -0.68148601 1.905766e-42
2.34293010 5.47966000 433.55301000 0.00860477 0.73814201 -0.67458999 1.905766e-42
3.09664010 6.63798000 434.70599000 0.02061870 0.74448299 -0.66732299 1.905766e-42
3.47713990 7.79934980 436.02802000 0.02741740 0.75178802 -0.65883499 1.905766e-42
3.80510000 8.90186980 437.41199000 0.03389840 0.75923097 -0.64993799 1.905766e-42
4.19442990 10.01810000 438.76999000 0.04163250 0.76652700 -0.64086097 1.905766e-42
5.25224020 10.94680000 439.89200000 0.06135880 0.77190900 -0.63276601 1.905766e-42
5.25446990 12.11700000 441.25900000 0.06134890 0.77885300 -0.62419802 1.905766e-42
5.15383010 13.14270000 442.73499000 0.05870230 0.78555298 -0.61600399 1.905766e-42
5.38393020 14.30610000 444.08899000 0.06080430 0.79060400 -0.60930097 1.905766e-42
5.43096020 15.40150000 445.51700000 0.06112610 0.78981400 -0.61029297 1.905766e-42
5.53123000 16.52969900 446.91599000 0.06311780 0.78922403 -0.61085302 1.905766e-42
5.36810020 17.46550000 448.44501000 0.06179000 0.78895003 -0.61134201 1.905766e-42
5.55775980 18.61860100 449.81400000 0.06697540 0.78874898 -0.61105603 1.905766e-42
5.62026980 19.67580000 451.26901000 0.07088160 0.78875399 -0.61060899 1.905766e-42
5.77515980 20.79520000 452.67001000 0.07703130 0.78890997 -0.60966200 1.905766e-42
6.11697010 21.91540000 454.03699000 0.08723010 0.78920400 -0.60790497 1.905766e-42
6.28088000 23.02850000 455.44199000 0.09469730 0.78955102 -0.60633498 1.905766e-42
6.16335010 24.09630000 456.88599000 0.09769930 0.78871799 -0.60694200 1.905766e-42
6.05188990 25.15920100 458.33499000 0.10147500 0.78759700 -0.60777801 1.905766e-42
6.26023010 26.30880000 459.70401000 0.11163900 0.78675199 -0.60709000 1.905766e-42
5.68517020 27.41970100 460.99799000 0.10669800 0.78558701 -0.60948300 1.905766e-42
4.94745020 28.43720100 462.28699000 0.09905440 0.78423500 -0.61250597 1.905766e-42
4.13875010 29.44780000 463.53799000 0.09047440 0.78266603 -0.61583102 1.905766e-42
3.24956990 30.42300000 464.76199000 0.08088680 0.78081203 -0.61950803 1.905766e-42
2.58917000 31.53890000 466.01001000 0.07646660 0.77912599 -0.62218601 1.905766e-42
1.61511000 32.57000000 467.11899000 0.06673310 0.77557600 -0.62771702 1.905766e-42
0.71296102 33.56629900 468.31601000 0.05880540 0.77131897 -0.63372600 1.905766e-42
-0.03500160 34.70930100 469.48801000 0.05341690 0.76737398 -0.63897097 1.905766e-42
-0.79964697 35.81039800 470.68900000 0.04736240 0.76348603 -0.64408600 1.905766e-42
-1.56811000 36.87329900 471.92200000 0.04082020 0.75967503 -0.64902002 1.905766e-42
-2.33647990 37.91780100 473.17001000 0.03378490 0.75594503 -0.65376300 1.905766e-42
-3.08726000 38.98820100 474.40799000 0.02670880 0.75233001 -0.65824503 1.905766e-42
-3.89325000 40.07379900 475.59601000 0.01987720 0.74898601 -0.66228801 1.905766e-42
-4.93458990 40.93909800 476.78201000 0.00831228 0.74629402 -0.66556400 1.905766e-42
-5.42389010 42.20800000 477.96100000 0.00328494 0.74550003 -0.66649801 1.905766e-42
-6.32973000 43.29550200 479.07300000 -0.00817092 0.74435198 -0.66773701 1.905766e-42
-7.42853020 44.20340000 480.17300000 -0.02335820 0.74287403 -0.66902399 1.905766e-42
-8.43881990 45.14040000 481.33099000 -0.03787420 0.74121600 -0.67019802 1.905766e-42
-9.40001010 46.13980100 482.47800000 -0.05219410 0.73934400 -0.67130202 1.905766e-42
-10.33380000 47.17450000 483.61700000 -0.06659900 0.73722798 -0.67235303 1.905766e-42
-11.56390000 47.77439900 484.78699000 -0.08804400 0.73425299 -0.67314202 1.905766e-42
-12.49510000 48.87860100 485.86099000 -0.10384300 0.73145700 -0.67393398 1.905766e-42
-13.50210000 49.86570000 486.97900000 -0.11226000 0.73103797 -0.67303902 1.905766e-42
-14.38320000 50.86040100 488.19400000 -0.11631400 0.73147899 -0.67186999 1.905766e-42
-15.10540000 51.91960100 489.45700000 -0.12127500 0.73154199 -0.67092401 1.905766e-42
-16.32169900 52.61859900 490.58499000 -0.12557100 0.73311800 -0.66840899 1.905766e-42
-17.06629900 53.59569900 491.90100000 -0.13142900 0.73334199 -0.66703498 1.905766e-42
-15.66730000 54.54510100 492.51801000 -0.13495500 0.72890502 -0.67118198 1.905766e-42
-14.10340000 55.30720100 492.98001000 -0.13389800 0.72491801 -0.67569602 1.905766e-42
-12.73730000 56.11890000 493.82599000 -0.10365400 0.72673500 -0.67905200 1.905766e-42
-11.19580000 56.93999900 494.26099000 -0.07144830 0.72726399 -0.68262899 1.905766e-42
-9.55953980 57.54349900 494.70599000 -0.04063950 0.72584897 -0.68665302 1.905766e-42
-8.16759010 58.30509900 495.55600000 -0.01668820 0.72186399 -0.69183302 1.905766e-42
-6.65852020 59.00809900 496.24100000 0.01435200 0.71806699 -0.69582599 1.905766e-42
-5.26449010 59.72489900 497.12601000 0.04424670 0.71432900 -0.69840997 1.905766e-42
-3.54041000 60.06600200 497.51501000 0.08193170 0.71286100 -0.69650298 1.905766e-42
-2.43660000 60.79299900 498.73599000 0.10965000 0.71049201 -0.69511002 1.905766e-42
-0.65211397 60.76330200 498.97000000 0.14836100 0.71157402 -0.68676901 1.905766e-42
0.48881599 59.74620100 498.01999000 0.16637300 0.71491498 -0.67913002 1.905766e-42
1.90565000 58.77240000 497.48700000 0.19211300 0.71771902 -0.66930801 1.905766e-42
3.15658000 57.73619800 496.71100000 0.21235500 0.72057003 -0.66006303 1.905766e-42
3.99145010 56.59249900 495.60001000 0.22117400 0.72370303 -0.65371001 1.905766e-42
4.90363980 55.44049800 494.56000000 0.23135500 0.72680402 -0.64670700 1.905766e-42
5.74787000 54.24620100 493.51099000 0.23956500 0.72996002 -0.64013100 1.905766e-42
6.98218010 53.11600100 492.84799000 0.25845399 0.73202300 -0.63035202 1.905766e-42
7.80428980 51.98199800 491.71799000 0.26737401 0.73526102 -0.62281901 1.905766e-42
8.53641030 50.76390100 490.61301000 0.27495199 0.73908901 -0.61493802 1.905766e-42
9.42883970 49.60419800 489.56500000 0.28604099 0.73922801 -0.60969102 1.905766e-42
10.15000000 48.38890100 488.45001000 0.29337901 0.73853302 -0.60704100 1.905766e-42
11.32820000 47.09299900 488.03400000 0.31489101 0.73668802 -0.59844297 1.905766e-42
12.02400000 46.16140000 486.66000000 0.31849700 0.73626900 -0.59705001 1.905766e-42
13.42360000 45.05640000 486.41501000 0.34396401 0.73406899 -0.58551800 1.905766e-42
14.62450000 43.94630100 485.66299000 0.35487899 0.73338097 -0.57983899 1.905766e-42
15.81900000 42.83900100 484.89700000 0.36575401 0.73261201 -0.57402498 1.905766e-42
17.08550100 41.56280100 484.81201000 0.38264099 0.73091799 -0.56510597 1.905766e-42
17.85940000 40.67570100 483.45001000 0.38488001 0.73104799 -0.56341499 1.905766e-42
19.04100000 39.58359900 482.64301000 0.39640701 0.73063600 -0.55590701 1.905766e-42
19.95190000 38.38830200 481.65201000 0.40351301 0.73304999 -0.54755402 1.905766e-42
20.96380000 37.11669900 480.87799000 0.41404399 0.73440599 -0.53778797 1.905766e-42
21.50250100 35.95819900 479.60999000 0.41458601 0.73791099 -0.53254700 1.905766e-42
22.19800000 34.75040100 478.47101000 0.41835600 0.74058098 -0.52585000 1.905766e-42
22.67300000 33.53360000 477.23300000 0.41844699 0.74393201 -0.52102399 1.905766e-42
23.31100100 32.28960000 476.09900000 0.42097500 0.74662000 -0.51511002 1.905766e-42
23.51059900 31.28669900 474.61801000 0.41567501 0.75083500 -0.51328498 1.905766e-42
23.89160000 30.16880000 473.26001000 0.41373399 0.75336897 -0.51113498 1.905766e-42
24.53210100 28.92100000 472.13101000 0.41718599 0.75332201 -0.50839198 1.905766e-42
24.92090000 27.86030000 470.73001000 0.41575900 0.75425202 -0.50818098 1.905766e-42
25.40169900 26.75090000 469.39700000 0.41574800 0.75488102 -0.50725502 1.905766e-42
25.78019900 25.66250000 468.01401000 0.41452101 0.75574797 -0.50696802 1.905766e-42
26.27000000 24.48710100 466.74200000 0.41537800 0.75615901 -0.50565201 1.905766e-42
27.04750100 23.28019900 465.65601000 0.42019099 0.75565398 -0.50242001 1.905766e-42
27.73410000 22.02090100 464.56799000 0.42381999 0.75537598 -0.49978399 1.905766e-42
28.20579900 20.97510000 463.18100000 0.42370701 0.75598699 -0.49895501 1.905766e-42
28.77790100 19.85530100 461.89301000 0.42486000 0.75637197 -0.49738899 1.905766e-42
29.47190100 18.55430000 460.86099000 0.42820400 0.75625199 -0.49469599 1.905766e-42
29.73220100 17.68090100 459.30899000 0.42524901 0.75758100 -0.49521199 1.905766e-42
30.60210000 16.35899900 458.45099000 0.43081799 0.75690699 -0.49141401 1.905766e-42
31.17499900 15.22050000 457.17999000 0.43219301 0.75722498 -0.48971301 1.905766e-42
31.10390100 14.43910000 455.56000000 0.42604300 0.75932699 -0.49184299 1.905766e-42
31.88990000 13.26280000 454.44699000 0.43046799 0.75890797 -0.48862699 1.905766e-42
32.17639900 12.20900000 453.01599000 0.42869100 0.76000702 -0.48848099 1.905766e-42
33.11290000 10.91810000 452.18201000 0.43842801 0.75244200 -0.49154001 1.905766e-42
33.43050000 9.91983990 450.71799000 0.43864700 0.74646002 -0.50038600 1.905766e-42
33.78570200 8.81556990 449.34201000 0.43961599 0.74016798 -0.50881100 1.905766e-42
34.55849800 7.56864980 448.29800000 0.44662800 0.73265100 -0.51356101 1.905766e-42
35.24390000 6.27337980 447.25299000 0.45258901 0.72524399 -0.51883000 1.905766e-42
35.80550000 5.11136010 445.99899000 0.45589599 0.71822798 -0.52564901 1.905766e-42
36.34700000 3.86697010 444.81601000 0.45937699 0.71109802 -0.53227103 1.905766e-42
36.62390100 2.78243990 443.40601000 0.45890701 0.70473403 -0.54106897 1.905766e-42
36.77040100 1.59894000 442.05801000 0.45757499 0.69624299 -0.55305701 1.905766e-42
37.45150000 0.31438401 440.99701000 0.46220100 0.68503100 -0.56311798 1.905766e-42
38.26020100 -1.00804000 440.08200000 0.46770000 0.67366999 -0.57221198 1.905766e-42
38.77730200 -2.34622000 438.99500000 0.46941701 0.66156101 -0.58479398 1.905766e-42
39.13370100 -3.66910000 437.82700000 0.46944600 0.64841300 -0.59931701 1.905766e-42
39.65639900 -5.05503990 436.80499000 0.47159100 0.63396603 -0.61293399 1.905766e-42
39.91180000 -6.40169000 435.63800000 0.47240701 0.61767298 -0.62873799 1.905766e-42
40.14220000 -7.75715020 434.47601000 0.47502401 0.59932101 -0.64433402 1.905766e-42
40.89040000 -9.21595000 433.73300000 0.48224801 0.58489400 -0.65217698 1.905766e-42
41.38280100 -10.68370000 432.81500000 0.48579901 0.57254702 -0.66044599 1.905766e-42
42.00220100 -12.22130000 432.11301000 0.48889801 0.56152499 -0.66758400 1.905766e-42
42.36650100 -13.67480000 431.11600000 0.48718500 0.55100399 -0.67752898 1.905766e-42
