# .PCD v0.7 - Point Cloud Data file format
# 2 152 1
# 1 73 1
# 74 152 0
VERSION 0.7
FIELDS x y z normal_x normal_y normal_z curvature
SIZE 4 4 4 4 4 4 4
TYPE F F F F F F F
COUNT 1 1 1 1 1 1 1
WIDTH 152
HEIGHT 1
VIEWPOINT 0 0 0 1 0 0 0
POINTS 152
DATA ascii
1.31551000 50.05080000 406.17899000 0.09837380 0.72095603 0.68596298 1.905766e-42
0.60965300 48.95489900 407.42001000 0.10273500 0.71271199 0.69389302 1.905766e-42
-0.25035200 47.83570100 408.53699000 0.10412800 0.70348400 0.70304197 1.905766e-42
-1.01235000 46.70610000 409.71301000 0.09488340 0.69393498 0.71375799 1.905766e-42
-1.62597000 45.52990000 410.92999000 0.08417310 0.68439102 0.72424001 1.905766e-42
-1.76583000 44.35839800 412.28900000 0.07388200 0.67611402 0.73308402 1.905766e-42
-2.59817000 43.17720000 413.36301000 0.06330260 0.66604102 0.74322498 1.905766e-42
-3.34733010 41.95360200 414.44901000 0.05350090 0.65638798 0.75252402 1.905766e-42
-4.03970000 40.68149900 415.51801000 0.04499200 0.64731002 0.76089799 1.905766e-42
-4.40090990 39.39740000 416.72699000 0.03910560 0.63891703 0.76828098 1.905766e-42
-5.08483980 38.08570100 417.75201000 0.03242150 0.63070297 0.77534699 1.905766e-42
-5.59890990 36.75490200 418.85001000 0.02726760 0.62112200 0.78324002 1.905766e-42
-5.49537990 35.44380200 420.07901000 0.02784840 0.60828698 0.79322797 1.905766e-42
-6.49186990 34.19250100 420.90399000 0.01645770 0.59693903 0.80211800 1.905766e-42
-6.96021990 32.78850200 421.92899000 0.00911986 0.58385497 0.81180698 1.905766e-42
-7.53526020 31.36380000 422.86700000 0.00019290 0.57095701 0.82098001 1.905766e-42
-8.08267020 29.90650000 423.76999000 -0.00834444 0.55835497 0.82955998 1.905766e-42
-8.22482010 28.51210000 424.89999000 -0.01150080 0.54610801 0.83763599 1.905766e-42
-8.23046970 27.05340000 425.95401000 -0.01214530 0.53421998 0.84525800 1.905766e-42
-8.91082950 25.60610000 426.78000000 -0.01279190 0.52373302 0.85178602 1.905766e-42
-9.48348050 24.10740100 427.59601000 -0.01150420 0.51287299 0.85838699 1.905766e-42
-9.74862000 22.59420000 428.53400000 -0.01471060 0.50023502 0.86576402 1.905766e-42
-9.95961000 21.04929900 429.43399000 -0.01990240 0.48754799 0.87286901 1.905766e-42
-10.51250000 19.50840000 430.18201000 -0.02932890 0.47437599 0.87983400 1.905766e-42
-10.70380000 17.94599900 431.05499000 -0.03759460 0.46179399 0.88619000 1.905766e-42
-11.28260000 16.36560100 431.69299000 -0.05121730 0.44860300 0.89226300 1.905766e-42
-11.37990000 14.81180000 432.59698000 -0.05919350 0.43690699 0.89755702 1.905766e-42
-12.02740000 13.19640000 433.05600000 -0.07564940 0.42438301 0.90231699 1.905766e-42
-12.05030000 11.61390000 433.91400000 -0.08162560 0.41390100 0.90665501 1.905766e-42
-12.09550000 10.00190000 434.71301000 -0.08696220 0.39860901 0.91298902 1.905766e-42
-12.30740000 8.35758020 435.41400000 -0.09509650 0.38183501 0.91932499 1.905766e-42
-12.31220000 6.71221020 436.14401000 -0.09793160 0.36590499 0.92548501 1.905766e-42
-12.82140000 5.07651000 436.69699000 -0.11079700 0.35020000 0.93009901 1.905766e-42
-12.88800000 3.39590000 437.33801000 -0.11269700 0.33524400 0.93536699 1.905766e-42
-13.12560000 1.68203000 437.83401000 -0.11692200 0.32090300 0.93986702 1.905766e-42
-13.25630000 -0.02139530 438.40100000 -0.11687100 0.30710500 0.94447201 1.905766e-42
-13.60980000 -1.75896000 438.71100000 -0.11968600 0.29477599 0.94804102 1.905766e-42
-13.61790000 -3.47748990 439.24600000 -0.11320000 0.28163600 0.95282000 1.905766e-42
-13.61670000 -5.18390990 439.81900000 -0.10621300 0.26651400 0.95796102 1.905766e-42
-13.62310000 -6.90488000 440.34601000 -0.10024300 0.25099999 0.96278298 1.905766e-42
-13.65190000 -8.64717960 440.79700000 -0.09555620 0.23514400 0.96725202 1.905766e-42
-13.64200000 -10.39500000 441.22800000 -0.09131890 0.21883000 0.97148001 1.905766e-42
-13.60430000 -12.15480000 441.60400000 -0.08786060 0.20217000 0.97540098 1.905766e-42
-13.60390000 -13.93040000 441.89899000 -0.08595230 0.18528099 0.97891903 1.905766e-42
-13.42580000 -15.68900000 442.23999000 -0.08337220 0.16820399 0.98221999 1.905766e-42
-12.86220000 -17.34070000 442.67999000 -0.07837240 0.15225001 0.98523003 1.905766e-42
-12.83770000 -19.12350100 442.92700000 -0.07962610 0.13667899 0.98741001 1.905766e-42
-12.84290000 -20.91120000 443.13699000 -0.08085790 0.12311900 0.98909199 1.905766e-42
-12.82110000 -22.70050000 443.33200000 -0.08129800 0.10907300 0.99070400 1.905766e-42
-12.80550000 -24.49220100 443.50400000 -0.08148040 0.09452860 0.99218202 1.905766e-42
-12.79990000 -26.28780000 443.63000000 -0.08169840 0.07950550 0.99348098 1.905766e-42
-12.73280000 -28.08400000 443.72601000 -0.08160190 0.06406000 0.99460399 1.905766e-42
-12.26270000 -29.80010000 443.99799000 -0.07801040 0.04912840 0.99574101 1.905766e-42
-12.08740000 -31.59070000 444.05099000 -0.07754730 0.03335590 0.99643099 1.905766e-42
-12.12830000 -33.38880200 443.97800000 -0.08012640 0.01747680 0.99663198 1.905766e-42
-12.01240000 -35.18489800 443.95599000 -0.07978280 0.00342597 0.99680603 1.905766e-42
-11.22950000 -36.85680000 444.20099000 -0.06885870 -0.01120660 0.99756300 1.905766e-42
-11.40190000 -38.63670000 443.99600000 -0.06968750 -0.02740980 0.99719203 1.905766e-42
-11.10540000 -40.41199900 443.97800000 -0.06352980 -0.04498800 0.99696499 1.905766e-42
-10.68830000 -42.16270100 443.94400000 -0.05590810 -0.06329080 0.99642801 1.905766e-42
-10.41840000 -43.93600100 443.79401000 -0.05112520 -0.08227570 0.99529701 1.905766e-42
-10.40620000 -45.69929900 443.43301000 -0.05114220 -0.10185100 0.99348402 1.905766e-42
-9.61190990 -47.30810200 443.57800000 -0.04293820 -0.11827000 0.99205297 1.905766e-42
-8.86493020 -48.94160100 443.46201000 -0.03475880 -0.13484900 0.99025601 1.905766e-42
-8.80826000 -50.71009800 443.13101000 -0.03642620 -0.15382600 0.98742598 1.905766e-42
-8.66014960 -52.45050000 442.69601000 -0.03477140 -0.17079200 0.98469299 1.905766e-42
-7.88745020 -54.07429900 442.61700000 -0.02261350 -0.18546100 0.98239100 1.905766e-42
-7.20704980 -55.71960100 442.35199000 -0.01231790 -0.20001300 0.97971600 1.905766e-42
-7.02623990 -57.45280100 441.90100000 -0.00871873 -0.21441300 0.97670400 1.905766e-42
-6.40201000 -59.10609800 441.55899000 -0.00099122 -0.22749799 0.97377801 1.905766e-42
-6.16089010 -60.80559900 441.01700000 0.00156055 -0.24013001 0.97073901 1.905766e-42
-5.50191020 -62.44329800 440.66501000 0.00839325 -0.25130799 0.96787101 1.905766e-42
-4.84220980 -64.07280000 440.27899000 0.01477820 -0.26166901 0.96504498 1.905766e-42
-4.13847020 -65.67019700 439.83899000 0.01943000 -0.27067900 0.96247298 1.905766e-42
-2.39885000 -66.10289800 439.67700000 0.03202550 -0.26930699 0.96252197 1.905766e-42
-0.76827198 -65.35800200 439.83899000 0.04469970 -0.26062199 0.96440500 1.905766e-42
0.92877102 -64.75949900 439.88101000 0.05503710 -0.25295600 0.96591097 1.905766e-42
2.40945010 -63.74670000 440.03000000 0.06598160 -0.24343500 0.96767002 1.905766e-42
3.39870000 -62.26950100 440.31100000 0.07765070 -0.23148599 0.96973401 1.905766e-42
4.70859000 -61.04010000 440.42300000 0.10773300 -0.21697401 0.97021401 1.905766e-42
5.98224020 -59.76900100 440.47101000 0.15199900 -0.19784500 0.96837699 1.905766e-42
7.13355020 -58.39149900 440.60101000 0.20109400 -0.17644100 0.96355098 1.905766e-42
8.30220990 -57.02710000 440.71301000 0.25359699 -0.15476200 0.95484900 1.905766e-42
9.74320980 -55.97440000 440.47800000 0.27784300 -0.13433801 0.95118701 1.905766e-42
10.47660000 -54.33050200 440.47800000 0.27963200 -0.12096000 0.95245701 1.905766e-42
11.38350000 -52.80519900 440.17700000 0.27074301 -0.11044900 0.95629400 1.905766e-42
12.23130000 -51.22240100 440.04999000 0.25882101 -0.10326500 0.96038997 1.905766e-42
12.89190000 -49.54990000 440.12900000 0.24626701 -0.09699990 0.96433598 1.905766e-42
13.66350000 -47.92380100 440.14801000 0.23169599 -0.08790840 0.96880800 1.905766e-42
14.27220000 -46.23040000 440.19000000 0.22709700 -0.07711200 0.97081399 1.905766e-42
15.36750000 -44.80849800 440.05301000 0.24179301 -0.06800030 0.96794200 1.905766e-42
16.43440100 -43.37590000 439.83099000 0.26038700 -0.05704800 0.96381700 1.905766e-42
17.64670000 -42.11439900 439.40799000 0.28531301 -0.04629790 0.95731598 1.905766e-42
17.80979900 -40.33110000 439.59100000 0.28961700 -0.03351940 0.95655501 1.905766e-42
19.06360100 -39.10160100 439.19601000 0.31504199 -0.02417270 0.94876999 1.905766e-42
20.09510000 -37.66310100 438.86899000 0.31345499 -0.01120610 0.94953698 1.905766e-42
20.84950100 -36.04110000 438.66901000 0.32239100 0.00142879 0.94660598 1.905766e-42
21.37690000 -34.32930000 438.49100000 0.33704701 0.01314570 0.94139600 1.905766e-42
22.42320100 -32.95850000 437.97501000 0.35904199 0.03430080 0.93269098 1.905766e-42
22.67750000 -31.17720000 437.92700000 0.37875801 0.04867370 0.92421502 1.905766e-42
23.28990000 -29.51919900 437.58701000 0.40410301 0.06520570 0.91238701 1.905766e-42
23.27910000 -27.72629900 437.42801000 0.41735801 0.07611220 0.90554899 1.905766e-42
24.02389900 -26.20030000 436.83099000 0.44568399 0.09001600 0.89065301 1.905766e-42
24.03830000 -24.40660100 436.68100000 0.45399499 0.09933890 0.88544899 1.905766e-42
24.22800100 -22.64150000 436.38300000 0.46368900 0.10904400 0.87926197 1.905766e-42
24.80660100 -21.02809900 435.83401000 0.48039600 0.11672600 0.86924899 1.905766e-42
24.80439900 -19.24460000 435.59100000 0.47913900 0.12934300 0.86815703 1.905766e-42
24.81279900 -17.46590000 435.31500000 0.47742501 0.14360601 0.86685801 1.905766e-42
24.68470000 -15.67970000 435.13300000 0.47143999 0.15832999 0.86756903 1.905766e-42
24.79800000 -13.92910000 434.73001000 0.47138500 0.17187500 0.86501801 1.905766e-42
24.75200100 -12.16610000 434.37000000 0.46734500 0.18596400 0.86429501 1.905766e-42
24.58720000 -10.38950000 434.13199000 0.45983899 0.20054100 0.86506099 1.905766e-42
24.81360100 -8.69104000 433.57999000 0.46098101 0.21278299 0.86152202 1.905766e-42
24.81640100 -6.95123000 433.11899000 0.45712301 0.22608601 0.86018801 1.905766e-42
24.56839900 -5.20710990 432.74899000 0.44881600 0.23978600 0.86085200 1.905766e-42
24.17820000 -3.47015000 432.48300000 0.43748799 0.25273401 0.86297703 1.905766e-42
24.64450100 -1.90027000 431.73599000 0.43988401 0.26093701 0.85930997 1.905766e-42
24.62660000 -0.19502600 431.16000000 0.43298501 0.27281401 0.85912502 1.905766e-42
23.99430100 1.48108010 430.98499000 0.41727400 0.28871199 0.86170101 1.905766e-42
23.92910000 3.18062000 430.39600000 0.40848100 0.30214599 0.86130798 1.905766e-42
23.13760000 4.78213980 430.17499000 0.39116701 0.31981501 0.86296397 1.905766e-42
23.49099900 6.35960010 429.38400000 0.38617799 0.33090901 0.86102599 1.905766e-42
23.20680000 8.05000020 428.83401000 0.37293401 0.34748200 0.86033499 1.905766e-42
22.41650000 9.64680000 428.57800000 0.35609499 0.36588100 0.85984200 1.905766e-42
22.47620000 11.28960000 427.84500000 0.34491599 0.37761199 0.85932702 1.905766e-42
22.17880100 12.91210000 427.12399000 0.33068699 0.39214799 0.85840899 1.905766e-42
21.62529900 14.51970000 426.53299000 0.31612799 0.40872601 0.85615802 1.905766e-42
20.88610100 16.11790100 426.16000000 0.30373999 0.42612699 0.85214901 1.905766e-42
19.90200000 17.58540000 425.81601000 0.29446399 0.44281200 0.84688097 1.905766e-42
19.65800100 19.16710100 424.99301000 0.28433299 0.45757401 0.84248501 1.905766e-42
18.87550000 20.66169900 424.36499000 0.27097499 0.47389001 0.83785498 1.905766e-42
17.95439900 22.12210100 423.85599000 0.25853801 0.48972100 0.83266503 1.905766e-42
17.30660100 23.65099900 423.16101000 0.24850200 0.50163901 0.82861602 1.905766e-42
16.66239900 25.17289900 422.44800000 0.23943000 0.51059800 0.82581002 1.905766e-42
15.95160000 26.67440000 421.75500000 0.23158200 0.51941103 0.82254601 1.905766e-42
15.24160000 28.14450100 420.99701000 0.22518100 0.52788001 0.81892401 1.905766e-42
14.83540000 29.61820000 420.04700000 0.22230200 0.53558701 0.81469500 1.905766e-42
14.15120000 31.07090000 419.23300000 0.22921699 0.54269499 0.80804801 1.905766e-42
13.39880000 32.51850100 418.47299000 0.23828100 0.54960400 0.80072302 1.905766e-42
12.62350000 33.97340000 417.75000000 0.24766000 0.55678099 0.79288000 1.905766e-42
11.91010000 35.37839900 416.88000000 0.25398901 0.56490397 0.78509402 1.905766e-42
10.70980000 36.67590000 416.54001000 0.26884499 0.57294899 0.77424300 1.905766e-42
10.21150000 38.13800000 415.61600000 0.26704201 0.58836502 0.76322699 1.905766e-42
9.59121040 39.53810100 414.67001000 0.24586099 0.60733801 0.75544202 1.905766e-42
8.87166020 40.91080100 413.75500000 0.21403100 0.62707198 0.74898100 1.905766e-42
8.31019970 42.24079900 412.67999000 0.18573900 0.64448798 0.74171197 1.905766e-42
7.26324990 43.50109900 411.93399000 0.14770800 0.66325498 0.73367202 1.905766e-42
6.48304990 44.72320200 410.86700000 0.11892100 0.67856699 0.72484797 1.905766e-42
6.11037020 45.93940000 409.59399000 0.10039600 0.69022697 0.71659398 1.905766e-42
4.97663020 47.04639800 408.73999000 0.07759760 0.70242298 0.70751703 1.905766e-42
3.76895000 48.10910000 407.93201000 0.07456890 0.71117198 0.69905198 1.905766e-42
2.65459990 49.16170100 406.98901000 0.08164520 0.71783900 0.69140500 1.905766e-42
