# .PCD v0.7 - Point Cloud Data file format
# 3 43 0
# 1 15 0
# 16 25 0
# 26 43 0
VERSION 0.7
FIELDS x y z normal_x normal_y normal_z curvature
SIZE 4 4 4 4 4 4 4
TYPE F F F F F F F
COUNT 1 1 1 1 1 1 1
WIDTH 43
HEIGHT 1
VIEWPOINT 0 0 0 1 0 0 0
POINTS 43
DATA ascii
31.88730000 5.10480020 460.31400000 -0.26258501 -0.86637503 0.42478701 1.905766e-42
31.53540000 5.59448000 460.26700000 -0.25524700 -0.86802298 0.42589200 1.905766e-42
29.91090000 5.82780980 459.52802000 -0.23647501 -0.87526900 0.42188001 1.905766e-42
28.24700000 5.85678010 458.84201000 -0.21172400 -0.88091898 0.42326599 1.905766e-42
26.53060000 6.34580990 459.07599000 -0.18436199 -0.87497902 0.44768599 1.905766e-42
24.81080100 6.37876990 458.54501000 -0.17037100 -0.86174601 0.47787800 1.905766e-42
23.13769900 6.29052020 457.88699000 -0.16324300 -0.85393602 0.49410900 1.905766e-42
21.45680000 6.92708020 457.98300000 -0.19604300 -0.77330798 0.60296100 1.905766e-42
19.67100000 7.12520980 457.87500000 -0.15590000 -0.75796098 0.63339502 1.905766e-42
17.91500100 7.17649980 457.48300000 -0.14876799 -0.77058899 0.61972600 1.905766e-42
16.19960000 7.17288020 456.93799000 -0.14654700 -0.78265399 0.60496002 1.905766e-42
14.45170000 7.07632020 456.51901000 -0.11427300 -0.78384203 0.61035502 1.905766e-42
12.74860000 6.77144000 456.02200000 -0.06692520 -0.79245001 0.60625398 1.905766e-42
10.95390000 6.90833000 456.00500000 -0.04403660 -0.78231502 0.62132400 1.905766e-42
9.40756030 6.38767000 455.24500000 -0.01371820 -0.81334299 0.58162200 1.905766e-42
7.74085000 6.02561000 454.67001000 0.02747210 -0.84444797 0.53493297 1.905766e-42
7.25601010 5.10447980 453.20099000 0.01111960 -0.87857199 0.47747999 1.905766e-42
7.73009010 4.44634010 451.59399000 0.00695455 -0.89645898 0.44307199 1.905766e-42
8.86089990 3.79670000 450.35400000 0.01919570 -0.89752603 0.44054401 1.905766e-42
9.45802020 3.00517990 448.85199000 0.03792470 -0.89086401 0.45268500 1.905766e-42
10.20400000 2.27732990 447.38400000 0.05805650 -0.88205397 0.46755800 1.905766e-42
10.37240000 1.39733000 445.82300000 0.04216060 -0.84780198 0.52863401 1.905766e-42
10.95410000 0.41134000 444.43399000 0.01141110 -0.79733700 0.60342598 1.905766e-42
11.08600000 -0.69166499 443.01700000 -0.01067550 -0.74711299 0.66461200 1.905766e-42
11.07940000 -1.98770000 441.76801000 -0.03674520 -0.69846499 0.71469998 1.905766e-42
11.56220000 -3.19254990 440.52100000 -0.03091150 -0.70931399 0.70421398 1.905766e-42
13.33630000 -3.04161000 440.78500000 -0.03352180 -0.71347499 0.69987798 1.905766e-42
14.55460000 -2.13333010 441.75000000 -0.04478370 -0.71040797 0.70236403 1.905766e-42
15.61830000 -1.19669000 442.85999000 -0.08583060 -0.71854597 0.69016302 1.905766e-42
17.28610000 -0.85672200 443.44501000 -0.11352300 -0.74680400 0.65528297 1.905766e-42
18.58239900 -0.23188700 444.52701000 -0.13372999 -0.76900899 0.62509400 1.905766e-42
20.15850100 0.17978001 445.29300000 -0.12936699 -0.80225003 0.58280301 1.905766e-42
21.50709900 0.64789999 446.38901000 -0.13983101 -0.83820802 0.52711999 1.905766e-42
22.71509900 1.14433000 447.62799000 -0.15977800 -0.86548901 0.47476199 1.905766e-42
24.27720100 1.47909000 448.45700000 -0.13999701 -0.89172500 0.43037999 1.905766e-42
25.13120100 1.91603990 449.98001000 -0.17097600 -0.88359398 0.43592399 1.905766e-42
26.64520100 2.24328990 450.89700000 -0.14183199 -0.89622301 0.42031801 1.905766e-42
27.62260100 2.65206000 452.35199000 -0.14998300 -0.88239700 0.44595999 1.905766e-42
28.93100000 3.07401990 453.51401000 -0.15941601 -0.88748997 0.43237400 1.905766e-42
30.04540100 3.45287990 454.87601000 -0.20272601 -0.88633198 0.41631401 1.905766e-42
31.31010100 3.71782990 456.12900000 -0.22769500 -0.88801199 0.39948800 1.905766e-42
32.54909900 3.87843990 457.42499000 -0.23326400 -0.89049000 0.39066100 1.905766e-42
33.00680200 4.68155000 458.96899000 -0.26347101 -0.87251401 0.41146401 1.905766e-42
