# .PCD v0.7 - Point Cloud Data file format
# 6 181 0
# 1 32 0
# 33 56 0
# 57 95 0
# 96 120 0
# 121 159 0
# 160 181 0
VERSION 0.7
FIELDS x y z normal_x normal_y normal_z curvature
SIZE 4 4 4 4 4 4 4
TYPE F F F F F F F
COUNT 1 1 1 1 1 1 1
WIDTH 181
HEIGHT 1
VIEWPOINT 0 0 0 1 0 0 0
POINTS 181
DATA ascii
36.78699900 -12.11840000 394.57401000 -0.05079810 0.96956301 -0.23951600 1.905766e-42
35.10139800 -12.03350000 395.19901000 -0.05454270 0.97058600 -0.23449600 1.905766e-42
33.63800000 -12.06220000 395.62799000 -0.04609080 0.97092301 -0.23491500 1.905766e-42
31.89720000 -12.02520000 396.08401000 -0.03675540 0.97118998 -0.23545600 1.905766e-42
30.13030100 -12.02970000 396.42801000 -0.02802050 0.97146797 -0.23550799 1.905766e-42
28.36160100 -12.02430000 396.76199000 -0.02030490 0.97158200 -0.23583300 1.905766e-42
26.57250000 -12.03190000 396.95901000 -0.01359740 0.97174001 -0.23566100 1.905766e-42
24.77319900 -12.02010000 397.00900000 0.01727060 0.96992499 -0.24278900 1.905766e-42
22.98979900 -12.11220000 396.78299000 0.04923200 0.96741998 -0.24834400 1.905766e-42
21.20389900 -11.88680000 396.78201000 0.08155750 0.96316999 -0.25622699 1.905766e-42
19.65889900 -11.44010000 397.59000000 0.11242800 0.95635200 -0.26972499 1.905766e-42
18.36080000 -10.88490000 398.70700000 0.14014199 0.94825500 -0.28490999 1.905766e-42
16.65340000 -10.57480000 399.18399000 0.16970900 0.93973100 -0.29682401 1.905766e-42
15.11650000 -10.04290000 399.95599000 0.19720501 0.92985201 -0.31062099 1.905766e-42
13.57620000 -9.46370980 400.68500000 0.22431000 0.91914302 -0.32382199 1.905766e-42
11.98330000 -8.83979990 401.24500000 0.25112101 0.90782601 -0.33584401 1.905766e-42
10.51680000 -8.10447980 401.98599000 0.27698699 0.89558297 -0.34815100 1.905766e-42
8.96203990 -7.34828000 402.48700000 0.30250201 0.88297403 -0.35895601 1.905766e-42
7.40746020 -6.57447000 402.95999000 0.32726601 0.86987799 -0.36906701 1.905766e-42
5.73778010 -5.92856980 403.14700000 0.32811901 0.86857200 -0.37137699 1.905766e-42
4.29582020 -5.05206010 403.77399000 0.32749400 0.86792898 -0.37342700 1.905766e-42
2.63691000 -4.36674980 403.90900000 0.32772201 0.86846203 -0.37198499 1.905766e-42
0.99737400 -3.66919990 404.16501000 0.32844299 0.86935598 -0.36925101 1.905766e-42
-0.55743998 -2.86044000 404.57599000 0.32906300 0.87073302 -0.36543399 1.905766e-42
-2.21947000 -2.19416000 404.75900000 0.33138299 0.87251300 -0.35903400 1.905766e-42
-3.62201000 -1.32666000 405.48001000 0.31949300 0.88047397 -0.35027099 1.905766e-42
-5.31107000 -0.71186697 405.57599000 0.31237501 0.88823700 -0.33683199 1.905766e-42
-6.99269010 -0.09085670 405.73901000 0.30603501 0.89607698 -0.32154000 1.905766e-42
-8.54424000 0.62294900 406.30701000 0.29674101 0.90452600 -0.30623299 1.905766e-42
-10.26890000 1.13817000 406.32300000 0.29502100 0.91156799 -0.28636801 1.905766e-42
-12.02430000 1.53602000 406.32901000 0.29076701 0.92001998 -0.26271099 1.905766e-42
-13.58140000 2.32104990 406.77499000 0.26464701 0.93522400 -0.23519699 1.905766e-42
-15.20830000 2.98421000 407.16699000 0.23812699 0.94947702 -0.20442501 1.905766e-42
-15.92780000 3.50458000 408.73300000 0.19711600 0.96105403 -0.19370200 1.905766e-42
-16.64539900 3.94588990 410.32300000 0.15329400 0.97075498 -0.18476000 1.905766e-42
-17.08589900 4.19850020 412.04999000 0.10912100 0.97677100 -0.18442300 1.905766e-42
-17.32980000 4.60486980 413.78699000 0.06545960 0.97945702 -0.19073500 1.905766e-42
-17.38470100 5.08773990 415.51999000 0.02428380 0.97852898 -0.20467600 1.905766e-42
-17.12369900 5.48130990 417.25699000 -0.00992539 0.97318900 -0.22979100 1.905766e-42
-17.50530100 5.79387000 418.98801000 -0.02711050 0.96676499 -0.25422499 1.905766e-42
-17.94109900 5.98699000 420.72400000 -0.02683860 0.95606101 -0.29193601 1.905766e-42
-17.70800000 6.48582980 422.43701000 -0.04545440 0.93436003 -0.35341901 1.905766e-42
-18.12660000 6.74129010 424.16901000 -0.04253440 0.90759701 -0.41768301 1.905766e-42
-17.11829900 7.69988010 425.31100000 -0.06181860 0.87888998 -0.47300199 1.905766e-42
-16.05870100 8.65231040 426.41101000 -0.07265050 0.85067898 -0.52064103 1.905766e-42
-15.93170000 9.63477990 427.91400000 -0.05756650 0.80885798 -0.58517897 1.905766e-42
-15.18670000 10.78530000 429.08099000 -0.04658540 0.77149397 -0.63452899 1.905766e-42
-14.37900000 11.92730000 430.21399000 -0.02992380 0.73398799 -0.67850298 1.905766e-42
-14.15650000 13.12900000 431.53500000 0.00523134 0.70540202 -0.70878798 1.905766e-42
-13.61550000 14.36820000 432.72400000 0.04489030 0.69669098 -0.71596497 1.905766e-42
-13.20380000 15.64670000 433.92200000 0.08133680 0.68576199 -0.72326702 1.905766e-42
-13.51540000 16.94630100 435.12799000 0.10969400 0.66654903 -0.73734599 1.905766e-42
-14.71440000 18.00960000 435.94699000 0.12173000 0.64220101 -0.75680900 1.905766e-42
-16.13240100 18.92770000 436.56900000 0.12705299 0.61820197 -0.77568299 1.905766e-42
-17.55920000 19.87369900 437.12500000 0.13107499 0.59444797 -0.79337901 1.905766e-42
-18.03470000 21.38890100 437.97299000 0.15148599 0.57566798 -0.80352801 1.905766e-42
-17.64189900 22.78480000 439.03900000 0.18028501 0.56553400 -0.80477899 1.905766e-42
-16.41580000 23.72870100 439.95901000 0.20995900 0.56802702 -0.79577798 1.905766e-42
-14.69580000 23.89450100 440.46301000 0.23247799 0.58799601 -0.77473497 1.905766e-42
-13.39820000 24.58700000 441.50000000 0.26210701 0.60035902 -0.75555903 1.905766e-42
-12.37410000 25.46760000 442.69000000 0.29134500 0.60810202 -0.73846501 1.905766e-42
-11.23790000 26.24510000 443.85001000 0.31747201 0.61697799 -0.72010398 1.905766e-42
-9.68772030 26.49320000 444.73001000 0.33453399 0.63166499 -0.69934702 1.905766e-42
-8.40404030 27.03160100 445.87100000 0.35375899 0.64194298 -0.68026799 1.905766e-42
-7.43400000 27.86890000 447.13501000 0.37436000 0.64760399 -0.66367400 1.905766e-42
-6.27242990 28.45590000 448.37900000 0.39050001 0.65605301 -0.64583600 1.905766e-42
-5.15847020 29.05439900 449.66000000 0.39974001 0.65557498 -0.64064801 1.905766e-42
-3.87386990 29.47100100 450.85001000 0.39767101 0.65067101 -0.64690399 1.905766e-42
-2.87097000 30.15070000 452.18100000 0.39450201 0.64123303 -0.65817100 1.905766e-42
-1.91079000 30.84330000 453.53699000 0.38736701 0.63214099 -0.67107701 1.905766e-42
-0.96555102 31.55769900 454.89200000 0.37598899 0.62367100 -0.68532300 1.905766e-42
0.23358800 32.24100100 456.04800000 0.35590401 0.61877102 -0.70032501 1.905766e-42
1.23068000 33.01760100 457.32901000 0.33694699 0.61014199 -0.71707302 1.905766e-42
2.50585010 33.73040000 458.38101000 0.31178099 0.60235697 -0.73481899 1.905766e-42
3.47522000 34.65420200 459.58401000 0.28913599 0.59402502 -0.75068998 1.905766e-42
4.93384980 35.24430100 460.45801000 0.26186299 0.58781201 -0.76544398 1.905766e-42
5.87915990 36.32180000 461.54700000 0.24221000 0.57792598 -0.77931702 1.905766e-42
6.65958980 37.43809900 462.72299000 0.22588199 0.56661898 -0.79241401 1.905766e-42
7.72700980 38.59780100 463.59299000 0.20819999 0.55556399 -0.80498499 1.905766e-42
8.94641020 39.60440100 464.45300000 0.19028699 0.54507101 -0.81651002 1.905766e-42
10.14340000 40.57030100 465.38800000 0.17457999 0.53422099 -0.82712102 1.905766e-42
11.27810000 41.60689900 466.32501000 0.16349301 0.52664399 -0.83421600 1.905766e-42
12.56200000 42.51900100 467.19699000 0.15204300 0.52236903 -0.83905500 1.905766e-42
13.51160000 43.70920200 468.15701000 0.14414400 0.51529300 -0.84480500 1.905766e-42
14.87140000 44.60500000 468.92401000 0.13181099 0.51031399 -0.84982699 1.905766e-42
15.64910000 45.93890000 469.84900000 0.12509800 0.50142699 -0.85610801 1.905766e-42
16.45630100 47.21550000 470.82800000 0.11756200 0.49233001 -0.86243302 1.905766e-42
17.60840000 48.40679900 471.53101000 0.10698400 0.48409101 -0.86845303 1.905766e-42
18.82729900 49.52909900 472.23401000 0.09529140 0.47392899 -0.87539202 1.905766e-42
20.04760000 50.63010000 472.96799000 0.08242080 0.46178100 -0.88315701 1.905766e-42
21.25309900 51.75630200 473.68799000 0.06917160 0.45055300 -0.89006603 1.905766e-42
22.38170100 52.98120100 474.37000000 0.05563810 0.43988901 -0.89632702 1.905766e-42
23.01240000 54.51509900 475.07001000 0.04422810 0.43057099 -0.90147197 1.905766e-42
24.20610000 55.72729900 475.65799000 0.02790430 0.42172900 -0.90629297 1.905766e-42
25.80480000 56.48310100 475.99399000 0.00718635 0.41303399 -0.91068703 1.905766e-42
27.06559900 57.59140000 476.64401000 -0.01488130 0.40437001 -0.91447502 1.905766e-42
28.86030000 57.58140200 476.50699000 -0.03816220 0.39572299 -0.91757703 1.905766e-42
30.65510000 57.58250000 476.64401000 -0.06145350 0.38559499 -0.92061901 1.905766e-42
32.13330100 56.79610100 475.98401000 -0.07418270 0.38131699 -0.92146301 1.905766e-42
33.93199900 56.73619800 475.95200000 -0.09521820 0.37082800 -0.92380702 1.905766e-42
35.51670100 56.10820000 475.37399000 -0.10884200 0.36617401 -0.92415899 1.905766e-42
37.14279900 55.49480100 474.90500000 -0.12290600 0.36293599 -0.92367297 1.905766e-42
38.77059900 54.90580000 474.41199000 -0.13619401 0.36162299 -0.92232299 1.905766e-42
40.48989900 54.56760000 474.00000000 -0.15035000 0.35913500 -0.92109603 1.905766e-42
42.11529900 53.92960000 473.56299000 -0.16154100 0.36170101 -0.91819203 1.905766e-42
43.72129800 53.27539800 473.08099000 -0.17192100 0.36626300 -0.91449100 1.905766e-42
45.40440000 52.69480100 472.81601000 -0.18448500 0.37101099 -0.91011900 1.905766e-42
46.85649900 51.89899800 472.10999000 -0.19911601 0.38110399 -0.90283602 1.905766e-42
48.35800200 51.24039800 471.36700000 -0.21477100 0.38967499 -0.89556003 1.905766e-42
50.11100000 51.20299900 470.95999000 -0.23269001 0.39091799 -0.89052701 1.905766e-42
51.82090000 51.19689900 470.39801000 -0.25048000 0.39301899 -0.88475698 1.905766e-42
53.40779900 51.02870200 469.56500000 -0.26787400 0.39802599 -0.87739301 1.905766e-42
55.12609900 51.03010200 469.02899000 -0.28423601 0.40061200 -0.87104499 1.905766e-42
56.63130200 50.41439800 468.25699000 -0.29763699 0.40813100 -0.86304200 1.905766e-42
58.39790000 50.70349900 468.06900000 -0.31197599 0.40707201 -0.85846502 1.905766e-42
60.04510100 50.50080100 467.37201000 -0.32780701 0.41101801 -0.85065103 1.905766e-42
61.65800100 50.31219900 466.59500000 -0.34474301 0.41458899 -0.84218103 1.905766e-42
63.09439800 49.77759900 465.65100000 -0.36183000 0.41970000 -0.83242500 1.905766e-42
64.72860000 50.32360100 465.13000000 -0.37286800 0.41566601 -0.82957202 1.905766e-42
66.07710300 49.92649800 464.00601000 -0.37707800 0.41690299 -0.82704502 1.905766e-42
67.71109800 49.84680200 463.25500000 -0.38280201 0.41665000 -0.82453901 1.905766e-42
68.45449800 48.42779900 462.43500000 -0.38455701 0.42252299 -0.82072502 1.905766e-42
68.03839900 46.82700000 461.72400000 -0.38075700 0.43200701 -0.81755400 1.905766e-42
66.95600100 45.40160000 461.53299000 -0.37327299 0.44185901 -0.81573701 1.905766e-42
65.86560100 43.98170100 461.34601000 -0.36523399 0.45263800 -0.81346297 1.905766e-42
65.67030300 42.33449900 460.64700000 -0.36022201 0.46433800 -0.80909199 1.905766e-42
65.01290100 40.81990100 459.92999000 -0.35293299 0.47766000 -0.80453700 1.905766e-42
64.52449800 39.22079800 459.26401000 -0.34558001 0.49221000 -0.79893899 1.905766e-42
63.51260000 37.85570100 458.67001000 -0.33622801 0.50800198 -0.79302198 1.905766e-42
62.63999900 36.37220000 458.14301000 -0.32776600 0.52354401 -0.78642899 1.905766e-42
61.61520000 34.96540100 457.68399000 -0.31958801 0.53728098 -0.78050798 1.905766e-42
60.89830000 33.45679900 457.01300000 -0.31240800 0.55108100 -0.77376401 1.905766e-42
60.30820100 31.97010000 456.18701000 -0.30585200 0.56445402 -0.76671100 1.905766e-42
59.72160000 30.52650100 455.28601000 -0.29941601 0.57736599 -0.75960398 1.905766e-42
58.57630200 29.36879900 454.51999000 -0.29012901 0.58919603 -0.75410497 1.905766e-42
57.66040000 28.04270000 453.71799000 -0.28102800 0.60114902 -0.74809402 1.905766e-42
57.34840000 26.51590000 452.81699000 -0.27488199 0.61368799 -0.74015403 1.905766e-42
56.60720100 25.14500000 451.91599000 -0.26438400 0.62955499 -0.73058999 1.905766e-42
55.89600000 23.82140000 450.92499000 -0.25396100 0.64549899 -0.72030199 1.905766e-42
55.04219800 22.49300000 450.06100000 -0.24154601 0.66133201 -0.71013701 1.905766e-42
55.12390100 21.18339900 448.82901000 -0.23932800 0.67601699 -0.69693899 1.905766e-42
54.83829900 19.87850000 447.62299000 -0.23343199 0.69174600 -0.68337202 1.905766e-42
54.97180200 18.58350000 446.38000000 -0.23280901 0.70637101 -0.66846102 1.905766e-42
54.99850100 17.33770000 445.08099000 -0.23143400 0.72114998 -0.65297902 1.905766e-42
55.06900000 16.15530000 443.72501000 -0.23237200 0.73310500 -0.63918799 1.905766e-42
55.08850100 15.03190000 442.31900000 -0.23357201 0.74408698 -0.62592298 1.905766e-42
55.19179900 13.90820000 440.91699000 -0.23577601 0.75441098 -0.61259598 1.905766e-42
55.10590000 12.86910000 439.44901000 -0.23552699 0.76446199 -0.60010302 1.905766e-42
55.67359900 11.88920000 438.04999000 -0.24301000 0.77166802 -0.58777100 1.905766e-42
55.43550100 10.81640000 436.62500000 -0.23900300 0.78055799 -0.57758701 1.905766e-42
55.99580000 9.89809040 435.18201000 -0.24474300 0.78637397 -0.56720102 1.905766e-42
56.27339900 8.95854000 433.67099000 -0.24799500 0.79312903 -0.55627799 1.905766e-42
57.13620000 8.13547040 432.32300000 -0.25812700 0.79809397 -0.54444098 1.905766e-42
57.31959900 7.25565000 430.76300000 -0.26215899 0.80580598 -0.53098798 1.905766e-42
57.39670200 6.33679010 429.21799000 -0.26573700 0.81370199 -0.51698399 1.905766e-42
57.53390100 5.44009020 427.66299000 -0.27029601 0.82119298 -0.50257599 1.905766e-42
58.11579900 4.64368010 426.15701000 -0.27914101 0.82713199 -0.48778501 1.905766e-42
58.27190000 3.81337000 424.56799000 -0.28375301 0.83336002 -0.47433600 1.905766e-42
58.86579900 3.05551000 423.04700000 -0.29184401 0.83764601 -0.46171001 1.905766e-42
58.93539800 2.34373000 421.39499000 -0.29465199 0.84219301 -0.45154300 1.905766e-42
58.11890000 1.35764000 420.13000000 -0.28616399 0.84820098 -0.44571999 1.905766e-42
56.84890000 0.45213801 419.23199000 -0.27111799 0.85479599 -0.44251400 1.905766e-42
55.42450000 -0.34632501 418.47400000 -0.25314301 0.86188602 -0.43939900 1.905766e-42
54.56980100 -1.41075000 417.30099000 -0.23976500 0.86866897 -0.43350500 1.905766e-42
52.89120100 -1.84391000 416.81601000 -0.21867400 0.87592000 -0.43005401 1.905766e-42
51.62900200 -2.61949990 415.79401000 -0.20100200 0.88341802 -0.42328700 1.905766e-42
51.07989900 -3.63575010 414.41400000 -0.18979900 0.88983297 -0.41493699 1.905766e-42
49.51319900 -4.09799000 413.65701000 -0.17141999 0.89687699 -0.40770999 1.905766e-42
48.15630000 -4.79249000 412.70001000 -0.15584600 0.90368199 -0.39883599 1.905766e-42
47.70959900 -5.66946980 411.19299000 -0.14711399 0.90908998 -0.38976100 1.905766e-42
46.54169800 -6.24561980 409.95001000 -0.13539200 0.91502601 -0.37999499 1.905766e-42
45.85400000 -7.06927010 408.50500000 -0.12544200 0.92075402 -0.36942801 1.905766e-42
44.68230100 -7.58738990 407.24100000 -0.11536100 0.92673701 -0.35756201 1.905766e-42
43.93820200 -8.34399030 405.78699000 -0.10564100 0.93263900 -0.34499899 1.905766e-42
42.49940100 -8.75181960 404.78500000 -0.09855450 0.93833202 -0.33139199 1.905766e-42
41.77059900 -9.32637020 403.24301000 -0.08963190 0.94426501 -0.31674701 1.905766e-42
41.13110000 -9.99648000 401.69901000 -0.08015730 0.95050901 -0.30017799 1.905766e-42
40.30799900 -10.57910000 400.20801000 -0.07234150 0.95587802 -0.28471801 1.905766e-42
39.57600000 -11.07480000 398.64001000 -0.06488950 0.96028602 -0.27136800 1.905766e-42
39.02940000 -11.58910000 397.00400000 -0.05699730 0.96382898 -0.26035699 1.905766e-42
38.38980100 -12.06790000 395.39099000 -0.04987060 0.96683103 -0.25050199 1.905766e-42
