# .PCD v0.7 - Point Cloud Data file format
# 3 121 0
# 1 44 0
# 45 74 0
# 75 121 0
VERSION 0.7
FIELDS x y z normal_x normal_y normal_z curvature
SIZE 4 4 4 4 4 4 4
TYPE F F F F F F F
COUNT 1 1 1 1 1 1 1
WIDTH 121
HEIGHT 1
VIEWPOINT 0 0 0 1 0 0 0
POINTS 121
DATA ascii
30.75429900 -0.05156990 448.30600000 0.14613900 0.80513299 -0.57480901 1.905766e-42
28.98020000 0.12150500 448.05600000 0.13684399 0.80978400 -0.57054597 1.905766e-42
27.62509900 0.79167998 448.76300000 0.12747400 0.81369001 -0.56715000 1.905766e-42
26.37529900 1.67028000 449.71500000 0.12053200 0.81796098 -0.56250501 1.905766e-42
25.21390000 2.62155010 450.70801000 0.11691000 0.82305801 -0.55579400 1.905766e-42
24.07749900 3.40505000 451.86301000 0.11568300 0.82931399 -0.54667699 1.905766e-42
23.02720100 4.32641980 452.99799000 0.11658900 0.83745497 -0.53392601 1.905766e-42
22.25280000 5.30839010 454.29300000 0.11983100 0.84386700 -0.52300000 1.905766e-42
21.08260000 5.97938010 455.48499000 0.12494000 0.84657502 -0.51739800 1.905766e-42
19.88380100 6.63751980 456.65500000 0.12962200 0.84903097 -0.51219600 1.905766e-42
18.81500100 7.63065000 457.70901000 0.13367701 0.85151702 -0.50700098 1.905766e-42
18.05160000 8.80628010 458.83801000 0.13624200 0.85415399 -0.50185502 1.905766e-42
16.81450100 9.68935010 459.80301000 0.14127199 0.85535002 -0.49841499 1.905766e-42
15.62270000 10.33880000 460.98499000 0.14850201 0.85269099 -0.50086403 1.905766e-42
14.74670000 11.11470000 462.35300000 0.15435700 0.85002899 -0.50361103 1.905766e-42
14.07260000 12.10710000 463.69400000 0.15920401 0.84735399 -0.50660098 1.905766e-42
12.76520000 12.97680000 464.57401000 0.16860200 0.84449703 -0.50832897 1.905766e-42
11.64410000 13.95190000 465.59100000 0.17728201 0.84151298 -0.51032102 1.905766e-42
10.53200000 14.84080000 466.69199000 0.18881901 0.83402002 -0.51841903 1.905766e-42
9.74143030 15.84980000 467.95599000 0.19991501 0.82187402 -0.53343898 1.905766e-42
8.68519970 16.87890100 468.98801000 0.21214500 0.80970198 -0.54715401 1.905766e-42
7.73274990 17.80450100 470.20300000 0.22232600 0.79699099 -0.56158400 1.905766e-42
6.45704980 18.68680000 471.11600000 0.23317800 0.78522301 -0.57363099 1.905766e-42
5.54854010 19.79450000 472.20599000 0.24068700 0.77218801 -0.58804297 1.905766e-42
4.62789010 20.92009900 473.26700000 0.23954099 0.77530700 -0.58439600 1.905766e-42
3.59569000 21.93199900 474.33899000 0.24104400 0.77834803 -0.57971799 1.905766e-42
3.19510010 23.17639900 475.57700000 0.24117400 0.78231901 -0.57429200 1.905766e-42
2.46759010 24.29140100 476.78799000 0.24464799 0.78650099 -0.56706601 1.905766e-42
1.21024000 25.21019900 477.69101000 0.25488099 0.78882802 -0.55927199 1.905766e-42
0.04961630 26.27050000 478.56799000 0.27018800 0.78695500 -0.55470800 1.905766e-42
-1.28776000 27.31270000 479.17200000 0.28956300 0.78083301 -0.55358201 1.905766e-42
-2.61211990 28.33470000 479.83600000 0.30710399 0.77558202 -0.55150700 1.905766e-42
-4.30270000 28.88400100 480.12000000 0.32501999 0.77096897 -0.54769403 1.905766e-42
-5.95573000 29.59230000 480.04300000 0.34043700 0.76796502 -0.54252398 1.905766e-42
-7.61885980 30.22200000 479.76501000 0.35417399 0.76638699 -0.53592098 1.905766e-42
-9.25432010 30.97130000 479.70300000 0.36527801 0.76614302 -0.52877003 1.905766e-42
-10.73750000 31.95229900 479.98199000 0.37279999 0.76678199 -0.52255601 1.905766e-42
-12.40730000 32.58610200 479.75800000 0.37302300 0.76152599 -0.53003001 1.905766e-42
-13.93660000 33.51610200 479.94901000 0.37775299 0.75254798 -0.53942001 1.905766e-42
-15.50590000 34.39690000 479.98801000 0.38458800 0.74278599 -0.54805303 1.905766e-42
-17.15040000 35.12879900 479.98901000 0.39264899 0.73233598 -0.55633700 1.905766e-42
-17.88060000 36.40319800 481.02899000 0.40531799 0.72129500 -0.56164998 1.905766e-42
-18.86200000 37.66470000 481.85699000 0.41811401 0.70843202 -0.56860000 1.905766e-42
-20.30229900 38.66740000 482.25800000 0.42607999 0.70326298 -0.56910098 1.905766e-42
-20.66090000 39.84759900 483.56799000 0.42875600 0.70637000 -0.56321299 1.905766e-42
-20.64090000 40.97370100 484.97299000 0.42915300 0.70931399 -0.55919701 1.905766e-42
-19.86010000 41.75730100 486.39301000 0.42552301 0.71223301 -0.55826002 1.905766e-42
-19.33070000 42.40269900 487.98700000 0.42269200 0.71399301 -0.55816197 1.905766e-42
-17.68810100 42.33060100 488.72000000 0.41842899 0.71505898 -0.56000602 1.905766e-42
-16.21699900 42.36959800 489.75601000 0.40304300 0.71682602 -0.56896102 1.905766e-42
-15.05730000 42.78070100 491.07001000 0.38365901 0.71894503 -0.57958901 1.905766e-42
-13.80210000 43.09420000 492.32199000 0.36614299 0.72191298 -0.58718097 1.905766e-42
-12.31520000 43.22100100 493.32800000 0.34750399 0.72574198 -0.59375000 1.905766e-42
-11.31010000 43.68050000 494.74899000 0.32833099 0.72993201 -0.59949797 1.905766e-42
-9.92154980 44.03970000 495.83600000 0.30698100 0.73269397 -0.60738999 1.905766e-42
-8.22276970 43.99679900 496.42999000 0.28626600 0.73256701 -0.61757302 1.905766e-42
-7.04119010 44.52320100 497.68201000 0.26752499 0.73539102 -0.62260002 1.905766e-42
-5.41644000 44.71550000 498.43201000 0.24857900 0.73513103 -0.63070601 1.905766e-42
-4.01210020 45.12680100 499.48001000 0.23003800 0.73569202 -0.63705599 1.905766e-42
-2.53129010 45.45679900 500.44901000 0.21191999 0.73495501 -0.64415199 1.905766e-42
-0.81378001 45.55270000 500.97900000 0.19465400 0.73149103 -0.65347600 1.905766e-42
0.66886503 45.97409800 501.90900000 0.17579000 0.72972298 -0.66075802 1.905766e-42
2.40524010 46.08219900 502.37100000 0.15812699 0.72510898 -0.67023402 1.905766e-42
4.03913020 46.37820100 503.06500000 0.13900000 0.72103101 -0.67881697 1.905766e-42
5.60736990 46.80160100 503.84100000 0.11936900 0.71617198 -0.68764001 1.905766e-42
7.19456010 47.28030000 504.54199000 0.10021700 0.70930201 -0.69774401 1.905766e-42
8.54028030 48.04200000 505.46301000 0.07978920 0.70132899 -0.70835799 1.905766e-42
9.47706990 48.77190000 506.81601000 0.06200010 0.69322401 -0.71805000 1.905766e-42
11.14040000 49.39650000 507.10400000 0.04974860 0.68078202 -0.73079503 1.905766e-42
12.44120000 50.33720000 507.91901000 0.03208590 0.66534799 -0.74584401 1.905766e-42
13.94420000 51.02669900 508.63000000 0.02203890 0.64775801 -0.76152700 1.905766e-42
15.37980000 51.82709900 509.36301000 0.02728930 0.63713098 -0.77027202 1.905766e-42
16.85240000 52.59920100 510.05301000 0.03058890 0.61910999 -0.78470802 1.905766e-42
18.41560000 53.29719900 510.60901000 0.04362090 0.54489303 -0.83736998 1.905766e-42
20.05270000 52.57820100 510.40100000 0.05098130 0.60431498 -0.79511303 1.905766e-42
19.68190000 51.25170100 509.24301000 0.04624480 0.63545197 -0.77075398 1.905766e-42
19.29719900 49.96239900 508.04700000 0.04553600 0.64442301 -0.76331198 1.905766e-42
18.90570100 48.65940100 506.86801000 0.04629180 0.65022898 -0.75832599 1.905766e-42
19.16110000 47.20629900 505.83701000 0.04876900 0.65381801 -0.75507802 1.905766e-42
18.59140000 46.02750000 504.60199000 0.05170000 0.65660799 -0.75245798 1.905766e-42
18.49539900 44.69620100 503.39401000 0.05449660 0.65715700 -0.75178099 1.905766e-42
18.74500100 43.31280100 502.26999000 0.05080560 0.66645300 -0.74381399 1.905766e-42
18.82620000 41.96649900 501.07800000 0.05003700 0.67640001 -0.73483199 1.905766e-42
19.00670100 40.65950000 499.85400000 0.04897090 0.68663901 -0.72534698 1.905766e-42
19.13180000 39.35929900 498.61499000 0.04885740 0.69711697 -0.71529102 1.905766e-42
19.55670000 38.11740100 497.38400000 0.04667570 0.70737302 -0.70529699 1.905766e-42
19.71839900 36.89009900 496.07700000 0.04765480 0.71722603 -0.69520903 1.905766e-42
19.91880000 35.65090200 494.78699000 0.04918760 0.72541302 -0.68655401 1.905766e-42
20.58230000 34.38530000 493.69199000 0.04646520 0.73232001 -0.67937303 1.905766e-42
20.97740000 33.14799900 492.44601000 0.04517920 0.73945802 -0.67168498 1.905766e-42
21.35050000 32.07860200 491.04700000 0.04333340 0.74616098 -0.66435403 1.905766e-42
21.71970000 30.92359900 489.71701000 0.04054000 0.75235301 -0.65751100 1.905766e-42
21.45760000 29.70630100 488.41699000 0.04419880 0.75536799 -0.65380800 1.905766e-42
22.26310000 28.57550000 487.27100000 0.04246240 0.75529498 -0.65400797 1.905766e-42
22.84260000 27.50239900 485.94699000 0.04290760 0.75572199 -0.65348500 1.905766e-42
23.36910100 26.43289900 484.59900000 0.04399590 0.75632697 -0.65271300 1.905766e-42
23.77540000 25.36410000 483.20901000 0.04623560 0.75719398 -0.65155202 1.905766e-42
23.97410000 24.14730100 481.89700000 0.05018870 0.75837898 -0.64987898 1.905766e-42
24.52990000 22.91360100 480.70999000 0.04470340 0.76503497 -0.64243603 1.905766e-42
24.77610000 21.69720100 479.40601000 0.04169580 0.77363098 -0.63226402 1.905766e-42
25.73609900 20.75120000 478.21301000 0.03278400 0.78170598 -0.62278497 1.905766e-42
26.04060000 19.73660100 476.75800000 0.03024440 0.79124898 -0.61074603 1.905766e-42
26.37310000 18.65609900 475.35699000 0.02759090 0.80115902 -0.59781498 1.905766e-42
27.30530000 17.65630000 474.18600000 0.02221290 0.80946898 -0.58674300 1.905766e-42
27.98959900 16.72960100 472.80301000 0.02238330 0.81529200 -0.57861698 1.905766e-42
28.49290100 15.69410000 471.41901000 0.02262390 0.82109803 -0.57033902 1.905766e-42
29.09280000 14.63900000 470.09000000 0.02171430 0.82629597 -0.56281799 1.905766e-42
29.80750100 13.68670000 468.73999000 0.01983690 0.83101499 -0.55589598 1.905766e-42
30.57300000 12.88590000 467.32101000 0.01736340 0.83542299 -0.54933298 1.905766e-42
30.93400000 12.12570000 465.73001000 0.02212340 0.83362001 -0.55189502 1.905766e-42
31.50359900 10.98190000 464.46301000 0.03377340 0.82842100 -0.55908698 1.905766e-42
31.75320100 9.86693950 463.07199000 0.04320860 0.82441002 -0.56434101 1.905766e-42
31.88590000 8.74610040 461.66901000 0.05618950 0.82284403 -0.56548202 1.905766e-42
31.83470000 7.84133010 460.11401000 0.07089340 0.82390702 -0.56227303 1.905766e-42
31.95470000 7.07658000 458.48901000 0.08551350 0.82477200 -0.55896199 1.905766e-42
31.83939900 5.96918010 457.07501000 0.09917860 0.82529598 -0.55592197 1.905766e-42
31.29890100 5.05599020 455.62100000 0.10890500 0.82391798 -0.55614698 1.905766e-42
31.04190100 4.05538990 454.14700000 0.11898100 0.81996799 -0.55990702 1.905766e-42
30.70830000 3.04241990 452.69699000 0.12628600 0.81630599 -0.56364501 1.905766e-42
30.72810000 1.90081000 451.30499000 0.13424100 0.81164098 -0.56852198 1.905766e-42
30.55830000 0.97673303 449.76999000 0.13929000 0.80828500 -0.57207799 1.905766e-42
