# .PCD v0.7 - Point Cloud Data file format
# 4 77 1
# 1 28 0
# 29 48 0
# 49 61 1
# 62 77 0
VERSION 0.7
FIELDS x y z normal_x normal_y normal_z curvature
SIZE 4 4 4 4 4 4 4
TYPE F F F F F F F
COUNT 1 1 1 1 1 1 1
WIDTH 77
HEIGHT 1
VIEWPOINT 0 0 0 1 0 0 0
POINTS 77
DATA ascii
34.70259900 22.09590000 454.04901000 0.20050000 -0.66759199 0.71702200 1.905766e-42
34.37889900 24.05190100 455.99200000 0.20499399 -0.67430198 0.70943201 1.905766e-42
32.79560100 23.23290100 455.74200000 0.18756200 -0.67421198 0.71432400 1.905766e-42
31.28000100 22.46480000 455.14801000 0.16964801 -0.67352301 0.71943498 1.905766e-42
29.70140100 21.65950000 454.83301000 0.14911100 -0.67586899 0.72178000 1.905766e-42
28.49420000 20.54299900 454.10101000 0.13000099 -0.68647701 0.71543598 1.905766e-42
26.83340100 19.95999900 453.72400000 0.10379100 -0.69632697 0.71017998 1.905766e-42
25.32810000 19.19650100 453.09900000 0.08079590 -0.70525199 0.70433700 1.905766e-42
23.88050100 18.40259900 452.38199000 0.06033290 -0.71241403 0.69916099 1.905766e-42
22.89320000 17.23290100 451.43500000 0.04515260 -0.71848601 0.69407499 1.905766e-42
21.22540100 16.72890100 450.98199000 0.02140610 -0.72275001 0.69077802 1.905766e-42
19.65800100 16.13540100 450.32599000 -0.00298773 -0.72661698 0.68703598 1.905766e-42
18.32239900 15.24230000 449.51401000 -0.02681620 -0.73076701 0.68210000 1.905766e-42
16.65900000 14.89010000 448.92300000 -0.05551900 -0.73373598 0.67716199 1.905766e-42
15.20000000 14.26240000 448.07700000 -0.08103610 -0.73661298 0.67144197 1.905766e-42
13.73240000 13.66260000 447.22400000 -0.10369800 -0.73818499 0.66658002 1.905766e-42
12.11550000 13.47450000 446.45599000 -0.12247800 -0.73786002 0.66374803 1.905766e-42
10.60320000 13.01280000 445.59601000 -0.13864900 -0.73793602 0.66047502 1.905766e-42
9.12989040 12.40700000 444.75800000 -0.15347201 -0.73817998 0.65691400 1.905766e-42
8.19120980 11.42140000 443.57999000 -0.16941001 -0.74596602 0.64407700 1.905766e-42
6.48042010 11.21180000 443.06100000 -0.19445901 -0.74817699 0.63436300 1.905766e-42
5.58497000 10.42880000 441.70999000 -0.21095800 -0.75575000 0.61995101 1.905766e-42
4.01517010 10.20530000 440.85800000 -0.23203400 -0.75718099 0.61060399 1.905766e-42
2.37780000 10.32680000 440.12000000 -0.24982201 -0.75590801 0.60513800 1.905766e-42
1.11278000 9.72041990 438.99200000 -0.26784599 -0.75557202 0.59780401 1.905766e-42
0.18455000 8.97741030 437.64099000 -0.28830501 -0.75406498 0.59014100 1.905766e-42
-1.42983000 9.41699980 436.97699000 -0.31893399 -0.75640500 0.57108003 1.905766e-42
-2.75043010 8.94771000 435.84799000 -0.34128800 -0.75724101 0.55687398 1.905766e-42
-4.15738010 8.73530010 434.74500000 -0.39773300 -0.73935699 0.54328603 1.905766e-42
-3.08760000 7.55399990 433.90900000 -0.34947801 -0.75872302 0.54973102 1.905766e-42
-1.90325000 6.57754990 432.96899000 -0.33411601 -0.76680702 0.54806298 1.905766e-42
-0.37114501 5.64366010 432.82501000 -0.31495199 -0.77396703 0.54934603 1.905766e-42
1.03590000 4.67260980 432.26199000 -0.30132499 -0.77686399 0.55288798 1.905766e-42
2.61623000 3.84728000 432.01401000 -0.28560400 -0.77908802 0.55807900 1.905766e-42
3.85866000 2.96663000 431.05499000 -0.27336901 -0.78326797 0.55835497 1.905766e-42
5.40413000 2.09910010 430.73999000 -0.25475800 -0.78711098 0.56174201 1.905766e-42
6.71008010 1.12909000 429.97000000 -0.24221601 -0.78895098 0.56470197 1.905766e-42
8.05914970 0.27137300 429.14200000 -0.23256700 -0.78929597 0.56826502 1.905766e-42
9.65991020 -0.50844800 428.87900000 -0.21710700 -0.78917497 0.57451499 1.905766e-42
11.21670000 -1.28677000 428.42001000 -0.19025700 -0.79912603 0.57026303 1.905766e-42
12.50380000 -2.22498010 427.58200000 -0.17157900 -0.81208199 0.55774897 1.905766e-42
13.68320000 -3.06557010 426.51300000 -0.15701900 -0.82783699 0.53854400 1.905766e-42
15.43770000 -3.45823000 426.42599000 -0.14510600 -0.83375299 0.53272903 1.905766e-42
16.76300000 -4.15026000 425.42300000 -0.14627200 -0.85109401 0.50422502 1.905766e-42
17.70840100 -4.89294000 424.08301000 -0.15907300 -0.85478503 0.49400300 1.905766e-42
19.16169900 -5.76035980 423.47101000 -0.17322899 -0.85208702 0.49390200 1.905766e-42
20.64419900 -6.53552010 422.80600000 -0.17031901 -0.84935099 0.49959400 1.905766e-42
21.94759900 -7.27221010 421.80701000 -0.15350600 -0.83446002 0.52925599 1.905766e-42
23.67280000 -7.41214990 422.30099000 -0.10431300 -0.83458698 0.54091001 1.905766e-42
24.95970000 -6.74668980 423.36899000 -0.06244990 -0.82952201 0.55497199 1.905766e-42
25.53080000 -5.84421010 424.81799000 -0.03548310 -0.81360000 0.58034098 1.905766e-42
26.29010000 -4.92112020 426.16400000 -0.02404700 -0.80191600 0.59695202 1.905766e-42
27.45649900 -4.12824010 427.28299000 -0.01739140 -0.79723901 0.60341400 1.905766e-42
27.92900100 -3.13196990 428.70499000 -0.01646920 -0.79070401 0.61197799 1.905766e-42
28.98620000 -2.18753000 429.81400000 -0.00907810 -0.78014702 0.62553102 1.905766e-42
30.55610100 -1.74360000 430.57501000 0.02140630 -0.76942801 0.63837498 1.905766e-42
31.94230100 -0.98659700 431.43799000 0.05110810 -0.75659400 0.65188402 1.905766e-42
33.39939900 -0.07038060 431.96500000 0.08465470 -0.74563199 0.66095901 1.905766e-42
34.12329900 1.05736990 433.16699000 0.09291930 -0.73657900 0.66993898 1.905766e-42
35.64390200 1.80944000 433.76901000 0.12203300 -0.73241800 0.66983002 1.905766e-42
37.35549900 2.29617000 434.04001000 0.15421800 -0.72622299 0.66993701 1.905766e-42
39.11479900 2.51916000 433.73099000 0.17965300 -0.71971500 0.67062300 1.905766e-42
39.30749900 3.80107000 434.98001000 0.18530600 -0.71651798 0.67250502 1.905766e-42
39.03210100 4.98023990 436.31201000 0.18781500 -0.71400702 0.67447698 1.905766e-42
38.56969800 6.05710980 437.67801000 0.18243200 -0.71059299 0.67954099 1.905766e-42
38.40760000 7.33952000 438.93100000 0.17813601 -0.70122701 0.69032502 1.905766e-42
37.85120000 8.41724970 440.26099000 0.16664800 -0.69410402 0.70032001 1.905766e-42
37.69520200 9.70401000 441.51001000 0.16586600 -0.69151199 0.70306498 1.905766e-42
37.10870000 10.80380000 442.80899000 0.16074000 -0.69040799 0.70533597 1.905766e-42
36.93330000 12.09730000 444.04800000 0.16169600 -0.68596101 0.70944399 1.905766e-42
36.52399800 13.27760000 445.34399000 0.16556300 -0.68365598 0.71077698 1.905766e-42
36.10170000 14.48790000 446.60800000 0.17083400 -0.68130201 0.71178901 1.905766e-42
36.01190200 15.81130000 447.82401000 0.17953999 -0.67671901 0.71401399 1.905766e-42
35.77660000 17.06699900 449.09201000 0.18453801 -0.67140698 0.71774501 1.905766e-42
35.37440100 18.28100000 450.35901000 0.18603300 -0.67037201 0.71832597 1.905766e-42
35.26810100 19.57539900 451.60501000 0.19051901 -0.66887403 0.71854699 1.905766e-42
35.19960000 20.98370000 452.72400000 0.19601800 -0.66682899 0.71896899 1.905766e-42
