# .PCD v0.7 - Point Cloud Data file format
# 3 114 0
# 1 43 0
# 44 72 0
# 73 114 0
VERSION 0.7
FIELDS x y z normal_x normal_y normal_z curvature
SIZE 4 4 4 4 4 4 4
TYPE F F F F F F F
COUNT 1 1 1 1 1 1 1
WIDTH 114
HEIGHT 1
VIEWPOINT 0 0 0 1 0 0 0
POINTS 114
DATA ascii
-16.80610100 11.14480000 442.99600000 0.81414998 0.27736801 -0.51012403 1.905766e-42
-16.38159900 12.41910000 444.50900000 0.80665302 0.27550501 -0.52288502 1.905766e-42
-15.65060000 13.21410000 445.94901000 0.79544097 0.27547199 -0.53980398 1.905766e-42
-14.75320000 13.73140000 447.42099000 0.77907503 0.27749401 -0.56217301 1.905766e-42
-14.10270000 14.74810000 448.75601000 0.76419801 0.27339399 -0.58417201 1.905766e-42
-13.30780000 15.55700000 450.15399000 0.74334502 0.26868001 -0.61257499 1.905766e-42
-12.58230000 16.55190100 451.46701000 0.73625398 0.27045301 -0.62031001 1.905766e-42
-12.13860000 17.69370100 452.78601000 0.72979897 0.27489600 -0.62595898 1.905766e-42
-11.14250000 18.45990000 454.07501000 0.71818000 0.28323600 -0.63560599 1.905766e-42
-10.04800000 19.03450000 455.38300000 0.70365298 0.29316401 -0.64724600 1.905766e-42
-9.41670990 20.20579900 456.59500000 0.69321603 0.30614299 -0.65247899 1.905766e-42
-8.57594970 21.05769900 457.94000000 0.68456900 0.32407001 -0.65294999 1.905766e-42
-7.77532010 21.88909900 459.32101000 0.67585200 0.34216300 -0.65280002 1.905766e-42
-6.86938000 22.73070000 460.62900000 0.66659302 0.36034000 -0.65254003 1.905766e-42
-6.04591990 23.59560000 461.97601000 0.65759897 0.37868801 -0.65127498 1.905766e-42
-5.47378020 24.65000000 463.31799000 0.65121198 0.39694700 -0.64680398 1.905766e-42
-4.51055000 25.41560000 464.63101000 0.64152998 0.41705200 -0.64382201 1.905766e-42
-3.96167990 26.45280100 465.99600000 0.63532197 0.43906501 -0.63528597 1.905766e-42
-3.09646010 27.29980100 467.32800000 0.62391400 0.46303701 -0.62954599 1.905766e-42
-2.73763990 28.42610000 468.68600000 0.61753303 0.48845801 -0.61649102 1.905766e-42
-2.02743010 29.39329900 470.02701000 0.60493600 0.51647401 -0.60605901 1.905766e-42
-1.23620000 30.27230100 471.38400000 0.58797199 0.54399598 -0.59863001 1.905766e-42
-0.72925401 31.29190100 472.77802000 0.57576501 0.56703502 -0.58903801 1.905766e-42
-0.42985401 32.32320000 474.22299000 0.56762701 0.58488399 -0.57940501 1.905766e-42
-0.14986300 33.29740100 475.70999000 0.55591798 0.60320801 -0.57192302 1.905766e-42
0.14217301 34.26030000 477.20300000 0.54474300 0.61851901 -0.56629503 1.905766e-42
0.41142499 35.27320100 478.66599000 0.53472900 0.63349700 -0.55923802 1.905766e-42
1.38650000 35.91140000 480.03799000 0.53030300 0.64559698 -0.54953003 1.905766e-42
0.85625702 37.17200100 481.20901000 0.51842099 0.67233402 -0.52840000 1.905766e-42
1.37602000 38.16849900 482.61499000 0.50837600 0.69362700 -0.51032901 1.905766e-42
1.79199000 38.84080100 484.23199000 0.49808100 0.71387303 -0.49224001 1.905766e-42
1.65620990 39.76699800 485.76901000 0.49016899 0.73420298 -0.46976700 1.905766e-42
1.86544000 40.67630000 487.30801000 0.48238900 0.74869198 -0.45470899 1.905766e-42
1.59888010 41.66899900 488.78601000 0.47796199 0.75659400 -0.44622701 1.905766e-42
2.36258010 42.34830100 490.26801000 0.46825099 0.76367199 -0.44446099 1.905766e-42
2.49218990 43.14180000 491.87799000 0.46332899 0.76941901 -0.43968299 1.905766e-42
2.59506010 43.92070000 493.49799000 0.45611799 0.77716100 -0.43356299 1.905766e-42
2.64248990 44.75149900 495.09399000 0.44995999 0.78464597 -0.42645901 1.905766e-42
2.57840990 45.62030000 496.66901000 0.44169599 0.79032302 -0.42460999 1.905766e-42
2.68572000 46.45500200 498.26001000 0.43184200 0.79565102 -0.42479500 1.905766e-42
2.74267010 47.25780100 499.87000000 0.42321199 0.80137801 -0.42271200 1.905766e-42
2.42059990 48.10630000 501.42499000 0.41833299 0.80804700 -0.41479900 1.905766e-42
2.56076000 48.89170100 503.03799000 0.40780500 0.82268000 -0.39609599 1.905766e-42
2.89633990 49.46630100 504.71100000 0.38101000 0.87671202 -0.29361200 1.905766e-42
4.30870010 48.60459900 504.00201000 0.38246799 0.83393103 -0.39784199 1.905766e-42
5.88746980 47.76359900 503.80099000 0.37615699 0.82215798 -0.42727199 1.905766e-42
7.19783020 46.80469900 503.02399000 0.37063199 0.81606197 -0.44348001 1.905766e-42
8.57619950 45.84669900 502.37399000 0.35359299 0.81726903 -0.45502001 1.905766e-42
10.17020000 45.04259900 502.14499000 0.32833600 0.82293600 -0.46364999 1.905766e-42
11.58330000 44.08729900 501.57001000 0.30983201 0.82649201 -0.47001499 1.905766e-42
12.81500000 43.16470000 500.63699000 0.29331601 0.83064097 -0.47328699 1.905766e-42
14.15540000 42.26699800 499.83801000 0.26739401 0.83702898 -0.47736999 1.905766e-42
15.59720000 41.42129900 499.17001000 0.24099299 0.84061700 -0.48506200 1.905766e-42
16.93660000 40.56179800 498.32901000 0.21809199 0.84097803 -0.49516901 1.905766e-42
18.24729900 39.71320000 497.43399000 0.19554800 0.84039801 -0.50546300 1.905766e-42
19.61960000 38.88830200 496.61099000 0.17134400 0.84056699 -0.51389498 1.905766e-42
20.98300000 38.08910000 495.75000000 0.14779501 0.84031099 -0.52156901 1.905766e-42
22.04820100 37.25680200 494.56100000 0.12974900 0.83752799 -0.53076500 1.905766e-42
23.25670100 36.39070100 493.54599000 0.10518100 0.83511198 -0.53992999 1.905766e-42
24.62369900 35.59190000 492.69000000 0.07539510 0.83262801 -0.54867703 1.905766e-42
25.60500000 34.67310000 491.49301000 0.04999580 0.82388800 -0.56454301 1.905766e-42
26.91690100 33.91099900 490.52499000 0.02360270 0.81220502 -0.58289498 1.905766e-42
28.02330000 33.09619900 489.36200000 0.02942360 0.78525102 -0.61847800 1.905766e-42
29.41970100 32.39849900 488.46600000 0.03378150 0.76788199 -0.63970000 1.905766e-42
30.75009900 31.61739900 487.53799000 0.03935440 0.75741899 -0.65174198 1.905766e-42
31.80610100 30.68499900 486.41800000 0.02189950 0.76175302 -0.64749700 1.905766e-42
32.89510000 29.70920000 485.36801000 -0.00912948 0.77411503 -0.63297999 1.905766e-42
34.43320100 29.12870000 484.63501000 -0.04209140 0.78647298 -0.61618900 1.905766e-42
35.66249800 28.35650100 483.57101000 -0.08566080 0.78740698 -0.61045200 1.905766e-42
37.12749900 27.76989900 482.70499000 -0.12714100 0.78110301 -0.61132097 1.905766e-42
38.35319900 27.15020000 481.54199000 -0.16656700 0.75829297 -0.63027501 1.905766e-42
39.29159900 26.31349900 480.25299000 -0.19708000 0.71945798 -0.66598701 1.905766e-42
39.65630000 25.13290000 478.94501000 -0.20175201 0.66940999 -0.71497297 1.905766e-42
38.58969900 23.94599900 478.11200000 -0.16785000 0.63761401 -0.75184703 1.905766e-42
37.32529800 22.83099900 477.48099000 -0.14022499 0.61037499 -0.77960199 1.905766e-42
36.10829900 21.66410100 476.85001000 -0.11963100 0.58047301 -0.80544299 1.905766e-42
34.60369900 20.78310000 476.40302000 -0.08650050 0.58257198 -0.80816299 1.905766e-42
34.06510200 19.17300000 475.80499000 -0.06163440 0.56916898 -0.81990701 1.905766e-42
32.49259900 18.68730000 475.07599000 -0.03133210 0.57226801 -0.81946802 1.905766e-42
31.13999900 17.71680100 474.39200000 -0.00253026 0.56841302 -0.82273901 1.905766e-42
29.51530100 17.11980100 473.89801000 0.02425960 0.56949401 -0.82163697 1.905766e-42
28.13380100 16.18110100 473.22699000 0.04664340 0.56449002 -0.82412100 1.905766e-42
27.01429900 15.01510000 472.43500000 0.06366850 0.55373299 -0.83025700 1.905766e-42
25.47740000 14.32700000 471.79901000 0.07874090 0.55048400 -0.83112401 1.905766e-42
23.94520000 13.61550000 471.17700000 0.09621620 0.54488498 -0.83297300 1.905766e-42
22.35490000 13.02670000 470.57401000 0.12161700 0.53608298 -0.83535898 1.905766e-42
21.15510000 11.99420000 469.71701000 0.14131300 0.52332300 -0.84033602 1.905766e-42
19.81670000 11.08280000 468.93100000 0.16441400 0.50972497 -0.84448099 1.905766e-42
18.31730100 10.37670000 468.22900000 0.18934700 0.49423200 -0.84845901 1.905766e-42
16.66970100 10.00100000 467.60901000 0.21805900 0.47893199 -0.85033798 1.905766e-42
15.09560000 9.47517010 466.91199000 0.24473400 0.46021700 -0.85340899 1.905766e-42
13.75160000 8.61186980 466.08200000 0.26419300 0.43827999 -0.85913497 1.905766e-42
12.15810000 8.15546040 465.38000000 0.29177299 0.41545901 -0.86154699 1.905766e-42
10.95140000 7.09238000 464.57199000 0.30945000 0.39878100 -0.86325800 1.905766e-42
9.40767960 6.69697000 463.73499000 0.34356001 0.40134901 -0.84904999 1.905766e-42
7.85217000 6.32697010 462.90799000 0.37617499 0.40218401 -0.83471000 1.905766e-42
6.28237010 6.45051000 462.03601000 0.40797299 0.40016201 -0.82062697 1.905766e-42
4.66160010 6.67390010 461.28601000 0.43799001 0.39581400 -0.80715299 1.905766e-42
3.06192990 6.81953000 460.47299000 0.46533599 0.39001900 -0.79457402 1.905766e-42
1.68201010 6.33075000 459.42599000 0.48601899 0.38603199 -0.78407001 1.905766e-42
0.16925000 6.32867000 458.45001000 0.51196402 0.38297001 -0.76891297 1.905766e-42
-1.29070000 6.21751020 457.40302000 0.54026401 0.38392100 -0.74881202 1.905766e-42
-2.66122010 5.77089980 456.32501000 0.56662202 0.38773000 -0.72705197 1.905766e-42
-4.02598000 6.23842000 455.24899000 0.59326202 0.38485599 -0.70705402 1.905766e-42
-5.15294980 5.54872990 454.02600000 0.61518401 0.39182201 -0.68412298 1.905766e-42
-6.43571000 5.64718010 452.76801000 0.63816798 0.39384699 -0.66153300 1.905766e-42
-7.77104000 6.14971020 451.67001000 0.66104001 0.38939601 -0.64140201 1.905766e-42
-9.09053040 6.42067000 450.47601000 0.68068999 0.37175700 -0.63123500 1.905766e-42
-10.33430000 6.65332980 449.19601000 0.70099199 0.35538200 -0.61831498 1.905766e-42
-11.62660000 7.19549990 448.06601000 0.72360998 0.33746701 -0.60208398 1.905766e-42
-12.80860000 7.47826000 446.73901000 0.74507397 0.32157400 -0.58434099 1.905766e-42
-14.00190000 7.96720980 445.48300000 0.76776999 0.30466500 -0.56365597 1.905766e-42
-15.08020000 9.09134010 444.58099000 0.78727102 0.29269001 -0.54271197 1.905766e-42
-16.13220000 9.48526000 443.17401000 0.80570799 0.28252500 -0.52059001 1.905766e-42
