# .PCD v0.7 - Point Cloud Data file format
# 4 140 -2
# 1 11 0
# 12 55 0
# 56 112 0
# 113 140 0
VERSION 0.7
FIELDS x y z normal_x normal_y normal_z curvature
SIZE 4 4 4 4 4 4 4
TYPE F F F F F F F
COUNT 1 1 1 1 1 1 1
WIDTH 140
HEIGHT 1
VIEWPOINT 0 0 0 1 0 0 0
POINTS 140
DATA ascii
30.21360000 -4.67469980 536.51398000 -0.41495800 -0.90933001 -0.03046420 1.905766e-42
28.66820000 -3.76781010 536.68500000 -0.41216600 -0.91072297 -0.02650630 1.905766e-42
25.31909900 -2.32592010 535.97900000 -0.38287899 -0.92378902 0.00417915 1.905766e-42
23.67770000 -1.58723000 535.97900000 -0.36190099 -0.93198502 0.02078690 1.905766e-42
21.98220100 -0.98912901 536.06598000 -0.32693401 -0.94446403 0.03320180 1.905766e-42
20.25740100 -0.47768900 536.00500000 -0.28965300 -0.95624602 0.04116400 1.905766e-42
18.70890000 0.19365300 536.63000000 -0.25803599 -0.96523100 0.04177740 1.905766e-42
16.94500000 0.52723402 536.76300000 -0.22425599 -0.97366297 0.04109590 1.905766e-42
15.17280000 0.84055901 536.79401000 -0.19776000 -0.97945601 0.03946530 1.905766e-42
13.40600000 1.18450000 536.79401000 -0.18549600 -0.98170000 0.04308540 1.905766e-42
11.81530000 1.48327990 537.58197000 -0.17565601 -0.98341000 0.04527480 1.905766e-42
10.03210000 1.72773000 537.59302000 -0.16169500 -0.98545802 0.05221850 1.905766e-42
8.68045040 1.90234010 536.41699000 -0.14499100 -0.98766899 0.05904740 1.905766e-42
7.46307990 2.05345010 535.09998000 -0.12767901 -0.98961699 0.06600580 1.905766e-42
6.34638980 2.16132000 533.69299000 -0.11690600 -0.99013603 0.07722910 1.905766e-42
5.71714020 2.05986000 532.00897000 -0.10035300 -0.99122500 0.08603320 1.905766e-42
4.65541980 1.98297000 530.55798000 -0.08491700 -0.98983699 0.11407200 1.905766e-42
3.24308990 2.05548000 529.44397000 -0.06655700 -0.98474801 0.16075300 1.905766e-42
2.37247990 1.61696000 527.93103000 -0.03778520 -0.97756100 0.20723601 1.905766e-42
1.05227990 1.44181000 526.71997000 -0.01125200 -0.96743298 0.25287700 1.905766e-42
0.53098702 1.02048000 525.04901000 0.01797220 -0.95522797 0.29532400 1.905766e-42
-0.67137200 0.57097799 523.78699000 0.04517970 -0.94019997 0.33761299 1.905766e-42
-1.71188000 -0.02775440 522.44598000 0.06971090 -0.92463899 0.37441000 1.905766e-42
-2.94023990 -0.64722800 521.28601000 0.09325220 -0.90916300 0.40586501 1.905766e-42
-4.21551990 -1.31617000 520.20599000 0.11669300 -0.89266002 0.43536201 1.905766e-42
-5.03851990 -2.19108010 518.86499000 0.13714799 -0.87442499 0.46537200 1.905766e-42
-6.08846000 -3.02718000 517.66602000 0.15597001 -0.85567999 0.49344200 1.905766e-42
-7.15552000 -3.90033010 516.50800000 0.17127500 -0.83679402 0.52003902 1.905766e-42
-8.44190980 -4.67752980 515.51801000 0.17270200 -0.83329999 0.52515298 1.905766e-42
-9.55453010 -5.56595990 514.41699000 0.17363299 -0.82938498 0.53100997 1.905766e-42
-10.82750000 -6.35065980 513.41498000 0.17546000 -0.82578403 0.53599900 1.905766e-42
-11.96950000 -7.32380010 512.41998000 0.17746200 -0.82175398 0.54150599 1.905766e-42
-13.19840000 -8.19760040 511.43701000 0.18021700 -0.81776500 0.54660898 1.905766e-42
-13.60340000 -9.37924000 510.14099000 0.18172100 -0.81256300 0.55382103 1.905766e-42
-14.19160000 -10.49790000 508.85999000 0.18889999 -0.80192900 0.56676900 1.905766e-42
-14.70000000 -11.49110000 507.44699000 0.19659001 -0.79123801 0.57904702 1.905766e-42
-14.82470000 -12.63790000 506.06500000 0.20288800 -0.78111899 0.59050000 1.905766e-42
-15.57660000 -13.72950000 504.84799000 0.21317700 -0.76988298 0.60152799 1.905766e-42
-16.78050000 -14.62990000 503.85800000 0.22731499 -0.75835001 0.61092800 1.905766e-42
-17.66860000 -15.80110000 502.81900000 0.24204201 -0.74487102 0.62175798 1.905766e-42
-18.83400000 -16.85260000 501.93799000 0.26208100 -0.72340000 0.63875401 1.905766e-42
-19.96670000 -17.94179900 501.06000000 0.27835399 -0.70220798 0.65530401 1.905766e-42
-20.72320000 -19.34900100 500.23099000 0.28864700 -0.67991102 0.67409497 1.905766e-42
-21.48990100 -20.76420000 499.42499000 0.29531899 -0.65712500 0.69352299 1.905766e-42
-22.23730100 -22.15320000 498.55801000 0.29820800 -0.63348901 0.71397698 1.905766e-42
-23.48570100 -23.25860000 497.88000000 0.29691800 -0.61969602 0.72650999 1.905766e-42
-24.36669900 -24.52940000 496.95801000 0.28837100 -0.64786899 0.70505899 1.905766e-42
-24.78160100 -25.96999900 495.96201000 0.29703799 -0.68346000 0.66682100 1.905766e-42
-25.34470000 -27.22940100 494.80600000 0.32312801 -0.72333300 0.61022699 1.905766e-42
-26.20260000 -28.30670000 493.64700000 0.36901900 -0.75496501 0.54208302 1.905766e-42
-26.97909900 -29.40169900 492.44800000 0.42633900 -0.78152001 0.45547900 1.905766e-42
-27.67370000 -30.47839900 491.18301000 0.47170800 -0.81936598 0.32577801 1.905766e-42
-28.27820000 -31.40760000 489.76501000 0.49553400 -0.85132802 0.17229700 1.905766e-42
-29.63340000 -31.99189900 488.73499000 0.56921899 -0.81907499 0.07146360 1.905766e-42
-29.43310000 -32.66310100 487.07700000 0.58447999 -0.81088001 -0.02927930 1.905766e-42
-29.94879900 -32.81470100 485.35901000 0.67244703 -0.73370200 -0.09744470 1.905766e-42
-30.05769900 -32.29359800 483.63901000 0.73960203 -0.66274101 -0.11731600 1.905766e-42
-28.68250100 -31.21640000 483.20499000 0.42915601 -0.87917697 -0.20705700 1.905766e-42
-27.21040000 -30.30999900 482.70401000 0.27878100 -0.93763900 -0.20763800 1.905766e-42
-25.54080000 -29.70369900 482.41199000 0.16648000 -0.96905601 -0.18225101 1.905766e-42
-23.76960000 -29.61070100 482.10599000 0.06319060 -0.98706299 -0.14735200 1.905766e-42
-22.02400000 -29.60250100 481.66699000 -0.05736930 -0.99227202 -0.11002700 1.905766e-42
-20.40320000 -29.76759900 480.90100000 -0.20564599 -0.97647500 -0.06484930 1.905766e-42
-19.15609900 -29.90469900 479.61099000 -0.35223600 -0.93517798 -0.03705080 1.905766e-42
-17.90760000 -30.32650000 478.38501000 -0.49772400 -0.86708301 0.02094510 1.905766e-42
-16.84810100 -31.36870000 477.36899000 -0.62871498 -0.76924300 0.11394600 1.905766e-42
-15.88790000 -32.35889800 476.21201000 -0.71175897 -0.67495799 0.19450299 1.905766e-42
-15.17330000 -33.77800000 475.36700000 -0.72965598 -0.62870198 0.26895300 1.905766e-42
-14.42980000 -35.39009900 475.06900000 -0.72186100 -0.59157997 0.35909599 1.905766e-42
-13.11210000 -36.39189900 475.77600000 -0.65798301 -0.59905797 0.45627600 1.905766e-42
-11.70990000 -37.23020200 476.53201000 -0.58179897 -0.60098302 0.54802299 1.905766e-42
-10.24540000 -37.85210000 477.37399000 -0.49775800 -0.59783798 0.62835199 1.905766e-42
-8.63797000 -38.64040000 477.56000000 -0.41727999 -0.58073097 0.69902003 1.905766e-42
-6.97050000 -39.18360100 477.96500000 -0.29788601 -0.58890098 0.75130498 1.905766e-42
-5.30826000 -39.87340200 477.99899000 -0.18958600 -0.58705002 0.78703803 1.905766e-42
-3.61023000 -40.44730000 477.83301000 -0.08723910 -0.58350998 0.80740601 1.905766e-42
-1.89681010 -40.95370100 477.61499000 0.00776229 -0.57986701 0.81467402 1.905766e-42
-0.27509400 -41.59660000 477.17099000 0.06274910 -0.56768799 0.82084900 1.905766e-42
1.32392000 -42.18859900 476.59500000 0.07990370 -0.54968899 0.83153898 1.905766e-42
2.73446010 -43.02899900 475.85699000 0.08945640 -0.53822601 0.83803999 1.905766e-42
3.91924000 -43.91429900 474.83099000 0.09670960 -0.53264803 0.84079301 1.905766e-42
5.36670020 -44.64749900 474.05200000 0.10612800 -0.53260899 0.83968103 1.905766e-42
7.16001990 -44.78039900 474.13101000 0.07738930 -0.52814502 0.84561998 1.905766e-42
8.95930000 -44.82560000 474.15399000 0.03137560 -0.52214801 0.85227799 1.905766e-42
10.68560000 -44.35920000 474.35999000 -0.01433090 -0.51899803 0.85465598 1.905766e-42
12.33170000 -43.81359900 474.84299000 -0.05669510 -0.51694798 0.85413802 1.905766e-42
14.00510000 -43.32280000 475.28900000 -0.09457460 -0.51355100 0.85283101 1.905766e-42
15.79250000 -43.22290000 475.47601000 -0.11546300 -0.50784099 0.85367799 1.905766e-42
17.59120000 -43.21379900 475.54401000 -0.09807630 -0.51343203 0.85250700 1.905766e-42
19.34820000 -43.05630100 475.90201000 -0.08332800 -0.52032501 0.84989297 1.905766e-42
21.14279900 -43.14609900 476.00900000 -0.07076170 -0.52783197 0.84639603 1.905766e-42
22.92480100 -43.39960100 475.99500000 -0.06035950 -0.53742802 0.84114701 1.905766e-42
24.61240000 -44.00280000 475.82700000 -0.04560190 -0.55244899 0.83229798 1.905766e-42
26.40720000 -43.93719900 475.94699000 -0.03822510 -0.56676698 0.82299101 1.905766e-42
27.78660000 -42.99860000 476.62299000 -0.04448280 -0.57385999 0.81774497 1.905766e-42
28.96139900 -41.93050000 477.47101000 -0.05400170 -0.57856399 0.81384701 1.905766e-42
30.07309900 -40.77570000 478.29001000 -0.06481890 -0.58240402 0.81031102 1.905766e-42
31.21830000 -39.70270200 479.17099000 -0.07623900 -0.58653402 0.80632800 1.905766e-42
32.54159900 -38.76030000 479.94601000 -0.09088090 -0.59571201 0.79803997 1.905766e-42
33.49850100 -37.63029900 480.97000000 -0.11147600 -0.60036403 0.79191899 1.905766e-42
34.63250000 -36.61380000 481.92899000 -0.13627601 -0.60514599 0.78436399 1.905766e-42
35.02790100 -35.31129800 483.10699000 -0.15996601 -0.60103703 0.78304899 1.905766e-42
36.50610000 -34.67369800 483.91199000 -0.19674499 -0.60570300 0.77098399 1.905766e-42
38.03900100 -34.10279800 484.66400000 -0.24824700 -0.61205298 0.75084299 1.905766e-42
39.41640100 -33.32880000 485.52600000 -0.30971500 -0.62023598 0.72068298 1.905766e-42
40.50019800 -32.76950100 486.85001000 -0.36642799 -0.62229902 0.69171798 1.905766e-42
41.20520000 -31.86940000 488.23999000 -0.40783599 -0.62177598 0.66862899 1.905766e-42
41.43780100 -30.67700000 489.56799000 -0.42921099 -0.62518102 0.65186399 1.905766e-42
42.36439900 -29.87949900 490.88901000 -0.46201599 -0.62781101 0.62641400 1.905766e-42
42.74459800 -28.83569900 492.30600000 -0.47593299 -0.63348103 0.61007398 1.905766e-42
42.95320100 -27.72260100 493.70499000 -0.48148301 -0.64066398 0.59810102 1.905766e-42
43.07379900 -26.55299900 495.06799000 -0.48457500 -0.65238798 0.58273202 1.905766e-42
43.51829900 -25.61960000 496.54099000 -0.48998499 -0.66580898 0.56268400 1.905766e-42
43.85520200 -24.64060000 498.01300000 -0.49179700 -0.68350798 0.53939998 1.905766e-42
43.19829900 -23.28220000 498.99500000 -0.49091300 -0.70212698 0.51577300 1.905766e-42
42.23910100 -22.04110000 499.87799000 -0.49207100 -0.71728498 0.49332300 1.905766e-42
41.27000000 -20.78400000 500.72699000 -0.49214199 -0.72482401 0.48210600 1.905766e-42
40.65219900 -19.58099900 501.91501000 -0.49526399 -0.72790998 0.47419500 1.905766e-42
39.78270000 -18.37610100 502.93100000 -0.47890601 -0.74334401 0.46700001 1.905766e-42
38.63240100 -17.21270000 503.68100000 -0.46054199 -0.75752598 0.46266201 1.905766e-42
38.24440000 -16.07360100 505.01999000 -0.45702100 -0.76841903 0.44795600 1.905766e-42
37.17620100 -15.00410000 505.99701000 -0.44596601 -0.78041399 0.43825600 1.905766e-42
36.20830200 -13.91400000 507.05301000 -0.43853399 -0.79198903 0.42478299 1.905766e-42
36.22200000 -12.92720000 508.55801000 -0.44346601 -0.80445701 0.39520600 1.905766e-42
35.38430000 -12.01290000 509.86301000 -0.43432400 -0.82166803 0.36908600 1.905766e-42
34.81179800 -11.13040000 511.32401000 -0.42715901 -0.83571899 0.34512299 1.905766e-42
34.66740000 -10.29450000 512.91101000 -0.42440701 -0.84579700 0.32327399 1.905766e-42
34.38140100 -9.56908990 514.53400000 -0.42214999 -0.85513198 0.30089700 1.905766e-42
33.94250100 -8.95195010 516.16699000 -0.42033100 -0.86361402 0.27837500 1.905766e-42
34.05780000 -8.25864980 517.82397000 -0.42324901 -0.86986798 0.25335801 1.905766e-42
33.86930100 -7.67534020 519.51599000 -0.42507300 -0.87586701 0.22840700 1.905766e-42
33.30820100 -7.27678010 521.17902000 -0.42320499 -0.88270497 0.20428000 1.905766e-42
32.85960000 -6.74810980 522.84003000 -0.42097700 -0.88960499 0.17715000 1.905766e-42
32.46590000 -6.21190980 524.51300000 -0.41889700 -0.89581603 0.14845300 1.905766e-42
32.57870100 -5.68292000 526.22998000 -0.41878301 -0.90021503 0.11930600 1.905766e-42
31.85440100 -5.35034990 527.84399000 -0.41507199 -0.90504402 0.09279110 1.905766e-42
31.80680100 -5.11700010 529.62799000 -0.41405800 -0.90795499 0.06460910 1.905766e-42
31.51050000 -4.97626020 531.39801000 -0.41291901 -0.90998399 0.03777230 1.905766e-42
31.44050000 -4.98554990 533.19598000 -0.41242000 -0.91091400 0.01205290 1.905766e-42
31.04360000 -5.00774000 534.95203000 -0.41391799 -0.91024297 -0.01140850 1.905766e-42
