# .PCD v0.7 - Point Cloud Data file format
# 5 250 -2
# 1 53 0
# 54 69 0
# 70 169 0
# 170 183 0
# 184 250 0
VERSION 0.7
FIELDS x y z normal_x normal_y normal_z curvature
SIZE 4 4 4 4 4 4 4
TYPE F F F F F F F
COUNT 1 1 1 1 1 1 1
WIDTH 250
HEIGHT 1
VIEWPOINT 0 0 0 1 0 0 0
POINTS 250
DATA ascii
32.74359900 4.88632010 442.02701000 -0.10271000 0.99398398 0.03803940 1.905766e-42
31.88600000 5.00659990 440.76801000 -0.10217200 0.99391001 0.04126510 1.905766e-42
30.38660000 4.74938010 441.73001000 -0.09186710 0.99519002 0.03401070 1.905766e-42
28.93779900 4.54130980 442.77802000 -0.07923630 0.99649203 0.02691680 1.905766e-42
27.22390000 4.12298010 443.13501000 -0.06359150 0.99774200 0.02161420 1.905766e-42
25.55559900 4.17697000 443.80801000 -0.04538630 0.99884200 0.01597790 1.905766e-42
23.76960000 3.96001010 443.86600000 -0.02488380 0.99961799 0.01203620 1.905766e-42
21.99000000 3.71077990 443.97101000 -0.00238744 0.99996102 0.00849971 1.905766e-42
20.28879900 3.95090010 444.50699000 0.02105230 0.99976403 0.00535862 1.905766e-42
18.53030000 3.96218990 444.89099000 0.04552830 0.99895698 0.00348852 1.905766e-42
16.86980100 4.24436000 445.52600000 0.06860590 0.99764103 0.00250934 1.905766e-42
15.17040000 4.35579010 446.10901000 0.08946280 0.99598801 0.00186640 1.905766e-42
13.38130000 4.38489010 446.30399000 0.10277200 0.99470401 -0.00122127 1.905766e-42
11.81800000 4.65364980 447.15500000 0.11359900 0.99352199 -0.00318970 1.905766e-42
10.01970000 4.72391990 447.19000000 0.12361100 0.99232399 -0.00374767 1.905766e-42
8.40096000 5.09267000 447.88599000 0.13170201 0.99128199 -0.00373737 1.905766e-42
6.79028990 5.39457990 448.63101000 0.13845700 0.99036402 -0.00299052 1.905766e-42
5.00918010 5.60332010 448.78601000 0.14620300 0.98925501 -0.00000218 1.905766e-42
3.35272000 5.95011000 449.39899000 0.15786600 0.98744702 -0.00518537 1.905766e-42
1.56268000 6.00550990 449.57999000 0.17660201 0.98416603 -0.01516830 1.905766e-42
-0.11461800 6.34829000 450.13599000 0.19896200 0.97956300 -0.02950600 1.905766e-42
-1.62649000 6.88676980 450.95099000 0.22345801 0.97362697 -0.04600770 1.905766e-42
-3.30290010 7.32882020 451.43500000 0.25047299 0.96629202 -0.05952000 1.905766e-42
-5.01017000 7.72704980 451.84299000 0.27942601 0.95745099 -0.07216510 1.905766e-42
-6.47956990 8.30478950 452.70700000 0.30926701 0.94692701 -0.08765370 1.905766e-42
-8.08327010 8.93527030 453.22699000 0.33927000 0.93518800 -0.10158500 1.905766e-42
-9.74993040 9.53470990 453.54800000 0.36368999 0.92417699 -0.11673400 1.905766e-42
-11.20190000 10.31550000 454.27100000 0.38532999 0.91285801 -0.13495000 1.905766e-42
-12.60380000 11.00180000 455.16699000 0.40381300 0.90172398 -0.15436301 1.905766e-42
-14.12420000 11.78660000 455.72601000 0.41638801 0.89242399 -0.17378500 1.905766e-42
-15.78050000 12.45860000 455.93799000 0.41133600 0.89388502 -0.17824900 1.905766e-42
-16.94619900 13.27960000 457.03699000 0.39502701 0.90330100 -0.16733199 1.905766e-42
-18.49519900 14.07700000 457.48999000 0.37267900 0.91400403 -0.16033700 1.905766e-42
-19.92660000 14.85440000 458.25601000 0.34798399 0.92500103 -0.15257999 1.905766e-42
-21.44930100 15.53090000 458.93701000 0.32068300 0.93596101 -0.14539500 1.905766e-42
-22.87850000 16.19820000 459.80399000 0.29311800 0.94604802 -0.13811301 1.905766e-42
-24.33790000 16.78060000 460.68201000 0.26511601 0.95528501 -0.13093700 1.905766e-42
-25.91970100 17.33530000 461.33801000 0.23657501 0.96371400 -0.12364700 1.905766e-42
-27.17050000 17.87290000 462.51501000 0.21208200 0.97026902 -0.11661400 1.905766e-42
-28.84149900 18.33779900 462.99701000 0.18639600 0.97644103 -0.10871700 1.905766e-42
-30.43530100 18.65889900 463.76901000 0.16356499 0.98140198 -0.10047900 1.905766e-42
-31.91960000 18.96080000 464.74200000 0.15265800 0.98274797 -0.10441500 1.905766e-42
-33.37649900 19.16309900 465.77899000 0.15971000 0.97855800 -0.13006601 1.905766e-42
-34.26300000 19.24939900 467.34299000 0.17076300 0.97239500 -0.15901899 1.905766e-42
-34.07860200 19.32790000 469.13199000 0.18130501 0.96587300 -0.18498001 1.905766e-42
-33.97980100 19.50289900 470.92099000 0.19098800 0.95829302 -0.21259899 1.905766e-42
-34.04309800 19.65640100 472.71301000 0.19975100 0.94965303 -0.24136700 1.905766e-42
-33.80530200 20.08480100 474.44501000 0.20699000 0.94050300 -0.26945999 1.905766e-42
-34.11349900 20.52300100 476.16400000 0.21416800 0.92981702 -0.29928499 1.905766e-42
-35.03659800 20.89800100 477.66299000 0.22187600 0.91883999 -0.32635000 1.905766e-42
-35.95439900 21.30690000 479.15601000 0.23005700 0.90722299 -0.35216400 1.905766e-42
-36.35670100 22.17639900 480.67999000 0.23715900 0.89465100 -0.37862200 1.905766e-42
-37.14270000 22.94150000 482.10699000 0.24592300 0.88170397 -0.40264201 1.905766e-42
-37.99330100 23.87000100 483.39301000 0.26228699 0.86227798 -0.43322301 1.905766e-42
-38.93539800 24.91820000 484.51300000 0.28452599 0.83778000 -0.46601501 1.905766e-42
-40.17620100 25.78430000 485.48801000 0.30973899 0.81184500 -0.49494401 1.905766e-42
-41.34540200 26.82780100 486.37299000 0.33669999 0.78338802 -0.52243298 1.905766e-42
-42.72230100 27.82329900 486.96799000 0.36541399 0.75391299 -0.54597402 1.905766e-42
-43.52579900 29.28660000 487.64099000 0.39372900 0.72120601 -0.56994700 1.905766e-42
-44.94250100 30.35790100 487.93301000 0.42387900 0.68784201 -0.58923602 1.905766e-42
-46.20470000 31.61000100 488.21399000 0.45446399 0.65107203 -0.60792100 1.905766e-42
-47.83350000 32.35979800 488.05600000 0.48001999 0.61934400 -0.62128401 1.905766e-42
-49.13629900 33.60020100 487.99301000 0.50802797 0.58048898 -0.63634902 1.905766e-42
-50.05440100 35.14839900 487.99399000 0.53625101 0.53804898 -0.65033698 1.905766e-42
-50.93000000 36.72119900 487.99899000 0.56393498 0.49366799 -0.66201901 1.905766e-42
-51.97420100 38.17770000 487.83099000 0.58290499 0.47244701 -0.66107202 1.905766e-42
-52.82189900 39.76559800 487.84698000 0.59562200 0.47347900 -0.64888501 1.905766e-42
-53.72140100 41.32249800 487.92899000 0.60833597 0.47444499 -0.63626099 1.905766e-42
-54.63970200 42.86970100 487.98199000 0.62115300 0.47481799 -0.62347102 1.905766e-42
-55.63650100 44.36850000 487.97601000 0.63426101 0.47375199 -0.61096001 1.905766e-42
-55.06259900 45.11010000 489.51300000 0.63602501 0.49294901 -0.59369498 1.905766e-42
-54.29259900 45.65950000 491.04401000 0.63540697 0.51281399 -0.57730401 1.905766e-42
-54.21550000 46.76030000 492.46600000 0.64047098 0.52991903 -0.55586201 1.905766e-42
-53.62300100 47.54410200 493.97400000 0.64083701 0.54932600 -0.53625399 1.905766e-42
-53.63119900 48.65670000 495.38901000 0.64485502 0.56583101 -0.51380700 1.905766e-42
-53.03979900 49.40660100 496.91501000 0.64358401 0.58427298 -0.49439299 1.905766e-42
-53.31200000 50.55910100 498.27100000 0.64705300 0.59851199 -0.47234100 1.905766e-42
-52.77109900 51.43410100 499.74799000 0.64470702 0.61500698 -0.45400500 1.905766e-42
-52.68999900 52.51039900 501.18799000 0.64813000 0.62136799 -0.44026101 1.905766e-42
-52.73379900 53.53450000 502.66800000 0.65389198 0.62073898 -0.43256101 1.905766e-42
-52.55989800 54.45629900 504.20401000 0.65712100 0.62063801 -0.42778599 1.905766e-42
-52.63209900 55.37830000 505.74799000 0.66102999 0.61807603 -0.42546701 1.905766e-42
-52.35010100 56.21910100 507.31500000 0.66202003 0.61657500 -0.42610300 1.905766e-42
-52.43080100 57.28039900 508.76599000 0.66538399 0.61125499 -0.42852199 1.905766e-42
-52.31570100 58.24300000 510.28299000 0.66645998 0.60638201 -0.43374100 1.905766e-42
-52.28010200 59.26179900 511.76599000 0.66703802 0.60007101 -0.44156101 1.905766e-42
-51.94400000 60.10620100 513.32001000 0.66169399 0.59526998 -0.45586601 1.905766e-42
-51.88340000 61.15919900 514.77899000 0.65855801 0.58700299 -0.47088200 1.905766e-42
-52.04060000 62.28540000 516.17401000 0.65637600 0.57648897 -0.48665300 1.905766e-42
-51.64059800 63.29309800 517.61102000 0.64909500 0.56670600 -0.50746399 1.905766e-42
-51.60599900 64.54509700 518.90399000 0.64932603 0.54349500 -0.53196698 1.905766e-42
-51.29029800 65.67849700 520.26599000 0.64586502 0.51976198 -0.55920100 1.905766e-42
-50.92240100 66.80139900 521.62402000 0.64002001 0.49689400 -0.58606398 1.905766e-42
-50.39960100 67.85260000 522.98798000 0.63124800 0.47578701 -0.61249697 1.905766e-42
-50.31769900 69.21080000 524.16699000 0.62645900 0.45200300 -0.63501298 1.905766e-42
-49.95150000 70.56349900 525.29602000 0.61888999 0.43033901 -0.65710199 1.905766e-42
-49.49850100 71.85739900 526.46301000 0.60989600 0.41044101 -0.67791200 1.905766e-42
-49.01079900 73.13649700 527.63098000 0.60060501 0.39218000 -0.69675601 1.905766e-42
-48.44770100 74.39930000 528.78400000 0.59123898 0.37598699 -0.71349102 1.905766e-42
-48.23540100 75.90380100 529.74902000 0.58786798 0.35976699 -0.72455502 1.905766e-42
-48.34190000 77.48459600 530.60303000 0.58684099 0.34413400 -0.73293197 1.905766e-42
-47.91210200 78.95400200 531.54999000 0.58150899 0.33079001 -0.74325299 1.905766e-42
-47.38380100 80.37950100 532.51398000 0.57488900 0.31840199 -0.75373900 1.905766e-42
-46.26350000 81.15309900 533.69098000 0.56273597 0.31043401 -0.76613301 1.905766e-42
-44.91989900 81.42379800 534.85797000 0.54953098 0.30534500 -0.77767599 1.905766e-42
-43.89429900 82.14299800 536.15100000 0.53809798 0.29603499 -0.78918600 1.905766e-42
-42.37060200 82.25789600 537.10199000 0.52612501 0.29122600 -0.79898697 1.905766e-42
-41.03160100 82.84950300 538.14899000 0.51506102 0.28209001 -0.80940598 1.905766e-42
-39.60139800 83.32240300 539.13501000 0.50444603 0.27338001 -0.81902200 1.905766e-42
-38.13480000 83.74610100 540.08899000 0.48643899 0.26298299 -0.83319700 1.905766e-42
-36.78300100 84.39330300 541.08502000 0.46711001 0.25066999 -0.84792298 1.905766e-42
-35.23949800 84.74099700 541.94397000 0.44753399 0.24166100 -0.86099601 1.905766e-42
-33.75490200 85.30239900 542.79303000 0.42824101 0.23158300 -0.87348700 1.905766e-42
-32.16140000 85.57540100 543.58398000 0.40867800 0.22470300 -0.88458502 1.905766e-42
-30.67130100 86.13770300 544.42297000 0.38953701 0.21613300 -0.89529198 1.905766e-42
-29.06489900 86.26740300 545.22400000 0.36989301 0.21169101 -0.90463603 1.905766e-42
-27.75989900 87.08550300 546.15601000 0.35220701 0.20266600 -0.91371602 1.905766e-42
-26.04929900 87.13300300 546.71399000 0.33252099 0.20023499 -0.92159402 1.905766e-42
-24.31170100 87.01499900 547.16901000 0.31925499 0.20107700 -0.92609102 1.905766e-42
-22.60300100 87.17720000 547.71100000 0.30598199 0.20017400 -0.93075502 1.905766e-42
-20.90259900 87.16179700 548.30103000 0.29179201 0.20018600 -0.93529803 1.905766e-42
-19.16350000 86.98230000 548.72900000 0.27686900 0.20112000 -0.93962502 1.905766e-42
-17.44269900 87.14109800 549.23297000 0.26121199 0.19999200 -0.94433701 1.905766e-42
-15.69220000 87.16670200 549.65100000 0.24471800 0.19950700 -0.94884700 1.905766e-42
-14.04030000 87.43779800 550.31299000 0.22784100 0.19745401 -0.95346701 1.905766e-42
-12.30290000 87.11109900 550.65198000 0.21034500 0.19832200 -0.95730001 1.905766e-42
-10.55280000 87.24440000 551.05103000 0.19188400 0.19678900 -0.96148598 1.905766e-42
-8.77974990 87.13880200 551.34302000 0.17149401 0.19577000 -0.96553802 1.905766e-42
-7.00252010 87.05400100 551.61499000 0.14909101 0.19411600 -0.96958297 1.905766e-42
-5.22495990 87.16700000 551.87500000 0.12499900 0.19114600 -0.97356999 1.905766e-42
-3.45934010 87.18350200 552.22498000 0.09964280 0.18794399 -0.97711200 1.905766e-42
-1.67030000 87.18399800 552.42297000 0.07305570 0.18420200 -0.98017001 1.905766e-42
0.00065405 86.55429800 552.19598000 0.04953770 0.18288501 -0.98188502 1.905766e-42
1.75128000 86.15869900 552.05902000 0.02373850 0.17941099 -0.98348802 1.905766e-42
3.54470990 86.03019700 551.97498000 -0.00386286 0.17343700 -0.98483700 1.905766e-42
5.19937990 85.34750400 551.78497000 -0.02649120 0.16950700 -0.98517299 1.905766e-42
6.95733020 84.96089900 551.77197000 -0.05228170 0.16173500 -0.98544800 1.905766e-42
8.42619990 83.97630300 551.43597000 -0.07595160 0.15483899 -0.98501599 1.905766e-42
10.22550000 83.92530100 551.44501000 -0.11679700 0.13657300 -0.98372102 1.905766e-42
11.51860000 82.76750200 550.96802000 -0.13456801 0.13049699 -0.98227400 1.905766e-42
13.21010000 82.40599800 550.47101000 -0.17178400 0.11459300 -0.97844702 1.905766e-42
14.79370000 81.66929600 550.03497000 -0.20638900 0.10922400 -0.97235501 1.905766e-42
16.38340000 80.99389600 549.52802000 -0.24151400 0.10175800 -0.96504700 1.905766e-42
18.11700100 80.80439800 549.08301000 -0.28373799 0.08540050 -0.95509100 1.905766e-42
19.67050000 80.04979700 548.57599000 -0.31432199 0.07721600 -0.94617099 1.905766e-42
21.24320000 79.30030100 548.12299000 -0.34280199 0.06824460 -0.93692601 1.905766e-42
22.76840000 78.56160000 547.51599000 -0.36910099 0.05865160 -0.92753702 1.905766e-42
24.26479900 77.80069700 546.86700000 -0.39250600 0.04913220 -0.91843599 1.905766e-42
25.73700000 76.97429700 546.24200000 -0.41219100 0.04069810 -0.91018802 1.905766e-42
27.20030000 76.15779900 545.58502000 -0.42978400 0.03203410 -0.90236300 1.905766e-42
28.83790000 76.01210000 544.85303000 -0.45568401 0.01126920 -0.89007002 1.905766e-42
30.31020000 75.28929900 544.11102000 -0.47030601 0.00064997 -0.88250297 1.905766e-42
31.84540000 74.72660100 543.35797000 -0.47983000 0.00437713 -0.87735099 1.905766e-42
33.16350200 73.81839800 542.53497000 -0.48463699 0.02078820 -0.87446898 1.905766e-42
34.44279900 72.84140000 541.72900000 -0.49117601 0.03621930 -0.87030703 1.905766e-42
35.80899800 72.04969800 540.86499000 -0.49769399 0.05071610 -0.86586899 1.905766e-42
37.31890100 71.40290100 540.12903000 -0.50455600 0.06393170 -0.86100900 1.905766e-42
38.10150100 69.96640000 539.37799000 -0.51407897 0.07691080 -0.85428798 1.905766e-42
39.51820000 69.39740000 538.42499000 -0.52165002 0.08856600 -0.84855002 1.905766e-42
40.76319900 68.39460000 537.59698000 -0.53054303 0.10078500 -0.84164500 1.905766e-42
41.60929900 67.05989800 536.73602000 -0.53917998 0.11347900 -0.83451098 1.905766e-42
42.85440100 66.11000100 535.84802000 -0.54763800 0.12498000 -0.82732898 1.905766e-42
43.90980100 64.96929900 534.94000000 -0.55878800 0.14026199 -0.81736302 1.905766e-42
44.92699800 63.77870200 534.05200000 -0.57086802 0.15634800 -0.80601799 1.905766e-42
45.63570000 62.34709900 533.22302000 -0.58152401 0.17264500 -0.79499900 1.905766e-42
46.44500000 60.97399900 532.38599000 -0.59202600 0.18815400 -0.78364801 1.905766e-42
46.46310000 59.25809900 531.84302000 -0.59729803 0.20351300 -0.77576900 1.905766e-42
47.46210100 58.17750200 530.80701000 -0.60821003 0.21630999 -0.76373398 1.905766e-42
48.52159900 57.25610000 529.67999000 -0.61946702 0.22742800 -0.75135702 1.905766e-42
49.93890000 56.92060100 528.62299000 -0.63135803 0.23417500 -0.73929000 1.905766e-42
51.09159900 57.44170000 527.34198000 -0.64154798 0.23611800 -0.72983903 1.905766e-42
52.31029900 58.51200100 526.56097000 -0.64845902 0.23400199 -0.72439200 1.905766e-42
53.68640100 59.46950100 525.90601000 -0.65491402 0.23295900 -0.71890002 1.905766e-42
55.03799800 60.36270100 525.12201000 -0.66121298 0.23309600 -0.71306700 1.905766e-42
56.40660100 61.03609800 524.16602000 -0.66794002 0.23536099 -0.70601797 1.905766e-42
57.56230200 62.29880100 523.60901000 -0.67088997 0.23285501 -0.70404899 1.905766e-42
58.75930000 63.28749800 522.69800000 -0.67517501 0.23331100 -0.69978899 1.905766e-42
59.87130000 64.58249700 522.12701000 -0.67707199 0.23080499 -0.69878602 1.905766e-42
61.03220000 65.47049700 521.07599000 -0.68059802 0.23208700 -0.69492602 1.905766e-42
62.12139900 66.77410100 520.48102000 -0.68154800 0.22946100 -0.69486701 1.905766e-42
63.38810000 67.61560100 519.51801000 -0.68380702 0.23059800 -0.69226700 1.905766e-42
64.69080400 68.59590100 518.75500000 -0.68481600 0.23029301 -0.69137001 1.905766e-42
66.02469600 69.37390100 517.83002000 -0.68564099 0.23145799 -0.69016200 1.905766e-42
67.31160000 70.18789700 516.87097000 -0.68548399 0.23227400 -0.69004399 1.905766e-42
68.25280000 69.14930000 515.74103000 -0.68733901 0.24383999 -0.68418300 1.905766e-42
67.91829700 67.50980400 515.07800000 -0.69048798 0.25613400 -0.67647803 1.905766e-42
67.94500000 66.05860100 514.01300000 -0.69340497 0.27055800 -0.66782302 1.905766e-42
67.60600300 64.35479700 513.54199000 -0.69740599 0.28373501 -0.65811801 1.905766e-42
67.28569800 62.64049900 513.09601000 -0.70180202 0.29707000 -0.64747500 1.905766e-42
67.30719800 60.89590100 512.65302000 -0.70635903 0.31145099 -0.63565302 1.905766e-42
66.56520100 59.25619900 512.62903000 -0.71145898 0.32012600 -0.62557602 1.905766e-42
66.55600000 57.60739900 511.90701000 -0.71670198 0.33485401 -0.61172801 1.905766e-42
67.24230200 56.43619900 510.72501000 -0.72022802 0.35207999 -0.59775501 1.905766e-42
67.54470100 55.04359800 509.62500000 -0.72486597 0.36891699 -0.58178103 1.905766e-42
67.25740100 53.47269800 508.79501000 -0.72784299 0.37714300 -0.57271898 1.905766e-42
67.17510200 51.92940100 507.87201000 -0.73034298 0.38419801 -0.56479198 1.905766e-42
67.07170100 50.40060000 506.92700000 -0.73354203 0.38979399 -0.55675602 1.905766e-42
66.56810000 48.76870000 506.35901000 -0.73975998 0.39075801 -0.54778099 1.905766e-42
66.16610000 47.15440000 505.67099000 -0.74629498 0.39080501 -0.53881001 1.905766e-42
65.69339800 45.60030000 504.89600000 -0.75364500 0.38929799 -0.52959001 1.905766e-42
65.19550300 44.08739900 504.05701000 -0.76184601 0.38634199 -0.51993299 1.905766e-42
64.95369700 42.51190200 503.22101000 -0.77064800 0.38279200 -0.50948203 1.905766e-42
64.83799700 40.84980000 502.54001000 -0.78088802 0.37693799 -0.49812800 1.905766e-42
64.15499900 39.18940000 502.41000000 -0.79512203 0.36115000 -0.48718700 1.905766e-42
63.92760100 37.58509800 501.62701000 -0.80839002 0.34983200 -0.47341499 1.905766e-42
63.73500100 36.00709900 500.78201000 -0.79225302 0.38973400 -0.46951199 1.905766e-42
62.72549800 34.51990100 500.68600000 -0.76414800 0.43970600 -0.47194999 1.905766e-42
62.63930100 32.96260100 499.78699000 -0.74444902 0.48058599 -0.46349999 1.905766e-42
61.92300000 31.40340000 499.24301000 -0.71371698 0.52995801 -0.45798799 1.905766e-42
61.45539900 29.85790100 498.44800000 -0.68337101 0.57357299 -0.45168501 1.905766e-42
60.43130100 28.41420000 498.12000000 -0.64251697 0.62093502 -0.44901201 1.905766e-42
59.62979900 27.02380000 497.30499000 -0.60398299 0.66214699 -0.44358400 1.905766e-42
58.91790000 25.75600100 496.24399000 -0.56780303 0.69808000 -0.43621600 1.905766e-42
57.67050200 24.56819900 495.72198000 -0.52123201 0.73752898 -0.42938101 1.905766e-42
56.96770100 23.39300000 494.55301000 -0.48544800 0.76704699 -0.41949999 1.905766e-42
55.96320000 22.29570000 493.54001000 -0.44801500 0.79436499 -0.41020399 1.905766e-42
55.13769900 21.17030000 492.40302000 -0.43705201 0.80292898 -0.40532699 1.905766e-42
53.87559900 20.21920000 491.54199000 -0.42160800 0.81336802 -0.40084800 1.905766e-42
53.25199900 19.12660000 490.25400000 -0.41157901 0.82298303 -0.39153701 1.905766e-42
52.17779900 18.26180100 489.09698000 -0.39753199 0.83411902 -0.38237900 1.905766e-42
51.05189900 17.35460100 488.02499000 -0.38235199 0.84564102 -0.37242100 1.905766e-42
50.05199800 16.40329900 486.87000000 -0.36792701 0.85702699 -0.36074200 1.905766e-42
49.18780100 15.50260000 485.57300000 -0.35480899 0.86798501 -0.34743699 1.905766e-42
48.17089800 14.62630000 484.37399000 -0.34020501 0.87890798 -0.33433601 1.905766e-42
47.89360000 13.52380000 482.97800000 -0.33190799 0.88768500 -0.31914401 1.905766e-42
46.48120100 13.01750000 481.98401000 -0.31422901 0.89805698 -0.30781999 1.905766e-42
45.98260100 12.29760000 480.41101000 -0.30371100 0.90704298 -0.29160300 1.905766e-42
45.15729900 11.59490000 478.97400000 -0.29010701 0.91616797 -0.27653900 1.905766e-42
43.97449900 11.08030000 477.71899000 -0.27369601 0.92500001 -0.26356399 1.905766e-42
43.11230100 10.40600000 476.29001000 -0.26044500 0.93268400 -0.24953701 1.905766e-42
42.26179900 9.78225040 474.83099000 -0.24787600 0.93961799 -0.23595600 1.905766e-42
41.70410200 9.05337050 473.28299000 -0.23866200 0.94533998 -0.22219799 1.905766e-42
40.52690100 8.62679960 471.98901000 -0.22352700 0.95137900 -0.21192899 1.905766e-42
40.10189800 7.88856980 470.40399000 -0.21511801 0.95574099 -0.20070900 1.905766e-42
39.02790100 7.64423990 468.98001000 -0.20223500 0.96074700 -0.18990999 1.905766e-42
38.15440000 7.21456000 467.46600000 -0.19133601 0.96524900 -0.17800499 1.905766e-42
37.87060200 6.56250000 465.81299000 -0.18423399 0.96909600 -0.16404600 1.905766e-42
36.90250000 6.39314990 464.30399000 -0.17153899 0.97370702 -0.14989400 1.905766e-42
36.56499900 5.92882010 462.59799000 -0.16396300 0.97730500 -0.13413200 1.905766e-42
36.03900100 5.64463000 460.90100000 -0.15487000 0.98088503 -0.11781000 1.905766e-42
35.07180000 5.51380010 459.38800000 -0.14247499 0.98452598 -0.10202800 1.905766e-42
35.25370000 5.06038000 457.65601000 -0.13955399 0.98644799 -0.08628920 1.905766e-42
34.65160000 5.02782010 455.95999000 -0.13053600 0.98899603 -0.06962610 1.905766e-42
34.34949900 4.82346010 454.19699000 -0.12395200 0.99086797 -0.05307470 1.905766e-42
33.84170200 4.84217980 452.47000000 -0.11642300 0.99251097 -0.03697020 1.905766e-42
33.36180100 4.75033000 450.73801000 -0.10954900 0.99374998 -0.02144500 1.905766e-42
33.57500100 4.65033010 448.95300000 -0.10830300 0.99409097 -0.00732468 1.905766e-42
33.86340000 4.60384990 447.17700000 -0.10786200 0.99414802 0.00595895 1.905766e-42
33.63349900 4.82327990 445.40601000 -0.10496100 0.99429601 0.01891710 1.905766e-42
33.58680000 4.72142980 443.60901000 -0.10391900 0.99411201 0.03070770 1.905766e-42
