# .PCD v0.7 - Point Cloud Data file format
# 4 132 0
# 1 34 0
# 35 74 0
# 75 104 0
# 105 132 0
VERSION 0.7
FIELDS x y z normal_x normal_y normal_z curvature
SIZE 4 4 4 4 4 4 4
TYPE F F F F F F F
COUNT 1 1 1 1 1 1 1
WIDTH 132
HEIGHT 1
VIEWPOINT 0 0 0 1 0 0 0
POINTS 132
DATA ascii
33.50450100 -1.86361000 475.97601000 -0.39375901 0.71563500 -0.57690603 1.905766e-42
32.33380100 -3.01507000 475.23901000 -0.41478100 0.69346303 -0.58912200 1.905766e-42
31.06189900 -4.22109990 474.82901000 -0.41312900 0.67944503 -0.60636598 1.905766e-42
29.75040100 -5.40060000 474.47000000 -0.38626599 0.68546599 -0.61720002 1.905766e-42
28.20940000 -6.31295010 474.28799000 -0.35451099 0.69406497 -0.62657499 1.905766e-42
26.76600100 -7.30890990 473.88300000 -0.32185599 0.70010197 -0.63739097 1.905766e-42
25.42040100 -8.37098980 473.33401000 -0.28891301 0.70364302 -0.64916497 1.905766e-42
23.98640100 -9.34844020 472.85599000 -0.25380599 0.70795000 -0.65908301 1.905766e-42
22.27619900 -9.90581040 472.78900000 -0.21462899 0.72075301 -0.65912700 1.905766e-42
20.54940000 -10.41390000 472.79199000 -0.17856000 0.73369098 -0.65560198 1.905766e-42
19.19969900 -11.31390000 472.01199000 -0.14451700 0.73951203 -0.65744698 1.905766e-42
17.43289900 -11.65750000 471.99799000 -0.11265100 0.75231999 -0.64909500 1.905766e-42
15.65280000 -11.92230000 471.95999000 -0.08236830 0.76453298 -0.63930100 1.905766e-42
14.12380000 -12.58990000 471.28500000 -0.05069730 0.77200300 -0.63359398 1.905766e-42
12.33540000 -12.77660000 471.20300000 -0.02353770 0.78075099 -0.62439799 1.905766e-42
10.71840000 -13.28200000 470.59500000 0.00738076 0.78559202 -0.61870003 1.905766e-42
8.98437020 -13.54460000 470.18900000 0.03915830 0.79099298 -0.61057103 1.905766e-42
7.20208980 -13.35280000 470.35199000 0.06773820 0.79830903 -0.59842700 1.905766e-42
5.41841980 -13.11310000 470.38599000 0.09801510 0.80435097 -0.58601397 1.905766e-42
3.62723990 -12.93540000 470.39600000 0.13157400 0.80977798 -0.57179397 1.905766e-42
1.85605000 -12.61470000 470.39301000 0.16641000 0.81587702 -0.55376202 1.905766e-42
0.13985699 -12.12450000 470.62701000 0.19478300 0.82299101 -0.53361499 1.905766e-42
-1.62778000 -11.82640000 470.46301000 0.22659799 0.82804799 -0.51282603 1.905766e-42
-3.32922010 -11.26230000 470.62701000 0.25049099 0.83423603 -0.49122801 1.905766e-42
-5.05828000 -10.80010000 470.43600000 0.27700099 0.83888000 -0.46856299 1.905766e-42
-6.76251980 -10.51120000 469.93399000 0.30520600 0.84205699 -0.44473499 1.905766e-42
-8.44645980 -9.91829970 469.70401000 0.32003200 0.84488302 -0.42866400 1.905766e-42
-10.01940000 -9.92623040 468.82901000 0.33191100 0.84107298 -0.42712000 1.905766e-42
-11.59610000 -9.05803010 468.83801000 0.34165901 0.84314901 -0.41517401 1.905766e-42
-13.20480000 -8.59899040 468.17300000 0.35733199 0.83884799 -0.41066700 1.905766e-42
-14.95830000 -8.56254010 467.17700000 0.37883601 0.82728398 -0.41483200 1.905766e-42
-16.00939900 -7.48421000 468.16299000 0.39779601 0.82342601 -0.40463400 1.905766e-42
-17.52549900 -6.56128980 468.46201000 0.42187101 0.81476998 -0.39771199 1.905766e-42
-19.09730000 -5.68743990 468.53900000 0.44611800 0.80524701 -0.39058501 1.905766e-42
-20.69220000 -4.88417010 468.76401000 0.46844700 0.79654402 -0.38219801 1.905766e-42
-20.98740000 -3.78761010 470.16101000 0.47222301 0.79742599 -0.37565500 1.905766e-42
-21.56049900 -2.69815990 471.47400000 0.47834900 0.79560202 -0.37175199 1.905766e-42
-22.31349900 -1.59921000 472.68500000 0.48020700 0.79773998 -0.36470801 1.905766e-42
-22.90449900 -0.76099497 474.16400000 0.47776499 0.79978299 -0.36343801 1.905766e-42
-23.66169900 0.13902000 475.52600000 0.47672501 0.80008000 -0.36414900 1.905766e-42
-24.64900000 1.01862000 476.74799000 0.47707099 0.79925501 -0.36550701 1.905766e-42
-25.13960100 2.14621000 478.06201000 0.47432601 0.79807597 -0.37160400 1.905766e-42
-25.42200100 3.18073010 479.50800000 0.47019801 0.79621202 -0.38073501 1.905766e-42
-26.03669900 4.31548020 480.76300000 0.46569201 0.79711401 -0.38437101 1.905766e-42
-26.67950100 5.19147010 482.19800000 0.46015000 0.79976797 -0.38552999 1.905766e-42
-27.25000000 6.15029000 483.60999000 0.45548901 0.80305803 -0.38422301 1.905766e-42
-28.14590100 7.22355990 484.74399000 0.45440701 0.80626500 -0.37874901 1.905766e-42
-28.43549900 8.11639020 486.28000000 0.45120499 0.81090802 -0.37261599 1.905766e-42
-28.20200000 8.88099000 487.89301000 0.44720301 0.81765199 -0.36256701 1.905766e-42
-28.06860000 9.56867030 489.55099000 0.43527600 0.82684499 -0.35617700 1.905766e-42
-28.52290000 10.33770000 491.11301000 0.43452099 0.82764000 -0.35525200 1.905766e-42
-28.51429900 10.75860000 492.86401000 0.42472500 0.82884401 -0.36417899 1.905766e-42
-28.57930000 11.41740000 494.53699000 0.41769999 0.82686901 -0.37658200 1.905766e-42
-28.63170100 12.13190000 496.18900000 0.41124901 0.82261199 -0.39266199 1.905766e-42
-28.56979900 13.05400000 497.73300000 0.40525100 0.81636101 -0.41149300 1.905766e-42
-28.11380000 13.88850000 499.26199000 0.39562801 0.80978799 -0.43326899 1.905766e-42
-28.33620100 14.78410000 500.80701000 0.39420801 0.79965699 -0.45293400 1.905766e-42
-28.53400000 15.66260000 502.36600000 0.37836099 0.80469102 -0.45750999 1.905766e-42
-27.96690000 16.49790000 503.85599000 0.35996300 0.81405801 -0.45578000 1.905766e-42
-27.97120100 17.26359900 505.48499000 0.34029099 0.82726502 -0.44702899 1.905766e-42
-27.55670000 17.95870000 507.09299000 0.32335299 0.83578700 -0.44373700 1.905766e-42
-27.67440000 18.65910000 508.74701000 0.30452901 0.84465599 -0.44024700 1.905766e-42
-27.14539900 19.31740000 510.33600000 0.29136601 0.84450197 -0.44935700 1.905766e-42
-27.06769900 20.16560000 511.92200000 0.27463099 0.84135300 -0.46551299 1.905766e-42
-27.10610000 21.17359900 513.41302000 0.25529301 0.83098501 -0.49425599 1.905766e-42
-27.21800000 22.24819900 514.85199000 0.23736601 0.81902200 -0.52236098 1.905766e-42
-26.94549900 23.26210000 516.31500000 0.22656099 0.81525099 -0.53295100 1.905766e-42
-26.85140000 24.22480000 517.83301000 0.21519201 0.82006001 -0.53027701 1.905766e-42
-26.33120000 24.99930000 519.37201000 0.21312800 0.82608801 -0.52168399 1.905766e-42
-26.35090100 25.77150000 520.99799000 0.20518699 0.83733100 -0.50673002 1.905766e-42
-26.42830100 26.59810100 522.59497000 0.19808500 0.84843302 -0.49083900 1.905766e-42
-26.10990000 27.51140000 524.11298000 0.19551501 0.85611498 -0.47837400 1.905766e-42
-26.07650000 28.57449900 525.56500000 0.18458000 0.86130202 -0.47338101 1.905766e-42
-25.32329900 29.55839900 526.87097000 0.17850100 0.86423802 -0.47035101 1.905766e-42
-23.97610100 29.98180000 527.98700000 0.17474200 0.86879599 -0.46331301 1.905766e-42
-22.38069900 29.14870100 527.96198000 0.16603100 0.86506498 -0.47338900 1.905766e-42
-20.76219900 28.36100000 527.97498000 0.14973800 0.86046600 -0.48700801 1.905766e-42
-19.18280000 27.78790100 527.32898000 0.13391000 0.84911698 -0.51094902 1.905766e-42
-17.44720100 27.35520000 527.12799000 0.11048800 0.83857399 -0.53346598 1.905766e-42
-15.69160000 26.95879900 527.15503000 0.09363730 0.82982498 -0.55011100 1.905766e-42
-14.01810000 26.60100000 526.59698000 0.09454730 0.81348598 -0.57384801 1.905766e-42
-12.24470000 26.35300100 526.41400000 0.10096200 0.79872298 -0.59316897 1.905766e-42
-10.59960000 25.99160000 525.77899000 0.10302700 0.78921503 -0.60541302 1.905766e-42
-8.94686030 25.58900100 525.19000000 0.08768300 0.79854399 -0.59551603 1.905766e-42
-7.19137000 25.33750000 524.88202000 0.07259760 0.80782902 -0.58492899 1.905766e-42
-5.43047000 24.97800100 524.78198000 0.05569140 0.81721097 -0.57364202 1.905766e-42
-3.86739990 24.42740100 524.08002000 0.03206190 0.82519197 -0.56394100 1.905766e-42
-2.08474990 24.19059900 524.00201000 0.00715046 0.83429497 -0.55127198 1.905766e-42
-0.42687401 23.80060000 523.41901000 -0.03167360 0.83849001 -0.54399598 1.905766e-42
1.33044000 23.46240000 523.22498000 -0.07180980 0.83846998 -0.54019600 1.905766e-42
3.01991010 23.29550000 522.62701000 -0.10023700 0.83022499 -0.54834199 1.905766e-42
4.80972000 23.29470100 522.43597000 -0.12960599 0.82321399 -0.55273998 1.905766e-42
6.50666000 23.26740100 521.83600000 -0.15550500 0.81427801 -0.55925798 1.905766e-42
8.29014970 23.28610000 521.59399000 -0.18311299 0.80605400 -0.56280297 1.905766e-42
9.84119030 23.20669900 520.68402000 -0.20659301 0.79533398 -0.56988102 1.905766e-42
11.58000000 23.36949900 520.24799000 -0.23588599 0.78539503 -0.57228702 1.905766e-42
13.13220000 23.32589900 519.33801000 -0.26308000 0.77265102 -0.57775402 1.905766e-42
14.82660000 23.49560000 518.75403000 -0.28790900 0.75930399 -0.58358097 1.905766e-42
16.44739900 23.50779900 517.97101000 -0.30506101 0.74642903 -0.59142298 1.905766e-42
18.18919900 23.79290000 517.61798000 -0.32224700 0.73617500 -0.59514999 1.905766e-42
19.74510000 23.95640000 516.72803000 -0.33474100 0.72421098 -0.60288203 1.905766e-42
21.28870000 23.98329900 515.80298000 -0.34598699 0.71177298 -0.61128801 1.905766e-42
22.95420100 24.34230000 515.22198000 -0.36117500 0.70005900 -0.61601198 1.905766e-42
24.59870000 24.68210000 514.57397000 -0.37721899 0.68727201 -0.62077600 1.905766e-42
26.36689900 24.96480000 514.39001000 -0.39660800 0.67563599 -0.62146503 1.905766e-42
27.42100000 24.78050000 512.94299000 -0.41430199 0.67009097 -0.61589903 1.905766e-42
28.33729900 23.92799900 511.64899000 -0.42282599 0.67303300 -0.60683203 1.905766e-42
28.83950000 22.91250000 510.25101000 -0.42617300 0.68486601 -0.59104502 1.905766e-42
28.93129900 21.83659900 508.81000000 -0.42821801 0.70171100 -0.56941301 1.905766e-42
29.10430000 20.84260000 507.32001000 -0.43325299 0.71853697 -0.54405600 1.905766e-42
29.51030000 19.95220000 505.80899000 -0.44215399 0.73294300 -0.51700503 1.905766e-42
29.47769900 19.15000000 504.19800000 -0.44062799 0.73527300 -0.51499498 1.905766e-42
30.10199900 18.21470100 502.79199000 -0.43301499 0.72813600 -0.53133398 1.905766e-42
30.07950000 17.13870000 501.35001000 -0.43308201 0.71420199 -0.54986799 1.905766e-42
30.64880000 16.18310000 499.93399000 -0.43155000 0.69994199 -0.56907499 1.905766e-42
31.11120000 15.23050000 498.47900000 -0.43220699 0.68460298 -0.58695501 1.905766e-42
31.60750000 14.28180000 497.03201000 -0.43280599 0.67136598 -0.60162002 1.905766e-42
31.82580000 13.37190000 495.49399000 -0.42234200 0.67675102 -0.60302198 1.905766e-42
32.34059900 12.47790000 494.01901000 -0.42347699 0.68591601 -0.59176600 1.905766e-42
32.51730000 11.43900000 492.56000000 -0.42514199 0.69463700 -0.58028698 1.905766e-42
32.84009900 10.40840000 491.12000000 -0.42896599 0.70141298 -0.56921703 1.905766e-42
33.55899800 9.59358020 489.68500000 -0.43516999 0.70653099 -0.55806899 1.905766e-42
33.79270200 8.65238950 488.16901000 -0.44304201 0.70916200 -0.54845500 1.905766e-42
34.63019900 8.00881960 486.71100000 -0.44914901 0.71042103 -0.54181802 1.905766e-42
34.58240100 6.94004010 485.26300000 -0.42298600 0.69684500 -0.57921398 1.905766e-42
35.28089900 6.09723000 483.83499000 -0.38556901 0.68831903 -0.61445397 1.905766e-42
36.34650000 5.17150020 482.71799000 -0.34222499 0.68747801 -0.64051300 1.905766e-42
36.66159800 3.69807000 481.73300000 -0.32272300 0.69242299 -0.64529097 1.905766e-42
35.25239900 2.92223000 480.92499000 -0.35717699 0.69692701 -0.62186599 1.905766e-42
34.45330000 1.76756000 479.79901000 -0.36678299 0.70950902 -0.60171998 1.905766e-42
34.39839900 0.51879299 478.50400000 -0.36498699 0.72120702 -0.58876503 1.905766e-42
33.80690000 -0.61818802 477.23999000 -0.37865499 0.72248399 -0.57847798 1.905766e-42
