# .PCD v0.7 - Point Cloud Data file format
# 2 118 0
# 1 62 0
# 63 118 0
VERSION 0.7
FIELDS x y z normal_x normal_y normal_z curvature
SIZE 4 4 4 4 4 4 4
TYPE F F F F F F F
COUNT 1 1 1 1 1 1 1
WIDTH 118
HEIGHT 1
VIEWPOINT 0 0 0 1 0 0 0
POINTS 118
DATA ascii
61.19990200 24.24060100 495.01001000 -0.22370900 0.45294499 -0.86301500 1.905766e-42
61.93489800 22.92639900 494.02301000 -0.22932500 0.48111701 -0.84613001 1.905766e-42
62.73519900 21.56679900 493.15701000 -0.23192000 0.50424999 -0.83183300 1.905766e-42
62.88959900 20.10100000 492.12299000 -0.22915401 0.54256803 -0.80815101 1.905766e-42
62.90570100 18.62120100 491.09900000 -0.22251999 0.57894701 -0.78441399 1.905766e-42
62.52470000 17.24490000 490.00299000 -0.21139500 0.62059700 -0.75509697 1.905766e-42
61.76739900 15.94040000 489.02100000 -0.19357300 0.68121099 -0.70603198 1.905766e-42
61.59870100 14.68020000 487.74701000 -0.16964200 0.74392802 -0.64636898 1.905766e-42
61.44020100 13.43660000 486.45499000 -0.14086200 0.79627401 -0.58830798 1.905766e-42
60.84249900 12.35260000 485.14801000 -0.11796100 0.81714600 -0.56423199 1.905766e-42
60.11180100 11.36230000 483.83499000 -0.10442100 0.83218199 -0.54458201 1.905766e-42
58.93230100 10.68660000 482.65500000 -0.10078700 0.84189898 -0.53013998 1.905766e-42
57.66659900 9.92158030 481.62900000 -0.10272500 0.83565801 -0.53955799 1.905766e-42
56.18560000 9.20868020 480.89499000 -0.10907800 0.82736802 -0.55096602 1.905766e-42
54.69969900 8.45788960 480.21100000 -0.11784700 0.81856400 -0.56219602 1.905766e-42
52.95150000 8.07911970 480.01001000 -0.13266900 0.81546599 -0.56339502 1.905766e-42
51.78730000 7.17509980 478.97699000 -0.13166800 0.80663902 -0.57619202 1.905766e-42
50.17440000 6.56609010 478.45901000 -0.12484100 0.80598903 -0.57861602 1.905766e-42
49.06320200 5.63242010 477.39499000 -0.11833200 0.80246198 -0.58485198 1.905766e-42
47.45180100 5.01551010 476.88199000 -0.11297100 0.80229700 -0.58613801 1.905766e-42
46.07730100 4.19700000 476.05701000 -0.10718400 0.80042201 -0.58977598 1.905766e-42
44.59320100 3.48331000 475.32999000 -0.10150600 0.79997998 -0.59137899 1.905766e-42
43.02130100 2.83913990 474.73499000 -0.09585750 0.80010301 -0.59215498 1.905766e-42
41.27479900 2.47724010 474.49301000 -0.08866750 0.80326200 -0.58898902 1.905766e-42
39.69699900 1.87710000 473.86801000 -0.07493020 0.80453998 -0.58915198 1.905766e-42
37.94300100 1.54494000 473.63800000 -0.06281030 0.80838698 -0.58529001 1.905766e-42
36.59500100 0.79425901 472.70999000 -0.05033140 0.80895102 -0.58571702 1.905766e-42
34.79909900 0.69539100 472.78000000 -0.04074710 0.81320900 -0.58054399 1.905766e-42
33.22660100 0.14278400 472.10101000 -0.03002660 0.81470400 -0.57909900 1.905766e-42
31.43199900 0.03920990 472.00900000 -0.02081990 0.81726199 -0.57589000 1.905766e-42
29.85370100 -0.46241400 471.30399000 -0.01071950 0.81776601 -0.57545203 1.905766e-42
28.05760000 -0.53890002 471.21301000 -0.00137305 0.81894702 -0.57386702 1.905766e-42
26.55509900 -1.21041000 470.48401000 0.00657148 0.81806302 -0.57509202 1.905766e-42
24.75790000 -1.16580000 470.39499000 0.01495760 0.81792098 -0.57513601 1.905766e-42
22.96069900 -1.06402000 470.39700000 0.02337090 0.81726599 -0.57578701 1.905766e-42
21.17630000 -0.86750901 470.52899000 0.03200690 0.81632501 -0.57670498 1.905766e-42
19.91970100 -0.92567098 470.38901000 0.03908590 0.81475401 -0.57848799 1.905766e-42
18.12170000 -0.84143001 470.39700000 0.05013800 0.81243598 -0.58089101 1.905766e-42
16.33009900 -1.01491000 470.39899000 0.06131830 0.80903399 -0.58455497 1.905766e-42
15.01970000 -0.07209840 471.19501000 0.07302550 0.81152099 -0.57974201 1.905766e-42
13.23500000 0.16240300 471.18799000 0.08601020 0.80977601 -0.58039999 1.905766e-42
11.44720000 0.37085700 471.18500000 0.09946340 0.80831599 -0.58028698 1.905766e-42
9.70302010 0.75551701 471.40799000 0.11183200 0.81038100 -0.57513201 1.905766e-42
8.08808990 1.35416000 471.93100000 0.12196800 0.81874800 -0.56104898 1.905766e-42
6.30295990 1.58132990 471.97299000 0.13478500 0.81951302 -0.55698401 1.905766e-42
4.85364010 2.34461000 472.71899000 0.14788599 0.83758801 -0.52590603 1.905766e-42
3.08740000 2.68831990 472.76599000 0.16754900 0.82947701 -0.53281802 1.905766e-42
1.31744000 3.01432990 472.79700000 0.19061001 0.81493002 -0.54731798 1.905766e-42
-0.29138899 3.74692990 473.13599000 0.22199300 0.79000503 -0.57149899 1.905766e-42
-1.87879000 4.52719020 473.47000000 0.25990701 0.75953197 -0.59628803 1.905766e-42
-3.53057000 5.23855020 473.54501000 0.29693499 0.72796297 -0.61798000 1.905766e-42
-5.15517000 6.01282980 473.57901000 0.33439401 0.69353700 -0.63811201 1.905766e-42
-6.80998990 6.72102020 473.58600000 0.37072301 0.65823501 -0.65520298 1.905766e-42
-8.28131960 7.75790020 473.59399000 0.40765199 0.62048501 -0.66993898 1.905766e-42
-9.73981950 8.81278040 473.59299000 0.44165701 0.59282100 -0.67342597 1.905766e-42
-11.15740000 9.92204000 473.59698000 0.45338199 0.57227498 -0.68333399 1.905766e-42
-12.56280000 11.04660000 473.58200000 0.41533700 0.56428403 -0.71349800 1.905766e-42
-14.12610000 11.93880000 473.59299000 0.37700599 0.56142700 -0.73665899 1.905766e-42
-15.38730000 13.09190000 474.15900000 0.35491100 0.56360400 -0.74591500 1.905766e-42
-16.82390000 14.15810000 474.35699000 0.32499701 0.55907297 -0.76276797 1.905766e-42
-18.41360100 14.90370000 473.95999000 0.29041800 0.56220400 -0.77432799 1.905766e-42
-19.84380000 15.99470000 474.02499000 0.26116699 0.56899101 -0.77977002 1.905766e-42
-21.25779900 17.07010100 474.31500000 0.23044699 0.58271003 -0.77932203 1.905766e-42
-21.23749900 18.36249900 475.56799000 0.21449099 0.59006703 -0.77834100 1.905766e-42
-20.82840000 19.65810000 476.74799000 0.19922800 0.55590600 -0.80701703 1.905766e-42
-20.80550000 21.03930100 477.90201000 0.17021701 0.51845902 -0.83798999 1.905766e-42
-20.73399900 22.52280000 478.91901000 0.13667899 0.47740501 -0.86798799 1.905766e-42
-20.08079900 24.02290000 479.67001000 0.12557700 0.45390400 -0.88215703 1.905766e-42
-19.47450100 25.54990000 480.40500000 0.12477100 0.44232500 -0.88813299 1.905766e-42
-19.17740100 27.16239900 481.14801000 0.12130600 0.43708599 -0.89120197 1.905766e-42
-18.71380000 28.63900000 482.06699000 0.13540600 0.48234701 -0.86545199 1.905766e-42
-16.92869900 28.64100100 482.29800000 0.20118999 0.47807100 -0.85496801 1.905766e-42
-15.40350000 29.30740000 482.98300000 0.25829199 0.49703801 -0.82839501 1.905766e-42
-13.67410000 29.47240100 483.45401000 0.33000800 0.48316500 -0.81095397 1.905766e-42
-12.00810000 29.58239900 484.12701000 0.40549999 0.45479900 -0.79292297 1.905766e-42
-10.70650000 29.95560100 485.31299000 0.44315100 0.44070899 -0.78063601 1.905766e-42
-9.14118000 29.53440100 486.09500000 0.43741500 0.40416899 -0.80331498 1.905766e-42
-7.58886000 29.57760000 487.00500000 0.42243499 0.36088401 -0.83145201 1.905766e-42
-6.03594020 29.55610100 487.91501000 0.41001201 0.32597500 -0.85184002 1.905766e-42
-4.50802990 30.03100000 488.73999000 0.39368001 0.29713699 -0.86989999 1.905766e-42
-2.83663010 29.96030000 489.40399000 0.38668701 0.27592599 -0.87996501 1.905766e-42
-1.09042000 29.64790000 489.70999000 0.38462099 0.25787500 -0.88632202 1.905766e-42
0.57453901 29.46960100 490.37000000 0.38545200 0.24339800 -0.89004701 1.905766e-42
2.17471000 29.57469900 491.18799000 0.38587600 0.23583400 -0.89189798 1.905766e-42
3.79369000 29.52120000 491.97198000 0.38813701 0.22848400 -0.89283001 1.905766e-42
5.42949010 29.57869900 492.72101000 0.38990700 0.22090700 -0.89396501 1.905766e-42
7.02194980 29.75009900 493.54300000 0.38955900 0.20950601 -0.89685601 1.905766e-42
8.71747020 29.53720100 494.10800000 0.38428801 0.19380499 -0.90264201 1.905766e-42
10.37510000 29.51390100 494.80899000 0.35281301 0.17877901 -0.91845602 1.905766e-42
12.02110000 28.96130000 495.28400000 0.32800499 0.17801400 -0.92775202 1.905766e-42
13.72320000 29.01180100 495.86801000 0.30180401 0.17174700 -0.93777198 1.905766e-42
15.43830000 28.80090000 496.37100000 0.27867600 0.17809500 -0.94372803 1.905766e-42
17.14780000 28.78560100 496.93500000 0.25875199 0.18692900 -0.94768399 1.905766e-42
18.78389900 28.07180000 497.16599000 0.23402099 0.22074300 -0.94683999 1.905766e-42
20.53960000 28.02710000 497.56100000 0.21792001 0.24163701 -0.94558001 1.905766e-42
22.30050100 27.95929900 497.92801000 0.20022900 0.26254001 -0.94391799 1.905766e-42
24.06720000 27.96380000 498.27301000 0.18159500 0.28120399 -0.94230998 1.905766e-42
25.79710000 27.96999900 498.76999000 0.16197300 0.29786199 -0.94076699 1.905766e-42
27.56839900 27.81570100 499.04999000 0.13869400 0.31618199 -0.93850601 1.905766e-42
29.26569900 27.26870000 498.80600000 0.11179900 0.33785000 -0.93453699 1.905766e-42
30.97880000 26.71769900 498.76501000 0.09038130 0.35600001 -0.93010497 1.905766e-42
32.76110100 26.47170100 498.81900000 0.07351340 0.37012199 -0.92606997 1.905766e-42
34.44710200 25.85720100 498.67801000 0.05394220 0.38769901 -0.92020601 1.905766e-42
36.23379900 25.63890100 498.69199000 0.03569240 0.40097499 -0.91539299 1.905766e-42
38.01610200 25.56380100 498.93201000 0.01841560 0.41167501 -0.91114497 1.905766e-42
39.65150100 24.91570100 498.55099000 -0.00265600 0.42851999 -0.90352798 1.905766e-42
41.40380100 24.53680000 498.39099000 -0.02444860 0.44254601 -0.89641303 1.905766e-42
43.07000000 23.97270000 498.00900000 -0.04849870 0.45873201 -0.88725001 1.905766e-42
44.74580000 23.44540000 497.61700000 -0.07142740 0.47345400 -0.87791800 1.905766e-42
46.53710200 23.27380000 497.66101000 -0.09275300 0.47740400 -0.87377501 1.905766e-42
48.26570100 23.19739900 497.16501000 -0.11322700 0.48078299 -0.86949801 1.905766e-42
49.95859900 23.80900000 497.15302000 -0.13519700 0.46545899 -0.87468302 1.905766e-42
51.72430000 23.84960000 496.80600000 -0.15464699 0.45839199 -0.87519199 1.905766e-42
53.01089900 24.95879900 497.40100000 -0.17128800 0.45032501 -0.87628102 1.905766e-42
54.71080000 25.44319900 497.06100000 -0.18480401 0.44840500 -0.87451702 1.905766e-42
56.46559900 25.75120000 496.80399000 -0.19622999 0.44709599 -0.87269598 1.905766e-42
58.19609800 25.61479900 496.32800000 -0.20541000 0.43830201 -0.87504202 1.905766e-42
59.83369800 25.16150100 495.73401000 -0.21354100 0.42640799 -0.87896299 1.905766e-42
