# .PCD v0.7 - Point Cloud Data file format
# 4 60 0
# 1 20 0
# 21 28 1
# 29 50 1
# 51 60 0
VERSION 0.7
FIELDS x y z normal_x normal_y normal_z curvature
SIZE 4 4 4 4 4 4 4
TYPE F F F F F F F
COUNT 1 1 1 1 1 1 1
WIDTH 60
HEIGHT 1
VIEWPOINT 0 0 0 1 0 0 0
POINTS 60
DATA ascii
-1.84155 12.2371 459.12299 -0.21225999 -0.95209199 -0.220153 1.9057659e-42
-0.137677 11.8916 458.65701 -0.27167901 -0.90107697 -0.33801001 1.9057659e-42
1.5814 11.5107 458.28299 -0.29396099 -0.88945597 -0.349935 1.9057659e-42
3.2717199 10.9863 457.95499 -0.345063 -0.86867201 -0.355445 1.9057659e-42
4.9362898 10.5189 457.45401 -0.38158301 -0.84017998 -0.38534701 1.9057659e-42
6.56916 9.96315 456.939 -0.409174 -0.80822903 -0.42348799 1.9057659e-42
8.1730204 9.1737099 456.729 -0.43992299 -0.79021502 -0.42664599 1.9057659e-42
9.7875404 8.43536 456.43201 -0.44385299 -0.77385098 -0.45182899 1.9057659e-42
11.3972 7.7635498 455.987 -0.44117001 -0.74540502 -0.49973899 1.9057659e-42
12.9937 6.9680901 455.746 -0.44343001 -0.73381001 -0.51467699 1.9057659e-42
14.6219 6.4595699 455.17099 -0.43049401 -0.68941098 -0.582569 1.9057659e-42
16.214199 6.3253999 454.34201 -0.402583 -0.61524802 -0.67778802 1.9057659e-42
17.868601 6.1244702 453.66199 -0.39627999 -0.553873 -0.73224801 1.9057659e-42
19.465401 6.2330999 452.83801 -0.398743 -0.48960599 -0.77542901 1.9057659e-42
20.754101 4.98317 452.96799 -0.429784 -0.53487599 -0.72745699 1.9057659e-42
21.545099 3.45783 453.504 -0.42424801 -0.69065797 -0.58566701 1.9057659e-42
23.181499 2.9658401 452.93799 -0.408099 -0.68231899 -0.60654402 1.9057659e-42
24.839899 2.41324 452.509 -0.34596801 -0.71049702 -0.61277997 1.9057659e-42
25.742701 2.3661101 452.202 -0.316944 -0.70823598 -0.630831 1.9057659e-42
27.3587 1.58328 452.327 -0.27839199 -0.79556298 -0.53812498 1.9057659e-42
28.605499 1.00904 453.492 -0.159115 -0.98144698 -0.106979 1.9057659e-42
28.255699 0.91510803 455.255 -0.0586919 -0.990493 0.124412 1.9057659e-42
28.681601 1.5202 456.896 -0.074092202 -0.99712598 0.0158282 1.9057659e-42
28.6175 1.54923 458.694 -0.115677 -0.99205798 0.049401101 1.9057659e-42
28.3997 1.2979701 460.46301 -0.16869099 -0.95082599 0.25975701 1.9057659e-42
29.536501 1.7453001 461.785 -0.142653 -0.88844401 0.43625399 1.9057659e-42
30.324699 2.32707 463.29501 -0.103073 -0.80331701 0.586564 1.9057659e-42
31.603201 3.1602001 464.25 -0.024997801 -0.730802 0.68213201 1.9057659e-42
32.995899 4.0445399 464.97 0.129968 -0.58387297 0.80137402 1.9057659e-42
32.995399 5.6313 465.82001 0.27825001 -0.325275 0.90375501 1.9057659e-42
31.4732 6.2764602 466.53201 0.26346099 -0.29705501 0.917795 1.9057659e-42
29.844299 6.7867298 467.103 0.217564 -0.26963001 0.93806499 1.9057659e-42
28.3843 7.69239 467.64001 0.226006 -0.194291 0.95455301 1.9057659e-42
27.415501 9.1639996 468.008 0.25724101 -0.063560203 0.96425498 1.9057659e-42
26.138201 7.9220901 468.26501 0.16999499 -0.272901 0.946904 1.9057659e-42
24.4461 8.3719397 468.68301 0.142542 -0.309928 0.940014 1.9057659e-42
23.217699 9.5946999 469.16901 0.190945 -0.18353599 0.96429002 1.9057659e-42
22.892099 11.3613 469.284 0.254354 -0.021004099 0.966883 1.9057659e-42
21.352501 12.0783 469.88 0.250047 -0.0119803 0.96815997 1.9057659e-42
19.7561 12.848 470.19501 0.247914 0.0023292699 0.96877903 1.9057659e-42
18.0725 13.3223 470.62 0.24435399 -0.0092021599 0.96964198 1.9057659e-42
16.419701 13.9165 471.01401 0.247485 -0.0228072 0.96862298 1.9057659e-42
15.0331 12.8022 471.289 0.148362 -0.227129 0.962497 1.9057659e-42
13.4428 13.5241 471.72501 0.15453 -0.240568 0.95825201 1.9057659e-42
11.6821 13.652 472.07599 0.113888 -0.37648499 0.91939598 1.9057659e-42
10.164 14.4781 472.57901 0.16227899 -0.35558599 0.92044801 1.9057659e-42
8.6186504 15.2366 473.10501 0.193113 -0.35601899 0.914307 1.9057659e-42
6.9939599 15.7532 473.68201 0.212589 -0.38572201 0.897789 1.9057659e-42
5.55474 16.622 474.32599 0.247346 -0.36392301 0.89798701 1.9057659e-42
3.88288 16.0072 474.58401 0.212091 -0.477806 0.85247803 1.9057659e-42
2.1418099 16.1007 475.03101 0.213412 -0.54598898 0.81015497 1.9057659e-42
1.09685 14.9425 474.133 0.068988502 -0.81908101 0.56951499 1.9057659e-42
0.68827701 14.0606 472.61801 0.0084065096 -0.89953399 0.43677101 1.9057659e-42
0.35072199 13.2934 471.02499 -0.045712501 -0.93227702 0.358845 1.9057659e-42
0.32060599 12.6856 469.33099 -0.0966869 -0.94387197 0.315842 1.9057659e-42
-0.060370099 12.4839 467.58401 -0.152275 -0.954768 0.255402 1.9057659e-42
0.046392199 11.8314 465.91 -0.18524 -0.96875697 0.164912 1.9057659e-42
-0.84473902 11.9579 464.35101 -0.187306 -0.97146499 0.145504 1.9057659e-42
-1.27924 11.882 462.60599 -0.199136 -0.975079 0.097805299 1.9057659e-42
-1.61568 11.7528 460.84201 -0.25446799 -0.95856303 -0.12807401 1.9057659e-42
