# .PCD v0.7 - Point Cloud Data file format
# 3 82 0
# 1 29 0
# 30 54 0
# 55 82 0
VERSION 0.7
FIELDS x y z normal_x normal_y normal_z curvature
SIZE 4 4 4 4 4 4 4
TYPE F F F F F F F
COUNT 1 1 1 1 1 1 1
WIDTH 82
HEIGHT 1
VIEWPOINT 0 0 0 1 0 0 0
POINTS 82
DATA ascii
20.69260000 -3.18654990 416.78500000 -0.48330501 -0.87328601 0.06155110 1.905766e-42
22.10080000 -3.84207010 417.69501000 -0.50083297 -0.84522498 0.18644300 1.905766e-42
23.89100100 -4.28804020 419.99301000 -0.23060501 -0.92081302 0.31452399 1.905766e-42
24.63439900 -3.49122000 421.42599000 -0.12669200 -0.90794402 0.39948201 1.905766e-42
25.49480100 -2.66712000 422.77499000 -0.02872500 -0.84983802 0.52626097 1.905766e-42
26.46610100 -1.72488000 423.96201000 0.01980420 -0.83490998 0.55002999 1.905766e-42
26.76160000 -0.96151102 425.56500000 0.04336930 -0.84876698 0.52698499 1.905766e-42
27.18820000 -0.05786620 427.06201000 0.05554560 -0.85603702 0.51392198 1.905766e-42
27.92040100 0.81880301 428.45300000 0.05936790 -0.85482299 0.51551300 1.905766e-42
28.48889900 1.72303000 429.90201000 0.06818460 -0.84687501 0.52740300 1.905766e-42
29.16250000 2.74179010 431.22400000 0.07888400 -0.83863401 0.53895301 1.905766e-42
29.52720100 3.71345000 432.69501000 0.08625310 -0.83024198 0.55068898 1.905766e-42
30.27879900 4.60299020 434.06799000 0.09521800 -0.82409197 0.55839503 1.905766e-42
30.76400000 5.60136990 435.48499000 0.09860560 -0.81794500 0.56678301 1.905766e-42
31.75210000 6.63931990 436.57401000 0.10520500 -0.81313598 0.57248801 1.905766e-42
32.34800000 7.60938980 437.96799000 0.10439400 -0.80799198 0.57987201 1.905766e-42
33.18579900 8.70646000 439.12299000 0.10595100 -0.80380601 0.58538097 1.905766e-42
33.44490100 9.62862970 440.64700000 0.10262800 -0.79806697 0.59376401 1.905766e-42
34.08509800 10.69840000 441.94501000 0.10351600 -0.79292601 0.60046101 1.905766e-42
35.06900000 11.78470000 442.98999000 0.11006200 -0.78342199 0.61166602 1.905766e-42
35.64569900 12.85020000 444.32199000 0.11543100 -0.77037603 0.62705302 1.905766e-42
35.94969900 13.96820000 445.69901000 0.12140300 -0.75693399 0.64211601 1.905766e-42
36.73809800 15.08830000 446.86700000 0.13430500 -0.74314100 0.65551800 1.905766e-42
37.40470100 16.27479900 448.04501000 0.14721800 -0.73114598 0.66614699 1.905766e-42
38.35530100 17.51700000 448.93600000 0.16278499 -0.71677798 0.67803401 1.905766e-42
39.02600100 18.80540100 449.99899000 0.17800701 -0.69932902 0.69228101 1.905766e-42
39.57510000 20.04910100 451.17899000 0.19259700 -0.67543203 0.71182799 1.905766e-42
39.98280000 21.31370000 452.39301000 0.20317800 -0.65493101 0.72786301 1.905766e-42
40.59619900 22.71999900 453.33401000 0.23352000 -0.63030797 0.74039203 1.905766e-42
40.08340100 23.90770000 454.58600000 0.23215599 -0.62858897 0.74228001 1.905766e-42
38.36159900 23.38500000 454.63300000 0.18747801 -0.64139700 0.74395102 1.905766e-42
36.64370000 23.63369900 455.10901000 0.15531500 -0.64305300 0.74990702 1.905766e-42
34.87229900 23.35460100 455.26501000 0.12463700 -0.64819902 0.75120199 1.905766e-42
33.12760200 22.91580000 455.20499000 0.10194500 -0.65463698 0.74903798 1.905766e-42
31.34940000 22.63680100 455.18701000 0.08088270 -0.66065300 0.74632102 1.905766e-42
29.60400000 22.90119900 455.53799000 0.06431870 -0.66555399 0.74357301 1.905766e-42
27.91830100 22.37039900 455.19699000 0.04542000 -0.67153901 0.73957598 1.905766e-42
26.12130000 22.26569900 455.19400000 0.02652060 -0.67716002 0.73535800 1.905766e-42
24.33079900 22.39259900 455.32800000 0.00686519 -0.68249702 0.73085600 1.905766e-42
22.53140100 22.37490100 455.28500000 -0.01231360 -0.68724102 0.72632498 1.905766e-42
20.96089900 21.67950100 454.74701000 -0.02760570 -0.69501400 0.71846598 1.905766e-42
19.17690100 21.62340000 454.51401000 -0.04195210 -0.69603801 0.71677899 1.905766e-42
17.39909900 21.53529900 454.24701000 -0.06745370 -0.69411200 0.71670002 1.905766e-42
15.62440000 21.59650000 453.95200000 -0.09345390 -0.69102800 0.71676099 1.905766e-42
13.86350000 21.43730000 453.61401000 -0.11813600 -0.68883198 0.71522999 1.905766e-42
12.27200000 20.90770000 452.96100000 -0.13697900 -0.69125903 0.70950502 1.905766e-42
10.53230000 20.80520100 452.51099000 -0.15570600 -0.68722898 0.70955801 1.905766e-42
8.79887010 21.29010000 452.50601000 -0.17572400 -0.67141002 0.71995097 1.905766e-42
7.05105020 21.29000100 452.07599000 -0.18385400 -0.66001499 0.72840798 1.905766e-42
5.31756020 21.25320100 451.59201000 -0.19137600 -0.64650297 0.73851800 1.905766e-42
3.56733990 21.44050000 451.21600000 -0.20580401 -0.63001400 0.74881703 1.905766e-42
1.83032000 21.37990000 450.74799000 -0.21102799 -0.62628102 0.75049198 1.905766e-42
0.09050190 21.38699900 450.28601000 -0.21612900 -0.62663198 0.74874598 1.905766e-42
-1.59493010 21.65840000 449.71600000 -0.22020601 -0.62621701 0.74790502 1.905766e-42
-2.98852990 20.84910000 448.91400000 -0.21817701 -0.63600600 0.74019903 1.905766e-42
-2.53007010 19.47320000 447.84799000 -0.21320200 -0.65959197 0.72075200 1.905766e-42
-1.94623990 18.15749900 446.76700000 -0.21307100 -0.68614799 0.69555902 1.905766e-42
-1.69070990 16.88600000 445.51901000 -0.21455400 -0.71151900 0.66911000 1.905766e-42
-1.09417000 15.63600000 444.36899000 -0.22224700 -0.73206103 0.64396697 1.905766e-42
-0.90231800 14.42790000 443.04901000 -0.22703101 -0.74470502 0.62759101 1.905766e-42
-0.27034199 13.23020000 441.86301000 -0.22874001 -0.75092798 0.61950397 1.905766e-42
0.66407299 12.10260000 440.81601000 -0.21288800 -0.76163602 0.61203599 1.905766e-42
0.91962802 10.97760000 439.43500000 -0.20839199 -0.76878899 0.60459602 1.905766e-42
1.45444000 9.83411980 438.15100000 -0.20601299 -0.77411699 0.59858298 1.905766e-42
2.06767990 8.67284010 436.92001000 -0.20757100 -0.77744102 0.59371698 1.905766e-42
2.89398000 7.56833980 435.76401000 -0.20385200 -0.78226900 0.58864200 1.905766e-42
3.52145000 6.45610000 434.49500000 -0.18993901 -0.79226500 0.57986099 1.905766e-42
4.68051000 5.50058980 433.50400000 -0.16676800 -0.79888099 0.57790798 1.905766e-42
5.23625990 4.49035980 432.12100000 -0.17069200 -0.80537403 0.56765902 1.905766e-42
6.10357000 3.48024010 430.91000000 -0.17757700 -0.81489003 0.55174297 1.905766e-42
7.00822020 2.47518990 429.72198000 -0.17334700 -0.83373201 0.52425301 1.905766e-42
7.70610000 1.49089000 428.38599000 -0.16103600 -0.87283200 0.46068600 1.905766e-42
8.37388990 0.51933801 427.02600000 -0.12294800 -0.93006903 0.34620199 1.905766e-42
9.45641990 0.12411300 425.64301000 -0.06544710 -0.98934102 0.13008399 1.905766e-42
10.13300000 0.68779302 424.07401000 -0.08443540 -0.99619901 -0.02141370 1.905766e-42
11.06240000 0.60860699 422.53400000 -0.15029900 -0.98553997 -0.07824360 1.905766e-42
12.19420000 0.21291099 421.19199000 -0.23323700 -0.96879601 -0.08387020 1.905766e-42
13.56480000 -0.36110601 420.17599000 -0.32527399 -0.94373900 -0.05960540 1.905766e-42
14.68970000 -0.66283703 418.80301000 -0.35622600 -0.93236798 -0.06158200 1.905766e-42
16.17090000 -0.99424499 417.83600000 -0.37265101 -0.92628801 -0.05588100 1.905766e-42
17.58300000 -1.38081000 416.78799000 -0.39161599 -0.91833103 -0.05748120 1.905766e-42
19.09499900 -2.35741000 416.78500000 -0.42136601 -0.90666199 -0.02035760 1.905766e-42
