# .PCD v0.7 - Point Cloud Data file format
# 3 56 0
# 1 20 0
# 21 36 0
# 37 56 0
VERSION 0.7
FIELDS x y z normal_x normal_y normal_z curvature
SIZE 4 4 4 4 4 4 4
TYPE F F F F F F F
COUNT 1 1 1 1 1 1 1
WIDTH 56
HEIGHT 1
VIEWPOINT 0 0 0 1 0 0 0
POINTS 56
DATA ascii
11.92030000 8.79738040 457.47198000 -0.12011900 -0.69670397 0.70723099 1.905766e-42
12.78540000 8.23758980 456.79901000 -0.11595200 -0.69886202 0.70579499 1.905766e-42
13.52120000 9.41911980 457.94000000 -0.10163000 -0.68713200 0.71938902 1.905766e-42
13.89450000 10.52980000 459.30701000 -0.12324000 -0.68878400 0.71441501 1.905766e-42
15.15600000 11.37030000 460.27701000 -0.15059900 -0.70442402 0.69361901 1.905766e-42
16.08000000 12.24560000 461.54999000 -0.17450000 -0.71840799 0.67338002 1.905766e-42
16.58440000 13.30530000 462.91501000 -0.19893301 -0.72931701 0.65461600 1.905766e-42
17.29350100 14.29870000 464.23801000 -0.19152500 -0.73554897 0.64983600 1.905766e-42
17.62120100 15.46040000 465.57300000 -0.19133100 -0.73701602 0.64822900 1.905766e-42
17.60140000 16.66850100 466.90701000 -0.20324101 -0.73899603 0.64232302 1.905766e-42
17.41799900 17.79960100 468.29599000 -0.21118200 -0.76042199 0.61413401 1.905766e-42
17.52590000 18.86109900 469.74500000 -0.21701300 -0.78631002 0.57846498 1.905766e-42
18.33869900 19.68910000 471.12100000 -0.22281700 -0.81542498 0.53426099 1.905766e-42
18.78790100 20.51470000 472.65701000 -0.22085500 -0.84824002 0.48136401 1.905766e-42
19.07340000 21.22970000 474.28400000 -0.21539199 -0.86903900 0.44539601 1.905766e-42
18.38730000 22.06450100 475.72299000 -0.21767300 -0.88219202 0.41756001 1.905766e-42
18.13369900 22.95280100 477.26801000 -0.20879100 -0.89371997 0.39707801 1.905766e-42
17.61920000 23.82119900 478.75800000 -0.20919800 -0.90538698 0.36947301 1.905766e-42
17.54590000 24.38710000 480.46600000 -0.19792500 -0.92208302 0.33254901 1.905766e-42
17.45669900 24.90589900 482.18701000 -0.18931600 -0.92684799 0.32420900 1.905766e-42
17.60470000 25.55900000 483.85800000 -0.18130600 -0.92251003 0.34073800 1.905766e-42
15.91900000 25.61930100 483.22900000 -0.21064600 -0.92249900 0.32345599 1.905766e-42
14.18610000 26.10520000 483.20001000 -0.24324200 -0.92571098 0.28964099 1.905766e-42
12.46310000 26.31349900 482.72198000 -0.21039000 -0.93115801 0.29779300 1.905766e-42
10.70100000 26.60210000 482.49500000 -0.17553400 -0.93127298 0.31924701 1.905766e-42
8.95413970 27.02669900 482.40399000 -0.17706300 -0.93012601 0.32173601 1.905766e-42
7.33334020 26.86130000 481.63901000 -0.18870100 -0.93017000 0.31492299 1.905766e-42
5.62228010 27.15710100 481.16501000 -0.17207099 -0.92883199 0.32812101 1.905766e-42
3.86620000 27.36759900 480.82999000 -0.14244500 -0.93063700 0.33708099 1.905766e-42
2.08348990 27.61459900 480.79999000 -0.09539050 -0.93424302 0.34364200 1.905766e-42
0.35224900 27.52520000 480.31601000 -0.05101940 -0.93024200 0.36338300 1.905766e-42
-1.41982000 27.42720000 480.01501000 -0.00651202 -0.92401499 0.38229999 1.905766e-42
-3.21964000 27.44510100 479.99701000 0.03669300 -0.91717601 0.39678800 1.905766e-42
-5.01124000 27.27140000 479.99899000 0.08474110 -0.90762800 0.41113201 1.905766e-42
-6.60748000 26.74300000 479.35599000 0.13890900 -0.88960898 0.43508700 1.905766e-42
-8.38031960 26.43639900 479.30200000 0.12357700 -0.89807099 0.42213401 1.905766e-42
-9.94686990 26.06150100 478.49799000 0.05953110 -0.90541101 0.42034200 1.905766e-42
-8.86145020 25.56460000 477.15100000 0.10549900 -0.89487702 0.43366501 1.905766e-42
-7.64082000 24.91950000 475.99600000 0.10221100 -0.88404000 0.45609999 1.905766e-42
-6.22580000 24.54220000 474.95001000 0.08844480 -0.86836702 0.48797101 1.905766e-42
-5.26144980 23.82440000 473.60999000 0.06747290 -0.85545099 0.51346999 1.905766e-42
-4.28592010 23.10330000 472.28000000 0.04190450 -0.84511697 0.53293598 1.905766e-42
-3.80200000 22.44540000 470.67599000 0.01226310 -0.83918899 0.54370099 1.905766e-42
-2.56360010 21.49140000 469.78400000 -0.01173890 -0.82642102 0.56293100 1.905766e-42
-1.81842010 20.58569900 468.41800000 -0.04163530 -0.81918299 0.57201803 1.905766e-42
-0.77065802 19.66970100 467.27701000 -0.06687960 -0.80884600 0.58420497 1.905766e-42
-0.02989030 18.75550100 465.91501000 -0.09698380 -0.80162001 0.58991498 1.905766e-42
1.22817000 17.83740000 465.01199000 -0.11762800 -0.78580499 0.60718501 1.905766e-42
2.33144000 16.82729900 464.01099000 -0.13876700 -0.77042902 0.62224001 1.905766e-42
3.43269990 15.87240000 462.95499000 -0.15327500 -0.75735199 0.63476300 1.905766e-42
4.43867020 14.77480000 461.94299000 -0.15926000 -0.74873102 0.64345801 1.905766e-42
5.19738010 13.61090000 460.79901000 -0.16853601 -0.73927498 0.65197200 1.905766e-42
6.52141000 12.56400000 460.17300000 -0.14707100 -0.72120601 0.67692798 1.905766e-42
7.88560010 11.63920000 459.45001000 -0.12738100 -0.69381702 0.70879698 1.905766e-42
9.28304000 10.71550000 458.79099000 -0.12517300 -0.68418902 0.71848297 1.905766e-42
10.36520000 9.61384960 457.86600000 -0.13212000 -0.69838101 0.70342600 1.905766e-42
