# .PCD v0.7 - Point Cloud Data file format
# 6 152 -2
# 1 21 0
# 22 44 0
# 45 64 0
# 65 92 0
# 93 126 0
# 127 152 0
VERSION 0.7
FIELDS x y z normal_x normal_y normal_z curvature
SIZE 4 4 4 4 4 4 4
TYPE F F F F F F F
COUNT 1 1 1 1 1 1 1
WIDTH 152
HEIGHT 1
VIEWPOINT 0 0 0 1 0 0 0
POINTS 152
DATA ascii
33.84209800 5.82254980 403.74500000 -0.97485399 0.10649900 0.19574900 1.905766e-42
33.60839800 3.95792010 403.45599000 -0.97420800 0.13863300 0.17804299 1.905766e-42
33.91799900 3.77202010 405.21899000 -0.97113103 0.15808500 0.17864500 1.905766e-42
34.08390000 3.00411010 406.83899000 -0.96723700 0.18911800 0.16937301 1.905766e-42
34.15580000 2.32109000 408.50299000 -0.96409500 0.22098300 0.14726700 1.905766e-42
34.22110000 1.57734000 410.14099000 -0.96120602 0.24643600 0.12390400 1.905766e-42
34.16759900 1.08386000 411.87100000 -0.96010703 0.26140100 0.09931560 1.905766e-42
34.27690100 0.76503903 413.63901000 -0.96076697 0.26780099 0.07217550 1.905766e-42
34.18759900 -0.20258400 415.15399000 -0.95926398 0.27830800 0.04854620 1.905766e-42
34.06919900 -1.13082000 416.69199000 -0.96013898 0.27760699 0.03268580 1.905766e-42
33.78830000 -2.14414000 418.15302000 -0.96167397 0.27322999 0.02299590 1.905766e-42
33.56959900 -3.40391990 419.42001000 -0.96284199 0.26955500 0.01661940 1.905766e-42
33.29370100 -4.35064980 420.92499000 -0.96491998 0.26249799 0.00499556 1.905766e-42
32.92110100 -5.35596990 422.37100000 -0.96673900 0.25569701 -0.00582228 1.905766e-42
32.63840100 -5.74735020 424.10501000 -0.96900499 0.24581900 -0.02455780 1.905766e-42
32.19969900 -6.76045990 425.52701000 -0.96311599 0.26068601 -0.06670710 1.905766e-42
31.96800000 -7.89366010 426.90601000 -0.94601601 0.29754499 -0.12853000 1.905766e-42
31.52930100 -8.21142010 428.62299000 -0.92303997 0.33446300 -0.19008601 1.905766e-42
30.94380000 -9.22741990 429.98801000 -0.88562697 0.39385000 -0.24606299 1.905766e-42
30.18820000 -9.78269000 431.52499000 -0.84518802 0.45229799 -0.28475001 1.905766e-42
29.31360100 -10.33130000 432.99899000 -0.80148202 0.51486599 -0.30420399 1.905766e-42
28.15430100 -11.05130000 434.17300000 -0.69049400 0.61475003 -0.38118300 1.905766e-42
26.91370000 -11.18270000 435.47101000 -0.57605398 0.67602301 -0.45951501 1.905766e-42
25.48920100 -11.35760000 436.55701000 -0.44406199 0.71565598 -0.53911602 1.905766e-42
23.96800000 -11.41440000 437.51801000 -0.31187201 0.73006803 -0.60806000 1.905766e-42
22.36790100 -11.26310000 438.32800000 -0.18972600 0.72685403 -0.66006601 1.905766e-42
20.71380000 -11.05710000 439.00699000 -0.09345110 0.71601802 -0.69179899 1.905766e-42
19.21990000 -10.56380000 439.88199000 -0.09528970 0.72167999 -0.68563700 1.905766e-42
17.59870000 -10.08060000 440.49701000 -0.10198200 0.73623401 -0.66899902 1.905766e-42
15.83510000 -9.84751030 440.77100000 -0.10789700 0.74810702 -0.65474701 1.905766e-42
14.03790000 -9.94647980 440.79001000 -0.11110700 0.74997002 -0.65207303 1.905766e-42
12.36990000 -9.64824960 441.39700000 -0.11335800 0.76969898 -0.62826300 1.905766e-42
10.59430000 -9.90005970 441.55200000 -0.11222900 0.76779598 -0.63078898 1.905766e-42
8.84807010 -10.33510000 441.58801000 -0.11031600 0.75651503 -0.64460498 1.905766e-42
7.10829020 -10.40350000 442.04501000 -0.11060800 0.75811303 -0.64267498 1.905766e-42
5.34449010 -10.66200000 442.29401000 -0.13038300 0.75286800 -0.64512700 1.905766e-42
3.57567000 -10.98180000 442.38901000 -0.14780299 0.74322498 -0.65251100 1.905766e-42
1.93785000 -10.70630000 443.08301000 -0.15598600 0.74280399 -0.65108502 1.905766e-42
0.16032401 -10.97740000 443.16599000 -0.16895400 0.73203599 -0.65998298 1.905766e-42
-1.41394000 -10.61000000 443.95801000 -0.17357001 0.72953302 -0.66155499 1.905766e-42
-3.20563010 -10.77790000 443.99899000 -0.18367800 0.72083998 -0.66832101 1.905766e-42
-4.92978000 -10.52570000 444.45001000 -0.18860500 0.71641499 -0.67169702 1.905766e-42
-6.46458010 -10.01470000 445.23999000 -0.18767400 0.71325600 -0.67531002 1.905766e-42
-8.23908040 -9.91141030 445.52301000 -0.18856101 0.70286202 -0.68587899 1.905766e-42
-9.94904990 -9.61767010 446.00299000 -0.18212301 0.68854398 -0.70195401 1.905766e-42
-8.80198000 -8.71572970 447.05701000 -0.16441201 0.69352102 -0.70142502 1.905766e-42
-7.91761020 -7.67638020 448.23001000 -0.14065400 0.69094199 -0.70909500 1.905766e-42
-6.78568980 -6.70436000 449.23700000 -0.11937500 0.69207102 -0.71188998 1.905766e-42
-5.94220020 -5.58953000 450.37100000 -0.09621140 0.69580901 -0.71175301 1.905766e-42
-4.56092980 -4.71947000 451.12900000 -0.08551360 0.70829499 -0.70071697 1.905766e-42
-3.54919000 -3.64212990 452.15701000 -0.06891850 0.71630901 -0.69437200 1.905766e-42
-2.75721000 -2.55901000 453.35699000 -0.05074530 0.72309399 -0.68888301 1.905766e-42
-1.42673000 -1.53317000 454.00299000 -0.04575060 0.73596799 -0.67546898 1.905766e-42
-0.38076600 -0.39160401 454.92099000 -0.03710320 0.74661702 -0.66421902 1.905766e-42
1.01292000 0.46057701 455.67700000 -0.03888710 0.75930500 -0.64957201 1.905766e-42
2.27879000 1.35624000 456.59100000 -0.04140440 0.77081198 -0.63571602 1.905766e-42
3.51870990 2.21602990 457.57199000 -0.04765830 0.78012502 -0.62380600 1.905766e-42
4.46327020 3.12452010 458.80600000 -0.04770030 0.75818801 -0.65028900 1.905766e-42
5.26070020 4.12766980 460.07001000 -0.05668600 0.73158401 -0.67939103 1.905766e-42
5.82434990 5.25306990 461.35699000 -0.07514420 0.70004302 -0.71013600 1.905766e-42
6.35348990 6.54813000 462.48999000 -0.10960900 0.66245401 -0.74103999 1.905766e-42
7.32177020 7.83293010 463.29700000 -0.16729499 0.60749400 -0.77650702 1.905766e-42
8.02758030 9.29494000 464.07401000 -0.23748501 0.53086501 -0.81349999 1.905766e-42
8.00979040 10.85190000 464.97699000 -0.30878499 0.45795000 -0.83362699 1.905766e-42
8.73499970 12.42700000 465.45999000 -0.38906300 0.33972400 -0.85628098 1.905766e-42
8.85221960 14.13580000 466.01401000 -0.45289499 0.20890599 -0.86674398 1.905766e-42
8.81737040 15.92670000 466.19199000 -0.49514300 0.05549670 -0.86703700 1.905766e-42
8.07925030 17.32749900 467.04800000 -0.50815898 -0.06088120 -0.85910898 1.905766e-42
7.29852010 18.94710000 467.13300000 -0.52015501 -0.17354099 -0.83625501 1.905766e-42
6.56619980 20.57539900 466.90500000 -0.55291200 -0.21269201 -0.80563700 1.905766e-42
6.14493990 22.28610000 466.53601000 -0.56678098 -0.24784400 -0.78570497 1.905766e-42
5.87798020 24.01660000 466.11899000 -0.56816101 -0.27278399 -0.77639002 1.905766e-42
5.62253000 25.74889900 465.70200000 -0.56278199 -0.28962001 -0.77420700 1.905766e-42
5.70667980 27.44850000 465.11499000 -0.54037899 -0.29997200 -0.78613400 1.905766e-42
5.31009010 29.17799900 464.81299000 -0.52962798 -0.31132001 -0.78903401 1.905766e-42
5.74238010 30.73609900 464.02200000 -0.50124198 -0.31708401 -0.80511701 1.905766e-42
5.78044990 32.39170100 463.31601000 -0.49660599 -0.32819900 -0.80353397 1.905766e-42
5.74779990 34.02819800 462.56699000 -0.49056801 -0.33573699 -0.80412900 1.905766e-42
4.85791020 35.58369800 462.39899000 -0.49648800 -0.34547800 -0.79633200 1.905766e-42
4.70800020 37.22829800 461.68201000 -0.48977199 -0.36136901 -0.79343301 1.905766e-42
4.67558000 38.85770000 460.91800000 -0.47943100 -0.38764501 -0.78732300 1.905766e-42
4.58889010 40.51509900 460.22101000 -0.46171099 -0.43440601 -0.77337801 1.905766e-42
4.82006980 42.11169800 459.42300000 -0.42799801 -0.49468699 -0.75637400 1.905766e-42
4.21361020 43.68730200 458.79901000 -0.41376999 -0.55954897 -0.71812201 1.905766e-42
3.46666000 45.02010000 457.84698000 -0.40224901 -0.60806102 -0.68444002 1.905766e-42
2.88702010 46.30720100 456.73001000 -0.39187500 -0.64215899 -0.65883702 1.905766e-42
2.51792000 47.63670000 455.57401000 -0.38386300 -0.66307002 -0.64264101 1.905766e-42
1.88357000 49.04769900 454.65399000 -0.37422600 -0.67363399 -0.63731599 1.905766e-42
1.90076010 50.34489800 453.40601000 -0.37288001 -0.67176902 -0.64006799 1.905766e-42
1.90359000 51.67380100 452.19199000 -0.37381399 -0.65951198 -0.65215498 1.905766e-42
2.36546990 52.65589900 450.75601000 -0.38714400 -0.63689703 -0.66669500 1.905766e-42
1.95974000 54.06380100 449.71100000 -0.38452101 -0.61372101 -0.68955702 1.905766e-42
2.38263010 55.10110100 448.30200000 -0.39910001 -0.58725297 -0.70416898 1.905766e-42
4.02407980 54.46009800 447.93399000 -0.42629799 -0.58707201 -0.68819797 1.905766e-42
5.50664000 53.43999900 447.97000000 -0.44820201 -0.59365302 -0.66834998 1.905766e-42
6.94168000 52.35409900 448.00900000 -0.46929699 -0.59922600 -0.64860499 1.905766e-42
8.38086030 51.27360200 447.97400000 -0.49089700 -0.60224700 -0.62953901 1.905766e-42
9.80838010 50.17919900 447.90701000 -0.51303101 -0.60332501 -0.61057299 1.905766e-42
11.15840000 48.98880000 447.92899000 -0.53499502 -0.60415798 -0.59056997 1.905766e-42
12.56780000 48.76890200 446.83099000 -0.56263101 -0.58755201 -0.58157402 1.905766e-42
13.97310000 47.71310000 446.44400000 -0.59047401 -0.58098000 -0.56018102 1.905766e-42
15.39950000 46.95500200 445.64999000 -0.61892301 -0.57001901 -0.54038203 1.905766e-42
16.78109900 45.98659900 445.02200000 -0.64584398 -0.56256998 -0.51614100 1.905766e-42
18.03440100 45.67750200 443.76801000 -0.67388397 -0.54608601 -0.49766600 1.905766e-42
19.36430000 45.59320100 442.55801000 -0.69826198 -0.52821201 -0.48313800 1.905766e-42
20.44630100 44.96400100 441.26401000 -0.72119099 -0.51255298 -0.46601900 1.905766e-42
21.46430000 44.77990000 439.79099000 -0.74140900 -0.49354199 -0.45467401 1.905766e-42
22.47450100 44.51610200 438.32501000 -0.76033700 -0.47470701 -0.44332799 1.905766e-42
23.27199900 44.77479900 436.73199000 -0.77484202 -0.45447099 -0.43940401 1.905766e-42
24.07930000 44.57770200 435.13501000 -0.79263598 -0.43964800 -0.42242000 1.905766e-42
24.84100000 44.61249900 433.50500000 -0.81441402 -0.43020299 -0.38942900 1.905766e-42
25.61529900 44.43280000 431.89001000 -0.83494401 -0.42009100 -0.35551599 1.905766e-42
26.14049900 44.76430100 430.20001000 -0.85136700 -0.41081601 -0.32619601 1.905766e-42
26.65140000 45.09820200 428.50699000 -0.86532003 -0.40278199 -0.29830700 1.905766e-42
27.16610000 45.20920200 426.78601000 -0.87723702 -0.39598700 -0.27138400 1.905766e-42
27.62500000 45.46849800 425.06500000 -0.88501102 -0.38507599 -0.26167199 1.905766e-42
27.95890000 46.11710000 423.41901000 -0.89143002 -0.37063000 -0.26074001 1.905766e-42
28.41840000 45.94549900 421.68701000 -0.90041602 -0.35583901 -0.25025800 1.905766e-42
28.77050000 46.19800200 419.94000000 -0.90992302 -0.33768600 -0.24084900 1.905766e-42
29.24740000 46.30950200 418.20801000 -0.92106801 -0.31737301 -0.22563000 1.905766e-42
29.57980000 46.19240200 416.44299000 -0.93376100 -0.29482800 -0.20289400 1.905766e-42
29.88520100 47.33620100 415.08701000 -0.94162399 -0.26310501 -0.21004800 1.905766e-42
30.01800000 47.64339800 413.31799000 -0.95079601 -0.23397399 -0.20308501 1.905766e-42
30.16640100 48.37910100 411.68201000 -0.95666403 -0.20873199 -0.20303801 1.905766e-42
30.25289900 49.23479800 410.10101000 -0.96067202 -0.18790799 -0.20445000 1.905766e-42
30.25149900 50.39189900 408.72198000 -0.96255898 -0.17205200 -0.20947300 1.905766e-42
30.39520100 51.26540000 407.15500000 -0.96531397 -0.15619300 -0.20921800 1.905766e-42
30.84960000 49.67440000 406.44601000 -0.96960598 -0.15085800 -0.19262800 1.905766e-42
31.18090100 47.90710100 406.36401000 -0.97543198 -0.13974300 -0.17030799 1.905766e-42
31.48180000 46.13250000 406.37799000 -0.97986102 -0.13671100 -0.14554200 1.905766e-42
31.90060000 44.41470000 406.04001000 -0.98407602 -0.13307300 -0.11783800 1.905766e-42
31.99630000 42.63539900 406.29501000 -0.98564798 -0.14140400 -0.09221450 1.905766e-42
32.16949800 40.84439800 406.34399000 -0.98690403 -0.14768200 -0.06488230 1.905766e-42
32.60789900 39.17200100 405.84399000 -0.98821199 -0.14828700 -0.03805330 1.905766e-42
32.78780000 37.38219800 405.77701000 -0.98796099 -0.15406100 -0.01411550 1.905766e-42
33.04100000 35.60380200 405.66101000 -0.98767000 -0.15632100 0.00845721 1.905766e-42
33.24860000 33.81750100 405.58499000 -0.98731399 -0.15608700 0.02911000 1.905766e-42
33.63470100 32.05950200 405.56500000 -0.98704702 -0.15325600 0.04745390 1.905766e-42
33.76499900 30.26429900 405.58401000 -0.98774898 -0.14161600 0.06555270 1.905766e-42
34.23650000 28.70120000 404.82599000 -0.98961502 -0.11500600 0.08623340 1.905766e-42
34.21960100 26.90150100 404.79901000 -0.99016303 -0.09231130 0.10514400 1.905766e-42
34.29959900 25.10330000 404.78400000 -0.98980200 -0.06943680 0.12438400 1.905766e-42
34.48780100 23.31609900 404.68201000 -0.98821402 -0.04734360 0.14557700 1.905766e-42
34.63140100 21.58530000 404.20901000 -0.98528600 -0.02856670 0.16850799 1.905766e-42
34.53900100 19.87369900 404.75900000 -0.98267299 -0.02812400 0.18320100 1.905766e-42
34.56760000 18.21780000 404.05399000 -0.97906297 -0.01326880 0.20312300 1.905766e-42
34.50669900 16.42230000 403.94299000 -0.97652799 0.00149100 0.21538500 1.905766e-42
34.43940000 14.62360000 403.95599000 -0.97424400 0.01909250 0.22468500 1.905766e-42
34.34920100 12.82610000 403.98401000 -0.97214198 0.03805680 0.23128100 1.905766e-42
34.40430100 11.09770000 403.48401000 -0.97221702 0.04440340 0.22983000 1.905766e-42
34.28960000 9.30795960 403.32999000 -0.97341400 0.05757610 0.22169800 1.905766e-42
34.13230100 7.51846980 403.21600000 -0.97468102 0.07694800 0.20994200 1.905766e-42
