# .PCD v0.7 - Point Cloud Data file format
# 2 140 1
# 1 76 1
# 77 140 0
VERSION 0.7
FIELDS x y z normal_x normal_y normal_z curvature
SIZE 4 4 4 4 4 4 4
TYPE F F F F F F F
COUNT 1 1 1 1 1 1 1
WIDTH 140
HEIGHT 1
VIEWPOINT 0 0 0 1 0 0 0
POINTS 140
DATA ascii
57.75560000 9.13313010 501.35901000 0.02951600 -0.70159799 0.71196198 1.905766e-42
61.82889900 10.36640000 502.35400000 0.04696670 -0.67426598 0.73699403 1.905766e-42
61.08319900 11.57640000 503.45801000 0.04544830 -0.65590298 0.75347602 1.905766e-42
60.42829900 12.96390000 504.39999000 0.04396750 -0.64506298 0.76286399 1.905766e-42
59.50389900 14.11570000 505.42899000 0.04175840 -0.63698000 0.76974797 1.905766e-42
58.10329800 14.92460000 506.21899000 0.03795300 -0.63433301 0.77212799 1.905766e-42
56.59590100 15.65900000 506.87299000 0.03349500 -0.63582897 0.77110302 1.905766e-42
55.21369900 16.47790000 507.68500000 0.02831440 -0.63517803 0.77184701 1.905766e-42
53.88810000 17.38369900 508.49899000 0.02210730 -0.63274002 0.77404898 1.905766e-42
52.64749900 18.37400100 509.34698000 0.01385820 -0.61842698 0.78571999 1.905766e-42
51.59590100 19.54509900 510.22101000 0.00704184 -0.60152102 0.79882598 1.905766e-42
50.47689800 20.68560000 511.04999000 0.00157181 -0.58494002 0.81107497 1.905766e-42
49.34730100 21.85610000 511.82001000 -0.00211334 -0.56939501 0.82206100 1.905766e-42
48.21160100 22.98580000 512.64099000 -0.00428762 -0.55307502 0.83311999 1.905766e-42
47.07749900 24.16700000 513.38898000 -0.00577795 -0.52889699 0.84866601 1.905766e-42
45.90630000 25.30760000 514.14203000 -0.00797290 -0.49174100 0.87070501 1.905766e-42
44.37889900 26.15790000 514.57098000 -0.00930159 -0.46000901 0.88786501 1.905766e-42
42.68550100 26.71390000 514.82202000 -0.01586690 -0.43039900 0.90249902 1.905766e-42
40.93719900 27.13500000 514.90100000 -0.02853000 -0.40031901 0.91593200 1.905766e-42
39.14939900 27.33449900 514.96503000 -0.04125680 -0.38337699 0.92267001 1.905766e-42
37.41989900 27.82990100 514.90802000 -0.05379340 -0.35075501 0.93492103 1.905766e-42
35.62599900 27.97660100 514.89099000 -0.06517360 -0.33766499 0.93900698 1.905766e-42
33.82609900 27.97610100 514.86700000 -0.07531070 -0.33464801 0.93932903 1.905766e-42
32.03649900 28.14760000 514.77899000 -0.08459190 -0.32330799 0.94250500 1.905766e-42
30.25480100 28.37669900 514.66498000 -0.09250330 -0.31010401 0.94619203 1.905766e-42
28.48979900 28.69570000 514.51300000 -0.10320300 -0.29320499 0.95046300 1.905766e-42
26.69969900 28.80250000 514.35699000 -0.11657300 -0.28943500 0.95007300 1.905766e-42
24.90840000 28.68460100 514.22498000 -0.12963000 -0.29924399 0.94533002 1.905766e-42
23.12949900 28.84510000 514.00201000 -0.14261000 -0.29081300 0.94609201 1.905766e-42
21.54500000 29.61890000 513.64099000 -0.15489800 -0.24149001 0.95796102 1.905766e-42
19.84779900 29.05640000 513.43402000 -0.16568600 -0.28298700 0.94470501 1.905766e-42
18.06259900 28.99970100 513.21002000 -0.17729200 -0.28898701 0.94077301 1.905766e-42
16.38710000 29.50020000 512.78302000 -0.18856400 -0.26041999 0.94690299 1.905766e-42
14.67000000 29.01829900 512.53998000 -0.20060401 -0.29665899 0.93367600 1.905766e-42
13.02110000 29.58779900 512.09601000 -0.21483000 -0.26233000 0.94076103 1.905766e-42
11.37950000 28.92540000 511.76999000 -0.22512101 -0.30868301 0.92413998 1.905766e-42
9.63086990 28.98710100 511.34799000 -0.23836900 -0.30481699 0.92209899 1.905766e-42
7.96094990 29.41480100 510.82901000 -0.25313500 -0.27666301 0.92702800 1.905766e-42
6.27317000 28.97550000 510.38400000 -0.26228499 -0.30371499 0.91595000 1.905766e-42
4.60831020 29.33860000 509.80399000 -0.27649501 -0.27737001 0.92011797 1.905766e-42
2.90719010 28.97660100 509.34000000 -0.28460500 -0.29610401 0.91176897 1.905766e-42
1.20941000 28.79380000 508.77100000 -0.29302701 -0.30422401 0.90641201 1.905766e-42
-0.48510101 28.84190000 508.16599000 -0.30377400 -0.29936999 0.90448803 1.905766e-42
-2.14297010 28.49250000 507.55801000 -0.31210199 -0.32405001 0.89307600 1.905766e-42
-3.79770990 28.69039900 506.87799000 -0.32509899 -0.31395999 0.89204299 1.905766e-42
-5.44853020 28.79840100 506.16800000 -0.33789799 -0.31200099 0.88796401 1.905766e-42
-7.07997990 28.80480000 505.40799000 -0.35064101 -0.31780899 0.88093603 1.905766e-42
-8.70203020 28.33090000 504.78799000 -0.36063400 -0.34642401 0.86598700 1.905766e-42
-10.27660000 27.88030100 504.04099000 -0.36910301 -0.37130299 0.85199600 1.905766e-42
-11.91300000 27.92560000 503.29300000 -0.38012499 -0.36273101 0.85084099 1.905766e-42
-13.50070000 27.79450000 502.45499000 -0.38566601 -0.36207500 0.84862399 1.905766e-42
-15.07390000 27.44100000 501.65500000 -0.38919601 -0.36675599 0.84499502 1.905766e-42
-16.63710000 27.16810000 500.80499000 -0.39491600 -0.37932199 0.83675301 1.905766e-42
-18.19619900 26.96750100 499.92801000 -0.40331200 -0.39140600 0.82712799 1.905766e-42
-19.74990100 26.83860000 499.02899000 -0.41357300 -0.40100700 0.81740499 1.905766e-42
-21.26440000 26.50260000 498.11600000 -0.42190301 -0.42012301 0.80342698 1.905766e-42
-22.75079900 26.24160000 497.13501000 -0.43041199 -0.43224600 0.79240698 1.905766e-42
-24.23150100 25.88209900 496.17599000 -0.43506399 -0.44158599 0.78467900 1.905766e-42
-25.70999900 25.47320000 495.23499000 -0.43597001 -0.44768900 0.78070801 1.905766e-42
-27.16820000 25.52210000 494.18100000 -0.44389299 -0.44212100 0.77941501 1.905766e-42
-28.56100100 24.98119900 493.17700000 -0.44703001 -0.45874301 0.76793200 1.905766e-42
-29.95249900 24.42270100 492.18100000 -0.45188501 -0.47563601 0.75469899 1.905766e-42
-31.33169900 24.02280000 491.09601000 -0.45883799 -0.48784700 0.74261200 1.905766e-42
-32.71799900 23.66540000 490.00400000 -0.46632501 -0.49670500 0.73200101 1.905766e-42
-34.11299900 23.40340000 488.89801000 -0.47460499 -0.50071597 0.72390199 1.905766e-42
-35.44089900 23.12410000 487.71500000 -0.48169899 -0.50503099 0.71617800 1.905766e-42
-36.76860000 22.95299900 486.51199000 -0.48906901 -0.50494403 0.71122700 1.905766e-42
-38.03770100 22.29390000 485.41800000 -0.48843399 -0.51273602 0.70607001 1.905766e-42
-39.37310000 22.10660000 484.22601000 -0.49294600 -0.51176101 0.70363700 1.905766e-42
-40.56430100 21.49990100 483.02100000 -0.49462399 -0.52138102 0.69534802 1.905766e-42
-41.84930000 21.32110000 481.77301000 -0.50055498 -0.52671498 0.68703401 1.905766e-42
-43.02479900 20.62999900 480.59799000 -0.50370198 -0.54037499 0.67400301 1.905766e-42
-44.09830100 19.93090100 479.33401000 -0.50618899 -0.55354899 0.66132897 1.905766e-42
-45.35770000 19.89030100 478.04800000 -0.51206601 -0.55615300 0.65458602 1.905766e-42
-46.33100100 19.04240000 476.79401000 -0.51122397 -0.56800699 0.64499402 1.905766e-42
-47.55519900 19.13159900 475.47699000 -0.51567101 -0.56441301 0.64460897 1.905766e-42
-48.61880100 18.40519900 474.22000000 -0.51185101 -0.56094003 0.65065700 1.905766e-42
-47.48339800 17.01759900 474.06000000 -0.49117601 -0.58348697 0.64675200 1.905766e-42
-45.93320100 16.15930000 474.37701000 -0.47569200 -0.60763001 0.63600600 1.905766e-42
-44.30649900 15.72810000 475.01501000 -0.46668401 -0.62905002 0.62169302 1.905766e-42
-42.71550000 15.36640000 475.77600000 -0.45894301 -0.64616698 0.60978597 1.905766e-42
-41.33750200 15.21950000 476.92401000 -0.45551300 -0.65185702 0.60629201 1.905766e-42
-39.67070000 14.71600000 477.38101000 -0.44354501 -0.66765201 0.59792101 1.905766e-42
-38.20959900 14.47920000 478.40500000 -0.43625700 -0.66920602 0.60153401 1.905766e-42
-36.58900100 14.07720000 479.07700000 -0.42485401 -0.67590201 0.60220897 1.905766e-42
-34.93690100 13.73120000 479.70300000 -0.41260999 -0.68005502 0.60603398 1.905766e-42
-33.49480100 13.62300000 480.77399000 -0.40488899 -0.67057598 0.62160498 1.905766e-42
-31.85380000 13.13240000 481.32800000 -0.39441499 -0.67766798 0.62064701 1.905766e-42
-30.14290000 12.61810000 481.54800000 -0.38261601 -0.69191200 0.61226100 1.905766e-42
-28.49490000 12.18090000 482.12500000 -0.37229100 -0.69876498 0.61084098 1.905766e-42
-26.96190100 12.02960000 483.05600000 -0.36543301 -0.69370103 0.62067503 1.905766e-42
-25.30890100 11.67460000 483.67401000 -0.35613799 -0.69865400 0.62052298 1.905766e-42
-23.64450100 11.26940000 484.22699000 -0.34648600 -0.70575398 0.61794698 1.905766e-42
-21.94890000 10.87340000 484.68301000 -0.33653799 -0.71446401 0.61342001 1.905766e-42
-20.21530000 10.39960000 484.78400000 -0.32381600 -0.73068899 0.60102999 1.905766e-42
-18.71629900 10.37210000 485.78000000 -0.31805301 -0.72233498 0.61406398 1.905766e-42
-17.02969900 10.00780000 486.29300000 -0.30752000 -0.72894299 0.61161602 1.905766e-42
-15.30620000 9.72544000 486.72800000 -0.29690301 -0.73540801 0.60911697 1.905766e-42
-13.63020000 9.63123990 487.37799000 -0.28822899 -0.73475599 0.61404997 1.905766e-42
-11.93800000 9.45053010 487.96399000 -0.27872699 -0.73639297 0.61647099 1.905766e-42
-10.20930000 8.94985010 487.99701000 -0.26583001 -0.75168902 0.60357201 1.905766e-42
-8.54047970 8.85579970 488.66501000 -0.25722000 -0.74972302 0.60971600 1.905766e-42
-6.86990020 8.80587960 489.33301000 -0.25029701 -0.74687099 0.61606401 1.905766e-42
-5.19119980 8.78757000 489.98199000 -0.24351799 -0.74387401 0.62237501 1.905766e-42
-3.44765000 8.59230040 490.38501000 -0.23509300 -0.74726301 0.62155402 1.905766e-42
-1.70618000 8.16926000 490.55301000 -0.22543500 -0.75676000 0.61359000 1.905766e-42
0.00146857 8.06344990 491.11200000 -0.21826200 -0.75576502 0.61739802 1.905766e-42
1.73897000 7.59781980 491.17801000 -0.20886900 -0.76603401 0.60791898 1.905766e-42
3.50050000 7.25608020 491.32001000 -0.20035000 -0.77300298 0.60193503 1.905766e-42
5.24850990 7.05140020 491.69699000 -0.19304000 -0.77453202 0.60235900 1.905766e-42
6.96153020 6.61506990 491.35800000 -0.18523000 -0.78740197 0.58795202 1.905766e-42
8.69116970 6.40035010 491.80801000 -0.17957000 -0.78686601 0.59042001 1.905766e-42
10.48580000 6.41652010 491.94601000 -0.17369400 -0.78837401 0.59016597 1.905766e-42
12.12440000 6.40463020 492.69000000 -0.16960600 -0.77848500 0.60431403 1.905766e-42
13.86600000 5.95814990 492.77701000 -0.16278800 -0.78819603 0.59350401 1.905766e-42
15.63400000 5.62047000 492.79099000 -0.15547900 -0.79827601 0.58187801 1.905766e-42
17.38579900 5.59452010 493.20401000 -0.15039200 -0.79610503 0.58617300 1.905766e-42
19.12470100 5.58514020 493.66901000 -0.14577100 -0.79158401 0.59341902 1.905766e-42
20.89460000 5.26733020 493.58701000 -0.13577899 -0.80721098 0.57443398 1.905766e-42
22.50910000 4.73865990 492.99301000 -0.12063900 -0.83695102 0.53381598 1.905766e-42
24.21830000 4.67915010 493.55399000 -0.11444800 -0.83355802 0.54044700 1.905766e-42
25.99910000 4.41970010 493.58899000 -0.10462200 -0.84420699 0.52570802 1.905766e-42
27.78150000 4.16862010 493.59000000 -0.09634000 -0.85374802 0.51169598 1.905766e-42
29.41760100 4.07824990 492.84500000 -0.08931160 -0.87362200 0.47833800 1.905766e-42
31.13290000 4.09833000 493.39001000 -0.08845700 -0.86405998 0.49555600 1.905766e-42
32.66140000 4.32887980 494.31201000 -0.08626430 -0.84093797 0.53421199 1.905766e-42
34.45660000 4.21359010 494.37299000 -0.08649940 -0.83661902 0.54091299 1.905766e-42
36.16109800 4.28812980 494.94699000 -0.08183720 -0.81828201 0.56896198 1.905766e-42
37.94720100 4.20915990 495.15601000 -0.07949770 -0.80708802 0.58505499 1.905766e-42
39.52690100 4.64703990 495.89999000 -0.07011080 -0.78638297 0.61374700 1.905766e-42
41.06460200 5.19265990 496.66000000 -0.06063010 -0.76843798 0.63704598 1.905766e-42
42.73230000 5.56145000 497.22800000 -0.05232730 -0.75658798 0.65179503 1.905766e-42
44.52389900 5.58620980 497.40100000 -0.04483750 -0.75116098 0.65859503 1.905766e-42
46.31720000 5.66699980 497.53201000 -0.03593470 -0.74632001 0.66461599 1.905766e-42
47.95159900 6.11324980 498.14001000 -0.02401940 -0.74151802 0.67050302 1.905766e-42
49.52330000 6.66299010 498.82401000 -0.01304620 -0.73720402 0.67554402 1.905766e-42
51.18130100 7.11336990 499.36099000 -0.00283635 -0.73368597 0.67948300 1.905766e-42
52.86769900 7.55543990 499.80899000 0.00660503 -0.73014402 0.68326199 1.905766e-42
54.58960000 7.92981000 500.17599000 0.01534460 -0.72623301 0.68727702 1.905766e-42
56.24219900 8.43146990 500.68301000 0.02310740 -0.71835500 0.69529301 1.905766e-42
