# .PCD v0.7 - Point Cloud Data file format
# 2 133 1
# 1 69 1
# 70 133 0
VERSION 0.7
FIELDS x y z normal_x normal_y normal_z curvature
SIZE 4 4 4 4 4 4 4
TYPE F F F F F F F
COUNT 1 1 1 1 1 1 1
WIDTH 133
HEIGHT 1
VIEWPOINT 0 0 0 1 0 0 0
POINTS 133
DATA ascii
69.54879800 7.10950990 479.99600000 0.04345860 -0.45704299 0.88838202 1.905766e-42
68.69899700 8.60212990 480.53400000 0.07363250 -0.44190401 0.89403498 1.905766e-42
66.98609900 8.85124970 481.02802000 0.06924340 -0.45515299 0.88771701 1.905766e-42
65.37349700 9.51457980 481.47501000 0.06644060 -0.44921100 0.89095199 1.905766e-42
63.70439900 10.07340000 481.85199000 0.05903760 -0.44478101 0.89369202 1.905766e-42
62.08940100 10.73800000 482.28799000 0.05108140 -0.43351299 0.89969802 1.905766e-42
60.37789900 11.21380000 482.57800000 0.03935620 -0.42469800 0.90447903 1.905766e-42
58.66230000 11.65410000 482.89899000 0.02757200 -0.41552901 0.90916198 1.905766e-42
57.04800000 12.38590000 483.21301000 0.02196570 -0.39549500 0.91820502 1.905766e-42
55.29959900 12.72190000 483.47800000 0.01210020 -0.40492699 0.91426897 1.905766e-42
53.61930100 13.31170000 483.73901000 0.00462320 -0.39923999 0.91683501 1.905766e-42
51.98310100 14.03070000 483.95401000 -0.00417764 -0.37785599 0.92585498 1.905766e-42
50.23230000 14.40550000 484.13901000 -0.01930210 -0.37226599 0.92792499 1.905766e-42
48.49869900 14.86640000 484.28799000 -0.03233240 -0.36322001 0.93114197 1.905766e-42
46.87459900 15.63630000 484.38599000 -0.03953390 -0.33856300 0.94011301 1.905766e-42
45.07780100 15.64120000 484.49301000 -0.05667510 -0.35784799 0.93205798 1.905766e-42
43.43289900 16.36290000 484.60901000 -0.06202010 -0.32560399 0.94347000 1.905766e-42
42.21080000 16.37990000 484.59399000 -0.07254960 -0.34119201 0.93719000 1.905766e-42
40.71410000 17.37990000 484.58600000 -0.07042830 -0.27620801 0.95851398 1.905766e-42
38.92879900 17.60860100 484.60501000 -0.08372310 -0.28162000 0.95586699 1.905766e-42
37.13290000 17.71920000 484.55600000 -0.10024200 -0.30250800 0.94786102 1.905766e-42
35.49050100 18.45420100 484.50900000 -0.10598300 -0.26606601 0.95811099 1.905766e-42
33.70640200 18.66150100 484.39001000 -0.11972600 -0.27042601 0.95526701 1.905766e-42
32.01179900 19.26070000 484.29300000 -0.12783900 -0.23156300 0.96438402 1.905766e-42
30.22040000 19.39600000 484.18201000 -0.14047199 -0.23742700 0.96119499 1.905766e-42
28.52540000 19.97440000 484.00201000 -0.14733601 -0.19106901 0.97045600 1.905766e-42
26.75210000 20.18660000 483.77701000 -0.15922301 -0.18813699 0.96915001 1.905766e-42
25.10320100 20.87019900 483.54401000 -0.16799600 -0.11607900 0.97892898 1.905766e-42
23.33149900 21.09860000 483.32300000 -0.18154000 -0.10581500 0.97767401 1.905766e-42
21.64580000 21.64450100 483.00699000 -0.18991700 -0.04964980 0.98054397 1.905766e-42
19.87140100 21.71760000 482.71301000 -0.20454600 -0.06759550 0.97652000 1.905766e-42
18.26880100 22.42359900 482.29700000 -0.20709801 0.01074660 0.97826099 1.905766e-42
16.50760100 22.59550100 481.96799000 -0.21947999 0.00132178 0.97561598 1.905766e-42
14.86540000 23.17009900 481.50601000 -0.22213399 0.04914550 0.97377700 1.905766e-42
13.10970000 22.91020000 481.20599000 -0.24609500 -0.03339170 0.96867001 1.905766e-42
11.41060000 23.29340000 480.75201000 -0.25549999 -0.02010220 0.96660000 1.905766e-42
9.66936020 23.27940000 480.29599000 -0.27533701 -0.06945680 0.95883501 1.905766e-42
8.10270980 23.92240000 479.68600000 -0.27906400 -0.02083620 0.96004599 1.905766e-42
6.37974020 23.54439900 479.32800000 -0.30699700 -0.11963000 0.94416201 1.905766e-42
4.75049020 24.01180100 478.72198000 -0.31723100 -0.09930310 0.94313502 1.905766e-42
3.03684000 24.01730000 478.17099000 -0.33676401 -0.14160000 0.93088102 1.905766e-42
1.33199000 23.85850000 477.61600000 -0.35646501 -0.19933200 0.91279799 1.905766e-42
-0.28906500 24.26660000 476.94800000 -0.36523700 -0.18727200 0.91188300 1.905766e-42
-1.86048000 24.74200100 476.20999000 -0.37377501 -0.17482699 0.91089398 1.905766e-42
-3.49354000 24.21279900 475.66901000 -0.39133501 -0.25647199 0.88378698 1.905766e-42
-5.08906980 24.58720000 474.92401000 -0.40263700 -0.24943700 0.88071799 1.905766e-42
-6.69594000 24.79320000 474.14001000 -0.41523799 -0.25775701 0.87243301 1.905766e-42
-8.33924960 24.73310100 473.40799000 -0.42760101 -0.27898401 0.85983998 1.905766e-42
-9.95594020 24.82539900 472.62201000 -0.43865800 -0.28103501 0.85358000 1.905766e-42
-11.56520000 24.70550000 471.82401000 -0.44351500 -0.29147401 0.84754801 1.905766e-42
-13.13470000 24.80810000 470.94901000 -0.44899300 -0.29743600 0.84257799 1.905766e-42
-14.67680000 25.06469900 470.05701000 -0.45680800 -0.29458800 0.83937103 1.905766e-42
-16.24539900 24.69330000 469.25601000 -0.46400899 -0.33855000 0.81858402 1.905766e-42
-17.78310000 24.47510000 468.34601000 -0.47246799 -0.36828801 0.80071098 1.905766e-42
-19.31650000 24.56730100 467.40799000 -0.48298600 -0.37631300 0.79064101 1.905766e-42
-20.83370000 24.65710100 466.44299000 -0.49356899 -0.38128400 0.78167200 1.905766e-42
-22.33230000 24.55620000 465.45099000 -0.50241500 -0.38724101 0.77306098 1.905766e-42
-23.82950000 24.48810000 464.45401000 -0.50958103 -0.38894901 0.76749301 1.905766e-42
-25.28470000 24.43219900 463.39600000 -0.50920701 -0.39234200 0.76601303 1.905766e-42
-26.74760100 24.46080000 462.34799000 -0.51023000 -0.39143899 0.76579398 1.905766e-42
-28.15390000 24.08190000 461.29001000 -0.51084298 -0.40625101 0.75762802 1.905766e-42
-29.53809900 23.76650000 460.18399000 -0.51385897 -0.42931399 0.74272299 1.905766e-42
-30.84730000 23.51980000 458.97299000 -0.51724899 -0.44963399 0.72820503 1.905766e-42
-31.48300000 22.18619900 457.94501000 -0.51362699 -0.48644000 0.70679802 1.905766e-42
-32.48270000 21.43499900 456.64999000 -0.51260400 -0.50702697 0.69293702 1.905766e-42
-33.12070100 20.36689900 455.35001000 -0.50797701 -0.52975398 0.67920500 1.905766e-42
-33.86619900 19.38890100 454.03500000 -0.50506401 -0.54188597 0.67176598 1.905766e-42
-34.44710200 18.31520100 452.71201000 -0.50377899 -0.55929500 0.65832800 1.905766e-42
-35.28170000 17.47400100 451.35699000 -0.50182003 -0.57270199 0.64822000 1.905766e-42
-35.78950100 16.45770100 449.96100000 -0.49056199 -0.61426800 0.61808002 1.905766e-42
-34.47300000 15.24090000 449.79901000 -0.47346699 -0.63507003 0.61034000 1.905766e-42
-32.99350000 15.03040000 450.80301000 -0.47800899 -0.65218800 0.58835202 1.905766e-42
-31.67770000 15.09110000 452.02899000 -0.48161399 -0.63524699 0.60374600 1.905766e-42
-29.96780000 14.59220000 452.28900000 -0.47419500 -0.65521699 0.58807302 1.905766e-42
-28.66980000 14.31760000 453.50601000 -0.47409800 -0.63795602 0.60683101 1.905766e-42
-27.05970000 13.54420000 453.72800000 -0.46357101 -0.66881901 0.58119100 1.905766e-42
-25.45579900 13.16380000 454.45099000 -0.45758700 -0.67153198 0.58280301 1.905766e-42
-24.03770100 12.91730000 455.53201000 -0.45447099 -0.65105700 0.60793197 1.905766e-42
-22.46320000 12.56450000 456.32901000 -0.44617701 -0.64233798 0.62315899 1.905766e-42
-20.86470000 12.17610000 457.06000000 -0.43630999 -0.63707501 0.63542801 1.905766e-42
-19.23920100 11.74510000 457.70200000 -0.42595300 -0.64005399 0.63944900 1.905766e-42
-17.56320000 11.24810000 458.13101000 -0.41354600 -0.66354501 0.62344903 1.905766e-42
-16.12140100 11.08630000 459.19601000 -0.40776199 -0.64066100 0.65060300 1.905766e-42
-14.47300000 10.38690000 459.38000000 -0.39492801 -0.67229199 0.62614298 1.905766e-42
-12.86910000 10.08650000 460.14001000 -0.38829100 -0.65669101 0.64651901 1.905766e-42
-11.20920000 9.55130000 460.58499000 -0.37653899 -0.68314397 0.62572497 1.905766e-42
-9.63179020 8.73295970 460.29800000 -0.35717300 -0.75633800 0.54806900 1.905766e-42
-8.00018980 8.35210040 460.95599000 -0.35053000 -0.75578398 0.55309999 1.905766e-42
-6.40139010 8.06441020 461.73199000 -0.34593400 -0.74525303 0.57002401 1.905766e-42
-4.74297000 7.87181000 462.40399000 -0.34101000 -0.73456800 0.58661902 1.905766e-42
-3.03236010 7.31496000 462.46500000 -0.32803401 -0.76751298 0.55074298 1.905766e-42
-1.45810000 7.11212020 463.31400000 -0.32470399 -0.74945700 0.57695901 1.905766e-42
0.29618600 6.73326020 463.45200000 -0.31460899 -0.76866800 0.55692899 1.905766e-42
1.98819010 6.47415020 464.00900000 -0.30868000 -0.76455098 0.56584299 1.905766e-42
3.56697990 6.23649980 464.84000000 -0.30512699 -0.74696702 0.59070998 1.905766e-42
5.29784010 5.79325010 465.05801000 -0.29735699 -0.76076198 0.57690501 1.905766e-42
6.96181010 5.42338990 465.63599000 -0.29190400 -0.75683200 0.58480603 1.905766e-42
8.69552040 5.02648020 465.91299000 -0.28575599 -0.76288003 0.57996398 1.905766e-42
10.39250000 4.72791000 466.43399000 -0.28066200 -0.75751901 0.58940101 1.905766e-42
12.05920000 4.66036990 467.10999000 -0.27606401 -0.74074101 0.61244702 1.905766e-42
13.71650000 3.97009990 466.98001000 -0.27121001 -0.76142401 0.58879399 1.905766e-42
15.44610000 3.54887010 467.24701000 -0.26670501 -0.76211399 0.58995801 1.905766e-42
17.17040100 3.05295990 467.39099000 -0.26091200 -0.76590300 0.58763701 1.905766e-42
18.90740000 2.58167000 467.41400000 -0.25528499 -0.77034801 0.58428901 1.905766e-42
20.58820000 2.42637990 468.03900000 -0.24745300 -0.75950801 0.60159302 1.905766e-42
22.32300000 2.27159000 468.49399000 -0.23951700 -0.75184399 0.61429799 1.905766e-42
24.06769900 2.01288010 468.85300000 -0.23146001 -0.74767202 0.62242502 1.905766e-42
25.81870100 1.69187000 469.12000000 -0.22317000 -0.74614602 0.62726498 1.905766e-42
27.54950000 1.58234000 469.60199000 -0.21377601 -0.73915201 0.63871300 1.905766e-42
29.30130000 1.16992000 469.63101000 -0.20534199 -0.74286401 0.63717097 1.905766e-42
31.07889900 0.98741299 469.84799000 -0.19889900 -0.74064600 0.64178002 1.905766e-42
32.78760100 0.90784699 470.40799000 -0.19145800 -0.73272002 0.65304297 1.905766e-42
34.54690200 0.79337102 470.77100000 -0.18392400 -0.72718298 0.66134501 1.905766e-42
36.28780000 0.75994700 471.22800000 -0.17560799 -0.72001702 0.67137003 1.905766e-42
38.05880000 0.70389998 471.54501000 -0.16713800 -0.71466798 0.67920101 1.905766e-42
39.83480100 0.41271001 471.51401000 -0.15955900 -0.71360201 0.68213898 1.905766e-42
41.47689800 0.55371201 472.23700000 -0.14922200 -0.70580298 0.69251400 1.905766e-42
43.16339900 0.79575902 472.81799000 -0.14115401 -0.69933498 0.70071799 1.905766e-42
44.94369900 0.79762602 473.08301000 -0.13376600 -0.69451201 0.70693702 1.905766e-42
46.67279800 0.83711100 473.58200000 -0.12505300 -0.68784201 0.71500701 1.905766e-42
48.46939800 0.82574099 473.69299000 -0.11726900 -0.68051201 0.72329199 1.905766e-42
49.98669800 1.32024000 474.52499000 -0.10435300 -0.67576998 0.72968900 1.905766e-42
51.67689900 1.65616000 475.04599000 -0.09209490 -0.67212999 0.73468298 1.905766e-42
53.43750000 1.82528000 475.38000000 -0.07998480 -0.66871798 0.73920101 1.905766e-42
54.95539900 2.41133000 476.14999000 -0.06846280 -0.66659302 0.74227101 1.905766e-42
56.74100100 2.52110000 476.34799000 -0.06362440 -0.66018403 0.74840498 1.905766e-42
58.39590100 3.00949000 476.86099000 -0.05688320 -0.64945698 0.75826800 1.905766e-42
60.03580100 3.51514010 477.40399000 -0.04896500 -0.63722700 0.76911998 1.905766e-42
61.66050000 4.06648020 477.94800000 -0.03931120 -0.62219000 0.78187799 1.905766e-42
63.29449800 4.64420990 478.43500000 -0.02780450 -0.60257399 0.79757899 1.905766e-42
64.61399800 5.60406020 479.19501000 -0.00754038 -0.57205200 0.82018298 1.905766e-42
66.41380300 5.62069990 479.17700000 -0.00216068 -0.54702902 0.83711100 1.905766e-42
67.86969800 6.50761990 479.75400000 0.02312380 -0.50347000 0.86370301 1.905766e-42
