# .PCD v0.7 - Point Cloud Data file format
# 4 197 0
# 1 57 0
# 58 109 0
# 110 177 0
# 178 197 0
VERSION 0.7
FIELDS x y z normal_x normal_y normal_z curvature
SIZE 4 4 4 4 4 4 4
TYPE F F F F F F F
COUNT 1 1 1 1 1 1 1
WIDTH 197
HEIGHT 1
VIEWPOINT 0 0 0 1 0 0 0
POINTS 197
DATA ascii
55.76960000 33.25840000 468.50000000 0.53857797 -0.34339699 0.76942402 1.905766e-42
54.48770100 32.24380100 469.25299000 0.53208798 -0.33922201 0.77576500 1.905766e-42
53.22930100 31.02090100 469.65500000 0.52664399 -0.33500701 0.78129101 1.905766e-42
51.83470200 29.97220000 470.09698000 0.51999599 -0.33235401 0.78685802 1.905766e-42
50.56440000 28.73160000 470.39200000 0.51363099 -0.33032700 0.79187602 1.905766e-42
49.24959900 27.55279900 470.74100000 0.50526100 -0.33026499 0.79726797 1.905766e-42
47.94070100 26.34860000 471.01801000 0.48822200 -0.33241999 0.80693001 1.905766e-42
46.66910200 25.11440100 471.33401000 0.47124499 -0.34194800 0.81301898 1.905766e-42
45.29230100 24.03130000 471.74799000 0.45280901 -0.35565001 0.81760401 1.905766e-42
44.00960200 22.79150000 471.98801000 0.43533900 -0.37237301 0.81964499 1.905766e-42
42.68249900 21.57729900 472.05301000 0.41754901 -0.39024499 0.82058603 1.905766e-42
41.19020100 20.60460100 472.31201000 0.39656499 -0.40484601 0.82391500 1.905766e-42
39.63019900 19.73300000 472.52899000 0.37429801 -0.41883501 0.82733202 1.905766e-42
38.00989900 18.97970000 472.74500000 0.35059801 -0.43164799 0.83112103 1.905766e-42
36.33499900 18.39679900 473.05399000 0.32524899 -0.44190601 0.83602202 1.905766e-42
34.69250100 17.71260100 473.32599000 0.30096099 -0.45366400 0.83881497 1.905766e-42
32.98149900 17.27599900 473.67499000 0.27853000 -0.46148801 0.84228897 1.905766e-42
31.28230100 16.78620000 474.01099000 0.25578600 -0.46974200 0.84493500 1.905766e-42
29.54260100 17.02400000 474.40701000 0.23369899 -0.46801099 0.85226202 1.905766e-42
27.81740000 16.77050000 474.85300000 0.21030401 -0.47205701 0.85611600 1.905766e-42
26.06730100 16.96850000 475.22501000 0.18746400 -0.47087401 0.86205298 1.905766e-42
24.40169900 16.57889900 475.78500000 0.16413701 -0.47530299 0.86437601 1.905766e-42
22.61310000 16.44930100 475.94000000 0.14025000 -0.47907799 0.86649501 1.905766e-42
20.84330000 16.58670000 476.23801000 0.11850000 -0.47887599 0.86984801 1.905766e-42
19.09700000 16.79960100 476.61899000 0.09979600 -0.47764301 0.87286800 1.905766e-42
17.36910100 17.15539900 476.97699000 0.08128390 -0.47521001 0.87611002 1.905766e-42
15.78590000 17.85460100 477.47101000 0.06478730 -0.46845400 0.88110900 1.905766e-42
14.11670000 18.49500100 477.67999000 0.04687860 -0.46397299 0.88460797 1.905766e-42
12.34100000 18.41390000 477.96399000 0.02624800 -0.46626699 0.88425499 1.905766e-42
11.11070000 19.64469900 478.42300000 0.01387190 -0.45348400 0.89115602 1.905766e-42
9.37878990 19.99340100 478.76801000 -0.00601376 -0.45036599 0.89282399 1.905766e-42
7.72610000 20.65029900 479.04599000 -0.02518170 -0.44376299 0.89578998 1.905766e-42
6.10320000 21.40810000 479.22501000 -0.04575010 -0.43614799 0.89871103 1.905766e-42
4.33474020 21.69190000 479.40399000 -0.06843790 -0.43378201 0.89841503 1.905766e-42
2.74690010 22.50190000 479.65399000 -0.08788520 -0.42526001 0.90079403 1.905766e-42
1.19696000 23.39049900 479.87299000 -0.10632900 -0.41515100 0.90351802 1.905766e-42
-0.12380000 24.57869900 480.16299000 -0.12059000 -0.39837101 0.90926301 1.905766e-42
-1.75581000 25.32300000 480.31299000 -0.13969000 -0.39008901 0.91011900 1.905766e-42
-3.19753000 26.38579900 480.49100000 -0.15585400 -0.37797600 0.91260302 1.905766e-42
-4.76316980 27.26020100 480.64700000 -0.17367999 -0.36863500 0.91320503 1.905766e-42
-5.55457020 27.83720000 480.67401000 -0.18270800 -0.36270499 0.91381800 1.905766e-42
-7.10927010 28.74220100 480.73700000 -0.20067801 -0.35353199 0.91364300 1.905766e-42
-8.65802000 29.65940100 480.72400000 -0.21891500 -0.34464601 0.91285002 1.905766e-42
-10.22640000 30.54089900 480.66800000 -0.23770800 -0.33629400 0.91126400 1.905766e-42
-11.77270000 31.45990000 480.60001000 -0.25651801 -0.32753101 0.90935302 1.905766e-42
-13.19680000 32.55659900 480.50500000 -0.27436799 -0.31710699 0.90783602 1.905766e-42
-14.88320000 33.13069900 480.24799000 -0.29593900 -0.31136599 0.90303397 1.905766e-42
-16.12820100 34.43069800 480.25800000 -0.31238499 -0.29821101 0.90193498 1.905766e-42
-17.02930100 35.98429900 480.37900000 -0.32576200 -0.28346300 0.90195799 1.905766e-42
-18.53360000 36.94559900 480.14899000 -0.34749800 -0.27221999 0.89729702 1.905766e-42
-19.40700000 38.51630000 480.24899000 -0.35962200 -0.25776201 0.89678901 1.905766e-42
-20.45240000 39.95360200 479.96399000 -0.37279400 -0.24501701 0.89498103 1.905766e-42
-21.85600100 41.07300200 479.83499000 -0.38648900 -0.23375000 0.89218098 1.905766e-42
-23.26009900 42.17319900 479.59399000 -0.39958799 -0.22247000 0.88928998 1.905766e-42
-24.75630000 43.06430100 479.13901000 -0.41284600 -0.21165401 0.88586700 1.905766e-42
-25.54820100 44.67680000 479.02499000 -0.42426100 -0.19240800 0.88486201 1.905766e-42
-26.97370000 45.68280000 478.58200000 -0.44409901 -0.16256499 0.88110602 1.905766e-42
-27.90920100 47.20439900 478.35999000 -0.47095701 -0.10644100 0.87571102 1.905766e-42
-28.61470000 45.67150100 477.73401000 -0.46232000 -0.12550300 0.87778699 1.905766e-42
-29.61440100 44.42390100 476.90601000 -0.44940299 -0.17702401 0.87561399 1.905766e-42
-29.73590100 42.66579800 476.54001000 -0.44847399 -0.21485600 0.86758697 1.905766e-42
-30.34520000 41.13700100 475.81100000 -0.45747799 -0.24168999 0.85574502 1.905766e-42
-30.73270000 39.51610200 475.13101000 -0.46894801 -0.26936200 0.84114897 1.905766e-42
-31.66130100 38.26910000 474.22400000 -0.48742899 -0.29835999 0.82060599 1.905766e-42
-31.68930100 36.62620200 473.48901000 -0.50058401 -0.33213699 0.79943800 1.905766e-42
-32.04449800 35.10940200 472.58701000 -0.51449001 -0.36543900 0.77572900 1.905766e-42
-32.07379900 33.49850100 471.78400000 -0.52390897 -0.39514101 0.75457501 1.905766e-42
-32.87099800 32.38790100 470.61301000 -0.53933698 -0.42096201 0.72931898 1.905766e-42
-32.87879900 30.87550000 469.63699000 -0.54769599 -0.44675401 0.70741701 1.905766e-42
-33.18809900 29.60750000 468.39801000 -0.55878901 -0.47024700 0.68309802 1.905766e-42
-33.15000200 28.10280000 467.41101000 -0.56530899 -0.49200600 0.66208398 1.905766e-42
-33.56779900 26.79970000 466.24100000 -0.57589000 -0.51372701 0.63595301 1.905766e-42
-33.70090100 25.42590000 465.08600000 -0.58336401 -0.53666902 0.60964900 1.905766e-42
-33.57009900 24.10590000 463.86899000 -0.58810300 -0.55970103 0.58384001 1.905766e-42
-33.45029800 22.76499900 462.67401000 -0.59144902 -0.58274502 0.55731100 1.905766e-42
-33.26290100 21.47800100 461.42999000 -0.59350401 -0.60564202 0.53004801 1.905766e-42
-33.24900100 20.56090000 459.88101000 -0.59709799 -0.62715602 0.50014901 1.905766e-42
-33.12410000 19.15119900 458.76901000 -0.59647602 -0.64690101 0.47511700 1.905766e-42
-32.95280100 18.00770000 457.38901000 -0.59666097 -0.66000003 0.45650300 1.905766e-42
-32.66529800 16.87599900 456.01999000 -0.59683102 -0.67167801 0.43890801 1.905766e-42
-32.53699900 15.86030000 454.53900000 -0.59837401 -0.68169302 0.42100301 1.905766e-42
-32.35120000 14.86660000 453.04999000 -0.59984601 -0.69064403 0.40397599 1.905766e-42
-32.14139900 13.97740000 451.49899000 -0.60146999 -0.69861102 0.38752499 1.905766e-42
-31.78200000 12.83570000 450.15399000 -0.60127401 -0.70648098 0.37330201 1.905766e-42
-31.42690100 11.85790000 448.68500000 -0.60086298 -0.71279299 0.36178699 1.905766e-42
-31.38719900 10.98350000 447.11301000 -0.60083801 -0.71927798 0.34875900 1.905766e-42
-31.28580100 9.95728020 445.63699000 -0.59899998 -0.72711998 0.33540300 1.905766e-42
-31.14069900 9.31482030 443.96201000 -0.59756798 -0.73478299 0.32094601 1.905766e-42
-30.35150000 8.01311020 443.00201000 -0.59128898 -0.74459100 0.30977499 1.905766e-42
-30.23959900 7.48522000 441.28400000 -0.59026998 -0.75173098 0.29407901 1.905766e-42
-29.82239900 6.40359020 439.90701000 -0.58724701 -0.76027298 0.27771601 1.905766e-42
-30.03930100 6.06713010 438.15201000 -0.58579898 -0.76898003 0.25594500 1.905766e-42
-29.65690000 5.29301020 436.57300000 -0.58113003 -0.77985799 0.23261400 1.905766e-42
-29.57070000 4.83166980 434.83499000 -0.57571900 -0.79053801 0.20879699 1.905766e-42
-29.03080000 4.36379000 433.18301000 -0.56958598 -0.80112797 0.18375400 1.905766e-42
-28.49290100 3.58016990 431.65500000 -0.56418699 -0.81046200 0.15762401 1.905766e-42
-28.14800100 2.93595000 430.01001000 -0.55840498 -0.81912500 0.13122199 1.905766e-42
-27.48840000 1.97647000 428.63699000 -0.56571001 -0.80949599 0.15712400 1.905766e-42
-27.23049900 1.40332000 426.95001000 -0.56727397 -0.80074698 0.19236600 1.905766e-42
-26.77780000 0.66946501 425.37000000 -0.56660801 -0.79264402 0.22510400 1.905766e-42
-26.37249900 -0.08825000 423.78799000 -0.55907297 -0.78834200 0.25681400 1.905766e-42
-26.00110100 -0.83050102 422.19101000 -0.54180098 -0.78981602 0.28747499 1.905766e-42
-25.64500000 -1.59433000 420.60101000 -0.51171303 -0.79901397 0.31579399 1.905766e-42
-25.27240000 -2.59699010 419.15302000 -0.46888599 -0.83137101 0.29827601 1.905766e-42
-24.89170100 -3.82543990 417.89401000 -0.43336201 -0.86167198 0.26404399 1.905766e-42
-24.45319900 -5.15844010 416.76599000 -0.41399801 -0.87876302 0.23744699 1.905766e-42
-22.90160000 -5.83863020 416.15799000 -0.42159501 -0.88272297 0.20750500 1.905766e-42
-21.41000000 -6.14449980 415.19800000 -0.42733300 -0.88422298 0.18851000 1.905766e-42
-20.61540000 -6.77651980 413.71201000 -0.42561901 -0.88672000 0.18048599 1.905766e-42
-20.60170000 -7.19665000 411.96201000 -0.41456401 -0.89171302 0.18161599 1.905766e-42
-18.82819900 -7.50349000 411.98499000 -0.43927199 -0.88228202 0.16916800 1.905766e-42
-17.14909900 -8.14566990 411.89499000 -0.46142101 -0.87301302 0.15791900 1.905766e-42
-15.54670000 -8.96292020 411.82901000 -0.48147199 -0.86407697 0.14681500 1.905766e-42
-13.96070000 -9.73013970 411.45999000 -0.49682701 -0.85724699 0.13524200 1.905766e-42
-12.47090000 -10.64330000 411.89200000 -0.50590801 -0.85397601 0.12158200 1.905766e-42
-10.86810000 -11.46110000 411.93900000 -0.48547500 -0.86757100 0.10786300 1.905766e-42
-9.31532960 -12.36660000 412.03500000 -0.46623999 -0.87943602 0.09598110 1.905766e-42
-7.73944000 -13.22770000 412.15701000 -0.44826099 -0.88970298 0.08654950 1.905766e-42
-6.33835980 -14.16880000 412.78299000 -0.43391299 -0.89709097 0.08334790 1.905766e-42
-4.75904990 -15.03230000 412.79901000 -0.41721299 -0.90537697 0.07890900 1.905766e-42
-3.12234000 -15.77610000 412.88699000 -0.40180099 -0.91239798 0.07801650 1.905766e-42
-1.45980000 -16.42680000 413.11700000 -0.38720500 -0.91839898 0.08133310 1.905766e-42
0.10903100 -17.16810000 413.59500000 -0.37144700 -0.92417198 0.08906730 1.905766e-42
1.81303000 -17.74810000 413.59299000 -0.35274601 -0.93093699 0.09448390 1.905766e-42
3.58574010 -17.90679900 413.86200000 -0.33321801 -0.93733603 0.10181500 1.905766e-42
5.20293000 -18.44710000 414.43900000 -0.31232300 -0.94349402 0.11078800 1.905766e-42
6.93764020 -18.83200100 414.72601000 -0.29091799 -0.94942802 0.11812400 1.905766e-42
8.58516030 -19.34680000 415.23700000 -0.26882800 -0.95485502 0.12642699 1.905766e-42
10.04570000 -19.93619900 416.10800000 -0.24730800 -0.95933402 0.13607600 1.905766e-42
11.55510000 -20.22570000 417.04501000 -0.22567300 -0.96319801 0.14601800 1.905766e-42
13.23710000 -20.52710000 417.61099000 -0.20271499 -0.96707398 0.15386599 1.905766e-42
14.85210000 -20.72250000 418.38101000 -0.17859299 -0.97037500 0.16271999 1.905766e-42
16.64500000 -20.88130000 418.39200000 -0.15173100 -0.97390598 0.16877700 1.905766e-42
18.44230100 -20.78240000 418.38699000 -0.12349300 -0.97651798 0.17652901 1.905766e-42
19.88439900 -21.10240000 419.41501000 -0.09373650 -0.97768003 0.18803200 1.905766e-42
21.59890000 -21.09770000 419.96399000 -0.05988670 -0.97821403 0.19877499 1.905766e-42
23.38979900 -21.02790100 420.13000000 -0.02455410 -0.97766399 0.20873301 1.905766e-42
24.99210000 -20.95000100 420.94601000 0.01207550 -0.97575998 0.21850900 1.905766e-42
26.71190100 -20.78650100 421.45200000 0.05064370 -0.97263199 0.22676501 1.905766e-42
28.47440000 -20.60510100 421.76901000 0.08487630 -0.96849197 0.23413600 1.905766e-42
30.15119900 -20.34849900 422.37100000 0.11036400 -0.96454197 0.23974501 1.905766e-42
31.91050000 -19.96950000 422.40701000 0.13584501 -0.95959800 0.24641000 1.905766e-42
33.51760100 -19.71080000 423.17499000 0.16246800 -0.95549500 0.24623799 1.905766e-42
35.26470200 -19.29130000 423.06699000 0.18972000 -0.94900000 0.25180399 1.905766e-42
36.74620100 -18.86420100 423.99600000 0.21656600 -0.94543099 0.24343000 1.905766e-42
38.46080000 -18.31710100 424.02399000 0.24634500 -0.93798202 0.24393500 1.905766e-42
39.99910000 -17.76919900 424.78201000 0.27896601 -0.92525798 0.25705400 1.905766e-42
41.67310000 -17.10829900 424.80600000 0.31033999 -0.91218001 0.26761299 1.905766e-42
43.11610000 -16.39160000 425.60800000 0.33615601 -0.89848697 0.28234899 1.905766e-42
44.72810000 -15.61080000 425.78601000 0.36057699 -0.88566500 0.29254499 1.905766e-42
46.24399900 -14.92950000 426.47800000 0.38440299 -0.87222099 0.30243099 1.905766e-42
47.75099900 -14.03350000 426.88501000 0.40761501 -0.85899699 0.30979800 1.905766e-42
49.17100100 -13.01100000 427.30701000 0.42997101 -0.84588897 0.31558999 1.905766e-42
50.50709900 -11.89020000 427.75299000 0.45142600 -0.83298099 0.31993300 1.905766e-42
51.79499800 -11.17840000 428.79001000 0.46953699 -0.82144499 0.32367101 1.905766e-42
53.26359900 -10.15460000 428.97699000 0.49046800 -0.80865800 0.32482699 1.905766e-42
54.55740000 -9.14945980 429.72198000 0.51017201 -0.79333597 0.33217800 1.905766e-42
55.69430200 -7.97831010 430.48099000 0.52921301 -0.77680802 0.34132501 1.905766e-42
57.05149800 -6.80765010 430.64700000 0.54922700 -0.76059699 0.34618101 1.905766e-42
58.18380000 -5.70152000 431.50400000 0.56628001 -0.74399501 0.35468000 1.905766e-42
59.33980200 -4.45826010 432.10300000 0.58381897 -0.72696197 0.36149800 1.905766e-42
60.48830000 -3.20722010 432.69901000 0.60086900 -0.70976698 0.36767799 1.905766e-42
61.55020100 -1.76764000 432.89899000 0.61795503 -0.69256198 0.37214199 1.905766e-42
62.63700100 -0.57208502 433.69199000 0.63345999 -0.67542100 0.37753701 1.905766e-42
63.69269900 0.71165198 434.38400000 0.64942098 -0.65474200 0.38673601 1.905766e-42
64.58400000 2.02368000 435.23499000 0.66344398 -0.63508201 0.39561799 1.905766e-42
65.58609800 3.51425000 435.35300000 0.67853701 -0.61619401 0.39986500 1.905766e-42
66.46170000 4.88555000 436.12299000 0.69079000 -0.59833002 0.40596801 1.905766e-42
67.37120100 6.24649000 436.87100000 0.70202702 -0.58171099 0.41081601 1.905766e-42
68.21939800 7.70743990 437.49301000 0.71254802 -0.56625801 0.41428000 1.905766e-42
68.89499700 9.08565040 438.43301000 0.72006398 -0.55332202 0.41874000 1.905766e-42
69.58670000 10.72840000 438.68399000 0.72971302 -0.53767300 0.42240700 1.905766e-42
70.33329800 12.18330000 439.43600000 0.73687702 -0.52017599 0.43177399 1.905766e-42
70.96869700 13.78040000 439.97000000 0.74365199 -0.50352699 0.43982100 1.905766e-42
71.80180400 15.37400000 440.05099000 0.75159401 -0.48890001 0.44281301 1.905766e-42
72.50830100 16.84110100 440.81799000 0.75511402 -0.47487000 0.45199600 1.905766e-42
73.19470200 18.49970100 440.95200000 0.76006401 -0.46331099 0.45568201 1.905766e-42
73.87950100 20.08149900 441.47101000 0.76130700 -0.45307401 0.46382701 1.905766e-42
73.47480000 20.35670100 443.20300000 0.75217700 -0.44543901 0.48560700 1.905766e-42
72.66480300 20.87599900 444.72400000 0.74188501 -0.44155201 0.50461602 1.905766e-42
71.97720300 21.79630100 446.10999000 0.73269099 -0.43695399 0.52176201 1.905766e-42
71.15339700 22.04509900 447.69101000 0.72207099 -0.43271601 0.53978699 1.905766e-42
70.15740200 22.01540000 449.19000000 0.71131003 -0.42903101 0.55675000 1.905766e-42
69.44629700 22.96270000 450.54501000 0.70230001 -0.42177001 0.57348502 1.905766e-42
68.48899800 23.40259900 452.00500000 0.69197702 -0.41534200 0.59047300 1.905766e-42
67.56790200 24.17499900 453.34399000 0.68227601 -0.40725499 0.60715997 1.905766e-42
66.63050100 24.51630000 454.84299000 0.67189401 -0.40070501 0.62289202 1.905766e-42
65.79709600 25.48440000 456.11099000 0.66270602 -0.39379299 0.63698298 1.905766e-42
64.97589900 26.22160000 457.53299000 0.65239501 -0.38647401 0.65193403 1.905766e-42
64.05719800 26.75700000 458.98499000 0.64084399 -0.37896600 0.66760999 1.905766e-42
63.41410100 27.86720100 460.24799000 0.62996900 -0.36882800 0.68345100 1.905766e-42
62.51240200 28.73930000 461.53900000 0.61636502 -0.35831901 0.70121402 1.905766e-42
61.50550100 29.14959900 462.97299000 0.59989703 -0.34821001 0.72032899 1.905766e-42
60.35960000 30.05780000 464.02301000 0.58439499 -0.33472300 0.73921800 1.905766e-42
59.21580100 30.86610000 465.15399000 0.57052499 -0.33411500 0.75024498 1.905766e-42
57.93940000 31.42450000 466.29300000 0.55843002 -0.33658800 0.75819802 1.905766e-42
56.80310100 32.30709800 467.37500000 0.54799998 -0.34024200 0.76415402 1.905766e-42
