# .PCD v0.7 - Point Cloud Data file format
# 3 250 0
# 1 165 0
# 166 191 0
# 192 250 0
VERSION 0.7
FIELDS x y z normal_x normal_y normal_z curvature
SIZE 4 4 4 4 4 4 4
TYPE F F F F F F F
COUNT 1 1 1 1 1 1 1
WIDTH 250
HEIGHT 1
VIEWPOINT 0 0 0 1 0 0 0
POINTS 250
DATA ascii
107.38400000 16.31600000 420.79001000 0.56206697 -0.64521801 0.51747000 1.905766e-42
107.84600000 17.61650100 421.94601000 0.56103700 -0.64406198 0.52002001 1.905766e-42
106.88600000 18.12019900 423.38300000 0.55848402 -0.64156199 0.52582598 1.905766e-42
105.83800000 18.11430000 424.84601000 0.55342197 -0.64125001 0.53152901 1.905766e-42
104.89800000 18.43490000 426.34799000 0.54816800 -0.64059502 0.53772599 1.905766e-42
104.25900000 19.13820100 427.87601000 0.54424298 -0.63819301 0.54452699 1.905766e-42
103.29800000 19.74169900 429.27301000 0.53204101 -0.63003898 0.56567001 1.905766e-42
102.11700000 19.89830000 430.62201000 0.52011901 -0.62323397 0.58399898 1.905766e-42
101.26300000 20.57939900 432.05301000 0.51020402 -0.61394501 0.60229802 1.905766e-42
100.05600000 20.84590000 433.36200000 0.50000602 -0.60682797 0.61786199 1.905766e-42
99.11789700 21.55480000 434.72501000 0.49105501 -0.59786701 0.63357699 1.905766e-42
98.13900000 22.31279900 436.03101000 0.48232499 -0.58919400 0.64823902 1.905766e-42
96.85990100 22.46690000 437.28799000 0.47292501 -0.58318102 0.66048598 1.905766e-42
95.77680200 23.06629900 438.59500000 0.46391901 -0.57556599 0.67342699 1.905766e-42
94.68299900 23.82700000 439.80600000 0.45611599 -0.56957901 0.68376702 1.905766e-42
93.68119800 24.70159900 441.01901000 0.45298800 -0.56889999 0.68640703 1.905766e-42
92.51860000 25.10590000 442.33200000 0.44929099 -0.56870902 0.68899101 1.905766e-42
91.46920000 25.95940000 443.51999000 0.44663399 -0.56776500 0.69149202 1.905766e-42
90.36959800 26.70450000 444.73401000 0.44395900 -0.56688797 0.69392997 1.905766e-42
89.16600000 27.20890000 445.97400000 0.44097301 -0.56639302 0.69623399 1.905766e-42
88.05560300 28.04310000 447.11899000 0.43860599 -0.56538302 0.69854701 1.905766e-42
86.73079700 28.24970100 448.32001000 0.43503401 -0.56560701 0.70059597 1.905766e-42
85.57119800 28.98100100 449.48599000 0.43223199 -0.56495601 0.70285201 1.905766e-42
84.26730300 29.38800000 450.65900000 0.42835799 -0.56518102 0.70503902 1.905766e-42
82.94719700 29.74280000 451.82999000 0.42316499 -0.56501102 0.70830399 1.905766e-42
81.67250100 30.30800100 452.96799000 0.41675800 -0.56381500 0.71303898 1.905766e-42
80.30979900 30.54649900 454.12000000 0.40854099 -0.56368202 0.71788400 1.905766e-42
79.07959700 31.32200100 455.17999000 0.40088999 -0.56256598 0.72305399 1.905766e-42
77.68599700 31.11560100 456.30099000 0.38996500 -0.56392699 0.72795200 1.905766e-42
76.42530100 31.83840000 457.36301000 0.38042000 -0.56338203 0.73340398 1.905766e-42
75.25240300 32.71649900 458.40799000 0.37113199 -0.56255102 0.73878098 1.905766e-42
73.88749700 32.81679900 459.57800000 0.35810700 -0.56380498 0.74423301 1.905766e-42
72.51020100 33.02679800 460.71701000 0.34432301 -0.56511700 0.74972200 1.905766e-42
71.11850000 33.39090000 461.79901000 0.32997799 -0.56640500 0.75518203 1.905766e-42
69.94239800 34.44240200 462.66599000 0.31870601 -0.56532699 0.76081002 1.905766e-42
68.61550100 35.11470000 463.67999000 0.30135301 -0.56129098 0.77080399 1.905766e-42
67.18930100 35.35730000 464.75101000 0.28218901 -0.55919302 0.77953398 1.905766e-42
66.41149900 36.80040000 465.49399000 0.27372399 -0.55050099 0.78868502 1.905766e-42
65.27500200 37.89410000 466.36099000 0.26093301 -0.54302502 0.79814702 1.905766e-42
63.94950100 38.60979800 467.34601000 0.24847700 -0.53562200 0.80707401 1.905766e-42
62.96880000 39.91590100 468.10300000 0.23996601 -0.52514797 0.81647801 1.905766e-42
61.60549900 40.43539800 469.15701000 0.23303799 -0.51507300 0.82485902 1.905766e-42
60.53739900 41.62390100 469.98599000 0.22610199 -0.50313598 0.83410603 1.905766e-42
59.19030000 42.34209800 470.94000000 0.22074699 -0.49174500 0.84229302 1.905766e-42
58.03580100 43.41930000 471.80399000 0.21901201 -0.48382300 0.84731799 1.905766e-42
56.79209900 44.43610000 472.61600000 0.22047301 -0.48151901 0.84825200 1.905766e-42
55.33850100 45.08050200 473.45901000 0.22114401 -0.47974601 0.84908098 1.905766e-42
53.84009900 45.65430100 474.27499000 0.22089601 -0.47791201 0.85017997 1.905766e-42
52.26879900 46.02730200 475.07001000 0.21985701 -0.47600800 0.85151601 1.905766e-42
50.74290100 46.66420000 475.78201000 0.21783100 -0.47368899 0.85332799 1.905766e-42
49.21279900 47.29589800 476.48901000 0.21496899 -0.47113299 0.85546601 1.905766e-42
47.66339900 47.95840100 477.12100000 0.21132900 -0.46831501 0.85791701 1.905766e-42
46.00009900 48.13489900 477.78601000 0.20759501 -0.46510601 0.86057001 1.905766e-42
44.26030000 48.17739900 478.24600000 0.20383900 -0.46148601 0.86341202 1.905766e-42
42.82230000 48.97880200 478.97400000 0.19828200 -0.45773301 0.86669701 1.905766e-42
41.21550000 49.52399800 479.57501000 0.19289701 -0.45389900 0.86992300 1.905766e-42
39.57000000 49.90470100 480.19699000 0.18707700 -0.44941700 0.87351400 1.905766e-42
37.93249900 50.31700100 480.82001000 0.18034101 -0.44438401 0.87749702 1.905766e-42
36.24739800 50.71070100 481.31601000 0.17279799 -0.43862599 0.88190001 1.905766e-42
34.71110200 51.47700100 481.85699000 0.15573899 -0.43717900 0.88578802 1.905766e-42
32.99010100 51.75280000 482.30600000 0.13333499 -0.43745199 0.88930202 1.905766e-42
31.29789900 52.19770100 482.72900000 0.11084900 -0.43634301 0.89292598 1.905766e-42
29.61260000 52.67820000 483.14001000 0.08813520 -0.43424201 0.89647400 1.905766e-42
27.93170000 53.09880100 483.62701000 0.06543050 -0.43135199 0.89980799 1.905766e-42
26.25950100 53.65549900 483.99301000 0.04328410 -0.42745700 0.90299898 1.905766e-42
24.52510100 54.05250200 484.26599000 0.02135970 -0.42353401 0.90562898 1.905766e-42
22.73460000 54.20349900 484.37201000 0.00036255 -0.42038000 0.90734798 1.905766e-42
21.27980000 55.17590000 484.79401000 -0.01491050 -0.41890699 0.90790701 1.905766e-42
19.64620000 55.86629900 485.10199000 -0.03188060 -0.41775200 0.90800202 1.905766e-42
17.86560100 56.13000100 485.10800000 -0.05004420 -0.41563299 0.90815401 1.905766e-42
16.25970100 56.91330000 485.32501000 -0.06748590 -0.41246000 0.90847200 1.905766e-42
14.66880000 57.74470100 485.45901000 -0.08846060 -0.40946099 0.90802902 1.905766e-42
13.02850000 58.47409800 485.59100000 -0.11134300 -0.40560701 0.90724099 1.905766e-42
11.32480000 59.05440100 485.61499000 -0.13537499 -0.40057901 0.90620601 1.905766e-42
9.69431970 59.81679900 485.59799000 -0.15947799 -0.39459899 0.90490800 1.905766e-42
7.93967010 60.21830000 485.59601000 -0.18403400 -0.38734800 0.90337902 1.905766e-42
7.69648980 59.99309900 485.46500000 -0.18633100 -0.38644099 0.90329599 1.905766e-42
5.93075990 60.10789900 485.13501000 -0.20963199 -0.37825400 0.90165299 1.905766e-42
4.46596000 61.15160000 485.06601000 -0.23321100 -0.36956799 0.89946198 1.905766e-42
2.84695010 61.85189800 484.70700000 -0.25738701 -0.35945901 0.89696199 1.905766e-42
1.06464000 61.75260200 484.47601000 -0.27838001 -0.34906799 0.89479399 1.905766e-42
-0.51826298 62.45819900 483.98901000 -0.30160499 -0.33733401 0.89176202 1.905766e-42
-2.25931000 62.39899800 483.53601000 -0.32348999 -0.32651299 0.88811201 1.905766e-42
-3.92951990 62.86399800 483.05301000 -0.35261899 -0.31613600 0.88074797 1.905766e-42
-5.60593990 62.88819900 482.39801000 -0.37893099 -0.30736199 0.87289202 1.905766e-42
-7.26466990 63.06930200 481.72198000 -0.40431601 -0.29846001 0.86455202 1.905766e-42
-8.92868040 63.16120100 481.04199000 -0.42770699 -0.29074401 0.85588199 1.905766e-42
-10.45320000 62.89680100 480.12299000 -0.44776699 -0.28697601 0.84684700 1.905766e-42
-12.04420000 62.88919800 479.28101000 -0.46784699 -0.28289199 0.83731198 1.905766e-42
-13.51980000 62.78879900 478.25500000 -0.48621401 -0.28163600 0.82721102 1.905766e-42
-14.98160000 62.32410000 477.31299000 -0.50281298 -0.28493899 0.81608099 1.905766e-42
-16.17890000 61.42660100 476.31201000 -0.51279998 -0.29266101 0.80708498 1.905766e-42
-17.70070100 61.58070000 475.36301000 -0.52272201 -0.29242599 0.80078000 1.905766e-42
-19.03170000 60.91910200 474.34799000 -0.53166199 -0.29991099 0.79207897 1.905766e-42
-19.94100000 59.91180000 473.16599000 -0.53997600 -0.31126201 0.78201199 1.905766e-42
-20.72060000 58.66799900 472.12399000 -0.54812902 -0.32420200 0.77100402 1.905766e-42
-21.88740000 57.94680000 470.95801000 -0.55901301 -0.33435401 0.75875700 1.905766e-42
-22.82819900 57.06169900 469.70499000 -0.56989300 -0.34606701 0.74529201 1.905766e-42
-23.57630000 55.86640200 468.58600000 -0.58011502 -0.35893700 0.73118401 1.905766e-42
-24.20649900 54.64500000 467.42401000 -0.59034699 -0.37159899 0.71652299 1.905766e-42
-24.59289900 53.31010100 466.28000000 -0.59382898 -0.38354900 0.70728898 1.905766e-42
-24.24040000 51.58210000 465.91901000 -0.59395498 -0.39453301 0.70111400 1.905766e-42
-24.81100100 50.33290100 464.75601000 -0.59424597 -0.40510699 0.69480902 1.905766e-42
-24.70340000 48.73920100 463.92599000 -0.59368998 -0.41677201 0.68835598 1.905766e-42
-24.61039900 47.15840100 463.07001000 -0.59263599 -0.42870799 0.68190300 1.905766e-42
-24.51210000 45.60319900 462.16901000 -0.59112102 -0.44104701 0.67531699 1.905766e-42
-24.70560100 44.29489900 460.94800000 -0.59037399 -0.45282900 0.66813499 1.905766e-42
-24.21820100 42.66350200 460.36401000 -0.58676398 -0.46652600 0.66186202 1.905766e-42
-24.40620000 41.37699900 459.12000000 -0.58614999 -0.47833899 0.65392601 1.905766e-42
-24.03019900 39.76480100 458.41299000 -0.58305299 -0.49130201 0.64704800 1.905766e-42
-23.82819900 38.37329900 457.28900000 -0.58139402 -0.50351399 0.63910401 1.905766e-42
-23.52360000 36.86270100 456.35901000 -0.57898098 -0.51566303 0.63156402 1.905766e-42
-23.21550000 35.40739800 455.34500000 -0.57677901 -0.52733898 0.62389100 1.905766e-42
-22.74169900 34.04309800 454.27100000 -0.57421100 -0.53862000 0.61657900 1.905766e-42
-22.28150000 32.48650000 453.49301000 -0.57060599 -0.54967999 0.61013103 1.905766e-42
-21.82169900 30.90600000 452.76501000 -0.56663299 -0.56035697 0.60409200 1.905766e-42
-21.28990000 29.46680100 451.82300000 -0.56290299 -0.57064402 0.59791797 1.905766e-42
-20.66810000 27.93370100 451.11401000 -0.55640799 -0.58398199 0.59108001 1.905766e-42
-19.93040100 26.49690100 450.32001000 -0.54898900 -0.59904498 0.58288598 1.905766e-42
-19.15280000 25.05010000 449.58301000 -0.54114997 -0.61404800 0.57454401 1.905766e-42
-18.35059900 23.61980100 448.84100000 -0.53315097 -0.62895799 0.56582898 1.905766e-42
-17.27450000 22.22209900 448.48300000 -0.52270502 -0.64285398 0.55992699 1.905766e-42
-16.66320000 20.86660000 447.46899000 -0.51644200 -0.65752101 0.54859298 1.905766e-42
-16.74589900 19.77080000 446.04300000 -0.51615202 -0.67002398 0.53353101 1.905766e-42
-16.79040000 18.67650000 444.61401000 -0.51552403 -0.68260598 0.51796001 1.905766e-42
-16.62640000 17.54820100 443.22198000 -0.51326603 -0.69576699 0.50246000 1.905766e-42
-16.81940100 16.60409900 441.70099000 -0.51388001 -0.70703000 0.48583499 1.905766e-42
-16.90010100 15.65140000 440.17599000 -0.51531798 -0.71560299 0.47154999 1.905766e-42
-17.23160000 14.86580000 438.59100000 -0.51889902 -0.72259003 0.45673701 1.905766e-42
-17.61580100 14.25180000 436.94299000 -0.52313799 -0.72904098 0.44139200 1.905766e-42
-16.88310100 13.04630000 435.82501000 -0.51919901 -0.73836601 0.43040499 1.905766e-42
-16.80640000 12.14010000 434.27200000 -0.52037698 -0.74637198 0.41489300 1.905766e-42
-16.51180100 11.17050000 432.78400000 -0.52071202 -0.75465202 0.39919800 1.905766e-42
-16.00519900 10.12930000 431.40601000 -0.52026498 -0.76281297 0.38397899 1.905766e-42
-15.98150000 9.34193990 429.78799000 -0.52318501 -0.77002501 0.36515701 1.905766e-42
-15.96810000 8.70481970 428.10400000 -0.52652401 -0.77692503 0.34519601 1.905766e-42
-15.44060000 7.62863020 426.76099000 -0.52718103 -0.78385299 0.32810900 1.905766e-42
-14.84450000 6.63873000 425.38101000 -0.52723300 -0.79136902 0.30945101 1.905766e-42
-14.66380000 5.91533990 423.74301000 -0.52876800 -0.79901898 0.28630900 1.905766e-42
-14.03570000 4.98766990 422.33401000 -0.52789497 -0.80647999 0.26630199 1.905766e-42
-14.39360000 4.77400020 420.58301000 -0.53192598 -0.81146401 0.24203400 1.905766e-42
-14.04230000 4.11331990 418.94601000 -0.53268600 -0.81744599 0.21915200 1.905766e-42
-13.40910000 3.30336000 417.46799000 -0.53212500 -0.82305402 0.19855499 1.905766e-42
-12.94700000 2.52554990 415.91199000 -0.53218699 -0.82794398 0.17688000 1.905766e-42
-12.39630000 1.86138000 414.33200000 -0.53217602 -0.83224601 0.15542001 1.905766e-42
-12.06020000 1.36852000 412.63400000 -0.53327698 -0.83552200 0.13236199 1.905766e-42
-11.74110000 1.27771000 410.86499000 -0.53511000 -0.83775502 0.10873800 1.905766e-42
-11.07810000 0.33948001 409.47900000 -0.53403401 -0.84062499 0.09031630 1.905766e-42
-10.61030000 -0.07193720 407.79001000 -0.53421700 -0.84265298 0.06744280 1.905766e-42
-10.20450000 -0.09446360 406.03699000 -0.53531802 -0.84350002 0.04407510 1.905766e-42
-9.67395020 -0.81943899 404.47699000 -0.53451997 -0.84481102 0.02413640 1.905766e-42
-8.87520980 -1.42308000 402.98099000 -0.53294301 -0.84612900 0.00605689 1.905766e-42
-8.28518010 -1.78240000 401.31900000 -0.53259099 -0.84625697 -0.01396090 1.905766e-42
-7.45542000 -2.32982990 399.81799000 -0.53077900 -0.84695101 -0.03078710 1.905766e-42
-6.77885010 -2.68704010 398.18900000 -0.52991700 -0.84663397 -0.04898170 1.905766e-42
-5.94402980 -3.10796000 396.65100000 -0.52815598 -0.84664297 -0.06516860 1.905766e-42
-5.38311000 -3.13137010 394.94101000 -0.52833802 -0.84489101 -0.08376680 1.905766e-42
-4.85237980 -3.43142010 393.24701000 -0.52786797 -0.84329498 -0.10104200 1.905766e-42
-4.75912000 -3.24930000 391.45901000 -0.52926397 -0.83987802 -0.12035300 1.905766e-42
-4.69152020 -3.01360990 389.67599000 -0.53026003 -0.83640701 -0.13873300 1.905766e-42
-4.65539980 -2.77756000 387.89200000 -0.53089499 -0.83295101 -0.15602100 1.905766e-42
-4.59433980 -2.44499990 386.12399000 -0.53128499 -0.82951897 -0.17214800 1.905766e-42
-4.81624980 -1.94212000 384.41000000 -0.53296101 -0.82527298 -0.18675201 1.905766e-42
-4.50387000 -1.83894000 382.64001000 -0.53132701 -0.82323903 -0.19992600 1.905766e-42
-4.57086990 -1.38938000 380.89801000 -0.53215498 -0.81977898 -0.21159901 1.905766e-42
-4.25311990 -1.11029990 379.14899000 -0.52699202 -0.82143700 -0.21799199 1.905766e-42
-2.69124010 -1.71183000 378.48599000 -0.51827401 -0.82526100 -0.22435901 1.905766e-42
-1.19174000 -2.67312000 378.74600000 -0.50378400 -0.83394998 -0.22522999 1.905766e-42
0.16420700 -3.76594000 379.20099000 -0.48788100 -0.84323400 -0.22567201 1.905766e-42
1.75046000 -4.61619000 379.23099000 -0.46851301 -0.85301000 -0.22993200 1.905766e-42
3.31609990 -5.49546000 379.35599000 -0.44914699 -0.86235702 -0.23368300 1.905766e-42
4.77062990 -6.37240980 379.95200000 -0.43542701 -0.87015098 -0.23073900 1.905766e-42
6.38706020 -7.16350980 379.98801000 -0.42227200 -0.87715101 -0.22867300 1.905766e-42
7.86203000 -7.97024010 380.63101000 -0.41018501 -0.88419503 -0.22348900 1.905766e-42
9.54327960 -8.36730960 380.12601000 -0.39954001 -0.88907099 -0.22342899 1.905766e-42
10.84380000 -9.43019010 380.77301000 -0.38794699 -0.89582598 -0.21677800 1.905766e-42
12.49370000 -10.13490000 380.91800000 -0.37553301 -0.90212899 -0.21245600 1.905766e-42
14.10450000 -10.87000000 381.24200000 -0.36229599 -0.90885299 -0.20670800 1.905766e-42
15.72300000 -11.55390000 381.63300000 -0.34791300 -0.91590297 -0.20019700 1.905766e-42
17.37579900 -12.16700000 381.99701000 -0.32668599 -0.92585701 -0.18990800 1.905766e-42
19.02990000 -12.76890000 382.37299000 -0.29881099 -0.93788600 -0.17630100 1.905766e-42
20.78300100 -13.17630000 382.40100000 -0.27166399 -0.94766903 -0.16769899 1.905766e-42
22.48220100 -13.65920000 382.74701000 -0.24428301 -0.95698798 -0.15652600 1.905766e-42
24.12500000 -14.28240000 383.13800000 -0.21871500 -0.96490598 -0.14532700 1.905766e-42
25.87439900 -14.69830000 383.21899000 -0.19602101 -0.97080302 -0.13826700 1.905766e-42
27.63960100 -15.04280000 383.29300000 -0.17669800 -0.97541797 -0.13167500 1.905766e-42
29.40560000 -15.35420000 383.44800000 -0.16130701 -0.97906399 -0.12415400 1.905766e-42
31.06370000 -15.79120000 383.99600000 -0.14969400 -0.98242998 -0.11145900 1.905766e-42
32.84149900 -16.07320000 384.00500000 -0.14330800 -0.98416197 -0.10434200 1.905766e-42
34.62889900 -16.26370000 384.09900000 -0.13635500 -0.98611999 -0.09473860 1.905766e-42
36.41420000 -16.41070000 384.27499000 -0.12858000 -0.98820198 -0.08321060 1.905766e-42
37.98249800 -16.67600100 385.11801000 -0.11731100 -0.99102902 -0.06403000 1.905766e-42
38.46749900 -16.75160000 386.84900000 -0.10538000 -0.99358302 -0.04108060 1.905766e-42
39.06679900 -16.78990000 388.54599000 -0.09310410 -0.99548501 -0.01849140 1.905766e-42
39.46099900 -16.94619900 390.29599000 -0.08157400 -0.99666202 0.00314438 1.905766e-42
39.85590000 -17.00910000 392.05099000 -0.07018710 -0.99723703 0.02434180 1.905766e-42
40.79029800 -16.72380100 393.56299000 -0.05668250 -0.99736297 0.04531370 1.905766e-42
40.88410200 -17.03949900 395.33200000 -0.04721210 -0.99681199 0.06431330 1.905766e-42
41.56819900 -16.92450000 396.99301000 -0.03432120 -0.99580097 0.08487000 1.905766e-42
41.90980100 -16.71690000 398.74799000 -0.02341840 -0.99424702 0.10452200 1.905766e-42
42.82469900 -16.41890000 400.26901000 -0.01021450 -0.99226803 0.12369600 1.905766e-42
43.33710100 -16.37369900 401.99399000 0.00028841 -0.98983502 0.14221799 1.905766e-42
44.26570100 -15.99500000 403.48901000 0.01329910 -0.98695099 0.16047300 1.905766e-42
44.78189800 -15.80960000 405.20300000 0.02414760 -0.98359102 0.17878900 1.905766e-42
45.16050000 -15.50810000 406.93701000 0.03407280 -0.97980601 0.19702700 1.905766e-42
45.93960200 -15.20560000 408.53101000 0.04688280 -0.97534698 0.21563999 1.905766e-42
46.93890000 -14.75180000 409.95801000 0.06139070 -0.97027099 0.23410399 1.905766e-42
47.93199900 -14.18950000 411.35001000 0.07614880 -0.96448600 0.25292099 1.905766e-42
48.47380100 -13.91400000 413.04401000 0.08763280 -0.95806199 0.27283400 1.905766e-42
49.66210200 -13.21740000 414.20300000 0.10387000 -0.95088202 0.29160699 1.905766e-42
50.68420000 -12.47270000 415.48401000 0.11873800 -0.94227099 0.31309301 1.905766e-42
51.44459900 -12.00950000 417.04800000 0.13072900 -0.93253702 0.33657700 1.905766e-42
52.07149900 -11.66850000 418.70099000 0.14094201 -0.92251599 0.35930499 1.905766e-42
53.31969800 -10.96350000 419.78900000 0.15645701 -0.91259998 0.37773201 1.905766e-42
54.49789800 -10.18450000 420.90500000 0.17162400 -0.90204698 0.39605099 1.905766e-42
55.39699900 -9.44279000 422.27701000 0.18430300 -0.89058697 0.41579801 1.905766e-42
56.39070100 -8.62800980 423.53699000 0.19772600 -0.87888002 0.43413499 1.905766e-42
57.38959900 -7.72454020 424.73099000 0.21115901 -0.86689699 0.45155400 1.905766e-42
58.62440100 -6.77613020 425.63501000 0.22672300 -0.85532200 0.46585500 1.905766e-42
59.77209900 -5.83552980 426.65399000 0.24130000 -0.84316599 0.48046300 1.905766e-42
60.82099900 -5.04546020 427.88501000 0.25338000 -0.83102602 0.49517101 1.905766e-42
62.13840100 -4.08804990 428.65100000 0.26553899 -0.82103097 0.50536799 1.905766e-42
63.34890000 -3.12098000 429.56699000 0.27632099 -0.81010598 0.51708299 1.905766e-42
64.99340100 -2.40200000 429.70401000 0.29011899 -0.80305099 0.52051902 1.905766e-42
66.70890000 -1.91591000 429.45801000 0.30366901 -0.79876101 0.51938999 1.905766e-42
68.37760200 -1.26021000 429.29800000 0.31657100 -0.79339600 0.51990801 1.905766e-42
69.98519900 -0.57913101 428.85999000 0.32887301 -0.78950500 0.51819301 1.905766e-42
71.62180300 -0.00961708 429.34698000 0.33976600 -0.78118700 0.52374202 1.905766e-42
73.22329700 0.59297699 428.78900000 0.35115701 -0.77833802 0.52046001 1.905766e-42
74.89569900 1.25838990 428.78500000 0.36213800 -0.77219498 0.52208298 1.905766e-42
76.55200200 1.96292000 428.76300000 0.37202001 -0.76652199 0.52349299 1.905766e-42
78.21450000 2.65298010 428.76700000 0.38155800 -0.76070201 0.52511501 1.905766e-42
79.83129900 3.44397000 428.78201000 0.39089501 -0.75422299 0.52758700 1.905766e-42
81.43209800 4.26416020 428.85199000 0.40002400 -0.74708599 0.53088897 1.905766e-42
83.01129900 5.11974000 428.73300000 0.40920401 -0.74061400 0.53295702 1.905766e-42
84.46019700 5.85269020 427.95700000 0.41807300 -0.73859602 0.52885801 1.905766e-42
86.07379900 6.64802980 427.89700000 0.42692199 -0.73164803 0.53144002 1.905766e-42
87.66980000 7.48028990 427.88300000 0.43557599 -0.72400898 0.53486902 1.905766e-42
89.28050200 8.27838990 427.78900000 0.44413301 -0.71674198 0.53761202 1.905766e-42
90.86280100 9.09191040 427.51599000 0.45521501 -0.70840102 0.53939497 1.905766e-42
92.39810200 9.95707040 427.14999000 0.46855900 -0.69932097 0.53981698 1.905766e-42
93.95939600 10.85050000 427.08600000 0.48104501 -0.68961501 0.54131901 1.905766e-42
95.55010200 11.68390000 426.96201000 0.49296001 -0.68173301 0.54058403 1.905766e-42
97.04740100 12.40700000 426.27301000 0.50332898 -0.67629200 0.53785598 1.905766e-42
98.66269700 13.17720000 426.07901000 0.51307303 -0.66922802 0.53748500 1.905766e-42
100.15600000 13.82580000 425.31201000 0.52197802 -0.66444498 0.53483802 1.905766e-42
101.72000000 14.40750000 424.63501000 0.53054702 -0.65971601 0.53225398 1.905766e-42
103.13200000 14.86000000 423.61499000 0.53828597 -0.65624601 0.52876198 1.905766e-42
104.31100000 15.27490000 422.32001000 0.54529399 -0.65355700 0.52489799 1.905766e-42
105.81900000 15.70320000 421.43500000 0.55348003 -0.64947498 0.52138501 1.905766e-42
