# .PCD v0.7 - Point Cloud Data file format
# 3 44 1
# 1 12 0
# 13 26 1
# 27 44 0
VERSION 0.7
FIELDS x y z normal_x normal_y normal_z curvature
SIZE 4 4 4 4 4 4 4
TYPE F F F F F F F
COUNT 1 1 1 1 1 1 1
WIDTH 44
HEIGHT 1
VIEWPOINT 0 0 0 1 0 0 0
POINTS 44
DATA ascii
11.89550000 0.91327500 437.59900000 0.07797100 0.80198503 -0.59223402 1.905766e-42
10.79690000 3.10491990 439.98801000 -0.00285851 0.73976398 -0.67286003 1.905766e-42
10.94520000 4.36112020 441.26901000 -0.00496580 0.75386697 -0.65700901 1.905766e-42
10.27570000 5.46451000 442.52301000 -0.00943629 0.76445597 -0.64460701 1.905766e-42
9.98246000 6.51596020 443.95499000 -0.02658440 0.80162197 -0.59723997 1.905766e-42
8.58106040 7.06528000 444.94199000 -0.09950980 0.83523202 -0.54081899 1.905766e-42
8.77124980 8.03730960 446.44501000 -0.13119701 0.88573003 -0.44527599 1.905766e-42
8.57359030 8.77760980 448.07300000 -0.14540400 0.90179598 -0.40696701 1.905766e-42
7.86626010 9.38414960 449.61301000 -0.14571600 0.89371097 -0.42432100 1.905766e-42
7.09394980 10.16350000 451.04001000 -0.04837850 0.80414897 -0.59245503 1.905766e-42
7.15236000 11.29910000 452.43600000 0.04340700 0.65147501 -0.75742698 1.905766e-42
7.87845990 12.62570000 453.41199000 0.04084170 0.56925702 -0.82114398 1.905766e-42
9.09348010 13.72400000 454.15900000 0.06548920 0.55313200 -0.83051598 1.905766e-42
10.50680000 14.34210000 455.08600000 0.11596300 0.57660699 -0.80874997 1.905766e-42
12.05140000 13.61260000 454.51901000 0.16113999 0.56644100 -0.80819499 1.905766e-42
13.64840000 14.08940000 455.19901000 0.24066800 0.59712601 -0.76519197 1.905766e-42
15.33320000 13.45580000 455.19501000 0.25492501 0.63611299 -0.72826701 1.905766e-42
17.03280100 12.86310000 455.19901000 0.21093599 0.74496299 -0.63287902 1.905766e-42
18.75470000 12.33890000 455.22101000 0.17097400 0.82286900 -0.54189903 1.905766e-42
20.53710000 12.12200000 455.34698000 0.16223800 0.85821098 -0.48698300 1.905766e-42
22.21340000 12.03680000 455.99701000 0.18716399 0.87570602 -0.44509399 1.905766e-42
23.97440000 11.66450000 456.00400000 0.19015700 0.89470798 -0.40415099 1.905766e-42
25.71920000 11.29360000 456.24600000 0.20482600 0.91213399 -0.35504699 1.905766e-42
27.20080000 11.13620000 457.25601000 0.24672399 0.92272002 -0.29616600 1.905766e-42
28.92980000 10.85150000 456.84399000 0.27552301 0.92611200 -0.25768799 1.905766e-42
30.55180000 10.28490000 457.38000000 0.30939099 0.92623001 -0.21534701 1.905766e-42
32.17789800 9.53258990 457.20700000 0.28849399 0.93390900 -0.21115200 1.905766e-42
32.79499800 9.23665050 455.54300000 0.25593299 0.89382499 -0.36820701 1.905766e-42
32.97760000 8.15618040 454.11499000 0.28118700 0.82738799 -0.48617101 1.905766e-42
31.46299900 8.35171030 453.16199000 0.33953601 0.80650699 -0.48400500 1.905766e-42
30.24720000 8.13599970 451.85199000 0.36759999 0.80197901 -0.47084999 1.905766e-42
29.47460000 7.49850990 450.35699000 0.37272599 0.78121799 -0.50077403 1.905766e-42
28.19540000 7.30123000 449.10599000 0.35116100 0.76968402 -0.53317201 1.905766e-42
26.86240000 7.03050990 447.92700000 0.28209701 0.75711900 -0.58923101 1.905766e-42
25.63880000 6.38486000 446.77499000 0.23673201 0.73755401 -0.63243401 1.905766e-42
24.09499900 6.25754020 445.85901000 0.21732301 0.74838603 -0.62664998 1.905766e-42
22.92980000 5.60569000 444.65100000 0.21155600 0.74911499 -0.62774998 1.905766e-42
21.75090000 4.87762020 443.50201000 0.19531000 0.74647701 -0.63610202 1.905766e-42
20.52129900 4.19504020 442.37900000 0.17788000 0.73618901 -0.65298200 1.905766e-42
19.00300000 3.80444000 441.49399000 0.15683500 0.72966701 -0.66557401 1.905766e-42
17.87649900 2.95458010 440.37701000 0.14277001 0.71177799 -0.68774199 1.905766e-42
16.49690100 2.27214000 439.44400000 0.11595100 0.69727200 -0.70736599 1.905766e-42
15.07800000 1.58079000 438.57800000 0.08371930 0.68868297 -0.72021300 1.905766e-42
13.68880000 0.82032001 437.72299000 0.07230820 0.69859600 -0.71185398 1.905766e-42
