# .PCD v0.7 - Point Cloud Data file format
# 4 219 -2
# 1 57 0
# 58 111 0
# 112 149 0
# 150 219 0
VERSION 0.7
FIELDS x y z normal_x normal_y normal_z curvature
SIZE 4 4 4 4 4 4 4
TYPE F F F F F F F
COUNT 1 1 1 1 1 1 1
WIDTH 219
HEIGHT 1
VIEWPOINT 0 0 0 1 0 0 0
POINTS 219
DATA ascii
28.32630000 48.29510100 443.90701000 -0.58662200 0.63345599 0.50458801 1.905766e-42
26.81349900 47.36000100 443.63000000 -0.55464298 0.64439398 0.52642900 1.905766e-42
25.35050000 46.57910200 442.92999000 -0.52657503 0.65271503 0.54468501 1.905766e-42
24.07869900 45.32889900 443.17300000 -0.51205301 0.64130402 0.57142800 1.905766e-42
22.69809900 44.18750000 442.99701000 -0.49399599 0.63586801 0.59299201 1.905766e-42
21.30559900 43.23370000 442.37100000 -0.47002399 0.63848299 0.60944003 1.905766e-42
20.09880100 42.11880100 443.10599000 -0.45084101 0.62872201 0.63360101 1.905766e-42
18.60850000 41.21260100 442.66101000 -0.40650499 0.64096200 0.65109301 1.905766e-42
17.24280000 40.15380100 443.16501000 -0.36136299 0.64082098 0.67732197 1.905766e-42
15.70120000 39.22499800 443.19601000 -0.32575700 0.63184798 0.70331401 1.905766e-42
14.16170000 38.29240000 443.19800000 -0.30092499 0.61667800 0.72742802 1.905766e-42
12.54370000 37.50379900 443.19000000 -0.28425199 0.59871101 0.74882901 1.905766e-42
10.97930000 36.61340000 443.19101000 -0.27709401 0.57683903 0.76842397 1.905766e-42
9.43021010 35.71950100 443.39499000 -0.27789101 0.55269498 0.78568798 1.905766e-42
7.81691980 34.94739900 443.19199000 -0.26262000 0.54646099 0.79524302 1.905766e-42
6.26186990 34.04110000 443.21301000 -0.23431399 0.55377603 0.79901701 1.905766e-42
4.89172980 33.16470000 443.98401000 -0.20823500 0.55867201 0.80282199 1.905766e-42
3.31389000 32.30730100 444.10699000 -0.18355300 0.56176502 0.80667698 1.905766e-42
1.95770000 31.32749900 444.77100000 -0.16007300 0.56321198 0.81065899 1.905766e-42
0.19014500 31.15110000 444.48001000 -0.14293499 0.56337899 0.81374002 1.905766e-42
-1.45918000 30.49189900 444.77200000 -0.12333500 0.56235200 0.81764799 1.905766e-42
-3.21248010 30.09660000 444.87100000 -0.11025100 0.55870497 0.82200497 1.905766e-42
-4.78362990 29.50740100 445.52200000 -0.09505210 0.55724198 0.82489198 1.905766e-42
-6.58139990 29.45630100 445.44800000 -0.08188590 0.55749702 0.82613099 1.905766e-42
-8.25125030 28.99710100 445.93900000 -0.06499420 0.55914599 0.82651800 1.905766e-42
-9.94221970 27.46419900 447.01300000 -0.03844140 0.56351900 0.82520801 1.905766e-42
-11.04000000 26.29340000 447.82800000 -0.01827300 0.56760502 0.82309800 1.905766e-42
-12.17760000 25.14780000 448.62399000 -0.00440081 0.56831402 0.82279998 1.905766e-42
-13.12160000 23.86820000 449.46701000 0.00803907 0.56987703 0.82169098 1.905766e-42
-14.37630000 22.81180000 450.20901000 0.02026650 0.57242298 0.81970799 1.905766e-42
-14.95370000 21.48399900 451.27802000 0.02958670 0.57520801 0.81747198 1.905766e-42
-16.06959900 20.36800000 452.14301000 0.03942410 0.57924002 0.81420302 1.905766e-42
-16.94700100 19.13880000 453.12299000 0.04741010 0.58379602 0.81051499 1.905766e-42
-17.49690100 17.82070000 454.21799000 0.05891460 0.59140801 0.80421698 1.905766e-42
-17.94020100 16.43230100 455.27499000 0.07166380 0.60015398 0.79666698 1.905766e-42
-18.73830000 15.18350000 456.29599000 0.08627170 0.61077601 0.78709000 1.905766e-42
-19.73800100 14.03300000 457.25400000 0.10164500 0.62268800 0.77583998 1.905766e-42
-20.24620100 12.69310000 458.34299000 0.11426500 0.63307500 0.76560998 1.905766e-42
-21.12560100 11.42540000 459.26999000 0.12852401 0.64554602 0.75282902 1.905766e-42
-21.87820100 10.11710000 460.25101000 0.14774300 0.65995002 0.73663998 1.905766e-42
-22.46080000 8.69917960 461.19400000 0.17854699 0.67560703 0.71531600 1.905766e-42
-23.11450000 7.48388000 462.35001000 0.21993800 0.69061702 0.68896699 1.905766e-42
-23.51759900 6.40465020 463.73300000 0.26615801 0.70105100 0.66158003 1.905766e-42
-23.90300000 5.27420000 465.07999000 0.31651500 0.70761001 0.63174897 1.905766e-42
-24.20060000 4.18639990 466.48300000 0.36559901 0.70844603 0.60369003 1.905766e-42
-24.83510000 3.12875010 467.79401000 0.41457701 0.69986302 0.58165097 1.905766e-42
-25.12410000 2.02181010 469.18301000 0.39768600 0.69875300 0.59463501 1.905766e-42
-25.60460100 0.98929900 470.57700000 0.38595900 0.69875002 0.60231501 1.905766e-42
-25.86249900 0.03838300 472.08401000 0.37314600 0.70430398 0.60391903 1.905766e-42
-26.54929900 -0.86101502 473.48401000 0.36545900 0.70976400 0.60222501 1.905766e-42
-26.63940000 -1.73045000 475.05701000 0.35385600 0.72451401 0.59149498 1.905766e-42
-27.20980100 -2.64915990 476.49600000 0.34724900 0.74053001 0.57535398 1.905766e-42
-27.39559900 -3.45148990 478.09698000 0.34265900 0.76299602 0.54810798 1.905766e-42
-27.94240000 -4.37335010 479.54300000 0.34282601 0.78896099 0.50991201 1.905766e-42
-27.95000100 -5.32852980 481.06799000 0.34499699 0.82171899 0.45360199 1.905766e-42
-28.24430100 -6.40009020 482.48401000 0.34932801 0.85846299 0.37551501 1.905766e-42
-27.73230000 -7.02646020 484.09201000 0.34665900 0.90070701 0.26182801 1.905766e-42
-26.96660000 -7.55260990 485.63400000 0.32154000 0.94449800 0.06734870 1.905766e-42
-27.09260000 -7.52311990 487.42899000 0.29491100 0.94747502 -0.12376800 1.905766e-42
-26.67790000 -7.25811000 489.16101000 0.25913101 0.92324197 -0.28368101 1.905766e-42
-27.00440000 -6.58768990 490.79901000 0.23188201 0.88904399 -0.39475501 1.905766e-42
-27.20630100 -5.80691000 492.40799000 0.20439300 0.85294199 -0.48032600 1.905766e-42
-27.28050000 -4.79754020 493.89700000 0.17807201 0.81847501 -0.54624897 1.905766e-42
-27.28500000 -3.69537000 495.32001000 0.15813500 0.80897897 -0.56616801 1.905766e-42
-26.87480000 -2.66733000 496.73901000 0.14427900 0.81609499 -0.55961800 1.905766e-42
-27.05419900 -1.58349000 498.16501000 0.13509500 0.82384002 -0.55048800 1.905766e-42
-26.48160000 -0.58424002 499.54901000 0.12858200 0.82876402 -0.54462498 1.905766e-42
-26.08309900 0.36697799 501.02399000 0.12553500 0.83428502 -0.53685200 1.905766e-42
-25.43740100 1.19419000 502.48599000 0.12531000 0.84006101 -0.52782100 1.905766e-42
-24.95770100 1.95263000 504.04700000 0.12802900 0.84676701 -0.51632702 1.905766e-42
-24.57780100 2.74854990 505.61600000 0.13373999 0.85426700 -0.50233603 1.905766e-42
-23.47090000 3.42799000 506.86200000 0.13946700 0.86089402 -0.48929599 1.905766e-42
-22.74180000 4.05108020 508.38501000 0.14681301 0.85459501 -0.49811000 1.905766e-42
-21.87170000 4.64798020 509.84399000 0.15155600 0.84800398 -0.50785798 1.905766e-42
-21.87369900 5.62359000 511.35599000 0.15618099 0.83770102 -0.52332002 1.905766e-42
-21.55160000 6.54653980 512.86798000 0.15792200 0.82745999 -0.53886002 1.905766e-42
-20.31399900 7.16417980 514.02002000 0.15632699 0.81939602 -0.55149901 1.905766e-42
-20.73200000 8.21026040 515.42401000 0.15531100 0.80746198 -0.56910801 1.905766e-42
-20.85260000 9.11137960 516.97699000 0.15155099 0.79465902 -0.58783400 1.905766e-42
-20.33190000 10.12500000 518.37000000 0.14496601 0.78013700 -0.60858101 1.905766e-42
-19.83429900 11.16750000 519.75098000 0.13762000 0.77129602 -0.62142003 1.905766e-42
-19.57670000 12.19210000 521.20801000 0.13196801 0.76722300 -0.62765598 1.905766e-42
-19.49259900 13.25250000 522.65997000 0.12800500 0.76390600 -0.63250500 1.905766e-42
-19.97030100 14.33470000 524.01703000 0.12562101 0.76153398 -0.63583398 1.905766e-42
-20.25510000 15.46280000 525.39001000 0.12434400 0.75903797 -0.63906199 1.905766e-42
-20.24790000 16.70450000 526.69299000 0.12489600 0.75677699 -0.64163101 1.905766e-42
-20.02980000 17.90920100 528.01300000 0.12801901 0.75524801 -0.64281601 1.905766e-42
-19.95459900 19.10300100 529.35797000 0.13318200 0.75429302 -0.64288801 1.905766e-42
-20.35720100 20.23130000 530.70099000 0.13602300 0.74449599 -0.65362400 1.905766e-42
-20.80699900 21.38810000 532.00500000 0.13682500 0.73081201 -0.66872501 1.905766e-42
-20.70630100 22.71180000 533.22101000 0.14005600 0.71623898 -0.68365699 1.905766e-42
-20.73810000 24.00530100 534.47198000 0.14198400 0.70064902 -0.69923598 1.905766e-42
-21.38110000 25.23870100 535.61499000 0.13749599 0.68558699 -0.71488899 1.905766e-42
-21.68520000 26.63030100 536.71503000 0.13462500 0.66905999 -0.73091298 1.905766e-42
-22.21910100 27.93700000 537.83197000 0.12824300 0.65271902 -0.74666703 1.905766e-42
-22.58540000 29.33300000 538.90802000 0.12217300 0.63526499 -0.76256901 1.905766e-42
-22.76149900 30.74510000 540.01001000 0.11997600 0.63724399 -0.76126599 1.905766e-42
-23.54270000 32.10089900 540.89899000 0.11090500 0.65157998 -0.75042897 1.905766e-42
-23.94010000 33.48529800 541.97900000 0.10720400 0.66713297 -0.73718399 1.905766e-42
-24.51740100 34.80049900 543.06403000 0.10048500 0.68232799 -0.72410703 1.905766e-42
-24.72400100 36.06890100 544.32397000 0.09935700 0.69827002 -0.70890498 1.905766e-42
-24.37070100 37.17260000 545.70203000 0.10769600 0.71360099 -0.69222498 1.905766e-42
-25.32250000 38.21509900 546.81799000 0.09219620 0.72782701 -0.67953497 1.905766e-42
-25.54610100 39.31720000 548.22400000 0.08838070 0.74395299 -0.66236198 1.905766e-42
-25.25410100 40.64460000 549.40399000 0.10358700 0.70182103 -0.70478100 1.905766e-42
-25.24210000 41.97480000 550.61700000 0.11883800 0.61085498 -0.78277302 1.905766e-42
-24.94000100 43.45700100 551.59198000 0.13222601 0.51303798 -0.84811997 1.905766e-42
-24.55909900 44.98020200 552.47198000 0.13857900 0.41063300 -0.90120900 1.905766e-42
-24.59020000 46.63539900 553.17902000 0.12568200 0.30842900 -0.94290799 1.905766e-42
-24.36420100 48.35670100 553.65503000 0.10350800 0.20899200 -0.97242397 1.905766e-42
-23.92370000 50.05229900 554.06799000 0.07081820 0.10903300 -0.99151200 1.905766e-42
-23.84919900 51.84059900 554.25897000 0.00957495 0.01874660 -0.99977797 1.905766e-42
-22.85100000 53.21939800 553.67401000 -0.01516130 -0.09458320 -0.99540198 1.905766e-42
-22.16370000 54.84540200 553.32300000 -0.02002190 -0.19668600 -0.98026198 1.905766e-42
-21.45229900 56.40240100 552.76599000 0.00191513 -0.26599601 -0.96397197 1.905766e-42
-20.62949900 57.93220100 552.29401000 0.03080380 -0.31420401 -0.94885600 1.905766e-42
-19.77570000 59.40480000 551.70898000 0.05140250 -0.35211399 -0.93454498 1.905766e-42
-18.89679900 60.84790000 551.08801000 0.06474780 -0.38168201 -0.92202300 1.905766e-42
-18.32130100 62.44369900 550.48700000 0.07138140 -0.40176100 -0.91295803 1.905766e-42
-17.54000100 63.92639900 549.83002000 0.07697470 -0.41810900 -0.90512902 1.905766e-42
-16.56200000 65.30259700 549.20599000 0.07612080 -0.43112499 -0.89907598 1.905766e-42
-15.43700000 66.60289800 548.67297000 0.06904830 -0.44145101 -0.89462399 1.905766e-42
-14.78400000 68.08630400 547.89001000 0.05977650 -0.44805199 -0.89200699 1.905766e-42
-13.62090000 69.31250000 547.27100000 0.04549570 -0.45405301 -0.88981199 1.905766e-42
-12.69050000 70.67389700 546.54901000 0.02804410 -0.45895001 -0.88801903 1.905766e-42
-11.51890000 71.90029900 545.94598000 0.00302615 -0.46608600 -0.88473397 1.905766e-42
-10.35510000 73.12390100 545.32300000 -0.02052700 -0.47125399 -0.88175899 1.905766e-42
-8.93371010 74.08930200 544.78699000 -0.04377800 -0.47458500 -0.87911999 1.905766e-42
-7.45588020 74.93979600 544.21002000 -0.06604750 -0.47579300 -0.87707400 1.905766e-42
-5.99039980 75.73660300 543.53400000 -0.08753670 -0.47475299 -0.87575501 1.905766e-42
-4.57644990 76.51840200 542.73999000 -0.13388400 -0.48810399 -0.86245501 1.905766e-42
-3.11935000 77.19470200 541.92798000 -0.18546100 -0.50946498 -0.84026802 1.905766e-42
-1.67981990 77.86830100 541.08301000 -0.23489401 -0.53584999 -0.81098002 1.905766e-42
-0.37587500 78.68609600 540.15002000 -0.28046000 -0.56770098 -0.77398801 1.905766e-42
1.10279000 79.23179600 539.28101000 -0.31924301 -0.60475701 -0.72962600 1.905766e-42
2.62886000 79.62780000 538.41199000 -0.33790299 -0.63913399 -0.69089001 1.905766e-42
4.09910010 80.14370000 537.51099000 -0.33825901 -0.66501802 -0.66583198 1.905766e-42
5.16524980 81.06990100 536.39502000 -0.33147299 -0.68571502 -0.64801300 1.905766e-42
6.42711020 81.79429600 535.33502000 -0.32101601 -0.69559401 -0.64272600 1.905766e-42
7.49578000 82.66390200 534.17700000 -0.31280899 -0.70258498 -0.63915998 1.905766e-42
8.80902000 83.34130100 533.14899000 -0.31174901 -0.70457000 -0.63748902 1.905766e-42
9.93982980 83.71199800 531.79797000 -0.30454201 -0.69658798 -0.64963001 1.905766e-42
11.27120000 84.29390000 530.73602000 -0.30528399 -0.68789703 -0.65848303 1.905766e-42
12.37210000 85.04440300 529.52600000 -0.31224301 -0.68243998 -0.66089398 1.905766e-42
13.41450000 85.75610400 528.24200000 -0.32715601 -0.67910200 -0.65710700 1.905766e-42
14.49600000 86.32430300 526.91998000 -0.35097900 -0.67750800 -0.64637202 1.905766e-42
15.66760000 86.91079700 525.68597000 -0.38223901 -0.67771602 -0.62816697 1.905766e-42
16.37620000 87.86609600 524.33502000 -0.39763099 -0.66977000 -0.62713403 1.905766e-42
17.39020000 88.70819900 523.10901000 -0.40487000 -0.65317100 -0.63988203 1.905766e-42
18.87420100 88.44640400 522.12500000 -0.42271900 -0.63863099 -0.64300698 1.905766e-42
20.45179900 87.76229900 521.59302000 -0.44405499 -0.62659597 -0.64046299 1.905766e-42
21.66010100 86.48670200 521.98401000 -0.46490899 -0.62172300 -0.63033301 1.905766e-42
22.82270100 85.18979600 522.43799000 -0.48595500 -0.61631697 -0.61967897 1.905766e-42
23.63320000 83.76860000 523.18903000 -0.50480199 -0.61414599 -0.60662901 1.905766e-42
24.90140000 82.50789600 523.39398000 -0.52790302 -0.60383499 -0.59724498 1.905766e-42
25.84110100 81.08860000 523.97900000 -0.54950100 -0.59697998 -0.58451998 1.905766e-42
27.12480000 79.82700300 524.00000000 -0.57334298 -0.58215803 -0.57651502 1.905766e-42
28.34160000 78.50820200 524.14203000 -0.59626502 -0.56736100 -0.56795198 1.905766e-42
29.58330000 77.20559700 524.18103000 -0.61870801 -0.55127198 -0.55973202 1.905766e-42
30.56469900 75.72480000 524.47101000 -0.64029503 -0.53719699 -0.54903698 1.905766e-42
31.44920000 74.18209800 524.75000000 -0.66144800 -0.52241701 -0.53811502 1.905766e-42
32.54909900 72.75740100 524.72803000 -0.68385601 -0.50350600 -0.52803600 1.905766e-42
33.68800000 71.38870200 524.46399000 -0.70696002 -0.48229501 -0.51729900 1.905766e-42
34.57550000 69.83660100 524.67200000 -0.72757798 -0.46312499 -0.50610900 1.905766e-42
35.78720100 68.80680100 523.82898000 -0.75103801 -0.43938300 -0.49283299 1.905766e-42
36.77640200 67.32659900 523.56403000 -0.77343100 -0.41547501 -0.47873199 1.905766e-42
37.91350200 66.27649700 522.64502000 -0.79700202 -0.39091799 -0.46040401 1.905766e-42
38.86159900 64.84079700 522.11603000 -0.81880802 -0.36489400 -0.44317701 1.905766e-42
39.83330200 63.52109900 521.37097000 -0.84004301 -0.33835101 -0.42408299 1.905766e-42
40.74440000 62.18619900 520.57898000 -0.85970402 -0.31137100 -0.40491599 1.905766e-42
41.68360100 61.70510100 519.12097000 -0.86863101 -0.30006701 -0.39425901 1.905766e-42
42.44279900 60.29930100 518.29199000 -0.88131797 -0.27903301 -0.38133901 1.905766e-42
43.15280200 58.90039800 517.40900000 -0.89529699 -0.25709799 -0.36379001 1.905766e-42
43.84009900 57.46480200 516.56799000 -0.90983701 -0.23370500 -0.34289801 1.905766e-42
44.53990200 56.50590100 515.21503000 -0.92614400 -0.21308200 -0.31121299 1.905766e-42
45.15090200 55.19789900 514.14001000 -0.94142801 -0.18780100 -0.28007799 1.905766e-42
45.92020000 54.39070100 512.72699000 -0.95616102 -0.16507600 -0.24188000 1.905766e-42
46.19620100 52.92100100 511.72501000 -0.96828300 -0.13624901 -0.20943700 1.905766e-42
46.59809900 51.60210000 510.56799000 -0.97913802 -0.10631100 -0.17316601 1.905766e-42
47.01520200 50.50070200 509.20700000 -0.98358297 -0.08779260 -0.15766200 1.905766e-42
47.34740100 49.93050000 507.53201000 -0.98683399 -0.07533070 -0.14312400 1.905766e-42
47.65570100 48.93890000 506.06201000 -0.99042499 -0.05726790 -0.12561500 1.905766e-42
47.80419900 48.25429900 504.40399000 -0.99364698 -0.04088080 -0.10485200 1.905766e-42
48.09289900 47.93510100 502.65601000 -0.99626201 -0.02679840 -0.08212030 1.905766e-42
48.10310000 47.02980000 501.10001000 -0.99840897 -0.00669145 -0.05599020 1.905766e-42
48.19189800 46.77999900 499.32001000 -0.99954599 0.00832803 -0.02895750 1.905766e-42
48.12149800 45.95529900 497.72198000 -0.99958599 0.02874300 0.00106419 1.905766e-42
48.11270100 45.78279900 495.92999000 -0.99873400 0.04221550 0.02735600 1.905766e-42
48.03229900 45.15100100 494.24600000 -0.99673301 0.05913870 0.05500870 1.905766e-42
47.93999900 45.23479800 492.45099000 -0.99432099 0.06958180 0.08052440 1.905766e-42
47.83960000 45.19749800 490.65399000 -0.99090099 0.08090450 0.10756300 1.905766e-42
47.54779800 44.40630000 489.06400000 -0.98584801 0.09711810 0.13664700 1.905766e-42
47.38019900 44.53690000 487.27600000 -0.98087800 0.10547800 0.16356499 1.905766e-42
46.98450100 43.98640100 485.60901000 -0.97417802 0.11778100 0.19262700 1.905766e-42
46.46490100 43.40179800 483.98801000 -0.96679801 0.12862100 0.22081500 1.905766e-42
46.05600000 43.11899900 482.25800000 -0.95913100 0.13578101 0.24825500 1.905766e-42
45.62990200 42.93510100 480.51801000 -0.95109999 0.14210500 0.27425399 1.905766e-42
45.25400200 42.86320100 478.76001000 -0.94283497 0.14864600 0.29827100 1.905766e-42
44.44120000 42.52119800 477.19000000 -0.93339598 0.15924200 0.32158101 1.905766e-42
43.84180100 42.44960000 475.49500000 -0.92384201 0.16907300 0.34341100 1.905766e-42
43.31829800 42.51699800 473.77399000 -0.91430801 0.17884500 0.36339301 1.905766e-42
42.36949900 42.23590100 472.26999000 -0.90223002 0.19504900 0.38462600 1.905766e-42
41.61679800 42.22069900 470.63501000 -0.89017397 0.21011400 0.40428001 1.905766e-42
40.88539900 42.30160100 468.99200000 -0.87765998 0.22575299 0.42278701 1.905766e-42
40.17129900 42.57529800 467.36301000 -0.86569297 0.24036001 0.43909299 1.905766e-42
39.39469900 42.78300100 465.75201000 -0.85493702 0.25512999 0.45165399 1.905766e-42
38.66709900 43.07170100 464.13199000 -0.84728301 0.26781601 0.45867801 1.905766e-42
37.92869900 43.34500100 462.51300000 -0.83834100 0.28329599 0.46575499 1.905766e-42
37.18510100 43.63710000 460.89999000 -0.82823598 0.30115899 0.47257701 1.905766e-42
36.33359900 43.84220100 459.32700000 -0.81490701 0.32377201 0.48072699 1.905766e-42
35.56950000 44.25680200 457.75101000 -0.80281597 0.34541100 0.48598099 1.905766e-42
34.69200100 44.46690000 456.19400000 -0.78476501 0.37401199 0.49422500 1.905766e-42
33.95859900 44.92430100 454.61499000 -0.76931500 0.40035701 0.49786401 1.905766e-42
33.29750100 45.46049900 453.02899000 -0.75402600 0.42739299 0.49877700 1.905766e-42
32.43330000 45.80799900 451.48901000 -0.72984397 0.46244299 0.50346297 1.905766e-42
31.61860100 46.28099800 449.95499000 -0.70457500 0.49816301 0.50537902 1.905766e-42
30.74659900 46.68320100 448.43201000 -0.67098498 0.53659898 0.51170301 1.905766e-42
29.85490000 47.14550000 446.93900000 -0.64016098 0.57121199 0.51372302 1.905766e-42
29.19050000 47.85419800 445.42300000 -0.61790103 0.60187602 0.50590903 1.905766e-42
