# .PCD v0.7 - Point Cloud Data file format
# 3 118 0
# 1 20 0
# 21 72 0
# 73 118 0
VERSION 0.7
FIELDS x y z normal_x normal_y normal_z curvature
SIZE 4 4 4 4 4 4 4
TYPE F F F F F F F
COUNT 1 1 1 1 1 1 1
WIDTH 118
HEIGHT 1
VIEWPOINT 0 0 0 1 0 0 0
POINTS 118
DATA ascii
37.64770100 37.37670100 476.65900000 0.23285501 -0.39611599 0.88818401 1.905766e-42
36.51839800 38.66210200 477.21799000 0.24514399 -0.38312700 0.89057201 1.905766e-42
34.92750200 39.00790000 477.98599000 0.23348100 -0.38103399 0.89459503 1.905766e-42
33.21089900 39.11759900 478.51599000 0.21311900 -0.37974599 0.90020698 1.905766e-42
31.46970000 39.14690000 478.97198000 0.19470701 -0.37882900 0.90475303 1.905766e-42
29.76400000 39.68909800 479.16299000 0.18012799 -0.37539899 0.90919101 1.905766e-42
28.10070000 39.16220100 479.60501000 0.16170201 -0.37761301 0.91173500 1.905766e-42
26.49110000 39.79230100 480.10800000 0.14363299 -0.37125301 0.91735500 1.905766e-42
24.80649900 40.27230100 480.52200000 0.12508699 -0.36565799 0.92230600 1.905766e-42
23.09830100 40.69459900 480.90100000 0.10699600 -0.36158800 0.92617798 1.905766e-42
21.33060100 40.79250000 481.22601000 0.08817200 -0.36146000 0.92820901 1.905766e-42
19.91210000 41.84899900 481.56000000 0.06705160 -0.35410601 0.93279898 1.905766e-42
18.19520000 41.30880000 481.58401000 0.04026730 -0.35554600 0.93379098 1.905766e-42
16.40029900 41.17499900 481.59500000 0.01415510 -0.35175699 0.93598402 1.905766e-42
14.44510000 41.04270200 481.61801000 -0.00579255 -0.34799099 0.93747997 1.905766e-42
12.68540000 41.42089800 481.59799000 -0.02595550 -0.34175801 0.93942899 1.905766e-42
10.94590000 40.98960100 481.42999000 -0.04264710 -0.34325099 0.93827498 1.905766e-42
9.16234970 40.78580100 481.29800000 -0.06145620 -0.34477499 0.93667197 1.905766e-42
7.37368010 40.85570100 481.10901000 -0.08710160 -0.34515101 0.93449700 1.905766e-42
5.58329010 40.83309900 480.92499000 -0.11307700 -0.34579599 0.93147099 1.905766e-42
4.04065990 40.00989900 480.49799000 -0.12147600 -0.35923699 0.92530698 1.905766e-42
3.27710010 38.56349900 479.74600000 -0.13439600 -0.37687701 0.91646099 1.905766e-42
3.13579010 36.88900000 479.10101000 -0.14714400 -0.39472401 0.90694100 1.905766e-42
2.47733000 35.43470000 478.26901000 -0.16166700 -0.41825700 0.89382601 1.905766e-42
2.38732000 33.82249800 477.47400000 -0.16933601 -0.44533601 0.87920499 1.905766e-42
1.76503000 32.39120100 476.57700000 -0.18410701 -0.46893600 0.86383098 1.905766e-42
1.52931000 30.84429900 475.68799000 -0.19566700 -0.48918301 0.84994900 1.905766e-42
1.29261990 29.32500100 474.75201000 -0.20664500 -0.50692302 0.83685499 1.905766e-42
0.70441800 28.01829900 473.66199000 -0.22192900 -0.52235901 0.82334000 1.905766e-42
0.76108903 26.43490000 472.80801000 -0.22445400 -0.53715903 0.81306899 1.905766e-42
0.13398200 25.23520100 471.62201000 -0.24191301 -0.55597502 0.79521698 1.905766e-42
0.13400701 23.69980000 470.68201000 -0.24835600 -0.57495600 0.77958000 1.905766e-42
-0.30417001 22.38880000 469.52899000 -0.26459801 -0.59250700 0.76086998 1.905766e-42
-0.77037501 21.12529900 468.33499000 -0.28194100 -0.60889202 0.74145800 1.905766e-42
-0.82578301 19.74259900 467.18399000 -0.28994200 -0.62543303 0.72440797 1.905766e-42
-1.46109000 18.72100100 465.84500000 -0.31066701 -0.63912702 0.70356399 1.905766e-42
-1.58036990 17.35580100 464.67801000 -0.31828699 -0.65595901 0.68440503 1.905766e-42
-1.74963000 16.10140000 463.39801000 -0.32678801 -0.67230099 0.66424501 1.905766e-42
-2.22174000 15.02480000 462.03500000 -0.34112599 -0.68647403 0.64217299 1.905766e-42
-3.00782990 14.49930000 460.50400000 -0.36252099 -0.69629800 0.61947399 1.905766e-42
-3.09150000 13.13190000 459.33600000 -0.36664101 -0.71121103 0.59979397 1.905766e-42
-3.20175000 11.99790000 457.94299000 -0.37326199 -0.72483599 0.57903999 1.905766e-42
-3.23212000 10.91110000 456.50800000 -0.37901199 -0.73760200 0.55883199 1.905766e-42
-3.99307990 10.41070000 454.95599000 -0.39855599 -0.74516201 0.53468299 1.905766e-42
-4.00282000 9.24419980 453.58499000 -0.40360799 -0.75739199 0.51328099 1.905766e-42
-3.91995000 8.18309020 452.13300000 -0.40832499 -0.76923603 0.49147400 1.905766e-42
-4.42883010 7.51448010 450.54099000 -0.42389101 -0.77724499 0.46498099 1.905766e-42
-4.74957990 6.90078020 448.88000000 -0.43745700 -0.78491998 0.43878499 1.905766e-42
-4.81523990 5.99936010 447.32300000 -0.44399500 -0.79132098 0.42033300 1.905766e-42
-4.39814000 4.97110990 445.90601000 -0.44093099 -0.80163902 0.40367699 1.905766e-42
-4.82282020 4.50533010 444.22000000 -0.45017299 -0.80756098 0.38103801 1.905766e-42
-5.06515980 3.94551990 442.52600000 -0.45465299 -0.81548601 0.35815200 1.905766e-42
-4.83182000 2.98138000 441.02399000 -0.45334199 -0.82553101 0.33612400 1.905766e-42
-5.10282990 2.52193000 439.30499000 -0.45655301 -0.83106202 0.31763899 1.905766e-42
-4.87843990 1.75784000 437.69101000 -0.45652699 -0.83536702 0.30617899 1.905766e-42
-4.70954990 1.06190000 436.03900000 -0.45732999 -0.83954501 0.29328200 1.905766e-42
-4.44415000 0.41370001 434.38101000 -0.45938101 -0.84324902 0.27910501 1.905766e-42
-4.02593990 -0.33063701 432.79700000 -0.46537599 -0.84491801 0.26370099 1.905766e-42
-2.79224990 -1.35908000 431.98401000 -0.47848600 -0.84030902 0.25481901 1.905766e-42
-1.47465000 -2.30059000 431.19800000 -0.45086899 -0.85635102 0.25175300 1.905766e-42
-0.16395500 -3.22852990 430.38501000 -0.42866701 -0.86839998 0.24925099 1.905766e-42
0.94037402 -4.09088990 429.25500000 -0.41098699 -0.87558901 0.25383899 1.905766e-42
2.13350010 -4.88863990 428.16901000 -0.38930801 -0.88499099 0.25540200 1.905766e-42
3.51494000 -5.71813010 427.36700000 -0.36450699 -0.89552802 0.25527200 1.905766e-42
4.84826990 -6.46424010 426.41501000 -0.33877301 -0.90649301 0.25199899 1.905766e-42
6.33286000 -7.21714020 425.73001000 -0.30820900 -0.91859901 0.24735101 1.905766e-42
7.71787020 -7.93005990 424.82800000 -0.28034899 -0.92945802 0.23981699 1.905766e-42
8.89251040 -8.55298040 423.61499000 -0.25862101 -0.93818700 0.23004299 1.905766e-42
10.33910000 -9.15771010 422.73099000 -0.23456000 -0.94653100 0.22149900 1.905766e-42
11.74590000 -9.68873980 421.74100000 -0.21120700 -0.95417398 0.21200199 1.905766e-42
12.83200000 -10.20960000 420.40399000 -0.19051901 -0.96109802 0.19998100 1.905766e-42
14.35060000 -10.64550000 419.54099000 -0.16491400 -0.96754098 0.19148700 1.905766e-42
16.10990000 -10.81790000 419.88000000 -0.13612100 -0.97112602 0.19592001 1.905766e-42
17.77450000 -10.89320000 420.56100000 -0.11268600 -0.97116101 0.21011400 1.905766e-42
18.78599900 -10.73390000 422.04199000 -0.08559600 -0.96983802 0.22822700 1.905766e-42
20.18660000 -10.46230000 423.13901000 -0.05238250 -0.96678197 0.25017700 1.905766e-42
20.52770000 -10.10660000 424.87000000 -0.02447180 -0.96528298 0.26005900 1.905766e-42
21.02500000 -9.67411990 426.54501000 0.00073528 -0.96191001 0.27336699 1.905766e-42
21.60980000 -9.15736960 428.16699000 0.01412080 -0.95682400 0.29032600 1.905766e-42
22.11969900 -8.61476990 429.80600000 0.01737070 -0.95041502 0.31049800 1.905766e-42
22.79890100 -8.04798030 431.37399000 0.01311570 -0.94221300 0.33475700 1.905766e-42
23.24790000 -7.47513010 433.01999000 0.01849290 -0.93391800 0.35700801 1.905766e-42
23.75620100 -6.85483980 434.63101000 0.02414710 -0.92551500 0.37794101 1.905766e-42
24.27650100 -6.17785980 436.21600000 0.03113420 -0.91714001 0.39734799 1.905766e-42
25.26490000 -5.46087980 437.53900000 0.03344790 -0.90823698 0.41711801 1.905766e-42
25.85930100 -4.73055980 439.07300000 0.04380160 -0.89997101 0.43374300 1.905766e-42
26.31040000 -4.00437020 440.65701000 0.05699270 -0.88987797 0.45262501 1.905766e-42
26.99230000 -3.16606000 442.09601000 0.07171760 -0.87858498 0.47217101 1.905766e-42
27.51440000 -2.30095010 443.58600000 0.08872960 -0.86724597 0.48991001 1.905766e-42
28.20830000 -1.43091000 445.00101000 0.10780200 -0.85508603 0.50715500 1.905766e-42
28.67490000 -0.47215199 446.45099000 0.12661600 -0.84344202 0.52208602 1.905766e-42
29.34140000 0.59136802 447.74100000 0.14862201 -0.82943100 0.53847599 1.905766e-42
29.61860100 1.51558010 449.26099000 0.16537800 -0.81477100 0.55569601 1.905766e-42
29.82370000 2.55146000 450.71799000 0.17827401 -0.80028403 0.57250601 1.905766e-42
30.63699900 3.68562010 451.85501000 0.19901800 -0.78438199 0.58748299 1.905766e-42
31.02599900 4.80602980 453.20901000 0.20875500 -0.77015197 0.60273200 1.905766e-42
31.14990000 5.91738990 454.62000000 0.20990500 -0.75674403 0.61909503 1.905766e-42
31.14349900 7.07028010 456.00201000 0.20673200 -0.74287701 0.63670701 1.905766e-42
31.70170000 8.30568980 457.18600000 0.21274500 -0.72839803 0.65128797 1.905766e-42
31.99580000 9.53372000 458.46899000 0.21549000 -0.71338898 0.66681403 1.905766e-42
32.36980100 10.81570000 459.67599000 0.21986400 -0.69807798 0.68142998 1.905766e-42
32.68949900 12.11180000 460.88300000 0.22377101 -0.68255401 0.69573402 1.905766e-42
32.74850100 13.39320000 462.14600000 0.22460800 -0.66714501 0.71025902 1.905766e-42
33.23910100 14.76130000 463.20801000 0.23036200 -0.65076900 0.72348702 1.905766e-42
33.54499800 16.15580000 464.30399000 0.23371100 -0.63373202 0.73740298 1.905766e-42
33.68140000 17.51650000 465.47400000 0.23510700 -0.61647201 0.75145602 1.905766e-42
33.63510100 18.91589900 466.60599000 0.23514700 -0.59930098 0.76520902 1.905766e-42
34.29990000 20.34199900 467.48001000 0.24310599 -0.58183700 0.77612197 1.905766e-42
34.72890100 21.81609900 468.41901000 0.24935900 -0.56378698 0.78737801 1.905766e-42
35.05740000 23.32040000 469.35199000 0.25519300 -0.55051702 0.79486299 1.905766e-42
35.16510000 24.80290000 470.36700000 0.25624901 -0.53874999 0.80254900 1.905766e-42
35.55020100 26.34490000 471.21201000 0.25793701 -0.52546901 0.81077200 1.905766e-42
36.00820200 27.90930000 471.97501000 0.25864899 -0.51099002 0.81975001 1.905766e-42
36.06930200 29.40570100 472.97400000 0.25473100 -0.49353400 0.83158702 1.905766e-42
36.16280000 30.97300000 473.85400000 0.25216699 -0.47346699 0.84394401 1.905766e-42
36.72440000 32.51070000 474.60199000 0.25159800 -0.45313600 0.85519999 1.905766e-42
37.26020100 34.12009800 475.20499000 0.24788800 -0.43448901 0.86589301 1.905766e-42
37.59999800 35.74259900 475.90601000 0.24038699 -0.41583201 0.87709600 1.905766e-42
