# .PCD v0.7 - Point Cloud Data file format
# 3 54 0
# 1 25 0
# 26 44 0
# 45 54 0
VERSION 0.7
FIELDS x y z normal_x normal_y normal_z curvature
SIZE 4 4 4 4 4 4 4
TYPE F F F F F F F
COUNT 1 1 1 1 1 1 1
WIDTH 54
HEIGHT 1
VIEWPOINT 0 0 0 1 0 0 0
POINTS 54
DATA ascii
7.87529990 13.06940000 447.15601000 -0.03814450 0.63698900 0.76992798 1.905766e-42
9.65429970 12.79850000 447.19901000 -0.06423990 0.65294898 0.75467199 1.905766e-42
11.45240000 12.80690000 447.28000000 -0.10026200 0.63735098 0.76402301 1.905766e-42
13.12790000 13.46420000 447.30899000 -0.20819500 0.62846899 0.74945498 1.905766e-42
14.83040000 13.61280000 447.87399000 -0.35921201 0.58903003 0.72388500 1.905766e-42
16.45410000 13.73030000 448.64200000 -0.47856501 0.51979101 0.70766801 1.905766e-42
17.97559900 14.18930000 449.48700000 -0.58324498 0.50530702 0.63599497 1.905766e-42
19.35990000 14.48750000 450.59799000 -0.67788702 0.49264601 0.54568201 1.905766e-42
19.96649900 14.92600000 451.19901000 -0.71913397 0.49350700 0.48917899 1.905766e-42
21.00910000 15.07750000 452.65799000 -0.79567301 0.44952399 0.40599599 1.905766e-42
21.83149900 15.55180000 454.18799000 -0.85697401 0.40839499 0.31433901 1.905766e-42
22.53459900 15.86620000 455.81500000 -0.91105199 0.34303701 0.22871500 1.905766e-42
23.05190100 16.66680000 457.34201000 -0.94479901 0.31246099 0.09860850 1.905766e-42
23.24939900 16.79350100 459.12601000 -0.95087099 0.29833099 -0.08272590 1.905766e-42
23.20970000 17.39310100 460.82300000 -0.93488002 0.32302999 -0.14714099 1.905766e-42
22.95190000 17.49160000 462.60199000 -0.96542001 0.24538700 -0.08803370 1.905766e-42
22.96990000 18.83370000 463.80099000 -0.93044198 0.27183101 0.24573401 1.905766e-42
24.28249900 19.67510000 464.70099000 -0.71437800 0.30109799 0.63166797 1.905766e-42
25.56080100 20.08300000 465.89999000 -0.65037298 0.27195099 0.70926601 1.905766e-42
26.65490000 21.16230000 466.83801000 -0.73219299 0.24902900 0.63393801 1.905766e-42
27.10730000 22.85810100 466.43799000 -0.80282998 0.25108701 0.54075801 1.905766e-42
27.14930000 24.48090000 465.66000000 -0.90241802 0.38048199 0.20217501 1.905766e-42
27.87249900 26.12890100 465.68900000 -0.93106902 0.36446300 0.01665130 1.905766e-42
28.70039900 27.72480000 465.60101000 -0.90617102 0.39502701 -0.15102100 1.905766e-42
29.42120000 29.19660000 464.85699000 -0.81498098 0.49482301 -0.30158800 1.905766e-42
30.87240000 29.93160100 464.08600000 -0.56779897 0.73697197 -0.36671099 1.905766e-42
31.09269900 29.50429900 462.35199000 -0.54885697 0.76372701 -0.33981901 1.905766e-42
31.68400000 29.15950000 460.68701000 -0.49887899 0.81657499 -0.29038700 1.905766e-42
31.81380100 28.72370000 458.94501000 -0.48062101 0.83747101 -0.26008701 1.905766e-42
31.94059900 28.28920000 457.20300000 -0.42973799 0.86947602 -0.24359000 1.905766e-42
31.90690000 27.83860000 455.46100000 -0.42997199 0.87991399 -0.20217800 1.905766e-42
31.88530000 27.41260000 453.71201000 -0.41125900 0.89708400 -0.16157600 1.905766e-42
31.12760000 26.90460000 452.16000000 -0.48382401 0.86844099 -0.10828000 1.905766e-42
30.52440100 26.42100000 450.53500000 -0.50815499 0.85895401 -0.06306980 1.905766e-42
30.01210000 26.00849900 448.85901000 -0.49467799 0.86866498 -0.02673920 1.905766e-42
29.64040000 25.61520000 447.14200000 -0.46353099 0.88607502 -0.00315635 1.905766e-42
28.72750100 25.19039900 445.64999000 -0.47744101 0.87696201 0.05465570 1.905766e-42
27.47370000 24.74889900 444.43701000 -0.49977601 0.85746402 0.12239200 1.905766e-42
26.22450100 24.27529900 443.23001000 -0.49675500 0.84923500 0.17897899 1.905766e-42
25.27940000 23.97500000 441.72800000 -0.43512899 0.88350499 0.17344300 1.905766e-42
23.92420000 23.63180000 440.59399000 -0.38949499 0.90089101 0.19154499 1.905766e-42
22.40329900 23.21890100 439.72501000 -0.36261800 0.90191001 0.23466299 1.905766e-42
21.22610100 22.97450100 438.38501000 -0.26884100 0.95217800 0.14519800 1.905766e-42
19.55800100 22.72940100 437.75500000 -0.25283599 0.95106500 0.17761999 1.905766e-42
18.03770100 22.52910000 436.81201000 -0.18412600 0.97701102 0.10745400 1.905766e-42
16.44490100 21.94129900 437.41000000 -0.26740399 0.82586497 0.49642900 1.905766e-42
15.23840000 20.87730000 438.21701000 -0.27950099 0.69042403 0.66722798 1.905766e-42
14.20790000 19.60870000 438.97101000 -0.31287399 0.68600601 0.65689099 1.905766e-42
13.30210000 18.33120000 439.85901000 -0.28187099 0.79747301 0.53346598 1.905766e-42
12.54770000 17.59140000 441.31601000 -0.22629701 0.88356400 0.41000700 1.905766e-42
11.33940000 16.63590000 442.24701000 -0.14986800 0.91845399 0.36603400 1.905766e-42
10.44440000 16.06800100 443.70200000 -0.09252990 0.88900697 0.44844601 1.905766e-42
9.20394990 15.19840000 444.67401000 -0.02116210 0.81364501 0.58097601 1.905766e-42
8.22050000 14.27820000 445.86801000 -0.00848176 0.69043899 0.72334099 1.905766e-42
