# .PCD v0.7 - Point Cloud Data file format
# 4 275 0
# 1 72 0
# 73 151 0
# 152 176 0
# 177 275 0
VERSION 0.7
FIELDS x y z normal_x normal_y normal_z curvature
SIZE 4 4 4 4 4 4 4
TYPE F F F F F F F
COUNT 1 1 1 1 1 1 1
WIDTH 275
HEIGHT 1
VIEWPOINT 0 0 0 1 0 0 0
POINTS 275
DATA ascii
75.97180200 -10.21240000 383.12500000 0.96343398 -0.24369900 0.11138300 1.905766e-42
76.72959900 -9.06388000 384.26801000 0.95864803 -0.26649499 0.09987210 1.905766e-42
76.88510100 -8.83380990 386.04700000 0.95254600 -0.28629401 0.10340100 1.905766e-42
76.89299800 -8.50405980 387.81601000 0.94616097 -0.30528399 0.10762000 1.905766e-42
76.91050000 -7.72886990 389.44101000 0.93990999 -0.32377100 0.10836200 1.905766e-42
76.90309900 -7.31615020 391.19299000 0.93334901 -0.34027100 0.11434600 1.905766e-42
76.92179900 -6.46887020 392.78101000 0.92732698 -0.35550699 0.11696200 1.905766e-42
76.82469900 -5.94625000 394.50000000 0.92075002 -0.36970499 0.12464900 1.905766e-42
76.82849900 -5.55152990 396.25699000 0.91387701 -0.38311201 0.13436200 1.905766e-42
76.86630200 -5.19513990 398.02100000 0.90671098 -0.39585400 0.14551499 1.905766e-42
76.77300300 -4.76514010 399.76599000 0.89919698 -0.40803200 0.15797099 1.905766e-42
76.56459800 -4.34223990 401.50299000 0.89104599 -0.41980600 0.17262700 1.905766e-42
76.18759900 -4.64433000 403.23700000 0.88049001 -0.43212599 0.19495000 1.905766e-42
76.43160200 -3.42279010 404.53601000 0.87645102 -0.43871200 0.19840600 1.905766e-42
76.45320100 -2.55029990 406.11099000 0.86995298 -0.44823501 0.20558999 1.905766e-42
76.19719700 -2.39564990 407.88599000 0.85870200 -0.46308801 0.21950001 1.905766e-42
76.21130400 -1.42112990 409.39899000 0.84950298 -0.47795200 0.22339900 1.905766e-42
76.15519700 -0.91439003 411.12500000 0.83849502 -0.49261200 0.23293699 1.905766e-42
76.17990100 -0.19138300 412.77301000 0.82810998 -0.50689602 0.23935400 1.905766e-42
76.11499800 0.45410699 414.45300000 0.81715000 -0.52102298 0.24657901 1.905766e-42
76.20850400 1.54515000 415.88101000 0.80866599 -0.53388500 0.24703600 1.905766e-42
76.04419700 2.44043990 417.43399000 0.79852700 -0.54728299 0.25066999 1.905766e-42
76.03260000 2.82567000 419.19199000 0.78679699 -0.56112498 0.25707901 1.905766e-42
76.04950000 3.57439990 420.82901000 0.77650303 -0.57458800 0.25863400 1.905766e-42
75.99910000 4.05112980 422.56400000 0.76493198 -0.58854300 0.26171699 1.905766e-42
76.07720200 4.82879020 424.18600000 0.75527197 -0.60174501 0.25974500 1.905766e-42
76.09839600 5.60554980 425.80899000 0.74558598 -0.61496300 0.25675201 1.905766e-42
76.17019700 6.24564980 427.48999000 0.73597401 -0.62829900 0.25215501 1.905766e-42
75.99230200 6.73871990 429.21201000 0.72534800 -0.64192897 0.24859300 1.905766e-42
75.98049900 7.41434000 430.88000000 0.71605402 -0.65416598 0.24358501 1.905766e-42
75.79979700 7.87495990 432.61099000 0.70420200 -0.66763598 0.24158201 1.905766e-42
75.95880100 8.69254020 434.20700000 0.69487101 -0.67944402 0.23560500 1.905766e-42
75.95510100 9.18194960 435.93900000 0.68368500 -0.69096702 0.23481999 1.905766e-42
75.88300300 9.62257960 437.68301000 0.67235202 -0.70149899 0.23631001 1.905766e-42
76.07240300 10.32900000 439.32700000 0.66373098 -0.70981199 0.23585699 1.905766e-42
75.80560300 10.67520000 441.07300000 0.65202999 -0.71855998 0.24192400 1.905766e-42
76.10199700 11.44790000 442.67200000 0.64526200 -0.72415298 0.24339201 1.905766e-42
76.33580000 12.23570000 444.27301000 0.63871801 -0.72876501 0.24686299 1.905766e-42
76.30889900 12.78880000 445.98599000 0.63019300 -0.73346800 0.25471899 1.905766e-42
76.22219800 13.29360000 447.71201000 0.62163800 -0.73731399 0.26445001 1.905766e-42
76.39199800 14.24370000 449.23099000 0.61712402 -0.73835701 0.27200401 1.905766e-42
76.19519800 14.50950000 451.00000000 0.60806602 -0.74074501 0.28557399 1.905766e-42
76.57430300 15.50240000 452.45300000 0.60640502 -0.73888397 0.29380900 1.905766e-42
76.62000300 16.47470100 453.96701000 0.60334998 -0.73710299 0.30438200 1.905766e-42
76.75620300 16.90570100 455.70999000 0.59801501 -0.73642600 0.31631601 1.905766e-42
76.87970000 17.65220100 457.34299000 0.59239799 -0.73679000 0.32589099 1.905766e-42
77.12879900 18.69409900 458.78900000 0.58875501 -0.73668599 0.33265901 1.905766e-42
77.10929900 19.30369900 460.48300000 0.58169800 -0.73803598 0.34195200 1.905766e-42
76.83940100 19.88670000 462.16400000 0.57312101 -0.74012703 0.35177299 1.905766e-42
77.50840000 21.17410100 463.23001000 0.57428300 -0.73899299 0.35226199 1.905766e-42
77.54810300 22.30120100 464.63300000 0.57006001 -0.73983300 0.35732201 1.905766e-42
77.68470000 22.63080000 466.39700000 0.56296003 -0.74186301 0.36430001 1.905766e-42
77.51860000 23.24060100 468.08200000 0.55503899 -0.74426901 0.37147701 1.905766e-42
77.66159800 24.17100000 469.61600000 0.55063301 -0.74547398 0.37559500 1.905766e-42
77.93879700 25.16550100 471.09100000 0.54774499 -0.74616098 0.37844300 1.905766e-42
78.28170000 26.28210100 472.45999000 0.54632401 -0.74629200 0.38023400 1.905766e-42
78.22010000 26.94599900 474.13199000 0.53985202 -0.74825698 0.38558000 1.905766e-42
78.42880200 27.91350000 475.63599000 0.53699702 -0.74878401 0.38853100 1.905766e-42
78.70120200 28.91750000 477.10501000 0.53522599 -0.74856597 0.39138499 1.905766e-42
78.60870400 29.60520000 478.76599000 0.52936798 -0.74941301 0.39768100 1.905766e-42
79.03579700 30.59059900 480.20999000 0.52865899 -0.74800903 0.40125099 1.905766e-42
79.10569800 31.54910100 481.73199000 0.52506298 -0.74737698 0.40710700 1.905766e-42
79.25420400 32.55320000 483.21899000 0.52215803 -0.74632299 0.41273901 1.905766e-42
79.50000000 33.60910000 484.65601000 0.52011400 -0.74489999 0.41785800 1.905766e-42
79.49990100 34.51030000 486.21399000 0.51558203 -0.74425000 0.42457899 1.905766e-42
79.59079700 35.38029900 487.78699000 0.51146197 -0.74351001 0.43081301 1.905766e-42
79.21849800 35.95740100 489.45099000 0.50324899 -0.74424702 0.43913200 1.905766e-42
79.71790300 37.10170000 490.74701000 0.50349802 -0.74261802 0.44159800 1.905766e-42
79.94909700 38.16260100 492.18301000 0.50120598 -0.74205601 0.44513601 1.905766e-42
80.10440100 39.06600200 493.73199000 0.49763501 -0.74235201 0.44863400 1.905766e-42
80.03810100 40.05149800 495.23700000 0.49291101 -0.74361199 0.45175099 1.905766e-42
79.80190300 40.89510000 496.80899000 0.48635101 -0.74617600 0.45462501 1.905766e-42
78.99520100 41.42630000 498.32800000 0.47657001 -0.75143498 0.45631701 1.905766e-42
77.43859900 40.64670200 498.78601000 0.46249199 -0.75653797 0.46233299 1.905766e-42
75.84410100 39.87429800 499.10400000 0.44779700 -0.76112199 0.46922299 1.905766e-42
74.20929700 39.47850000 499.74399000 0.43182799 -0.76663500 0.47518000 1.905766e-42
72.78800200 38.39250200 499.54300000 0.41857600 -0.76862901 0.48373899 1.905766e-42
71.16280400 38.29489900 500.31100000 0.40165100 -0.77394098 0.48958299 1.905766e-42
69.58249700 37.69490100 500.92999000 0.38419899 -0.77800798 0.49708599 1.905766e-42
67.92089800 37.14770100 501.35300000 0.36671901 -0.78119701 0.50522202 1.905766e-42
66.26159700 36.56420100 501.73599000 0.34937200 -0.78366601 0.51362199 1.905766e-42
64.59179700 35.91310100 501.90302000 0.33302400 -0.78503799 0.52231300 1.905766e-42
63.04119900 35.94800200 502.81601000 0.31515700 -0.78792101 0.52901500 1.905766e-42
61.41939900 35.18080100 502.67099000 0.30145100 -0.78738397 0.53773099 1.905766e-42
59.79980100 35.14759800 503.45599000 0.28430200 -0.78851902 0.54535401 1.905766e-42
58.07339900 34.87970000 503.88901000 0.26860100 -0.78807801 0.55388302 1.905766e-42
56.35380200 34.37690000 504.06299000 0.25546399 -0.78639501 0.56242400 1.905766e-42
54.65380100 34.30609900 504.64999000 0.24149300 -0.78464198 0.57098001 1.905766e-42
52.92050200 33.84249900 504.79501000 0.22531600 -0.78634697 0.57523203 1.905766e-42
51.15980100 33.58770000 505.06799000 0.21153800 -0.79047298 0.57480699 1.905766e-42
49.44170000 33.60609800 505.60501000 0.19834501 -0.79438102 0.57412398 1.905766e-42
47.73910100 33.66669800 506.18600000 0.18480501 -0.79813600 0.57343400 1.905766e-42
46.01290100 33.47909900 506.66000000 0.16999400 -0.80170703 0.57303298 1.905766e-42
44.26030000 33.06850100 506.66800000 0.15403999 -0.80469501 0.57335699 1.905766e-42
42.76839800 33.54800000 507.55399000 0.14120901 -0.80785400 0.57221699 1.905766e-42
41.02920200 33.46270000 508.01001000 0.12458000 -0.81072998 0.57201099 1.905766e-42
39.23970000 33.29370100 508.10599000 0.10672900 -0.81293201 0.57249397 1.905766e-42
37.49779900 33.48120100 508.51901000 0.08886760 -0.81522900 0.57227999 1.905766e-42
35.92689900 32.79489900 507.97000000 0.07186630 -0.81530899 0.57454902 1.905766e-42
34.13909900 32.79259900 508.17801000 0.05204670 -0.81634802 0.57521099 1.905766e-42
32.74200100 33.54710000 509.02600000 0.03559360 -0.81835598 0.57360899 1.905766e-42
30.95870000 33.30979900 508.96701000 0.01418870 -0.81792003 0.57515597 1.905766e-42
29.21040000 32.97219800 508.70401000 -0.00686379 -0.81640798 0.57743502 1.905766e-42
27.44960000 32.77489900 508.38599000 -0.02808380 -0.81444299 0.57956302 1.905766e-42
25.67330000 32.72840100 508.09900000 -0.04963220 -0.81211299 0.58138502 1.905766e-42
23.93040100 32.62289800 507.66199000 -0.07045900 -0.80919600 0.58329803 1.905766e-42
22.15220100 32.66890000 507.38599000 -0.08914280 -0.80838603 0.58186400 1.905766e-42
20.36340000 32.64880000 507.18701000 -0.10726600 -0.80745500 0.58009499 1.905766e-42
18.60100000 32.67929800 506.82199000 -0.12498400 -0.80596799 0.57861501 1.905766e-42
16.88130000 32.54439900 506.30801000 -0.14210500 -0.80369002 0.57783097 1.905766e-42
15.13600000 32.60350000 505.87201000 -0.15923400 -0.80158597 0.57628500 1.905766e-42
13.38650000 32.77990000 505.48700000 -0.17628799 -0.79941702 0.57432997 1.905766e-42
11.72220000 32.62889900 504.81799000 -0.19295099 -0.79623097 0.57339901 1.905766e-42
10.28140000 33.63520100 505.20700000 -0.20727301 -0.79625398 0.56834602 1.905766e-42
8.52688030 33.56280100 504.81100000 -0.22439000 -0.79287702 0.56656498 1.905766e-42
6.81453990 33.58210000 504.25699000 -0.24121100 -0.78902602 0.56502599 1.905766e-42
5.10605000 33.84470000 503.75500000 -0.25806901 -0.78518099 0.56293100 1.905766e-42
3.42263010 34.35070000 503.36700000 -0.27478001 -0.78145099 0.56020600 1.905766e-42
1.81846000 34.56179800 502.57901000 -0.29051200 -0.77664298 0.55895197 1.905766e-42
0.15649100 35.11550100 502.16501000 -0.30666801 -0.77233899 0.55627900 1.905766e-42
-1.56578000 35.15110000 501.64301000 -0.32190901 -0.76723200 0.55473399 1.905766e-42
-3.31501010 35.02299900 501.23801000 -0.33631700 -0.76208103 0.55328500 1.905766e-42
-4.89317990 35.46979900 500.49701000 -0.35082901 -0.75672299 0.55162400 1.905766e-42
-6.48623990 35.57740000 499.66599000 -0.36785999 -0.75172597 0.54734600 1.905766e-42
-7.94947000 35.46440100 498.62299000 -0.38582000 -0.74704200 0.54136002 1.905766e-42
-9.27001950 35.28879900 497.41299000 -0.40222001 -0.74234200 0.53586102 1.905766e-42
-10.82900000 35.93470000 496.78699000 -0.42021200 -0.73724800 0.52904397 1.905766e-42
-12.24410000 35.85570100 495.67700000 -0.43601400 -0.73213601 0.52332401 1.905766e-42
-13.66040000 35.90440000 494.56699000 -0.45139599 -0.72693998 0.51749301 1.905766e-42
-15.00440000 35.84769800 493.37100000 -0.46542999 -0.72199202 0.51196003 1.905766e-42
-16.46010000 36.13779800 492.35300000 -0.47987801 -0.71674597 0.50595701 1.905766e-42
-17.88120100 36.67729900 491.38901000 -0.49371901 -0.71151203 0.49999201 1.905766e-42
-19.25410100 36.82970000 490.23499000 -0.50594997 -0.70682502 0.49438101 1.905766e-42
-20.68210000 36.76750200 489.14099000 -0.51835299 -0.70275497 0.48728400 1.905766e-42
-21.90469900 36.74580000 487.82001000 -0.53446102 -0.69930601 0.47468099 1.905766e-42
-23.21010000 37.41429900 486.77600000 -0.55116397 -0.69460899 0.46231601 1.905766e-42
-24.44560100 37.44860100 485.46701000 -0.56712401 -0.69010001 0.44959101 1.905766e-42
-25.66640100 37.39920000 484.14600000 -0.58262002 -0.68515700 0.43716499 1.905766e-42
-26.97629900 37.74430100 482.95999000 -0.59890503 -0.67908400 0.42445001 1.905766e-42
-28.32780100 38.29760000 481.90799000 -0.61528099 -0.67223197 0.41174400 1.905766e-42
-29.51890000 38.56990100 480.58600000 -0.63099700 -0.66505498 0.39942899 1.905766e-42
-30.74010100 38.94570200 479.31799000 -0.64681602 -0.65703797 0.38720900 1.905766e-42
-31.73140000 39.05400100 477.82001000 -0.66114599 -0.64898902 0.37642899 1.905766e-42
-32.57770200 38.98429900 476.23300000 -0.67396998 -0.64101201 0.36724401 1.905766e-42
-33.69860100 39.39210100 474.88501000 -0.68618500 -0.63155502 0.36095500 1.905766e-42
-34.69100200 39.69820000 473.41501000 -0.69668198 -0.62293899 0.35578400 1.905766e-42
-35.85979800 40.35879900 472.21600000 -0.70854098 -0.61372900 0.34829101 1.905766e-42
-37.03060200 41.20060000 471.13800000 -0.72062403 -0.60439700 0.33971301 1.905766e-42
-38.02489900 41.62580100 469.69901000 -0.73168701 -0.59612602 0.33055699 1.905766e-42
-39.02140000 42.53390100 468.50699000 -0.74220902 -0.58842099 0.32075900 1.905766e-42
-40.04000100 43.09450100 467.13300000 -0.75343400 -0.58044398 0.30890501 1.905766e-42
-40.63909900 42.72629900 465.47601000 -0.76421702 -0.57285202 0.29633299 1.905766e-42
-40.05950200 41.41199900 464.39099000 -0.76150101 -0.57694799 0.29537699 1.905766e-42
-39.83900100 40.42380100 462.90302000 -0.76348102 -0.57757503 0.28896999 1.905766e-42
-39.33070000 39.14170100 461.74600000 -0.76146501 -0.58138603 0.28663799 1.905766e-42
-38.95629900 37.97380100 460.42801000 -0.76116401 -0.58397299 0.28214401 1.905766e-42
-38.46200200 36.70949900 459.24600000 -0.75916702 -0.58791602 0.27932200 1.905766e-42
-37.94229900 35.45840100 458.06100000 -0.75685698 -0.59212500 0.27668700 1.905766e-42
-37.71220000 34.37900200 456.63901000 -0.75700599 -0.59436601 0.27142400 1.905766e-42
-37.44210100 33.51969900 455.08099000 -0.75827301 -0.59585798 0.26452699 1.905766e-42
-37.18820200 32.64810200 453.52701000 -0.75941402 -0.59756899 0.25729799 1.905766e-42
-36.85290100 31.37550000 452.29901000 -0.75745702 -0.60192698 0.25286901 1.905766e-42
-36.36230100 30.22930000 451.00000000 -0.75543600 -0.60640001 0.24818701 1.905766e-42
-36.18579900 29.42580000 449.39899000 -0.75682700 -0.60793298 0.24006499 1.905766e-42
-35.73210100 28.27059900 448.09601000 -0.75563401 -0.61086297 0.23635601 1.905766e-42
-35.77150000 27.73170100 446.37900000 -0.76173103 -0.60575402 0.22984500 1.905766e-42
-35.45610000 26.76800000 444.89099000 -0.76503903 -0.60228401 0.22796801 1.905766e-42
-35.18389900 25.83799900 443.37399000 -0.76875699 -0.59814900 0.22634400 1.905766e-42
-34.71680100 24.81390000 441.97000000 -0.77140599 -0.59447300 0.22701401 1.905766e-42
-34.61600100 24.23049900 440.26999000 -0.77719599 -0.58806098 0.22394300 1.905766e-42
-34.39020200 23.54290000 438.62201000 -0.78230202 -0.58173501 0.22268499 1.905766e-42
-34.18970100 22.62500000 437.08701000 -0.78666902 -0.57554501 0.22338299 1.905766e-42
-34.13690200 21.70540000 435.54001000 -0.79150099 -0.56858301 0.22414400 1.905766e-42
-34.35630000 21.50210000 433.76501000 -0.79901099 -0.55946702 0.22040600 1.905766e-42
-34.49739800 20.72680100 432.14700000 -0.80474800 -0.55100602 0.22084600 1.905766e-42
-34.34299900 19.73600000 430.65201000 -0.80905002 -0.54317898 0.22448701 1.905766e-42
-33.83129900 18.40679900 429.55099000 -0.80910200 -0.53909099 0.23395599 1.905766e-42
-32.78830000 16.94470000 429.43201000 -0.80774701 -0.53529102 0.24699900 1.905766e-42
-31.74180000 15.48240000 429.35199000 -0.80511701 -0.53094602 0.26435399 1.905766e-42
-30.63880000 14.18680000 428.76401000 -0.80398202 -0.52345502 0.28214699 1.905766e-42
-29.73870100 12.62900000 428.70700000 -0.79921103 -0.52015799 0.30116200 1.905766e-42
-28.83519900 11.07330000 428.64899000 -0.79329801 -0.51746500 0.32079199 1.905766e-42
-27.95290000 9.50529960 428.59500000 -0.78629601 -0.51524699 0.34096900 1.905766e-42
-26.95610000 8.14673040 427.96201000 -0.78131199 -0.50835800 0.36210901 1.905766e-42
-26.01240000 6.61405990 427.98001000 -0.77158099 -0.50793600 0.38296700 1.905766e-42
-25.12080000 5.05061010 427.95401000 -0.76110601 -0.50715798 0.40436199 1.905766e-42
-24.07640100 3.64036990 428.35501000 -0.74718899 -0.51238298 0.42328799 1.905766e-42
-23.02269900 2.27534010 428.87100000 -0.73169601 -0.51945502 0.44134700 1.905766e-42
-21.91840000 1.02940000 429.55499000 -0.71446598 -0.52920598 0.45768899 1.905766e-42
-20.71769900 -0.30454001 429.69199000 -0.69783801 -0.53361797 0.47778100 1.905766e-42
-19.51520000 -1.46703990 430.35800000 -0.67815799 -0.54436201 0.49373299 1.905766e-42
-18.31279900 -2.80606010 430.39401000 -0.65972298 -0.54810899 0.51414299 1.905766e-42
-17.03280100 -4.05991980 430.56601000 -0.63853800 -0.55563301 0.53248501 1.905766e-42
-15.74910000 -5.28227000 430.87900000 -0.61555701 -0.56536198 0.54904997 1.905766e-42
-14.75390000 -6.68074990 430.33701000 -0.59804702 -0.56443000 0.56899798 1.905766e-42
-13.36710000 -7.82825990 430.34299000 -0.57492298 -0.57131702 0.58571398 1.905766e-42
-12.07380000 -9.08012010 430.35001000 -0.55176300 -0.57684898 0.60233200 1.905766e-42
-10.85030000 -10.40030000 430.33701000 -0.52890497 -0.58098400 0.61864102 1.905766e-42
-9.48861980 -11.57750000 430.33401000 -0.50533301 -0.58596599 0.63346797 1.905766e-42
-8.15089990 -12.77790000 430.23599000 -0.48237801 -0.58941102 0.64800203 1.905766e-42
-6.79978990 -13.95560000 430.07001000 -0.45988101 -0.59200698 0.66184300 1.905766e-42
-5.54606010 -15.15410000 429.58899000 -0.43947500 -0.59117198 0.67629600 1.905766e-42
-4.27124980 -16.42490000 429.57800000 -0.41781199 -0.59326398 0.68809199 1.905766e-42
-2.81395010 -17.47800100 429.49301000 -0.39640999 -0.59637100 0.69799799 1.905766e-42
-1.54757000 -18.59930000 428.87799000 -0.37787300 -0.59417301 0.71004999 1.905766e-42
-0.07303160 -19.47120100 429.42999000 -0.35929599 -0.60188299 0.71319199 1.905766e-42
1.26144000 -20.64430000 429.14200000 -0.34151700 -0.60214400 0.72165698 1.905766e-42
2.55989000 -21.83230000 428.76401000 -0.32385400 -0.60192603 0.72993398 1.905766e-42
3.89075990 -23.00499900 428.45901000 -0.30617800 -0.60247701 0.73707300 1.905766e-42
5.17434980 -24.13150000 427.89001000 -0.28837800 -0.60120302 0.74524701 1.905766e-42
6.64820000 -25.15420000 427.74200000 -0.27111799 -0.60484803 0.74876797 1.905766e-42
7.92086980 -26.27750000 427.14401000 -0.24995001 -0.60223001 0.75818503 1.905766e-42
9.43393040 -27.24020000 426.98901000 -0.22290500 -0.60276502 0.76615202 1.905766e-42
10.78080000 -28.32749900 426.49600000 -0.19734800 -0.60006499 0.77522600 1.905766e-42
12.27660000 -29.27100000 426.16000000 -0.16838901 -0.59903598 0.78281599 1.905766e-42
13.27000000 -30.57460000 425.41599000 -0.14626899 -0.59148502 0.79293799 1.905766e-42
14.30850000 -31.84989900 424.68399000 -0.12259200 -0.58351201 0.80279797 1.905766e-42
15.69370000 -32.73580200 423.95200000 -0.09291920 -0.57874697 0.81019598 1.905766e-42
17.33840000 -33.46580100 423.90399000 -0.05914180 -0.57881200 0.81331402 1.905766e-42
19.11940000 -33.71340200 423.82300000 -0.02579880 -0.58149302 0.81314200 1.905766e-42
20.40810000 -34.72589900 423.07800000 0.00054089 -0.57277399 0.81971300 1.905766e-42
21.96170000 -35.45109900 422.53000000 0.02974200 -0.56734502 0.82294297 1.905766e-42
23.46980100 -36.21070100 421.90701000 0.05752530 -0.56049901 0.82615501 1.905766e-42
24.11430000 -37.44400000 420.76501000 0.07244270 -0.54527301 0.83512199 1.905766e-42
25.87949900 -37.78710200 420.68500000 0.10127900 -0.54407001 0.83290499 1.905766e-42
27.32560000 -38.47900000 419.86600000 0.12660401 -0.53505898 0.83527499 1.905766e-42
29.11580100 -38.52109900 419.68399000 0.15465200 -0.53444302 0.83093500 1.905766e-42
30.54310000 -39.30009800 418.91199000 0.17858601 -0.52367198 0.83299100 1.905766e-42
31.82980000 -40.23420000 418.06799000 0.20004199 -0.51063198 0.83620399 1.905766e-42
33.25450100 -40.98149900 417.26099000 0.22295600 -0.49874601 0.83758199 1.905766e-42
34.47359800 -41.93669900 416.34399000 0.24631800 -0.48736900 0.83773398 1.905766e-42
35.82140000 -42.74369800 415.46500000 0.27218601 -0.47774100 0.83527100 1.905766e-42
37.14939900 -43.51549900 414.52600000 0.29737899 -0.46745601 0.83249700 1.905766e-42
38.37070100 -44.36869800 413.51599000 0.32053000 -0.45575100 0.83039200 1.905766e-42
39.66299800 -45.13180200 412.52200000 0.34403801 -0.44412300 0.82727998 1.905766e-42
41.07870100 -45.74480100 411.59500000 0.36847299 -0.43304399 0.82261801 1.905766e-42
42.44509900 -46.37189900 410.60501000 0.39169899 -0.42103401 0.81810898 1.905766e-42
43.94350100 -46.88520100 409.75000000 0.41541901 -0.40951800 0.81223297 1.905766e-42
45.28360000 -47.54650100 408.74701000 0.43651500 -0.39607999 0.80782098 1.905766e-42
46.62469900 -48.15280200 407.70999000 0.45706099 -0.38232300 0.80307198 1.905766e-42
47.63740200 -49.17150100 406.62601000 0.47288299 -0.36742401 0.80086303 1.905766e-42
48.98160200 -49.78590000 405.59799000 0.49688900 -0.35712299 0.79092598 1.905766e-42
49.95060000 -50.82770200 404.49600000 0.51340997 -0.34301901 0.78660601 1.905766e-42
51.19469800 -51.07469900 403.21799000 0.53552902 -0.33014801 0.77731001 1.905766e-42
52.77019900 -50.33689900 402.75601000 0.55932403 -0.32591400 0.76219302 1.905766e-42
54.21670200 -50.01509900 401.73499000 0.58264500 -0.31531101 0.74906898 1.905766e-42
55.59790000 -49.75009900 400.61099000 0.60471398 -0.30286899 0.73660803 1.905766e-42
57.04690200 -49.38340000 399.60800000 0.62628102 -0.29070300 0.72336900 1.905766e-42
58.41840000 -48.74470100 398.63300000 0.64757502 -0.28044400 0.70851803 1.905766e-42
59.72420100 -48.17729900 397.53201000 0.66785598 -0.26822099 0.69428098 1.905766e-42
61.00519900 -47.62149800 396.39600000 0.68725300 -0.25496399 0.68020397 1.905766e-42
62.18909800 -46.47650100 395.67001000 0.70665199 -0.25022000 0.66184098 1.905766e-42
63.37440100 -45.52590200 394.70401000 0.72594303 -0.23984700 0.64457703 1.905766e-42
64.54830200 -44.98130000 393.45300000 0.74362999 -0.22141300 0.63086498 1.905766e-42
65.32440200 -43.51369900 392.75800000 0.76234001 -0.21534400 0.61029899 1.905766e-42
66.19780000 -41.94430200 392.63901000 0.77921897 -0.21518300 0.58865398 1.905766e-42
67.11499800 -40.59109900 391.88599000 0.79725301 -0.20649000 0.56723100 1.905766e-42
68.05909700 -39.34339900 390.99600000 0.81459099 -0.19517900 0.54621100 1.905766e-42
68.99220300 -38.35380200 389.81699000 0.83044499 -0.17882299 0.52762097 1.905766e-42
69.74070000 -37.13710000 388.72198000 0.84586298 -0.16543500 0.50709701 1.905766e-42
70.45829800 -35.50540200 388.47198000 0.86005700 -0.16496600 0.48279101 1.905766e-42
71.10220300 -33.90959900 387.94400000 0.87401199 -0.16126201 0.45836300 1.905766e-42
71.55809800 -32.16840000 387.92099000 0.88574499 -0.16614100 0.43341899 1.905766e-42
72.23660300 -30.67490000 387.17999000 0.89836901 -0.15901200 0.40944901 1.905766e-42
72.69360400 -28.94590000 386.97601000 0.90909201 -0.16141500 0.38405299 1.905766e-42
73.16860200 -27.32370000 386.35699000 0.91984200 -0.15758500 0.35924599 1.905766e-42
73.66610000 -25.78650100 385.56400000 0.92993098 -0.15093599 0.33533001 1.905766e-42
74.05049900 -24.03260000 385.43600000 0.93799198 -0.15466800 0.31024000 1.905766e-42
74.45590200 -22.40679900 384.77899000 0.94629401 -0.15059100 0.28609499 1.905766e-42
74.78459900 -20.64170100 384.65100000 0.95276397 -0.15425600 0.26161999 1.905766e-42
75.00180100 -18.85590000 384.58899000 0.95763499 -0.16514100 0.23593301 1.905766e-42
75.20559700 -17.17810100 383.97000000 0.96168703 -0.17806999 0.20844300 1.905766e-42
75.47250400 -15.39810000 383.98499000 0.96275401 -0.20050301 0.18139400 1.905766e-42
75.89769700 -13.64930000 383.95401000 0.96296698 -0.21997000 0.15590900 1.905766e-42
76.11570000 -11.86780000 383.81699000 0.96258003 -0.23654900 0.13222700 1.905766e-42
