# .PCD v0.7 - Point Cloud Data file format
# 3 43 0
# 1 18 0
# 19 31 0
# 32 43 0
VERSION 0.7
FIELDS x y z normal_x normal_y normal_z curvature
SIZE 4 4 4 4 4 4 4
TYPE F F F F F F F
COUNT 1 1 1 1 1 1 1
WIDTH 43
HEIGHT 1
VIEWPOINT 0 0 0 1 0 0 0
POINTS 43
DATA ascii
2.84986000 7.38714980 446.48999000 0.17980200 0.62929201 -0.75608402 1.905766e-42
1.39128990 8.31919960 446.98401000 0.14475100 0.64188802 -0.75301200 1.905766e-42
0.76646501 9.92377000 447.99899000 0.11933000 0.66590399 -0.73643202 1.905766e-42
-0.11933400 11.04940000 449.08899000 0.10044900 0.70449102 -0.70256799 1.905766e-42
-0.26717800 12.29600000 450.37900000 0.08527960 0.74743301 -0.65884101 1.905766e-42
-0.69514197 13.38250000 451.74899000 0.05190160 0.77967000 -0.62403703 1.905766e-42
-1.06794000 14.49590000 453.11301000 0.02051980 0.80540299 -0.59237301 1.905766e-42
-1.45498000 15.41400000 454.61200000 -0.00190065 0.82513201 -0.56493598 1.905766e-42
-1.32403000 16.49150100 456.04800000 0.00500966 0.84069800 -0.54148102 1.905766e-42
-1.16079000 17.46550000 457.55301000 0.02684280 0.85684299 -0.51487899 1.905766e-42
-0.86694300 18.28720100 459.12701000 0.04933040 0.86592102 -0.49774301 1.905766e-42
-0.81862301 19.28280100 460.62601000 0.04863600 0.87306100 -0.48517901 1.905766e-42
-0.93378502 20.00560000 462.27100000 0.03421690 0.87830597 -0.47687301 1.905766e-42
-0.66821098 20.98310100 463.75900000 0.02708940 0.88213998 -0.47020799 1.905766e-42
-0.60330200 21.75560000 465.38300000 0.01324110 0.89180797 -0.45222101 1.905766e-42
-0.36361000 22.54310000 466.98401000 0.01289650 0.90451300 -0.42625001 1.905766e-42
-0.08551480 23.24360100 468.61899000 0.03067010 0.91600698 -0.39998701 1.905766e-42
-0.17243500 23.99729900 470.25101000 0.06756720 0.91387898 -0.40032601 1.905766e-42
1.36479000 24.00960000 471.18701000 0.16425200 0.92271203 -0.34874499 1.905766e-42
3.02428010 23.59370000 470.62799000 0.18310399 0.92139798 -0.34277999 1.905766e-42
4.51070020 23.05470100 469.76700000 0.21011400 0.91188198 -0.35259601 1.905766e-42
6.19294980 22.43250100 469.61600000 0.24080101 0.90256602 -0.35691500 1.905766e-42
7.71450000 21.75020000 468.93799000 0.26359099 0.89360899 -0.36329401 1.905766e-42
9.14768980 21.01050000 468.13901000 0.27043000 0.88544101 -0.37797001 1.905766e-42
10.61750000 20.27080000 467.40900000 0.27703401 0.87611502 -0.39455700 1.905766e-42
11.99000000 19.45350100 466.57999000 0.27049801 0.86884397 -0.41465899 1.905766e-42
13.36890000 18.67820000 465.72101000 0.28827301 0.85457301 -0.43197700 1.905766e-42
14.26270000 17.63579900 464.55701000 0.32266799 0.84020501 -0.43582201 1.905766e-42
14.86770000 16.71180000 463.13599000 0.33830899 0.83302301 -0.43774301 1.905766e-42
15.83430000 15.68350000 462.01801000 0.35511401 0.82360798 -0.44222599 1.905766e-42
16.95270000 14.64250000 461.06699000 0.38066199 0.80030203 -0.46326301 1.905766e-42
17.97330100 13.46420000 460.16699000 0.43183601 0.74917400 -0.50225198 1.905766e-42
17.26090000 12.85230000 458.63101000 0.44213799 0.71981502 -0.53514600 1.905766e-42
15.95340000 12.69350000 457.40399000 0.39836401 0.71956700 -0.56879598 1.905766e-42
14.84250000 12.19500000 456.07901000 0.37779501 0.71656501 -0.58635002 1.905766e-42
13.81120000 11.66330000 454.70300000 0.36833501 0.69892198 -0.61305600 1.905766e-42
12.42180000 11.30370000 453.61600000 0.33339801 0.68996000 -0.64249700 1.905766e-42
11.14600000 10.80280000 452.44901000 0.29175800 0.68365800 -0.66894603 1.905766e-42
9.89237020 10.21380000 451.29999000 0.27312601 0.67014599 -0.69015002 1.905766e-42
8.43550010 9.74238970 450.35400000 0.26770300 0.65321797 -0.70826602 1.905766e-42
7.07782980 9.11448000 449.35199000 0.26096100 0.63212901 -0.72959799 1.905766e-42
5.68431000 8.64264970 448.31500000 0.26325500 0.63224399 -0.72867298 1.905766e-42
4.30713990 7.97313020 447.36899000 0.21832199 0.63231200 -0.74331498 1.905766e-42
