# .PCD v0.7 - Point Cloud Data file format
# 2 150 1
# 1 72 1
# 73 150 0
VERSION 0.7
FIELDS x y z normal_x normal_y normal_z curvature
SIZE 4 4 4 4 4 4 4
TYPE F F F F F F F
COUNT 1 1 1 1 1 1 1
WIDTH 150
HEIGHT 1
VIEWPOINT 0 0 0 1 0 0 0
POINTS 150
DATA ascii
-4.40861990 -65.40129900 437.18900000 -0.34796801 0.19343400 -0.91733402 1.905766e-42
-5.18042990 -63.88130200 437.76700000 -0.38236201 0.16162500 -0.90976697 1.905766e-42
-5.48805000 -62.11809900 437.95801000 -0.35696200 0.14965101 -0.92205399 1.905766e-42
-5.92936990 -60.40750100 438.30399000 -0.34636801 0.13199200 -0.92876601 1.905766e-42
-6.72912980 -58.92879900 438.94699000 -0.36077499 0.10040700 -0.92723298 1.905766e-42
-7.04722980 -57.16770200 439.14001000 -0.33069900 0.09133680 -0.93930602 1.905766e-42
-7.78163000 -55.64880000 439.76700000 -0.35251200 0.06842270 -0.93330300 1.905766e-42
-8.20641990 -53.90930200 439.95099000 -0.34653401 0.05982360 -0.93612802 1.905766e-42
-8.70254040 -52.19990200 440.21899000 -0.35461399 0.04919640 -0.93371803 1.905766e-42
-8.79111000 -50.40240100 440.18399000 -0.31784001 0.05123020 -0.94675899 1.905766e-42
-9.49812980 -48.80780000 440.62799000 -0.35626000 0.03249840 -0.93382102 1.905766e-42
-9.89692020 -47.05880000 440.77701000 -0.35239199 0.02013830 -0.93563598 1.905766e-42
-10.27480000 -45.30759800 440.95200000 -0.37605700 0.00422403 -0.92658699 1.905766e-42
-10.33350000 -43.50980000 440.88699000 -0.34148401 -0.00138498 -0.93988699 1.905766e-42
-11.02800000 -41.91540100 441.35101000 -0.43690899 -0.02214770 -0.89923298 1.905766e-42
-11.16980000 -40.12450000 441.23901000 -0.41942599 -0.02810530 -0.90735400 1.905766e-42
-11.59570000 -38.38610100 441.42999000 -0.45270801 -0.03998500 -0.89076197 1.905766e-42
-11.87350000 -36.60969900 441.51501000 -0.46256500 -0.04897190 -0.88523197 1.905766e-42
-11.92600000 -34.81880200 441.34201000 -0.43791601 -0.05406400 -0.89738899 1.905766e-42
-12.38260000 -33.32989900 441.58899000 -0.47499800 -0.06548960 -0.87754703 1.905766e-42
-12.57590000 -31.54150000 441.52399000 -0.46998000 -0.07776270 -0.87924498 1.905766e-42
-12.70570000 -29.75289900 441.36801000 -0.45743600 -0.08973350 -0.88470298 1.905766e-42
-12.77670000 -27.96940000 441.13699000 -0.43863800 -0.10078700 -0.89299399 1.905766e-42
-12.76860000 -26.18380000 440.90900000 -0.41513500 -0.11122400 -0.90293503 1.905766e-42
-13.01590000 -24.40290100 440.82501000 -0.42075300 -0.12348200 -0.89873201 1.905766e-42
-13.28000000 -22.62280100 440.78500000 -0.42968500 -0.13529900 -0.89278501 1.905766e-42
-13.43710000 -20.83490000 440.64801000 -0.42696500 -0.14584300 -0.89242899 1.905766e-42
-13.54810000 -19.05150000 440.43100000 -0.41874099 -0.15561400 -0.89467299 1.905766e-42
-13.56170000 -17.28820000 440.07001000 -0.40010199 -0.16750100 -0.90103400 1.905766e-42
-13.57090000 -15.52290000 439.71799000 -0.38503000 -0.17953900 -0.90527201 1.905766e-42
-13.58920000 -13.76550000 439.32901000 -0.37344000 -0.19080000 -0.90781999 1.905766e-42
-13.57810000 -12.01740000 438.89999000 -0.36272401 -0.20137601 -0.90987903 1.905766e-42
-13.61350000 -10.25850000 438.51901000 -0.36091000 -0.21102200 -0.90841299 1.905766e-42
-13.57460000 -8.50689030 438.10599000 -0.35722300 -0.22031300 -0.90766400 1.905766e-42
-13.58490000 -6.74774980 437.72501000 -0.36212099 -0.22846401 -0.90369898 1.905766e-42
-13.54500000 -4.99144980 437.33301000 -0.36735001 -0.23634900 -0.89955097 1.905766e-42
-13.42850000 -3.25647000 436.86801000 -0.36912900 -0.24420901 -0.89671999 1.905766e-42
-12.74230000 -1.83311000 436.00601000 -0.31731001 -0.26040599 -0.91186798 1.905766e-42
-13.30810000 -0.12433800 435.99701000 -0.38670099 -0.25253001 -0.88695598 1.905766e-42
-12.89910000 1.40301000 435.13699000 -0.36289999 -0.26633099 -0.89295602 1.905766e-42
-12.79060000 3.08453990 434.50400000 -0.37219200 -0.27349901 -0.88694501 1.905766e-42
-12.70260000 4.81046010 434.00000000 -0.39033699 -0.27888501 -0.87741703 1.905766e-42
-12.17670000 6.32008980 433.17300000 -0.36365601 -0.29823399 -0.88250297 1.905766e-42
-12.40200000 8.07765960 432.85699000 -0.41810000 -0.29323801 -0.85977000 1.905766e-42
-12.00880000 9.64284990 432.05899000 -0.40866101 -0.31007099 -0.85840100 1.905766e-42
-11.73610000 11.26620000 431.33099000 -0.41314301 -0.32055700 -0.85238302 1.905766e-42
-11.95950000 13.02190000 431.00299000 -0.47340500 -0.30693701 -0.82563698 1.905766e-42
-11.30510000 14.32790000 429.95099000 -0.42702100 -0.33245301 -0.84090900 1.905766e-42
-11.17920000 16.00200100 429.30200000 -0.44825599 -0.33327600 -0.82945400 1.905766e-42
-10.52070000 17.30789900 428.25299000 -0.39371201 -0.36046901 -0.84560800 1.905766e-42
-10.38820000 18.97069900 427.57599000 -0.41723299 -0.36134601 -0.83387399 1.905766e-42
-10.37780000 20.67240000 426.98901000 -0.45932600 -0.35436800 -0.81452000 1.905766e-42
-9.78973010 21.97740000 425.89801000 -0.41353601 -0.38181901 -0.82656097 1.905766e-42
-9.31412030 23.42729900 424.94299000 -0.38806900 -0.40265799 -0.82901698 1.905766e-42
-9.09584050 25.04460000 424.18399000 -0.41147301 -0.40424299 -0.81686997 1.905766e-42
-8.88175010 26.65460000 423.40799000 -0.43539301 -0.40463001 -0.80418098 1.905766e-42
-8.12664030 27.78160100 422.22501000 -0.37558001 -0.44010001 -0.81563002 1.905766e-42
-8.01241970 29.42680000 421.50400000 -0.41386899 -0.43335000 -0.80057502 1.905766e-42
-7.23721980 30.47220000 420.26001000 -0.36046401 -0.46412200 -0.80910897 1.905766e-42
-6.68282990 31.82040000 419.20401000 -0.34372199 -0.47944701 -0.80745602 1.905766e-42
-6.43319990 33.38280100 418.34601000 -0.36444399 -0.48001400 -0.79797697 1.905766e-42
-5.55680990 34.38390000 417.13400000 -0.31869400 -0.51011002 -0.79888803 1.905766e-42
-5.43046000 35.97869900 416.30899000 -0.35813600 -0.50479501 -0.78544301 1.905766e-42
-4.94274000 37.33160000 415.22601000 -0.36881900 -0.50752300 -0.77871197 1.905766e-42
-4.10222010 38.34669900 414.00000000 -0.34650600 -0.52809399 -0.77527398 1.905766e-42
-3.67786000 39.74499900 412.94901000 -0.35961699 -0.52729398 -0.76982898 1.905766e-42
-3.23660990 41.13510100 411.89401000 -0.36998701 -0.52741897 -0.76481301 1.905766e-42
-2.49951000 42.21880000 410.66000000 -0.35348800 -0.54229498 -0.76220900 1.905766e-42
-2.14372990 43.70340000 409.70700000 -0.37681600 -0.53815103 -0.75392503 1.905766e-42
-1.48427000 44.86080200 408.49600000 -0.37908599 -0.54948902 -0.74455100 1.905766e-42
-0.68315899 45.79830200 407.18500000 -0.38044900 -0.56896299 -0.72906703 1.905766e-42
-0.09504860 47.01540000 405.99600000 -0.40103599 -0.57885200 -0.71000099 1.905766e-42
0.68893301 47.94640000 404.67001000 -0.38821700 -0.60440099 -0.69569099 1.905766e-42
2.29707000 47.25989900 404.24301000 -0.26345399 -0.66161501 -0.70203900 1.905766e-42
3.39528990 46.08520100 405.05200000 -0.17884700 -0.68015701 -0.71091503 1.905766e-42
4.26623010 44.87070100 406.05499000 -0.13683499 -0.68374902 -0.71677297 1.905766e-42
5.10297010 43.61800000 407.04001000 -0.12764101 -0.68133801 -0.72075403 1.905766e-42
6.04398010 42.39870100 407.97198000 -0.13015500 -0.67583001 -0.72547400 1.905766e-42
6.80258990 41.19670100 409.07599000 -0.13993500 -0.66744101 -0.73139697 1.905766e-42
7.56224010 39.89699900 410.06299000 -0.15580800 -0.65696698 -0.73764402 1.905766e-42
7.86925980 38.52310200 411.18399000 -0.16796499 -0.64620900 -0.74444699 1.905766e-42
8.00049020 37.14320000 412.33301000 -0.17689200 -0.63472801 -0.75221598 1.905766e-42
9.43056010 36.30139900 413.03000000 -0.20941900 -0.61967999 -0.75639898 1.905766e-42
10.25430000 34.86610000 413.73801000 -0.22088000 -0.60435301 -0.76548702 1.905766e-42
10.59820000 33.36830100 414.67499000 -0.23059300 -0.58936799 -0.77425599 1.905766e-42
11.13450000 31.89480000 415.55899000 -0.24074000 -0.57413000 -0.78257197 1.905766e-42
11.97440000 30.48210000 416.29300000 -0.25176701 -0.55913699 -0.78992403 1.905766e-42
12.72100000 29.02689900 417.04501000 -0.26154399 -0.54499698 -0.79660100 1.905766e-42
13.92730000 27.78590000 417.53900000 -0.27251700 -0.53285801 -0.80112201 1.905766e-42
14.40280000 26.27479900 418.39401000 -0.27145201 -0.52220500 -0.80846500 1.905766e-42
15.06510000 24.74980000 419.08401000 -0.26525000 -0.51286900 -0.81646103 1.905766e-42
15.77890000 23.25110100 419.78000000 -0.26120299 -0.50357503 -0.82352000 1.905766e-42
16.04430000 21.69940000 420.65302000 -0.26440200 -0.49414399 -0.82819903 1.905766e-42
17.25420000 20.48310100 421.19800000 -0.26495400 -0.48082200 -0.83582902 1.905766e-42
17.68770000 18.87140100 421.87201000 -0.27517599 -0.46438000 -0.84180099 1.905766e-42
18.76090000 17.49340100 422.30701000 -0.28958100 -0.44478101 -0.84753299 1.905766e-42
18.44710000 15.91970000 423.12201000 -0.30137399 -0.43329301 -0.84937102 1.905766e-42
19.01009900 14.30540000 423.68500000 -0.31972000 -0.41504499 -0.85177302 1.905766e-42
19.71330100 12.72260000 424.17599000 -0.30450901 -0.39974299 -0.86456901 1.905766e-42
20.30850000 11.10290000 424.68701000 -0.30041799 -0.38407299 -0.87306201 1.905766e-42
21.46820100 9.80533980 425.14700000 -0.28551999 -0.36692801 -0.88534898 1.905766e-42
21.75519900 8.07759950 425.56299000 -0.29624999 -0.35233101 -0.88774902 1.905766e-42
22.09320100 6.38762000 426.08200000 -0.30722499 -0.33624601 -0.89025402 1.905766e-42
21.82539900 4.72759010 426.72501000 -0.32725400 -0.32446900 -0.88748199 1.905766e-42
22.29750100 3.03552010 427.11700000 -0.33538699 -0.30795300 -0.89032602 1.905766e-42
21.60500000 1.59080000 427.93701000 -0.35589200 -0.30082899 -0.88478398 1.905766e-42
22.40500100 0.00579900 428.23401000 -0.36055899 -0.28412399 -0.88840902 1.905766e-42
22.41220100 -1.73898990 428.67599000 -0.37342799 -0.27123499 -0.88712102 1.905766e-42
22.48480000 -3.47808000 429.13400000 -0.38562000 -0.25831801 -0.88575900 1.905766e-42
22.57250000 -5.22298000 429.56799000 -0.39762500 -0.24556699 -0.88407701 1.905766e-42
22.45280100 -6.93930010 430.09698000 -0.40852699 -0.23383901 -0.88228399 1.905766e-42
21.96019900 -8.53332040 430.77200000 -0.41334900 -0.22308800 -0.88282198 1.905766e-42
22.67639900 -10.16530000 431.02499000 -0.42515600 -0.20644601 -0.88126200 1.905766e-42
22.87120100 -11.94860000 431.17300000 -0.43289700 -0.19183600 -0.88079500 1.905766e-42
22.56580000 -13.66470000 431.62201000 -0.43219900 -0.17945001 -0.88374299 1.905766e-42
22.57970000 -15.43390000 431.95300000 -0.43175799 -0.16617800 -0.88655001 1.905766e-42
22.49399900 -17.19319900 432.32401000 -0.42671999 -0.15313500 -0.89132500 1.905766e-42
22.43660000 -18.96089900 432.65900000 -0.41842300 -0.14026301 -0.89735597 1.905766e-42
22.77319900 -20.72670000 432.75101000 -0.40906301 -0.13156700 -0.90297198 1.905766e-42
22.50560000 -22.46750100 433.12201000 -0.39187199 -0.12443100 -0.91156602 1.905766e-42
22.43960000 -24.24869900 433.37399000 -0.37292799 -0.12001600 -0.92006600 1.905766e-42
23.15250000 -25.89220000 433.54901000 -0.34880999 -0.12744300 -0.92848802 1.905766e-42
22.08840000 -27.28820000 433.94699000 -0.33579001 -0.10875500 -0.93563700 1.905766e-42
21.71970000 -29.03410000 434.18399000 -0.31430501 -0.09975890 -0.94406599 1.905766e-42
21.51660000 -30.81010100 434.39499000 -0.28904399 -0.09300730 -0.95278698 1.905766e-42
20.41710100 -32.15539900 434.86600000 -0.29286599 -0.06981630 -0.95360100 1.905766e-42
19.85540000 -33.84610000 435.12299000 -0.28314799 -0.05510060 -0.95749199 1.905766e-42
18.84779900 -35.28070100 435.53101000 -0.30060101 -0.03949910 -0.95293200 1.905766e-42
17.97050100 -36.82640100 435.81601000 -0.32277700 -0.03431430 -0.94585299 1.905766e-42
17.49580000 -38.55659900 435.96100000 -0.31019199 -0.03804350 -0.94991201 1.905766e-42
16.44319900 -39.98260100 436.27499000 -0.26673800 -0.03545840 -0.96311700 1.905766e-42
16.53809900 -41.31679900 437.47900000 -0.24645200 -0.03954360 -0.96834803 1.905766e-42
16.10409900 -42.79299900 438.41299000 -0.20959701 -0.03908320 -0.97700697 1.905766e-42
14.94190000 -44.02130100 437.79700000 -0.16102900 -0.02876210 -0.98653001 1.905766e-42
13.92990000 -45.48049900 437.50201000 -0.10450300 -0.01542290 -0.99440497 1.905766e-42
12.42990000 -46.47079800 437.40601000 -0.08453790 0.01904560 -0.99623799 1.905766e-42
11.23300000 -47.81520100 437.39801000 -0.11445200 0.04908290 -0.99221599 1.905766e-42
10.05480000 -49.17580000 437.42099000 -0.14833300 0.07713360 -0.98592502 1.905766e-42
9.67168050 -50.92660100 437.25400000 -0.13420500 0.08438860 -0.98735398 1.905766e-42
8.82960990 -52.51750200 437.26801000 -0.15390000 0.09721520 -0.98329198 1.905766e-42
7.49389980 -53.71569800 437.40900000 -0.17949700 0.11842200 -0.97660500 1.905766e-42
6.87267020 -55.40070000 437.28601000 -0.15563001 0.12761199 -0.97953802 1.905766e-42
6.49159000 -57.15800100 437.20599000 -0.12931100 0.13399100 -0.98250902 1.905766e-42
4.89343020 -57.98619800 437.21399000 -0.12389500 0.15990099 -0.97932702 1.905766e-42
4.13770010 -59.61710000 437.11899000 -0.10162400 0.17493500 -0.97932100 1.905766e-42
3.01257990 -61.00289900 436.88800000 -0.08253500 0.19691999 -0.97693902 1.905766e-42
1.48924010 -61.95900000 436.81500000 -0.06601050 0.22342700 -0.97248298 1.905766e-42
-0.26848099 -62.34660000 436.80200000 -0.07734650 0.23864500 -0.96802199 1.905766e-42
-1.35160990 -63.76039900 436.54099000 -0.10424400 0.24671000 -0.96346599 1.905766e-42
-2.87858010 -64.71350100 436.53699000 -0.19475301 0.23331800 -0.95269799 1.905766e-42
