# .PCD v0.7 - Point Cloud Data file format
# 4 57 0
# 1 15 0
# 16 31 0
# 32 42 0
# 43 57 0
VERSION 0.7
FIELDS x y z normal_x normal_y normal_z curvature
SIZE 4 4 4 4 4 4 4
TYPE F F F F F F F
COUNT 1 1 1 1 1 1 1
WIDTH 57
HEIGHT 1
VIEWPOINT 0 0 0 1 0 0 0
POINTS 57
DATA ascii
17.19020100 13.51250000 389.06500000 0.19809900 -0.82317603 -0.53210700 1.905766e-42
18.13960100 14.88250000 387.19400000 0.26239499 -0.83908999 -0.47652599 1.905766e-42
19.66510000 14.84060000 388.14801000 0.28436500 -0.81483501 -0.50515401 1.905766e-42
21.33740000 15.05020000 388.78101000 0.30520400 -0.81937802 -0.48525301 1.905766e-42
23.01930000 15.65510000 388.56799000 0.22601700 -0.83048999 -0.50911999 1.905766e-42
24.77770000 15.99640000 388.74600000 0.14250299 -0.82789201 -0.54248297 1.905766e-42
26.53760000 16.00600100 389.12299000 0.09912840 -0.82670403 -0.55383599 1.905766e-42
28.06010100 15.58720000 389.98700000 0.06620780 -0.83147001 -0.55160999 1.905766e-42
29.82320000 15.40670000 390.30200000 0.00638392 -0.82387400 -0.56673700 1.905766e-42
31.61990000 15.32190000 390.37100000 -0.04220650 -0.81132001 -0.58307701 1.905766e-42
33.41220100 15.15610000 390.38699000 -0.09696080 -0.79719001 -0.59589100 1.905766e-42
35.19279900 14.89270000 390.38501000 -0.16774701 -0.78314197 -0.59879100 1.905766e-42
36.90010100 14.32260000 390.39401000 -0.29158401 -0.73832899 -0.60815299 1.905766e-42
38.39820100 13.35800000 390.64899000 -0.39015099 -0.68373501 -0.61667597 1.905766e-42
40.00920100 12.57410000 390.47501000 -0.41194701 -0.67392600 -0.61328900 1.905766e-42
41.26810100 11.42790000 391.05899000 -0.41208199 -0.67321098 -0.61398399 1.905766e-42
40.87540100 10.27410000 392.38400000 -0.40128800 -0.66733497 -0.62740099 1.905766e-42
40.21260100 9.33763030 393.77100000 -0.39150199 -0.65168798 -0.64963800 1.905766e-42
39.17680000 8.72270970 395.10800000 -0.38432899 -0.62476301 -0.67967802 1.905766e-42
38.34400200 7.78829000 396.40201000 -0.38474801 -0.59854400 -0.70264798 1.905766e-42
37.35870000 6.90767000 397.62399000 -0.40160999 -0.57078099 -0.71618301 1.905766e-42
36.89889900 5.63538980 398.81100000 -0.39349899 -0.56220400 -0.72738302 1.905766e-42
35.74599800 4.88360980 399.97198000 -0.39270899 -0.55016500 -0.73695201 1.905766e-42
35.31539900 3.57066010 401.12500000 -0.37716600 -0.53492302 -0.75604397 1.905766e-42
35.60920000 2.27531000 402.34000000 -0.33950701 -0.54177600 -0.76890397 1.905766e-42
34.35400000 1.30673000 403.19199000 -0.32308301 -0.51931602 -0.79115599 1.905766e-42
34.33919900 -0.18852800 404.19400000 -0.28087801 -0.51506698 -0.80982298 1.905766e-42
34.32759900 -1.76454000 405.06400000 -0.23786700 -0.51865399 -0.82122898 1.905766e-42
33.75849900 -3.20904990 405.97400000 -0.18433100 -0.52077198 -0.83355701 1.905766e-42
32.77090100 -4.10026980 407.18701000 -0.13233501 -0.50586098 -0.85240400 1.905766e-42
32.86690100 -5.66472010 408.07199000 -0.07771590 -0.51858097 -0.85149002 1.905766e-42
32.01340100 -7.11882020 408.70200000 -0.01803810 -0.50091100 -0.86531103 1.905766e-42
30.21610100 -7.17887020 408.78000000 -0.01110860 -0.44482699 -0.89554799 1.905766e-42
28.48720000 -6.68771980 408.68301000 -0.05765560 -0.37633699 -0.92468703 1.905766e-42
26.70070100 -6.88473990 408.78000000 0.02699600 -0.37863901 -0.92515099 1.905766e-42
24.98380100 -6.44529010 408.46500000 0.09428350 -0.38941199 -0.91622603 1.905766e-42
23.31090000 -5.93782000 408.03699000 0.15396599 -0.39838201 -0.90420502 1.905766e-42
21.56620000 -6.35608010 407.89099000 0.20590100 -0.39555299 -0.89506602 1.905766e-42
19.83630000 -6.36930990 407.39401000 0.25023001 -0.38403100 -0.88876599 1.905766e-42
18.16150100 -6.97907020 407.14200000 0.31255701 -0.36506701 -0.87694597 1.905766e-42
16.47769900 -7.16649010 406.53400000 0.39018300 -0.36218399 -0.84650999 1.905766e-42
14.86310000 -7.75891020 406.00299000 0.39893901 -0.36790401 -0.83993697 1.905766e-42
13.49360000 -6.87546010 405.23901000 0.29408699 -0.38293299 -0.87571400 1.905766e-42
13.00640000 -5.35536000 404.40701000 0.23766001 -0.40983400 -0.88065499 1.905766e-42
12.76790000 -3.76818990 403.59201000 0.19377699 -0.43947700 -0.87710398 1.905766e-42
12.75670000 -2.18391990 402.73801000 0.14351501 -0.47861901 -0.86621398 1.905766e-42
12.77090000 -0.61622298 401.85400000 0.09192450 -0.51556802 -0.85190302 1.905766e-42
12.77450000 0.91380298 400.90601000 0.04396800 -0.55484098 -0.83079398 1.905766e-42
13.24750000 2.30941010 399.87201000 0.08651160 -0.58339000 -0.80757099 1.905766e-42
13.46450000 3.78129010 398.85901000 0.10973800 -0.60945201 -0.78519201 1.905766e-42
13.78700000 5.18707990 397.78201000 0.12785400 -0.63906199 -0.75845402 1.905766e-42
14.20060000 6.53876020 396.66699000 0.13725100 -0.67325002 -0.72656500 1.905766e-42
14.51810000 7.81961010 395.44299000 0.13085200 -0.70335799 -0.69868797 1.905766e-42
14.93730000 9.06202980 394.20999000 0.13508600 -0.72290599 -0.67761201 1.905766e-42
15.33690000 10.29260000 392.95901000 0.13803700 -0.74340999 -0.65443599 1.905766e-42
15.80200000 11.47940000 391.68799000 0.14709800 -0.76887202 -0.62225300 1.905766e-42
16.55439900 12.50680000 390.41599000 0.17166300 -0.79629201 -0.58004397 1.905766e-42
