# .PCD v0.7 - Point Cloud Data file format
# 6 165 0
# 1 31 0
# 32 51 0
# 52 75 0
# 76 105 0
# 106 134 0
# 135 165 0
VERSION 0.7
FIELDS x y z normal_x normal_y normal_z curvature
SIZE 4 4 4 4 4 4 4
TYPE F F F F F F F
COUNT 1 1 1 1 1 1 1
WIDTH 165
HEIGHT 1
VIEWPOINT 0 0 0 1 0 0 0
POINTS 165
DATA ascii
44.42330200 22.78109900 462.09900000 0.11107800 0.91070002 -0.39785299 1.905766e-42
42.68800000 22.74390000 461.62201000 0.11398200 0.90782398 -0.40356299 1.905766e-42
41.17559800 22.46439900 460.68701000 0.13014300 0.90531802 -0.40430301 1.905766e-42
39.40900000 22.79770100 460.77701000 0.14998300 0.90360397 -0.40125301 1.905766e-42
37.62900200 23.06480000 460.79401000 0.16229600 0.90463698 -0.39407000 1.905766e-42
35.84709900 23.31940100 460.79401000 0.16942000 0.90755397 -0.38424200 1.905766e-42
34.07580200 23.63909900 460.78699000 0.17285401 0.91161901 -0.37292299 1.905766e-42
32.32149900 24.04159900 460.76300000 0.17388099 0.91622001 -0.36098000 1.905766e-42
30.58950000 24.53160100 460.77600000 0.17560101 0.92055601 -0.34891400 1.905766e-42
28.81270000 24.77560000 460.62299000 0.18400700 0.92377102 -0.33583999 1.905766e-42
27.05710000 25.15460000 460.74301000 0.19132000 0.92584902 -0.32588500 1.905766e-42
25.29080000 25.50009900 460.71799000 0.20017400 0.92746401 -0.31581700 1.905766e-42
23.52739900 25.85650100 460.77701000 0.20859200 0.92870599 -0.30658600 1.905766e-42
21.80740000 26.30360000 461.06299000 0.21508200 0.92979097 -0.29871300 1.905766e-42
20.16600000 26.34240000 460.32599000 0.22686499 0.93117702 -0.28538099 1.905766e-42
18.43730000 26.72230000 459.99799000 0.23289500 0.93301600 -0.27430001 1.905766e-42
16.76580000 26.78280100 459.33301000 0.23746300 0.93500501 -0.26339400 1.905766e-42
15.06920000 27.00639900 458.77499000 0.24149799 0.93690300 -0.25276601 1.905766e-42
13.41700000 27.65480000 458.47501000 0.24381500 0.93899000 -0.24259500 1.905766e-42
11.71650000 27.99410100 457.99200000 0.24783300 0.94058198 -0.23212899 1.905766e-42
10.01930000 28.50960000 457.68600000 0.25109401 0.94211799 -0.22218201 1.905766e-42
8.43305970 28.77590000 456.87799000 0.25722301 0.94282001 -0.21195900 1.905766e-42
6.83078000 29.04260100 456.10300000 0.27062699 0.94179201 -0.19947100 1.905766e-42
5.30876020 29.22640000 455.16000000 0.28751200 0.93963200 -0.18554799 1.905766e-42
3.82771990 29.46520000 454.16501000 0.30461201 0.93697703 -0.17113300 1.905766e-42
2.34403990 29.79010000 453.19901000 0.32188001 0.93375403 -0.15651600 1.905766e-42
1.54997000 29.58700000 451.59601000 0.33720401 0.93044001 -0.14343800 1.905766e-42
0.17731901 30.04040000 450.52399000 0.35488299 0.92595601 -0.12909000 1.905766e-42
-1.27128990 30.66020000 449.65302000 0.37274900 0.92075199 -0.11521100 1.905766e-42
-2.62324000 31.11020100 448.55399000 0.38099301 0.91855198 -0.10538700 1.905766e-42
-2.74106000 30.90810000 447.97400000 0.38283601 0.91796601 -0.10380400 1.905766e-42
-4.31898020 31.77420000 447.98099000 0.38384399 0.91813600 -0.09843790 1.905766e-42
-5.54114010 32.36019900 449.16599000 0.38212201 0.91908598 -0.09625140 1.905766e-42
-6.89125010 32.92639900 450.21301000 0.38200501 0.91947800 -0.09291310 1.905766e-42
-8.34395030 33.44580100 451.14001000 0.38401499 0.91906601 -0.08860380 1.905766e-42
-9.00683980 34.10400000 452.67899000 0.38243401 0.91993201 -0.08642930 1.905766e-42
-10.55080000 34.74520100 453.34601000 0.38981801 0.91740799 -0.08003560 1.905766e-42
-12.01590000 35.34330000 454.20401000 0.40267500 0.91103101 -0.08874630 1.905766e-42
-13.08480000 36.09730100 455.44000000 0.41265801 0.90540498 -0.09978200 1.905766e-42
-14.25560000 36.80279900 456.61099000 0.42216599 0.90007502 -0.10789000 1.905766e-42
-15.66320000 37.47110000 457.51300000 0.42831099 0.89661199 -0.11241300 1.905766e-42
-16.68240000 38.24869900 458.77600000 0.42749000 0.89601499 -0.12004200 1.905766e-42
-18.12039900 39.00230000 459.55301000 0.42672399 0.89622098 -0.12122100 1.905766e-42
-19.46279900 39.71040000 460.52100000 0.42390800 0.89753699 -0.12136100 1.905766e-42
-20.48990100 40.41500100 461.82101000 0.41828001 0.90016198 -0.12144600 1.905766e-42
-21.71620000 41.12979900 462.92801000 0.41315499 0.90287203 -0.11885200 1.905766e-42
-23.02669900 41.92089800 463.87500000 0.40832499 0.90568399 -0.11404800 1.905766e-42
-24.47150000 42.62279900 464.68701000 0.40378600 0.90855902 -0.10713000 1.905766e-42
-25.73550000 43.27769900 465.78799000 0.39678699 0.91229802 -0.10135500 1.905766e-42
-26.81570100 43.93579900 467.06900000 0.38771799 0.91673303 -0.09630580 1.905766e-42
-28.27930100 44.56909900 467.90399000 0.38140699 0.92024302 -0.08764820 1.905766e-42
-29.36850000 45.23899800 469.17099000 0.37019700 0.92527401 -0.08259540 1.905766e-42
-29.87200000 45.59730100 470.86099000 0.35397500 0.93137902 -0.08506320 1.905766e-42
-29.53240000 45.65269900 472.62799000 0.33725399 0.93623698 -0.09859070 1.905766e-42
-29.44010000 45.79890100 474.42001000 0.31837201 0.94135797 -0.11173100 1.905766e-42
-29.36330000 45.99050100 476.20801000 0.29823199 0.94609898 -0.12631300 1.905766e-42
-29.48740000 46.18009900 477.99399000 0.27652201 0.95076799 -0.13991299 1.905766e-42
-29.71260100 46.30419900 479.77499000 0.25482601 0.95435500 -0.15578599 1.905766e-42
-29.21750100 46.75590100 481.44601000 0.23591401 0.95504802 -0.17952301 1.905766e-42
-29.53160100 47.11660000 483.18100000 0.21342701 0.95730603 -0.19497000 1.905766e-42
-29.57390000 47.59719800 484.91501000 0.19121800 0.95799398 -0.21373799 1.905766e-42
-29.75930000 47.95930100 486.66901000 0.16833900 0.95824498 -0.23114499 1.905766e-42
-29.67450000 48.41180000 488.40900000 0.14635400 0.95667398 -0.25170499 1.905766e-42
-29.69310000 48.88639800 490.14499000 0.12376100 0.95466000 -0.27075201 1.905766e-42
-29.95290000 49.44290200 491.83701000 0.09956910 0.95376599 -0.28357700 1.905766e-42
-30.09230000 50.04940000 493.52600000 0.07593010 0.95177901 -0.29723999 1.905766e-42
-30.82850100 50.43069800 495.12399000 0.05062010 0.95198298 -0.30193701 1.905766e-42
-31.10000000 51.16109800 496.74600000 0.02613590 0.94956797 -0.31247100 1.905766e-42
-31.66090000 51.55649900 498.41000000 0.00069422 0.94797701 -0.31833801 1.905766e-42
-32.14360000 52.00109900 500.08600000 -0.02467450 0.94535398 -0.32511100 1.905766e-42
-32.68069800 52.49340100 501.73199000 -0.04770690 0.93989098 -0.33812699 1.905766e-42
-33.05889900 53.17369800 503.35501000 -0.06893320 0.93324798 -0.35255700 1.905766e-42
-33.72530000 53.74050100 504.92801000 -0.08768490 0.92782801 -0.36255500 1.905766e-42
-34.17590000 54.49399900 506.50000000 -0.10415200 0.92100197 -0.37537599 1.905766e-42
-35.03039900 55.00630200 507.99899000 -0.11551000 0.91591799 -0.38438499 1.905766e-42
-34.19599900 55.79259900 509.38699000 -0.12642400 0.90326601 -0.41003400 1.905766e-42
-32.67430100 56.21950100 510.24799000 -0.13833800 0.89213699 -0.43006301 1.905766e-42
-30.93180100 56.65459800 510.36700000 -0.15060200 0.88333499 -0.44389001 1.905766e-42
-29.29140100 57.17540000 510.89401000 -0.16928700 0.86997700 -0.46312201 1.905766e-42
-27.79980100 57.64490100 511.78601000 -0.19596200 0.85341603 -0.48299101 1.905766e-42
-26.13260100 58.31200000 511.90900000 -0.18807200 0.84313202 -0.50374299 1.905766e-42
-24.41550100 58.84610000 511.98801000 -0.16662800 0.83471602 -0.52486598 1.905766e-42
-22.90160000 59.62620200 512.57098000 -0.15666699 0.82463998 -0.54352999 1.905766e-42
-21.41810000 60.12860100 513.45801000 -0.15079100 0.81445003 -0.56029701 1.905766e-42
-19.69430000 60.62519800 513.31000000 -0.13107900 0.80290198 -0.58152097 1.905766e-42
-17.97870100 61.10920000 513.56000000 -0.11730900 0.78940803 -0.60255599 1.905766e-42
-16.41890000 61.57650000 514.32703000 -0.11882400 0.77424097 -0.62163597 1.905766e-42
-14.67920000 62.03659800 514.28900000 -0.11346400 0.75709802 -0.64337301 1.905766e-42
-12.95350000 62.54309800 514.36401000 -0.11065500 0.73992902 -0.66352099 1.905766e-42
-11.49750000 63.30180000 515.10199000 -0.11893100 0.72402602 -0.67944300 1.905766e-42
-9.85515980 63.82690000 515.61798000 -0.12158800 0.70663399 -0.69705403 1.905766e-42
-8.15653990 64.42120400 515.65503000 -0.11989300 0.68878299 -0.71498501 1.905766e-42
-6.38463020 64.73359700 515.60199000 -0.11486300 0.67132097 -0.73221201 1.905766e-42
-4.82425020 65.51999700 516.03497000 -0.11782300 0.65236098 -0.74869400 1.905766e-42
-3.43179990 66.45790100 516.68402000 -0.12432700 0.63228703 -0.76469302 1.905766e-42
-1.74683000 67.06459800 516.86499000 -0.12183900 0.61270398 -0.78086400 1.905766e-42
-0.17700399 67.87570200 517.20801000 -0.12262000 0.59204698 -0.79651999 1.905766e-42
1.34545000 68.75980400 517.58301000 -0.12393300 0.57110900 -0.81146502 1.905766e-42
2.99455000 69.45390300 517.78003000 -0.12122100 0.55156600 -0.82527602 1.905766e-42
4.27405020 70.58680000 518.34497000 -0.12577800 0.53061002 -0.83823198 1.905766e-42
5.80214980 71.50050400 518.60901000 -0.12540001 0.51095998 -0.85040897 1.905766e-42
7.18644000 72.57330300 519.02502000 -0.12745599 0.49078399 -0.86190897 1.905766e-42
8.71650980 73.46050300 519.35999000 -0.12606600 0.47164401 -0.87273097 1.905766e-42
10.09110000 74.54540300 519.77600000 -0.12647700 0.45227501 -0.88286501 1.905766e-42
11.77670000 75.15490000 519.94202000 -0.11967200 0.43618599 -0.89186299 1.905766e-42
13.52330000 75.58969900 519.92798000 -0.11030600 0.42285699 -0.89945799 1.905766e-42
15.19460000 75.19529700 519.38800000 -0.09630020 0.41961199 -0.90258098 1.905766e-42
16.95890000 74.89559900 519.19501000 -0.08861950 0.41530100 -0.90535700 1.905766e-42
18.47909900 74.10610200 518.64203000 -0.08733730 0.41864201 -0.90394199 1.905766e-42
20.16190000 73.59520000 518.25897000 -0.09214710 0.42036101 -0.90266597 1.905766e-42
21.69300100 72.80519900 517.73798000 -0.09941090 0.42617601 -0.89916199 1.905766e-42
23.36190000 72.30030100 517.29102000 -0.11061800 0.42971501 -0.89616299 1.905766e-42
24.71540100 71.31150100 516.63397000 -0.12036400 0.43787399 -0.89094299 1.905766e-42
26.48060000 71.18910200 516.30499000 -0.13529700 0.43687201 -0.88929099 1.905766e-42
28.10220000 70.62509900 515.76398000 -0.14813299 0.43848300 -0.88644803 1.905766e-42
29.76650000 70.18070200 515.24200000 -0.14422800 0.44113800 -0.88577402 1.905766e-42
31.46120100 69.80780000 514.76300000 -0.13888600 0.44484499 -0.88477302 1.905766e-42
33.00980000 69.10099800 514.17798000 -0.13626100 0.45473400 -0.88014197 1.905766e-42
34.61619900 68.49420200 513.63800000 -0.13508500 0.46336001 -0.87581402 1.905766e-42
36.41510000 68.51000200 513.57898000 -0.13423800 0.46544200 -0.87483901 1.905766e-42
37.95460100 67.83969900 512.92999000 -0.13563700 0.47411200 -0.86995399 1.905766e-42
39.42900100 67.09439800 512.21600000 -0.13766301 0.48210999 -0.86522698 1.905766e-42
40.86629900 66.37519800 511.40500000 -0.13898900 0.48891100 -0.86119002 1.905766e-42
42.48460000 65.83950000 510.82700000 -0.12921099 0.49614099 -0.85857397 1.905766e-42
44.22129800 65.60620100 510.41599000 -0.12042400 0.50108600 -0.85697800 1.905766e-42
46.00989900 65.55639600 510.22000000 -0.11325000 0.50509501 -0.85560101 1.905766e-42
47.55030100 64.80030100 509.67599000 -0.11094000 0.51097101 -0.85240901 1.905766e-42
48.56110000 63.59520000 508.80099000 -0.11392900 0.52062899 -0.84614801 1.905766e-42
49.70660000 62.46220000 507.99799000 -0.11774900 0.52956599 -0.84005600 1.905766e-42
50.52669900 61.20710000 507.00201000 -0.12326700 0.53793401 -0.83392602 1.905766e-42
51.67419800 60.14030100 506.11600000 -0.13006000 0.54563701 -0.82786798 1.905766e-42
52.48379900 58.87500000 505.12399000 -0.13796499 0.55274898 -0.82184798 1.905766e-42
53.26979800 57.61859900 504.10300000 -0.14690401 0.55934697 -0.81581300 1.905766e-42
54.68709900 56.74509800 503.41800000 -0.15686500 0.56389099 -0.81081498 1.905766e-42
55.62410000 55.53749800 502.46799000 -0.15877900 0.56632400 -0.80874401 1.905766e-42
55.31959900 54.07809800 501.45901000 -0.14924499 0.57484800 -0.80453402 1.905766e-42
54.86750000 52.65119900 500.45901000 -0.13607800 0.58861798 -0.79687601 1.905766e-42
54.49610100 51.24110000 499.40399000 -0.12050200 0.60577798 -0.78645599 1.905766e-42
54.36280100 49.75159800 498.40201000 -0.10253600 0.62409800 -0.77458900 1.905766e-42
54.35500000 48.36920200 497.24899000 -0.08192860 0.64137298 -0.76284301 1.905766e-42
53.89400100 47.09949900 496.06000000 -0.06497690 0.65752000 -0.75063002 1.905766e-42
53.58150100 45.77280000 494.88400000 -0.04924610 0.67133701 -0.73951399 1.905766e-42
53.85060100 44.39070100 493.76300000 -0.03004010 0.68051100 -0.73212099 1.905766e-42
53.63859900 43.11909900 492.50699000 -0.01610370 0.69250000 -0.72123802 1.905766e-42
52.99879800 41.98360100 491.26501000 -0.00891436 0.70601797 -0.70813698 1.905766e-42
52.14250200 40.87910100 490.13101000 -0.00640671 0.71990401 -0.69404399 1.905766e-42
51.85459900 39.56399900 488.93600000 0.00388271 0.73146099 -0.68187201 1.905766e-42
51.06160000 38.48519900 487.73300000 0.00538986 0.74403399 -0.66811901 1.905766e-42
50.53690000 37.24779900 486.53500000 0.01054030 0.75526798 -0.65533102 1.905766e-42
49.78360000 36.26129900 485.23199000 0.01094240 0.76708698 -0.64144999 1.905766e-42
49.25230000 35.16830100 483.90399000 0.01540860 0.77836198 -0.62762702 1.905766e-42
47.98979900 34.51599900 482.79901000 0.01531800 0.79258901 -0.60956401 1.905766e-42
47.91750000 33.40530000 481.38501000 0.03350490 0.80252802 -0.59567302 1.905766e-42
47.20360200 32.51580000 479.99200000 0.04636320 0.81472200 -0.57799500 1.905766e-42
46.39070100 31.62100000 478.65799000 0.05592300 0.82543701 -0.56171799 1.905766e-42
46.59009900 30.58880000 477.19699000 0.07043860 0.83121300 -0.55147398 1.905766e-42
46.27909900 29.62140100 475.71201000 0.08083210 0.83868498 -0.53858501 1.905766e-42
45.56359900 28.82620000 474.26401000 0.08776540 0.84684002 -0.52455598 1.905766e-42
45.27190000 27.97870100 472.70300000 0.09797500 0.85351902 -0.51176703 1.905766e-42
44.51499900 27.22069900 471.25601000 0.10518700 0.86348897 -0.49327800 1.905766e-42
44.94810100 26.31660100 469.76099000 0.11153900 0.87502098 -0.47105899 1.905766e-42
44.62530100 25.38710000 468.25400000 0.11586900 0.88564801 -0.44966900 1.905766e-42
44.51969900 24.71890100 466.58600000 0.11845500 0.89425802 -0.43159199 1.905766e-42
44.88840100 24.00190000 464.97699000 0.11744800 0.90147197 -0.41659799 1.905766e-42
45.50600100 23.28739900 463.44400000 0.11355400 0.90802997 -0.40322101 1.905766e-42
