# .PCD v0.7 - Point Cloud Data file format
# 3 66 0
# 1 27 0
# 28 50 0
# 51 66 0
VERSION 0.7
FIELDS x y z normal_x normal_y normal_z curvature
SIZE 4 4 4 4 4 4 4
TYPE F F F F F F F
COUNT 1 1 1 1 1 1 1
WIDTH 66
HEIGHT 1
VIEWPOINT 0 0 0 1 0 0 0
POINTS 66
DATA ascii
43.70949900 10.48400000 435.10101000 -0.05317910 0.75230598 -0.65666401 1.905766e-42
42.30490100 9.66954990 434.32401000 -0.10075200 0.76208901 -0.63958502 1.905766e-42
40.54130200 9.33660980 434.18701000 -0.12202000 0.76355398 -0.63411099 1.905766e-42
39.09830100 8.51587960 433.49100000 -0.12612399 0.76791000 -0.62801802 1.905766e-42
37.83869900 7.58847000 432.60001000 -0.09952130 0.78670698 -0.60925198 1.905766e-42
36.35559800 6.80753990 431.94400000 -0.07194350 0.79885101 -0.59721100 1.905766e-42
34.57650000 6.65786980 431.71500000 -0.03741410 0.80502898 -0.59205401 1.905766e-42
33.00859800 6.09027000 431.03699000 -0.00330592 0.81137800 -0.58451200 1.905766e-42
31.49150100 5.52110000 430.25299000 0.02600930 0.81917202 -0.57295799 1.905766e-42
29.97960100 5.00678010 429.42300000 0.04546780 0.82663900 -0.56089300 1.905766e-42
28.32340000 4.75322010 428.76501000 0.03613270 0.82771802 -0.55997998 1.905766e-42
26.57200100 4.52779010 428.41599000 0.01436910 0.83668798 -0.54749101 1.905766e-42
25.13100100 3.94632010 427.50800000 0.00713025 0.83856201 -0.54475999 1.905766e-42
23.39240100 3.73650000 427.09100000 0.01755340 0.84980398 -0.52680701 1.905766e-42
21.67009900 3.49465990 426.62799000 0.05215930 0.85026097 -0.52376997 1.905766e-42
20.35880100 2.89659000 425.54901000 0.08432110 0.84737802 -0.52425200 1.905766e-42
18.57500100 3.00255990 425.33301000 0.10267900 0.83125103 -0.54633200 1.905766e-42
16.92779900 2.77947000 424.64301000 0.09312070 0.81386101 -0.57354999 1.905766e-42
15.30010000 2.34942010 424.00601000 0.07330550 0.80061299 -0.59468001 1.905766e-42
13.80980000 1.75360000 423.19101000 0.05289180 0.78950602 -0.61145902 1.905766e-42
12.03290000 1.83079000 422.91400000 0.03345310 0.78740299 -0.61553103 1.905766e-42
10.36110000 1.58295000 422.29501000 0.02063590 0.77434999 -0.63242102 1.905766e-42
8.90038970 0.78300202 421.61200000 -0.04648630 0.69268000 -0.71974599 1.905766e-42
7.30043980 -0.04145390 421.59100000 -0.11404100 0.63012201 -0.76807600 1.905766e-42
6.83054020 0.72161502 421.99899000 -0.13714500 0.68626702 -0.71430302 1.905766e-42
5.11112020 0.99143201 422.45801000 -0.20569900 0.71481800 -0.66837400 1.905766e-42
3.37082000 0.79775298 422.87500000 -0.22217201 0.71494901 -0.66293800 1.905766e-42
1.63456000 0.82119399 423.35001000 -0.20002501 0.71982098 -0.66471702 1.905766e-42
2.39175010 1.89953010 424.57599000 -0.19644700 0.76113999 -0.61812198 1.905766e-42
3.06003000 3.01197000 425.82300000 -0.18644500 0.77736998 -0.60077798 1.905766e-42
3.33275010 4.03353980 427.28000000 -0.18454100 0.78301102 -0.59400100 1.905766e-42
4.47632980 5.13471980 428.12799000 -0.17001000 0.78639501 -0.59386802 1.905766e-42
4.98560000 6.21752980 429.47299000 -0.14970601 0.80530399 -0.57365000 1.905766e-42
5.70057010 7.22177980 430.78500000 -0.10752100 0.80511200 -0.58329499 1.905766e-42
6.39616010 8.21247960 432.11700000 -0.07323150 0.79773599 -0.59854299 1.905766e-42
7.30104020 9.39140990 433.13199000 -0.03665660 0.78999901 -0.61201102 1.905766e-42
7.90953020 10.28070000 434.57401000 -0.01024220 0.77828300 -0.62783003 1.905766e-42
8.43439960 11.34210000 435.92999000 0.01984310 0.75055897 -0.66050500 1.905766e-42
9.30200960 12.46570000 437.03699000 0.04796320 0.72834599 -0.68352902 1.905766e-42
10.33560000 13.56290000 438.01999000 0.08894340 0.72077203 -0.68744200 1.905766e-42
11.31340000 14.44150000 439.25000000 0.12831099 0.72390002 -0.67786801 1.905766e-42
12.41100000 15.23180000 440.43799000 0.17064799 0.72479802 -0.66749299 1.905766e-42
13.60490000 15.98670000 441.55301000 0.15075099 0.72381002 -0.67333001 1.905766e-42
14.44510000 17.02770000 442.75800000 0.09078990 0.73549801 -0.67141598 1.905766e-42
15.16220000 18.11820000 443.99701000 0.04728060 0.73963201 -0.67134899 1.905766e-42
16.35450000 18.95590000 445.05399000 0.01187260 0.73417902 -0.67885202 1.905766e-42
17.69720100 19.75680000 445.94601000 -0.02170420 0.72155499 -0.69201702 1.905766e-42
18.60210000 20.69920000 447.18399000 -0.05453600 0.70731699 -0.70478898 1.905766e-42
20.22340000 21.44770100 447.41000000 -0.06840400 0.69386297 -0.71685100 1.905766e-42
21.70290000 22.23189900 448.07001000 -0.03825850 0.70044702 -0.71267802 1.905766e-42
23.10660000 23.03220000 448.86401000 -0.00618503 0.69984603 -0.71426702 1.905766e-42
24.90119900 23.06690000 448.99899000 0.03937710 0.68160498 -0.73066002 1.905766e-42
26.08639900 22.02879900 448.12799000 0.08974260 0.63693899 -0.76567298 1.905766e-42
27.60080000 21.16070000 447.68900000 0.08371480 0.62124699 -0.77913100 1.905766e-42
28.94700100 20.18510100 446.99899000 0.01388550 0.66482198 -0.74687302 1.905766e-42
29.97730100 19.18240000 445.91599000 -0.04144590 0.68417501 -0.72814000 1.905766e-42
31.49710100 18.53700100 445.19901000 -0.07575730 0.70776600 -0.70237303 1.905766e-42
32.65630000 17.65760000 444.13901000 -0.07298700 0.71062797 -0.69977200 1.905766e-42
33.78239800 16.73730100 443.07901000 -0.05426640 0.70628899 -0.70583999 1.905766e-42
35.27000000 16.08120000 442.30701000 -0.03485770 0.70216000 -0.71116501 1.905766e-42
36.38690200 15.03730000 441.35599000 -0.03012860 0.69579101 -0.71761203 1.905766e-42
37.89500000 14.39460000 440.61301000 -0.06206880 0.70982599 -0.70163703 1.905766e-42
39.35900100 13.71870000 439.81299000 -0.10679600 0.73343903 -0.67131299 1.905766e-42
40.49399900 12.97340000 438.63199000 -0.13323700 0.74798203 -0.65020901 1.905766e-42
41.63539900 12.21380000 437.46500000 -0.13779201 0.75963700 -0.63558197 1.905766e-42
42.76699800 11.44750000 436.29401000 -0.11068700 0.75812298 -0.64264899 1.905766e-42
