# .PCD v0.7 - Point Cloud Data file format
# 3 93 0
# 1 34 0
# 35 50 0
# 51 93 0
VERSION 0.7
FIELDS x y z normal_x normal_y normal_z curvature
SIZE 4 4 4 4 4 4 4
TYPE F F F F F F F
COUNT 1 1 1 1 1 1 1
WIDTH 93
HEIGHT 1
VIEWPOINT 0 0 0 1 0 0 0
POINTS 93
DATA ascii
39.29040100 7.61748980 474.65399000 -0.44590300 0.78114200 -0.43702099 1.905766e-42
38.18199900 6.54665990 473.72400000 -0.39680001 0.79004300 -0.46731299 1.905766e-42
36.58549900 5.72970010 473.57001000 -0.31102699 0.81792802 -0.48399901 1.905766e-42
36.06440000 5.55948020 473.56900000 -0.28184801 0.82631499 -0.48761201 1.905766e-42
34.46239900 4.81461000 473.22400000 -0.19045299 0.84239298 -0.50408500 1.905766e-42
33.61619900 3.97227000 471.87701000 -0.16637500 0.84666401 -0.50545001 1.905766e-42
32.05180000 3.98409010 472.76700000 -0.04931960 0.83101702 -0.55405700 1.905766e-42
30.34630000 4.55915020 472.79401000 0.04678170 0.80296397 -0.59418899 1.905766e-42
28.64550000 4.76123000 473.34799000 -0.03691330 0.82630903 -0.56200600 1.905766e-42
26.86470000 4.57429980 473.53201000 -0.11059900 0.83881301 -0.53306699 1.905766e-42
25.09420000 4.25450990 473.58499000 -0.17149800 0.84774202 -0.50191897 1.905766e-42
23.31629900 4.00670000 473.71799000 -0.20556501 0.85973299 -0.46755001 1.905766e-42
21.63780000 4.02955010 474.36801000 -0.15011400 0.87400699 -0.46214500 1.905766e-42
19.84980000 3.82277990 474.38699000 -0.08921080 0.88031101 -0.46593300 1.905766e-42
18.11500000 3.95443010 474.84799000 -0.02937160 0.87923402 -0.47548401 1.905766e-42
16.31950000 3.99212000 474.97000000 0.02991450 0.87110502 -0.49018401 1.905766e-42
14.51960000 3.99896000 474.95200000 0.06995280 0.86250001 -0.50120002 1.905766e-42
12.77330000 4.36814020 475.18500000 0.11083400 0.85008901 -0.51484400 1.905766e-42
11.00000000 4.67685990 475.19400000 0.14979900 0.83869702 -0.52359003 1.905766e-42
9.23836990 5.04633000 475.19699000 0.18737701 0.82617998 -0.53133500 1.905766e-42
7.49633980 5.49553010 475.25601000 0.19654600 0.82110500 -0.53587002 1.905766e-42
5.73484990 5.86150980 475.20001000 0.19812700 0.82026798 -0.53656900 1.905766e-42
4.00491000 6.34919020 475.29700000 0.20015299 0.82025403 -0.53583699 1.905766e-42
2.28161000 6.37631990 474.77802000 0.20512600 0.82267499 -0.53021598 1.905766e-42
0.53318602 6.64348980 474.44400000 0.21627900 0.82440603 -0.52304697 1.905766e-42
-1.20146000 7.12139990 474.39301000 0.23292100 0.82340503 -0.51744699 1.905766e-42
-2.92967010 7.62466000 474.39801000 0.24911299 0.82160097 -0.51275098 1.905766e-42
-4.57618000 7.70886990 473.67599000 0.26587000 0.82075298 -0.50564599 1.905766e-42
-6.29830980 8.22791000 473.60599000 0.28075299 0.81783199 -0.50232399 1.905766e-42
-7.91781000 8.28674980 472.82300000 0.28642899 0.81726199 -0.50004202 1.905766e-42
-9.63829990 8.77379990 472.61600000 0.29153201 0.81728399 -0.49704799 1.905766e-42
-11.17530000 8.79419990 471.67899000 0.29756701 0.81588399 -0.49576899 1.905766e-42
-12.88370000 9.22021010 471.30499000 0.30436200 0.81518000 -0.49279299 1.905766e-42
-14.36380000 8.95631980 470.31601000 0.29423001 0.81874800 -0.49303299 1.905766e-42
-16.03050000 9.54127980 469.96899000 0.27922201 0.82440799 -0.49232799 1.905766e-42
-16.99300000 10.49550000 471.15399000 0.27094701 0.82725102 -0.49218199 1.905766e-42
-16.82270100 11.29190000 472.75900000 0.27277800 0.82859099 -0.48890600 1.905766e-42
-16.27050000 12.07160000 474.28500000 0.27743801 0.83029002 -0.48336899 1.905766e-42
-15.92990000 12.97170000 475.80600000 0.27665299 0.82154900 -0.49851701 1.905766e-42
-15.96080000 13.88740000 477.35501000 0.27465600 0.81437403 -0.51123297 1.905766e-42
-15.84060000 14.83480000 478.88101000 0.27282101 0.80927402 -0.52023500 1.905766e-42
-15.78090000 15.81550000 480.38901000 0.26991799 0.80543500 -0.52765501 1.905766e-42
-15.59050000 16.74440000 481.91901000 0.26538101 0.80227500 -0.53472197 1.905766e-42
-15.96970000 17.73090000 483.37601000 0.25785899 0.80105102 -0.54021001 1.905766e-42
-16.05520100 18.75989900 484.85001000 0.24559300 0.80214101 -0.54429102 1.905766e-42
-15.88980000 19.77879900 486.32501000 0.22773100 0.80432302 -0.54882002 1.905766e-42
-16.25760100 20.77440100 487.77899000 0.20196500 0.81142300 -0.54845399 1.905766e-42
-16.31360100 21.80400100 489.25400000 0.16796599 0.81974298 -0.54754901 1.905766e-42
-16.56870100 22.78160100 490.74399000 0.12257200 0.83412498 -0.53778398 1.905766e-42
-16.80800100 23.65560000 492.29901000 0.07134760 0.84691799 -0.52691501 1.905766e-42
-16.78710000 24.53850000 493.86801000 0.02354730 0.85026300 -0.52583200 1.905766e-42
-15.03920000 24.86470000 494.14801000 0.05123940 0.83033299 -0.55490601 1.905766e-42
-13.37360000 25.28669900 494.68399000 0.08291940 0.81708300 -0.57052600 1.905766e-42
-11.87700000 25.62949900 495.62399000 0.11277800 0.80929101 -0.57648098 1.905766e-42
-10.09890000 25.60540000 495.90302000 0.17060100 0.78332400 -0.59774399 1.905766e-42
-8.51609040 25.85350000 496.72299000 0.21166199 0.76063699 -0.61370200 1.905766e-42
-6.95178990 26.10470000 497.57700000 0.21838801 0.75626099 -0.61674601 1.905766e-42
-5.27152010 26.23560000 498.20999000 0.20007400 0.76080799 -0.61736602 1.905766e-42
-3.55855990 26.27269900 498.76099000 0.18555801 0.76195002 -0.62048399 1.905766e-42
-2.02668000 26.37760000 499.70099000 0.17145900 0.76646900 -0.61897200 1.905766e-42
-0.24683601 26.30649900 499.95999000 0.16191500 0.76138502 -0.62775600 1.905766e-42
1.53773000 26.07280000 499.98599000 0.15938500 0.75386798 -0.63740098 1.905766e-42
3.31244990 25.77230100 499.99500000 0.15818900 0.74890500 -0.64352000 1.905766e-42
5.07342000 25.39950000 499.99899000 0.15812300 0.74672699 -0.64606202 1.905766e-42
6.83019020 25.00740100 499.99600000 0.15818900 0.74758500 -0.64505303 1.905766e-42
8.52834030 24.86260000 500.57599000 0.15528101 0.75151199 -0.64118499 1.905766e-42
10.14790000 24.30400100 500.02301000 0.15045001 0.75088298 -0.64306998 1.905766e-42
11.80840000 24.04880000 500.67001000 0.14611700 0.75304002 -0.64154601 1.905766e-42
13.48540000 23.64270000 500.15701000 0.14168701 0.75085098 -0.64509499 1.905766e-42
15.22340000 23.18770000 500.04599000 0.12930700 0.75101900 -0.64749497 1.905766e-42
16.66099900 22.44030000 499.26099000 0.11420100 0.75083101 -0.65054703 1.905766e-42
18.31380100 21.86000100 498.84698000 0.09560360 0.75414902 -0.64970702 1.905766e-42
19.99340100 21.30810000 498.50900000 0.07520800 0.75943899 -0.64621598 1.905766e-42
21.56889900 20.71430000 497.87299000 0.04684890 0.76498902 -0.64233702 1.905766e-42
23.06760000 20.04610100 497.13300000 0.00611665 0.77100998 -0.63679302 1.905766e-42
24.62170000 19.53330000 496.38300000 -0.03874250 0.77725703 -0.62798899 1.905766e-42
25.94409900 18.80960100 495.39999000 -0.08712870 0.77479500 -0.62617999 1.905766e-42
27.72370000 18.60520000 495.22198000 -0.12858699 0.78674603 -0.60373503 1.905766e-42
28.97860000 18.16550100 494.00900000 -0.16029100 0.78929800 -0.59271801 1.905766e-42
30.21180000 17.59380000 492.82901000 -0.19591799 0.78973198 -0.58132499 1.905766e-42
31.81570100 17.34260000 492.05200000 -0.23261601 0.79741699 -0.55678999 1.905766e-42
33.09870100 16.95439900 490.85001000 -0.27979401 0.80088103 -0.52943802 1.905766e-42
34.34330000 16.56720000 489.60901000 -0.32320800 0.80897498 -0.49101600 1.905766e-42
35.59429900 16.33379900 488.33600000 -0.25634500 0.82536399 -0.50305301 1.905766e-42
36.81710100 15.99830000 487.05801000 -0.20031101 0.81330103 -0.54627502 1.905766e-42
38.09560000 15.29050000 486.00800000 -0.15301999 0.78776097 -0.59667200 1.905766e-42
39.16420000 14.47700000 484.80899000 -0.12685101 0.75433397 -0.64411902 1.905766e-42
39.86190000 13.77460000 483.30600000 -0.12714000 0.75947303 -0.63799399 1.905766e-42
40.26630000 12.84130000 481.82101000 -0.16763900 0.78143400 -0.60104698 1.905766e-42
40.03710200 11.66630000 480.47601000 -0.25571701 0.79188401 -0.55455297 1.905766e-42
40.01430100 10.63560000 479.00101000 -0.34919801 0.80232400 -0.48408300 1.905766e-42
40.02980000 9.64527030 477.49799000 -0.41853499 0.79939699 -0.43103701 1.905766e-42
39.87070100 8.67078020 475.99301000 -0.45123199 0.78924799 -0.41650599 1.905766e-42
