# .PCD v0.7 - Point Cloud Data file format
# 2 171 0
# 1 71 0
# 72 171 0
VERSION 0.7
FIELDS x y z normal_x normal_y normal_z curvature
SIZE 4 4 4 4 4 4 4
TYPE F F F F F F F
COUNT 1 1 1 1 1 1 1
WIDTH 171
HEIGHT 1
VIEWPOINT 0 0 0 1 0 0 0
POINTS 171
DATA ascii
74.12850200 9.39741990 432.81601000 0.63094902 -0.71941799 0.29041499 1.905766e-42
73.12239800 9.08514020 434.27600000 0.63207603 -0.71186900 0.30614001 1.905766e-42
72.20960200 8.91547010 435.81799000 0.62912202 -0.70808202 0.32066301 1.905766e-42
71.13040200 8.62304970 437.22800000 0.62713701 -0.70288903 0.33562699 1.905766e-42
70.05940200 8.27299980 438.63199000 0.62357599 -0.69870001 0.35067299 1.905766e-42
68.94889800 7.88364980 439.99399000 0.61857003 -0.69520700 0.36614001 1.905766e-42
67.97499800 7.88468980 441.50800000 0.60807198 -0.69732702 0.37945101 1.905766e-42
66.79309800 7.67897990 442.85001000 0.59827203 -0.69708699 0.39514700 1.905766e-42
65.49870300 7.07901000 443.94699000 0.58940399 -0.69397002 0.41353300 1.905766e-42
64.62529800 7.36401990 445.49500000 0.57231498 -0.70053798 0.42626601 1.905766e-42
63.37270000 6.99430990 446.73401000 0.55978298 -0.70033902 0.44290900 1.905766e-42
62.00780100 6.63054990 447.84900000 0.54744601 -0.69949001 0.45936599 1.905766e-42
61.37519800 7.17661000 449.44400000 0.53195697 -0.70480800 0.46932700 1.905766e-42
60.29140100 7.26379010 450.87799000 0.51756603 -0.70571500 0.48383099 1.905766e-42
59.13800000 7.49227000 452.24100000 0.50343502 -0.70582402 0.49836200 1.905766e-42
57.85329800 7.54893020 453.50101000 0.48976299 -0.70483398 0.51316798 1.905766e-42
56.81000100 7.90638020 454.92300000 0.47633499 -0.70346701 0.52748400 1.905766e-42
55.57730100 8.01136970 456.23099000 0.46295699 -0.70149201 0.54183000 1.905766e-42
54.56460200 8.55307960 457.61700000 0.45084399 -0.69748598 0.55700302 1.905766e-42
53.36180100 8.93126010 458.90100000 0.43792701 -0.69313103 0.57252902 1.905766e-42
52.40610100 9.77904990 460.16901000 0.42755601 -0.68555403 0.58924699 1.905766e-42
51.16730100 10.11630000 461.43100000 0.41419300 -0.68023700 0.60474998 1.905766e-42
49.75740100 9.61250970 462.42999000 0.39759901 -0.68144000 0.61445397 1.905766e-42
48.77299900 10.37250000 463.73099000 0.38613501 -0.67337298 0.63045102 1.905766e-42
47.70660000 10.90550000 465.07999000 0.37279400 -0.66691101 0.64517701 1.905766e-42
46.89040000 11.84600000 466.38000000 0.36278501 -0.65865397 0.65921301 1.905766e-42
45.81230200 12.46460000 467.68201000 0.34832299 -0.65396398 0.67156702 1.905766e-42
45.07049900 13.46650000 468.98001000 0.33747700 -0.64749300 0.68327302 1.905766e-42
43.64659900 13.81080000 470.02600000 0.31906900 -0.64508200 0.69430798 1.905766e-42
42.33929800 14.38210000 471.12399000 0.30126101 -0.64227700 0.70478499 1.905766e-42
41.19200100 15.15180000 472.27701000 0.28360099 -0.64000201 0.71411997 1.905766e-42
40.22520100 16.09970100 473.46301000 0.26734400 -0.63678801 0.72320700 1.905766e-42
39.19080000 16.99160000 474.63599000 0.25169599 -0.63183898 0.73309499 1.905766e-42
38.18140000 17.97510000 475.75601000 0.23693401 -0.62580198 0.74312502 1.905766e-42
37.30530200 19.13660000 476.81601000 0.22331400 -0.61880797 0.75313199 1.905766e-42
36.10390100 19.91480100 477.90701000 0.20780100 -0.61081898 0.76401502 1.905766e-42
35.01260000 20.94050000 478.90500000 0.19295999 -0.60215098 0.77471298 1.905766e-42
33.67530100 21.58869900 479.92099000 0.17692900 -0.59374303 0.78496200 1.905766e-42
33.01110100 22.95070100 480.89200000 0.16516900 -0.58391398 0.79483598 1.905766e-42
31.62859900 23.64150000 481.81500000 0.14905600 -0.57503301 0.80443698 1.905766e-42
30.74360100 24.84550100 482.81900000 0.13601600 -0.56445199 0.81418300 1.905766e-42
29.70330000 25.98780100 483.74200000 0.12214300 -0.55380201 0.82364100 1.905766e-42
28.76450000 27.19220000 484.69501000 0.10917000 -0.54266798 0.83282202 1.905766e-42
27.83020000 28.48189900 485.53400000 0.09689220 -0.53147602 0.84151399 1.905766e-42
26.68240000 29.58099900 486.37900000 0.08292640 -0.52093202 0.84956002 1.905766e-42
25.51230000 30.65119900 487.23099000 0.06833690 -0.51051700 0.85714799 1.905766e-42
24.32530000 31.75440000 488.01501000 0.05307130 -0.50013602 0.86431903 1.905766e-42
22.67300000 32.37670100 488.36499000 0.03312540 -0.49301600 0.86938900 1.905766e-42
20.99700000 32.97029900 488.64600000 0.01174600 -0.48591599 0.87392700 1.905766e-42
19.32430100 33.61830100 488.79501000 -0.01044950 -0.47832099 0.87812299 1.905766e-42
17.54330100 33.64920000 489.05399000 -0.03295900 -0.47325999 0.88030601 1.905766e-42
15.79310000 34.01710100 489.25699000 -0.05116700 -0.46921101 0.88160199 1.905766e-42
14.51800000 34.59960200 489.16501000 -0.06468050 -0.46581799 0.88251299 1.905766e-42
12.79160000 35.10900100 489.17801000 -0.08403420 -0.46155801 0.88312101 1.905766e-42
10.99520000 35.22259900 489.18201000 -0.10444600 -0.45808199 0.88275301 1.905766e-42
9.19645980 35.29010000 489.19199000 -0.12492600 -0.45392999 0.88223600 1.905766e-42
7.56135990 36.03749800 489.10400000 -0.14522500 -0.44588399 0.88323098 1.905766e-42
5.76911020 36.19170000 489.04001000 -0.16526499 -0.43967199 0.88282299 1.905766e-42
4.00861980 36.55229900 488.93701000 -0.18480299 -0.43171901 0.88287401 1.905766e-42
2.28117990 37.02840000 488.76501000 -0.20414200 -0.42325601 0.88271201 1.905766e-42
0.56370598 37.53060200 488.57001000 -0.22556700 -0.41273600 0.88247901 1.905766e-42
-1.19804000 37.71020100 488.24799000 -0.24693599 -0.40545899 0.88012803 1.905766e-42
-2.78689000 38.54439900 488.10699000 -0.26786700 -0.39371300 0.87933898 1.905766e-42
-4.45876980 39.12850200 487.78601000 -0.28863999 -0.38514099 0.87655801 1.905766e-42
-6.19064000 39.39979900 487.37701000 -0.30871600 -0.37896100 0.87240100 1.905766e-42
-7.78981020 40.13620000 487.00201000 -0.32795200 -0.37036499 0.86906701 1.905766e-42
-9.51216030 40.32070200 486.51300000 -0.34596500 -0.36468199 0.86447400 1.905766e-42
-10.98500000 41.31510200 486.22699000 -0.36255300 -0.35514700 0.86164200 1.905766e-42
-12.64940000 41.75619900 485.70200000 -0.37785399 -0.34762701 0.85812700 1.905766e-42
-14.22400000 42.46210100 485.19000000 -0.39163700 -0.33865499 0.85553098 1.905766e-42
-15.74120000 43.24760100 484.62399000 -0.40418500 -0.32953101 0.85325497 1.905766e-42
-17.43770000 43.15530000 484.02899000 -0.41261500 -0.32309499 0.85167998 1.905766e-42
-17.92280000 41.57619900 483.31400000 -0.40909100 -0.32860401 0.85127199 1.905766e-42
-18.48180000 40.12440100 482.40900000 -0.40646300 -0.33466199 0.85017002 1.905766e-42
-18.71400100 38.49829900 481.67300000 -0.40204400 -0.34370199 0.84866399 1.905766e-42
-19.34250100 37.11940000 480.70099000 -0.40579900 -0.35604399 0.84175998 1.905766e-42
-19.80030100 35.58620100 479.87701000 -0.40896499 -0.37086800 0.83378899 1.905766e-42
-20.20290000 34.07009900 478.99399000 -0.41199800 -0.38612899 0.82532501 1.905766e-42
-20.81760000 32.71429800 477.98199000 -0.41656601 -0.40050399 0.81613100 1.905766e-42
-20.91830100 31.08880000 477.21600000 -0.41768101 -0.41648501 0.80751598 1.905766e-42
-21.83029900 30.02619900 476.08499000 -0.42342499 -0.42796901 0.79846901 1.905766e-42
-22.48140000 28.78270000 474.95801000 -0.42604601 -0.44005299 0.79046702 1.905766e-42
-22.97090000 27.37299900 473.95099000 -0.42799401 -0.45380801 0.78158802 1.905766e-42
-23.42770000 25.96089900 472.93301000 -0.43017101 -0.46825200 0.77181202 1.905766e-42
-24.03430000 24.71120100 471.78799000 -0.43345699 -0.48250899 0.76111799 1.905766e-42
-24.35310000 23.28500000 470.73700000 -0.43588901 -0.49826899 0.74948603 1.905766e-42
-25.01650000 22.12459900 469.53201000 -0.44116101 -0.51380199 0.73578799 1.905766e-42
-25.29740000 20.76790000 468.38300000 -0.44542900 -0.53018397 0.72145599 1.905766e-42
-25.77140000 19.58190000 467.11401000 -0.45103601 -0.54561800 0.70630598 1.905766e-42
-25.76980000 18.11310000 466.07401000 -0.45491999 -0.56061399 0.69192499 1.905766e-42
-26.17989900 16.91670000 464.79300000 -0.46145999 -0.57440102 0.67610502 1.905766e-42
-26.37929900 15.64120000 463.53900000 -0.46523899 -0.58502501 0.66430300 1.905766e-42
-26.68320100 14.45730000 462.21701000 -0.46912301 -0.59407598 0.65345001 1.905766e-42
-26.51670100 13.04640000 461.11200000 -0.47250700 -0.60241199 0.64330101 1.905766e-42
-26.38780000 11.69980000 459.92499000 -0.46942899 -0.61771399 0.63092500 1.905766e-42
-26.48300000 10.47810000 458.60599000 -0.46878400 -0.63268000 0.61640698 1.905766e-42
-26.46920000 9.24129960 457.29800000 -0.46747500 -0.64851999 0.60074002 1.905766e-42
-26.30909900 7.99301000 456.01099000 -0.46202099 -0.66367602 0.58827800 1.905766e-42
-26.01569900 6.71277000 454.78101000 -0.45565200 -0.67975801 0.57472700 1.905766e-42
-25.97340000 5.65872000 453.32199000 -0.45065400 -0.69511098 0.56011701 1.905766e-42
-25.33379900 4.33315990 452.28601000 -0.44389999 -0.71151400 0.54470098 1.905766e-42
-24.37089900 3.04530000 451.47699000 -0.43729800 -0.72632599 0.53030300 1.905766e-42
-23.52689900 1.88310000 450.39200000 -0.43186301 -0.74077702 0.51453298 1.905766e-42
-22.23900000 0.72377998 449.90500000 -0.42516801 -0.75156301 0.50436598 1.905766e-42
-21.22890100 -0.41316199 448.94199000 -0.41507700 -0.76762903 0.48832101 1.905766e-42
-20.25140000 -1.43206000 447.82599000 -0.40452200 -0.78455001 0.46993899 1.905766e-42
-19.10990000 -2.64825010 447.14899000 -0.39254701 -0.79938900 0.45484501 1.905766e-42
-17.90570100 -3.72890000 446.35999000 -0.38091299 -0.81329501 0.43983701 1.905766e-42
-16.62820100 -4.71735000 445.56601000 -0.36919099 -0.82587898 0.42617199 1.905766e-42
-15.31230000 -5.68470000 444.80899000 -0.35718301 -0.83715701 0.41423300 1.905766e-42
-14.21180000 -6.66139980 443.77301000 -0.34753001 -0.84808499 0.39997000 1.905766e-42
-12.83740000 -7.52073000 442.98999000 -0.33469301 -0.85738897 0.39097899 1.905766e-42
-11.50330000 -8.41670990 442.17899000 -0.31751201 -0.86919099 0.37906900 1.905766e-42
-10.05480000 -9.20785050 441.46100000 -0.29946300 -0.88006002 0.36853200 1.905766e-42
-8.63232990 -10.00240000 440.69601000 -0.28197899 -0.89049399 0.35708401 1.905766e-42
-7.29480980 -10.74890000 439.75000000 -0.26602399 -0.90077603 0.34327000 1.905766e-42
-5.77267980 -11.43500000 439.07800000 -0.24831600 -0.90961301 0.33308199 1.905766e-42
-4.27051020 -12.13500000 438.37500000 -0.23124300 -0.91795802 0.32230300 1.905766e-42
-2.55430010 -12.62640000 438.14499000 -0.21251500 -0.92374998 0.31862599 1.905766e-42
-1.16220000 -13.19030000 437.15302000 -0.19812500 -0.93169302 0.30445701 1.905766e-42
0.09838050 -13.64020000 435.94901000 -0.18809800 -0.93826503 0.29030699 1.905766e-42
1.75884000 -14.28610000 435.69299000 -0.17119300 -0.94222897 0.28792101 1.905766e-42
3.39033010 -14.77100000 435.10699000 -0.15386701 -0.94690800 0.28229299 1.905766e-42
4.75910000 -15.26400000 434.04700000 -0.13888501 -0.95239902 0.27138099 1.905766e-42
6.09128000 -15.68330000 432.91199000 -0.12334600 -0.95753700 0.26059401 1.905766e-42
7.49659010 -16.01980000 431.83801000 -0.10570400 -0.96211600 0.25131500 1.905766e-42
9.23515990 -16.43409900 431.62399000 -0.08210350 -0.96497101 0.24917801 1.905766e-42
10.95120000 -16.69070100 431.14600000 -0.05828960 -0.96791500 0.24442500 1.905766e-42
12.43310000 -16.99500100 430.17001000 -0.04155600 -0.97013700 0.23897301 1.905766e-42
14.01550000 -17.17420000 429.33099000 -0.02304350 -0.97162700 0.23539200 1.905766e-42
15.71920000 -17.25200100 428.75500000 -0.00179505 -0.97253102 0.23276600 1.905766e-42
17.50309900 -17.45520000 428.62799000 0.02080410 -0.97276801 0.23084500 1.905766e-42
19.17480100 -17.52899900 427.96399000 0.04265060 -0.97324401 0.22578301 1.905766e-42
20.73030100 -17.66140000 427.06799000 0.06381530 -0.97358203 0.21923800 1.905766e-42
22.36780000 -17.64020000 426.32101000 0.08562840 -0.97350001 0.21205001 1.905766e-42
23.92880100 -17.65870100 425.42499000 0.10635500 -0.97316998 0.20403300 1.905766e-42
25.57700000 -17.57670000 424.70599000 0.12199400 -0.97240800 0.19884500 1.905766e-42
27.22330100 -17.40950000 423.99799000 0.13723700 -0.97174603 0.19203000 1.905766e-42
29.02290000 -17.37310000 423.98099000 0.14831100 -0.97227001 0.18081599 1.905766e-42
30.60430000 -17.21450000 423.13599000 0.16378900 -0.97141600 0.17182501 1.905766e-42
32.35269900 -16.99460000 422.76801000 0.18695100 -0.96753699 0.17006300 1.905766e-42
34.02380000 -16.76149900 422.14099000 0.20965500 -0.96369302 0.16535200 1.905766e-42
35.62730000 -16.45960000 421.38101000 0.23245899 -0.95952898 0.15895499 1.905766e-42
37.29349900 -16.13139900 420.78500000 0.25624701 -0.95456803 0.15211000 1.905766e-42
39.05110200 -15.74390000 420.76199000 0.27603599 -0.94926202 0.15068600 1.905766e-42
40.63449900 -15.38970000 419.98199000 0.28708899 -0.94497901 0.15682501 1.905766e-42
42.34209800 -14.82140000 419.95401000 0.30125600 -0.94011199 0.15948100 1.905766e-42
44.04679900 -14.24330000 419.94699000 0.31587699 -0.93503302 0.16104200 1.905766e-42
45.61220200 -13.77310000 419.19299000 0.33114699 -0.92890197 0.16578101 1.905766e-42
47.30450100 -13.15990000 419.17999000 0.35314101 -0.91996902 0.17014500 1.905766e-42
49.00230000 -12.56270000 419.15601000 0.37624201 -0.91020501 0.17311300 1.905766e-42
50.69640000 -11.95520000 419.12000000 0.40088999 -0.89932698 0.17463900 1.905766e-42
52.29180100 -11.12400000 419.05899000 0.42762199 -0.88693398 0.17460500 1.905766e-42
53.83229800 -10.19310000 419.06201000 0.45681599 -0.87263399 0.17271300 1.905766e-42
55.39260100 -9.30871960 419.21500000 0.48842600 -0.85614300 0.16870201 1.905766e-42
56.94640000 -8.40707970 419.32901000 0.51766300 -0.83999002 0.16260999 1.905766e-42
58.32510000 -7.49080990 420.03500000 0.53773701 -0.82876098 0.15489700 1.905766e-42
59.79200000 -6.48337980 420.30600000 0.55566299 -0.81843001 0.14632300 1.905766e-42
61.14130000 -5.48356010 420.95401000 0.56548798 -0.81283301 0.13973400 1.905766e-42
62.44900100 -4.48925020 421.68900000 0.56962699 -0.81055802 0.13609301 1.905766e-42
63.64699900 -3.40672990 422.48499000 0.58623201 -0.79629701 0.14914200 1.905766e-42
64.85659800 -2.25200010 423.15100000 0.60443598 -0.78014398 0.16134501 1.905766e-42
65.93419600 -1.22803000 424.16599000 0.62117499 -0.76323599 0.17779900 1.905766e-42
67.18679800 -0.18601801 424.93100000 0.63974798 -0.74441397 0.19123399 1.905766e-42
68.16909800 1.09588000 425.72601000 0.65793902 -0.72435999 0.20595799 1.905766e-42
69.03340100 2.22712990 426.82700000 0.66442698 -0.71541399 0.21614800 1.905766e-42
69.76590000 3.28733990 428.08401000 0.66772997 -0.70750499 0.23145901 1.905766e-42
70.79239700 4.48267980 428.95499000 0.67164999 -0.69906998 0.24533100 1.905766e-42
71.69210100 5.74383020 429.87100000 0.67302799 -0.69096202 0.26382899 1.905766e-42
72.80040000 6.97476010 430.57599000 0.66872698 -0.68921298 0.27890801 1.905766e-42
73.66560400 8.24396040 431.51401000 0.65058601 -0.70409501 0.28458500 1.905766e-42
