# .PCD v0.7 - Point Cloud Data file format
# 3 214 0
# 1 89 0
# 90 120 0
# 121 214 0
VERSION 0.7
FIELDS x y z normal_x normal_y normal_z curvature
SIZE 4 4 4 4 4 4 4
TYPE F F F F F F F
COUNT 1 1 1 1 1 1 1
WIDTH 214
HEIGHT 1
VIEWPOINT 0 0 0 1 0 0 0
POINTS 214
DATA ascii
13.65330000 -17.73889900 368.78299000 -0.28842399 -0.95498598 -0.06937890 1.905766e-42
15.10560000 -18.16250000 368.79099000 -0.29225901 -0.95416403 -0.06445740 1.905766e-42
16.53790100 -18.44249900 369.84399000 -0.29064500 -0.95538902 -0.05250460 1.905766e-42
16.70249900 -18.80390000 371.60001000 -0.28239799 -0.95838398 -0.04186320 1.905766e-42
17.51730000 -19.05760000 373.18500000 -0.27449301 -0.96114999 -0.02906300 1.905766e-42
18.28260000 -19.26420000 374.80099000 -0.26571199 -0.96391600 -0.01621480 1.905766e-42
18.92300000 -19.62560100 376.44400000 -0.25670701 -0.96648401 -0.00336226 1.905766e-42
19.46430000 -19.74390000 378.15701000 -0.24832900 -0.96862799 0.00964677 1.905766e-42
20.53400000 -19.90570100 379.59500000 -0.23812200 -0.97097200 0.02261720 1.905766e-42
21.84160000 -19.87109900 380.83200000 -0.22705001 -0.97327399 0.03444970 1.905766e-42
22.48460000 -20.12159900 382.49399000 -0.21909100 -0.97454798 0.04750160 1.905766e-42
23.25330000 -20.27179900 384.11499000 -0.21165501 -0.97546101 0.06064050 1.905766e-42
24.42160000 -20.30719900 385.48401000 -0.20410900 -0.97628701 0.07213150 1.905766e-42
25.49469900 -20.48329900 386.91800000 -0.19815400 -0.97659200 0.08368450 1.905766e-42
26.54330100 -20.68829900 388.36700000 -0.19265100 -0.97665399 0.09503830 1.905766e-42
27.79030000 -20.74850100 389.66299000 -0.18586101 -0.97676700 0.10668400 1.905766e-42
28.62990000 -20.78540000 391.25500000 -0.18049000 -0.97562701 0.12480400 1.905766e-42
30.08110000 -20.80229900 392.32001000 -0.16912700 -0.97596300 0.13744600 1.905766e-42
31.15070000 -20.80160000 393.76801000 -0.15916000 -0.97501802 0.15494201 1.905766e-42
32.43830100 -20.79490100 395.02499000 -0.14622700 -0.97438997 0.17082500 1.905766e-42
33.62049900 -20.73910000 396.38199000 -0.13307001 -0.97311598 0.18798099 1.905766e-42
35.07400100 -20.77510100 397.44299000 -0.11674700 -0.97235501 0.20222799 1.905766e-42
36.50790000 -20.69669900 398.52802000 -0.09993290 -0.97105902 0.21692900 1.905766e-42
37.95920200 -20.50420000 399.57501000 -0.08254540 -0.96937102 0.23131201 1.905766e-42
39.51870000 -20.29680100 400.45001000 -0.06138950 -0.96803099 0.24320400 1.905766e-42
40.74950000 -20.18530100 401.75900000 -0.03990170 -0.96543300 0.25757900 1.905766e-42
42.38629900 -19.91320000 402.45599000 -0.01091910 -0.96398002 0.26575199 1.905766e-42
43.68159900 -19.66990100 403.68201000 0.01277580 -0.96041203 0.27829099 1.905766e-42
45.13140100 -19.30680100 404.68500000 0.03914470 -0.95767599 0.28517500 1.905766e-42
46.57540100 -18.93280000 405.69299000 0.06531230 -0.95496798 0.28943300 1.905766e-42
48.09540200 -18.42289900 406.51099000 0.09348930 -0.95185798 0.29193699 1.905766e-42
49.35800200 -18.00639900 407.72501000 0.11564000 -0.94814903 0.29604101 1.905766e-42
50.69580100 -17.51980000 408.82599000 0.13899601 -0.94417900 0.29867601 1.905766e-42
52.36589800 -16.90070000 409.08600000 0.17111801 -0.93999201 0.29518399 1.905766e-42
53.52679800 -16.58020000 410.42300000 0.18848200 -0.93587601 0.29767701 1.905766e-42
55.04499800 -16.00340100 411.19901000 0.21006900 -0.93152100 0.29688400 1.905766e-42
55.79779800 -15.32250000 412.68600000 0.21222600 -0.92895401 0.30332100 1.905766e-42
57.49739800 -14.82080000 413.00201000 0.20760299 -0.92755598 0.31070900 1.905766e-42
58.81300000 -14.13710000 414.02200000 0.20982800 -0.92493898 0.31695399 1.905766e-42
60.03870000 -13.42690000 415.13300000 0.21455200 -0.92202300 0.32224500 1.905766e-42
61.42530100 -12.73730000 416.04999000 0.22310901 -0.91530001 0.33533299 1.905766e-42
62.57619900 -12.02490000 417.23700000 0.23402300 -0.90766102 0.34840399 1.905766e-42
63.59700000 -11.25710000 418.50500000 0.24564500 -0.89982897 0.36050799 1.905766e-42
64.16919700 -10.52060000 420.04501000 0.25600699 -0.89249700 0.37136200 1.905766e-42
64.62100200 -9.74829960 421.60699000 0.26500401 -0.88541102 0.38186499 1.905766e-42
65.69680000 -8.60571960 422.48801000 0.27733999 -0.87755197 0.39113301 1.905766e-42
66.43090100 -8.02806000 424.02701000 0.28696799 -0.87018001 0.40054500 1.905766e-42
67.38379700 -7.12538000 425.25800000 0.29871699 -0.86222500 0.40906700 1.905766e-42
68.11190000 -6.26776980 426.66400000 0.30849200 -0.85474098 0.41743401 1.905766e-42
69.22110000 -5.31513020 427.71301000 0.32228100 -0.84603500 0.42468801 1.905766e-42
70.23850300 -4.33522990 428.82901000 0.33721000 -0.83417398 0.43639800 1.905766e-42
71.31819900 -3.31145000 429.84201000 0.35322899 -0.82181799 0.44703999 1.905766e-42
72.11450200 -2.31106000 431.10901000 0.36604699 -0.80965900 0.45876199 1.905766e-42
73.09580200 -1.26895000 432.20001000 0.38076401 -0.79697198 0.46888700 1.905766e-42
73.97850000 -0.15987100 433.31000000 0.39416400 -0.78438097 0.47893700 1.905766e-42
74.88240100 0.94852400 434.40302000 0.40706000 -0.77187598 0.48837399 1.905766e-42
75.76139800 2.14276000 435.42300000 0.41927499 -0.75960201 0.49720600 1.905766e-42
76.67320300 3.44311000 436.26999000 0.43168199 -0.74767900 0.50460601 1.905766e-42
77.27929700 4.52117010 437.57800000 0.43718299 -0.73690498 0.51559901 1.905766e-42
77.74430100 5.59360980 438.94699000 0.43914399 -0.72764301 0.52696198 1.905766e-42
78.32800300 6.85575010 440.09000000 0.44204000 -0.72030997 0.53455901 1.905766e-42
79.24109600 8.10820960 441.00500000 0.44835299 -0.71296400 0.53913099 1.905766e-42
79.85510300 9.34692000 442.15799000 0.44945201 -0.70583600 0.54752898 1.905766e-42
80.54889700 10.63680000 443.20401000 0.45085600 -0.69878203 0.55536598 1.905766e-42
81.14009900 11.90290000 444.33899000 0.44969299 -0.69163400 0.56517100 1.905766e-42
81.68260200 13.18580000 445.47900000 0.44702500 -0.68425602 0.57616198 1.905766e-42
81.78469800 14.46200000 446.74399000 0.43946201 -0.67578202 0.59176898 1.905766e-42
81.92310300 15.73170000 448.01199000 0.43176201 -0.66644001 0.60781401 1.905766e-42
81.57420300 16.76210000 449.44601000 0.41996500 -0.65635300 0.62676197 1.905766e-42
80.95909900 17.74530000 450.82300000 0.40637499 -0.64812303 0.64404601 1.905766e-42
80.45089700 18.82959900 452.16699000 0.39388901 -0.63895100 0.66075099 1.905766e-42
79.58329800 19.66720000 453.50299000 0.37998801 -0.62910801 0.67811000 1.905766e-42
78.79509700 20.61549900 454.81400000 0.36686301 -0.61835998 0.69501299 1.905766e-42
77.69059800 21.31230000 456.05301000 0.35235301 -0.60804802 0.71142501 1.905766e-42
77.41950200 22.61420100 457.26599000 0.34342200 -0.59514397 0.72654301 1.905766e-42
76.75499700 23.69739900 458.54099000 0.33181199 -0.58165902 0.74268001 1.905766e-42
76.03749800 24.88470100 459.68799000 0.32024601 -0.56725597 0.75872499 1.905766e-42
75.08029900 25.94100000 460.78699000 0.30678999 -0.55289102 0.77472001 1.905766e-42
74.17389700 27.05800100 461.86899000 0.29297200 -0.53742599 0.79078501 1.905766e-42
73.47480000 28.30810000 462.95901000 0.27998400 -0.52004999 0.80694300 1.905766e-42
72.86740100 29.58910000 464.06900000 0.26813501 -0.50197703 0.82226700 1.905766e-42
71.88770300 30.74049900 465.04599000 0.25421301 -0.48670599 0.83575898 1.905766e-42
71.24389600 32.11479900 466.01300000 0.24397700 -0.47132301 0.84754300 1.905766e-42
70.21600300 33.27030200 466.93399000 0.23181400 -0.45823199 0.85807103 1.905766e-42
69.60980200 34.73880000 467.78101000 0.22367001 -0.44442400 0.86744398 1.905766e-42
69.09190400 36.26430100 468.58301000 0.21667799 -0.43112701 0.87588799 1.905766e-42
68.23549700 37.56430100 469.48700000 0.20822500 -0.41901100 0.88378298 1.905766e-42
67.21160100 38.78340100 470.32700000 0.19992401 -0.40780601 0.89091200 1.905766e-42
66.88749700 40.39880000 471.05200000 0.19566900 -0.39541599 0.89741802 1.905766e-42
65.93319700 41.70940000 471.83401000 0.18913899 -0.38427600 0.90363598 1.905766e-42
64.51509900 42.58869900 472.50900000 0.18061000 -0.37536201 0.90911198 1.905766e-42
62.87609900 43.10559800 473.04401000 0.17196800 -0.36891299 0.91341698 1.905766e-42
61.17319900 43.38670000 473.55499000 0.16352101 -0.36432800 0.91680199 1.905766e-42
59.40409900 43.17229800 473.80899000 0.15530500 -0.36445701 0.91817802 1.905766e-42
57.98569900 44.11140100 474.39801000 0.14827900 -0.35566100 0.92277801 1.905766e-42
56.28640000 44.50939900 474.83801000 0.14046000 -0.35154000 0.92557597 1.905766e-42
54.56930200 44.88610100 475.22501000 0.13277701 -0.34817401 0.92797899 1.905766e-42
52.79690200 44.99950000 475.51700000 0.12445100 -0.34746599 0.92939699 1.905766e-42
51.20790100 45.75989900 475.88800000 0.11747300 -0.34171399 0.93243301 1.905766e-42
49.48410000 46.21160100 476.14099000 0.10978900 -0.33911300 0.93431699 1.905766e-42
47.76810100 46.61060000 476.51001000 0.10213900 -0.33696499 0.93595999 1.905766e-42
46.06129800 47.11430000 476.78101000 0.09475040 -0.33461401 0.93757999 1.905766e-42
44.30450100 47.09870100 477.17300000 0.08633110 -0.33651400 0.93771303 1.905766e-42
42.55080000 47.37009800 477.47400000 0.07832440 -0.33676901 0.93832397 1.905766e-42
40.89419900 47.98930000 477.80899000 0.06902950 -0.33371001 0.94014502 1.905766e-42
39.11040100 48.12400100 478.00900000 0.05614130 -0.33494300 0.94056398 1.905766e-42
38.19920000 49.61130100 478.45300000 0.05193330 -0.32370701 0.94473100 1.905766e-42
36.42869900 49.81489900 478.70499000 0.03889590 -0.32475200 0.94499898 1.905766e-42
34.81119900 50.56160000 478.96301000 0.02778360 -0.32179299 0.94640201 1.905766e-42
33.39080000 51.63530000 479.22699000 0.01881520 -0.31665900 0.94835299 1.905766e-42
32.06740200 52.76879900 479.67801000 0.01093860 -0.31130001 0.95024902 1.905766e-42
30.51849900 53.57320000 480.11899000 0.00042922 -0.30944201 0.95091802 1.905766e-42
29.05410000 54.55490100 480.48199000 -0.00530683 -0.30796701 0.95138198 1.905766e-42
27.47500000 55.38890100 480.70700000 -0.01086970 -0.30763200 0.95144302 1.905766e-42
25.84120000 56.12620200 480.87201000 -0.01735950 -0.30697000 0.95156097 1.905766e-42
24.35790100 57.13130200 481.04401000 -0.02304880 -0.30323800 0.95263600 1.905766e-42
22.75659900 57.91659900 481.28699000 -0.03011480 -0.29933599 0.95367199 1.905766e-42
21.70540000 59.33960000 481.61899000 -0.03523690 -0.28946000 0.95654100 1.905766e-42
20.14920000 60.21239900 481.85599000 -0.04381900 -0.28134599 0.95860499 1.905766e-42
18.50180100 60.92570100 481.98801000 -0.04977560 -0.27488199 0.96018898 1.905766e-42
16.77780000 61.43579900 482.07501000 -0.04715950 -0.27260700 0.96096897 1.905766e-42
15.13170000 60.77170200 481.77701000 -0.04784230 -0.27890900 0.95912498 1.905766e-42
13.33530000 60.68840000 481.69901000 -0.05000450 -0.28515700 0.95717502 1.905766e-42
12.01650000 59.56840100 481.20300000 -0.05809400 -0.29705101 0.95309299 1.905766e-42
10.56890000 58.64320000 480.66599000 -0.06821650 -0.30864900 0.94872701 1.905766e-42
9.47521970 57.25130100 480.34000000 -0.08001920 -0.32063699 0.94381601 1.905766e-42
8.06812000 56.22110000 479.89401000 -0.09357140 -0.33220699 0.93855399 1.905766e-42
6.88490010 54.96020100 479.39401000 -0.10757800 -0.34413800 0.93273598 1.905766e-42
5.56892010 53.91149900 478.75500000 -0.12272200 -0.35569099 0.92651099 1.905766e-42
4.32304000 52.72969800 478.21500000 -0.13776800 -0.36754501 0.91974503 1.905766e-42
3.00467990 51.68289900 477.57800000 -0.14788701 -0.38131100 0.91254097 1.905766e-42
2.05550000 50.34590100 476.83499000 -0.15668400 -0.39659399 0.90452403 1.905766e-42
0.59982002 49.49509800 476.20499000 -0.16194800 -0.41188699 0.89672798 1.905766e-42
-0.54661298 48.31779900 475.47000000 -0.16890000 -0.42911401 0.88731802 1.905766e-42
-1.68301000 47.33229800 474.48199000 -0.17533299 -0.44559801 0.87789601 1.905766e-42
-2.77303000 46.29869800 473.48999000 -0.18187299 -0.45937899 0.86942101 1.905766e-42
-3.88572000 45.11010000 472.72198000 -0.18887299 -0.47267801 0.86075699 1.905766e-42
-5.04900980 43.97530000 471.94800000 -0.19586200 -0.48533499 0.85210800 1.905766e-42
-6.10722020 42.93690100 470.92801000 -0.20315100 -0.49735501 0.84342599 1.905766e-42
-7.05760000 41.63530000 470.12601000 -0.21083701 -0.50862098 0.83477700 1.905766e-42
-8.23538970 40.56409800 469.28601000 -0.21786800 -0.51932198 0.82634002 1.905766e-42
-9.16355040 39.35580100 468.32800000 -0.22526200 -0.52934402 0.81795597 1.905766e-42
-9.99761010 38.18330000 467.24600000 -0.23241501 -0.53872502 0.80978900 1.905766e-42
-10.95380000 37.09180100 466.18100000 -0.23914300 -0.54757398 0.80185598 1.905766e-42
-12.03060000 36.11980100 465.11499000 -0.24750400 -0.55992699 0.79071099 1.905766e-42
-12.97780000 34.99140200 464.08099000 -0.25685999 -0.57246101 0.77866000 1.905766e-42
-13.54030000 33.72840100 462.92899000 -0.26637799 -0.58429700 0.76657701 1.905766e-42
-14.53690000 32.73590100 461.80600000 -0.27666801 -0.59572500 0.75403303 1.905766e-42
-15.47720000 31.73469900 460.64200000 -0.28733599 -0.60660702 0.74125999 1.905766e-42
-16.14069900 30.58169900 459.42999000 -0.29765499 -0.61686200 0.72861701 1.905766e-42
-16.90469900 29.47850000 458.23001000 -0.30814999 -0.62658101 0.71584898 1.905766e-42
-17.79100000 28.54229900 456.97400000 -0.31897101 -0.63565302 0.70299602 1.905766e-42
-18.52570000 27.51810100 455.68900000 -0.32914299 -0.64422899 0.69038701 1.905766e-42
-19.49259900 26.70240000 454.40799000 -0.34000999 -0.65237701 0.67734599 1.905766e-42
-20.23679900 25.75470000 453.07101000 -0.34963199 -0.66090202 0.66405302 1.905766e-42
-20.71030000 24.58670000 451.78601000 -0.35693899 -0.66971600 0.65121102 1.905766e-42
-21.27730000 23.59970100 450.39099000 -0.36395499 -0.67849499 0.63810700 1.905766e-42
-22.07810000 22.80010000 448.99200000 -0.37101799 -0.68667400 0.62515903 1.905766e-42
-22.71839900 22.00610000 447.50900000 -0.37647399 -0.69524699 0.61229002 1.905766e-42
-23.22760000 21.36270000 445.90601000 -0.38062400 -0.70398098 0.59961301 1.905766e-42
-23.46629900 20.21190100 444.54300000 -0.38223499 -0.71418899 0.58636999 1.905766e-42
-23.87560100 18.93330000 443.34399000 -0.38341200 -0.72429901 0.57305002 1.905766e-42
-23.15169900 17.65329900 442.30600000 -0.38121900 -0.73470002 0.56114900 1.905766e-42
-22.75740100 16.53529900 440.95200000 -0.37961599 -0.74414402 0.54967397 1.905766e-42
-22.43630000 15.44870000 439.55301000 -0.37785500 -0.75270098 0.53913498 1.905766e-42
-21.80180000 14.24870000 438.37100000 -0.37568301 -0.76117200 0.52865797 1.905766e-42
-21.45540000 13.15040000 436.98700000 -0.37430200 -0.76986498 0.51691902 1.905766e-42
-20.88999900 12.02730000 435.69901000 -0.37287501 -0.77841097 0.50501603 1.905766e-42
-20.75900100 11.02990000 434.20700000 -0.37212801 -0.78717399 0.49181101 1.905766e-42
-20.64679900 10.12900000 432.65201000 -0.37141001 -0.79597402 0.47799501 1.905766e-42
-19.87800000 8.90052990 431.58499000 -0.37082699 -0.80365998 0.46542200 1.905766e-42
-19.43250100 7.91300010 430.14700000 -0.37065500 -0.81198198 0.45088801 1.905766e-42
-19.25709900 7.05182980 428.57700000 -0.37060100 -0.82041800 0.43539599 1.905766e-42
-19.19459900 6.20645000 426.98901000 -0.37048101 -0.82869202 0.41953900 1.905766e-42
-18.82399900 5.27507020 425.49399000 -0.37084499 -0.83562899 0.40521300 1.905766e-42
-18.57140000 4.46772000 423.90500000 -0.37141800 -0.84235102 0.39050400 1.905766e-42
-18.33160000 3.56511000 422.36600000 -0.37266001 -0.84853703 0.37564501 1.905766e-42
-18.04900000 2.95229010 420.69699000 -0.37429300 -0.85430801 0.36064199 1.905766e-42
-17.53370100 1.97555990 419.27600000 -0.37514201 -0.85987699 0.34623501 1.905766e-42
-17.07210000 1.20368000 417.71701000 -0.37524500 -0.86565799 0.33140400 1.905766e-42
-16.61570000 0.42537200 416.15900000 -0.37581599 -0.87094003 0.31658399 1.905766e-42
-16.12760000 -0.33813301 414.60400000 -0.37688199 -0.87567502 0.30191600 1.905766e-42
-15.59270000 -1.12319000 413.07501000 -0.37849101 -0.87979800 0.28757700 1.905766e-42
-15.12080000 -1.84038000 411.49301000 -0.38052100 -0.88351297 0.27314499 1.905766e-42
-14.49590000 -2.55839990 409.96500000 -0.38271201 -0.88618398 0.26116800 1.905766e-42
-14.15210000 -3.07224990 408.27499000 -0.38448599 -0.88916200 0.24811700 1.905766e-42
-13.43540000 -3.90114000 406.84698000 -0.38737801 -0.89115697 0.23617201 1.905766e-42
-12.76290000 -4.56896020 405.31601000 -0.39029399 -0.89317697 0.22339700 1.905766e-42
-12.11990000 -5.14839980 403.73801000 -0.39322299 -0.89513701 0.21001101 1.905766e-42
-11.32790000 -5.94281010 402.32999000 -0.39688301 -0.89639997 0.19736101 1.905766e-42
-10.62500000 -6.52893020 400.78000000 -0.40020800 -0.89786100 0.18351699 1.905766e-42
-10.11130000 -6.90155980 399.09601000 -0.40275300 -0.89968401 0.16840100 1.905766e-42
-9.36277960 -7.40363980 397.53799000 -0.40178201 -0.90274400 0.15370101 1.905766e-42
-8.45106980 -8.16156010 396.18399000 -0.39836401 -0.90642899 0.14032701 1.905766e-42
-7.83737990 -8.58710960 394.54599000 -0.39672500 -0.90940601 0.12486000 1.905766e-42
-6.98187020 -9.26531980 393.11499000 -0.39477500 -0.91201198 0.11129900 1.905766e-42
-6.03122000 -9.88033010 391.71500000 -0.39189300 -0.91402298 0.10479500 1.905766e-42
-5.06745000 -10.53580000 390.34399000 -0.38880301 -0.91579902 0.10071500 1.905766e-42
-4.36134000 -10.92630000 388.73499000 -0.38600001 -0.91751599 0.09574870 1.905766e-42
-3.19679000 -11.67390000 387.58401000 -0.38349599 -0.91913599 0.09011320 1.905766e-42
-2.35983990 -12.15300000 386.06400000 -0.38060999 -0.92099798 0.08306330 1.905766e-42
-1.38189010 -12.64480000 384.63501000 -0.37751400 -0.92297602 0.07482130 1.905766e-42
-0.48548999 -13.10330000 383.14301000 -0.37163600 -0.92610502 0.06493880 1.905766e-42
0.76199299 -13.69300000 381.98700000 -0.35884100 -0.93186098 0.05356210 1.905766e-42
1.52648000 -14.00020000 380.38699000 -0.34803200 -0.93657798 0.04117580 1.905766e-42
2.85519000 -14.54430000 379.30099000 -0.33611900 -0.94138497 0.02859590 1.905766e-42
3.80617000 -14.89770000 377.81400000 -0.32540500 -0.94545901 0.01482850 1.905766e-42
4.85551020 -15.28100000 376.40302000 -0.31504300 -0.94907701 0.00075815 1.905766e-42
5.99684000 -15.66050000 375.06400000 -0.30539399 -0.95213300 -0.01330900 1.905766e-42
7.27771000 -16.09110100 373.87399000 -0.29679501 -0.95456803 -0.02671120 1.905766e-42
8.02902980 -16.21180000 372.24301000 -0.28948700 -0.95630002 -0.04109400 1.905766e-42
9.07013990 -16.39699900 370.78699000 -0.28314000 -0.95750499 -0.05491890 1.905766e-42
10.32070000 -16.64049900 369.51501000 -0.28060800 -0.95748401 -0.06695890 1.905766e-42
11.99660000 -17.07810000 369.02499000 -0.28392401 -0.95618600 -0.07137860 1.905766e-42
