# .PCD v0.7 - Point Cloud Data file format
# 2 64 0
# 1 30 0
# 31 64 0
VERSION 0.7
FIELDS x y z normal_x normal_y normal_z curvature
SIZE 4 4 4 4 4 4 4
TYPE F F F F F F F
COUNT 1 1 1 1 1 1 1
WIDTH 64
HEIGHT 1
VIEWPOINT 0 0 0 1 0 0 0
POINTS 64
DATA ascii
16.86179900 11.10230000 476.53799000 0.05504400 0.85404700 -0.51727498 1.905766e-42
17.00200100 10.06200000 475.07501000 0.07283800 0.85483199 -0.51376700 1.905766e-42
15.86490000 9.49355030 473.80099000 0.07694520 0.86522800 -0.49544001 1.905766e-42
15.06910000 8.73093990 472.37799000 0.09400160 0.87711197 -0.47099799 1.905766e-42
14.23490000 8.14175990 470.89600000 0.10663700 0.88913202 -0.44505399 1.905766e-42
13.37280000 7.59386010 469.41400000 0.11936400 0.89672703 -0.42618400 1.905766e-42
12.54100000 7.02192020 467.92300000 0.14994600 0.89167398 -0.42712301 1.905766e-42
11.75180000 6.32597020 466.46301000 0.18787800 0.87969798 -0.43684500 1.905766e-42
10.54920000 5.92829990 465.18399000 0.19914199 0.88362700 -0.42372900 1.905766e-42
9.27427960 5.74761010 463.92599000 0.19918700 0.89382601 -0.40174499 1.905766e-42
8.47295000 5.19052980 462.41400000 0.24381100 0.87770498 -0.41254199 1.905766e-42
7.51890990 4.80170010 460.93799000 0.27958301 0.86577803 -0.41504499 1.905766e-42
6.17810010 4.74190000 459.73801000 0.27349100 0.88132203 -0.38532299 1.905766e-42
5.18690010 4.29044010 458.30499000 0.30808201 0.86938202 -0.38634199 1.905766e-42
3.61629010 4.65909000 457.50699000 0.25732401 0.90880603 -0.32841501 1.905766e-42
2.93791010 4.17345000 455.91199000 0.30277100 0.89322001 -0.33239701 1.905766e-42
1.88833000 3.97695990 454.46301000 0.37380299 0.85236001 -0.36572400 1.905766e-42
0.90446699 3.73448990 452.97501000 0.45825499 0.78390098 -0.41892800 1.905766e-42
0.24568801 3.01660990 451.46201000 0.57707602 0.63756198 -0.51038998 1.905766e-42
-0.22308300 2.17156000 449.94299000 0.66109103 0.52513498 -0.53590298 1.905766e-42
-1.50260000 2.69261000 448.78900000 0.63490099 0.62311798 -0.45675501 1.905766e-42
-2.79334000 3.39320990 447.74899000 0.54022098 0.75568300 -0.37027401 1.905766e-42
-4.40007020 4.20389990 447.71399000 0.32950699 0.91628200 -0.22771101 1.905766e-42
-5.95140980 4.16602990 446.80200000 0.22812100 0.96856302 -0.09922740 1.905766e-42
-7.19261980 4.87137990 445.70499000 0.17682301 0.98244601 0.05944160 1.905766e-42
-7.58678010 5.28252980 443.99799000 0.26659700 0.95932198 0.09288150 1.905766e-42
-9.38418010 5.37921000 443.99600000 0.10860000 0.96828902 0.22499600 1.905766e-42
-11.18320000 5.31992010 443.99301000 0.15809400 0.96649098 0.20224300 1.905766e-42
-12.25250000 5.48915000 444.93100000 0.26850301 0.94814998 0.17005000 1.905766e-42
-13.76360000 6.16795020 445.63501000 0.51282299 0.85169601 0.10782500 1.905766e-42
-15.31070000 7.00061990 446.02701000 0.69053298 0.72075999 0.06056590 1.905766e-42
-16.04130000 7.78694010 447.47198000 0.65237701 0.74769503 0.12392100 1.905766e-42
-16.93140000 8.31186010 448.94601000 0.60395902 0.78683400 0.12698500 1.905766e-42
-18.27990000 9.16131020 449.78201000 0.59605199 0.79976797 0.07136300 1.905766e-42
-18.36410000 9.40184020 451.56400000 0.60393602 0.78311199 -0.14831500 1.905766e-42
-18.32659900 9.89410020 453.29501000 0.58034700 0.73210698 -0.35667399 1.905766e-42
-18.11459900 10.70930000 454.88599000 0.53974003 0.70667601 -0.45748100 1.905766e-42
-17.65670000 11.24450000 456.54199000 0.49918801 0.71293598 -0.49247700 1.905766e-42
-17.22690000 12.15670000 458.03400000 0.47521201 0.74820602 -0.46299201 1.905766e-42
-16.63620000 12.66410000 459.65601000 0.47211301 0.76255202 -0.44229400 1.905766e-42
-16.07000000 13.21660000 461.27301000 0.47072199 0.76084000 -0.44670299 1.905766e-42
-15.21740000 13.67010000 462.79199000 0.48091301 0.74134701 -0.46811101 1.905766e-42
-15.01850000 14.41380000 464.41901000 0.46680301 0.75357801 -0.46283400 1.905766e-42
-14.60730000 15.19120000 465.98999000 0.46234599 0.77609903 -0.42884299 1.905766e-42
-13.81470000 15.56490000 467.56201000 0.45896199 0.80070198 -0.38500801 1.905766e-42
-12.41590000 15.09330000 468.59201000 0.44693601 0.81341600 -0.37229401 1.905766e-42
-10.71790000 14.61200000 468.94601000 0.43872401 0.81150103 -0.38598901 1.905766e-42
-9.19571970 14.16070000 469.79401000 0.42738301 0.81866300 -0.38358101 1.905766e-42
-7.63119980 13.75500000 470.58600000 0.40653899 0.83126098 -0.37911800 1.905766e-42
-6.59146980 13.53380000 472.03900000 0.35993499 0.85414100 -0.37535301 1.905766e-42
-4.84817980 13.17070000 472.30200000 0.32424101 0.85538203 -0.40396699 1.905766e-42
-3.24473000 13.08420000 473.11499000 0.29883400 0.85496801 -0.42394301 1.905766e-42
-2.06905010 13.45520000 474.42700000 0.26864100 0.86711901 -0.41944900 1.905766e-42
-0.45771700 13.14110000 475.16501000 0.25305101 0.86208600 -0.43905801 1.905766e-42
0.97862500 12.37270000 474.39899000 0.25829801 0.83263600 -0.48989800 1.905766e-42
2.73639010 11.99210000 474.47299000 0.21263200 0.84089899 -0.49767199 1.905766e-42
4.32771020 11.87780000 475.30600000 0.17519900 0.84555399 -0.50432599 1.905766e-42
5.81350990 12.33090000 476.21600000 0.16604400 0.85792398 -0.48620600 1.905766e-42
7.39965010 12.38950000 477.06400000 0.15777200 0.86651200 -0.47356600 1.905766e-42
9.10097980 12.40740000 477.65201000 0.14794300 0.87205303 -0.46651599 1.905766e-42
10.89240000 12.34240000 477.81601000 0.11278900 0.86950701 -0.48087099 1.905766e-42
12.58740000 12.50170000 478.39999000 0.07590830 0.87247097 -0.48273399 1.905766e-42
14.38420000 12.39830000 478.37100000 0.04857400 0.87102300 -0.48883501 1.905766e-42
16.07110000 12.02430000 477.86600000 0.03840280 0.86399901 -0.50202602 1.905766e-42
