# .PCD v0.7 - Point Cloud Data file format
# 2 28 0
# 1 11 0
# 12 28 0
VERSION 0.7
FIELDS x y z normal_x normal_y normal_z curvature
SIZE 4 4 4 4 4 4 4
TYPE F F F F F F F
COUNT 1 1 1 1 1 1 1
WIDTH 28
HEIGHT 1
VIEWPOINT 0 0 0 1 0 0 0
POINTS 28
DATA ascii
6.36765000 7.18861010 466.26999000 -0.03180200 -0.63524997 0.77165198 1.905766e-42
7.66092010 6.30664010 465.38199000 -0.03518690 -0.79765803 0.60208201 1.905766e-42
9.34136960 6.03430990 464.79700000 -0.01622310 -0.87332702 0.48686400 1.905766e-42
10.79080000 6.32011990 465.63199000 -0.03042080 -0.82655102 0.56203902 1.905766e-42
12.58630000 6.38044020 465.74301000 -0.03777550 -0.85704201 0.51385999 1.905766e-42
14.35740000 6.43483020 466.06000000 -0.07691680 -0.87071598 0.48573300 1.905766e-42
16.08219900 6.56747010 466.55801000 -0.10538600 -0.85785002 0.50297898 1.905766e-42
17.74710100 6.67122980 467.23401000 -0.13616601 -0.85749799 0.49614000 1.905766e-42
19.50499900 6.65601020 467.62100000 -0.18121900 -0.87988901 0.43926701 1.905766e-42
20.83550100 6.91723010 468.80499000 -0.24947400 -0.77191597 0.58472902 1.905766e-42
22.59140000 6.53089000 468.89099000 -0.23089901 -0.84869999 0.47580799 1.905766e-42
24.21200000 6.50606010 469.67401000 -0.20377900 -0.83536702 0.51052499 1.905766e-42
23.41250000 7.73198990 470.72198000 -0.27848399 -0.60486102 0.74605000 1.905766e-42
22.20710000 8.97784040 471.20700000 -0.30550501 -0.56027901 0.76990497 1.905766e-42
20.70459900 9.96626000 471.28101000 -0.30250400 -0.56248599 0.76948100 1.905766e-42
19.25350000 10.99960000 471.53900000 -0.25465000 -0.55497801 0.79193002 1.905766e-42
17.88460000 12.12990000 471.83600000 -0.15973599 -0.66327798 0.73112702 1.905766e-42
16.23590100 12.65480000 472.33301000 -0.02043440 -0.74640900 0.66517299 1.905766e-42
15.05740000 13.63940000 473.27200000 -0.03142360 -0.75659102 0.65313202 1.905766e-42
13.30960000 13.91880000 473.59900000 -0.07903460 -0.75833303 0.64705801 1.905766e-42
11.54060000 14.25130000 473.59900000 -0.17230800 -0.75376302 0.63415402 1.905766e-42
9.75135040 14.44760000 473.58899000 -0.08399520 -0.76591998 0.63742602 1.905766e-42
7.95720010 14.58920000 473.55701000 -0.06419740 -0.74756199 0.66108203 1.905766e-42
7.08128980 13.60930000 472.32700000 -0.04194090 -0.75010800 0.65998399 1.905766e-42
6.92190980 12.42040000 470.98499000 -0.02189870 -0.74484402 0.66688001 1.905766e-42
6.37025020 11.33940000 469.65601000 -0.00861528 -0.73567301 0.67728198 1.905766e-42
6.33703990 10.04410000 468.40701000 -0.01354320 -0.68878001 0.72484398 1.905766e-42
6.18514010 8.72299960 467.19400000 -0.02858000 -0.57535899 0.81740099 1.905766e-42
