# .PCD v0.7 - Point Cloud Data file format
# 5 142 -2
# 1 17 0
# 18 37 0
# 38 79 0
# 80 96 0
# 97 142 0
VERSION 0.7
FIELDS x y z normal_x normal_y normal_z curvature
SIZE 4 4 4 4 4 4 4
TYPE F F F F F F F
COUNT 1 1 1 1 1 1 1
WIDTH 142
HEIGHT 1
VIEWPOINT 0 0 0 1 0 0 0
POINTS 142
DATA ascii
41.24150100 32.88579900 420.16501000 -0.78255498 -0.23545399 -0.57634097 1.905766e-42
41.99610100 31.26110100 419.98901000 -0.79983997 -0.28245699 -0.52959698 1.905766e-42
42.55250200 30.15510000 419.94299000 -0.80921698 -0.29426700 -0.50850201 1.905766e-42
43.02650100 28.43510100 420.18100000 -0.82537699 -0.30084300 -0.47775200 1.905766e-42
43.20610000 26.71209900 420.67001000 -0.84437197 -0.30212000 -0.44244701 1.905766e-42
43.83089800 25.02739900 420.77701000 -0.86149800 -0.30127800 -0.40872100 1.905766e-42
44.01800200 23.34900100 421.39999000 -0.86775202 -0.31348801 -0.38565800 1.905766e-42
44.47140100 21.74300000 422.07501000 -0.87089199 -0.32402101 -0.36953601 1.905766e-42
44.69710200 20.22180000 423.01001000 -0.87282503 -0.32217300 -0.36658001 1.905766e-42
45.40750100 18.57460000 423.15900000 -0.88567001 -0.29318100 -0.36004701 1.905766e-42
45.56589900 16.93040100 423.87399000 -0.89260000 -0.27040401 -0.36075899 1.905766e-42
45.53620100 15.28470000 424.60300000 -0.89788902 -0.24969000 -0.36256000 1.905766e-42
45.56480000 13.68920000 425.43500000 -0.90177602 -0.23058000 -0.36555901 1.905766e-42
46.02790100 11.95380000 425.55200000 -0.91063899 -0.20380101 -0.35944501 1.905766e-42
46.42639900 10.19860000 425.57800000 -0.91870999 -0.17793700 -0.35257599 1.905766e-42
46.66410100 8.41436960 425.57700000 -0.92556500 -0.15374500 -0.34596401 1.905766e-42
47.25350200 7.18702980 424.39999000 -0.93497801 -0.13313600 -0.32877100 1.905766e-42
47.50619900 5.43763020 424.73999000 -0.93869501 -0.11310000 -0.32567000 1.905766e-42
47.20610000 4.01500990 425.80099000 -0.93665802 -0.11708200 -0.33009499 1.905766e-42
47.55590100 2.48538990 426.68301000 -0.93548799 -0.11444100 -0.33431301 1.905766e-42
46.91859800 1.49498000 428.04401000 -0.93016499 -0.11033800 -0.35016799 1.905766e-42
46.48260100 0.11927300 429.12000000 -0.92577100 -0.09970770 -0.36469999 1.905766e-42
45.86399800 -0.96130198 430.42001000 -0.91938603 -0.08711510 -0.38359001 1.905766e-42
45.41540100 -2.00668000 431.81500000 -0.91212201 -0.07195830 -0.40355301 1.905766e-42
45.03080000 -3.28650000 433.02100000 -0.90538102 -0.05350580 -0.42121601 1.905766e-42
44.60850100 -4.67950010 434.07999000 -0.89945698 -0.03344570 -0.43572801 1.905766e-42
44.16550100 -6.09588000 435.09799000 -0.89482999 -0.01344410 -0.44620499 1.905766e-42
43.76540000 -7.54131980 436.09399000 -0.89278603 0.00560374 -0.45044601 1.905766e-42
43.08319900 -8.78979020 437.19601000 -0.89479202 -0.00582431 -0.44644400 1.905766e-42
42.49959900 -10.09500000 438.29001000 -0.89950001 -0.02820470 -0.43600899 1.905766e-42
42.68159900 -11.73690000 439.00500000 -0.90107000 -0.04555300 -0.43127400 1.905766e-42
41.89680100 -12.91660000 440.11499000 -0.89134401 -0.05469710 -0.45001599 1.905766e-42
41.22390000 -14.09760000 441.29501000 -0.87651598 -0.05048660 -0.47871801 1.905766e-42
40.94380200 -15.77550000 441.88300000 -0.85859603 -0.00920318 -0.51257002 1.905766e-42
40.38610100 -17.35930100 442.53201000 -0.82201302 0.06606740 -0.56562400 1.905766e-42
40.13230100 -19.03870000 443.12799000 -0.76141202 0.15053999 -0.63054699 1.905766e-42
38.81980100 -20.03370100 443.85400000 -0.67270797 0.27703401 -0.68608803 1.905766e-42
37.81409800 -21.52280000 443.95999000 -0.53606403 0.41157001 -0.73705202 1.905766e-42
36.45760000 -22.70560100 443.98700000 -0.37621200 0.55266601 -0.74365598 1.905766e-42
34.99420200 -23.74370000 443.84299000 -0.23174600 0.66384298 -0.71105999 1.905766e-42
33.42079900 -24.56650000 443.54700000 -0.16947500 0.72474003 -0.66785401 1.905766e-42
31.63859900 -24.78200000 443.67801000 -0.13705701 0.76015699 -0.63511902 1.905766e-42
29.85759900 -24.72390000 443.93201000 -0.11110900 0.77477700 -0.62239498 1.905766e-42
28.08480100 -25.03270000 443.97501000 -0.08738340 0.77391100 -0.62723601 1.905766e-42
26.28970000 -25.16589900 443.97400000 -0.05770830 0.76047897 -0.64679301 1.905766e-42
24.50020000 -25.35820000 443.99899000 -0.09666020 0.74631602 -0.65853500 1.905766e-42
22.72120100 -25.62700100 443.94601000 -0.13154501 0.72910303 -0.67164302 1.905766e-42
20.93960000 -25.62369900 444.20300000 -0.15173100 0.70759201 -0.69013798 1.905766e-42
19.15589900 -25.62610100 444.44400000 -0.16191700 0.68438500 -0.71091503 1.905766e-42
17.38550000 -25.59260000 444.76801000 -0.15970200 0.65951103 -0.73453403 1.905766e-42
15.61970000 -25.60100000 445.11700000 -0.14598100 0.63235998 -0.76079601 1.905766e-42
14.20810000 -24.97930000 446.04501000 -0.11690400 0.61475003 -0.78000998 1.905766e-42
13.04950000 -24.20760000 447.18600000 -0.09730840 0.60718298 -0.78858101 1.905766e-42
11.34830000 -24.07600000 447.75900000 -0.09753060 0.59182501 -0.80014402 1.905766e-42
9.63726040 -24.60339900 447.94400000 -0.11026300 0.57202101 -0.81279403 1.905766e-42
8.23270030 -23.67070000 448.57501000 -0.10274100 0.56217200 -0.82061398 1.905766e-42
6.45934010 -23.55150000 448.85901000 -0.10495200 0.53820401 -0.83625501 1.905766e-42
4.96534010 -22.73819900 449.44800000 -0.04908940 0.50695598 -0.86057299 1.905766e-42
3.18513990 -22.62249900 449.20801000 0.03347510 0.45978400 -0.88739997 1.905766e-42
1.45989000 -22.95459900 448.81699000 0.09628570 0.41711199 -0.90373999 1.905766e-42
-0.28618801 -22.58700000 448.57999000 0.17300400 0.36763501 -0.91373599 1.905766e-42
-1.96914990 -21.94980000 448.53799000 0.23507400 0.34685799 -0.90798098 1.905766e-42
-3.56522990 -21.13600000 448.36499000 0.27916700 0.35806099 -0.89098698 1.905766e-42
-5.29378990 -20.76289900 448.02899000 0.28634000 0.36972201 -0.88392001 1.905766e-42
-6.02297020 -19.46290000 449.03799000 0.26783600 0.44161800 -0.85629302 1.905766e-42
-7.28465990 -18.24189900 449.43399000 0.23647800 0.51399398 -0.82455301 1.905766e-42
-8.85674950 -17.50079900 448.96600000 0.20724800 0.55517900 -0.80549598 1.905766e-42
-10.55360000 -16.91650000 448.82800000 0.17549200 0.59823102 -0.78187102 1.905766e-42
-11.78860000 -15.78490000 449.48700000 0.13633201 0.67067099 -0.72911900 1.905766e-42
-12.71530000 -14.56640000 450.43399000 0.09907920 0.73983598 -0.66545099 1.905766e-42
-14.28690000 -13.83050000 450.91199000 0.04888030 0.78379798 -0.61908901 1.905766e-42
-15.48150000 -12.89070000 451.87601000 0.03832210 0.77431297 -0.63164097 1.905766e-42
-17.15550000 -12.51040000 452.41800000 0.04082450 0.74324799 -0.66776901 1.905766e-42
-18.50779900 -11.65220000 453.23901000 0.07192860 0.70343000 -0.70711601 1.905766e-42
-20.00950100 -10.89020000 453.87500000 0.11095800 0.65740299 -0.74532503 1.905766e-42
-21.33300000 -9.87738040 454.55499000 0.16425399 0.60503000 -0.77907598 1.905766e-42
-22.26619900 -8.45781040 455.14999000 0.22672400 0.55015802 -0.80369300 1.905766e-42
-23.58900100 -7.38637020 455.73499000 0.31709701 0.43187600 -0.84435302 1.905766e-42
-24.22800100 -5.71243000 455.90701000 0.41615000 0.26199299 -0.87073398 1.905766e-42
-25.05340000 -4.11455010 455.98099000 0.49571699 0.07945060 -0.86484301 1.905766e-42
-25.54369900 -2.43506000 455.55801000 0.54595101 -0.09212310 -0.83273703 1.905766e-42
-25.59560000 -0.69178402 455.11200000 0.56372899 -0.21729000 -0.79686499 1.905766e-42
-25.64080000 0.99570203 454.48801000 0.57037997 -0.27128300 -0.77528900 1.905766e-42
-26.38900000 2.28221010 453.47501000 0.58758098 -0.31519499 -0.74525201 1.905766e-42
-26.44700100 3.84407000 452.58200000 0.59556001 -0.35912099 -0.71856803 1.905766e-42
-27.31430100 5.00706010 451.51700000 0.61091202 -0.39059800 -0.68863600 1.905766e-42
-27.28720100 6.40176010 450.37900000 0.61530602 -0.40610400 -0.67563200 1.905766e-42
-27.72629900 7.76552010 449.29001000 0.62295699 -0.40990901 -0.66625798 1.905766e-42
-27.91510000 9.23256020 448.26401000 0.62742800 -0.41383699 -0.65960097 1.905766e-42
-28.03660000 10.73650000 447.28201000 0.63081300 -0.41695601 -0.65438700 1.905766e-42
-28.33120000 12.07370000 446.11401000 0.63705999 -0.41820401 -0.64750201 1.905766e-42
-28.74819900 13.26860000 444.83401000 0.64404899 -0.42566299 -0.63561898 1.905766e-42
-28.15440000 14.81580000 444.13101000 0.63717300 -0.44316900 -0.63056397 1.905766e-42
-28.02610000 16.35920000 443.21399000 0.63367701 -0.46385500 -0.61910599 1.905766e-42
-28.29100000 17.69619900 442.03799000 0.63441199 -0.48442701 -0.60237199 1.905766e-42
-28.20220000 19.14010000 440.96701000 0.63121402 -0.50883502 -0.58536798 1.905766e-42
-27.64230000 20.58659900 440.05399000 0.62482703 -0.52994102 -0.57337099 1.905766e-42
-26.54660000 22.01330000 439.98999000 0.61118603 -0.54582101 -0.57317603 1.905766e-42
-25.09490000 22.85050000 440.64700000 0.59196699 -0.55464798 -0.58475602 1.905766e-42
-23.67230000 23.80730100 441.19501000 0.57138997 -0.56309998 -0.59701902 1.905766e-42
-22.19680000 24.67610000 441.75101000 0.54883301 -0.56901002 -0.61238098 1.905766e-42
-20.69370100 25.51450000 442.27701000 0.51752698 -0.57692701 -0.63191903 1.905766e-42
-19.14790000 26.08050000 443.00601000 0.48242399 -0.58430499 -0.65257603 1.905766e-42
-17.77339900 27.23690000 443.12201000 0.45507199 -0.58891797 -0.66789699 1.905766e-42
-16.20130000 28.03980100 443.47400000 0.42461601 -0.58988303 -0.68683302 1.905766e-42
-14.57310000 28.69640000 443.87100000 0.39449200 -0.58686602 -0.70708197 1.905766e-42
-12.92580000 28.83540000 444.58301000 0.36049500 -0.58471501 -0.72674000 1.905766e-42
-11.26520000 28.92729900 445.27200000 0.32415399 -0.58255500 -0.74535501 1.905766e-42
-9.57198050 29.45520000 445.57901000 0.28780800 -0.57897902 -0.76285702 1.905766e-42
-7.83145000 29.61080000 446.01099000 0.24747799 -0.58183700 -0.77473903 1.905766e-42
-6.07739020 29.85129900 446.33499000 0.20617101 -0.58643401 -0.78331900 1.905766e-42
-4.34482000 30.33910000 446.35199000 0.16372500 -0.59209698 -0.78906000 1.905766e-42
-2.58425000 30.71240000 446.38400000 0.11904500 -0.60112202 -0.79024100 1.905766e-42
-0.79817402 30.93560000 446.39600000 0.07501160 -0.61143702 -0.78772998 1.905766e-42
0.98603702 31.17310000 446.38300000 0.03800880 -0.61910599 -0.78438699 1.905766e-42
2.78515010 31.22870100 446.39401000 0.00048294 -0.62582397 -0.77996403 1.905766e-42
4.24217990 31.98510000 445.65601000 -0.03552450 -0.63814598 -0.76909500 1.905766e-42
5.93053010 32.32870100 445.13501000 -0.07501780 -0.64933997 -0.75678998 1.905766e-42
7.59795000 32.67400000 444.55099000 -0.11462400 -0.66101402 -0.74156702 1.905766e-42
9.31215950 32.90280200 444.05200000 -0.14972800 -0.66973799 -0.72734600 1.905766e-42
10.84300000 33.46929900 443.29300000 -0.17291801 -0.67846000 -0.71399599 1.905766e-42
12.44620000 33.89339800 442.59399000 -0.19650599 -0.68247902 -0.70399398 1.905766e-42
14.09240000 34.18339900 441.92599000 -0.22145200 -0.68166602 -0.69734597 1.905766e-42
15.73670000 34.45930100 441.24701000 -0.24755900 -0.67706400 -0.69303602 1.905766e-42
17.40300000 34.43970100 440.56699000 -0.27818000 -0.66646302 -0.69169599 1.905766e-42
19.03820000 34.43579900 439.81500000 -0.31543899 -0.65327799 -0.68827701 1.905766e-42
20.37680100 34.87469900 438.69400000 -0.34665301 -0.64481401 -0.68120903 1.905766e-42
21.92020000 34.90639900 437.76801000 -0.38574001 -0.63061100 -0.67344999 1.905766e-42
23.48080100 34.76120000 436.88300000 -0.42546999 -0.61491299 -0.66397101 1.905766e-42
24.68440100 35.17599900 435.61099000 -0.45370799 -0.60424000 -0.65501398 1.905766e-42
26.06270000 35.34479900 434.46500000 -0.48620200 -0.59051198 -0.64412999 1.905766e-42
27.43899900 35.51850100 433.31799000 -0.51102799 -0.57756299 -0.63660902 1.905766e-42
28.83270100 35.60599900 432.18301000 -0.53038400 -0.56130302 -0.63532001 1.905766e-42
30.24659900 35.79470100 431.08499000 -0.55113101 -0.53997600 -0.63614500 1.905766e-42
31.62940000 35.43899900 429.98901000 -0.58069098 -0.51149201 -0.63338298 1.905766e-42
32.91370000 35.70890000 428.75699000 -0.60251898 -0.47999701 -0.63763100 1.905766e-42
34.12570200 35.58420200 427.43201000 -0.63072902 -0.44168800 -0.63803798 1.905766e-42
35.45869800 34.83490000 426.48199000 -0.67275298 -0.40533799 -0.61895400 1.905766e-42
36.52199900 35.10250100 425.05499000 -0.69676101 -0.36316401 -0.61857498 1.905766e-42
37.74430100 34.77650100 423.77399000 -0.72406697 -0.32545701 -0.60811597 1.905766e-42
38.97110000 34.29700100 422.54700000 -0.74702698 -0.29127699 -0.59758502 1.905766e-42
40.15169900 33.76050200 421.29901000 -0.76485002 -0.25459400 -0.59176600 1.905766e-42
