# .PCD v0.7 - Point Cloud Data file format
# 3 129 1
# 1 31 1
# 32 79 0
# 80 129 0
VERSION 0.7
FIELDS x y z normal_x normal_y normal_z curvature
SIZE 4 4 4 4 4 4 4
TYPE F F F F F F F
COUNT 1 1 1 1 1 1 1
WIDTH 129
HEIGHT 1
VIEWPOINT 0 0 0 1 0 0 0
POINTS 129
DATA ascii
18.10090100 44.52790100 514.64301000 -0.00894708 -0.63555998 0.77200001 1.905766e-42
18.35660000 47.08050200 516.43903000 0.00742348 -0.58445197 0.81139398 1.905766e-42
16.73700000 46.40900000 516.03198000 -0.00191710 -0.61592400 0.78780299 1.905766e-42
15.17230000 45.67610200 515.52698000 -0.02884280 -0.63860297 0.76899600 1.905766e-42
13.64930000 44.92179900 514.93402000 -0.06079210 -0.64717102 0.75991702 1.905766e-42
12.07330000 44.50989900 514.16803000 -0.10904200 -0.65362900 0.74891901 1.905766e-42
10.49790000 44.13900000 513.38000000 -0.12291000 -0.64800000 0.75165802 1.905766e-42
9.12351990 43.23709900 512.64697000 -0.13128300 -0.64737898 0.75077599 1.905766e-42
7.51999000 42.83160000 511.93701000 -0.14021400 -0.64905900 0.74770498 1.905766e-42
5.92156980 42.40969800 511.22501000 -0.14589700 -0.65363097 0.74261701 1.905766e-42
4.39909980 41.85699800 510.44000000 -0.15059000 -0.66074198 0.73535198 1.905766e-42
3.17814990 40.93040100 509.49600000 -0.15647300 -0.67042202 0.72529298 1.905766e-42
1.49527000 40.78920000 508.87299000 -0.15943500 -0.67879999 0.71680599 1.905766e-42
0.10530000 40.07910200 507.97699000 -0.19044800 -0.69030797 0.69800001 1.905766e-42
-1.22031000 39.41949800 506.95300000 -0.21932399 -0.69422799 0.68552500 1.905766e-42
-2.84914990 39.21200200 506.21600000 -0.25194201 -0.69121301 0.67731100 1.905766e-42
-4.41593980 39.12289800 505.33401000 -0.28542799 -0.68191803 0.67343801 1.905766e-42
-5.83483980 38.64699900 504.33401000 -0.31180501 -0.66955698 0.67414498 1.905766e-42
-7.17634010 38.27320100 503.19299000 -0.33655101 -0.65509999 0.67644501 1.905766e-42
-8.35847000 38.84240000 501.96100000 -0.36934701 -0.63513303 0.67837203 1.905766e-42
-9.79644970 39.05690000 500.89999000 -0.39588201 -0.60986900 0.68654001 1.905766e-42
-10.68740000 37.60490000 500.31900000 -0.38573700 -0.61110300 0.69120198 1.905766e-42
-11.94330000 36.70340000 499.39700000 -0.38929200 -0.60827601 0.69170201 1.905766e-42
-13.51940000 36.51739900 498.54700000 -0.40654799 -0.59623301 0.69226098 1.905766e-42
-14.70460000 36.67979800 497.20200000 -0.41907099 -0.58854097 0.69137502 1.905766e-42
-15.94230000 37.16560000 495.98901000 -0.43326199 -0.57752502 0.69191700 1.905766e-42
-17.45450000 36.75180100 495.10501000 -0.44172201 -0.57895499 0.68534201 1.905766e-42
-18.75510000 36.04349900 494.08200000 -0.44756499 -0.59137201 0.67079502 1.905766e-42
-19.93320100 35.15359900 493.05200000 -0.45569000 -0.60773498 0.65038800 1.905766e-42
-21.31360100 35.04150000 491.90201000 -0.46386701 -0.61238301 0.64016801 1.905766e-42
-22.69339900 35.11539800 490.74899000 -0.46667999 -0.61662602 0.63402098 1.905766e-42
-23.99020000 34.89759800 489.51901000 -0.45869699 -0.63165200 0.62499100 1.905766e-42
-23.20340000 33.43410100 488.82700000 -0.45353901 -0.66238803 0.59627599 1.905766e-42
-21.90010100 32.25590100 488.43600000 -0.42938000 -0.70398200 0.56572300 1.905766e-42
-20.98469900 31.23670000 487.26801000 -0.41811901 -0.71930999 0.55477101 1.905766e-42
-19.68110100 30.00350000 487.12701000 -0.40816200 -0.72780502 0.55109298 1.905766e-42
-18.58210000 28.85880100 486.27701000 -0.40025201 -0.73628497 0.54560298 1.905766e-42
-17.40710100 27.71690000 485.53201000 -0.39257699 -0.74400699 0.54068202 1.905766e-42
-16.04340000 26.68630000 484.96799000 -0.38468799 -0.75077802 0.53697997 1.905766e-42
-14.62040000 25.59680000 484.79999000 -0.37639499 -0.75614101 0.53532898 1.905766e-42
-13.03050000 24.75289900 484.79401000 -0.36560899 -0.75958800 0.53791898 1.905766e-42
-11.59420000 23.84849900 484.19501000 -0.35554200 -0.76446700 0.53775501 1.905766e-42
-10.03670000 22.95529900 484.06601000 -0.34304401 -0.76810002 0.54068702 1.905766e-42
-8.68784050 21.93100000 483.45599000 -0.33445001 -0.77374202 0.53802103 1.905766e-42
-7.13652990 21.05970000 483.18399000 -0.32335800 -0.77826500 0.53827798 1.905766e-42
-5.79600000 20.07420000 482.49701000 -0.31500801 -0.78483099 0.53367698 1.905766e-42
-4.19007020 19.27370100 482.35501000 -0.30332899 -0.78938001 0.53373200 1.905766e-42
-2.78353000 18.32469900 481.75400000 -0.29149199 -0.79641002 0.52987099 1.905766e-42
-2.14045000 17.44520000 480.32199000 -0.29324800 -0.79855698 0.52565402 1.905766e-42
-1.07544000 16.30340000 479.42599000 -0.28889999 -0.79926997 0.52697599 1.905766e-42
0.02079650 15.24120000 478.47198000 -0.28492501 -0.79970902 0.52847302 1.905766e-42
1.18634000 14.17760000 477.60599000 -0.27990100 -0.79965299 0.53123498 1.905766e-42
2.48944000 13.19080000 476.85199000 -0.27256000 -0.79881299 0.53629202 1.905766e-42
3.07129000 12.23810000 475.44000000 -0.28027800 -0.79994202 0.53060102 1.905766e-42
3.99245000 11.09050000 474.40302000 -0.27974299 -0.80321503 0.52591801 1.905766e-42
5.31994010 10.14500000 473.63901000 -0.26894599 -0.80648202 0.52654999 1.905766e-42
6.22053000 9.18284990 472.41299000 -0.26605701 -0.81191599 0.51962101 1.905766e-42
7.08014010 8.09364990 471.26700000 -0.26159999 -0.81739402 0.51325703 1.905766e-42
8.09475040 7.11473990 470.14801000 -0.25265500 -0.82270002 0.50924498 1.905766e-42
9.17068000 6.07423020 469.14801000 -0.23960100 -0.82797801 0.50699401 1.905766e-42
10.43680000 5.16557980 468.24701000 -0.21888900 -0.83537298 0.50422198 1.905766e-42
11.66980000 4.28606990 467.27399000 -0.19790700 -0.84466302 0.49737099 1.905766e-42
12.57650000 3.38520000 466.00699000 -0.18712300 -0.85458201 0.48443201 1.905766e-42
13.65370000 2.57780000 464.81201000 -0.17409199 -0.86349398 0.47336099 1.905766e-42
14.84960000 1.75507000 463.74799000 -0.16022600 -0.87109101 0.46425000 1.905766e-42
16.09440000 0.94307101 462.73199000 -0.14955799 -0.87771499 0.45524499 1.905766e-42
16.81880000 0.33967000 461.19901000 -0.15351400 -0.88625699 0.43701401 1.905766e-42
18.10450000 -0.61577499 460.37799000 -0.14942200 -0.88648099 0.43797699 1.905766e-42
19.11689900 -1.38744000 459.10501000 -0.15025400 -0.88860899 0.43335599 1.905766e-42
20.35400000 -2.15249990 458.04501000 -0.14523700 -0.88981497 0.43259099 1.905766e-42
21.41029900 -2.91038990 456.79999000 -0.14252000 -0.89196998 0.42904299 1.905766e-42
22.59079900 -3.63662000 455.65201000 -0.13584900 -0.89375299 0.42749301 1.905766e-42
23.51350000 -4.37134980 454.29199000 -0.13330600 -0.89651901 0.42247200 1.905766e-42
24.40340000 -5.17966990 452.95200000 -0.12689400 -0.90505302 0.40592799 1.905766e-42
25.63200000 -5.85229020 451.82199000 -0.11209400 -0.91109103 0.39667001 1.905766e-42
27.11790100 -6.39413980 450.96201000 -0.09108120 -0.91456199 0.39405701 1.905766e-42
27.77100000 -7.03581000 449.41299000 -0.08856610 -0.92015803 0.38139799 1.905766e-42
29.41050000 -7.50676010 448.83801000 -0.06720440 -0.92129099 0.38302401 1.905766e-42
30.23440000 -8.06295970 447.33701000 -0.06401220 -0.92546600 0.37338400 1.905766e-42
32.02199900 -8.24390980 447.22900000 -0.05093250 -0.92391300 0.37919801 1.905766e-42
33.64790000 -8.04245000 447.97501000 -0.04659590 -0.91839802 0.39290401 1.905766e-42
32.83300000 -7.36022000 449.42801000 -0.03915570 -0.91382998 0.40420601 1.905766e-42
32.25579800 -6.63743020 450.97198000 -0.03324840 -0.90822703 0.41715500 1.905766e-42
31.90539900 -5.88043020 452.56699000 -0.02802320 -0.90190101 0.43103299 1.905766e-42
32.14170100 -5.12327000 454.18301000 -0.02051830 -0.89480698 0.44598100 1.905766e-42
31.84240000 -4.34056000 455.77600000 -0.01807810 -0.88869202 0.45814800 1.905766e-42
31.48250000 -3.45358990 457.29999000 -0.01908330 -0.88275701 0.46944201 1.905766e-42
31.20470000 -2.58548000 458.85199000 -0.02015240 -0.87754399 0.47907200 1.905766e-42
30.59700000 -1.82433000 460.36600000 -0.02378800 -0.87289602 0.48732501 1.905766e-42
30.47680100 -0.90390700 461.90799000 -0.02161790 -0.86742800 0.49709299 1.905766e-42
29.93359900 -0.08192920 463.41501000 -0.02190270 -0.86206901 0.50631797 1.905766e-42
29.77370100 0.95885497 464.87399000 -0.01526360 -0.85523599 0.51801401 1.905766e-42
29.37879900 1.81368990 466.40900000 -0.01129990 -0.84871697 0.52872598 1.905766e-42
28.95890000 2.70079990 467.91699000 -0.00732139 -0.84191602 0.53955901 1.905766e-42
28.68339900 3.68694000 469.39801000 -0.00168394 -0.83444703 0.55108601 1.905766e-42
28.19920000 4.62866020 470.85300000 -0.00023253 -0.82811099 0.56056398 1.905766e-42
27.67340100 5.56643010 472.29700000 -0.00041982 -0.82230198 0.56905198 1.905766e-42
27.45369900 6.72619010 473.65601000 0.00421240 -0.81584197 0.57825899 1.905766e-42
27.30769900 7.84649990 475.05701000 0.00976359 -0.80967700 0.58679497 1.905766e-42
26.57270100 8.70794010 476.45599000 0.00268280 -0.80613101 0.59173101 1.905766e-42
26.47349900 9.90907960 477.79300000 0.00688606 -0.79962099 0.60046500 1.905766e-42
25.41420000 10.51780000 479.11499000 -0.00895245 -0.79644698 0.60464197 1.905766e-42
24.84020000 11.57920000 480.45099000 -0.01425300 -0.79119802 0.61139297 1.905766e-42
24.74420000 12.73880000 481.82401000 -0.01074550 -0.78497899 0.61942899 1.905766e-42
24.44899900 13.91670000 483.15302000 -0.01173500 -0.77954203 0.62624002 1.905766e-42
23.80460000 14.87560000 484.53299000 -0.01973870 -0.77515399 0.63146400 1.905766e-42
23.38150000 15.99720000 485.87601000 -0.02320980 -0.77174598 0.63550699 1.905766e-42
23.30640000 17.30640000 487.10901000 -0.02270170 -0.76857698 0.63935399 1.905766e-42
22.67840000 18.23480000 488.51801000 -0.02907630 -0.76537800 0.64292300 1.905766e-42
22.50079900 19.45540000 489.82800000 -0.02981950 -0.76128602 0.64772999 1.905766e-42
22.00840000 20.50799900 491.20300000 -0.03288130 -0.75681198 0.65280497 1.905766e-42
21.74550100 21.72640000 492.50201000 -0.03299750 -0.75156897 0.65882802 1.905766e-42
21.26260000 22.88460000 493.79199000 -0.03481240 -0.74636298 0.66462803 1.905766e-42
20.84709900 24.06749900 495.08401000 -0.03588260 -0.74121499 0.67030799 1.905766e-42
20.37389900 25.24449900 496.36099000 -0.03754660 -0.73626697 0.67564899 1.905766e-42
19.66169900 26.37850000 497.56400000 -0.04174130 -0.73186803 0.68016702 1.905766e-42
19.55670000 27.60759900 498.87399000 -0.03928630 -0.72642797 0.68611902 1.905766e-42
19.20220000 28.82080100 500.15601000 -0.03906570 -0.72122997 0.69159299 1.905766e-42
18.99630000 30.07010100 501.43500000 -0.03680640 -0.71537298 0.69777298 1.905766e-42
18.79500000 31.30610100 502.72800000 -0.03457190 -0.70877099 0.70459098 1.905766e-42
18.87220000 32.65230200 503.92099000 -0.02898360 -0.70159203 0.71198899 1.905766e-42
18.59240000 33.91320000 505.17401000 -0.02746900 -0.69507903 0.71840799 1.905766e-42
18.44490100 35.30630100 506.30499000 -0.02405090 -0.68826902 0.72505701 1.905766e-42
18.06900000 36.50339900 507.59500000 -0.02336780 -0.68190902 0.73106402 1.905766e-42
17.54120100 37.74879800 508.78299000 -0.02531850 -0.67586899 0.73658699 1.905766e-42
17.73870100 39.03879900 510.02301000 -0.02139900 -0.66549999 0.74609101 1.905766e-42
17.88880000 40.45550200 511.12299000 -0.01859180 -0.65707201 0.75359797 1.905766e-42
17.89609900 41.80339800 512.31598000 -0.01676780 -0.64995301 0.75978899 1.905766e-42
17.86440100 43.14009900 513.52100000 -0.01435520 -0.64342397 0.76537502 1.905766e-42
