# .PCD v0.7 - Point Cloud Data file format
# 3 171 0
# 1 56 0
# 57 112 0
# 113 171 0
VERSION 0.7
FIELDS x y z normal_x normal_y normal_z curvature
SIZE 4 4 4 4 4 4 4
TYPE F F F F F F F
COUNT 1 1 1 1 1 1 1
WIDTH 171
HEIGHT 1
VIEWPOINT 0 0 0 1 0 0 0
POINTS 171
DATA ascii
70.89740000 13.42510000 449.54300000 0.39322901 -0.76170802 0.51494801 1.905766e-42
71.12010200 14.45670000 451.00101000 0.39960101 -0.75033599 0.52660698 1.905766e-42
70.17820000 14.90190000 452.46899000 0.39842299 -0.74275899 0.53811502 1.905766e-42
69.26090200 15.46790000 453.91101000 0.39604801 -0.73164803 0.55483001 1.905766e-42
68.22270200 15.94290000 455.30200000 0.39117101 -0.71994901 0.57328802 1.905766e-42
67.71520200 16.93740100 456.71399000 0.38853401 -0.70117700 0.59782302 1.905766e-42
66.65260300 17.49270100 458.05701000 0.38147801 -0.68550497 0.62012702 1.905766e-42
65.54119900 18.04800000 459.35901000 0.37388200 -0.66858900 0.64280701 1.905766e-42
64.65470100 18.86249900 460.69800000 0.36717999 -0.64724302 0.66802299 1.905766e-42
63.85889800 19.83919900 461.98300000 0.36103100 -0.62332302 0.69363201 1.905766e-42
62.78390100 20.55690000 463.23599000 0.35450199 -0.60507202 0.71289301 1.905766e-42
61.78080000 21.43840000 464.44299000 0.34903401 -0.58715600 0.73035800 1.905766e-42
60.61159900 22.15800100 465.60699000 0.34466901 -0.56940699 0.74631101 1.905766e-42
59.70949900 23.23819900 466.72900000 0.34153500 -0.54663599 0.76455402 1.905766e-42
58.64600000 24.21400100 467.80499000 0.33969399 -0.52318102 0.78159398 1.905766e-42
57.48000000 25.03010000 468.90701000 0.33773199 -0.50011897 0.79738200 1.905766e-42
56.48270000 26.06839900 469.98700000 0.32611901 -0.47454199 0.81759202 1.905766e-42
55.58610200 27.35630000 470.86899000 0.31508201 -0.44434899 0.83861601 1.905766e-42
54.52690100 28.36400000 471.91901000 0.30138800 -0.42561501 0.85323900 1.905766e-42
53.20080200 29.20290000 472.80099000 0.28611401 -0.41261101 0.86480701 1.905766e-42
52.07270100 30.28720100 473.69000000 0.27212599 -0.39609301 0.87695903 1.905766e-42
51.07759900 31.63850000 474.34100000 0.25922301 -0.37670401 0.88932401 1.905766e-42
49.86470000 32.50330000 475.35199000 0.24475600 -0.35853100 0.90086102 1.905766e-42
48.71900200 33.77570000 475.90701000 0.23126400 -0.33692300 0.91268802 1.905766e-42
47.44599900 34.75619900 476.71899000 0.21749599 -0.31585401 0.92354298 1.905766e-42
46.16410100 35.87229900 477.31100000 0.20446201 -0.29323599 0.93392098 1.905766e-42
44.63830200 36.59999800 477.92899000 0.19070700 -0.27481100 0.94239599 1.905766e-42
43.61299900 38.01490000 478.36200000 0.17424200 -0.25494301 0.95112699 1.905766e-42
42.10640000 38.82020200 478.92899000 0.15491100 -0.23854800 0.95869601 1.905766e-42
40.77679800 39.94530100 479.38300000 0.13707800 -0.21879300 0.96609497 1.905766e-42
39.44160100 41.07880000 479.79800000 0.11991400 -0.19833501 0.97277099 1.905766e-42
38.01670100 42.09890000 480.20901000 0.10323200 -0.17854799 0.97850102 1.905766e-42
36.47240100 42.96970000 480.52100000 0.08721290 -0.16047300 0.98317999 1.905766e-42
35.46139900 44.42770000 480.82401000 0.07423510 -0.13590901 0.98793602 1.905766e-42
34.14699900 45.63840100 481.04001000 0.06078010 -0.11376200 0.99164701 1.905766e-42
32.68669900 46.68009900 481.19000000 0.04501520 -0.09371230 0.99458098 1.905766e-42
31.32300000 47.84629800 481.33200000 0.02622060 -0.07253190 0.99702102 1.905766e-42
29.78410000 48.77130100 481.45901000 0.00775738 -0.05551320 0.99842799 1.905766e-42
28.47820100 50.00930000 481.50299000 -0.00900466 -0.04857990 0.99877900 1.905766e-42
26.80340000 51.19350100 481.52802000 -0.02812050 -0.04297540 0.99868000 1.905766e-42
25.53130000 52.46620200 481.48401000 -0.04290040 -0.03745050 0.99837703 1.905766e-42
24.03130000 53.46049900 481.44601000 -0.05756250 -0.03048440 0.99787599 1.905766e-42
22.64360000 54.60620100 481.40302000 -0.07105830 -0.02265020 0.99721497 1.905766e-42
21.41060100 55.91550100 481.33099000 -0.08353540 -0.01367490 0.99641103 1.905766e-42
20.30460000 57.30580100 481.04099000 -0.09854140 -0.00327503 0.99512798 1.905766e-42
18.98469900 58.50820200 480.81299000 -0.11531600 0.00874500 0.99329001 1.905766e-42
17.47430000 59.48220100 480.71201000 -0.13232200 0.02163870 0.99097103 1.905766e-42
15.91820000 60.38280100 480.62701000 -0.14897799 0.03513390 0.98821598 1.905766e-42
14.64990000 61.64550000 480.43500000 -0.16522200 0.05031200 0.98497200 1.905766e-42
13.53660000 63.02100000 480.10501000 -0.18110099 0.06641230 0.98122001 1.905766e-42
11.88230000 63.69160100 479.87399000 -0.19609900 0.08098820 0.97723401 1.905766e-42
10.57800000 64.75399800 479.23300000 -0.21127300 0.09771030 0.97253102 1.905766e-42
8.82938960 65.15029900 479.07501000 -0.22445101 0.11051200 0.96819901 1.905766e-42
7.57658000 66.29260300 478.47000000 -0.23840500 0.12702601 0.96282297 1.905766e-42
6.07338000 67.17440000 478.01901000 -0.25097799 0.13998300 0.95781797 1.905766e-42
4.48783020 67.81590300 477.45901000 -0.26267201 0.14819100 0.95343798 1.905766e-42
2.80629990 67.64420300 476.84000000 -0.27631599 0.14541100 0.95000303 1.905766e-42
1.59438000 66.31410200 476.79599000 -0.29138699 0.13024500 0.94769698 1.905766e-42
0.15686600 65.26010100 476.54501000 -0.31265101 0.11523900 0.94285202 1.905766e-42
-1.37899990 64.50199900 475.99200000 -0.33872101 0.10079300 0.93547201 1.905766e-42
-2.47160010 63.07770200 475.85901000 -0.36164999 0.08222390 0.92868102 1.905766e-42
-3.76849010 61.90650200 475.42700000 -0.37672400 0.06316290 0.92417002 1.905766e-42
-5.03939010 60.72589900 474.94699000 -0.39084300 0.04446800 0.91938299 1.905766e-42
-6.07599020 59.28799800 474.63400000 -0.40366200 0.02479220 0.91457200 1.905766e-42
-7.06420990 57.82759900 474.27200000 -0.41533199 0.00444061 0.90965903 1.905766e-42
-8.32026000 56.78010200 473.52100000 -0.42666799 -0.01351980 0.90430701 1.905766e-42
-9.40703010 55.46730000 472.94101000 -0.43638000 -0.02939200 0.89928198 1.905766e-42
-10.47580000 54.12480200 472.39801000 -0.44486499 -0.04026420 0.89469200 1.905766e-42
-11.46220000 52.72250000 471.85001000 -0.45303601 -0.05082580 0.89004201 1.905766e-42
-12.47570000 51.35049800 471.27499000 -0.46160200 -0.06083570 0.88499898 1.905766e-42
-13.45390000 49.96320000 470.67599000 -0.47063899 -0.07052930 0.87950200 1.905766e-42
-14.56000000 48.73860200 469.95700000 -0.48155999 -0.07939190 0.87281001 1.905766e-42
-15.65870000 47.51110100 469.23199000 -0.49387601 -0.08814990 0.86505300 1.905766e-42
-16.69170000 46.27159900 468.43399000 -0.50423598 -0.09860130 0.85791898 1.905766e-42
-17.58219900 44.90980100 467.66400000 -0.51308101 -0.11922100 0.85001999 1.905766e-42
-18.33050000 43.38399900 467.07101000 -0.52190799 -0.13946600 0.84152299 1.905766e-42
-19.04390000 41.89390200 466.35599000 -0.53028601 -0.15915400 0.83274698 1.905766e-42
-19.24970100 40.16470000 465.90100000 -0.53691697 -0.17814399 0.82461202 1.905766e-42
-20.44400000 39.27959800 464.88599000 -0.54495001 -0.19324000 0.81589699 1.905766e-42
-21.28620000 37.99929800 463.94101000 -0.55301303 -0.21001500 0.80626899 1.905766e-42
-22.02140000 36.61370100 463.05801000 -0.56118703 -0.22817600 0.79561597 1.905766e-42
-22.79320000 35.30580100 462.09201000 -0.57047898 -0.24799500 0.78297698 1.905766e-42
-23.56430100 34.00490200 461.11600000 -0.57985598 -0.26676399 0.76980799 1.905766e-42
-24.35560000 32.78110100 460.05899000 -0.58946401 -0.28403899 0.75621003 1.905766e-42
-24.79190100 31.27940000 459.16800000 -0.59641498 -0.30184701 0.74375898 1.905766e-42
-25.44590000 29.97170100 458.11801000 -0.60454297 -0.31748599 0.73056901 1.905766e-42
-26.06670000 28.67670100 457.03299000 -0.61216199 -0.33195001 0.71768200 1.905766e-42
-26.85339900 27.59560000 455.82800000 -0.62155801 -0.34674701 0.70244700 1.905766e-42
-27.28850000 26.21060000 454.76401000 -0.62786198 -0.36451900 0.68768799 1.905766e-42
-28.01070000 25.26300000 453.41400000 -0.63733798 -0.37824100 0.67136800 1.905766e-42
-28.52290000 23.98580000 452.25400000 -0.64347702 -0.39407599 0.65623301 1.905766e-42
-28.73430100 22.52160100 451.22900000 -0.64555299 -0.41161999 0.64329702 1.905766e-42
-29.27590000 21.41920100 449.91299000 -0.65077502 -0.42517301 0.62906301 1.905766e-42
-29.58219900 20.13369900 448.69101000 -0.65204000 -0.44120201 0.61659098 1.905766e-42
-30.08970100 19.04710000 447.34799000 -0.65490597 -0.45757401 0.60143501 1.905766e-42
-29.78300100 17.49819900 446.48401000 -0.64733899 -0.48242599 0.59009999 1.905766e-42
-30.36410000 16.56399900 445.06000000 -0.64989001 -0.49736500 0.57469201 1.905766e-42
-30.47310100 15.30480000 443.77802000 -0.64576799 -0.51912302 0.55990601 1.905766e-42
-30.52750000 14.03030000 442.50800000 -0.63998097 -0.54197699 0.54468900 1.905766e-42
-30.88680100 13.05810000 441.03601000 -0.63769603 -0.56023699 0.52865702 1.905766e-42
-30.55810000 11.66370000 439.94699000 -0.62671101 -0.58201402 0.51816398 1.905766e-42
-30.33379900 10.35760000 438.72900000 -0.61659300 -0.59920102 0.51065701 1.905766e-42
-29.85969900 8.98754020 437.66199000 -0.60319197 -0.61982799 0.50196898 1.905766e-42
-29.47699900 7.73483990 436.42700000 -0.59049499 -0.64046001 0.49104699 1.905766e-42
-28.88719900 6.41119000 435.35901000 -0.57552499 -0.66341299 0.47817799 1.905766e-42
-28.02759900 5.08816000 434.49301000 -0.55908197 -0.68711603 0.46400300 1.905766e-42
-27.57700000 3.94718000 433.17599000 -0.54684001 -0.70682198 0.44874200 1.905766e-42
-26.62910100 2.62544990 432.40500000 -0.53121001 -0.72528601 0.43792301 1.905766e-42
-25.84040100 1.43806000 431.30499000 -0.51686698 -0.74159402 0.42765301 1.905766e-42
-25.06660100 0.25571799 430.19000000 -0.50172001 -0.75682002 0.41892701 1.905766e-42
-23.98370000 -0.87717301 429.30499000 -0.48335701 -0.77278000 0.41130999 1.905766e-42
-22.59840000 -1.94362000 428.87701000 -0.46193400 -0.78974801 0.40362701 1.905766e-42
-21.31270000 -2.95113990 428.12000000 -0.43813699 -0.80756199 0.39481699 1.905766e-42
-19.73800100 -3.81166010 427.97900000 -0.41099501 -0.82615203 0.38542899 1.905766e-42
-18.19190000 -4.39193010 428.69501000 -0.38615200 -0.84068400 0.37965199 1.905766e-42
-16.54110000 -5.10620020 428.76300000 -0.35017499 -0.85980201 0.37164101 1.905766e-42
-14.84580000 -5.71107010 428.77200000 -0.31800801 -0.87522000 0.36450100 1.905766e-42
-13.11800000 -6.21587990 428.77399000 -0.29010400 -0.88674700 0.35988799 1.905766e-42
-11.36800000 -6.63684990 428.78500000 -0.26640800 -0.89455700 0.35887900 1.905766e-42
-9.70596030 -7.04447980 429.34299000 -0.24587500 -0.89768600 0.36565799 1.905766e-42
-7.95168020 -7.41125010 429.51099000 -0.22775500 -0.89925301 0.37345901 1.905766e-42
-6.28200010 -7.52357010 430.17401000 -0.20847100 -0.89806402 0.38732600 1.905766e-42
-4.53602980 -7.89218000 429.93701000 -0.19095901 -0.89907998 0.39394099 1.905766e-42
-2.78959990 -8.04848000 430.34399000 -0.16990399 -0.90065098 0.39995000 1.905766e-42
-1.08012000 -8.61170010 430.36600000 -0.14862500 -0.90452701 0.39967799 1.905766e-42
0.69334698 -8.91940020 430.37799000 -0.12589499 -0.90980202 0.39548901 1.905766e-42
2.48551990 -9.08640960 430.39200000 -0.10276800 -0.91629797 0.38708800 1.905766e-42
4.16441010 -9.09016990 431.04099000 -0.08659510 -0.92131400 0.37905401 1.905766e-42
5.95729020 -9.23075960 431.11801000 -0.06588610 -0.92920601 0.36364099 1.905766e-42
7.75654980 -9.25337030 431.16400000 -0.04945970 -0.93608499 0.34827799 1.905766e-42
9.55618000 -9.28242970 431.18600000 -0.03356720 -0.94079101 0.33732200 1.905766e-42
11.35050000 -9.13941960 431.18600000 -0.01801360 -0.94332498 0.33138099 1.905766e-42
12.98020000 -9.08314040 431.94800000 -0.00363811 -0.94139701 0.33728200 1.905766e-42
14.77920000 -9.04045010 431.99301000 0.01471910 -0.94060600 0.33917999 1.905766e-42
16.57180000 -8.87849040 431.98401000 0.03390260 -0.93829000 0.34418300 1.905766e-42
18.37030000 -8.80953030 431.95801000 0.05387260 -0.93465298 0.35145700 1.905766e-42
20.16330000 -8.65386010 431.98901000 0.06615650 -0.93024498 0.36092699 1.905766e-42
21.95949900 -8.53814980 431.97601000 0.06925600 -0.92633301 0.37028500 1.905766e-42
23.75930000 -8.51502990 431.98599000 0.07285840 -0.92209399 0.38004601 1.905766e-42
25.55870100 -8.46800990 431.99301000 0.07710330 -0.91745198 0.39030400 1.905766e-42
27.35670100 -8.38432980 431.98300000 0.08199630 -0.91237903 0.40105000 1.905766e-42
29.10220000 -8.09158040 432.31100000 0.09017460 -0.90708202 0.41118300 1.905766e-42
30.48210000 -7.49290990 433.29999000 0.10269200 -0.90346003 0.41619101 1.905766e-42
32.00920100 -6.91858010 434.06000000 0.11495600 -0.89983702 0.42080599 1.905766e-42
33.55580100 -6.37129020 434.80099000 0.13511500 -0.89600003 0.42299899 1.905766e-42
35.25249900 -5.84257980 435.08600000 0.15353701 -0.89204401 0.42506900 1.905766e-42
36.75389900 -5.33334020 435.93900000 0.16944499 -0.89214402 0.41876900 1.905766e-42
38.35129900 -4.72340010 436.50101000 0.18355100 -0.89321399 0.41046199 1.905766e-42
40.08570100 -4.26954980 436.66199000 0.19707900 -0.89345002 0.40361801 1.905766e-42
41.81449900 -3.77913000 436.76599000 0.20959200 -0.89483398 0.39413700 1.905766e-42
43.52920200 -3.23194000 436.78400000 0.22124600 -0.89714003 0.38234699 1.905766e-42
45.22909900 -2.64007000 436.78201000 0.22682600 -0.90160602 0.36831501 1.905766e-42
46.80070100 -2.17690990 437.52802000 0.22443201 -0.91380501 0.33851099 1.905766e-42
48.51549900 -1.63078000 437.56000000 0.22707701 -0.91914701 0.32187700 1.905766e-42
50.11800000 -1.06637000 438.15399000 0.23070300 -0.91996998 0.31691101 1.905766e-42
51.85010100 -0.60068399 438.30701000 0.23888400 -0.91536897 0.32408899 1.905766e-42
53.36570000 0.03137820 439.04401000 0.24943499 -0.90491003 0.34484801 1.905766e-42
55.06060000 0.62044501 439.18701000 0.26170000 -0.89692497 0.35642499 1.905766e-42
56.61769900 1.30568000 439.77499000 0.27646101 -0.88402200 0.37692699 1.905766e-42
58.27190000 1.99047010 439.96100000 0.29887199 -0.87143600 0.38894001 1.905766e-42
59.98420000 2.54493000 439.94400000 0.32025400 -0.86065000 0.39587799 1.905766e-42
61.48260100 3.18225000 439.17700000 0.33636701 -0.85622001 0.39210400 1.905766e-42
62.96590000 3.86332010 439.93600000 0.35360801 -0.84095001 0.40959001 1.905766e-42
63.48860200 4.61952020 441.48401000 0.36112899 -0.82512599 0.43445700 1.905766e-42
64.26360300 5.77841000 442.62201000 0.36847001 -0.81098503 0.45446000 1.905766e-42
64.83100100 6.89718010 443.91299000 0.36989799 -0.79915702 0.47384000 1.905766e-42
66.04679900 7.94165990 444.73199000 0.37296101 -0.79566002 0.47731000 1.905766e-42
67.38790100 8.99779990 445.30301000 0.37717900 -0.79312098 0.47822100 1.905766e-42
68.58460200 9.98237990 446.21899000 0.37995601 -0.78851497 0.48360899 1.905766e-42
69.69889800 11.08940000 447.09799000 0.38384899 -0.78196597 0.49111000 1.905766e-42
70.25430300 12.16470000 448.43100000 0.38677499 -0.77268898 0.50334603 1.905766e-42
