# .PCD v0.7 - Point Cloud Data file format
# 4 72 0
# 1 18 0
# 19 42 0
# 43 59 0
# 60 72 0
VERSION 0.7
FIELDS x y z normal_x normal_y normal_z curvature
SIZE 4 4 4 4 4 4 4
TYPE F F F F F F F
COUNT 1 1 1 1 1 1 1
WIDTH 72
HEIGHT 1
VIEWPOINT 0 0 0 1 0 0 0
POINTS 72
DATA ascii
20.76479900 -2.40685010 421.29099000 0.32695201 0.35066801 -0.87757301 1.905766e-42
20.43860100 -1.95955000 421.48199000 0.29641399 0.35984200 -0.88467598 1.905766e-42
18.97270000 -0.92835498 421.64899000 0.20188700 0.46758601 -0.86058402 1.905766e-42
18.01670100 0.41707301 422.36700000 0.08218600 0.67768800 -0.73074198 1.905766e-42
16.43810100 1.08386000 422.91800000 0.13047799 0.66358602 -0.73663300 1.905766e-42
15.16300000 2.17371010 423.57101000 0.17147900 0.66170800 -0.72988898 1.905766e-42
13.87820000 3.26877000 424.19601000 0.18591601 0.68785900 -0.70163000 1.905766e-42
12.58650000 4.36636020 424.80099000 0.20498200 0.71210802 -0.67148000 1.905766e-42
10.93240000 5.06090020 424.94901000 0.20088600 0.73276597 -0.65015298 1.905766e-42
9.59088990 5.97161010 425.73001000 0.18576100 0.76400399 -0.61789203 1.905766e-42
8.05558970 6.74783990 426.26001000 0.20828100 0.75366002 -0.62339002 1.905766e-42
7.03348020 7.88836000 427.20499000 0.24034600 0.72917598 -0.64073098 1.905766e-42
5.39664980 8.62656970 427.33099000 0.26515299 0.70684499 -0.65579200 1.905766e-42
3.94759990 9.59387020 427.78400000 0.29731500 0.67965400 -0.67057800 1.905766e-42
2.42558000 10.52250000 428.03101000 0.33100900 0.65303600 -0.68115902 1.905766e-42
1.03462990 11.61010000 428.38101000 0.34362501 0.65428102 -0.67367500 1.905766e-42
-0.28413701 12.75700000 428.81100000 0.36510301 0.65808702 -0.65849900 1.905766e-42
-1.83861990 13.66060000 428.89600000 0.34688899 0.71533602 -0.60659897 1.905766e-42
-2.12870000 14.88170000 430.18600000 0.35156301 0.75322801 -0.55592400 1.905766e-42
-1.03168000 15.27630000 431.55701000 0.27598000 0.77519101 -0.56825501 1.905766e-42
0.13721400 15.84330000 432.80301000 0.25333700 0.77480400 -0.57922298 1.905766e-42
1.50831000 16.28010000 433.88501000 0.23201700 0.76372600 -0.60240400 1.905766e-42
2.98989010 16.71710000 434.80899000 0.21333399 0.75102103 -0.62486398 1.905766e-42
4.28686000 17.09550100 435.99799000 0.19691101 0.74041301 -0.64266300 1.905766e-42
6.07521010 16.96229900 436.15302000 0.20508701 0.72089303 -0.66200697 1.905766e-42
7.37119010 17.62509900 437.21201000 0.19136700 0.71280402 -0.67475098 1.905766e-42
9.04988000 17.76409900 437.84698000 0.19016400 0.69108301 -0.69731098 1.905766e-42
10.25800000 18.55740000 438.91901000 0.16367200 0.69350803 -0.70161098 1.905766e-42
11.68110000 19.10770000 439.87399000 0.14813700 0.69625598 -0.70234102 1.905766e-42
12.85670000 19.82670000 441.03201000 0.12264800 0.71233702 -0.69103801 1.905766e-42
14.37070000 20.36490100 441.84399000 0.09370970 0.72108001 -0.68648601 1.905766e-42
15.99870000 20.90060000 442.39401000 0.04740980 0.72313398 -0.68907899 1.905766e-42
17.76600100 21.14600000 442.63199000 0.02716150 0.70607197 -0.70761901 1.905766e-42
18.81130000 22.16530000 443.68399000 -0.00480688 0.71637797 -0.69769502 1.905766e-42
19.90449900 23.10820000 444.76001000 -0.03607610 0.71532702 -0.69785798 1.905766e-42
21.37800000 23.88640000 445.44000000 -0.05540670 0.69974101 -0.71224499 1.905766e-42
22.83709900 24.74379900 446.05301000 -0.07077300 0.68142200 -0.72846103 1.905766e-42
24.34350000 25.58320000 446.56900000 -0.08262590 0.66083699 -0.74596798 1.905766e-42
25.83770000 26.43269900 447.10400000 -0.09896740 0.63885599 -0.76293403 1.905766e-42
27.00720000 27.55260100 447.89001000 -0.11909200 0.60925299 -0.78398198 1.905766e-42
28.49889900 28.44510100 448.35699000 -0.12276200 0.60219902 -0.78885102 1.905766e-42
29.67770000 29.60280000 449.07101000 -0.12251500 0.59777099 -0.79224998 1.905766e-42
31.12840100 30.55760000 449.54401000 -0.12213200 0.59516001 -0.79427201 1.905766e-42
32.60530100 29.85890000 448.78900000 -0.11255100 0.59641898 -0.79474300 1.905766e-42
33.13990000 28.43750000 447.82300000 -0.10978200 0.60911602 -0.78544599 1.905766e-42
33.45000100 27.03750000 446.73401000 -0.10840800 0.61558503 -0.78057897 1.905766e-42
33.55709800 25.74900100 445.48199000 -0.10874600 0.61209798 -0.78326899 1.905766e-42
33.93289900 24.37420100 444.38300000 -0.10783500 0.59966397 -0.79295301 1.905766e-42
33.89530200 22.94750000 443.28601000 -0.11060700 0.60085303 -0.79167002 1.905766e-42
34.38000100 21.57880000 442.22198000 -0.09991150 0.61889797 -0.77909100 1.905766e-42
34.87830000 20.26899900 441.09201000 -0.07457150 0.61933100 -0.78157997 1.905766e-42
35.14749900 18.93779900 439.91101000 -0.05543650 0.60805899 -0.79195398 1.905766e-42
35.61340000 17.43310000 439.04001000 -0.04073000 0.59368300 -0.80366802 1.905766e-42
35.72119900 16.08270100 437.85501000 -0.03702880 0.60061598 -0.79868001 1.905766e-42
36.27389900 14.70700000 436.83401000 0.00180058 0.62794203 -0.77825803 1.905766e-42
36.76290100 13.30340000 435.81900000 0.08598300 0.63263398 -0.76966298 1.905766e-42
36.71020100 11.96190000 434.62000000 0.12526999 0.63320899 -0.76377600 1.905766e-42
37.49860000 10.47900000 433.97198000 0.32740501 0.49424899 -0.80531001 1.905766e-42
37.53739900 8.92988970 433.05600000 0.39676601 0.39029399 -0.83081102 1.905766e-42
37.38140100 7.26876020 432.38101000 0.43801200 0.29198200 -0.85022998 1.905766e-42
35.87310000 7.82276010 431.57001000 0.37760699 0.36976001 -0.84893501 1.905766e-42
34.73899800 6.70467000 430.73099000 0.36124200 0.32993600 -0.87215102 1.905766e-42
33.59680200 5.54897020 429.95599000 0.34446400 0.29779300 -0.89031702 1.905766e-42
31.95150000 5.53635980 429.22601000 0.22651599 0.38188699 -0.89602000 1.905766e-42
30.72209900 4.51230000 428.40201000 0.23837300 0.39007300 -0.88939399 1.905766e-42
29.54500000 3.38671990 427.63501000 0.26771900 0.38670999 -0.88248700 1.905766e-42
28.21080000 2.39955000 426.93900000 0.28684500 0.39254200 -0.87385899 1.905766e-42
26.85129900 1.43859000 426.25400000 0.32624501 0.40077999 -0.85611898 1.905766e-42
25.52059900 0.75341803 425.25400000 0.36902201 0.41738600 -0.83042902 1.905766e-42
24.30699900 0.03603900 424.13501000 0.42136300 0.41833100 -0.80464399 1.905766e-42
23.52290000 -1.19944000 423.08701000 0.43740401 0.33617899 -0.83406299 1.905766e-42
22.33009900 -2.16510010 422.14600000 0.40619299 0.30647001 -0.86086202 1.905766e-42
