# .PCD v0.7 - Point Cloud Data file format
# 3 40 0
# 1 19 1
# 20 31 1
# 32 40 1
VERSION 0.7
FIELDS x y z normal_x normal_y normal_z curvature
SIZE 4 4 4 4 4 4 4
TYPE F F F F F F F
COUNT 1 1 1 1 1 1 1
WIDTH 40
HEIGHT 1
VIEWPOINT 0 0 0 1 0 0 0
POINTS 40
DATA ascii
23.429501 10.67 464.922 -0.036696602 -0.80302399 0.59481603 1.9057659e-42
21.774599 11.2007 465.39001 -0.0482652 -0.80770898 0.58760202 1.9057659e-42
20.059099 11.5434 465.814 -0.057065699 -0.798944 0.598692 1.9057659e-42
18.4189 12.0486 466.35699 -0.060391799 -0.77179998 0.63299102 1.9057659e-42
16.795401 12.7604 466.66901 -0.079046898 -0.72412097 0.68512797 1.9057659e-42
14.8841 13.5329 467.146 -0.22527 -0.59305602 0.77300602 1.9057659e-42
13.362 13.0529 466.31299 -0.326206 -0.56697398 0.75639302 1.9057659e-42
11.7257 13.488 465.702 -0.405873 -0.498523 0.76599097 1.9057659e-42
10.149 13.5621 464.83701 -0.431907 -0.411001 0.80282903 1.9057659e-42
8.5321503 13.5808 464.04599 -0.40378201 -0.399122 0.82320201 1.9057659e-42
6.8951201 13.5097 463.30099 -0.47086599 -0.39623901 0.78821301 1.9057659e-42
5.52881 13.1513 462.185 -0.57887298 -0.39613399 0.71272999 1.9057659e-42
4.6245399 12.4568 460.793 -0.62630701 -0.40657499 0.66515899 1.9057659e-42
5.6479602 10.9787 460.70499 -0.53626001 -0.51063699 0.672068 1.9057659e-42
6.28373 9.4303904 460.043 -0.33794701 -0.69138801 0.63857198 1.9057659e-42
6.0560398 8.4000196 458.58401 -0.294835 -0.74826503 0.59428298 1.9057659e-42
5.4423699 7.5647001 457.11301 -0.27790999 -0.76649702 0.57900602 1.9057659e-42
4.3031301 7.0387502 455.82199 -0.29936299 -0.72078198 0.625184 1.9057659e-42
3.2147801 6.67556 454.435 -0.47609699 -0.70052397 0.53159899 1.9057659e-42
2.9523599 5.7550201 452.91101 -0.487959 -0.72137499 0.49144 1.9057659e-42
4.5262699 5.0005999 453.35101 -0.33756599 -0.786183 0.51765299 1.9057659e-42
5.9947901 4.1244798 452.789 -0.27888799 -0.813232 0.510759 1.9057659e-42
7.6531801 3.4568601 452.57901 -0.24636801 -0.82309997 0.51167202 1.9057659e-42
9.1627102 2.7871699 451.86301 -0.219505 -0.84704798 0.48407501 1.9057659e-42
10.8325 2.14692 451.65799 -0.195944 -0.84753603 0.49324301 1.9057659e-42
12.4857 1.5864 451.21899 -0.20876101 -0.839059 0.50239402 1.9057659e-42
14.2181 1.22944 451.55301 -0.163259 -0.84205902 0.51408499 1.9057659e-42
15.8452 1.40838 452.30099 -0.126844 -0.81680697 0.56279403 1.9057659e-42
17.557501 0.93716198 452.008 -0.129758 -0.83570403 0.53363103 1.9057659e-42
19.3368 0.66657799 452.03799 -0.095396496 -0.84805602 0.52125001 1.9057659e-42
21.125299 0.62822801 452.237 -0.022822799 -0.85273498 0.521846 1.9057659e-42
22.5481 1.24877 453.14801 -0.021583 -0.80864501 0.58790201 1.9057659e-42
23.138201 2.3127699 454.47501 -0.0396198 -0.75943798 0.64937198 1.9057659e-42
22.365 3.44069 455.64499 -0.0453059 -0.750817 0.65895402 1.9057659e-42
22.418501 4.63131 456.99399 -0.036905099 -0.75972402 0.649198 1.9057659e-42
22.947701 5.74226 458.30801 -0.0354365 -0.76052099 0.64834601 1.9057659e-42
22.7139 6.83289 459.72 -0.0496208 -0.775307 0.62963301 1.9057659e-42
22.716999 7.9427199 461.13699 -0.064711802 -0.78924 0.61066598 1.9057659e-42
23.259399 8.9661303 462.51501 -0.073293 -0.803496 0.59078199 1.9057659e-42
24.370501 9.7374201 463.703 -0.030954201 -0.79512 0.60566097 1.9057659e-42
