# .PCD v0.7 - Point Cloud Data file format
# 6 180 0
# 1 10 0
# 11 52 0
# 53 70 0
# 71 129 0
# 130 167 0
# 168 180 0
VERSION 0.7
FIELDS x y z normal_x normal_y normal_z curvature
SIZE 4 4 4 4 4 4 4
TYPE F F F F F F F
COUNT 1 1 1 1 1 1 1
WIDTH 180
HEIGHT 1
VIEWPOINT 0 0 0 1 0 0 0
POINTS 180
DATA ascii
17.10400000 -0.07570590 420.58499000 0.09672310 0.88882899 -0.44791600 1.905766e-42
18.81320000 -0.61485600 420.75201000 0.09186690 0.88960898 -0.44738799 1.905766e-42
20.15650000 -1.13353000 419.67200000 0.08857140 0.89667201 -0.43374500 1.905766e-42
20.93359900 -1.74229000 418.16699000 0.08713690 0.90581602 -0.41461301 1.905766e-42
32.19030000 -6.95447020 406.38901000 0.02710450 0.95759100 -0.28685400 1.905766e-42
30.50860000 -6.79332020 407.01001000 0.03335280 0.95772600 -0.28574201 1.905766e-42
28.71649900 -6.74670980 407.17200000 0.04122580 0.95807499 -0.28353500 1.905766e-42
27.05060000 -6.44422010 407.78299000 0.04777650 0.95634502 -0.28830901 1.905766e-42
25.36739900 -6.22474000 408.38199000 0.05491890 0.95388001 -0.29512301 1.905766e-42
23.89909900 -5.89557980 409.37000000 0.06251520 0.94959801 -0.30717200 1.905766e-42
22.11240000 -5.72300000 409.50299000 0.06978860 0.94712901 -0.31317201 1.905766e-42
20.47590100 -5.23982000 410.07599000 0.07755140 0.94263297 -0.32469800 1.905766e-42
18.75370000 -4.77394010 410.31400000 0.07993680 0.93929702 -0.33366400 1.905766e-42
17.08140000 -4.47391990 410.90900000 0.08342780 0.93507999 -0.34447700 1.905766e-42
15.46400000 -4.23418000 411.66101000 0.08751130 0.93053198 -0.35560200 1.905766e-42
13.68760000 -4.14106990 411.93600000 0.08987180 0.92707002 -0.36395600 1.905766e-42
12.10740000 -3.75548010 412.70700000 0.09454390 0.92225599 -0.37483999 1.905766e-42
10.36040000 -3.32785010 412.77802000 0.09679470 0.91861802 -0.38310900 1.905766e-42
8.79903980 -2.69163990 413.40900000 0.10172100 0.91370398 -0.39344299 1.905766e-42
7.02391000 -2.44175000 413.57101000 0.10299800 0.90975499 -0.40216500 1.905766e-42
5.22928000 -2.30292010 413.57599000 0.09634200 0.90704399 -0.40986499 1.905766e-42
3.63797000 -1.86942010 414.29700000 0.09341440 0.90352100 -0.41823900 1.905766e-42
1.88968000 -1.63083000 414.65302000 0.08778020 0.90070599 -0.42546901 1.905766e-42
0.53481197 -1.20231000 415.75800000 0.08607020 0.89740402 -0.43273401 1.905766e-42
-0.32101700 -0.38938099 417.11700000 0.08738580 0.89377499 -0.43992099 1.905766e-42
-0.78856403 0.48857200 418.61700000 0.09114300 0.88948101 -0.44779101 1.905766e-42
-1.77145000 1.28559990 419.89700000 0.09207900 0.88338703 -0.45950800 1.905766e-42
-2.80045010 2.11096000 421.12201000 0.09220590 0.87475699 -0.47570801 1.905766e-42
-3.87068010 2.88477990 422.34500000 0.09244050 0.86638200 -0.49075201 1.905766e-42
-4.64390990 3.80650000 423.68399000 0.09558950 0.85770297 -0.50518203 1.905766e-42
-5.25763990 4.77508020 425.07101000 0.10995700 0.84792602 -0.51858598 1.905766e-42
-6.28583000 5.64849000 426.26300000 0.12907299 0.83806902 -0.53007698 1.905766e-42
-7.29557990 6.54106000 427.45599000 0.14814700 0.82834297 -0.54027897 1.905766e-42
-7.79224010 7.54743000 428.86301000 0.15998900 0.81888199 -0.55121201 1.905766e-42
-8.93144990 8.43968960 429.93399000 0.18134600 0.80834699 -0.56007999 1.905766e-42
-9.96002960 9.46352960 430.99899000 0.20248801 0.79702502 -0.56898999 1.905766e-42
-11.11270000 10.50380000 431.90900000 0.22709399 0.78441203 -0.57717103 1.905766e-42
-12.12760000 11.58080000 432.93399000 0.25130200 0.77033198 -0.58603501 1.905766e-42
-13.70050000 12.17150000 433.57999000 0.28381500 0.75434798 -0.59195298 1.905766e-42
-14.57230000 13.43960000 434.51300000 0.31054601 0.73600501 -0.60154599 1.905766e-42
-15.61300000 14.65180000 435.34299000 0.34166700 0.71653700 -0.60814399 1.905766e-42
-16.67709900 16.03590000 435.78101000 0.40594599 0.68603700 -0.60378802 1.905766e-42
-17.56030100 17.46730000 436.42200000 0.47161001 0.65201002 -0.59368902 1.905766e-42
-19.00630000 18.50230000 436.70099000 0.54141402 0.61104202 -0.57749403 1.905766e-42
-19.75040100 19.99189900 437.38501000 0.58496100 0.58324802 -0.56359798 1.905766e-42
-20.86930100 21.34870000 437.76801000 0.63092202 0.55138803 -0.54581100 1.905766e-42
-21.60129900 22.90340000 438.30399000 0.66503602 0.52862197 -0.52752900 1.905766e-42
-22.55670000 24.41920100 438.47501000 0.69972003 0.50358599 -0.50674701 1.905766e-42
-23.43499900 25.98600000 438.59299000 0.72752899 0.47232100 -0.49760899 1.905766e-42
-24.49360100 27.42970100 438.40500000 0.75360203 0.44168401 -0.48682600 1.905766e-42
-25.63069900 28.82500100 438.39200000 0.77495497 0.41364101 -0.47785601 1.905766e-42
-26.20159900 30.22839900 439.36401000 0.78543502 0.39475900 -0.47671500 1.905766e-42
-27.06020000 31.71180000 439.91400000 0.79900002 0.37392399 -0.47093600 1.905766e-42
-26.50720000 32.95119900 441.09601000 0.79826403 0.36957699 -0.47559300 1.905766e-42
-25.63960100 33.62179900 442.52301000 0.78828597 0.37525600 -0.48763499 1.905766e-42
-24.66400000 34.11309800 443.95401000 0.77342498 0.39114499 -0.49881801 1.905766e-42
-23.91120000 34.40990100 445.56201000 0.75124902 0.40836799 -0.51851797 1.905766e-42
-23.08989900 34.79190100 447.11700000 0.72233802 0.42453000 -0.54589498 1.905766e-42
-22.39090000 35.44129900 448.64401000 0.69003302 0.43799299 -0.57620901 1.905766e-42
-21.16860000 35.91470000 449.87701000 0.64480603 0.44994199 -0.61788100 1.905766e-42
-20.34090000 36.69319900 451.27301000 0.59907699 0.45753500 -0.65709102 1.905766e-42
-19.25219900 37.40370200 452.51801000 0.54728103 0.46280301 -0.69735003 1.905766e-42
-18.34770000 38.23630100 453.83301000 0.49849600 0.46552199 -0.73129398 1.905766e-42
-16.96710000 38.28270000 454.98700000 0.43793201 0.46774900 -0.76774102 1.905766e-42
-16.33120000 39.54869800 456.09799000 0.40288401 0.46461201 -0.78855598 1.905766e-42
-15.49660000 40.73180000 457.16699000 0.36229399 0.45616201 -0.81281000 1.905766e-42
-14.49990000 41.84149900 458.17499000 0.32407701 0.44436699 -0.83517200 1.905766e-42
-13.31910000 42.80680100 459.13000000 0.28793499 0.43750900 -0.85186797 1.905766e-42
-12.02550000 43.74679900 459.95700000 0.25387901 0.43393099 -0.86443597 1.905766e-42
-10.50680000 44.37480200 460.69101000 0.21676899 0.43471399 -0.87409103 1.905766e-42
-8.95073030 45.08079900 461.25699000 0.18313000 0.43726000 -0.88049299 1.905766e-42
-7.17961980 45.15179800 461.57001000 0.15065400 0.44907999 -0.88069898 1.905766e-42
-5.54201980 44.84190000 462.25000000 0.14444600 0.45611900 -0.87811798 1.905766e-42
-4.11464980 43.89820100 461.69199000 0.13542999 0.46798500 -0.87329799 1.905766e-42
-2.49840000 43.14609900 461.44199000 0.12780599 0.47788501 -0.86907500 1.905766e-42
-0.82943797 42.47219800 461.42300000 0.12130800 0.48692301 -0.86497998 1.905766e-42
0.14620700 41.22959900 460.56000000 0.11277800 0.49607599 -0.86092401 1.905766e-42
1.65864000 40.33330200 460.17401000 0.10527200 0.50506002 -0.85663998 1.905766e-42
3.20611000 39.50610000 459.77301000 0.09793950 0.51391703 -0.85223103 1.905766e-42
4.45094010 38.32780100 459.22299000 0.09167900 0.52220100 -0.84788102 1.905766e-42
6.09267000 37.60540000 459.07199000 0.09732900 0.52791601 -0.84370100 1.905766e-42
7.72444010 36.85329800 459.17999000 0.10344300 0.53199798 -0.84040302 1.905766e-42
9.47941970 36.45340000 459.19199000 0.11028600 0.53468102 -0.83782601 1.905766e-42
11.16940000 35.96659900 458.80899000 0.11612600 0.53647602 -0.83588803 1.905766e-42
12.95600000 35.93240000 459.02499000 0.12234600 0.53636903 -0.83506900 1.905766e-42
14.63360000 35.37089900 458.69299000 0.12774201 0.53609002 -0.83443999 1.905766e-42
16.36319900 34.98619800 459.01001000 0.13257600 0.53375399 -0.83518302 1.905766e-42
18.13680100 34.72409800 459.17001000 0.13357700 0.53031701 -0.83721000 1.905766e-42
19.90770000 34.40359900 459.13400000 0.11778600 0.52996898 -0.83979702 1.905766e-42
21.70500000 34.31639900 459.18100000 0.10184100 0.52891099 -0.84254497 1.905766e-42
23.44059900 33.83929800 459.17499000 0.08718210 0.53014702 -0.84341198 1.905766e-42
25.22600000 33.62160100 459.24600000 0.07239810 0.53062397 -0.84451002 1.905766e-42
27.02199900 33.50770200 459.20801000 0.05825360 0.53163701 -0.84496701 1.905766e-42
28.69190000 33.59280000 459.87399000 0.04605900 0.53023499 -0.84659898 1.905766e-42
30.20150000 32.85889800 459.22400000 0.03448040 0.53762197 -0.84248102 1.905766e-42
31.99160000 32.67639900 459.17700000 0.02216230 0.54161799 -0.84033298 1.905766e-42
33.79159900 32.67670100 459.19199000 0.01804280 0.54406101 -0.83885199 1.905766e-42
35.39690000 32.11200000 458.60599000 0.01457130 0.54949301 -0.83537102 1.905766e-42
37.17070000 31.89119900 458.39499000 0.01131280 0.55239499 -0.83350599 1.905766e-42
38.95340000 31.92919900 458.64099000 0.00819107 0.55319899 -0.83300900 1.905766e-42
40.70539900 31.55299900 458.47000000 0.00429972 0.55569398 -0.83137602 1.905766e-42
42.45550200 31.20780000 458.22900000 0.00021692 0.55768698 -0.83005100 1.905766e-42
44.25320100 31.19980000 458.14001000 -0.00425648 0.55782199 -0.82994998 1.905766e-42
45.91310100 30.68810100 457.66699000 -0.00841567 0.55968601 -0.82866198 1.905766e-42
47.67860000 30.38270000 457.49500000 -0.01618830 0.56069303 -0.82786602 1.905766e-42
49.28350100 29.69619900 457.05600000 -0.02548780 0.56549400 -0.82435900 1.905766e-42
50.91429900 30.27280000 457.55399000 -0.03342590 0.56256098 -0.82608002 1.905766e-42
52.46749900 29.66970100 456.87299000 -0.04286780 0.56933701 -0.82098597 1.905766e-42
54.26120000 29.52680000 456.82599000 -0.05244110 0.57309097 -0.81781203 1.905766e-42
55.90480000 28.99490000 456.32001000 -0.06293150 0.58067101 -0.81170201 1.905766e-42
57.40630000 28.27000000 455.64200000 -0.07403770 0.58953798 -0.80434102 1.905766e-42
59.17100100 28.13750100 455.31299000 -0.08476660 0.59547800 -0.79888701 1.905766e-42
60.93080100 28.01219900 454.95599000 -0.09231830 0.60151899 -0.79350603 1.905766e-42
62.65729900 27.78770100 454.49899000 -0.09808350 0.60814500 -0.78774297 1.905766e-42
64.25119800 27.25560000 453.85300000 -0.10547500 0.61516798 -0.78130901 1.905766e-42
65.62429800 26.43390100 453.02899000 -0.11446400 0.62131202 -0.77515697 1.905766e-42
67.02410100 25.68450000 452.18100000 -0.12399700 0.62675202 -0.76928902 1.905766e-42
68.62390100 25.15329900 451.54999000 -0.13332801 0.63243997 -0.76304901 1.905766e-42
70.36160300 24.90679900 451.14999000 -0.14157100 0.63913500 -0.75595200 1.905766e-42
71.92070000 24.37439900 450.42499000 -0.15228000 0.64480799 -0.74902201 1.905766e-42
73.17530100 23.54760000 449.43399000 -0.15175900 0.64965099 -0.74493098 1.905766e-42
74.68380000 23.01860000 448.60699000 -0.14533500 0.65663999 -0.74006802 1.905766e-42
76.22020000 22.52490000 447.80899000 -0.13727801 0.66844398 -0.73098397 1.905766e-42
77.56880200 21.81320000 446.85300000 -0.13163100 0.68188000 -0.71952301 1.905766e-42
79.06510200 21.23049900 446.04001000 -0.12478600 0.69352698 -0.70954198 1.905766e-42
80.59220100 20.67079900 445.26801000 -0.11813800 0.70450598 -0.69979602 1.905766e-42
82.29969800 20.22100100 444.91901000 -0.10920500 0.71395898 -0.69161898 1.905766e-42
83.38770300 19.47970000 443.69199000 -0.10892400 0.72507602 -0.68000102 1.905766e-42
84.87069700 19.02490000 442.77802000 -0.10486400 0.73552901 -0.66932797 1.905766e-42
85.20420100 17.83790000 441.46701000 -0.11295000 0.74334103 -0.65930700 1.905766e-42
84.04799700 16.79390000 440.56500000 -0.12422000 0.74475700 -0.65567201 1.905766e-42
83.66200300 15.48360000 439.39301000 -0.12962499 0.75357902 -0.64445001 1.905766e-42
82.16040000 14.79980000 438.67401000 -0.13359600 0.75822699 -0.63815600 1.905766e-42
80.67790200 14.05760000 437.97299000 -0.13573200 0.76476097 -0.62985498 1.905766e-42
79.37429800 13.18270000 437.09201000 -0.13604300 0.77387500 -0.61855400 1.905766e-42
77.67710100 12.63280000 436.85300000 -0.13763399 0.77931702 -0.61132801 1.905766e-42
76.93979600 11.51340000 435.65201000 -0.13509300 0.79158902 -0.59593397 1.905766e-42
75.74829900 10.47460000 434.79099000 -0.13453700 0.80154699 -0.58260000 1.905766e-42
74.29979700 9.73517040 434.01999000 -0.13616900 0.80977398 -0.57072198 1.905766e-42
72.83129900 9.02630040 433.25699000 -0.13941100 0.81736797 -0.55899400 1.905766e-42
71.44110100 8.23983000 432.42700000 -0.14406601 0.82494098 -0.54655099 1.905766e-42
69.76689900 7.71883010 432.01999000 -0.15380099 0.82870603 -0.53813702 1.905766e-42
68.53240200 6.86375000 431.02802000 -0.16303100 0.83567399 -0.52447200 1.905766e-42
67.15750100 6.11183980 430.14200000 -0.16225700 0.83688498 -0.52277797 1.905766e-42
65.56109600 5.49614000 429.58301000 -0.15167700 0.83807701 -0.52404302 1.905766e-42
64.48190300 4.52595000 428.51901000 -0.14460000 0.84220099 -0.51941103 1.905766e-42
63.06580000 3.79563000 427.68100000 -0.13249201 0.84661001 -0.51545900 1.905766e-42
61.60730000 3.11438990 426.87601000 -0.11883500 0.85176498 -0.51026899 1.905766e-42
60.38169900 2.25776000 425.87399000 -0.10621400 0.85817802 -0.50224501 1.905766e-42
58.85430100 1.74912000 425.06799000 -0.09142440 0.86385202 -0.49537900 1.905766e-42
57.61719900 1.02867000 423.97699000 -0.07927820 0.87021798 -0.48624599 1.905766e-42
55.98249800 0.58698601 423.36700000 -0.06517360 0.87488800 -0.47992000 1.905766e-42
54.37900200 0.15141900 422.67499000 -0.05175330 0.87963301 -0.47282901 1.905766e-42
53.00799900 -0.48159999 421.69501000 -0.03990890 0.88546097 -0.46299699 1.905766e-42
51.79050100 -1.17395000 420.56400000 -0.02895390 0.89176702 -0.45156699 1.905766e-42
50.28870000 -1.61900000 419.67700000 -0.01831830 0.89729500 -0.44105199 1.905766e-42
48.96200200 -2.19872000 418.60800000 -0.01517090 0.90379798 -0.42769000 1.905766e-42
47.40819900 -2.61648010 417.80099000 -0.01460680 0.90870202 -0.41718900 1.905766e-42
45.97580000 -3.14311000 416.84698000 -0.01475990 0.91372198 -0.40607300 1.905766e-42
44.72990000 -3.66612010 415.65799000 -0.01518080 0.91914803 -0.39362001 1.905766e-42
43.25249900 -3.98534990 414.67999000 -0.01634980 0.92338300 -0.38353199 1.905766e-42
41.72280100 -4.23503020 413.76501000 -0.01725820 0.92722797 -0.37410000 1.905766e-42
40.13520100 -4.60536000 413.00201000 -0.01715410 0.93096203 -0.36471301 1.905766e-42
38.89090000 -5.16792010 411.82901000 -0.01437180 0.93606597 -0.35153100 1.905766e-42
37.40990100 -5.67145010 410.93799000 -0.01046160 0.94046497 -0.33972999 1.905766e-42
36.20340000 -6.25000000 409.73401000 -0.00404681 0.94533402 -0.32607800 1.905766e-42
35.05270000 -6.57558010 408.38901000 0.00419275 0.94999200 -0.31224501 1.905766e-42
33.66280000 -6.80003980 407.26801000 0.01464730 0.95423800 -0.29869100 1.905766e-42
32.21609900 -6.35033990 408.23999000 0.01981070 0.95352203 -0.30067301 1.905766e-42
30.68260000 -5.91046000 409.07300000 0.02728800 0.95206797 -0.30466700 1.905766e-42
29.14340000 -5.44526000 409.88199000 0.03577900 0.94968998 -0.31114000 1.905766e-42
27.55929900 -5.01577000 410.62100000 0.04528040 0.94673198 -0.31882200 1.905766e-42
25.95949900 -4.61054990 411.34000000 0.05527910 0.94316602 -0.32769099 1.905766e-42
24.44080000 -4.10601000 412.16400000 0.06522500 0.93855101 -0.33892101 1.905766e-42
22.93730000 -3.66113000 413.04800000 0.07536080 0.93331897 -0.35105100 1.905766e-42
21.45750000 -3.20198010 413.96399000 0.08554650 0.92759001 -0.36367300 1.905766e-42
20.06410000 -2.69864990 414.98599000 0.08964790 0.92209101 -0.37644500 1.905766e-42
18.74010100 -2.17549990 416.08801000 0.09319150 0.91631001 -0.38947600 1.905766e-42
17.66220100 -1.58905990 417.40500000 0.09588880 0.90899301 -0.40563199 1.905766e-42
17.15480000 -0.77002901 418.92499000 0.09693140 0.89927399 -0.42651001 1.905766e-42
