# .PCD v0.7 - Point Cloud Data file format
# 4 177 0
# 1 31 0
# 32 91 0
# 92 124 0
# 125 177 0
VERSION 0.7
FIELDS x y z normal_x normal_y normal_z curvature
SIZE 4 4 4 4 4 4 4
TYPE F F F F F F F
COUNT 1 1 1 1 1 1 1
WIDTH 177
HEIGHT 1
VIEWPOINT 0 0 0 1 0 0 0
POINTS 177
DATA ascii
-12.21210000 3.82999990 458.39200000 -0.02347940 0.99127698 0.12968899 1.905766e-42
-13.74390000 3.99564000 459.03299000 -0.01306060 0.99138701 0.13031100 1.905766e-42
-15.50190000 3.90536000 459.40900000 -0.00022062 0.99116403 0.13264300 1.905766e-42
-17.16720000 3.97172000 460.08899000 0.01040760 0.99084198 0.13462099 1.905766e-42
-18.76390100 3.87799000 460.91501000 0.01877920 0.99065500 0.13509600 1.905766e-42
-20.38040000 3.72337010 461.69199000 0.02613050 0.99051601 0.13489000 1.905766e-42
-22.14279900 3.58882000 462.03201000 0.03559980 0.99025202 0.13465799 1.905766e-42
-23.61470000 3.61036990 463.06799000 0.04934910 0.99219400 0.11452500 1.905766e-42
-25.06040000 3.55394010 464.13800000 0.06101000 0.99338400 0.09729300 1.905766e-42
-26.53750000 3.61781000 465.16501000 0.07038710 0.99398297 0.08392840 1.905766e-42
-27.36960000 3.53676010 466.75900000 0.07542040 0.99512500 0.06353840 1.905766e-42
-28.02840000 3.54744010 468.43399000 0.08473000 0.99571800 0.03696730 1.905766e-42
-28.46640000 3.63878010 470.17801000 0.09421500 0.99548799 0.01124330 1.905766e-42
-29.05260100 3.69430990 471.87900000 0.10629000 0.99424601 -0.01330230 1.905766e-42
-29.72310100 3.81030010 473.54501000 0.11973400 0.99215698 -0.03590070 1.905766e-42
-30.31940100 3.93496990 475.23901000 0.13163701 0.98965597 -0.05702970 1.905766e-42
-31.35460100 4.12200020 476.70001000 0.14871600 0.98587197 -0.07707260 1.905766e-42
-31.58900100 4.46450000 478.45099000 0.15719099 0.98261201 -0.09881350 1.905766e-42
-32.32709900 4.75506020 480.06699000 0.17047399 0.97827798 -0.11794700 1.905766e-42
-33.61140100 5.09705020 481.28101000 0.18867700 0.97314298 -0.13188601 1.905766e-42
-34.56399900 5.34256980 482.78799000 0.20194900 0.96800399 -0.14894900 1.905766e-42
-35.55699900 5.43721010 484.28699000 0.21436501 0.96247101 -0.16642299 1.905766e-42
-36.09780100 6.20503000 485.82199000 0.21602499 0.96011800 -0.17750201 1.905766e-42
-37.10760100 6.32206010 487.30801000 0.21616299 0.95840400 -0.18637399 1.905766e-42
-37.58269900 6.88641980 488.94901000 0.20980801 0.95648402 -0.20277700 1.905766e-42
-37.95719900 7.54012010 490.58401000 0.20131400 0.95386302 -0.22275200 1.905766e-42
-38.44940200 8.03293040 492.24399000 0.18992700 0.95152199 -0.24193899 1.905766e-42
-39.26590000 8.56968980 493.75601000 0.17603600 0.94961202 -0.25932401 1.905766e-42
-39.93899900 9.18270970 495.30899000 0.15764099 0.94678801 -0.28060901 1.905766e-42
-40.72919800 9.79708960 496.80499000 0.14191499 0.94058299 -0.30848601 1.905766e-42
-40.97340000 10.50600000 498.44101000 0.12523299 0.93705601 -0.32594800 1.905766e-42
-41.49530000 11.18660000 500.02301000 0.08280590 0.94462699 -0.31752601 1.905766e-42
-40.79309800 11.44480000 501.66101000 0.05666630 0.94660503 -0.31737500 1.905766e-42
-39.02890000 11.52930000 502.00800000 0.11293700 0.92662603 -0.35862300 1.905766e-42
-37.45249900 11.75310000 502.84698000 0.12645601 0.91926003 -0.37278599 1.905766e-42
-36.09249900 12.01690000 503.99701000 0.13206100 0.91433698 -0.38281500 1.905766e-42
-34.44220000 12.01400000 504.71500000 0.13913999 0.91042602 -0.38957101 1.905766e-42
-32.67580000 11.94790000 505.05499000 0.14401400 0.90805697 -0.39330900 1.905766e-42
-31.31640100 12.01270000 506.23300000 0.13539401 0.90480399 -0.40373099 1.905766e-42
-29.72979900 12.01950000 507.08301000 0.11138000 0.89898598 -0.42357901 1.905766e-42
-28.16990100 12.11650000 507.97601000 0.08938850 0.89235902 -0.44238600 1.905766e-42
-26.43530100 12.54690000 508.19101000 0.06995830 0.88757300 -0.45532301 1.905766e-42
-24.86330000 12.85910000 509.01001000 0.05004180 0.88103098 -0.47040400 1.905766e-42
-23.23590100 13.17600000 509.71100000 0.03068440 0.87545902 -0.48231700 1.905766e-42
-21.49270100 13.47460000 510.04599000 0.01145590 0.87147999 -0.49029800 1.905766e-42
-20.17090000 13.87550000 511.20001000 -0.00574465 0.86701101 -0.49825501 1.905766e-42
-18.40379900 14.12380000 511.43600000 -0.01906760 0.86586601 -0.49991301 1.905766e-42
-16.76910000 14.52840000 512.07202000 -0.02734980 0.86470503 -0.50153500 1.905766e-42
-15.40830000 15.07440000 513.11603000 -0.03523870 0.86322403 -0.50358999 1.905766e-42
-13.83120000 15.64890000 513.76599000 -0.04204500 0.86005199 -0.50847101 1.905766e-42
-12.19970000 16.08849900 514.38702000 -0.04721800 0.85558897 -0.51549798 1.905766e-42
-10.45840000 16.49749900 514.58801000 -0.04836790 0.84971303 -0.52502197 1.905766e-42
-8.91100030 17.02109900 515.34399000 -0.05213540 0.84359801 -0.53443801 1.905766e-42
-7.40859990 17.46019900 516.23297000 -0.05588680 0.83664298 -0.54488999 1.905766e-42
-5.79578020 18.00939900 516.81299000 -0.05785310 0.82814097 -0.55752701 1.905766e-42
-4.06292010 18.49000000 516.89301000 -0.05643260 0.81845599 -0.57179201 1.905766e-42
-2.37265990 18.82799900 517.41101000 -0.05670570 0.80789900 -0.58658701 1.905766e-42
-1.02025000 19.37890100 518.46301000 -0.06287120 0.79693598 -0.60078299 1.905766e-42
0.73613399 19.76670100 518.53198000 -0.05772460 0.78560501 -0.61602998 1.905766e-42
2.30708000 20.34100000 519.19702000 -0.05846490 0.77275097 -0.63201100 1.905766e-42
3.72498990 21.03890000 520.05902000 -0.06178420 0.75909698 -0.64803803 1.905766e-42
5.39879990 21.67190000 520.25299000 -0.05709830 0.74535102 -0.66422302 1.905766e-42
6.98722980 22.30349900 520.81702000 -0.05522450 0.73029798 -0.68089300 1.905766e-42
8.71965030 22.78100000 520.92102000 -0.04744380 0.71588802 -0.69660199 1.905766e-42
10.41710000 23.20509900 521.34399000 -0.04176200 0.70025998 -0.71266502 1.905766e-42
12.17290000 23.44050000 521.66302000 -0.03322110 0.68529701 -0.72750503 1.905766e-42
13.49650000 24.30750100 522.52100000 -0.03564450 0.66698498 -0.74421799 1.905766e-42
15.16730000 24.79120100 522.98401000 -0.02960640 0.64957100 -0.75972402 1.905766e-42
16.73469900 25.52599900 523.47699000 -0.02599310 0.63061702 -0.77565902 1.905766e-42
18.30030100 26.24570100 523.99701000 -0.02205050 0.61094499 -0.79136598 1.905766e-42
19.98650000 26.84020000 524.20599000 -0.01408550 0.59268302 -0.80531299 1.905766e-42
21.35070000 27.85310000 524.79999000 -0.01500240 0.56992799 -0.82155800 1.905766e-42
23.13629900 28.04550000 524.91998000 -0.00954837 0.55387402 -0.83254600 1.905766e-42
24.48860000 29.00869900 525.61499000 -0.01467410 0.53001201 -0.84786302 1.905766e-42
26.20400000 29.43590000 525.95398000 -0.01305120 0.51136702 -0.85926402 1.905766e-42
27.57679900 30.40770000 526.59497000 -0.01774280 0.48772401 -0.87281799 1.905766e-42
29.37229900 30.53570000 526.58502000 -0.01171400 0.47336301 -0.88078898 1.905766e-42
30.42779900 31.85190000 527.21198000 -0.01981790 0.44815999 -0.89373398 1.905766e-42
32.14680100 32.36690100 527.35303000 -0.01635070 0.42813399 -0.90356702 1.905766e-42
33.67269900 33.25960200 527.69098000 -0.01706620 0.40433100 -0.91445303 1.905766e-42
35.14920000 34.23280000 528.02802000 -0.02145550 0.37942201 -0.92497498 1.905766e-42
36.73389800 35.03780000 528.31201000 -0.02700810 0.35574499 -0.93419302 1.905766e-42
38.20880100 35.99369800 528.70001000 -0.03669510 0.33298299 -0.94221801 1.905766e-42
39.94780000 36.44189800 528.82300000 -0.04132570 0.31108201 -0.94948399 1.905766e-42
41.20660000 37.67789800 529.17999000 -0.05746420 0.29149801 -0.95484400 1.905766e-42
42.79399900 38.52520000 529.22699000 -0.06947090 0.27014399 -0.96030998 1.905766e-42
44.47359800 39.17240100 529.21899000 -0.07954420 0.24671400 -0.96581799 1.905766e-42
46.00130100 40.12009800 529.30798000 -0.09497950 0.22492200 -0.96973699 1.905766e-42
47.52130100 41.08219900 529.37097000 -0.09844490 0.21021900 -0.97268498 1.905766e-42
48.81090200 42.32370000 529.56000000 -0.10028800 0.20868100 -0.97282797 1.905766e-42
50.40599800 43.15720000 529.58899000 -0.09450980 0.19984600 -0.97525901 1.905766e-42
52.03210100 43.92490000 529.66998000 -0.08831500 0.19007000 -0.97779000 1.905766e-42
53.59800000 43.10490000 529.33002000 -0.05402560 0.14552701 -0.98787802 1.905766e-42
55.03110100 42.02920200 529.15997000 -0.01322320 0.09242600 -0.99563199 1.905766e-42
56.59429900 41.14910100 529.01099000 -0.00094189 0.08363660 -0.99649602 1.905766e-42
58.20539900 40.34650000 529.02301000 0.00998107 0.07249430 -0.99731898 1.905766e-42
59.69760100 39.34100000 528.97601000 0.02032530 0.06100460 -0.99793100 1.905766e-42
60.86360200 37.97090100 528.91803000 0.03125180 0.05118650 -0.99820000 1.905766e-42
61.77190000 36.41780100 528.86499000 0.03573310 0.05635240 -0.99777102 1.905766e-42
62.90039800 35.01699800 528.79999000 0.04133300 0.06221970 -0.99720597 1.905766e-42
64.12280300 33.69580100 528.81000000 0.05250850 0.06444690 -0.99653900 1.905766e-42
65.53130300 32.63810000 529.18103000 0.06688010 0.05956480 -0.99598098 1.905766e-42
65.38159900 30.88880000 528.78302000 0.08843470 0.08402490 -0.99253201 1.905766e-42
64.34610000 29.44780000 528.48199000 0.10310100 0.11998000 -0.98740798 1.905766e-42
63.57189900 27.85530100 528.15802000 0.12374900 0.15281200 -0.98047698 1.905766e-42
62.89619800 26.22930000 527.78497000 0.14587501 0.18701200 -0.97146600 1.905766e-42
62.25050000 24.61249900 527.32703000 0.16820499 0.22345200 -0.96009201 1.905766e-42
61.48329900 23.09079900 526.74799000 0.18866700 0.26289299 -0.94619900 1.905766e-42
61.38880200 21.36510100 526.24500000 0.21464799 0.29670501 -0.93053401 1.905766e-42
60.74729900 19.84180100 525.53198000 0.23469201 0.33746099 -0.91161400 1.905766e-42
60.65420200 18.16620100 524.88098000 0.25900400 0.37038001 -0.89204001 1.905766e-42
59.97700100 16.71159900 524.06500000 0.27665401 0.40553099 -0.87120998 1.905766e-42
59.90660100 15.06450000 523.34302000 0.29862699 0.43329000 -0.85034198 1.905766e-42
59.19749800 13.78680000 522.29199000 0.31151000 0.46663001 -0.82777900 1.905766e-42
59.31740200 12.21610000 521.42102000 0.33158001 0.49213201 -0.80489802 1.905766e-42
59.84709900 10.65340000 520.70203000 0.35467800 0.50928098 -0.78411502 1.905766e-42
60.00610000 9.13560010 519.74701000 0.37506500 0.52964097 -0.76079297 1.905766e-42
60.09100000 7.69168000 518.67603000 0.39443099 0.55069900 -0.73563302 1.905766e-42
60.71630100 6.11396980 518.07599000 0.42022300 0.56047797 -0.71363699 1.905766e-42
61.50579800 4.71831990 517.25800000 0.44421899 0.57504898 -0.68701398 1.905766e-42
61.82090000 3.29469990 516.20300000 0.46327400 0.59871101 -0.65339297 1.905766e-42
62.36280100 1.84544000 515.28302000 0.48320699 0.61674601 -0.62139797 1.905766e-42
62.57519900 0.46949601 514.14203000 0.50112700 0.63569200 -0.58716798 1.905766e-42
62.44400000 -0.56492603 512.67499000 0.51734799 0.64954197 -0.55717701 1.905766e-42
63.00590100 -1.98067000 511.71500000 0.53735900 0.64825499 -0.53945398 1.905766e-42
62.28360000 -2.45012000 510.13501000 0.54097003 0.66323000 -0.51718301 1.905766e-42
60.98880000 -2.35579990 508.88800000 0.52958298 0.68467802 -0.50075799 1.905766e-42
59.59280000 -2.01697990 507.80399000 0.51421797 0.70668799 -0.48597601 1.905766e-42
58.02270100 -1.56103000 507.05099000 0.49487200 0.72805399 -0.47438300 1.905766e-42
56.46040000 -1.10115000 506.28400000 0.47582200 0.74846900 -0.46193999 1.905766e-42
55.09109900 -0.62261802 505.21799000 0.46015501 0.76792699 -0.44558400 1.905766e-42
53.58290100 -0.21174900 504.32599000 0.44331199 0.78656101 -0.42987901 1.905766e-42
52.15580000 -0.00442532 503.24899000 0.43003601 0.80425102 -0.41018301 1.905766e-42
50.79320100 0.01317720 502.07199000 0.41706100 0.82069701 -0.39053199 1.905766e-42
49.24879800 0.27496901 501.18600000 0.39952001 0.83607501 -0.37598199 1.905766e-42
48.09470000 0.10317400 499.81500000 0.39089200 0.84916300 -0.35514101 1.905766e-42
46.62340200 0.61638898 498.91400000 0.37320501 0.86223799 -0.34243801 1.905766e-42
45.03319900 1.00033000 498.16299000 0.35488701 0.87449002 -0.33063900 1.905766e-42
43.40300000 1.22363000 497.43301000 0.33711901 0.88600498 -0.31834900 1.905766e-42
41.73920100 1.75801000 497.00201000 0.31637099 0.89664400 -0.30974099 1.905766e-42
40.08879900 2.43249010 496.75500000 0.29440200 0.90640801 -0.30290499 1.905766e-42
38.46760200 2.45103000 495.97299000 0.27726901 0.91613102 -0.28952801 1.905766e-42
36.78440100 2.60022000 495.35199000 0.25730500 0.92534202 -0.27845401 1.905766e-42
35.09709900 3.06131010 494.92801000 0.23559999 0.93373197 -0.26951399 1.905766e-42
33.45719900 3.30307010 494.22601000 0.21680300 0.94162601 -0.25755900 1.905766e-42
31.86249900 3.41128990 493.39801000 0.19986901 0.94889098 -0.24425000 1.905766e-42
30.19969900 3.66141010 492.75601000 0.18297599 0.95454502 -0.23529500 1.905766e-42
28.63719900 3.86634990 491.88599000 0.16767500 0.96032399 -0.22285400 1.905766e-42
27.09580000 3.74686000 490.96399000 0.15328100 0.96599698 -0.20821799 1.905766e-42
25.41710100 3.86965990 490.32700000 0.13784599 0.97020298 -0.19925900 1.905766e-42
23.83659900 3.86155010 489.46500000 0.12605800 0.97463500 -0.18491900 1.905766e-42
22.35460100 3.82365990 488.44400000 0.11519300 0.97901303 -0.16812199 1.905766e-42
20.79680100 3.83287000 487.54300000 0.10399700 0.98258799 -0.15396300 1.905766e-42
19.22629900 4.00279000 486.67999000 0.09290340 0.98559803 -0.14129800 1.905766e-42
17.71940000 4.02453990 485.69501000 0.08238210 0.98853499 -0.12653400 1.905766e-42
16.16810000 4.06115010 484.78299000 0.07186000 0.99093997 -0.11346300 1.905766e-42
14.75200000 3.87442990 483.68799000 0.06213670 0.99331403 -0.09729580 1.905766e-42
13.29200000 3.81238010 482.63699000 0.05233140 0.99520099 -0.08268820 1.905766e-42
12.10950000 3.80164000 481.28000000 0.04203260 0.99699098 -0.06512690 1.905766e-42
11.16150000 3.80532000 479.75000000 0.04042460 0.99742800 -0.05918220 1.905766e-42
9.72922040 3.98279000 478.67401000 0.02963040 0.99831098 -0.04997810 1.905766e-42
8.40699960 4.02714010 477.45300000 0.02130320 0.99891198 -0.04148170 1.905766e-42
6.96370980 3.88228010 476.38800000 0.01061970 0.99942899 -0.03206720 1.905766e-42
5.73588990 3.65527010 475.09100000 0.00383568 0.99971998 -0.02335400 1.905766e-42
4.21323010 3.65299010 474.13101000 -0.00864646 0.99988103 -0.01279810 1.905766e-42
2.86031010 3.56367990 472.94699000 -0.01791570 0.99983698 -0.00222061 1.905766e-42
1.61243000 3.57599000 471.64999000 -0.02543290 0.99963498 0.00908005 1.905766e-42
0.50182301 3.42200990 470.24200000 -0.02612240 0.99941802 0.02191900 1.905766e-42
-1.15337000 3.75288010 469.61700000 -0.03514240 0.99879301 0.03430060 1.905766e-42
-2.42246010 3.72453000 468.34100000 -0.03747590 0.99820298 0.04676940 1.905766e-42
-3.48909000 3.57895990 466.89801000 -0.03804120 0.99754900 0.05872520 1.905766e-42
-5.06473020 3.73079990 466.04099000 -0.04425280 0.99661201 0.06933350 1.905766e-42
-6.31715010 3.76484990 464.74899000 -0.04696570 0.99567401 0.08017530 1.905766e-42
-7.78232000 3.89519000 463.71100000 -0.05152250 0.99466997 0.08931030 1.905766e-42
-8.72920990 3.99885990 462.18399000 -0.05334260 0.99364197 0.09914260 1.905766e-42
-10.39150000 3.95872000 461.49500000 -0.04473700 0.99303102 0.10903100 1.905766e-42
-11.31810000 3.88000990 459.95300000 -0.03300990 0.99207598 0.12122900 1.905766e-42
