# .PCD v0.7 - Point Cloud Data file format
# 3 37 0
# 1 14 0
# 15 26 0
# 27 37 0
VERSION 0.7
FIELDS x y z normal_x normal_y normal_z curvature
SIZE 4 4 4 4 4 4 4
TYPE F F F F F F F
COUNT 1 1 1 1 1 1 1
WIDTH 37
HEIGHT 1
VIEWPOINT 0 0 0 1 0 0 0
POINTS 37
DATA ascii
22.39819900 16.77899900 471.79401000 0.08321160 -0.85911500 0.50497299 1.905766e-42
20.79470100 15.70810000 470.41901000 0.06429940 -0.89015597 0.45109600 1.905766e-42
19.39340000 15.12490000 469.45099000 0.00499822 -0.88279301 0.46973601 1.905766e-42
17.86630100 14.67020000 468.61401000 -0.05656930 -0.84591401 0.53031099 1.905766e-42
16.35129900 14.20730000 467.75900000 -0.13994600 -0.79319000 0.59267598 1.905766e-42
15.09760000 13.57420000 466.63300000 -0.19013900 -0.74225098 0.64258200 1.905766e-42
13.70420000 13.32480000 465.52200000 -0.24066500 -0.70201498 0.67026502 1.905766e-42
13.13630000 12.11820000 464.31299000 -0.22024800 -0.72144097 0.65651602 1.905766e-42
12.48450000 11.12110000 462.96301000 -0.20129400 -0.75482798 0.62427098 1.905766e-42
11.33140000 10.43140000 461.76501000 -0.23840800 -0.74181998 0.62678897 1.905766e-42
10.24780000 9.74454020 460.50299000 -0.26695901 -0.73296303 0.62569797 1.905766e-42
9.57969000 8.78230000 459.13599000 -0.26424301 -0.72432399 0.63681298 1.905766e-42
8.72647950 7.93047000 457.79999000 -0.25899899 -0.72254097 0.64097899 1.905766e-42
7.85324000 7.05309010 456.49301000 -0.23441800 -0.72596198 0.64655000 1.905766e-42
6.98290010 6.15619990 455.19800000 -0.22110499 -0.73040402 0.64623702 1.905766e-42
8.71848010 5.67934990 455.21799000 -0.24357800 -0.72192901 0.64767998 1.905766e-42
10.43930000 5.15427020 455.27200000 -0.27364299 -0.71236199 0.64626598 1.905766e-42
12.15110000 4.76371000 455.66901000 -0.27301201 -0.71486402 0.64376497 1.905766e-42
13.89060000 4.47361990 456.02899000 -0.22627901 -0.71320802 0.66342503 1.905766e-42
15.66920000 4.26072980 456.20599000 -0.17587300 -0.71130902 0.68052000 1.905766e-42
17.36860100 4.31157020 456.79700000 -0.10892200 -0.69414300 0.71154898 1.905766e-42
19.14580000 4.50019980 457.01199000 -0.05055570 -0.66852802 0.74196702 1.905766e-42
20.87610100 4.79994010 457.40701000 0.00886429 -0.61727297 0.78669900 1.905766e-42
22.67600100 4.81361010 457.40100000 0.06652170 -0.56358701 0.82337397 1.905766e-42
24.27599900 5.61691000 457.58701000 0.16805001 -0.49681899 0.85142797 1.905766e-42
25.93730000 6.30661010 457.51901000 0.28687301 -0.42807001 0.85700601 1.905766e-42
27.52599900 7.10194020 457.23099000 0.42310399 -0.33928299 0.84016103 1.905766e-42
28.25589900 8.72844980 457.47900000 0.44736001 -0.36636800 0.81586999 1.905766e-42
27.12400100 9.65347000 458.52899000 0.44105801 -0.43311399 0.78605402 1.905766e-42
26.24790000 10.64030000 459.75299000 0.46885100 -0.54201400 0.69742298 1.905766e-42
25.52669900 11.59910000 461.09500000 0.44980699 -0.63111502 0.63195503 1.905766e-42
24.64699900 12.26750000 462.51599000 0.40930301 -0.70560801 0.57843697 1.905766e-42
23.87050100 12.95750000 463.98599000 0.36065599 -0.76825500 0.52887797 1.905766e-42
23.20710000 13.65850000 465.50601000 0.30736399 -0.81930703 0.48400801 1.905766e-42
23.06920100 14.49800000 467.09201000 0.27368701 -0.86241400 0.42583799 1.905766e-42
22.35460100 15.01200000 468.66199000 0.19103700 -0.89322400 0.40700799 1.905766e-42
22.39200000 15.82510000 470.26801000 0.13145800 -0.89487100 0.42652699 1.905766e-42
