# .PCD v0.7 - Point Cloud Data file format
# 3 101 0
# 1 34 0
# 35 74 0
# 75 101 0
VERSION 0.7
FIELDS x y z normal_x normal_y normal_z curvature
SIZE 4 4 4 4 4 4 4
TYPE F F F F F F F
COUNT 1 1 1 1 1 1 1
WIDTH 101
HEIGHT 1
VIEWPOINT 0 0 0 1 0 0 0
POINTS 101
DATA ascii
34.85870000 -5.53772020 392.53000000 0.63340801 0.10299600 0.76693302 1.905766e-42
35.55619800 -4.09005020 391.71899000 0.63206798 0.16215700 0.75775599 1.905766e-42
35.98070100 -2.48505000 391.02301000 0.62450999 0.22450000 0.74805498 1.905766e-42
35.69689900 -0.76077700 390.59201000 0.61819702 0.28355101 0.73309702 1.905766e-42
35.74369800 0.80613703 389.70700000 0.60307097 0.30028400 0.73900902 1.905766e-42
35.20470000 2.51906990 389.58301000 0.60206300 0.30952600 0.73601198 1.905766e-42
35.25930000 4.14789010 388.81900000 0.59698701 0.31179899 0.73918098 1.905766e-42
34.64970000 5.84068010 388.76599000 0.60369402 0.31076401 0.73415202 1.905766e-42
34.47140100 7.54775000 388.22400000 0.60437298 0.31169999 0.73319602 1.905766e-42
34.40580000 9.18544010 387.48001000 0.60606700 0.35233900 0.71311998 1.905766e-42
33.75619900 10.74270000 387.18600000 0.59834498 0.39981100 0.69435900 1.905766e-42
33.64650000 12.23200000 386.18100000 0.59505302 0.45168400 0.66474998 1.905766e-42
33.08900100 13.84040000 385.59601000 0.58635998 0.49945301 0.63775301 1.905766e-42
32.53150200 15.39680000 384.88400000 0.57994401 0.54129398 0.60882300 1.905766e-42
31.94010000 16.92149900 384.13199000 0.57491601 0.56477898 0.59202802 1.905766e-42
31.35870000 18.37890100 383.25000000 0.56972599 0.56939000 0.59262699 1.905766e-42
30.58390000 19.81730100 382.49500000 0.56365800 0.57665497 0.59140497 1.905766e-42
29.90930000 21.33200100 381.79401000 0.55154699 0.59000200 0.58965498 1.905766e-42
29.69640000 22.68470000 380.62601000 0.54164302 0.60303003 0.58564299 1.905766e-42
29.32690000 23.95470000 379.40500000 0.52933800 0.61678702 0.58255899 1.905766e-42
28.23399900 25.34380000 379.06500000 0.52076298 0.61941701 0.58747602 1.905766e-42
27.88209900 26.62400100 377.84900000 0.51620698 0.60704499 0.60417402 1.905766e-42
27.34289900 28.06030100 376.90799000 0.51948297 0.58856100 0.61946201 1.905766e-42
26.96579900 29.55780000 375.98300000 0.52916402 0.56284797 0.63497001 1.905766e-42
26.41230000 31.07469900 375.18799000 0.53901702 0.53292501 0.65226603 1.905766e-42
26.42020000 32.38570000 373.95401000 0.55693698 0.53175098 0.63801402 1.905766e-42
26.25540000 33.87970000 372.96399000 0.56553102 0.55073798 0.61389101 1.905766e-42
26.17050000 35.23529800 371.78299000 0.57029200 0.57639199 0.58526897 1.905766e-42
25.69940000 36.67509800 370.81100000 0.56027901 0.61011302 0.56022298 1.905766e-42
25.10780000 38.05780000 369.82199000 0.54566097 0.64818603 0.53113902 1.905766e-42
24.65650000 39.30030100 368.60001000 0.52791202 0.65551400 0.54000998 1.905766e-42
24.10230100 40.64979900 367.54501000 0.51261503 0.65696102 0.55283600 1.905766e-42
23.41659900 42.02090100 366.60199000 0.50200498 0.65670300 0.56278902 1.905766e-42
22.62700100 43.38209900 365.72800000 0.49645701 0.65376401 0.57107300 1.905766e-42
21.79870000 44.73650000 364.88000000 0.49050501 0.65026498 0.58013803 1.905766e-42
20.22680100 45.29240000 365.55801000 0.47306600 0.65480298 0.58944100 1.905766e-42
19.02640000 44.94920000 366.85501000 0.45497599 0.66387898 0.59351498 1.905766e-42
18.04369900 44.45330000 368.27899000 0.43685201 0.67529202 0.59425598 1.905766e-42
16.90239900 44.06330100 369.61499000 0.41931701 0.68683100 0.59366298 1.905766e-42
15.73700000 43.63729900 370.91901000 0.40460899 0.69994998 0.58852500 1.905766e-42
14.52600000 43.15700100 372.16101000 0.39075401 0.71607798 0.57839799 1.905766e-42
13.52780000 42.56589900 373.53799000 0.38211799 0.71758699 0.58228397 1.905766e-42
12.35760000 42.00859800 374.78699000 0.37523600 0.70394301 0.60304397 1.905766e-42
11.62440000 41.18349800 376.20901000 0.37143099 0.68351001 0.62837303 1.905766e-42
10.44430000 40.58860000 377.43100000 0.35563001 0.67135602 0.65023798 1.905766e-42
10.23420000 39.48930000 378.84000000 0.35471100 0.64612502 0.67579699 1.905766e-42
9.06672000 38.85110100 380.05301000 0.33465201 0.63501298 0.69625199 1.905766e-42
8.30828000 37.93640100 381.40500000 0.32297400 0.63625300 0.70062101 1.905766e-42
7.44949010 36.97160000 382.65900000 0.31131899 0.63839102 0.70394403 1.905766e-42
6.45854000 36.04140100 383.83899000 0.29944700 0.64225501 0.70557803 1.905766e-42
5.41834020 35.14360000 385.00101000 0.29005101 0.64760101 0.70461601 1.905766e-42
4.66705990 34.12170000 386.27899000 0.30061799 0.64759803 0.70017499 1.905766e-42
4.18191000 32.92900100 387.53601000 0.31408200 0.64977401 0.69220400 1.905766e-42
3.09928990 32.04900000 388.67401000 0.32388201 0.65295899 0.68465000 1.905766e-42
2.28137990 31.11809900 389.97900000 0.32562801 0.65619498 0.68071598 1.905766e-42
1.90857990 30.08190000 391.40302000 0.32203600 0.66004598 0.67869902 1.905766e-42
1.13159000 29.14279900 392.72800000 0.31088799 0.66211700 0.68187201 1.905766e-42
0.60184002 28.05160000 394.05801000 0.29771101 0.65820098 0.69147700 1.905766e-42
0.05525480 26.91060100 395.33801000 0.28594700 0.65499002 0.69944501 1.905766e-42
-0.56410098 25.75970100 396.57599000 0.27566299 0.65266299 0.70572102 1.905766e-42
-1.28588000 24.59540000 397.74301000 0.26713800 0.65167302 0.70990199 1.905766e-42
-1.88935010 23.36249900 398.90799000 0.26254800 0.64215302 0.72021401 1.905766e-42
-2.17524000 22.14830000 400.20499000 0.25938699 0.60798401 0.75038201 1.905766e-42
-2.32749010 20.85990000 401.45300000 0.25870800 0.57062000 0.77939898 1.905766e-42
-2.82461000 19.55830000 402.59299000 0.25419900 0.53353900 0.80667198 1.905766e-42
-3.24035000 18.15399900 403.63901000 0.25263801 0.49337301 0.83231997 1.905766e-42
-3.78775000 16.69020100 404.53201000 0.25295001 0.46528599 0.84824800 1.905766e-42
-4.08905980 15.19400000 405.48700000 0.25648099 0.44697800 0.85698801 1.905766e-42
-4.26922990 13.58560000 406.27399000 0.25890201 0.42704001 0.86637598 1.905766e-42
-4.79968980 12.02310000 406.99301000 0.25582600 0.40775001 0.87652302 1.905766e-42
-5.20820000 10.48610000 407.83701000 0.24955000 0.38854399 0.88699400 1.905766e-42
-5.67767000 9.00485040 408.74500000 0.24788700 0.40883201 0.87829900 1.905766e-42
-5.52819010 7.44217010 409.62601000 0.25187901 0.42639101 0.86876202 1.905766e-42
-6.12654020 6.01337000 410.54300000 0.25414899 0.44438300 0.85903001 1.905766e-42
-6.51672980 4.43132020 411.30701000 0.28753600 0.46694499 0.83623201 1.905766e-42
-5.02558990 3.42309000 411.30701000 0.28626901 0.44804099 0.84694099 1.905766e-42
-3.56227990 2.37962010 411.20801000 0.30524901 0.43124500 0.84903002 1.905766e-42
-1.83803000 2.44314000 410.69501000 0.32199401 0.41181099 0.85248601 1.905766e-42
-0.61858898 1.12978010 410.52701000 0.34038001 0.39469001 0.85344100 1.905766e-42
1.10549000 0.84571701 410.09500000 0.34653199 0.37791601 0.85854298 1.905766e-42
2.83347010 0.85677898 409.59100000 0.34814900 0.36468899 0.86359400 1.905766e-42
4.37411020 0.03281220 409.15799000 0.36603200 0.33987400 0.86631799 1.905766e-42
6.07640980 0.00679148 408.57401000 0.38245001 0.31707501 0.86786801 1.905766e-42
7.53323980 -0.93468899 408.09299000 0.40459201 0.27804300 0.87120402 1.905766e-42
9.19211960 -1.31195000 407.50500000 0.41622001 0.24814799 0.87474799 1.905766e-42
10.83680000 -1.65120010 406.85699000 0.42315799 0.22380300 0.87797999 1.905766e-42
12.46930000 -1.47941010 406.11801000 0.42797700 0.21818300 0.87705803 1.905766e-42
13.97740000 -2.10647010 405.36200000 0.43932801 0.19401599 0.87712598 1.905766e-42
15.61990000 -2.23032000 404.63599000 0.44726199 0.18828100 0.87436098 1.905766e-42
17.09330000 -2.83527990 403.79800000 0.45642999 0.17444199 0.87249100 1.905766e-42
18.72300000 -2.66188000 403.05301000 0.47119701 0.18702400 0.86197197 1.905766e-42
20.30349900 -2.98181010 402.25299000 0.48879799 0.18700200 0.85211903 1.905766e-42
21.85380000 -3.00304010 401.33899000 0.51226997 0.19716001 0.83588701 1.905766e-42
23.32350000 -3.58471990 400.47800000 0.53282797 0.18467000 0.82582700 1.905766e-42
24.81399900 -3.93947010 399.53299000 0.55215001 0.17759401 0.81461102 1.905766e-42
26.25690100 -4.62498000 398.70300000 0.56414300 0.15534601 0.81093103 1.905766e-42
27.70210100 -4.92359020 397.67300000 0.57392800 0.14522600 0.80592501 1.905766e-42
29.19860100 -5.41935010 396.80399000 0.58572400 0.12144700 0.80136001 1.905766e-42
30.65589900 -5.64824010 395.77301000 0.59882200 0.09960180 0.79466498 1.905766e-42
31.88670000 -5.89645000 394.48300000 0.61122799 0.08142700 0.78725499 1.905766e-42
33.44290200 -5.56553980 393.64099000 0.62344801 0.09778020 0.77572602 1.905766e-42
