# .PCD v0.7 - Point Cloud Data file format
# 6 170 0
# 1 32 0
# 33 57 0
# 58 75 0
# 76 108 0
# 109 148 0
# 149 170 0
VERSION 0.7
FIELDS x y z normal_x normal_y normal_z curvature
SIZE 4 4 4 4 4 4 4
TYPE F F F F F F F
COUNT 1 1 1 1 1 1 1
WIDTH 170
HEIGHT 1
VIEWPOINT 0 0 0 1 0 0 0
POINTS 170
DATA ascii
13.96680000 71.96080000 527.06897000 0.12470700 -0.47660401 0.87022799 1.905766e-42
12.18330000 71.81690200 526.87299000 0.13007800 -0.48420000 0.86523402 1.905766e-42
12.22750000 71.18550100 526.84802000 0.12765300 -0.48714301 0.86394203 1.905766e-42
10.65090000 70.40499900 526.46698000 0.13159400 -0.49738401 0.85749203 1.905766e-42
9.34043030 69.22290000 526.11298000 0.13478300 -0.50919503 0.85003197 1.905766e-42
7.93154000 68.15370200 525.77899000 0.13916899 -0.52201402 0.84150600 1.905766e-42
6.32836010 67.41449700 525.42700000 0.14220400 -0.53559798 0.83241397 1.905766e-42
4.78220990 66.56600200 525.06702000 0.14442401 -0.54923999 0.82309002 1.905766e-42
3.45075990 65.39839900 524.74500000 0.14507800 -0.56398600 0.81294101 1.905766e-42
2.11588000 64.27449800 524.30402000 0.14600199 -0.57862300 0.80242002 1.905766e-42
0.68103302 63.28410000 523.85602000 0.14810900 -0.59216899 0.79208499 1.905766e-42
-0.77713698 62.31090200 523.44800000 0.15095299 -0.60505301 0.78174400 1.905766e-42
-2.35420990 61.60640000 522.94098000 0.15235700 -0.61809498 0.77119797 1.905766e-42
-3.81064010 60.69559900 522.40399000 0.14607400 -0.63761199 0.75638098 1.905766e-42
-5.18491980 59.65580000 521.88397000 0.13975200 -0.65762401 0.74027097 1.905766e-42
-6.60888000 58.72720000 521.29199000 0.13411701 -0.67695898 0.72369802 1.905766e-42
-7.87776990 57.67340100 520.57098000 0.12814000 -0.69770497 0.70483202 1.905766e-42
-9.39523980 56.84080100 520.07703000 0.12448300 -0.71486801 0.68809003 1.905766e-42
-11.02730000 56.19950100 519.67102000 0.12284500 -0.72950500 0.67285299 1.905766e-42
-12.63910000 55.54520000 519.20801000 0.12220000 -0.74435800 0.65650499 1.905766e-42
-14.37380000 55.15290100 518.93103000 0.12482000 -0.75501102 0.64372200 1.905766e-42
-15.74070000 54.23920100 518.19897000 0.12230600 -0.77267200 0.62291199 1.905766e-42
-17.36940000 53.57740000 517.81201000 0.12180700 -0.78608501 0.60599798 1.905766e-42
-18.86790100 52.80860100 517.17700000 0.11849200 -0.80173498 0.58581698 1.905766e-42
-20.59320100 52.42490000 516.83600000 0.11744300 -0.81335801 0.56978500 1.905766e-42
-22.03720100 51.65800100 516.08301000 0.11096100 -0.82928997 0.54769099 1.905766e-42
-23.55850000 51.01490000 515.36798000 0.10375500 -0.84410602 0.52604300 1.905766e-42
-25.18350000 50.55020100 514.74902000 0.10172000 -0.85496700 0.50861001 1.905766e-42
-26.61280100 49.79980100 513.95300000 0.09950800 -0.86605400 0.48994800 1.905766e-42
-28.09639900 49.19789900 513.13000000 0.09702310 -0.87694198 0.47070101 1.905766e-42
-29.60899900 48.59260200 512.36401000 0.09383010 -0.88760298 0.45095101 1.905766e-42
-31.05960100 48.01139800 511.47101000 0.08792720 -0.89848202 0.43011501 1.905766e-42
-32.43100000 47.44329800 510.45300000 0.07868490 -0.90930599 0.40862200 1.905766e-42
-32.51739900 46.72000100 508.80701000 0.06292450 -0.91778100 0.39207101 1.905766e-42
-32.07519900 46.13150000 507.16501000 0.04792760 -0.92363203 0.38027200 1.905766e-42
-31.43040100 45.51929900 505.60001000 0.03271790 -0.92854297 0.36978099 1.905766e-42
-31.19059900 44.83400000 503.95200000 0.01530180 -0.93514103 0.35394499 1.905766e-42
-31.28480000 44.22399900 502.26199000 -0.00339895 -0.94249099 0.33421499 1.905766e-42
-31.15239900 43.65790200 500.55801000 -0.02234080 -0.94827902 0.31665000 1.905766e-42
-31.23940100 43.12979900 498.83899000 -0.04217760 -0.95386899 0.29724601 1.905766e-42
-31.25589900 42.84940000 497.06201000 -0.06219170 -0.95812702 0.27950701 1.905766e-42
-30.53610000 42.14559900 495.56900000 -0.08003020 -0.95841700 0.27392000 1.905766e-42
-30.44120000 41.62739900 493.84799000 -0.10074800 -0.96037900 0.25984901 1.905766e-42
-30.07580000 41.09999800 492.16599000 -0.11962400 -0.96112502 0.24885400 1.905766e-42
-30.60390100 40.73949800 490.48401000 -0.13924100 -0.96353799 0.22848700 1.905766e-42
-30.83390000 40.54420100 488.70901000 -0.15879400 -0.96468103 0.21017700 1.905766e-42
-30.57300000 40.04480000 487.00000000 -0.17632399 -0.96452498 0.19647400 1.905766e-42
-30.42130100 39.63029900 485.25500000 -0.19274200 -0.96433002 0.18143500 1.905766e-42
-30.44870000 39.26680000 483.49200000 -0.20799799 -0.96413898 0.16484401 1.905766e-42
-30.50219900 38.99779900 481.71301000 -0.22315300 -0.96328002 0.14930999 1.905766e-42
-30.20920000 38.66550100 479.96799000 -0.24448501 -0.95892203 0.14386100 1.905766e-42
-30.78039900 38.73569900 478.26300000 -0.26019201 -0.95687902 0.12916000 1.905766e-42
-30.71150000 38.38119900 476.50000000 -0.27947199 -0.95231003 0.12248200 1.905766e-42
-30.78150000 38.15589900 474.71500000 -0.29740500 -0.94786900 0.11443500 1.905766e-42
-30.37060000 37.79000100 473.00101000 -0.31638199 -0.94200099 0.11196300 1.905766e-42
-31.01280000 38.08499900 471.34601000 -0.32839200 -0.93940800 0.09834120 1.905766e-42
-31.10870000 37.86990000 469.56100000 -0.34461799 -0.93432200 0.09099440 1.905766e-42
-30.37940000 37.28170000 468.02399000 -0.36227101 -0.92741001 0.09311390 1.905766e-42
-28.85940000 36.63259900 467.31100000 -0.37312001 -0.92194200 0.10394200 1.905766e-42
-27.75610000 36.04790100 466.01501000 -0.38234401 -0.91813201 0.10414500 1.905766e-42
-26.50860000 35.39839900 464.89200000 -0.39045101 -0.91447198 0.10625200 1.905766e-42
-25.28680000 34.71180000 463.76199000 -0.39843500 -0.91080499 0.10809300 1.905766e-42
-24.15020000 34.07830000 462.51801000 -0.40687701 -0.90702403 0.10843800 1.905766e-42
-22.92869900 33.31200000 461.44101000 -0.41417000 -0.90345901 0.11056500 1.905766e-42
-21.43700000 32.54200000 460.79099000 -0.41842800 -0.90065497 0.11721300 1.905766e-42
-20.47120100 32.00170100 459.37201000 -0.42346799 -0.89901602 0.11156100 1.905766e-42
-19.09410100 31.19389900 458.54001000 -0.42159000 -0.89995903 0.11107000 1.905766e-42
-17.78010000 30.42939900 457.57700000 -0.41966099 -0.90105498 0.10947200 1.905766e-42
-16.85619900 29.92490000 456.11700000 -0.42099801 -0.90122300 0.10275200 1.905766e-42
-15.68720000 29.22300000 454.94199000 -0.41928399 -0.90233600 0.09995720 1.905766e-42
-14.34360000 28.48360100 453.99899000 -0.41514501 -0.90426701 0.09978500 1.905766e-42
-13.06810000 27.79010000 452.93500000 -0.41149199 -0.90600401 0.09915480 1.905766e-42
-11.83500000 27.10490000 451.81699000 -0.41008401 -0.90644300 0.10096200 1.905766e-42
-10.67190000 26.49659900 450.58499000 -0.40898100 -0.90670002 0.10310100 1.905766e-42
-9.51576040 25.86630100 449.35800000 -0.40732101 -0.90701801 0.10680800 1.905766e-42
-8.26764010 25.11910100 448.29800000 -0.40388599 -0.90782303 0.11284500 1.905766e-42
-6.64724020 24.44420100 448.69601000 -0.39291099 -0.91174400 0.11976100 1.905766e-42
-5.11612990 23.85520000 449.43701000 -0.38157800 -0.91573501 0.12580501 1.905766e-42
-3.71648000 23.44290000 450.49100000 -0.37062201 -0.91938901 0.13176900 1.905766e-42
-2.58880000 23.16130100 451.86600000 -0.36064601 -0.92228597 0.13900900 1.905766e-42
-1.36957000 22.90530000 453.16501000 -0.35073301 -0.92460197 0.14865300 1.905766e-42
0.05246270 22.57710100 454.21899000 -0.34065399 -0.92650402 0.15982600 1.905766e-42
1.42209010 22.25309900 455.34100000 -0.33035499 -0.92775100 0.17361900 1.905766e-42
2.77791000 21.96180000 456.48801000 -0.32083201 -0.92815000 0.18868899 1.905766e-42
4.30496980 21.63520100 457.38300000 -0.31226900 -0.92806798 0.20292100 1.905766e-42
5.87050010 21.31349900 458.21100000 -0.30373001 -0.92782199 0.21654999 1.905766e-42
7.37048010 21.05100100 459.17099000 -0.29450700 -0.92753798 0.23008700 1.905766e-42
9.01852040 20.71279900 459.81100000 -0.28657201 -0.92692500 0.24225400 1.905766e-42
10.63520000 20.42270100 460.54800000 -0.27823201 -0.92623800 0.25430200 1.905766e-42
12.36920000 20.00190000 460.78500000 -0.27209300 -0.92537600 0.26390401 1.905766e-42
13.96080000 19.75869900 461.58899000 -0.26315501 -0.92446399 0.27589101 1.905766e-42
15.57860000 19.49090000 462.33200000 -0.25427899 -0.92323798 0.28805199 1.905766e-42
17.32740000 19.06690000 462.37701000 -0.24881800 -0.92208701 0.29638499 1.905766e-42
19.08090000 18.66020000 462.37201000 -0.24390000 -0.92092901 0.30397600 1.905766e-42
20.69780000 18.39209900 463.11600000 -0.23656800 -0.91910702 0.31508401 1.905766e-42
22.44990000 17.98150100 463.15601000 -0.23262601 -0.91775101 0.32189700 1.905766e-42
24.20070100 17.56500100 463.19000000 -0.23072200 -0.91551203 0.32955399 1.905766e-42
25.97760000 17.27800000 463.18100000 -0.23115800 -0.91173398 0.33956799 1.905766e-42
27.58639900 16.99060100 463.93500000 -0.22651599 -0.90903598 0.34977701 1.905766e-42
29.34180100 16.59620100 463.98999000 -0.21823899 -0.90622199 0.36212400 1.905766e-42
31.05360000 16.41300000 464.51599000 -0.20493400 -0.90367699 0.37599200 1.905766e-42
32.78680000 16.12680100 464.12299000 -0.19607800 -0.90216500 0.38425601 1.905766e-42
34.47320200 15.81720000 464.67099000 -0.18128000 -0.90006799 0.39625099 1.905766e-42
36.13670000 15.69870000 465.34799000 -0.16587500 -0.89772397 0.40813801 1.905766e-42
37.91999800 15.52800000 465.52399000 -0.15264100 -0.89571601 0.41760501 1.905766e-42
39.56100100 15.53000000 466.26401000 -0.13825101 -0.89282298 0.42866501 1.905766e-42
41.26779900 15.58680000 466.83301000 -0.12534200 -0.88971198 0.43897700 1.905766e-42
43.03929900 15.50200000 467.14001000 -0.11877800 -0.88772398 0.44479001 1.905766e-42
44.49430100 15.84660000 468.14200000 -0.11265600 -0.88433099 0.45306399 1.905766e-42
45.14749900 16.57770000 469.65201000 -0.10619300 -0.87996602 0.46301600 1.905766e-42
46.06000100 17.34339900 471.00101000 -0.09934590 -0.87471598 0.47434399 1.905766e-42
46.30049900 18.10070000 472.61700000 -0.09134830 -0.86948901 0.48543301 1.905766e-42
46.33700200 19.03570000 474.15399000 -0.08243130 -0.86434901 0.49609101 1.905766e-42
45.58580000 19.77389900 475.61401000 -0.07468090 -0.86162698 0.50201702 1.905766e-42
45.54460100 20.60890000 477.20801000 -0.06430500 -0.85665703 0.51186299 1.905766e-42
46.75970100 21.48940100 478.20200000 -0.05474760 -0.84935701 0.52497202 1.905766e-42
47.55379900 22.13670000 479.68201000 -0.04626540 -0.84293002 0.53603101 1.905766e-42
48.11010000 23.00449900 481.15799000 -0.03617860 -0.83658201 0.54664600 1.905766e-42
48.00780100 24.02650100 482.63599000 -0.02375770 -0.83223403 0.55391502 1.905766e-42
48.15290100 25.05069900 484.10901000 -0.01487160 -0.82401401 0.56637400 1.905766e-42
48.73669800 26.10920000 485.44299000 -0.00847009 -0.81218100 0.58334398 1.905766e-42
49.29430000 26.98460000 486.91299000 -0.00144143 -0.79983598 0.60021698 1.905766e-42
49.98659900 27.97139900 488.25000000 0.00674604 -0.78725302 0.61659300 1.905766e-42
50.15499900 29.09040100 489.64999000 0.01363530 -0.77533102 0.63140798 1.905766e-42
50.32690000 30.23370000 491.03000000 0.01781400 -0.76571298 0.64293599 1.905766e-42
50.97409800 31.33480100 492.29800000 0.02355800 -0.75646597 0.65360898 1.905766e-42
51.57580200 32.46630100 493.56201000 0.03014230 -0.74747300 0.66360700 1.905766e-42
51.76540000 33.68690100 494.87100000 0.03682650 -0.73927802 0.67239302 1.905766e-42
52.58369800 34.84520000 495.98001000 0.04523400 -0.73035699 0.68156600 1.905766e-42
53.15290100 36.03939800 497.20001000 0.05407970 -0.72152299 0.69027603 1.905766e-42
53.62780000 37.26089900 498.43399000 0.06280550 -0.71221399 0.69914699 1.905766e-42
54.12440100 38.47660100 499.66501000 0.06884170 -0.70002300 0.71079397 1.905766e-42
54.85979800 39.76610200 500.68301000 0.07250030 -0.68866801 0.72144300 1.905766e-42
55.28410000 41.01720000 501.90601000 0.07514340 -0.67572498 0.73331302 1.905766e-42
55.23659900 42.35369900 503.10999000 0.07786110 -0.66201401 0.74543601 1.905766e-42
55.21089900 43.65620000 504.35300000 0.08121500 -0.64767700 0.75757402 1.905766e-42
56.15630000 44.84820200 505.31500000 0.08452570 -0.63339102 0.76920199 1.905766e-42
57.09190000 46.11930100 506.17999000 0.08711480 -0.61849201 0.78094703 1.905766e-42
57.25840000 47.60780000 507.17801000 0.09160730 -0.60242498 0.79290199 1.905766e-42
56.53780000 48.88449900 508.22299000 0.09733210 -0.58965498 0.80176902 1.905766e-42
55.63380100 50.07500100 509.22501000 0.10111300 -0.57741302 0.81016701 1.905766e-42
55.09809900 51.44570200 510.26199000 0.10440100 -0.56178498 0.82066900 1.905766e-42
54.44820000 52.77479900 511.28699000 0.10787300 -0.54689503 0.83022302 1.905766e-42
53.38600200 53.92400000 512.17700000 0.11035900 -0.53549498 0.83729702 1.905766e-42
52.63010000 55.24480100 513.13800000 0.11376200 -0.52210498 0.84526002 1.905766e-42
52.06860000 56.67330200 514.07800000 0.11776900 -0.50806499 0.85323000 1.905766e-42
51.43100000 58.13510100 514.91302000 0.12147600 -0.49520901 0.86023903 1.905766e-42
50.73469900 59.55090000 515.77899000 0.12421500 -0.48308501 0.86671799 1.905766e-42
49.89690000 60.84870100 516.70300000 0.12575300 -0.47218600 0.87248302 1.905766e-42
48.25849900 61.37889900 517.22699000 0.12254100 -0.47019699 0.87401301 1.905766e-42
46.60490000 61.91809800 517.69098000 0.11902000 -0.46823001 0.87555403 1.905766e-42
44.90459800 62.32569900 518.11798000 0.11501900 -0.46722701 0.87662399 1.905766e-42
43.26979800 62.84009900 518.66803000 0.11164500 -0.46463701 0.87843502 1.905766e-42
41.64139900 63.44110100 519.14502000 0.10867800 -0.46137500 0.88052398 1.905766e-42
39.94879900 63.81610100 519.62903000 0.10771700 -0.46160901 0.88051897 1.905766e-42
38.50120200 64.83170300 519.96600000 0.10994600 -0.45882699 0.88169700 1.905766e-42
36.77909900 64.79850000 520.48901000 0.10875400 -0.46214500 0.88011098 1.905766e-42
35.15959900 65.38929700 521.00598000 0.10893000 -0.46098301 0.88069803 1.905766e-42
33.63449900 66.16719800 521.56201000 0.10929600 -0.45794401 0.88223702 1.905766e-42
31.88880000 66.35140200 521.96002000 0.10787200 -0.45905000 0.88183701 1.905766e-42
30.48340000 67.32820100 522.51801000 0.10840000 -0.45372099 0.88452601 1.905766e-42
28.86450000 67.93550100 523.01801000 0.10996800 -0.45273900 0.88483602 1.905766e-42
27.21629900 68.48120100 523.49298000 0.11216700 -0.45271400 0.88457298 1.905766e-42
25.50000000 68.72190100 523.97900000 0.11338000 -0.45387900 0.88382101 1.905766e-42
23.87089900 69.29900400 524.48199000 0.11406500 -0.45320299 0.88407898 1.905766e-42
22.37929900 70.25730100 524.79303000 0.11319500 -0.45163500 0.88499302 1.905766e-42
20.66410100 70.35549900 525.33002000 0.10815800 -0.45604700 0.88335901 1.905766e-42
19.00300000 70.83580000 525.83002000 0.10558500 -0.45655701 0.88340700 1.905766e-42
17.45599900 71.64370000 526.27100000 0.11260900 -0.46191201 0.87974799 1.905766e-42
15.73560000 71.87629700 526.74701000 0.11862700 -0.46969900 0.87481999 1.905766e-42
