# .PCD v0.7 - Point Cloud Data file format
# 4 64 1
# 1 13 0
# 14 30 0
# 31 46 0
# 47 64 1
VERSION 0.7
FIELDS x y z normal_x normal_y normal_z curvature
SIZE 4 4 4 4 4 4 4
TYPE F F F F F F F
COUNT 1 1 1 1 1 1 1
WIDTH 64
HEIGHT 1
VIEWPOINT 0 0 0 1 0 0 0
POINTS 64
DATA ascii
11.29040000 -7.26792000 408.23599000 -0.77009499 0.24912401 0.58727401 1.905766e-42
12.46400000 -6.85647010 409.53799000 -0.58207899 0.33391699 0.74140602 1.905766e-42
14.04540000 -6.56395010 410.34601000 -0.41367301 0.38128099 0.82674003 1.905766e-42
15.75830000 -6.33055020 410.84799000 -0.31834501 0.38636601 0.86566597 1.905766e-42
17.48440000 -6.19348000 411.34000000 -0.29421300 0.38769400 0.87357402 1.905766e-42
19.12089900 -5.58940980 411.78299000 -0.28357300 0.38578799 0.87792599 1.905766e-42
20.85890000 -5.58863020 412.25201000 -0.26589701 0.38458699 0.88396299 1.905766e-42
22.56539900 -5.19634010 412.66901000 -0.23863600 0.37699500 0.89494598 1.905766e-42
24.32070000 -5.21558000 413.06699000 -0.20717600 0.37351200 0.90419400 1.905766e-42
26.07119900 -5.54105000 413.33099000 -0.16082200 0.37515301 0.91290498 1.905766e-42
27.80320000 -5.26961990 413.73901000 -0.09719170 0.37728199 0.92098403 1.905766e-42
29.58729900 -5.40304990 413.93701000 -0.08460850 0.41771200 0.90463102 1.905766e-42
32.63180200 -4.98116020 413.84698000 -0.00957130 0.48499000 0.87446702 1.905766e-42
34.16910200 -4.16957000 413.38101000 0.10548900 0.49491099 0.86251700 1.905766e-42
34.45320100 -2.64197990 412.47198000 0.19172101 0.49124900 0.84965700 1.905766e-42
34.94689900 -1.25880000 411.43100000 0.27105001 0.51180899 0.81522000 1.905766e-42
35.29779800 0.09142400 410.29401000 0.30864099 0.50744599 0.80451202 1.905766e-42
36.20610000 1.30155000 409.31900000 0.33853799 0.49464801 0.80044699 1.905766e-42
36.23189900 2.84475990 408.39301000 0.33862799 0.49446699 0.80052102 1.905766e-42
36.92499900 4.12267020 407.33099000 0.35507599 0.50608802 0.78600001 1.905766e-42
37.74739800 5.21453000 406.16000000 0.37614599 0.52154303 0.76583803 1.905766e-42
38.42630000 6.46358010 405.05600000 0.39274499 0.54074800 0.74387002 1.905766e-42
39.13200000 7.56980990 403.82401000 0.39944401 0.54138398 0.73982900 1.905766e-42
39.75750000 8.67337990 402.54700000 0.40516600 0.54066700 0.73723799 1.905766e-42
40.31150100 9.83273980 401.28601000 0.41476399 0.54519498 0.72851402 1.905766e-42
41.37649900 10.68820000 400.11401000 0.43708900 0.57505798 0.69156498 1.905766e-42
41.70809900 12.06810000 399.00699000 0.45116800 0.61984301 0.64206100 1.905766e-42
42.75410100 12.50870000 397.60999000 0.44794300 0.64933902 0.61457801 1.905766e-42
43.23830000 13.37280000 396.10699000 0.43600199 0.66890800 0.60205001 1.905766e-42
43.58100100 14.46290000 394.71600000 0.42915499 0.67980897 0.59471399 1.905766e-42
42.97779800 15.73920000 393.59900000 0.42938700 0.68038601 0.59388798 1.905766e-42
41.39960100 16.60479900 393.60001000 0.42507201 0.67916799 0.59836900 1.905766e-42
39.85889800 17.53550000 393.60199000 0.33828500 0.73882997 0.58283198 1.905766e-42
38.20029800 18.23469900 393.61700000 0.24888200 0.78830802 0.56269699 1.905766e-42
36.44120000 18.56450100 393.80899000 0.17995401 0.81459397 0.55141002 1.905766e-42
35.06880200 19.13530000 392.79401000 0.12312200 0.83253402 0.54011798 1.905766e-42
33.30210100 19.47940100 392.77499000 0.05263220 0.84519398 0.53186202 1.905766e-42
31.51050000 19.65160000 392.75500000 -0.03136420 0.85387897 0.51952600 1.905766e-42
29.71089900 19.65119900 392.71399000 -0.11321900 0.85736197 0.50210798 1.905766e-42
27.94080000 19.48010100 392.43500000 -0.16865499 0.86098200 0.47986001 1.905766e-42
26.30100100 19.50460100 391.69299000 -0.20800801 0.87428498 0.43858799 1.905766e-42
24.67569900 19.51359900 390.92001000 -0.19913299 0.88930601 0.41168100 1.905766e-42
23.00230000 19.25900100 390.30701000 -0.15553600 0.89299101 0.42234501 1.905766e-42
21.21480000 19.13100100 390.13901000 -0.17959000 0.87520498 0.44918099 1.905766e-42
19.50289900 18.81130000 389.68399000 -0.29840201 0.85451299 0.42516300 1.905766e-42
17.79560100 18.28760000 389.45901000 -0.43574899 0.79859400 0.41517600 1.905766e-42
16.32230000 17.30380100 389.14001000 -0.58622199 0.71215200 0.38624299 1.905766e-42
15.80900000 16.30880000 390.54901000 -0.62871301 0.70199001 0.33455899 1.905766e-42
15.15270000 14.98200000 391.57300000 -0.68351299 0.66441602 0.30226001 1.905766e-42
14.71960000 13.97760000 393.00299000 -0.69445401 0.65050101 0.30754200 1.905766e-42
14.25180000 12.81480000 394.29501000 -0.70688599 0.62996900 0.32163799 1.905766e-42
13.80440000 11.61730000 395.56201000 -0.71553999 0.60566503 0.34809801 1.905766e-42
13.63440000 10.69390000 397.09799000 -0.68620402 0.60141301 0.40917701 1.905766e-42
13.45530000 9.54351040 398.47000000 -0.66207200 0.59241199 0.45903099 1.905766e-42
12.78410000 7.98680020 399.07501000 -0.73718601 0.53007501 0.41901901 1.905766e-42
12.56570000 6.72269010 400.33801000 -0.73737699 0.51285899 0.43960300 1.905766e-42
12.27520000 5.30159000 401.40399000 -0.74079001 0.48493800 0.46482700 1.905766e-42
12.02970000 3.86135010 402.45499000 -0.73625898 0.45063600 0.50482702 1.905766e-42
11.72960000 2.26533010 403.23199000 -0.75615400 0.40699399 0.51243299 1.905766e-42
11.52990000 0.68336701 404.06699000 -0.77298898 0.36772400 0.51697803 1.905766e-42
11.42180000 -0.85562402 404.99399000 -0.79460001 0.33048499 0.50930399 1.905766e-42
11.34010000 -2.43020010 405.86200000 -0.82050699 0.30672899 0.48237601 1.905766e-42
11.21860000 -4.05203010 406.63400000 -0.82854998 0.28178999 0.48383799 1.905766e-42
11.19810000 -5.62155010 407.51501000 -0.78849602 0.26032701 0.55722803 1.905766e-42
