# .PCD v0.7 - Point Cloud Data file format
# 3 59 1
# 1 20 1
# 21 37 0
# 38 59 0
VERSION 0.7
FIELDS x y z normal_x normal_y normal_z curvature
SIZE 4 4 4 4 4 4 4
TYPE F F F F F F F
COUNT 1 1 1 1 1 1 1
WIDTH 59
HEIGHT 1
VIEWPOINT 0 0 0 1 0 0 0
POINTS 59
DATA ascii
-2.76621010 7.24525020 471.94901000 -0.34864199 -0.09576920 0.93234998 1.905766e-42
-1.09155000 7.19862990 472.60699000 -0.34138599 -0.14272600 0.92902398 1.905766e-42
0.62757498 7.19314000 473.14001000 -0.28937900 -0.22214800 0.93107998 1.905766e-42
2.36749010 7.19311000 473.60199000 -0.22016200 -0.32321399 0.92035902 1.905766e-42
3.97493000 7.70308020 474.23099000 -0.20432401 -0.25508901 0.94508302 1.905766e-42
5.74323990 7.39770980 474.37201000 -0.18519400 -0.31285700 0.93156999 1.905766e-42
7.38803010 7.86347010 474.93500000 -0.18214101 -0.28099799 0.94226599 1.905766e-42
9.16147990 7.96829990 475.22501000 -0.12619700 -0.30091900 0.94526303 1.905766e-42
10.95070000 7.98392010 475.42099000 -0.10290700 -0.30950800 0.94531202 1.905766e-42
12.72500000 7.98669000 475.72400000 -0.10953400 -0.28379101 0.95261002 1.905766e-42
14.30550000 8.76268010 476.09799000 -0.06685030 -0.14541300 0.98711002 1.905766e-42
16.08589900 8.59344010 475.89499000 -0.01103470 -0.19346100 0.98104602 1.905766e-42
16.73430100 8.77787970 475.99600000 0.00690644 -0.16709600 0.98591602 1.905766e-42
18.52879900 8.91800980 475.99701000 0.04861970 -0.17484701 0.98339498 1.905766e-42
20.27220000 9.36221030 476.05600000 0.06897900 -0.10366500 0.99221700 1.905766e-42
22.06160000 9.54864030 476.00000000 0.08855510 -0.06154890 0.99416798 1.905766e-42
23.68800000 8.92047980 475.55301000 0.13974100 -0.17879701 0.97391200 1.905766e-42
25.44039900 8.66991040 475.22601000 0.18812799 -0.20044500 0.96147299 1.905766e-42
27.21320000 8.77690980 474.93399000 0.20731901 -0.16799900 0.96373999 1.905766e-42
28.97200000 8.76758000 474.55099000 0.17554501 -0.12872399 0.97601902 1.905766e-42
30.37820100 9.88607980 474.44400000 0.19909300 0.10319200 0.97453201 1.905766e-42
30.40220100 11.63250000 474.00900000 0.27098501 0.26723999 0.92474300 1.905766e-42
30.41659900 13.29510000 473.31900000 0.24165000 0.43405801 0.86786997 1.905766e-42
30.40620000 14.88360000 472.47299000 0.22668301 0.49523300 0.83866501 1.905766e-42
30.24950000 16.29620000 471.36801000 0.24021000 0.49415600 0.83552903 1.905766e-42
28.95500000 17.54670000 471.34399000 0.22896001 0.50506800 0.83215600 1.905766e-42
28.72450100 19.08250000 470.43399000 0.22327800 0.52576703 0.82080197 1.905766e-42
27.99150100 20.54579900 469.68500000 0.20522100 0.55009598 0.80949301 1.905766e-42
27.41080100 21.98760000 468.77701000 0.18915200 0.57663101 0.79480702 1.905766e-42
26.75289900 23.38769900 467.85699000 0.16880800 0.61307800 0.77177602 1.905766e-42
25.77220000 24.64489900 467.02100000 0.15068799 0.65461200 0.74079400 1.905766e-42
25.08270100 25.91510000 465.94800000 0.12534501 0.72357500 0.67876899 1.905766e-42
24.85590000 27.04579900 464.56601000 0.09446230 0.80180198 0.59007698 1.905766e-42
23.96080000 27.99970100 463.32999000 0.07443450 0.85532999 0.51270902 1.905766e-42
23.26790000 28.82700000 461.88901000 0.05289080 0.89519203 0.44253200 1.905766e-42
22.62190100 29.42490000 460.31900000 0.03245860 0.91909200 0.39270499 1.905766e-42
21.79670000 30.11599900 458.87601000 0.01730330 0.92044300 0.39049399 1.905766e-42
20.09820000 30.38710000 458.34601000 -0.00335316 0.92376399 0.38294801 1.905766e-42
18.76090000 29.97300000 459.47699000 -0.00982198 0.92734402 0.37408099 1.905766e-42
17.03860100 29.66000000 459.89600000 -0.02942440 0.92510700 0.37856400 1.905766e-42
16.10400000 29.09870000 461.32901000 -0.04048250 0.91344398 0.40494600 1.905766e-42
14.33620000 28.89049900 461.59601000 -0.04230710 0.90420097 0.42500699 1.905766e-42
13.16210000 28.24180000 462.79599000 -0.06660290 0.87792099 0.47415000 1.905766e-42
11.71680000 27.58900100 463.64801000 -0.09507210 0.84463698 0.52683002 1.905766e-42
10.42370000 26.76750000 464.59299000 -0.12798400 0.79956502 0.58678502 1.905766e-42
9.13566970 25.86319900 465.46600000 -0.16128400 0.74708998 0.64486003 1.905766e-42
7.91337010 24.82379900 466.28201000 -0.19396400 0.69229102 0.69506198 1.905766e-42
6.47808980 23.84390100 466.75101000 -0.22010800 0.64903402 0.72822201 1.905766e-42
5.14826010 22.74500100 467.26501000 -0.24520101 0.61273003 0.75129098 1.905766e-42
4.06954000 21.46550000 467.92801000 -0.26829699 0.57436198 0.77338499 1.905766e-42
3.19498990 20.03970000 468.59299000 -0.28746501 0.54162401 0.78994101 1.905766e-42
1.94841000 18.77910000 468.90399000 -0.31259701 0.51445401 0.79851103 1.905766e-42
0.95955902 17.38430000 469.46701000 -0.33587900 0.49528500 0.80117297 1.905766e-42
-0.16238600 16.01440000 469.79001000 -0.35413599 0.48134801 0.80180597 1.905766e-42
-1.37138000 14.68200000 469.84500000 -0.37117901 0.45670000 0.80848700 1.905766e-42
-2.18739010 13.19030000 470.43600000 -0.36787301 0.43526599 0.82171297 1.905766e-42
-2.53087000 11.58330000 471.17001000 -0.38974500 0.40044999 0.82929999 1.905766e-42
-3.93452000 10.47670000 470.95801000 -0.35112900 0.33713099 0.87352800 1.905766e-42
-3.43651010 8.88691040 471.63901000 -0.38107899 0.16970500 0.90883398 1.905766e-42
