# .PCD v0.7 - Point Cloud Data file format
# 4 128 -2
# 1 11 0
# 12 53 0
# 54 95 0
# 96 128 0
VERSION 0.7
FIELDS x y z normal_x normal_y normal_z curvature
SIZE 4 4 4 4 4 4 4
TYPE F F F F F F F
COUNT 1 1 1 1 1 1 1
WIDTH 128
HEIGHT 1
VIEWPOINT 0 0 0 1 0 0 0
POINTS 128
DATA ascii
22.70010000 -5.38166000 390.39700000 0.22157501 0.71363997 -0.66454601 1.905766e-42
20.95130000 -4.95559980 390.38000000 0.21971300 0.71422899 -0.66453302 1.905766e-42
19.23189900 -4.42373990 390.35400000 0.21863900 0.71414000 -0.66498202 1.905766e-42
17.48399900 -4.03399990 390.17200000 0.21825700 0.71426600 -0.66497201 1.905766e-42
16.87260100 -3.64965010 390.39899000 0.21810900 0.71337998 -0.66597098 1.905766e-42
15.16030000 -3.09557010 390.36600000 0.21802001 0.71302402 -0.66638100 1.905766e-42
13.40510000 -2.70105000 390.30600000 0.21697000 0.71307802 -0.66666698 1.905766e-42
11.65960000 -2.29625010 390.13501000 0.21596199 0.71363598 -0.66639602 1.905766e-42
10.05600000 -1.52185000 390.39600000 0.21450099 0.71331698 -0.66720903 1.905766e-42
8.32310960 -1.03503000 390.41199000 0.21302700 0.71432000 -0.66660798 1.905766e-42
6.60946990 -0.49264801 390.50800000 0.21090300 0.71571898 -0.66578197 1.905766e-42
5.14370010 0.43870699 390.98099000 0.20709500 0.71632302 -0.66632801 1.905766e-42
4.07800010 1.50635000 391.96301000 0.20393801 0.71491897 -0.66880500 1.905766e-42
4.16134020 2.76042010 393.25201000 0.20222101 0.71292299 -0.67145199 1.905766e-42
3.35733010 3.79235010 394.48801000 0.20085301 0.71244299 -0.67237097 1.905766e-42
3.63018990 5.15805010 395.62900000 0.19997300 0.71201998 -0.67308098 1.905766e-42
3.62175990 6.42247010 396.91000000 0.19937401 0.71227199 -0.67299199 1.905766e-42
3.44400000 7.69562010 398.17001000 0.20108400 0.70983303 -0.67505699 1.905766e-42
3.32557010 8.95061970 399.45401000 0.20303699 0.70692098 -0.67752302 1.905766e-42
3.53475000 10.13820000 400.79099000 0.20477401 0.70425397 -0.67977500 1.905766e-42
2.86996010 11.34000000 401.95401000 0.20693401 0.70096397 -0.68251598 1.905766e-42
2.79507990 12.61730000 403.22000000 0.20895500 0.69790101 -0.68503398 1.905766e-42
2.76335000 13.90400000 404.47900000 0.21112999 0.69482398 -0.68749100 1.905766e-42
2.37018990 15.15320000 405.71399000 0.21341200 0.69137102 -0.69026202 1.905766e-42
2.60939000 16.48910000 406.89600000 0.21637499 0.68848300 -0.69222301 1.905766e-42
3.16626000 17.62130000 408.17999000 0.22027500 0.68642300 -0.69303799 1.905766e-42
2.71612000 18.94720100 409.31100000 0.22315100 0.68298501 -0.69551098 1.905766e-42
2.29485990 20.26630000 410.46100000 0.22591101 0.67955601 -0.69797498 1.905766e-42
1.54443000 21.51680000 411.51599000 0.22833900 0.67595398 -0.70067698 1.905766e-42
0.64262301 22.73570100 412.48599000 0.23081200 0.67184597 -0.70380998 1.905766e-42
0.37352601 24.06850100 413.66599000 0.23369400 0.66760802 -0.70688498 1.905766e-42
-0.16656999 25.40950000 414.73801000 0.23643699 0.66304398 -0.71026099 1.905766e-42
-1.35353000 26.47920000 415.56699000 0.23882800 0.65848398 -0.71369499 1.905766e-42
-2.24292990 27.81450100 416.38300000 0.24154000 0.65367597 -0.71719301 1.905766e-42
-2.77621010 29.24460000 417.33701000 0.24439000 0.64878398 -0.72066098 1.905766e-42
-3.54879000 30.59040100 418.24899000 0.24287499 0.65155298 -0.71867299 1.905766e-42
-3.71113990 31.97050100 419.39301000 0.23897000 0.65474403 -0.71708000 1.905766e-42
-4.91070990 33.11159900 420.09900000 0.22972900 0.65937901 -0.71585101 1.905766e-42
-5.04064990 34.52290000 421.20901000 0.22399600 0.66152298 -0.71569097 1.905766e-42
-5.82012990 35.78820000 422.22501000 0.21131399 0.66529697 -0.71604902 1.905766e-42
-6.42882010 37.10469800 423.29099000 0.19656600 0.66745001 -0.71824300 1.905766e-42
-7.98574020 37.60699800 424.04099000 0.17722900 0.67104101 -0.71992600 1.905766e-42
-8.56237980 38.89519900 425.15900000 0.16912600 0.66974002 -0.72307998 1.905766e-42
-8.14352990 40.39220000 426.06601000 0.16643600 0.66676402 -0.72644699 1.905766e-42
-8.39513970 41.66429900 427.31500000 0.16333100 0.66668999 -0.72721899 1.905766e-42
-8.24003030 43.01630000 428.49301000 0.16760901 0.66815698 -0.72489500 1.905766e-42
-8.21510030 44.39790000 429.64600000 0.17330000 0.66921401 -0.72257799 1.905766e-42
-8.04485990 45.67950100 430.89899000 0.18351600 0.66725397 -0.72186798 1.905766e-42
-8.04088020 46.92340100 432.20001000 0.19201900 0.66529697 -0.72146302 1.905766e-42
-7.68017010 48.26730000 433.34100000 0.20218401 0.66436100 -0.71954602 1.905766e-42
-7.30828000 49.54010000 434.55899000 0.21174200 0.66357398 -0.71752000 1.905766e-42
-8.03085990 50.79740100 435.62500000 0.21301700 0.66109300 -0.71943098 1.905766e-42
-8.55844970 52.00140000 436.85501000 0.21612300 0.65922600 -0.72021699 1.905766e-42
-7.06002000 52.68569900 437.57999000 0.22744501 0.66073102 -0.71533400 1.905766e-42
-5.47218990 51.86060000 437.38501000 0.23420499 0.66276503 -0.71126002 1.905766e-42
-3.82575990 51.15190100 437.22101000 0.23599499 0.66443002 -0.70911199 1.905766e-42
-2.12136010 50.70629900 437.59100000 0.23615400 0.66624999 -0.70734799 1.905766e-42
-0.44118801 50.06359900 437.52802000 0.23384200 0.66872901 -0.70577502 1.905766e-42
1.19087000 49.37839900 437.20099000 0.22974101 0.67154002 -0.70445198 1.905766e-42
2.84292010 48.67480100 437.07599000 0.22425100 0.67485499 -0.70305198 1.905766e-42
4.54292010 48.36589800 437.58099000 0.22286899 0.67927700 -0.69922298 1.905766e-42
6.26420020 47.83960000 437.59399000 0.22194099 0.68414700 -0.69475597 1.905766e-42
7.89304020 47.10039900 437.39301000 0.21995901 0.68953502 -0.69004297 1.905766e-42
9.36968040 46.30329900 436.74200000 0.22105400 0.68601102 -0.69319898 1.905766e-42
10.88200000 45.38510100 436.41101000 0.22284199 0.68253899 -0.69604701 1.905766e-42
12.59150000 44.83300000 436.52399000 0.22512500 0.68220901 -0.69563597 1.905766e-42
14.14330000 44.00270100 436.14600000 0.22433300 0.67937899 -0.69865501 1.905766e-42
15.78580000 43.57840000 436.74799000 0.21762100 0.68036997 -0.69981301 1.905766e-42
17.49799900 43.03099800 436.65601000 0.21160699 0.67904502 -0.70293701 1.905766e-42
19.04060000 42.38190100 435.99301000 0.20695101 0.67605299 -0.70719397 1.905766e-42
20.75250100 41.82580200 435.98300000 0.20217000 0.67511803 -0.70946699 1.905766e-42
22.46040000 41.25759900 435.99100000 0.19850200 0.67397302 -0.71158803 1.905766e-42
24.02640000 40.45930100 435.60300000 0.19696701 0.67100197 -0.71481502 1.905766e-42
25.71999900 39.85319900 435.53601000 0.19896001 0.67047000 -0.71476197 1.905766e-42
27.30740000 39.08869900 435.16800000 0.19942901 0.66928798 -0.71573800 1.905766e-42
28.94669900 38.35770000 435.03201000 0.19938700 0.66941601 -0.71563101 1.905766e-42
30.68670100 38.02909900 435.35599000 0.20011801 0.67245603 -0.71256900 1.905766e-42
31.61549900 36.84280000 434.37100000 0.19603300 0.66894603 -0.71699500 1.905766e-42
33.22959900 36.10480100 434.07101000 0.19331400 0.67005599 -0.71669698 1.905766e-42
34.70399900 35.19900100 433.57501000 0.18900400 0.67039800 -0.71752602 1.905766e-42
36.36750000 34.51549900 433.50101000 0.19114800 0.67357302 -0.71397603 1.905766e-42
37.94400000 33.72620000 433.13800000 0.19307700 0.67523700 -0.71188301 1.905766e-42
39.47919800 32.86520000 432.76199000 0.19478200 0.67674398 -0.70998400 1.905766e-42
41.04040100 31.96929900 432.75400000 0.19765000 0.67992300 -0.70614398 1.905766e-42
41.99309900 30.92580000 431.63901000 0.19184101 0.67737401 -0.71018398 1.905766e-42
43.64479800 30.21220000 431.69101000 0.19339500 0.68294698 -0.70440203 1.905766e-42
44.94929900 29.35470000 430.79501000 0.18650401 0.68426102 -0.70498401 1.905766e-42
46.47900000 28.51530100 430.35300000 0.17999500 0.68834001 -0.70270199 1.905766e-42
48.01570100 27.64720000 430.00000000 0.17713600 0.69171798 -0.70010602 1.905766e-42
49.47470100 26.73580000 429.47000000 0.17605799 0.69274402 -0.69936299 1.905766e-42
50.82289900 25.75330000 428.79401000 0.17507300 0.69198602 -0.70036000 1.905766e-42
52.56010100 25.28260000 428.77399000 0.18041800 0.69613498 -0.69487101 1.905766e-42
54.32659900 24.93840000 428.80801000 0.18500400 0.70071501 -0.68903702 1.905766e-42
55.98040000 24.23940100 428.93500000 0.18639800 0.70507801 -0.68419403 1.905766e-42
57.10509900 23.21340000 427.97501000 0.17830899 0.70464700 -0.68678898 1.905766e-42
58.21300100 22.14200000 427.04501000 0.16908300 0.70348603 -0.69030303 1.905766e-42
57.47050100 21.05920000 425.81400000 0.16114500 0.69410998 -0.70160103 1.905766e-42
56.40910000 20.13069900 424.69501000 0.15467100 0.68587202 -0.71109498 1.905766e-42
54.92369800 19.58700000 423.83600000 0.14887100 0.67932200 -0.71858102 1.905766e-42
53.38560100 19.06049900 423.06299000 0.14088900 0.67430300 -0.72488999 1.905766e-42
52.26300000 18.17050000 421.97299000 0.13078400 0.67157400 -0.72930402 1.905766e-42
50.99219900 17.35829900 420.99100000 0.12850900 0.67171597 -0.72957700 1.905766e-42
50.19900100 16.23500100 419.82901000 0.13118000 0.67439598 -0.72662300 1.905766e-42
48.99670000 15.40200000 418.78000000 0.13466699 0.67721498 -0.72335702 1.905766e-42
47.96720100 14.42640000 417.67200000 0.13741700 0.68068498 -0.71957302 1.905766e-42
46.87080000 13.50950000 416.57800000 0.14055800 0.68315399 -0.71662003 1.905766e-42
46.02959800 12.40940000 415.42801000 0.14417300 0.68486601 -0.71426398 1.905766e-42
45.66949800 11.11650000 414.22900000 0.14868300 0.68669099 -0.71158201 1.905766e-42
44.64320000 10.22300000 413.04999000 0.15499900 0.68906099 -0.70793402 1.905766e-42
43.74800100 9.12541010 411.93900000 0.16079600 0.69149899 -0.70425397 1.905766e-42
42.30910100 8.68818000 410.95001000 0.16734301 0.69395697 -0.70029998 1.905766e-42
41.29620000 7.74792000 409.79700000 0.17299400 0.69668001 -0.69621098 1.905766e-42
40.27610000 6.73292020 408.71600000 0.17717700 0.69939899 -0.69242299 1.905766e-42
38.78300100 6.44435980 407.75299000 0.18051000 0.70110899 -0.68982798 1.905766e-42
37.75270100 5.54329010 406.58401000 0.18303999 0.70305002 -0.68717998 1.905766e-42
36.67240100 4.67713020 405.43399000 0.18519200 0.70434099 -0.68528003 1.905766e-42
35.63380100 3.78947000 404.26199000 0.18673800 0.70485598 -0.68432897 1.905766e-42
34.34700000 3.09466000 403.21201000 0.19229700 0.70348698 -0.68419802 1.905766e-42
33.19129900 2.29903010 402.08499000 0.20249400 0.70287901 -0.68187702 1.905766e-42
32.12369900 1.42651000 400.92801000 0.21191999 0.70284802 -0.67903900 1.905766e-42
31.04100000 0.58193600 399.76401000 0.22107600 0.70322698 -0.67571998 1.905766e-42
30.03160100 -0.28155401 398.54901000 0.22950301 0.70376199 -0.67234498 1.905766e-42
29.19850000 -1.29379000 397.31601000 0.23644900 0.70434999 -0.66931498 1.905766e-42
28.37820100 -2.10476990 395.93399000 0.23383400 0.70427698 -0.67031002 1.905766e-42
27.03640000 -2.60719990 394.84399000 0.23027700 0.70441002 -0.67140102 1.905766e-42
26.40110000 -3.72196010 393.58200000 0.22811399 0.70594800 -0.67052299 1.905766e-42
25.20170000 -4.37826010 392.41101000 0.22552000 0.70787799 -0.66936499 1.905766e-42
24.32889900 -5.33523990 391.16101000 0.22412400 0.71095401 -0.66656798 1.905766e-42
