# .PCD v0.7 - Point Cloud Data file format
# 3 174 0
# 1 31 0
# 32 107 0
# 108 174 0
VERSION 0.7
FIELDS x y z normal_x normal_y normal_z curvature
SIZE 4 4 4 4 4 4 4
TYPE F F F F F F F
COUNT 1 1 1 1 1 1 1
WIDTH 174
HEIGHT 1
VIEWPOINT 0 0 0 1 0 0 0
POINTS 174
DATA ascii
-26.12240000 6.64173980 443.14801000 -0.18253000 0.97700101 -0.11023700 1.905766e-42
-26.56419900 6.70815990 443.81900000 -0.19504800 0.97368801 -0.11784600 1.905766e-42
-28.02549900 6.56243990 444.85999000 -0.20889400 0.97060698 -0.11952100 1.905766e-42
-28.02339900 6.75061990 446.64999000 -0.22502799 0.96267700 -0.15038501 1.905766e-42
-28.62830000 6.89043000 448.34000000 -0.23434100 0.95592302 -0.17690501 1.905766e-42
-29.46990000 6.69743010 449.91901000 -0.23743600 0.94797498 -0.21205500 1.905766e-42
-30.05010000 7.32079980 451.50500000 -0.24094000 0.93755299 -0.25088099 1.905766e-42
-30.98780100 7.47098020 453.03400000 -0.24133900 0.92843801 -0.28241599 1.905766e-42
-31.73550000 7.77946000 454.64200000 -0.24204201 0.91776597 -0.31483501 1.905766e-42
-32.45220200 8.19384960 456.23999000 -0.24251100 0.90624797 -0.34626999 1.905766e-42
-33.51670100 8.38068960 457.67999000 -0.24105200 0.89590901 -0.37314999 1.905766e-42
-34.27310200 8.92407040 459.22000000 -0.24068700 0.88206202 -0.40501300 1.905766e-42
-35.19250100 9.25138000 460.73199000 -0.23977600 0.86836600 -0.43410701 1.905766e-42
-35.96239900 9.99386020 462.17999000 -0.23994000 0.85210800 -0.46512499 1.905766e-42
-36.68130100 10.67960000 463.68100000 -0.24091600 0.83510000 -0.49453801 1.905766e-42
-37.66809800 11.19050000 465.09698000 -0.24191999 0.81948602 -0.51953602 1.905766e-42
-38.87540100 11.35590000 466.42200000 -0.24316500 0.80690402 -0.53830898 1.905766e-42
-39.61360200 12.17660000 467.84399000 -0.24621101 0.78834099 -0.56382501 1.905766e-42
-40.23880000 13.10100000 469.25601000 -0.25006899 0.76789200 -0.58975202 1.905766e-42
-41.00519900 13.94550000 470.64899000 -0.25266600 0.74359602 -0.61905199 1.905766e-42
-41.93119800 14.75030000 471.96600000 -0.25408101 0.71865702 -0.64728302 1.905766e-42
-42.80210100 15.66440000 473.24899000 -0.25402099 0.69076002 -0.67699599 1.905766e-42
-43.74530000 16.59660000 474.46600000 -0.25237700 0.66115898 -0.70652300 1.905766e-42
-44.93590200 17.38620000 475.56100000 -0.25042900 0.63567698 -0.73020601 1.905766e-42
-45.81800100 18.51540000 476.64999000 -0.24799900 0.60830098 -0.75396699 1.905766e-42
-47.03620100 19.32119900 477.70200000 -0.24591200 0.58368897 -0.77384400 1.905766e-42
-47.63769900 20.64220000 478.76700000 -0.24139901 0.55172199 -0.79832900 1.905766e-42
-48.40330100 21.84480100 479.86600000 -0.23563400 0.51896501 -0.82167602 1.905766e-42
-49.47060000 22.84940000 480.91101000 -0.23018999 0.49164999 -0.83981699 1.905766e-42
-50.23910100 24.10520000 481.94601000 -0.22274099 0.45920300 -0.85995299 1.905766e-42
-50.44250100 25.71880000 482.71799000 -0.21150801 0.41923401 -0.88289702 1.905766e-42
-50.85530100 27.27529900 483.52200000 -0.19383900 0.36801699 -0.90938997 1.905766e-42
-49.22689800 28.01560000 483.32101000 -0.19329800 0.36717099 -0.90984702 1.905766e-42
-47.63810000 28.86060000 483.27899000 -0.19101000 0.36116299 -0.91272998 1.905766e-42
-46.03979900 29.68230100 483.38000000 -0.18815000 0.35180601 -0.91696900 1.905766e-42
-44.43109900 30.48860000 483.42499000 -0.18594299 0.34296501 -0.92076099 1.905766e-42
-43.23550000 31.82010100 483.61899000 -0.17745499 0.31504199 -0.93234003 1.905766e-42
-41.85969900 32.97530000 483.73300000 -0.17191599 0.29728600 -0.93918401 1.905766e-42
-40.25339900 33.76419800 483.54001000 -0.17163000 0.29497001 -0.93996602 1.905766e-42
-38.57170100 34.40580000 483.56100000 -0.17223100 0.29588300 -0.93956900 1.905766e-42
-36.80690000 34.59370000 483.26099000 -0.17795099 0.30930501 -0.93416500 1.905766e-42
-35.19390100 35.39260100 483.26599000 -0.17696300 0.30902100 -0.93444598 1.905766e-42
-33.51890200 36.04859900 483.20200000 -0.16736700 0.31361699 -0.93468302 1.905766e-42
-31.88190100 36.79259900 483.28299000 -0.12811001 0.31553301 -0.94022697 1.905766e-42
-30.37490100 37.72499800 483.59900000 -0.09028650 0.31584901 -0.94450402 1.905766e-42
-28.65500100 38.07140000 483.19601000 -0.05329680 0.32618901 -0.94380099 1.905766e-42
-26.88979900 38.42350000 483.20099000 -0.01613320 0.33460301 -0.94222099 1.905766e-42
-25.09050000 38.44820000 483.24399000 0.01898150 0.34384799 -0.93883401 1.905766e-42
-23.51269900 39.20859900 483.66000000 0.05291180 0.34565201 -0.93686998 1.905766e-42
-21.71629900 39.32070200 483.67099000 0.08577460 0.35075200 -0.93253201 1.905766e-42
-20.01989900 39.75149900 484.09100000 0.11701400 0.35067299 -0.92915899 1.905766e-42
-18.27190000 39.99430100 484.44501000 0.13686900 0.34938800 -0.92692798 1.905766e-42
-16.48080100 39.99639900 484.62399000 0.15073800 0.34966001 -0.92467099 1.905766e-42
-14.70740000 39.99810000 484.93201000 0.16438600 0.34958601 -0.92237002 1.905766e-42
-12.93990000 40.05070100 485.26901000 0.17780501 0.34885600 -0.92015499 1.905766e-42
-11.46030000 40.77399800 485.99500000 0.18946099 0.34126699 -0.92067498 1.905766e-42
-9.69044970 40.72969800 486.32001000 0.20226400 0.34013700 -0.91836601 1.905766e-42
-7.93769980 40.70209900 486.72900000 0.21475500 0.33811200 -0.91627502 1.905766e-42
-6.21494010 40.76170000 487.24701000 0.22677401 0.33425501 -0.91479403 1.905766e-42
-4.68704990 41.35960000 487.98801000 0.23650099 0.32372400 -0.91611701 1.905766e-42
-2.99554990 41.60500000 488.55200000 0.23921600 0.31633699 -0.91799098 1.905766e-42
-1.22865000 41.72470100 488.87399000 0.23965000 0.31217700 -0.91930097 1.905766e-42
0.35302499 42.22689800 489.57101000 0.24046800 0.30419400 -0.92176002 1.905766e-42
2.07388000 41.70360200 489.50201000 0.24107200 0.31105500 -0.91930902 1.905766e-42
3.70333000 42.09410100 490.16000000 0.24298000 0.30734301 -0.92005497 1.905766e-42
5.32659010 41.36240000 490.42300000 0.24225201 0.31818399 -0.91655499 1.905766e-42
6.92583990 40.55239900 490.58600000 0.24009199 0.33136299 -0.91244400 1.905766e-42
8.60274030 39.91980000 490.75201000 0.23763600 0.34385499 -0.90845603 1.905766e-42
10.36400000 39.83409900 491.11401000 0.23724499 0.35122901 -0.90573299 1.905766e-42
12.02730000 39.14799900 491.16501000 0.23413700 0.36575100 -0.90078098 1.905766e-42
13.64400000 38.36200000 491.25900000 0.23314200 0.38030601 -0.89499301 1.905766e-42
15.35200000 38.24470100 491.81400000 0.23633200 0.38710499 -0.89123303 1.905766e-42
16.97970000 37.50230000 492.01300000 0.23609400 0.39974901 -0.88569802 1.905766e-42
18.68280000 37.41149900 492.58899000 0.23954201 0.40580499 -0.88200998 1.905766e-42
20.32110000 36.67630000 492.46399000 0.23884000 0.41836399 -0.87631398 1.905766e-42
22.07580000 36.46870000 492.80701000 0.24146500 0.42571899 -0.87204200 1.905766e-42
23.69730000 35.68920100 492.86301000 0.24114500 0.43739799 -0.86633199 1.905766e-42
25.38649900 35.13200000 493.13901000 0.24230801 0.44683099 -0.86117899 1.905766e-42
27.12089900 34.96789900 493.59100000 0.24508500 0.45302400 -0.85714799 1.905766e-42
28.76689900 34.24100100 493.54300000 0.24338301 0.46392101 -0.85178798 1.905766e-42
30.39100100 33.46659900 493.49301000 0.24187499 0.47499001 -0.84609801 1.905766e-42
31.99790000 33.49140200 494.30399000 0.24468200 0.47713000 -0.84408402 1.905766e-42
33.59240000 32.77119800 493.88101000 0.24285001 0.48902801 -0.83778000 1.905766e-42
35.11990000 31.82810000 493.75000000 0.24065900 0.50306100 -0.83006799 1.905766e-42
36.82020200 31.90220100 494.33600000 0.24350201 0.50546402 -0.82777601 1.905766e-42
38.42670100 31.11050000 494.51599000 0.24240600 0.51682502 -0.82105500 1.905766e-42
40.13539900 30.80699900 494.99399000 0.24375200 0.52318102 -0.81661898 1.905766e-42
41.82289900 30.21550000 495.20001000 0.24233700 0.53242999 -0.81104302 1.905766e-42
43.51409900 29.59930000 495.19800000 0.23029099 0.54157299 -0.80849600 1.905766e-42
45.28939800 29.38500000 495.40399000 0.21884800 0.54674000 -0.80819601 1.905766e-42
46.98650000 28.79369900 495.30200000 0.20706800 0.55383402 -0.80646801 1.905766e-42
48.76649900 28.77020100 495.56799000 0.19551800 0.55572802 -0.80804598 1.905766e-42
50.52759900 28.65950000 495.92401000 0.18337101 0.55675697 -0.81018299 1.905766e-42
52.19649900 27.98550000 495.94901000 0.17188700 0.55986202 -0.81056100 1.905766e-42
53.12620200 26.62050100 495.23300000 0.16796701 0.56690902 -0.80647498 1.905766e-42
54.83260000 26.06250000 495.36200000 0.15806501 0.56626600 -0.80892402 1.905766e-42
56.36560100 25.12840100 495.23099000 0.15155800 0.56633598 -0.81011999 1.905766e-42
57.62450000 23.94400000 494.72800000 0.15149900 0.56904799 -0.80822802 1.905766e-42
59.17139800 23.09230000 494.37900000 0.15209600 0.58351600 -0.79773098 1.905766e-42
60.73479800 22.35100000 493.88300000 0.15022901 0.59950298 -0.78614700 1.905766e-42
62.43529900 21.84260000 493.58401000 0.14697801 0.61134398 -0.77759701 1.905766e-42
64.20839700 21.53310000 493.56201000 0.14352700 0.61845797 -0.77259898 1.905766e-42
65.83519700 20.76510000 493.50201000 0.13922900 0.63163298 -0.76266301 1.905766e-42
67.42710100 19.92620100 493.45499000 0.13492900 0.64444298 -0.75265300 1.905766e-42
68.87090300 19.06740000 492.80899000 0.13102800 0.66072500 -0.73910397 1.905766e-42
70.46610300 18.33700000 492.40601000 0.12866300 0.67100197 -0.73020703 1.905766e-42
72.11930100 17.79470100 491.94501000 0.12766001 0.67663902 -0.72516400 1.905766e-42
73.67659800 17.11340000 491.35300000 0.12740800 0.68386102 -0.71840203 1.905766e-42
73.80729700 15.83100000 490.09601000 0.12852199 0.69968301 -0.70279801 1.905766e-42
72.37270400 15.06690000 489.32300000 0.12941100 0.70919001 -0.69303900 1.905766e-42
71.02839700 14.24010000 488.45700000 0.13008399 0.71895802 -0.68277198 1.905766e-42
69.90499900 13.34500000 487.37299000 0.13055900 0.72983903 -0.67103601 1.905766e-42
68.49120300 12.90110000 486.35101000 0.13083699 0.73997003 -0.65979201 1.905766e-42
66.81970200 12.88420000 485.68301000 0.13156000 0.74455601 -0.65446699 1.905766e-42
65.37979900 12.41370000 484.71100000 0.13171400 0.75465000 -0.64277101 1.905766e-42
63.78220000 11.90890000 484.05301000 0.13188700 0.76192302 -0.63409698 1.905766e-42
62.50429900 11.00780000 483.16101000 0.13047899 0.77318400 -0.62061399 1.905766e-42
60.77619900 10.90430000 482.66800000 0.13075100 0.77443099 -0.61900002 1.905766e-42
59.45159900 10.28760000 481.61700000 0.12861601 0.78214598 -0.60967702 1.905766e-42
57.96659900 10.00370000 480.64001000 0.13378900 0.78519303 -0.60462600 1.905766e-42
56.36999900 9.91714000 479.81400000 0.14127401 0.78563398 -0.60234600 1.905766e-42
54.91740000 9.54053020 478.82001000 0.14732800 0.78891999 -0.59657300 1.905766e-42
53.47330100 9.08913990 477.84500000 0.15344100 0.79631799 -0.58509201 1.905766e-42
52.14920000 8.50617030 476.77399000 0.15889400 0.80971003 -0.56490898 1.905766e-42
50.71649900 8.01278970 475.80200000 0.16638100 0.82149899 -0.54539597 1.905766e-42
49.12580100 7.70290990 475.01901000 0.17593899 0.82925200 -0.53046000 1.905766e-42
47.81940100 7.16233020 473.90500000 0.18234900 0.84248501 -0.50691998 1.905766e-42
46.59180100 6.61745020 472.70599000 0.18710400 0.85539901 -0.48299500 1.905766e-42
44.96740000 6.59159990 471.93100000 0.19390500 0.85822201 -0.47524399 1.905766e-42
43.96820100 6.08452990 470.52301000 0.18550800 0.87149000 -0.45397201 1.905766e-42
42.61399800 5.95776990 469.34399000 0.18129800 0.87411898 -0.45060599 1.905766e-42
41.53960000 5.52346990 467.96600000 0.17830400 0.87706703 -0.44605100 1.905766e-42
40.23270000 5.26441000 466.75601000 0.17686500 0.88021600 -0.44038501 1.905766e-42
38.87340200 4.98342990 465.60999000 0.17655100 0.88428301 -0.43228900 1.905766e-42
37.49150100 4.71839000 464.48700000 0.17727800 0.88934302 -0.42147499 1.905766e-42
36.38050100 4.17195990 463.18100000 0.18004200 0.89624000 -0.40538800 1.905766e-42
34.94390100 4.05434990 462.10300000 0.18271400 0.90290499 -0.38907400 1.905766e-42
33.98930000 3.38664010 460.73001000 0.18741301 0.91357201 -0.36091900 1.905766e-42
32.43940000 3.52151990 459.82501000 0.18974601 0.92047900 -0.34163499 1.905766e-42
31.33950000 3.28610990 458.42001000 0.19053601 0.92927301 -0.31646201 1.905766e-42
30.17070000 3.14244010 457.05801000 0.18837400 0.93614298 -0.29690301 1.905766e-42
29.08700000 2.97814010 455.63101000 0.18662500 0.94185698 -0.27942100 1.905766e-42
27.93070000 2.80585000 454.26199000 0.18483201 0.94659901 -0.26417199 1.905766e-42
27.01910000 2.53124000 452.73401000 0.18463001 0.95085001 -0.24858600 1.905766e-42
26.15169900 2.25478010 451.18201000 0.18534701 0.95454103 -0.23344700 1.905766e-42
24.39489900 2.40060000 450.81799000 0.18094000 0.95704597 -0.22654600 1.905766e-42
22.67310000 2.41178990 450.29300000 0.17701299 0.95992100 -0.21729800 1.905766e-42
20.98329900 3.02824000 450.22800000 0.17092800 0.96204001 -0.21275200 1.905766e-42
19.30410000 3.13891010 449.58899000 0.16705900 0.96517301 -0.20132799 1.905766e-42
17.55120100 3.54780010 449.58701000 0.16225301 0.96700501 -0.19640701 1.905766e-42
15.76380000 3.75823000 449.55600000 0.16192199 0.96808201 -0.19130901 1.905766e-42
14.15010000 3.82215000 448.76099000 0.16393401 0.97025299 -0.17814200 1.905766e-42
12.40850000 4.04927020 448.36801000 0.16526800 0.97133601 -0.17086200 1.905766e-42
10.67370000 4.34416010 447.98901000 0.16700600 0.97206098 -0.16494399 1.905766e-42
8.91495040 4.72343020 447.93399000 0.16914000 0.97183001 -0.16412599 1.905766e-42
7.20071980 4.87546010 447.40701000 0.17178500 0.97239000 -0.15794700 1.905766e-42
5.42327980 5.06513020 447.19501000 0.17494000 0.97207302 -0.15643100 1.905766e-42
3.64913010 5.36902000 447.18799000 0.17873099 0.97113699 -0.15795299 1.905766e-42
1.87197010 5.64100980 447.10001000 0.17840800 0.97092700 -0.15960000 1.905766e-42
0.27233800 5.79585980 446.28900000 0.16958700 0.97327602 -0.15483600 1.905766e-42
-1.47999000 6.13911010 446.06201000 0.16075900 0.97456998 -0.15611000 1.905766e-42
-3.21111010 6.39368010 445.64001000 0.15151601 0.97619599 -0.15519200 1.905766e-42
-4.97109990 6.76229000 445.55899000 0.14217301 0.97732103 -0.15694000 1.905766e-42
-6.75679020 6.98869990 445.55200000 0.13246800 0.97842401 -0.15855099 1.905766e-42
-8.54230020 7.20609000 445.48401000 0.12237600 0.97963500 -0.15918300 1.905766e-42
-10.27610000 7.20443010 445.00000000 0.11235400 0.98122799 -0.15674201 1.905766e-42
-12.06080000 7.27542020 444.77701000 0.10188400 0.98249799 -0.15594099 1.905766e-42
-13.83680000 7.56785010 444.78101000 0.07363060 0.98456901 -0.15875100 1.905766e-42
-15.62540000 7.77018020 444.77100000 0.03824810 0.98644501 -0.15957101 1.905766e-42
-17.42440000 7.71144010 444.77499000 0.00092717 0.98744398 -0.15796500 1.905766e-42
-19.22279900 7.68741990 444.70200000 -0.03754990 0.98732698 -0.15419100 1.905766e-42
-21.01400000 7.53935000 444.60400000 -0.07646800 0.98592198 -0.14869601 1.905766e-42
-22.68490000 7.16707990 444.04700000 -0.11166600 0.98409802 -0.13813400 1.905766e-42
-24.43740100 6.98934980 443.67700000 -0.14843100 0.98078001 -0.12664400 1.905766e-42
