# .PCD v0.7 - Point Cloud Data file format
# 5 270 0
# 1 52 0
# 53 130 0
# 131 186 0
# 187 200 0
# 201 270 0
VERSION 0.7
FIELDS x y z normal_x normal_y normal_z curvature
SIZE 4 4 4 4 4 4 4
TYPE F F F F F F F
COUNT 1 1 1 1 1 1 1
WIDTH 270
HEIGHT 1
VIEWPOINT 0 0 0 1 0 0 0
POINTS 270
DATA ascii
68.20610000 55.86899900 481.15500000 0.09383530 -0.29403499 0.95117700 1.905766e-42
67.34890000 57.34439800 481.72800000 0.09417150 -0.27821401 0.95589203 1.905766e-42
66.60209700 58.89329900 482.26001000 0.09408660 -0.26187101 0.96050602 1.905766e-42
65.27430000 60.00140000 482.75900000 0.09978710 -0.24860600 0.96345103 1.905766e-42
63.87099800 61.03879900 483.20001000 0.10795300 -0.23625199 0.96567702 1.905766e-42
62.37200200 61.94269900 483.62000000 0.11996100 -0.22437900 0.96709001 1.905766e-42
61.42190200 63.41389800 484.03601000 0.12070400 -0.21170001 0.96985197 1.905766e-42
60.01570100 64.46330300 484.43799000 0.11010900 -0.20218000 0.97313899 1.905766e-42
59.15129900 66.00759900 484.76599000 0.10226100 -0.19156000 0.97613901 1.905766e-42
57.63359800 66.90100100 485.13800000 0.09332500 -0.18347500 0.97858399 1.905766e-42
56.12410000 67.84919700 485.38699000 0.08538310 -0.17572200 0.98073000 1.905766e-42
54.47990000 68.53600300 485.64200000 0.07818530 -0.16970301 0.98238897 1.905766e-42
53.04040100 69.61669900 485.64099000 0.07236270 -0.16241600 0.98406500 1.905766e-42
51.45309800 70.24350000 486.21399000 0.06711280 -0.15743200 0.98524702 1.905766e-42
50.33779900 71.65200000 486.32300000 0.06380890 -0.14898100 0.98677897 1.905766e-42
48.93769800 72.77030200 486.49399000 0.06077540 -0.14229700 0.98795599 1.905766e-42
47.16690100 72.70050000 486.81000000 0.04962980 -0.14249600 0.98855001 1.905766e-42
45.37400100 72.68630200 486.96899000 0.03712270 -0.14249501 0.98909903 1.905766e-42
43.69070100 73.31359900 487.08401000 0.02578110 -0.13854900 0.99001998 1.905766e-42
41.89279900 73.58400000 487.22800000 0.01411920 -0.13677099 0.99050200 1.905766e-42
40.13060000 73.94730400 487.17801000 0.00320073 -0.13469200 0.99088198 1.905766e-42
38.33079900 73.97699700 487.19101000 -0.00751070 -0.13490701 0.99083000 1.905766e-42
36.53170000 73.92610200 487.17099000 -0.01780030 -0.13600001 0.99054903 1.905766e-42
34.73220100 73.92890200 487.21500000 -0.02656040 -0.13710099 0.99020100 1.905766e-42
32.95169800 73.68009900 487.12701000 -0.03190860 -0.14015000 0.98961598 1.905766e-42
31.16400000 73.49240100 487.03101000 -0.03715900 -0.14275500 0.98905998 1.905766e-42
29.37560100 73.62550400 486.87701000 -0.04214800 -0.14317700 0.98879898 1.905766e-42
27.57589900 73.59480300 486.88901000 -0.04718600 -0.14444301 0.98838699 1.905766e-42
25.77750000 73.59149900 486.81400000 -0.05216480 -0.14550100 0.98798198 1.905766e-42
23.98130000 73.56510200 486.70001000 -0.05709970 -0.14665800 0.98753798 1.905766e-42
22.27240000 74.12830400 486.64899000 -0.06152500 -0.14322700 0.98777598 1.905766e-42
20.68359900 74.93190000 486.38501000 -0.06604900 -0.13786399 0.98824602 1.905766e-42
18.91080100 74.62650300 486.44699000 -0.07546420 -0.14019699 0.98724401 1.905766e-42
17.15920100 75.03640000 486.38599000 -0.08498600 -0.13704300 0.98691303 1.905766e-42
15.37320000 75.20390300 486.23700000 -0.09493860 -0.13576700 0.98618197 1.905766e-42
13.57970000 75.23120100 486.08600000 -0.10512000 -0.13557599 0.98517501 1.905766e-42
11.86610000 75.68419600 485.77301000 -0.11517800 -0.13199800 0.98453599 1.905766e-42
10.10380000 76.04409800 485.70499000 -0.12552600 -0.12886100 0.98368597 1.905766e-42
8.34062960 76.39289900 485.60699000 -0.13605300 -0.12584899 0.98267603 1.905766e-42
6.60862020 76.00700400 485.30499000 -0.14666601 -0.12929700 0.98069900 1.905766e-42
4.94665000 76.67849700 485.14099000 -0.15469100 -0.12421200 0.98012400 1.905766e-42
3.18229010 76.91040000 484.87000000 -0.16322300 -0.12403500 0.97876102 1.905766e-42
1.41263000 76.76490000 484.57501000 -0.17258200 -0.12798400 0.97664499 1.905766e-42
-0.17213801 77.57589700 484.30899000 -0.17949800 -0.12504300 0.97577900 1.905766e-42
-1.93713000 77.59719800 483.95599000 -0.18924899 -0.12970699 0.97332501 1.905766e-42
-3.71656990 77.63639800 483.68799000 -0.19947900 -0.13500901 0.97055697 1.905766e-42
-5.39302020 78.23140000 483.41299000 -0.20771900 -0.13720100 0.96851897 1.905766e-42
-7.13728000 78.35700200 482.98700000 -0.21641500 -0.14392300 0.96563500 1.905766e-42
-8.80257030 78.93969700 482.63000000 -0.21502601 -0.14878801 0.96520799 1.905766e-42
-10.45830000 78.33149700 482.27100000 -0.21824600 -0.16008700 0.96267402 1.905766e-42
-12.13630000 78.91169700 481.97501000 -0.21473700 -0.16631600 0.96240699 1.905766e-42
-13.65330000 79.79390000 481.57401000 -0.21074200 -0.17443700 0.96185201 1.905766e-42
-15.42170000 79.83210000 481.24100000 -0.20714299 -0.18690000 0.96029198 1.905766e-42
-16.19220000 78.26080300 480.82001000 -0.21068400 -0.19453301 0.95800298 1.905766e-42
-16.05320000 76.47480000 480.64401000 -0.22238800 -0.19933701 0.95436299 1.905766e-42
-16.48230000 74.82560000 480.06400000 -0.23097000 -0.20869200 0.95031601 1.905766e-42
-16.19300100 73.05310100 479.94400000 -0.24011400 -0.21477599 0.94668698 1.905766e-42
-16.54890100 71.41970100 479.27701000 -0.24717499 -0.22544301 0.94238001 1.905766e-42
-16.77969900 69.78240200 478.56601000 -0.25369301 -0.23660000 0.93790197 1.905766e-42
-16.49350000 68.01149700 478.41699000 -0.25929201 -0.24682100 0.93372798 1.905766e-42
-16.06679900 66.26380200 478.35901000 -0.26339301 -0.25816801 0.92950201 1.905766e-42
-16.39690000 64.82430300 477.32999000 -0.26735201 -0.27306899 0.92409801 1.905766e-42
-16.08950000 63.09849900 476.92099000 -0.26999101 -0.28917199 0.91841400 1.905766e-42
-16.02479900 61.41439800 476.28900000 -0.27223501 -0.30829501 0.91150600 1.905766e-42
-16.01300000 59.69879900 475.74399000 -0.27388000 -0.33005801 0.90335500 1.905766e-42
-15.63430000 57.99150100 475.31799000 -0.27441499 -0.35263401 0.89462101 1.905766e-42
-15.33870000 56.26559800 474.90100000 -0.27574000 -0.36783001 0.88806999 1.905766e-42
-15.25320000 54.58359900 474.26599000 -0.27766499 -0.38335100 0.88087702 1.905766e-42
-15.23250000 52.99440000 473.42099000 -0.27991700 -0.39874500 0.87329799 1.905766e-42
-14.60990000 51.33530000 473.10501000 -0.28019300 -0.41194201 0.86706102 1.905766e-42
-14.64290000 49.70360200 472.34601000 -0.28241199 -0.42689499 0.85907203 1.905766e-42
-14.50930000 48.08929800 471.56100000 -0.28415501 -0.44145501 0.85110098 1.905766e-42
-14.46270000 46.51450000 470.69000000 -0.28611499 -0.45589000 0.84279400 1.905766e-42
-14.42080000 45.01020100 469.70200000 -0.28809401 -0.47007200 0.83428699 1.905766e-42
-13.87830000 43.49330100 468.89899000 -0.28805900 -0.48319399 0.82676798 1.905766e-42
-13.76820000 41.87149800 468.12701000 -0.28915101 -0.49684700 0.81825101 1.905766e-42
-13.62460000 40.29000100 467.27899000 -0.29013401 -0.51168400 0.80870402 1.905766e-42
-13.66420000 38.79230100 466.28101000 -0.29214799 -0.52676803 0.79822600 1.905766e-42
-13.75320000 37.32619900 465.24100000 -0.29459101 -0.54189903 0.78712201 1.905766e-42
-13.75050000 35.82510000 464.24799000 -0.29674700 -0.55702698 0.77566898 1.905766e-42
-13.58750000 34.31399900 463.28299000 -0.29829600 -0.57198399 0.76410300 1.905766e-42
-13.76570000 32.90269900 462.17999000 -0.30146900 -0.58703899 0.75133300 1.905766e-42
-13.79310000 31.51849900 461.03000000 -0.30412599 -0.60205799 0.73826402 1.905766e-42
-13.86000000 30.17510000 459.83401000 -0.30696899 -0.61698699 0.72463500 1.905766e-42
-14.12910000 28.91790000 458.57401000 -0.31057701 -0.63165897 0.71031499 1.905766e-42
-14.34750000 27.63550000 457.32999000 -0.31375501 -0.64623398 0.69565803 1.905766e-42
-14.51050000 26.37000100 456.06000000 -0.31674701 -0.65672600 0.68438500 1.905766e-42
-15.13210000 25.31870100 454.73801000 -0.32127300 -0.66596597 0.67325503 1.905766e-42
-15.24250000 24.09420000 453.42300000 -0.32397899 -0.67557502 0.66229600 1.905766e-42
-15.44220000 22.89080000 452.10001000 -0.32697901 -0.68490702 0.65114301 1.905766e-42
-16.05640000 21.92860000 450.70801000 -0.33150199 -0.69343698 0.63972801 1.905766e-42
-16.27440100 20.79800000 449.32401000 -0.33479899 -0.70226002 0.62828398 1.905766e-42
-16.71330100 19.72559900 447.94699000 -0.33899799 -0.71062398 0.61651701 1.905766e-42
-16.93910000 18.60190000 446.55899000 -0.34269199 -0.71890301 0.60476500 1.905766e-42
-17.05830000 17.51230000 445.13101000 -0.34630701 -0.72692698 0.59299999 1.905766e-42
-17.21540100 16.42650000 443.70401000 -0.35032800 -0.73463202 0.58102101 1.905766e-42
-17.48950000 15.42450000 442.23401000 -0.35480601 -0.74513102 0.56470603 1.905766e-42
-17.60680000 14.37130000 440.77899000 -0.35841000 -0.75742501 0.54575503 1.905766e-42
-17.82860000 13.37800000 439.29501000 -0.36265999 -0.76918602 0.52614701 1.905766e-42
-17.56510000 12.29070000 437.88400000 -0.36424500 -0.78079700 0.50762397 1.905766e-42
-17.66750000 11.38230000 436.33401000 -0.36805099 -0.79181200 0.48741400 1.905766e-42
-17.74110000 10.47180000 434.78299000 -0.37163699 -0.80239600 0.46695501 1.905766e-42
-18.07980000 9.78691960 433.15302000 -0.37740001 -0.81176800 0.44564801 1.905766e-42
-18.51680000 9.29061990 431.47900000 -0.38388699 -0.82019103 0.42416599 1.905766e-42
-18.85030000 8.52738950 429.88300000 -0.38883600 -0.82869297 0.40258500 1.905766e-42
-19.28780000 8.00553040 428.21701000 -0.39423001 -0.83628303 0.38106999 1.905766e-42
-19.52269900 7.26300000 426.59399000 -0.39782399 -0.84394097 0.35985899 1.905766e-42
-19.98390000 7.03845980 424.86899000 -0.40394399 -0.84731299 0.34480399 1.905766e-42
-20.41910000 6.33370020 423.27100000 -0.40885401 -0.85074300 0.33026499 1.905766e-42
-21.09199900 6.17093990 421.60901000 -0.41464001 -0.85335398 0.31600600 1.905766e-42
-21.64020000 5.75613020 419.94601000 -0.41952601 -0.85608798 0.30184701 1.905766e-42
-22.13640000 5.37992000 418.25699000 -0.42412099 -0.85863602 0.28786299 1.905766e-42
-22.43870000 5.02218010 416.51901000 -0.42825699 -0.86109900 0.27405199 1.905766e-42
-22.74860000 4.62056020 414.79199000 -0.43236300 -0.86331499 0.26028800 1.905766e-42
-23.03319900 4.28392980 413.04700000 -0.43654701 -0.86525702 0.24648800 1.905766e-42
-23.64699900 4.28659010 411.35501000 -0.44142199 -0.86665100 0.23251300 1.905766e-42
-23.66780100 3.65347000 409.67001000 -0.44524500 -0.86816198 0.21920800 1.905766e-42
-23.89069900 3.30908990 407.91699000 -0.44994801 -0.86922401 0.20492899 1.905766e-42
-24.24220100 3.12939000 406.16101000 -0.45524800 -0.86986500 0.18995500 1.905766e-42
-24.54660000 3.07055000 404.38800000 -0.45999900 -0.87100500 0.17248601 1.905766e-42
-24.59610000 2.65122010 402.63800000 -0.46339101 -0.87258703 0.15447199 1.905766e-42
-24.80360000 2.38325000 400.87000000 -0.46677101 -0.87384999 0.13605601 1.905766e-42
-24.85080000 2.13188000 399.08801000 -0.46933299 -0.87513399 0.11775500 1.905766e-42
-25.08490000 2.12207010 397.30399000 -0.47218701 -0.87588501 0.09931940 1.905766e-42
-25.35000000 2.21310000 395.52600000 -0.47482699 -0.87633801 0.08106230 1.905766e-42
-25.37130000 2.11877990 393.72800000 -0.47589099 -0.87725902 0.06280480 1.905766e-42
-25.13290000 1.71861990 391.98999000 -0.47459000 -0.87905598 0.04500210 1.905766e-42
-25.02160100 1.53848000 390.20200000 -0.47308999 -0.88061100 0.02664790 1.905766e-42
-24.95669900 1.41891000 388.40701000 -0.46891499 -0.88319600 0.00918429 1.905766e-42
-24.21340000 0.95942098 386.83401000 -0.46320099 -0.88621902 -0.00774478 1.905766e-42
-23.61520000 0.68256497 385.15900000 -0.46044999 -0.88759398 -0.01275950 1.905766e-42
-22.16190000 0.01641750 384.33099000 -0.45516601 -0.89028001 -0.01500610 1.905766e-42
-20.56970000 -0.75305402 383.99600000 -0.44818601 -0.89381099 -0.01521250 1.905766e-42
-19.08060100 -1.41827000 383.23401000 -0.44213399 -0.89679998 -0.01637600 1.905766e-42
-17.45400000 -2.18376990 383.14401000 -0.43502399 -0.90029299 -0.01505120 1.905766e-42
-15.82130000 -2.94133000 383.12601000 -0.42768100 -0.90383601 -0.01303340 1.905766e-42
-14.19890000 -3.72107010 383.13000000 -0.42011401 -0.90741098 -0.01049640 1.905766e-42
-12.54680000 -4.43541000 383.11200000 -0.41238299 -0.91097802 -0.00763173 1.905766e-42
-10.93030000 -5.22692010 383.13101000 -0.40441701 -0.91456503 -0.00423527 1.905766e-42
-9.39579960 -5.94561000 383.73901000 -0.39562699 -0.91841000 0.00175693 1.905766e-42
-7.70959000 -6.54863020 383.92001000 -0.39025700 -0.92069000 0.00543634 1.905766e-42
-6.29070000 -7.34199000 384.69299000 -0.38521901 -0.92276001 0.01097310 1.905766e-42
-4.79779010 -7.90523000 385.52600000 -0.38055599 -0.92460698 0.01671800 1.905766e-42
-3.08490990 -8.45627980 385.57501000 -0.37650800 -0.92622399 0.01870430 1.905766e-42
-1.55627000 -9.15948010 386.21500000 -0.37246001 -0.92775601 0.02329150 1.905766e-42
0.19126301 -9.53291030 386.43100000 -0.36880800 -0.92915303 0.02561290 1.905766e-42
1.71445000 -10.31110000 386.99100000 -0.36532801 -0.93041003 0.02955530 1.905766e-42
3.34509990 -10.91850000 387.45200000 -0.35910901 -0.93269497 0.03346790 1.905766e-42
4.95564990 -11.55800000 387.93900000 -0.34337300 -0.93837798 0.03926790 1.905766e-42
6.53157000 -12.14090000 388.58401000 -0.32764000 -0.94367999 0.04605670 1.905766e-42
8.25158020 -12.64000000 388.76501000 -0.31146199 -0.94894397 0.04996000 1.905766e-42
9.85420990 -13.08840000 389.45099000 -0.29551601 -0.95361799 0.05729650 1.905766e-42
11.34140000 -13.58310000 390.33600000 -0.28000000 -0.95771599 0.06618250 1.905766e-42
13.12300000 -13.83800000 390.36600000 -0.26396900 -0.96201301 0.06965000 1.905766e-42
14.77070000 -14.30230000 390.92300000 -0.24769700 -0.96576601 0.07708600 1.905766e-42
16.36520000 -14.73360000 391.63800000 -0.23295000 -0.96869898 0.08577220 1.905766e-42
17.98570100 -15.08670000 392.33801000 -0.22520900 -0.96982998 0.09333360 1.905766e-42
19.72209900 -15.42140000 392.67300000 -0.21751300 -0.97108799 0.09836780 1.905766e-42
21.37310000 -15.76020000 393.30499000 -0.20959599 -0.97211200 0.10520000 1.905766e-42
23.13900000 -16.05820100 393.48700000 -0.20184900 -0.97333002 0.10901900 1.905766e-42
24.79369900 -16.38999900 394.11301000 -0.19378400 -0.97422099 0.11550800 1.905766e-42
26.55640000 -16.66300000 394.35400000 -0.18579900 -0.97529399 0.11949700 1.905766e-42
28.33880000 -16.91330000 394.33801000 -0.17801000 -0.97646600 0.12176600 1.905766e-42
29.97600000 -17.21950000 395.02100000 -0.16963799 -0.97714198 0.12812901 1.905766e-42
31.75289900 -17.48469900 395.13199000 -0.15830401 -0.97864401 0.13113201 1.905766e-42
33.54840100 -17.60630000 395.16800000 -0.14637700 -0.98022801 0.13314401 1.905766e-42
35.21480200 -17.96209900 395.74799000 -0.13421001 -0.98137200 0.13746800 1.905766e-42
37.00949900 -18.04439900 395.85901000 -0.12123400 -0.98291999 0.13845500 1.905766e-42
38.78839900 -18.25260000 396.03900000 -0.10775300 -0.98442501 0.13890900 1.905766e-42
40.58409900 -18.36380000 396.09299000 -0.09368840 -0.98602200 0.13778199 1.905766e-42
42.25700000 -18.63310100 396.70001000 -0.08084870 -0.98696899 0.13912500 1.905766e-42
44.05170100 -18.75720000 396.76199000 -0.06624330 -0.98846900 0.13616200 1.905766e-42
45.84920100 -18.84740100 396.73199000 -0.03633700 -0.99023098 0.13462099 1.905766e-42
47.64740000 -18.91939900 396.76700000 -0.00627419 -0.99107099 0.13318700 1.905766e-42
49.44649900 -18.97620000 396.77600000 0.02359690 -0.99107897 0.13116799 1.905766e-42
51.01580000 -18.73310100 395.92801000 0.05081360 -0.99106300 0.12334100 1.905766e-42
52.81390000 -18.81530000 395.93600000 0.08016860 -0.98948097 0.12041900 1.905766e-42
54.43849900 -18.51269900 395.22299000 0.10813000 -0.98771399 0.11282200 1.905766e-42
56.11899900 -18.37800000 394.59201000 0.13646799 -0.98503202 0.10530500 1.905766e-42
57.54859900 -18.06360100 393.54401000 0.16206300 -0.98212701 0.09572190 1.905766e-42
59.26190200 -18.10470000 392.99399000 0.18931700 -0.97795701 0.08808980 1.905766e-42
60.67409900 -17.94899900 391.88901000 0.20882100 -0.97486699 0.07764200 1.905766e-42
61.85279800 -17.61650100 390.57001000 0.22635201 -0.97171402 0.06735100 1.905766e-42
63.39550000 -17.49679900 389.64999000 0.24593900 -0.96750498 0.05871350 1.905766e-42
64.78089900 -17.24239900 388.52899000 0.26442200 -0.96311003 0.05000150 1.905766e-42
65.91870100 -16.76810100 387.21799000 0.28103799 -0.95880800 0.04128740 1.905766e-42
67.47989700 -16.47830000 386.37000000 0.30088699 -0.95303500 0.03450560 1.905766e-42
69.13099700 -15.76180000 386.34698000 0.32287601 -0.94589698 0.03207980 1.905766e-42
70.55680100 -15.34740000 387.36401000 0.34160599 -0.93914998 0.03609340 1.905766e-42
71.76310000 -14.91580000 388.62799000 0.35915199 -0.93230999 0.04251300 1.905766e-42
72.68440200 -14.53520000 390.12701000 0.37266201 -0.92656398 0.05101220 1.905766e-42
74.13009600 -13.88990000 390.98401000 0.38886499 -0.91959798 0.05589060 1.905766e-42
75.66819800 -13.20360000 391.61899000 0.40478599 -0.91245502 0.05978510 1.905766e-42
77.26039900 -12.43230000 391.95001000 0.41986701 -0.90548098 0.06177780 1.905766e-42
78.77590200 -11.74640000 392.63800000 0.43243900 -0.89925599 0.06583930 1.905766e-42
80.29200000 -10.77870000 392.70999000 0.44487900 -0.89318299 0.06562220 1.905766e-42
81.82080100 -10.11220000 393.38699000 0.45494500 -0.88786000 0.06877360 1.905766e-42
83.38890100 -9.23206040 393.46701000 0.46548301 -0.88249600 0.06727350 1.905766e-42
84.89939900 -8.25471970 393.52600000 0.47556600 -0.87730497 0.06459960 1.905766e-42
86.42150100 -7.29633000 393.59399000 0.47752801 -0.87641299 0.06218430 1.905766e-42
87.85260000 -6.49401000 394.33401000 0.47793499 -0.87595999 0.06535980 1.905766e-42
88.17400400 -5.99436000 396.03299000 0.47732699 -0.87528199 0.07771860 1.905766e-42
87.62059800 -6.32566980 397.71399000 0.47482601 -0.87568700 0.08781650 1.905766e-42
86.76660200 -6.77265980 399.23401000 0.47091800 -0.87689602 0.09638270 1.905766e-42
85.90679900 -7.11172010 400.77899000 0.46336499 -0.87942302 0.10912500 1.905766e-42
85.22020000 -7.29423000 402.43201000 0.45599100 -0.88158900 0.12195800 1.905766e-42
84.43540200 -7.44976000 404.04501000 0.44826600 -0.88361698 0.13520101 1.905766e-42
83.54820300 -7.69550990 405.59201000 0.44128600 -0.88415700 0.15340699 1.905766e-42
82.44370300 -8.02404020 406.97400000 0.43456799 -0.88434500 0.17053901 1.905766e-42
81.65460200 -8.09860990 408.59000000 0.42819101 -0.88381797 0.18846101 1.905766e-42
80.70240000 -8.19876000 410.11499000 0.42147401 -0.88329399 0.20530900 1.905766e-42
80.19390100 -7.91395000 411.81799000 0.41575599 -0.88178903 0.22270100 1.905766e-42
79.05200200 -8.18999960 413.18201000 0.40810999 -0.88141000 0.23783100 1.905766e-42
78.39910100 -8.00932030 414.84900000 0.40127200 -0.87978798 0.25486100 1.905766e-42
77.35350000 -8.10933020 416.31100000 0.39267701 -0.87889397 0.27083299 1.905766e-42
76.40599800 -8.03950980 417.84000000 0.38366199 -0.87757498 0.28751600 1.905766e-42
75.30889900 -8.04823020 419.26700000 0.37317601 -0.87656599 0.30392700 1.905766e-42
75.28700300 -7.30106020 420.90399000 0.36787400 -0.87314397 0.31982499 1.905766e-42
74.44259600 -7.23156980 422.49200000 0.35673100 -0.87115699 0.33738399 1.905766e-42
73.82389800 -6.86249020 424.14200000 0.34593201 -0.86836201 0.35535601 1.905766e-42
73.39959700 -6.16368010 425.74600000 0.33615300 -0.86490297 0.37275299 1.905766e-42
72.54779800 -5.90184020 427.31000000 0.32283401 -0.86198002 0.39085701 1.905766e-42
72.11910200 -5.11520000 428.87100000 0.31305099 -0.85754198 0.40819201 1.905766e-42
71.28289800 -4.88465020 430.44800000 0.29877499 -0.85393900 0.42605400 1.905766e-42
70.64050300 -4.23491000 431.99899000 0.28638801 -0.84909397 0.44387001 1.905766e-42
69.73930400 -3.82075000 433.50101000 0.27047399 -0.84485900 0.46158099 1.905766e-42
69.35590400 -2.97238990 435.04099000 0.26068401 -0.83836299 0.47873899 1.905766e-42
69.08740200 -2.00936010 436.53799000 0.25267500 -0.83102798 0.49552900 1.905766e-42
68.62220000 -1.24899010 438.10199000 0.24162200 -0.82373703 0.51290900 1.905766e-42
67.93039700 -0.62317598 439.64099000 0.22724500 -0.81680697 0.53026998 1.905766e-42
67.50460100 0.29633999 441.12900000 0.21708900 -0.80833298 0.54723901 1.905766e-42
67.28780400 1.45292000 442.49100000 0.21080901 -0.79935598 0.56266302 1.905766e-42
66.63870200 2.11395000 444.03500000 0.19665501 -0.79180402 0.57824999 1.905766e-42
66.30560300 3.16003990 445.46100000 0.18793400 -0.78266102 0.59340000 1.905766e-42
65.74289700 3.98628000 446.95801000 0.17660300 -0.77354503 0.60863799 1.905766e-42
65.76799800 5.12974020 448.34799000 0.17260399 -0.76331300 0.62254399 1.905766e-42
65.71579700 6.31311990 449.70300000 0.16755900 -0.75284898 0.63650799 1.905766e-42
65.28320300 7.35962010 451.10199000 0.15820700 -0.74229199 0.65113199 1.905766e-42
64.83180200 8.46207050 452.45200000 0.14889599 -0.73138201 0.66551501 1.905766e-42
64.80850200 9.67103000 453.78500000 0.14384601 -0.72010702 0.67878902 1.905766e-42
64.79560100 10.90880000 455.09201000 0.13872600 -0.70865399 0.69178301 1.905766e-42
64.02290300 11.95940000 456.33200000 0.12720400 -0.69732398 0.70537800 1.905766e-42
64.34709900 13.27090000 457.52200000 0.12561300 -0.68589401 0.71677798 1.905766e-42
64.10189800 14.53340000 458.78101000 0.11965700 -0.67335200 0.72957498 1.905766e-42
64.12300100 15.88120000 459.97400000 0.11644700 -0.66052198 0.74172199 1.905766e-42
64.13159900 17.25510000 461.13699000 0.11372800 -0.64724201 0.75375301 1.905766e-42
64.03710200 18.63299900 462.29099000 0.11094900 -0.63351798 0.76573199 1.905766e-42
63.96670200 20.02780000 463.42700000 0.10903900 -0.61943001 0.77744299 1.905766e-42
64.03510300 21.47040000 464.50101000 0.10871200 -0.60496402 0.78879702 1.905766e-42
64.02619900 22.93170000 465.55200000 0.10864200 -0.59010798 0.79998100 1.905766e-42
64.07350200 24.41869900 466.56500000 0.10965300 -0.57485503 0.81087500 1.905766e-42
63.92729900 25.83799900 467.66299000 0.11032200 -0.55966800 0.82134098 1.905766e-42
63.98140000 27.37520000 468.59799000 0.11257000 -0.54457301 0.83112401 1.905766e-42
63.65739800 28.78370100 469.67099000 0.11266900 -0.53020501 0.84034997 1.905766e-42
63.71860100 30.27450000 470.67700000 0.11506500 -0.51503801 0.84940898 1.905766e-42
63.40770000 31.77710000 471.61899000 0.11554800 -0.50058299 0.85794300 1.905766e-42
63.99670000 33.22700100 472.50800000 0.12003700 -0.48549300 0.86596102 1.905766e-42
64.26560200 34.82280000 473.29599000 0.12202300 -0.47028801 0.87403601 1.905766e-42
65.31590300 36.22499800 473.70901000 0.12286900 -0.45765701 0.88059801 1.905766e-42
65.23220100 37.79830200 474.57999000 0.12359800 -0.44250301 0.88820797 1.905766e-42
65.54930100 39.48690000 475.11600000 0.12370500 -0.42755499 0.89548498 1.905766e-42
66.05670200 41.05440100 475.84100000 0.12302000 -0.41276401 0.90249199 1.905766e-42
66.23770100 42.67570100 476.60199000 0.12305200 -0.39836499 0.90893501 1.905766e-42
66.38449900 44.34040100 477.26999000 0.12254900 -0.38529199 0.91462100 1.905766e-42
66.32800300 45.99409900 477.97900000 0.12204500 -0.37188101 0.92022300 1.905766e-42
66.40110000 47.65919900 478.65900000 0.12021100 -0.35831299 0.92583001 1.905766e-42
67.03250100 49.27740100 479.13101000 0.11488400 -0.34634599 0.93104601 1.905766e-42
67.12400100 50.95809900 479.76901000 0.11137600 -0.33254701 0.93648702 1.905766e-42
67.41210200 52.63380100 480.35901000 0.10626200 -0.31908500 0.94174999 1.905766e-42
68.34850300 54.12390100 480.73700000 0.09789840 -0.30907100 0.94598699 1.905766e-42
