# .PCD v0.7 - Point Cloud Data file format
# 3 104 0
# 1 46 0
# 47 78 0
# 79 104 0
VERSION 0.7
FIELDS x y z normal_x normal_y normal_z curvature
SIZE 4 4 4 4 4 4 4
TYPE F F F F F F F
COUNT 1 1 1 1 1 1 1
WIDTH 104
HEIGHT 1
VIEWPOINT 0 0 0 1 0 0 0
POINTS 104
DATA ascii
38.14020200 -22.26940000 449.07101000 -0.96029902 -0.11839200 0.25260499 1.905766e-42
38.30139900 -21.29810000 450.57800000 -0.95476103 -0.11454600 0.27442899 1.905766e-42
38.42100100 -19.92350000 451.73300000 -0.95045501 -0.13497899 0.28002799 1.905766e-42
38.66320000 -18.86080000 453.16599000 -0.95484000 -0.15459700 0.25373101 1.905766e-42
38.92739900 -17.88800000 454.65701000 -0.96309000 -0.17736700 0.20248300 1.905766e-42
39.01559800 -16.69860100 456.00500000 -0.96433902 -0.20195299 0.17107300 1.905766e-42
38.94500000 -15.44880000 457.29901000 -0.96195000 -0.22089000 0.16080999 1.905766e-42
38.82230000 -14.18020000 458.57001000 -0.96057600 -0.23624501 0.14657000 1.905766e-42
38.92829900 -13.11190000 460.01501000 -0.96170098 -0.24875000 0.11513200 1.905766e-42
38.35879900 -11.65350000 460.90302000 -0.95367497 -0.28857699 0.08501320 1.905766e-42
38.34859800 -10.69400000 462.42599000 -0.94871902 -0.31255800 0.04733830 1.905766e-42
37.74589900 -9.30525970 463.39999000 -0.93767399 -0.34498101 0.04190110 1.905766e-42
37.32260100 -8.09117030 464.65900000 -0.92822999 -0.37030399 0.03556950 1.905766e-42
36.84740100 -6.89752010 465.92001000 -0.92014700 -0.39092800 0.02246160 1.905766e-42
36.43790100 -5.80752990 467.29300000 -0.91083401 -0.41275600 -0.00366404 1.905766e-42
35.81689800 -4.57119990 468.44400000 -0.89930201 -0.43593299 -0.03489810 1.905766e-42
35.13090100 -3.34285000 469.56699000 -0.88798702 -0.45492899 -0.06721930 1.905766e-42
34.34159900 -2.10052990 470.60300000 -0.87701201 -0.47074899 -0.09615260 1.905766e-42
33.52780200 -0.94865400 471.72101000 -0.86713099 -0.48208401 -0.12521300 1.905766e-42
32.72810000 0.21466801 472.83801000 -0.85170603 -0.49958301 -0.15815900 1.905766e-42
31.92390100 1.28022000 474.04599000 -0.83442003 -0.51569301 -0.19443101 1.905766e-42
31.06390000 2.34480000 475.21500000 -0.81709099 -0.53056699 -0.22552501 1.905766e-42
29.98010100 3.45686010 476.12500000 -0.79902703 -0.54909700 -0.24504800 1.905766e-42
28.90870100 4.55922990 477.06201000 -0.78087902 -0.56749600 -0.26110601 1.905766e-42
27.70100000 5.69698000 477.75900000 -0.76233602 -0.58976901 -0.26649001 1.905766e-42
26.56399900 6.74270010 478.68301000 -0.74406499 -0.60846400 -0.27593201 1.905766e-42
25.39160000 7.75732990 479.59799000 -0.72374302 -0.62889600 -0.28405401 1.905766e-42
24.39279900 8.50465010 480.89499000 -0.70647502 -0.64057600 -0.30092400 1.905766e-42
23.04789900 9.47842030 481.59000000 -0.68008602 -0.66760099 -0.30297300 1.905766e-42
21.68280000 10.50060000 482.16599000 -0.65536797 -0.69380498 -0.29854199 1.905766e-42
20.51230000 11.31660000 483.26401000 -0.63996601 -0.70894903 -0.29636899 1.905766e-42
19.21250000 12.21330000 484.12701000 -0.61478502 -0.73425800 -0.28793100 1.905766e-42
17.76070000 13.04530000 484.79099000 -0.57940298 -0.76599699 -0.27846101 1.905766e-42
16.15810000 13.86480000 484.78601000 -0.53286701 -0.80118102 -0.27232701 1.905766e-42
13.82490000 15.02420000 486.04099000 -0.47814199 -0.83563101 -0.27037299 1.905766e-42
12.32570000 15.75860000 486.71399000 -0.45126399 -0.84874499 -0.27566701 1.905766e-42
10.74790000 16.47010000 487.20801000 -0.42600301 -0.85706800 -0.28975299 1.905766e-42
9.05317020 17.06749900 487.31299000 -0.40279099 -0.85896200 -0.31613800 1.905766e-42
7.51251980 17.70999900 487.98700000 -0.36592200 -0.86702800 -0.33817601 1.905766e-42
5.77690980 18.18650100 488.01099000 -0.32624301 -0.88050902 -0.34390301 1.905766e-42
4.07003020 18.74810000 488.11700000 -0.29251900 -0.89441699 -0.33830699 1.905766e-42
2.43197990 19.25040100 488.66901000 -0.27135399 -0.89983702 -0.34155601 1.905766e-42
0.71707201 19.65980000 488.30600000 -0.25490201 -0.90091097 -0.35126200 1.905766e-42
-0.91358697 20.00490000 488.98599000 -0.22536100 -0.90412700 -0.36299601 1.905766e-42
-2.66425990 20.34600100 488.74301000 -0.17866100 -0.91099101 -0.37172100 1.905766e-42
-4.39460990 20.75200100 488.45901000 -0.15244099 -0.91190302 -0.38104501 1.905766e-42
-6.00093980 21.19610000 487.77899000 -0.18170200 -0.90227997 -0.39099300 1.905766e-42
-5.48882010 21.66670000 486.11801000 -0.19791700 -0.92402202 -0.32712701 1.905766e-42
-4.62522980 22.02290000 484.57999000 -0.19537900 -0.95512402 -0.22263400 1.905766e-42
-4.20064020 22.26240000 482.84698000 -0.18739700 -0.98164701 -0.03538240 1.905766e-42
-3.87607000 22.09180100 481.08499000 -0.16123100 -0.96067297 0.22607900 1.905766e-42
-4.15893980 21.48329900 479.41501000 -0.13395600 -0.87023401 0.47407699 1.905766e-42
-5.21683980 20.70369900 478.18500000 -0.09848790 -0.77517998 0.62401599 1.905766e-42
-6.84349010 20.36410000 477.49301000 -0.08252530 -0.73163098 0.67668700 1.905766e-42
-7.22979020 19.12570000 476.24500000 -0.10314700 -0.69353300 0.71300298 1.905766e-42
-7.55116990 17.85910000 475.00699000 -0.12005900 -0.67505902 0.72792900 1.905766e-42
-8.17473030 16.65990100 473.81799000 -0.13507199 -0.67260599 0.72756898 1.905766e-42
-8.78450010 15.49730000 472.58701000 -0.14508700 -0.67910302 0.71956199 1.905766e-42
-9.49578950 14.44300000 471.31299000 -0.15554000 -0.68727303 0.70955098 1.905766e-42
-9.92310050 13.16020000 470.12500000 -0.16330700 -0.69510299 0.70011598 1.905766e-42
-10.48460000 12.01290000 468.85699000 -0.17340800 -0.70125300 0.69150102 1.905766e-42
-11.40190000 11.04290000 467.64899000 -0.17047600 -0.69830197 0.69520599 1.905766e-42
-12.20790000 10.02050000 466.40601000 -0.16574199 -0.69490999 0.69973600 1.905766e-42
-12.87040000 8.93624020 465.13101000 -0.16031501 -0.69222403 0.70365101 1.905766e-42
-12.66450000 7.64554020 463.89401000 -0.16337401 -0.69752997 0.69768298 1.905766e-42
-11.61410000 6.49888990 462.98700000 -0.15636000 -0.70156598 0.69523901 1.905766e-42
-10.29320000 5.51134010 462.26599000 -0.13751800 -0.70566601 0.69507200 1.905766e-42
-8.93218040 4.55564020 461.57700000 -0.12154200 -0.71632499 0.68709999 1.905766e-42
-8.25730990 3.35715010 460.41599000 -0.11467800 -0.73007703 0.67367399 1.905766e-42
-7.31279990 2.25306010 459.35400000 -0.10862500 -0.74444199 0.65879101 1.905766e-42
-6.90884020 1.11027000 458.02301000 -0.10917300 -0.76017201 0.64048398 1.905766e-42
-6.25393010 0.00174601 456.76501000 -0.10753500 -0.76567000 0.63418102 1.905766e-42
-5.57419010 -1.19048000 455.60001000 -0.11355000 -0.75899303 0.64112097 1.905766e-42
-5.18538000 -2.35875010 454.28699000 -0.11704500 -0.75057298 0.65033799 1.905766e-42
-4.57179020 -3.51231000 453.04901000 -0.11811700 -0.74127698 0.66072398 1.905766e-42
-3.68633010 -4.65525010 451.97699000 -0.11856900 -0.73289001 0.66993600 1.905766e-42
-3.04528000 -5.85883000 450.80200000 -0.11870000 -0.72496098 0.67848498 1.905766e-42
-2.16687990 -6.98152020 449.70300000 -0.11496000 -0.72363698 0.68053901 1.905766e-42
-1.46887000 -8.15524010 448.53000000 -0.11175500 -0.72381097 0.68088800 1.905766e-42
-0.01732050 -9.02624030 447.91901000 -0.11390000 -0.72655600 0.67760098 1.905766e-42
1.63979010 -9.63317010 447.56400000 -0.11993000 -0.72889400 0.67404002 1.905766e-42
3.28705000 -10.26610000 447.20901000 -0.12747200 -0.73054802 0.67085803 1.905766e-42
5.07074020 -10.49190000 447.29599000 -0.13187499 -0.73400599 0.66621602 1.905766e-42
6.80450010 -10.90330000 447.04099000 -0.13011600 -0.74158001 0.65812600 1.905766e-42
8.48843960 -11.33060000 446.57001000 -0.12640999 -0.74980402 0.64947301 1.905766e-42
10.18180000 -11.46520000 447.16501000 -0.11599000 -0.74670303 0.65496701 1.905766e-42
11.66060000 -12.16960000 446.41901000 -0.10821300 -0.75385100 0.64807302 1.905766e-42
13.43960000 -12.43300000 446.49600000 -0.09642200 -0.75181597 0.65228403 1.905766e-42
15.20620000 -12.42520000 446.84100000 -0.08448490 -0.74577600 0.66081798 1.905766e-42
16.74140000 -13.13030000 446.21899000 -0.07703150 -0.75321501 0.65324903 1.905766e-42
18.32780100 -13.67960000 445.57001000 -0.07296820 -0.76336300 0.64183497 1.905766e-42
20.08820000 -14.04810000 445.50000000 -0.07536470 -0.76974499 0.63388801 1.905766e-42
21.67980000 -14.38480000 444.72900000 -0.07641050 -0.78020102 0.62084502 1.905766e-42
23.32710100 -14.45350000 445.45200000 -0.08068830 -0.77799702 0.62306499 1.905766e-42
25.09890000 -14.70950000 445.26501000 -0.08103070 -0.78348398 0.61610597 1.905766e-42
26.23030100 -15.54180000 444.13901000 -0.08249090 -0.79278201 0.60389698 1.905766e-42
27.97190100 -15.78590000 444.52200000 -0.09814060 -0.77700198 0.62180102 1.905766e-42
29.58060100 -16.39320000 443.98999000 -0.15183599 -0.76373500 0.62741899 1.905766e-42
31.33690100 -16.78750000 443.98801000 -0.24185400 -0.73265600 0.63617700 1.905766e-42
33.02600100 -17.40519900 444.06000000 -0.38807201 -0.67966598 0.62245798 1.905766e-42
34.63800000 -18.10860100 444.44299000 -0.58422297 -0.57483500 0.57292902 1.905766e-42
35.68389900 -18.95529900 445.63800000 -0.78628600 -0.41778499 0.45520300 1.905766e-42
36.70880100 -20.06620000 446.61600000 -0.89525300 -0.28126001 0.34556299 1.905766e-42
37.48569900 -21.19240000 447.78601000 -0.94143301 -0.18352200 0.28288499 1.905766e-42
