# .PCD v0.7 - Point Cloud Data file format
# 4 88 0
# 1 19 0
# 20 51 0
# 52 64 0
# 65 88 0
VERSION 0.7
FIELDS x y z normal_x normal_y normal_z curvature
SIZE 4 4 4 4 4 4 4
TYPE F F F F F F F
COUNT 1 1 1 1 1 1 1
WIDTH 88
HEIGHT 1
VIEWPOINT 0 0 0 1 0 0 0
POINTS 88
DATA ascii
0.74940300 10.37800000 428.05899000 0.51177800 0.62343597 -0.59110999 1.905766e-42
0.24542999 11.51420000 428.91101000 0.52338499 0.64260298 -0.55957901 1.905766e-42
-0.44718200 12.94650000 429.75299000 0.53320497 0.67669600 -0.50771499 1.905766e-42
-1.43071000 14.17950000 430.62100000 0.54195797 0.71094197 -0.44815600 1.905766e-42
-1.78614000 15.34840000 431.94199000 0.55165702 0.70242900 -0.44974199 1.905766e-42
-2.45982000 16.56959900 433.07999000 0.57076299 0.68794900 -0.44828200 1.905766e-42
-3.45225000 17.87070100 433.82999000 0.58045697 0.67315501 -0.45818400 1.905766e-42
-4.16832020 19.19210100 434.82101000 0.57846397 0.66850799 -0.46741399 1.905766e-42
-4.54173990 20.44969900 436.05301000 0.56746602 0.68777800 -0.45270699 1.905766e-42
-5.38126990 21.70240000 437.03601000 0.56119502 0.71345901 -0.41956800 1.905766e-42
-5.94058990 22.86529900 438.29099000 0.56392801 0.72612202 -0.39335901 1.905766e-42
-6.71259020 24.11940000 439.32599000 0.58146501 0.69181901 -0.42811900 1.905766e-42
-7.29537010 25.36809900 440.48401000 0.58947098 0.66226101 -0.46252900 1.905766e-42
-8.07935050 26.70750000 441.39600000 0.58654201 0.66294098 -0.46527201 1.905766e-42
-8.73328020 28.02120000 442.43799000 0.58071101 0.67965698 -0.44815299 1.905766e-42
-9.63671020 29.14679900 443.51401000 0.57931799 0.69130301 -0.43184599 1.905766e-42
-10.29040000 30.40410000 444.62399000 0.58411098 0.68027103 -0.44277000 1.905766e-42
-10.49830000 31.70500000 445.85001000 0.58776301 0.66477698 -0.46109301 1.905766e-42
-11.42700000 32.95760000 446.74899000 0.59176099 0.66166502 -0.46045500 1.905766e-42
-11.47640000 34.12009800 448.12299000 0.58086503 0.67997599 -0.44746900 1.905766e-42
-10.02410000 33.46780000 448.96201000 0.57596099 0.67620200 -0.45936999 1.905766e-42
-8.64437010 32.98230000 450.01199000 0.56116098 0.67774600 -0.47514001 1.905766e-42
-7.16312980 32.30270000 450.77600000 0.54408902 0.67749703 -0.49494001 1.905766e-42
-5.93330000 32.04650100 452.06500000 0.51706803 0.67889899 -0.52128297 1.905766e-42
-4.28064010 31.41500100 452.39600000 0.49523601 0.68302900 -0.53685403 1.905766e-42
-2.97506000 31.27630000 453.62799000 0.47468001 0.68482298 -0.55289799 1.905766e-42
-1.42329000 30.81200000 454.41299000 0.45537001 0.69204801 -0.56009603 1.905766e-42
0.24514300 30.20990000 454.71899000 0.43422201 0.70458901 -0.56125402 1.905766e-42
1.88466000 29.74930000 455.30200000 0.40500799 0.71689701 -0.56747401 1.905766e-42
3.49060990 29.40130000 456.03699000 0.37641901 0.72606897 -0.57544100 1.905766e-42
5.14027020 28.72470100 456.28400000 0.34754300 0.73558599 -0.58148700 1.905766e-42
6.34264990 28.79200000 457.62100000 0.32453099 0.73818803 -0.59140301 1.905766e-42
8.10655980 28.43380000 457.60400000 0.29707500 0.74449003 -0.59789801 1.905766e-42
9.83728980 27.93930100 457.61301000 0.27111700 0.74861401 -0.60504001 1.905766e-42
11.46280000 28.02039900 458.38199000 0.24430899 0.74815202 -0.61691302 1.905766e-42
13.19520000 27.53790100 458.45901000 0.22033700 0.74817097 -0.62585300 1.905766e-42
14.95570000 27.22279900 458.66199000 0.19581200 0.74759799 -0.63462901 1.905766e-42
16.63710000 27.32160000 459.29700000 0.16952901 0.74586302 -0.64416498 1.905766e-42
18.41510000 27.18450000 459.54099000 0.14179599 0.74783498 -0.64856499 1.905766e-42
20.19610000 27.11990000 459.79501000 0.11267800 0.75067401 -0.65099299 1.905766e-42
21.98280000 26.99640100 459.97400000 0.08525450 0.75487900 -0.65030003 1.905766e-42
23.77549900 26.83580000 459.99600000 0.05563350 0.76042098 -0.64704299 1.905766e-42
25.57110000 26.70960000 459.99899000 0.02473410 0.76569498 -0.64272797 1.905766e-42
27.37030000 26.75919900 459.98001000 -0.00512853 0.77010602 -0.63789499 1.905766e-42
29.17000000 26.78520000 459.99500000 -0.03143410 0.77419299 -0.63216799 1.905766e-42
30.96780000 26.87410000 459.98901000 -0.06044090 0.77790701 -0.62546498 1.905766e-42
32.76390100 26.98880000 459.96201000 -0.09251840 0.78070199 -0.61801702 1.905766e-42
34.55199800 27.18759900 459.90500000 -0.13080400 0.78044701 -0.61138600 1.905766e-42
36.33900100 27.38680100 459.82101000 -0.16053700 0.77830100 -0.60702199 1.905766e-42
38.02719900 27.40399900 459.19699000 -0.18120199 0.76861900 -0.61350697 1.905766e-42
39.80009800 27.54859900 458.92099000 -0.19754000 0.76165903 -0.61713398 1.905766e-42
41.46189900 27.49169900 458.23199000 -0.20732801 0.74805897 -0.63041502 1.905766e-42
41.50280000 26.25239900 456.92700000 -0.20089100 0.71143401 -0.67342699 1.905766e-42
41.56399900 24.95229900 455.68399000 -0.19491000 0.68341303 -0.70353198 1.905766e-42
41.49240100 23.68619900 454.40601000 -0.19652499 0.70457101 -0.68187797 1.905766e-42
41.35179900 22.45710000 453.09900000 -0.19168600 0.73715198 -0.64796901 1.905766e-42
41.51699800 21.16470000 451.85699000 -0.17908700 0.75404698 -0.63193500 1.905766e-42
41.37039900 20.19100000 450.35001000 -0.17097300 0.74640602 -0.64315301 1.905766e-42
40.56250000 19.12299900 449.14700000 -0.17007001 0.73278600 -0.65886301 1.905766e-42
40.74369800 17.89819900 447.84100000 -0.17810801 0.72269702 -0.66782302 1.905766e-42
40.94950100 16.50060100 446.72501000 -0.18377000 0.71579599 -0.67369503 1.905766e-42
40.69350100 15.44920000 445.28699000 -0.18653999 0.72282100 -0.66538203 1.905766e-42
40.44670100 14.16830000 444.04700000 -0.18442599 0.75577402 -0.62832499 1.905766e-42
39.98239900 13.13620000 442.64700000 -0.17282499 0.78819102 -0.59066498 1.905766e-42
39.39210100 12.00630000 441.37601000 -0.14544401 0.73802799 -0.65890902 1.905766e-42
37.94870000 11.07910000 440.83099000 -0.13389100 0.71188301 -0.68941700 1.905766e-42
36.17190200 10.85900000 441.01700000 -0.13943200 0.72954202 -0.66957301 1.905766e-42
34.53130000 11.17420000 441.68701000 -0.11452900 0.76724601 -0.63104397 1.905766e-42
32.79060000 10.77570000 441.46100000 -0.07680770 0.76299602 -0.64182401 1.905766e-42
31.05590100 10.37900000 441.19000000 -0.04076240 0.75651401 -0.65270603 1.905766e-42
29.25620100 10.34590000 441.19601000 -0.00804568 0.76363802 -0.64559501 1.905766e-42
27.56189900 9.90740010 440.77499000 0.02603630 0.75116301 -0.65960300 1.905766e-42
25.77470000 9.94367030 440.56400000 0.05892570 0.75389701 -0.65434402 1.905766e-42
24.14230000 9.51076980 439.94101000 0.09314680 0.73620099 -0.67032200 1.905766e-42
22.36420100 9.58053970 439.67001000 0.12731400 0.73680198 -0.66401398 1.905766e-42
20.60440100 9.59599020 439.29199000 0.16379100 0.73367703 -0.65946299 1.905766e-42
18.87490100 9.57913020 438.79401000 0.19975400 0.72738898 -0.65650898 1.905766e-42
17.17219900 9.56721020 438.20999000 0.23504899 0.71944100 -0.65357202 1.905766e-42
15.58390000 9.35989000 437.38901000 0.27068099 0.70152599 -0.65923703 1.905766e-42
14.14270000 8.93645000 436.39700000 0.30733901 0.67423999 -0.67152297 1.905766e-42
12.52010000 8.90116020 435.61899000 0.34395599 0.67018801 -0.65767998 1.905766e-42
10.89400000 9.35758970 434.99600000 0.37838900 0.67306900 -0.63545197 1.905766e-42
9.30029960 9.56540970 434.18600000 0.41074300 0.67816699 -0.60940999 1.905766e-42
7.82517000 9.53703980 433.15399000 0.43965000 0.67953497 -0.58731598 1.905766e-42
6.52972980 9.33506970 431.92099000 0.46709701 0.67364401 -0.57273400 1.905766e-42
5.01102020 9.66059970 431.01099000 0.49404699 0.66542500 -0.55957800 1.905766e-42
3.71402000 9.59613040 429.76501000 0.50862902 0.65099901 -0.56346899 1.905766e-42
2.31107000 9.69882010 428.64200000 0.50885898 0.63569897 -0.58047301 1.905766e-42
