# .PCD v0.7 - Point Cloud Data file format
# 3 108 0
# 1 22 0
# 23 66 0
# 67 108 0
VERSION 0.7
FIELDS x y z normal_x normal_y normal_z curvature
SIZE 4 4 4 4 4 4 4
TYPE F F F F F F F
COUNT 1 1 1 1 1 1 1
WIDTH 108
HEIGHT 1
VIEWPOINT 0 0 0 1 0 0 0
POINTS 108
DATA ascii
22.45010000 32.77380000 461.97501000 -0.14963600 -0.45433199 0.87817502 1.905766e-42
20.97400100 34.35540000 462.57001000 -0.19148400 -0.43842900 0.87813097 1.905766e-42
19.21559900 34.37910100 462.18600000 -0.21477599 -0.42067900 0.88142002 1.905766e-42
17.63310100 35.23669800 462.20099000 -0.24155800 -0.40993899 0.87954497 1.905766e-42
15.90820000 35.19730000 461.68799000 -0.26801199 -0.40567601 0.87383997 1.905766e-42
14.20340000 35.16880000 461.11099000 -0.29251999 -0.40120900 0.86802298 1.905766e-42
12.52890000 35.71970000 460.74701000 -0.31695101 -0.39725301 0.86123902 1.905766e-42
10.92420000 36.21889900 460.10199000 -0.34422901 -0.39354801 0.85242403 1.905766e-42
9.23184970 36.05099900 459.51199000 -0.36992401 -0.38958499 0.84343302 1.905766e-42
7.59743980 36.61759900 459.01501000 -0.39609301 -0.38516799 0.83352000 1.905766e-42
5.94575980 37.07000000 458.45999000 -0.42118499 -0.38051599 0.82329297 1.905766e-42
4.32734010 37.21279900 457.68600000 -0.44279799 -0.37654901 0.81372100 1.905766e-42
2.70736000 37.53010200 456.96799000 -0.45766100 -0.37081000 0.80811298 1.905766e-42
1.24462000 38.22499800 456.18201000 -0.47044301 -0.36257800 0.80450100 1.905766e-42
-0.39479500 38.33549900 455.44699000 -0.48106000 -0.35562500 0.80131900 1.905766e-42
-1.86274000 39.11800000 454.76001000 -0.49780700 -0.34667200 0.79498798 1.905766e-42
-3.31399010 39.72489900 453.88501000 -0.51303297 -0.33949700 0.78837699 1.905766e-42
-4.82548000 39.40710100 452.95999000 -0.52321798 -0.34158000 0.78074700 1.905766e-42
-6.28879980 39.09040100 451.96100000 -0.53882700 -0.34839401 0.76699901 1.905766e-42
-7.04037000 37.83390000 450.91400000 -0.55195999 -0.36350101 0.75047100 1.905766e-42
-8.35299020 37.50130100 449.72800000 -0.57147801 -0.37003800 0.73245102 1.905766e-42
-9.47161010 36.83630000 448.48401000 -0.58438098 -0.37373701 0.72029102 1.905766e-42
-10.20880000 35.65980100 447.33899000 -0.59724802 -0.37393099 0.70955700 1.905766e-42
-9.74415970 34.02249900 446.75299000 -0.57355899 -0.39915401 0.71533698 1.905766e-42
-8.94682030 32.43429900 446.46701000 -0.56583601 -0.42022300 0.70939499 1.905766e-42
-8.45944980 30.81690000 445.84500000 -0.56000799 -0.44157600 0.70100099 1.905766e-42
-7.54781010 29.28500000 445.59601000 -0.55234498 -0.46209899 0.69381499 1.905766e-42
-6.72590020 27.73830000 445.18100000 -0.54396898 -0.48588899 0.68411201 1.905766e-42
-6.29237990 26.18180100 444.38800000 -0.54172099 -0.50964397 0.66843200 1.905766e-42
-5.31432010 24.70680000 444.05899000 -0.53851402 -0.52692097 0.65753800 1.905766e-42
-4.14158010 23.34810100 443.92300000 -0.53320402 -0.53962803 0.65153301 1.905766e-42
-3.36594010 21.84530100 443.30701000 -0.53153998 -0.55536997 0.63955402 1.905766e-42
-2.47892000 20.38310100 442.74500000 -0.52796501 -0.57052100 0.62909299 1.905766e-42
-1.84811000 18.92630000 441.89700000 -0.52797401 -0.58808702 0.61269701 1.905766e-42
-1.02909000 17.54439900 441.08499000 -0.52674401 -0.60448402 0.59761101 1.905766e-42
0.01062970 16.11130000 440.76001000 -0.52040499 -0.61736602 0.58994699 1.905766e-42
1.15730000 14.78770000 440.34399000 -0.51266998 -0.62992698 0.58340400 1.905766e-42
2.39330010 13.51490000 440.04001000 -0.50132698 -0.64134598 0.58081597 1.905766e-42
3.19717000 12.13800000 439.20499000 -0.49737701 -0.65790701 0.56548601 1.905766e-42
4.16228010 10.82070000 438.44800000 -0.48859301 -0.67357200 0.55459702 1.905766e-42
5.04303980 9.61114030 437.44699000 -0.48171100 -0.68924397 0.54119998 1.905766e-42
6.07486010 8.30613990 436.76001000 -0.46763000 -0.70398402 0.53453600 1.905766e-42
7.29117010 7.08373020 436.24399000 -0.44639701 -0.71798098 0.53407198 1.905766e-42
8.43060970 5.86437990 435.56900000 -0.42492300 -0.73279101 0.53146702 1.905766e-42
9.34183030 4.61100010 434.65399000 -0.40865999 -0.74907500 0.52142400 1.905766e-42
10.13040000 3.54246000 433.43900000 -0.39796501 -0.76482999 0.50661498 1.905766e-42
11.45800000 2.43446990 432.93900000 -0.36476499 -0.78013802 0.50826299 1.905766e-42
12.59050000 1.32293000 432.08899000 -0.33956900 -0.79570800 0.50153899 1.905766e-42
13.57750000 0.27728501 431.00601000 -0.32080600 -0.81122702 0.48886999 1.905766e-42
14.28040000 -0.68090999 429.65399000 -0.31128699 -0.82279301 0.47551200 1.905766e-42
15.63290000 -1.54149000 428.83600000 -0.28487399 -0.83429700 0.47201201 1.905766e-42
16.75270100 -2.54337000 427.84500000 -0.26244700 -0.84539998 0.46520999 1.905766e-42
17.89349900 -3.49526000 426.82901000 -0.23909800 -0.85597098 0.45841500 1.905766e-42
18.33180000 -4.30613990 425.28299000 -0.22705200 -0.86329401 0.45074600 1.905766e-42
19.41350000 -5.27813010 424.22198000 -0.20193601 -0.87316900 0.44361901 1.905766e-42
20.39520100 -6.02182010 422.90900000 -0.17735700 -0.88294101 0.43469501 1.905766e-42
21.68030000 -6.81330010 421.92801000 -0.14914300 -0.89354300 0.42348301 1.905766e-42
22.56419900 -7.58000990 420.56000000 -0.12463800 -0.90291297 0.41135499 1.905766e-42
23.54360000 -8.30714990 419.23700000 -0.09886430 -0.91263199 0.39664701 1.905766e-42
24.46900000 -8.93706040 417.82700000 -0.07376920 -0.92120898 0.38201001 1.905766e-42
25.52840000 -9.58290960 416.52301000 -0.05067600 -0.92660201 0.37261301 1.905766e-42
27.24340100 -9.88640020 416.06900000 -0.03501160 -0.93364102 0.35649401 1.905766e-42
28.89530000 -10.17770000 415.41501000 0.00227192 -0.93483901 0.35506400 1.905766e-42
30.40110000 -10.34040000 414.44299000 0.04152460 -0.93358099 0.35595301 1.905766e-42
31.95450000 -10.37010000 413.53400000 0.08176850 -0.93080598 0.35625100 1.905766e-42
33.66140000 -10.51640000 412.98199000 0.12218200 -0.92669398 0.35540199 1.905766e-42
35.44490100 -10.32000000 412.83701000 0.17083600 -0.91637301 0.36204499 1.905766e-42
36.85770000 -9.44620990 413.53101000 0.24018601 -0.89394403 0.37838399 1.905766e-42
37.52759900 -9.11001010 415.16699000 0.26861900 -0.88433099 0.38183999 1.905766e-42
38.94680000 -8.27441980 415.89401000 0.33189401 -0.86284900 0.38123101 1.905766e-42
40.22119900 -7.16731980 416.51801000 0.39550099 -0.83582503 0.38075599 1.905766e-42
41.25239900 -5.98733000 417.40399000 0.44110200 -0.81439400 0.37708399 1.905766e-42
41.74309900 -5.15717980 418.92401000 0.43314201 -0.81930298 0.37567300 1.905766e-42
41.56720000 -4.61941000 420.63300000 0.42288801 -0.81602198 0.39404801 1.905766e-42
41.02669900 -4.21812010 422.30200000 0.40730900 -0.81163102 0.41875401 1.905766e-42
40.87599900 -3.42134000 423.90900000 0.40620801 -0.79712999 0.44674399 1.905766e-42
40.50130100 -2.71058010 425.51999000 0.39542001 -0.78476000 0.47727901 1.905766e-42
40.03070100 -1.75539000 426.97101000 0.37158701 -0.78601402 0.49406901 1.905766e-42
39.60409900 -1.18409000 428.62399000 0.35227099 -0.78628600 0.50760198 1.905766e-42
39.56390000 -0.20539600 430.13400000 0.34789300 -0.77980399 0.52045703 1.905766e-42
39.02870200 0.61002398 431.64700000 0.33457100 -0.77465701 0.53662699 1.905766e-42
38.88670000 1.81004000 432.98099000 0.33643699 -0.76379198 0.55084598 1.905766e-42
38.45150000 2.50901010 434.58099000 0.32669601 -0.75811702 0.56438297 1.905766e-42
38.46740000 3.59861990 436.01401000 0.31703901 -0.75626600 0.57231897 1.905766e-42
38.33120000 4.66373010 437.45901000 0.30738199 -0.74800599 0.58822101 1.905766e-42
37.77690100 5.51727010 438.94299000 0.29236299 -0.73925298 0.60665399 1.905766e-42
37.60640000 6.72303010 440.26901000 0.28990301 -0.72686702 0.62259102 1.905766e-42
37.04679900 7.68480010 441.68399000 0.27712300 -0.71921802 0.63712502 1.905766e-42
36.55569800 8.70129010 443.08600000 0.26502100 -0.71387500 0.64818698 1.905766e-42
36.74779900 9.95726010 444.36099000 0.24895100 -0.71141601 0.65719998 1.905766e-42
37.46609900 11.22680000 445.41501000 0.24362700 -0.69828498 0.67308599 1.905766e-42
37.70920200 12.51830000 446.64499000 0.24228901 -0.67304099 0.69879299 1.905766e-42
37.50149900 13.74880000 447.94299000 0.24452101 -0.64544702 0.72360802 1.905766e-42
36.82980000 15.00330000 449.04501000 0.24467701 -0.62295902 0.74300402 1.905766e-42
35.47990000 15.58780000 450.08200000 0.22775701 -0.61585099 0.75422400 1.905766e-42
34.18870200 16.35510100 451.07401000 0.20398800 -0.60911798 0.76639700 1.905766e-42
33.08010100 17.36780000 452.06699000 0.18134700 -0.59906900 0.77989101 1.905766e-42
31.97810000 18.34560000 453.10101000 0.15569399 -0.58930802 0.79276401 1.905766e-42
30.95369900 19.49200100 454.03699000 0.13071300 -0.57812500 0.80541003 1.905766e-42
29.88130000 20.55550000 455.01700000 0.10120800 -0.56773102 0.81696898 1.905766e-42
28.87550000 21.75029900 455.91101000 0.07193980 -0.55613297 0.82797402 1.905766e-42
28.15690000 23.17420000 456.74600000 0.04976410 -0.54116702 0.83944100 1.905766e-42
27.25530100 24.37089900 457.74301000 0.01929830 -0.52668899 0.84983897 1.905766e-42
26.39399900 25.70190000 458.59601000 -0.01103730 -0.51072103 0.85967600 1.905766e-42
25.67460100 27.11590000 459.44601000 -0.03870460 -0.49342501 0.86892700 1.905766e-42
24.44750000 28.31819900 459.98300000 -0.07904840 -0.47479600 0.87653899 1.905766e-42
24.28240000 29.93160100 460.76401000 -0.08931260 -0.46915299 0.87858897 1.905766e-42
23.47030100 31.41480100 461.38101000 -0.11700100 -0.46293601 0.87863600 1.905766e-42
