# .PCD v0.7 - Point Cloud Data file format
# 12 120 0
# 1 6 0
# 7 14 0
# 15 19 0
# 20 33 0
# 34 52 0
# 53 71 0
# 72 76 0
# 77 95 0
# 96 101 0
# 102 109 0
# 110 112 0
# 113 120 0
VERSION 0.7
FIELDS x y z normal_x normal_y normal_z curvature
SIZE 4 4 4 4 4 4 4
TYPE F F F F F F F
COUNT 1 1 1 1 1 1 1
WIDTH 120
HEIGHT 1
VIEWPOINT 0 0 0 1 0 0 0
POINTS 120
DATA ascii
8.8217602 -27.2771 453.185 0.22639801 0.837385 -0.49752399 1.9057659e-42
7.2217398 -26.4673 453.34 0.25261801 0.82027799 -0.51315498 1.9057659e-42
5.6068001 -25.684999 453.48099 0.27350599 0.80635101 -0.52439803 1.9057659e-42
3.82845 -25.654499 453.20499 0.29220101 0.79589701 -0.53025103 1.9057659e-42
2.12361 -25.077 453.207 0.32208601 0.785842 -0.527933 1.9057659e-42
0.50352699 -24.009701 453.45401 0.36744899 0.77102798 -0.52009398 1.9057659e-42
47.336102 -9.4314699 465.858 -0.55467498 0.52959198 -0.64176899 1.9057659e-42
46.553501 -10.904 465.17999 -0.54482198 0.556306 -0.62744898 1.9057659e-42
45.438702 -12.2346 464.70401 -0.51590699 0.59653902 -0.614802 1.9057659e-42
44.501598 -13.616 464.03101 -0.495065 0.63676399 -0.59113598 1.9057659e-42
43.643501 -15.0122 463.28601 -0.479536 0.67325699 -0.56282401 1.9057659e-42
42.971901 -16.454599 462.44501 -0.47188199 0.70444602 -0.530173 1.9057659e-42
41.809601 -17.6528 461.771 -0.45480499 0.726933 -0.51450998 1.9057659e-42
40.547401 -18.7778 461.15399 -0.43058199 0.75070298 -0.50104398 1.9057659e-42
39.3559 -19.9335 460.457 -0.40910101 0.77449101 -0.48249301 1.9057659e-42
37.864201 -20.8505 460.04001 -0.37760499 0.79214299 -0.47950399 1.9057659e-42
36.4884 -21.8246 459.409 -0.351502 0.81076801 -0.46808299 1.9057659e-42
35.1292 -22.805201 458.75299 -0.326166 0.82772201 -0.45660901 1.9057659e-42
33.500301 -23.4739 458.379 -0.28839901 0.83876699 -0.46184 1.9057659e-42
32.694199 -24.785801 457.44699 -0.27684799 0.85718399 -0.43426999 1.9057659e-42
31.065201 -25.3969 456.98599 -0.235658 0.86782098 -0.43743899 1.9057659e-42
29.466299 -26.0541 456.48401 -0.193505 0.87820798 -0.43738601 1.9057659e-42
27.6982 -26.282499 456.23599 -0.150038 0.880885 -0.44892001 1.9057659e-42
25.905001 -26.386 456.11801 -0.115329 0.87502098 -0.470146 1.9057659e-42
24.2188 -26.787001 455.63199 -0.082618602 0.87367398 -0.47944599 1.9057659e-42
22.516399 -27.154699 455.17801 -0.043295 0.87188399 -0.48779601 1.9057659e-42
21.008301 -27.928801 454.573 -0.0071508898 0.87228101 -0.48895201 1.9057659e-42
19.232599 -28.0063 454.28799 0.036474701 0.86767799 -0.49578601 1.9057659e-42
17.455 -28.0455 454.008 0.065053098 0.86208302 -0.50257403 1.9057659e-42
15.67 -28.044399 453.776 0.090495698 0.85894698 -0.504004 1.9057659e-42
13.8859 -28.0371 453.53699 0.116922 0.85791898 -0.500305 1.9057659e-42
12.1029 -28.0749 453.293 0.14944699 0.85770297 -0.49194601 1.9057659e-42
10.581 -27.1469 453.543 0.190376 0.85342002 -0.48521301 1.9057659e-42
-1.12331 -23.247 453.56201 0.41724399 0.75363702 -0.50787598 1.9057659e-42
-2.57061 -22.206699 453.81299 0.45933101 0.73890501 -0.49298599 1.9057659e-42
-3.9249699 -21.054701 454.09399 0.493368 0.72670799 -0.477999 1.9057659e-42
-5.2644601 -19.8946 454.41 0.519876 0.71704298 -0.46430299 1.9057659e-42
-6.3818798 -18.554501 454.85199 0.54607701 0.69836003 -0.46270299 1.9057659e-42
-7.7122402 -17.381901 455.16 0.57705802 0.677944 -0.45540801 1.9057659e-42
-8.9432802 -16.121201 455.52802 0.60210103 0.65798002 -0.45225701 1.9057659e-42
-10.0228 -14.7471 455.95999 0.62052399 0.63803703 -0.455915 1.9057659e-42
-10.9492 -13.2929 456.47699 0.63267499 0.61713701 -0.46783 1.9057659e-42
-12.2719 -12.1077 456.76999 0.65556097 0.59169602 -0.46918601 1.9057659e-42
-12.8406 -10.5094 457.371 0.66633099 0.56162 -0.49049601 1.9057659e-42
-13.6868 -9.0095997 457.89499 0.68192703 0.53127003 -0.50272 1.9057659e-42
-14.4373 -7.46872 458.44501 0.69632697 0.50127798 -0.51366198 1.9057659e-42
-15.127 -5.9180498 459.04501 0.70913798 0.473836 -0.52211499 1.9057659e-42
-15.875 -4.3523698 459.52399 0.72096997 0.449173 -0.52767998 1.9057659e-42
-16.0383 -2.7139699 460.25101 0.72342902 0.41806099 -0.54943198 1.9057659e-42
-16.7425 -1.13859 460.763 0.734869 0.37969801 -0.56195801 1.9057659e-42
-16.8717 0.50008398 461.49701 0.74005997 0.33734 -0.58181798 1.9057659e-42
-16.9244 2.13743 462.24301 0.74663699 0.297791 -0.59485602 1.9057659e-42
-17.618401 3.7186799 462.75 0.760104 0.26056099 -0.59527302 1.9057659e-42
-16.995701 5.1839399 463.59 0.76712298 0.234108 -0.59725702 1.9057659e-42
-16.900999 6.84023 464.289 0.78409499 0.193997 -0.58954298 1.9057659e-42
-16.884899 8.5121202 464.95499 0.80448902 0.144849 -0.57603502 1.9057659e-42
-16.1856 9.9138098 465.84201 0.79676098 0.092407301 -0.59718698 1.9057659e-42
-16.0326 11.5865 466.48901 0.78877002 0.040989898 -0.61332101 1.9057659e-42
-15.2639 12.9986 467.29901 0.76950401 0.027053 -0.63806897 1.9057659e-42
-15.0332 14.6717 467.92099 0.76248002 0.0108347 -0.64692098 1.9057659e-42
-14.3479 16.163799 468.659 0.75444901 -0.00659465 -0.656326 1.9057659e-42
-13.6118 17.616699 469.42499 0.74842298 -0.0298825 -0.66254801 1.9057659e-42
-12.8304 19.067801 470.14899 0.72555101 -0.076014698 -0.68395698 1.9057659e-42
-12.1141 20.579201 470.814 0.70521301 -0.12698001 -0.697532 1.9057659e-42
-10.9918 21.7724 471.56 0.68181199 -0.164012 -0.71290398 1.9057659e-42
-9.82164 22.9247 472.297 0.66028398 -0.192239 -0.72599602 1.9057659e-42
-8.6701298 24.1297 472.97699 0.64117801 -0.21494401 -0.73667502 1.9057659e-42
-7.48803 25.3291 473.612 0.616714 -0.24040499 -0.74957901 1.9057659e-42
-6.38029 26.614201 474.21301 0.59351099 -0.26954001 -0.758349 1.9057659e-42
-5.0773602 27.7055 474.806 0.56626803 -0.29125699 -0.77104503 1.9057659e-42
-3.59025 28.535299 475.38901 0.53446698 -0.302852 -0.78906602 1.9057659e-42
-2.5725901 29.931999 475.89301 0.514615 -0.330558 -0.79114002 1.9057659e-42
-0.89145702 30.3431 476.388 0.47812101 -0.32672501 -0.81526202 1.9057659e-42
0.58329201 31.259399 476.86301 0.44482201 -0.33684999 -0.82985902 1.9057659e-42
1.9868799 32.2677 477.366 0.41036999 -0.34869 -0.84262198 1.9057659e-42
3.6743901 32.703701 477.815 0.36478999 -0.34617099 -0.86434603 1.9057659e-42
5.3006201 33.350399 478.23599 0.3256 -0.34789899 -0.87917602 1.9057659e-42
7.05619 33.494202 478.60699 0.28692701 -0.33356899 -0.898 1.9057659e-42
8.7272797 34.070301 478.94699 0.249119 -0.33104599 -0.91013598 1.9057659e-42
10.4865 34.2691 479.272 0.20393699 -0.32304901 -0.92414802 1.9057659e-42
12.2143 33.870701 479.582 0.15883701 -0.30756101 -0.93817699 1.9057659e-42
13.9838 33.7071 479.86801 0.122411 -0.30246899 -0.94526601 1.9057659e-42
15.7247 34.130001 480.043 0.100449 -0.31280199 -0.94449198 1.9057659e-42
17.4792 33.787899 480.254 0.081286602 -0.316396 -0.94513798 1.9057659e-42
19.267799 33.672001 480.42001 0.0591463 -0.332923 -0.94109702 1.9057659e-42
20.9429 33.0439 480.61899 0.033077199 -0.331916 -0.942729 1.9057659e-42
22.7414 33.007702 480.68301 -0.024752101 -0.32986099 -0.94370502 1.9057659e-42
24.523001 33.257599 480.742 -0.062058698 -0.32560199 -0.94346797 1.9057659e-42
26.3218 33.198101 480.771 -0.078990199 -0.30055001 -0.95049 1.9057659e-42
28.0798 32.811901 480.78699 -0.102432 -0.27717301 -0.95534402 1.9057659e-42
29.590799 31.8407 480.67099 -0.128684 -0.25334701 -0.95877802 1.9057659e-42
30.853701 30.563 480.55801 -0.152367 -0.22824501 -0.96160698 1.9057659e-42
32.638 30.3685 480.423 -0.19689099 -0.218729 -0.955715 1.9057659e-42
34.343399 29.7964 480.35599 -0.245244 -0.204952 -0.94754899 1.9057659e-42
35.7029 28.6402 480.121 -0.28405899 -0.185932 -0.940606 1.9057659e-42
37.4011 28.056 479.99899 -0.32762599 -0.18108501 -0.92729199 1.9057659e-42
38.402 26.603001 479.64301 -0.34697899 -0.161476 -0.92386699 1.9057659e-42
39.5588 25.2687 479.29401 -0.37460601 -0.135581 -0.91721803 1.9057659e-42
40.939098 24.1656 478.95099 -0.40829101 -0.117375 -0.90527397 1.9057659e-42
42.2948 23.040899 478.57999 -0.43933499 -0.099341497 -0.89281303 1.9057659e-42
43.5942 21.8503 478.21399 -0.46553299 -0.079580799 -0.88144499 1.9057659e-42
44.4771 20.355499 477.73901 -0.47976601 -0.049155101 -0.87601799 1.9057659e-42
45.484901 18.943501 477.259 -0.49857801 -0.019309901 -0.86663002 1.9057659e-42
46.075901 17.334499 476.70901 -0.50880003 0.0175774 -0.86070502 1.9057659e-42
46.871601 15.8129 476.16901 -0.52471298 0.049369801 -0.84984702 1.9057659e-42
47.236401 14.1369 475.62399 -0.530303 0.0846323 -0.84357297 1.9057659e-42
48.1656 12.699 475.06799 -0.55013102 0.105223 -0.82842201 1.9057659e-42
48.263302 10.9824 474.535 -0.54628903 0.13842601 -0.82607901 1.9057659e-42
49.087101 9.5074596 473.914 -0.56115103 0.168062 -0.81047201 1.9057659e-42
49.883701 8.0105305 473.31 -0.57427198 0.203949 -0.792853 1.9057659e-42
49.090302 6.4503598 472.89001 -0.55936801 0.247466 -0.79111803 1.9057659e-42
49.414101 4.8376198 472.159 -0.57064301 0.28329101 -0.770787 1.9057659e-42
50.2229 3.3795199 471.48099 -0.585388 0.30281001 -0.75208199 1.9057659e-42
50.0154 1.73748 470.77301 -0.591465 0.32497901 -0.73794198 1.9057659e-42
49.674999 0.102291 470.10199 -0.60134 0.344219 -0.72104299 1.9057659e-42
49.0051 -1.48944 469.595 -0.60445499 0.363998 -0.70861799 1.9057659e-42
48.918499 -3.1192601 468.836 -0.60147202 0.41483301 -0.68274802 1.9057659e-42
48.805698 -4.7247601 468.03 -0.59598303 0.45458099 -0.661937 1.9057659e-42
48.196899 -6.3010802 467.409 -0.57310599 0.48247299 -0.66239601 1.9057659e-42
47.819302 -7.8734498 466.61899 -0.56247199 0.50563997 -0.65418202 1.9057659e-42
