# .PCD v0.7 - Point Cloud Data file format
# 2 59 0
# 1 31 0
# 32 59 0
VERSION 0.7
FIELDS x y z normal_x normal_y normal_z curvature
SIZE 4 4 4 4 4 4 4
TYPE F F F F F F F
COUNT 1 1 1 1 1 1 1
WIDTH 59
HEIGHT 1
VIEWPOINT 0 0 0 1 0 0 0
POINTS 59
DATA ascii
20.79820100 18.07329900 440.71201000 0.23080900 -0.87727797 0.42084399 1.905766e-42
19.21270000 18.35310000 441.99500000 0.24449299 -0.88002700 0.40715599 1.905766e-42
18.11150000 17.45509900 440.89001000 0.16662100 -0.93468601 0.31400499 1.905766e-42
16.98350000 16.87010000 439.61499000 0.18545100 -0.93292302 0.30864799 1.905766e-42
15.76490000 16.21649900 438.46301000 0.21234900 -0.91068202 0.35435301 1.905766e-42
14.73230000 15.36500000 437.25900000 0.24308901 -0.87990999 0.40824801 1.905766e-42
13.65200000 14.49430000 436.11200000 0.27109101 -0.85121697 0.44937599 1.905766e-42
12.95700000 13.49790000 434.78400000 0.29583299 -0.82447702 0.48241100 1.905766e-42
12.69770000 12.49370000 433.31299000 0.32661000 -0.79520100 0.51086301 1.905766e-42
12.13340000 11.38520000 432.01199000 0.36493799 -0.75527799 0.54440302 1.905766e-42
11.87190000 10.20920000 430.67499000 0.39607599 -0.70269698 0.59105003 1.905766e-42
10.90980000 8.93881990 429.83801000 0.40087801 -0.66149402 0.63381600 1.905766e-42
10.44640000 7.55402990 428.78500000 0.40050599 -0.61510903 0.67914301 1.905766e-42
11.85560000 7.22581010 427.71500000 0.43021601 -0.59099501 0.68237799 1.905766e-42
13.19980000 6.90499020 426.56100000 0.42641899 -0.56946999 0.70275998 1.905766e-42
14.48340000 6.37764980 425.41501000 0.40893400 -0.54604101 0.73117203 1.905766e-42
15.69970000 5.73237990 424.25500000 0.39067900 -0.52015901 0.75947702 1.905766e-42
16.78080000 4.81800990 423.14401000 0.37362301 -0.47990200 0.79378802 1.905766e-42
18.13310100 4.13749980 422.17001000 0.35442999 -0.44782901 0.82086998 1.905766e-42
19.37980100 3.25618000 421.21701000 0.34656700 -0.40493199 0.84612101 1.905766e-42
20.44350100 2.16189000 420.26199000 0.34362900 -0.36994699 0.86316699 1.905766e-42
21.74760100 1.25411000 419.41699000 0.34016001 -0.33650199 0.87809902 1.905766e-42
23.14290000 0.46974400 418.59299000 0.34237301 -0.29844701 0.89090401 1.905766e-42
24.45879900 -0.46113899 417.79199000 0.32415000 -0.28611100 0.90170300 1.905766e-42
25.88100100 -1.29422000 417.06900000 0.28498501 -0.28910699 0.91389298 1.905766e-42
27.07029900 -2.39229990 416.28101000 0.25653201 -0.29013199 0.92196202 1.905766e-42
28.58289900 -3.13244010 415.64600000 0.21803500 -0.30372000 0.92747802 1.905766e-42
30.25140000 -3.66213990 415.22699000 0.17578800 -0.31451201 0.93283498 1.905766e-42
31.65469900 -4.54014020 414.51999000 0.13846900 -0.31661299 0.93839401 1.905766e-42
33.14690000 -5.42455010 414.03900000 0.09378970 -0.32481501 0.94111598 1.905766e-42
34.73690000 -6.22138020 413.76099000 0.02690080 -0.34586200 0.93790001 1.905766e-42
36.28089900 -7.10507010 413.48700000 -0.02946990 -0.36118400 0.93202901 1.905766e-42
37.64250200 -6.03691010 413.98300000 -0.08503190 -0.39204100 0.91600901 1.905766e-42
38.93920100 -4.96622990 414.62500000 -0.13387500 -0.44081599 0.88755703 1.905766e-42
40.46200200 -4.19113020 415.19101000 -0.14765701 -0.47877201 0.86543298 1.905766e-42
40.06269800 -2.65145990 416.03299000 -0.16961500 -0.50765997 0.84469599 1.905766e-42
39.20220200 -1.23696990 416.73999000 -0.19278100 -0.52714002 0.82762200 1.905766e-42
38.41210200 0.15217599 417.56799000 -0.21159600 -0.54709202 0.80988699 1.905766e-42
38.43740100 1.64323000 418.57599000 -0.21772499 -0.59218800 0.77582800 1.905766e-42
38.80080000 2.98985000 419.71399000 -0.17943600 -0.60396898 0.77654600 1.905766e-42
38.91619900 4.52455000 420.64700000 -0.14945801 -0.61812299 0.77174199 1.905766e-42
38.54340000 5.80285980 421.85800000 -0.14993200 -0.64829600 0.74647999 1.905766e-42
38.74789800 7.09383010 423.09601000 -0.17276201 -0.69968897 0.69324499 1.905766e-42
38.86439900 8.31165030 424.41599000 -0.19549000 -0.74183601 0.64145303 1.905766e-42
38.52949900 9.39632990 425.81299000 -0.15368100 -0.75327700 0.63949603 1.905766e-42
39.04589800 10.42530000 427.19699000 -0.07404120 -0.73361200 0.67552298 1.905766e-42
38.93429900 11.73290000 428.42899000 -0.01577060 -0.73783600 0.67479599 1.905766e-42
37.85310000 12.62050000 429.56201000 0.03599410 -0.75233400 0.65779799 1.905766e-42
36.54290000 13.37820000 430.53601000 0.07413270 -0.76187301 0.64346999 1.905766e-42
35.36650100 14.36620000 431.47400000 0.08737630 -0.75049901 0.65507001 1.905766e-42
33.63660000 14.42390000 431.96799000 0.02764960 -0.78960001 0.61299801 1.905766e-42
32.24739800 15.09620000 432.89401000 0.02835940 -0.80129701 0.59759402 1.905766e-42
30.89870100 15.75480000 433.88800000 0.05852900 -0.81564701 0.57558203 1.905766e-42
29.41430100 16.20260000 434.80200000 0.08423240 -0.83598697 0.54224598 1.905766e-42
28.06780100 16.79780000 435.83801000 0.12344400 -0.83650601 0.53387100 1.905766e-42
26.52039900 17.06130000 436.71899000 0.12816601 -0.85458100 0.50325400 1.905766e-42
25.11780000 17.46349900 437.77301000 0.15268099 -0.85746300 0.49137199 1.905766e-42
23.66330000 17.77890000 438.78500000 0.18796700 -0.86527997 0.46471399 1.905766e-42
21.99530000 17.62660000 439.44501000 0.19783001 -0.88715601 0.41691500 1.905766e-42
