# .PCD v0.7 - Point Cloud Data file format
# 3 127 1
# 1 40 1
# 41 85 0
# 86 127 0
VERSION 0.7
FIELDS x y z normal_x normal_y normal_z curvature
SIZE 4 4 4 4 4 4 4
TYPE F F F F F F F
COUNT 1 1 1 1 1 1 1
WIDTH 127
HEIGHT 1
VIEWPOINT 0 0 0 1 0 0 0
POINTS 127
DATA ascii
5.92266990 42.35350000 431.17099000 -0.80910099 -0.50409001 0.30207399 1.905766e-42
6.59918020 41.40430100 431.92801000 -0.81349999 -0.50765800 0.28372601 1.905766e-42
7.64405010 40.46469900 433.05301000 -0.81922102 -0.50703698 0.26793900 1.905766e-42
8.75883010 39.38550200 433.96600000 -0.82188201 -0.51379699 0.24601300 1.905766e-42
9.68235020 38.48479800 435.22101000 -0.83015001 -0.50658000 0.23287000 1.905766e-42
10.41700000 37.75120200 436.69199000 -0.84317702 -0.48852101 0.22449800 1.905766e-42
11.36560000 36.73770100 437.83701000 -0.85698003 -0.47442099 0.20127200 1.905766e-42
12.12580000 35.88079800 439.22601000 -0.87744600 -0.44489399 0.17932899 1.905766e-42
12.57430000 35.19649900 440.82901000 -0.89606899 -0.41221300 0.16474199 1.905766e-42
13.35350000 34.15420200 442.07300000 -0.91130400 -0.38643199 0.14210799 1.905766e-42
13.82970000 33.41140000 443.64200000 -0.92434198 -0.35934401 0.12830700 1.905766e-42
14.37660000 32.55820100 445.12900000 -0.93531698 -0.33532101 0.11288100 1.905766e-42
14.65840000 32.10570100 446.84799000 -0.94465500 -0.31302899 0.09817900 1.905766e-42
15.24990000 31.01149900 448.14999000 -0.95308697 -0.29228300 0.07871430 1.905766e-42
15.31860000 30.72640000 449.92599000 -0.95845097 -0.27802500 0.06383410 1.905766e-42
15.72720000 29.74729900 451.38000000 -0.96295398 -0.26577401 0.04564570 1.905766e-42
16.11860100 28.77969900 452.84601000 -0.96647400 -0.25584200 0.02173220 1.905766e-42
16.12520000 28.36500000 454.59799000 -0.97020900 -0.24204201 -0.01054120 1.905766e-42
16.48450100 27.19319900 455.91599000 -0.97337502 -0.22552000 -0.04099770 1.905766e-42
16.66309900 26.32790000 457.48401000 -0.97568399 -0.20702100 -0.07198760 1.905766e-42
16.72279900 25.57049900 459.11600000 -0.97705102 -0.18730099 -0.10144100 1.905766e-42
16.35860100 25.42820000 460.87299000 -0.97746801 -0.17380400 -0.11978200 1.905766e-42
16.30260100 24.61210100 462.47601000 -0.97723401 -0.16238400 -0.13655099 1.905766e-42
16.18630000 23.87039900 464.11200000 -0.97569197 -0.15452500 -0.15539099 1.905766e-42
16.00180100 23.25750000 465.79501000 -0.97277802 -0.14955699 -0.17701900 1.905766e-42
15.59900000 22.96629900 467.52499000 -0.96847898 -0.14586100 -0.20192100 1.905766e-42
15.46890000 22.02350000 469.05301000 -0.96306199 -0.14559899 -0.22652300 1.905766e-42
15.24580000 21.25939900 470.66699000 -0.95567602 -0.14749099 -0.25481400 1.905766e-42
14.90970000 20.61319900 472.31299000 -0.94619697 -0.15008700 -0.28667900 1.905766e-42
14.42180000 20.11220000 473.97198000 -0.93471903 -0.15138701 -0.32153100 1.905766e-42
13.81690000 19.75060100 475.62799000 -0.92168802 -0.14976700 -0.35785499 1.905766e-42
13.29300000 19.14679900 477.24100000 -0.90924799 -0.15301199 -0.38711199 1.905766e-42
12.53290000 18.95780000 478.86099000 -0.89780301 -0.14658600 -0.41528600 1.905766e-42
11.86480000 18.42970100 480.44699000 -0.88486302 -0.14343201 -0.44321999 1.905766e-42
11.08880000 18.09550100 482.03601000 -0.87223101 -0.13400100 -0.47038001 1.905766e-42
10.60310000 17.22040000 483.53299000 -0.85614401 -0.13387300 -0.49909401 1.905766e-42
9.65130040 16.99000000 485.04300000 -0.84449297 -0.11995400 -0.52196002 1.905766e-42
8.67302040 16.83900100 486.54599000 -0.83463001 -0.10640900 -0.54043502 1.905766e-42
7.65240000 16.67960000 488.01999000 -0.82486397 -0.09525470 -0.55724901 1.905766e-42
6.64167020 16.36990000 489.47699000 -0.81314403 -0.09111450 -0.57488698 1.905766e-42
5.61684990 16.08849900 490.92999000 -0.79852599 -0.09173560 -0.59492898 1.905766e-42
4.73890020 17.31110000 491.91699000 -0.79249102 -0.05729990 -0.60718602 1.905766e-42
4.69453000 19.10450000 491.76801000 -0.79911399 -0.03515980 -0.60015100 1.905766e-42
4.44254020 20.84750000 492.14001000 -0.80156499 -0.02508140 -0.59738201 1.905766e-42
3.87054990 22.42670100 492.78799000 -0.80242997 -0.02083030 -0.59638298 1.905766e-42
3.66045000 24.21040000 492.90701000 -0.80522901 -0.02790330 -0.59230798 1.905766e-42
3.25262000 25.84190000 493.54901000 -0.79901397 -0.05113290 -0.59913403 1.905766e-42
3.17580010 27.62630100 493.32501000 -0.79685402 -0.07823050 -0.59908599 1.905766e-42
2.89094000 29.38439900 493.58600000 -0.79114598 -0.10695500 -0.60220402 1.905766e-42
2.60936000 31.16220100 493.59900000 -0.78507203 -0.13575800 -0.60434401 1.905766e-42
2.24031000 32.92390100 493.59900000 -0.77709502 -0.16243599 -0.60806102 1.905766e-42
1.87309000 34.68610000 493.60599000 -0.77372003 -0.17439200 -0.60905200 1.905766e-42
1.38434990 36.41700000 493.67700000 -0.77010602 -0.18135700 -0.61159301 1.905766e-42
0.71062398 37.97160000 494.28400000 -0.76548499 -0.18966500 -0.61486602 1.905766e-42
0.21541800 39.70109900 494.22198000 -0.75941801 -0.19789600 -0.61977500 1.905766e-42
-0.23819301 41.43119800 494.01999000 -0.75703198 -0.21600400 -0.61663997 1.905766e-42
-0.95572001 43.03170000 494.42401000 -0.74950099 -0.24367000 -0.61552697 1.905766e-42
-1.62027000 44.70230100 494.51099000 -0.73766202 -0.28018299 -0.61429000 1.905766e-42
-2.37540010 46.24039800 495.06299000 -0.72264898 -0.31347501 -0.61604500 1.905766e-42
-2.92241000 47.78550000 494.31900000 -0.71110302 -0.34737599 -0.61127901 1.905766e-42
-3.67758010 49.41630200 494.21799000 -0.69356298 -0.38093001 -0.61144298 1.905766e-42
-4.35985990 51.03440100 493.82300000 -0.67850798 -0.40753901 -0.61117798 1.905766e-42
-5.31754020 52.54069900 494.05499000 -0.67619503 -0.41556701 -0.60832900 1.905766e-42
-6.07777980 54.17229800 494.04800000 -0.67276102 -0.42531800 -0.60539001 1.905766e-42
-6.69895980 55.71080000 493.35001000 -0.66670603 -0.43596601 -0.60451400 1.905766e-42
-7.61160990 57.25770200 493.47000000 -0.66085100 -0.44968900 -0.60088003 1.905766e-42
-8.41421030 58.84109900 493.17200000 -0.65190601 -0.46706399 -0.59738600 1.905766e-42
-8.89019010 60.26929900 492.18500000 -0.65397400 -0.47698101 -0.58720201 1.905766e-42
-9.62415980 61.88880200 491.90500000 -0.66410398 -0.47924301 -0.57383901 1.905766e-42
-10.15300000 63.38010000 491.04700000 -0.67015398 -0.47975001 -0.56633401 1.905766e-42
-10.55150000 64.91529800 490.19601000 -0.67612499 -0.47517800 -0.56308198 1.905766e-42
-11.01730000 66.50840000 489.49899000 -0.68267602 -0.46566799 -0.56312197 1.905766e-42
-11.33880000 68.04450200 488.61801000 -0.68797702 -0.45361301 -0.56650001 1.905766e-42
-11.73670000 69.66510000 487.94299000 -0.69849199 -0.44969401 -0.55667299 1.905766e-42
-12.24640000 71.18859900 487.13101000 -0.70967299 -0.47336301 -0.52181602 1.905766e-42
-12.73360000 72.68640100 486.26001000 -0.70407802 -0.51521200 -0.48870400 1.905766e-42
-13.16100000 74.27829700 485.53699000 -0.68606502 -0.56628001 -0.45677301 1.905766e-42
-13.53660000 75.69249700 484.48801000 -0.66163099 -0.62172598 -0.41916600 1.905766e-42
-14.51870000 77.06060000 483.85300000 -0.61526501 -0.68601698 -0.38836899 1.905766e-42
-15.83990000 78.06210300 483.15201000 -0.55769098 -0.75196803 -0.35146099 1.905766e-42
-16.91910000 78.78649900 481.90701000 -0.49494001 -0.82793200 -0.26374900 1.905766e-42
-17.93339900 79.73780100 480.76401000 -0.42685601 -0.88655502 -0.17836700 1.905766e-42
-18.58219900 80.39510300 479.21899000 -0.38288000 -0.91925901 -0.09146420 1.905766e-42
-19.42630000 81.09310200 477.79001000 -0.35152301 -0.93602198 -0.01717290 1.905766e-42
-20.30340000 81.52670300 476.27899000 -0.34484500 -0.93752003 0.04624030 1.905766e-42
-21.45200000 81.46540100 474.89499000 -0.35960299 -0.93195200 0.04637080 1.905766e-42
-20.50650000 80.96009800 473.44901000 -0.38611901 -0.91952997 0.07332380 1.905766e-42
-18.96100000 80.28440100 472.82101000 -0.40919599 -0.90783900 0.09158140 1.905766e-42
-17.64080000 79.66989900 471.76300000 -0.43568301 -0.89465898 0.09882320 1.905766e-42
-16.20120000 78.92170000 470.98300000 -0.46743599 -0.87849402 0.09874910 1.905766e-42
-14.83610000 78.18319700 470.07101000 -0.50308698 -0.85946399 0.09069070 1.905766e-42
-13.42600000 77.30670200 469.37601000 -0.54993999 -0.83174598 0.07592310 1.905766e-42
-12.03580000 76.40599800 468.67200000 -0.58345598 -0.81031400 0.05449790 1.905766e-42
-10.72870000 75.18129700 468.49399000 -0.61731601 -0.78596199 0.03441000 1.905766e-42
-9.43183040 74.27140000 467.63901000 -0.63869500 -0.76905400 0.02496760 1.905766e-42
-8.23143010 73.11399800 466.96100000 -0.66100001 -0.75014299 0.01908560 1.905766e-42
-7.07176020 71.96050300 466.20999000 -0.68076700 -0.73225600 0.01890890 1.905766e-42
-5.84399990 70.81670400 465.55899000 -0.68962902 -0.72399098 0.01575780 1.905766e-42
-4.62737990 69.73220100 464.79501000 -0.69675499 -0.71716601 0.01436570 1.905766e-42
-3.46009990 68.36209900 464.77802000 -0.70885098 -0.70535600 0.00196347 1.905766e-42
-2.16430000 67.11270100 464.78101000 -0.72136998 -0.69244999 -0.01175470 1.905766e-42
-1.00689010 66.05090300 463.90100000 -0.72769397 -0.68581003 -0.01124340 1.905766e-42
0.09623820 64.81140100 463.20401000 -0.74693000 -0.66485798 -0.00767064 1.905766e-42
1.08990000 63.32300200 463.01099000 -0.76882899 -0.63934100 -0.01201200 1.905766e-42
2.08615990 62.04550200 462.22601000 -0.78624099 -0.61791801 -0.00178027 1.905766e-42
3.29425000 60.87939800 461.57800000 -0.80350101 -0.59525198 0.00784241 1.905766e-42
4.86667010 60.00389900 461.54700000 -0.82001901 -0.57231498 0.00500177 1.905766e-42
6.13028000 59.02909900 460.71399000 -0.83891898 -0.54369402 0.02475210 1.905766e-42
5.54494000 57.50590100 459.95499000 -0.85034001 -0.52442998 0.04352990 1.905766e-42
5.54756020 57.21279900 458.17899000 -0.85095799 -0.51853102 0.08364500 1.905766e-42
5.41390990 57.27380000 456.38501000 -0.84549397 -0.52011502 0.12091300 1.905766e-42
5.41807990 56.42570100 454.79700000 -0.85100800 -0.50453198 0.14571600 1.905766e-42
5.37588980 56.11999900 453.02399000 -0.85162699 -0.49772400 0.16432101 1.905766e-42
5.83124020 54.80270000 451.88501000 -0.86442900 -0.47132701 0.17496499 1.905766e-42
6.44440980 53.36610000 450.98999000 -0.87192702 -0.45669800 0.17654900 1.905766e-42
6.82327990 52.52130100 449.44699000 -0.87028801 -0.45662299 0.18464600 1.905766e-42
7.11462020 51.05979900 448.43701000 -0.87211198 -0.45140699 0.18881799 1.905766e-42
7.15029000 50.51359900 446.72198000 -0.86830699 -0.45155701 0.20527700 1.905766e-42
7.30724000 49.37300100 445.33899000 -0.86730403 -0.44617701 0.22070301 1.905766e-42
7.41463990 48.48960100 443.77399000 -0.86473799 -0.43954399 0.24296001 1.905766e-42
7.52137990 47.72990000 442.14600000 -0.86109197 -0.43072701 0.27017701 1.905766e-42
7.43449020 46.65140200 440.70700000 -0.85564202 -0.42354700 0.29746500 1.905766e-42
7.17434980 45.81399900 439.13501000 -0.84993100 -0.41963199 0.31863201 1.905766e-42
7.09185980 44.73000000 437.70099000 -0.84632599 -0.41790599 0.33028400 1.905766e-42
6.66583010 44.62690000 435.95499000 -0.83901000 -0.42370999 0.34136900 1.905766e-42
6.31964020 43.59069800 434.52399000 -0.83398300 -0.43429101 0.34038800 1.905766e-42
6.05234000 42.93339900 432.87000000 -0.82503903 -0.45813400 0.33079499 1.905766e-42
