# .PCD v0.7 - Point Cloud Data file format
# 4 132 1
# 1 37 0
# 38 80 1
# 81 105 0
# 106 132 0
VERSION 0.7
FIELDS x y z normal_x normal_y normal_z curvature
SIZE 4 4 4 4 4 4 4
TYPE F F F F F F F
COUNT 1 1 1 1 1 1 1
WIDTH 132
HEIGHT 1
VIEWPOINT 0 0 0 1 0 0 0
POINTS 132
DATA ascii
-7.26276020 -20.83000000 352.70999000 -0.94800597 -0.07516890 0.30924800 1.905766e-42
-6.58391000 -20.28800000 354.28601000 -0.94393402 -0.07825090 0.32072699 1.905766e-42
-6.45987990 -19.02030000 355.55801000 -0.94077897 -0.08052050 0.32931799 1.905766e-42
-6.32310010 -17.65790000 356.72699000 -0.93789899 -0.08432310 0.33650500 1.905766e-42
-5.84703020 -16.52660000 358.04300000 -0.93616599 -0.08972320 0.33991700 1.905766e-42
-5.66336010 -15.14110000 359.17801000 -0.93666899 -0.09666320 0.33660999 1.905766e-42
-5.35364010 -13.89830000 360.44199000 -0.93688703 -0.10761800 0.33265799 1.905766e-42
-4.90103010 -13.02870000 361.95200000 -0.93555599 -0.11470200 0.33403301 1.905766e-42
-4.48761990 -11.86180000 363.25900000 -0.93481100 -0.09391490 0.34250301 1.905766e-42
-4.13402990 -10.56610000 364.45700000 -0.93319499 -0.07080410 0.35232699 1.905766e-42
-3.61704990 -9.73602960 365.96799000 -0.92894697 -0.05717110 0.36577299 1.905766e-42
-3.28120990 -8.47264960 367.20599000 -0.92626703 -0.03702000 0.37504601 1.905766e-42
-2.55267000 -8.06363010 368.79999000 -0.92133498 -0.03509150 0.38718301 1.905766e-42
-1.91796990 -7.18662980 370.23801000 -0.92042601 -0.02709490 0.38997799 1.905766e-42
-1.43370000 -6.14074990 371.62100000 -0.92169499 -0.02250320 0.38726199 1.905766e-42
-0.90693200 -5.13359020 373.01599000 -0.92275798 -0.03208890 0.38404101 1.905766e-42
-0.32608101 -3.98881010 374.27802000 -0.92307597 -0.04031240 0.38249901 1.905766e-42
0.31799400 -3.31057000 375.81601000 -0.92058402 -0.04934520 0.38741401 1.905766e-42
0.66808301 -2.05760000 377.06000000 -0.91909999 -0.05579510 0.39005500 1.905766e-42
1.22004000 -1.40049000 378.64200000 -0.91425902 -0.06288610 0.40022001 1.905766e-42
2.06488990 -0.91036499 380.15399000 -0.90785497 -0.06876950 0.41360599 1.905766e-42
2.37211990 0.32389101 381.42801000 -0.90377897 -0.07073150 0.42211401 1.905766e-42
3.14059000 0.89443600 382.95200000 -0.89837098 -0.05941550 0.43519899 1.905766e-42
3.83875990 1.81337000 384.33401000 -0.89174801 -0.04399530 0.45038900 1.905766e-42
5.57016990 3.87552000 387.71701000 -0.86756599 -0.00467899 0.49730000 1.905766e-42
6.38535980 4.69131990 389.09900000 -0.85312802 0.01350640 0.52152699 1.905766e-42
7.19437980 5.63133000 390.40399000 -0.83549899 0.03355460 0.54846603 1.905766e-42
8.00422000 6.73130990 391.57599000 -0.81484801 0.05307890 0.57723898 1.905766e-42
8.88506030 7.83917000 392.68799000 -0.79900998 0.06479160 0.59781700 1.905766e-42
9.92819980 8.60486030 393.93900000 -0.79260200 0.07704900 0.60485202 1.905766e-42
10.90530000 9.50938030 395.14999000 -0.78613502 0.08487190 0.61220002 1.905766e-42
12.11160000 10.08750000 396.35501000 -0.77913100 0.09315750 0.61989999 1.905766e-42
13.02890000 11.17460000 397.45801000 -0.76818901 0.09742230 0.63276798 1.905766e-42
14.15280000 11.82870000 398.70200000 -0.75256002 0.10803600 0.64960098 1.905766e-42
15.44470000 12.42540000 399.80499000 -0.72883600 0.12471200 0.67323500 1.905766e-42
16.46520000 13.46710000 400.85999000 -0.69003701 0.15335400 0.70734102 1.905766e-42
17.77829900 14.03130000 401.95401000 -0.64490300 0.18627600 0.74121600 1.905766e-42
18.25750000 15.76090000 401.81699000 -0.61428398 0.18910199 0.76609099 1.905766e-42
17.67779900 17.30110000 401.08801000 -0.61961401 0.18203799 0.76350498 1.905766e-42
17.43359900 18.85990000 400.22198000 -0.62239403 0.18742999 0.75993198 1.905766e-42
16.70680000 20.23210000 399.31100000 -0.63802099 0.19316401 0.74539697 1.905766e-42
16.22260100 21.66530000 398.33600000 -0.65130198 0.20189901 0.73146600 1.905766e-42
15.34050000 22.91589900 397.38800000 -0.67452401 0.20679000 0.70870000 1.905766e-42
14.40480000 24.03370100 396.33301000 -0.70251399 0.21140300 0.67954600 1.905766e-42
14.32200000 25.55320000 395.37100000 -0.70998597 0.23125100 0.66516399 1.905766e-42
13.66950000 26.80290000 394.25201000 -0.72776902 0.24292700 0.64135700 1.905766e-42
12.88470000 27.93219900 393.09100000 -0.74372101 0.25327900 0.61865097 1.905766e-42
12.24250000 29.08700000 391.86801000 -0.75662202 0.26690501 0.59689599 1.905766e-42
11.98110000 30.46750100 390.74301000 -0.76054800 0.28830001 0.58176500 1.905766e-42
11.43810000 31.62620000 389.47699000 -0.77100700 0.30024299 0.56160700 1.905766e-42
11.22640000 32.93759900 388.26300000 -0.77531499 0.31385100 0.54807299 1.905766e-42
10.52610000 33.90390000 386.91501000 -0.79029900 0.31277299 0.52687699 1.905766e-42
10.17380000 35.08940100 385.60699000 -0.79985303 0.31543699 0.51062202 1.905766e-42
9.54551030 35.99589900 384.18500000 -0.81506503 0.31283799 0.48764899 1.905766e-42
9.17877010 37.06679900 382.78500000 -0.82262802 0.32161799 0.46887699 1.905766e-42
8.81974030 38.09090000 381.34900000 -0.82964599 0.33199999 0.44884601 1.905766e-42
8.68871020 39.25830100 379.98499000 -0.83160698 0.34894100 0.43205300 1.905766e-42
8.03260040 39.80970000 378.40201000 -0.84456801 0.34924200 0.40587601 1.905766e-42
7.92328980 40.94070100 377.00601000 -0.84512198 0.36804700 0.38769999 1.905766e-42
7.79924010 42.00379900 375.55899000 -0.84658498 0.38446599 0.36807501 1.905766e-42
7.18945980 42.44350100 373.92401000 -0.85706699 0.38497701 0.34238601 1.905766e-42
7.11437990 43.48889900 372.45999000 -0.85834700 0.39801300 0.32376799 1.905766e-42
7.17270990 44.61109900 371.05399000 -0.85923702 0.40832701 0.30819100 1.905766e-42
6.64632990 45.04029800 369.38699000 -0.86815298 0.40358299 0.28884399 1.905766e-42
6.56638000 45.95629900 367.84000000 -0.87198400 0.40516400 0.27474701 1.905766e-42
6.88712980 46.97700100 366.39200000 -0.87473500 0.40702701 0.26299700 1.905766e-42
6.42142010 47.46149800 364.72198000 -0.88232601 0.40325600 0.24266300 1.905766e-42
6.35513020 48.24340100 363.10199000 -0.88802701 0.40115201 0.22468799 1.905766e-42
6.00883010 48.55440100 361.36401000 -0.89424402 0.39887300 0.20304500 1.905766e-42
6.20794010 49.49710100 359.84299000 -0.89905101 0.39504799 0.18879899 1.905766e-42
6.31603000 50.30149800 358.23700000 -0.90435803 0.39043900 0.17231899 1.905766e-42
6.37304020 50.93249900 356.55200000 -0.90928298 0.38687301 0.15340599 1.905766e-42
6.36654000 51.51599900 354.84900000 -0.91327500 0.38503301 0.13296400 1.905766e-42
5.97969010 51.62760200 353.09500000 -0.91378200 0.39031699 0.11249600 1.905766e-42
6.13789990 52.32889900 351.44400000 -0.91569799 0.39139900 0.09112650 1.905766e-42
6.05621000 52.66330000 349.67801000 -0.91447502 0.39756000 0.07537970 1.905766e-42
6.34796000 53.30160100 348.01999000 -0.91482699 0.39986300 0.05657530 1.905766e-42
6.38237000 53.63589900 346.25201000 -0.91246402 0.40753701 0.03637560 1.905766e-42
6.62252000 54.12670100 344.53699000 -0.90960801 0.41529500 0.01195600 1.905766e-42
6.61328980 54.29660000 342.74500000 -0.90256798 0.43031499 -0.01415360 1.905766e-42
7.08146000 54.85760100 341.10001000 -0.89950103 0.43687099 -0.00651077 1.905766e-42
6.16554020 53.64880000 340.13000000 -0.89376199 0.44851699 0.00474849 1.905766e-42
5.37740990 52.16350200 339.48801000 -0.88632601 0.46289200 0.01250320 1.905766e-42
4.45819000 50.63790100 339.22800000 -0.87707299 0.48003399 0.01759380 1.905766e-42
3.59831000 49.05699900 339.19199000 -0.86546201 0.50048202 0.02220090 1.905766e-42
2.81908010 47.56969800 338.54300000 -0.85104901 0.52452201 0.02433670 1.905766e-42
1.93850990 46.11080200 337.96399000 -0.84387398 0.53608298 0.02215710 1.905766e-42
0.93325001 44.65219900 337.64401000 -0.86485499 0.50184900 0.01317450 1.905766e-42
-0.00334265 43.11579900 337.59500000 -0.88319403 0.46896499 0.00642412 1.905766e-42
-0.56343699 41.70420100 336.62900000 -0.89830500 0.43924001 -0.01083710 1.905766e-42
-1.37519000 40.20330000 336.05600000 -0.91245902 0.40844101 -0.02438870 1.905766e-42
-2.17093990 38.58990100 335.99399000 -0.92535901 0.37781700 -0.03105700 1.905766e-42
-2.69011000 37.00859800 335.30801000 -0.93722397 0.34575999 -0.04538890 1.905766e-42
-3.05483010 35.44350100 334.49799000 -0.94718701 0.31502199 -0.05997640 1.905766e-42
-3.63700010 33.74190100 334.42200000 -0.95716298 0.28253299 -0.06335840 1.905766e-42
-3.89723990 32.30390200 333.37100000 -0.96359199 0.25600699 -0.07714670 1.905766e-42
-4.40506980 30.64780000 332.88199000 -0.97020799 0.22841699 -0.08076550 1.905766e-42
-4.75599000 29.10250100 332.02802000 -0.97067899 0.22575399 -0.08256900 1.905766e-42
-5.08109000 27.47970000 331.32001000 -0.97153902 0.22227100 -0.08189890 1.905766e-42
-5.50863980 25.75020000 331.06299000 -0.97339201 0.21622901 -0.07585390 1.905766e-42
-5.60256000 24.42359900 329.85001000 -0.97301102 0.21657300 -0.07965810 1.905766e-42
-5.65454010 22.95879900 328.80499000 -0.97311598 0.21599700 -0.07993860 1.905766e-42
-5.77386000 21.45430000 327.82401000 -0.97152102 0.22436300 -0.07621570 1.905766e-42
-6.35737990 19.85560000 327.23801000 -0.96855003 0.23985399 -0.06618890 1.905766e-42
-6.76682000 18.31940100 326.39401000 -0.96460801 0.25724801 -0.05792310 1.905766e-42
-6.98285010 16.98469900 325.20599000 -0.95976198 0.27583399 -0.05265350 1.905766e-42
-7.55748990 15.31500000 325.55499000 -0.95734203 0.28648099 -0.03774850 1.905766e-42
-7.97217990 14.16240000 326.87399000 -0.95764297 0.28704101 -0.02295990 1.905766e-42
-8.30292990 13.04890000 328.24899000 -0.95997000 0.27994701 -0.00934184 1.905766e-42
-8.56052020 11.75740000 329.47601000 -0.96725798 0.25378999 0.00178676 1.905766e-42
-8.80652050 10.54800000 330.78601000 -0.97408998 0.22575600 0.01354760 1.905766e-42
-8.98748970 9.64297010 332.33099000 -0.97894102 0.20247801 0.02603670 1.905766e-42
-9.15184020 8.45351030 333.67200000 -0.98396999 0.17431100 0.03767120 1.905766e-42
-9.31214050 7.10764980 334.85699000 -0.98835301 0.14361700 0.05031760 1.905766e-42
-9.40981010 5.61773010 335.86200000 -0.99201000 0.11070200 0.06050020 1.905766e-42
-9.46226020 4.76343010 337.44501000 -0.99273002 0.09378080 0.07544880 1.905766e-42
-9.56338980 3.06602000 338.03601000 -0.99522299 0.05946520 0.07743110 1.905766e-42
-9.66545010 1.60854010 339.08701000 -0.99518597 0.04757910 0.08568350 1.905766e-42
-9.50990960 -0.01567020 339.84698000 -0.99395102 0.05420980 0.09551200 1.905766e-42
-9.63212970 -1.14698000 341.24200000 -0.99275702 0.05600230 0.10628900 1.905766e-42
-9.60851000 -2.62402010 342.27100000 -0.99146801 0.05890930 0.11627900 1.905766e-42
-9.53470040 -3.88946010 343.54901000 -0.98956501 0.05688270 0.13238500 1.905766e-42
-9.42582990 -5.47448020 344.39499000 -0.98764902 0.05412910 0.14703301 1.905766e-42
-9.35593030 -6.82543990 345.58200000 -0.98542303 0.04653790 0.16363500 1.905766e-42
-9.12609000 -7.90208010 347.00601000 -0.98302001 0.03523130 0.18008301 1.905766e-42
-9.03524020 -9.53734020 347.75299000 -0.98035401 0.02433310 0.19574000 1.905766e-42
-8.84673020 -11.02150000 348.75400000 -0.97740799 0.00728739 0.21123700 1.905766e-42
-8.69482040 -12.63830000 349.53000000 -0.97383898 -0.00928241 0.22705100 1.905766e-42
-8.29788020 -14.31470000 350.05200000 -0.96879101 -0.02551040 0.24656200 1.905766e-42
-8.16448020 -15.87100000 350.94601000 -0.96276200 -0.04243380 0.26700100 1.905766e-42
-7.91158010 -17.50830100 351.64999000 -0.95690000 -0.05679620 0.28480899 1.905766e-42
-7.59551000 -19.07670000 352.47501000 -0.95129699 -0.06871720 0.30052000 1.905766e-42
