# .PCD v0.7 - Point Cloud Data file format
# 3 50 0
# 1 23 1
# 24 35 1
# 36 50 0
VERSION 0.7
FIELDS x y z normal_x normal_y normal_z curvature
SIZE 4 4 4 4 4 4 4
TYPE F F F F F F F
COUNT 1 1 1 1 1 1 1
WIDTH 50
HEIGHT 1
VIEWPOINT 0 0 0 1 0 0 0
POINTS 50
DATA ascii
16.6462 12.1002 464.552 -0.201103 -0.87612098 0.43814299 1.9057659e-42
15.2372 12.791 465.43399 -0.0559927 -0.931696 0.35889801 1.9057659e-42
13.4451 12.7491 465.59698 0.020438701 -0.960648 0.277015 1.9057659e-42
12.823 12.832 465.36401 0.027821099 -0.96484202 0.26135299 1.9057659e-42
11.7304 12.4016 464 0.020963101 -0.97175699 0.23505101 1.9057659e-42
9.9504299 12.2456 463.78201 0.051813599 -0.97742897 0.204813 1.9057659e-42
8.27421 11.9962 463.17499 0.063865997 -0.98037601 0.18650299 1.9057659e-42
6.4770498 11.9003 463.14401 0.0622558 -0.97750503 0.20151401 1.9057659e-42
4.6939101 11.9538 462.90399 0.044088099 -0.97800303 0.203877 1.9057659e-42
3.14553 11.5124 462.099 0.033132602 -0.98311502 0.179966 1.9057659e-42
1.49295 11.3553 461.40302 0.0223212 -0.98611099 0.164583 1.9057659e-42
-0.14837199 11.2449 460.672 0.012962 -0.98872399 0.149185 1.9057659e-42
-1.93102 11.1875 460.42999 0.0091995904 -0.98986501 0.14171501 1.9057659e-42
-3.6796899 11.1476 460.005 0.038205002 -0.98986298 0.136792 1.9057659e-42
-5.4091601 11.0688 459.51199 0.067277998 -0.98929298 0.12951 1.9057659e-42
-6.9481001 10.7278 458.64301 0.076837704 -0.99015301 0.117017 1.9057659e-42
-8.3379898 10.4662 457.53 0.057775199 -0.99099201 0.120813 1.9057659e-42
-10.1039 10.3283 457.20901 -0.0294009 -0.98695397 0.158297 1.9057659e-42
-11.5768 10.1906 456.18399 -0.19971199 -0.94801497 0.247756 1.9057659e-42
-12.5766 10.0443 454.694 -0.29786801 -0.882658 0.36357799 1.9057659e-42
-13.9662 10.2792 453.57501 -0.457403 -0.68439603 0.56778902 1.9057659e-42
-14.925 9.6459303 452.189 -0.36765301 -0.65504301 0.66011399 1.9057659e-42
-15.4745 8.4488602 450.96201 -0.176605 -0.68412501 0.70766097 1.9057659e-42
-16.2153 7.4765801 449.64099 -0.085509099 -0.67755198 0.73048699 1.9057659e-42
-14.447 7.1847601 449.80801 0.0152814 -0.73357201 0.67944002 1.9057659e-42
-12.6625 7.1027398 449.586 0.070260704 -0.72223198 0.68807298 1.9057659e-42
-11.4689 6.2470598 448.54599 0.077616602 -0.70701998 0.70292097 1.9057659e-42
-9.8320599 5.7793198 447.961 0.047484599 -0.71329498 0.69925398 1.9057659e-42
-8.0473604 5.7154498 447.73499 0.00126163 -0.71476603 0.69936299 1.9057659e-42
-6.57022 5.0142698 446.983 -0.035159901 -0.72943097 0.68314999 1.9057659e-42
-5.04458 4.2876201 446.36301 -0.075040802 -0.74673098 0.66088003 1.9057659e-42
-3.43887 3.60901 445.914 -0.138117 -0.73005402 0.66928703 1.9057659e-42
-2.00247 2.7836101 445.20999 -0.19210599 -0.67496997 0.71239799 1.9057659e-42
-1.42355 1.5138299 444.073 -0.189992 -0.729684 0.65685999 1.9057659e-42
0.211457 1.53093 444.82599 -0.177393 -0.71748298 0.67360902 1.9057659e-42
1.90877 1.7527 445.383 -0.166743 -0.70930302 0.68489802 1.9057659e-42
3.2396901 2.41557 446.397 -0.16866601 -0.69877398 0.69517398 1.9057659e-42
4.6940398 2.8940699 447.34399 -0.16901299 -0.698232 0.69563401 1.9057659e-42
6.1574998 3.4774899 448.21399 -0.175265 -0.70312399 0.68912899 1.9057659e-42
7.37256 4.2915502 449.26401 -0.18513399 -0.71042299 0.67898703 1.9057659e-42
8.0686998 5.3184199 450.56799 -0.198008 -0.72367001 0.66113198 1.9057659e-42
9.1806498 5.9951801 451.811 -0.21601599 -0.74577302 0.63020599 1.9057659e-42
9.9550896 6.9215298 453.146 -0.23653901 -0.76401198 0.60027897 1.9057659e-42
10.5091 7.8069401 454.612 -0.25343099 -0.78208601 0.56931001 1.9057659e-42
11.5924 8.4138498 455.91501 -0.27127001 -0.78651398 0.55480498 1.9057659e-42
12.703 9.0017796 457.20401 -0.29840001 -0.77331501 0.559412 1.9057659e-42
13.6462 9.5934801 458.61801 -0.33132201 -0.75513399 0.56568402 1.9057659e-42
14.3685 10.2563 460.12799 -0.33226901 -0.78273398 0.52623701 1.9057659e-42
14.874 11.1477 461.608 -0.296018 -0.809322 0.50731701 1.9057659e-42
15.9512 11.4858 463.01001 -0.25686499 -0.84431702 0.470265 1.9057659e-42
