# .PCD v0.7 - Point Cloud Data file format
# 5 147 -2
# 1 34 0
# 35 61 0
# 62 86 0
# 87 117 0
# 118 147 0
VERSION 0.7
FIELDS x y z normal_x normal_y normal_z curvature
SIZE 4 4 4 4 4 4 4
TYPE F F F F F F F
COUNT 1 1 1 1 1 1 1
WIDTH 147
HEIGHT 1
VIEWPOINT 0 0 0 1 0 0 0
POINTS 147
DATA ascii
-19.82420000 -19.65670000 449.98199000 0.37818301 -0.28060701 0.88217700 1.905766e-42
-20.09429900 -20.29260100 449.66400000 0.37494001 -0.28918499 0.88079101 1.905766e-42
-18.80430000 -21.35210000 448.99100000 0.36116201 -0.29574099 0.88436401 1.905766e-42
-17.09320100 -20.92810100 448.62701000 0.35433501 -0.28890401 0.88937098 1.905766e-42
-15.49070000 -20.22750100 448.20099000 0.34724301 -0.28335199 0.89394301 1.905766e-42
-13.79420000 -20.07930000 447.61801000 0.33961499 -0.28626099 0.89594400 1.905766e-42
-12.13570000 -19.54040000 447.17200000 0.33137500 -0.28839901 0.89834100 1.905766e-42
-10.47180000 -19.34540000 446.51401000 0.30652899 -0.29826701 0.90392298 1.905766e-42
-8.89774990 -18.49659900 446.30899000 0.27097100 -0.30482501 0.91304803 1.905766e-42
-7.44969990 -17.42970100 446.38000000 0.23871100 -0.30888900 0.92065501 1.905766e-42
-5.73851010 -16.95179900 446.09100000 0.20407400 -0.31605601 0.92653197 1.905766e-42
-4.04059980 -17.33840000 445.63599000 0.17401700 -0.32472801 0.92966098 1.905766e-42
-2.28621010 -17.53490100 445.28400000 0.14413001 -0.33294001 0.93186802 1.905766e-42
-0.54061502 -17.82130100 444.95099000 0.11956300 -0.34126201 0.93233299 1.905766e-42
1.25168000 -17.73609900 444.80801000 0.09285290 -0.34774101 0.93298101 1.905766e-42
3.04102990 -17.62710000 444.64600000 0.06540750 -0.35312000 0.93328899 1.905766e-42
4.82661010 -17.60660000 444.41901000 0.03786170 -0.35778999 0.93303400 1.905766e-42
6.62610010 -17.64810000 444.43100000 0.00996017 -0.36165601 0.93225801 1.905766e-42
8.22441010 -18.40169900 444.08801000 -0.01333110 -0.36590800 0.93055499 1.905766e-42
9.56945040 -19.44240000 443.49799000 -0.03203170 -0.36902601 0.92886698 1.905766e-42
11.22540000 -20.11300100 443.27899000 -0.05808620 -0.36945099 0.92743301 1.905766e-42
12.96160000 -20.54250000 443.48199000 -0.08689730 -0.36666000 0.92628801 1.905766e-42
14.56020000 -21.36640000 443.40601000 -0.11579600 -0.36066800 0.92547798 1.905766e-42
16.34240000 -21.50589900 443.61600000 -0.14556400 -0.35110199 0.92495298 1.905766e-42
18.09580000 -21.59420000 444.01300000 -0.17337300 -0.33875999 0.92476100 1.905766e-42
19.87290000 -21.72050100 444.26999000 -0.20318900 -0.32359600 0.92412102 1.905766e-42
21.53400000 -22.38640000 444.07700000 -0.23595400 -0.30395299 0.92300498 1.905766e-42
23.21559900 -22.27910000 444.70901000 -0.26312599 -0.29082701 0.91988301 1.905766e-42
24.80600000 -23.04170000 445.06900000 -0.29570100 -0.26862699 0.91673398 1.905766e-42
26.30900000 -24.02150000 445.21301000 -0.32752299 -0.24233299 0.91323799 1.905766e-42
27.96200000 -24.13089900 445.91699000 -0.35517201 -0.22782201 0.90661502 1.905766e-42
29.57329900 -24.85290000 446.26801000 -0.37428299 -0.20692600 0.90393198 1.905766e-42
31.16570100 -25.59190000 446.66501000 -0.38720301 -0.19186600 0.90180999 1.905766e-42
32.67260000 -26.39990000 447.22800000 -0.39900300 -0.18256800 0.89859098 1.905766e-42
34.20959900 -27.17420000 447.75500000 -0.41018799 -0.18107399 0.89384401 1.905766e-42
35.54320100 -26.46410000 448.73300000 -0.43605500 -0.20712100 0.87576097 1.905766e-42
36.76660200 -25.57420000 449.70901000 -0.46878901 -0.23556501 0.85132003 1.905766e-42
37.84650000 -24.48510000 450.65100000 -0.49787301 -0.26466200 0.82587999 1.905766e-42
38.97330100 -23.47710000 451.62799000 -0.51915097 -0.29251701 0.80306703 1.905766e-42
40.38029900 -22.88349900 452.58099000 -0.53752500 -0.31507000 0.78217500 1.905766e-42
41.32109800 -21.87970000 453.74100000 -0.55513197 -0.34016600 0.75902301 1.905766e-42
42.15720000 -20.82840000 454.94000000 -0.57111800 -0.36637399 0.73457098 1.905766e-42
42.84859800 -19.68770000 456.14801000 -0.58443302 -0.37998000 0.71697497 1.905766e-42
43.97470100 -19.16710100 457.45200000 -0.60218000 -0.38124201 0.70145100 1.905766e-42
44.61899900 -18.01890000 458.67999000 -0.61982298 -0.38137200 0.68583900 1.905766e-42
45.74210000 -17.57130100 460.01300000 -0.64592201 -0.38372099 0.65995699 1.905766e-42
46.87210100 -17.11100000 461.33701000 -0.66565001 -0.39293399 0.63443899 1.905766e-42
47.73370000 -16.37430000 462.73499000 -0.67822701 -0.40511599 0.61309701 1.905766e-42
48.52069900 -15.59070000 464.15100000 -0.69116700 -0.41632700 0.59072900 1.905766e-42
49.24580000 -14.81980000 465.60699000 -0.70094800 -0.42478499 0.57291299 1.905766e-42
50.27880100 -14.55860000 467.05801000 -0.70557803 -0.43554300 0.55898303 1.905766e-42
51.17020000 -13.82030000 468.43701000 -0.71423900 -0.43983400 0.54443401 1.905766e-42
51.92340100 -12.95720000 469.82501000 -0.72551298 -0.44066599 0.52862400 1.905766e-42
51.92350000 -11.77740000 471.18500000 -0.73873502 -0.43455699 0.51520002 1.905766e-42
52.38880200 -10.82360000 472.63800000 -0.75635397 -0.46101201 0.46410799 1.905766e-42
52.87860100 -10.41350000 474.32101000 -0.77246600 -0.48223099 0.41321900 1.905766e-42
53.55640000 -10.25480000 475.98099000 -0.78648901 -0.49687600 0.36680901 1.905766e-42
53.98799900 -9.88325020 477.68900000 -0.79643798 -0.50919700 0.32619700 1.905766e-42
54.63560100 -9.64081000 479.35101000 -0.80318701 -0.51690400 0.29614401 1.905766e-42
54.88670000 -9.05686000 481.03500000 -0.80319297 -0.52714401 0.27748999 1.905766e-42
54.97480000 -8.48050980 482.73801000 -0.80106300 -0.53500199 0.26845899 1.905766e-42
55.05289800 -7.64272020 484.32901000 -0.79708099 -0.54562300 0.25876200 1.905766e-42
54.33490000 -6.45772980 485.47800000 -0.78982300 -0.56072003 0.24854000 1.905766e-42
53.61340000 -4.99648000 486.24200000 -0.78271103 -0.57486498 0.23852301 1.905766e-42
52.82980000 -3.52469990 486.92001000 -0.77679801 -0.58680600 0.22856700 1.905766e-42
52.13959900 -1.99435000 487.57001000 -0.77298099 -0.59374201 0.22353999 1.905766e-42
50.88859900 -0.73516399 487.86899000 -0.76929301 -0.59934598 0.22129700 1.905766e-42
49.94810100 0.62019402 488.58899000 -0.76506698 -0.60682601 0.21548900 1.905766e-42
48.82149900 2.01420000 488.75400000 -0.76004201 -0.61539698 0.20886000 1.905766e-42
47.96789900 3.39390990 489.53400000 -0.75263101 -0.62816799 0.19736101 1.905766e-42
46.93009900 4.69344000 490.22299000 -0.74241602 -0.64449900 0.18286499 1.905766e-42
45.89250200 6.00530000 490.88800000 -0.72821403 -0.66531700 0.16448900 1.905766e-42
44.97539900 7.30602980 491.72900000 -0.70976102 -0.68967301 0.14349400 1.905766e-42
44.02410100 8.51262000 492.66599000 -0.68798399 -0.71555197 0.12109300 1.905766e-42
42.91519900 9.60231970 493.57300000 -0.65382999 -0.74956900 0.10321100 1.905766e-42
41.66610000 10.65760000 494.32599000 -0.61648500 -0.78269798 0.08561520 1.905766e-42
40.25220100 11.77050000 494.37299000 -0.57958299 -0.81154603 0.07400470 1.905766e-42
39.02100000 12.97190000 494.90302000 -0.54358900 -0.83756298 0.05477060 1.905766e-42
37.55379900 13.75320000 495.59299000 -0.51014400 -0.85901397 0.04298560 1.905766e-42
36.27190000 14.55400000 496.57101000 -0.48320800 -0.87365597 0.05687580 1.905766e-42
34.77080200 15.33250000 497.18799000 -0.45172501 -0.89020801 0.05894390 1.905766e-42
33.73009900 16.34730000 498.24899000 -0.41785899 -0.90632099 0.06305800 1.905766e-42
31.96380000 16.67560000 498.36200000 -0.36669999 -0.92864603 0.05611220 1.905766e-42
30.39100100 17.16610000 499.08701000 -0.31758100 -0.94678903 0.05227570 1.905766e-42
28.88640000 17.70620000 499.91400000 -0.27309299 -0.96082002 0.04737790 1.905766e-42
27.91449900 17.92890000 501.41299000 -0.24412900 -0.96874797 0.04391250 1.905766e-42
26.38979900 18.34499900 502.27399000 -0.21060400 -0.97688699 0.03657460 1.905766e-42
24.67860000 18.89550000 502.36899000 -0.18239699 -0.98267800 0.03277890 1.905766e-42
22.99810000 19.02059900 501.73599000 -0.12988099 -0.99074203 0.03951870 1.905766e-42
21.24309900 19.40730100 501.63501000 -0.06188510 -0.99732399 0.03891930 1.905766e-42
19.44360000 19.44330000 501.60699000 0.00495350 -0.99952698 0.03035260 1.905766e-42
17.79380000 19.22460000 500.92099000 0.05702830 -0.99813700 0.02170350 1.905766e-42
15.99790000 19.17560000 500.81000000 0.11316900 -0.99357402 0.00172218 1.905766e-42
14.33640000 18.95840100 500.15302000 0.15191400 -0.98826802 -0.01575150 1.905766e-42
12.55770000 18.74320000 499.98001000 0.16068301 -0.98619097 -0.04009450 1.905766e-42
10.80690000 18.41309900 499.72400000 0.16883600 -0.98426503 -0.05212770 1.905766e-42
9.11184020 17.97390000 499.30600000 0.17963800 -0.98238498 -0.05148650 1.905766e-42
7.36778020 17.53809900 499.21500000 0.19387600 -0.97996497 -0.04561680 1.905766e-42
5.61395980 17.13400100 499.18600000 0.20928299 -0.97737300 -0.03070770 1.905766e-42
3.85219000 16.76560000 499.16699000 0.22413801 -0.97453600 -0.00647571 1.905766e-42
2.08679010 16.41490000 499.18701000 0.18968600 -0.98172098 0.01559370 1.905766e-42
0.29873401 16.20970000 499.15900000 0.15431400 -0.98721302 0.03996040 1.905766e-42
-1.28728000 16.47710000 499.96701000 0.10910900 -0.99204397 0.06279600 1.905766e-42
-3.01149010 15.96100000 499.99399000 0.06970730 -0.99320799 0.09315850 1.905766e-42
-4.71033000 15.97070000 500.58899000 0.01876740 -0.99204099 0.12451200 1.905766e-42
-6.25038000 16.26350000 501.47400000 -0.03817370 -0.98746997 0.15311800 1.905766e-42
-8.01463030 15.94200000 501.62900000 -0.05382940 -0.97956401 0.19379599 1.905766e-42
-9.50817010 16.44780000 500.76099000 -0.03604700 -0.97171700 0.23338100 1.905766e-42
-10.30890000 16.04250000 499.20001000 -0.00073118 -0.96568298 0.25972301 1.905766e-42
-11.20770000 15.55140000 497.72000000 0.03092270 -0.95681101 0.28906301 1.905766e-42
-12.25400000 15.00650000 496.36099000 0.05778560 -0.94430900 0.32394701 1.905766e-42
-13.41530000 14.44040000 495.10699000 0.08063370 -0.92719901 0.36578801 1.905766e-42
-14.49330000 13.64520000 493.90500000 0.10653700 -0.90363699 0.41483799 1.905766e-42
-15.99530000 13.08290000 493.08801000 0.14641900 -0.86606503 0.47800899 1.905766e-42
-17.68810100 12.76610000 492.56400000 0.20919900 -0.82047898 0.53202498 1.905766e-42
-18.66239900 11.58770000 491.61499000 0.26680499 -0.80723602 0.52648401 1.905766e-42
-20.30999900 10.94430000 491.28101000 0.29976699 -0.78825301 0.53739798 1.905766e-42
-21.61340000 9.86962990 490.65900000 0.33151701 -0.78496701 0.52337700 1.905766e-42
-21.47480000 8.70763970 489.29199000 0.36090800 -0.80633801 0.46857801 1.905766e-42
-21.18870000 7.92791990 487.69501000 0.38740101 -0.82359803 0.41425499 1.905766e-42
-21.25919900 7.28199010 486.01599000 0.41492000 -0.83215398 0.36791500 1.905766e-42
-21.46940000 6.48957010 484.41400000 0.44279099 -0.83119297 0.33623701 1.905766e-42
-21.23270000 6.38926980 482.63199000 0.46279499 -0.83337098 0.30218199 1.905766e-42
-20.86809900 5.71994020 481.00101000 0.47973201 -0.83455402 0.27088001 1.905766e-42
-20.74630000 5.15732000 479.29599000 0.49374300 -0.83531499 0.24179800 1.905766e-42
-20.76650000 4.64564990 477.57001000 0.50516403 -0.83603901 0.21412200 1.905766e-42
-20.68720100 4.26893000 475.81201000 0.51628298 -0.83039498 0.20951401 1.905766e-42
-20.50939900 3.77335000 474.09100000 0.52897799 -0.81153500 0.24818000 1.905766e-42
-21.02910000 3.12747000 472.49301000 0.54303598 -0.78903103 0.28730199 1.905766e-42
-21.17270100 2.33295990 470.88400000 0.55050600 -0.76937002 0.32405600 1.905766e-42
-22.13430000 1.24093000 469.82501000 0.56295401 -0.74940902 0.34852400 1.905766e-42
-23.05110000 0.08851010 468.78900000 0.57184702 -0.73359603 0.36719000 1.905766e-42
-22.75300000 -0.62914300 467.16599000 0.56342399 -0.72019798 0.40480700 1.905766e-42
-22.93950100 -1.52538000 465.61600000 0.55979598 -0.69963998 0.44399700 1.905766e-42
-22.52220000 -2.51384000 464.17099000 0.55137497 -0.67826200 0.48574299 1.905766e-42
-22.37760000 -3.51515010 462.68201000 0.54465199 -0.65253103 0.52683699 1.905766e-42
-22.39889900 -4.66660980 461.29901000 0.54007697 -0.62326097 0.56556398 1.905766e-42
-22.80010000 -6.12305020 460.32001000 0.54247701 -0.59363300 0.59440601 1.905766e-42
-22.72629900 -7.37335010 459.02701000 0.53616899 -0.56623203 0.62602198 1.905766e-42
-22.88120100 -8.76323990 457.89401000 0.53195000 -0.53711802 0.65462500 1.905766e-42
-22.39130000 -9.98575970 456.66699000 0.51840502 -0.50901699 0.68713701 1.905766e-42
-22.03440100 -11.18620000 455.37399000 0.50500703 -0.47936800 0.71775699 1.905766e-42
-20.89310100 -12.01070000 454.25299000 0.48407599 -0.45697901 0.74621803 1.905766e-42
-20.62410000 -13.43790000 453.18900000 0.47024801 -0.42458099 0.77369100 1.905766e-42
-20.10440100 -14.81020000 452.14700000 0.44810000 -0.38856700 0.80512202 1.905766e-42
-20.01300000 -16.37820100 451.26801000 0.42726201 -0.34987801 0.83368599 1.905766e-42
-20.26350000 -17.99539900 450.51801000 0.40691999 -0.31357601 0.85795498 1.905766e-42
