# .PCD v0.7 - Point Cloud Data file format
# 4 53 0
# 1 11 1
# 12 28 0
# 29 37 1
# 38 53 0
VERSION 0.7
FIELDS x y z normal_x normal_y normal_z curvature
SIZE 4 4 4 4 4 4 4
TYPE F F F F F F F
COUNT 1 1 1 1 1 1 1
WIDTH 53
HEIGHT 1
VIEWPOINT 0 0 0 1 0 0 0
POINTS 53
DATA ascii
-4.0108399 11.1204 446.62 0.298581 0.42236 -0.85583901 1.9057659e-42
-4.4080801 12.52 447.10001 0.23989201 0.42598301 -0.87234801 1.9057659e-42
-5.3473401 13.8907 447.79199 0.20306 0.62734097 -0.75180399 1.9057659e-42
-5.2313299 15.2537 448.96201 0.156084 0.82643902 -0.540959 1.9057659e-42
-5.8772602 16.0233 450.45499 0.124565 0.873492 -0.470633 1.9057659e-42
-6.39148 16.847401 451.97101 0.123447 0.82985598 -0.54414999 1.9057659e-42
-5.9539199 17.952 453.323 0.109405 0.777246 -0.61961198 1.9057659e-42
-5.76544 18.7146 454.94299 0.109022 0.86531597 -0.48922601 1.9057659e-42
-5.6409502 19.592699 456.509 0.115908 0.93426901 -0.337203 1.9057659e-42
-6.00455 20.003201 458.22299 0.081044301 0.98671198 -0.14082401 1.9057659e-42
-5.9446702 20.063299 460.021 0.0228009 0.97769499 0.20878699 1.9057659e-42
-5.7939401 19.4517 461.70801 0.0164761 0.92666501 0.37552601 1.9057659e-42
-4.0151601 19.3727 461.97198 0.069550604 0.911663 0.40501001 1.9057659e-42
-2.4814999 18.845501 462.75299 0.0425862 0.87688202 0.478816 1.9057659e-42
-0.83716601 18.4361 463.35999 0.00446044 0.85904402 0.51188201 1.9057659e-42
0.95374501 18.603701 463.29199 -0.0113155 0.87901902 0.476652 1.9057659e-42
2.7030101 18.4046 463.66699 -0.031577799 0.87977099 0.47434801 1.9057659e-42
4.5008998 18.3983 463.754 -0.0272955 0.89059401 0.45397899 1.9057659e-42
6.2842202 18.3757 463.99701 -0.023267699 0.88825601 0.45875901 1.9057659e-42
8.0810499 18.3368 464.09698 -0.027732201 0.88500798 0.46474999 1.9057659e-42
9.6719599 17.8794 464.80399 -0.0368586 0.84275699 0.53703099 1.9057659e-42
11.4644 18.0406 464.83899 -0.051348101 0.83629 0.54587698 1.9057659e-42
13.2583 18.091999 464.97699 -0.064597301 0.82492501 0.56153798 1.9057659e-42
14.8939 17.663401 465.59399 -0.078622602 0.78938699 0.60883999 1.9057659e-42
16.6807 17.8806 465.58301 -0.089864798 0.805507 0.585733 1.9057659e-42
18.462601 18.1315 465.539 -0.103778 0.82816201 0.55079699 1.9057659e-42
20.1772 18.540899 465.17499 -0.095141903 0.86592102 0.49104899 1.9057659e-42
21.947599 18.7707 464.94501 -0.089961097 0.91336602 0.39707601 1.9057659e-42
22.969801 19.292 463.55801 0.094130099 0.99492902 -0.035430498 1.9057659e-42
23.1957 18.9767 461.79999 0.29284999 0.89781898 -0.32887599 1.9057659e-42
23.227501 18.297701 460.134 0.349558 0.89704901 -0.27039301 1.9057659e-42
23.138201 17.9063 458.379 0.25836301 0.918293 -0.29997799 1.9057659e-42
24.021999 16.9443 457.14099 0.23033801 0.9127 -0.33752599 1.9057659e-42
24.5254 16.094 455.63599 0.19146501 0.82915801 -0.52520299 1.9057659e-42
24.6336 14.9737 454.23199 0.156886 0.80290401 -0.57509297 1.9057659e-42
24.5944 14.0306 452.69901 0.13857099 0.75598502 -0.639754 1.9057659e-42
24.2344 12.7622 451.47299 0.130233 0.55829799 -0.81935501 1.9057659e-42
24.2332 11.195 450.58801 0.072559297 0.43963701 -0.89524001 1.9057659e-42
22.443001 11.1887 450.401 0.093631402 0.35907501 -0.92860001 1.9057659e-42
20.650499 11.1666 450.23901 0.050453 0.35757199 -0.932522 1.9057659e-42
18.855 11.1653 450.11099 0.0470456 0.355441 -0.933514 1.9057659e-42
17.0718 10.989 449.94 0.0512086 0.32855499 -0.94309598 1.9057659e-42
15.3984 10.3698 449.703 0.069672599 0.26868701 -0.96070403 1.9057659e-42
13.6114 10.5445 449.57501 0.087479599 0.286419 -0.95410299 1.9057659e-42
11.832 10.395 449.349 0.104562 0.28065601 -0.95409602 1.9057659e-42
10.0435 10.3608 449.14801 0.120531 0.285043 -0.95090598 1.9057659e-42
8.2604103 10.3715 448.90201 0.132805 0.29051301 -0.94761002 1.9057659e-42
6.4804301 10.3747 448.63501 0.143704 0.28922799 -0.94641203 1.9057659e-42
4.6993999 10.383 448.37399 0.15631001 0.283342 -0.94619501 1.9057659e-42
2.92784 10.3831 448.05499 0.17472 0.28090701 -0.94369698 1.9057659e-42
1.15584 10.3817 447.73901 0.19901501 0.29317299 -0.93511599 1.9057659e-42
-0.59423298 10.5841 447.37 0.231333 0.31748801 -0.91961199 1.9057659e-42
-2.27931 11.1611 447.10999 0.25475499 0.34784299 -0.90227801 1.9057659e-42
