# .PCD v0.7 - Point Cloud Data file format
# 3 75 0
# 1 21 1
# 22 46 1
# 47 75 0
VERSION 0.7
FIELDS x y z normal_x normal_y normal_z curvature
SIZE 4 4 4 4 4 4 4
TYPE F F F F F F F
COUNT 1 1 1 1 1 1 1
WIDTH 75
HEIGHT 1
VIEWPOINT 0 0 0 1 0 0 0
POINTS 75
DATA ascii
1.30497 0.402969 439.17801 -0.227557 0.59634399 -0.76980001 1.9057659e-42
1.65711 -0.0041080201 438.784 -0.227541 0.60694098 -0.76147801 1.9057659e-42
0.52509701 0.83664 439.90302 -0.236415 0.61162102 -0.75500202 1.9057659e-42
0.102046 2.12414 441.08701 -0.247812 0.64693898 -0.72115099 1.9057659e-42
-0.41664901 3.2840099 442.362 -0.245928 0.68042701 -0.69031698 1.9057659e-42
-0.0274285 4.6191702 443.505 -0.248952 0.71446502 -0.65388203 1.9057659e-42
-0.470231 5.5297399 444.99301 -0.244443 0.74502802 -0.62062901 1.9057659e-42
-0.44612801 6.76161 446.306 -0.24305201 0.77331698 -0.58558202 1.9057659e-42
-0.55186498 7.8185902 447.759 -0.23929299 0.80158001 -0.54791301 1.9057659e-42
-0.41970301 8.8295202 449.242 -0.240133 0.82795 -0.50678903 1.9057659e-42
-0.027098499 9.9291697 450.612 -0.199818 0.818636 -0.53842998 1.9057659e-42
0.036684699 10.7839 452.19501 -0.13514 0.79563397 -0.59051102 1.9057659e-42
-0.558424 11.6378 453.66299 -0.065476403 0.786838 -0.61367702 1.9057659e-42
-0.937599 13.1425 454.57599 -0.0074126399 0.79693502 -0.60401899 1.9057659e-42
-0.242024 14.0862 455.94199 0.0064960001 0.84991401 -0.52688098 1.9057659e-42
0.67074102 14.3472 457.47101 -0.046917401 0.89721203 -0.4391 1.9057659e-42
0.76750702 15.0774 459.11301 -0.13967 0.91505402 -0.37837499 1.9057659e-42
0.93104303 15.7531 460.77399 -0.205061 0.879035 -0.43040401 1.9057659e-42
1.39958 16.7223 462.216 -0.217096 0.79617202 -0.56478202 1.9057659e-42
2.3248 17.934601 463.172 -0.286659 0.72943598 -0.62108701 1.9057659e-42
2.7557499 19.1814 464.397 -0.259002 0.75266999 -0.60531402 1.9057659e-42
3.81322 20.159599 465.47601 -0.238216 0.79131001 -0.56309903 1.9057659e-42
5.4889202 20.274799 464.82901 -0.225467 0.797405 -0.55974197 1.9057659e-42
7.1015701 20.238001 464.03 -0.20099001 0.79353303 -0.57437599 1.9057659e-42
8.8056297 20.212299 463.45099 -0.16249999 0.79644799 -0.58246398 1.9057659e-42
10.5902 20.3332 463.25 -0.095780604 0.81911701 -0.56557399 1.9057659e-42
12.3865 20.4394 463.203 -0.0281683 0.84033102 -0.54134202 1.9057659e-42
14.1851 20.51 463.198 0.029143101 0.85351998 -0.52024502 1.9057659e-42
15.8172 20.688 463.936 0.0588957 0.89072102 -0.45071799 1.9057659e-42
17.463499 20.8001 464.655 0.049213801 0.91908902 -0.39096501 1.9057659e-42
19.255301 20.935101 464.76099 0.016195299 0.941598 -0.33634999 1.9057659e-42
20.931101 21.1103 465.39401 -0.0020325801 0.96744299 -0.25308201 1.9057659e-42
22.552999 21.2605 466.16 0.0332301 0.97104001 -0.236596 1.9057659e-42
24.1401 21.4482 466.98801 0.058056202 0.96310699 -0.26278299 1.9057659e-42
25.307501 21.581499 468.35199 0.0274025 0.97594798 -0.216276 1.9057659e-42
26.7885 21.8274 469.345 0.067120001 0.96579897 -0.25045499 1.9057659e-42
28.064699 22.063999 470.59201 0.107094 0.96273202 -0.24835099 1.9057659e-42
29.3745 22.326599 471.79901 0.16791999 0.946585 -0.275282 1.9057659e-42
30.172899 22.623199 473.384 0.22106899 0.90565997 -0.36181301 1.9057659e-42
31.882799 22.4188 473.90799 0.31520501 0.87455398 -0.368512 1.9057659e-42
33.008999 21.396999 472.94501 0.388457 0.84887999 -0.358475 1.9057659e-42
34.137299 20.316 472.052 0.37336999 0.85346198 -0.36359 1.9057659e-42
35.2701 19.8333 470.73901 0.28959799 0.91197401 -0.29057899 1.9057659e-42
36.618599 18.882 470.01999 0.27473301 0.92709702 -0.25497699 1.9057659e-42
37.504601 18.4265 468.521 0.29336599 0.91286999 -0.28390899 1.9057659e-42
38.485901 17.660601 467.22101 0.29321101 0.906111 -0.30494401 1.9057659e-42
39.2817 16.909 465.79199 0.26082501 0.910873 -0.319812 1.9057659e-42
39.1427 16.3025 464.103 0.23989201 0.90999103 -0.338184 1.9057659e-42
37.859001 16.231701 462.84299 0.239815 0.90210903 -0.35872999 1.9057659e-42
36.124802 16.473499 462.42499 0.25680101 0.88225001 -0.39457399 1.9057659e-42
34.927898 16.1891 461.11099 0.228753 0.87806702 -0.420322 1.9057659e-42
33.459702 16.0425 460.08099 0.232041 0.86539501 -0.44412699 1.9057659e-42
31.859301 15.9457 459.26199 0.236881 0.85206801 -0.46676299 1.9057659e-42
30.790199 15.4981 457.88501 0.217876 0.85793197 -0.465278 1.9057659e-42
29.3811 15.2916 456.784 0.199186 0.85491598 -0.47900301 1.9057659e-42
27.8025 15.2253 455.922 0.17353199 0.85055 -0.49643901 1.9057659e-42
26.756201 14.6079 454.59399 0.14574499 0.85055798 -0.50528097 1.9057659e-42
25.180901 14.4378 453.73999 0.117249 0.846775 -0.51886898 1.9057659e-42
24.128799 13.6307 452.522 0.100049 0.846026 -0.52367002 1.9057659e-42
22.4342 13.5895 451.91699 0.077278502 0.84634203 -0.52700502 1.9057659e-42
21.147499 12.9695 450.82101 0.063906997 0.84081697 -0.537534 1.9057659e-42
19.867399 12.2263 449.797 0.050158601 0.83102202 -0.55397397 1.9057659e-42
18.521 11.6395 448.75699 0.029877599 0.81961602 -0.572133 1.9057659e-42
16.9363 11.2415 448.00101 -9.31053e-05 0.81486499 -0.579651 1.9057659e-42
15.7333 10.4248 446.94 -0.0158263 0.79891402 -0.601237 1.9057659e-42
14.3991 9.6454802 446.017 -0.035059098 0.785375 -0.61802602 1.9057659e-42
13.1173 8.8253403 445.056 -0.050822798 0.76818401 -0.63820899 1.9057659e-42
11.6861 8.0693703 444.26801 -0.070278399 0.753066 -0.654181 1.9057659e-42
10.2171 7.3257499 443.54099 -0.087843701 0.73726702 -0.66986603 1.9057659e-42
8.8920898 6.4077902 442.73999 -0.0996674 0.71837699 -0.68847698 1.9057659e-42
8.1848297 5.0929399 441.73401 -0.104796 0.69247001 -0.71379501 1.9057659e-42
6.9753799 4.0792398 440.86801 -0.122647 0.67236602 -0.72998703 1.9057659e-42
5.6634102 3.0896699 440.134 -0.16261899 0.64236599 -0.74894601 1.9057659e-42
4.5924902 1.84533 439.396 -0.189291 0.61954701 -0.76179397 1.9057659e-42
2.93749 1.1601 439.21899 -0.21331599 0.60778302 -0.764916 1.9057659e-42
