# .PCD v0.7 - Point Cloud Data file format
# 4 161 1
# 1 60 1
# 61 90 0
# 91 144 0
# 145 161 0
VERSION 0.7
FIELDS x y z normal_x normal_y normal_z curvature
SIZE 4 4 4 4 4 4 4
TYPE F F F F F F F
COUNT 1 1 1 1 1 1 1
WIDTH 161
HEIGHT 1
VIEWPOINT 0 0 0 1 0 0 0
POINTS 161
DATA ascii
43.70460100 16.62490100 446.02499000 -0.25117499 0.19801401 0.94747102 1.905766e-42
44.07930000 18.35680000 445.70801000 -0.24822800 0.21284001 0.94502997 1.905766e-42
43.87990200 20.09440000 445.28299000 -0.24551100 0.22716600 0.94240099 1.905766e-42
43.89920000 21.83160000 444.81201000 -0.24108200 0.24206901 0.93983102 1.905766e-42
43.67869900 23.56780100 444.39099000 -0.23720101 0.25623199 0.93706000 1.905766e-42
43.52280000 25.27479900 443.84201000 -0.23273601 0.27058500 0.93414003 1.905766e-42
43.63130200 26.96130000 443.22198000 -0.22533600 0.28622100 0.93128997 1.905766e-42
43.15150100 28.62929900 442.74500000 -0.22405100 0.29928800 0.92748499 1.905766e-42
43.06100100 30.32449900 442.14600000 -0.22863200 0.31010199 0.92280197 1.905766e-42
43.03480100 32.00280000 441.49600000 -0.23747000 0.32273200 0.91621602 1.905766e-42
42.94900100 33.65459800 440.78601000 -0.24555300 0.33798799 0.90855300 1.905766e-42
42.31420100 35.24079900 440.22000000 -0.25101700 0.35398600 0.90093499 1.905766e-42
42.37480200 36.87120100 439.45901000 -0.25638199 0.36825499 0.89367598 1.905766e-42
42.49140200 38.45230100 438.60699000 -0.26025999 0.38224599 0.88665301 1.905766e-42
41.83120000 40.03179900 438.05099000 -0.26334199 0.39576399 0.87978500 1.905766e-42
41.32420000 41.56790200 437.26099000 -0.26632100 0.40849599 0.87304300 1.905766e-42
41.50550100 43.15530000 436.43201000 -0.26779601 0.42232600 0.86598301 1.905766e-42
41.33589900 44.73709900 435.59000000 -0.26950201 0.43822399 0.85751301 1.905766e-42
40.82020200 46.22769900 434.72299000 -0.27159500 0.45345700 0.84888899 1.905766e-42
40.97330100 47.73730100 433.75400000 -0.27069199 0.46942201 0.84045798 1.905766e-42
40.84260200 49.25619900 432.79800000 -0.27050000 0.48469800 0.83180398 1.905766e-42
40.27109900 50.72309900 431.92499000 -0.27239400 0.49793801 0.82332200 1.905766e-42
40.32210200 52.16000000 430.84201000 -0.27204701 0.51124901 0.81523901 1.905766e-42
40.07770200 53.61840100 429.81601000 -0.27412000 0.52473301 0.80592400 1.905766e-42
39.60960000 55.04079800 428.81699000 -0.27717301 0.53911799 0.79531598 1.905766e-42
39.18909800 56.43249900 427.75500000 -0.27923301 0.55361497 0.78456300 1.905766e-42
38.94800200 57.83150100 426.64899000 -0.27936900 0.56872100 0.77363402 1.905766e-42
38.35720100 59.15549900 425.58200000 -0.28058699 0.58243501 0.76291603 1.905766e-42
38.40549900 60.47860000 424.36301000 -0.27662900 0.59864902 0.75172901 1.905766e-42
38.04090100 61.81290100 423.21100000 -0.27398300 0.61354703 0.74060303 1.905766e-42
37.71460000 63.09380000 421.98901000 -0.27005500 0.62823200 0.72965300 1.905766e-42
37.26730000 64.37079600 420.80200000 -0.26712000 0.64151001 0.71910501 1.905766e-42
36.77899900 65.55460400 419.53699000 -0.26558200 0.65377003 0.70855600 1.905766e-42
36.44500000 66.73819700 418.22198000 -0.26261500 0.66667598 0.69755101 1.905766e-42
36.41120100 67.89939900 416.84799000 -0.25585499 0.68098497 0.68614697 1.905766e-42
36.13560100 69.07779700 415.51501000 -0.25289500 0.69328398 0.67483503 1.905766e-42
35.21500000 70.22209900 414.47400000 -0.26086301 0.70001101 0.66478199 1.905766e-42
35.14479800 71.30149800 413.03601000 -0.25670299 0.71225500 0.65329599 1.905766e-42
34.99869900 72.38580300 411.60599000 -0.25507301 0.72245002 0.64265400 1.905766e-42
34.56869900 73.46730000 410.23300000 -0.26014701 0.73072702 0.63115901 1.905766e-42
34.25770200 74.53440100 408.81699000 -0.26529399 0.73934901 0.61885500 1.905766e-42
33.62749900 75.57039600 407.48700000 -0.27650699 0.74652100 0.60518599 1.905766e-42
33.40710100 76.52919800 405.98001000 -0.28311700 0.75513297 0.59128499 1.905766e-42
32.77069900 77.49810000 404.60300000 -0.29523399 0.76239598 0.57583702 1.905766e-42
32.17599900 78.43669900 403.18701000 -0.30612600 0.76956201 0.56041098 1.905766e-42
32.01129900 79.35479700 401.64700000 -0.31169900 0.77619100 0.54806101 1.905766e-42
31.36109900 80.25180100 400.22800000 -0.32141799 0.78216898 0.53376198 1.905766e-42
31.29480000 80.39430200 399.97900000 -0.32260400 0.78331298 0.53136301 1.905766e-42
30.74399900 81.17690300 398.45401000 -0.33056301 0.79023802 0.51599598 1.905766e-42
30.51450000 82.00160200 396.87100000 -0.33516401 0.79860401 0.49989700 1.905766e-42
29.98340000 82.76680000 395.33099000 -0.34012300 0.80699301 0.48278201 1.905766e-42
29.67410100 83.51650200 393.72400000 -0.34212700 0.81665200 0.46478900 1.905766e-42
29.27330000 84.24700200 392.12799000 -0.34227100 0.82695800 0.44608399 1.905766e-42
28.72220000 84.93769800 390.56000000 -0.34133700 0.83615100 0.42934901 1.905766e-42
27.94479900 85.46009800 389.02301000 -0.33944401 0.84376401 0.41574001 1.905766e-42
27.82090000 86.14620200 387.36401000 -0.33609200 0.85223001 0.40093100 1.905766e-42
27.22090000 86.68940000 385.75601000 -0.33215901 0.85922098 0.38911399 1.905766e-42
27.30390000 87.22329700 384.03900000 -0.32873800 0.86624700 0.37622899 1.905766e-42
26.44430000 87.74310300 382.54501000 -0.32416999 0.87182099 0.36720800 1.905766e-42
25.87400100 88.26400000 380.91901000 -0.32393500 0.87644398 0.35624799 1.905766e-42
24.59919900 88.07299800 379.66299000 -0.35238501 0.87004000 0.34475300 1.905766e-42
22.91830100 87.55169700 379.28500000 -0.38169399 0.85905600 0.34107500 1.905766e-42
21.23189900 86.92720000 379.20801000 -0.40649700 0.84688199 0.34285799 1.905766e-42
19.60780000 86.15119900 379.19800000 -0.42804101 0.83380097 0.34865201 1.905766e-42
18.04299900 85.26310000 379.14600000 -0.47617999 0.80803901 0.34688100 1.905766e-42
16.55209900 84.25460100 379.15701000 -0.52479601 0.77844399 0.34440401 1.905766e-42
15.12120000 83.29509700 378.63501000 -0.57090503 0.74823099 0.33796301 1.905766e-42
13.63180000 82.31140100 378.40302000 -0.61520898 0.71453202 0.33311099 1.905766e-42
12.15110000 81.28830000 378.38101000 -0.64594603 0.68649501 0.33388501 1.905766e-42
10.88680000 80.00840000 378.32199000 -0.65404898 0.67486501 0.34172699 1.905766e-42
9.62670990 78.72460200 378.38501000 -0.65999001 0.66637802 0.34692201 1.905766e-42
8.32876010 77.55930300 377.94000000 -0.66391200 0.66273600 0.34641299 1.905766e-42
7.04442980 76.33290100 377.64600000 -0.66634399 0.66165501 0.34379801 1.905766e-42
5.84144020 75.18630200 376.95499000 -0.67081600 0.66117102 0.33594400 1.905766e-42
4.42722990 74.07849900 376.84201000 -0.67644399 0.65682203 0.33318099 1.905766e-42
3.09427000 72.86949900 376.80301000 -0.68390399 0.64905602 0.33317000 1.905766e-42
1.86076000 71.84210200 375.98801000 -0.69206202 0.64112097 0.33168301 1.905766e-42
0.65704501 70.50379900 375.98700000 -0.70282298 0.62714398 0.33575401 1.905766e-42
-0.56489700 69.48950200 375.14001000 -0.72498101 0.60360599 0.33175701 1.905766e-42
-1.82658000 68.34249900 374.56299000 -0.74868500 0.57554197 0.32897201 1.905766e-42
-2.96407010 66.95430000 374.42499000 -0.77320600 0.54315001 0.32732299 1.905766e-42
-4.08261010 65.74749800 373.69501000 -0.79574198 0.51164800 0.32405400 1.905766e-42
-5.00579020 64.56690200 372.69800000 -0.81715602 0.47983101 0.31940201 1.905766e-42
-6.03094010 63.24689900 372.03000000 -0.84114099 0.44144699 0.31242001 1.905766e-42
-6.92368980 61.68429900 371.99500000 -0.86466902 0.39954901 0.30447900 1.905766e-42
-7.79545020 60.24580000 371.35501000 -0.88767999 0.35658199 0.29133099 1.905766e-42
-8.55364990 58.81390000 370.57001000 -0.90622801 0.31865701 0.27786300 1.905766e-42
-9.13570980 57.28150200 369.82700000 -0.91544002 0.29775301 0.27076399 1.905766e-42
-9.89048960 55.80229900 369.13199000 -0.92250502 0.28365201 0.26177499 1.905766e-42
-10.70280000 54.22259900 368.84100000 -0.92743403 0.27541599 0.25300699 1.905766e-42
-11.04280000 52.54840100 368.27399000 -0.93182403 0.27272400 0.23942600 1.905766e-42
-11.45210000 51.03010200 369.14999000 -0.92780697 0.28234601 0.24383400 1.905766e-42
-11.70990000 49.60699800 370.22198000 -0.91960800 0.30026600 0.25330001 1.905766e-42
-11.40450000 48.82680100 371.81500000 -0.90912497 0.30874199 0.27958900 1.905766e-42
-10.93890000 48.52170200 373.52701000 -0.90266103 0.30782500 0.30074301 1.905766e-42
-10.51510000 47.77719900 375.10999000 -0.89677203 0.31037000 0.31538999 1.905766e-42
-9.93214040 47.14030100 376.68900000 -0.89269501 0.31031400 0.32680401 1.905766e-42
-9.56647970 47.11909900 378.45200000 -0.89178300 0.30425799 0.33488801 1.905766e-42
-9.16596030 46.59090000 380.12500000 -0.88960701 0.30220899 0.34244600 1.905766e-42
-8.88932040 45.54190100 381.56100000 -0.88511300 0.30622000 0.35043401 1.905766e-42
-8.53631020 44.74359900 383.13599000 -0.88190001 0.30551901 0.35904199 1.905766e-42
-8.15546990 43.94940200 384.70499000 -0.87909102 0.30328301 0.36772001 1.905766e-42
-7.93422990 42.91830100 386.16400000 -0.87503302 0.30409700 0.37661901 1.905766e-42
-7.61733010 42.14180000 387.75699000 -0.87265700 0.30144200 0.38419101 1.905766e-42
-7.35803990 41.15070000 389.23700000 -0.86912000 0.30127999 0.39225101 1.905766e-42
-7.07496980 39.77249900 390.35999000 -0.86366498 0.30542400 0.40099600 1.905766e-42
-6.83471010 38.99050100 391.96301000 -0.86109197 0.30314600 0.40819600 1.905766e-42
-6.45224000 38.07249800 393.46301000 -0.85770601 0.30006400 0.41749400 1.905766e-42
-6.16388990 36.93489800 394.82800000 -0.85257697 0.29417300 0.43194300 1.905766e-42
-5.64349990 36.07130100 396.31900000 -0.84913498 0.28522801 0.44453800 1.905766e-42
-5.71451000 34.57550000 397.31799000 -0.84264302 0.28307101 0.45806500 1.905766e-42
-5.49419020 33.23550000 398.49899000 -0.83746499 0.27733299 0.47089201 1.905766e-42
-5.12577010 32.01419800 399.76901000 -0.83316702 0.26977700 0.48275599 1.905766e-42
-4.96632000 30.46080000 400.66501000 -0.82741499 0.26522899 0.49501300 1.905766e-42
-4.59459020 29.23570100 401.92999000 -0.82337999 0.25695199 0.50598598 1.905766e-42
-4.22017000 27.99169900 403.17599000 -0.81972402 0.24914201 0.51573402 1.905766e-42
-4.09253980 26.43380000 404.06799000 -0.81392902 0.24430101 0.52710199 1.905766e-42
-3.81752990 25.05080000 405.18701000 -0.80933201 0.23644800 0.53765702 1.905766e-42
-3.50934000 23.65589900 406.28201000 -0.80470502 0.22780700 0.54822803 1.905766e-42
-2.91761990 22.55730100 407.57999000 -0.80279899 0.21523900 0.55604500 1.905766e-42
-2.56852010 21.14069900 408.63400000 -0.79823297 0.20492899 0.56641698 1.905766e-42
-2.20474000 19.77840000 409.75299000 -0.79417002 0.19308899 0.57620400 1.905766e-42
-1.65843000 18.49160000 410.88599000 -0.79304498 0.18354100 0.58085501 1.905766e-42
-1.16804000 17.12450000 411.95001000 -0.79126102 0.17633501 0.58550102 1.905766e-42
-0.62959599 15.71820000 412.93600000 -0.78890902 0.16948999 0.59067398 1.905766e-42
-0.22008500 14.08470000 413.57101000 -0.78334802 0.16608401 0.59898400 1.905766e-42
0.42765599 13.16930000 414.97900000 -0.78569001 0.15401600 0.59914100 1.905766e-42
1.08841000 11.94010000 416.11600000 -0.78529900 0.14399301 0.60213900 1.905766e-42
1.94365000 10.95560000 417.35699000 -0.78735697 0.13148300 0.60231298 1.905766e-42
2.74877000 9.96679970 418.62701000 -0.78851300 0.11957400 0.60328299 1.905766e-42
3.58203010 9.07697010 419.95200000 -0.78857499 0.10728600 0.60550702 1.905766e-42
4.63720990 8.95681000 421.40500000 -0.79259300 0.08878000 0.60325301 1.905766e-42
5.29722020 7.52578020 422.27499000 -0.78421199 0.08471780 0.61468202 1.905766e-42
6.16609000 6.89694020 423.72000000 -0.78042197 0.07023330 0.62129599 1.905766e-42
7.25933980 7.10665990 425.13501000 -0.77523702 0.05467670 0.62930000 1.905766e-42
8.35653970 6.45238020 426.40302000 -0.75302899 0.05878490 0.65535599 1.905766e-42
9.46677970 5.60894010 427.54199000 -0.73082203 0.05898870 0.68001401 1.905766e-42
10.68540000 5.59660010 428.86600000 -0.70065200 0.06484640 0.71055001 1.905766e-42
11.93380000 5.90782020 430.12500000 -0.66961700 0.07314540 0.73909599 1.905766e-42
13.06090000 4.73458000 430.89499000 -0.64964300 0.06941010 0.75706398 1.905766e-42
14.24040000 4.34886980 432.19901000 -0.62086397 0.07299460 0.78051198 1.905766e-42
15.53060000 3.45013000 433.07501000 -0.59678298 0.07356120 0.79902399 1.905766e-42
16.87120100 3.13336990 434.23401000 -0.57266098 0.07325120 0.81651300 1.905766e-42
18.28150000 2.76258990 435.28900000 -0.55169302 0.07062500 0.83105201 1.905766e-42
19.77980000 2.58453010 436.27100000 -0.53187299 0.06752810 0.84412700 1.905766e-42
21.24990100 2.83330990 437.27899000 -0.51427102 0.06438440 0.85520798 1.905766e-42
22.76250100 2.92608000 438.25000000 -0.49778301 0.06032350 0.86520100 1.905766e-42
24.33569900 3.39195990 438.99100000 -0.48857501 0.05340560 0.87088603 1.905766e-42
25.62590000 4.47881980 439.61801000 -0.49007499 0.04620820 0.87045503 1.905766e-42
26.98640100 5.49271010 440.21899000 -0.49222699 0.04067090 0.86951602 1.905766e-42
27.87669900 6.87129020 440.95901000 -0.49743700 0.04120590 0.86652100 1.905766e-42
29.32379900 7.81960010 441.45499000 -0.50102401 0.03969620 0.86452198 1.905766e-42
30.79100000 8.72649960 441.97000000 -0.47781900 0.05931690 0.87645298 1.905766e-42
31.85460100 10.09410000 442.45801000 -0.45499501 0.08293170 0.88662398 1.905766e-42
32.73640100 11.52470000 443.10300000 -0.43252701 0.10469700 0.89552200 1.905766e-42
34.32519900 11.96520000 443.82501000 -0.40128499 0.11600200 0.90857798 1.905766e-42
35.90729900 12.68480000 444.29300000 -0.37000200 0.12844400 0.92010897 1.905766e-42
37.42250100 13.49630000 444.82800000 -0.34213099 0.14054400 0.92908198 1.905766e-42
38.99079900 14.30680000 445.17899000 -0.31398499 0.15547600 0.93661100 1.905766e-42
40.64820100 14.90220000 445.55099000 -0.28499001 0.17093401 0.94316602 1.905766e-42
42.29219800 15.51100000 445.95999000 -0.25559700 0.18885800 0.94815803 1.905766e-42
