# .PCD v0.7 - Point Cloud Data file format
# 4 88 0
# 1 10 1
# 11 39 0
# 40 60 0
# 61 88 0
VERSION 0.7
FIELDS x y z normal_x normal_y normal_z curvature
SIZE 4 4 4 4 4 4 4
TYPE F F F F F F F
COUNT 1 1 1 1 1 1 1
WIDTH 88
HEIGHT 1
VIEWPOINT 0 0 0 1 0 0 0
POINTS 88
DATA ascii
-8.1204996 28.843599 502.50601 0.137566 0.92490101 -0.35444999 1.9057659e-42
-6.46913 28.735201 503.21399 0.146797 0.934811 -0.32338601 1.9057659e-42
-4.6988401 28.481899 503.418 0.160127 0.93746197 -0.30906799 1.9057659e-42
-3.0175099 28.203899 503.99799 0.175596 0.93882197 -0.296276 1.9057659e-42
-2.3139901 28.1931 503.98001 0.180802 0.93881798 -0.29314199 1.9057659e-42
-0.534702 27.922199 504.00699 0.19397099 0.93936098 -0.282801 1.9057659e-42
1.23792 27.6348 504.13 0.195582 0.94234699 -0.271532 1.9057659e-42
2.8635499 27.2022 504.771 0.192156 0.946419 -0.25955099 1.9057659e-42
4.6424198 26.9361 504.702 0.190842 0.94405901 -0.26894599 1.9057659e-42
6.3178701 26.626301 504.121 0.22429401 0.93187797 -0.28512499 1.9057659e-42
7.9994798 26.169001 504.57199 0.258513 0.92355698 -0.28321901 1.9057659e-42
9.5537205 25.6234 503.84601 0.27869299 0.91281903 -0.29848301 1.9057659e-42
8.9617596 25.270399 502.18301 0.27812901 0.903862 -0.32508001 1.9057659e-42
8.5782299 24.680799 500.526 0.266606 0.89058501 -0.36848399 1.9057659e-42
8.3080301 23.9914 498.88599 0.25381899 0.86722302 -0.42837 1.9057659e-42
8.0398998 23.3132 497.23999 0.25242901 0.86036301 -0.442781 1.9057659e-42
8.1974897 22.292299 495.76599 0.25723001 0.854213 -0.45183399 1.9057659e-42
8.1862402 21.544001 494.129 0.25704601 0.84943902 -0.46084699 1.9057659e-42
8.2944098 20.752899 492.51599 0.25660601 0.84199297 -0.47455299 1.9057659e-42
8.6102505 19.704599 491.08701 0.25873101 0.83193099 -0.49086601 1.9057659e-42
8.4714098 18.884701 489.491 0.25040099 0.82282901 -0.51014799 1.9057659e-42
9.1547403 17.809601 488.21899 0.253737 0.81374401 -0.52291399 1.9057659e-42
9.5892897 16.752399 486.828 0.25027901 0.80639499 -0.53580499 1.9057659e-42
10.0013 15.7053 485.42401 0.246714 0.798738 -0.54877102 1.9057659e-42
10.0517 14.6837 483.94199 0.23950499 0.79037702 -0.56386298 1.9057659e-42
10.8335 13.4734 482.86401 0.247215 0.78149498 -0.57284302 1.9057659e-42
11.1164 12.4774 481.39099 0.246154 0.77107298 -0.58724302 1.9057659e-42
11.33 11.3822 479.979 0.244591 0.76023901 -0.60184002 1.9057659e-42
12.0794 10.1793 478.86899 0.251488 0.74985898 -0.61193597 1.9057659e-42
12.4173 9.0093098 477.54401 0.25181401 0.75228 -0.60882199 1.9057659e-42
12.8293 7.8442798 476.23499 0.252882 0.75849301 -0.60061502 1.9057659e-42
13.2596 6.6610098 474.948 0.25320101 0.76483399 -0.59238303 1.9057659e-42
14.0076 5.4590902 473.83701 0.25583601 0.769319 -0.58540303 1.9057659e-42
14.5931 4.3211398 472.57101 0.26263401 0.74666297 -0.61116099 1.9057659e-42
15.2187 3.10939 471.396 0.27397501 0.72039801 -0.63715398 1.9057659e-42
15.7886 1.79005 470.31201 0.27572799 0.69544703 -0.663571 1.9057659e-42
15.8945 0.69921798 468.884 0.27823901 0.72599298 -0.62890202 1.9057659e-42
16.3619 -0.55340499 467.67899 0.30637199 0.77802098 -0.54847097 1.9057659e-42
17.580999 -1.63168 466.91 0.33171999 0.78835797 -0.518125 1.9057659e-42
17.746901 -2.50406 465.345 0.387279 0.76921302 -0.50825799 1.9057659e-42
16.146999 -2.18418 464.58401 0.35991499 0.821715 -0.441865 1.9057659e-42
14.4643 -1.54513 464.57101 0.34395999 0.84373403 -0.412074 1.9057659e-42
12.8291 -1.05971 463.996 0.34198001 0.877469 -0.336299 1.9057659e-42
11.122 -0.48909101 463.98901 0.31033701 0.90656102 -0.286075 1.9057659e-42
9.4039497 0.047568802 463.96899 0.28457499 0.926256 -0.24711899 1.9057659e-42
7.6851001 0.58144701 463.992 0.26239499 0.93900901 -0.222286 1.9057659e-42
5.9298701 0.98039597 463.996 0.247747 0.94726801 -0.203237 1.9057659e-42
4.1935701 1.4549201 463.98599 0.227588 0.95424002 -0.193984 1.9057659e-42
2.4421101 1.87009 463.98599 0.20048299 0.95980901 -0.196402 1.9057659e-42
0.66615403 2.15539 463.918 0.177371 0.96352202 -0.200414 1.9057659e-42
-1.11263 2.4170101 463.832 0.15694299 0.96481699 -0.210945 1.9057659e-42
-2.78216 2.6382501 463.19601 0.13040601 0.97384697 -0.18605199 1.9057659e-42
-4.5745201 2.80213 463.172 0.109193 0.96984899 -0.217876 1.9057659e-42
-6.3565402 3.0504 463.11899 0.097207204 0.96162403 -0.25657201 1.9057659e-42
-8.05968 3.1159501 462.54001 0.066382602 0.961604 -0.26629201 1.9057659e-42
-9.8407297 3.16083 462.797 0.059838202 0.93930602 -0.33782199 1.9057659e-42
-11.558 3.19841 462.259 0.0265086 0.92513102 -0.37872201 1.9057659e-42
-13.229 3.2260799 462.92801 0.032910399 0.88216102 -0.469796 1.9057659e-42
-15.0251 3.34147 462.948 0.050709601 0.85099602 -0.52271801 1.9057659e-42
-16.7439 3.26529 462.41901 -0.101502 0.71329302 -0.69347697 1.9057659e-42
-17.8577 4.0058999 463.62399 0.056003001 0.80385298 -0.59218502 1.9057659e-42
-18.064501 5.1262202 465.017 0.0808364 0.78375101 -0.61579198 1.9057659e-42
-16.8946 5.9485898 466.10999 0.086390302 0.73337698 -0.67431098 1.9057659e-42
-16.212601 6.8848701 467.48801 0.080196701 0.73984301 -0.667983 1.9057659e-42
-14.741 7.5726199 468.26401 0.093819901 0.750247 -0.65446699 1.9057659e-42
-13.5194 8.3419104 469.33899 0.110156 0.765854 -0.63350803 1.9057659e-42
-13.0017 9.3725004 470.72101 0.107658 0.78851497 -0.605519 1.9057659e-42
-11.68 9.9984598 471.76999 0.115063 0.79065597 -0.60135198 1.9057659e-42
-10.7286 10.8414 473.04501 0.116852 0.789437 -0.60260701 1.9057659e-42
-10.1446 11.8366 474.42599 0.112343 0.78882003 -0.60426998 1.9057659e-42
-9.3352299 12.7343 475.76001 0.105595 0.78647703 -0.60852599 1.9057659e-42
-8.5952301 13.6781 477.10199 0.099041298 0.78590602 -0.61036301 1.9057659e-42
-7.92941 14.66 478.45599 0.099687703 0.78829801 -0.60716498 1.9057659e-42
-6.8684001 15.4465 479.67899 0.112836 0.78937501 -0.60345203 1.9057659e-42
-6.63202 16.5256 481.10001 0.112681 0.79529399 -0.59565997 1.9057659e-42
-6.2657599 17.527201 482.54999 0.116426 0.80389702 -0.58326203 1.9057659e-42
-6.4072399 18.4781 484.07199 0.110509 0.81490701 -0.568959 1.9057659e-42
-6.07306 19.4956 485.51901 0.114645 0.82418197 -0.55459899 1.9057659e-42
-6.2557502 20.3388 487.09799 0.109043 0.83397901 -0.54091501 1.9057659e-42
-6.2931399 21.4352 488.52499 0.107762 0.84157503 -0.52928102 1.9057659e-42
-6.58915 22.212799 490.12201 0.103634 0.84871799 -0.51859099 1.9057659e-42
-6.1765399 23.351299 491.453 0.115452 0.85445702 -0.50653201 1.9057659e-42
-6.6054502 24.2547 492.95001 0.108921 0.86412799 -0.49134499 1.9057659e-42
-6.70541 25.0737 494.54999 0.109387 0.87479299 -0.47198701 1.9057659e-42
-7.0509501 25.953899 496.08099 0.103047 0.88604999 -0.45199201 1.9057659e-42
-7.4037099 26.684601 497.68799 0.093913503 0.90280497 -0.419671 1.9057659e-42
-7.9663801 27.370899 499.254 0.089018397 0.91576499 -0.39172801 1.9057659e-42
-7.8748298 28.2393 500.828 0.108691 0.92329299 -0.368397 1.9057659e-42
