# .PCD v0.7 - Point Cloud Data file format
# 5 187 0
# 1 51 0
# 52 80 0
# 81 108 0
# 109 151 0
# 152 187 0
VERSION 0.7
FIELDS x y z normal_x normal_y normal_z curvature
SIZE 4 4 4 4 4 4 4
TYPE F F F F F F F
COUNT 1 1 1 1 1 1 1
WIDTH 187
HEIGHT 1
VIEWPOINT 0 0 0 1 0 0 0
POINTS 187
DATA ascii
57.87360000 10.46050000 462.24301000 0.28999600 0.95592600 -0.04591380 1.905766e-42
56.31179800 10.79110000 461.41101000 0.28961501 0.95587802 -0.04920440 1.905766e-42
54.76839800 11.21940000 460.59000000 0.28933999 0.95574802 -0.05317170 1.905766e-42
53.18149900 11.70240000 459.89099000 0.28911901 0.95560300 -0.05685670 1.905766e-42
51.60310000 12.10620000 459.12601000 0.28903601 0.95534903 -0.06137040 1.905766e-42
50.11729800 12.46970000 458.17700000 0.28922999 0.95485198 -0.06785620 1.905766e-42
48.44609800 12.97300000 457.73599000 0.28904700 0.95476198 -0.06986280 1.905766e-42
47.03810100 13.31010000 456.66699000 0.28967801 0.95392501 -0.07819170 1.905766e-42
45.56230200 13.72280000 455.72299000 0.29032800 0.95309699 -0.08553410 1.905766e-42
44.05090000 14.06900000 454.80801000 0.28992701 0.95252699 -0.09292050 1.905766e-42
42.49179800 14.48210000 454.00900000 0.28905901 0.95217901 -0.09899650 1.905766e-42
40.97300000 14.82810000 453.10699000 0.28863499 0.95151502 -0.10634800 1.905766e-42
39.68479900 15.02500000 451.86600000 0.28936699 0.94988298 -0.11827700 1.905766e-42
38.11360200 15.49410000 451.12299000 0.28901601 0.94938302 -0.12305100 1.905766e-42
36.55759800 15.85390000 450.29300000 0.28909001 0.94860899 -0.12871800 1.905766e-42
34.95029800 16.26810100 449.59698000 0.28825799 0.94891500 -0.12832500 1.905766e-42
33.51340100 16.50970100 448.54001000 0.28709400 0.94917297 -0.12902801 1.905766e-42
31.92700000 16.91230000 447.79099000 0.27962500 0.95108098 -0.13136099 1.905766e-42
30.28210100 17.28700100 447.16299000 0.27217099 0.95288402 -0.13392000 1.905766e-42
29.66200100 17.26810100 446.08701000 0.26909199 0.95314002 -0.13824800 1.905766e-42
28.46690000 17.24580000 444.74100000 0.26335701 0.95376700 -0.14481600 1.905766e-42
26.80850000 17.84580000 444.38101000 0.25650799 0.95516998 -0.14783201 1.905766e-42
25.31950000 18.09100000 443.39899000 0.25019199 0.95585197 -0.15411200 1.905766e-42
24.04369900 18.19179900 442.13400000 0.24458601 0.95591098 -0.16251500 1.905766e-42
22.42420000 18.46360000 441.39600000 0.23847100 0.95641202 -0.16854300 1.905766e-42
21.19269900 18.46730000 440.08401000 0.22993401 0.95652997 -0.17938900 1.905766e-42
19.48380100 18.82620000 439.64700000 0.21870500 0.95803303 -0.18531300 1.905766e-42
18.23119900 18.82550000 438.35400000 0.20932400 0.95776302 -0.19716400 1.905766e-42
16.84240000 18.86739900 437.20999000 0.19974700 0.95745403 -0.20828700 1.905766e-42
15.26560000 19.00960000 436.35300000 0.19005699 0.95741200 -0.21734700 1.905766e-42
13.61110000 19.22290000 435.67700000 0.18065700 0.95753598 -0.22469500 1.905766e-42
12.45800000 19.09100000 434.30099000 0.17354500 0.95577800 -0.23742400 1.905766e-42
11.04220000 19.11020100 433.19000000 0.16596299 0.95447803 -0.24784900 1.905766e-42
9.43614010 19.17540000 432.38000000 0.15702200 0.95387602 -0.25585899 1.905766e-42
7.76290990 19.19619900 431.71701000 0.14334001 0.95392799 -0.26358101 1.905766e-42
6.09655000 19.22990000 431.03699000 0.12951900 0.95379800 -0.27110001 1.905766e-42
4.31244990 19.46310000 430.98599000 0.11484400 0.95529503 -0.27243701 1.905766e-42
2.53011990 19.60120000 430.77499000 0.09956310 0.95635498 -0.27472201 1.905766e-42
0.84118903 19.61360000 430.15302000 0.08465460 0.95620102 -0.28020099 1.905766e-42
-0.86927497 19.56760000 429.59399000 0.06927560 0.95614302 -0.28458899 1.905766e-42
-2.66285990 19.71929900 429.59000000 0.05218180 0.95759797 -0.28334400 1.905766e-42
-4.46110010 19.79880000 429.58701000 0.03568980 0.95890301 -0.28147900 1.905766e-42
-6.26086000 19.82840000 429.58899000 0.01964820 0.96026599 -0.27839401 1.905766e-42
-8.05325030 19.87730000 429.74701000 0.00168728 0.96191502 -0.27334201 1.905766e-42
-9.79419040 19.99000000 430.19000000 -0.01810750 0.96382099 -0.26593599 1.905766e-42
-11.55880000 19.98160000 430.54501000 -0.03935550 0.96504998 -0.25909400 1.905766e-42
-13.24350000 20.06290100 431.17401000 -0.06155460 0.96607202 -0.25082901 1.905766e-42
-15.03700000 19.91729900 431.13000000 -0.08430690 0.96544701 -0.24658500 1.905766e-42
-16.82370000 19.81020000 431.32101000 -0.10836200 0.96438402 -0.24129100 1.905766e-42
-18.49600000 19.79649900 431.98700000 -0.12758200 0.96389103 -0.23374601 1.905766e-42
-20.27570000 19.52730000 431.97400000 -0.14532100 0.96264100 -0.22848199 1.905766e-42
-21.92820000 19.05460000 431.43900000 -0.16103899 0.96119702 -0.22397800 1.905766e-42
-23.51770000 18.94960000 432.27701000 -0.18126500 0.95910001 -0.21741900 1.905766e-42
-24.68400000 19.01300000 433.64700000 -0.19840901 0.95687097 -0.21220499 1.905766e-42
-25.52240000 19.28400000 435.21600000 -0.21117599 0.95524502 -0.20715199 1.905766e-42
-26.28910100 19.37960100 436.84201000 -0.22263300 0.95406199 -0.20049800 1.905766e-42
-26.84470000 19.64900000 438.53299000 -0.23362300 0.95580000 -0.17851201 1.905766e-42
-27.76530100 19.69809900 440.07901000 -0.24910399 0.95546901 -0.15819700 1.905766e-42
-29.30170100 19.41350000 440.97198000 -0.27232000 0.95118898 -0.14519399 1.905766e-42
-30.37520000 19.28949900 442.41199000 -0.28959301 0.94861901 -0.12750299 1.905766e-42
-31.47040000 19.14170100 443.83200000 -0.30640900 0.94542003 -0.11088400 1.905766e-42
-32.53780000 18.97830000 445.27301000 -0.32191700 0.94198799 -0.09501350 1.905766e-42
-33.76359900 18.68820000 446.55801000 -0.33889899 0.93730098 -0.08133100 1.905766e-42
-35.27780200 18.20480000 447.40302000 -0.35645100 0.93164903 -0.07052280 1.905766e-42
-36.55090000 17.73740000 448.58701000 -0.36796099 0.92824000 -0.05454710 1.905766e-42
-37.84719800 17.21980100 449.72299000 -0.38086700 0.92380399 -0.03906280 1.905766e-42
-38.80310100 16.92260000 451.21899000 -0.39284900 0.91934502 -0.02176740 1.905766e-42
-40.15100100 16.23500100 452.19400000 -0.40801701 0.91293800 -0.00811133 1.905766e-42
-41.11340000 15.86970000 453.67099000 -0.42132699 0.90687400 0.00796365 1.905766e-42
-42.34849900 15.23720000 454.81699000 -0.43746999 0.89896798 0.02184250 1.905766e-42
-43.36100000 14.70060000 456.20499000 -0.45370701 0.89022398 0.04063000 1.905766e-42
-44.65070000 13.89800000 457.17099000 -0.47234699 0.87964302 0.05583070 1.905766e-42
-45.53170000 13.37880000 458.65201000 -0.48703799 0.87033099 0.07291820 1.905766e-42
-46.55870100 12.65820000 459.94299000 -0.50268900 0.85998499 0.08792010 1.905766e-42
-47.91659900 11.78250000 460.73599000 -0.52002603 0.84845197 0.09849770 1.905766e-42
-49.04679900 10.96010000 461.87000000 -0.53457099 0.83794302 0.10993500 1.905766e-42
-50.19340100 10.06920000 462.93399000 -0.54803503 0.82787901 0.11947600 1.905766e-42
-51.31629900 9.15779970 464.00601000 -0.56011403 0.81834900 0.12875500 1.905766e-42
-52.38589900 8.21440030 465.10400000 -0.57090902 0.80926198 0.13841601 1.905766e-42
-53.58680000 7.17488000 465.95099000 -0.58158898 0.80040401 0.14528300 1.905766e-42
-54.44780000 6.32027010 467.28101000 -0.58756602 0.79411000 0.15541901 1.905766e-42
-54.48680100 5.79749010 469.00299000 -0.58612901 0.79204601 0.17063200 1.905766e-42
-54.04959900 5.86291980 470.74701000 -0.57987398 0.79255199 0.18870100 1.905766e-42
-53.76890200 5.63625000 472.51099000 -0.57464999 0.79139000 0.20851800 1.905766e-42
-53.08140200 5.70376010 474.17300000 -0.56699598 0.79149097 0.22816300 1.905766e-42
-52.64559900 5.48918010 475.90601000 -0.56028998 0.79172599 0.24340200 1.905766e-42
-52.44860100 5.02515980 477.63400000 -0.55535299 0.79052699 0.25816700 1.905766e-42
-51.93299900 4.50080010 479.27701000 -0.54974002 0.78925401 0.27361301 1.905766e-42
-51.18009900 4.80281020 480.88400000 -0.54204899 0.78912801 0.28889400 1.905766e-42
-50.58120000 4.51814990 482.55701000 -0.53554398 0.78729701 0.30554199 1.905766e-42
-50.07329900 4.08467010 484.22900000 -0.52920300 0.78459698 0.32303500 1.905766e-42
-48.96889900 4.28622010 485.63599000 -0.51943600 0.78401703 0.33985901 1.905766e-42
-48.96180000 3.51055000 487.26001000 -0.51629102 0.77411801 0.36631200 1.905766e-42
-48.34019900 3.25896000 488.93100000 -0.50926697 0.76446801 0.39526799 1.905766e-42
-47.38270200 3.20841000 490.45401000 -0.50005299 0.75713003 0.42035800 1.905766e-42
-46.52940000 2.62932990 491.92899000 -0.49362499 0.74668700 0.44586301 1.905766e-42
-45.66059900 2.31615000 493.47400000 -0.48736399 0.73768997 0.46721601 1.905766e-42
-45.05780000 1.73663000 495.06799000 -0.48283899 0.72683001 0.48845199 1.905766e-42
-44.18520000 1.28831990 496.57800000 -0.47392300 0.72068202 0.50597799 1.905766e-42
-43.13380100 0.87704700 497.97900000 -0.46202901 0.71801299 0.52056301 1.905766e-42
-42.58560200 0.10785700 499.51199000 -0.45428300 0.72061700 0.52377301 1.905766e-42
-41.88309900 -0.65827203 500.98099000 -0.44080800 0.72339302 0.53140402 1.905766e-42
-41.03839900 -1.25691000 502.45401000 -0.42225099 0.72494698 0.54420203 1.905766e-42
-40.12459900 -1.81282000 503.90100000 -0.40124100 0.72422099 0.56081200 1.905766e-42
-39.21590000 -2.40776990 505.33701000 -0.37929201 0.72084600 0.58010298 1.905766e-42
-38.61890000 -3.42407990 506.69699000 -0.35984799 0.71500403 0.59939802 1.905766e-42
-37.65129900 -3.85669990 508.15201000 -0.33612499 0.70681900 0.62243599 1.905766e-42
-36.64429900 -4.56367020 509.46600000 -0.31302500 0.69609201 0.64612001 1.905766e-42
-35.82260100 -5.41017010 510.82501000 -0.29253599 0.68325502 0.66901797 1.905766e-42
-34.13850000 -5.38180020 511.45999000 -0.27879000 0.67299902 0.68509001 1.905766e-42
-32.38190100 -5.31959010 511.84799000 -0.26686499 0.66608399 0.69650197 1.905766e-42
-30.69599900 -4.73574020 512.08698000 -0.25644600 0.66545498 0.70100302 1.905766e-42
-28.99160000 -4.59998990 512.64899000 -0.24394000 0.66279900 0.70794803 1.905766e-42
-27.25950100 -4.33720020 513.06299000 -0.23139800 0.66400498 0.71102202 1.905766e-42
-25.57440000 -4.40486000 513.69202000 -0.21970500 0.66419703 0.71454400 1.905766e-42
-23.84260000 -4.42751980 514.18201000 -0.20769399 0.66768098 0.71488899 1.905766e-42
-22.07390000 -4.35969020 514.51001000 -0.19201900 0.67281097 0.71446103 1.905766e-42
-20.31139900 -4.22894000 514.85101000 -0.17659600 0.67717201 0.71431899 1.905766e-42
-18.54920000 -3.97326990 515.11401000 -0.16141500 0.68146503 0.71382898 1.905766e-42
-16.78680000 -3.91435000 515.47498000 -0.14723000 0.68344998 0.71499598 1.905766e-42
-15.01490000 -3.93719010 515.79102000 -0.13358200 0.68441099 0.71675497 1.905766e-42
-13.24020000 -3.89011000 516.08801000 -0.12034800 0.68502802 0.71850699 1.905766e-42
-11.46250000 -3.95005990 516.36401000 -0.10770400 0.68454498 0.72096997 1.905766e-42
-9.67193980 -3.95883010 516.54797000 -0.09528410 0.68413699 0.72310299 1.905766e-42
-7.88524010 -4.04406020 516.74902000 -0.08214630 0.68321800 0.72557998 1.905766e-42
-6.09202000 -3.99146010 516.89600000 -0.06862750 0.68341303 0.72679901 1.905766e-42
-4.29839990 -3.94725990 517.04102000 -0.05478180 0.68371099 0.72769397 1.905766e-42
-2.50652000 -3.85400010 517.18402000 -0.04062840 0.68433398 0.72803599 1.905766e-42
-0.70897001 -3.82295990 517.27301000 -0.02618640 0.68492502 0.72814298 1.905766e-42
1.08136000 -3.65149000 517.20001000 -0.01146100 0.68685597 0.72670299 1.905766e-42
2.79219010 -4.04653980 517.59601000 0.00242280 0.68400300 0.72947502 1.905766e-42
4.59209010 -4.06124020 517.58502000 0.01511870 0.68492901 0.72845298 1.905766e-42
6.25570010 -4.69106010 517.85999000 0.02175280 0.68259799 0.73047000 1.905766e-42
8.05218030 -4.78308010 517.92499000 0.02987090 0.68350500 0.72933400 1.905766e-42
9.84846020 -4.86655000 518.00500000 0.03817410 0.68430299 0.72819799 1.905766e-42
11.63030000 -5.10676000 518.09003000 0.04643960 0.68436003 0.72766399 1.905766e-42
13.42540000 -5.22458980 518.02899000 0.05509070 0.68523800 0.72623301 1.905766e-42
15.14220000 -4.81554990 517.67499000 0.06383130 0.68876398 0.72217000 1.905766e-42
16.91950000 -5.08736990 517.76202000 0.07213660 0.68802899 0.72208899 1.905766e-42
18.38960100 -5.92826990 518.37097000 0.07456900 0.68429202 0.72538501 1.905766e-42
20.17240000 -6.17469980 518.40399000 0.07525900 0.68524700 0.72441202 1.905766e-42
21.94570000 -6.48110010 518.44501000 0.07593500 0.68597502 0.72365201 1.905766e-42
23.74280000 -6.44560000 518.35101000 0.07714660 0.68800002 0.72159803 1.905766e-42
25.48530000 -6.87916990 518.47601000 0.07776780 0.68815500 0.72138399 1.905766e-42
27.28300100 -6.90073010 518.38599000 0.07912060 0.68998802 0.71948302 1.905766e-42
29.07620000 -7.05437990 518.36102000 0.08041990 0.69136202 0.71801901 1.905766e-42
30.86980100 -7.20169020 518.32202000 0.08129250 0.69300300 0.71633703 1.905766e-42
32.64960100 -7.46487000 518.37598000 0.08106960 0.69441003 0.71499801 1.905766e-42
34.43420000 -7.69744010 518.34302000 0.08102430 0.69611001 0.71334898 1.905766e-42
36.03410000 -7.18485020 517.69702000 0.08272290 0.70067102 0.70867300 1.905766e-42
37.82809800 -7.24299000 517.56201000 0.08330620 0.70322299 0.70607197 1.905766e-42
39.44430200 -7.91444020 517.98199000 0.08225650 0.70305902 0.70635802 1.905766e-42
40.66600000 -7.10564990 516.93701000 0.08564150 0.70931298 0.69967198 1.905766e-42
40.79950000 -5.81946990 515.68500000 0.09083610 0.71990502 0.68810201 1.905766e-42
41.15940100 -4.62141990 514.39001000 0.09837620 0.73689699 0.66880900 1.905766e-42
41.61220200 -3.50052000 513.05701000 0.10544400 0.75226599 0.65036702 1.905766e-42
42.46810200 -2.55240010 511.78900000 0.11177100 0.76587898 0.63319600 1.905766e-42
42.77660000 -1.48544000 510.37201000 0.11708100 0.77868700 0.61639100 1.905766e-42
43.06150100 -0.42859101 508.94299000 0.12126200 0.79059100 0.60021800 1.905766e-42
43.53110100 0.44718501 507.44199000 0.12495900 0.80268401 0.58316702 1.905766e-42
43.83140200 1.47805000 505.99799000 0.13090600 0.81749701 0.56085902 1.905766e-42
44.11550100 2.54763010 504.57800000 0.13750100 0.83130902 0.53853500 1.905766e-42
44.29460100 3.49971010 503.06100000 0.14445101 0.84417200 0.51624298 1.905766e-42
44.87289800 4.33705000 501.57599000 0.15236101 0.85628200 0.49352601 1.905766e-42
45.67800100 4.79555990 500.03299000 0.16087300 0.86721599 0.47122899 1.905766e-42
45.90119900 5.73319010 498.51300000 0.16849799 0.87764001 0.44872701 1.905766e-42
46.82870100 6.10842990 497.01599000 0.17683899 0.88624501 0.42813301 1.905766e-42
47.42170000 6.70776990 495.42599000 0.18415700 0.89452302 0.40732601 1.905766e-42
47.91859800 7.29677010 493.79901000 0.19085400 0.90238100 0.38637200 1.905766e-42
48.49869900 7.70209980 492.14401000 0.19734800 0.90964699 0.36550900 1.905766e-42
49.53229900 7.70200010 490.67099000 0.20422100 0.91540200 0.34689099 1.905766e-42
50.01100200 8.53555010 489.14899000 0.20942500 0.92179197 0.32625300 1.905766e-42
50.56100100 8.96702000 487.48999000 0.21463600 0.92771101 0.30542299 1.905766e-42
51.01229900 9.51636980 485.83600000 0.21998800 0.93409997 0.28117999 1.905766e-42
51.33540000 10.07380000 484.15601000 0.22510700 0.94014603 0.25583601 1.905766e-42
51.82780100 10.39370000 482.45401000 0.23083299 0.94545299 0.22985800 1.905766e-42
52.39950200 10.65860000 480.76801000 0.23680501 0.95003498 0.20336500 1.905766e-42
53.14070100 10.61950000 479.12799000 0.24320500 0.95366299 0.17714000 1.905766e-42
53.71550000 10.90370000 477.44601000 0.24920601 0.95685399 0.14942200 1.905766e-42
54.08700200 11.08360000 475.69400000 0.25474399 0.95923001 0.12241000 1.905766e-42
54.58079900 11.21740000 473.96899000 0.25972301 0.96059400 0.09901210 1.905766e-42
55.07099900 11.18890000 472.23700000 0.26457900 0.96147197 0.07462650 1.905766e-42
55.53509900 11.18840000 470.49799000 0.26939401 0.96177799 0.04909260 1.905766e-42
56.17050200 11.02740000 468.82101000 0.27454099 0.96130300 0.02289070 1.905766e-42
56.57059900 10.99390000 467.06699000 0.27993500 0.96000600 -0.00504286 1.905766e-42
57.55320000 10.62190000 465.60501000 0.28594300 0.95771599 -0.03190010 1.905766e-42
58.29110000 10.33330000 463.98901000 0.28924999 0.95640802 -0.04023330 1.905766e-42
