# .PCD v0.7 - Point Cloud Data file format
# 3 66 0
# 1 17 0
# 18 40 0
# 41 66 0
VERSION 0.7
FIELDS x y z normal_x normal_y normal_z curvature
SIZE 4 4 4 4 4 4 4
TYPE F F F F F F F
COUNT 1 1 1 1 1 1 1
WIDTH 66
HEIGHT 1
VIEWPOINT 0 0 0 1 0 0 0
POINTS 66
DATA ascii
5.55813980 5.97214980 418.39600000 0.25377399 0.90900499 -0.33061799 1.905766e-42
5.68018010 7.35238980 421.32300000 0.17993499 0.89851898 -0.40035900 1.905766e-42
6.33213000 7.96788980 422.88300000 0.15145500 0.88424402 -0.44178501 1.905766e-42
6.26762010 8.65552040 424.54599000 0.11937300 0.86822200 -0.48160300 1.905766e-42
7.07936000 9.56075950 425.87299000 0.10478600 0.84674197 -0.52158099 1.905766e-42
7.08311990 10.42590000 427.45099000 0.08399360 0.82809901 -0.55425298 1.905766e-42
7.93808980 11.37410000 428.72000000 0.08076140 0.80445600 -0.58849603 1.905766e-42
8.50912000 12.35500000 430.11700000 0.07436500 0.77531397 -0.62718201 1.905766e-42
9.06921010 13.36260000 431.50000000 0.06929980 0.74592501 -0.66241503 1.905766e-42
10.38490000 14.17630000 432.42001000 0.07841490 0.71882600 -0.69075298 1.905766e-42
11.12750000 15.28100000 433.63199000 0.07627250 0.68751001 -0.72215801 1.905766e-42
12.34800000 16.21460000 434.56900000 0.07335450 0.65925801 -0.74833101 1.905766e-42
13.14170000 17.41110000 435.65500000 0.05885320 0.62915099 -0.77505201 1.905766e-42
14.14840000 18.53160100 436.64001000 0.04012160 0.59627801 -0.80177498 1.905766e-42
15.08170000 19.72160000 437.61600000 0.02947510 0.55270100 -0.83285803 1.905766e-42
16.16860000 20.93210000 438.38599000 0.04637200 0.51543099 -0.85567600 1.905766e-42
17.03039900 22.12590000 439.42200000 0.09248940 0.72186500 -0.68582600 1.905766e-42
18.28000100 23.00270100 440.37601000 0.16539900 0.81032801 -0.56214899 1.905766e-42
19.87980100 22.82440000 441.18100000 0.20858701 0.84763199 -0.48786399 1.905766e-42
21.15600000 21.93549900 440.27499000 0.21559300 0.81825399 -0.53289801 1.905766e-42
22.04789900 20.84730000 439.15201000 0.19693500 0.74806499 -0.63373101 1.905766e-42
23.74799900 20.34750000 438.83600000 0.20785300 0.76377898 -0.61109602 1.905766e-42
25.16270100 19.38450100 438.27802000 0.17612500 0.76663500 -0.61745501 1.905766e-42
26.76619900 18.70140100 437.82800000 0.17311600 0.77542901 -0.60724002 1.905766e-42
27.87089900 17.72570000 436.79501000 0.14869800 0.75828099 -0.63474298 1.905766e-42
29.55150000 17.08149900 436.77200000 0.14916000 0.78120798 -0.60618901 1.905766e-42
30.90259900 16.34160000 435.84000000 0.11452500 0.73487401 -0.66846400 1.905766e-42
32.51739900 15.69820000 435.37299000 0.09677090 0.70647198 -0.70109397 1.905766e-42
34.00999800 14.90070000 434.76001000 0.07280440 0.66242099 -0.74558502 1.905766e-42
35.50210200 14.02590000 434.26099000 0.06879020 0.63085598 -0.77284402 1.905766e-42
37.09000000 13.31790000 433.79501000 0.08385350 0.62816203 -0.77355099 1.905766e-42
38.41719800 12.32450000 433.09399000 0.09230670 0.61543798 -0.78276098 1.905766e-42
39.96450000 11.48730000 432.71301000 0.11342400 0.60853100 -0.78538197 1.905766e-42
41.52780200 10.66840000 432.35901000 0.12009900 0.60254103 -0.78899997 1.905766e-42
42.89580200 9.68867970 431.72000000 0.12278000 0.58676702 -0.80039299 1.905766e-42
44.24459800 8.65050980 431.13400000 0.13538900 0.58622599 -0.79875499 1.905766e-42
45.84370000 7.86288020 430.88400000 0.15318599 0.58029503 -0.79987001 1.905766e-42
47.49599800 7.18191000 431.09799000 0.14671600 0.58251297 -0.79947001 1.905766e-42
48.74879800 6.21367980 430.24200000 0.13369700 0.57803798 -0.80498201 1.905766e-42
50.31259900 5.37562990 429.93900000 0.12164600 0.59579802 -0.79386902 1.905766e-42
49.97219800 4.03709980 428.78400000 0.11232300 0.60260701 -0.79009402 1.905766e-42
48.21200200 3.89973000 428.43399000 0.12651500 0.60397202 -0.78689998 1.905766e-42
46.49140200 3.65731000 427.96399000 0.14924300 0.61001801 -0.77820599 1.905766e-42
44.72200000 3.97634010 427.87900000 0.18390299 0.60955900 -0.77111399 1.905766e-42
43.09510000 3.63474990 427.18900000 0.17606100 0.62472397 -0.76073802 1.905766e-42
41.32289900 3.83211990 426.94299000 0.16058600 0.64242798 -0.74933201 1.905766e-42
39.89709900 3.17793010 426.06100000 0.16155501 0.64542001 -0.74654698 1.905766e-42
38.15430100 3.15940000 425.61099000 0.15933099 0.65650201 -0.73730499 1.905766e-42
36.40639900 3.10519000 425.18399000 0.16427100 0.66889203 -0.72498202 1.905766e-42
34.68849900 2.87774990 424.69699000 0.17551000 0.68344301 -0.70859098 1.905766e-42
32.93420000 3.19722010 424.45200000 0.17487900 0.70999599 -0.68214500 1.905766e-42
31.19780000 3.20292000 423.97699000 0.17173301 0.73373902 -0.65736902 1.905766e-42
29.42200100 3.23284010 423.68500000 0.16535500 0.75322402 -0.63664001 1.905766e-42
27.71250000 3.76072000 423.88199000 0.15246201 0.77509600 -0.61317301 1.905766e-42
26.05900000 3.58843990 423.19199000 0.17809500 0.78140098 -0.59807497 1.905766e-42
24.30800100 4.00547980 423.17700000 0.19373500 0.79093403 -0.58042198 1.905766e-42
22.73040000 3.79005000 422.33801000 0.21569400 0.79387301 -0.56854302 1.905766e-42
20.98090000 4.03188990 421.98999000 0.21573199 0.80277598 -0.55588698 1.905766e-42
19.25840000 4.13120990 421.47699000 0.21198501 0.81487799 -0.53947800 1.905766e-42
17.50350000 4.52065990 421.38400000 0.20322600 0.83054900 -0.51854402 1.905766e-42
15.81100000 4.55853990 420.77200000 0.21261100 0.84345198 -0.49334100 1.905766e-42
14.06750000 4.81130980 420.40302000 0.22840101 0.85261399 -0.46998101 1.905766e-42
12.37630000 4.89717010 419.79300000 0.24562700 0.85809398 -0.45093399 1.905766e-42
10.65810000 5.43377020 419.78601000 0.24521400 0.86488199 -0.43800500 1.905766e-42
8.92448040 5.72663020 419.40100000 0.22935300 0.87751001 -0.42115700 1.905766e-42
7.17277000 6.07968000 419.18399000 0.22299500 0.88962197 -0.39855501 1.905766e-42
