# .PCD v0.7 - Point Cloud Data file format
# 2 65 1
# 1 31 1
# 32 65 0
VERSION 0.7
FIELDS x y z normal_x normal_y normal_z curvature
SIZE 4 4 4 4 4 4 4
TYPE F F F F F F F
COUNT 1 1 1 1 1 1 1
WIDTH 65
HEIGHT 1
VIEWPOINT 0 0 0 1 0 0 0
POINTS 65
DATA ascii
19.12719900 21.45130000 440.79599000 0.09751400 0.99394798 0.05057770 1.905766e-42
20.66850100 21.26490000 440.13400000 0.18161100 0.97740602 0.10814400 1.905766e-42
22.03510100 21.25880100 438.96201000 0.17890801 0.98041803 0.08229020 1.905766e-42
23.65090000 20.91340100 438.24799000 0.21756500 0.96973199 0.11083400 1.905766e-42
25.01180100 20.77070000 437.07901000 0.22705600 0.96907002 0.09669100 1.905766e-42
26.42280000 20.54030000 435.98499000 0.26062700 0.96356201 0.06017430 1.905766e-42
28.02319900 19.97430000 435.38599000 0.33950400 0.93453699 0.10666900 1.905766e-42
29.25370000 19.77129900 434.08801000 0.31859499 0.94746000 0.02856610 1.905766e-42
30.76160000 19.21110000 433.28101000 0.32408300 0.94601500 0.00499556 1.905766e-42
31.94170000 18.81170100 431.98199000 0.32165599 0.94318599 -0.08329020 1.905766e-42
33.52719900 18.07519900 431.55301000 0.37630600 0.92463100 -0.05874490 1.905766e-42
34.96120100 17.39069900 430.70700000 0.40474099 0.91097999 -0.07937330 1.905766e-42
36.22549800 16.79250000 429.57401000 0.41259199 0.90044302 -0.13773400 1.905766e-42
37.61109900 15.96700000 428.77499000 0.42154601 0.89175397 -0.16454300 1.905766e-42
38.94150200 15.14240000 427.88599000 0.39458999 0.89323300 -0.21548399 1.905766e-42
39.84719800 14.28320000 426.58899000 0.33902401 0.87503999 -0.34549701 1.905766e-42
39.95900000 13.58380000 424.93500000 0.30155700 0.80755103 -0.50687701 1.905766e-42
39.95169800 12.58480000 423.43701000 0.28782400 0.72758299 -0.62272000 1.905766e-42
39.92480100 11.30580000 422.17099000 0.28244099 0.68423897 -0.67234200 1.905766e-42
39.63869900 9.93408010 421.04099000 0.30715501 0.66598099 -0.67979699 1.905766e-42
39.57030100 8.69589040 419.73700000 0.30453199 0.64127898 -0.70428801 1.905766e-42
39.17269900 7.68721010 418.29999000 0.30553100 0.62007803 -0.72260302 1.905766e-42
39.17269900 6.25315000 417.21201000 0.31156501 0.61371100 -0.72545600 1.905766e-42
39.19340100 4.68574000 416.32700000 0.32698900 0.61978799 -0.71340102 1.905766e-42
39.03490100 3.43725990 415.04001000 0.35390800 0.62594998 -0.69493598 1.905766e-42
38.72919800 2.42910000 413.58099000 0.38843399 0.62781501 -0.67451298 1.905766e-42
39.20370100 0.95195198 412.66800000 0.39106300 0.60479802 -0.69375002 1.905766e-42
39.31629900 -0.40766299 411.49399000 0.32543901 0.55651098 -0.76445103 1.905766e-42
39.80320000 -1.98932000 410.78601000 0.28259200 0.51549399 -0.80895501 1.905766e-42
39.84680200 -3.48270010 409.78201000 0.22069100 0.45978001 -0.86017299 1.905766e-42
39.09610000 -4.88117980 408.93301000 0.15534399 0.41147301 -0.89808601 1.905766e-42
37.49610100 -5.55417010 408.45599000 0.07192510 0.37943801 -0.92241699 1.905766e-42
35.87659800 -4.79373980 408.65399000 0.00562067 0.35797301 -0.93371499 1.905766e-42
34.13510100 -4.39842990 408.87900000 -0.05167350 0.34011200 -0.93896401 1.905766e-42
32.91379900 -3.17167000 409.37201000 -0.07821550 0.32307300 -0.94313598 1.905766e-42
31.13480000 -3.04270010 409.61401000 -0.14671800 0.28909999 -0.94598901 1.905766e-42
29.66780100 -2.16061000 410.17099000 -0.18889301 0.27934200 -0.94142902 1.905766e-42
28.04439900 -1.61136000 410.72101000 -0.21210299 0.28944099 -0.93339998 1.905766e-42
26.85290000 -0.40307999 411.32199000 -0.22237100 0.30242401 -0.92687201 1.905766e-42
25.29229900 0.25856501 411.92700000 -0.23918900 0.30284801 -0.92253602 1.905766e-42
23.98900000 1.27211000 412.64401000 -0.26309100 0.31978101 -0.91023302 1.905766e-42
22.61899900 2.17064000 413.39001000 -0.29576701 0.32781699 -0.89725000 1.905766e-42
21.42590000 3.23622990 414.21500000 -0.32117799 0.34141600 -0.88333398 1.905766e-42
19.98500100 3.95344000 415.02100000 -0.36185500 0.34547701 -0.86585599 1.905766e-42
18.54089900 4.56896020 415.90100000 -0.37728000 0.36215499 -0.85235202 1.905766e-42
17.37789900 5.57163000 416.84100000 -0.37872100 0.39245000 -0.83818400 1.905766e-42
15.81910000 5.81268980 417.70801000 -0.37971601 0.40253401 -0.83293599 1.905766e-42
14.79660000 6.95684000 418.64899000 -0.37752900 0.43292999 -0.81856197 1.905766e-42
13.32110000 7.34585000 419.60400000 -0.38150099 0.44070300 -0.81255001 1.905766e-42
12.04960000 7.97818990 420.70999000 -0.38039401 0.46005201 -0.80228001 1.905766e-42
10.87280000 8.85665040 421.75101000 -0.37563699 0.50321400 -0.77824998 1.905766e-42
9.61592960 9.65460010 422.76199000 -0.35091701 0.55231702 -0.75617701 1.905766e-42
9.09231000 10.79520000 424.05301000 -0.31465101 0.64376301 -0.69754201 1.905766e-42
8.81190970 12.00880000 425.35199000 -0.29357100 0.73139203 -0.61553401 1.905766e-42
8.92216970 12.97330000 426.86801000 -0.29450601 0.79012501 -0.53755701 1.905766e-42
9.56577010 14.10620000 428.10999000 -0.31522799 0.81477302 -0.48659599 1.905766e-42
10.33270000 15.18740000 429.32700000 -0.31088099 0.83632499 -0.45156801 1.905766e-42
10.94970000 16.10470000 430.74799000 -0.29532900 0.84621000 -0.44352001 1.905766e-42
11.68850000 17.02990000 432.10400000 -0.27186999 0.85873997 -0.43434101 1.905766e-42
12.58670000 17.91309900 433.39001000 -0.25127399 0.87105900 -0.42203999 1.905766e-42
13.59590000 18.74950000 434.62299000 -0.23464900 0.88217300 -0.40830100 1.905766e-42
14.83510000 19.55780000 435.64801000 -0.21987300 0.89424402 -0.38984999 1.905766e-42
15.99330000 20.32060100 436.79599000 -0.20051201 0.91095102 -0.36050299 1.905766e-42
16.66120000 20.98259900 438.33099000 -0.16411600 0.93982899 -0.29964599 1.905766e-42
17.80419900 21.58690100 439.58301000 -0.08374880 0.98274302 -0.16493100 1.905766e-42
