# .PCD v0.7 - Point Cloud Data file format
# 6 147 0
# 1 15 0
# 16 29 0
# 30 56 0
# 57 102 0
# 103 129 0
# 130 147 0
VERSION 0.7
FIELDS x y z normal_x normal_y normal_z curvature
SIZE 4 4 4 4 4 4 4
TYPE F F F F F F F
COUNT 1 1 1 1 1 1 1
WIDTH 147
HEIGHT 1
VIEWPOINT 0 0 0 1 0 0 0
POINTS 147
DATA ascii
23.19129900 25.61969900 411.19901000 0.09667130 -0.67931002 -0.72745597 1.905766e-42
24.43429900 25.41550100 411.66599000 0.12599701 -0.67402601 -0.72788298 1.905766e-42
25.80680100 24.78410000 412.64401000 0.15552400 -0.66829902 -0.72745401 1.905766e-42
27.27140000 24.43829900 413.63199000 0.18773200 -0.66258699 -0.72507602 1.905766e-42
28.65250000 23.64530000 414.47101000 0.21524800 -0.65820998 -0.72140598 1.905766e-42
29.93420000 22.80950000 415.41901000 0.23992500 -0.65487099 -0.71664500 1.905766e-42
31.38010000 22.59680000 416.47000000 0.26997900 -0.64950502 -0.71081299 1.905766e-42
32.77259800 22.04760000 417.46899000 0.29588199 -0.64499301 -0.70458299 1.905766e-42
33.90390000 21.18980000 418.57599000 0.31490999 -0.64306903 -0.69806498 1.905766e-42
35.21460000 20.54130000 419.62500000 0.33862999 -0.63815802 -0.69143701 1.905766e-42
36.32270100 19.92490000 420.90302000 0.36102501 -0.63169199 -0.68602198 1.905766e-42
37.59830100 19.66070000 422.14499000 0.38812900 -0.62452900 -0.67773098 1.905766e-42
38.90770000 19.09720000 423.24399000 0.41355699 -0.61782700 -0.66877502 1.905766e-42
40.22600200 18.74749900 424.41901000 0.44004300 -0.61042899 -0.65858799 1.905766e-42
41.68149900 18.48020000 425.44400000 0.46924600 -0.60170102 -0.64634597 1.905766e-42
43.17290100 18.60700000 426.44299000 0.49983099 -0.59179699 -0.63241202 1.905766e-42
44.70010000 19.17550100 427.20801000 0.52973902 -0.58125699 -0.61767000 1.905766e-42
46.12630100 20.24180000 427.47101000 0.55526900 -0.57198602 -0.60374498 1.905766e-42
47.57099900 20.95710000 428.27100000 0.58134800 -0.56204200 -0.58833897 1.905766e-42
49.00470000 21.86870000 428.86600000 0.60497200 -0.55296999 -0.57291502 1.905766e-42
50.48609900 22.49600000 429.67300000 0.63156801 -0.54201800 -0.55438101 1.905766e-42
51.84870100 23.39699900 430.42899000 0.65734798 -0.53123599 -0.53449202 1.905766e-42
53.02629900 24.74729900 430.60199000 0.67767799 -0.52413201 -0.51578999 1.905766e-42
54.25099900 25.87389900 431.28900000 0.70165402 -0.51347601 -0.49398801 1.905766e-42
55.22079800 27.35390100 431.61899000 0.72270000 -0.50149101 -0.47561601 1.905766e-42
56.48799900 28.57239900 432.00500000 0.74746901 -0.48147100 -0.45768401 1.905766e-42
57.71440100 29.60740100 432.82101000 0.77517402 -0.45846099 -0.43464899 1.905766e-42
58.83330200 30.58120000 433.84000000 0.79593003 -0.43989801 -0.41591501 1.905766e-42
59.89939900 31.77179900 434.66901000 0.81112301 -0.42502800 -0.40178499 1.905766e-42
60.77380000 32.33620100 436.13699000 0.82230502 -0.41436699 -0.39001799 1.905766e-42
60.70340000 31.00569900 437.34698000 0.82085502 -0.41847900 -0.38868099 1.905766e-42
60.61209900 29.55559900 438.41000000 0.81843698 -0.42140299 -0.39061600 1.905766e-42
60.44200100 28.24440000 439.63101000 0.81821197 -0.41632399 -0.39649001 1.905766e-42
60.32040000 26.95249900 440.87900000 0.81843901 -0.41102999 -0.40151101 1.905766e-42
59.96080000 25.32819900 441.56601000 0.81475502 -0.40977201 -0.41019699 1.905766e-42
59.89450100 24.01540000 442.79599000 0.81525201 -0.40549999 -0.41344100 1.905766e-42
59.66130100 22.50930000 443.75299000 0.81306499 -0.40448099 -0.41871199 1.905766e-42
59.63390000 21.19020100 444.97800000 0.81323498 -0.40106899 -0.42165500 1.905766e-42
59.38830200 19.80229900 446.09698000 0.81167698 -0.39907801 -0.42651701 1.905766e-42
59.21340200 18.21320000 446.92499000 0.80808401 -0.39949900 -0.43289801 1.905766e-42
59.25140000 16.99770000 448.25201000 0.80853599 -0.39617300 -0.43510500 1.905766e-42
59.25009900 15.59600000 449.38101000 0.80685198 -0.39447501 -0.43974999 1.905766e-42
59.37130000 14.39080000 450.71201000 0.80685902 -0.39037701 -0.44337901 1.905766e-42
59.41540100 13.00000000 451.85400000 0.80481702 -0.38454300 -0.45210201 1.905766e-42
59.35150100 11.58690000 452.96701000 0.80304801 -0.36708799 -0.46942499 1.905766e-42
59.57500100 10.37190000 454.27600000 0.80432498 -0.34712800 -0.48224899 1.905766e-42
59.64460000 9.02410030 455.46701000 0.80474699 -0.32823801 -0.49461299 1.905766e-42
59.86570000 7.65452000 456.61401000 0.80666900 -0.30910099 -0.50372797 1.905766e-42
60.06639900 6.20124010 457.65701000 0.80851001 -0.29880300 -0.50697899 1.905766e-42
59.82249800 4.63356020 458.50800000 0.80642903 -0.29227400 -0.51405102 1.905766e-42
60.09180100 3.64974000 459.99100000 0.81165600 -0.28009000 -0.51260602 1.905766e-42
60.20729800 1.89342000 460.36700000 0.80647600 -0.27534801 -0.52324098 1.905766e-42
60.38940000 0.44335800 461.41800000 0.80526102 -0.28351399 -0.52074403 1.905766e-42
60.60699800 -0.94940698 462.53799000 0.80322301 -0.32213500 -0.50106102 1.905766e-42
60.32619900 -2.54819990 463.31500000 0.79469502 -0.37397701 -0.47812200 1.905766e-42
60.12350100 -3.93282010 464.44800000 0.78706002 -0.43419400 -0.43819100 1.905766e-42
59.80730100 -5.37861010 465.47198000 0.74943602 -0.58497399 -0.31008399 1.905766e-42
58.56850100 -6.65266990 465.18600000 0.68835002 -0.69497102 -0.20781900 1.905766e-42
57.53150200 -7.49035980 463.97601000 0.67969900 -0.70466900 -0.20359400 1.905766e-42
56.07210200 -8.46763990 463.58301000 0.61781901 -0.77857500 -0.11009100 1.905766e-42
54.54729800 -9.38829040 463.84299000 0.51641899 -0.85561800 0.03507380 1.905766e-42
53.05419900 -10.36340000 463.59799000 0.45179000 -0.88432097 0.11773900 1.905766e-42
51.94010200 -11.07760000 462.37799000 0.45884699 -0.88348401 0.09442200 1.905766e-42
50.66550100 -11.84720000 461.36700000 0.44885099 -0.88932902 0.08732980 1.905766e-42
49.21849800 -12.64420000 460.65201000 0.41263601 -0.90551001 0.09890940 1.905766e-42
47.75830100 -13.40280000 459.92200000 0.38067600 -0.91895598 0.10298600 1.905766e-42
46.50859800 -13.98720000 458.76599000 0.37997699 -0.92335498 0.05507430 1.905766e-42
45.09600100 -14.61320000 457.84299000 0.36886001 -0.92904198 0.02868970 1.905766e-42
43.74300000 -15.14450000 456.78101000 0.37009999 -0.92872101 -0.02244680 1.905766e-42
42.07099900 -15.76460000 456.53601000 0.33647001 -0.94152600 0.01780170 1.905766e-42
40.56520100 -16.26980000 455.68900000 0.32740700 -0.94472599 -0.01726710 1.905766e-42
38.96020100 -16.80500000 455.07401000 0.30924401 -0.95055801 -0.02841490 1.905766e-42
37.41220100 -17.19700100 454.24399000 0.29959199 -0.95150101 -0.06993220 1.905766e-42
35.69960000 -17.68989900 453.98999000 0.27293599 -0.96080703 -0.04854300 1.905766e-42
34.37699900 -17.95570000 452.79901000 0.27651501 -0.95016903 -0.14393599 1.905766e-42
32.63090100 -18.38850000 452.73599000 0.25223601 -0.96165103 -0.10772500 1.905766e-42
31.15790000 -18.60870000 451.72601000 0.24911800 -0.95021898 -0.18714800 1.905766e-42
29.47160000 -18.89720000 451.16599000 0.23284800 -0.94831800 -0.21558000 1.905766e-42
27.70200000 -19.21360000 451.07401000 0.20799100 -0.95834303 -0.19575299 1.905766e-42
26.19220000 -19.32020000 450.10001000 0.19575700 -0.94079500 -0.27673799 1.905766e-42
24.48030100 -19.50330000 449.57501000 0.16468699 -0.93689698 -0.30838701 1.905766e-42
22.69770100 -19.68250100 449.40100000 0.12402000 -0.94459701 -0.30390000 1.905766e-42
21.00820000 -19.72419900 448.78201000 0.08893150 -0.93523401 -0.34268001 1.905766e-42
19.20990000 -19.80020000 448.79901000 0.04331540 -0.94714302 -0.31787500 1.905766e-42
17.41000000 -19.78750000 448.79599000 0.00134609 -0.94952703 -0.31368399 1.905766e-42
15.81420000 -19.55610100 447.99600000 -0.02429270 -0.93704700 -0.34835699 1.905766e-42
14.01600000 -19.47480000 447.99899000 -0.05586510 -0.94434601 -0.32417500 1.905766e-42
12.22190000 -19.32990100 447.98901000 -0.08446340 -0.94825900 -0.30605701 1.905766e-42
10.42830000 -19.17750000 447.98901000 -0.11085100 -0.95041102 -0.29056999 1.905766e-42
8.64252000 -18.95380000 447.95999000 -0.13477300 -0.94956797 -0.28311899 1.905766e-42
6.85699990 -18.72790000 447.98999000 -0.15746801 -0.94881600 -0.27377400 1.905766e-42
5.08076000 -18.43650100 447.99500000 -0.17862600 -0.94527602 -0.27303201 1.905766e-42
3.31322000 -18.09620100 447.99399000 -0.20107500 -0.93881702 -0.27962700 1.905766e-42
1.56615000 -17.73460000 448.23300000 -0.22422300 -0.93572497 -0.27229300 1.905766e-42
-0.11466900 -17.44030000 448.80600000 -0.24511801 -0.93681198 -0.24960101 1.905766e-42
-1.84601000 -16.95360000 448.88101000 -0.27054501 -0.92598099 -0.26337099 1.905766e-42
-3.56807990 -16.44890000 449.02100000 -0.30123299 -0.91093498 -0.28187799 1.905766e-42
-5.22670980 -15.97880000 449.53900000 -0.32771200 -0.90166098 -0.28215599 1.905766e-42
-6.90259980 -15.33820000 449.39401000 -0.35405600 -0.87941700 -0.31823000 1.905766e-42
-8.45435050 -14.65550000 448.78900000 -0.37982100 -0.83664101 -0.39467499 1.905766e-42
-10.12040000 -13.97430000 448.80399000 -0.39337301 -0.80671501 -0.44098499 1.905766e-42
-11.64560000 -13.28260000 449.46399000 -0.34844100 -0.77039701 -0.53392601 1.905766e-42
-13.02350000 -12.24720000 448.94501000 -0.39432999 -0.72558802 -0.56393701 1.905766e-42
-13.18170000 -11.06050000 447.60101000 -0.44419101 -0.60998100 -0.65621501 1.905766e-42
-12.68100000 -9.82380010 446.39301000 -0.44124401 -0.48971400 -0.75198698 1.905766e-42
-12.68960000 -8.39177040 445.30200000 -0.42655200 -0.39965501 -0.81137502 1.905766e-42
-12.70830000 -6.76512000 444.53201000 -0.42679399 -0.39054099 -0.81567401 1.905766e-42
-12.72480000 -5.08169980 443.89499000 -0.43082401 -0.37992501 -0.81856400 1.905766e-42
-12.30370000 -3.58264990 442.99200000 -0.43142101 -0.37203801 -0.82186598 1.905766e-42
-11.84800000 -2.11607000 442.05301000 -0.43405500 -0.37161300 -0.82067102 1.905766e-42
-11.71150000 -0.53754300 441.19901000 -0.44365799 -0.38776401 -0.80796498 1.905766e-42
-11.37080000 0.96526098 440.26801000 -0.45006600 -0.40568900 -0.79552299 1.905766e-42
-10.74530000 2.28163000 439.21201000 -0.45126900 -0.42546999 -0.78443098 1.905766e-42
-10.47210000 3.79358010 438.27399000 -0.45654199 -0.44306800 -0.77153099 1.905766e-42
-10.19730000 5.23684980 437.23401000 -0.46047601 -0.45919299 -0.75967300 1.905766e-42
-9.96166990 6.65376000 436.14999000 -0.46506301 -0.47468299 -0.74725699 1.905766e-42
-9.44017030 7.91217990 434.97299000 -0.46568999 -0.49174699 -0.73574299 1.905766e-42
-9.50453000 9.44312000 434.02802000 -0.47541100 -0.50353003 -0.72141600 1.905766e-42
-9.33193020 10.89470000 432.97800000 -0.48065999 -0.50969702 -0.71356398 1.905766e-42
-9.14999010 12.29720000 431.86499000 -0.48346701 -0.51271498 -0.70949501 1.905766e-42
-8.58671000 13.39300000 430.55200000 -0.47832200 -0.51900101 -0.70841098 1.905766e-42
-8.47618960 14.82040000 429.46100000 -0.47955701 -0.52244902 -0.70503402 1.905766e-42
-8.08592030 16.08460000 428.24100000 -0.47519100 -0.52776998 -0.70402598 1.905766e-42
-7.89980980 17.46040000 427.09500000 -0.47465900 -0.53121001 -0.70179403 1.905766e-42
-7.65273000 18.80800100 425.92801000 -0.47443801 -0.53459799 -0.69936699 1.905766e-42
-7.25509980 20.01219900 424.64999000 -0.47270799 -0.53881800 -0.69729602 1.905766e-42
-7.08263020 21.40530000 423.52399000 -0.47511601 -0.53579497 -0.69798899 1.905766e-42
-6.76442000 22.71050100 422.32599000 -0.47183800 -0.52389801 -0.70915401 1.905766e-42
-6.14202020 23.87260100 421.10001000 -0.46148100 -0.51476300 -0.72253299 1.905766e-42
-5.29358010 24.97290000 419.95599000 -0.44550800 -0.50833702 -0.73696399 1.905766e-42
-3.72551990 24.14189900 419.65500000 -0.42580199 -0.51123703 -0.74654502 1.905766e-42
-2.25042010 23.23959900 419.15500000 -0.40184200 -0.51937598 -0.75416899 1.905766e-42
-0.59111100 22.64640000 418.78799000 -0.37242600 -0.52952701 -0.76216799 1.905766e-42
1.08264990 22.21960100 418.28101000 -0.33742100 -0.53956997 -0.77136999 1.905766e-42
2.73642990 21.64110000 417.86899000 -0.29573101 -0.55376703 -0.77838701 1.905766e-42
4.44690990 21.93829900 417.39301000 -0.26098001 -0.55276299 -0.79141802 1.905766e-42
6.15912010 22.01670100 416.84399000 -0.23122400 -0.55159903 -0.80141997 1.905766e-42
7.88298990 22.11340000 416.33499000 -0.20489401 -0.55856198 -0.80375803 1.905766e-42
9.56048010 21.69990000 415.82999000 -0.17940301 -0.57226098 -0.80020702 1.905766e-42
11.28720000 22.04970000 415.46100000 -0.16203000 -0.59772998 -0.78515297 1.905766e-42
12.89500000 22.81259900 415.19101000 -0.15140800 -0.62207299 -0.76818001 1.905766e-42
14.66150000 23.15830000 415.17999000 -0.12367000 -0.64117301 -0.75736600 1.905766e-42
15.87520000 22.11450000 414.35699000 -0.08867280 -0.65118700 -0.75371999 1.905766e-42
17.48570100 22.64950000 413.75699000 -0.05426720 -0.66671300 -0.74333602 1.905766e-42
18.95240000 23.42050000 413.05301000 -0.01964150 -0.67691702 -0.73579699 1.905766e-42
20.65410000 23.86360000 412.66901000 0.02556870 -0.68032902 -0.73246098 1.905766e-42
21.54530000 25.09400000 411.70300000 0.05146100 -0.68322098 -0.72839600 1.905766e-42
