# .PCD v0.7 - Point Cloud Data file format
# 3 188 0
# 1 76 0
# 77 165 0
# 166 188 0
VERSION 0.7
FIELDS x y z normal_x normal_y normal_z curvature
SIZE 4 4 4 4 4 4 4
TYPE F F F F F F F
COUNT 1 1 1 1 1 1 1
WIDTH 188
HEIGHT 1
VIEWPOINT 0 0 0 1 0 0 0
POINTS 188
DATA ascii
1.19932000 -30.97250000 425.89099000 -0.25852400 -0.12817000 -0.95746398 1.905766e-42
0.11241200 -29.55180000 426.09100000 -0.29126799 -0.11235800 -0.95002002 1.905766e-42
-0.69483697 -27.95420100 426.28201000 -0.31966701 -0.09614240 -0.94264001 1.905766e-42
-1.40690000 -26.30310100 426.36301000 -0.34498101 -0.08033590 -0.93516499 1.905766e-42
-2.31377010 -24.86410000 426.95200000 -0.38074201 -0.06687510 -0.92225999 1.905766e-42
-3.09928990 -23.24500100 426.91199000 -0.40441701 -0.05379070 -0.91299099 1.905766e-42
-3.76614000 -21.57580000 427.00699000 -0.42303401 -0.04185940 -0.90514600 1.905766e-42
-4.68138980 -20.07070000 427.37701000 -0.44541299 -0.03454310 -0.89465898 1.905766e-42
-5.52614020 -18.51079900 427.68201000 -0.45155299 -0.02822990 -0.89179701 1.905766e-42
-6.29376980 -16.90770000 427.96600000 -0.45807499 -0.01556260 -0.88877702 1.905766e-42
-7.25579020 -15.53500000 428.62201000 -0.47767499 0.01351850 -0.87843198 1.905766e-42
-8.16559030 -14.06820000 429.13300000 -0.49746501 0.04597160 -0.86626500 1.905766e-42
-8.80107980 -12.44030000 429.56500000 -0.51148701 0.08112740 -0.85545301 1.905766e-42
-9.65658000 -11.02670000 430.27899000 -0.53181499 0.10908700 -0.83980501 1.905766e-42
-10.63480000 -9.75751020 431.09799000 -0.55338502 0.13039400 -0.82265598 1.905766e-42
-11.18470000 -8.18115040 431.77100000 -0.56108302 0.15515900 -0.81308800 1.905766e-42
-11.95650000 -6.80560020 432.63901000 -0.57080501 0.17051700 -0.80318499 1.905766e-42
-12.46370000 -5.24287990 433.37399000 -0.56845301 0.18695100 -0.80119300 1.905766e-42
-12.77110000 -3.56292010 433.94199000 -0.55830300 0.21448700 -0.80143201 1.905766e-42
-13.28770000 -2.04467010 434.76001000 -0.55425400 0.24081799 -0.79675001 1.905766e-42
-14.02100000 -0.67620301 435.67099000 -0.55393499 0.26313001 -0.78988498 1.905766e-42
-14.61410000 0.62548202 436.76300000 -0.55178499 0.28665599 -0.78317398 1.905766e-42
-15.01570000 2.24582000 437.43600000 -0.54090297 0.31982601 -0.77790499 1.905766e-42
-15.00840000 3.88530990 438.17899000 -0.52443200 0.35826200 -0.77241200 1.905766e-42
-15.03410000 5.51207020 438.94901000 -0.50717199 0.39621699 -0.76536900 1.905766e-42
-15.10330000 7.08227010 439.82700000 -0.48960999 0.43270400 -0.75700003 1.905766e-42
-14.69930000 8.69950010 440.50601000 -0.46612799 0.47184199 -0.74839199 1.905766e-42
-14.50360000 10.26820000 441.36700000 -0.44693199 0.50713998 -0.73692602 1.905766e-42
-14.10060000 11.77540000 442.26401000 -0.42793399 0.54230303 -0.72303498 1.905766e-42
-13.42300000 13.22120000 443.09500000 -0.40773901 0.57632101 -0.70823902 1.905766e-42
-12.79650000 14.67320000 443.95499000 -0.38920000 0.60769802 -0.69226199 1.905766e-42
-12.79870000 15.97690000 445.19601000 -0.38186100 0.63355702 -0.67289501 1.905766e-42
-12.71540000 17.28500000 446.42999000 -0.37506601 0.65856600 -0.65239298 1.905766e-42
-12.85730000 18.49340100 447.75699000 -0.37384900 0.68040901 -0.63030201 1.905766e-42
-12.37860000 19.80670000 448.89099000 -0.36348400 0.70282298 -0.61148900 1.905766e-42
-12.41230000 20.94269900 450.28601000 -0.36057201 0.72248298 -0.58992100 1.905766e-42
-11.98510000 22.13419900 451.56601000 -0.34843200 0.74551302 -0.56815898 1.905766e-42
-11.46360000 23.28570000 452.84799000 -0.33382499 0.76943398 -0.54454702 1.905766e-42
-10.77600000 24.43770000 454.04800000 -0.31617901 0.79362601 -0.51979703 1.905766e-42
-10.36280000 25.49060100 455.44800000 -0.30347401 0.81628501 -0.49151000 1.905766e-42
-10.00430000 26.28560100 457.02301000 -0.29360899 0.83726299 -0.46128500 1.905766e-42
-9.11182980 27.18860100 458.29901000 -0.27896899 0.85689002 -0.43349299 1.905766e-42
-8.49417020 28.24449900 459.61899000 -0.27129799 0.87250400 -0.40636799 1.905766e-42
-8.11406990 29.13649900 461.13501000 -0.26945999 0.88235098 -0.38580900 1.905766e-42
-7.59236000 29.97489900 462.64001000 -0.26899499 0.89134300 -0.36489600 1.905766e-42
-7.08147000 30.76499900 464.17499000 -0.27097401 0.89943397 -0.34291500 1.905766e-42
-6.64022020 31.45200000 465.77899000 -0.27489901 0.90684098 -0.31948501 1.905766e-42
-6.08253000 32.14790000 467.34299000 -0.28131899 0.91286999 -0.29585201 1.905766e-42
-5.73218010 32.79990000 468.98300000 -0.28316799 0.92019600 -0.27028799 1.905766e-42
-5.12732980 33.36360200 470.58200000 -0.26998600 0.93134898 -0.24433000 1.905766e-42
-4.27960010 34.00000000 472.03699000 -0.25158501 0.94282001 -0.21862100 1.905766e-42
-3.24363990 34.54410200 473.40500000 -0.23102599 0.95244497 -0.19868401 1.905766e-42
-2.50634000 35.04200000 474.97000000 -0.21595800 0.96030599 -0.17656399 1.905766e-42
-1.73005000 35.35080000 476.56400000 -0.20194399 0.96718800 -0.15416300 1.905766e-42
-0.67780000 35.80939900 477.95099000 -0.18515500 0.97355801 -0.13379900 1.905766e-42
0.51770502 36.33720000 479.18799000 -0.16797499 0.97898299 -0.11566000 1.905766e-42
1.38550000 36.68460100 480.72699000 -0.15675899 0.98313099 -0.09423740 1.905766e-42
2.12596990 36.88489900 482.35501000 -0.14858700 0.98627901 -0.07193970 1.905766e-42
2.96673010 37.02679800 483.94000000 -0.13490300 0.98962700 -0.04939250 1.905766e-42
4.09983020 37.25910200 485.31900000 -0.11610100 0.99281102 -0.02910570 1.905766e-42
5.19505980 37.37990200 486.74301000 -0.09839220 0.99511403 -0.00817822 1.905766e-42
5.48808000 37.46210100 488.51700000 -0.09298330 0.99552000 0.01713580 1.905766e-42
5.85289000 37.36230100 490.27701000 -0.09023910 0.99427700 0.05718290 1.905766e-42
6.38381000 37.25619900 491.98499000 -0.08587520 0.99135500 0.09919970 1.905766e-42
6.86166000 37.12080000 493.71500000 -0.08153760 0.98741299 0.13552800 1.905766e-42
7.15334990 36.87419900 495.47400000 -0.07939100 0.98263299 0.16771699 1.905766e-42
7.62603000 36.64960100 497.19601000 -0.07510290 0.97792602 0.19498700 1.905766e-42
7.02502010 36.24639900 498.84399000 -0.08174120 0.97235399 0.21873900 1.905766e-42
6.62131980 35.88840100 500.56201000 -0.08467710 0.96700698 0.24026600 1.905766e-42
7.09911010 35.57280000 502.26801000 -0.08068770 0.96231002 0.25970799 1.905766e-42
8.00716020 35.20840100 503.77899000 -0.07178950 0.95841002 0.27621901 1.905766e-42
7.31399010 34.51789900 505.29001000 -0.07923840 0.95352000 0.29072601 1.905766e-42
7.07470990 34.03609800 507.00800000 -0.07784270 0.94870299 0.30643800 1.905766e-42
6.43455980 33.17030000 508.45001000 -0.08126500 0.94441801 0.31854299 1.905766e-42
6.40706010 32.60210000 510.15799000 -0.07606030 0.93989700 0.33287799 1.905766e-42
6.36043980 31.94420100 511.83301000 -0.06934570 0.93539399 0.34674200 1.905766e-42
6.27509020 31.10780000 513.42401000 -0.06293660 0.93130201 0.35877001 1.905766e-42
7.97179990 31.25939900 514.00598000 -0.03817730 0.92925799 0.36745301 1.905766e-42
9.76690960 31.26490000 514.13800000 -0.01449000 0.92683601 0.37518600 1.905766e-42
11.49120000 31.53109900 513.69501000 0.00544953 0.92448598 0.38117799 1.905766e-42
13.28710000 31.61619900 513.60901000 0.02645480 0.92224401 0.38570100 1.905766e-42
15.08370000 31.50639900 513.59302000 0.04707530 0.91932303 0.39067701 1.905766e-42
16.87109900 31.29400100 513.59399000 0.06142560 0.91719401 0.39367801 1.905766e-42
18.66460000 31.24250000 513.45001000 0.07495500 0.91700602 0.39176700 1.905766e-42
20.38550000 30.73460000 513.59399000 0.08918550 0.91613698 0.39081800 1.905766e-42
22.16510000 30.57970000 513.37299000 0.10775900 0.91751999 0.38281301 1.905766e-42
23.66430100 31.08449900 512.51398000 0.13048300 0.92056000 0.36816400 1.905766e-42
25.27840000 31.29610100 511.74600000 0.15795401 0.92199600 0.35351601 1.905766e-42
26.59910000 31.49690100 510.53900000 0.18612100 0.92286599 0.33715999 1.905766e-42
27.61270000 31.78280100 509.07999000 0.20812500 0.92436099 0.31975099 1.905766e-42
28.88960100 31.90070000 507.81601000 0.23241000 0.92445999 0.30225599 1.905766e-42
30.34680000 31.65970000 506.78799000 0.25947601 0.92238402 0.28614700 1.905766e-42
31.74239900 31.77249900 505.65601000 0.28628799 0.91936803 0.26981699 1.905766e-42
33.16239900 31.36599900 504.62799000 0.31531900 0.91404903 0.25512499 1.905766e-42
34.61970100 31.27570000 503.57501000 0.34430099 0.90744698 0.24082500 1.905766e-42
35.95439900 31.14170100 502.37500000 0.37185901 0.90007901 0.22710900 1.905766e-42
37.33240100 30.64979900 501.32599000 0.40146399 0.89011502 0.21568801 1.905766e-42
38.74079900 30.13540100 500.32999000 0.42847201 0.87988001 0.20548099 1.905766e-42
39.23930000 30.47740000 498.63501000 0.43666300 0.87878698 0.19250600 1.905766e-42
40.04470100 30.47470100 497.02499000 0.44563299 0.87738198 0.17779900 1.905766e-42
41.16510000 30.20350100 495.64301000 0.45854601 0.87435901 0.15884800 1.905766e-42
42.16050000 29.69039900 494.23401000 0.47304401 0.87006098 0.13865000 1.905766e-42
43.14630100 29.55439900 492.73401000 0.48653299 0.86583900 0.11665700 1.905766e-42
44.43220100 28.98270000 491.61099000 0.50624800 0.85656798 0.10001900 1.905766e-42
45.49200100 28.49160000 490.24200000 0.52415502 0.84779698 0.08063200 1.905766e-42
46.37749900 28.04060000 488.74100000 0.53995800 0.83954400 0.06009720 1.905766e-42
47.56150100 27.32889900 487.58701000 0.56194401 0.82594901 0.04502760 1.905766e-42
48.74430100 26.55430000 486.47299000 0.58498800 0.81042999 0.03149890 1.905766e-42
49.79219800 25.77949900 485.23099000 0.60621101 0.79511398 0.01736800 1.905766e-42
50.97380100 24.95170000 484.15500000 0.62973702 0.77678001 0.00663077 1.905766e-42
51.77470000 24.34320100 482.66199000 0.64612299 0.76307100 -0.01575170 1.905766e-42
52.92330200 23.44240000 481.60901000 0.66354698 0.74742502 -0.03257950 1.905766e-42
53.77479900 22.33040000 480.47800000 0.67695701 0.73423302 -0.05129130 1.905766e-42
54.80030100 21.28220000 479.43500000 0.69189900 0.71883500 -0.06747370 1.905766e-42
55.46450000 20.51260000 477.94901000 0.70206398 0.70665503 -0.08801160 1.905766e-42
56.44070100 19.41400000 476.91000000 0.71769398 0.68900800 -0.10090800 1.905766e-42
57.21300100 18.31480000 475.71201000 0.73163599 0.67200899 -0.11451300 1.905766e-42
58.06560100 17.18260000 474.60199000 0.74712002 0.65286201 -0.12482900 1.905766e-42
58.99950000 15.74900000 474.04300000 0.77098203 0.62303501 -0.13196200 1.905766e-42
59.43629800 15.02230000 472.45499000 0.77986300 0.60530102 -0.15945201 1.905766e-42
60.16289900 13.81350000 471.33701000 0.79657298 0.57813102 -0.17673600 1.905766e-42
61.00040100 12.47700000 470.46899000 0.81425297 0.54960501 -0.18688600 1.905766e-42
61.61539800 10.96060000 469.71899000 0.82941198 0.52397603 -0.19371399 1.905766e-42
61.61669900 9.24837020 470.27499000 0.84708399 0.50060803 -0.17843699 1.905766e-42
62.31000100 8.20285030 468.98401000 0.85008103 0.49024501 -0.19241001 1.905766e-42
63.00579800 7.22148990 467.64499000 0.84882802 0.48590800 -0.20829099 1.905766e-42
63.52859900 5.97595980 466.45499000 0.84546900 0.48561200 -0.22217800 1.905766e-42
64.05519900 4.82081990 465.17899000 0.83939302 0.48297700 -0.24930400 1.905766e-42
64.25360100 3.78897000 463.71799000 0.83058602 0.47528899 -0.29021800 1.905766e-42
64.41619900 2.58994010 462.38501000 0.82332599 0.46323100 -0.32794899 1.905766e-42
64.26450300 1.76573000 460.79199000 0.81139702 0.45069900 -0.37216300 1.905766e-42
64.33689900 0.52751899 459.48700000 0.80479598 0.43211901 -0.40691200 1.905766e-42
64.50379900 -0.94512701 458.46600000 0.80213100 0.40933901 -0.43477401 1.905766e-42
64.33020000 -2.11452010 457.10901000 0.79488802 0.38673401 -0.46753600 1.905766e-42
64.26280200 -3.57401990 456.05701000 0.79196501 0.35993099 -0.49319500 1.905766e-42
64.19229900 -5.25806000 455.42599000 0.79320103 0.33796099 -0.50657099 1.905766e-42
64.05249800 -6.39968010 454.04099000 0.78789002 0.32361799 -0.52392900 1.905766e-42
63.90620000 -7.73019980 452.83801000 0.78323698 0.30717501 -0.54053998 1.905766e-42
63.66590100 -9.00020980 451.58499000 0.77704400 0.29067501 -0.55831099 1.905766e-42
63.30939900 -10.29880000 450.39001000 0.77014601 0.27349499 -0.57625997 1.905766e-42
62.94889800 -11.72690000 449.35599000 0.76385498 0.25483200 -0.59294701 1.905766e-42
62.36109900 -12.93350000 448.15601000 0.75513399 0.23760800 -0.61099601 1.905766e-42
62.13489900 -14.55210000 447.40201000 0.75074202 0.21673100 -0.62402999 1.905766e-42
61.76540000 -16.01210000 446.41599000 0.74398100 0.19786900 -0.63823199 1.905766e-42
61.11809900 -17.27660000 445.31100000 0.73333901 0.17940800 -0.65576500 1.905766e-42
60.40729900 -18.50050000 444.19901000 0.72053999 0.15929200 -0.67486900 1.905766e-42
59.72499800 -19.81189900 443.17200000 0.70672399 0.13665000 -0.69416702 1.905766e-42
58.75949900 -20.84289900 442.05600000 0.68994999 0.11479600 -0.71469700 1.905766e-42
57.78559900 -21.95900000 441.03299000 0.67259997 0.09103730 -0.73438501 1.905766e-42
57.58290100 -23.71180000 440.67700000 0.66241097 0.06282580 -0.74650198 1.905766e-42
56.58470200 -24.84830100 439.70200000 0.64462298 0.03710890 -0.76359898 1.905766e-42
55.69260000 -26.19440100 438.90701000 0.62751597 0.00580281 -0.77858198 1.905766e-42
54.43590200 -26.94440100 437.85901000 0.60769600 -0.01847210 -0.79395503 1.905766e-42
53.19649900 -27.88229900 436.95099000 0.58592802 -0.04285480 -0.80922902 1.905766e-42
51.93980000 -28.91060100 436.17401000 0.56174201 -0.06577490 -0.82469398 1.905766e-42
50.72760000 -30.02809900 435.45200000 0.53979802 -0.08844230 -0.83713502 1.905766e-42
49.90720000 -31.61920000 435.26300000 0.52488202 -0.11498100 -0.84337300 1.905766e-42
49.13359800 -33.24309900 435.19699000 0.51128900 -0.13946500 -0.84801799 1.905766e-42
48.01860000 -34.46440100 434.48599000 0.49478900 -0.15872000 -0.85439599 1.905766e-42
46.57109800 -35.36759900 433.91199000 0.48069200 -0.17404100 -0.85944402 1.905766e-42
44.98730100 -35.70449800 433.12601000 0.47073001 -0.18125100 -0.86345899 1.905766e-42
43.68690100 -36.92440000 432.88000000 0.46454701 -0.19731000 -0.86328799 1.905766e-42
42.24689900 -37.59429900 432.03299000 0.45264301 -0.20280901 -0.86832201 1.905766e-42
40.80170100 -38.55789900 431.56100000 0.42388600 -0.20910400 -0.88124698 1.905766e-42
39.35929900 -39.58369800 431.23300000 0.39397299 -0.21656001 -0.89324498 1.905766e-42
37.82590100 -40.44760100 430.85501000 0.36029199 -0.21918800 -0.90672302 1.905766e-42
36.31060000 -40.03130000 429.97800000 0.32099101 -0.21351799 -0.92269999 1.905766e-42
34.81829800 -39.37950100 429.21100000 0.28386000 -0.20983499 -0.93562400 1.905766e-42
33.53739900 -38.31710100 428.52499000 0.25494301 -0.20187500 -0.94564801 1.905766e-42
33.04119900 -36.62770100 428.15100000 0.25058401 -0.18685700 -0.94989097 1.905766e-42
32.28080000 -35.06069900 427.69699000 0.24311700 -0.17251700 -0.95453203 1.905766e-42
30.69440100 -34.39740000 427.16400000 0.22172800 -0.16929699 -0.96030003 1.905766e-42
29.12130000 -33.67549900 426.67001000 0.20133300 -0.16510300 -0.96550798 1.905766e-42
27.36070100 -33.45209900 426.37000000 0.17806201 -0.16702799 -0.96973997 1.905766e-42
25.56870100 -33.30789900 426.27899000 0.15522100 -0.16999200 -0.97314399 1.905766e-42
23.91700000 -32.81200000 425.76401000 0.13539100 -0.16759799 -0.97651398 1.905766e-42
22.31810000 -32.06200000 425.41501000 0.12187000 -0.16236600 -0.97917598 1.905766e-42
20.53529900 -32.00999800 425.17300000 0.10494200 -0.16508500 -0.98067999 1.905766e-42
18.82880000 -31.54450000 424.84000000 0.08943360 -0.16163699 -0.98278999 1.905766e-42
17.08880000 -31.12439900 424.64999000 0.07340950 -0.15822500 -0.98466998 1.905766e-42
15.36300000 -30.63260100 424.51001000 0.05736610 -0.15328300 -0.98651600 1.905766e-42
13.58260000 -30.42900100 424.34100000 0.03723860 -0.15073800 -0.98787200 1.905766e-42
11.78380000 -30.37929900 424.29501000 -0.00215913 -0.14652200 -0.98920500 1.905766e-42
9.98610020 -30.32860000 424.36899000 -0.04377900 -0.14169900 -0.98894101 1.905766e-42
8.21592040 -30.38600000 424.69000000 -0.08692710 -0.13810800 -0.98659497 1.905766e-42
6.42599010 -30.39520100 424.88000000 -0.13240901 -0.13358600 -0.98215199 1.905766e-42
4.63200000 -30.33770000 425.01599000 -0.17900801 -0.12885100 -0.97537398 1.905766e-42
2.91133000 -30.68129900 425.41699000 -0.21926400 -0.12969001 -0.96700799 1.905766e-42
