# .PCD v0.7 - Point Cloud Data file format
# 3 69 0
# 1 25 0
# 26 45 0
# 46 69 0
VERSION 0.7
FIELDS x y z normal_x normal_y normal_z curvature
SIZE 4 4 4 4 4 4 4
TYPE F F F F F F F
COUNT 1 1 1 1 1 1 1
WIDTH 69
HEIGHT 1
VIEWPOINT 0 0 0 1 0 0 0
POINTS 69
DATA ascii
43.490898 11.1865 461.25 0.096800297 -0.77976799 0.61853999 1.9057659e-42
41.705101 11.1747 461.47501 0.082880698 -0.76523697 0.63839102 1.9057659e-42
39.909199 11.143 461.59299 0.065573297 -0.75080699 0.65725899 1.9057659e-42
38.1115 11.0604 461.63101 0.0425159 -0.73775101 0.673733 1.9057659e-42
36.459499 11.4803 462.20901 0.026234601 -0.72426403 0.68902302 1.9057659e-42
34.872601 12.0277 462.85901 0.018505899 -0.71614599 0.69770497 1.9057659e-42
33.188702 12.558 463.20999 0.017287601 -0.71834397 0.69547302 1.9057659e-42
31.3936 12.4407 463.271 0.0047371201 -0.72073799 0.69319099 1.9057659e-42
29.714399 12.93 463.69601 -0.0163313 -0.72276503 0.69090098 1.9057659e-42
28.0147 13.3715 464.09201 -0.039078701 -0.72015399 0.69271302 1.9057659e-42
26.2299 13.1594 463.995 -0.066863403 -0.72161698 0.68905598 1.9057659e-42
22.6588 13.9423 464.099 -0.15592299 -0.70219898 0.69469798 1.9057659e-42
20.9156 14.3855 464.16901 -0.19972201 -0.68657398 0.69909102 1.9057659e-42
19.1686 14.7365 463.914 -0.20423201 -0.67608798 0.70795101 1.9057659e-42
17.506399 15.4229 463.83899 -0.20792601 -0.66453898 0.71774298 1.9057659e-42
15.8116 16.0208 463.737 -0.209425 -0.65632999 0.72482502 1.9057659e-42
14.0173 16.125 463.638 -0.225677 -0.65388697 0.72215098 1.9057659e-42
12.3391 16.7682 463.539 -0.24724001 -0.64929098 0.71923101 1.9057659e-42
10.57 17.0525 463.36801 -0.26874101 -0.64558703 0.71483898 1.9057659e-42
8.9342403 17.8009 463.302 -0.28786799 -0.63725001 0.71487403 1.9057659e-42
7.2189698 18.3214 463.138 -0.30763999 -0.63045901 0.71265602 1.9057659e-42
5.5910001 19.080799 463.02301 -0.32812399 -0.62238902 0.71060997 1.9057659e-42
3.9930201 19.889299 462.84201 -0.35240901 -0.61591798 0.70459402 1.9057659e-42
2.3487201 20.6047 462.686 -0.37998599 -0.61188698 0.69368899 1.9057659e-42
0.67008001 21.1497 462.332 -0.39867699 -0.61053598 0.68432599 1.9057659e-42
-0.89749098 21.983299 462.03601 -0.405157 -0.61485302 0.67661202 1.9057659e-42
-0.90784103 20.7181 460.755 -0.41496801 -0.61519599 0.67032498 1.9057659e-42
-0.66548002 19.2603 459.728 -0.412718 -0.62968999 0.65814501 1.9057659e-42
-0.180015 17.860201 458.70599 -0.406578 -0.65734899 0.63449699 1.9057659e-42
0.16097 16.5895 457.47699 -0.406883 -0.678321 0.61182302 1.9057659e-42
0.98716301 15.264 456.58301 -0.40601701 -0.69063997 0.59846997 1.9057659e-42
1.06007 14.2332 455.10901 -0.411531 -0.703462 0.57946903 1.9057659e-42
1.81866 12.8718 454.20801 -0.40829799 -0.715554 0.56681198 1.9057659e-42
2.54055 11.5962 453.16299 -0.40373099 -0.730645 0.55059999 1.9057659e-42
3.0211501 10.4129 451.89499 -0.40110299 -0.74749899 0.52949297 1.9057659e-42
3.2632899 9.3387098 450.47101 -0.40139401 -0.76319599 0.506374 1.9057659e-42
3.7451701 8.2460299 449.12399 -0.400314 -0.77520901 0.488671 1.9057659e-42
4.3251901 7.1304002 447.836 -0.398716 -0.78757501 0.469841 1.9057659e-42
5.1210098 6.0739198 446.61499 -0.39690199 -0.79942501 0.450986 1.9057659e-42
5.7063098 5.1016698 445.21799 -0.396442 -0.81164801 0.429023 1.9057659e-42
6.58251 3.9658301 444.13101 -0.39701101 -0.82147801 0.409336 1.9057659e-42
7.3492098 2.97944 442.83499 -0.39329299 -0.82942498 0.396705 1.9057659e-42
8.0305595 2.0699 441.439 -0.39102799 -0.83851397 0.37946099 1.9057659e-42
8.9438 1.07207 440.25201 -0.381024 -0.85850102 0.343216 1.9057659e-42
9.7505102 0.215139 438.89001 -0.37209901 -0.87315297 0.31487399 1.9057659e-42
10.9143 -0.65960997 437.83099 -0.35767999 -0.882954 0.30406699 1.9057659e-42
12.3258 -0.80654901 438.939 -0.328356 -0.88440299 0.33168399 1.9057659e-42
13.8573 -0.76664698 439.884 -0.29098499 -0.886042 0.36091101 1.9057659e-42
14.8125 -0.63322002 441.40302 -0.26078999 -0.88229901 0.391839 1.9057659e-42
16.138599 -0.494771 442.61301 -0.22941899 -0.87898999 0.41802299 1.9057659e-42
17.1492 0.00484097 444.01599 -0.209565 -0.87005103 0.446199 1.9057659e-42
18.9296 -0.0025895799 444.28101 -0.174503 -0.875543 0.45052499 1.9057659e-42
20.0364 0.29780501 445.668 -0.154438 -0.86698699 0.473795 1.9057659e-42
21.5613 0.67979997 446.54501 -0.12756599 -0.86502701 0.48523799 1.9057659e-42
22.8729 1.06086 447.71701 -0.107928 -0.86256701 0.49429801 1.9057659e-42
24.169901 1.47177 448.896 -0.086234398 -0.85796899 0.50641102 1.9057659e-42
25.693399 1.99955 449.69601 -0.054756001 -0.85404998 0.51730001 1.9057659e-42
26.931999 2.56986 450.871 -0.033523802 -0.84489501 0.53388 1.9057659e-42
28.5457 3.10448 451.46301 -0.0063726301 -0.847256 0.531147 1.9057659e-42
29.922899 3.66466 452.47699 0.0040961099 -0.84723002 0.53121102 1.9057659e-42
31.150499 4.2617502 453.64999 0.012397 -0.83762503 0.54610503 1.9057659e-42
32.6553 4.8577499 454.43799 0.033559799 -0.829005 0.55823302 1.9057659e-42
33.982101 5.5823798 455.41501 0.048359599 -0.81469798 0.577865 1.9057659e-42
35.4897 6.2473402 456.14001 0.065008901 -0.80524701 0.58936399 1.9057659e-42
36.9403 7.0612898 456.828 0.082958199 -0.79484999 0.60110903 1.9057659e-42
38.188999 7.76965 457.91299 0.097584501 -0.781192 0.61661601 1.9057659e-42
39.603199 8.5946198 458.66101 0.11132 -0.77448201 0.622724 1.9057659e-42
41.034199 9.3956604 459.40302 0.10915 -0.77486998 0.62262601 1.9057659e-42
42.458599 10.2008 460.15399 0.107044 -0.77910799 0.61768299 1.9057659e-42
