# .PCD v0.7 - Point Cloud Data file format
# 4 91 0
# 1 34 0
# 35 51 0
# 52 78 0
# 79 91 0
VERSION 0.7
FIELDS x y z normal_x normal_y normal_z curvature
SIZE 4 4 4 4 4 4 4
TYPE F F F F F F F
COUNT 1 1 1 1 1 1 1
WIDTH 91
HEIGHT 1
VIEWPOINT 0 0 0 1 0 0 0
POINTS 91
DATA ascii
42.02800000 22.37680100 463.39999000 0.20210500 -0.75006998 0.62972099 1.905766e-42
40.29069900 22.29999900 463.86401000 0.18471800 -0.73925799 0.64759302 1.905766e-42
38.52990000 22.05279900 464.14401000 0.16647600 -0.73015702 0.66268897 1.905766e-42
36.78419900 22.19870000 464.55801000 0.14380400 -0.71449202 0.68470502 1.905766e-42
34.99969900 22.22769900 464.79199000 0.11735500 -0.70737898 0.69702399 1.905766e-42
33.23149900 21.89069900 464.78699000 0.08523150 -0.71070200 0.69831097 1.905766e-42
31.45590000 21.59700000 464.75800000 0.05454990 -0.71228898 0.69976401 1.905766e-42
28.11969900 21.37870000 464.67700000 0.00398802 -0.70763099 0.70657098 1.905766e-42
26.40259900 21.02249900 464.27200000 -0.01773720 -0.71692699 0.69692200 1.905766e-42
24.68770000 21.53450000 464.46399000 -0.04476450 -0.69849199 0.71421599 1.905766e-42
22.91270100 21.27940000 464.30899000 -0.06865680 -0.70050400 0.71033800 1.905766e-42
21.16670000 21.00239900 463.97000000 -0.09104230 -0.70704001 0.70128900 1.905766e-42
19.42000000 21.39290000 463.77899000 -0.11414700 -0.70090097 0.70406598 1.905766e-42
17.65239900 21.31979900 463.44699000 -0.14049900 -0.70570803 0.69443202 1.905766e-42
15.91700000 21.07379900 463.03699000 -0.16543600 -0.71462500 0.67966402 1.905766e-42
14.17580000 21.07690000 462.58099000 -0.18986000 -0.72049701 0.66696101 1.905766e-42
12.45330000 21.59650000 462.52701000 -0.21169500 -0.71320599 0.66822302 1.905766e-42
10.70260000 21.68930100 462.11801000 -0.23766001 -0.71685100 0.65547198 1.905766e-42
8.99433040 22.21900000 461.91501000 -0.26552799 -0.70917797 0.65311599 1.905766e-42
7.27720020 22.38600000 461.40201000 -0.29532701 -0.70658600 0.64305401 1.905766e-42
5.59325980 22.95000100 461.10800000 -0.32773501 -0.69230503 0.64288700 1.905766e-42
3.91420010 23.18820000 460.50500000 -0.35649800 -0.68303102 0.63747698 1.905766e-42
2.27325010 23.21590000 459.76599000 -0.37832999 -0.67879200 0.62937099 1.905766e-42
0.67165399 23.97069900 459.44199000 -0.40656999 -0.65445799 0.63748401 1.905766e-42
-0.88928699 24.00200100 458.54599000 -0.42631900 -0.65125501 0.62778801 1.905766e-42
-2.40335990 24.85660000 458.07999000 -0.45485100 -0.62162000 0.63773000 1.905766e-42
-3.99174000 25.19570000 457.30399000 -0.46963400 -0.60980499 0.63842100 1.905766e-42
-5.56697990 25.60210000 456.53299000 -0.48528600 -0.60078502 0.63525897 1.905766e-42
-7.11034010 25.81119900 455.63101000 -0.50097299 -0.60464001 0.61922199 1.905766e-42
-8.56886960 26.44000100 454.78400000 -0.51972699 -0.59995598 0.60822397 1.905766e-42
-10.08620000 26.57360100 453.82501000 -0.54669797 -0.61043501 0.57314098 1.905766e-42
-11.50160000 27.23040000 452.92801000 -0.56925100 -0.60613799 0.55547303 1.905766e-42
-12.94540000 27.43300100 451.87201000 -0.58533800 -0.61377901 0.52976900 1.905766e-42
-14.27270000 27.85780000 450.73300000 -0.59878701 -0.61500102 0.51305598 1.905766e-42
-15.31900000 27.66620100 449.28101000 -0.59683001 -0.65024400 0.47008201 1.905766e-42
-14.78050000 26.42370000 448.09500000 -0.57595199 -0.70575798 0.41253600 1.905766e-42
-14.13090000 25.21250000 446.93201000 -0.57280999 -0.70705301 0.41468599 1.905766e-42
-13.33710000 23.96690000 445.90399000 -0.57324201 -0.70472598 0.41803801 1.905766e-42
-12.74300000 22.80260100 444.66599000 -0.57398701 -0.70567602 0.41540399 1.905766e-42
-11.79850000 21.50050000 443.85800000 -0.56919301 -0.70958501 0.41534200 1.905766e-42
-10.97620000 20.25830100 442.84799000 -0.56546903 -0.71096301 0.41806200 1.905766e-42
-10.50890000 19.12380000 441.53101000 -0.56589502 -0.70856702 0.42153999 1.905766e-42
-9.77017020 17.90130000 440.43600000 -0.56415099 -0.70823699 0.42442101 1.905766e-42
-9.02311040 16.73700000 439.28400000 -0.56020999 -0.71415001 0.41970801 1.905766e-42
-8.35743050 15.51930000 438.13800000 -0.55545002 -0.72118998 0.41395599 1.905766e-42
-7.56967020 14.26000000 437.12100000 -0.55315399 -0.71907002 0.42066601 1.905766e-42
-6.86082980 13.19270000 435.85699000 -0.55372000 -0.71368402 0.42900899 1.905766e-42
-5.94939990 11.83180000 435.10999000 -0.55287403 -0.70835900 0.43881500 1.905766e-42
-5.21995020 10.52950000 434.10400000 -0.55362099 -0.69984901 0.45134801 1.905766e-42
-4.51129010 9.27136990 433.03000000 -0.55248499 -0.69247401 0.46393999 1.905766e-42
-3.31698990 8.02686020 432.51501000 -0.54430902 -0.69564599 0.46883300 1.905766e-42
-2.56552000 6.76364990 431.47601000 -0.53180498 -0.69893199 0.47820199 1.905766e-42
-1.05546000 6.03646990 432.13199000 -0.50522500 -0.71463603 0.48378101 1.905766e-42
0.55495799 5.35197020 432.55399000 -0.48063600 -0.72905803 0.48730099 1.905766e-42
1.79958000 5.24353980 433.85001000 -0.46359700 -0.73623198 0.49299201 1.905766e-42
3.37846990 4.79359010 434.58801000 -0.43826601 -0.74583799 0.50164598 1.905766e-42
4.78456020 4.77148010 435.71201000 -0.41125900 -0.75189298 0.51528901 1.905766e-42
6.29305980 4.67634010 436.68900000 -0.38348401 -0.75758201 0.52821398 1.905766e-42
7.91874980 4.45987990 437.43100000 -0.35414299 -0.76483101 0.53816098 1.905766e-42
9.27925970 4.60638000 438.60001000 -0.33087701 -0.76327598 0.55491400 1.905766e-42
10.94000000 4.46946000 439.28101000 -0.29651499 -0.77021003 0.56467301 1.905766e-42
12.45760000 4.55923990 440.24500000 -0.26736501 -0.77116698 0.57776999 1.905766e-42
14.05220000 4.67300990 441.07199000 -0.23768499 -0.77786398 0.58174998 1.905766e-42
15.76420000 4.56912990 441.61801000 -0.20355400 -0.79022199 0.57802701 1.905766e-42
17.37960100 4.80867000 442.37500000 -0.17620599 -0.79755998 0.57693100 1.905766e-42
19.13400100 4.92524000 442.76001000 -0.14236800 -0.80767298 0.57218599 1.905766e-42
20.83060100 5.07208010 443.34399000 -0.11020900 -0.81375599 0.57066202 1.905766e-42
22.48119900 5.22822000 444.04401000 -0.07945140 -0.81643498 0.57194501 1.905766e-42
24.09930000 5.50547980 444.78299000 -0.05368180 -0.81587702 0.57572901 1.905766e-42
25.89670000 5.60154010 444.77899000 -0.02535330 -0.82598901 0.56311601 1.905766e-42
27.69370100 5.70411010 444.78900000 0.00111786 -0.83317202 0.55301398 1.905766e-42
29.45450000 5.91458990 445.09799000 0.02370520 -0.83225203 0.55389100 1.905766e-42
31.15550000 6.19806000 445.61401000 0.04471490 -0.82490802 0.56349599 1.905766e-42
32.91700000 6.39964010 445.92401000 0.07232330 -0.81894302 0.56929898 1.905766e-42
34.65900000 6.41297010 445.47101000 0.09966670 -0.82320100 0.55893302 1.905766e-42
36.39310100 6.59832000 445.02600000 0.12305600 -0.82064497 0.55803102 1.905766e-42
38.14849900 6.79200980 445.37299000 0.14825600 -0.80346501 0.57659698 1.905766e-42
39.85440100 6.86568020 444.80399000 0.15424199 -0.77893800 0.60783601 1.905766e-42
40.93320100 7.79062990 445.90900000 0.17961299 -0.77429003 0.60680699 1.905766e-42
41.55699900 9.11238960 446.95901000 0.19257200 -0.75905597 0.62189198 1.905766e-42
41.61719900 10.08320000 448.47400000 0.19582500 -0.74983197 0.63198400 1.905766e-42
41.68119800 11.18140000 449.89801000 0.20011000 -0.75762099 0.62126100 1.905766e-42
41.42260000 12.28370000 451.29800000 0.20097300 -0.76524198 0.61156702 1.905766e-42
41.84450100 13.45190000 452.60101000 0.20371801 -0.76051003 0.61654103 1.905766e-42
42.37289800 14.66160000 453.82401000 0.20742300 -0.75626701 0.62051201 1.905766e-42
42.40370200 15.77430000 455.23901000 0.20740700 -0.75566000 0.62125701 1.905766e-42
42.55390200 16.96069900 456.58401000 0.20899101 -0.75707501 0.61899900 1.905766e-42
42.90250000 18.21550000 457.82700000 0.21235000 -0.75788200 0.61686599 1.905766e-42
42.70470000 19.17720000 459.33499000 0.21142700 -0.75785500 0.61721402 1.905766e-42
42.99570100 20.36829900 460.65302000 0.21479701 -0.75671101 0.61745501 1.905766e-42
42.82609900 21.48100100 462.05801000 0.21287499 -0.75240397 0.62335598 1.905766e-42
