# .PCD v0.7 - Point Cloud Data file format
# 4 152 -2
# 1 28 0
# 29 75 0
# 76 128 0
# 129 152 0
VERSION 0.7
FIELDS x y z normal_x normal_y normal_z curvature
SIZE 4 4 4 4 4 4 4
TYPE F F F F F F F
COUNT 1 1 1 1 1 1 1
WIDTH 152
HEIGHT 1
VIEWPOINT 0 0 0 1 0 0 0
POINTS 152
DATA ascii
30.70660000 -2.55125000 428.78101000 -0.02202710 0.80412698 -0.59404898 1.905766e-42
28.91470000 -2.38348010 428.81500000 -0.00101559 0.81796497 -0.57526702 1.905766e-42
27.11930100 -2.26169990 428.85400000 0.00721962 0.83236003 -0.55418801 1.905766e-42
25.34030000 -2.03288010 429.00500000 0.00333129 0.84689200 -0.53175402 1.905766e-42
23.63800000 -1.62750010 429.42599000 -0.00386748 0.86166900 -0.50745499 1.905766e-42
21.83860000 -1.61076000 429.46899000 -0.00599675 0.87036502 -0.49237001 1.905766e-42
20.03940000 -1.61901000 429.52499000 -0.00870808 0.87819201 -0.47823000 1.905766e-42
18.24099900 -1.63850000 429.59799000 -0.01184020 0.88559401 -0.46430999 1.905766e-42
16.44199900 -1.69855000 429.59201000 -0.00127705 0.89226300 -0.45151401 1.905766e-42
14.64210000 -1.71684000 429.60199000 0.03553250 0.89700502 -0.44058999 1.905766e-42
12.84690000 -1.60480000 429.66901000 0.07011910 0.89969200 -0.43085700 1.905766e-42
11.05740000 -1.55527000 429.48199000 0.10383300 0.90097499 -0.42126399 1.905766e-42
9.28353980 -1.59097000 429.17801000 0.13430899 0.90081900 -0.41289899 1.905766e-42
7.50217010 -1.55935000 428.92200000 0.16067900 0.89824301 -0.40907401 1.905766e-42
5.74591020 -1.20697000 428.74399000 0.18389900 0.89207500 -0.41277400 1.905766e-42
3.99282000 -0.83849698 428.56799000 0.18848000 0.88803297 -0.41937199 1.905766e-42
2.24103000 -0.78019202 428.15900000 0.18924201 0.88693899 -0.42133901 1.905766e-42
0.64547300 -0.00919256 428.47501000 0.19270100 0.88365799 -0.42663199 1.905766e-42
-1.04795000 -0.00831277 427.86499000 0.19689700 0.88449103 -0.42297500 1.905766e-42
-2.76081990 0.54192102 427.92200000 0.20179901 0.88485003 -0.41990200 1.905766e-42
-4.52221010 0.90483999 427.84601000 0.20779100 0.88710803 -0.41214401 1.905766e-42
-6.26653000 1.32846000 427.98001000 0.21351300 0.89063001 -0.40148500 1.905766e-42
-8.00039010 1.55595000 427.55301000 0.22674100 0.89226902 -0.39044201 1.905766e-42
-10.11990000 1.84658000 427.19699000 0.24016200 0.89175498 -0.38352999 1.905766e-42
-11.86290000 2.28853010 427.27802000 0.25081101 0.88762701 -0.38628000 1.905766e-42
-13.24180000 3.19416000 427.99799000 0.26586801 0.87761199 -0.39888799 1.905766e-42
-14.96110000 3.72705010 427.99500000 0.28174201 0.86588299 -0.41336200 1.905766e-42
-16.66690100 4.30175020 427.98700000 0.32082701 0.84290498 -0.43195000 1.905766e-42
-18.13240100 5.13149020 428.62299000 0.37769800 0.80964798 -0.44923699 1.905766e-42
-19.13380100 6.18163010 429.68799000 0.42408499 0.77962399 -0.46080199 1.905766e-42
-19.99259900 7.40596010 430.69000000 0.46415201 0.75101501 -0.46961600 1.905766e-42
-21.04910100 8.61326980 431.50601000 0.50127101 0.72165900 -0.47742599 1.905766e-42
-21.81410000 9.96788980 432.41101000 0.53080302 0.69529301 -0.48457700 1.905766e-42
-22.56900000 11.18480000 433.50201000 0.55464900 0.67003798 -0.49337000 1.905766e-42
-23.09269900 12.49420000 434.62000000 0.57359499 0.64464098 -0.50539702 1.905766e-42
-23.55509900 13.80450000 435.76401000 0.58890802 0.61452001 -0.52493000 1.905766e-42
-23.90900000 15.15180000 436.90399000 0.60182703 0.58683401 -0.54169202 1.905766e-42
-24.32710100 16.54220000 437.96799000 0.61387497 0.56136203 -0.55500501 1.905766e-42
-24.36570000 17.84240000 439.21301000 0.61968398 0.54216599 -0.56749201 1.905766e-42
-23.89839900 19.02140000 440.48999000 0.61882001 0.52999800 -0.57979602 1.905766e-42
-23.90800100 20.31539900 441.74100000 0.62039000 0.51628399 -0.59039599 1.905766e-42
-23.51040100 21.47839900 443.05600000 0.61591500 0.50693399 -0.60304701 1.905766e-42
-23.15640100 22.64290000 444.38199000 0.60968101 0.49849999 -0.61626798 1.905766e-42
-22.95220000 23.93149900 445.62201000 0.60303199 0.49054500 -0.62906098 1.905766e-42
-22.78960000 25.23200000 446.85599000 0.59437603 0.48390701 -0.64230198 1.905766e-42
-22.73700000 26.51980000 448.11301000 0.58324403 0.47205400 -0.66105402 1.905766e-42
-22.29880000 27.77310000 449.32800000 0.57075500 0.44876301 -0.68764102 1.905766e-42
-21.74790000 28.98300000 450.54199000 0.56169802 0.42411900 -0.71036500 1.905766e-42
-21.41750000 30.29480000 451.72900000 0.55766797 0.39745101 -0.72872400 1.905766e-42
-20.79740000 31.57910000 452.82700000 0.55634099 0.37204900 -0.74300998 1.905766e-42
-19.83580000 32.76670100 453.77899000 0.55676502 0.35127801 -0.75273901 1.905766e-42
-19.48450100 34.16080100 454.86200000 0.56037301 0.32405999 -0.76221198 1.905766e-42
-18.71900000 35.49190100 455.80099000 0.55929297 0.29976001 -0.77287501 1.905766e-42
-17.94529900 36.82220100 456.73401000 0.55544400 0.27526000 -0.78467500 1.905766e-42
-17.24010100 38.19020100 457.66800000 0.54997599 0.24975400 -0.79696202 1.905766e-42
-16.42210000 39.51900100 458.56500000 0.54241300 0.22498301 -0.80942702 1.905766e-42
-15.65690000 40.88620000 459.45099000 0.53473997 0.20005099 -0.82099497 1.905766e-42
-14.85450000 42.25890000 460.29501000 0.52765000 0.18036200 -0.83009303 1.905766e-42
-14.21040000 43.75799900 461.05499000 0.51955199 0.15797700 -0.83970797 1.905766e-42
-13.30410000 45.12130000 461.80399000 0.50812298 0.13600799 -0.85047799 1.905766e-42
-12.45930000 46.52489900 462.54901000 0.49611899 0.11245400 -0.86094099 1.905766e-42
-11.42030000 47.74639900 463.36700000 0.48344201 0.08964480 -0.87077397 1.905766e-42
-11.19890000 49.42490000 463.97800000 0.47387800 0.06310650 -0.87832600 1.905766e-42
-9.74954990 50.41759900 464.37100000 0.46213201 0.03914380 -0.88594699 1.905766e-42
-8.83510970 51.82479900 465.02100000 0.44965401 0.00842431 -0.89316303 1.905766e-42
-7.34238000 52.72930100 465.46100000 0.44081101 -0.01948730 -0.89738899 1.905766e-42
-6.46679020 54.25280000 465.85199000 0.42862800 -0.05527210 -0.90178901 1.905766e-42
-5.01772020 55.16370000 466.40900000 0.42520800 -0.08716190 -0.90088898 1.905766e-42
-4.15830990 56.71149800 466.73401000 0.42245099 -0.10693300 -0.90005600 1.905766e-42
-2.77355000 57.73709900 467.25400000 0.41477099 -0.09393140 -0.90506500 1.905766e-42
-1.54203000 58.93909800 467.78201000 0.39958200 -0.08436210 -0.91280699 1.905766e-42
-0.89868802 60.60509900 468.00601000 0.38825700 -0.07516710 -0.91847998 1.905766e-42
0.56337202 61.54620000 468.47198000 0.36298901 -0.07643200 -0.92865300 1.905766e-42
1.61020000 62.97340000 468.79901000 0.33782101 -0.07691290 -0.93806201 1.905766e-42
2.66716000 64.41790000 468.98999000 0.30826601 -0.08025970 -0.94790900 1.905766e-42
4.28441000 65.09349800 469.39999000 0.27569699 -0.09851230 -0.95618302 1.905766e-42
6.00829980 65.22139700 469.90201000 0.24812900 -0.12248300 -0.96095300 1.905766e-42
7.54850010 64.48880000 470.47699000 0.23473001 -0.14253500 -0.96155399 1.905766e-42
9.09109970 63.66090000 470.89600000 0.22281200 -0.15694700 -0.96214497 1.905766e-42
10.66750000 62.91519900 471.34201000 0.21122301 -0.16420300 -0.96354699 1.905766e-42
12.13040000 61.97129800 471.79901000 0.20282300 -0.16122900 -0.96585101 1.905766e-42
13.34450000 60.65969800 472.01199000 0.19587301 -0.14695799 -0.96955502 1.905766e-42
14.77270000 59.71680100 472.57001000 0.18457299 -0.13125101 -0.97401500 1.905766e-42
16.28430000 58.90060000 473.10699000 0.17225701 -0.11195500 -0.97866899 1.905766e-42
17.73329900 57.96680100 473.62601000 0.15861700 -0.08675780 -0.98352098 1.905766e-42
19.04770100 56.74179800 473.73401000 0.14299400 -0.05683550 -0.98808998 1.905766e-42
20.45050000 55.63990000 473.97501000 0.12709001 -0.02813410 -0.99149197 1.905766e-42
22.00359900 54.75930000 474.20401000 0.11135700 -0.00180898 -0.99377900 1.905766e-42
23.25120000 53.46490100 474.11499000 0.09313360 0.02745030 -0.99527502 1.905766e-42
24.56160000 52.23109800 474.09201000 0.07424830 0.05624050 -0.99565297 1.905766e-42
25.87900000 51.00490200 474.06299000 0.05469190 0.08470170 -0.99490398 1.905766e-42
27.43000000 50.09149900 474.04401000 0.03527140 0.11035000 -0.99326700 1.905766e-42
28.70809900 48.82529800 473.98999000 0.01570590 0.13800000 -0.99030799 1.905766e-42
30.06020000 47.63869900 473.92700000 -0.00235744 0.16400300 -0.98645699 1.905766e-42
31.62010000 46.75140000 473.78799000 -0.02028850 0.18652400 -0.98224097 1.905766e-42
32.97570000 45.58990100 473.55801000 -0.03905370 0.20947000 -0.97703499 1.905766e-42
34.47230100 44.62770100 473.28400000 -0.05805760 0.22874700 -0.97175300 1.905766e-42
35.61859900 43.35319900 472.73499000 -0.07566390 0.24641100 -0.96620703 1.905766e-42
36.81349900 42.09310200 472.26199000 -0.09215980 0.26094100 -0.96094602 1.905766e-42
38.40580000 41.31679900 471.94299000 -0.10954700 0.27113801 -0.95628601 1.905766e-42
39.82360100 40.27159900 471.57199000 -0.12253100 0.28414500 -0.95091999 1.905766e-42
41.20389900 39.19940200 471.14200000 -0.13726600 0.29924601 -0.94425100 1.905766e-42
42.44170000 38.05080000 470.51801000 -0.15356199 0.31623700 -0.93616903 1.905766e-42
43.36650100 36.69660200 469.77600000 -0.17030001 0.33412200 -0.92701697 1.905766e-42
44.67279800 35.63449900 469.13901000 -0.18986900 0.35088801 -0.91696602 1.905766e-42
46.13399900 34.81810000 468.47699000 -0.21064401 0.36620599 -0.90637898 1.905766e-42
47.49789800 33.88869900 467.75900000 -0.23162401 0.38056701 -0.89527601 1.905766e-42
48.64780000 32.76720000 466.94601000 -0.24290900 0.39345601 -0.88667202 1.905766e-42
49.79090100 31.67289900 466.08899000 -0.25308299 0.42198899 -0.87055999 1.905766e-42
51.21640000 30.85470000 465.35501000 -0.26178899 0.46369201 -0.84643799 1.905766e-42
52.33639900 29.84820000 464.36899000 -0.27051201 0.51539201 -0.81313902 1.905766e-42
53.17660100 28.70509900 463.26099000 -0.27816901 0.57033300 -0.77287900 1.905766e-42
54.45330000 27.92540000 462.26001000 -0.28802401 0.60920697 -0.73885697 1.905766e-42
55.40890100 27.01829900 461.03299000 -0.29559600 0.65110099 -0.69906402 1.905766e-42
56.18339900 26.06069900 459.72101000 -0.30055499 0.69026601 -0.65817899 1.905766e-42
57.00949900 25.20570000 458.36899000 -0.30441099 0.72262299 -0.62060499 1.905766e-42
58.34249900 24.63430000 457.30301000 -0.30452499 0.73313302 -0.60809702 1.905766e-42
59.00479900 23.83350000 455.83301000 -0.30744699 0.74014997 -0.59804201 1.905766e-42
59.65779900 23.04560100 454.35300000 -0.31104299 0.74671400 -0.58793700 1.905766e-42
60.45840100 22.25340100 452.94800000 -0.31514499 0.75306898 -0.57755500 1.905766e-42
61.52909900 21.50009900 451.71301000 -0.31944001 0.75945598 -0.56673199 1.905766e-42
62.45690200 21.09700000 450.22400000 -0.32467300 0.76595902 -0.55488300 1.905766e-42
63.91000000 20.80820100 449.20200000 -0.32813200 0.77323902 -0.54261500 1.905766e-42
64.82669800 20.34690100 447.72299000 -0.33533999 0.78048998 -0.52761900 1.905766e-42
66.34790000 19.97080000 446.83701000 -0.33915100 0.78909498 -0.51215899 1.905766e-42
66.35030400 19.31710100 445.16000000 -0.35424200 0.78711200 -0.50494200 1.905766e-42
66.73010300 18.49490000 443.60501000 -0.36958101 0.78452998 -0.49791801 1.905766e-42
66.16179700 17.39640000 442.29700000 -0.38383999 0.77618098 -0.50020897 1.905766e-42
65.54730200 16.24900100 441.05399000 -0.39511201 0.76808202 -0.50392097 1.905766e-42
64.88310200 15.14350000 439.79800000 -0.40340999 0.76074100 -0.50846201 1.905766e-42
63.63620000 13.99530000 439.19199000 -0.40360400 0.75526297 -0.51641202 1.905766e-42
62.01820000 13.20660000 439.18701000 -0.39616701 0.75444299 -0.52332300 1.905766e-42
61.01990100 12.01120000 438.28400000 -0.39101401 0.75627798 -0.52455002 1.905766e-42
59.65800100 10.94160000 437.79300000 -0.37899801 0.76215202 -0.52486598 1.905766e-42
58.11990000 10.03710000 437.55600000 -0.36291900 0.77117503 -0.52304798 1.905766e-42
56.53189800 9.20049950 437.42099000 -0.34390399 0.78255498 -0.51897800 1.905766e-42
55.20529900 8.16201970 436.78699000 -0.32188100 0.79672301 -0.51149303 1.905766e-42
53.48849900 7.62162020 436.76199000 -0.29700100 0.81150800 -0.50323403 1.905766e-42
51.77790100 7.06249000 436.72800000 -0.27063900 0.82751799 -0.49190199 1.905766e-42
50.40950000 6.15743020 435.98801000 -0.24888299 0.83182502 -0.49610901 1.905766e-42
48.66009900 5.73378990 435.97800000 -0.23127700 0.83764201 -0.49484101 1.905766e-42
46.95560100 5.17608980 435.82300000 -0.21514100 0.84060699 -0.49708599 1.905766e-42
45.28739900 4.57900000 435.50601000 -0.20056801 0.84137601 -0.50185603 1.905766e-42
43.63259900 3.95867990 435.16501000 -0.18716700 0.84140199 -0.50696301 1.905766e-42
41.88840100 3.55604000 434.97601000 -0.17456201 0.84310502 -0.50862801 1.905766e-42
40.39379900 2.82987000 434.28400000 -0.16195101 0.84094799 -0.51631200 1.905766e-42
38.95560100 2.04723000 433.53601000 -0.14985500 0.83928400 -0.52263302 1.905766e-42
37.37039900 1.36379000 433.02600000 -0.13546400 0.84165603 -0.52274799 1.905766e-42
36.01929900 0.49263600 432.21600000 -0.11666600 0.83839703 -0.53242803 1.905766e-42
35.05580100 -0.59383100 431.15302000 -0.09770250 0.81735200 -0.56779402 1.905766e-42
33.55720100 -1.21448000 430.37201000 -0.07498680 0.81133801 -0.57974797 1.905766e-42
32.33070000 -2.15115000 429.44601000 -0.04919810 0.80236202 -0.59480703 1.905766e-42
