# .PCD v0.7 - Point Cloud Data file format
# 2 145 0
# 1 89 0
# 90 145 0
VERSION 0.7
FIELDS x y z normal_x normal_y normal_z curvature
SIZE 4 4 4 4 4 4 4
TYPE F F F F F F F
COUNT 1 1 1 1 1 1 1
WIDTH 145
HEIGHT 1
VIEWPOINT 0 0 0 1 0 0 0
POINTS 145
DATA ascii
31.39810000 2.88500000 535.38300000 0.38727900 0.92196101 0.00159256 1.905766e-42
31.67380000 2.71698000 533.61200000 0.39742401 0.91748500 -0.01656890 1.905766e-42
32.08610200 2.50190000 531.87299000 0.40842000 0.91211402 -0.03524180 1.905766e-42
32.07630200 2.42068000 530.07501000 0.41324601 0.90904301 -0.05356030 1.905766e-42
32.86029800 1.79895000 528.57800000 0.42269701 0.90349197 -0.07091570 1.905766e-42
33.05049900 1.69021000 526.79199000 0.42271200 0.90173101 -0.09053180 1.905766e-42
33.57120100 1.05804000 525.18903000 0.42300901 0.89946097 -0.10969300 1.905766e-42
33.99110000 0.52609003 523.52100000 0.42234799 0.89677697 -0.13196300 1.905766e-42
34.30590100 0.21500801 521.77698000 0.42118201 0.89350301 -0.15575200 1.905766e-42
34.46770100 0.04488300 519.99200000 0.41897199 0.89003801 -0.17970800 1.905766e-42
34.78099800 -0.46843201 518.29498000 0.41877899 0.88529998 -0.20216000 1.905766e-42
35.09450100 -1.10195000 516.64001000 0.41931999 0.87986898 -0.22360800 1.905766e-42
35.16439800 -1.59638000 514.91101000 0.41718099 0.87504798 -0.24546100 1.905766e-42
35.44129900 -2.19157000 513.23499000 0.41712001 0.86859202 -0.26750401 1.905766e-42
35.88299900 -2.92475010 511.65100000 0.41944900 0.85936803 -0.29248801 1.905766e-42
36.27610000 -3.70231010 510.07599000 0.42149699 0.84941101 -0.31755501 1.905766e-42
36.48809800 -4.40453000 508.43201000 0.42003000 0.83989102 -0.34373999 1.905766e-42
36.73160200 -5.21323010 506.84299000 0.41849700 0.82999200 -0.36874601 1.905766e-42
37.09120200 -6.08715010 505.31100000 0.41769701 0.81991899 -0.39148700 1.905766e-42
37.73270000 -7.14034990 504.00000000 0.42079601 0.80997902 -0.40849099 1.905766e-42
38.29069900 -8.15429970 502.62100000 0.41873899 0.80047101 -0.42884001 1.905766e-42
39.06869900 -9.41765020 501.60199000 0.42434201 0.78911000 -0.44411701 1.905766e-42
39.54240000 -10.27590000 500.09201000 0.42471999 0.77668101 -0.46516499 1.905766e-42
40.23090000 -11.39990000 498.86600000 0.43132499 0.76283401 -0.48170900 1.905766e-42
40.91659900 -12.47630000 497.59698000 0.43873999 0.74842501 -0.49735999 1.905766e-42
41.84130100 -13.70980000 496.66800000 0.45245799 0.73298699 -0.50794899 1.905766e-42
42.92319900 -15.07960000 496.22900000 0.47142899 0.71701401 -0.51346499 1.905766e-42
43.82600000 -16.24869900 495.20001000 0.48571500 0.69911098 -0.52471399 1.905766e-42
43.70660000 -17.28890000 493.73599000 0.48545399 0.68569601 -0.54236102 1.905766e-42
43.70740100 -18.57119900 492.47299000 0.48783499 0.67132002 -0.55798399 1.905766e-42
43.61550100 -19.71110000 491.08301000 0.48555300 0.65948099 -0.57386702 1.905766e-42
43.38489900 -20.72880000 489.61600000 0.47712001 0.65061998 -0.59080398 1.905766e-42
42.69020100 -21.39629900 488.09500000 0.45538500 0.64649498 -0.61210197 1.905766e-42
42.29840100 -22.50440000 486.73199000 0.43959001 0.64113599 -0.62905103 1.905766e-42
41.80300100 -23.54680100 485.35101000 0.42045799 0.63748300 -0.64562398 1.905766e-42
41.32389800 -24.69059900 484.04599000 0.40140200 0.63251400 -0.66242099 1.905766e-42
40.76789900 -25.87620000 482.81100000 0.38091499 0.62631798 -0.68016899 1.905766e-42
39.76599900 -26.45140100 481.43100000 0.35143399 0.62028199 -0.70124501 1.905766e-42
38.94839900 -27.45610000 480.18100000 0.32734001 0.61152399 -0.72033799 1.905766e-42
37.70010000 -28.03660000 479.02100000 0.29848099 0.60628998 -0.73710299 1.905766e-42
36.95510100 -29.17370000 477.84100000 0.27853599 0.59997898 -0.74996197 1.905766e-42
36.10060100 -30.26680000 476.69501000 0.25666699 0.59275597 -0.76338899 1.905766e-42
35.14899800 -31.30680100 475.57599000 0.23296800 0.58459902 -0.77715498 1.905766e-42
34.28599900 -32.46089900 474.49701000 0.21048100 0.57502699 -0.79059601 1.905766e-42
33.08729900 -33.37550000 473.51401000 0.18180700 0.56555998 -0.80441803 1.905766e-42
32.33639900 -34.65280200 472.49200000 0.16025500 0.54314601 -0.82420301 1.905766e-42
31.33720000 -35.78410000 471.51099000 0.13645300 0.52345598 -0.84105599 1.905766e-42
30.12649900 -36.77629900 470.62201000 0.10958900 0.51087803 -0.85263902 1.905766e-42
28.73660100 -37.90630000 470.44501000 0.07903090 0.50527602 -0.85933101 1.905766e-42
26.95299900 -38.14790000 470.42801000 0.06767980 0.50381798 -0.86115402 1.905766e-42
25.29620000 -37.89049900 469.77301000 0.06491820 0.50409001 -0.86120802 1.905766e-42
23.54929900 -38.30300100 469.63800000 0.06488680 0.50436199 -0.86105102 1.905766e-42
21.75280000 -38.35950100 469.54099000 0.06642030 0.50921202 -0.85807502 1.905766e-42
20.09009900 -37.67039900 469.56900000 0.06583310 0.52077103 -0.85115403 1.905766e-42
18.31220100 -37.38950000 469.56699000 0.04287270 0.53317201 -0.84491998 1.905766e-42
16.68090100 -37.97100100 469.07599000 0.02430790 0.53454101 -0.84479302 1.905766e-42
14.99220000 -38.56520100 468.88901000 0.00033327 0.53486001 -0.84494102 1.905766e-42
13.19860000 -38.44179900 468.79901000 -0.02869340 0.53600401 -0.84372801 1.905766e-42
11.39870000 -38.45840100 468.79800000 -0.05856960 0.53345400 -0.84379900 1.905766e-42
9.69297030 -39.00519900 468.62100000 -0.08394450 0.52728498 -0.84553200 1.905766e-42
7.90036010 -39.02259800 468.78299000 -0.10376800 0.52760899 -0.84312600 1.905766e-42
7.35235020 -38.41569900 469.22400000 -0.11165100 0.53178102 -0.83949000 1.905766e-42
5.58413980 -38.34809900 469.55399000 -0.13141701 0.53878200 -0.83213198 1.905766e-42
3.95810010 -37.90650200 470.18701000 -0.15348899 0.55043602 -0.82064700 1.905766e-42
2.38062000 -37.41600000 470.90201000 -0.17810300 0.56384403 -0.80644900 1.905766e-42
0.84184301 -36.90430100 471.68301000 -0.15927200 0.57501501 -0.80249000 1.905766e-42
-0.84917301 -36.82830000 472.29501000 -0.11035300 0.58381599 -0.80435097 1.905766e-42
-2.51522990 -36.24000200 472.63901000 -0.06213480 0.59022498 -0.80484402 1.905766e-42
-3.87453010 -35.29650100 473.34799000 -0.02299530 0.59499502 -0.80339998 1.905766e-42
-5.66789010 -35.24029900 473.20401000 0.03647550 0.60019100 -0.79902399 1.905766e-42
-7.01626010 -34.09400200 473.53201000 0.06506570 0.61001700 -0.78971201 1.905766e-42
-7.22084000 -32.77769900 474.74301000 0.04145200 0.62545902 -0.77915502 1.905766e-42
-7.90392020 -31.47940100 475.78601000 0.01612690 0.64998603 -0.75977498 1.905766e-42
-8.60245990 -30.20280100 476.84500000 -0.00996170 0.67957598 -0.73353702 1.905766e-42
-9.32054040 -29.02210000 477.99899000 -0.03544940 0.71441400 -0.69882500 1.905766e-42
-9.99763010 -27.95550000 479.28101000 -0.06779650 0.72098398 -0.68962699 1.905766e-42
-10.87160000 -26.97520100 480.51199000 -0.09264800 0.71744502 -0.69042701 1.905766e-42
-12.07780000 -26.04890100 481.47501000 -0.10602000 0.71686298 -0.68910599 1.905766e-42
-13.50000000 -25.35640000 482.33301000 -0.11190100 0.71973997 -0.68516600 1.905766e-42
-15.00420000 -24.70089900 483.07401000 -0.13671701 0.72335702 -0.67680299 1.905766e-42
-16.49390000 -24.15630000 483.92499000 -0.16063900 0.72397101 -0.67086601 1.905766e-42
-17.77750000 -23.72559900 485.11099000 -0.18492700 0.71776003 -0.67128402 1.905766e-42
-19.51149900 -23.61680000 485.58099000 -0.20092700 0.72466201 -0.65916097 1.905766e-42
-21.13579900 -23.55950000 486.35501000 -0.21981400 0.72486502 -0.65288001 1.905766e-42
-22.76079900 -23.42320100 487.11700000 -0.24904700 0.72073799 -0.64692497 1.905766e-42
-24.53260000 -23.73180000 487.19000000 -0.26947901 0.72959203 -0.62855101 1.905766e-42
-26.14150000 -23.97930000 487.95801000 -0.28941599 0.72920901 -0.62007499 1.905766e-42
-27.86689900 -24.49110000 487.99301000 -0.30027601 0.73999703 -0.60186303 1.905766e-42
-29.53340000 -25.17130100 487.99500000 -0.30776000 0.75201601 -0.58288503 1.905766e-42
-31.07589900 -25.73880000 488.72900000 -0.31791699 0.75437498 -0.57432300 1.905766e-42
-30.05110000 -24.60000000 489.67401000 -0.32362601 0.73170698 -0.59989297 1.905766e-42
-29.54250000 -23.36060000 490.87601000 -0.33461401 0.70776701 -0.62217301 1.905766e-42
-28.82180000 -22.10140000 491.94101000 -0.34418699 0.68571901 -0.64134598 1.905766e-42
-27.74690100 -20.78900000 492.54300000 -0.34589201 0.66912800 -0.65774399 1.905766e-42
-26.56889900 -19.53840100 493.07999000 -0.34350300 0.65553200 -0.67252100 1.905766e-42
-25.81040000 -18.16530000 493.96301000 -0.34418300 0.64207900 -0.68503499 1.905766e-42
-25.41910000 -16.82399900 495.09799000 -0.34752101 0.62921202 -0.69521302 1.905766e-42
-24.22440000 -15.52430000 495.44901000 -0.33819401 0.62079901 -0.70727098 1.905766e-42
-23.26969900 -14.20860000 496.22198000 -0.33124000 0.61155897 -0.71852398 1.905766e-42
-22.39069900 -12.91550000 497.11401000 -0.32063001 0.63596100 -0.70196199 1.905766e-42
-22.57210000 -11.63350000 498.36401000 -0.32136700 0.66493398 -0.67422998 1.905766e-42
-21.53599900 -10.41930000 499.19601000 -0.30340001 0.69335002 -0.65361601 1.905766e-42
-20.72650000 -9.17475030 500.21399000 -0.28680700 0.72266197 -0.62888902 1.905766e-42
-19.35530100 -8.14949990 500.76999000 -0.26227701 0.74613100 -0.61196297 1.905766e-42
-18.68950100 -6.95870020 501.94400000 -0.24925201 0.77292401 -0.58349198 1.905766e-42
-17.77199900 -5.94209000 503.11200000 -0.23754001 0.78912902 -0.56643599 1.905766e-42
-17.42260000 -5.03431990 504.62601000 -0.23746000 0.78788602 -0.56819803 1.905766e-42
-16.21730000 -3.88963010 505.31699000 -0.23072800 0.78785098 -0.57101297 1.905766e-42
-15.15470000 -2.75900010 506.23001000 -0.22499700 0.78784502 -0.57330298 1.905766e-42
-13.86920000 -1.77553000 507.01700000 -0.21758100 0.78860301 -0.57512099 1.905766e-42
-12.88500000 -0.74220502 508.11401000 -0.21098900 0.78946698 -0.57639098 1.905766e-42
-12.09290000 0.32840601 509.32501000 -0.20393001 0.79055601 -0.57743698 1.905766e-42
-10.90820000 1.26443990 510.30499000 -0.19009000 0.80949998 -0.55549598 1.905766e-42
-10.08170000 2.21382000 511.59201000 -0.17503200 0.83602601 -0.52002299 1.905766e-42
-8.88626000 3.02576990 512.66498000 -0.15797000 0.85936302 -0.48635399 1.905766e-42
-7.52591990 3.78822990 513.56403000 -0.14104301 0.87926698 -0.45496899 1.905766e-42
-6.96342990 4.50937990 515.11401000 -0.12919401 0.90132397 -0.41343001 1.905766e-42
-5.57727000 5.25848010 515.98499000 -0.11690800 0.91618401 -0.38332599 1.905766e-42
-4.48254010 5.87842990 517.27197000 -0.10911800 0.92993897 -0.35115200 1.905766e-42
-3.38965990 6.42617990 518.59302000 -0.09619050 0.93909597 -0.32991701 1.905766e-42
-2.22650000 6.94113020 519.86700000 -0.07916650 0.94845998 -0.30684799 1.905766e-42
-0.92987603 7.45718000 521.00299000 -0.05819460 0.95734000 -0.28304300 1.905766e-42
0.15797099 7.89714000 522.36798000 -0.03818350 0.96646798 -0.25393099 1.905766e-42
1.13013010 8.23999020 523.84399000 -0.01865870 0.97492099 -0.22176600 1.905766e-42
2.25490000 8.54895020 525.21503000 0.00230503 0.98185402 -0.18962300 1.905766e-42
3.16573000 8.72966000 526.75702000 0.02028180 0.98764801 -0.15537100 1.905766e-42
4.25549980 8.97544000 528.16803000 0.03930140 0.99127001 -0.12585500 1.905766e-42
5.46068000 9.15017030 529.49402000 0.05827610 0.99333698 -0.09942960 1.905766e-42
6.03920980 8.99561980 531.19098000 0.07380150 0.99454200 -0.07375380 1.905766e-42
6.97524020 9.01756000 532.72900000 0.09212780 0.99451900 -0.04944110 1.905766e-42
8.29765030 9.07903960 533.94800000 0.11856000 0.99256003 -0.02771090 1.905766e-42
9.16625980 8.91485980 535.51599000 0.13957401 0.99019498 -0.00573978 1.905766e-42
10.22630000 8.82433030 536.96802000 0.15978201 0.98703200 0.01537670 1.905766e-42
11.72850000 8.54615020 537.91998000 0.17736700 0.98357397 0.03349890 1.905766e-42
13.44850000 8.08541010 538.18298000 0.19014400 0.98081201 0.04304130 1.905766e-42
15.09730000 8.01906970 537.46399000 0.20012100 0.97908700 0.03660630 1.905766e-42
16.78790100 7.66246990 536.96002000 0.21457499 0.97630602 0.02799350 1.905766e-42
18.53400000 7.25694990 536.79602000 0.23906299 0.97076100 0.02173760 1.905766e-42
20.26000000 6.74709990 536.76501000 0.26390699 0.96436501 0.01876440 1.905766e-42
21.97400100 6.19733000 536.77100000 0.28937700 0.95704901 0.01784770 1.905766e-42
23.69910000 5.74142980 536.53400000 0.31501400 0.94894898 0.01616800 1.905766e-42
25.34260000 5.22574000 536.01202000 0.33907101 0.94066501 0.01344970 1.905766e-42
27.03010000 4.59929990 536.00000000 0.35093600 0.93624997 0.01674660 1.905766e-42
28.58869900 3.80543990 536.42499000 0.36262599 0.93170500 0.02067380 1.905766e-42
30.23460000 3.14439990 536.73102000 0.37351200 0.92742503 0.01929370 1.905766e-42
