# .PCD v0.7 - Point Cloud Data file format
# 3 182 -2
# 1 48 0
# 49 116 0
# 117 182 0
VERSION 0.7
FIELDS x y z normal_x normal_y normal_z curvature
SIZE 4 4 4 4 4 4 4
TYPE F F F F F F F
COUNT 1 1 1 1 1 1 1
WIDTH 182
HEIGHT 1
VIEWPOINT 0 0 0 1 0 0 0
POINTS 182
DATA ascii
-31.80460000 8.95565030 496.83200000 -0.02137750 0.98984301 -0.14054599 1.905766e-42
-34.36589800 8.64218040 495.97400000 -0.01351870 0.98288202 -0.18374200 1.905766e-42
-36.14870100 8.88976960 495.98901000 0.01159540 0.97697800 -0.21302401 1.905766e-42
-37.81280100 9.14816000 496.62500000 0.05094560 0.97042799 -0.23595200 1.905766e-42
-38.88150000 9.34169010 498.06000000 0.09161070 0.96601403 -0.24171300 1.905766e-42
-40.29819900 9.65781970 499.12500000 0.13518400 0.95904601 -0.24890999 1.905766e-42
-41.63700100 10.10820000 500.23999000 0.17869100 0.95158201 -0.25012401 1.905766e-42
-42.93650100 10.57680000 501.39401000 0.21636000 0.94473898 -0.24628501 1.905766e-42
-44.43560000 11.15270000 502.20700000 0.25591400 0.93487197 -0.24601200 1.905766e-42
-45.88750100 11.80770000 503.04599000 0.29400200 0.92402899 -0.24440201 1.905766e-42
-47.31969800 12.40430000 503.95801000 0.32998800 0.91252500 -0.24167500 1.905766e-42
-48.73970000 13.12910000 504.79401000 0.36483800 0.89991099 -0.23885700 1.905766e-42
-50.14970000 13.92920000 505.57599000 0.39834699 0.88640302 -0.23581900 1.905766e-42
-50.26720000 14.99770000 507.01999000 0.40575600 0.88426298 -0.23117299 1.905766e-42
-50.36850000 15.98120000 508.52399000 0.41560999 0.87892503 -0.23400800 1.905766e-42
-49.53530100 16.17880100 510.10699000 0.41096801 0.88008898 -0.23780000 1.905766e-42
-49.50140000 16.52330000 511.87399000 0.42279500 0.87099302 -0.25023100 1.905766e-42
-49.49829900 16.86090100 513.64203000 0.43842199 0.85768598 -0.26862800 1.905766e-42
-49.52150000 17.29760000 515.38800000 0.45793700 0.83926803 -0.29312599 1.905766e-42
-49.45959900 17.78370100 517.12000000 0.47858399 0.81692702 -0.32185099 1.905766e-42
-49.17969900 18.35969900 518.80200000 0.49788699 0.79236400 -0.35251600 1.905766e-42
-48.56380100 18.94840000 520.38800000 0.51223600 0.76944101 -0.38154301 1.905766e-42
-48.42940100 19.73110000 522.00299000 0.53445202 0.73314899 -0.42054000 1.905766e-42
-48.49169900 20.63880000 523.55603000 0.55742103 0.68958598 -0.46233499 1.905766e-42
-47.96569800 21.37610100 525.11200000 0.56943297 0.65656698 -0.49463800 1.905766e-42
-47.83200100 22.42820000 526.56598000 0.58272302 0.61950701 -0.52597100 1.905766e-42
-47.77349900 23.55839900 527.96600000 0.58315003 0.59853500 -0.54926503 1.905766e-42
-47.98490100 24.74560000 529.30200000 0.58358902 0.57936502 -0.56899899 1.905766e-42
-47.64670200 25.93770000 530.60797000 0.58299702 0.56297100 -0.58581299 1.905766e-42
-47.36990000 27.15390000 531.90601000 0.58204502 0.54886502 -0.59997499 1.905766e-42
-47.55609900 28.46040000 533.13000000 0.58196998 0.53674901 -0.61091000 1.905766e-42
-47.09370000 29.67050000 534.37903000 0.57983500 0.52825397 -0.62027401 1.905766e-42
-47.15770000 31.11960000 535.44501000 0.57940900 0.52140301 -0.62643701 1.905766e-42
-47.23840000 32.57320000 536.50403000 0.57892400 0.51722300 -0.63033903 1.905766e-42
-47.62670100 34.03810100 537.47498000 0.57906699 0.51417100 -0.63270003 1.905766e-42
-47.34640100 35.34450100 538.68103000 0.57781398 0.50859201 -0.63833100 1.905766e-42
-47.25050000 36.71559900 539.84302000 0.57843798 0.50109899 -0.64366800 1.905766e-42
-47.70990000 38.29270200 540.57898000 0.58447599 0.49012500 -0.64665699 1.905766e-42
-48.36880100 39.83250000 541.23901000 0.59180802 0.47785300 -0.64916801 1.905766e-42
-48.57830000 41.35599900 542.17401000 0.59609801 0.46611401 -0.65376198 1.905766e-42
-48.85820000 42.92219900 543.01599000 0.60135800 0.45342800 -0.65785402 1.905766e-42
-50.29330100 43.99789800 543.16998000 0.61221403 0.44044700 -0.65665901 1.905766e-42
-50.30049900 45.68899900 543.78601000 0.61724800 0.42744401 -0.66052800 1.905766e-42
-51.00840000 47.30889900 544.12500000 0.61188799 0.43216601 -0.66243899 1.905766e-42
-51.74710100 48.91600000 544.45898000 0.60357499 0.44560501 -0.66116101 1.905766e-42
-52.52430000 50.51649900 544.73199000 0.59759003 0.46127799 -0.65582699 1.905766e-42
-53.75910200 51.82540100 544.77502000 0.59731603 0.47630000 -0.64525300 1.905766e-42
-54.53239800 53.43539800 544.99799000 0.59636199 0.49454099 -0.63228202 1.905766e-42
-55.00550100 55.09989900 545.49402000 0.59340799 0.51693100 -0.61696798 1.905766e-42
-54.32120100 55.92729900 546.93903000 0.57658702 0.53864199 -0.61433798 1.905766e-42
-53.67739900 56.71270000 548.42499000 0.54878998 0.55409002 -0.62594998 1.905766e-42
-53.54660000 57.70740100 549.91998000 0.51791501 0.56723398 -0.64032000 1.905766e-42
-53.36750000 58.49039800 551.53003000 0.48791301 0.57480597 -0.65691602 1.905766e-42
-52.05429800 58.80030100 552.72198000 0.46584600 0.56379098 -0.68200201 1.905766e-42
-50.43660000 58.85570100 553.50897000 0.45616400 0.54609799 -0.70263201 1.905766e-42
-48.77909900 58.94500000 554.20502000 0.45202100 0.52748299 -0.71933198 1.905766e-42
-47.30609900 59.21270000 555.20502000 0.44747600 0.51089603 -0.73399597 1.905766e-42
-45.63840100 59.19179900 555.88202000 0.45165300 0.49043700 -0.74530602 1.905766e-42
-44.18590200 59.37130000 556.92902000 0.45295900 0.47263899 -0.75593698 1.905766e-42
-42.70610000 59.76530100 557.87500000 0.45391101 0.45653799 -0.76520401 1.905766e-42
-41.55040000 60.60770000 558.96899000 0.44703099 0.44752401 -0.77452302 1.905766e-42
-40.32519900 61.41379900 560.01202000 0.43994999 0.43788600 -0.78402799 1.905766e-42
-39.26380200 62.29719900 561.16699000 0.42993799 0.43059501 -0.79356200 1.905766e-42
-37.99509800 62.96889900 562.25299000 0.42199999 0.42003500 -0.80342197 1.905766e-42
-36.71160100 63.64099900 563.32098000 0.41290799 0.40961900 -0.81346101 1.905766e-42
-35.48040000 64.33190200 564.43701000 0.40208200 0.40007600 -0.82357103 1.905766e-42
-33.92869900 64.67079900 565.28400000 0.39515501 0.38500401 -0.83404100 1.905766e-42
-32.73840000 65.50009900 566.34998000 0.38216299 0.37912899 -0.84274101 1.905766e-42
-31.15700000 65.88480400 567.11902000 0.38152301 0.37226501 -0.84608400 1.905766e-42
-29.54270000 65.83550300 567.91302000 0.38522500 0.35941100 -0.84995598 1.905766e-42
-28.03000100 66.33979800 568.74902000 0.38483199 0.35338700 -0.85265499 1.905766e-42
-26.41020000 66.48609900 569.52002000 0.38978800 0.34044701 -0.85566401 1.905766e-42
-24.78380000 66.69930300 570.26099000 0.39333701 0.33034500 -0.85799700 1.905766e-42
-23.24580000 67.09580200 571.10797000 0.39189699 0.32803401 -0.85954100 1.905766e-42
-21.65600000 67.27660400 571.93298000 0.39301500 0.32382900 -0.86062402 1.905766e-42
-20.04220000 67.29789700 572.72998000 0.39661801 0.31820899 -0.86106700 1.905766e-42
-18.41390000 67.29679900 573.49701000 0.40212300 0.31183001 -0.86084801 1.905766e-42
-16.84300000 67.57579800 574.33002000 0.40740201 0.30714899 -0.86004901 1.905766e-42
-15.22760000 67.64859800 575.12097000 0.41124800 0.30107099 -0.86036700 1.905766e-42
-13.62120000 67.76899700 575.92401000 0.41152599 0.29487401 -0.86237800 1.905766e-42
-12.04310000 67.89350100 576.78101000 0.40706399 0.28861001 -0.86660397 1.905766e-42
-10.45620000 67.94159700 577.62903000 0.39682001 0.28141600 -0.87369198 1.905766e-42
-8.95432000 68.37290200 578.52197000 0.37703201 0.27842599 -0.88336098 1.905766e-42
-7.36310010 68.70089700 579.29700000 0.34755501 0.27408299 -0.89670700 1.905766e-42
-5.82536980 69.26360300 580.04498000 0.30518901 0.27335700 -0.91221499 1.905766e-42
-4.21122980 69.73840300 580.68402000 0.23972400 0.27712899 -0.93044698 1.905766e-42
-2.49419000 70.11810300 581.06799000 0.14576600 0.27571601 -0.95012301 1.905766e-42
-0.89715499 70.90450300 581.33502000 0.06366570 0.27233800 -0.96009302 1.905766e-42
0.78661197 71.52829700 581.46100000 -0.01514210 0.26892599 -0.96304202 1.905766e-42
2.52856990 71.97689800 581.52698000 -0.08847660 0.26492900 -0.96020001 1.905766e-42
4.18423990 72.68080100 581.46899000 -0.15174200 0.26020700 -0.95355499 1.905766e-42
5.84014990 73.38559700 581.50403000 -0.20748401 0.25484201 -0.94446099 1.905766e-42
7.56195020 73.49810000 580.99103000 -0.25965500 0.24905400 -0.93303400 1.905766e-42
9.20248030 74.20909900 580.78400000 -0.30321699 0.24235199 -0.92158800 1.905766e-42
10.81750000 74.34349800 580.00000000 -0.34188500 0.23604600 -0.90961403 1.905766e-42
12.50150000 74.85540000 579.62299000 -0.37430200 0.22768199 -0.89892101 1.905766e-42
14.20220000 75.27749600 579.21198000 -0.40246600 0.21929900 -0.88877898 1.905766e-42
15.76540000 75.20340000 578.32202000 -0.42531300 0.21294200 -0.87963903 1.905766e-42
17.36160100 75.16649600 577.49103000 -0.44484100 0.20734800 -0.87127697 1.905766e-42
19.02680000 75.18470000 576.80798000 -0.46123400 0.20240200 -0.86388499 1.905766e-42
20.50330000 74.94080400 575.80798000 -0.47382599 0.20104100 -0.85736299 1.905766e-42
22.06320000 74.78939800 574.92200000 -0.48970500 0.20349300 -0.84780902 1.905766e-42
23.57029900 74.50900300 573.97900000 -0.51507598 0.21259700 -0.83036101 1.905766e-42
24.82889900 73.81810000 572.89301000 -0.53915602 0.22393300 -0.81188899 1.905766e-42
26.07620000 73.08480100 571.82300000 -0.56234300 0.23372200 -0.79318601 1.905766e-42
27.57180000 72.83789800 570.85199000 -0.58653599 0.23797800 -0.77417201 1.905766e-42
28.69129900 72.19850200 569.59601000 -0.60811102 0.24409200 -0.75539398 1.905766e-42
29.93180100 71.64550000 568.41400000 -0.62791902 0.24710301 -0.73800898 1.905766e-42
31.17740100 71.11679800 567.22803000 -0.64118701 0.24796700 -0.72621697 1.905766e-42
32.20840100 70.37909700 565.95001000 -0.65367502 0.25415200 -0.71282297 1.905766e-42
33.51290100 69.84200300 564.83197000 -0.66765702 0.26104900 -0.69720000 1.905766e-42
34.20650100 68.88800000 563.47198000 -0.67985499 0.27487200 -0.67988402 1.905766e-42
34.97259900 67.77700000 562.28101000 -0.69231701 0.29112899 -0.66025901 1.905766e-42
35.41330000 66.50499700 561.08600000 -0.70312500 0.30901101 -0.64041197 1.905766e-42
35.89870100 65.28890200 559.85101000 -0.70826799 0.32322201 -0.62760198 1.905766e-42
35.99060100 63.72950000 558.95697000 -0.71147102 0.33930001 -0.61537302 1.905766e-42
36.64450100 62.79019900 557.56702000 -0.71970397 0.35245499 -0.59816498 1.905766e-42
36.85739900 61.44559900 556.39001000 -0.72604799 0.36805099 -0.58085603 1.905766e-42
37.03649900 60.04710000 555.27100000 -0.73249000 0.38352701 -0.56246299 1.905766e-42
37.29299900 58.63779800 554.18103000 -0.73943800 0.39848199 -0.54262698 1.905766e-42
36.99959900 56.97420100 553.55902000 -0.74122298 0.41254199 -0.52952600 1.905766e-42
37.28300100 55.78599900 552.23700000 -0.74457598 0.42419499 -0.51542801 1.905766e-42
36.53319900 54.22710000 551.73901000 -0.73949802 0.43620700 -0.51270503 1.905766e-42
36.09550100 52.63330100 551.02600000 -0.73034000 0.45519400 -0.50931501 1.905766e-42
35.54700100 51.05020100 550.36798000 -0.72131801 0.47543001 -0.50365299 1.905766e-42
34.94430200 49.48860200 549.70599000 -0.71270001 0.49536499 -0.49665999 1.905766e-42
33.88909900 48.03550000 549.58398000 -0.70390600 0.51375902 -0.49047700 1.905766e-42
33.16350200 46.53670100 548.90100000 -0.69520003 0.53250998 -0.48283499 1.905766e-42
32.53020100 45.00650000 548.19501000 -0.68695998 0.55055100 -0.47432101 1.905766e-42
31.93630000 43.55199800 547.31702000 -0.67980999 0.56771702 -0.46428001 1.905766e-42
31.50960000 42.08440000 546.36603000 -0.67413503 0.58387399 -0.45236400 1.905766e-42
30.81950000 40.71810200 545.41901000 -0.66758698 0.60083199 -0.43969199 1.905766e-42
30.12380000 39.34370000 544.48798000 -0.66023302 0.61968797 -0.42435801 1.905766e-42
29.44500000 38.00260200 543.49799000 -0.65342897 0.63820702 -0.40709001 1.905766e-42
28.71159900 36.66050000 542.54797000 -0.64619702 0.65611500 -0.38979799 1.905766e-42
28.05610100 35.39880000 541.44501000 -0.64014900 0.67301899 -0.37047800 1.905766e-42
27.35790100 34.19509900 540.30298000 -0.63406199 0.68882000 -0.35141599 1.905766e-42
26.69490100 33.03189800 539.09998000 -0.62839103 0.70326102 -0.33248800 1.905766e-42
26.05789900 31.89410000 537.85901000 -0.62294298 0.71626300 -0.31449899 1.905766e-42
25.46859900 30.83770000 536.52600000 -0.61815703 0.72775298 -0.29708299 1.905766e-42
24.90440000 29.75490000 535.20300000 -0.61149102 0.74053001 -0.27873600 1.905766e-42
24.35160100 28.85570000 533.74500000 -0.60594499 0.75206298 -0.25929099 1.905766e-42
23.90370000 27.67869900 532.45898000 -0.59902197 0.76345199 -0.24148300 1.905766e-42
22.92510000 26.71950000 531.29199000 -0.58860499 0.77581698 -0.22727101 1.905766e-42
21.87649900 25.83720000 530.12500000 -0.57768703 0.78775698 -0.21381301 1.905766e-42
21.14209900 24.75790000 528.88599000 -0.56816399 0.79847598 -0.19906101 1.905766e-42
19.96190100 23.77500000 527.94702000 -0.55441898 0.81038499 -0.18946201 1.905766e-42
18.59620100 22.81049900 527.28003000 -0.53801602 0.82265699 -0.18378000 1.905766e-42
18.04780000 21.90290100 525.82599000 -0.53113300 0.83034497 -0.16859700 1.905766e-42
16.53599900 21.07620000 525.30499000 -0.51359302 0.84180498 -0.16609500 1.905766e-42
15.43820000 20.11340000 524.25201000 -0.49950200 0.85196298 -0.15702499 1.905766e-42
13.87730000 19.26880100 523.95203000 -0.47897699 0.86379701 -0.15632100 1.905766e-42
12.85930000 18.43140000 522.72601000 -0.46517700 0.87325603 -0.14503200 1.905766e-42
11.59460000 17.71419900 521.66498000 -0.44825500 0.88354301 -0.13572000 1.905766e-42
10.85310000 16.86470000 520.26202000 -0.43623999 0.89147502 -0.12233500 1.905766e-42
9.39015960 16.31550000 519.36902000 -0.41638100 0.90196598 -0.11438600 1.905766e-42
7.90819980 15.55940000 518.68201000 -0.39456901 0.91254199 -0.10761600 1.905766e-42
6.54414990 14.91910000 517.69702000 -0.37680501 0.92087501 -0.10003800 1.905766e-42
5.08209990 14.17920000 516.95203000 -0.35668099 0.92933100 -0.09551240 1.905766e-42
3.58995010 13.57590000 516.14600000 -0.33474201 0.93799400 -0.09008670 1.905766e-42
2.43480990 12.82710000 514.98700000 -0.31483501 0.94560999 -0.08185960 1.905766e-42
0.74904001 12.42110000 514.50299000 -0.28802100 0.95452100 -0.07703020 1.905766e-42
-0.82455099 11.96710000 513.75702000 -0.26147401 0.96270603 -0.06948180 1.905766e-42
-2.35345010 11.54550000 512.90503000 -0.23525600 0.97006702 -0.06020760 1.905766e-42
-3.86250000 11.10500000 512.02899000 -0.20970599 0.97650898 -0.04953650 1.905766e-42
-5.50059990 10.79090000 511.35199000 -0.18667100 0.98162198 -0.03964730 1.905766e-42
-6.95223000 10.43070000 510.35001000 -0.16798501 0.98533398 -0.02997370 1.905766e-42
-8.63146020 10.20340000 509.74301000 -0.14947399 0.98857498 -0.01939870 1.905766e-42
-9.92862990 9.92245010 508.52701000 -0.13102899 0.99135399 -0.00701222 1.905766e-42
-11.32210000 9.53481010 507.45599000 -0.11194200 0.99369401 0.00643608 1.905766e-42
-12.95270000 9.56599040 506.69400000 -0.09379080 0.99534702 0.02207170 1.905766e-42
-14.63270000 9.58613970 506.04800000 -0.07106370 0.99682200 0.03600290 1.905766e-42
-16.35950100 9.51451020 505.54501000 -0.03313730 0.99860698 0.04107180 1.905766e-42
-18.04520000 9.51175980 504.91400000 0.00427695 0.99880302 0.04871910 1.905766e-42
-19.27840000 9.46387960 503.60400000 0.02407270 0.99848700 0.04944310 1.905766e-42
-20.72979900 9.52707960 502.54099000 0.02473260 0.99954998 0.01696320 1.905766e-42
-22.26269900 9.53460980 501.59799000 0.02582050 0.99959499 -0.01197320 1.905766e-42
-23.88110000 9.72295000 500.83301000 0.02692890 0.99893200 -0.03754620 1.905766e-42
-25.38400100 9.67969990 499.84299000 0.02220340 0.99782997 -0.06198670 1.905766e-42
-27.06390000 9.54936980 499.20999000 0.01815720 0.99634302 -0.08349110 1.905766e-42
-28.75620100 9.39748000 498.61499000 0.01037090 0.99455601 -0.10368600 1.905766e-42
-30.25519900 9.42399980 497.61899000 -0.00426154 0.99239701 -0.12300700 1.905766e-42
