# .PCD v0.7 - Point Cloud Data file format
# 2 48 0
# 1 32 0
# 33 48 0
VERSION 0.7
FIELDS x y z normal_x normal_y normal_z curvature
SIZE 4 4 4 4 4 4 4
TYPE F F F F F F F
COUNT 1 1 1 1 1 1 1
WIDTH 48
HEIGHT 1
VIEWPOINT 0 0 0 1 0 0 0
POINTS 48
DATA ascii
4.7827001 11.1842 434.95099 0.153062 0.73306203 -0.66271597 1.9057659e-42
3.4775 12.4292 436.03601 0.161773 0.74642003 -0.64551198 1.9057659e-42
2.2560799 13.4574 436.867 0.14743 0.763776 -0.62841898 1.9057659e-42
2.30373 14.5374 438.306 0.143941 0.78558499 -0.60177797 1.9057659e-42
2.5187399 15.5515 439.77802 0.160916 0.80273402 -0.57421601 1.9057659e-42
2.84973 16.548 441.23999 0.177286 0.80308199 -0.56888402 1.9057659e-42
2.87079 17.523199 442.75299 0.17136399 0.789505 -0.58933502 1.9057659e-42
3.0733099 18.5973 444.18301 0.167068 0.77156901 -0.61381602 1.9057659e-42
3.3153701 19.682899 445.59799 0.16656899 0.757779 -0.63089299 1.9057659e-42
3.6458299 20.810801 446.961 0.164836 0.74916899 -0.641541 1.9057659e-42
4.0331302 21.9452 448.30399 0.16267601 0.74021 -0.65240002 1.9057659e-42
4.1028299 23.115601 449.67001 0.15846901 0.730757 -0.66398901 1.9057659e-42
4.2224002 24.2959 451.02399 0.15337799 0.72349799 -0.67307198 1.9057659e-42
4.7498102 25.496201 452.25699 0.14946499 0.70768303 -0.69054002 1.9057659e-42
5.14607 26.626699 453.60001 0.143591 0.68553001 -0.71374398 1.9057659e-42
5.93891 27.7983 454.71301 0.14905199 0.67145598 -0.72589898 1.9057659e-42
7.5871801 28.0602 455.388 0.154696 0.67414999 -0.72221202 1.9057659e-42
9.2543097 28.313601 456.017 0.15020201 0.68853998 -0.70947301 1.9057659e-42
11.035 28.108299 456.18201 0.13808499 0.711034 -0.689466 1.9057659e-42
12.7173 28.3274 456.78299 0.141488 0.74883598 -0.64747697 1.9057659e-42
14.4649 27.9205 456.64099 0.115186 0.761356 -0.63801903 1.9057659e-42
16.008301 27.205299 456.052 0.0907159 0.75232202 -0.65252 1.9057659e-42
17.5221 27.768999 456.84601 0.083453402 0.76574999 -0.63770097 1.9057659e-42
19.282101 27.929899 457.18799 0.0880998 0.77221602 -0.62922198 1.9057659e-42
20.9116 27.215099 456.91599 0.079888299 0.78368598 -0.61599803 1.9057659e-42
21.7272 26.183001 455.68799 0.058333401 0.78010899 -0.62291801 1.9057659e-42
22.382799 25.2227 454.314 0.049293201 0.75636399 -0.65229201 1.9057659e-42
23.570801 24.239901 453.38501 0.042217799 0.74228102 -0.66875798 1.9057659e-42
24.351 23.2031 452.13699 0.0150104 0.73992801 -0.67251903 1.9057659e-42
25.268801 22.097099 451.05399 -0.0070575401 0.75244898 -0.65861303 1.9057659e-42
26.099501 21.110201 449.798 -0.033861998 0.77167797 -0.63511199 1.9057659e-42
27.134501 20.1947 448.64499 0.0398455 0.74708998 -0.66352803 1.9057659e-42
27.9282 19.0907 447.465 0.115315 0.69718802 -0.70755303 1.9057659e-42
27.5769 17.842899 446.216 0.127712 0.66551602 -0.735376 1.9057659e-42
26.1553 16.992599 445.51199 0.108954 0.67303097 -0.73154598 1.9057659e-42
24.7901 16.327801 444.54501 0.100282 0.68801498 -0.71873403 1.9057659e-42
23.170799 15.9722 443.84399 0.077156298 0.71515501 -0.694695 1.9057659e-42
21.5256 15.5371 443.258 0.047692101 0.74983197 -0.65990698 1.9057659e-42
20.277399 14.7277 442.245 0.0565072 0.76134902 -0.64587498 1.9057659e-42
18.6423 14.3221 441.60999 0.068592399 0.77769899 -0.624883 1.9057659e-42
16.918699 14.0785 441.15201 0.083151601 0.79360902 -0.60272002 1.9057659e-42
15.8402 13.2348 439.98401 0.10499 0.79212701 -0.60125798 1.9057659e-42
14.0662 13.4058 439.73199 0.104076 0.80618101 -0.58244401 1.9057659e-42
12.7641 12.7925 438.651 0.119537 0.80267698 -0.58431202 1.9057659e-42
11.0376 12.6915 438.15201 0.125341 0.79863501 -0.58861899 1.9057659e-42
9.5267096 12.2714 437.26801 0.132212 0.78444397 -0.60594398 1.9057659e-42
7.9071498 11.9801 436.539 0.135187 0.76468098 -0.63006902 1.9057659e-42
6.3933702 11.5118 435.685 0.14111 0.74594599 -0.650886 1.9057659e-42
