# .PCD v0.7 - Point Cloud Data file format
# 3 45 0
# 1 11 0
# 12 27 0
# 28 45 0
VERSION 0.7
FIELDS x y z normal_x normal_y normal_z curvature
SIZE 4 4 4 4 4 4 4
TYPE F F F F F F F
COUNT 1 1 1 1 1 1 1
WIDTH 45
HEIGHT 1
VIEWPOINT 0 0 0 1 0 0 0
POINTS 45
DATA ascii
-0.11273800 10.53650000 447.20999000 0.00817205 0.78886700 -0.61451000 1.905766e-42
-0.30885500 10.54790000 447.19699000 0.00599666 0.79175401 -0.61081100 1.905766e-42
-1.33591000 11.35540000 448.43500000 -0.04200500 0.81870598 -0.57267398 1.905766e-42
-1.51142000 12.32420000 449.94199000 -0.07701180 0.82626897 -0.55798697 1.905766e-42
-0.87064201 13.36610000 451.26300000 -0.09484520 0.83119899 -0.54782599 1.905766e-42
-1.58568000 14.14200000 452.72101000 -0.14070900 0.84463501 -0.51652002 1.905766e-42
-1.57461000 15.05080000 454.27499000 -0.19481800 0.86875302 -0.45531800 1.905766e-42
-1.32034000 15.91030000 455.83600000 -0.26409701 0.89273101 -0.36508000 1.905766e-42
-0.89910698 16.65570100 457.41901000 -0.33329299 0.88597900 -0.32242501 1.905766e-42
-1.09398000 17.00620100 459.17401000 -0.42251301 0.85392201 -0.30380800 1.905766e-42
-0.69802803 17.86370100 460.70599000 -0.34612599 0.85743898 -0.38078299 1.905766e-42
-0.09965310 18.86870000 462.07401000 -0.23044600 0.89551097 -0.38072801 1.905766e-42
1.39160000 19.16200100 463.03900000 -0.13352700 0.93978202 -0.31461301 1.905766e-42
3.10620000 19.36910100 462.53101000 -0.07695570 0.95377201 -0.29051101 1.905766e-42
4.90336990 19.37640000 462.43100000 -0.00650876 0.96432102 -0.26465601 1.905766e-42
6.70133020 19.45750000 462.40302000 0.01658020 0.96996099 -0.24269301 1.905766e-42
8.50053980 19.40430100 462.39899000 0.05249120 0.96516800 -0.25630999 1.905766e-42
10.28130000 19.14160000 462.39600000 0.09029540 0.96471202 -0.24733999 1.905766e-42
11.90390000 18.98440000 461.63300000 0.11037300 0.95019400 -0.29146200 1.905766e-42
13.58480000 18.67079900 462.19501000 0.15138100 0.96192002 -0.22758199 1.905766e-42
15.36870000 18.48280000 462.34399000 0.17531000 0.95329100 -0.24597400 1.905766e-42
17.14730100 18.20770100 462.37601000 0.20755900 0.93770200 -0.27862999 1.905766e-42
18.90640100 17.82609900 462.38901000 0.23410600 0.92380702 -0.30294400 1.905766e-42
20.61529900 17.26079900 462.39301000 0.27270299 0.90074402 -0.33807299 1.905766e-42
22.33750000 16.73760000 462.39801000 0.31408399 0.87788701 -0.36147699 1.905766e-42
23.99600000 16.05170100 462.53601000 0.32256201 0.86931503 -0.37449300 1.905766e-42
25.68849900 15.44770000 462.43201000 0.32387400 0.86410999 -0.38525200 1.905766e-42
27.08639900 14.62850000 461.64801000 0.30675501 0.84649098 -0.43515000 1.905766e-42
25.83770000 14.40670000 460.37100000 0.31316799 0.79748201 -0.51570100 1.905766e-42
24.28400000 14.39070000 459.46201000 0.32628599 0.77071100 -0.54730397 1.905766e-42
22.88019900 13.93070000 458.43301000 0.32719100 0.77319598 -0.54324400 1.905766e-42
21.46010000 14.02320000 457.33099000 0.32258901 0.77509201 -0.54329503 1.905766e-42
20.09219900 13.85650000 456.17300000 0.32209301 0.76893300 -0.55226701 1.905766e-42
18.49920100 13.82810000 455.33600000 0.28048199 0.76980400 -0.57335103 1.905766e-42
16.76680000 14.30080000 455.21201000 0.23074199 0.79295897 -0.56389201 1.905766e-42
15.15720000 14.18630000 454.41400000 0.19945700 0.78755301 -0.58307600 1.905766e-42
14.17430000 13.37310000 453.14401000 0.19201501 0.75406802 -0.62810099 1.905766e-42
12.66940000 12.97840000 452.23901000 0.17315701 0.74429399 -0.64501399 1.905766e-42
11.20320000 12.51050000 451.30600000 0.16005699 0.73870200 -0.65475303 1.905766e-42
9.60571960 12.17980000 450.54501000 0.14740101 0.73811603 -0.65837502 1.905766e-42
8.31385990 11.38500000 449.57599000 0.15230399 0.73266602 -0.66332799 1.905766e-42
6.67823980 11.27470000 448.83200000 0.15234800 0.73483002 -0.66091901 1.905766e-42
4.92804000 11.21840000 448.41599000 0.11551600 0.74193799 -0.66044301 1.905766e-42
3.39159010 10.70490000 447.63101000 0.08303980 0.75011498 -0.65607297 1.905766e-42
1.68201990 10.41350000 447.14899000 0.03826210 0.76817101 -0.63910002 1.905766e-42
