# .PCD v0.7 - Point Cloud Data file format
# 3 198 0
# 1 89 0
# 90 120 0
# 121 198 0
VERSION 0.7
FIELDS x y z normal_x normal_y normal_z curvature
SIZE 4 4 4 4 4 4 4
TYPE F F F F F F F
COUNT 1 1 1 1 1 1 1
WIDTH 198
HEIGHT 1
VIEWPOINT 0 0 0 1 0 0 0
POINTS 198
DATA ascii
19.35930100 -11.19850000 371.26801000 0.39669999 0.91787499 0.01156330 1.905766e-42
18.25460100 -10.77380000 370.37900000 0.39383501 0.91887701 0.02364930 1.905766e-42
17.09420000 -10.16960000 371.61499000 0.38043800 0.92452502 0.02279690 1.905766e-42
15.63140000 -9.62201980 372.51001000 0.37031299 0.92863798 0.02236580 1.905766e-42
14.26670000 -9.05109980 373.53500000 0.36226800 0.93188399 0.01883570 1.905766e-42
12.83390000 -8.74746040 374.58200000 0.35579601 0.93446201 0.01380130 1.905766e-42
11.44400000 -8.44789980 375.68600000 0.35102299 0.93633801 0.00738547 1.905766e-42
10.57180000 -8.07565020 377.21600000 0.34859300 0.93727100 -0.00254927 1.905766e-42
9.26132970 -7.43164010 378.26801000 0.34630099 0.93807298 -0.00974087 1.905766e-42
7.91999010 -6.76778980 379.26801000 0.34501499 0.93844098 -0.01713880 1.905766e-42
6.94418000 -6.22454020 380.67999000 0.34525299 0.93811500 -0.02719780 1.905766e-42
5.89140990 -5.87292000 382.09698000 0.34612301 0.93744600 -0.03735050 1.905766e-42
4.41590980 -5.46229980 383.04300000 0.34731600 0.93667197 -0.04490880 1.905766e-42
3.51297000 -5.09297990 384.55499000 0.35120001 0.93465698 -0.05545590 1.905766e-42
2.07078000 -4.49296000 385.45001000 0.35667199 0.93212599 -0.06266390 1.905766e-42
0.90504098 -3.85174990 386.66199000 0.36221799 0.92933702 -0.07163730 1.905766e-42
-0.28245300 -3.25163010 387.87399000 0.36834401 0.92617500 -0.08076740 1.905766e-42
-1.15127000 -2.76245000 389.37299000 0.37398201 0.92290002 -0.09161420 1.905766e-42
-2.47445010 -1.98690000 390.31500000 0.38178200 0.91863400 -0.10175400 1.905766e-42
-3.66529990 -1.34910000 391.50500000 0.38963100 0.91376799 -0.11496400 1.905766e-42
-5.17772010 -0.98463702 392.41000000 0.39861199 0.90846997 -0.12566200 1.905766e-42
-5.85830020 -0.37952301 393.96301000 0.40353900 0.90407801 -0.14071099 1.905766e-42
-6.76465990 0.07823210 395.44901000 0.40234500 0.90236700 -0.15444000 1.905766e-42
-7.04467010 0.75352103 397.09399000 0.40226701 0.89991200 -0.16834100 1.905766e-42
-7.67125990 1.47307000 398.62000000 0.40071601 0.89815700 -0.18094601 1.905766e-42
-8.33080960 2.18300010 400.13699000 0.39889199 0.89651799 -0.19271800 1.905766e-42
-9.19816020 2.92583990 401.52899000 0.39668301 0.89522898 -0.20299600 1.905766e-42
-9.18340970 3.33882000 403.28000000 0.39588299 0.89283198 -0.21477100 1.905766e-42
-10.37010000 3.82185010 404.54501000 0.39401600 0.89173901 -0.22260401 1.905766e-42
-10.66100000 4.50082020 406.18600000 0.39291099 0.88959301 -0.23290500 1.905766e-42
-10.65360000 4.95804980 407.92700000 0.39089999 0.88592601 -0.24966601 1.905766e-42
-11.70700000 5.65768000 409.20801000 0.39045399 0.88229400 -0.26287600 1.905766e-42
-11.91560000 6.44244000 410.81500000 0.38944301 0.87729502 -0.28051299 1.905766e-42
-12.57010000 7.23059990 412.29501000 0.38946599 0.87201297 -0.29649600 1.905766e-42
-12.51160000 7.94046020 413.94800000 0.38797700 0.86635298 -0.31449500 1.905766e-42
-13.36540000 8.66506960 415.35699000 0.38857299 0.86072201 -0.32889000 1.905766e-42
-13.66640000 9.38477040 416.97900000 0.38733599 0.85474300 -0.34552199 1.905766e-42
-14.22540000 10.12950000 418.51901000 0.38637999 0.84896803 -0.36050600 1.905766e-42
-14.24340000 11.00940000 420.09000000 0.38266200 0.84358901 -0.37673399 1.905766e-42
-14.79100000 11.94850000 421.52399000 0.38043401 0.83801800 -0.39114600 1.905766e-42
-15.16960000 12.80940000 423.05899000 0.37957701 0.83045697 -0.40775299 1.905766e-42
-15.89530000 13.56350000 424.52301000 0.38158101 0.82187098 -0.42299500 1.905766e-42
-15.87720000 14.54650000 426.03101000 0.38232401 0.81260097 -0.43989500 1.905766e-42
-16.39749900 15.60570000 427.39001000 0.38663399 0.80195802 -0.45538700 1.905766e-42
-17.00620100 16.63460000 428.73599000 0.39231500 0.79041499 -0.47046101 1.905766e-42
-17.42639900 17.72750100 430.10300000 0.39793199 0.77832401 -0.48565701 1.905766e-42
-17.66360100 18.80250000 431.52701000 0.40296999 0.76614499 -0.50063699 1.905766e-42
-18.44310000 19.98040000 432.64301000 0.41173100 0.75274998 -0.51365799 1.905766e-42
-19.41560000 21.13069900 433.62900000 0.42160901 0.73903900 -0.52542102 1.905766e-42
-19.77980000 22.42140000 434.82901000 0.42862800 0.72523499 -0.53880697 1.905766e-42
-20.74169900 23.69829900 435.65601000 0.43847901 0.71066701 -0.55017102 1.905766e-42
-21.85490000 24.85980000 436.46399000 0.44839600 0.69653499 -0.56016099 1.905766e-42
-21.56920100 25.80640000 437.96799000 0.44957200 0.68573999 -0.57240301 1.905766e-42
-20.80830000 26.55480000 439.41699000 0.44599500 0.67818302 -0.58408600 1.905766e-42
-20.20640000 27.43199900 440.86899000 0.44220200 0.66969299 -0.59663099 1.905766e-42
-19.48880000 28.24460000 442.30600000 0.43599099 0.66205001 -0.60959202 1.905766e-42
-19.18460100 29.31090000 443.72400000 0.43191600 0.65252399 -0.62262398 1.905766e-42
-18.55040000 30.26580000 445.11200000 0.42396399 0.64442098 -0.63637698 1.905766e-42
-17.72620000 31.10720100 446.47299000 0.41328901 0.63695198 -0.65075701 1.905766e-42
-17.49950000 32.25930000 447.83701000 0.40645301 0.62791902 -0.66371202 1.905766e-42
-16.85549900 33.29399900 449.16199000 0.39565200 0.61943299 -0.67805701 1.905766e-42
-16.22380100 34.31819900 450.50101000 0.38416499 0.61033398 -0.69275498 1.905766e-42
-15.39060000 35.34660000 451.72000000 0.37126100 0.60077500 -0.70797998 1.905766e-42
-14.28550000 36.19189800 452.86301000 0.35692701 0.59105003 -0.72336900 1.905766e-42
-13.74840000 37.38950000 454.09399000 0.34551799 0.57951897 -0.73808903 1.905766e-42
-12.75940000 38.36880100 455.23599000 0.33221799 0.56768101 -0.75323898 1.905766e-42
-12.26980000 39.52290000 456.52701000 0.32113999 0.55470699 -0.76757300 1.905766e-42
-11.05770000 40.46690000 457.46500000 0.30906799 0.54187399 -0.78156900 1.905766e-42
-9.88290980 41.35839800 458.49701000 0.29952499 0.53346902 -0.79101002 1.905766e-42
-8.88587000 42.42509800 459.54999000 0.29077801 0.52398801 -0.80055302 1.905766e-42
-8.18218040 43.57440200 460.74301000 0.28244001 0.51369900 -0.81014901 1.905766e-42
-7.05304000 44.61449800 461.68301000 0.27426699 0.50261301 -0.81985199 1.905766e-42
-5.85091020 45.59030200 462.60101000 0.26659599 0.49076101 -0.82950598 1.905766e-42
-4.60206990 46.51950100 463.50500000 0.25940099 0.47816601 -0.83908802 1.905766e-42
-3.34150000 47.43669900 464.40500000 0.25250500 0.46478900 -0.84865302 1.905766e-42
-2.14949990 48.44599900 465.29901000 0.24538600 0.45039999 -0.85844398 1.905766e-42
-1.00726000 49.51599900 466.18799000 0.23789600 0.43510500 -0.86838299 1.905766e-42
-0.08682380 50.75070200 467.12000000 0.22369400 0.41657901 -0.88114899 1.905766e-42
1.30758000 51.63460200 467.83701000 0.20313300 0.40320501 -0.89227903 1.905766e-42
2.70167990 52.54069900 468.52701000 0.18361600 0.39082399 -0.90196502 1.905766e-42
3.70952010 53.74399900 469.40799000 0.16999400 0.37557101 -0.91106999 1.905766e-42
5.38640020 54.29660000 469.75800000 0.15115599 0.37017700 -0.91658098 1.905766e-42
6.70798020 55.34880100 470.38000000 0.13894100 0.35965401 -0.92268300 1.905766e-42
7.97256990 56.47909900 470.98300000 0.13065299 0.34945899 -0.92779702 1.905766e-42
9.28736020 57.54050100 471.60300000 0.12576100 0.34113699 -0.93156302 1.905766e-42
10.81520000 58.30020100 472.17599000 0.12361700 0.33812699 -0.93294603 1.905766e-42
12.22190000 59.13800000 472.92401000 0.12797000 0.33528900 -0.93338400 1.905766e-42
13.62810000 60.23510000 473.16699000 0.13897499 0.33316299 -0.93257099 1.905766e-42
15.02390000 61.30440100 473.55200000 0.15023100 0.33385199 -0.93057698 1.905766e-42
16.77920000 61.36859900 473.94501000 0.14759400 0.34813601 -0.92575198 1.905766e-42
18.51040100 60.90210000 474.10400000 0.13838600 0.36327001 -0.92134899 1.905766e-42
20.01390100 60.31720000 474.90302000 0.13007700 0.37270999 -0.91878599 1.905766e-42
21.73469900 59.83319900 475.11401000 0.12035600 0.37952900 -0.91731799 1.905766e-42
22.79970000 58.78789900 474.10800000 0.11416700 0.38475999 -0.91592902 1.905766e-42
24.37690000 58.09270100 473.58899000 0.10824300 0.38633499 -0.91598499 1.905766e-42
26.05909900 57.45309800 473.55701000 0.09176460 0.38755500 -0.91726798 1.905766e-42
27.35490000 56.29900000 473.07800000 0.07021680 0.39329299 -0.91672802 1.905766e-42
28.88260100 55.39930000 472.76700000 0.04514390 0.39914000 -0.91577798 1.905766e-42
30.51630000 54.67120000 472.56500000 0.01892620 0.40480199 -0.91420799 1.905766e-42
32.02230100 53.75249900 472.20801000 -0.00547259 0.41135499 -0.91145903 1.905766e-42
33.49070000 52.81349900 471.75800000 -0.02918970 0.41803300 -0.90796298 1.905766e-42
34.99679900 51.92590000 471.32901000 -0.05300400 0.42429200 -0.90397298 1.905766e-42
36.61800000 51.23690000 470.95901000 -0.07352690 0.42882401 -0.90039098 1.905766e-42
38.09199900 50.39400100 470.36200000 -0.06907700 0.43041599 -0.89998400 1.905766e-42
39.64070100 49.67070000 469.79800000 -0.06584850 0.43339601 -0.89879501 1.905766e-42
41.42100100 49.60540000 469.54001000 -0.06154080 0.43662000 -0.89753902 1.905766e-42
42.89799900 48.80820100 468.88901000 -0.06026940 0.44297901 -0.89450401 1.905766e-42
44.58150100 48.22819900 468.62601000 -0.05808990 0.45045400 -0.89090800 1.905766e-42
46.26720000 47.60269900 468.71201000 -0.05567220 0.45920500 -0.88658398 1.905766e-42
47.55699900 46.76170000 467.77899000 -0.05915450 0.46732399 -0.88210499 1.905766e-42
49.24369800 46.49779900 467.20901000 -0.05219440 0.47691000 -0.87740099 1.905766e-42
50.77999900 45.70769900 466.70300000 -0.04837420 0.48491001 -0.87322497 1.905766e-42
52.39049900 44.96960100 466.38501000 -0.04332860 0.49362999 -0.86859202 1.905766e-42
54.14920000 44.80289800 466.73001000 -0.02943680 0.50754797 -0.86112100 1.905766e-42
55.82070200 44.23690000 466.37601000 -0.02162650 0.51941103 -0.85425103 1.905766e-42
57.56190100 44.07260100 466.80099000 -0.00344026 0.53713697 -0.84348798 1.905766e-42
58.97909900 43.28609800 466.01901000 -0.00217420 0.54643798 -0.83749700 1.905766e-42
60.67450000 42.74530000 465.74799000 -0.00702480 0.56410003 -0.82567698 1.905766e-42
62.37289800 42.66490200 466.33899000 0.00089894 0.58743697 -0.80927002 1.905766e-42
64.13800000 42.31209900 466.34299000 0.00041056 0.60642499 -0.79514003 1.905766e-42
65.69380200 41.70100000 465.67499000 -0.00957862 0.61567903 -0.78793901 1.905766e-42
66.86270100 40.94509900 464.53400000 -0.02565510 0.61325997 -0.78946400 1.905766e-42
67.14430200 39.92210000 463.07999000 -0.04773080 0.59134102 -0.80500799 1.905766e-42
67.81530000 38.82519900 461.82001000 -0.06752080 0.56795597 -0.82028502 1.905766e-42
68.43129700 37.46040000 460.82101000 -0.08788120 0.53378701 -0.84104002 1.905766e-42
69.38099700 36.14370000 460.04401000 -0.10777400 0.49835300 -0.86025000 1.905766e-42
70.30529800 34.86360200 459.17999000 -0.12539400 0.48452401 -0.86574399 1.905766e-42
70.83480100 33.48910100 458.14499000 -0.13671000 0.50110501 -0.85452002 1.905766e-42
71.50389900 32.12009800 457.18701000 -0.15320501 0.51929402 -0.84075099 1.905766e-42
72.42389700 30.82150100 456.34601000 -0.17459700 0.53943801 -0.82372499 1.905766e-42
72.43209800 29.29789900 455.38800000 -0.19405501 0.55501401 -0.80888897 1.905766e-42
73.26120000 28.05740000 454.38101000 -0.22247200 0.57584500 -0.78670800 1.905766e-42
73.97599800 26.82220100 453.28400000 -0.25342301 0.59632099 -0.76169401 1.905766e-42
74.20719900 25.49189900 452.09299000 -0.28312001 0.61255598 -0.73798299 1.905766e-42
74.10569800 24.23180000 450.81201000 -0.31009999 0.62512302 -0.71628100 1.905766e-42
74.42230200 23.07189900 449.47299000 -0.34383199 0.64030302 -0.68687099 1.905766e-42
74.78910100 21.85210000 448.20099000 -0.37747899 0.65682900 -0.65275198 1.905766e-42
75.52880100 20.74589900 446.98901000 -0.41412401 0.67219597 -0.61372101 1.905766e-42
75.72920200 19.56950000 445.64099000 -0.44445100 0.68192297 -0.58089900 1.905766e-42
75.74770400 18.49650000 444.19601000 -0.47169799 0.68847197 -0.55091500 1.905766e-42
75.65110000 17.41480100 442.76001000 -0.49532500 0.69254100 -0.52444297 1.905766e-42
75.78739900 16.30209900 441.35199000 -0.51951599 0.69512802 -0.49689001 1.905766e-42
75.25270100 15.12650000 440.09799000 -0.53018200 0.69643003 -0.48362401 1.905766e-42
74.82409700 13.93920000 438.81500000 -0.54034197 0.69797301 -0.46996099 1.905766e-42
74.50759900 12.81160000 437.44800000 -0.55100501 0.69972700 -0.45472601 1.905766e-42
73.99230200 11.60900000 436.21201000 -0.55363601 0.70630997 -0.44115001 1.905766e-42
73.49220300 10.44570000 434.93301000 -0.55486000 0.71347398 -0.42788401 1.905766e-42
72.86470000 9.27558990 433.71701000 -0.55123901 0.72224700 -0.41772601 1.905766e-42
72.11979700 8.06937980 432.60800000 -0.54241198 0.73300099 -0.41048500 1.905766e-42
71.56569700 6.98843000 431.28000000 -0.53764302 0.74279898 -0.39898700 1.905766e-42
71.60189800 6.05882980 429.73901000 -0.54328102 0.74796402 -0.38130799 1.905766e-42
71.53140300 5.16120000 428.17999000 -0.54519600 0.75409901 -0.36619100 1.905766e-42
70.55590100 4.14022020 427.06400000 -0.52811402 0.76868898 -0.36085001 1.905766e-42
70.16560400 3.11220000 425.63901000 -0.52063102 0.77832502 -0.35093299 1.905766e-42
68.84850300 2.10460000 424.93900000 -0.49554101 0.79309797 -0.35416701 1.905766e-42
68.08640300 1.08282010 423.66800000 -0.48020601 0.80414099 -0.35036999 1.905766e-42
67.14569900 0.02474920 422.55701000 -0.45969000 0.81758201 -0.34676301 1.905766e-42
65.82620200 -0.90877002 421.76401000 -0.43215400 0.83348697 -0.34429899 1.905766e-42
65.05120100 -1.93201010 420.50299000 -0.41338301 0.84625900 -0.33609501 1.905766e-42
63.86290000 -2.79919000 419.46500000 -0.38837200 0.86101103 -0.32837099 1.905766e-42
63.33169900 -3.72934010 418.01901000 -0.37317300 0.87221998 -0.31618601 1.905766e-42
62.68709900 -4.47243980 416.51099000 -0.35621500 0.88383698 -0.30322000 1.905766e-42
61.87730000 -5.16028020 415.05801000 -0.33692399 0.89604801 -0.28910100 1.905766e-42
60.85630000 -5.94547990 413.80099000 -0.32118601 0.90175700 -0.28926399 1.905766e-42
59.56930200 -6.78882980 412.86700000 -0.30769199 0.90658998 -0.28882399 1.905766e-42
58.54819900 -7.56587980 411.60501000 -0.29892600 0.90954697 -0.28873399 1.905766e-42
57.44369900 -8.34134010 410.41400000 -0.29241300 0.91202700 -0.28757799 1.905766e-42
56.00379900 -9.03781030 409.58801000 -0.28908199 0.91402900 -0.28457499 1.905766e-42
54.76129900 -9.72558020 408.48199000 -0.28800401 0.91557699 -0.28066301 1.905766e-42
53.27370100 -10.26890000 407.62601000 -0.28972301 0.91672999 -0.27507401 1.905766e-42
52.09980000 -11.00000000 406.47400000 -0.25392300 0.92573601 -0.28024200 1.905766e-42
50.52190000 -11.36870000 405.69101000 -0.19865100 0.93648398 -0.28902599 1.905766e-42
49.03830000 -12.06960000 404.95099000 -0.14242300 0.94502801 -0.29434201 1.905766e-42
47.49280200 -12.63300000 404.22000000 -0.08402090 0.95118898 -0.29695001 1.905766e-42
46.04869800 -13.12640000 403.26501000 -0.03186870 0.95512402 -0.29448801 1.905766e-42
44.86159900 -13.58300000 401.99200000 0.00776942 0.95794702 -0.28683901 1.905766e-42
43.52420000 -13.95270000 400.84500000 0.05213280 0.95863003 -0.27983999 1.905766e-42
41.87419900 -13.81070000 400.14001000 0.10795500 0.95446497 -0.27810499 1.905766e-42
40.57120100 -13.97200000 398.90799000 0.14684001 0.95191598 -0.26887599 1.905766e-42
39.04750100 -13.93480000 397.95099000 0.17493100 0.94957602 -0.26020199 1.905766e-42
37.64170100 -13.98630000 396.82800000 0.19232000 0.94951898 -0.24784499 1.905766e-42
36.46160100 -14.20920000 395.48700000 0.20721000 0.95018202 -0.23284701 1.905766e-42
35.10599900 -14.19620000 394.30301000 0.22436300 0.94951701 -0.21926799 1.905766e-42
34.00130100 -14.26310000 392.88300000 0.23874500 0.94953400 -0.20343600 1.905766e-42
32.57650000 -13.97050000 391.82300000 0.25658801 0.94743901 -0.19110601 1.905766e-42
31.10420000 -13.64510000 390.84000000 0.27433801 0.94473100 -0.17950501 1.905766e-42
30.33190000 -13.68050000 389.21399000 0.28465500 0.94456601 -0.16360500 1.905766e-42
29.34260000 -13.63610000 387.71100000 0.29784799 0.94265503 -0.15062700 1.905766e-42
28.44940000 -13.65620000 386.14899000 0.31106001 0.94042701 -0.13725500 1.905766e-42
27.41910000 -13.44900000 384.68701000 0.32659301 0.93704998 -0.12359200 1.905766e-42
26.35740100 -13.27130000 383.24500000 0.33753401 0.93500900 -0.10875600 1.905766e-42
25.45960000 -13.23950000 381.68500000 0.34675899 0.93326700 -0.09364960 1.905766e-42
24.22260100 -12.91910000 380.41699000 0.35389900 0.93207097 -0.07745560 1.905766e-42
23.65210000 -12.85240000 378.71100000 0.36444300 0.92907703 -0.06322230 1.905766e-42
23.04220000 -13.16760000 377.04700000 0.37539500 0.92549700 -0.05033010 1.905766e-42
22.11940000 -12.51410000 375.64700000 0.38208899 0.92348897 -0.03429040 1.905766e-42
21.27129900 -12.11000000 374.11099000 0.38929901 0.92091900 -0.01883350 1.905766e-42
20.50810100 -11.81750000 372.50800000 0.39639500 0.91807097 -0.00418775 1.905766e-42
