# .PCD v0.7 - Point Cloud Data file format
# 3 101 1
# 1 41 0
# 42 74 0
# 75 101 1
VERSION 0.7
FIELDS x y z normal_x normal_y normal_z curvature
SIZE 4 4 4 4 4 4 4
TYPE F F F F F F F
COUNT 1 1 1 1 1 1 1
WIDTH 101
HEIGHT 1
VIEWPOINT 0 0 0 1 0 0 0
POINTS 101
DATA ascii
-6.37629990 2.68167000 410.94901000 -0.25932401 -0.66153997 -0.70364499 1.905766e-42
-6.70826010 3.82364990 409.59799000 -0.26710701 -0.63963598 -0.72077698 1.905766e-42
-6.94230990 5.27515980 408.78101000 -0.27379599 -0.59678698 -0.75424200 1.905766e-42
-6.49363990 6.47270010 407.51501000 -0.28721201 -0.54713899 -0.78622401 1.905766e-42
-5.91052010 7.74644990 406.38400000 -0.28899601 -0.48922700 -0.82288402 1.905766e-42
-6.00427010 9.42541030 405.74200000 -0.27929500 -0.44379500 -0.85149300 1.905766e-42
-5.35875990 10.60700000 404.54700000 -0.27326199 -0.44806701 -0.85121298 1.905766e-42
-4.76619010 12.06480000 403.67401000 -0.26785699 -0.45289299 -0.85037702 1.905766e-42
-4.78490020 13.69370000 402.90799000 -0.25946000 -0.46069399 -0.84878802 1.905766e-42
-4.66204980 15.39770000 402.34100000 -0.25237599 -0.46711701 -0.84741300 1.905766e-42
-3.82612990 16.47780000 401.16901000 -0.25390899 -0.49422401 -0.83142799 1.905766e-42
-3.54140000 17.90430100 400.10800000 -0.25641501 -0.53421599 -0.80552101 1.905766e-42
-3.08144000 19.23300000 398.98499000 -0.26252601 -0.57128900 -0.77763098 1.905766e-42
-2.85992000 20.57010100 397.79999000 -0.27116901 -0.60642999 -0.74746901 1.905766e-42
-2.23902990 21.72150000 396.56400000 -0.28281000 -0.63920301 -0.71514899 1.905766e-42
-1.52154000 22.82650000 395.33701000 -0.29042199 -0.64174402 -0.70980197 1.905766e-42
-1.36598000 24.14530000 394.12201000 -0.29829299 -0.64184499 -0.70643902 1.905766e-42
-0.60217398 25.19980000 392.87900000 -0.30571800 -0.64427203 -0.70103502 1.905766e-42
-0.22517399 26.40720000 391.59900000 -0.31403399 -0.64535099 -0.69635099 1.905766e-42
0.69893301 27.26450000 390.31400000 -0.32060799 -0.64909297 -0.68984699 1.905766e-42
1.04101000 28.47530000 389.02600000 -0.32836801 -0.65022802 -0.68511200 1.905766e-42
1.52984000 29.65950000 387.76199000 -0.33418700 -0.65203100 -0.68056899 1.905766e-42
2.30628990 30.60640000 386.44299000 -0.33612901 -0.65526402 -0.67649603 1.905766e-42
3.25949000 31.37570000 385.12399000 -0.33264500 -0.65953302 -0.67406499 1.905766e-42
3.59785010 32.64699900 383.89499000 -0.33262801 -0.66066903 -0.67295998 1.905766e-42
4.87118010 33.07230000 382.69601000 -0.32776800 -0.66229397 -0.67374700 1.905766e-42
5.09045980 34.37799800 381.47699000 -0.32733601 -0.66276401 -0.67349499 1.905766e-42
6.00577020 35.21780000 380.17401000 -0.33488500 -0.66071397 -0.67179501 1.905766e-42
6.84885980 36.13250000 378.87299000 -0.34190401 -0.65905398 -0.66988701 1.905766e-42
7.81232020 36.82199900 377.51801000 -0.35057199 -0.66553199 -0.65891302 1.905766e-42
8.87730980 37.45550200 376.21201000 -0.36031401 -0.67990899 -0.63866901 1.905766e-42
9.81766030 38.19879900 374.87000000 -0.36905900 -0.69647002 -0.61540598 1.905766e-42
10.53590000 39.00870100 373.43201000 -0.37658599 -0.71501398 -0.58901501 1.905766e-42
11.32120000 39.74509800 371.98901000 -0.38430899 -0.73320401 -0.56099701 1.905766e-42
12.34890000 40.24520100 370.59799000 -0.39286599 -0.74243802 -0.54262602 1.905766e-42
13.29720000 40.85500000 369.19501000 -0.40261400 -0.73607600 -0.54414499 1.905766e-42
14.27890000 41.52299900 367.84201000 -0.41256100 -0.73191798 -0.54229999 1.905766e-42
15.71540000 41.21920000 366.80099000 -0.41977900 -0.73510998 -0.53235298 1.905766e-42
16.93899900 41.46709800 365.50400000 -0.43513501 -0.73542100 -0.51943600 1.905766e-42
18.04350100 42.14170100 364.25299000 -0.45321801 -0.73480201 -0.50463903 1.905766e-42
19.21920000 42.02740100 362.89499000 -0.46839699 -0.73783797 -0.48600301 1.905766e-42
20.46940000 41.86840100 361.60999000 -0.47964400 -0.74258602 -0.46744701 1.905766e-42
21.52409900 40.65679900 362.42200000 -0.47693601 -0.74273300 -0.46997899 1.905766e-42
22.36770100 39.51630000 363.53000000 -0.48305601 -0.73327899 -0.47849700 1.905766e-42
22.43250100 38.40150100 364.94199000 -0.48666999 -0.72108603 -0.49314100 1.905766e-42
22.86450000 37.21540100 366.22501000 -0.49812499 -0.70175999 -0.50931799 1.905766e-42
22.86030000 36.15720000 367.68100000 -0.50378299 -0.68004000 -0.53268099 1.905766e-42
23.38740000 34.86280100 368.81601000 -0.51934302 -0.65047002 -0.55423099 1.905766e-42
24.11870000 33.48090000 369.70801000 -0.53455299 -0.62588602 -0.56790900 1.905766e-42
24.77330000 32.05229900 370.58499000 -0.54456103 -0.60756099 -0.57820702 1.905766e-42
25.15410000 30.63800000 371.63199000 -0.54506701 -0.59630197 -0.58934402 1.905766e-42
25.35170000 29.27860100 372.79501000 -0.53671300 -0.59115201 -0.60206097 1.905766e-42
25.68170000 27.87850000 373.87701000 -0.52441800 -0.59852803 -0.60559899 1.905766e-42
26.26829900 26.44630100 374.79599000 -0.51805401 -0.60704899 -0.60258698 1.905766e-42
26.65300000 25.06790000 375.88800000 -0.51592600 -0.61020303 -0.60122597 1.905766e-42
27.19650100 23.65040000 376.85501000 -0.51907200 -0.60854101 -0.60020202 1.905766e-42
28.01359900 22.24000000 377.61801000 -0.52683002 -0.60141098 -0.60062897 1.905766e-42
28.73460000 20.83980000 378.48999000 -0.53679699 -0.59001100 -0.60310501 1.905766e-42
29.03590000 19.41300000 379.54501000 -0.54519600 -0.57923400 -0.60601199 1.905766e-42
29.64410000 17.95210100 380.40302000 -0.55543798 -0.56819201 -0.60716301 1.905766e-42
29.81550000 16.51350000 381.47101000 -0.56340498 -0.55998302 -0.60744900 1.905766e-42
30.45610000 15.00790000 382.22101000 -0.57845098 -0.54762799 -0.60456401 1.905766e-42
30.73110000 13.54730000 383.23700000 -0.58803302 -0.52753001 -0.61313099 1.905766e-42
31.28800000 11.99070000 383.94901000 -0.60013998 -0.48229101 -0.63814402 1.905766e-42
32.18880100 10.46400000 384.26099000 -0.61912400 -0.43695199 -0.65250200 1.905766e-42
32.72600200 8.87226010 384.90799000 -0.62845302 -0.39004499 -0.67298698 1.905766e-42
32.60220000 7.29974990 385.77499000 -0.62205702 -0.34819800 -0.70128697 1.905766e-42
32.69969900 5.62555980 386.42899000 -0.60845101 -0.31614000 -0.72790301 1.905766e-42
33.51760100 4.02314000 386.48599000 -0.60676801 -0.33711100 -0.71985298 1.905766e-42
33.09709900 2.56999990 387.46100000 -0.60341102 -0.36147100 -0.71079803 1.905766e-42
33.43899900 0.91867900 388.09100000 -0.59907198 -0.38899800 -0.69985300 1.905766e-42
34.37490100 -0.60958099 388.26001000 -0.59651899 -0.41210601 -0.68871897 1.905766e-42
34.51900100 -2.21517990 389.06100000 -0.59422898 -0.43578100 -0.67600799 1.905766e-42
34.99729900 -3.82554010 389.70700000 -0.59494400 -0.45043501 -0.66569501 1.905766e-42
34.75059900 -5.22890000 390.80701000 -0.59634900 -0.46298599 -0.65575302 1.905766e-42
33.88290000 -5.87883000 392.24399000 -0.59400702 -0.47666201 -0.64803499 1.905766e-42
32.37780000 -5.31407020 393.05399000 -0.58408999 -0.48377201 -0.65176898 1.905766e-42
31.06530000 -5.29401020 394.28500000 -0.57261997 -0.49787599 -0.65132600 1.905766e-42
29.71310000 -5.19440980 395.46899000 -0.55619901 -0.51500201 -0.65223902 1.905766e-42
28.17310000 -4.79960010 396.31299000 -0.54190397 -0.52546102 -0.65591902 1.905766e-42
26.64279900 -4.33917000 397.14200000 -0.53090698 -0.53230703 -0.65938300 1.905766e-42
25.14069900 -4.01187990 398.07800000 -0.52071702 -0.54074597 -0.66064101 1.905766e-42
23.79480000 -4.04939990 399.27301000 -0.50862497 -0.54481202 -0.66669399 1.905766e-42
22.22069900 -3.66745000 400.05801000 -0.49410999 -0.54781997 -0.67509103 1.905766e-42
20.62560100 -3.19377990 400.74399000 -0.47896299 -0.55010200 -0.68409199 1.905766e-42
19.20760000 -3.19411990 401.85300000 -0.46501100 -0.55591202 -0.68900400 1.905766e-42
17.59940000 -2.77899000 402.54700000 -0.45626301 -0.55765998 -0.69342601 1.905766e-42
15.97560000 -2.35602000 403.19800000 -0.44807500 -0.56021398 -0.69669902 1.905766e-42
14.48800000 -2.25914000 404.20700000 -0.44136101 -0.56768799 -0.69493198 1.905766e-42
12.87530000 -1.92627000 404.93399000 -0.42917800 -0.57596600 -0.69575101 1.905766e-42
11.23770000 -1.54220000 405.57501000 -0.41544801 -0.58461899 -0.69686699 1.905766e-42
10.05530000 -1.25640000 406.90100000 -0.40493000 -0.59792799 -0.69174701 1.905766e-42
8.39910030 -0.69629902 406.47299000 -0.39127800 -0.59782600 -0.69964701 1.905766e-42
6.77438020 -0.48174399 407.21799000 -0.38219199 -0.60901302 -0.69500601 1.905766e-42
5.10479020 0.04045030 407.64200000 -0.37136301 -0.61542797 -0.69522500 1.905766e-42
3.56949000 0.13071400 408.57700000 -0.36275199 -0.63012701 -0.68655002 1.905766e-42
1.85769000 0.61317301 408.85400000 -0.35081300 -0.63532603 -0.68796200 1.905766e-42
0.17732400 1.03890000 409.33899000 -0.33784899 -0.64363003 -0.68673003 1.905766e-42
-1.51592000 1.62692000 409.50400000 -0.32106799 -0.64781600 -0.69083297 1.905766e-42
-3.08930990 1.74098000 410.37100000 -0.31075999 -0.66109598 -0.68292099 1.905766e-42
-4.75179000 2.41467000 410.22101000 -0.30042699 -0.65911198 -0.68943101 1.905766e-42
