# .PCD v0.7 - Point Cloud Data file format
# 3 47 0
# 1 14 0
# 15 28 0
# 29 47 0
VERSION 0.7
FIELDS x y z normal_x normal_y normal_z curvature
SIZE 4 4 4 4 4 4 4
TYPE F F F F F F F
COUNT 1 1 1 1 1 1 1
WIDTH 47
HEIGHT 1
VIEWPOINT 0 0 0 1 0 0 0
POINTS 47
DATA ascii
33.71880000 16.07690000 470.54300000 0.17684200 -0.73136902 0.65865397 1.905766e-42
34.28559900 17.64970000 471.99500000 0.21092300 -0.71933001 0.66187298 1.905766e-42
32.50460100 17.39959900 472.06900000 0.14491899 -0.72652400 0.67168498 1.905766e-42
31.08140000 16.46980100 471.47800000 0.10330800 -0.73662603 0.66836399 1.905766e-42
29.30369900 16.54700100 471.75000000 0.06856540 -0.74555397 0.66290802 1.905766e-42
27.64850000 15.98110000 471.32501000 0.03199650 -0.75619602 0.65356201 1.905766e-42
25.86380000 15.78040000 471.20499000 -0.00065665 -0.75412101 0.65673500 1.905766e-42
24.07810000 15.98440000 471.30301000 -0.04188490 -0.73644698 0.67519802 1.905766e-42
22.30859900 15.89490000 470.98599000 -0.08971500 -0.70850402 0.69998097 1.905766e-42
20.55190100 15.80010000 470.60501000 -0.09631750 -0.68864298 0.71867502 1.905766e-42
19.02969900 15.15300000 469.89499000 -0.11311000 -0.70123398 0.70390099 1.905766e-42
17.26120000 15.22790000 469.56799000 -0.13692500 -0.70612299 0.69472498 1.905766e-42
15.55260000 15.20580000 469.00201000 -0.13975300 -0.71773201 0.68215001 1.905766e-42
14.00570000 14.58040000 468.32700000 -0.11908200 -0.74571300 0.65553999 1.905766e-42
12.27420000 14.42890000 467.85901000 -0.13319001 -0.76188701 0.63386703 1.905766e-42
11.90410000 13.42780000 466.40900000 -0.14471599 -0.78977400 0.59608299 1.905766e-42
12.50870000 12.32980000 465.11801000 -0.13150500 -0.81163698 0.56916797 1.905766e-42
12.73010000 11.28930000 463.66599000 -0.11597700 -0.82603300 0.55155998 1.905766e-42
13.20190000 10.32860000 462.21799000 -0.10166800 -0.83130801 0.54643399 1.905766e-42
13.47250000 9.27845950 460.78201000 -0.11905200 -0.83012301 0.54472297 1.905766e-42
13.58010000 8.27952960 459.28799000 -0.13729399 -0.84918702 0.50993401 1.905766e-42
13.59300000 7.53199010 457.65100000 -0.18682601 -0.85507202 0.48368099 1.905766e-42
13.61930000 6.56019020 456.13599000 -0.25122499 -0.83635199 0.48723799 1.905766e-42
13.59800000 5.61158990 454.60599000 -0.26939699 -0.81525099 0.51263201 1.905766e-42
13.59910000 4.63090990 453.09698000 -0.24080200 -0.82394201 0.51296502 1.905766e-42
12.79860000 3.98985000 451.61801000 -0.24899100 -0.83005798 0.49900600 1.905766e-42
13.35020000 3.02905010 450.19901000 -0.20661700 -0.87018800 0.44730601 1.905766e-42
13.40890000 2.26315000 448.57101000 -0.16257299 -0.90291297 0.39789200 1.905766e-42
14.70410000 1.56544010 447.53400000 -0.15957101 -0.90013802 0.40532401 1.905766e-42
16.45770100 1.48042000 447.93100000 -0.11779400 -0.90337598 0.41235399 1.905766e-42
17.71769900 1.90968000 449.14200000 -0.09010980 -0.90261102 0.42092001 1.905766e-42
18.89909900 2.43164990 450.39600000 -0.05947410 -0.89218003 0.44774699 1.905766e-42
19.85790100 3.01856990 451.80200000 -0.02826680 -0.88593203 0.46295300 1.905766e-42
20.60720100 3.73277000 453.27399000 -0.00114761 -0.88413900 0.46722299 1.905766e-42
21.38880000 4.54202990 454.67899000 0.02694300 -0.88051999 0.47324300 1.905766e-42
22.22530000 5.44592000 455.99200000 0.05351450 -0.87451702 0.48203301 1.905766e-42
23.22440000 6.19634010 457.28799000 0.07089850 -0.87452900 0.47976199 1.905766e-42
23.97060000 7.01430990 458.70700000 0.06362590 -0.87948298 0.47165799 1.905766e-42
25.26790000 7.72297000 459.73401000 0.06787760 -0.88692403 0.45690101 1.905766e-42
25.97960100 8.44781020 461.22000000 0.07080000 -0.87193400 0.48447701 1.905766e-42
27.16580000 9.16084000 462.37100000 0.09255920 -0.86030197 0.50131100 1.905766e-42
28.18350000 10.03060000 463.57401000 0.09951120 -0.84595698 0.52388501 1.905766e-42
29.33190000 10.94900000 464.61200000 0.10995900 -0.83442700 0.54003799 1.905766e-42
30.29330100 11.88130000 465.81500000 0.11354600 -0.81766200 0.56439000 1.905766e-42
31.11340000 12.85200000 467.09000000 0.11373000 -0.80252200 0.58568197 1.905766e-42
32.03620100 13.86700000 468.25500000 0.12285800 -0.78697199 0.60463297 1.905766e-42
32.85620100 14.94790000 469.43799000 0.15413100 -0.75595301 0.63622302 1.905766e-42
