# .PCD v0.7 - Point Cloud Data file format
# 3 112 -2
# 1 36 0
# 37 79 0
# 80 112 0
VERSION 0.7
FIELDS x y z normal_x normal_y normal_z curvature
SIZE 4 4 4 4 4 4 4
TYPE F F F F F F F
COUNT 1 1 1 1 1 1 1
WIDTH 112
HEIGHT 1
VIEWPOINT 0 0 0 1 0 0 0
POINTS 112
DATA ascii
43.66159800 33.45750000 449.38101000 0.01132070 -0.76016903 -0.64962697 1.905766e-42
43.77970100 32.38950000 450.82501000 0.00020671 -0.77778500 -0.62853003 1.905766e-42
43.20610000 31.22900000 452.07599000 -0.01203740 -0.79752898 -0.60316098 1.905766e-42
43.52430000 30.32210000 453.59799000 -0.02961350 -0.79436898 -0.60671300 1.905766e-42
43.12080000 29.79870000 454.09698000 -0.03039500 -0.78610599 -0.61734402 1.905766e-42
43.13190100 28.72040000 455.53799000 -0.03773370 -0.76413202 -0.64395499 1.905766e-42
42.94590000 27.58180000 456.92001000 -0.03976660 -0.74595100 -0.66481298 1.905766e-42
42.69189800 26.43980000 458.28799000 -0.03673730 -0.73084998 -0.68154901 1.905766e-42
42.28030000 25.18800000 459.51401000 -0.03040360 -0.72062200 -0.69266099 1.905766e-42
41.49359900 24.01000000 460.62500000 -0.02389450 -0.71198303 -0.70178998 1.905766e-42
41.01390100 22.82550000 461.89200000 -0.02204940 -0.70293999 -0.71090698 1.905766e-42
40.67139800 21.68759900 463.24399000 -0.02296820 -0.69376498 -0.71983600 1.905766e-42
39.64390200 20.46570000 464.07501000 -0.02241290 -0.68771303 -0.72563702 1.905766e-42
38.87810100 19.30960100 465.22299000 -0.02266790 -0.67956400 -0.73326600 1.905766e-42
38.09999800 18.26350000 466.46399000 -0.01984650 -0.67017001 -0.74194199 1.905766e-42
36.59050000 17.47790000 467.05099000 -0.01149360 -0.66233200 -0.74912202 1.905766e-42
35.74940100 16.34310000 468.16599000 -0.00170361 -0.64906198 -0.76073402 1.905766e-42
35.09429900 15.00980000 469.18301000 0.01175020 -0.63334602 -0.77377898 1.905766e-42
34.50090000 13.62590000 470.16901000 0.02790690 -0.60970300 -0.79213798 1.905766e-42
33.46849800 12.40510000 470.99600000 0.04535790 -0.58593303 -0.80908900 1.905766e-42
33.04869800 10.95660000 471.97900000 0.05582000 -0.56043100 -0.82631803 1.905766e-42
32.52870200 9.46584030 472.84299000 0.06264890 -0.53387898 -0.84323698 1.905766e-42
31.72380100 8.08829980 473.67700000 0.06225190 -0.51738399 -0.85348600 1.905766e-42
30.26790000 7.16350980 474.19101000 0.07929070 -0.51173699 -0.85547501 1.905766e-42
29.14769900 5.89356990 474.80200000 0.09235590 -0.50099403 -0.86050898 1.905766e-42
28.10430000 4.58398010 475.46201000 0.10428000 -0.48835999 -0.86638898 1.905766e-42
27.07460000 3.23641990 476.06500000 0.11486300 -0.47497901 -0.87246901 1.905766e-42
26.93030000 1.63136990 476.86700000 0.11411400 -0.45991099 -0.88060200 1.905766e-42
25.86850000 0.28813601 477.42200000 0.11894100 -0.45019200 -0.88497502 1.905766e-42
24.82640100 -1.06142000 477.99899000 0.11813800 -0.44174501 -0.88932800 1.905766e-42
23.90850100 -2.49028990 478.59601000 0.11049400 -0.43363601 -0.89428800 1.905766e-42
23.00160000 -3.94163990 479.15399000 0.11171100 -0.42755401 -0.89706099 1.905766e-42
22.63520100 -5.55822990 479.85501000 0.10317600 -0.43667999 -0.89368099 1.905766e-42
21.72839900 -7.01960990 480.38599000 0.11564000 -0.45204899 -0.88446498 1.905766e-42
20.61949900 -8.34167960 480.89899000 0.13188000 -0.46699801 -0.87436903 1.905766e-42
20.11290000 -9.88724990 481.67001000 0.12231800 -0.47804400 -0.86977702 1.905766e-42
19.00919900 -11.18450000 482.25201000 0.12086200 -0.49629501 -0.85970002 1.905766e-42
17.21040000 -11.24920000 482.25000000 0.14474100 -0.52772498 -0.83699203 1.905766e-42
15.75830000 -10.39510000 481.61600000 0.19621700 -0.55350602 -0.80940098 1.905766e-42
14.16100000 -10.30250000 480.79099000 0.24374300 -0.59975702 -0.76215500 1.905766e-42
12.46780000 -10.81970000 480.46600000 0.23845600 -0.67842400 -0.69489503 1.905766e-42
10.80770000 -11.02510000 479.80099000 0.23274700 -0.76067001 -0.60597801 1.905766e-42
9.24259000 -10.43520000 479.13599000 0.26253301 -0.81294501 -0.51980501 1.905766e-42
7.61816980 -10.36090000 478.36401000 0.26205701 -0.86444002 -0.42903301 1.905766e-42
6.25770000 -10.20390000 477.19601000 0.28920901 -0.88227999 -0.37140301 1.905766e-42
5.46650980 -9.45423980 475.76401000 0.37531400 -0.84189302 -0.38775599 1.905766e-42
5.16601990 -9.09055040 474.02701000 0.47062299 -0.75051999 -0.46393201 1.905766e-42
4.99848990 -8.76873970 472.26401000 0.54673302 -0.61013699 -0.57342499 1.905766e-42
4.07058000 -8.07120040 470.88800000 0.58355403 -0.45290300 -0.67404997 1.905766e-42
3.54678010 -6.73769000 469.79800000 0.60888797 -0.38156900 -0.69545698 1.905766e-42
2.66864990 -5.59727000 468.71701000 0.61325800 -0.39241299 -0.68551099 1.905766e-42
2.27146010 -4.18701980 467.67200000 0.62940902 -0.38947701 -0.67242301 1.905766e-42
2.09415010 -2.78467010 466.55701000 0.64546502 -0.38400799 -0.66023701 1.905766e-42
1.18506000 -2.21745990 465.11099000 0.65990400 -0.39075300 -0.64174598 1.905766e-42
0.05798720 -1.81180000 463.76700000 0.66498899 -0.40690199 -0.62627602 1.905766e-42
-0.04285770 -0.39499500 462.66199000 0.67961299 -0.40184000 -0.61371797 1.905766e-42
-0.17730799 1.01545000 461.55200000 0.68935102 -0.39775300 -0.60546398 1.905766e-42
-0.53548199 2.24366000 460.28500000 0.69574600 -0.39510599 -0.59985799 1.905766e-42
-1.22458000 3.13476990 458.88101000 0.70270997 -0.39234599 -0.59351802 1.905766e-42
-1.73350000 4.12451980 457.46701000 0.71048802 -0.40923801 -0.57247800 1.905766e-42
-2.36489010 5.00424000 456.02899000 0.72031403 -0.42987999 -0.54438102 1.905766e-42
-2.90348010 6.10064980 454.70700000 0.73010600 -0.44901001 -0.51510698 1.905766e-42
-3.10489990 7.39691020 453.47400000 0.73714602 -0.46715200 -0.48824701 1.905766e-42
-2.40680000 8.89334010 452.75800000 0.73288703 -0.48646900 -0.47562999 1.905766e-42
-1.85501000 10.37160000 451.89200000 0.72779900 -0.50675201 -0.46207300 1.905766e-42
-1.64999000 11.69720000 450.69101000 0.72654599 -0.52574497 -0.44240600 1.905766e-42
-1.46374000 12.96090000 449.42300000 0.72454298 -0.54460502 -0.42242500 1.905766e-42
-0.80593598 14.46000000 448.67499000 0.71094900 -0.56952500 -0.41254500 1.905766e-42
-0.70401001 15.60030000 447.28601000 0.70845503 -0.58529902 -0.39435601 1.905766e-42
-0.30555201 16.87960100 446.08401000 0.70049500 -0.60102201 -0.38481101 1.905766e-42
-0.55368298 17.59320100 444.45001000 0.70450902 -0.60576898 -0.36974499 1.905766e-42
-0.53426200 18.48399900 442.88599000 0.70255798 -0.61453998 -0.35882100 1.905766e-42
-0.84943402 19.07140000 441.21399000 0.70439899 -0.61804098 -0.34906599 1.905766e-42
-1.57088990 19.22590100 439.57199000 0.71153003 -0.61451697 -0.34072500 1.905766e-42
-2.02508000 19.54850000 437.86099000 0.71580797 -0.61277598 -0.33484900 1.905766e-42
-2.61648010 19.76969900 436.17499000 0.72064102 -0.61015397 -0.32922301 1.905766e-42
-2.97515010 20.23770000 434.47400000 0.72263402 -0.60966301 -0.32574901 1.905766e-42
-2.96375990 21.13200000 432.91199000 0.71970302 -0.61232001 -0.32725000 1.905766e-42
-2.71947000 22.20780000 431.48999000 0.71160799 -0.61669999 -0.33659300 1.905766e-42
-2.15721010 23.52710000 430.40201000 0.70009899 -0.62293899 -0.34901100 1.905766e-42
-0.85305500 24.45410000 431.22699000 0.68892097 -0.63668501 -0.34643799 1.905766e-42
0.46369001 25.38260100 432.02899000 0.67493701 -0.65032601 -0.34861901 1.905766e-42
1.70692000 26.68120000 432.11801000 0.65742302 -0.66280001 -0.35845599 1.905766e-42
3.10858990 27.44470000 432.95001000 0.63243097 -0.68129599 -0.36860001 1.905766e-42
4.49474000 28.51730000 433.35999000 0.60742003 -0.69839698 -0.37852600 1.905766e-42
5.86915020 29.62990000 433.69601000 0.58427101 -0.71388203 -0.38600501 1.905766e-42
7.34438990 30.35470000 434.42999000 0.56371999 -0.72808599 -0.39001200 1.905766e-42
8.84906010 30.97279900 435.20099000 0.54124600 -0.74211699 -0.39536700 1.905766e-42
10.30660000 31.91400000 435.67999000 0.51440400 -0.75670201 -0.40347299 1.905766e-42
11.61710000 31.90740000 436.91400000 0.49319699 -0.76714402 -0.41017899 1.905766e-42
12.05710000 31.37450000 438.57599000 0.48292899 -0.77108401 -0.41498101 1.905766e-42
12.62490000 30.89160000 440.21399000 0.46895099 -0.77553099 -0.42265400 1.905766e-42
13.11720000 30.25680000 441.82501000 0.45594499 -0.77856100 -0.43122700 1.905766e-42
14.53560000 30.53860100 442.89700000 0.43164700 -0.78561401 -0.44327399 1.905766e-42
16.14839900 31.33210000 442.80099000 0.40885699 -0.79306901 -0.45152700 1.905766e-42
17.52210000 32.35870000 442.25400000 0.39029500 -0.79932803 -0.45688501 1.905766e-42
18.94700100 33.34949900 441.77600000 0.37109399 -0.80518103 -0.46257201 1.905766e-42
20.06990100 34.34349800 440.78101000 0.35811701 -0.80935198 -0.46551201 1.905766e-42
21.50140000 35.31900000 440.29199000 0.33944100 -0.81363398 -0.47199500 1.905766e-42
23.13610100 35.56309900 441.00400000 0.31442800 -0.81642699 -0.48433700 1.905766e-42
24.82049900 36.01670100 441.44800000 0.29102200 -0.81703800 -0.49775001 1.905766e-42
26.42540000 36.00210200 442.26300000 0.26582900 -0.81558198 -0.51396602 1.905766e-42
28.08970100 36.04190100 442.94800000 0.24414501 -0.81176198 -0.53050500 1.905766e-42
29.80290000 36.36249900 443.39700000 0.22418401 -0.80557400 -0.54844499 1.905766e-42
31.34580000 36.01240200 444.25601000 0.19794200 -0.79982299 -0.56665897 1.905766e-42
33.04670000 35.99160000 444.84500000 0.17377201 -0.79206902 -0.58517498 1.905766e-42
34.73420000 35.89300200 445.46301000 0.15217900 -0.78387702 -0.60197902 1.905766e-42
36.19089900 35.38539900 446.39099000 0.12374800 -0.77841800 -0.61542898 1.905766e-42
37.89920000 35.95230100 446.41501000 0.10603600 -0.76423800 -0.63615799 1.905766e-42
39.25619900 35.11439900 447.24899000 0.07371150 -0.76110202 -0.64443099 1.905766e-42
40.62239800 34.38430000 448.16599000 0.04914150 -0.76122898 -0.64661801 1.905766e-42
42.40309900 34.31160000 448.41901000 0.03346060 -0.75237697 -0.65788198 1.905766e-42
