# .PCD v0.7 - Point Cloud Data file format
# 4 95 -2
# 1 13 0
# 14 35 0
# 36 63 0
# 64 95 0
VERSION 0.7
FIELDS x y z normal_x normal_y normal_z curvature
SIZE 4 4 4 4 4 4 4
TYPE F F F F F F F
COUNT 1 1 1 1 1 1 1
WIDTH 95
HEIGHT 1
VIEWPOINT 0 0 0 1 0 0 0
POINTS 95
DATA ascii
4.79384990 4.71345000 468.21201000 0.13373300 0.87433797 -0.46652901 1.905766e-42
4.52322010 5.38651990 468.78699000 0.13207100 0.87654299 -0.46285000 1.905766e-42
2.73770000 5.60854010 468.83899000 0.13034600 0.87935400 -0.45798001 1.905766e-42
0.98659903 5.92717980 469.10699000 0.12850000 0.88383698 -0.44980100 1.905766e-42
-0.64088303 6.47880980 469.64301000 0.12335400 0.88915801 -0.44066101 1.905766e-42
-2.38294010 6.84460020 469.91000000 0.12721600 0.88995802 -0.43793899 1.905766e-42
-4.03267000 7.37552980 470.39700000 0.13093700 0.88910103 -0.43858299 1.905766e-42
-5.82218980 7.56769990 470.42300000 0.13307700 0.88919801 -0.43774101 1.905766e-42
-7.59282020 7.87216000 470.53299000 0.13338800 0.88879800 -0.43845800 1.905766e-42
-9.34488960 8.20884040 470.77100000 0.12838700 0.88701099 -0.44354099 1.905766e-42
-11.00480000 8.75088980 471.20801000 0.11071900 0.88366997 -0.45482901 1.905766e-42
-12.77940000 9.05121040 471.23499000 0.06918210 0.88217098 -0.46582001 1.905766e-42
-14.55740000 9.28930000 471.38400000 0.00984578 0.87459803 -0.48474899 1.905766e-42
-15.95830000 9.39984990 472.50900000 -0.02577680 0.85583699 -0.51660198 1.905766e-42
-16.56119900 10.25920000 473.97101000 -0.02168130 0.84040099 -0.54153198 1.905766e-42
-16.01359900 11.53230000 475.11899000 0.01709990 0.83898097 -0.54389203 1.905766e-42
-16.26479900 12.48420000 476.62601000 0.03466320 0.83525699 -0.54876602 1.905766e-42
-16.29110000 13.39800000 478.17700000 0.06737500 0.83361000 -0.54822898 1.905766e-42
-15.79380000 14.32140000 479.64001000 0.11775700 0.83901399 -0.53121501 1.905766e-42
-15.16680000 15.15880000 481.10501000 0.15058900 0.83516598 -0.52898002 1.905766e-42
-15.73780000 16.12070100 482.51501000 0.15034001 0.82123297 -0.55043101 1.905766e-42
-15.09460000 16.99570100 483.95001000 0.16067000 0.80871499 -0.56583101 1.905766e-42
-15.19420000 17.99670000 485.44299000 0.16669500 0.79479802 -0.58353102 1.905766e-42
-15.76000000 19.01870000 486.81201000 0.17547600 0.77736998 -0.60407299 1.905766e-42
-15.25830000 20.18180100 488.09100000 0.18881100 0.76361400 -0.61744899 1.905766e-42
-15.91890000 21.36109900 489.28000000 0.19698200 0.74535698 -0.63690001 1.905766e-42
-16.03650100 22.56600000 490.61200000 0.20465100 0.72743899 -0.65494299 1.905766e-42
-16.82230000 23.71430000 491.75400000 0.20913900 0.71163398 -0.67069900 1.905766e-42
-17.38060000 24.96190100 492.92499000 0.20858300 0.69948900 -0.68352699 1.905766e-42
-17.36290000 26.27140000 494.16000000 0.21057200 0.68598998 -0.69647503 1.905766e-42
-18.26269900 27.47909900 495.14600000 0.20756300 0.67268300 -0.71022201 1.905766e-42
-18.69409900 28.78540000 496.30701000 0.20566900 0.65562898 -0.72653300 1.905766e-42
-19.05500000 30.11370100 497.46701000 0.19951101 0.64697403 -0.73594898 1.905766e-42
-19.39310100 31.48620000 498.58099000 0.19683699 0.65333003 -0.73103702 1.905766e-42
-19.22520100 32.93510100 499.63599000 0.20330900 0.67676002 -0.70757401 1.905766e-42
-19.65169900 34.23400100 500.80701000 0.20751400 0.70451999 -0.67866701 1.905766e-42
-18.28319900 34.71110200 501.87399000 0.20770700 0.72496998 -0.65671599 1.905766e-42
-16.58939900 34.75970100 502.48099000 0.20829600 0.73315400 -0.64737803 1.905766e-42
-14.97300000 34.89830000 503.26099000 0.20196900 0.74080801 -0.64063400 1.905766e-42
-13.33370000 34.94290200 504.00299000 0.19377400 0.74529201 -0.63795900 1.905766e-42
-11.54840000 34.84190000 504.20901000 0.18847500 0.74199402 -0.64336801 1.905766e-42
-9.94565010 34.97700100 505.01700000 0.18041401 0.75107902 -0.63508397 1.905766e-42
-8.23680020 34.96170000 505.58301000 0.17586900 0.75355101 -0.63342798 1.905766e-42
-6.44269990 34.81689800 505.59698000 0.17533800 0.74374902 -0.64505303 1.905766e-42
-4.65996980 34.57120100 505.63599000 0.17268699 0.73409498 -0.65672201 1.905766e-42
-3.05007000 34.73440200 506.42499000 0.16631900 0.74441701 -0.64666897 1.905766e-42
-1.27098000 34.60060100 506.66299000 0.16156900 0.74378401 -0.64859903 1.905766e-42
0.44700199 34.61619900 507.20001000 0.15654500 0.75082201 -0.64168501 1.905766e-42
2.23169990 34.38219800 507.20999000 0.15381201 0.74601698 -0.64792001 1.905766e-42
3.98374010 34.36660000 507.62201000 0.14661300 0.75087398 -0.64396602 1.905766e-42
5.74816990 34.18560000 507.92899000 0.13569801 0.75189900 -0.64516300 1.905766e-42
7.53263000 33.96289800 508.00699000 0.12586500 0.75181699 -0.64724702 1.905766e-42
9.31853010 33.73870100 508.02499000 0.12616500 0.74833101 -0.65121698 1.905766e-42
11.10550000 33.56769900 508.15701000 0.12984601 0.74874502 -0.65001601 1.905766e-42
12.85840000 33.51699800 508.56299000 0.13293099 0.75618201 -0.64071602 1.905766e-42
14.63570000 33.35559800 508.79700000 0.13016900 0.76087302 -0.63571101 1.905766e-42
16.42230000 33.13620000 508.79501000 0.11848300 0.76234901 -0.63622802 1.905766e-42
18.20630100 32.89690000 508.79800000 0.11064200 0.76543701 -0.63392800 1.905766e-42
19.98679900 32.63250000 508.79199000 0.10564800 0.76843297 -0.63114899 1.905766e-42
21.77010000 32.38769900 508.78799000 0.10122900 0.77219301 -0.62727201 1.905766e-42
23.54950000 32.11669900 508.77802000 0.09648080 0.77548897 -0.62394601 1.905766e-42
25.32239900 31.81699900 508.69400000 0.09270490 0.77599102 -0.62389398 1.905766e-42
27.10520000 31.57679900 508.75601000 0.08444970 0.77887499 -0.62146801 1.905766e-42
28.86720100 31.22979900 508.63400000 0.06426950 0.77850300 -0.62434202 1.905766e-42
29.58190000 30.33560000 507.24500000 0.05590570 0.74652100 -0.66300899 1.905766e-42
29.71130000 29.16449900 505.88400000 0.06158860 0.71285999 -0.69859701 1.905766e-42
30.09530100 27.86280100 504.70200000 0.06690790 0.68720001 -0.72338003 1.905766e-42
30.23840000 26.52809900 503.50299000 0.07473550 0.67144197 -0.73727900 1.905766e-42
30.31740000 25.16220100 502.33301000 0.07854490 0.66864097 -0.73942500 1.905766e-42
29.75860000 23.82189900 501.26901000 0.07762810 0.67462999 -0.73406303 1.905766e-42
28.55270000 23.06370000 500.16901000 0.07458000 0.68945199 -0.72048199 1.905766e-42
27.74290100 21.96480000 498.99600000 0.08220600 0.70695901 -0.70246100 1.905766e-42
27.13850000 20.76720000 497.79599000 0.09176130 0.72156501 -0.68623900 1.905766e-42
26.11540000 19.86330000 496.62201000 0.09638980 0.73563099 -0.67049003 1.905766e-42
25.30170100 18.88120100 495.35199000 0.10215700 0.74738503 -0.65649003 1.905766e-42
24.44630100 17.91379900 494.09799000 0.10637800 0.75842202 -0.64302403 1.905766e-42
23.55299900 16.98870100 492.83899000 0.10985400 0.76933497 -0.62932903 1.905766e-42
22.88950000 15.98840000 491.49701000 0.11476000 0.77970999 -0.61553401 1.905766e-42
21.70669900 15.32940000 490.31100000 0.11576100 0.79076701 -0.60107100 1.905766e-42
20.46520000 14.61240000 489.22299000 0.11894900 0.80322802 -0.58367503 1.905766e-42
19.92880100 13.57910000 487.85001000 0.12634701 0.81501698 -0.56549501 1.905766e-42
19.23539900 12.61420000 486.49799000 0.13206901 0.82662702 -0.54703301 1.905766e-42
18.33639900 12.02510000 485.05399000 0.13581400 0.83767700 -0.52901000 1.905766e-42
17.17630000 11.47760000 483.79199000 0.13409699 0.84588200 -0.51623797 1.905766e-42
15.87090000 11.07930000 482.61801000 0.13033900 0.85266101 -0.50594598 1.905766e-42
15.53550000 10.17110000 481.10001000 0.13258199 0.85942698 -0.49376899 1.905766e-42
14.57070000 9.55893990 479.70999000 0.13168700 0.86576003 -0.48282400 1.905766e-42
13.38330000 9.05280020 478.45499000 0.12995701 0.87115699 -0.47349301 1.905766e-42
12.64160000 8.32320020 476.98599000 0.12864800 0.87489301 -0.46691701 1.905766e-42
11.58660000 7.74641990 475.64700000 0.12743901 0.87755299 -0.46223301 1.905766e-42
10.61430000 7.22408010 474.22501000 0.12809300 0.87916303 -0.45898199 1.905766e-42
8.97093960 7.07350020 473.50601000 0.12929501 0.88054299 -0.45598900 1.905766e-42
8.01050000 6.48273990 472.10300000 0.13114600 0.87974799 -0.45699501 1.905766e-42
6.73330020 6.05362990 470.90900000 0.13147700 0.87882900 -0.45866600 1.905766e-42
5.91286990 5.34502980 469.47299000 0.13291000 0.87655699 -0.46258399 1.905766e-42
