# .PCD v0.7 - Point Cloud Data file format
# 3 71 0
# 1 27 0
# 28 43 0
# 44 71 0
VERSION 0.7
FIELDS x y z normal_x normal_y normal_z curvature
SIZE 4 4 4 4 4 4 4
TYPE F F F F F F F
COUNT 1 1 1 1 1 1 1
WIDTH 71
HEIGHT 1
VIEWPOINT 0 0 0 1 0 0 0
POINTS 71
DATA ascii
35.937801 22.893299 472.76501 -0.21242 -0.85126001 0.479828 1.9057659e-42
34.6325 23.792601 473.61801 -0.26941499 -0.80353397 0.53079998 1.9057659e-42
32.925301 24.3629 473.60101 -0.331682 -0.75108403 0.57084101 1.9057659e-42
31.4137 24.450399 472.62799 -0.35555401 -0.73053998 0.58300298 1.9057659e-42
30.3424 23.8183 471.327 -0.35119501 -0.73637903 0.57828099 1.9057659e-42
29.125099 23.3335 470.09201 -0.34548399 -0.74670303 0.56839699 1.9057659e-42
26.8235 23.1996 467.99301 -0.34018701 -0.72298098 0.60130799 1.9057659e-42
25.869301 22.280001 466.77499 -0.31139001 -0.73751599 0.59925503 1.9057659e-42
24.428301 22.2593 465.69601 -0.311748 -0.715114 0.62563902 1.9057659e-42
23.0895 21.7115 464.625 -0.289415 -0.70502502 0.64744002 1.9057659e-42
21.7218 21.179399 463.58301 -0.263275 -0.695885 0.66815501 1.9057659e-42
20.407801 20.563801 462.51801 -0.23428699 -0.69418502 0.68059999 1.9057659e-42
19.107201 19.914101 461.457 -0.212503 -0.69919997 0.68261403 1.9057659e-42
17.6387 19.445 460.52701 -0.19611201 -0.69607699 0.69066399 1.9057659e-42
16.338301 18.698601 459.53101 -0.174317 -0.70075601 0.69177699 1.9057659e-42
14.5913 18.9002 459.147 -0.181641 -0.67827803 0.71200103 1.9057659e-42
13.0041 18.4667 458.41699 -0.180731 -0.66857803 0.72134602 1.9057659e-42
11.2863 18.3911 457.88501 -0.18825001 -0.65066397 0.73566198 1.9057659e-42
9.5663404 18.41 457.354 -0.18584099 -0.62913102 0.75475597 1.9057659e-42
7.8276401 18.262699 456.91299 -0.16754401 -0.60376799 0.77935499 1.9057659e-42
6.3138499 17.590401 456.20801 -0.141178 -0.58566201 0.79816598 1.9057659e-42
4.5445399 17.8431 455.99399 -0.139742 -0.55570698 0.81954998 1.9057659e-42
2.8115001 17.6429 455.55099 -0.13659 -0.52928001 0.83737999 1.9057659e-42
1.03702 17.641899 455.24899 -0.14169 -0.499951 0.85438401 1.9057659e-42
-0.71858001 17.503901 454.87601 -0.154585 -0.45769599 0.87556702 1.9057659e-42
-2.45803 17.572701 454.41901 -0.163086 -0.42117301 0.89219803 1.9057659e-42
-4.1235299 16.998699 454.04901 -0.17458799 -0.40053701 0.89949399 1.9057659e-42
-5.84729 16.823299 453.561 -0.20633499 -0.37335899 0.90444899 1.9057659e-42
-5.1682801 15.2052 453.16 -0.15827499 -0.40334699 0.90125501 1.9057659e-42
-3.8349099 14.094 452.68301 -0.101318 -0.46049401 0.88186198 1.9057659e-42
-2.6043799 12.9028 452.129 -0.059697401 -0.5036 0.86187202 1.9057659e-42
-1.0486799 12.0783 451.755 -0.041015401 -0.52658099 0.84913498 1.9057659e-42
0.150224 10.9304 451.05899 -0.0214704 -0.54609197 0.83745003 1.9057659e-42
1.36673 9.8042202 450.358 -0.0023665 -0.56447601 0.82544601 1.9057659e-42
2.0788801 8.4927197 449.35101 0.019391701 -0.58320999 0.81208998 1.9057659e-42
3.0699201 7.2522001 448.50299 0.043746699 -0.60227299 0.79709101 1.9057659e-42
4.1410899 6.1918998 447.51901 0.069149099 -0.619165 0.78221101 1.9057659e-42
5.2311401 5.1279502 446.56 0.0956975 -0.63421899 0.76720798 1.9057659e-42
6.2747302 4.0442901 445.57199 0.123674 -0.64772999 0.75176501 1.9057659e-42
7.3397198 3.07672 444.491 0.15276501 -0.661309 0.734393 1.9057659e-42
8.2819901 2.05896 443.34299 0.17814501 -0.67285001 0.718009 1.9057659e-42
9.5145998 1.32125 442.259 0.20158 -0.68554097 0.69957101 1.9057659e-42
10.178 0.266179 440.95999 0.238507 -0.70804203 0.66467398 1.9057659e-42
10.9278 -0.72841901 439.66 0.268188 -0.72939599 0.62932998 1.9057659e-42
12.6075 -0.183139 439.31201 0.268327 -0.74393201 0.61201799 1.9057659e-42
13.7616 0.85119998 440.228 0.255061 -0.73495799 0.62831599 1.9057659e-42
14.8188 1.9644001 441.16699 0.240606 -0.73501301 0.633928 1.9057659e-42
15.9026 3.0811501 442.07199 0.219346 -0.741705 0.63384598 1.9057659e-42
17.092899 4.14398 442.905 0.19811399 -0.75164199 0.62911499 1.9057659e-42
18.205099 5.1874599 443.86099 0.179665 -0.76118898 0.623146 1.9057659e-42
19.1628 6.31072 444.89099 0.16028 -0.77233201 0.61466497 1.9057659e-42
19.864599 7.3373899 446.19199 0.136738 -0.78623599 0.60260701 1.9057659e-42
21.1618 8.29883 446.98801 0.115242 -0.80359 0.58392 1.9057659e-42
22.0818 9.2041903 448.24301 0.090987399 -0.81972998 0.56547701 1.9057659e-42
22.919901 10.1188 449.547 0.068792 -0.82514602 0.56071597 1.9057659e-42
23.9613 11.0673 450.668 0.051033501 -0.83077598 0.554263 1.9057659e-42
24.782 11.9472 452.00601 0.028761201 -0.83238602 0.55344898 1.9057659e-42
25.613899 12.7681 453.375 0.0043236301 -0.83493298 0.55033499 1.9057659e-42
26.929199 13.5439 454.328 -0.0124791 -0.84557801 0.53370601 1.9057659e-42
27.7381 14.2988 455.74799 -0.0389398 -0.85052103 0.52449799 1.9057659e-42
29.1005 14.9735 456.71201 -0.050930899 -0.86148697 0.50521898 1.9057659e-42
30.121099 15.5793 458.065 -0.061616 -0.86632597 0.495664 1.9057659e-42
30.900299 16.313299 459.51199 -0.076742098 -0.86954403 0.487856 1.9057659e-42
32.3354 16.6938 460.53 -0.071864396 -0.88009501 0.46932799 1.9057659e-42
33.432201 17.446501 461.742 -0.070981197 -0.88571799 0.45876601 1.9057659e-42
33.606499 18.220501 463.358 -0.102189 -0.87753701 0.46849301 1.9057659e-42
33.948299 18.9543 464.966 -0.133972 -0.86756003 0.47894701 1.9057659e-42
34.268902 19.754299 466.54599 -0.16583 -0.85944003 0.483594 1.9057659e-42
34.753201 20.5009 468.11099 -0.185829 -0.85833597 0.47825399 1.9057659e-42
35.170502 21.313999 469.66101 -0.19106799 -0.862351 0.468876 1.9057659e-42
35.794201 22.1103 471.14999 -0.195887 -0.86226201 0.46704701 1.9057659e-42
