# .PCD v0.7 - Point Cloud Data file format
# 4 154 0
# 1 26 0
# 27 84 0
# 85 110 0
# 111 154 0
VERSION 0.7
FIELDS x y z normal_x normal_y normal_z curvature
SIZE 4 4 4 4 4 4 4
TYPE F F F F F F F
COUNT 1 1 1 1 1 1 1
WIDTH 154
HEIGHT 1
VIEWPOINT 0 0 0 1 0 0 0
POINTS 154
DATA ascii
22.80680100 2.39275000 489.00201000 -0.03424180 0.83809298 -0.54445100 1.905766e-42
21.69070100 1.64352000 487.80499000 -0.03274300 0.83424199 -0.55042601 1.905766e-42
19.99250000 1.40225010 487.25900000 -0.04739310 0.83602399 -0.54664201 1.905766e-42
18.46610100 0.75182700 486.56100000 -0.06082450 0.83324999 -0.54954100 1.905766e-42
17.11710000 -0.07081120 485.69901000 -0.07369890 0.82767099 -0.55635297 1.905766e-42
15.53590000 -0.69400603 485.10599000 -0.09207690 0.82375598 -0.55941802 1.905766e-42
13.92600000 -1.22980000 484.50500000 -0.06611740 0.81738400 -0.57228601 1.905766e-42
12.20930000 -1.59370010 484.10400000 -0.02770590 0.81136698 -0.58388102 1.905766e-42
10.72050000 -2.16127990 483.26700000 0.00407025 0.80285698 -0.59615803 1.905766e-42
8.97714040 -2.36048010 482.86600000 0.04481840 0.79620498 -0.60336399 1.905766e-42
7.23522000 -2.56238010 482.45999000 0.08043580 0.78976798 -0.60810900 1.905766e-42
5.84926990 -3.10228990 481.44601000 0.10452100 0.78099102 -0.61573398 1.905766e-42
4.14340020 -3.28258990 480.89999000 0.13390800 0.77302003 -0.62008798 1.905766e-42
2.64250990 -3.76052000 480.02899000 0.15628099 0.76216698 -0.62823403 1.905766e-42
0.22087400 -3.94401000 479.18900000 0.19519900 0.74647999 -0.63613302 1.905766e-42
-1.48155000 -4.01381020 478.60901000 0.22811900 0.73243099 -0.64148700 1.905766e-42
-3.00063990 -4.38665010 477.71799000 0.25467601 0.71706003 -0.64881802 1.905766e-42
-4.72537990 -4.10418990 477.28699000 0.29080600 0.70126200 -0.65089500 1.905766e-42
-6.35413980 -4.06705000 476.52200000 0.32333401 0.68325597 -0.65468800 1.905766e-42
-7.95666980 -4.02370980 475.70300000 0.36031699 0.66242099 -0.65678698 1.905766e-42
-9.48192020 -4.39079000 474.82101000 0.39365801 0.64092201 -0.65897799 1.905766e-42
-11.03420000 -3.98210000 474.00601000 0.43966401 0.61636001 -0.65329599 1.905766e-42
-12.57580000 -3.95671010 473.07700000 0.48515999 0.58913600 -0.64617199 1.905766e-42
-14.05990000 -3.38011000 472.23801000 0.51404798 0.57640398 -0.63522702 1.905766e-42
-15.55260000 -2.77952000 471.43100000 0.53714800 0.56932199 -0.62237000 1.905766e-42
-17.02610000 -2.16503000 470.59900000 0.57208502 0.55739498 -0.60168999 1.905766e-42
-17.89270000 -0.67474198 471.11700000 0.59443498 0.56250203 -0.57466400 1.905766e-42
-18.13400100 0.50317800 472.45700000 0.56880099 0.59340799 -0.56950200 1.905766e-42
-17.52949900 1.41495000 473.88599000 0.55840600 0.60627699 -0.56622499 1.905766e-42
-16.90020000 2.26553010 475.34201000 0.54225898 0.62435901 -0.56225502 1.905766e-42
-15.88070000 2.86219000 476.70001000 0.52205300 0.64365602 -0.55961400 1.905766e-42
-15.60140000 3.60329010 478.31699000 0.51332402 0.66302103 -0.54488701 1.905766e-42
-14.40620000 3.94218990 479.61899000 0.49741501 0.68229401 -0.53577298 1.905766e-42
-13.73630000 4.36717990 481.23499000 0.48695099 0.70488799 -0.51576298 1.905766e-42
-12.78260000 4.77748010 482.70599000 0.46690199 0.71819001 -0.51595098 1.905766e-42
-11.46180000 5.12216000 483.87900000 0.44322899 0.72658902 -0.52499199 1.905766e-42
-10.32380000 5.47878980 485.22699000 0.42245999 0.73493803 -0.53046501 1.905766e-42
-9.59772010 6.22315980 486.69601000 0.40868601 0.74295998 -0.53008199 1.905766e-42
-9.46895980 6.99145980 488.31900000 0.40282500 0.74898702 -0.52607203 1.905766e-42
-8.85832020 7.84435990 489.78201000 0.39559501 0.75469798 -0.52338898 1.905766e-42
-8.46761990 8.70217040 491.31500000 0.39265701 0.75883502 -0.51960599 1.905766e-42
-8.95362000 9.74901960 492.69699000 0.39756700 0.75961697 -0.51470703 1.905766e-42
-8.73439030 10.76650000 494.16501000 0.39802200 0.76558697 -0.50542498 1.905766e-42
-8.90948010 11.79370000 495.63300000 0.39870000 0.77173698 -0.49543899 1.905766e-42
-8.62106990 12.64500000 497.19199000 0.39661500 0.77894199 -0.48574299 1.905766e-42
-8.85723020 13.46100000 498.77899000 0.39483500 0.78643900 -0.47499499 1.905766e-42
-8.64558980 14.37230000 500.31699000 0.39175501 0.79423898 -0.46444699 1.905766e-42
-8.62695030 15.39840000 501.79599000 0.38863000 0.80226600 -0.45313999 1.905766e-42
-8.72708030 16.38019900 503.30099000 0.38556299 0.81024402 -0.44141299 1.905766e-42
-8.29253010 17.14430000 504.87201000 0.38147801 0.81484503 -0.43646601 1.905766e-42
-9.09393980 18.10940000 506.16299000 0.37986001 0.81783199 -0.43227100 1.905766e-42
-8.98733040 18.83530000 507.80701000 0.37690100 0.82038701 -0.43001300 1.905766e-42
-9.06054020 19.63120100 509.41901000 0.37494701 0.82257903 -0.42752701 1.905766e-42
-9.21912000 20.42650000 511.02600000 0.37389800 0.82429999 -0.42512399 1.905766e-42
-9.09053040 21.27260000 512.60999000 0.37275100 0.82583302 -0.42315000 1.905766e-42
-9.46875000 22.10700000 514.15900000 0.37388599 0.82640499 -0.42102799 1.905766e-42
-9.14256950 22.97600000 515.70099000 0.37328699 0.82747501 -0.41945499 1.905766e-42
-9.17586040 23.79460000 517.30402000 0.37402001 0.82605201 -0.42160100 1.905766e-42
-9.04559990 24.63279900 518.89203000 0.37480000 0.82448602 -0.42396599 1.905766e-42
-9.19464020 25.48290100 520.47101000 0.37516999 0.82297099 -0.42657599 1.905766e-42
-9.43540950 26.24770000 522.08301000 0.37371600 0.82203698 -0.42964101 1.905766e-42
-9.17008020 27.08309900 523.65503000 0.37559199 0.81965399 -0.43254799 1.905766e-42
-9.05161950 27.81629900 525.29498000 0.37817800 0.81677002 -0.43573901 1.905766e-42
-9.25393010 28.64450100 526.88000000 0.38154301 0.81292599 -0.43997401 1.905766e-42
-9.64717010 29.38559900 528.47302000 0.38548401 0.80559099 -0.44991699 1.905766e-42
-9.36149980 30.47330100 529.87799000 0.38829100 0.79560298 -0.46502301 1.905766e-42
-9.19725990 31.44960000 531.38098000 0.39033899 0.78562200 -0.48003599 1.905766e-42
-9.35682960 32.38060000 532.91400000 0.39201799 0.77567202 -0.49462700 1.905766e-42
-9.00498010 33.20000100 534.47699000 0.39186999 0.76679403 -0.50839502 1.905766e-42
-8.92494010 34.16579800 535.99402000 0.39142400 0.75781798 -0.52201498 1.905766e-42
-8.92739010 35.26050200 537.42297000 0.39051601 0.74919498 -0.53498101 1.905766e-42
-8.93824010 36.39220000 538.82300000 0.38887301 0.74107403 -0.54734498 1.905766e-42
-9.03083990 37.46390200 540.26599000 0.38620701 0.73256397 -0.56053001 1.905766e-42
-8.88994030 38.59510000 541.65900000 0.38235000 0.72316599 -0.57518601 1.905766e-42
-9.35604000 39.62279900 543.06097000 0.38025400 0.71327800 -0.58876199 1.905766e-42
-9.32133960 40.79660000 544.42499000 0.37663499 0.70156902 -0.60493600 1.905766e-42
-9.21662040 41.95890000 545.79602000 0.37321600 0.68786299 -0.62253898 1.905766e-42
-9.25594040 43.21810200 547.08099000 0.37110499 0.67134398 -0.64154297 1.905766e-42
-8.56834030 44.30929900 548.33698000 0.36955899 0.65284699 -0.66122401 1.905766e-42
-8.35414030 45.40790200 549.74701000 0.37273201 0.63170302 -0.67972201 1.905766e-42
-7.79694990 46.56930200 551.00403000 0.37474200 0.61753201 -0.69153702 1.905766e-42
-7.05992980 47.59880100 552.28302000 0.37087199 0.60607499 -0.70365298 1.905766e-42
-6.95330000 48.94240200 553.47601000 0.36752000 0.59497201 -0.71479899 1.905766e-42
-6.27280000 50.09380000 554.68103000 0.35567901 0.58874100 -0.72586298 1.905766e-42
-6.39918990 51.33029900 555.98297000 0.30609199 0.60321897 -0.73650199 1.905766e-42
-4.90898990 51.86809900 556.83698000 0.31456599 0.59272897 -0.74143201 1.905766e-42
-3.49236990 51.96929900 557.94299000 0.33327401 0.56289500 -0.75635803 1.905766e-42
-1.92068000 51.13320200 557.67700000 0.32765901 0.56763899 -0.75526500 1.905766e-42
-0.22289500 50.94680000 558.24597000 0.31540301 0.56973600 -0.75889498 1.905766e-42
1.36847000 50.48070100 558.94598000 0.28832600 0.57891703 -0.76270801 1.905766e-42
3.08137990 49.97489900 559.16998000 0.25566301 0.58919603 -0.76647502 1.905766e-42
4.77347990 49.36119800 559.18103000 0.22598800 0.59709901 -0.76967698 1.905766e-42
6.36383010 48.60710100 558.80402000 0.20307600 0.60382497 -0.77081501 1.905766e-42
7.96322010 47.85710100 558.45898000 0.18746400 0.60850197 -0.77109200 1.905766e-42
9.15738010 46.70290000 557.76501000 0.17648900 0.61839801 -0.76579100 1.905766e-42
10.92780000 46.42269900 557.92902000 0.15769100 0.62022501 -0.76841003 1.905766e-42
12.63670000 45.92079900 558.18903000 0.13847201 0.62406403 -0.76900601 1.905766e-42
14.23410000 45.32109800 557.61603000 0.11736700 0.63393801 -0.76442701 1.905766e-42
15.96480000 44.82650000 557.59802000 0.09445420 0.64014101 -0.76242900 1.905766e-42
17.69400000 44.33779900 557.49298000 0.07181990 0.64639699 -0.75961298 1.905766e-42
19.25910000 43.70780200 556.86603000 0.05039230 0.65578002 -0.75326800 1.905766e-42
20.97279900 43.28599900 556.51202000 0.02611130 0.66167802 -0.74933302 1.905766e-42
22.63279900 42.75840000 556.05798000 0.00224841 0.66759998 -0.74451703 1.905766e-42
24.36739900 42.41109800 555.72601000 -0.02294370 0.67079997 -0.74128300 1.905766e-42
26.16490000 42.39390200 555.63202000 -0.04258250 0.66973299 -0.74137998 1.905766e-42
27.93040100 42.20620000 555.33600000 -0.06003250 0.67219400 -0.73793697 1.905766e-42
29.51300000 41.64130000 554.69098000 -0.07711030 0.68006200 -0.72908801 1.905766e-42
31.28940000 41.60189800 554.40302000 -0.09193450 0.68407398 -0.72359598 1.905766e-42
33.08620100 41.59240000 554.29498000 -0.09056120 0.68866402 -0.71940303 1.905766e-42
34.34980000 40.78540000 553.29901000 -0.09446840 0.70286900 -0.70501900 1.905766e-42
35.48889900 39.81520100 552.29901000 -0.10232600 0.71893501 -0.68750399 1.905766e-42
36.25490200 38.76310000 551.05499000 -0.10794100 0.73467600 -0.66977602 1.905766e-42
37.35440100 37.73379900 550.06897000 -0.06381820 0.74795198 -0.66067702 1.905766e-42
38.41619900 36.89720200 548.88098000 -0.01815500 0.75829297 -0.65166098 1.905766e-42
39.09280000 36.08350000 547.42499000 0.00952768 0.76841301 -0.63988400 1.905766e-42
39.34140000 34.89009900 546.09998000 0.01775510 0.78003401 -0.62548500 1.905766e-42
39.74610100 33.53329800 544.98901000 0.03166050 0.79256302 -0.60896802 1.905766e-42
39.08900100 32.67459900 543.54999000 0.00416464 0.80300498 -0.59595799 1.905766e-42
38.93050000 31.63800000 542.08698000 -0.00474717 0.81204599 -0.58357400 1.905766e-42
38.57370000 30.80530000 540.53198000 -0.01843420 0.81970298 -0.57249200 1.905766e-42
38.23820100 29.89130000 539.01801000 -0.02944940 0.82666200 -0.56192702 1.905766e-42
38.37860100 28.80270000 537.59100000 -0.02779220 0.83349401 -0.55182898 1.905766e-42
38.69229900 27.65270000 536.24200000 -0.02371990 0.83971101 -0.54251599 1.905766e-42
39.07270100 26.54100000 534.87903000 -0.02042060 0.84538198 -0.53377098 1.905766e-42
38.35720100 25.87710000 533.36603000 -0.03249480 0.85230798 -0.52203000 1.905766e-42
37.26390100 25.26400000 532.07397000 -0.04606210 0.85881501 -0.51020998 1.905766e-42
36.86719900 24.41470000 530.53802000 -0.04700530 0.86682397 -0.49639401 1.905766e-42
36.18450200 23.43670100 529.19000000 -0.04946500 0.87460798 -0.48230201 1.905766e-42
35.06020000 22.72190100 527.97900000 -0.05618470 0.88226902 -0.46738100 1.905766e-42
34.47370100 21.77070000 526.56799000 -0.05384950 0.89029902 -0.45218101 1.905766e-42
33.58779900 21.07329900 525.16498000 -0.05489290 0.89844000 -0.43565100 1.905766e-42
32.62770100 20.47060000 523.76703000 -0.05766280 0.90607500 -0.41917101 1.905766e-42
31.88480000 19.78760000 522.27600000 -0.06030650 0.90696698 -0.41686299 1.905766e-42
30.87380000 19.17300000 520.91998000 -0.07225970 0.90795600 -0.41278800 1.905766e-42
29.88229900 18.44710000 519.60498000 -0.08926860 0.90837997 -0.40850499 1.905766e-42
29.02479900 17.72020000 518.19897000 -0.09760070 0.90837801 -0.40660101 1.905766e-42
28.67880100 16.80730100 516.68701000 -0.09620490 0.90835297 -0.40698901 1.905766e-42
28.10170000 16.13019900 515.12201000 -0.09282290 0.90835899 -0.40775999 1.905766e-42
27.19870000 15.48150000 513.70599000 -0.08605560 0.90834600 -0.40926999 1.905766e-42
26.34280000 14.69790000 512.33002000 -0.08017170 0.90783799 -0.41158500 1.905766e-42
26.20270000 13.87840000 510.73401000 -0.08278380 0.90627402 -0.41450500 1.905766e-42
25.47030100 13.23360000 509.22101000 -0.07914760 0.90468299 -0.41867000 1.905766e-42
25.12890100 12.57240000 507.58200000 -0.07990190 0.90302199 -0.42209899 1.905766e-42
25.33650000 11.86990000 505.93799000 -0.08578560 0.90141100 -0.42438000 1.905766e-42
25.03870000 11.16480000 504.30899000 -0.08668040 0.89965701 -0.42790601 1.905766e-42
25.19759900 10.23130000 502.77802000 -0.09096990 0.89786899 -0.43076101 1.905766e-42
25.27440100 9.34838960 501.21100000 -0.09389770 0.89594299 -0.43413201 1.905766e-42
24.70550000 8.57454010 499.68900000 -0.09223490 0.89131802 -0.44389701 1.905766e-42
24.66000000 7.82135010 498.05499000 -0.09248090 0.88542199 -0.45549399 1.905766e-42
24.60650100 7.04290010 496.43301000 -0.09001220 0.87879699 -0.46862999 1.905766e-42
24.02700000 6.25365020 494.92200000 -0.08352860 0.87267703 -0.48110101 1.905766e-42
23.81069900 5.32939000 493.39301000 -0.07536680 0.86496001 -0.49614900 1.905766e-42
23.69220000 4.26613000 491.94501000 -0.06353360 0.85574502 -0.51348197 1.905766e-42
23.26610000 3.33798000 490.46301000 -0.04903360 0.84657401 -0.53000802 1.905766e-42
