# .PCD v0.7 - Point Cloud Data file format
# 5 224 0
# 1 65 0
# 66 111 0
# 112 131 0
# 132 206 0
# 207 224 0
VERSION 0.7
FIELDS x y z normal_x normal_y normal_z curvature
SIZE 4 4 4 4 4 4 4
TYPE F F F F F F F
COUNT 1 1 1 1 1 1 1
WIDTH 224
HEIGHT 1
VIEWPOINT 0 0 0 1 0 0 0
POINTS 224
DATA ascii
39.73070100 70.90399900 524.52802000 -0.51280499 -0.23192300 0.82658499 1.905766e-42
38.11629900 71.40049700 523.90503000 -0.48597699 -0.25396499 0.83625901 1.905766e-42
36.71149800 72.21230300 523.12598000 -0.46198499 -0.27248999 0.84399003 1.905766e-42
35.05789900 72.62609900 522.54797000 -0.43811500 -0.28657800 0.85201401 1.905766e-42
32.72629900 73.39219700 521.59601000 -0.40224901 -0.30238599 0.86415201 1.905766e-42
31.05940100 73.71779600 521.00000000 -0.37365201 -0.31011400 0.87419301 1.905766e-42
29.33470000 73.79470100 520.48999000 -0.33944100 -0.31730899 0.88549101 1.905766e-42
27.64780000 73.61280100 519.88898000 -0.30553001 -0.32237801 0.89594901 1.905766e-42
25.96019900 73.52899900 519.26898000 -0.27051899 -0.32707900 0.90544897 1.905766e-42
24.21439900 73.54360200 518.83099000 -0.23450699 -0.33143699 0.91386902 1.905766e-42
22.54980100 74.09760300 518.42798000 -0.19916300 -0.33583900 0.92062300 1.905766e-42
20.81170100 74.36060300 518.04102000 -0.16258700 -0.33841500 0.92684501 1.905766e-42
19.01989900 74.25859800 517.90302000 -0.12587900 -0.33988899 0.93200302 1.905766e-42
17.23940100 74.41940300 517.69299000 -0.08906830 -0.34110001 0.93579799 1.905766e-42
15.45000000 74.35369900 517.51001000 -0.05268380 -0.34167901 0.93833899 1.905766e-42
13.70050000 73.94310000 517.40601000 -0.01786100 -0.34202600 0.93952101 1.905766e-42
11.97460000 73.48870100 517.17200000 0.01517530 -0.34245101 0.93941301 1.905766e-42
10.37420000 72.67019700 517.07800000 0.04350350 -0.34374300 0.93805498 1.905766e-42
9.31538960 71.44249700 516.29602000 0.06007650 -0.34598801 0.93631399 1.905766e-42
8.27773950 70.12419900 515.64398000 0.07523620 -0.34884599 0.93415499 1.905766e-42
7.87571000 68.42919900 515.19000000 0.07836350 -0.35146201 0.93291700 1.905766e-42
6.88521000 66.95890000 514.87903000 0.09175790 -0.35528299 0.93024403 1.905766e-42
5.78745990 65.56590300 514.57098000 0.10698300 -0.35975900 0.92689198 1.905766e-42
4.86379000 64.04049700 514.32703000 0.11906400 -0.36449701 0.92356098 1.905766e-42
3.95212010 62.53060200 513.96698000 0.13076100 -0.36966899 0.91991699 1.905766e-42
2.56901000 61.50059900 513.45203000 0.15209700 -0.37530100 0.91433901 1.905766e-42
1.65391000 59.99129900 513.09900000 0.16487700 -0.38107601 0.90972400 1.905766e-42
0.02859020 59.28049900 512.79303000 0.18114300 -0.38596499 0.90455401 1.905766e-42
-0.95617002 57.78440100 512.61401000 0.18677600 -0.39565599 0.89920598 1.905766e-42
-2.42842010 56.76580000 512.42798000 0.19905800 -0.41393501 0.88827503 1.905766e-42
-4.08789010 56.19139900 512.03302000 0.21323900 -0.42690000 0.87879801 1.905766e-42
-4.75082020 54.54230100 511.74799000 0.21868300 -0.45803699 0.86161500 1.905766e-42
-5.58614020 53.00590100 511.32199000 0.22498100 -0.48831800 0.84316599 1.905766e-42
-6.48089980 51.52899900 510.81400000 0.23144101 -0.51811200 0.82340401 1.905766e-42
-7.47358990 50.26520200 510.00299000 0.23793600 -0.54725200 0.80243498 1.905766e-42
-7.94717980 48.73310100 509.18500000 0.23772800 -0.57926500 0.77970302 1.905766e-42
-8.44841960 47.25230000 508.29300000 0.23705301 -0.61010301 0.75602901 1.905766e-42
-9.39282990 46.06050100 507.32999000 0.24002001 -0.63749099 0.73211700 1.905766e-42
-10.09960000 44.91740000 506.13300000 0.23204800 -0.66577601 0.70915198 1.905766e-42
-10.67560000 43.63359800 505.01001000 0.22522999 -0.69310600 0.68474400 1.905766e-42
-11.13800000 42.22860000 503.98401000 0.21958800 -0.71857798 0.65986800 1.905766e-42
-11.25050000 40.82910200 502.85800000 0.21338400 -0.73503101 0.64358097 1.905766e-42
-11.58420000 39.58869900 501.59698000 0.20640500 -0.73698503 0.64362198 1.905766e-42
-12.68280000 38.55619800 500.61401000 0.20597400 -0.73992699 0.64037597 1.905766e-42
-13.40260000 37.39619800 499.44000000 0.20506100 -0.74172801 0.63858497 1.905766e-42
-14.23510000 36.26739900 498.31201000 0.20699100 -0.74317098 0.63628000 1.905766e-42
-15.19580000 35.18109900 497.24600000 0.21210299 -0.74412900 0.63347000 1.905766e-42
-16.05410000 34.03080000 496.16000000 0.21790400 -0.74470699 0.63081598 1.905766e-42
-17.00379900 32.91050000 495.11899000 0.22620000 -0.74486101 0.62770700 1.905766e-42
-17.68619900 31.59300000 494.10001000 0.23273100 -0.74511600 0.62501103 1.905766e-42
-18.42009900 30.35630000 493.01700000 0.24020401 -0.74528599 0.62197298 1.905766e-42
-19.00650000 29.15140000 491.81500000 0.24554101 -0.74581403 0.61925101 1.905766e-42
-19.79660000 28.01670100 490.66299000 0.25368100 -0.74613202 0.61557502 1.905766e-42
-20.80880000 26.94500000 489.63000000 0.26508299 -0.74494600 0.61219800 1.905766e-42
-21.57060100 25.73200000 488.54001000 0.27025101 -0.74448198 0.61050099 1.905766e-42
-22.42770000 24.50400000 487.54099000 0.27453399 -0.74459898 0.60844398 1.905766e-42
-23.36410000 23.29200000 486.59601000 0.27919200 -0.74503702 0.60578197 1.905766e-42
-24.22979900 22.13789900 485.51901000 0.28250000 -0.74587703 0.60320997 1.905766e-42
-25.02750000 20.96500000 484.41101000 0.28490999 -0.74709201 0.60056603 1.905766e-42
-26.07930000 19.89679900 483.41501000 0.28942901 -0.74847603 0.59666902 1.905766e-42
-27.10759900 18.78300100 482.44400000 0.29362801 -0.75018603 0.59245503 1.905766e-42
-28.39500000 17.83309900 481.61899000 0.29996499 -0.75190198 0.58708102 1.905766e-42
-28.98140000 16.49099900 480.57300000 0.30024001 -0.75460601 0.58345997 1.905766e-42
-29.75779900 15.28290000 479.48801000 0.30138201 -0.75765598 0.57890099 1.905766e-42
-30.98930000 14.36970000 478.54501000 0.30603200 -0.76031399 0.57294500 1.905766e-42
-31.68059900 12.98860000 477.62000000 0.30671999 -0.76007098 0.57290000 1.905766e-42
-30.42779900 12.70110000 476.35999000 0.29217300 -0.75885099 0.58204800 1.905766e-42
-29.57620000 12.01150000 474.93201000 0.27808601 -0.75718099 0.59105402 1.905766e-42
-28.26520000 11.49730000 473.81100000 0.26086801 -0.75469202 0.60198700 1.905766e-42
-26.82430100 11.10250000 472.80701000 0.24160500 -0.75189400 0.61341900 1.905766e-42
-25.63180000 10.52190000 471.59000000 0.22187200 -0.74889398 0.62444401 1.905766e-42
-24.12019900 10.07560000 470.72101000 0.19839799 -0.74619800 0.63547301 1.905766e-42
-22.89480000 9.45991040 469.55499000 0.17477600 -0.74350297 0.64548898 1.905766e-42
-21.58270100 8.77530000 468.53000000 0.14874201 -0.74127501 0.65451300 1.905766e-42
-20.17180100 8.18995950 467.57800000 0.12690701 -0.73888600 0.66177201 1.905766e-42
-19.05710000 7.33731990 466.45099000 0.10894100 -0.73668998 0.66739798 1.905766e-42
-18.24710100 6.49457980 465.08200000 0.09544290 -0.73484099 0.67149001 1.905766e-42
-16.95529900 5.61873010 464.18500000 0.07768930 -0.73389602 0.67480397 1.905766e-42
-16.06040000 4.79992010 462.85501000 0.06565970 -0.73329401 0.67673302 1.905766e-42
-14.90940000 4.01135020 461.71799000 0.05189660 -0.73371702 0.67747003 1.905766e-42
-13.68890000 3.16351010 460.70300000 0.03872860 -0.73515803 0.67678797 1.905766e-42
-12.19250000 2.43301010 460.01901000 0.02146160 -0.73591101 0.67673802 1.905766e-42
-11.29740000 1.42830000 458.82401000 0.00724020 -0.73342401 0.67973298 1.905766e-42
-10.32980000 0.39279199 457.71399000 -0.01060810 -0.72997999 0.68338603 1.905766e-42
-9.69550990 -0.76333499 456.48901000 -0.02367670 -0.72517598 0.68815601 1.905766e-42
-8.91703030 -1.96875000 455.40201000 -0.04128320 -0.71968400 0.69307399 1.905766e-42
-8.18420980 -3.17545010 454.28500000 -0.05926270 -0.71338999 0.69825703 1.905766e-42
-7.89051010 -4.47758010 453.07800000 -0.06882800 -0.70705599 0.70380002 1.905766e-42
-7.28033020 -5.82672980 452.05399000 -0.08601960 -0.69985098 0.70909101 1.905766e-42
-7.25459000 -6.97191000 450.66599000 -0.08995870 -0.69372600 0.71459901 1.905766e-42
-6.55426980 -8.30939960 449.68600000 -0.10957700 -0.68576699 0.71952498 1.905766e-42
-5.80545000 -9.51474000 448.57800000 -0.12956400 -0.67746902 0.72404999 1.905766e-42
-5.68396000 -10.67460000 447.20700000 -0.13502200 -0.67083198 0.72921401 1.905766e-42
-5.35979990 -12.08960000 446.14301000 -0.14568099 -0.66410798 0.73330599 1.905766e-42
-5.49613000 -13.29520000 444.81299000 -0.14556000 -0.65954900 0.73743302 1.905766e-42
-5.03194000 -14.88110000 444.10001000 -0.15955600 -0.65284401 0.74049801 1.905766e-42
-4.89615010 -16.23420000 442.92001000 -0.16512600 -0.64703703 0.74436301 1.905766e-42
-4.82291980 -17.47950000 441.62299000 -0.16862300 -0.64145201 0.74840200 1.905766e-42
-4.74849990 -18.65469900 440.26099000 -0.17152900 -0.63587201 0.75249201 1.905766e-42
-4.07585000 -20.08370000 439.39801000 -0.18249100 -0.62913603 0.75556898 1.905766e-42
-4.03220990 -21.59790000 438.42599000 -0.18528201 -0.62327200 0.75973898 1.905766e-42
-4.15908000 -23.02140000 437.33099000 -0.18537299 -0.61770499 0.76424998 1.905766e-42
-4.22951980 -24.30480000 436.07101000 -0.18547100 -0.61198801 0.76881099 1.905766e-42
-4.03227000 -25.69010000 434.93900000 -0.18942200 -0.60549301 0.77297997 1.905766e-42
-4.06614020 -27.09499900 433.81400000 -0.18564500 -0.58607602 0.78870201 1.905766e-42
-4.00965020 -28.61270000 432.84799000 -0.18492800 -0.56522501 0.80394202 1.905766e-42
-4.03601980 -30.20500000 432.00900000 -0.18568200 -0.54557800 0.81723201 1.905766e-42
-4.07604980 -31.68910000 430.99100000 -0.18797299 -0.52686000 0.82890600 1.905766e-42
-4.13558010 -33.14820100 429.93900000 -0.19212399 -0.50911897 0.83897901 1.905766e-42
-4.21237990 -34.63439900 428.92599000 -0.19831499 -0.49211800 0.84763902 1.905766e-42
-4.25651980 -36.19670100 428.03299000 -0.20699000 -0.47528699 0.85513598 1.905766e-42
-4.31383990 -37.86550100 427.36099000 -0.21747200 -0.45864299 0.86159903 1.905766e-42
-3.01086000 -39.09650000 427.19699000 -0.23130301 -0.43966001 0.86786997 1.905766e-42
-1.37697010 -39.85170000 427.18600000 -0.24335200 -0.42532000 0.87171298 1.905766e-42
0.36812401 -40.00939900 427.59900000 -0.25433099 -0.41999999 0.87115800 1.905766e-42
2.03100990 -40.67549900 427.77499000 -0.26775199 -0.41145399 0.87121499 1.905766e-42
3.60225010 -41.55360000 427.77399000 -0.28859699 -0.39903501 0.87033498 1.905766e-42
5.28034020 -42.17869900 427.95700000 -0.31011599 -0.38916600 0.86739701 1.905766e-42
6.92601010 -42.50339900 428.60999000 -0.33152401 -0.38404301 0.86174399 1.905766e-42
8.54706000 -43.20060000 428.96500000 -0.35231599 -0.37416199 0.85783201 1.905766e-42
10.13520000 -43.99100100 429.26999000 -0.37229800 -0.36324501 0.85407698 1.905766e-42
11.70620000 -44.74700200 429.71799000 -0.39454299 -0.35229501 0.84865999 1.905766e-42
13.24860000 -45.61700100 430.04001000 -0.41648901 -0.33878300 0.84366101 1.905766e-42
14.82220000 -46.26290100 430.62900000 -0.43896699 -0.32782400 0.83656400 1.905766e-42
16.24180000 -47.31309900 430.97800000 -0.45971000 -0.31089401 0.83187300 1.905766e-42
17.43610000 -48.64440200 431.18100000 -0.47825900 -0.28981200 0.82902199 1.905766e-42
18.67690100 -49.94780000 431.14301000 -0.49349001 -0.26846901 0.82727998 1.905766e-42
20.00970100 -50.89720200 431.89301000 -0.50269598 -0.25816301 0.82501400 1.905766e-42
21.39399900 -51.90440000 432.44901000 -0.51168197 -0.24938300 0.82218599 1.905766e-42
22.60440100 -53.21340200 432.69699000 -0.51683700 -0.24032100 0.82165998 1.905766e-42
24.10780000 -54.03799800 433.24500000 -0.52482003 -0.24392501 0.81551498 1.905766e-42
25.38270000 -54.77920200 434.27701000 -0.53722697 -0.25488400 0.80400300 1.905766e-42
26.53179900 -53.61980100 435.03500000 -0.55146301 -0.26319399 0.79159200 1.905766e-42
27.16070000 -52.32780100 436.11899000 -0.56370699 -0.27578899 0.77857202 1.905766e-42
28.06270000 -51.03080000 436.98199000 -0.57300800 -0.28967699 0.76664799 1.905766e-42
28.55120100 -49.51639900 437.82401000 -0.58015501 -0.30477700 0.75533497 1.905766e-42
28.70610000 -47.97520100 438.74100000 -0.58606499 -0.32110599 0.74392098 1.905766e-42
29.39130000 -46.56950000 439.63199000 -0.59095198 -0.33897400 0.73203301 1.905766e-42
29.51140000 -45.08390000 440.64099000 -0.59507102 -0.35828701 0.71938902 1.905766e-42
29.55010000 -43.57740000 441.62500000 -0.59840602 -0.37909901 0.70582801 1.905766e-42
29.52969900 -41.99020000 442.47400000 -0.60094798 -0.40131900 0.69123399 1.905766e-42
29.88600000 -40.53860100 443.47699000 -0.60273498 -0.42485100 0.67543501 1.905766e-42
30.12500000 -39.20520000 444.66199000 -0.60389203 -0.44946101 0.65825403 1.905766e-42
30.24850100 -37.89419900 445.89001000 -0.60464799 -0.46631399 0.64571798 1.905766e-42
30.53790100 -36.56269800 447.06601000 -0.60584599 -0.47044101 0.64158899 1.905766e-42
30.26370000 -34.99250000 447.90201000 -0.60673600 -0.47398600 0.63812900 1.905766e-42
30.08830100 -33.52840000 448.93399000 -0.60779202 -0.47744200 0.63453799 1.905766e-42
30.25610000 -32.21860100 450.15799000 -0.60958701 -0.48067901 0.63035798 1.905766e-42
30.28249900 -30.96010000 451.44400000 -0.61146700 -0.48368499 0.62622398 1.905766e-42
30.35440100 -29.55900000 452.57199000 -0.61324197 -0.48655200 0.62225503 1.905766e-42
30.83160000 -28.12800000 453.55399000 -0.61576700 -0.48900899 0.61781901 1.905766e-42
30.95680000 -26.59750000 454.49301000 -0.61728299 -0.49161899 0.61422497 1.905766e-42
31.07770000 -25.24230000 455.67200000 -0.61944401 -0.49398300 0.61013901 1.905766e-42
30.67830100 -24.03739900 456.94800000 -0.62003201 -0.49668899 0.60733902 1.905766e-42
30.33260000 -22.69680000 458.09799000 -0.61968702 -0.49992001 0.60503501 1.905766e-42
30.72440000 -21.44310000 459.32901000 -0.62330800 -0.50147098 0.60001200 1.905766e-42
30.68960000 -20.14590100 460.57599000 -0.62466598 -0.50400901 0.59646201 1.905766e-42
31.06850100 -18.77160100 461.67499000 -0.62760103 -0.50573301 0.59190500 1.905766e-42
31.08020000 -17.31760000 462.73599000 -0.62775701 -0.50877100 0.58912897 1.905766e-42
31.03130000 -15.91410000 463.86200000 -0.62751502 -0.51204300 0.58654702 1.905766e-42
30.93070000 -14.63360000 465.12299000 -0.62761700 -0.51515198 0.58370799 1.905766e-42
30.96559900 -13.42880000 466.45999000 -0.62945998 -0.51731300 0.57979900 1.905766e-42
31.17810100 -12.24780000 467.80200000 -0.63305902 -0.51845300 0.57484102 1.905766e-42
30.54480000 -10.82390000 468.70300000 -0.62439501 -0.52614599 0.57732201 1.905766e-42
30.89790000 -9.69098000 470.05600000 -0.62914002 -0.52631801 0.57198900 1.905766e-42
31.11500000 -8.46436980 471.35501000 -0.63184500 -0.52318001 0.57188702 1.905766e-42
31.27350000 -7.17479990 472.60101000 -0.63318902 -0.52082598 0.57254899 1.905766e-42
31.20100000 -5.76650000 473.72000000 -0.62962598 -0.52135700 0.57598501 1.905766e-42
32.03469800 -4.71385000 474.91901000 -0.64129198 -0.51308799 0.57051301 1.905766e-42
31.97620000 -3.46663000 476.21500000 -0.64105397 -0.51162302 0.57209402 1.905766e-42
31.82329900 -2.16971990 477.45401000 -0.63840598 -0.51159000 0.57507700 1.905766e-42
31.92280000 -0.97083002 478.79300000 -0.64084798 -0.50853598 0.57507002 1.905766e-42
32.26470200 0.24552201 480.07501000 -0.64639699 -0.50362098 0.57318097 1.905766e-42
32.14410000 1.61942010 481.23199000 -0.64228499 -0.50446397 0.57704902 1.905766e-42
32.60100200 2.78558990 482.52399000 -0.65075201 -0.49774900 0.57338297 1.905766e-42
32.66030100 4.04574010 483.80801000 -0.65191698 -0.49537101 0.57411897 1.905766e-42
32.72639800 5.27510020 485.12100000 -0.65408897 -0.49708599 0.57015198 1.905766e-42
32.76250100 6.57217980 486.36899000 -0.65433300 -0.50037402 0.56698698 1.905766e-42
33.20380000 7.80849980 487.60001000 -0.66248602 -0.49873400 0.55890697 1.905766e-42
32.82870100 9.23736000 488.62900000 -0.65098202 -0.50913900 0.56302702 1.905766e-42
33.33910000 10.30760000 489.98300000 -0.66455102 -0.50417501 0.55152500 1.905766e-42
32.88679900 11.64670000 491.09799000 -0.65374798 -0.51412600 0.55523700 1.905766e-42
33.22539900 12.64320000 492.55801000 -0.66658002 -0.50972700 0.54391998 1.905766e-42
32.79990000 14.13590000 493.47000000 -0.65490502 -0.51997900 0.54838097 1.905766e-42
33.42520100 15.02850000 494.90201000 -0.67135203 -0.51341200 0.53450400 1.905766e-42
33.54629900 16.34410100 496.12500000 -0.67341000 -0.51571703 0.52967501 1.905766e-42
34.23790000 17.30610100 497.48001000 -0.68715101 -0.51025999 0.51716399 1.905766e-42
33.93009900 18.59460100 498.69800000 -0.68373501 -0.50765401 0.52420801 1.905766e-42
34.20470000 19.70200000 500.09100000 -0.69031799 -0.49122101 0.53118998 1.905766e-42
34.79250000 20.75180100 501.42899000 -0.69885403 -0.47365099 0.53596401 1.905766e-42
34.78649900 22.01510000 502.71201000 -0.69932598 -0.46017101 0.54697901 1.905766e-42
35.05580100 23.16650000 504.06900000 -0.70297801 -0.44447500 0.55521500 1.905766e-42
35.08649800 24.43370100 505.34698000 -0.70314997 -0.43057799 0.56584698 1.905766e-42
35.86619900 25.40950000 506.64301000 -0.71028900 -0.41298300 0.57003099 1.905766e-42
36.16019800 26.58820000 507.97101000 -0.71238399 -0.39728901 0.57850701 1.905766e-42
36.64590100 27.73780100 509.26801000 -0.71539098 -0.38084599 0.58580899 1.905766e-42
36.66239900 29.00169900 510.54999000 -0.71452302 -0.36645499 0.59596002 1.905766e-42
37.26610200 29.98130000 511.93399000 -0.71894598 -0.34896100 0.60111898 1.905766e-42
38.05849800 31.03400000 513.15997000 -0.72303700 -0.33146101 0.60609502 1.905766e-42
38.23160200 32.37690000 514.34601000 -0.72211999 -0.30941799 0.61871099 1.905766e-42
38.96410000 33.43909800 515.60101000 -0.72658598 -0.28548899 0.62495500 1.905766e-42
39.98860200 34.35369900 516.76501000 -0.73334599 -0.26242200 0.62716699 1.905766e-42
40.41019800 35.55950200 518.03302000 -0.73690897 -0.23770601 0.63282001 1.905766e-42
41.03910100 36.69730000 519.27802000 -0.74253500 -0.21253000 0.63519502 1.905766e-42
42.13869900 37.50799900 520.45001000 -0.75222301 -0.19010399 0.63088900 1.905766e-42
42.51630000 38.64559900 521.79303000 -0.75894600 -0.16398001 0.63016802 1.905766e-42
43.19250100 39.81190100 522.98602000 -0.76693797 -0.13643900 0.62704903 1.905766e-42
43.19749800 41.60390100 523.15503000 -0.76243699 -0.10700500 0.63815397 1.905766e-42
42.56679900 43.18809900 522.57800000 -0.74558902 -0.09006990 0.66029102 1.905766e-42
42.41500100 44.98099900 522.62701000 -0.73282301 -0.06348720 0.67745101 1.905766e-42
42.38019900 46.77460100 522.77600000 -0.73000097 -0.05894880 0.68089902 1.905766e-42
42.37530100 48.57389800 522.72601000 -0.72657102 -0.06370600 0.68413198 1.905766e-42
41.66180000 50.13620000 522.18799000 -0.70690203 -0.07271140 0.70356399 1.905766e-42
41.58620100 51.93360100 522.12598000 -0.69879901 -0.08197320 0.71060598 1.905766e-42
41.00090000 53.62360000 521.92297000 -0.67997599 -0.09503650 0.72704899 1.905766e-42
41.37710200 55.33810000 522.32202000 -0.68175799 -0.10194200 0.72443998 1.905766e-42
40.83340100 57.05320000 522.37201000 -0.66273701 -0.11654500 0.73972797 1.905766e-42
40.68050000 58.84669900 522.37701000 -0.64660299 -0.13061300 0.75156200 1.905766e-42
39.93130100 60.47320200 522.19397000 -0.61466998 -0.15104701 0.77418703 1.905766e-42
40.01499900 62.25970100 522.39801000 -0.60167801 -0.16388100 0.78174597 1.905766e-42
39.55509900 63.98860200 522.59698000 -0.57431501 -0.18285400 0.79795098 1.905766e-42
39.71580100 65.72840100 523.02899000 -0.56377500 -0.19374999 0.80288100 1.905766e-42
39.78390100 67.42310300 523.63202000 -0.55244100 -0.20431501 0.80812401 1.905766e-42
39.71889900 69.14050300 524.16699000 -0.53420299 -0.21765199 0.81685698 1.905766e-42
