# .PCD v0.7 - Point Cloud Data file format
# 4 93 1
# 1 31 1
# 32 57 0
# 58 71 1
# 72 93 1
VERSION 0.7
FIELDS x y z normal_x normal_y normal_z curvature
SIZE 4 4 4 4 4 4 4
TYPE F F F F F F F
COUNT 1 1 1 1 1 1 1
WIDTH 93
HEIGHT 1
VIEWPOINT 0 0 0 1 0 0 0
POINTS 93
DATA ascii
35.03720100 -1.57172000 431.81100000 0.29490900 0.58089900 -0.75867301 1.905766e-42
33.60730000 -2.12066010 430.86499000 0.30253699 0.50095302 -0.81087399 1.905766e-42
31.89920000 -1.86801000 430.35699000 0.30451900 0.45525399 -0.83666700 1.905766e-42
30.28120000 -2.00211000 429.57999000 0.26954800 0.40083700 -0.87559903 1.905766e-42
28.52990000 -1.80312000 429.21500000 0.27625200 0.36580700 -0.88874602 1.905766e-42
26.88570000 -2.46427990 428.89899000 0.28551799 0.31473601 -0.90521801 1.905766e-42
25.15160000 -2.91392990 429.07501000 0.29675400 0.29667300 -0.90770102 1.905766e-42
24.03900000 -2.28966000 427.80499000 0.30058399 0.31550401 -0.90005898 1.905766e-42
22.39279900 -1.89459000 427.19299000 0.28302300 0.34029999 -0.89671302 1.905766e-42
20.64650000 -1.55051990 426.92499000 0.26067701 0.37182900 -0.89094901 1.905766e-42
19.16700000 -2.41599990 426.37601000 0.25731799 0.35284999 -0.89960200 1.905766e-42
17.54170000 -1.78480990 425.92801000 0.22864901 0.39642200 -0.88914001 1.905766e-42
15.85670000 -2.26479010 425.51501000 0.20674400 0.40345201 -0.89133799 1.905766e-42
14.17280000 -1.68446000 425.25500000 0.17115800 0.43814200 -0.88246101 1.905766e-42
12.68060000 -2.44133000 424.59100000 0.15573201 0.42705801 -0.89071298 1.905766e-42
11.15280000 -3.16951990 423.97900000 0.13723500 0.41890901 -0.89759803 1.905766e-42
9.38261990 -3.31969000 423.68900000 0.11772700 0.42481399 -0.89759302 1.905766e-42
7.84185980 -4.07449010 423.14499000 0.10320200 0.41398299 -0.90441602 1.905766e-42
6.32520010 -4.97949980 422.79700000 0.08590880 0.39870501 -0.91304702 1.905766e-42
5.27467010 -6.38342000 422.39001000 0.06812340 0.37132099 -0.92600203 1.905766e-42
3.58658000 -5.91406010 421.97800000 0.05859050 0.36993799 -0.92720699 1.905766e-42
2.02090000 -6.71576020 421.59601000 0.05225000 0.35084701 -0.93497401 1.905766e-42
0.28320900 -7.18521980 421.59100000 0.04613560 0.34363699 -0.93796903 1.905766e-42
-1.51632000 -7.21230980 421.55899000 0.03691350 0.34776199 -0.93685597 1.905766e-42
-3.17380000 -6.51364990 421.49100000 0.02239770 0.36339200 -0.93136698 1.905766e-42
-4.89843990 -7.01810980 421.59698000 0.00837104 0.36252901 -0.93193501 1.905766e-42
-7.57206010 -5.47069980 421.88800000 -0.02579590 0.39139399 -0.91986102 1.905766e-42
-9.20405010 -4.80069020 422.24600000 -0.06671250 0.39955601 -0.91427797 1.905766e-42
-10.99540000 -4.77892020 422.42099000 -0.11249900 0.39633900 -0.91118598 1.905766e-42
-12.77580000 -4.80308010 422.68500000 -0.14794700 0.39842299 -0.90519100 1.905766e-42
-14.53370000 -4.72125010 423.06299000 -0.17843200 0.40838501 -0.89520001 1.905766e-42
-15.99080000 -3.96142010 423.79800000 -0.20845200 0.43288600 -0.87701702 1.905766e-42
-15.95240000 -2.34236000 424.58301000 -0.21490400 0.45756999 -0.86281300 1.905766e-42
-15.98870000 -0.77390701 425.46600000 -0.21783200 0.48090601 -0.84928101 1.905766e-42
-15.94040000 0.78996998 426.35501000 -0.21743999 0.50516999 -0.83517802 1.905766e-42
-15.83790000 2.32045010 427.29700000 -0.21605401 0.53170103 -0.81891000 1.905766e-42
-15.65640000 3.81815000 428.27899000 -0.21285900 0.55876201 -0.80154598 1.905766e-42
-15.33620000 5.29336020 429.26001000 -0.20718700 0.58627301 -0.78317100 1.905766e-42
-15.77440000 6.56145000 430.45999000 -0.21167500 0.61307001 -0.76114303 1.905766e-42
-15.13050000 7.99884990 431.33099000 -0.20279101 0.64108700 -0.74019098 1.905766e-42
-14.99970000 9.32590010 432.54001000 -0.20172000 0.66896200 -0.71540099 1.905766e-42
-14.80120000 10.65970000 433.73199000 -0.20161900 0.69332498 -0.69184500 1.905766e-42
-14.08420000 11.93410000 434.78201000 -0.19960000 0.71071601 -0.67456800 1.905766e-42
-13.95120000 13.15060000 436.10199000 -0.20678100 0.72982901 -0.65160698 1.905766e-42
-13.57370000 14.35810000 437.38199000 -0.20056200 0.75275999 -0.62699801 1.905766e-42
-13.06970000 15.49670000 438.68201000 -0.18694900 0.77427697 -0.60460401 1.905766e-42
-12.38320000 16.61500000 439.91400000 -0.16930100 0.79357100 -0.58445001 1.905766e-42
-11.90560000 17.66570100 441.29599000 -0.15901500 0.81260300 -0.56070501 1.905766e-42
-12.00020000 18.39550000 442.93799000 -0.16252600 0.83017701 -0.53328401 1.905766e-42
-11.21160000 19.56349900 444.05801000 -0.14934100 0.84217203 -0.51811600 1.905766e-42
-10.50590000 20.50190000 445.42200000 -0.14184099 0.85438198 -0.49991199 1.905766e-42
-9.47626020 21.38430000 446.60599000 -0.12845400 0.86747301 -0.48061499 1.905766e-42
-9.32583050 22.20820000 448.19901000 -0.12428400 0.88528103 -0.44814101 1.905766e-42
-8.65429020 23.01919900 449.65900000 -0.10326800 0.89692998 -0.42994401 1.905766e-42
-7.60365010 23.75560000 450.92200000 -0.07994610 0.90804201 -0.41117901 1.905766e-42
-6.43046000 24.39189900 452.13000000 -0.05969920 0.91885400 -0.39005601 1.905766e-42
-6.49384020 25.03500000 453.81000000 -0.04674520 0.92807001 -0.36945999 1.905766e-42
-5.60536000 25.63990000 455.25299000 -0.02928800 0.93899101 -0.34269199 1.905766e-42
-3.97206000 25.83070000 455.98599000 -0.00007307 0.94721502 -0.32059899 1.905766e-42
-2.17565990 25.72150000 455.95401000 0.03216890 0.94832802 -0.31565699 1.905766e-42
-0.38268799 25.61260000 455.83801000 0.07014890 0.94604099 -0.31636399 1.905766e-42
1.30054000 25.39010000 455.23999000 0.10673900 0.93944401 -0.32565400 1.905766e-42
3.08356000 25.15020000 455.29700000 0.14150999 0.93416297 -0.32758901 1.905766e-42
4.82439990 24.79220000 455.58301000 0.17610100 0.92910200 -0.32520401 1.905766e-42
6.55634020 24.56940100 456.01901000 0.21068500 0.92429203 -0.31827199 1.905766e-42
8.33269020 24.32210000 456.17300000 0.23521701 0.91925597 -0.31566000 1.905766e-42
10.05570000 23.93350000 456.51901000 0.25161201 0.91619802 -0.31188601 1.905766e-42
11.74490000 23.47120100 456.10400000 0.26399899 0.91371900 -0.30890599 1.905766e-42
13.43450000 23.04180000 456.55200000 0.27835700 0.91348702 -0.29674700 1.905766e-42
15.13950000 22.52650100 456.29300000 0.28353801 0.91401601 -0.29014000 1.905766e-42
16.82110000 22.09330000 456.76700000 0.29430199 0.91281098 -0.28312999 1.905766e-42
18.49900100 21.47510000 456.56000000 0.30843601 0.90755600 -0.28497201 1.905766e-42
19.30670000 20.78060000 455.10901000 0.31545100 0.90148598 -0.29633600 1.905766e-42
20.12070100 19.90880000 453.76099000 0.32168901 0.89573002 -0.30689400 1.905766e-42
20.58890000 19.25849900 452.14899000 0.32256499 0.88767397 -0.32861400 1.905766e-42
21.74180000 18.39780000 451.06799000 0.33909100 0.87479901 -0.34604001 1.905766e-42
22.95340000 17.42140000 450.16299000 0.35959101 0.86095500 -0.35979301 1.905766e-42
23.28980100 16.69010000 448.55301000 0.36067200 0.84870797 -0.38679501 1.905766e-42
23.95509900 15.81360000 447.12900000 0.36436099 0.83854699 -0.40506700 1.905766e-42
25.06990100 14.76830000 446.17700000 0.36994001 0.83124602 -0.41493899 1.905766e-42
26.42590000 13.83120000 445.45401000 0.37626201 0.82613701 -0.41943499 1.905766e-42
27.33690100 12.91410000 444.20200000 0.38027799 0.81657600 -0.43427300 1.905766e-42
28.02660000 11.87530000 442.90399000 0.38573301 0.80024600 -0.45914701 1.905766e-42
29.00400000 10.61300000 442.07199000 0.39793399 0.78467298 -0.47532901 1.905766e-42
30.18070000 9.44526000 441.37100000 0.41110399 0.77123302 -0.48599699 1.905766e-42
31.40150100 8.43278980 440.51999000 0.42098600 0.75640202 -0.50062603 1.905766e-42
32.39270000 7.23931980 439.60699000 0.42666700 0.73857898 -0.52197301 1.905766e-42
33.30220000 5.96540020 438.71799000 0.42912200 0.72049302 -0.54474199 1.905766e-42
33.60789900 4.73590990 437.43900000 0.41966301 0.69772100 -0.58057499 1.905766e-42
33.96379900 3.49765990 436.18201000 0.40508500 0.68462098 -0.60597098 1.905766e-42
34.42010100 2.30152010 434.91699000 0.38895699 0.66908401 -0.63327700 1.905766e-42
35.41320000 0.89511198 434.39200000 0.37891799 0.65986198 -0.64884800 1.905766e-42
35.15250000 -0.25193200 433.03000000 0.36009300 0.60083097 -0.71367699 1.905766e-42
