# .PCD v0.7 - Point Cloud Data file format
# 3 162 0
# 1 73 0
# 74 135 0
# 136 162 0
VERSION 0.7
FIELDS x y z normal_x normal_y normal_z curvature
SIZE 4 4 4 4 4 4 4
TYPE F F F F F F F
COUNT 1 1 1 1 1 1 1
WIDTH 162
HEIGHT 1
VIEWPOINT 0 0 0 1 0 0 0
POINTS 162
DATA ascii
39.32040000 -19.30299900 433.84500000 -0.45247400 -0.55513602 0.69792002 1.905766e-42
39.08860000 -17.86220000 434.89899000 -0.46612000 -0.55851197 0.68614602 1.905766e-42
38.88909900 -16.35339900 435.85999000 -0.47216100 -0.56664902 0.67525703 1.905766e-42
38.36309800 -14.84980000 436.69800000 -0.47447899 -0.57596600 0.66568202 1.905766e-42
37.61930100 -13.41360000 437.48801000 -0.47336799 -0.58686697 0.65689403 1.905766e-42
36.98249800 -11.98810000 438.38400000 -0.47069800 -0.60330498 0.64379102 1.905766e-42
36.65430100 -10.66000000 439.55399000 -0.47028700 -0.62300497 0.62505502 1.905766e-42
36.06689800 -9.22472950 440.46799000 -0.46671200 -0.64060599 0.60975802 1.905766e-42
35.63200000 -7.79703000 441.47400000 -0.46380600 -0.65721703 0.59409600 1.905766e-42
35.11719900 -6.44005010 442.53900000 -0.45973200 -0.67293203 0.57949001 1.905766e-42
34.97629900 -5.23157980 443.86499000 -0.45941800 -0.68705100 0.56293601 1.905766e-42
34.91410100 -4.30127000 445.40500000 -0.45983100 -0.69934499 0.54724097 1.905766e-42
34.52130100 -3.10992000 446.69601000 -0.45469201 -0.71223098 0.53477299 1.905766e-42
34.21379900 -1.83969000 447.93301000 -0.44884700 -0.72307801 0.52506602 1.905766e-42
33.71149800 -0.60860598 449.14700000 -0.44123399 -0.73447299 0.51561803 1.905766e-42
32.93790100 0.64077801 450.18600000 -0.43127400 -0.74654901 0.50662303 1.905766e-42
32.66859800 1.75380000 451.57501000 -0.42431399 -0.75731498 0.49641901 1.905766e-42
31.85969900 2.89473010 452.70801000 -0.41346499 -0.76964402 0.48651201 1.905766e-42
31.72209900 3.81742000 454.24799000 -0.40582100 -0.77984601 0.47660100 1.905766e-42
31.50530100 4.86833000 455.69299000 -0.39578000 -0.79075199 0.46697900 1.905766e-42
30.98920100 5.92659000 457.05399000 -0.38384500 -0.80174601 0.45811099 1.905766e-42
30.02080000 6.99396990 458.13300000 -0.37338799 -0.80982101 0.45251700 1.905766e-42
29.74880000 7.99984980 459.60001000 -0.36428899 -0.81561100 0.44952500 1.905766e-42
28.99530000 8.90262990 460.96301000 -0.35704100 -0.82166201 0.44428900 1.905766e-42
28.28510100 9.83240990 462.33099000 -0.35189301 -0.82687497 0.43869001 1.905766e-42
27.72960100 10.80600000 463.73999000 -0.34784701 -0.83143598 0.43326300 1.905766e-42
27.11570000 11.79860000 465.10999000 -0.34659100 -0.83521801 0.42695001 1.905766e-42
26.54750100 12.73010000 466.54099000 -0.34664401 -0.83845699 0.42050999 1.905766e-42
25.96649900 13.71690000 467.92999000 -0.35058400 -0.83886302 0.41641301 1.905766e-42
25.34350000 14.67410000 469.32199000 -0.35929301 -0.83427298 0.41820800 1.905766e-42
24.85280000 15.75640000 470.67300000 -0.36736101 -0.82970703 0.42027599 1.905766e-42
24.24200100 16.79310000 472.01199000 -0.38037699 -0.82379001 0.42033800 1.905766e-42
23.95920000 17.89860000 473.40399000 -0.38176900 -0.82074100 0.42501399 1.905766e-42
23.21279900 18.72340000 474.81900000 -0.38083899 -0.81820899 0.43069199 1.905766e-42
22.34160000 19.51810100 476.17899000 -0.37667599 -0.81651998 0.43750399 1.905766e-42
21.73959900 20.48020000 477.57599000 -0.37479401 -0.81412500 0.44354200 1.905766e-42
21.56889900 21.50560000 479.04599000 -0.37730399 -0.80956298 0.44972101 1.905766e-42
20.94360000 22.60520000 480.32700000 -0.37520799 -0.80553502 0.45862001 1.905766e-42
20.43840000 23.70840100 481.65601000 -0.37485400 -0.80082202 0.46708599 1.905766e-42
20.00000000 24.73090000 483.07101000 -0.37575001 -0.79560399 0.47521099 1.905766e-42
19.40350000 25.72640000 484.44699000 -0.37559199 -0.79051501 0.48375201 1.905766e-42
18.90239900 26.13480000 484.79501000 -0.37318000 -0.78926599 0.48764399 1.905766e-42
18.68940000 27.06399900 486.32199000 -0.37631199 -0.78319001 0.49497801 1.905766e-42
18.12859900 28.22069900 487.58200000 -0.37621099 -0.77771902 0.50360602 1.905766e-42
18.03920000 29.41090000 488.92899000 -0.37859899 -0.77262801 0.50961697 1.905766e-42
17.29110000 30.51390100 490.13901000 -0.37790301 -0.76865298 0.51610202 1.905766e-42
16.90259900 31.72030100 491.41699000 -0.37948900 -0.76380801 0.52209699 1.905766e-42
16.00020000 32.65670000 492.66199000 -0.37990999 -0.75901401 0.52874100 1.905766e-42
15.29200000 33.79700100 493.86099000 -0.38170299 -0.75344801 0.53536803 1.905766e-42
14.48990000 35.09980000 494.80899000 -0.38372800 -0.74748898 0.54223001 1.905766e-42
13.23720000 36.36309800 495.08301000 -0.38473201 -0.74200302 0.54901099 1.905766e-42
11.71640000 37.24890100 495.45999000 -0.38670400 -0.73581201 0.55591398 1.905766e-42
10.10300000 38.04060000 495.56201000 -0.35511699 -0.73571903 0.57672298 1.905766e-42
8.82450010 39.11159900 496.23901000 -0.33099201 -0.72929603 0.59880900 1.905766e-42
7.39898010 40.08390000 496.75101000 -0.30067399 -0.72335100 0.62157702 1.905766e-42
6.47692010 41.27410100 497.73801000 -0.28728500 -0.71200800 0.64071202 1.905766e-42
5.40832000 42.44269900 498.59299000 -0.27103299 -0.70082700 0.65983498 1.905766e-42
4.64286990 43.74869900 499.56699000 -0.26648900 -0.68740600 0.67561501 1.905766e-42
4.13587000 45.17430100 500.54199000 -0.27176899 -0.67337102 0.68754101 1.905766e-42
3.17576000 46.35089900 501.50900000 -0.26818499 -0.65846699 0.70320600 1.905766e-42
2.60840990 47.71180000 502.54099000 -0.27605200 -0.64353901 0.71390003 1.905766e-42
1.03957000 48.59380000 502.57001000 -0.24146500 -0.62948501 0.73854101 1.905766e-42
-0.71244597 48.89650000 502.29001000 -0.19320799 -0.62153298 0.75918800 1.905766e-42
-2.46795990 49.26910000 502.14999000 -0.14499600 -0.61578399 0.77445900 1.905766e-42
-4.24295000 49.40770000 501.88501000 -0.09659480 -0.61597598 0.78182000 1.905766e-42
-5.61215020 48.42549900 501.25299000 -0.05926390 -0.62878603 0.77531600 1.905766e-42
-7.08077000 47.63570000 500.57501000 -0.02173680 -0.64149100 0.76682198 1.905766e-42
-8.74116040 47.15689800 500.07101000 0.02014780 -0.65165800 0.75824499 1.905766e-42
-10.21620000 46.40129900 499.36801000 0.05858430 -0.66154802 0.74761099 1.905766e-42
-11.78120000 45.75560000 498.75699000 0.10327800 -0.66772300 0.73720998 1.905766e-42
-12.96500000 44.55080000 498.13501000 0.13883300 -0.67465597 0.72495902 1.905766e-42
-14.31860000 43.50719800 497.57101000 0.14984000 -0.68633097 0.71168703 1.905766e-42
-15.73180000 42.54560100 497.00601000 0.13114899 -0.70381302 0.69817400 1.905766e-42
-17.49490000 42.24440000 496.80399000 0.12204000 -0.71782398 0.68544501 1.905766e-42
-17.45660000 41.12319900 495.39700000 0.10602100 -0.72760701 0.67775202 1.905766e-42
-16.27260000 40.06010100 494.55499000 0.10059500 -0.72924203 0.67682201 1.905766e-42
-15.14450000 39.21379900 493.43701000 0.09846780 -0.73316199 0.67288703 1.905766e-42
-13.87150000 38.54130200 492.35599000 0.09962200 -0.73709702 0.66840398 1.905766e-42
-12.86420000 37.62289800 491.18100000 0.09739320 -0.74576199 0.65905601 1.905766e-42
-12.00170000 36.55070100 490.02100000 0.09081710 -0.75401402 0.65054899 1.905766e-42
-10.90610000 35.64390200 488.91699000 0.06894210 -0.76209497 0.64378399 1.905766e-42
-10.23770000 34.68119800 487.55099000 0.05484490 -0.77164900 0.63367999 1.905766e-42
-9.29936980 33.87070100 486.24600000 0.03901990 -0.77975202 0.62487102 1.905766e-42
-8.39809990 32.95750000 484.98401000 0.02548320 -0.78763402 0.61561602 1.905766e-42
-7.41396000 32.11690100 483.73300000 0.01203430 -0.79479802 0.60675400 1.905766e-42
-6.42085980 31.12280100 482.60800000 -0.00109036 -0.80152100 0.59796500 1.905766e-42
-5.51882980 30.10370100 481.42999000 -0.01354050 -0.80813998 0.58883500 1.905766e-42
-4.37236980 29.17050000 480.40302000 -0.02996990 -0.81074899 0.58462602 1.905766e-42
-3.63260010 28.37420100 478.96799000 -0.04151410 -0.81473798 0.57834202 1.905766e-42
-2.58255000 27.47520100 477.81500000 -0.05646050 -0.81786102 0.57263899 1.905766e-42
-1.81549000 26.56640100 476.46399000 -0.06748290 -0.82190400 0.56561500 1.905766e-42
-1.08196000 25.60030000 475.13400000 -0.07678480 -0.82604998 0.55834103 1.905766e-42
-0.13296100 24.58410100 473.99100000 -0.08715370 -0.82970798 0.55135101 1.905766e-42
0.88502598 23.57399900 472.90302000 -0.09672300 -0.83332902 0.54425001 1.905766e-42
1.36658000 22.63080000 471.44800000 -0.09983030 -0.83803803 0.53640199 1.905766e-42
2.23693990 21.72380100 470.15900000 -0.10623200 -0.84060597 0.53112698 1.905766e-42
3.08530000 20.85950100 468.82800000 -0.11153300 -0.84316701 0.52595598 1.905766e-42
3.70329000 20.02930100 467.35501000 -0.11438700 -0.84600002 0.52076799 1.905766e-42
4.17957020 19.10950100 465.88300000 -0.11597800 -0.84893000 0.51562297 1.905766e-42
3.84502010 18.39800100 464.26401000 -0.11324300 -0.85205698 0.51105201 1.905766e-42
4.28033020 17.22900000 462.96600000 -0.11483900 -0.85486001 0.50599003 1.905766e-42
5.00994010 16.23990100 461.65100000 -0.11713400 -0.85745400 0.50105000 1.905766e-42
4.32060000 15.48610000 460.16901000 -0.11462100 -0.86039299 0.49657500 1.905766e-42
4.26313020 14.56530000 458.62299000 -0.11693000 -0.85787398 0.50037998 1.905766e-42
3.95675990 14.02460000 456.93399000 -0.11804600 -0.85520297 0.50467098 1.905766e-42
4.37023020 12.83040000 455.65201000 -0.11986800 -0.85174698 0.51005697 1.905766e-42
4.93257000 11.87170000 454.23599000 -0.12049000 -0.84830499 0.51561701 1.905766e-42
5.09533020 10.99420000 452.67300000 -0.11892700 -0.84453702 0.52212399 1.905766e-42
4.76697020 10.09110000 451.15100000 -0.11465300 -0.83992702 0.53044999 1.905766e-42
4.58828020 9.10779950 449.65399000 -0.10556700 -0.83443999 0.54089397 1.905766e-42
3.99042010 8.19917010 448.22000000 -0.08305770 -0.82707101 0.55592799 1.905766e-42
3.88980010 7.15709020 446.75500000 -0.07186350 -0.81696802 0.57218802 1.905766e-42
3.63462000 6.19219020 445.25800000 -0.06088790 -0.80698502 0.58742499 1.905766e-42
3.23199010 5.24195000 443.78299000 -0.05044220 -0.79759997 0.60107398 1.905766e-42
2.57592010 4.33860020 442.37100000 -0.03920880 -0.78916502 0.61292797 1.905766e-42
2.25701000 3.19469000 441.01801000 -0.03391300 -0.78102201 0.62358201 1.905766e-42
1.34570000 2.34448000 439.71899000 -0.02327990 -0.77441102 0.63225502 1.905766e-42
0.91234100 1.07128000 438.52301000 -0.01771930 -0.76711202 0.64126801 1.905766e-42
0.57149100 -0.22397600 437.32101000 -0.00445915 -0.75858903 0.65155399 1.905766e-42
0.09939740 -1.27637000 435.93900000 0.01069350 -0.74643499 0.66537303 1.905766e-42
-0.07251360 -2.40346000 434.54599000 0.01468630 -0.72639000 0.68712503 1.905766e-42
-0.56809098 -3.51220010 433.21701000 0.02548660 -0.70641702 0.70733702 1.905766e-42
-1.16765000 -4.71739010 432.02200000 0.03694520 -0.68657202 0.72612202 1.905766e-42
-1.32701000 -6.17930980 430.98401000 0.03693290 -0.66525000 0.74570698 1.905766e-42
-1.75367000 -7.56288000 429.91501000 0.04067580 -0.64449197 0.76352799 1.905766e-42
-2.23308990 -8.84317020 428.74399000 0.04298910 -0.62424898 0.78004098 1.905766e-42
-2.59267000 -10.26530000 427.70099000 0.04040090 -0.60358101 0.79627699 1.905766e-42
-3.12333990 -11.55630000 426.56400000 0.04239990 -0.58396900 0.81066799 1.905766e-42
-3.20453000 -13.09540000 425.63400000 0.03956890 -0.57778102 0.81523198 1.905766e-42
-3.74635000 -14.47380000 424.61099000 0.04417970 -0.57534897 0.81671399 1.905766e-42
-3.99476000 -16.01429900 423.71399000 0.04437160 -0.57232797 0.81882298 1.905766e-42
-4.62865020 -17.29380000 422.61801000 0.04679530 -0.56953001 0.82063800 1.905766e-42
-5.18113990 -18.69809900 421.63699000 0.04739880 -0.56616199 0.82292998 1.905766e-42
-5.39893010 -20.27269900 420.79300000 0.04602630 -0.56122398 0.82638401 1.905766e-42
-5.76844980 -21.77899900 419.87900000 0.04641500 -0.55244201 0.83225799 1.905766e-42
-5.22113990 -23.20570000 418.92801000 0.06361040 -0.51718497 0.85350698 1.905766e-42
-3.42689990 -23.22190100 418.78500000 0.04800820 -0.54507798 0.83701003 1.905766e-42
-1.63059000 -23.20700100 418.67001000 0.04180070 -0.55304700 0.83210099 1.905766e-42
-0.04378890 -22.46489900 419.08401000 0.03368450 -0.56134403 0.82689703 1.905766e-42
1.74729000 -22.30120100 419.15701000 0.00707811 -0.57202500 0.82020599 1.905766e-42
3.39626000 -21.72450100 419.59100000 -0.02348350 -0.57755899 0.81601101 1.905766e-42
5.18790010 -21.60560000 419.71701000 -0.05089090 -0.57780200 0.81458902 1.905766e-42
6.96138000 -21.42620100 419.96701000 -0.07590850 -0.57473201 0.81481397 1.905766e-42
8.64437960 -21.02630000 420.46500000 -0.09869350 -0.57197702 0.81431103 1.905766e-42
10.40550000 -20.86680000 420.80099000 -0.12254200 -0.56913501 0.81306100 1.905766e-42
12.18550000 -20.81620000 421.06299000 -0.14625099 -0.56653899 0.81095302 1.905766e-42
13.92100000 -20.58779900 421.48300000 -0.16949899 -0.56469798 0.80770397 1.905766e-42
15.53940000 -20.24169900 422.19101000 -0.19106200 -0.56362301 0.80363202 1.905766e-42
17.23150100 -20.04420100 422.77200000 -0.21321601 -0.56173199 0.79937202 1.905766e-42
18.98390000 -20.15080100 423.16901000 -0.23582500 -0.55824500 0.79545498 1.905766e-42
20.66110000 -19.97780000 423.79901000 -0.25692800 -0.55588901 0.79055297 1.905766e-42
22.33330000 -19.86150000 424.45499000 -0.27780899 -0.55335599 0.78525102 1.905766e-42
24.07510000 -19.96290000 424.89801000 -0.29948899 -0.54952902 0.77995098 1.905766e-42
25.66200100 -19.74959900 425.72000000 -0.32086101 -0.54798800 0.77250099 1.905766e-42
27.11370100 -19.33009900 426.69800000 -0.34066400 -0.54792500 0.76402003 1.905766e-42
28.70140100 -19.21100000 427.53799000 -0.36212999 -0.54589099 0.75555599 1.905766e-42
30.32140000 -19.20100000 428.32199000 -0.38108000 -0.54339200 0.74800003 1.905766e-42
31.91370000 -19.25210000 429.16000000 -0.40125099 -0.54139000 0.73884702 1.905766e-42
33.47840100 -19.22320000 430.04901000 -0.42417601 -0.53994799 0.72700101 1.905766e-42
35.01599900 -19.23930000 430.98499000 -0.44535601 -0.53882903 0.71506703 1.905766e-42
36.56580000 -19.37030000 431.89099000 -0.45679799 -0.53919601 0.70753300 1.905766e-42
38.18909800 -19.80290000 432.53699000 -0.45992601 -0.54069602 0.70435500 1.905766e-42
