# .PCD v0.7 - Point Cloud Data file format
# 3 78 0
# 1 29 0
# 30 54 0
# 55 78 0
VERSION 0.7
FIELDS x y z normal_x normal_y normal_z curvature
SIZE 4 4 4 4 4 4 4
TYPE F F F F F F F
COUNT 1 1 1 1 1 1 1
WIDTH 78
HEIGHT 1
VIEWPOINT 0 0 0 1 0 0 0
POINTS 78
DATA ascii
16.63180000 31.65790000 470.32199000 -0.25737000 -0.88698000 0.38344100 1.905766e-42
15.98510000 31.96960100 470.93600000 -0.25737000 -0.88698000 0.38344100 1.905766e-42
15.17990000 31.47200000 469.40500000 -0.23127200 -0.84646797 0.47958800 1.905766e-42
13.72980000 31.30430000 468.35199000 -0.25898901 -0.83156198 0.49135500 1.905766e-42
12.42220000 31.26680000 467.11499000 -0.29838601 -0.81736702 0.49282500 1.905766e-42
11.80210000 30.34000000 465.70200000 -0.30172700 -0.80982101 0.50314099 1.905766e-42
10.74490000 29.87859900 464.32101000 -0.31645700 -0.79668599 0.51492399 1.905766e-42
9.32015040 29.66770000 463.24100000 -0.34163699 -0.77826500 0.52686697 1.905766e-42
8.00310040 29.59560000 462.01599000 -0.36205000 -0.75863999 0.54165000 1.905766e-42
7.00094990 29.03420100 460.63000000 -0.36997601 -0.74158102 0.55962002 1.905766e-42
6.09694000 28.39440000 459.21100000 -0.37641200 -0.72345400 0.57872999 1.905766e-42
4.87500000 28.02100000 457.94400000 -0.39334401 -0.70041001 0.59557098 1.905766e-42
3.44486000 27.94829900 456.85300000 -0.41761801 -0.67624801 0.60686398 1.905766e-42
2.48453000 27.25620100 455.49701000 -0.42827901 -0.65279102 0.62485301 1.905766e-42
1.62124000 26.44980000 454.13901000 -0.43488401 -0.63188899 0.64155501 1.905766e-42
0.28288200 26.31690000 452.94299000 -0.45495799 -0.60835999 0.65031701 1.905766e-42
-0.77542800 25.70319900 451.62201000 -0.46629801 -0.58996999 0.65916800 1.905766e-42
-1.57401000 24.72530000 450.33899000 -0.47205299 -0.57526600 0.66800803 1.905766e-42
-2.62035990 24.05570000 449.03699000 -0.48133001 -0.55632597 0.67736501 1.905766e-42
-3.04690000 22.84680000 447.77301000 -0.47918600 -0.54016697 0.69181001 1.905766e-42
-4.26328990 22.38789900 446.52802000 -0.49537301 -0.51867002 0.69684100 1.905766e-42
-5.21419000 21.61330000 445.21100000 -0.50329697 -0.49631900 0.70736098 1.905766e-42
-5.87486980 20.42450000 444.03201000 -0.49764100 -0.48153499 0.72144198 1.905766e-42
-6.71015980 19.41920100 442.79401000 -0.49527100 -0.46964201 0.73085099 1.905766e-42
-7.29714010 18.16760100 441.64099000 -0.49081400 -0.45998901 0.73993999 1.905766e-42
-8.36415000 17.36340000 440.43500000 -0.49655101 -0.44436699 0.74563700 1.905766e-42
-9.26651000 16.42009900 439.19601000 -0.49975401 -0.42851901 0.75273901 1.905766e-42
-9.84111020 15.07590000 438.14600000 -0.49694201 -0.41511601 0.76205498 1.905766e-42
-10.35550000 13.71550000 437.08499000 -0.49013299 -0.40910700 0.76967603 1.905766e-42
-9.72663020 12.09050000 436.63300000 -0.46931499 -0.41444299 0.77973098 1.905766e-42
-8.38039970 10.90130000 436.74899000 -0.44575199 -0.42787999 0.78627199 1.905766e-42
-6.76607990 10.45490000 437.40799000 -0.42584100 -0.44968799 0.78513700 1.905766e-42
-5.29779010 9.43105030 437.59799000 -0.40089500 -0.47142899 0.78551698 1.905766e-42
-3.64624000 8.92012020 438.09900000 -0.38014901 -0.49204600 0.78318399 1.905766e-42
-2.04023000 8.14332960 438.33899000 -0.34955299 -0.50990701 0.78600699 1.905766e-42
-0.37109900 8.01863000 439.00101000 -0.32350501 -0.52094001 0.78991598 1.905766e-42
0.96692097 6.90978000 438.53201000 -0.30219200 -0.53446501 0.78932101 1.905766e-42
2.64257000 6.50535010 439.04999000 -0.28150001 -0.54360801 0.79072601 1.905766e-42
4.31825020 5.86241010 439.18701000 -0.25499001 -0.55308300 0.79314500 1.905766e-42
6.05831000 5.62259010 439.57999000 -0.22192800 -0.55866802 0.79914802 1.905766e-42
7.81655980 5.53981020 439.95599000 -0.18835001 -0.56251800 0.80504501 1.905766e-42
9.57693960 5.57840010 440.32999000 -0.15824100 -0.56429601 0.81026500 1.905766e-42
11.33280000 5.62776990 440.72299000 -0.13359900 -0.56920898 0.81126601 1.905766e-42
13.11400000 5.60298010 440.98099000 -0.10301800 -0.57733798 0.80998099 1.905766e-42
14.87040000 5.24183990 440.82501000 -0.06797130 -0.58544201 0.80786002 1.905766e-42
16.65959900 5.04672000 440.79599000 -0.03613990 -0.59320003 0.80424303 1.905766e-42
18.40950000 5.33357000 441.10501000 -0.01022250 -0.60067397 0.79942900 1.905766e-42
20.17330000 5.07426020 440.85599000 0.01871240 -0.60532200 0.79576099 1.905766e-42
21.96940000 5.18115000 440.80600000 0.04625580 -0.60896498 0.79184800 1.905766e-42
23.72670000 5.50587990 441.02100000 0.07403860 -0.61230397 0.78714800 1.905766e-42
25.51689900 5.64206980 440.89200000 0.10501200 -0.61371797 0.78250998 1.905766e-42
27.30820100 5.80240010 440.81699000 0.13841200 -0.61429399 0.77684301 1.905766e-42
29.06010100 6.21479990 440.78601000 0.16981100 -0.61785799 0.76773399 1.905766e-42
30.75190000 6.35586980 440.18799000 0.20315900 -0.61767602 0.75973803 1.905766e-42
32.49589900 6.76329990 440.00699000 0.23813500 -0.61969000 0.74784797 1.905766e-42
32.64619800 8.00210950 441.30499000 0.22888499 -0.63143897 0.74087501 1.905766e-42
32.28160100 9.28927990 442.50900000 0.21116500 -0.63980198 0.73896098 1.905766e-42
32.09439800 10.64880000 443.67401000 0.19639200 -0.64684498 0.73689997 1.905766e-42
31.43759900 11.76820000 444.92099000 0.17886600 -0.65500897 0.73414600 1.905766e-42
31.22730100 13.11290000 446.09900000 0.17146599 -0.67186701 0.72055101 1.905766e-42
30.57770000 14.18040000 447.39401000 0.15878400 -0.68777400 0.70834702 1.905766e-42
29.62420100 15.18070000 448.54800000 0.14007100 -0.70002800 0.70024300 1.905766e-42
28.89950000 16.26210000 449.79099000 0.12348800 -0.71246803 0.69075298 1.905766e-42
28.87439900 17.51020100 451.08701000 0.11714400 -0.72715598 0.67640400 1.905766e-42
28.21719900 18.59260000 452.36700000 0.10009400 -0.73730499 0.66810399 1.905766e-42
27.20380000 19.51520000 453.53400000 0.07628470 -0.74451298 0.66323602 1.905766e-42
26.63419900 20.61140100 454.84299000 0.05702750 -0.75578201 0.65233499 1.905766e-42
25.87710000 21.61389900 456.13199000 0.03639890 -0.77116501 0.63559401 1.905766e-42
24.94109900 22.58869900 457.32101000 0.01333990 -0.78704900 0.61674601 1.905766e-42
24.21410000 23.58600000 458.63101000 -0.00827256 -0.80436599 0.59407598 1.905766e-42
23.21620000 24.44380000 459.85901000 -0.03450560 -0.81775200 0.57453501 1.905766e-42
22.63769900 25.45290000 461.23300000 -0.05407810 -0.83298302 0.55064899 1.905766e-42
21.82609900 26.37220000 462.55099000 -0.07584960 -0.84406400 0.53085101 1.905766e-42
20.79490100 27.21570000 463.76099000 -0.09894350 -0.85120302 0.51542503 1.905766e-42
20.06150100 28.13080000 465.12701000 -0.11510300 -0.85882699 0.49916700 1.905766e-42
19.27640000 28.99189900 466.49899000 -0.12894000 -0.86484301 0.48520100 1.905766e-42
18.46990000 29.98399900 467.76599000 -0.15189400 -0.86172599 0.48410401 1.905766e-42
17.34090000 30.77520000 468.92300000 -0.18268199 -0.85806102 0.47995701 1.905766e-42
