# .PCD v0.7 - Point Cloud Data file format
# 6 194 1
# 1 45 0
# 46 71 1
# 72 107 0
# 108 128 0
# 129 169 0
# 170 194 0
VERSION 0.7
FIELDS x y z normal_x normal_y normal_z curvature
SIZE 4 4 4 4 4 4 4
TYPE F F F F F F F
COUNT 1 1 1 1 1 1 1
WIDTH 194
HEIGHT 1
VIEWPOINT 0 0 0 1 0 0 0
POINTS 194
DATA ascii
29.74090000 57.46180000 485.24500000 0.11221900 -0.29546800 0.94873899 1.905766e-42
28.13299900 56.67480100 485.05701000 0.09317830 -0.31044400 0.94601399 1.905766e-42
27.47489900 55.97219800 484.98801000 0.08243390 -0.31826201 0.94441199 1.905766e-42
26.10070000 54.84190000 484.71600000 0.06169430 -0.33313999 0.94085699 1.905766e-42
24.73469900 53.71360000 484.39801000 0.04053040 -0.34808001 0.93658799 1.905766e-42
23.17289900 52.89049900 484.04700000 0.01750060 -0.36214301 0.93195802 1.905766e-42
22.08720000 51.52479900 483.60400000 -0.00336973 -0.37749201 0.92600697 1.905766e-42
21.12080000 50.11570000 483.03799000 -0.02298880 -0.39438599 0.91865700 1.905766e-42
19.53980100 49.52870200 482.40900000 -0.04672420 -0.40867400 0.91148299 1.905766e-42
18.46990000 48.14730100 481.97601000 -0.06699600 -0.42814201 0.90122497 1.905766e-42
17.25830100 47.06589900 481.20001000 -0.08877360 -0.44931599 0.88895100 1.905766e-42
16.13620000 45.84299900 480.50299000 -0.10861700 -0.46902099 0.87648201 1.905766e-42
15.22910000 44.50680200 479.70801000 -0.12433200 -0.48265100 0.86694300 1.905766e-42
14.10760000 43.32600000 478.94199000 -0.14138900 -0.49497601 0.85732597 1.905766e-42
12.99350000 42.22539900 478.05399000 -0.15786000 -0.50655103 0.84763598 1.905766e-42
12.11270000 40.97420100 477.10599000 -0.17164700 -0.51809198 0.83792502 1.905766e-42
11.09370000 39.85649900 476.13000000 -0.18595400 -0.52862000 0.82823998 1.905766e-42
9.64855960 39.19100200 475.28900000 -0.20263700 -0.53625703 0.81936902 1.905766e-42
8.84733010 37.91070200 474.30899000 -0.21350700 -0.54621702 0.80997699 1.905766e-42
7.80083990 36.84949900 473.29999000 -0.22645199 -0.55596501 0.79976398 1.905766e-42
6.55006980 35.91450100 472.40500000 -0.24099299 -0.56494403 0.78915203 1.905766e-42
5.45801020 34.95940000 471.33899000 -0.25472799 -0.57432598 0.77798700 1.905766e-42
4.38319020 33.99300000 470.26700000 -0.26834300 -0.58351099 0.76648998 1.905766e-42
3.12862990 33.46429800 469.08899000 -0.28364801 -0.59086400 0.75526297 1.905766e-42
2.46429990 32.15140200 468.05200000 -0.29347900 -0.60075903 0.74361199 1.905766e-42
1.41011000 31.22069900 466.92899000 -0.30661899 -0.60906601 0.73145300 1.905766e-42
0.15364601 30.86700100 465.68900000 -0.32100701 -0.61533600 0.71994197 1.905766e-42
-0.70275903 29.72110000 464.59698000 -0.33221200 -0.62446398 0.70687997 1.905766e-42
-1.67771010 28.82720000 463.37601000 -0.34459299 -0.63276601 0.69344300 1.905766e-42
-2.58418010 27.93950100 462.09900000 -0.35646999 -0.64064902 0.68007201 1.905766e-42
-3.97180010 27.61360000 461.00000000 -0.37058100 -0.64560598 0.66772902 1.905766e-42
-4.64555980 26.60070000 459.67300000 -0.38018399 -0.65316200 0.65485901 1.905766e-42
-5.69422010 25.92960000 458.37299000 -0.39147201 -0.65921801 0.64201301 1.905766e-42
-7.09340000 25.80170100 457.24799000 -0.40324301 -0.66285801 0.63088399 1.905766e-42
-8.04273990 25.07770000 455.90100000 -0.41210300 -0.66885602 0.61870998 1.905766e-42
-8.64293960 24.10510100 454.51099000 -0.41719100 -0.67353302 0.61016798 1.905766e-42
-9.95316030 23.94470000 453.28699000 -0.42328599 -0.67441499 0.60497302 1.905766e-42
-10.95340000 23.29880000 451.93701000 -0.42672899 -0.67695397 0.59969699 1.905766e-42
-12.25140000 23.25090000 450.69101000 -0.42999101 -0.67802203 0.59614998 1.905766e-42
-13.45200000 22.74580000 449.44800000 -0.43113300 -0.68037802 0.59263003 1.905766e-42
-14.32450000 21.98539900 448.07001000 -0.43017799 -0.68435800 0.58872902 1.905766e-42
-15.53650000 21.59490000 446.79800000 -0.42842799 -0.68709499 0.58681297 1.905766e-42
-16.85320100 21.51520000 445.57300000 -0.42540500 -0.68882501 0.58698398 1.905766e-42
-17.77590000 20.83070000 444.18701000 -0.41981000 -0.69371200 0.58525503 1.905766e-42
-19.15970000 20.73819900 443.04001000 -0.41173100 -0.69075602 0.59441900 1.905766e-42
-19.97220000 20.05640000 441.58499000 -0.40510899 -0.68668503 0.60361499 1.905766e-42
-19.17240000 19.02860100 440.34299000 -0.40100300 -0.68269497 0.61083901 1.905766e-42
-17.83540000 17.86150000 440.04199000 -0.39648101 -0.68202001 0.61453301 1.905766e-42
-16.43989900 16.72580000 439.99100000 -0.39211300 -0.68414801 0.61497098 1.905766e-42
-15.32500000 15.52950000 439.23801000 -0.38334301 -0.68463701 0.61993498 1.905766e-42
-14.65560000 14.15430000 438.28900000 -0.36905801 -0.68616098 0.62687999 1.905766e-42
-14.44180000 12.87240000 437.04401000 -0.34784299 -0.68912703 0.63569599 1.905766e-42
-14.44080000 11.51760000 435.85901000 -0.31926900 -0.69655102 0.64256001 1.905766e-42
-14.44040000 10.23500000 434.59601000 -0.28075400 -0.71059901 0.64515501 1.905766e-42
-14.15440000 8.80863950 433.53601000 -0.23092000 -0.73809600 0.63394803 1.905766e-42
-14.68940000 7.62713000 432.28799000 -0.19884400 -0.76461899 0.61303997 1.905766e-42
-15.37830000 7.12115000 430.70300000 -0.17011400 -0.79545802 0.58164197 1.905766e-42
-16.23480000 7.13424020 429.12000000 -0.18311900 -0.80686098 0.56164300 1.905766e-42
-16.89590100 6.82840010 427.47400000 -0.19095600 -0.82783002 0.52747899 1.905766e-42
-17.62640000 5.61961980 426.35800000 -0.20104100 -0.84922802 0.48825601 1.905766e-42
-18.55780000 5.26592020 424.85901000 -0.24964499 -0.85748702 0.44988200 1.905766e-42
-17.93960000 4.04447980 423.69101000 -0.18138500 -0.89583099 0.40569201 1.905766e-42
-17.63850000 3.22820000 422.11499000 -0.20043799 -0.90547800 0.37407699 1.905766e-42
-17.40589900 2.37116000 420.54901000 -0.23836499 -0.89987302 0.36525401 1.905766e-42
-17.33160000 1.73818000 418.86600000 -0.26756600 -0.89195597 0.36445001 1.905766e-42
-17.61990000 1.54849990 417.09900000 -0.28806400 -0.88814098 0.35808501 1.905766e-42
-17.88940000 1.28657000 415.33899000 -0.31001401 -0.88295400 0.35253900 1.905766e-42
-17.72120100 0.34393701 413.81500000 -0.33752000 -0.87151700 0.35572299 1.905766e-42
-17.29640000 -0.79449302 412.48700000 -0.36262199 -0.85862201 0.36231700 1.905766e-42
-17.48380100 -1.41721000 410.80801000 -0.38167301 -0.85140902 0.35976100 1.905766e-42
-17.56460000 -2.14784000 409.16501000 -0.39924699 -0.84381402 0.35858101 1.905766e-42
-17.53680000 -2.88177990 407.52200000 -0.41380399 -0.83705699 0.35791200 1.905766e-42
-16.05489900 -3.86785010 407.25400000 -0.41629401 -0.83201998 0.36666501 1.905766e-42
-14.47650000 -4.72059010 407.10699000 -0.42134801 -0.82824302 0.36943200 1.905766e-42
-12.91030000 -5.29195980 407.78601000 -0.42250499 -0.82684201 0.37124300 1.905766e-42
-11.50370000 -6.22897010 407.16699000 -0.41714200 -0.83191103 0.36594599 1.905766e-42
-9.94528010 -7.12161020 407.04599000 -0.41129699 -0.83542800 0.36454701 1.905766e-42
-8.47397990 -7.97618010 406.45801000 -0.40620399 -0.83890200 0.36227301 1.905766e-42
-6.90264990 -8.84871960 406.35999000 -0.39996901 -0.84116298 0.36396399 1.905766e-42
-5.38467980 -9.59996990 405.75101000 -0.39519599 -0.84293199 0.36508301 1.905766e-42
-3.82128000 -10.48280000 405.62201000 -0.38240099 -0.84759098 0.36791199 1.905766e-42
-2.20475010 -11.00390000 406.21799000 -0.36554399 -0.85348099 0.37141401 1.905766e-42
-0.80547899 -11.92670000 405.56201000 -0.35096499 -0.86087298 0.36840400 1.905766e-42
0.77525997 -12.60210000 405.02899000 -0.33559099 -0.86856198 0.36466199 1.905766e-42
2.39120010 -13.36200000 404.80200000 -0.32021299 -0.87617600 0.36024901 1.905766e-42
4.03905010 -14.08510000 404.76199000 -0.30576900 -0.88339502 0.35513201 1.905766e-42
5.73828980 -14.67850000 404.78400000 -0.29115701 -0.89073300 0.34903100 1.905766e-42
7.27695990 -15.30930000 404.09500000 -0.27256799 -0.90062100 0.33850899 1.905766e-42
8.96512030 -15.92430000 403.98599000 -0.25400299 -0.90869200 0.33130401 1.905766e-42
10.56830000 -16.45669900 403.36499000 -0.23480301 -0.91716897 0.32197601 1.905766e-42
12.17050000 -16.88559900 402.66501000 -0.21553200 -0.92498398 0.31297100 1.905766e-42
13.85630000 -17.49819900 402.51401000 -0.19557901 -0.93129998 0.30729499 1.905766e-42
15.57090000 -18.03440100 402.40100000 -0.17545800 -0.93677300 0.30277300 1.905766e-42
17.04980100 -18.46570000 401.47000000 -0.16069700 -0.94178402 0.29532999 1.905766e-42
18.68950100 -18.96430000 400.92001000 -0.14425100 -0.94623798 0.28952700 1.905766e-42
20.29810000 -19.25350000 400.16599000 -0.12771600 -0.95068097 0.28265500 1.905766e-42
22.08659900 -19.39510000 400.01999000 -0.11019200 -0.95401001 0.27878800 1.905766e-42
23.78160100 -19.36170000 400.62500000 -0.09506360 -0.95541501 0.27954301 1.905766e-42
25.56810000 -19.56629900 400.70801000 -0.07794420 -0.95790702 0.27629501 1.905766e-42
27.34490000 -19.84690100 400.77301000 -0.06587650 -0.95927900 0.27466899 1.905766e-42
29.13120100 -20.06730100 400.79199000 -0.05180630 -0.96031702 0.27405700 1.905766e-42
30.76680000 -20.02790100 400.04099000 -0.03697730 -0.96203500 0.27041000 1.905766e-42
32.55099900 -20.25009900 399.95599000 -0.01832250 -0.96249598 0.27067599 1.905766e-42
34.34130100 -20.43670100 399.96600000 0.00268115 -0.96239102 0.27165601 1.905766e-42
36.04480000 -20.56810000 399.39999000 0.02972660 -0.96288401 0.26827401 1.905766e-42
37.83509800 -20.52350000 399.21899000 0.06450190 -0.96240199 0.26385900 1.905766e-42
39.51820000 -20.28400000 399.81000000 0.09140540 -0.96010101 0.26429200 1.905766e-42
40.95069900 -19.74480100 400.75699000 0.11262000 -0.95701897 0.26726699 1.905766e-42
41.60889800 -19.05120100 402.28201000 0.12279400 -0.95391297 0.27380800 1.905766e-42
42.07709900 -18.60400000 403.96201000 0.12969799 -0.95035100 0.28286299 1.905766e-42
42.57199900 -18.17919900 405.63901000 0.13708000 -0.94594002 0.29394901 1.905766e-42
43.30929900 -17.65010100 407.19400000 0.14948501 -0.94015098 0.30621901 1.905766e-42
44.13769900 -16.98180000 408.64600000 0.16390400 -0.93427902 0.31663701 1.905766e-42
45.03150200 -16.24119900 410.02100000 0.17960100 -0.92826599 0.32567799 1.905766e-42
45.26300000 -15.71790000 411.72800000 0.18133099 -0.92375797 0.33732700 1.905766e-42
46.06900000 -15.04630000 413.19101000 0.19392399 -0.91804498 0.34581301 1.905766e-42
46.99770000 -14.32070000 414.55099000 0.20847400 -0.91218299 0.35278901 1.905766e-42
47.94440100 -13.58500000 415.89401000 0.22243600 -0.90640599 0.35909799 1.905766e-42
48.82669800 -12.83020000 417.26901000 0.23404001 -0.90092599 0.36545500 1.905766e-42
49.81549800 -11.68410000 418.24301000 0.24930000 -0.89477998 0.37043101 1.905766e-42
50.83589900 -10.47820000 419.10599000 0.26471201 -0.88824499 0.37543100 1.905766e-42
51.79349900 -9.94847010 420.53500000 0.27389300 -0.88200098 0.38348001 1.905766e-42
53.27380000 -9.42724990 421.41699000 0.29017299 -0.87594700 0.38537899 1.905766e-42
54.41339900 -8.59836010 422.53601000 0.29993501 -0.87014103 0.39101601 1.905766e-42
55.52190000 -7.63272000 423.57501000 0.30800101 -0.86481202 0.39652899 1.905766e-42
56.96260100 -7.00337980 424.45200000 0.31711200 -0.86051297 0.39869300 1.905766e-42
58.33760100 -6.17005010 425.26099000 0.32368100 -0.85695797 0.40106499 1.905766e-42
59.03049900 -5.12746000 426.55399000 0.32332501 -0.85107398 0.41368201 1.905766e-42
59.99409900 -4.09251020 427.66800000 0.32764500 -0.84139401 0.42977300 1.905766e-42
59.23860200 -3.62136010 429.23199000 0.31961000 -0.83241600 0.45269600 1.905766e-42
58.57790000 -2.96441010 430.77301000 0.31237701 -0.82251501 0.47527799 1.905766e-42
58.37130000 -2.15759990 432.36801000 0.30879301 -0.81090498 0.49707201 1.905766e-42
58.24710100 -1.11612000 433.83099000 0.30726099 -0.79878497 0.51723599 1.905766e-42
58.17010100 -0.02851940 435.26300000 0.30730000 -0.78650498 0.53570199 1.905766e-42
57.76509900 0.63013399 436.88901000 0.30523500 -0.77626699 0.55158103 1.905766e-42
57.53879900 1.71512000 438.30701000 0.30719799 -0.76539099 0.56551403 1.905766e-42
57.28509900 2.71942000 439.77899000 0.31067401 -0.75559503 0.57667899 1.905766e-42
56.84610000 3.46055010 441.35999000 0.31259400 -0.75098902 0.58163500 1.905766e-42
56.58900100 4.50336980 442.80399000 0.31828201 -0.74554801 0.58553898 1.905766e-42
56.10749800 5.39537000 444.29199000 0.32407099 -0.74149299 0.58750898 1.905766e-42
56.38579900 6.81995010 445.35599000 0.33462900 -0.73239899 0.59297103 1.905766e-42
56.21580100 7.70502000 446.91400000 0.32956201 -0.72556400 0.60410702 1.905766e-42
55.92919900 8.70088010 448.38599000 0.32259101 -0.71790099 0.61689001 1.905766e-42
56.34899900 10.04720000 449.50400000 0.32932600 -0.70637703 0.62655902 1.905766e-42
56.09790000 11.07520000 450.96100000 0.32191300 -0.69676298 0.64100897 1.905766e-42
56.09610000 12.29790000 452.28201000 0.31947801 -0.68493801 0.65482402 1.905766e-42
56.60590000 13.63810000 453.37000000 0.32701701 -0.66927099 0.66718501 1.905766e-42
57.20780200 15.01470000 454.36099000 0.33582401 -0.65340602 0.67844200 1.905766e-42
57.58160000 16.35240000 455.50601000 0.33992600 -0.63757801 0.69133502 1.905766e-42
58.15110000 17.76310000 456.46799000 0.34739599 -0.62153602 0.70214599 1.905766e-42
58.56860000 19.17600100 457.50201000 0.35208300 -0.60550398 0.71372402 1.905766e-42
59.32500100 20.64220000 458.22198000 0.36223501 -0.58976603 0.72177702 1.905766e-42
59.26480100 22.00410100 459.39700000 0.35989600 -0.57471102 0.73497099 1.905766e-42
60.33869900 23.37200000 459.86200000 0.37370700 -0.56044400 0.73908401 1.905766e-42
60.70349900 24.82270100 460.86301000 0.37563199 -0.54873401 0.74685401 1.905766e-42
61.56810000 26.24920100 461.53900000 0.38397101 -0.53716201 0.75101501 1.905766e-42
61.59940000 27.71439900 462.58499000 0.38247001 -0.52518201 0.76019800 1.905766e-42
62.83750200 28.99090000 462.86301000 0.39518201 -0.51473200 0.76084298 1.905766e-42
63.18130100 30.54200000 463.70901000 0.39755201 -0.50189501 0.76814902 1.905766e-42
63.81769900 32.10179900 464.34399000 0.40343499 -0.48899299 0.77338600 1.905766e-42
64.79979700 33.58200100 464.63400000 0.41361099 -0.47686800 0.77557898 1.905766e-42
65.32900200 35.14699900 465.34900000 0.41838500 -0.46333900 0.78119898 1.905766e-42
66.17729900 36.71889900 465.57101000 0.42933801 -0.44770199 0.78436702 1.905766e-42
66.52459700 38.28910100 466.38000000 0.43278900 -0.43207100 0.79120702 1.905766e-42
67.27339900 39.86589800 466.81900000 0.44054800 -0.41794601 0.79450500 1.905766e-42
68.01580000 41.48809800 467.05801000 0.44795999 -0.40524200 0.79693902 1.905766e-42
68.28150200 43.06290100 467.88901000 0.44819099 -0.39261001 0.80310798 1.905766e-42
69.11060300 44.65860000 467.96799000 0.45410901 -0.38229400 0.80475801 1.905766e-42
69.69920300 46.31810000 468.34201000 0.45567700 -0.37174699 0.80880302 1.905766e-42
69.66480300 47.87839900 469.23801000 0.45280901 -0.36053899 0.81546003 1.905766e-42
68.49259900 48.82339900 470.22501000 0.44741300 -0.35368800 0.82141697 1.905766e-42
67.06300400 49.12450000 471.27600000 0.44090500 -0.35332900 0.82508302 1.905766e-42
65.47860000 48.82669800 472.07700000 0.43204299 -0.35916600 0.82724798 1.905766e-42
64.00900300 49.28179900 473.01099000 0.41859001 -0.36105499 0.83331901 1.905766e-42
62.45439900 49.55199800 473.87701000 0.40091199 -0.36132801 0.84184998 1.905766e-42
60.99480100 50.13159900 474.75699000 0.38510600 -0.35791501 0.85064101 1.905766e-42
59.39899800 50.28749800 475.57501000 0.36894399 -0.35517600 0.85891199 1.905766e-42
57.75070200 50.31069900 476.29800000 0.35386601 -0.35217500 0.86645901 1.905766e-42
56.20029800 50.84890000 477.03699000 0.33989599 -0.34433401 0.87515998 1.905766e-42
54.61060000 51.13100100 477.83301000 0.32225600 -0.33613300 0.88496703 1.905766e-42
52.94380200 51.24689900 478.50299000 0.30384600 -0.32961899 0.89388400 1.905766e-42
51.23949800 51.13299900 479.07001000 0.28580001 -0.32589301 0.90117300 1.905766e-42
49.68170200 51.78260000 479.69601000 0.26794699 -0.31519800 0.91041398 1.905766e-42
48.01570100 52.08800100 480.30499000 0.24979100 -0.30776000 0.91808897 1.905766e-42
46.37649900 52.59299900 480.85101000 0.23206300 -0.29863599 0.92572302 1.905766e-42
44.69780000 52.94430200 481.39700000 0.21769500 -0.29233199 0.93120903 1.905766e-42
43.03039900 53.40240100 481.89700000 0.20528400 -0.28676099 0.93574899 1.905766e-42
41.39519900 54.00650000 482.34601000 0.19260700 -0.28090799 0.94020897 1.905766e-42
39.68590200 54.29200000 482.83301000 0.17800900 -0.27939200 0.94353199 1.905766e-42
38.08779900 54.96049900 483.32199000 0.16421100 -0.27513000 0.94727898 1.905766e-42
36.41190000 55.45949900 483.74899000 0.14852400 -0.27408701 0.95016700 1.905766e-42
34.77389900 56.06359900 484.18701000 0.13790400 -0.27502999 0.95149398 1.905766e-42
33.14920000 56.70529900 484.62100000 0.13138400 -0.27866000 0.95136100 1.905766e-42
31.52479900 57.36769900 485.02399000 0.12340000 -0.28521100 0.95048797 1.905766e-42
