# .PCD v0.7 - Point Cloud Data file format
# 4 147 1
# 1 40 0
# 41 68 0
# 69 123 1
# 124 147 0
VERSION 0.7
FIELDS x y z normal_x normal_y normal_z curvature
SIZE 4 4 4 4 4 4 4
TYPE F F F F F F F
COUNT 1 1 1 1 1 1 1
WIDTH 147
HEIGHT 1
VIEWPOINT 0 0 0 1 0 0 0
POINTS 147
DATA ascii
14.51180000 61.31309900 307.26099000 -0.93942302 0.27851501 -0.19978300 1.905766e-42
13.89430000 59.79150000 307.99799000 -0.93734699 0.28054199 -0.20658500 1.905766e-42
13.70770000 59.06570100 307.98001000 -0.93898600 0.27499601 -0.20659700 1.905766e-42
13.12210000 58.21450000 309.45401000 -0.94358099 0.26883799 -0.19333901 1.905766e-42
12.50800000 56.65309900 310.10599000 -0.94823498 0.25400999 -0.19060400 1.905766e-42
12.11300000 54.95999900 310.57199000 -0.95268101 0.23599800 -0.19158500 1.905766e-42
11.49610000 53.70050000 311.70001000 -0.95664901 0.22459400 -0.18542001 1.905766e-42
11.00220000 52.30929900 312.73001000 -0.96031398 0.21223900 -0.18097401 1.905766e-42
10.64680000 50.69620100 313.44501000 -0.96401501 0.19618900 -0.17940000 1.905766e-42
10.07200000 49.70740100 314.83499000 -0.96998698 0.18281700 -0.16032100 1.905766e-42
9.61462020 48.24430100 315.77899000 -0.97525698 0.16531600 -0.14678200 1.905766e-42
9.21553990 46.97679900 316.99301000 -0.97995502 0.15264399 -0.12801300 1.905766e-42
8.82147030 45.54480000 318.01001000 -0.98375797 0.14134300 -0.11064400 1.905766e-42
8.56159020 44.16740000 319.13901000 -0.98693800 0.13363200 -0.08997850 1.905766e-42
8.34996990 43.04760000 320.53201000 -0.98968399 0.12845200 -0.06345320 1.905766e-42
8.12176040 41.57370000 321.54001000 -0.99123502 0.12563901 -0.04083140 1.905766e-42
7.92036010 40.25590100 322.75000000 -0.99251401 0.12108900 -0.01589910 1.905766e-42
7.77223010 39.02159900 324.05099000 -0.99335402 0.11478500 0.00846601 1.905766e-42
7.67466020 37.67359900 325.23999000 -0.99370199 0.10784400 0.03042150 1.905766e-42
7.59334990 36.45480000 326.56201000 -0.99373800 0.09910660 0.05160000 1.905766e-42
7.54992010 35.15689800 327.80899000 -0.99344301 0.08973570 0.07084520 1.905766e-42
7.55839010 33.94929900 329.14401000 -0.99291098 0.07912380 0.08869890 1.905766e-42
7.59804010 32.93339900 330.62900000 -0.99210799 0.06496070 0.10724600 1.905766e-42
7.65690990 31.47530000 331.68301000 -0.99078298 0.05088290 0.12554200 1.905766e-42
7.79583980 30.26339900 333.00601000 -0.98901802 0.03516150 0.14355300 1.905766e-42
7.91908980 28.90630000 334.18201000 -0.98675799 0.01908870 0.16107500 1.905766e-42
8.04775050 27.34849900 335.07501000 -0.98407501 0.00297740 0.17773101 1.905766e-42
8.29743000 26.04850000 336.29501000 -0.98085499 -0.01465760 0.19418700 1.905766e-42
8.58218000 24.74780100 337.50601000 -0.97713399 -0.03280070 0.21008000 1.905766e-42
8.84943010 23.18720100 338.36200000 -0.97294801 -0.05157860 0.22519401 1.905766e-42
9.16938020 21.61829900 339.18399000 -0.96816200 -0.07152630 0.23988800 1.905766e-42
9.51515010 20.18149900 340.21201000 -0.96263802 -0.09273830 0.25441501 1.905766e-42
9.93667030 18.88220000 341.38400000 -0.95653200 -0.11468200 0.26813000 1.905766e-42
10.33840000 17.34520000 342.23099000 -0.94968599 -0.13872500 0.28080601 1.905766e-42
10.88680000 15.91060000 343.16901000 -0.94208902 -0.16432500 0.29234499 1.905766e-42
11.37270000 14.33550000 343.89301000 -0.93567699 -0.18782701 0.29871401 1.905766e-42
11.97200000 12.81030000 344.63699000 -0.93229300 -0.20343600 0.29907301 1.905766e-42
12.59720000 11.33270000 345.45300000 -0.92849803 -0.21761300 0.30089101 1.905766e-42
13.19790000 9.75823970 346.08600000 -0.92420000 -0.23113000 0.30402899 1.905766e-42
13.80910000 8.34121040 347.01199000 -0.91942602 -0.24280199 0.30936101 1.905766e-42
14.63950000 7.24491980 348.17401000 -0.91380298 -0.25290999 0.31780601 1.905766e-42
15.22950000 7.27358010 349.87399000 -0.90879101 -0.25775099 0.32812101 1.905766e-42
15.79180000 7.25283000 351.58401000 -0.90766799 -0.25380901 0.33424601 1.905766e-42
16.02470000 8.30963040 353.02200000 -0.90560800 -0.25050899 0.34222701 1.905766e-42
16.60290000 8.59805010 354.70200000 -0.90446699 -0.24382401 0.34998500 1.905766e-42
17.05970000 9.13274960 356.35901000 -0.90390301 -0.24078600 0.35352701 1.905766e-42
17.38120100 10.06290000 357.86600000 -0.90512103 -0.24231800 0.34933800 1.905766e-42
17.94150000 10.58550000 359.49500000 -0.90787703 -0.24188800 0.34241799 1.905766e-42
18.30489900 11.51680000 360.99200000 -0.91090399 -0.24085900 0.33502400 1.905766e-42
18.62910100 12.56260000 362.42099000 -0.91226900 -0.23174700 0.33772600 1.905766e-42
18.91010100 13.50430000 363.92899000 -0.91161102 -0.22214000 0.34586099 1.905766e-42
19.44190000 13.47330000 365.64801000 -0.90892202 -0.21772300 0.35560900 1.905766e-42
20.04920000 13.85260000 367.29999000 -0.90474999 -0.21208701 0.36938599 1.905766e-42
20.28360000 15.04990000 368.62299000 -0.90089399 -0.20665000 0.38168800 1.905766e-42
20.98920100 15.13120000 370.27701000 -0.89569801 -0.20445900 0.39486799 1.905766e-42
21.49920100 15.94250000 371.80099000 -0.89047498 -0.20171200 0.40788099 1.905766e-42
22.22480000 16.44640000 373.36899000 -0.88388699 -0.20037299 0.42260301 1.905766e-42
22.93499900 17.20240000 374.84000000 -0.87375200 -0.19296101 0.44645599 1.905766e-42
23.16110000 18.13430000 376.36301000 -0.85629702 -0.16897100 0.48806199 1.905766e-42
23.88900000 18.99819900 377.76501000 -0.83582801 -0.14399500 0.52977002 1.905766e-42
24.74029900 19.81550000 379.12399000 -0.81397200 -0.11778900 0.56883699 1.905766e-42
25.58980000 20.78249900 380.38199000 -0.79630703 -0.09525990 0.59734398 1.905766e-42
26.43330000 21.66750000 381.70300000 -0.79352999 -0.09793330 0.60059899 1.905766e-42
27.44630100 22.29210100 383.05399000 -0.78949302 -0.10156200 0.60529798 1.905766e-42
28.45080000 22.88419900 384.42499000 -0.78425300 -0.10593400 0.61132997 1.905766e-42
29.31880000 23.76210000 385.73499000 -0.77802998 -0.11046100 0.61843902 1.905766e-42
30.29750100 24.50709900 387.04901000 -0.74886900 -0.08376250 0.65740299 1.905766e-42
31.44759900 25.18709900 388.25500000 -0.70733601 -0.05011760 0.70509899 1.905766e-42
32.71289800 25.52059900 389.49100000 -0.64880699 -0.00860419 0.76090401 1.905766e-42
33.28350100 27.22590100 389.57199000 -0.58858001 0.03851600 0.80752099 1.905766e-42
32.75799900 28.90090000 389.17401000 -0.58199900 0.05808510 0.81111300 1.905766e-42
32.18970100 30.53940000 388.69199000 -0.57786602 0.07842280 0.81235498 1.905766e-42
31.78490100 32.22850000 388.22000000 -0.56542403 0.10538900 0.81803900 1.905766e-42
31.19319900 33.83660100 387.66800000 -0.56555498 0.12462900 0.81523901 1.905766e-42
30.60580100 35.40790200 387.01599000 -0.57069200 0.14144200 0.80889100 1.905766e-42
29.93450000 36.90980100 386.28500000 -0.58510101 0.15346700 0.79630703 1.905766e-42
30.04150000 38.62500000 385.75000000 -0.55965102 0.18676400 0.80740899 1.905766e-42
29.59890000 40.24369800 385.09900000 -0.56465900 0.20453601 0.79957801 1.905766e-42
29.21450000 41.85990100 384.40601000 -0.56751198 0.22272600 0.79266900 1.905766e-42
28.85689900 43.46329900 383.67001000 -0.57002598 0.23947300 0.78595400 1.905766e-42
27.98119900 44.81069900 382.85901000 -0.59678501 0.24106400 0.76533401 1.905766e-42
27.80979900 46.44609800 382.12701000 -0.59215200 0.25742999 0.76359999 1.905766e-42
27.29280100 47.95259900 381.28799000 -0.60478097 0.26268899 0.75182098 1.905766e-42
26.91410100 49.49010100 380.43201000 -0.61474299 0.27044901 0.74090999 1.905766e-42
26.44260000 50.93980000 379.47501000 -0.63156402 0.27774501 0.72386801 1.905766e-42
26.36829900 52.54639800 378.66699000 -0.63207698 0.29251400 0.71757501 1.905766e-42
26.05060000 54.05260100 377.73401000 -0.64357603 0.30249599 0.70306897 1.905766e-42
26.03170000 55.62649900 376.86099000 -0.64604598 0.31585300 0.69488198 1.905766e-42
25.32920100 56.84750000 375.73999000 -0.67319697 0.31793299 0.66762602 1.905766e-42
24.81370000 58.18820200 374.65500000 -0.69316900 0.32285699 0.64442301 1.905766e-42
24.66000000 59.69490100 373.68301000 -0.70123100 0.33243001 0.63068599 1.905766e-42
24.22240100 60.99689900 372.51901000 -0.71801102 0.33825400 0.60831302 1.905766e-42
23.99720000 62.43470000 371.45999000 -0.72602302 0.34919301 0.59241498 1.905766e-42
23.99250000 63.92940100 370.45700000 -0.72724801 0.36473501 0.58144498 1.905766e-42
23.98889900 65.36100000 369.36600000 -0.72828001 0.38113800 0.56951100 1.905766e-42
23.73220100 66.68180100 368.17099000 -0.73337102 0.39453900 0.55362999 1.905766e-42
23.96460000 68.18620300 367.20999000 -0.72352099 0.41884899 0.54870999 1.905766e-42
23.97270000 69.54100000 366.02499000 -0.71988398 0.43863699 0.53792602 1.905766e-42
23.24189900 70.44519800 364.65100000 -0.73591399 0.43997601 0.51463699 1.905766e-42
23.12529900 71.71720100 363.38199000 -0.73505598 0.45629701 0.50148302 1.905766e-42
23.17680000 73.06559800 362.19101000 -0.72824800 0.47700599 0.49205801 1.905766e-42
23.14810000 74.36000100 360.94101000 -0.72336298 0.49532399 0.48104200 1.905766e-42
23.17980000 75.61850000 359.65399000 -0.71747601 0.51365602 0.47051701 1.905766e-42
23.22240100 76.85720100 358.34900000 -0.71123600 0.53151602 0.46003699 1.905766e-42
23.36350100 78.10549900 357.06000000 -0.70226800 0.55129999 0.45043099 1.905766e-42
23.20439900 79.10369900 355.57001000 -0.70683402 0.55984700 0.43238500 1.905766e-42
23.60759900 80.38670300 354.37399000 -0.68883598 0.58575499 0.42707801 1.905766e-42
23.17580000 81.13569600 352.79501000 -0.70631701 0.58273602 0.40191299 1.905766e-42
23.34310000 82.22530400 351.37201000 -0.70000100 0.59862900 0.38941199 1.905766e-42
23.70949900 83.35340100 350.01801000 -0.68525302 0.62010002 0.38197500 1.905766e-42
23.83490000 84.37020100 348.53799000 -0.68306297 0.62831801 0.37234700 1.905766e-42
23.95290000 85.36389900 347.04199000 -0.68324798 0.63551903 0.35956600 1.905766e-42
23.95120000 86.27629900 345.48999000 -0.69076598 0.63791502 0.34044999 1.905766e-42
23.98210000 87.20089700 343.94601000 -0.69686300 0.64146698 0.32078400 1.905766e-42
24.64209900 88.26930200 342.65701000 -0.67212999 0.66788900 0.31963301 1.905766e-42
24.51499900 88.99579600 341.01501000 -0.68750101 0.66375601 0.29456899 1.905766e-42
24.58760100 89.85910000 339.43701000 -0.68592203 0.67432600 0.27348700 1.905766e-42
24.73860000 90.69110100 337.84799000 -0.67993301 0.68917000 0.25047201 1.905766e-42
25.18149900 91.61850000 336.37000000 -0.65901601 0.71370500 0.23732600 1.905766e-42
25.48049900 92.45570400 334.80499000 -0.64820498 0.72852898 0.22152901 1.905766e-42
25.50440000 92.94259600 333.07199000 -0.66659200 0.72041702 0.19145299 1.905766e-42
26.01969900 93.29760000 331.38501000 -0.67611998 0.71865702 0.16246200 1.905766e-42
26.50309900 94.16059900 329.88101000 -0.66633898 0.73109901 0.14658301 1.905766e-42
27.00099900 95.06759600 328.40799000 -0.65469199 0.74392700 0.13397899 1.905766e-42
25.81600000 94.45900000 327.19699000 -0.74001300 0.66909099 0.06853450 1.905766e-42
25.07160000 93.68479900 325.75299000 -0.79709703 0.60325199 0.02690680 1.905766e-42
24.16210000 92.39689600 324.88501000 -0.84007901 0.54241902 0.00704170 1.905766e-42
23.35120000 91.05400100 324.00201000 -0.86111301 0.50834602 -0.00829851 1.905766e-42
22.96400100 89.97920200 322.61099000 -0.86960202 0.49261400 -0.03350820 1.905766e-42
22.12870000 88.55780000 321.88901000 -0.86924797 0.49149999 -0.05325800 1.905766e-42
21.40819900 87.23739600 320.89999000 -0.86298603 0.49971101 -0.07445580 1.905766e-42
20.66220100 85.78780400 320.13699000 -0.86315900 0.49747801 -0.08644810 1.905766e-42
19.89040000 84.36499800 319.35001000 -0.87122500 0.48099500 -0.09803860 1.905766e-42
19.14440000 82.96070100 318.50601000 -0.88520002 0.45194399 -0.11030700 1.905766e-42
18.56790000 81.52809900 317.58099000 -0.90164101 0.41506699 -0.12150300 1.905766e-42
18.07620000 79.94629700 316.87701000 -0.91492099 0.38234201 -0.12936001 1.905766e-42
17.64329900 78.50990300 315.88199000 -0.92423201 0.35570401 -0.13881600 1.905766e-42
17.32230000 76.99600200 314.96301000 -0.93114698 0.33260399 -0.14946200 1.905766e-42
17.24420000 75.62100200 313.80399000 -0.93563300 0.31315899 -0.16285700 1.905766e-42
16.68400000 74.07820100 313.06500000 -0.94044399 0.28985399 -0.17762101 1.905766e-42
16.31180000 72.50180100 312.28000000 -0.94460499 0.26488400 -0.19379900 1.905766e-42
16.02890000 70.99510200 311.33701000 -0.94780898 0.23873501 -0.21133600 1.905766e-42
15.72070000 69.35669700 310.65799000 -0.94984102 0.21787600 -0.22434799 1.905766e-42
15.59820000 67.73320000 309.89001000 -0.95024300 0.22691000 -0.21342500 1.905766e-42
15.46200000 66.10949700 309.12500000 -0.94910902 0.24090600 -0.20287000 1.905766e-42
15.39340000 64.71589700 307.98801000 -0.94689602 0.25808200 -0.19178300 1.905766e-42
14.93530000 63.04710000 307.49301000 -0.94280797 0.27403700 -0.18978199 1.905766e-42
