# .PCD v0.7 - Point Cloud Data file format
# 3 103 0
# 1 51 0
# 52 67 0
# 68 103 0
VERSION 0.7
FIELDS x y z normal_x normal_y normal_z curvature
SIZE 4 4 4 4 4 4 4
TYPE F F F F F F F
COUNT 1 1 1 1 1 1 1
WIDTH 103
HEIGHT 1
VIEWPOINT 0 0 0 1 0 0 0
POINTS 103
DATA ascii
42.27610000 3.99938010 471.16299000 0.50723100 -0.81635898 0.27617899 1.905766e-42
42.72190100 4.73768000 472.74301000 0.52201903 -0.80369699 0.28559801 1.905766e-42
43.52970100 5.78468990 473.96399000 0.54129797 -0.78581297 0.29915500 1.905766e-42
44.41379900 6.89692020 475.06900000 0.55992901 -0.76816702 0.31048000 1.905766e-42
44.93820200 7.77535010 476.54999000 0.56802100 -0.75759399 0.32156500 1.905766e-42
45.62879900 8.89173980 477.78201000 0.57572597 -0.74828601 0.32955599 1.905766e-42
45.60260000 9.59171010 479.44000000 0.56891602 -0.74554902 0.34711799 1.905766e-42
45.26120000 10.14580000 481.11801000 0.55481201 -0.74850500 0.36321399 1.905766e-42
45.01810100 10.86340000 482.75101000 0.53886700 -0.75192302 0.37978199 1.905766e-42
44.33710100 11.20520000 484.38199000 0.51828998 -0.75313199 0.40517801 1.905766e-42
43.56860000 11.62010000 485.95599000 0.49723700 -0.75162601 0.43337500 1.905766e-42
42.55690000 11.80610000 487.43301000 0.47607201 -0.74869001 0.46132201 1.905766e-42
41.42800100 11.93260000 488.82901000 0.45458499 -0.74554098 0.48736101 1.905766e-42
40.15539900 11.97950000 490.10101000 0.43093300 -0.74359602 0.51123601 1.905766e-42
39.32669800 12.68040000 491.53699000 0.41189301 -0.73735601 0.53539801 1.905766e-42
38.02059900 12.74690000 492.77399000 0.37987399 -0.73829103 0.55733502 1.905766e-42
36.89040000 13.21100000 494.09601000 0.35222799 -0.73583299 0.57834703 1.905766e-42
35.50450100 13.51550000 495.20300000 0.32300001 -0.73355502 0.59797001 1.905766e-42
34.53459900 14.26560000 496.52100000 0.30270001 -0.72555900 0.61800998 1.905766e-42
33.03480100 14.37530000 497.51099000 0.27672899 -0.72361600 0.63229799 1.905766e-42
31.73979900 14.96660000 498.61200000 0.25191000 -0.71912098 0.64761603 1.905766e-42
30.49889900 15.60560000 499.74899000 0.21793599 -0.71814299 0.66088903 1.905766e-42
28.97520100 15.98390000 500.62900000 0.18145500 -0.71004200 0.68037802 1.905766e-42
27.43610000 16.47290000 501.42401000 0.14729400 -0.69692498 0.70185500 1.905766e-42
25.84480100 16.77529900 502.20901000 0.11520000 -0.68232501 0.72191501 1.905766e-42
24.44010000 17.53340000 503.04099000 0.08630050 -0.65916097 0.74703300 1.905766e-42
22.64250000 17.59129900 503.11401000 0.05356320 -0.65841800 0.75074399 1.905766e-42
21.30909900 18.28770100 504.10199000 0.03382020 -0.63839298 0.76896697 1.905766e-42
20.08600000 19.42980000 504.76501000 0.02443400 -0.62215197 0.78251499 1.905766e-42
18.31090000 19.29540100 504.49899000 -0.00943524 -0.64432102 0.76469702 1.905766e-42
16.66160000 19.76639900 505.04501000 -0.02512400 -0.65704697 0.75343102 1.905766e-42
14.93820000 20.12649900 505.41901000 -0.04206230 -0.67232001 0.73906499 1.905766e-42
13.27680000 20.69450000 505.81601000 -0.05729160 -0.68203700 0.72907001 1.905766e-42
11.48610000 20.75149900 505.64200000 -0.08119620 -0.69252998 0.71680498 1.905766e-42
9.69264980 20.80990000 505.78400000 -0.09966950 -0.69651198 0.71058899 1.905766e-42
9.39933010 21.77529900 506.51401000 -0.10067500 -0.68827701 0.71842903 1.905766e-42
7.64077000 22.14550000 506.41199000 -0.12980300 -0.68664497 0.71531099 1.905766e-42
5.86557010 22.34190000 506.18799000 -0.16373400 -0.68679303 0.70817202 1.905766e-42
4.09468980 22.36560100 505.86600000 -0.20124000 -0.68687201 0.69836199 1.905766e-42
2.37881990 22.39349900 505.32300000 -0.24022700 -0.68532997 0.68746901 1.905766e-42
0.64961702 22.51140000 504.83701000 -0.26962200 -0.68481803 0.67699897 1.905766e-42
-1.06609000 22.95690000 504.52499000 -0.28458300 -0.68829101 0.66728401 1.905766e-42
-2.75243000 23.13419900 503.92099000 -0.30217901 -0.69069999 0.65697801 1.905766e-42
-4.00894020 22.47810000 502.81100000 -0.31964499 -0.69208801 0.64717901 1.905766e-42
-5.54950000 22.40250000 501.88300000 -0.33816400 -0.69125497 0.63860101 1.905766e-42
-7.05500980 22.38130000 500.89700000 -0.35394800 -0.68712598 0.63449103 1.905766e-42
-8.68025970 22.37719900 500.12299000 -0.33295000 -0.69871598 0.63319802 1.905766e-42
-10.32980000 23.06380100 499.90500000 -0.29527399 -0.71604502 0.63252902 1.905766e-42
-11.93140000 22.96220000 499.09000000 -0.26523900 -0.71988499 0.64141500 1.905766e-42
-13.60960000 23.02590000 498.44199000 -0.23424800 -0.72378498 0.64904702 1.905766e-42
-15.26660000 22.82780100 497.76700000 -0.21150500 -0.73778600 0.64104402 1.905766e-42
-16.88369900 22.42170000 497.08899000 -0.19601300 -0.75383002 0.62715101 1.905766e-42
-17.23070000 21.34100000 495.69199000 -0.20797300 -0.76688403 0.60715401 1.905766e-42
-17.35230100 20.42830100 494.14499000 -0.22568700 -0.77292299 0.59300601 1.905766e-42
-17.08659900 19.21769900 492.84000000 -0.24720500 -0.77203500 0.58553600 1.905766e-42
-17.14970000 18.30640000 491.28900000 -0.26622999 -0.77266198 0.57629400 1.905766e-42
-16.89699900 17.11809900 489.96100000 -0.28517601 -0.76733202 0.57434899 1.905766e-42
-17.12920000 16.10590000 488.49100000 -0.29909101 -0.76479000 0.57064903 1.905766e-42
-17.24950000 15.05430000 487.03500000 -0.31180301 -0.76264000 0.56670898 1.905766e-42
-16.94669900 13.88890000 485.69699000 -0.32442299 -0.75929803 0.56410700 1.905766e-42
-17.47360000 13.05800000 484.18900000 -0.33430001 -0.76070702 0.55638802 1.905766e-42
-17.62500000 11.99570000 482.74399000 -0.34677100 -0.75985599 0.54988003 1.905766e-42
-17.43129900 10.87770000 481.34698000 -0.35891199 -0.75430298 0.54973602 1.905766e-42
-17.60730000 9.87825970 479.85999000 -0.36829099 -0.74883503 0.55100501 1.905766e-42
-17.65620000 8.86654000 478.37201000 -0.37625900 -0.74396902 0.55221403 1.905766e-42
-17.90530000 7.93071990 476.85501000 -0.37983799 -0.73921901 0.55612803 1.905766e-42
-18.01560000 6.82836010 475.43600000 -0.37831900 -0.73707998 0.55998898 1.905766e-42
-17.68330000 5.67448000 474.09500000 -0.37050799 -0.73820400 0.56371897 1.905766e-42
-16.09919900 4.82171010 474.03699000 -0.36467201 -0.74673998 0.55623198 1.905766e-42
-14.60970000 4.78796010 475.04700000 -0.36591101 -0.75131398 0.54921401 1.905766e-42
-13.05700000 4.67503020 475.95001000 -0.35571700 -0.76040602 0.54336703 1.905766e-42
-11.41660000 4.39279990 476.63501000 -0.34460300 -0.76984900 0.53719699 1.905766e-42
-9.64669990 4.08986000 476.76099000 -0.33172700 -0.78114498 0.52893198 1.905766e-42
-7.96879010 3.65940000 477.25000000 -0.32167199 -0.79059798 0.52104002 1.905766e-42
-6.23332020 3.26276990 477.51700000 -0.30926201 -0.80196100 0.51109201 1.905766e-42
-4.68104980 2.84089990 478.32401000 -0.29052001 -0.81130302 0.50733101 1.905766e-42
-2.97969010 2.48863010 478.79501000 -0.26507100 -0.82044899 0.50655800 1.905766e-42
-1.35093000 1.81600000 478.42801000 -0.23570000 -0.83737803 0.49319699 1.905766e-42
0.38222799 1.33124010 478.39401000 -0.20499600 -0.84862900 0.48765200 1.905766e-42
2.14722990 0.97805601 478.39700000 -0.17758299 -0.85561299 0.48620000 1.905766e-42
3.92233990 0.67970800 478.39801000 -0.16665100 -0.85763401 0.48650900 1.905766e-42
5.68674990 0.32353401 478.39899000 -0.15721899 -0.86096799 0.48375201 1.905766e-42
7.44183020 -0.07598100 478.39200000 -0.14900300 -0.86545098 0.47832301 1.905766e-42
9.21205040 -0.40206701 478.39499000 -0.14193501 -0.87011898 0.47196099 1.905766e-42
10.79400000 -0.80633497 477.63699000 -0.12264100 -0.88668299 0.44581699 1.905766e-42
12.41410000 -0.80609602 478.42099000 -0.09584860 -0.88466299 0.45627299 1.905766e-42
14.20020000 -1.02733000 478.39301000 -0.05846390 -0.89243197 0.44737801 1.905766e-42
15.79350000 -1.43985000 477.66400000 -0.02181330 -0.90774798 0.41894799 1.905766e-42
17.39909900 -1.64704000 476.87701000 0.01503240 -0.92009401 0.39140901 1.905766e-42
19.19570000 -1.73397990 476.80899000 0.05308280 -0.92093199 0.38609201 1.905766e-42
20.87220000 -1.61517000 476.16400000 0.08703280 -0.92518300 0.36940801 1.905766e-42
22.66330000 -1.70037000 476.00699000 0.12260900 -0.92329502 0.36399499 1.905766e-42
24.44190000 -1.42408000 475.99899000 0.15836699 -0.91703600 0.36601099 1.905766e-42
26.21299900 -1.10250000 475.99899000 0.19324499 -0.90948302 0.36809799 1.905766e-42
27.82519900 -1.07701000 475.19901000 0.22516800 -0.91058600 0.34660199 1.905766e-42
29.44829900 -0.84174800 474.45700000 0.25985199 -0.90825301 0.32795399 1.905766e-42
31.10850000 -0.45626599 473.87799000 0.29676801 -0.90204298 0.31344500 1.905766e-42
32.82669800 0.04098370 473.67700000 0.33472100 -0.89107001 0.30652100 1.905766e-42
34.34500100 0.42749500 472.79099000 0.37077400 -0.88497198 0.28169399 1.905766e-42
35.98820100 0.92662102 472.25201000 0.40527099 -0.87433100 0.26702201 1.905766e-42
37.63280100 1.63046000 472.05099000 0.43439299 -0.86069697 0.26552600 1.905766e-42
39.07550000 2.36264990 471.26199000 0.45729199 -0.84952098 0.26305401 1.905766e-42
40.71390200 3.10696010 471.21799000 0.48243001 -0.83345401 0.26947200 1.905766e-42
