# .PCD v0.7 - Point Cloud Data file format
# 3 136 1
# 1 57 0
# 58 89 0
# 90 136 1
VERSION 0.7
FIELDS x y z normal_x normal_y normal_z curvature
SIZE 4 4 4 4 4 4 4
TYPE F F F F F F F
COUNT 1 1 1 1 1 1 1
WIDTH 136
HEIGHT 1
VIEWPOINT 0 0 0 1 0 0 0
POINTS 136
DATA ascii
-9.22535040 -51.79050100 389.48499000 -0.98990703 0.11560600 -0.08196990 1.905766e-42
-9.36896040 -50.98939900 391.09000000 -0.98763299 0.13616700 -0.07771590 1.905766e-42
-9.02355960 -49.22480000 391.17300000 -0.98541099 0.15608899 -0.06783920 1.905766e-42
-8.72974970 -47.56250000 391.79800000 -0.98205799 0.18035901 -0.05506770 1.905766e-42
-8.48349000 -45.94160100 392.54099000 -0.97775799 0.20551400 -0.04187740 1.905766e-42
-8.16996000 -44.36550100 393.35199000 -0.97306901 0.22866599 -0.02913140 1.905766e-42
-7.90230990 -42.76750200 394.13599000 -0.96871799 0.24757400 -0.01709500 1.905766e-42
-7.35968020 -41.25289900 394.94299000 -0.96554500 0.26017499 -0.00562581 1.905766e-42
-7.00709010 -39.49720000 395.12601000 -0.96652800 0.25611299 -0.01515330 1.905766e-42
-6.54697990 -38.05690000 396.10300000 -0.97050500 0.23851600 -0.03508290 1.905766e-42
-6.23852010 -36.36619900 396.63800000 -0.97451597 0.21795601 -0.05304760 1.905766e-42
-5.86081980 -34.75870100 397.35400000 -0.97864002 0.19295999 -0.07092530 1.905766e-42
-5.74651000 -33.15860000 398.17099000 -0.98225099 0.16572200 -0.08785830 1.905766e-42
-5.46283010 -31.44140100 397.71201000 -0.98515201 0.14367799 -0.09398190 1.905766e-42
-5.12665990 -29.91460000 396.82001000 -0.98739302 0.12794000 -0.09320110 1.905766e-42
-4.92541980 -28.30290000 396.04401000 -0.98944199 0.11224200 -0.09168310 1.905766e-42
-4.69164990 -26.66770000 395.32901000 -0.99123502 0.09774800 -0.08887600 1.905766e-42
-4.40876010 -24.89380100 395.21399000 -0.99285799 0.08887640 -0.07958540 1.905766e-42
-4.23063990 -23.25410100 394.49301000 -0.99428999 0.08029120 -0.07028420 1.905766e-42
-4.10115000 -21.62999900 393.72800000 -0.99595702 0.06801830 -0.05867340 1.905766e-42
-3.87252000 -19.85040100 393.58301000 -0.99741501 0.06158710 -0.03700490 1.905766e-42
-3.90055990 -17.95050000 392.79901000 -0.99866700 0.04626950 -0.02285510 1.905766e-42
-3.78863000 -16.28730000 392.12000000 -0.99939698 0.03310620 -0.01043640 1.905766e-42
-3.59300990 -14.50050000 392.02301000 -0.99965203 0.02554300 0.00659021 1.905766e-42
-3.74450990 -12.86490000 391.28699000 -0.99975598 0.01289440 0.01794930 1.905766e-42
-3.75956990 -11.13020000 390.80701000 -0.99952501 0.00478707 0.03044640 1.905766e-42
-3.76630000 -9.36707020 390.44501000 -0.99912202 -0.00152972 0.04187620 1.905766e-42
-3.78726010 -7.68514010 389.80399000 -0.99864799 -0.00996176 0.05101320 1.905766e-42
-3.79351000 -5.89249990 389.64099000 -0.99804699 -0.01680840 0.06016000 1.905766e-42
-3.89704990 -4.31510020 388.78101000 -0.99742699 -0.02686040 0.06646730 1.905766e-42
-3.99722000 -2.63341000 388.14700000 -0.99670702 -0.03679100 0.07225750 1.905766e-42
-4.00798990 -0.85326201 388.41299000 -0.99603403 -0.04742750 0.07527420 1.905766e-42
-4.15851020 0.55036002 387.29599000 -0.99440497 -0.06597330 0.08250510 1.905766e-42
-4.31771990 2.34103990 387.20599000 -0.99246502 -0.08736100 0.08590980 1.905766e-42
-4.42213010 4.13769010 387.17200000 -0.99007797 -0.11012500 0.08727850 1.905766e-42
-4.74284980 5.75999020 386.46100000 -0.98709798 -0.13141800 0.09147070 1.905766e-42
-4.96513990 7.45874980 385.90900000 -0.98366898 -0.15308300 0.09465830 1.905766e-42
-5.42118980 8.89533040 384.92499000 -0.97996497 -0.17098901 0.10213700 1.905766e-42
-5.79361010 10.29570000 383.85800000 -0.97604197 -0.18679699 0.11157700 1.905766e-42
-6.14761020 11.99570000 383.38400000 -0.97210199 -0.20379999 0.11611900 1.905766e-42
-6.52820010 13.74950000 383.24399000 -0.96840501 -0.21941601 0.11853000 1.905766e-42
-7.01403000 15.29350000 382.45700000 -0.96378201 -0.23240100 0.13082200 1.905766e-42
-7.52598000 16.61800000 381.35101000 -0.95813203 -0.24440800 0.14915800 1.905766e-42
-7.96920010 18.27540000 380.80600000 -0.95267397 -0.25677800 0.16271700 1.905766e-42
-8.57209970 19.38640000 379.52499000 -0.94510400 -0.26946899 0.18483700 1.905766e-42
-9.18208980 20.63769900 378.38300000 -0.93808502 -0.28033701 0.20348901 1.905766e-42
-9.64021970 22.36610000 378.17700000 -0.93271601 -0.28891101 0.21580499 1.905766e-42
-10.38300000 23.55139900 377.04401000 -0.92380297 -0.30240300 0.23481999 1.905766e-42
-11.15170000 24.65469900 375.84698000 -0.91387302 -0.31803501 0.25236899 1.905766e-42
-11.88860000 25.93890000 374.82401000 -0.90305299 -0.33526799 0.26849699 1.905766e-42
-12.69650000 27.01910000 373.63199000 -0.89147502 -0.35481200 0.28174600 1.905766e-42
-13.52960000 28.35250100 372.75500000 -0.88070202 -0.37177399 0.29350999 1.905766e-42
-14.32730000 29.61619900 371.75201000 -0.87086099 -0.38702500 0.30300599 1.905766e-42
-15.23720000 30.70080000 370.64001000 -0.86182201 -0.40144601 0.31000701 1.905766e-42
-16.15259900 31.59149900 369.37201000 -0.85370600 -0.41523099 0.31427601 1.905766e-42
-17.10610000 32.57220100 368.20200000 -0.84579003 -0.42773899 0.31887001 1.905766e-42
-18.04430000 33.54830200 367.01599000 -0.83812702 -0.43909201 0.32363799 1.905766e-42
-18.96110000 34.17549900 365.60001000 -0.83070201 -0.44961500 0.32830101 1.905766e-42
-19.28220000 33.55950200 363.93900000 -0.82660002 -0.44958401 0.33853701 1.905766e-42
-19.22020000 32.59429900 362.42099000 -0.82747000 -0.43914601 0.34991899 1.905766e-42
-18.89690000 31.07230000 361.51599000 -0.83162302 -0.42217100 0.36079800 1.905766e-42
-18.81360100 29.82640100 360.22000000 -0.83456498 -0.40487501 0.37360001 1.905766e-42
-18.57840000 28.27319900 359.34100000 -0.83929700 -0.38911000 0.37970200 1.905766e-42
-18.61610000 27.15480000 357.93100000 -0.84468597 -0.38272101 0.37420601 1.905766e-42
-18.54000100 25.64340000 356.95599000 -0.84947902 -0.37597701 0.37017101 1.905766e-42
-18.43680000 24.31710100 355.74399000 -0.85350901 -0.37183800 0.36504599 1.905766e-42
-18.39730100 23.10800000 354.41101000 -0.85682899 -0.36964199 0.35945600 1.905766e-42
-18.36010000 21.84280000 353.13101000 -0.85806602 -0.36385000 0.36240199 1.905766e-42
-18.42860000 20.76190000 351.69299000 -0.85696101 -0.35414800 0.37442899 1.905766e-42
-18.45420100 19.32700000 350.60699000 -0.85617501 -0.34398401 0.38553801 1.905766e-42
-18.60960000 18.09289900 349.30600000 -0.85469598 -0.33411300 0.39732099 1.905766e-42
-18.64629900 16.79460000 348.06000000 -0.85305500 -0.32429901 0.40881100 1.905766e-42
-18.69560100 15.40530000 346.91599000 -0.85157400 -0.31576201 0.41846901 1.905766e-42
-18.89200000 14.14830000 345.64301000 -0.84961998 -0.30791199 0.42817801 1.905766e-42
-19.16130100 13.03170000 344.25699000 -0.84719598 -0.30016801 0.43835899 1.905766e-42
-19.34070000 11.78040000 342.97501000 -0.84448397 -0.29244801 0.44868699 1.905766e-42
-19.55200000 10.42590000 341.80899000 -0.84248102 -0.28067300 0.45983601 1.905766e-42
-19.85780000 9.17529010 340.55099000 -0.83587903 -0.25913399 0.48389700 1.905766e-42
-20.08149900 7.74900010 339.47601000 -0.82972097 -0.23485599 0.50636601 1.905766e-42
-20.38550000 6.33373020 338.40601000 -0.82240897 -0.20936801 0.52896899 1.905766e-42
-20.90500100 5.19789980 337.10999000 -0.81255698 -0.18494500 0.55276197 1.905766e-42
-21.35689900 3.83644010 336.02301000 -0.81134099 -0.16855200 0.55974698 1.905766e-42
-21.91300000 2.47404000 334.98599000 -0.81577700 -0.16135500 0.55540299 1.905766e-42
-22.45910100 1.16887000 333.87299000 -0.81974000 -0.15679900 0.55085403 1.905766e-42
-22.82290100 -0.22804700 332.79800000 -0.82359397 -0.15359300 0.54598802 1.905766e-42
-23.45410000 -1.27748000 331.47900000 -0.82769501 -0.15762600 0.53858602 1.905766e-42
-23.83499900 -2.70790000 330.45499000 -0.84224701 -0.17216700 0.51086003 1.905766e-42
-24.28610000 -3.47985010 328.89200000 -0.85237700 -0.19030400 0.48707101 1.905766e-42
-24.75900100 -4.93887000 327.95001000 -0.86029202 -0.20614800 0.46626300 1.905766e-42
-25.09760100 -6.28435990 326.80399000 -0.86562800 -0.22462900 0.44747001 1.905766e-42
-24.66700000 -7.99328990 326.43701000 -0.87015897 -0.23947699 0.43066701 1.905766e-42
-23.87739900 -9.52223010 326.96500000 -0.87424397 -0.24566700 0.41874200 1.905766e-42
-23.09680000 -10.88980000 327.83701000 -0.87981302 -0.24352100 0.40819901 1.905766e-42
-22.39650000 -12.08440000 328.98700000 -0.88661498 -0.23248000 0.39983299 1.905766e-42
-21.59890000 -13.62220000 329.47601000 -0.89427900 -0.23130400 0.38309699 1.905766e-42
-20.98210000 -14.56500000 330.88000000 -0.89933097 -0.21586800 0.38027000 1.905766e-42
-20.25830100 -15.98910000 331.70999000 -0.90606201 -0.21034400 0.36716199 1.905766e-42
-19.56209900 -17.29380000 332.73599000 -0.91206801 -0.20171700 0.35699099 1.905766e-42
-18.91860000 -18.45109900 333.95499000 -0.91724700 -0.18939900 0.35040799 1.905766e-42
-18.21010000 -19.87900000 334.79099000 -0.92369902 -0.18315899 0.33650100 1.905766e-42
-17.65430100 -21.52319900 335.26801000 -0.93054003 -0.18441300 0.31636599 1.905766e-42
-16.97320000 -22.35560000 336.71201000 -0.93384701 -0.16559200 0.31703100 1.905766e-42
-16.48640100 -23.01639900 338.31400000 -0.93544799 -0.14255001 0.32344499 1.905766e-42
-15.89990000 -24.48650000 339.17099000 -0.94115102 -0.13742299 0.30878600 1.905766e-42
-15.34070000 -25.60930100 340.46201000 -0.94457400 -0.12198800 0.30479401 1.905766e-42
-14.70070000 -26.98679900 341.42801000 -0.94928199 -0.11541900 0.29247701 1.905766e-42
-14.32120000 -27.67130100 343.04800000 -0.94856900 -0.09079480 0.30327001 1.905766e-42
-13.82620000 -28.81489900 344.34698000 -0.95124698 -0.07862330 0.29824099 1.905766e-42
-13.27440000 -30.15740000 345.41199000 -0.95630902 -0.07558620 0.28241801 1.905766e-42
-12.83100000 -31.17610000 346.82800000 -0.96025902 -0.06515880 0.27139899 1.905766e-42
-12.39400000 -32.24539900 348.20901000 -0.96417898 -0.05568500 0.25934300 1.905766e-42
-11.94540000 -33.35220000 349.55499000 -0.96803498 -0.04697510 0.24637599 1.905766e-42
-11.47400000 -34.59209800 350.77200000 -0.97192103 -0.04217040 0.23149900 1.905766e-42
-11.25200000 -35.27859900 352.42099000 -0.97386199 -0.02806050 0.22540200 1.905766e-42
-10.88600000 -36.28640000 353.86700000 -0.97638899 -0.02006180 0.21508400 1.905766e-42
-10.52430000 -37.29150000 355.31601000 -0.97873998 -0.01237310 0.20473100 1.905766e-42
-10.19070000 -38.29769900 356.76999000 -0.98100102 -0.00508702 0.19393399 1.905766e-42
-9.94394020 -39.16960100 358.32599000 -0.98294997 0.00416238 0.18382400 1.905766e-42
-9.63088040 -40.14569900 359.80499000 -0.98536199 0.01041830 0.17015900 1.905766e-42
-9.32361030 -41.16420000 361.25699000 -0.98782998 0.01608240 0.15470400 1.905766e-42
-9.18006040 -41.80950200 362.93201000 -0.98956198 0.02771740 0.14142001 1.905766e-42
-8.93679050 -42.83250000 364.39200000 -0.99162602 0.03325630 0.12479000 1.905766e-42
-8.84138970 -43.39910100 366.09799000 -0.99282497 0.04438650 0.11103000 1.905766e-42
-8.72062020 -43.93980000 367.81100000 -0.99378997 0.05507090 0.09668760 1.905766e-42
-8.62835980 -44.63890100 369.46701000 -0.99475598 0.06295110 0.08060460 1.905766e-42
-8.59650040 -45.37670100 371.10901000 -0.99536902 0.07045850 0.06538550 1.905766e-42
-8.48246000 -46.30170100 372.64801000 -0.99567097 0.07675210 0.05242870 1.905766e-42
-8.48050020 -46.94710200 374.32901000 -0.99552298 0.08447270 0.04240730 1.905766e-42
-8.50516030 -47.60030000 376.00601000 -0.99576801 0.08552180 0.03365990 1.905766e-42
-8.27933030 -48.66939900 377.43600000 -0.99667799 0.07867270 0.02104460 1.905766e-42
-8.28868960 -49.25439800 379.13901000 -0.99663699 0.08148190 0.00871971 1.905766e-42
-8.46039010 -49.47909900 380.91599000 -0.99591500 0.09018550 -0.00454227 1.905766e-42
-8.60797980 -49.82049900 382.67700000 -0.99507099 0.09667200 -0.02209950 1.905766e-42
-8.74590020 -50.24119900 384.42200000 -0.99394798 0.10187300 -0.04111340 1.905766e-42
-8.90289970 -50.76530100 386.13699000 -0.99265802 0.10590800 -0.05843260 1.905766e-42
-9.08257010 -50.90829800 387.92200000 -0.99072599 0.11636400 -0.07015500 1.905766e-42
