# .PCD v0.7 - Point Cloud Data file format
# 4 254 0
# 1 71 0
# 72 121 0
# 122 186 0
# 187 254 0
VERSION 0.7
FIELDS x y z normal_x normal_y normal_z curvature
SIZE 4 4 4 4 4 4 4
TYPE F F F F F F F
COUNT 1 1 1 1 1 1 1
WIDTH 254
HEIGHT 1
VIEWPOINT 0 0 0 1 0 0 0
POINTS 254
DATA ascii
-22.14790000 10.06750000 386.77899000 0.46261200 0.88562399 -0.04073210 1.905766e-42
-22.11500000 10.01950000 388.57800000 0.47104001 0.88096201 -0.04501820 1.905766e-42
-22.02940000 10.06250000 390.37601000 0.47550800 0.87819803 -0.05157870 1.905766e-42
-21.86790100 10.06520000 392.16901000 0.47740701 0.87659103 -0.06057960 1.905766e-42
-21.60910000 10.14180000 393.94800000 0.47748300 0.87571597 -0.07163580 1.905766e-42
-21.89660100 10.44650000 395.69901000 0.47979000 0.87334001 -0.08413690 1.905766e-42
-21.80960100 10.57870000 397.49200000 0.47841299 0.87265801 -0.09792790 1.905766e-42
-21.49259900 10.61170000 399.26300000 0.47482499 0.87281197 -0.11287100 1.905766e-42
-21.72769900 10.91500000 401.02200000 0.47391200 0.87111998 -0.12867500 1.905766e-42
-21.30310100 11.04280000 402.76700000 0.46955100 0.87069702 -0.14631499 1.905766e-42
-20.81590100 11.06130000 404.49899000 0.46430999 0.87027800 -0.16441301 1.905766e-42
-20.62910100 11.35500000 406.26501000 0.46067101 0.86849397 -0.18302800 1.905766e-42
-20.73130000 11.67660000 408.03299000 0.45815101 0.86572999 -0.20151800 1.905766e-42
-20.20350100 11.90980000 409.73801000 0.45241901 0.86400998 -0.22091800 1.905766e-42
-19.55920000 12.10670000 411.40701000 0.44585100 0.86221600 -0.24041601 1.905766e-42
-19.26250100 12.46320000 413.14700000 0.44109300 0.85887498 -0.26032701 1.905766e-42
-19.29400100 13.00650000 414.86200000 0.43844700 0.85410500 -0.27976400 1.905766e-42
-19.17939900 13.49910000 416.59000000 0.43500599 0.84912503 -0.29959300 1.905766e-42
-19.16210000 14.07470000 418.29501000 0.43237299 0.84331900 -0.31916699 1.905766e-42
-19.04229900 14.51220000 420.03699000 0.42923000 0.83742499 -0.33835101 1.905766e-42
-18.74230000 15.14530000 421.69501000 0.42603001 0.83125597 -0.35708800 1.905766e-42
-18.33830100 15.73750000 423.34601000 0.42288801 0.82461798 -0.37572700 1.905766e-42
-17.96430000 16.19150000 425.04800000 0.42017600 0.81738198 -0.39413100 1.905766e-42
-16.76450000 16.26759900 426.38699000 0.41597199 0.81278402 -0.40786001 1.905766e-42
-15.25500000 16.13820100 427.35901000 0.40439799 0.81295103 -0.41901401 1.905766e-42
-14.44610000 16.56100100 428.91101000 0.39562100 0.80712098 -0.43822399 1.905766e-42
-13.50050000 16.89880000 430.40500000 0.38507101 0.80154699 -0.45743099 1.905766e-42
-13.51840000 17.82659900 431.94699000 0.38298401 0.79072601 -0.47757301 1.905766e-42
-13.92320000 18.83830100 433.38000000 0.38383999 0.77896601 -0.49586099 1.905766e-42
-14.18870000 19.86630100 434.83301000 0.38287801 0.76707602 -0.51478100 1.905766e-42
-14.03090000 20.88839900 436.30600000 0.37806100 0.75535202 -0.53526902 1.905766e-42
-13.94530000 21.93549900 437.76801000 0.37308899 0.74491501 -0.55308801 1.905766e-42
-13.90860000 23.02190000 439.20300000 0.36827400 0.73464698 -0.56979698 1.905766e-42
-13.66550000 24.08270100 440.63599000 0.36203799 0.72404301 -0.58710301 1.905766e-42
-13.84580000 25.29130000 441.95801000 0.35876900 0.71276897 -0.60269803 1.905766e-42
-13.77150000 26.41120000 443.36499000 0.35356399 0.70100999 -0.61933601 1.905766e-42
-12.97660000 27.31550000 444.70300000 0.34512499 0.68991399 -0.63632298 1.905766e-42
-12.85960000 28.50280000 446.05099000 0.34045100 0.67711401 -0.65238798 1.905766e-42
-12.68740000 29.70480000 447.38000000 0.33580801 0.66385603 -0.66822702 1.905766e-42
-12.63440000 30.81979900 448.79199000 0.33176601 0.65025198 -0.68344998 1.905766e-42
-11.76680000 31.64699900 449.71399000 0.32696801 0.64017999 -0.69517100 1.905766e-42
-11.45210000 32.88140100 450.98499000 0.32359499 0.62639201 -0.70916802 1.905766e-42
-11.58710000 34.20029800 452.20300000 0.32114801 0.61258298 -0.72222298 1.905766e-42
-11.06540000 35.47520100 453.36099000 0.31815499 0.59855801 -0.73519099 1.905766e-42
-10.84920000 36.81819900 454.54001000 0.31565499 0.58408397 -0.74780202 1.905766e-42
-11.06970000 38.24639900 455.61301000 0.31290001 0.57006103 -0.75968701 1.905766e-42
-11.25970000 39.68579900 456.67700000 0.30972099 0.55599898 -0.77132201 1.905766e-42
-11.36730000 41.17409900 457.68399000 0.30629700 0.54179800 -0.78271103 1.905766e-42
-11.51150000 42.70920200 458.61301000 0.30242401 0.52777702 -0.79372001 1.905766e-42
-11.60060000 44.25270100 459.53500000 0.29844400 0.51362997 -0.80443501 1.905766e-42
-11.49940000 45.78459900 460.47400000 0.29512101 0.49951300 -0.81448799 1.905766e-42
-12.30460000 47.29119900 461.04199000 0.28705499 0.49071500 -0.82267803 1.905766e-42
-12.87250000 48.84940000 461.74100000 0.27891600 0.48056701 -0.83142102 1.905766e-42
-13.31520000 50.41519900 462.51099000 0.27063000 0.46968901 -0.84032798 1.905766e-42
-13.61910000 52.00490200 463.29800000 0.26253101 0.45802000 -0.84929103 1.905766e-42
-13.67730000 53.58729900 464.15399000 0.25582600 0.44498301 -0.85822099 1.905766e-42
-14.42910000 55.07479900 464.83401000 0.24387200 0.43606901 -0.86623901 1.905766e-42
-14.40050000 56.70740100 465.59201000 0.23711300 0.42248699 -0.87480402 1.905766e-42
-14.48680000 58.35229900 466.31799000 0.22928999 0.40927300 -0.88313198 1.905766e-42
-14.51010000 59.98580200 467.07300000 0.22204401 0.39556301 -0.89119399 1.905766e-42
-15.38050000 61.50019800 467.50800000 0.20886900 0.38035399 -0.90094602 1.905766e-42
-15.44160000 63.16680100 468.18500000 0.20296299 0.35767600 -0.91152298 1.905766e-42
-15.64920000 64.83589900 468.82599000 0.19538000 0.33789399 -0.92068100 1.905766e-42
-15.35450000 66.49430100 469.46100000 0.19194999 0.31824300 -0.92837298 1.905766e-42
-16.10710000 68.08869900 469.82300000 0.17824499 0.30622700 -0.93512303 1.905766e-42
-16.29180000 69.76210000 470.45999000 0.16872500 0.29188100 -0.94145501 1.905766e-42
-15.31640000 71.20719900 470.90799000 0.17132799 0.27511600 -0.94602197 1.905766e-42
-16.02759900 72.82520300 471.24899000 0.15514800 0.26730499 -0.95104003 1.905766e-42
-15.34170000 74.41980000 471.72501000 0.15300700 0.25226599 -0.95548499 1.905766e-42
-15.43180000 76.18039700 472.08899000 0.14052100 0.24216101 -0.96000600 1.905766e-42
-14.37970000 77.55480200 472.58301000 0.14259499 0.22656700 -0.96350098 1.905766e-42
-13.89810000 79.24890100 472.95401000 0.13545901 0.21374200 -0.96745300 1.905766e-42
-12.27360000 79.86209900 473.42899000 0.14895099 0.19991399 -0.96842599 1.905766e-42
-10.54770000 79.94100200 473.93399000 0.16109000 0.18582501 -0.96928799 1.905766e-42
-8.93021010 79.15709700 473.83801000 0.17472699 0.17828700 -0.96834099 1.905766e-42
-7.14753010 79.11519600 474.08401000 0.17922001 0.16684701 -0.96955800 1.905766e-42
-5.38411000 78.96759800 474.41299000 0.18121400 0.15739600 -0.97076702 1.905766e-42
-3.70520000 78.37229900 474.67200000 0.18469700 0.15312900 -0.97079301 1.905766e-42
-1.95799010 78.29820300 475.09799000 0.18508101 0.14561000 -0.97187603 1.905766e-42
-0.21301100 78.18849900 475.52600000 0.18529600 0.13952100 -0.97272801 1.905766e-42
1.45573000 77.52880100 475.66800000 0.18683100 0.13986100 -0.97238499 1.905766e-42
3.23086000 77.54540300 475.96600000 0.18599500 0.13503300 -0.97322798 1.905766e-42
4.99607990 77.55010200 476.31799000 0.17735800 0.13139400 -0.97533602 1.905766e-42
6.75773000 77.30999800 476.59900000 0.16143200 0.13106400 -0.97814202 1.905766e-42
8.51727010 77.00229600 476.82101000 0.14575601 0.13217200 -0.98045200 1.905766e-42
10.29140000 76.78389700 477.03201000 0.12998299 0.13311900 -0.98253900 1.905766e-42
12.07690000 76.76619700 477.26001000 0.11421300 0.13279501 -0.98454100 1.905766e-42
13.85640000 76.60749800 477.47900000 0.09869890 0.13423701 -0.98602200 1.905766e-42
15.61280000 76.23169700 477.59698000 0.08351400 0.13800900 -0.98690403 1.905766e-42
17.38880000 75.93910200 477.61301000 0.06835990 0.14136900 -0.98759401 1.905766e-42
19.18730000 75.96050300 477.68301000 0.06398810 0.14196400 -0.98780102 1.905766e-42
20.96910100 75.74189800 477.81500000 0.06083310 0.14434201 -0.98765600 1.905766e-42
22.66720000 75.14740000 477.76199000 0.05760850 0.14956900 -0.98707199 1.905766e-42
24.46299900 75.03150200 477.80600000 0.05433490 0.15104499 -0.98703301 1.905766e-42
26.25440000 74.99990100 477.97800000 0.05102290 0.15179101 -0.98709500 1.905766e-42
28.03780000 74.88430000 478.19299000 0.04761720 0.15307400 -0.98706698 1.905766e-42
29.75270100 74.34520000 478.10101000 0.04411500 0.15730400 -0.98656398 1.905766e-42
31.55170100 74.32510400 478.16000000 0.03954210 0.15804900 -0.98663902 1.905766e-42
33.35150100 74.30229900 478.17300000 0.03010130 0.15942700 -0.98675102 1.905766e-42
35.14270000 74.19460300 478.31500000 0.02007690 0.16177800 -0.98662299 1.905766e-42
36.80939900 73.55580100 478.08200000 0.00946870 0.16759600 -0.98580998 1.905766e-42
38.60520200 73.65350300 478.15601000 -0.00141882 0.16962600 -0.98550802 1.905766e-42
40.30569800 74.23179600 478.27399000 -0.01114820 0.16978000 -0.98541898 1.905766e-42
42.10369900 74.27500200 478.20001000 -0.02283090 0.17323799 -0.98461503 1.905766e-42
43.90150100 74.26509900 478.11301000 -0.03503130 0.17715700 -0.98355901 1.905766e-42
45.55609900 73.57759900 477.94000000 -0.04262590 0.18292300 -0.98220301 1.905766e-42
47.34629800 73.49770400 477.77100000 -0.04794930 0.18667699 -0.98124999 1.905766e-42
48.98619800 72.79070300 477.54501000 -0.05410820 0.19119400 -0.98005998 1.905766e-42
50.47629900 71.80560300 477.32401000 -0.06022810 0.19531500 -0.97889000 1.905766e-42
51.71720100 70.51969900 477.10699000 -0.06580120 0.19893800 -0.97780102 1.905766e-42
53.09960200 69.42030300 476.76099000 -0.07160620 0.20179600 -0.97680598 1.905766e-42
54.50999800 68.41529800 476.26999000 -0.07760310 0.20393901 -0.97590297 1.905766e-42
56.19599900 67.86650100 475.95999000 -0.08479400 0.20512700 -0.97505498 1.905766e-42
57.76559800 67.02809900 475.68900000 -0.08685370 0.20683700 -0.97451299 1.905766e-42
59.38040200 66.26090200 475.47900000 -0.08718350 0.20915399 -0.97398800 1.905766e-42
60.94599900 65.39820100 475.26801000 -0.08896710 0.21198800 -0.97321397 1.905766e-42
62.55690000 64.62629700 475.04599000 -0.09205520 0.21601900 -0.97204000 1.905766e-42
64.13490300 63.82830000 474.70999000 -0.09716590 0.22257701 -0.97006100 1.905766e-42
65.63569600 62.92010100 474.30600000 -0.10500100 0.23910700 -0.96529901 1.905766e-42
67.17070000 62.09870100 473.84900000 -0.11392300 0.25494599 -0.96022099 1.905766e-42
68.23220100 60.82140000 473.15500000 -0.12521499 0.27102700 -0.95439303 1.905766e-42
69.67130300 59.81919900 472.75000000 -0.13603500 0.28492999 -0.94884598 1.905766e-42
70.03810100 58.11209900 472.31201000 -0.14499500 0.29686099 -0.94384903 1.905766e-42
70.07219700 56.36370100 471.88599000 -0.15052900 0.30788401 -0.93944001 1.905766e-42
69.20490300 54.84260200 471.46899000 -0.14989300 0.31666100 -0.93662101 1.905766e-42
68.42430100 53.28400000 471.01999000 -0.14827700 0.32728499 -0.93321902 1.905766e-42
67.43699600 51.85020100 470.56201000 -0.14439499 0.33815399 -0.92994702 1.905766e-42
66.79789700 50.25560000 470.02499000 -0.14100300 0.35123801 -0.92560798 1.905766e-42
66.24469800 48.62760200 469.49200000 -0.13681300 0.36503401 -0.92088699 1.905766e-42
65.52680200 47.09019900 468.89099000 -0.13145600 0.38038799 -0.91543698 1.905766e-42
65.19159700 45.44599900 468.23999000 -0.12806299 0.39643201 -0.90908802 1.905766e-42
64.50440200 43.91510000 467.58899000 -0.12228500 0.41176599 -0.90304703 1.905766e-42
64.97180200 42.24150100 467.11899000 -0.12426700 0.42638600 -0.89596498 1.905766e-42
64.29820300 40.81760000 466.24799000 -0.11842600 0.44148800 -0.88941699 1.905766e-42
64.32289900 39.15219900 465.56500000 -0.11745200 0.45711401 -0.88161898 1.905766e-42
63.69839900 37.72729900 464.66000000 -0.11114900 0.47237599 -0.87436098 1.905766e-42
63.76649900 36.11119800 463.87100000 -0.11049600 0.48795301 -0.86584800 1.905766e-42
63.82300200 34.49800100 463.07401000 -0.10970400 0.50351000 -0.85699600 1.905766e-42
63.58649800 32.97740200 462.14001000 -0.10604500 0.51928598 -0.84799600 1.905766e-42
63.86340000 31.42520000 461.27200000 -0.10724100 0.53368801 -0.83885401 1.905766e-42
63.94680000 29.87960100 460.35300000 -0.10652100 0.54730898 -0.83012402 1.905766e-42
63.82379900 28.43160100 459.29099000 -0.10391800 0.56096101 -0.82129401 1.905766e-42
63.66960100 26.97360000 458.24701000 -0.10071600 0.57448900 -0.81229198 1.905766e-42
63.53229900 25.49939900 457.22299000 -0.09723810 0.58789003 -0.80307603 1.905766e-42
63.74800100 24.09240000 456.12100000 -0.09873780 0.60051000 -0.79349703 1.905766e-42
63.74100100 22.65250000 455.04099000 -0.09668360 0.61345202 -0.78379202 1.905766e-42
63.93410100 21.27020100 453.90500000 -0.09800610 0.62575501 -0.77383798 1.905766e-42
63.73830000 19.88340000 452.77399000 -0.09139660 0.63881201 -0.76391500 1.905766e-42
64.68389900 18.62369900 451.90302000 -0.10890800 0.64708000 -0.75460398 1.905766e-42
64.71209700 17.33499900 450.64600000 -0.10877900 0.66295201 -0.74071699 1.905766e-42
64.43650100 16.14510000 449.32401000 -0.10188600 0.68109500 -0.72507203 1.905766e-42
64.65480000 14.85500000 448.08801000 -0.10805900 0.69801301 -0.70788503 1.905766e-42
64.97609700 13.60260000 446.83600000 -0.11884100 0.71409899 -0.68988401 1.905766e-42
65.00830100 12.39900000 445.49799000 -0.12257300 0.73034298 -0.67199302 1.905766e-42
64.83239700 11.22260000 444.14700000 -0.12003400 0.74621302 -0.65479600 1.905766e-42
65.38439900 10.16260000 442.80099000 -0.14365099 0.75931001 -0.63467598 1.905766e-42
65.63639800 9.11962990 441.35501000 -0.15894800 0.77263999 -0.61462402 1.905766e-42
65.79630300 8.07283970 439.89999000 -0.17242201 0.78526300 -0.59467000 1.905766e-42
66.27169800 7.13054990 438.44199000 -0.19804800 0.79599899 -0.57198203 1.905766e-42
66.75219700 6.20737980 436.97299000 -0.22376300 0.80858499 -0.54416901 1.905766e-42
67.18250300 5.29779010 435.48099000 -0.24677600 0.81993699 -0.51653099 1.905766e-42
67.86570000 4.57553010 433.98001000 -0.27530101 0.82841599 -0.48778600 1.905766e-42
68.13549800 3.92242000 432.32501000 -0.29313999 0.83754700 -0.46106899 1.905766e-42
69.01860000 3.27323010 430.89700000 -0.32005799 0.84268099 -0.43295601 1.905766e-42
69.52870200 2.72867990 429.25900000 -0.33863401 0.84877199 -0.40609601 1.905766e-42
69.62570200 2.16435000 427.55200000 -0.34983400 0.85555297 -0.38163400 1.905766e-42
70.70950300 1.89978000 426.14001000 -0.37084699 0.85758698 -0.35639501 1.905766e-42
71.49109600 1.57171000 424.55200000 -0.38541099 0.86104602 -0.33175001 1.905766e-42
71.78420300 1.22492000 422.81000000 -0.39458001 0.86562598 -0.30821800 1.905766e-42
72.59010300 0.85547298 421.24301000 -0.40516499 0.86699402 -0.29010901 1.905766e-42
72.88990000 0.56717998 419.49200000 -0.41297001 0.86781400 -0.27632201 1.905766e-42
73.56829800 0.22123100 417.86099000 -0.42030299 0.86870801 -0.26208901 1.905766e-42
73.48660300 -0.26118699 416.12900000 -0.42562199 0.86983901 -0.24945100 1.905766e-42
74.41729700 -0.40400800 414.59500000 -0.43109101 0.87107098 -0.23536500 1.905766e-42
75.14589700 -0.68179601 412.97299000 -0.43575701 0.87246501 -0.22118200 1.905766e-42
75.57949800 -0.73951501 411.22699000 -0.44016600 0.87378401 -0.20677400 1.905766e-42
76.19439700 -0.77488101 409.53500000 -0.44426301 0.87508202 -0.19199701 1.905766e-42
77.29499800 -0.51165998 408.13501000 -0.44693401 0.87671697 -0.17781200 1.905766e-42
77.92489600 -0.40013301 406.45300000 -0.45120099 0.87765199 -0.16169401 1.905766e-42
78.79750100 -0.27377501 404.88400000 -0.45553899 0.87839901 -0.14456700 1.905766e-42
79.80670200 -0.06798440 403.40701000 -0.46019301 0.87884599 -0.12590900 1.905766e-42
80.75039700 0.14585100 401.89001000 -0.46654600 0.87756598 -0.11051000 1.905766e-42
81.15730300 0.48714700 400.17001000 -0.47423300 0.87508899 -0.09655370 1.905766e-42
82.25409700 0.90695298 398.80600000 -0.48004100 0.87345898 -0.08142210 1.905766e-42
82.64090000 1.16700990 397.06699000 -0.48835999 0.87008202 -0.06679020 1.905766e-42
83.53060200 1.62735000 395.57199000 -0.49696001 0.86637998 -0.04915180 1.905766e-42
84.22409800 1.85009000 393.92499000 -0.50685501 0.86135203 -0.03421970 1.905766e-42
83.47129800 1.46749000 392.33600000 -0.51787901 0.85527098 -0.01766840 1.905766e-42
82.58499900 0.46936801 391.12799000 -0.52737701 0.84962302 -0.00380255 1.905766e-42
81.01120000 -0.37607801 391.34799000 -0.50980097 0.85985100 -0.02755680 1.905766e-42
79.50240300 -1.24300000 391.80899000 -0.49824399 0.86609501 -0.04040120 1.905766e-42
78.21250200 -2.31399010 391.15399000 -0.49173799 0.86983401 -0.03978550 1.905766e-42
76.58000200 -3.07148000 391.11899000 -0.48257899 0.87483799 -0.04213820 1.905766e-42
74.95929700 -3.84946990 391.03000000 -0.47307000 0.88002199 -0.04202120 1.905766e-42
73.63790100 -4.84940000 390.32700000 -0.46314299 0.88556302 -0.03572880 1.905766e-42
71.92189800 -5.39195010 390.35599000 -0.45150000 0.89165097 -0.03325640 1.905766e-42
70.59880100 -6.27830980 389.51700000 -0.43779701 0.89878201 -0.02289530 1.905766e-42
68.90300000 -6.85098980 389.32700000 -0.41580299 0.90930998 -0.01624060 1.905766e-42
67.36689800 -7.40562010 388.57001000 -0.39617199 0.91812199 -0.01000390 1.905766e-42
65.84860200 -7.96517990 387.78201000 -0.38089499 0.92457497 -0.00899073 1.905766e-42
64.93699600 -8.65740970 386.39301000 -0.37760901 0.92592603 -0.00852889 1.905766e-42
63.17810100 -9.03971960 386.37399000 -0.36411899 0.93109602 -0.02185110 1.905766e-42
61.58599900 -9.78810980 386.75400000 -0.34641799 0.93722999 -0.03993720 1.905766e-42
60.31179800 -10.42310000 387.85599000 -0.32105899 0.94530702 -0.05758800 1.905766e-42
59.03120000 -10.74740000 389.07901000 -0.29089701 0.95376199 -0.07560680 1.905766e-42
57.42440000 -11.32290000 389.64999000 -0.24643099 0.96432000 -0.09674400 1.905766e-42
55.93769800 -11.53520000 390.64301000 -0.18938901 0.97541201 -0.11270800 1.905766e-42
54.26599900 -11.76590000 391.26901000 -0.13015400 0.98322201 -0.12780499 1.905766e-42
53.34050000 -11.37900000 392.76401000 -0.09179860 0.98603100 -0.13898200 1.905766e-42
51.54100000 -11.34160000 392.78400000 -0.03651410 0.98813701 -0.14917099 1.905766e-42
49.74110000 -11.33880000 392.79700000 0.01722510 0.98766202 -0.15565100 1.905766e-42
47.94800200 -11.19540000 392.86401000 0.06824950 0.98492998 -0.15891901 1.905766e-42
46.15639900 -11.17190000 393.03601000 0.11515100 0.98048300 -0.15935400 1.905766e-42
44.50939900 -10.63760000 393.52802000 0.15499100 0.97501498 -0.15913600 1.905766e-42
42.72829800 -10.37900000 393.50500000 0.17439300 0.97187197 -0.15827800 1.905766e-42
40.96680100 -10.01270000 393.56100000 0.17604700 0.97125298 -0.16023500 1.905766e-42
39.17160000 -9.88237000 393.57501000 0.17677300 0.97105002 -0.16066501 1.905766e-42
37.37509900 -9.82608990 393.47900000 0.17675400 0.97122002 -0.15965800 1.905766e-42
35.61909900 -9.51266960 393.23700000 0.17614000 0.97168899 -0.15746200 1.905766e-42
33.90480000 -9.02954960 393.49799000 0.17416900 0.97221202 -0.15642700 1.905766e-42
32.14370000 -8.77093030 393.23099000 0.17221400 0.97311503 -0.15293300 1.905766e-42
30.43989900 -8.31073000 393.58499000 0.16864900 0.97393000 -0.15171300 1.905766e-42
28.66799900 -8.00026040 393.52100000 0.17392100 0.97370899 -0.14711399 1.905766e-42
27.08390000 -7.91695980 392.67001000 0.18647400 0.97266400 -0.13839500 1.905766e-42
25.35580100 -7.81980990 392.17599000 0.19879299 0.97122699 -0.13114400 1.905766e-42
23.63920000 -7.34631010 391.91299000 0.21074501 0.96947902 -0.12528899 1.905766e-42
21.91320000 -6.86045980 391.75601000 0.22252300 0.96749997 -0.12011300 1.905766e-42
20.27020100 -6.45903020 391.14001000 0.23477900 0.96546602 -0.11293600 1.905766e-42
18.58009900 -5.85889010 390.98700000 0.24631600 0.96315598 -0.10797700 1.905766e-42
16.92900100 -5.51880980 390.35599000 0.25830701 0.96079499 -0.10074800 1.905766e-42
15.31720000 -5.51777980 389.55499000 0.27283201 0.95759201 -0.09262810 1.905766e-42
13.59000000 -5.01757000 389.47299000 0.28802299 0.95359302 -0.08776880 1.905766e-42
12.10960000 -4.56091980 388.55701000 0.30343401 0.94945902 -0.08034710 1.905766e-42
10.49620000 -4.04485990 387.94800000 0.31953901 0.94465399 -0.07431950 1.905766e-42
8.84513000 -3.33235000 387.86801000 0.33555901 0.93940300 -0.07015800 1.905766e-42
7.21445990 -2.99528000 387.18399000 0.35171899 0.93388897 -0.06438570 1.905766e-42
5.50878000 -2.43673990 387.04800000 0.36794999 0.92791098 -0.05994800 1.905766e-42
3.92171000 -1.61383000 386.83801000 0.38212401 0.92243803 -0.05558420 1.905766e-42
2.33577990 -1.12725000 386.13901000 0.38806301 0.92016500 -0.05199040 1.905766e-42
0.69437099 -0.67869800 385.55200000 0.39414400 0.91779399 -0.04802010 1.905766e-42
-0.96674901 -0.00213030 385.40100000 0.39960301 0.91565698 -0.04347440 1.905766e-42
-2.57222010 0.78862399 385.20801000 0.40484300 0.91360700 -0.03774960 1.905766e-42
-4.04724980 1.39523010 384.37399000 0.41176999 0.91073799 -0.03165160 1.905766e-42
-5.55560020 2.16860010 383.76801000 0.41848701 0.90789503 -0.02439160 1.905766e-42
-7.06653020 2.88717010 383.10400000 0.42578399 0.90467799 -0.01629030 1.905766e-42
-8.64747050 3.64568000 382.69699000 0.41890901 0.90794498 -0.01231190 1.905766e-42
-10.28830000 4.32153990 382.39600000 0.41241401 0.91094202 -0.01001070 1.905766e-42
-11.80450000 5.29176000 382.39801000 0.40716499 0.91332299 -0.00764947 1.905766e-42
-13.45850000 6.00052980 382.44101000 0.40373099 0.91485500 -0.00646560 1.905766e-42
-15.05750000 6.48480990 383.11099000 0.40295199 0.91522002 -0.00161463 1.905766e-42
-16.46439900 7.17948010 383.99301000 0.40593201 0.91389102 0.00469168 1.905766e-42
-18.05489900 8.02009010 384.05399000 0.41266999 0.91087800 -0.00225147 1.905766e-42
-19.61759900 8.73031040 384.59601000 0.42763999 0.90375799 -0.01857370 1.905766e-42
-20.89380100 9.40030960 385.67401000 0.44612399 0.89441198 -0.03163660 1.905766e-42
