# .PCD v0.7 - Point Cloud Data file format
# 3 226 0
# 1 71 0
# 72 155 0
# 156 226 0
VERSION 0.7
FIELDS x y z normal_x normal_y normal_z curvature
SIZE 4 4 4 4 4 4 4
TYPE F F F F F F F
COUNT 1 1 1 1 1 1 1
WIDTH 226
HEIGHT 1
VIEWPOINT 0 0 0 1 0 0 0
POINTS 226
DATA ascii
-32.92910000 -3.18302010 474.38800000 -0.55140901 -0.75599200 0.35273701 1.905766e-42
-31.47590100 -4.24514010 474.37399000 -0.54236400 -0.76236099 0.35305399 1.905766e-42
-29.96390000 -5.22166010 474.38199000 -0.53003103 -0.77047598 0.35416800 1.905766e-42
-28.45439900 -6.20218990 474.37500000 -0.51490098 -0.78015000 0.35530800 1.905766e-42
-26.89380100 -7.09533020 474.29199000 -0.49739999 -0.79102701 0.35618699 1.905766e-42
-25.43170000 -8.14105030 474.38501000 -0.47771600 -0.80260700 0.35722500 1.905766e-42
-23.92930000 -9.13241960 474.39099000 -0.45642099 -0.81478399 0.35750201 1.905766e-42
-22.35670100 -10.00740000 474.35300000 -0.43382800 -0.82717901 0.35716599 1.905766e-42
-20.74620100 -10.80410000 474.24600000 -0.41043499 -0.83955997 0.35592300 1.905766e-42
-19.17400000 -11.36840000 473.57501000 -0.38809800 -0.85159600 0.35236999 1.905766e-42
-17.60680000 -12.25380000 473.56900000 -0.36424801 -0.86325997 0.34943601 1.905766e-42
-15.99950000 -13.06250000 473.51700000 -0.34230199 -0.87328500 0.34670201 1.905766e-42
-14.34200000 -13.75700000 473.41501000 -0.32471001 -0.88011903 0.34634301 1.905766e-42
-12.83990000 -14.40610000 472.66501000 -0.30907401 -0.88661498 0.34407499 1.905766e-42
-11.22750000 -15.18790000 472.49600000 -0.29317701 -0.89320099 0.34093899 1.905766e-42
-9.72111030 -15.84020000 471.75699000 -0.27792299 -0.89976501 0.33642501 1.905766e-42
-8.15338040 -16.45380000 471.12000000 -0.26257300 -0.90644002 0.33079100 1.905766e-42
-6.55662010 -17.25960000 470.91699000 -0.24836800 -0.91305298 0.32349199 1.905766e-42
-5.09103010 -17.90860000 470.09799000 -0.23292500 -0.91975600 0.31590301 1.905766e-42
-3.74810000 -18.49860000 469.05499000 -0.21531799 -0.92602700 0.31001899 1.905766e-42
-2.27588010 -19.30950000 468.41101000 -0.19426700 -0.93212098 0.30563101 1.905766e-42
-0.62707901 -19.80960100 467.89001000 -0.17092800 -0.93799299 0.30158201 1.905766e-42
1.06096010 -20.12439900 467.35001000 -0.15061200 -0.94156599 0.30127800 1.905766e-42
2.84259010 -20.03840100 467.59201000 -0.12989999 -0.94435000 0.30220601 1.905766e-42
4.42232990 -19.98710100 468.45300000 -0.11196000 -0.94594902 0.30437699 1.905766e-42
5.94254020 -19.93350000 469.41501000 -0.09538610 -0.94683403 0.30725801 1.905766e-42
7.26914980 -19.91960000 470.63199000 -0.08165300 -0.94664401 0.31176600 1.905766e-42
8.97416970 -19.82910000 471.20200000 -0.06429310 -0.94739801 0.31353500 1.905766e-42
10.75940000 -19.74710100 471.41699000 -0.04625960 -0.94863099 0.31298399 1.905766e-42
12.46460000 -19.70080000 471.99100000 -0.02797740 -0.94853199 0.31544399 1.905766e-42
14.25670000 -19.53160100 471.99301000 -0.00702584 -0.94913501 0.31479001 1.905766e-42
16.05400100 -19.43420000 472.00500000 0.01435140 -0.94948500 0.31348401 1.905766e-42
17.84890000 -19.30209900 472.03000000 0.03573250 -0.94946498 0.31183201 1.905766e-42
19.64130000 -19.17370000 472.13501000 0.05672820 -0.94894397 0.31030300 1.905766e-42
20.83090000 -19.08320000 472.08401000 0.07058830 -0.94869202 0.30822101 1.905766e-42
22.55660100 -19.14819900 472.59100000 0.08904540 -0.94692302 0.30888000 1.905766e-42
24.34590000 -18.97190100 472.67599000 0.10814200 -0.94564402 0.30669501 1.905766e-42
26.13130000 -18.78210100 472.54700000 0.12656800 -0.94463199 0.30274001 1.905766e-42
27.74510000 -18.72530000 471.75201000 0.14547400 -0.94445598 0.29468599 1.905766e-42
29.35530100 -18.52430000 470.97299000 0.16546600 -0.94320703 0.28806499 1.905766e-42
31.01820000 -18.39230000 470.29700000 0.18513000 -0.94110203 0.28293699 1.905766e-42
32.79970200 -18.36100000 470.04099000 0.20549899 -0.93714702 0.28200400 1.905766e-42
34.38930100 -18.20579900 469.21100000 0.22411200 -0.93462002 0.27615100 1.905766e-42
35.72029900 -18.12630100 468.00201000 0.23996700 -0.93333900 0.26701000 1.905766e-42
37.17070000 -17.94650100 466.95099000 0.25781500 -0.93080699 0.25909200 1.905766e-42
38.67829900 -17.78750000 465.98099000 0.27634299 -0.92759299 0.25140801 1.905766e-42
40.23930000 -17.61100000 465.10199000 0.29533699 -0.92370898 0.24400200 1.905766e-42
41.54919800 -17.34350000 463.89700000 0.31212801 -0.92062002 0.23459600 1.905766e-42
43.27150000 -16.99329900 463.50800000 0.33193401 -0.91492403 0.22963899 1.905766e-42
44.48580200 -16.59440000 462.24100000 0.34774399 -0.91151202 0.21959101 1.905766e-42
46.18809900 -16.29810000 461.73599000 0.36593500 -0.90591699 0.21308701 1.905766e-42
47.60110100 -15.97150000 460.67001000 0.38199201 -0.90150899 0.20338300 1.905766e-42
49.25750000 -15.42710000 460.22299000 0.39859399 -0.89574999 0.19686200 1.905766e-42
50.48429900 -14.99890000 458.97699000 0.41211799 -0.89145797 0.18831199 1.905766e-42
52.01960000 -14.44530000 458.21799000 0.43052801 -0.88368398 0.18370900 1.905766e-42
53.56269800 -13.87270000 457.48901000 0.44968799 -0.87505299 0.17906500 1.905766e-42
55.18880100 -13.20390000 457.10400000 0.46989501 -0.86519802 0.17501400 1.905766e-42
56.70130200 -12.49250000 456.43600000 0.48975599 -0.85516000 0.16982700 1.905766e-42
58.16030100 -11.78470000 455.65500000 0.50932002 -0.84476799 0.16419201 1.905766e-42
59.57989900 -11.01620000 454.85800000 0.52877599 -0.83385599 0.15836801 1.905766e-42
61.03150200 -10.16550000 454.21899000 0.54833001 -0.82225800 0.15240100 1.905766e-42
62.39210100 -9.19744970 453.54700000 0.56738800 -0.81037700 0.14614999 1.905766e-42
63.90930200 -8.32359030 453.12900000 0.58601099 -0.79816401 0.13973100 1.905766e-42
65.20770300 -7.55160000 452.14999000 0.60327601 -0.78635502 0.13305600 1.905766e-42
66.32990300 -6.79548980 450.96301000 0.61928099 -0.77486402 0.12679200 1.905766e-42
67.71029700 -5.88893990 450.24701000 0.63586998 -0.76245499 0.11971400 1.905766e-42
68.95520000 -4.96110010 449.33600000 0.65007102 -0.75161701 0.11171600 1.905766e-42
70.28980300 -3.95274000 448.67099000 0.66246498 -0.74202597 0.10265400 1.905766e-42
71.38230100 -3.07144000 447.54401000 0.67399400 -0.73263401 0.09476290 1.905766e-42
72.57309700 -2.09886000 446.60800000 0.68398201 -0.72442597 0.08588090 1.905766e-42
73.68060300 -1.03572000 445.66901000 0.69114000 -0.71856898 0.07735870 1.905766e-42
74.88610100 0.14985700 446.28601000 0.69108897 -0.71942401 0.06946010 1.905766e-42
75.03630100 0.57592601 448.02899000 0.68713498 -0.72302097 0.07131920 1.905766e-42
75.02700000 0.51178402 449.82700000 0.68273002 -0.72634900 0.07935040 1.905766e-42
75.04879800 0.68700701 451.61899000 0.67991501 -0.72783500 0.08928690 1.905766e-42
74.88230100 0.79299402 453.40799000 0.67777097 -0.72822899 0.10153800 1.905766e-42
74.71630100 0.96683902 455.19199000 0.67655301 -0.72730500 0.11534400 1.905766e-42
74.75980400 1.46018000 456.92200000 0.67740601 -0.72395802 0.13040701 1.905766e-42
74.49490400 1.52320000 458.70200000 0.67582202 -0.72250700 0.14576501 1.905766e-42
74.06120300 1.44512000 460.44699000 0.67283899 -0.72206300 0.16097800 1.905766e-42
74.16330000 2.00788000 462.15302000 0.67243099 -0.71890700 0.17609300 1.905766e-42
73.83490000 2.02470990 463.92300000 0.66901302 -0.71800297 0.19207400 1.905766e-42
73.76499900 2.34407000 465.69299000 0.66678798 -0.71552801 0.20835800 1.905766e-42
73.53340100 2.68811990 467.44501000 0.66361499 -0.71335202 0.22526500 1.905766e-42
73.31870300 3.19522000 469.15900000 0.66059101 -0.71046501 0.24260800 1.905766e-42
72.79409800 3.21167990 470.88000000 0.65351301 -0.71042198 0.26119199 1.905766e-42
72.73290300 3.83980990 472.56601000 0.65118802 -0.70595402 0.27853799 1.905766e-42
72.13169900 3.96365000 474.25800000 0.64438301 -0.70505500 0.29608801 1.905766e-42
71.95860300 4.58261010 475.93900000 0.64184201 -0.69995099 0.31321999 1.905766e-42
71.78140300 5.29682020 477.58200000 0.63982302 -0.69407201 0.32998699 1.905766e-42
71.25029800 5.50540020 479.28900000 0.63345999 -0.69175798 0.34669799 1.905766e-42
70.83850100 6.11488010 480.93201000 0.62949902 -0.68711197 0.36277801 1.905766e-42
70.09140000 6.20990990 482.56699000 0.62101001 -0.68667001 0.37792999 1.905766e-42
69.84890000 7.01945020 484.15601000 0.61881399 -0.68075198 0.39197701 1.905766e-42
69.27670300 7.31317000 485.83801000 0.61167002 -0.67915499 0.40571901 1.905766e-42
68.52439900 7.55340000 487.45499000 0.60283899 -0.67924100 0.41858900 1.905766e-42
68.22660100 8.36968990 489.03101000 0.59698099 -0.67851102 0.42806101 1.905766e-42
67.57740000 8.72084050 490.67300000 0.58498502 -0.68391597 0.43594900 1.905766e-42
66.96469900 9.25496960 492.27899000 0.57320899 -0.68949503 0.44275200 1.905766e-42
66.58869900 10.09680000 493.82501000 0.56166500 -0.69581902 0.44762501 1.905766e-42
66.00730100 10.70210000 495.41699000 0.55078602 -0.69989502 0.45473200 1.905766e-42
65.36229700 11.28150000 496.99500000 0.54023403 -0.70319003 0.46224499 1.905766e-42
64.55460400 11.55760000 498.57999000 0.52990597 -0.70522398 0.47101799 1.905766e-42
63.89400100 12.16670000 500.13901000 0.51958603 -0.70806098 0.47820401 1.905766e-42
63.25339900 12.71820000 501.72800000 0.50940400 -0.71068299 0.48521900 1.905766e-42
62.52439900 13.27460000 503.27701000 0.49920899 -0.71312499 0.49218300 1.905766e-42
62.16080100 14.17330000 504.79401000 0.49059999 -0.71606201 0.49655500 1.905766e-42
61.13420100 14.41410000 506.25299000 0.47925499 -0.71769798 0.50519699 1.905766e-42
60.21989800 14.85890000 507.73801000 0.46786901 -0.71926302 0.51357502 1.905766e-42
59.91529800 15.84220000 509.21500000 0.45980600 -0.72070801 0.51880503 1.905766e-42
59.00009900 16.20690000 510.72101000 0.44856900 -0.72173297 0.52714998 1.905766e-42
58.06309900 16.68380000 512.18201000 0.43738100 -0.72269797 0.53516901 1.905766e-42
57.38330100 17.41150100 513.68201000 0.42768201 -0.72345603 0.54194099 1.905766e-42
56.55860100 18.02750000 515.15802000 0.41721699 -0.72423601 0.54900998 1.905766e-42
55.94129900 18.78490100 516.66998000 0.40810999 -0.72483099 0.55503702 1.905766e-42
54.95520000 19.33820000 518.07001000 0.39683399 -0.72584498 0.56184697 1.905766e-42
53.85950100 19.75029900 519.43799000 0.38454601 -0.72719997 0.56859899 1.905766e-42
53.17549900 20.54630100 520.90002000 0.37469199 -0.72787702 0.57428300 1.905766e-42
52.65280200 21.54369900 522.30402000 0.36624199 -0.72825903 0.57922900 1.905766e-42
51.65409900 22.22380100 523.63898000 0.35354501 -0.72939801 0.58564800 1.905766e-42
50.40140200 22.37920000 524.92200000 0.33752400 -0.73116302 0.59285599 1.905766e-42
49.62160100 23.21820100 526.31000000 0.32571000 -0.73235601 0.59797001 1.905766e-42
48.66299800 23.92450000 527.65997000 0.31165200 -0.73402101 0.60339499 1.905766e-42
47.68890000 24.70620000 528.95599000 0.29711300 -0.73593402 0.60837901 1.905766e-42
46.96519900 25.74720000 530.23401000 0.28518200 -0.73788899 0.61171103 1.905766e-42
45.94020100 26.36860100 531.57703000 0.26839000 -0.74052399 0.61610901 1.905766e-42
44.91270100 27.11190000 532.85400000 0.25113001 -0.74345499 0.61984599 1.905766e-42
43.98460000 27.97290000 534.13397000 0.23424700 -0.74649203 0.62279898 1.905766e-42
42.78720100 28.57600000 535.33502000 0.21312800 -0.74919099 0.62712801 1.905766e-42
42.01770000 29.64909900 536.55798000 0.19766200 -0.75181597 0.62904799 1.905766e-42
40.83530000 30.23110000 537.78400000 0.17566299 -0.75386602 0.63310999 1.905766e-42
39.78609800 31.02490000 539.01300000 0.15524501 -0.75564098 0.63632202 1.905766e-42
38.51910000 31.68350000 540.10901000 0.13179800 -0.75662702 0.64042503 1.905766e-42
37.62609900 32.63280100 541.34998000 0.11310200 -0.75759900 0.64284700 1.905766e-42
36.55279900 33.49100100 542.51300000 0.09184840 -0.75776100 0.64603603 1.905766e-42
35.25849900 34.12690000 543.59003000 0.06774480 -0.75689298 0.65001899 1.905766e-42
33.82980000 34.73749900 544.49902000 0.04232610 -0.75511402 0.65422499 1.905766e-42
33.34800000 35.96870000 545.71997000 0.02888570 -0.75421000 0.65599698 1.905766e-42
32.08910000 36.76929900 546.72699000 0.00364445 -0.75111699 0.66015899 1.905766e-42
30.61669900 37.20270200 547.66803000 -0.02472350 -0.74670303 0.66469800 1.905766e-42
29.64900000 38.28450000 548.73199000 -0.04754660 -0.74276102 0.66786599 1.905766e-42
28.59339900 39.38510100 549.68903000 -0.07216480 -0.73763502 0.67133301 1.905766e-42
28.02269900 40.70920200 550.76599000 -0.09030820 -0.73331499 0.67386502 1.905766e-42
26.81240100 41.55569800 551.79498000 -0.11714800 -0.72562802 0.67804199 1.905766e-42
25.94440100 42.73630100 552.84003000 -0.13993999 -0.71784103 0.68199801 1.905766e-42
24.39760000 43.37710200 553.50098000 -0.16896001 -0.70677501 0.68696499 1.905766e-42
23.56730100 44.66659900 554.44299000 -0.19074900 -0.69640499 0.69183499 1.905766e-42
22.57399900 45.88840100 555.31500000 -0.21546701 -0.68383801 0.69709301 1.905766e-42
21.65519900 47.21749900 556.10901000 -0.23965199 -0.67236698 0.70034999 1.905766e-42
20.54750100 48.33969900 556.97699000 -0.26494899 -0.66122401 0.70184398 1.905766e-42
19.53039900 49.53620100 557.85699000 -0.28894499 -0.65189803 0.70109898 1.905766e-42
18.46929900 50.79579900 558.58301000 -0.31350899 -0.64384300 0.69798100 1.905766e-42
17.51840000 52.10929900 559.36401000 -0.33828899 -0.63918102 0.69065797 1.905766e-42
16.59890000 53.47549800 560.09100000 -0.37008300 -0.63373297 0.67927998 1.905766e-42
15.51150000 54.78089900 560.68500000 -0.41041100 -0.63487399 0.65459800 1.905766e-42
14.33580000 56.07560000 561.11200000 -0.42182401 -0.63740098 0.64481401 1.905766e-42
12.69750000 56.32149900 560.40802000 -0.42182401 -0.63740098 0.64481401 1.905766e-42
11.34790000 55.98270000 559.26599000 -0.43248701 -0.59055197 0.68132502 1.905766e-42
9.81151010 55.95780200 558.32800000 -0.44073400 -0.57094002 0.69266200 1.905766e-42
8.41516970 55.90720000 557.19299000 -0.45091799 -0.55805701 0.69659501 1.905766e-42
7.12669990 56.01570100 555.94098000 -0.46415499 -0.54757500 0.69621903 1.905766e-42
5.85047010 55.15639900 555.00702000 -0.47346100 -0.54142803 0.69476002 1.905766e-42
4.31309990 55.38309900 554.09900000 -0.49355400 -0.53074700 0.68899399 1.905766e-42
2.97949000 55.08900100 552.92603000 -0.50853503 -0.52134001 0.68527102 1.905766e-42
2.01869990 54.30180000 551.62299000 -0.51138800 -0.51372600 0.68888903 1.905766e-42
0.55122697 54.37820100 550.58398000 -0.52364898 -0.50022501 0.68961298 1.905766e-42
-0.79193097 54.30509900 549.38800000 -0.53352600 -0.48745701 0.69118398 1.905766e-42
-2.11575010 54.28920000 548.16803000 -0.54316801 -0.47442201 0.69274199 1.905766e-42
-3.41617990 53.81769900 547.01599000 -0.54882300 -0.46356899 0.69562697 1.905766e-42
-4.62360000 53.32160200 545.77698000 -0.55323797 -0.45343900 0.69880003 1.905766e-42
-5.79348990 52.70650100 544.55499000 -0.55616498 -0.44441399 0.70226598 1.905766e-42
-6.84353020 51.99919900 543.27600000 -0.55738997 -0.43667501 0.70613801 1.905766e-42
-8.24462990 52.08480100 542.14899000 -0.56567299 -0.42340800 0.70762998 1.905766e-42
-9.10830020 51.06700100 540.94098000 -0.56314600 -0.41875300 0.71239901 1.905766e-42
-10.53230000 51.14510000 539.84302000 -0.57059401 -0.40573400 0.71400499 1.905766e-42
-11.84450000 51.09009900 538.61200000 -0.57599598 -0.39400700 0.71623200 1.905766e-42
-13.12500000 50.58969900 537.45001000 -0.57790399 -0.38510999 0.71952599 1.905766e-42
-14.31670000 50.18170200 536.16498000 -0.57967502 -0.37645400 0.72267503 1.905766e-42
-15.48170000 49.48720200 534.98102000 -0.57942098 -0.37007600 0.72616500 1.905766e-42
-16.69039900 48.95760000 533.75702000 -0.58048999 -0.36372900 0.72851402 1.905766e-42
-17.92310000 48.50619900 532.52502000 -0.58182800 -0.35813800 0.73021501 1.905766e-42
-18.96190100 47.68000000 531.31000000 -0.58080101 -0.35676101 0.73170501 1.905766e-42
-20.26770000 47.44279900 530.09399000 -0.58305198 -0.35193300 0.73225200 1.905766e-42
-20.98180000 46.24280200 528.95801000 -0.58018303 -0.35591501 0.73260701 1.905766e-42
-21.89600000 45.27000000 527.75000000 -0.57907999 -0.35843900 0.73224801 1.905766e-42
-22.72090000 44.18019900 526.57898000 -0.57775402 -0.36240399 0.73134398 1.905766e-42
-23.37630100 42.95320100 525.43701000 -0.57472098 -0.36736000 0.73126101 1.905766e-42
-24.20929900 41.89390200 524.24298000 -0.57064998 -0.36998999 0.73312098 1.905766e-42
-24.85990000 40.64440200 523.12299000 -0.56623501 -0.37460601 0.73419899 1.905766e-42
-25.62210100 39.51160000 521.95001000 -0.56274801 -0.37852299 0.73487097 1.905766e-42
-26.56550000 38.54299900 520.76202000 -0.56038100 -0.38136500 0.73521000 1.905766e-42
-27.24790000 37.37379800 519.57599000 -0.55748302 -0.38634300 0.73481399 1.905766e-42
-27.34020000 35.79909900 518.70801000 -0.55310202 -0.39495301 0.73354697 1.905766e-42
-28.22620000 34.82310100 517.48297000 -0.55181098 -0.39874801 0.73246402 1.905766e-42
-29.09970100 33.80220000 516.28497000 -0.55156702 -0.40345699 0.73006600 1.905766e-42
-29.77960000 32.57270100 515.15997000 -0.55294901 -0.41057399 0.72503603 1.905766e-42
-29.71369900 31.01320100 514.26300000 -0.55135000 -0.42031601 0.72065699 1.905766e-42
-30.51569900 29.97820100 513.02802000 -0.55424601 -0.42650500 0.71477699 1.905766e-42
-30.87080000 28.58810000 511.94101000 -0.55501300 -0.43524501 0.70888799 1.905766e-42
-31.29800000 27.27430000 510.78699000 -0.55645502 -0.44386801 0.70238101 1.905766e-42
-31.86330000 26.06539900 509.57901000 -0.55856901 -0.45273501 0.69500500 1.905766e-42
-32.24490000 24.82049900 508.33701000 -0.55889601 -0.46507800 0.68654102 1.905766e-42
-32.23960100 23.31020000 507.35699000 -0.55638802 -0.48030701 0.67804003 1.905766e-42
-32.55490100 22.00540000 506.15799000 -0.55669302 -0.49412501 0.66778201 1.905766e-42
-32.85820000 20.72900000 504.92599000 -0.55771202 -0.50824100 0.65623802 1.905766e-42
-33.23659900 19.48819900 503.67801000 -0.55948102 -0.52207601 0.64375198 1.905766e-42
-33.38499800 18.21360000 502.41501000 -0.56027299 -0.53680801 0.63081801 1.905766e-42
-33.48609900 16.89670000 501.19299000 -0.56083298 -0.55165899 0.61736399 1.905766e-42
-33.65800100 15.60650000 499.94901000 -0.56209302 -0.56596398 0.60310602 1.905766e-42
-33.65800100 14.36650000 498.64401000 -0.56291300 -0.58022398 0.58861601 1.905766e-42
-34.13439900 13.44270000 497.17499000 -0.56777698 -0.59159797 0.57239997 1.905766e-42
-34.26089900 12.22320000 495.85699000 -0.56978297 -0.60453802 0.55667001 1.905766e-42
-34.50420000 11.20030000 494.39600000 -0.57352102 -0.61599600 0.54001999 1.905766e-42
-34.89189900 10.35050000 492.85699000 -0.57337999 -0.62546802 0.52917302 1.905766e-42
-34.97480000 9.22939970 491.45200000 -0.56998402 -0.63650203 0.51959997 1.905766e-42
-35.01990100 8.17712020 489.99200000 -0.56659502 -0.64836103 0.50852603 1.905766e-42
-34.81140100 6.85313990 488.79001000 -0.56243801 -0.66140997 0.49618599 1.905766e-42
-35.02389900 5.95977020 487.24200000 -0.56037498 -0.67262697 0.48327199 1.905766e-42
-35.08840200 4.99100020 485.72699000 -0.55832201 -0.68418700 0.46921700 1.905766e-42
-35.11640200 4.09080980 484.16800000 -0.55678302 -0.69535798 0.45438999 1.905766e-42
-34.88830200 2.87490010 482.86099000 -0.55483800 -0.70647597 0.43937200 1.905766e-42
-34.46410000 1.73591010 481.53299000 -0.55303502 -0.71687800 0.42454499 1.905766e-42
-34.66780100 0.94981098 479.92599000 -0.55355799 -0.72574002 0.40850300 1.905766e-42
-34.32930000 -0.08807460 478.49500000 -0.55306000 -0.73451000 0.39321601 1.905766e-42
-33.95320100 -1.12883000 477.07599000 -0.55284101 -0.74237102 0.37848601 1.905766e-42
-33.70980100 -2.05042000 475.54901000 -0.55357498 -0.74920398 0.36366001 1.905766e-42
