# .PCD v0.7 - Point Cloud Data file format
# 3 139 1
# 1 47 1
# 48 80 0
# 81 139 0
VERSION 0.7
FIELDS x y z normal_x normal_y normal_z curvature
SIZE 4 4 4 4 4 4 4
TYPE F F F F F F F
COUNT 1 1 1 1 1 1 1
WIDTH 139
HEIGHT 1
VIEWPOINT 0 0 0 1 0 0 0
POINTS 139
DATA ascii
-8.13702960 -52.07510000 390.67001000 0.89524800 -0.44522101 -0.01758490 1.905766e-42
-7.86733010 -51.88900000 388.89999000 0.89308399 -0.44975600 -0.01098090 1.905766e-42
-7.90260980 -51.72320200 387.10800000 0.89042902 -0.45475501 -0.01827790 1.905766e-42
-7.50003000 -50.93759900 385.54001000 0.89619899 -0.44261599 -0.03028680 1.905766e-42
-7.32689000 -50.46970000 383.81000000 0.89761001 -0.43773401 -0.05182420 1.905766e-42
-7.56024980 -50.33190200 382.03101000 0.89390600 -0.44132400 -0.07852220 1.905766e-42
-7.25387000 -49.60319900 380.41400000 0.89911997 -0.42686301 -0.09680560 1.905766e-42
-7.20313980 -49.12160100 378.67999000 0.90024501 -0.41902599 -0.11822300 1.905766e-42
-7.16889000 -48.57180000 376.96600000 0.90101200 -0.41058999 -0.13997801 1.905766e-42
-7.12603000 -47.93629800 375.28299000 0.90207499 -0.40059400 -0.16057600 1.905766e-42
-7.13876010 -47.26250100 373.61401000 0.90298098 -0.39060000 -0.17904100 1.905766e-42
-7.14001990 -46.43170200 372.01700000 0.90416902 -0.38100800 -0.19316299 1.905766e-42
-7.23357010 -45.75550100 370.35101000 0.90268803 -0.37539399 -0.21031600 1.905766e-42
-7.38373990 -45.07230000 368.69299000 0.90308702 -0.36671400 -0.22350401 1.905766e-42
-7.43800020 -44.25600100 367.08899000 0.90416902 -0.35427001 -0.23868600 1.905766e-42
-7.70617010 -43.67590000 365.40701000 0.90059203 -0.34909800 -0.25896800 1.905766e-42
-7.76123000 -42.75740100 363.85999000 0.90020603 -0.33591801 -0.27710801 1.905766e-42
-7.93910980 -41.87519800 362.30099000 0.89799303 -0.32551700 -0.29605299 1.905766e-42
-8.03715040 -40.83919900 360.83200000 0.89756298 -0.31215301 -0.31135401 1.905766e-42
-8.30661960 -39.99620100 359.26501000 0.89397502 -0.30472800 -0.32855800 1.905766e-42
-8.68692970 -39.24020000 357.67599000 0.88955301 -0.29918900 -0.34522700 1.905766e-42
-8.98575970 -38.31919900 356.15900000 0.88754702 -0.28868300 -0.35905799 1.905766e-42
-9.12075040 -37.10710100 354.83499000 0.88831502 -0.27171099 -0.37022901 1.905766e-42
-9.49654960 -36.24570100 353.29999000 0.88280499 -0.26523301 -0.38769299 1.905766e-42
-9.97183990 -35.39580200 351.78601000 0.87562197 -0.26088700 -0.40647799 1.905766e-42
-10.24000000 -34.24160000 350.43100000 0.87252498 -0.24972300 -0.41992700 1.905766e-42
-10.68570000 -33.24129900 349.00201000 0.86598402 -0.24142900 -0.43793201 1.905766e-42
-11.11460000 -32.17810100 347.61499000 0.85966498 -0.22947100 -0.45642000 1.905766e-42
-11.62030000 -31.15930000 346.21899000 0.85241097 -0.21961799 -0.47451299 1.905766e-42
-11.95600000 -29.88960100 344.98901000 0.85079801 -0.20254600 -0.48489001 1.905766e-42
-12.81050000 -28.71180000 343.16901000 0.84131002 -0.19744700 -0.50320202 1.905766e-42
-13.27690000 -27.49099900 341.93100000 0.83782399 -0.18644699 -0.51311600 1.905766e-42
-13.84000000 -26.36820000 340.64200000 0.83080900 -0.18054099 -0.52646101 1.905766e-42
-14.73460000 -25.42890000 339.39401000 0.81779099 -0.18012901 -0.54659897 1.905766e-42
-14.74190000 -23.90530000 338.43600000 0.81986701 -0.15733100 -0.55051303 1.905766e-42
-15.17430000 -22.52689900 337.36200000 0.81401002 -0.14232799 -0.56314403 1.905766e-42
-15.97640000 -21.57980000 336.05801000 0.79643703 -0.14083900 -0.58809203 1.905766e-42
-16.59129900 -20.33820000 334.90900000 0.78536898 -0.13081600 -0.60504800 1.905766e-42
-17.25169900 -19.07000000 333.81601000 0.77532101 -0.12038200 -0.61998898 1.905766e-42
-18.15090000 -18.02370100 332.65900000 0.76151001 -0.11685200 -0.63753200 1.905766e-42
-18.84289900 -16.77440100 331.56400000 0.75438499 -0.10656600 -0.64772499 1.905766e-42
-19.70760000 -15.56720000 330.54599000 0.74811602 -0.09698520 -0.65644199 1.905766e-42
-19.93950100 -13.95120000 329.78799000 0.75533903 -0.06973660 -0.65161300 1.905766e-42
-20.89830000 -12.86780000 328.71701000 0.75333101 -0.06280760 -0.65463501 1.905766e-42
-21.47290000 -11.39510000 327.85699000 0.76288599 -0.03980220 -0.64530700 1.905766e-42
-22.37669900 -10.17570000 326.88901000 0.77493799 -0.02604380 -0.63150001 1.905766e-42
-22.96340000 -8.66250040 326.11099000 0.79607201 0.00129067 -0.60519999 1.905766e-42
-23.33230000 -6.97583010 325.60199000 0.81760699 0.03119100 -0.57493103 1.905766e-42
-22.82939900 -5.39100980 326.29099000 0.81740999 0.07055870 -0.57171899 1.905766e-42
-21.94360000 -4.39930010 327.50400000 0.80797100 0.09479340 -0.58154702 1.905766e-42
-21.66540000 -2.79844000 328.27899000 0.80573702 0.11139300 -0.58170402 1.905766e-42
-21.35969900 -1.31662000 329.25400000 0.80076301 0.11893800 -0.58705300 1.905766e-42
-20.59940000 -0.21484500 330.45700000 0.79482800 0.11609700 -0.59562498 1.905766e-42
-19.81329900 0.85880297 331.66901000 0.79973102 0.11755500 -0.58873701 1.905766e-42
-19.25820000 2.24807000 332.67001000 0.80344898 0.12776600 -0.58150202 1.905766e-42
-18.54500000 3.46022010 333.79401000 0.80682099 0.14083999 -0.57376200 1.905766e-42
-18.28350100 5.01141980 334.66800000 0.80756700 0.16152400 -0.56722599 1.905766e-42
-17.67939900 6.28633020 335.78601000 0.81101102 0.18423600 -0.55526501 1.905766e-42
-17.17370000 7.40818020 337.10001000 0.82128400 0.21258900 -0.52943200 1.905766e-42
-16.84970100 8.73657040 338.27100000 0.82963699 0.24014500 -0.50401598 1.905766e-42
-16.18000000 9.44775010 339.78299000 0.84097302 0.25873101 -0.47520801 1.905766e-42
-16.06819900 10.95450000 340.76099000 0.84640002 0.28124300 -0.45222801 1.905766e-42
-16.26549900 12.57150000 341.52701000 0.84675300 0.29768199 -0.44090101 1.905766e-42
-15.97370000 13.82750000 342.78299000 0.84976000 0.30793601 -0.42788300 1.905766e-42
-15.76400000 15.03460000 344.10101000 0.85250998 0.31786099 -0.41496000 1.905766e-42
-15.58780000 16.10700000 345.53601000 0.85594600 0.32604399 -0.40131199 1.905766e-42
-15.60290000 17.55310100 346.60800000 0.85709703 0.33586699 -0.39061201 1.905766e-42
-15.50970000 18.87350100 347.82800000 0.85606700 0.33940300 -0.38981301 1.905766e-42
-15.36150000 20.08210000 349.15302000 0.85474801 0.34119400 -0.39114201 1.905766e-42
-15.36650000 21.39489900 350.38501000 0.85277897 0.34412199 -0.39287201 1.905766e-42
-15.21940000 22.56810000 351.74200000 0.85124600 0.34628499 -0.39429301 1.905766e-42
-15.69420000 24.06979900 352.61301000 0.84767199 0.35236999 -0.39659601 1.905766e-42
-15.32920000 25.22349900 353.94601000 0.84389102 0.35118800 -0.40560400 1.905766e-42
-15.24710000 26.57620000 355.13101000 0.83855999 0.35246199 -0.41543701 1.905766e-42
-15.22360000 27.91910000 356.32901000 0.83264500 0.35509500 -0.42498201 1.905766e-42
-15.15710000 29.24939900 357.54001000 0.82615399 0.35892400 -0.43432999 1.905766e-42
-15.24570000 30.75449900 358.52301000 0.81865698 0.36655200 -0.44208699 1.905766e-42
-15.64790000 32.29909900 359.35501000 0.81416202 0.38280499 -0.43657899 1.905766e-42
-15.78000000 33.74219900 360.42300000 0.81015903 0.39766699 -0.43070099 1.905766e-42
-15.74690000 35.13999900 361.55600000 0.80643398 0.40950599 -0.42657700 1.905766e-42
-15.66970000 36.33670000 362.89899000 0.80414701 0.41455299 -0.42602000 1.905766e-42
-14.85890000 36.21170000 364.50101000 0.81146002 0.40588900 -0.42045999 1.905766e-42
-13.79020000 35.11529900 365.44699000 0.82118797 0.39578101 -0.41110599 1.905766e-42
-12.85160000 34.36980100 366.79001000 0.83002698 0.38407499 -0.40440300 1.905766e-42
-11.86110000 33.33850100 367.88400000 0.83955902 0.37064800 -0.39719000 1.905766e-42
-10.85020000 32.08670000 368.69000000 0.84995502 0.35597900 -0.38840100 1.905766e-42
-9.93414020 31.05690000 369.84799000 0.86048102 0.33927301 -0.38008800 1.905766e-42
-9.08329010 29.84750000 370.87399000 0.87213898 0.32061800 -0.36956400 1.905766e-42
-8.17953970 28.71010000 371.93701000 0.88467997 0.29955101 -0.35722700 1.905766e-42
-7.38809010 27.40250000 372.88800000 0.89789301 0.27728301 -0.34191000 1.905766e-42
-6.70731020 26.43090100 374.24200000 0.90978801 0.25720701 -0.32577699 1.905766e-42
-5.97363000 25.16610000 375.29099000 0.92100197 0.23887400 -0.30772400 1.905766e-42
-5.30486010 23.58980000 375.84698000 0.92996597 0.22388500 -0.29161400 1.905766e-42
-4.77723980 22.68950100 377.31299000 0.93863499 0.20941900 -0.27406001 1.905766e-42
-4.09552000 21.30990000 378.24701000 0.94581902 0.19639499 -0.25856400 1.905766e-42
-3.57099010 19.85530100 379.16800000 0.95314503 0.18099500 -0.24239600 1.905766e-42
-3.12159990 18.44199900 380.18799000 0.96060801 0.16557799 -0.22319300 1.905766e-42
-2.66959000 16.77879900 380.70801000 0.96639800 0.15277000 -0.20672800 1.905766e-42
-2.25752000 15.22350000 381.51501000 0.97224098 0.14022900 -0.18730700 1.905766e-42
-1.88094000 13.59610000 382.18500000 0.97704703 0.12889200 -0.16960301 1.905766e-42
-1.55490010 12.05740000 383.06100000 0.98163801 0.11785200 -0.14999300 1.905766e-42
-1.26522990 10.47590000 383.87000000 0.98547900 0.10679800 -0.13200299 1.905766e-42
-1.13791000 8.99287030 384.88199000 0.98906499 0.09429350 -0.11339600 1.905766e-42
-0.83481300 7.31300020 385.45300000 0.99146402 0.07902880 -0.10370300 1.905766e-42
-0.62814999 5.69969990 386.22400000 0.99361998 0.06248780 -0.09388240 1.905766e-42
-0.62401599 4.10266020 387.05399000 0.99530500 0.04476710 -0.08581570 1.905766e-42
-0.39576200 2.32059000 387.16501000 0.99609900 0.02324880 -0.08512010 1.905766e-42
-0.28195199 0.68227500 387.90100000 0.99685901 0.00293245 -0.07913610 1.905766e-42
-0.23243400 -1.11565010 387.97198000 0.99686402 -0.01471210 -0.07775510 1.905766e-42
-0.21195699 -2.79102990 388.63000000 0.99705201 -0.02397820 -0.07288550 1.905766e-42
-0.27691001 -4.58407020 388.77399000 0.99733400 -0.02936210 -0.06680310 1.905766e-42
-0.32340699 -6.21896980 389.52600000 0.99781603 -0.03421230 -0.05649760 1.905766e-42
-0.35640901 -7.90712020 390.14999000 0.99833500 -0.03689780 -0.04433320 1.905766e-42
-0.46081999 -9.69497010 390.32999000 0.99894500 -0.03417490 -0.03067170 1.905766e-42
-0.59027398 -11.34910000 391.02802000 0.99931097 -0.03403160 -0.01479050 1.905766e-42
-0.64964998 -13.05470000 391.60101000 0.99953502 -0.03045050 0.00132016 1.905766e-42
-0.72917801 -14.70270000 392.32001000 0.99944901 -0.02918140 0.01579950 1.905766e-42
-0.74742103 -16.41920100 392.86200000 0.99917400 -0.02767570 0.02977120 1.905766e-42
-0.52473599 -18.20299900 392.76999000 0.99873501 -0.02211550 0.04515350 1.905766e-42
-0.73385298 -19.71369900 393.72601000 0.99812001 -0.02757000 0.05473160 1.905766e-42
-0.99689901 -21.41000000 394.26801000 0.99734902 -0.03049410 0.06606270 1.905766e-42
-1.13180010 -23.10040100 394.87201000 0.99635500 -0.03693260 0.07688830 1.905766e-42
-1.52531000 -24.67400000 395.65201000 0.99467701 -0.05391680 0.08780900 1.905766e-42
-1.29557000 -26.44249900 395.89600000 0.99234200 -0.06929920 0.10225200 1.905766e-42
-1.41373000 -28.08130100 396.63101000 0.98971498 -0.09128380 0.11014200 1.905766e-42
-1.64248000 -29.67960000 397.42700000 0.98663402 -0.11575400 0.11469400 1.905766e-42
-1.96079000 -31.29820100 398.14700000 0.98282301 -0.14228000 0.11753900 1.905766e-42
-2.24632000 -33.06520100 398.33701000 0.97738397 -0.17077300 0.12473200 1.905766e-42
-2.48434000 -34.72980100 397.69501000 0.97361499 -0.20074099 0.10851800 1.905766e-42
-2.77561000 -36.33129900 396.92599000 0.96989501 -0.22799800 0.08556150 1.905766e-42
-3.38513990 -38.01200100 396.71799000 0.96674103 -0.24715300 0.06578080 1.905766e-42
-3.73000000 -39.62220000 395.99100000 0.96254402 -0.26733801 0.04517110 1.905766e-42
-4.16529990 -41.23289900 395.31500000 0.95844102 -0.28408700 0.02618100 1.905766e-42
-4.56344990 -42.77069900 394.46899000 0.95528001 -0.29532999 0.01483340 1.905766e-42
-5.03919980 -44.35469800 393.75800000 0.95331198 -0.30164200 0.01441520 1.905766e-42
-5.46560000 -45.93230100 393.00400000 0.94978899 -0.31260401 0.01338090 1.905766e-42
-5.98611020 -47.63940000 392.76901000 0.94388700 -0.33019000 0.00721749 1.905766e-42
-6.60795020 -49.20669900 392.13901000 0.93365401 -0.35817301 0.00114484 1.905766e-42
-7.18940020 -50.65710100 391.24600000 0.91760999 -0.39746401 -0.00376699 1.905766e-42
