# .PCD v0.7 - Point Cloud Data file format
# 6 218 0
# 1 47 0
# 48 79 0
# 80 118 0
# 119 131 0
# 132 157 0
# 158 218 0
VERSION 0.7
FIELDS x y z normal_x normal_y normal_z curvature
SIZE 4 4 4 4 4 4 4
TYPE F F F F F F F
COUNT 1 1 1 1 1 1 1
WIDTH 218
HEIGHT 1
VIEWPOINT 0 0 0 1 0 0 0
POINTS 218
DATA ascii
-36.6408 -49.5023 415.84201 -0.46526 0.59117597 -0.65881997 1.9057659e-42
-37.2481 -48.468498 417.18399 -0.474626 0.59543198 -0.64822102 1.9057659e-42
-37.305099 -47.103802 418.35699 -0.48427799 0.59748 -0.63913399 1.9057659e-42
-36.6334 -45.618 419.11899 -0.49313599 0.59581798 -0.63388997 1.9057659e-42
-36.542198 -44.348701 420.392 -0.50308102 0.598207 -0.62374502 1.9057659e-42
-36.040298 -42.905201 421.34299 -0.51295 0.59807098 -0.61578703 1.9057659e-42
-35.381901 -41.382801 422.04199 -0.52273798 0.59641403 -0.60912699 1.9057659e-42
-35.017101 -39.905201 423.00299 -0.53324401 0.59686297 -0.59950501 1.9057659e-42
-34.325401 -38.451401 423.80801 -0.543863 0.59513599 -0.59162998 1.9057659e-42
-34.273701 -37.235901 425.13501 -0.55367398 0.59794903 -0.57957 1.9057659e-42
-33.873798 -35.9482 426.327 -0.56357902 0.59779501 -0.57010502 1.9057659e-42
-32.8368 -34.5513 426.789 -0.57448101 0.59169298 -0.56557202 1.9057659e-42
-32.720901 -33.4263 428.19 -0.58430701 0.59353501 -0.55344498 1.9057659e-42
-32.013599 -31.845699 428.681 -0.596766 0.58766198 -0.54637301 1.9057659e-42
-31.7243 -30.5956 429.94299 -0.60865599 0.58727902 -0.53351802 1.9057659e-42
-31.1028 -29.103901 430.73599 -0.62301999 0.581554 -0.52310801 1.9057659e-42
-30.2201 -27.625401 431.26001 -0.62898302 0.58174199 -0.51571 1.9057659e-42
-29.938801 -26.303301 432.44901 -0.62881798 0.59425902 -0.50144202 1.9057659e-42
-29.344299 -24.886499 433.38699 -0.62590599 0.60759801 -0.48894501 1.9057659e-42
-28.6686 -23.4883 434.297 -0.62229002 0.62146902 -0.475952 1.9057659e-42
-28.1747 -22.200001 435.453 -0.61957002 0.63554299 -0.46067101 1.9057659e-42
-27.585699 -20.896299 436.54501 -0.614586 0.64918399 -0.44815499 1.9057659e-42
-27.0084 -19.600401 437.65302 -0.60935003 0.663194 -0.434587 1.9057659e-42
-26.4877 -18.669701 438.39499 -0.60488701 0.67348897 -0.42488199 1.9057659e-42
-26.1936 -17.6022 439.814 -0.60136598 0.68689603 -0.40808401 1.9057659e-42
-25.652901 -16.444799 441.082 -0.59612697 0.70081002 -0.39178801 1.9057659e-42
-25.0592 -15.2269 442.267 -0.59022099 0.714472 -0.375725 1.9057659e-42
-24.659201 -14.3887 443.80899 -0.58674097 0.72651398 -0.35764799 1.9057659e-42
-24.0935 -13.1307 444.966 -0.580836 0.73870999 -0.34196001 1.9057659e-42
-23.2992 -11.9214 446.03601 -0.57399601 0.75015402 -0.328325 1.9057659e-42
-23.0942 -11.2567 447.69699 -0.57348502 0.75869399 -0.30902699 1.9057659e-42
-22.5548 -10.2006 449.05099 -0.57009202 0.76832497 -0.290984 1.9057659e-42
-21.9569 -9.1897602 450.41501 -0.566073 0.77825499 -0.27181101 1.9057659e-42
-21.492201 -8.3757296 451.95099 -0.56276798 0.78803498 -0.249586 1.9057659e-42
-20.9182 -7.5342398 453.436 -0.55796999 0.79824799 -0.226871 1.9057659e-42
-20.835501 -7.2322698 455.20801 -0.55717599 0.80574799 -0.20081 1.9057659e-42
-20.2649 -6.36905 456.681 -0.55099797 0.815602 -0.17662001 1.9057659e-42
-20.0688 -5.8925099 458.40601 -0.547916 0.823039 -0.149646 1.9057659e-42
-19.481501 -5.1138401 459.918 -0.54108101 0.83162999 -0.124991 1.9057659e-42
-19.209499 -4.8418398 461.677 -0.536964 0.83776802 -0.099068902 1.9057659e-42
-18.6215 -4.2449398 463.26999 -0.52921802 0.84514701 -0.075200498 1.9057659e-42
-18.197599 -3.8306799 464.97 -0.52246797 0.85110301 -0.051479101 1.9057659e-42
-17.683001 -3.4026 466.64001 -0.51520097 0.85657799 -0.0290154 1.9057659e-42
-17.244301 -3.0999701 468.35999 -0.508865 0.86081302 -0.0076057501 1.9057659e-42
-16.964199 -3.0587599 470.13699 -0.50428301 0.86344898 0.0124377 1.9057659e-42
-16.538 -2.8520801 471.87399 -0.49951699 0.86575401 0.030869899 1.9057659e-42
-16.145 -2.7488799 473.62701 -0.49250799 0.86891699 0.0491805 1.9057659e-42
-15.4992 -2.45328 475.28101 -0.48153099 0.87387502 0.066861197 1.9057659e-42
-14.1017 -1.77232 476.189 -0.46586999 0.88141501 0.077930301 1.9057659e-42
-12.5502 -0.99144399 476.66101 -0.44954801 0.88932502 0.083717503 1.9057659e-42
-10.9519 -0.16900501 476.75601 -0.43262401 0.89752799 0.0853251 1.9057659e-42
-9.3512402 0.558218 477.142 -0.41544601 0.90538698 0.087628402 1.9057659e-42
-7.7199402 1.17462 477.58801 -0.39816901 0.91298997 0.088944703 1.9057659e-42
-6.04915 1.5820301 478.12 -0.38119301 0.92016798 0.089344703 1.9057659e-42
-4.5919499 2.5257399 477.64401 -0.362809 0.92789602 0.085898198 1.9057659e-42
-3.0053799 3.0660501 478.30099 -0.34566399 0.93448001 0.085226797 1.9057659e-42
-1.30855 3.6615 478.38 -0.31980601 0.94352603 0.086500399 1.9057659e-42
0.36242899 4.1343598 478.853 -0.29388601 0.951545 0.090519801 1.9057659e-42
1.90792 4.4263802 479.728 -0.26924801 0.95825601 0.096180603 1.9057659e-42
3.5738001 4.8252902 480.28101 -0.243369 0.96444601 0.103027 1.9057659e-42
5.2769098 5.2203202 480.70999 -0.217841 0.96965498 0.110972 1.9057659e-42
6.8610501 5.4102998 481.543 -0.19289599 0.973836 0.120144 1.9057659e-42
8.5226803 5.6017699 482.20801 -0.16790999 0.97715998 0.13025001 1.9057659e-42
10.2826 5.9559302 482.33899 -0.144731 0.97953898 0.139844 1.9057659e-42
11.6324 5.7097802 483.504 -0.122224 0.98090601 0.15127499 1.9057659e-42
13.3471 5.9707999 483.98599 -0.102193 0.98159099 0.161359 1.9057659e-42
14.9644 5.9947 484.77499 -0.084973298 0.981668 0.17061 1.9057659e-42
16.5763 5.8064299 485.55399 -0.0675027 0.981466 0.17935599 1.9057659e-42
18.3025 5.9957099 486.02802 -0.049290501 0.98127502 0.18619899 1.9057659e-42
20.0762 6.18856 486.26599 -0.030494301 0.981062 0.191277 1.9057659e-42
21.3557 5.76297 487.45801 -0.0144997 0.97963703 0.20025299 1.9057659e-42
23.108299 5.8266802 487.86401 0.00508716 0.97866398 0.20540699 1.9057659e-42
24.8342 5.6842699 488.35501 0.024886901 0.97721201 0.210802 1.9057659e-42
26.5998 5.5703702 488.686 0.045028102 0.97556698 0.215041 1.9057659e-42
28.243601 5.3393502 489.38199 0.061175 0.97351903 0.220268 1.9057659e-42
29.314501 4.9125199 490.76501 0.065165997 0.971811 0.226578 1.9057659e-42
30.7987 4.65172 491.74899 0.072125897 0.97074598 0.229019 1.9057659e-42
32.054001 4.2958202 492.98901 0.077503897 0.96967202 0.231796 1.9057659e-42
33.2584 3.8349199 494.245 0.082445599 0.96892899 0.23319399 1.9057659e-42
34.587002 3.2865801 495.328 0.088922501 0.96872801 0.23164199 1.9057659e-42
36.228802 3.43893 494.60599 0.106399 0.96886897 0.223543 1.9057659e-42
37.828499 3.51121 493.784 0.12548099 0.96838403 0.215608 1.9057659e-42
39.4496 3.4158299 493.008 0.14580201 0.96721601 0.207928 1.9057659e-42
41.073898 3.30793 492.23999 0.16684499 0.96538299 0.200496 1.9057659e-42
42.59 3.2484801 491.271 0.18747801 0.96311301 0.19304401 1.9057659e-42
44.0019 3.22437 490.155 0.207137 0.96062398 0.18519001 1.9057659e-42
45.546799 3.02509 489.25299 0.220678 0.95969802 0.174017 1.9057659e-42
47.194901 2.5280299 488.72699 0.22986899 0.95968699 0.161742 1.9057659e-42
48.487801 2.5224299 487.47501 0.24489599 0.95871001 0.144574 1.9057659e-42
49.673698 2.4592299 486.12201 0.262393 0.957075 0.123118 1.9057659e-42
51.167702 2.1237099 485.17599 0.27754501 0.95520598 0.102712 1.9057659e-42
52.556 1.82807 484.069 0.292858 0.95257503 0.082672797 1.9057659e-42
53.9953 1.38344 483.08401 0.30680299 0.94963503 0.063760102 1.9057659e-42
55.3386 1.01912 481.94199 0.320474 0.94616801 0.045420099 1.9057659e-42
56.687099 0.59036303 480.82999 0.332957 0.942523 0.0280977 1.9057659e-42
57.410599 0.45496199 479.18701 0.34508899 0.93848699 0.0124696 1.9057659e-42
58.912498 -0.207481 478.44901 0.354669 0.93498898 -0.00225328 1.9057659e-42
59.862301 -0.50362301 476.948 0.36614999 0.93038398 -0.0178793 1.9057659e-42
61.201 -1.32012 476.065 0.37569699 0.92616999 -0.032557901 1.9057659e-42
62.166698 -1.58358 474.569 0.38616899 0.92119801 -0.0476171 1.9057659e-42
62.866001 -1.85648 472.93301 0.396065 0.91612601 -0.062013902 1.9057659e-42
64.146698 -2.7499199 472.03699 0.403732 0.911735 -0.075757198 1.9057659e-42
64.880798 -3.0640199 470.42401 0.41336501 0.90590698 -0.091992401 1.9057659e-42
66.111504 -4.1393499 469.67001 0.42322999 0.89911401 -0.111673 1.9057659e-42
66.905701 -4.4376702 468.082 0.43570399 0.89013499 -0.13349999 1.9057659e-42
68.095703 -5.1374602 466.927 0.44728699 0.88086599 -0.154948 1.9057659e-42
68.939201 -5.7255702 465.45001 0.45973501 0.87038201 -0.176292 1.9057659e-42
70.002602 -6.4791999 464.20801 0.47186801 0.85937101 -0.197033 1.9057659e-42
71.146797 -7.4138598 463.17999 0.48386899 0.84785801 -0.216813 1.9057659e-42
72.206001 -8.3703203 462.08301 0.49658501 0.83523297 -0.23619699 1.9057659e-42
73.257401 -9.3590698 461.00699 0.50571603 0.82653302 -0.247172 1.9057659e-42
73.994598 -10.2713 459.642 0.51382899 0.818165 -0.25804299 1.9057659e-42
75.319199 -11.4381 459.29001 0.52042502 0.811212 -0.26663101 1.9057659e-42
76.488602 -12.5443 458.48401 0.52677399 0.803868 -0.276234 1.9057659e-42
77.648697 -13.5052 457.49899 0.53188699 0.79704899 -0.28602201 1.9057659e-42
78.321098 -14.269 456.01401 0.53510797 0.79046899 -0.29802299 1.9057659e-42
79.267403 -15.3503 454.92999 0.53705299 0.78478199 -0.30933899 1.9057659e-42
80.481201 -16.5767 454.418 0.53629899 0.783494 -0.31387901 1.9057659e-42
80.932098 -17.435301 452.901 0.53212601 0.78335798 -0.32123601 1.9057659e-42
79.831497 -17.351801 451.479 0.53054702 0.78016597 -0.33145201 1.9057659e-42
78.448898 -16.232901 451.203 0.532637 0.77765602 -0.33399001 1.9057659e-42
77.030899 -15.9077 450.14301 0.53214902 0.77438903 -0.34225601 1.9057659e-42
75.524101 -15.4244 449.285 0.53196198 0.77151197 -0.348979 1.9057659e-42
74.087898 -14.4435 448.82101 0.53211403 0.77032101 -0.35136801 1.9057659e-42
72.533897 -13.7264 448.263 0.53148103 0.76922601 -0.354711 1.9057659e-42
71.0895 -12.684 448.005 0.530518 0.76999497 -0.35448301 1.9057659e-42
69.618797 -11.6468 447.96799 0.52861601 0.77267599 -0.35147899 1.9057659e-42
68.078903 -10.7179 447.892 0.52492797 0.777758 -0.34575 1.9057659e-42
66.531403 -10.0561 447.25299 0.52193099 0.77905297 -0.34736699 1.9057659e-42
65.041298 -9.1005802 446.927 0.51811302 0.782947 -0.34431499 1.9057659e-42
63.492401 -8.2051001 446.729 0.51240498 0.78784901 -0.341665 1.9057659e-42
62.1744 -8.0036001 445.51999 0.50411803 0.78629601 -0.35721499 1.9057659e-42
61.755501 -8.5142899 443.84601 0.50080597 0.77733397 -0.38071799 1.9057659e-42
61.985699 -9.4225998 442.30899 0.50052601 0.76669002 -0.40206999 1.9057659e-42
62.324799 -10.3545 440.806 0.49910101 0.75783497 -0.420219 1.9057659e-42
62.389 -11.2086 439.22299 0.49548599 0.748891 -0.440063 1.9057659e-42
62.836899 -12.3253 437.884 0.494342 0.73926502 -0.457288 1.9057659e-42
63.096401 -13.3901 436.457 0.49156201 0.72929698 -0.475912 1.9057659e-42
63.185902 -14.4627 435.01401 0.48765099 0.71899301 -0.49522299 1.9057659e-42
63.503502 -15.684 433.73001 0.4853 0.70835799 -0.512555 1.9057659e-42
63.544399 -16.7598 432.28799 0.48006001 0.699664 -0.52916199 1.9057659e-42
63.178799 -17.666599 430.776 0.47189999 0.69364101 -0.54421699 1.9057659e-42
63.1684 -18.7728 429.35699 0.46560401 0.687325 -0.557491 1.9057659e-42
63.054901 -19.8584 427.92499 0.45903999 0.68059599 -0.57102698 1.9057659e-42
62.480598 -20.686001 426.43301 0.451184 0.67348099 -0.58554 1.9057659e-42
63.174999 -22.1024 425.56699 0.448957 0.66796499 -0.59351599 1.9057659e-42
62.903801 -23.0734 424.07501 0.442099 0.660097 -0.607306 1.9057659e-42
62.9184 -24.299 422.75699 0.43629801 0.65217203 -0.61993098 1.9057659e-42
62.8652 -25.594601 421.509 0.428801 0.64719701 -0.63028997 1.9057659e-42
62.8214 -26.923599 420.29599 0.42007601 0.64365 -0.639727 1.9057659e-42
62.4482 -27.8976 418.82901 0.41073599 0.63802302 -0.65132302 1.9057659e-42
61.987301 -28.9447 417.439 0.40125301 0.63144499 -0.66353101 1.9057659e-42
61.5723 -30.132601 416.15201 0.39063999 0.62432498 -0.676476 1.9057659e-42
61.069302 -31.2999 414.87701 0.3777 0.61603397 -0.69126302 1.9057659e-42
60.356098 -32.342098 413.595 0.365455 0.606269 -0.70631498 1.9057659e-42
59.9021 -33.597 412.38699 0.35398099 0.59689599 -0.72000903 1.9057659e-42
59.195702 -34.703602 411.155 0.34373099 0.58631903 -0.73353899 1.9057659e-42
58.488899 -35.8913 410.00201 0.33478501 0.575827 -0.745884 1.9057659e-42
56.8517 -35.311699 409.52899 0.33306301 0.57077301 -0.75052398 1.9057659e-42
55.3689 -34.2924 409.578 0.33198801 0.57054901 -0.75117099 1.9057659e-42
53.8064 -33.399799 409.53299 0.32804 0.57042003 -0.75300097 1.9057659e-42
52.258099 -32.4832 409.58301 0.32260501 0.57152998 -0.75450599 1.9057659e-42
50.675499 -31.625601 409.595 0.31519201 0.57310802 -0.75643897 1.9057659e-42
49.057098 -30.8381 409.57199 0.30593601 0.57514298 -0.75869203 1.9057659e-42
47.546902 -29.8671 409.70001 0.29377201 0.57843399 -0.76099402 1.9057659e-42
45.825699 -29.679501 409.20801 0.27373201 0.57707 -0.76945502 1.9057659e-42
44.080898 -29.485399 408.811 0.25297701 0.57621801 -0.77715898 1.9057659e-42
42.4184 -28.795799 408.78601 0.23401301 0.578457 -0.781425 1.9057659e-42
40.766701 -28.0805 408.79901 0.214981 0.58089602 -0.78507501 1.9057659e-42
39.064201 -27.499399 408.73599 0.19510999 0.582241 -0.78925699 1.9057659e-42
37.2966 -27.3179 408.44901 0.17377999 0.58025497 -0.79567802 1.9057659e-42
35.763 -26.4212 408.73801 0.159044 0.58335698 -0.79649198 1.9057659e-42
33.966599 -26.307199 408.74899 0.140753 0.57938403 -0.802809 1.9057659e-42
32.268398 -25.805099 409.07199 0.126249 0.57790202 -0.80628198 1.9057659e-42
30.5986 -25.199699 409.36401 0.112065 0.57733703 -0.808779 1.9057659e-42
28.8438 -24.9701 409.69299 0.098264903 0.57653302 -0.81114298 1.9057659e-42
27.382099 -23.9758 410.03101 0.088151202 0.58092499 -0.80916899 1.9057659e-42
26.309601 -22.543501 410.22699 0.079274103 0.58701903 -0.80568302 1.9057659e-42
24.649099 -21.9028 410.496 0.063262999 0.59065503 -0.80444002 1.9057659e-42
22.8521 -21.9422 410.39999 0.044210799 0.59146601 -0.80511701 1.9057659e-42
21.469299 -20.9669 411.01401 0.027086601 0.59827203 -0.80083501 1.9057659e-42
19.673201 -20.8521 411.03799 0.0044954298 0.60111803 -0.79914802 1.9057659e-42
17.873501 -20.8458 411.07101 -0.0194398 0.60396498 -0.79677403 1.9057659e-42
16.0769 -20.8011 411.173 -0.044751398 0.60738599 -0.79314601 1.9057659e-42
14.3057 -21.121401 411.185 -0.069845296 0.60912699 -0.78999102 1.9057659e-42
12.5553 -20.864599 411.517 -0.094425097 0.60996002 -0.78678602 1.9057659e-42
10.7747 -20.832899 411.77899 -0.119693 0.60975099 -0.783503 1.9057659e-42
8.9991302 -20.813801 412.07401 -0.14795101 0.60874802 -0.77944601 1.9057659e-42
7.3228998 -21.4629 411.979 -0.17591 0.60530299 -0.77631497 1.9057659e-42
5.6233301 -22.0555 411.96399 -0.20394 0.60140502 -0.77247697 1.9057659e-42
4.0278401 -21.6273 412.67899 -0.23040099 0.601174 -0.76518297 1.9057659e-42
2.3276801 -22.2146 412.746 -0.25707701 0.59678203 -0.76010698 1.9057659e-42
0.67140901 -22.918699 412.77899 -0.28207001 0.59140998 -0.75542802 1.9057659e-42
-0.92307502 -23.753901 412.77701 -0.305154 0.58491498 -0.75150198 1.9057659e-42
-2.5889699 -24.4133 412.95001 -0.327995 0.57870197 -0.74667501 1.9057659e-42
-4.2258101 -25.140301 413.129 -0.34902799 0.57174599 -0.742486 1.9057659e-42
-5.91117 -25.6576 413.49301 -0.36873299 0.56572598 -0.73755598 1.9057659e-42
-7.4050202 -26.6607 413.54001 -0.38392201 0.557625 -0.73597401 1.9057659e-42
-8.8624601 -27.7166 413.56799 -0.39730799 0.55037099 -0.73432899 1.9057659e-42
-10.3007 -28.798901 413.55801 -0.41045099 0.54307002 -0.73253298 1.9057659e-42
-11.8544 -29.694901 413.70999 -0.424481 0.53665 -0.72926199 1.9057659e-42
-13.2001 -30.885099 413.59799 -0.43667701 0.529158 -0.72753298 1.9057659e-42
-14.5268 -32.101501 413.58701 -0.448991 0.52195299 -0.72523898 1.9057659e-42
-15.8373 -33.335499 413.57999 -0.46112499 0.51489902 -0.722664 1.9057659e-42
-16.894699 -34.792099 413.59201 -0.47193 0.50791901 -0.72062498 1.9057659e-42
-18.455 -35.650902 413.853 -0.485443 0.50184798 -0.715886 1.9057659e-42
-20.0035 -36.4767 414.25299 -0.49884799 0.495866 -0.71082199 1.9057659e-42
-21.336901 -37.683899 414.32101 -0.50571799 0.494901 -0.70662701 1.9057659e-42
-22.569 -38.995399 414.366 -0.49979499 0.50836301 -0.70126498 1.9057659e-42
-24.129299 -39.6852 414.94 -0.49851701 0.51820803 -0.69493997 1.9057659e-42
-25.5105 -40.838402 414.89301 -0.493599 0.52947903 -0.68993598 1.9057659e-42
-27.094101 -41.656799 415.14301 -0.49076399 0.53865999 -0.68483299 1.9057659e-42
-28.481899 -42.803001 415.13101 -0.48636001 0.54821497 -0.68037802 1.9057659e-42
-29.7726 -44.057499 415.14801 -0.481998 0.55718601 -0.67618197 1.9057659e-42
-30.9727 -45.398701 415.181 -0.47776601 0.56559402 -0.67219299 1.9057659e-42
-32.572601 -45.9949 415.75101 -0.47573599 0.57072198 -0.66929197 1.9057659e-42
-34.019402 -47.065601 415.76999 -0.47248799 0.57817101 -0.665187 1.9057659e-42
-35.434399 -48.1684 415.91599 -0.46982399 0.58543599 -0.66070402 1.9057659e-42
