# .PCD v0.7 - Point Cloud Data file format
# 7 230 1
# 1 73 0
# 74 87 0
# 88 105 0
# 106 144 0
# 145 201 0
# 202 219 1
# 220 230 0
VERSION 0.7
FIELDS x y z normal_x normal_y normal_z curvature
SIZE 4 4 4 4 4 4 4
TYPE F F F F F F F
COUNT 1 1 1 1 1 1 1
WIDTH 230
HEIGHT 1
VIEWPOINT 0 0 0 1 0 0 0
POINTS 230
DATA ascii
43.17260000 63.31300000 425.01001000 0.18053600 0.73967397 0.64829701 1.905766e-42
41.51290100 63.96120100 424.75500000 0.16324501 0.76035202 0.62866199 1.905766e-42
39.75080100 64.20310200 424.47900000 0.15160400 0.77334398 0.61559302 1.905766e-42
38.07230000 64.60340100 423.96600000 0.14066900 0.78720999 0.60042799 1.905766e-42
36.30789900 64.95929700 423.96301000 0.13419700 0.79588997 0.59038103 1.905766e-42
34.56179800 65.39600400 423.98001000 0.13688301 0.79799300 0.58691502 1.905766e-42
32.82619900 65.87310000 423.96799000 0.13833401 0.79874498 0.58555102 1.905766e-42
31.07920100 66.30660200 423.95499000 0.13365600 0.80099100 0.58356601 1.905766e-42
29.31760000 66.67469800 423.92099000 0.12335400 0.80463898 0.58080900 1.905766e-42
27.74720000 67.15029900 423.18100000 0.10857200 0.81263798 0.57256597 1.905766e-42
25.95820000 67.34680200 423.14801000 0.08894290 0.81800699 0.56829000 1.905766e-42
24.21590000 67.78949700 423.05600000 0.06542660 0.82495201 0.56140399 1.905766e-42
22.45299900 68.06099700 422.81400000 0.03891000 0.83221698 0.55308300 1.905766e-42
20.73580000 68.23570300 422.30399000 0.01049670 0.84009802 0.54233402 1.905766e-42
19.02680000 68.54489900 421.83099000 -0.01880510 0.84755403 0.53037602 1.905766e-42
17.33219900 68.83319900 421.29700000 -0.04518650 0.85253000 0.52072197 1.905766e-42
15.64050000 69.11000100 420.74799000 -0.07562090 0.85455900 0.51381898 1.905766e-42
13.87640000 69.24929800 420.41800000 -0.11967700 0.85190803 0.50983399 1.905766e-42
12.43830000 69.41359700 419.34799000 -0.15679300 0.85194999 0.49959701 1.905766e-42
11.05150000 69.67510200 418.23099000 -0.19283700 0.85151398 0.48758399 1.905766e-42
9.38953020 69.59590100 417.54401000 -0.23461400 0.84693098 0.47714201 1.905766e-42
7.60738990 69.53620100 417.29800000 -0.27460700 0.84007400 0.46783301 1.905766e-42
5.96559000 69.39320400 416.57401000 -0.31112599 0.83451802 0.45473099 1.905766e-42
4.53819990 69.24659700 415.48700000 -0.34297401 0.83051300 0.43888199 1.905766e-42
3.17932010 69.00920100 414.33099000 -0.37222701 0.82652998 0.42225000 1.905766e-42
1.48529010 68.68630200 413.81500000 -0.40165800 0.81936002 0.40904799 1.905766e-42
-0.17846601 68.31169900 413.23999000 -0.43375599 0.81000698 0.39464399 1.905766e-42
-1.76097000 67.71250200 412.62601000 -0.46385100 0.79992998 0.38072801 1.905766e-42
-3.27427010 67.27369700 411.75601000 -0.49061501 0.79108900 0.36534199 1.905766e-42
-4.78722000 66.65110000 411.00500000 -0.51456898 0.78144503 0.35293299 1.905766e-42
-6.23134990 66.10929900 410.07700000 -0.53471202 0.77306801 0.34124601 1.905766e-42
-7.74891000 65.31410200 409.52499000 -0.55301201 0.76270097 0.33535701 1.905766e-42
-8.92140960 64.46299700 408.45700000 -0.56724203 0.75510901 0.32870501 1.905766e-42
-10.43960000 63.66790000 407.90701000 -0.59076399 0.73913401 0.32354099 1.905766e-42
-11.94810000 62.69590000 407.76700000 -0.61741799 0.71894598 0.31923601 1.905766e-42
-13.34720000 61.79869800 407.07599000 -0.64332098 0.69997799 0.31011099 1.905766e-42
-14.65470000 60.78960000 406.35999000 -0.66868800 0.68025398 0.30018499 1.905766e-42
-16.76880100 59.02940000 405.03900000 -0.70969898 0.64508599 0.28318101 1.905766e-42
-17.84020000 58.09289900 403.93701000 -0.73140103 0.62519002 0.27237999 1.905766e-42
-19.13299900 57.16009900 403.10101000 -0.75223702 0.60513699 0.26066801 1.905766e-42
-20.31220100 56.01450000 402.36801000 -0.76665300 0.59067202 0.25169301 1.905766e-42
-21.41560000 54.75730100 401.70300000 -0.78052098 0.57634199 0.24211000 1.905766e-42
-22.34600100 53.81029900 400.48801000 -0.79351097 0.56251597 0.23219700 1.905766e-42
-23.32049900 52.72510100 399.43301000 -0.80660897 0.54814798 0.22116999 1.905766e-42
-24.42060100 51.44760100 398.80200000 -0.81944299 0.53361702 0.20920300 1.905766e-42
-25.33989900 50.38050100 397.68100000 -0.83157498 0.51943702 0.19664399 1.905766e-42
-26.20890000 49.32009900 396.51501000 -0.84311801 0.50551301 0.18332700 1.905766e-42
-27.21130000 48.00510000 395.80399000 -0.85598999 0.48918799 0.16726200 1.905766e-42
-28.08760100 46.71239900 394.90900000 -0.87192100 0.46729901 0.14624000 1.905766e-42
-28.91309900 45.48709900 393.88000000 -0.88680202 0.44487801 0.12516400 1.905766e-42
-29.53910100 44.35910000 392.62500000 -0.90007800 0.42349100 0.10254600 1.905766e-42
-30.47660100 43.05160100 391.81799000 -0.91205001 0.40156201 0.08314860 1.905766e-42
-31.13719900 41.67839800 390.85999000 -0.92230499 0.38130999 0.06289870 1.905766e-42
-31.67480100 40.22679900 389.94101000 -0.93065500 0.36324400 0.04398320 1.905766e-42
-32.07590100 38.88710000 388.80801000 -0.93692702 0.34867799 0.02430500 1.905766e-42
-32.75149900 37.41999800 388.01300000 -0.93978202 0.34141499 0.01566360 1.905766e-42
-33.12480200 35.88489900 387.15100000 -0.94440198 0.32875499 0.00503929 1.905766e-42
-33.89849900 34.29909900 386.79501000 -0.95081800 0.30974600 -0.00173716 1.905766e-42
-34.46839900 32.68080100 386.25101000 -0.95815200 0.28600100 -0.01217030 1.905766e-42
-34.74409900 31.15679900 385.33301000 -0.96530598 0.25958601 -0.02828570 1.905766e-42
-35.10500000 29.80180000 384.20499000 -0.97165298 0.23143800 -0.04824030 1.905766e-42
-35.32310100 28.42340100 383.06799000 -0.97703499 0.20121600 -0.07010570 1.905766e-42
-35.41040000 26.83260000 382.23001000 -0.98217702 0.16039900 -0.09798190 1.905766e-42
-35.49530000 25.20109900 381.47501000 -0.98501700 0.11485300 -0.12864999 1.905766e-42
-35.91099900 23.48030100 381.14899000 -0.98596001 0.07282120 -0.15026700 1.905766e-42
-35.73210100 22.12960100 379.97299000 -0.98288900 0.03302510 -0.18121600 1.905766e-42
-35.98780100 20.35050000 380.07001000 -0.98114598 -0.00347143 -0.19323500 1.905766e-42
-35.66610000 18.89950000 379.05399000 -0.97489202 -0.04102880 -0.21886800 1.905766e-42
-35.54370100 17.12150000 378.80099000 -0.96916199 -0.07808530 -0.23372400 1.905766e-42
-35.05780000 15.58630000 377.99701000 -0.96058798 -0.11328900 -0.25384301 1.905766e-42
-34.86859900 13.80690000 378.19199000 -0.95436698 -0.14568900 -0.26068801 1.905766e-42
-34.21170000 12.30120000 377.45599000 -0.94287199 -0.18804701 -0.27500901 1.905766e-42
-33.63399900 10.66440000 376.97900000 -0.93003201 -0.23189200 -0.28507200 1.905766e-42
-33.24919900 8.93109040 377.27499000 -0.92008799 -0.27033201 -0.28347600 1.905766e-42
-33.48590100 7.57162000 378.43100000 -0.91544300 -0.29467201 -0.27410501 1.905766e-42
-33.14329900 6.14437010 379.47299000 -0.91048902 -0.31874999 -0.26345500 1.905766e-42
-33.49649800 5.02041010 380.83401000 -0.90810198 -0.33394301 -0.25265101 1.905766e-42
-33.12789900 3.43931010 381.61099000 -0.90271598 -0.35501099 -0.24304600 1.905766e-42
-33.13980100 2.11658000 382.83200000 -0.89966798 -0.36966601 -0.23225801 1.905766e-42
-33.16680100 1.09937000 384.31699000 -0.89915800 -0.37931299 -0.21825700 1.905766e-42
-32.97660100 -0.12912500 385.61801000 -0.89787501 -0.39009899 -0.20406900 1.905766e-42
-32.73920100 -0.98689401 387.18301000 -0.89884502 -0.39685100 -0.18597400 1.905766e-42
-32.25479900 -2.13829990 388.47900000 -0.89703298 -0.40742299 -0.17128401 1.905766e-42
-32.02080200 -3.33794000 389.79999000 -0.89508998 -0.41811699 -0.15489399 1.905766e-42
-31.29789900 -4.66603990 390.77701000 -0.89019799 -0.43244800 -0.14330199 1.905766e-42
-31.14920000 -5.84053990 392.13300000 -0.88736397 -0.44386700 -0.12476600 1.905766e-42
-30.52000000 -7.11189990 393.24100000 -0.88186598 -0.45861700 -0.10946700 1.905766e-42
-30.01359900 -8.22235970 394.56400000 -0.87685603 -0.47221899 -0.09018720 1.905766e-42
-29.15270000 -9.66713050 395.20499000 -0.86808598 -0.49003300 -0.07933920 1.905766e-42
-28.01499900 -11.06150000 395.23901000 -0.85847801 -0.50723898 -0.07565590 1.905766e-42
-27.25600100 -12.68450000 395.41199000 -0.84889102 -0.52420801 -0.06775110 1.905766e-42
-26.85430000 -14.32250000 396.04099000 -0.84001702 -0.53997397 -0.05290990 1.905766e-42
-25.88330100 -15.79800000 396.38800000 -0.82971197 -0.55657899 -0.04239910 1.905766e-42
-25.04200000 -17.32869900 396.82300000 -0.81696802 -0.57593399 -0.02939340 1.905766e-42
-24.25950100 -18.94570000 396.93701000 -0.80212098 -0.59687197 -0.01857480 1.905766e-42
-23.01660000 -20.07530000 397.58401000 -0.78584403 -0.61833102 -0.01078890 1.905766e-42
-22.25099900 -21.58400000 398.19901000 -0.76794797 -0.64048499 -0.00590869 1.905766e-42
-21.01590000 -22.45700100 399.17499000 -0.75143403 -0.65980703 0.00107853 1.905766e-42
-19.85930100 -23.47610100 400.10400000 -0.73480201 -0.67821997 0.00915544 1.905766e-42
-18.76919900 -24.61490100 400.97299000 -0.71832901 -0.69554299 0.01492870 1.905766e-42
-17.52850000 -25.63600000 401.78400000 -0.70228499 -0.71164900 0.01878170 1.905766e-42
-16.45719900 -26.64460000 402.82101000 -0.68745100 -0.72571898 0.02726780 1.905766e-42
-15.14030000 -27.74959900 403.35400000 -0.66771698 -0.74387097 0.02845120 1.905766e-42
-13.74710000 -28.66200100 404.03799000 -0.64888901 -0.76014298 0.03355800 1.905766e-42
-12.63940000 -29.67140000 405.03500000 -0.63226199 -0.77339000 0.04596710 1.905766e-42
-11.29940000 -30.78500000 405.48700000 -0.61129200 -0.78987402 0.04919880 1.905766e-42
-9.95403960 -31.75340100 404.78500000 -0.58971298 -0.80699402 0.03160780 1.905766e-42
-8.58249000 -32.74390000 404.17099000 -0.56835800 -0.82262403 0.01609480 1.905766e-42
-7.23982000 -33.93100000 404.33801000 -0.54811698 -0.83626300 0.01520970 1.905766e-42
-5.70280980 -34.76079900 403.90399000 -0.52901798 -0.84860200 0.00389493 1.905766e-42
-4.34356020 -35.79119900 403.32901000 -0.51581299 -0.85666502 -0.00792875 1.905766e-42
-3.09523010 -36.51160000 402.25000000 -0.50457901 -0.86296803 -0.02618810 1.905766e-42
-1.60911000 -37.26440000 401.56900000 -0.49133700 -0.87025797 -0.03519120 1.905766e-42
-0.18663999 -37.96460000 400.71600000 -0.47860301 -0.87687898 -0.04497570 1.905766e-42
1.30962000 -38.45679900 399.84500000 -0.46583799 -0.88326502 -0.05327190 1.905766e-42
2.84400010 -39.13079800 399.18799000 -0.45034301 -0.89110500 -0.05588770 1.905766e-42
4.26663020 -40.22010000 399.01599000 -0.43030301 -0.90134501 -0.04915800 1.905766e-42
5.88367990 -40.65760000 398.35800000 -0.41235700 -0.90968800 -0.04929520 1.905766e-42
7.48107000 -41.47040200 398.19101000 -0.38846800 -0.92057002 -0.04053450 1.905766e-42
9.04784010 -42.07749900 397.54599000 -0.37249199 -0.92726099 -0.03789970 1.905766e-42
10.64110000 -42.90729900 397.43201000 -0.35104001 -0.93595999 -0.02739110 1.905766e-42
12.24640000 -43.29330100 396.71500000 -0.33384901 -0.94226801 -0.02600830 1.905766e-42
13.96370000 -43.81520100 396.57800000 -0.30979601 -0.95066202 -0.01636860 1.905766e-42
15.59830000 -44.24309900 395.95801000 -0.28885701 -0.95727301 -0.01378520 1.905766e-42
17.28050000 -44.87440100 395.84900000 -0.26251099 -0.96491700 -0.00475357 1.905766e-42
18.91670000 -45.03799800 395.11700000 -0.24127300 -0.97044599 -0.00475577 1.905766e-42
20.50120000 -45.89180000 395.09698000 -0.21436000 -0.97674799 0.00360818 1.905766e-42
22.25750000 -46.27750000 395.01501000 -0.18717700 -0.98226798 0.01070180 1.905766e-42
23.90550000 -46.37260100 394.29800000 -0.16021100 -0.98706198 0.00640344 1.905766e-42
25.63050100 -46.34989900 393.78400000 -0.12341200 -0.99235398 0.00161526 1.905766e-42
27.37369900 -46.62929900 393.43301000 -0.08709140 -0.99620003 0.00088256 1.905766e-42
29.03970000 -46.57040000 392.75400000 -0.05452640 -0.99851000 -0.00197790 1.905766e-42
30.79240000 -46.71889900 392.37201000 -0.01797880 -0.99983799 0.00114983 1.905766e-42
32.45019900 -46.72259900 391.67099000 0.02114470 -0.99975199 0.00692413 1.905766e-42
34.16019800 -46.89609900 391.13599000 0.06322020 -0.99787003 0.01608070 1.905766e-42
35.95370100 -46.75180100 391.08701000 0.11149200 -0.99326098 0.03165060 1.905766e-42
37.64390200 -46.37820100 390.59399000 0.15222400 -0.98753101 0.04013340 1.905766e-42
39.40440000 -46.24729900 390.24301000 0.19227500 -0.98011601 0.04902900 1.905766e-42
40.95109900 -45.77850000 389.45001000 0.22363199 -0.97329700 0.05179120 1.905766e-42
42.72029900 -45.52399800 389.23801000 0.25849500 -0.96420002 0.05914470 1.905766e-42
44.33470200 -45.07949800 388.57700000 0.28572500 -0.95636898 0.06098820 1.905766e-42
45.78179900 -44.53540000 387.65500000 0.30721399 -0.94976902 0.05965620 1.905766e-42
47.42139800 -43.96780000 387.17599000 0.32950401 -0.94220001 0.06071160 1.905766e-42
49.10540000 -43.35979800 386.98999000 0.34849501 -0.93525201 0.06209000 1.905766e-42
50.68149900 -42.62889900 386.51901000 0.36099499 -0.93041801 0.06328140 1.905766e-42
52.23189900 -42.01430100 387.19699000 0.37570599 -0.92340302 0.07856080 1.905766e-42
53.20890000 -41.29950000 388.52899000 0.38945699 -0.91621500 0.09419310 1.905766e-42
53.61259800 -40.69549900 390.17499000 0.40030700 -0.91005099 0.10751900 1.905766e-42
53.65330100 -40.06190100 391.85999000 0.40892601 -0.90476000 0.11911700 1.905766e-42
54.57199900 -39.13399900 393.09900000 0.42107001 -0.89666700 0.13670699 1.905766e-42
55.10770000 -38.46099900 394.67999000 0.43112600 -0.88850403 0.15713400 1.905766e-42
56.07849900 -39.14250200 396.03400000 0.43850699 -0.88204700 0.17235300 1.905766e-42
57.52030200 -38.35350000 396.76801000 0.45068499 -0.87260997 0.18823899 1.905766e-42
58.83380100 -37.39500000 397.54001000 0.46664900 -0.85976201 0.20748100 1.905766e-42
60.24210000 -36.27479900 397.58401000 0.48182401 -0.84823698 0.21986400 1.905766e-42
61.76810100 -35.32009900 397.57800000 0.49659199 -0.83514202 0.23650500 1.905766e-42
63.26170000 -34.31860000 397.65500000 0.51148498 -0.82137001 0.25245699 1.905766e-42
64.38330100 -33.35020100 398.67700000 0.52732998 -0.80607802 0.26862901 1.905766e-42
65.05159800 -32.56860000 400.15399000 0.54075199 -0.79259300 0.28175199 1.905766e-42
65.65650200 -31.74099900 401.63400000 0.55356801 -0.77924299 0.29383999 1.905766e-42
66.57299800 -30.60350000 402.68500000 0.56768399 -0.76398700 0.30669001 1.905766e-42
67.24310300 -29.63979900 404.04999000 0.57651198 -0.75372702 0.31548199 1.905766e-42
67.82830000 -28.63600000 405.42499000 0.58450001 -0.74406999 0.32360399 1.905766e-42
68.38659700 -27.59610000 406.78400000 0.59288299 -0.73372698 0.33186400 1.905766e-42
69.01439700 -26.60990000 408.15201000 0.60172200 -0.72260100 0.34026301 1.905766e-42
69.56700100 -25.31139900 409.26999000 0.61073101 -0.71008402 0.35041100 1.905766e-42
70.07830000 -24.48370000 410.78400000 0.61720598 -0.69834799 0.36244699 1.905766e-42
70.27210200 -23.58420000 412.33099000 0.62209398 -0.68691498 0.37569499 1.905766e-42
70.64849900 -22.45450000 413.68100000 0.62916601 -0.67294598 0.38896400 1.905766e-42
71.28550000 -21.23410000 414.84100000 0.63780397 -0.65737498 0.40132800 1.905766e-42
71.61609600 -19.90900000 416.01300000 0.64404100 -0.64223999 0.41561899 1.905766e-42
72.04219800 -18.61660000 417.19199000 0.65109199 -0.62399000 0.43210599 1.905766e-42
72.30200200 -17.60700000 418.65900000 0.65621197 -0.60427201 0.45192999 1.905766e-42
72.72810400 -16.15210000 419.62900000 0.66533399 -0.57892197 0.47135901 1.905766e-42
73.03510300 -14.96310000 420.94601000 0.67256898 -0.55149400 0.49346301 1.905766e-42
73.46089900 -13.48540000 421.88101000 0.68255299 -0.51942497 0.51411903 1.905766e-42
73.41000400 -12.25810000 423.19699000 0.68788999 -0.48919600 0.53618503 1.905766e-42
73.72380100 -10.68430000 424.01199000 0.69749898 -0.45422700 0.55423099 1.905766e-42
74.01619700 -9.05148030 424.71100000 0.70736998 -0.41822800 0.56983602 1.905766e-42
74.57959700 -7.34498980 424.60901000 0.72131902 -0.38132301 0.57818002 1.905766e-42
75.18049600 -5.93297000 425.54999000 0.73126101 -0.34236199 0.58995301 1.905766e-42
75.70500200 -4.22902010 425.79800000 0.74421197 -0.29967600 0.59694499 1.905766e-42
76.02880100 -2.54801010 426.35400000 0.75495601 -0.25680801 0.60339999 1.905766e-42
76.51020100 -0.81430399 426.40500000 0.76768100 -0.21249400 0.60457700 1.905766e-42
76.69969900 0.96817899 426.56900000 0.77857900 -0.16889900 0.60439003 1.905766e-42
76.77829700 2.64521000 427.21799000 0.78622299 -0.13077800 0.60394597 1.905766e-42
76.43280000 4.25561000 427.94400000 0.78834498 -0.10642600 0.60595900 1.905766e-42
76.32129700 6.05131010 427.99899000 0.78863299 -0.07530040 0.61023599 1.905766e-42
76.47670000 7.84012990 428.12500000 0.78494102 -0.03584910 0.61853302 1.905766e-42
75.91290300 9.29819010 429.01801000 0.77441800 0.00222248 0.63266999 1.905766e-42
75.73739600 11.08960000 429.01801000 0.76848900 0.04436400 0.63832301 1.905766e-42
75.17179900 12.62580000 429.76700000 0.75780398 0.08266320 0.64722401 1.905766e-42
74.97190100 14.40710000 429.60300000 0.75172502 0.12293000 0.64791799 1.905766e-42
74.43740100 16.11640000 429.78400000 0.74298400 0.16064900 0.64974302 1.905766e-42
74.39170100 17.88940000 429.47699000 0.73800403 0.19575299 0.64577901 1.905766e-42
74.33760100 19.63940000 429.05899000 0.73361999 0.22760800 0.64030999 1.905766e-42
74.06559800 21.38400100 428.70901000 0.72874701 0.25627801 0.63501900 1.905766e-42
73.27169800 22.99840000 428.76801000 0.72178602 0.27958000 0.63313502 1.905766e-42
72.64890300 24.68700000 428.79401000 0.71593499 0.29923201 0.63079101 1.905766e-42
72.14180000 26.27179900 428.10699000 0.71398699 0.31454799 0.62552601 1.905766e-42
71.47390000 27.84620100 428.66901000 0.70777100 0.32317200 0.62818801 1.905766e-42
70.89309700 29.53370100 428.43500000 0.70537102 0.32914600 0.62778503 1.905766e-42
69.89949800 30.96719900 428.88000000 0.69858801 0.33079600 0.63446802 1.905766e-42
68.62529800 32.03720100 429.56601000 0.68862700 0.33100399 0.64515901 1.905766e-42
67.36319700 33.07199900 430.32599000 0.67712897 0.33079499 0.65732098 1.905766e-42
66.43319700 34.60969900 430.42899000 0.66993803 0.32709000 0.66647899 1.905766e-42
65.87979900 36.31900000 430.32001000 0.65821302 0.33236700 0.67549098 1.905766e-42
65.44300100 38.06370200 430.39401000 0.64038497 0.34171101 0.68785203 1.905766e-42
64.29190100 39.44039900 430.53299000 0.62092298 0.35254201 0.70012099 1.905766e-42
62.82140000 39.86579900 431.48001000 0.60656399 0.36082500 0.70843899 1.905766e-42
61.28590000 40.49190100 432.18100000 0.58587700 0.37242699 0.71975398 1.905766e-42
59.84980000 40.94419900 433.16699000 0.56589502 0.38317701 0.73002601 1.905766e-42
58.37500000 41.65910000 433.91101000 0.54570001 0.39424899 0.73944497 1.905766e-42
56.89790000 42.46569800 434.54999000 0.52572203 0.40527600 0.74790901 1.905766e-42
55.42359900 43.26580000 435.20200000 0.50594199 0.41603199 0.75560498 1.905766e-42
53.94430200 43.94360000 435.97198000 0.48646101 0.42611799 0.76274401 1.905766e-42
52.70629900 45.24620100 435.86899000 0.46233901 0.44508901 0.76690203 1.905766e-42
51.40129900 46.48339800 435.79001000 0.43593600 0.46645099 0.76966399 1.905766e-42
50.06990100 47.69279900 435.85999000 0.40840501 0.48886201 0.77085602 1.905766e-42
48.79410200 48.96110200 435.79800000 0.38097900 0.51227802 0.76969200 1.905766e-42
47.93970100 50.30960100 434.96600000 0.35795400 0.53535497 0.76502502 1.905766e-42
46.96229900 51.74210000 434.48401000 0.33219999 0.56044298 0.75864798 1.905766e-42
45.84479900 53.13460200 434.25500000 0.30599999 0.58561403 0.75061297 1.905766e-42
45.11920200 54.56629900 433.44101000 0.28343999 0.61030400 0.73972303 1.905766e-42
44.51380200 55.95290000 432.46500000 0.26233199 0.63459802 0.72695702 1.905766e-42
43.88280100 57.30070100 431.45300000 0.24621101 0.65499097 0.71439898 1.905766e-42
43.22340000 58.64199800 430.45001000 0.23018700 0.67498797 0.70100302 1.905766e-42
43.34420000 59.81810000 429.09299000 0.21902400 0.69110399 0.68877000 1.905766e-42
43.32590100 61.00840000 427.74200000 0.20617600 0.70841300 0.67501301 1.905766e-42
43.07939900 62.23650000 426.45001000 0.19130901 0.72713000 0.65930402 1.905766e-42
