# .PCD v0.7 - Point Cloud Data file format
# 3 78 0
# 1 32 0
# 33 52 0
# 53 78 0
VERSION 0.7
FIELDS x y z normal_x normal_y normal_z curvature
SIZE 4 4 4 4 4 4 4
TYPE F F F F F F F
COUNT 1 1 1 1 1 1 1
WIDTH 78
HEIGHT 1
VIEWPOINT 0 0 0 1 0 0 0
POINTS 78
DATA ascii
30.32819900 -1.71813000 421.59601000 0.14876200 0.79270202 -0.59118003 1.905766e-42
29.67060100 -1.76691000 421.43201000 0.14263099 0.79619998 -0.58798099 1.905766e-42
28.53640000 -1.02824000 422.61801000 0.12246300 0.80732298 -0.57726401 1.905766e-42
27.50989900 -0.08798210 423.76001000 0.11027700 0.81738698 -0.56543601 1.905766e-42
26.99280000 0.99733502 425.09900000 0.11008200 0.82976300 -0.54715198 1.905766e-42
26.31489900 2.02097010 426.41599000 0.12238000 0.84609002 -0.51880002 1.905766e-42
25.31539900 2.75434990 427.72101000 0.13912100 0.84458202 -0.51703697 1.905766e-42
24.60180100 3.65618990 429.10501000 0.14427100 0.82644397 -0.54421997 1.905766e-42
24.64069900 4.73499010 430.54599000 0.14722300 0.80816400 -0.57025898 1.905766e-42
23.70990000 5.79234980 431.66599000 0.13625699 0.79480797 -0.59136701 1.905766e-42
23.13460000 6.95060010 432.91800000 0.12574799 0.79471397 -0.59381598 1.905766e-42
22.68960000 8.01070980 434.30301000 0.11870400 0.79740697 -0.59165102 1.905766e-42
22.22310100 8.98435970 435.74301000 0.11399300 0.80013698 -0.58888602 1.905766e-42
21.36840100 9.92817020 437.01599000 0.11076700 0.80379498 -0.58450300 1.905766e-42
20.44720100 10.97610000 438.15302000 0.11123300 0.81488001 -0.56885701 1.905766e-42
19.83460000 12.03530000 439.47299000 0.11704100 0.82591301 -0.55151498 1.905766e-42
18.82770000 13.00810000 440.60400000 0.12819099 0.83281201 -0.53850800 1.905766e-42
18.10790100 13.86080000 442.01700000 0.14437599 0.83628303 -0.52894801 1.905766e-42
17.43280000 14.89570000 443.32599000 0.16489200 0.81971198 -0.54852802 1.905766e-42
16.74740000 15.95660000 444.60800000 0.18357199 0.80175000 -0.56876999 1.905766e-42
16.63859900 16.97250000 446.09000000 0.20469899 0.78535998 -0.58421600 1.905766e-42
15.88360000 18.10820000 447.26501000 0.21551900 0.76746500 -0.60377902 1.905766e-42
15.90070000 19.23840000 448.66599000 0.23173700 0.75439203 -0.61415797 1.905766e-42
15.29110000 20.46839900 449.82999000 0.22881600 0.74184000 -0.63033003 1.905766e-42
14.80170000 21.65740000 451.09000000 0.22403200 0.73049802 -0.64512199 1.905766e-42
14.29470000 22.86949900 452.32001000 0.21678799 0.72289598 -0.65606701 1.905766e-42
14.28170000 24.10630000 453.62799000 0.21716601 0.71492100 -0.66462600 1.905766e-42
13.29320000 25.29150000 454.55399000 0.21061900 0.70773298 -0.67435402 1.905766e-42
12.45160000 26.52230100 455.56201000 0.20991801 0.69700098 -0.68565601 1.905766e-42
11.66440000 27.79210100 456.56601000 0.20960300 0.67091501 -0.71129400 1.905766e-42
11.16610000 29.12319900 457.67099000 0.20688599 0.65415603 -0.72751498 1.905766e-42
10.90460000 30.50530100 458.79401000 0.20336200 0.64263099 -0.73869401 1.905766e-42
11.22980000 31.82920100 459.96899000 0.20905200 0.63236201 -0.74593198 1.905766e-42
12.88880000 31.13340000 459.91000000 0.23407400 0.63584101 -0.73547000 1.905766e-42
14.46130000 30.28459900 459.69299000 0.26575699 0.64084601 -0.72020102 1.905766e-42
16.08569900 29.51470000 459.60101000 0.27565801 0.64935797 -0.70876497 1.905766e-42
17.71620000 28.75330000 459.56000000 0.28205600 0.65852201 -0.69770598 1.905766e-42
19.43560000 28.52610000 460.04099000 0.29336500 0.66270500 -0.68902802 1.905766e-42
21.08939900 27.87229900 460.32001000 0.30318001 0.66693401 -0.68064803 1.905766e-42
22.71620000 27.22870100 460.74399000 0.31271601 0.66869599 -0.67457700 1.905766e-42
24.36710000 26.51320100 460.69501000 0.32165101 0.66729403 -0.67175901 1.905766e-42
25.98210000 25.72920000 460.56500000 0.35642999 0.65705198 -0.66425902 1.905766e-42
27.42170000 24.73240100 460.14801000 0.39572799 0.64924002 -0.64952803 1.905766e-42
29.01230000 24.48220100 460.95300000 0.43145001 0.64928597 -0.62632197 1.905766e-42
30.52580100 23.71320000 461.55099000 0.40797800 0.66627198 -0.62420797 1.905766e-42
32.07730100 22.80769900 461.43900000 0.37566501 0.69206899 -0.61637402 1.905766e-42
33.63130200 21.95990000 461.11301000 0.28761199 0.72420400 -0.62674397 1.905766e-42
35.16770200 21.08580000 460.77301000 0.20412700 0.74029499 -0.64054298 1.905766e-42
36.78570200 20.34880100 460.49200000 0.19414900 0.73670501 -0.64774299 1.905766e-42
38.34660000 19.65080100 459.92999000 0.20554000 0.73357999 -0.64777702 1.905766e-42
38.93180100 18.30020000 458.89301000 0.21261699 0.73678601 -0.64182597 1.905766e-42
39.54810000 17.20389900 457.60599000 0.23514600 0.76279199 -0.60237497 1.905766e-42
40.41890000 16.23090000 456.36700000 0.28187799 0.76108402 -0.58420497 1.905766e-42
39.65160000 15.66880000 454.83899000 0.39657599 0.78365499 -0.47813401 1.905766e-42
39.02890000 15.01570000 453.28101000 0.56429601 0.74633998 -0.35291100 1.905766e-42
38.43980000 14.23630000 451.76901000 0.70675898 0.65830201 -0.25909299 1.905766e-42
37.59820200 13.38740000 450.42401000 0.79917902 0.56800503 -0.19667999 1.905766e-42
38.33250000 14.43440000 451.69000000 0.72754598 0.64471698 -0.23455700 1.905766e-42
37.50320100 15.51210000 450.51099000 0.80830199 0.58213103 -0.08815300 1.905766e-42
36.68759900 16.30979900 449.11899000 0.43459699 0.87880898 -0.19702800 1.905766e-42
36.53649900 15.96000000 447.35999000 0.32330501 0.88492000 -0.33524600 1.905766e-42
36.12319900 15.27380000 445.74799000 0.11520900 0.86242199 -0.49290600 1.905766e-42
35.74879800 14.11340000 444.42300000 0.07672480 0.82908499 -0.55383402 1.905766e-42
35.07980000 13.12120000 443.07901000 0.04666310 0.80579698 -0.59034997 1.905766e-42
35.08380100 12.12970000 441.57700000 0.08004200 0.77520502 -0.62661803 1.905766e-42
35.07680100 11.11720000 440.08801000 0.11302000 0.74511600 -0.65728801 1.905766e-42
35.03929900 9.90493970 438.75800000 0.12240800 0.74683702 -0.65364498 1.905766e-42
34.73339800 8.76801010 437.39700000 0.11131600 0.75801802 -0.64266503 1.905766e-42
34.25650000 7.70595980 436.02399000 0.10731100 0.76952302 -0.62953800 1.905766e-42
34.05670200 6.54642010 434.66199000 0.11447000 0.77876401 -0.61678499 1.905766e-42
33.54919800 5.50508020 433.28400000 0.11105800 0.79259199 -0.59955299 1.905766e-42
33.33860000 4.55287980 431.77100000 0.11079200 0.80859298 -0.57784301 1.905766e-42
32.62049900 3.71122000 430.35101000 0.09825170 0.82441700 -0.55738902 1.905766e-42
32.69760100 2.74712990 428.83301000 0.10067400 0.83931601 -0.53424001 1.905766e-42
32.49300000 1.56909000 427.48801000 0.10812700 0.83636999 -0.53739500 1.905766e-42
31.76460100 0.75549102 426.05701000 0.11924900 0.82073599 -0.55872297 1.905766e-42
30.91180000 -0.01520150 424.67200000 0.12398100 0.81029803 -0.57275200 1.905766e-42
30.37980100 -0.91394800 423.20599000 0.13390200 0.80094200 -0.58357698 1.905766e-42
