# .PCD v0.7 - Point Cloud Data file format
# 3 58 0
# 1 20 0
# 21 37 0
# 38 58 0
VERSION 0.7
FIELDS x y z normal_x normal_y normal_z curvature
SIZE 4 4 4 4 4 4 4
TYPE F F F F F F F
COUNT 1 1 1 1 1 1 1
WIDTH 58
HEIGHT 1
VIEWPOINT 0 0 0 1 0 0 0
POINTS 58
DATA ascii
41.391602 3.86568 447.03699 -0.0042956099 0.45063201 -0.89270002 1.9057659e-42
39.742599 3.20262 446.75299 0.109844 0.57241899 -0.81256998 1.9057659e-42
37.985802 3.4072599 446.418 0.202508 0.678482 -0.70615298 1.9057659e-42
36.236698 3.7581999 446.17899 0.28782201 0.74396801 -0.60305101 1.9057659e-42
34.576099 4.0228 445.53699 0.33563501 0.75816703 -0.55904502 1.9057659e-42
32.942402 3.98368 444.78201 0.352249 0.74290502 -0.56922102 1.9057659e-42
31.529699 3.9530699 443.66699 0.33037701 0.71742898 -0.61330801 1.9057659e-42
29.928801 3.9934199 442.845 0.28176099 0.71096998 -0.64430797 1.9057659e-42
28.200899 4.00209 442.341 0.231782 0.71848202 -0.65578997 1.9057659e-42
26.504499 3.96071 441.73999 0.183497 0.71921802 -0.67011499 1.9057659e-42
24.7889 3.8926499 441.20001 0.131487 0.71528202 -0.68635499 1.9057659e-42
23.040899 3.7463701 440.79599 0.076314799 0.70720297 -0.70288002 1.9057659e-42
21.244101 3.6902001 440.70401 0.025828 0.70049798 -0.71318698 1.9057659e-42
19.578699 3.1872399 440.242 -0.0200812 0.684448 -0.72878498 1.9057659e-42
17.7791 3.1880801 440.28 -0.066580899 0.68263 -0.72772503 1.9057659e-42
16.088301 2.6398001 439.996 -0.097195797 0.67439002 -0.73194999 1.9057659e-42
14.3095 2.3645799 439.98801 -0.127221 0.66772598 -0.733455 1.9057659e-42
13.2531 1.34561 439.302 -0.14926299 0.65939099 -0.73683399 1.9057659e-42
11.5696 1.62717 439.87399 -0.173366 0.65337998 -0.73691201 1.9057659e-42
9.8680601 1.7296 440.452 -0.20162199 0.64880502 -0.73375797 1.9057659e-42
8.2607603 2.02442 441.207 -0.230847 0.64794999 -0.72585899 1.9057659e-42
7.1056499 2.84288 442.31799 -0.243899 0.65459198 -0.71555799 1.9057659e-42
6.71276 4.0609398 443.58401 -0.245381 0.67301297 -0.69774002 1.9057659e-42
6.2152901 5.1922202 444.89301 -0.245373 0.69587702 -0.67494202 1.9057659e-42
6.4238 6.4878998 446.125 -0.23745801 0.71411198 -0.65852702 1.9057659e-42
6.4911399 7.6536498 447.49399 -0.227915 0.74194402 -0.63053501 1.9057659e-42
6.6631699 8.8537703 448.82501 -0.217198 0.76699197 -0.60377902 1.9057659e-42
6.5935202 9.9386702 450.26001 -0.211565 0.78638703 -0.58037502 1.9057659e-42
7.0560398 11.0014 451.63699 -0.21007399 0.804555 -0.55548102 1.9057659e-42
7.7905002 12.0466 452.905 -0.207397 0.83199799 -0.51455402 1.9057659e-42
8.32934 12.9379 454.37299 -0.208518 0.86308199 -0.46001199 1.9057659e-42
9.1130896 13.8286 455.72699 -0.20619901 0.89127398 -0.40387201 1.9057659e-42
9.6071997 14.5945 457.27899 -0.20933001 0.920093 -0.33107501 1.9057659e-42
9.8139696 15.0919 458.996 -0.234635 0.93713403 -0.258313 1.9057659e-42
10.5811 15.6314 460.53299 -0.26675999 0.943739 -0.195435 1.9057659e-42
11.5695 16.230499 461.91299 -0.298134 0.950257 -0.0901559 1.9057659e-42
12.8968 16.6565 463.05099 -0.304037 0.95134598 -0.050014801 1.9057659e-42
14.137 17.067499 464.289 -0.34402701 0.93860799 -0.025700299 1.9057659e-42
15.4511 17.746099 463.263 -0.120472 0.96063399 -0.25033799 1.9057659e-42
17.1828 17.5674 463.72101 0.0066474499 0.94373602 -0.330632 1.9057659e-42
18.3678 17.0725 462.45901 0.083141401 0.92883003 -0.36105701 1.9057659e-42
19.6882 16.543301 461.35599 0.112724 0.92624098 -0.35968101 1.9057659e-42
21.2325 15.9333 460.66101 0.149316 0.92324001 -0.35402301 1.9057659e-42
22.6768 15.2194 459.85901 0.15998299 0.928783 -0.334315 1.9057659e-42
24.0114 14.8043 458.724 0.15427101 0.91355997 -0.37630999 1.9057659e-42
25.5275 14.1756 457.98499 0.14499199 0.893794 -0.424393 1.9057659e-42
27.0534 13.6032 457.22101 0.072475798 0.87514001 -0.47841099 1.9057659e-42
28.4564 12.9857 456.27802 -0.011633 0.850806 -0.52534997 1.9057659e-42
29.7337 12.5819 455.07501 -0.086982399 0.81502998 -0.57285303 1.9057659e-42
31.303801 12.1646 454.29999 -0.14006799 0.76625699 -0.62708199 1.9057659e-42
32.546799 11.4199 453.23199 -0.171819 0.70445901 -0.68863398 1.9057659e-42
34.020901 10.864 452.362 -0.238823 0.63141102 -0.73775601 1.9057659e-42
35.170799 9.9448299 451.32599 -0.218154 0.54096299 -0.81226099 1.9057659e-42
36.340302 8.9360704 450.401 -0.187227 0.50130999 -0.844769 1.9057659e-42
37.660198 8.0523996 449.55499 -0.169875 0.48719701 -0.85661 1.9057659e-42
38.982899 7.0506501 448.85699 -0.130841 0.45450601 -0.881082 1.9057659e-42
40.7215 6.6310601 448.65399 -0.1092 0.414606 -0.90342498 1.9057659e-42
41.7887 5.40939 447.87399 -0.088836901 0.36477301 -0.92684901 1.9057659e-42
