# .PCD v0.7 - Point Cloud Data file format
# 3 120 0
# 1 54 0
# 55 103 0
# 104 120 0
VERSION 0.7
FIELDS x y z normal_x normal_y normal_z curvature
SIZE 4 4 4 4 4 4 4
TYPE F F F F F F F
COUNT 1 1 1 1 1 1 1
WIDTH 120
HEIGHT 1
VIEWPOINT 0 0 0 1 0 0 0
POINTS 120
DATA ascii
51.76960000 26.21719900 466.08801000 -0.21196499 0.68469799 -0.69732302 1.905766e-42
50.65470100 25.00810100 465.35699000 -0.21347000 0.69346303 -0.68814200 1.905766e-42
49.28979900 24.00009900 464.75601000 -0.21919200 0.70133501 -0.67829502 1.905766e-42
48.01459900 23.00190000 463.97000000 -0.22332200 0.70866799 -0.66926599 1.905766e-42
46.85319900 21.95159900 463.08200000 -0.22665000 0.71639401 -0.65985501 1.905766e-42
45.93970100 20.70179900 462.16400000 -0.21552201 0.71350801 -0.66667497 1.905766e-42
44.63180200 19.68400000 461.46100000 -0.21464799 0.71519101 -0.66515303 1.905766e-42
43.66719800 18.51619900 460.48901000 -0.20027199 0.71316200 -0.67178202 1.905766e-42
42.79600100 17.30080000 459.48700000 -0.16627400 0.72229302 -0.67130101 1.905766e-42
42.01089900 16.08499900 458.41699000 -0.13276701 0.73506200 -0.66487402 1.905766e-42
41.01170000 14.99370000 457.39200000 -0.10997300 0.75331199 -0.64840400 1.905766e-42
39.48109800 14.26270000 456.78900000 -0.10543300 0.77379501 -0.62459999 1.905766e-42
37.70809900 13.95310000 456.76401000 -0.10835000 0.78911299 -0.60461700 1.905766e-42
35.90869900 13.91280000 456.74500000 -0.10692300 0.80107599 -0.58893502 1.905766e-42
34.53010200 13.15950000 455.86600000 -0.09152780 0.81234401 -0.57595098 1.905766e-42
32.90029900 12.53620000 455.42401000 -0.07741140 0.82274598 -0.56311399 1.905766e-42
31.21670000 11.99670000 455.08600000 -0.06182480 0.83153099 -0.55202699 1.905766e-42
29.46130000 11.73500000 454.78601000 -0.04429630 0.83869201 -0.54280198 1.905766e-42
27.94260000 11.16040000 454.00900000 -0.02410670 0.84515399 -0.53397799 1.905766e-42
26.19280100 11.12720000 453.58801000 -0.00190636 0.84962499 -0.52738398 1.905766e-42
24.39870100 11.02670000 453.48199000 0.02115240 0.85165203 -0.52368098 1.905766e-42
22.85619900 10.42280000 452.77802000 0.04040710 0.85355002 -0.51944202 1.905766e-42
21.07670000 10.37340000 452.51099000 0.06102590 0.85408199 -0.51654500 1.905766e-42
19.39279900 10.27840000 451.88300000 0.07951300 0.85548800 -0.51168197 1.905766e-42
17.76219900 10.17520000 451.12701000 0.09594730 0.85780901 -0.50493401 1.905766e-42
15.99090000 10.21600000 450.81000000 0.10988300 0.85981500 -0.49864301 1.905766e-42
14.33360000 9.88897040 450.18799000 0.12111100 0.86406499 -0.48859400 1.905766e-42
12.66010000 9.56324010 449.61099000 0.12026300 0.86603999 -0.48529500 1.905766e-42
10.94450000 9.56145950 449.06601000 0.11831700 0.86864400 -0.48110199 1.905766e-42
9.30597970 9.57837010 448.32101000 0.11690900 0.87137800 -0.47648001 1.905766e-42
7.67548990 9.59794040 447.55899000 0.11606700 0.87392801 -0.47199300 1.905766e-42
5.88481000 9.58681010 447.37601000 0.11428000 0.87707800 -0.46655601 1.905766e-42
4.08517980 9.57841970 447.41199000 0.11438200 0.87988102 -0.46122199 1.905766e-42
2.73066000 9.12181000 446.31799000 0.12193200 0.87971401 -0.45960400 1.905766e-42
0.97089499 9.24940010 445.96100000 0.12996700 0.88207000 -0.45283699 1.905766e-42
-0.74049503 9.34471990 445.41199000 0.13743600 0.88388902 -0.44704801 1.905766e-42
-2.37274000 9.41765020 444.65701000 0.14289400 0.88691801 -0.43926999 1.905766e-42
-4.01734020 9.34360030 443.92899000 0.14608701 0.89134997 -0.42913100 1.905766e-42
-5.65649990 9.22659970 443.19400000 0.14731400 0.89692199 -0.41692999 1.905766e-42
-7.44414000 9.41915990 443.10901000 0.14602900 0.89796698 -0.41512799 1.905766e-42
-9.08092980 9.26402000 442.37601000 0.15097500 0.90428400 -0.39934400 1.905766e-42
-10.87550000 9.38953970 442.31601000 0.15921099 0.90423501 -0.39624500 1.905766e-42
-12.35370000 9.23995970 441.29999000 0.16981700 0.90993202 -0.37839901 1.905766e-42
-13.98410000 9.25209050 440.53699000 0.18310100 0.91260600 -0.36554599 1.905766e-42
-15.67810000 9.43138030 439.95599000 0.19851901 0.91331702 -0.35558599 1.905766e-42
-17.36440100 10.05460000 439.86499000 0.21386699 0.91075999 -0.35323700 1.905766e-42
-19.00830100 10.12870000 439.13501000 0.22215500 0.91221601 -0.34424999 1.905766e-42
-20.49640100 9.93356040 438.14200000 0.19897500 0.91104698 -0.36111301 1.905766e-42
-22.20949900 9.99398990 437.59201000 0.17763001 0.91137600 -0.37126899 1.905766e-42
-23.98710100 10.26750000 437.51901000 0.15274800 0.91530001 -0.37268400 1.905766e-42
-25.62280100 10.14400000 436.77802000 0.12969500 0.91869599 -0.37306401 1.905766e-42
-27.40539900 10.38290000 436.70700000 0.10085400 0.92535597 -0.36543801 1.905766e-42
-28.95439900 10.38760000 435.79001000 0.08177600 0.92841798 -0.36242601 1.905766e-42
-28.65760000 9.68050000 435.14001000 0.09233510 0.92445803 -0.36993399 1.905766e-42
-30.34110100 10.30450000 435.26801000 0.06512800 0.93141699 -0.35808000 1.905766e-42
-30.59499900 10.88870000 436.95200000 0.05827860 0.93115997 -0.35992199 1.905766e-42
-29.54520000 11.48200000 438.28799000 0.07195890 0.92366701 -0.37638000 1.905766e-42
-28.54390000 11.76740000 439.75601000 0.08835530 0.91342700 -0.39729699 1.905766e-42
-27.89030100 12.05650000 441.40900000 0.10211800 0.90036899 -0.42297599 1.905766e-42
-26.39880000 12.56090000 442.28101000 0.12994400 0.89110202 -0.43480101 1.905766e-42
-25.19910000 13.06250000 443.52499000 0.15653899 0.87948900 -0.44943899 1.905766e-42
-23.95940000 13.53950000 444.73999000 0.18660299 0.86959600 -0.45714599 1.905766e-42
-22.77770000 14.01600000 446.01199000 0.20786799 0.86803800 -0.45088899 1.905766e-42
-21.76689900 14.59110000 447.38501000 0.19318900 0.86839098 -0.45670101 1.905766e-42
-20.44319900 15.02050000 448.52701000 0.18264000 0.86384600 -0.46948099 1.905766e-42
-19.06360100 15.41970000 449.61200000 0.17445500 0.85667700 -0.48545799 1.905766e-42
-17.72550000 15.68450000 450.78699000 0.16764100 0.84730101 -0.50396103 1.905766e-42
-16.61070100 16.10940000 452.13501000 0.15912101 0.83577001 -0.52551699 1.905766e-42
-15.37450000 16.51910000 453.37701000 0.15282500 0.82116598 -0.54984599 1.905766e-42
-14.26670000 17.06290100 454.68799000 0.15084000 0.80429399 -0.57476801 1.905766e-42
-12.70270000 17.49410100 455.46701000 0.16086400 0.78994000 -0.59170699 1.905766e-42
-11.26130000 17.96920000 456.43500000 0.16700800 0.77694398 -0.60701400 1.905766e-42
-10.21540000 18.75740100 457.67001000 0.17067900 0.76291102 -0.62356699 1.905766e-42
-8.82559010 19.34750000 458.64999000 0.17386200 0.75646502 -0.63050199 1.905766e-42
-7.92807010 20.01149900 460.06201000 0.16672100 0.76186299 -0.62591398 1.905766e-42
-6.30953980 20.55740000 460.62900000 0.17180200 0.75750899 -0.62981302 1.905766e-42
-5.04214000 21.09890000 461.78699000 0.15760601 0.75594699 -0.63537699 1.905766e-42
-3.39429000 21.43140000 462.43100000 0.14847399 0.74890399 -0.64583099 1.905766e-42
-2.14810990 21.98259900 463.60699000 0.13638499 0.74329603 -0.65491301 1.905766e-42
-0.52443397 22.29430000 464.31799000 0.12863800 0.73442000 -0.66639298 1.905766e-42
1.16758000 22.57700000 464.86401000 0.12279700 0.72465801 -0.67807901 1.905766e-42
2.68117000 23.24399900 465.57401000 0.11464700 0.71455997 -0.69011599 1.905766e-42
3.94899990 24.11630100 466.50699000 0.11448900 0.70732599 -0.69755399 1.905766e-42
4.83728980 24.84480100 467.89301000 0.11231200 0.70248699 -0.70277798 1.905766e-42
6.56337980 25.17390100 468.28299000 0.12198200 0.69397199 -0.70959300 1.905766e-42
7.76936010 25.78160100 469.47299000 0.12377200 0.68750203 -0.71555698 1.905766e-42
9.34453010 26.35990000 470.12500000 0.13023800 0.67950600 -0.72201800 1.905766e-42
10.88230000 26.95859900 470.84399000 0.13619000 0.67143297 -0.72844303 1.905766e-42
12.22240000 27.85840000 471.64001000 0.13500901 0.66223502 -0.73703200 1.905766e-42
13.26520000 28.93300100 472.63901000 0.12171500 0.65123200 -0.74905401 1.905766e-42
14.51840000 29.76820000 473.62500000 0.10985300 0.63950300 -0.76090002 1.905766e-42
15.81160000 30.46400100 474.66599000 0.09817210 0.62867701 -0.77144498 1.905766e-42
16.87760000 31.26709900 475.87399000 0.08468900 0.61976600 -0.78020400 1.905766e-42
18.54780000 31.88139900 476.14401000 0.07759980 0.60762298 -0.79042602 1.905766e-42
19.82850100 32.90710100 476.88400000 0.06683000 0.59472197 -0.80114901 1.905766e-42
20.93880100 34.06399900 477.70200000 0.05173290 0.57882500 -0.81380898 1.905766e-42
22.39020000 34.88629900 478.37799000 0.03224020 0.56143200 -0.82689399 1.905766e-42
24.00869900 35.44900100 478.92899000 0.01157620 0.54578400 -0.83784598 1.905766e-42
25.18899900 36.55899800 479.71301000 -0.00942421 0.52690798 -0.84987003 1.905766e-42
26.11319900 37.88880200 480.49899000 -0.02947180 0.50760299 -0.86108702 1.905766e-42
27.38590000 39.03720100 481.04800000 -0.05304890 0.48898801 -0.87067598 1.905766e-42
28.62999900 40.23040000 481.56601000 -0.06071370 0.47914201 -0.87563503 1.905766e-42
30.27860100 40.90599800 481.82199000 -0.04968530 0.48204100 -0.87473899 1.905766e-42
32.06639900 41.11050000 481.86600000 -0.04281420 0.48908001 -0.87118697 1.905766e-42
33.73339800 40.53970000 481.49799000 -0.04759670 0.50442302 -0.86214399 1.905766e-42
35.34349800 39.90530000 481.00299000 -0.06268520 0.52340400 -0.84977603 1.905766e-42
37.06940100 39.56340000 480.62299000 -0.08970820 0.55085999 -0.82976300 1.905766e-42
38.39120100 38.61140100 479.85699000 -0.12686101 0.56675297 -0.81406200 1.905766e-42
38.84899900 37.42800100 478.58099000 -0.15897299 0.56842899 -0.80722702 1.905766e-42
40.21350100 36.53929900 477.81400000 -0.20107301 0.57149702 -0.79558903 1.905766e-42
41.05160100 35.37540100 476.72601000 -0.23120099 0.56823701 -0.78971702 1.905766e-42
41.89730100 34.18569900 475.67300000 -0.25625101 0.56717700 -0.78271699 1.905766e-42
43.09940000 33.28379800 474.68201000 -0.27382699 0.56201202 -0.78048801 1.905766e-42
44.49560200 32.56880200 473.79901000 -0.28085700 0.55645603 -0.78196901 1.905766e-42
45.49300000 31.52220000 472.72699000 -0.27119601 0.56201202 -0.78140599 1.905766e-42
46.57000000 30.53319900 471.67700000 -0.26123399 0.57696700 -0.77386498 1.905766e-42
47.43479900 29.43660000 470.54199000 -0.24539900 0.59743702 -0.76344597 1.905766e-42
48.53020100 28.53599900 469.43301000 -0.23175600 0.62310702 -0.74701202 1.905766e-42
49.90660100 27.94039900 468.43799000 -0.22499700 0.64797902 -0.72766697 1.905766e-42
51.25090000 27.31480000 467.41699000 -0.22616901 0.67690998 -0.70045799 1.905766e-42
