# .PCD v0.7 - Point Cloud Data file format
# 4 116 0
# 1 13 0
# 14 45 0
# 46 87 0
# 88 116 0
VERSION 0.7
FIELDS x y z normal_x normal_y normal_z curvature
SIZE 4 4 4 4 4 4 4
TYPE F F F F F F F
COUNT 1 1 1 1 1 1 1
WIDTH 116
HEIGHT 1
VIEWPOINT 0 0 0 1 0 0 0
POINTS 116
DATA ascii
2.3904099 -3.1326001 395.61801 -0.246271 -0.71447301 0.65488899 1.9057659e-42
3.7720699 -4.12181 395.02499 -0.24462099 -0.71532702 0.65457499 1.9057659e-42
5.1855202 -5.07512 394.44699 -0.24130701 -0.716124 0.65493298 1.9057659e-42
6.6308899 -5.9271698 393.79599 -0.23656701 -0.71698302 0.65572202 1.9057659e-42
8.3425703 -6.3323202 394.17801 -0.231097 -0.718288 0.65624499 1.9057659e-42
9.9499302 -7.1238198 394.005 -0.226098 -0.71933001 0.65684402 1.9057659e-42
11.5476 -7.8631001 393.629 -0.22120801 -0.71995002 0.65783 1.9057659e-42
13.2643 -8.0168304 394.14899 -0.21908 -0.72227901 0.65598601 1.9057659e-42
15.0155 -8.3696003 394.36899 -0.21636 -0.72354102 0.65549803 1.9057659e-42
15.6475 -8.7936497 393.595 -0.215059 -0.72092903 0.658795 1.9057659e-42
17.293699 -8.9563103 394.30499 -0.21162701 -0.72292602 0.65771699 1.9057659e-42
19.022499 -9.4537697 394.36401 -0.207269 -0.72154999 0.66061002 1.9057659e-42
20.7686 -9.5712099 394.785 -0.20211799 -0.720819 0.66299897 1.9057659e-42
22.5322 -9.7368202 395.10501 -0.198817 -0.71897203 0.66599602 1.9057659e-42
24.098801 -9.38591 395.91901 -0.195388 -0.71915799 0.66680998 1.9057659e-42
25.020201 -8.5485601 397.21899 -0.19166601 -0.72169399 0.66514802 1.9057659e-42
26.2064 -7.8190298 398.35999 -0.189238 -0.72313303 0.66428 1.9057659e-42
27.3657 -7.0153298 399.478 -0.188201 -0.72463399 0.66293699 1.9057659e-42
28.537001 -6.24575 400.60699 -0.188977 -0.72224802 0.66531599 1.9057659e-42
29.658199 -5.4386902 401.76099 -0.190943 -0.71936703 0.667871 1.9057659e-42
30.534201 -4.5495701 403.05801 -0.19010501 -0.71735501 0.67027003 1.9057659e-42
31.481001 -3.64626 404.29401 -0.183596 -0.71685302 0.67261797 1.9057659e-42
32.384201 -2.7302401 405.55301 -0.176616 -0.71601599 0.675372 1.9057659e-42
33.763401 -2.0122499 406.45999 -0.168466 -0.71499902 0.67852497 1.9057659e-42
34.837399 -1.20162 407.65601 -0.16311499 -0.71391898 0.68096501 1.9057659e-42
35.946701 -0.257967 408.71301 -0.15920199 -0.71303099 0.68281901 1.9057659e-42
36.632 0.64262098 410.11301 -0.158136 -0.71158397 0.68457299 1.9057659e-42
37.6413 1.57148 411.27899 -0.156918 -0.71067899 0.68579298 1.9057659e-42
38.6819 2.4785299 412.43399 -0.155664 -0.70978302 0.687006 1.9057659e-42
39.780499 3.3845899 413.535 -0.154036 -0.709032 0.68814701 1.9057659e-42
40.8773 4.2133799 414.69699 -0.152081 -0.70832098 0.68931299 1.9057659e-42
41.8148 5.1488099 415.91599 -0.150427 -0.70727497 0.69074798 1.9057659e-42
42.747799 6.1219702 417.10901 -0.148367 -0.70563799 0.69286501 1.9057659e-42
44.097599 6.8649302 418.039 -0.142988 -0.70551097 0.69412398 1.9057659e-42
44.756699 7.8968902 419.35901 -0.140314 -0.70404202 0.69615799 1.9057659e-42
45.991402 8.6662197 420.41901 -0.13026901 -0.70601499 0.69611299 1.9057659e-42
46.976501 9.6367397 421.57101 -0.126329 -0.70648098 0.69636601 1.9057659e-42
47.733101 10.7574 422.759 -0.126681 -0.70468998 0.69811398 1.9057659e-42
48.528198 11.8088 423.98499 -0.12860399 -0.70252001 0.69994801 1.9057659e-42
50.083302 12.3617 424.703 -0.125411 -0.70769 0.69530398 1.9057659e-42
50.890598 13.2876 426.01901 -0.137615 -0.70776403 0.69291598 1.9057659e-42
51.923199 14.2136 427.16599 -0.15772501 -0.71157199 0.684681 1.9057659e-42
53.173302 14.9351 428.241 -0.192671 -0.73258901 0.65283298 1.9057659e-42
54.165501 15.7936 429.474 -0.254345 -0.76574302 0.59071702 1.9057659e-42
55.589199 16.4517 430.35699 -0.334627 -0.80769598 0.48543999 1.9057659e-42
55.282902 16.696199 432.11401 -0.444152 -0.81717002 0.36737201 1.9057659e-42
54.6437 17.646601 433.50201 -0.548792 -0.78641999 0.28349599 1.9057659e-42
53.824799 18.7048 434.70599 -0.59470999 -0.73155999 0.33337599 1.9057659e-42
52.3503 19.690599 434.39999 -0.499751 -0.73701 0.45504501 1.9057659e-42
50.9431 20.812901 434.38101 -0.421942 -0.73322201 0.53324503 1.9057659e-42
49.784901 22.0448 434.99799 -0.376825 -0.73369497 0.56541502 1.9057659e-42
48.2295 22.928499 435.198 -0.29111099 -0.73913902 0.60739499 1.9057659e-42
46.479301 23.3489 435.189 -0.25696999 -0.72791803 0.63568997 1.9057659e-42
45.037601 24.3522 435.58301 -0.24310599 -0.72428203 0.64522499 1.9057659e-42
43.428501 25.101801 435.88101 -0.22612201 -0.72092301 0.65508699 1.9057659e-42
41.979401 26.0333 436.40302 -0.21493401 -0.72026497 0.65956199 1.9057659e-42
40.5718 26.962 437.03201 -0.21337201 -0.717067 0.66354197 1.9057659e-42
38.809299 27.227699 436.78101 -0.207615 -0.71126902 0.67155999 1.9057659e-42
37.618099 28.331301 437.55801 -0.208629 -0.71178699 0.67069602 1.9057659e-42
35.885201 28.8165 437.59698 -0.20507 -0.71259302 0.670937 1.9057659e-42
34.473499 29.834101 438.05701 -0.200945 -0.72068399 0.66350299 1.9057659e-42
32.957802 30.6814 438.53101 -0.196192 -0.73369002 0.650545 1.9057659e-42
31.2304 31.137699 438.74899 -0.19426399 -0.74670702 0.63615203 1.9057659e-42
29.622299 31.8225 439.17999 -0.190015 -0.76664501 0.61330998 1.9057659e-42
28.163099 32.611599 439.87799 -0.18152501 -0.79444599 0.57957298 1.9057659e-42
26.4221 33.060001 439.96899 -0.182716 -0.81407601 0.55126601 1.9057659e-42
24.7278 33.426102 440.453 -0.185766 -0.83697098 0.51475298 1.9057659e-42
23.0536 33.9128 440.00601 -0.197726 -0.84147501 0.50281602 1.9057659e-42
21.3011 34.322102 439.97198 -0.204843 -0.84934503 0.486469 1.9057659e-42
19.622601 34.503399 439.34698 -0.210967 -0.84179401 0.496865 1.9057659e-42
17.8461 34.7705 439.23401 -0.21278 -0.84250998 0.49487501 1.9057659e-42
16.0791 35.109402 439.18201 -0.204164 -0.84677601 0.49121001 1.9057659e-42
14.3651 35.243198 438.64801 -0.195022 -0.84155703 0.50373501 1.9057659e-42
12.5782 35.3699 438.47299 -0.18538401 -0.84351599 0.50409698 1.9057659e-42
10.922 35.503799 437.78 -0.178362 -0.837152 0.51707202 1.9057659e-42
9.1302299 35.5965 437.63599 -0.169707 -0.84235197 0.51151001 1.9057659e-42
7.41082 35.598801 437.103 -0.161662 -0.84054399 0.517061 1.9057659e-42
5.7905998 35.5159 436.32401 -0.15551899 -0.83322698 0.53061002 1.9057659e-42
4.0177898 35.522701 436.01199 -0.142968 -0.83981502 0.523709 1.9057659e-42
2.38381 35.3643 435.27399 -0.13771801 -0.83608502 0.53103298 1.9057659e-42
0.73090702 35.2262 434.57501 -0.13299 -0.83679801 0.53111398 1.9057659e-42
-0.86977899 34.990002 433.78601 -0.127381 -0.83382702 0.53712898 1.9057659e-42
-2.3550301 34.645302 432.82901 -0.124267 -0.82305801 0.554196 1.9057659e-42
-4.0466299 34.348099 432.29001 -0.114257 -0.82462901 0.55401498 1.9057659e-42
-5.59412 34.0051 431.43701 -0.115539 -0.81964898 0.56109399 1.9057659e-42
-6.6716299 33.496899 430.08801 -0.138202 -0.80054599 0.58311802 1.9057659e-42
-8.3905697 33.2771 429.60101 -0.150829 -0.81312698 0.56220502 1.9057659e-42
-9.2460003 32.713402 428.121 -0.193873 -0.78924799 0.58266699 1.9057659e-42
-8.9298897 31.579201 426.76001 -0.22289599 -0.75010097 0.62262899 1.9057659e-42
-8.8707304 30.385201 425.414 -0.242782 -0.72272801 0.64708602 1.9057659e-42
-7.5079098 29.323601 424.90799 -0.244241 -0.70445597 0.666399 1.9057659e-42
-6.5623899 28.082001 424.01199 -0.248919 -0.69024903 0.67940801 1.9057659e-42
-4.9892702 27.2579 423.71799 -0.246363 -0.68256199 0.68805099 1.9057659e-42
-3.83305 26.089701 422.98401 -0.24648701 -0.67684299 0.69363397 1.9057659e-42
-3.07744 24.889799 421.875 -0.247044 -0.67288399 0.69727701 1.9057659e-42
-2.3558199 23.5333 420.93799 -0.24696 -0.66952699 0.70053101 1.9057659e-42
-1.81133 22.225201 419.828 -0.24676199 -0.66692799 0.703076 1.9057659e-42
-1.2352099 20.922199 418.728 -0.245139 -0.665411 0.70507801 1.9057659e-42
-0.65522599 19.545601 417.72299 -0.24177501 -0.66530401 0.706339 1.9057659e-42
0.22582 18.251301 416.83499 -0.23707099 -0.67090201 0.70262903 1.9057659e-42
0.72547001 16.9307 415.71899 -0.233781 -0.67813098 0.69676799 1.9057659e-42
0.91893297 15.7031 414.41699 -0.23252 -0.68479902 0.69064099 1.9057659e-42
1.77281 14.4084 413.50299 -0.227026 -0.69041097 0.68686998 1.9057659e-42
1.94824 13.0792 412.302 -0.23052999 -0.69371301 0.68236202 1.9057659e-42
1.85662 11.8639 410.97699 -0.235127 -0.69426602 0.68022799 1.9057659e-42
1.69946 10.6757 409.63501 -0.238052 -0.69375098 0.67973602 1.9057659e-42
1.65812 9.3573904 408.41 -0.239594 -0.69383401 0.67910898 1.9057659e-42
1.60379 8.21453 407.01999 -0.240337 -0.69452399 0.678141 1.9057659e-42
1.56863 6.88586 405.806 -0.240475 -0.69575602 0.67682803 1.9057659e-42
1.67497 5.6031699 404.548 -0.241263 -0.69761902 0.67462599 1.9057659e-42
2.05814 4.2978501 403.36899 -0.24268299 -0.69914901 0.67253 1.9057659e-42
2.29299 3.01436 402.129 -0.244045 -0.70095903 0.67014802 1.9057659e-42
2.12356 1.7868 400.82401 -0.24470299 -0.70337898 0.66736698 1.9057659e-42
2.40238 0.53812599 399.55801 -0.245133 -0.70667201 0.66372102 1.9057659e-42
2.40012 -0.54686999 398.121 -0.24553099 -0.70993799 0.66007698 1.9057659e-42
2.3863399 -1.8726701 396.90399 -0.245832 -0.71249598 0.65720397 1.9057659e-42
