# .PCD v0.7 - Point Cloud Data file format
# 3 73 0
# 1 24 0
# 25 50 0
# 51 73 0
VERSION 0.7
FIELDS x y z normal_x normal_y normal_z curvature
SIZE 4 4 4 4 4 4 4
TYPE F F F F F F F
COUNT 1 1 1 1 1 1 1
WIDTH 73
HEIGHT 1
VIEWPOINT 0 0 0 1 0 0 0
POINTS 73
DATA ascii
29.17810100 13.24680000 496.11700000 -0.03458870 -0.40890801 0.91192001 1.905766e-42
28.01409900 13.44490000 496.01700000 0.00021704 -0.40667501 0.91357303 1.905766e-42
26.33740000 12.79950000 496.12701000 -0.00155582 -0.44277099 0.89663303 1.905766e-42
24.67499900 13.48570000 496.20300000 -0.02001700 -0.41683799 0.90876001 1.905766e-42
22.89930000 13.76780000 496.28799000 -0.04000960 -0.41570699 0.90861797 1.905766e-42
21.12080000 14.04310000 496.32300000 -0.05938650 -0.41616100 0.90734899 1.905766e-42
19.34770000 14.35110000 496.28699000 -0.07597450 -0.41381699 0.90718400 1.905766e-42
17.62509900 14.87230000 496.25601000 -0.08674380 -0.39358899 0.91518497 1.905766e-42
15.86680000 14.51440000 496.11301000 -0.10121200 -0.42866901 0.89777499 1.905766e-42
14.14090000 15.01850000 496.02899000 -0.11140500 -0.40785000 0.90622699 1.905766e-42
12.34400000 15.09250000 495.95401000 -0.11783800 -0.40392601 0.90717000 1.905766e-42
10.55160000 15.18540000 495.81699000 -0.12030200 -0.40215001 0.90763599 1.905766e-42
8.91744040 15.92090000 495.64801000 -0.12541500 -0.37287700 0.91936600 1.905766e-42
7.15389010 15.61800000 495.45300000 -0.15021101 -0.40879500 0.90017998 1.905766e-42
5.38130000 15.84250000 495.23499000 -0.17184700 -0.40636200 0.89740598 1.905766e-42
3.68998000 16.40930000 494.99399000 -0.18415000 -0.37606600 0.90810901 1.905766e-42
1.95846000 16.05150000 494.65701000 -0.18582299 -0.41560400 0.89036101 1.905766e-42
0.27576301 16.63810000 494.40302000 -0.19523799 -0.39686099 0.89687401 1.905766e-42
-1.48204000 16.79890100 494.05099000 -0.21310000 -0.39958999 0.89158100 1.905766e-42
-3.23727990 16.90010100 493.66501000 -0.22684500 -0.39905500 0.88842398 1.905766e-42
-4.97781990 16.73889900 493.23499000 -0.23251700 -0.41569901 0.87927800 1.905766e-42
-6.70149990 17.03560100 492.81000000 -0.24145100 -0.41745701 0.87603098 1.905766e-42
-8.41728020 16.83429900 492.30399000 -0.25474900 -0.44055000 0.86082399 1.905766e-42
-10.15510000 16.79100000 491.83701000 -0.26286501 -0.45583600 0.85036200 1.905766e-42
-11.85250000 17.18639900 491.38699000 -0.26457000 -0.46012101 0.84752101 1.905766e-42
-12.01230000 15.62120000 490.51300000 -0.27362201 -0.53909701 0.79655898 1.905766e-42
-11.25480000 14.16010000 489.78400000 -0.28760201 -0.59536499 0.75021702 1.905766e-42
-10.44300000 12.79050000 488.94400000 -0.28735599 -0.62930900 0.72207803 1.905766e-42
-9.73908040 11.37990000 488.07501000 -0.27610600 -0.64467198 0.71285599 1.905766e-42
-8.63082030 10.16570000 487.34201000 -0.26036000 -0.65601099 0.70842302 1.905766e-42
-7.71207000 8.89039040 486.46500000 -0.25410399 -0.67256099 0.69504899 1.905766e-42
-6.77469020 7.66859010 485.53299000 -0.25095499 -0.69161302 0.67726803 1.905766e-42
-5.73318000 6.47742990 484.67499000 -0.24557000 -0.71026701 0.65970999 1.905766e-42
-4.60828020 5.34098010 483.84799000 -0.23772100 -0.72599500 0.64530700 1.905766e-42
-3.86783000 4.13634010 482.73499000 -0.23516899 -0.74194503 0.62786400 1.905766e-42
-3.00149010 3.02885010 481.61099000 -0.23430701 -0.75214100 0.61594200 1.905766e-42
-1.72530000 1.97001000 480.91101000 -0.22828300 -0.75642699 0.61294800 1.905766e-42
-0.78055501 0.85888398 479.85599000 -0.22588199 -0.76189798 0.60703200 1.905766e-42
0.01948930 -0.07429800 478.54099000 -0.22464900 -0.77100599 0.59588802 1.905766e-42
1.21065000 -1.12612000 477.69501000 -0.21474300 -0.78313100 0.58360100 1.905766e-42
2.64644000 -2.07785010 477.17300000 -0.20236699 -0.79283297 0.57485902 1.905766e-42
3.78101990 -3.14952990 476.27600000 -0.19275600 -0.80469197 0.56152999 1.905766e-42
5.16564990 -3.87809990 475.38599000 -0.18676300 -0.81130302 0.55399197 1.905766e-42
6.30957980 -4.87798980 474.42099000 -0.18219700 -0.81861597 0.54467601 1.905766e-42
7.65700010 -5.81181000 473.67801000 -0.17562000 -0.82432097 0.53819400 1.905766e-42
8.49075980 -6.74012990 472.38101000 -0.17789900 -0.82940900 0.52955902 1.905766e-42
9.53892040 -7.60165980 471.19800000 -0.18143401 -0.83003598 0.52737302 1.905766e-42
10.69940000 -8.45242020 470.11600000 -0.18473300 -0.82557201 0.53320098 1.905766e-42
12.24800000 -9.25572970 469.67300000 -0.16755600 -0.82344198 0.54209602 1.905766e-42
13.38720000 -10.24720000 468.69400000 -0.15698799 -0.81169897 0.56258303 1.905766e-42
15.17990000 -10.39920000 468.63901000 -0.12953299 -0.80016899 0.58561999 1.905766e-42
15.95610000 -9.65279010 470.08200000 -0.11187400 -0.82433200 0.55494303 1.905766e-42
17.18709900 -9.02632050 471.23599000 -0.08129060 -0.82283503 0.56243598 1.905766e-42
18.45540000 -8.38531020 472.34100000 -0.07516780 -0.83178300 0.54998797 1.905766e-42
19.88990000 -7.62157010 473.11401000 -0.07878570 -0.83974302 0.53723800 1.905766e-42
21.24460000 -7.19100000 474.21899000 -0.08451610 -0.84153402 0.53355199 1.905766e-42
22.14030100 -6.60652020 475.66699000 -0.08128640 -0.83073002 0.55070901 1.905766e-42
23.29200000 -5.90255020 476.85699000 -0.07852780 -0.81965703 0.56744701 1.905766e-42
24.36940000 -5.13845010 478.07999000 -0.07301590 -0.80447900 0.58947599 1.905766e-42
25.43269900 -4.16742990 479.16000000 -0.06095980 -0.78842199 0.61210698 1.905766e-42
25.83230000 -3.23358990 480.64600000 -0.05027580 -0.77386802 0.63134903 1.905766e-42
26.26569900 -2.03060010 481.91299000 -0.04454880 -0.76542801 0.64197701 1.905766e-42
26.22960100 -0.99963200 483.38800000 -0.04410710 -0.75563300 0.65350902 1.905766e-42
26.38680100 0.18653300 484.73300000 -0.04086620 -0.74505800 0.66574597 1.905766e-42
26.50540000 1.39933000 486.05801000 -0.03464520 -0.73528302 0.67687500 1.905766e-42
27.03170000 2.68890000 487.19800000 -0.02137370 -0.72421598 0.68924201 1.905766e-42
27.20800000 3.87466000 488.54099000 -0.01458060 -0.70976400 0.70428902 1.905766e-42
27.82029900 5.13437990 489.67099000 -0.01434550 -0.69834203 0.71562099 1.905766e-42
28.02560000 6.33121010 491.00000000 -0.02280130 -0.68508703 0.72810400 1.905766e-42
28.02750000 7.63451000 492.24100000 -0.03144760 -0.67070597 0.74105603 1.905766e-42
28.85320100 8.87905980 493.24600000 -0.01880080 -0.64219803 0.76630801 1.905766e-42
29.37100000 10.23560000 494.31000000 -0.03108060 -0.59366202 0.80411398 1.905766e-42
29.57130100 11.63050000 495.42999000 -0.05050340 -0.51542997 0.85544199 1.905766e-42
