# .PCD v0.7 - Point Cloud Data file format
# 4 146 1
# 1 37 0
# 38 71 0
# 72 87 1
# 88 146 0
VERSION 0.7
FIELDS x y z normal_x normal_y normal_z curvature
SIZE 4 4 4 4 4 4 4
TYPE F F F F F F F
COUNT 1 1 1 1 1 1 1
WIDTH 146
HEIGHT 1
VIEWPOINT 0 0 0 1 0 0 0
POINTS 146
DATA ascii
45.71640000 -46.67260000 464.70599000 0.46316001 0.13335900 -0.87618399 1.905766e-42
44.63420100 -45.31090200 464.24301000 0.44862500 0.15139700 -0.88080400 1.905766e-42
43.47079800 -44.01250100 463.79501000 0.43156099 0.16985799 -0.88594800 1.905766e-42
42.26070000 -42.71040000 463.51199000 0.41219100 0.18946400 -0.89117998 1.905766e-42
40.83089800 -41.73270000 463.02200000 0.38746801 0.20686799 -0.89837301 1.905766e-42
39.45679900 -40.61489900 462.70200000 0.36003900 0.22695500 -0.90491098 1.905766e-42
37.95230100 -39.68349800 462.37201000 0.32705200 0.24646300 -0.91230100 1.905766e-42
36.62710200 -38.47029900 462.26300000 0.29282501 0.27242899 -0.91653502 1.905766e-42
35.01820000 -37.70290000 462.01300000 0.25295499 0.28795099 -0.92363298 1.905766e-42
33.33620100 -38.19250100 461.59900000 0.21409500 0.28021601 -0.93575799 1.905766e-42
32.18130100 -36.81409800 461.67899000 0.19490400 0.28746000 -0.93775201 1.905766e-42
30.39600000 -36.61150000 461.57199000 0.16202199 0.28084400 -0.94597799 1.905766e-42
29.80400100 -35.37419900 461.58701000 0.15897299 0.28992501 -0.94375402 1.905766e-42
28.11540000 -34.75090000 461.59500000 0.13848700 0.28652099 -0.94801199 1.905766e-42
26.33040000 -34.98300200 461.58801000 0.11363100 0.26975900 -0.95620000 1.905766e-42
24.81629900 -34.03580100 461.81201000 0.10568400 0.26934201 -0.95722800 1.905766e-42
23.13200000 -33.50920100 462.16699000 0.08895410 0.26824099 -0.95923603 1.905766e-42
21.34149900 -33.44039900 462.33801000 0.05876540 0.26398101 -0.96273601 1.905766e-42
20.41080100 -31.94899900 461.95200000 0.04752090 0.29083499 -0.95559198 1.905766e-42
18.66350000 -31.66150100 461.62900000 0.01844550 0.28834200 -0.95735002 1.905766e-42
17.47250000 -30.34350000 461.91901000 0.00447344 0.31491601 -0.94910902 1.905766e-42
15.91690000 -29.50149900 462.25201000 -0.01554760 0.33072799 -0.94359797 1.905766e-42
14.14080000 -29.24410100 462.39099000 -0.03723890 0.33271700 -0.94229102 1.905766e-42
12.34730000 -29.35479900 462.49701000 -0.05985550 0.33078599 -0.94180602 1.905766e-42
10.67120000 -28.83989900 462.90399000 -0.08274460 0.34712100 -0.93416297 1.905766e-42
8.87876990 -28.87570000 463.06500000 -0.11201400 0.34603801 -0.93150997 1.905766e-42
7.08645010 -28.93129900 463.22101000 -0.14465700 0.34362799 -0.92789799 1.905766e-42
5.61166000 -28.10280000 463.83600000 -0.17180300 0.35930201 -0.91727102 1.905766e-42
3.86581990 -28.09760100 464.27499000 -0.20644400 0.35579199 -0.91147798 1.905766e-42
2.35268000 -27.29250000 464.82401000 -0.23334600 0.36611599 -0.90083802 1.905766e-42
0.61475098 -27.38220000 465.28400000 -0.26733699 0.35731399 -0.89490598 1.905766e-42
-1.00079000 -26.90029900 465.91501000 -0.29502100 0.35973600 -0.88518500 1.905766e-42
-2.56443000 -26.41390000 466.66199000 -0.31977800 0.36394599 -0.87480599 1.905766e-42
-4.26943020 -26.52650100 467.22800000 -0.34545299 0.35612401 -0.86823899 1.905766e-42
-5.95073990 -26.76619900 467.82501000 -0.36544499 0.34748000 -0.86354297 1.905766e-42
-7.57766010 -26.51560000 468.55301000 -0.37602100 0.35223001 -0.85705400 1.905766e-42
-9.20013050 -26.88859900 469.23700000 -0.38045001 0.34744501 -0.85705298 1.905766e-42
-10.56910000 -26.26070000 470.22299000 -0.38547999 0.37570101 -0.84276497 1.905766e-42
-11.46550000 -25.12890100 471.29800000 -0.39178601 0.41748101 -0.81988603 1.905766e-42
-11.73130000 -23.62470100 472.25000000 -0.40060201 0.46184099 -0.79134101 1.905766e-42
-11.96430000 -22.16860000 473.28201000 -0.41078001 0.50220799 -0.76095200 1.905766e-42
-11.96130000 -20.68840000 474.30701000 -0.42118499 0.53699899 -0.73091400 1.905766e-42
-12.31800000 -19.40210000 475.51401000 -0.43429399 0.56739300 -0.69960999 1.905766e-42
-11.95920000 -17.92140000 476.47299000 -0.44084901 0.58872998 -0.67753202 1.905766e-42
-11.91510000 -16.53970000 477.62601000 -0.44572401 0.60568398 -0.65914899 1.905766e-42
-12.00060000 -15.26980000 478.89801000 -0.45351699 0.61973202 -0.64051098 1.905766e-42
-12.15580000 -14.03900000 480.20300000 -0.45793000 0.63971001 -0.61730897 1.905766e-42
-11.92380000 -12.77640000 481.46399000 -0.45484200 0.66762000 -0.58940798 1.905766e-42
-11.54920000 -11.56800000 482.74500000 -0.45189899 0.69499099 -0.55926299 1.905766e-42
-11.17130000 -10.39620000 484.05801000 -0.45029899 0.72071999 -0.52706099 1.905766e-42
-10.47800000 -9.07400990 485.06299000 -0.44416299 0.74347502 -0.49996400 1.905766e-42
-10.14010000 -7.98990010 486.45999000 -0.44504201 0.76442498 -0.46646699 1.905766e-42
-9.93416020 -7.06505010 487.98999000 -0.44308800 0.78901798 -0.42558599 1.905766e-42
-9.16765980 -5.96029000 489.18701000 -0.43002701 0.81516498 -0.38805100 1.905766e-42
-8.68826960 -5.05950020 490.67001000 -0.42160401 0.83955598 -0.34263000 1.905766e-42
-8.51216030 -4.33655980 492.30899000 -0.41356799 0.86089200 -0.29635599 1.905766e-42
-8.11855030 -3.72585010 493.95599000 -0.40198800 0.88075697 -0.25034401 1.905766e-42
-7.33937980 -2.84831000 495.32101000 -0.39112201 0.89527798 -0.21330900 1.905766e-42
-6.55888990 -2.23972010 496.82401000 -0.38837001 0.90245497 -0.18639700 1.905766e-42
-6.31020020 -1.84559000 498.56299000 -0.38892800 0.90732598 -0.15966800 1.905766e-42
-5.57729010 -1.44723000 500.15799000 -0.38720301 0.91141200 -0.13929100 1.905766e-42
-4.67007020 -0.67633200 501.50800000 -0.38313100 0.91520399 -0.12495100 1.905766e-42
-4.39861010 -0.31667599 503.25101000 -0.38515201 0.91655302 -0.10765300 1.905766e-42
-3.61892010 0.13534300 504.80899000 -0.37960199 0.92034698 -0.09414500 1.905766e-42
-2.60992000 0.80682999 506.13901000 -0.36706400 0.92594302 -0.08884560 1.905766e-42
-2.08237000 1.10397010 507.83499000 -0.36148199 0.92812002 -0.08901960 1.905766e-42
-2.03974010 1.19751000 509.63199000 -0.36587599 0.92540199 -0.09882230 1.905766e-42
-1.49473000 1.57693990 511.30499000 -0.35804600 0.92562199 -0.12258300 1.905766e-42
-1.71712010 1.53344000 513.09003000 -0.37196201 0.91495001 -0.15656200 1.905766e-42
-1.28596000 2.17619990 514.71503000 -0.35938901 0.91057903 -0.20417100 1.905766e-42
-0.99724603 2.79479000 516.38098000 -0.34497499 0.90399200 -0.25256699 1.905766e-42
0.09170980 3.61211990 517.55798000 -0.30051300 0.90949601 -0.28724399 1.905766e-42
1.85026000 3.96711990 517.41199000 -0.24699400 0.92772400 -0.27985999 1.905766e-42
3.48829010 4.39305020 516.79901000 -0.20559099 0.94333798 -0.26047200 1.905766e-42
5.25678010 4.72835020 516.80402000 -0.16600201 0.95326197 -0.25245801 1.905766e-42
7.03283020 5.01457020 516.86401000 -0.13181201 0.96092999 -0.24339201 1.905766e-42
8.81355950 5.23446990 517.00800000 -0.08643260 0.97186202 -0.21911900 1.905766e-42
10.50780000 5.31911990 517.60999000 -0.04151060 0.97903401 -0.19942300 1.905766e-42
12.28800000 5.57976010 517.66498000 -0.00910249 0.98500001 -0.17231201 1.905766e-42
13.90030000 5.63364980 518.46301000 0.02682650 0.98747700 -0.15546800 1.905766e-42
15.44570000 5.59461020 519.38501000 0.06035170 0.98827600 -0.14024200 1.905766e-42
16.98609900 5.59932990 520.31702000 0.10157700 0.98831201 -0.11367100 1.905766e-42
18.52479900 5.59429980 521.25098000 0.15189800 0.98630202 -0.06431190 1.905766e-42
19.87319900 5.41551020 522.42999000 0.18658701 0.98214602 -0.02397690 1.905766e-42
20.56320000 5.05144980 524.05200000 0.21664099 0.97623801 0.00504507 1.905766e-42
21.65220100 4.83888010 525.46899000 0.23430701 0.97146302 0.03686570 1.905766e-42
22.95190000 4.39711000 526.63300000 0.23852000 0.96878898 0.06750260 1.905766e-42
24.58300000 4.01761010 527.29303000 0.22751001 0.96950501 0.09109910 1.905766e-42
25.73170100 3.89090990 525.91302000 0.20374700 0.97485000 0.09030170 1.905766e-42
27.09079900 3.69584990 524.74902000 0.18250000 0.97874600 0.09354100 1.905766e-42
27.98119900 3.77743010 523.18701000 0.16377600 0.98224699 0.09147600 1.905766e-42
28.03019900 3.93000010 521.39398000 0.14749500 0.98561901 0.08246760 1.905766e-42
28.81650000 4.05379010 519.78003000 0.12897900 0.98821700 0.08240650 1.905766e-42
29.93059900 4.05044980 518.36603000 0.13216500 0.98822898 0.07704930 1.905766e-42
31.33239900 3.76725010 517.27301000 0.15102300 0.98619097 0.06796220 1.905766e-42
32.48030100 3.76178000 515.88599000 0.16481900 0.98483801 0.05411580 1.905766e-42
33.83200100 3.57263990 514.71301000 0.18040000 0.98274302 0.04088310 1.905766e-42
34.79600100 3.47301010 513.19598000 0.19130599 0.98128700 0.02185460 1.905766e-42
36.08589900 3.19562010 511.97198000 0.20480999 0.97879398 0.00396824 1.905766e-42
37.67490000 2.88718010 511.18399000 0.22032100 0.97535402 -0.01196470 1.905766e-42
39.42179900 2.45348000 511.17200000 0.24262500 0.96979702 -0.02505980 1.905766e-42
40.97060000 1.59038000 510.86099000 0.26381701 0.96353400 -0.04475000 1.905766e-42
42.10030000 1.31300000 509.48801000 0.28740799 0.95450199 -0.07951690 1.905766e-42
42.58960000 1.25033000 507.75601000 0.30751699 0.94462597 -0.11452500 1.905766e-42
43.96530200 0.57071000 506.81500000 0.33196101 0.93183100 -0.14660300 1.905766e-42
45.00050000 0.05712770 505.43500000 0.35628599 0.91649997 -0.18190099 1.905766e-42
45.78720100 -0.53187299 503.92700000 0.37828401 0.90027398 -0.21542400 1.905766e-42
47.25360100 -1.53364000 503.63400000 0.39677501 0.88675201 -0.23714900 1.905766e-42
47.63579900 -1.98796000 501.93500000 0.41499099 0.87021703 -0.26552799 1.905766e-42
48.76070000 -2.91965010 500.88300000 0.43816301 0.84975600 -0.29313600 1.905766e-42
49.83639900 -3.86195990 499.78900000 0.46219599 0.82702202 -0.32001400 1.905766e-42
50.48989900 -4.75633000 498.37100000 0.48415199 0.80355901 -0.34625199 1.905766e-42
51.88100100 -5.85158010 498.04599000 0.50917399 0.77901399 -0.36589500 1.905766e-42
53.16490200 -7.01843980 497.56601000 0.52853203 0.75745898 -0.38328701 1.905766e-42
54.10179900 -8.19328980 496.57501000 0.54583901 0.73398501 -0.40413600 1.905766e-42
55.14289900 -9.48219010 495.87201000 0.56298703 0.70908803 -0.42454699 1.905766e-42
56.11790100 -10.91850000 495.39600000 0.57931602 0.68320298 -0.44455200 1.905766e-42
56.52579900 -11.90890000 493.95001000 0.59406501 0.65667701 -0.46461001 1.905766e-42
56.89020200 -13.06370000 492.61801000 0.60899401 0.62955803 -0.48247600 1.905766e-42
57.59190000 -14.54580000 491.87601000 0.62044102 0.60715300 -0.49640501 1.905766e-42
57.70819900 -15.56030000 490.39301000 0.63038099 0.58925301 -0.50537199 1.905766e-42
58.42869900 -17.05040000 489.68600000 0.64049500 0.56654400 -0.51845402 1.905766e-42
58.51639900 -18.32189900 488.41501000 0.64402801 0.54324502 -0.53862101 1.905766e-42
58.49910000 -19.70420100 487.26199000 0.64843500 0.51881099 -0.55710602 1.905766e-42
58.38460200 -20.91220100 485.93301000 0.65179801 0.49528000 -0.57433099 1.905766e-42
58.34339900 -22.24990100 484.72900000 0.65684003 0.47001901 -0.58961397 1.905766e-42
58.72219800 -23.82550000 483.94501000 0.66562402 0.44153601 -0.60165602 1.905766e-42
58.43380000 -25.15060000 482.76199000 0.66135699 0.43127200 -0.61368799 1.905766e-42
58.61249900 -26.73030100 481.91699000 0.65759498 0.42091501 -0.62481898 1.905766e-42
58.24660100 -27.95990000 480.65500000 0.65098500 0.40623200 -0.64124399 1.905766e-42
58.52909900 -29.56300000 479.88699000 0.64678299 0.39254099 -0.65389800 1.905766e-42
58.28599900 -31.02640000 478.86700000 0.64284497 0.37609300 -0.66731101 1.905766e-42
58.05780000 -32.48720200 477.84000000 0.64001399 0.35822901 -0.67974502 1.905766e-42
57.62799800 -33.84360100 476.73801000 0.63817501 0.33904901 -0.69121599 1.905766e-42
58.01319900 -35.56840100 476.39600000 0.63662201 0.31869599 -0.70224297 1.905766e-42
57.58200100 -37.01150100 475.41101000 0.63398498 0.29296800 -0.71570498 1.905766e-42
57.41009900 -38.68610000 474.77301000 0.62623698 0.26212600 -0.73424602 1.905766e-42
56.50009900 -39.57759900 473.50201000 0.61800897 0.23788700 -0.74931598 1.905766e-42
55.56679900 -40.79230100 472.55600000 0.61082798 0.21466500 -0.76210803 1.905766e-42
54.25949900 -40.84719800 471.32001000 0.59961998 0.21101899 -0.77196300 1.905766e-42
52.90660100 -41.42279800 470.28201000 0.58655602 0.20503400 -0.78352600 1.905766e-42
51.67739900 -41.97810000 469.09000000 0.56693500 0.19925100 -0.79930198 1.905766e-42
50.49409900 -42.95800000 468.15201000 0.54646200 0.18628700 -0.81650198 1.905766e-42
49.16890000 -43.41690100 467.02399000 0.52064198 0.17847800 -0.83491200 1.905766e-42
48.38719900 -44.86060000 466.28601000 0.50399399 0.15718800 -0.84928298 1.905766e-42
47.12030000 -45.79779800 465.41599000 0.47781500 0.14093500 -0.86708099 1.905766e-42
