# .PCD v0.7 - Point Cloud Data file format
# 3 194 0
# 1 82 0
# 83 130 0
# 131 194 0
VERSION 0.7
FIELDS x y z normal_x normal_y normal_z curvature
SIZE 4 4 4 4 4 4 4
TYPE F F F F F F F
COUNT 1 1 1 1 1 1 1
WIDTH 194
HEIGHT 1
VIEWPOINT 0 0 0 1 0 0 0
POINTS 194
DATA ascii
83.58080300 2.16062000 440.17899000 0.60166597 -0.79090399 0.11166200 1.905766e-42
83.98619800 2.66844010 441.85800000 0.60280597 -0.78778797 0.12654901 1.905766e-42
84.79260300 3.65853000 443.12601000 0.60681802 -0.78225303 0.14089800 1.905766e-42
85.42800100 4.40548990 444.63599000 0.60816097 -0.77766299 0.15931299 1.905766e-42
85.32150300 4.72987990 446.40302000 0.60567600 -0.77533698 0.17891200 1.905766e-42
85.37879900 5.23466010 448.13000000 0.60369098 -0.77219999 0.19815300 1.905766e-42
84.66369600 4.99516010 449.76401000 0.60074502 -0.76977497 0.21575700 1.905766e-42
83.97399900 4.98399020 451.42700000 0.59731603 -0.76722002 0.23363800 1.905766e-42
83.99910000 5.52308990 453.14401000 0.59604102 -0.76238298 0.25200701 1.905766e-42
83.68820200 6.21652980 454.77600000 0.59457302 -0.75730598 0.27013299 1.905766e-42
82.94030000 5.82165000 456.36499000 0.58966500 -0.75561899 0.28519300 1.905766e-42
82.55310100 6.27791020 458.06201000 0.58723700 -0.75063300 0.30282399 1.905766e-42
81.75830100 6.25819020 459.67700000 0.58149803 -0.74851000 0.31873700 1.905766e-42
81.35720100 6.63562010 461.39099000 0.57815403 -0.74348903 0.33609900 1.905766e-42
80.79319800 7.13434980 463.02600000 0.57355201 -0.73862702 0.35421500 1.905766e-42
80.01039900 7.17446990 464.64600000 0.56434798 -0.73648697 0.37295899 1.905766e-42
79.39209700 7.76898000 466.22900000 0.55858302 -0.73058200 0.39272901 1.905766e-42
78.55989800 7.79658990 467.82501000 0.54898101 -0.72788101 0.41086301 1.905766e-42
77.69470200 7.97908020 469.39301000 0.53973299 -0.72442001 0.42884001 1.905766e-42
76.72139700 8.17967030 470.89301000 0.52772999 -0.72405201 0.44412801 1.905766e-42
76.34739700 8.88759990 472.50500000 0.51679701 -0.72420400 0.45656201 1.905766e-42
75.53559900 9.49061970 473.99500000 0.50608599 -0.72231299 0.47131801 1.905766e-42
74.77919800 9.90052990 475.57599000 0.49603599 -0.71918303 0.48654199 1.905766e-42
73.89540100 10.33300000 477.08301000 0.48584300 -0.71496397 0.50277501 1.905766e-42
73.05139900 11.00640000 478.52301000 0.47457400 -0.70862401 0.52214098 1.905766e-42
72.03410300 11.27170000 479.98401000 0.46273500 -0.70174998 0.54168499 1.905766e-42
71.20130200 12.20270000 481.28000000 0.45283100 -0.69189602 0.56233799 1.905766e-42
70.15989700 12.42230000 482.73199000 0.44147599 -0.68298000 0.58192599 1.905766e-42
69.07650000 12.79670000 484.12000000 0.43033299 -0.67300600 0.60156202 1.905766e-42
67.84300200 13.09480000 485.39600000 0.41878000 -0.66376603 0.61970800 1.905766e-42
67.15609700 14.10450000 486.71899000 0.41093999 -0.64859498 0.64066601 1.905766e-42
66.05960100 14.62400000 488.04800000 0.40063700 -0.63633299 0.65921998 1.905766e-42
64.95130200 15.21980000 489.33499000 0.38906801 -0.62289399 0.67869598 1.905766e-42
63.92969900 16.03890000 490.57001000 0.37827900 -0.60741800 0.69853300 1.905766e-42
63.11809900 17.01700000 491.84500000 0.36929500 -0.58975601 0.71819800 1.905766e-42
62.39500000 18.16980000 493.02301000 0.36170399 -0.57089698 0.73705298 1.905766e-42
61.46600000 19.25320100 494.12000000 0.35318601 -0.55346102 0.75428098 1.905766e-42
60.34349800 19.86960000 495.38501000 0.34267500 -0.54012197 0.76866299 1.905766e-42
59.19329800 20.71629900 496.48099000 0.33280200 -0.52628201 0.78247702 1.905766e-42
58.27220200 21.85969900 497.52200000 0.32554200 -0.51002997 0.79617298 1.905766e-42
57.12310000 22.72979900 498.60001000 0.31609499 -0.49747801 0.80783600 1.905766e-42
56.37020100 24.11650100 499.46600000 0.30898899 -0.47883201 0.82173300 1.905766e-42
55.17170000 24.86899900 500.57901000 0.29613900 -0.46563399 0.83395803 1.905766e-42
54.32519900 26.16939900 501.49100000 0.28764400 -0.44648799 0.84729499 1.905766e-42
53.09550100 27.12240000 502.39600000 0.27516201 -0.43141201 0.85916799 1.905766e-42
51.85760100 28.12789900 503.23099000 0.26276201 -0.41587999 0.87063199 1.905766e-42
50.85260000 29.31690000 504.13400000 0.25255501 -0.39730999 0.88224697 1.905766e-42
49.63159900 30.35660000 504.95200000 0.24031501 -0.38131401 0.89266402 1.905766e-42
48.44120000 31.53660000 505.60800000 0.22879300 -0.36447299 0.90267003 1.905766e-42
47.17190200 32.57820100 506.34500000 0.21661700 -0.34962201 0.91150498 1.905766e-42
45.71270000 33.35350000 507.05899000 0.20630400 -0.34193999 0.91679698 1.905766e-42
44.39300200 34.37830000 507.72900000 0.19623300 -0.33226699 0.92254603 1.905766e-42
43.06670000 35.43249900 508.33701000 0.18471900 -0.32350701 0.92802101 1.905766e-42
41.47660100 36.09809900 508.85501000 0.16753399 -0.32009301 0.93245500 1.905766e-42
39.72420100 36.04159900 509.26199000 0.14481200 -0.32384700 0.93496102 1.905766e-42
38.00050000 36.46009800 509.56799000 0.12232100 -0.32290900 0.93849200 1.905766e-42
36.21279900 36.42580000 509.77499000 0.09739710 -0.32575500 0.94042403 1.905766e-42
34.45130200 36.67739900 510.04700000 0.07311520 -0.32504699 0.94286698 1.905766e-42
33.04230100 37.73310100 510.42099000 0.05641960 -0.31723401 0.94666803 1.905766e-42
31.43479900 38.48460000 510.72299000 0.03838120 -0.31397399 0.94865602 1.905766e-42
29.89119900 39.37870000 510.96399000 0.02002390 -0.30908000 0.95082498 1.905766e-42
28.30520100 40.19739900 511.19699000 -0.00014772 -0.30400500 0.95267099 1.905766e-42
26.52689900 39.95010000 511.32501000 -0.02325380 -0.30513400 0.95202601 1.905766e-42
25.26700000 41.17839800 511.70401000 -0.04050950 -0.29506001 0.95462000 1.905766e-42
23.51420000 41.58750200 511.72601000 -0.06364320 -0.28955799 0.95504200 1.905766e-42
21.80810000 42.16059900 511.75299000 -0.08598050 -0.28165200 0.95565701 1.905766e-42
20.04000100 42.48600000 511.66299000 -0.10740200 -0.27429599 0.95562899 1.905766e-42
18.25350000 42.65940100 511.52899000 -0.12412400 -0.27038100 0.95471799 1.905766e-42
16.61910100 43.33639900 511.19601000 -0.13643700 -0.26679900 0.95404601 1.905766e-42
15.35670000 43.19870000 511.06900000 -0.14531100 -0.26696599 0.95268798 1.905766e-42
13.58520000 43.02190000 510.80301000 -0.16373099 -0.27228901 0.94818300 1.905766e-42
11.82240000 43.15060000 510.46301000 -0.18764800 -0.27924600 0.94170600 1.905766e-42
10.04470000 43.36600100 510.27899000 -0.21147600 -0.28380999 0.93527001 1.905766e-42
8.29129980 43.40039800 509.87399000 -0.23655200 -0.28920501 0.92757899 1.905766e-42
6.60050010 43.83219900 509.43301000 -0.26011699 -0.29032201 0.92089802 1.905766e-42
4.86781980 44.00490200 508.97699000 -0.28449601 -0.29217300 0.91307002 1.905766e-42
3.12519000 43.90210000 508.53799000 -0.30825600 -0.29440701 0.90460098 1.905766e-42
1.45627000 44.01919900 507.87399000 -0.33091900 -0.29437801 0.89656800 1.905766e-42
-0.27376100 43.90490000 507.39001000 -0.35205701 -0.29426399 0.88851798 1.905766e-42
-1.90749000 43.98090000 506.63800000 -0.37499401 -0.29503500 0.87882501 1.905766e-42
-3.53042010 44.41070200 505.98901000 -0.39528599 -0.29267099 0.87068498 1.905766e-42
-5.17894980 44.40459800 505.26599000 -0.41227400 -0.29378200 0.86239398 1.905766e-42
-6.75229980 44.22869900 504.41000000 -0.42494601 -0.29752699 0.85492599 1.905766e-42
-8.00735000 43.49580000 503.34799000 -0.43319699 -0.30929801 0.84656698 1.905766e-42
-8.07647990 41.74850100 502.92099000 -0.43592301 -0.33042699 0.83713198 1.905766e-42
-8.02509020 40.12559900 502.14401000 -0.43978199 -0.35282499 0.82589698 1.905766e-42
-8.14093970 38.46220000 501.46600000 -0.44481200 -0.37600899 0.81287098 1.905766e-42
-8.50193980 37.00600100 500.47198000 -0.45185199 -0.39940700 0.79768699 1.905766e-42
-8.88799950 35.53900100 499.50299000 -0.45375201 -0.41889000 0.78653699 1.905766e-42
-8.92113970 33.99679900 498.57501000 -0.45538899 -0.43768200 0.77527702 1.905766e-42
-9.33380990 32.60229900 497.51401000 -0.45818600 -0.45504200 0.76354599 1.905766e-42
-9.70814040 31.15130000 496.51700000 -0.46123001 -0.47172901 0.75149101 1.905766e-42
-9.86153030 29.66939900 495.50699000 -0.46413100 -0.48783001 0.73932701 1.905766e-42
-10.37100000 28.39510000 494.34201000 -0.46842799 -0.50278300 0.72648799 1.905766e-42
-10.54290000 27.03200000 493.17899000 -0.47223899 -0.51759100 0.71350503 1.905766e-42
-11.06220000 25.87299900 491.90399000 -0.47735199 -0.53147399 0.69976503 1.905766e-42
-11.31770000 24.53710000 490.72501000 -0.48196599 -0.54533601 0.68579698 1.905766e-42
-11.87980000 23.50400000 489.36200000 -0.48812300 -0.55807799 0.67103302 1.905766e-42
-12.12200000 22.11150000 488.24701000 -0.49326900 -0.57015198 0.65697300 1.905766e-42
-12.64990000 21.13069900 486.83301000 -0.50025201 -0.58084100 0.64216202 1.905766e-42
-13.00390000 19.95350100 485.51901000 -0.50700402 -0.59052902 0.62787199 1.905766e-42
-13.45880000 18.98049900 484.07401000 -0.51335800 -0.60072798 0.61285299 1.905766e-42
-13.56970000 17.67620100 482.83899000 -0.51366597 -0.61537302 0.59788197 1.905766e-42
-14.08990000 16.81629900 481.34500000 -0.51892900 -0.62622702 0.58185202 1.905766e-42
-14.44180000 15.72280000 479.95999000 -0.52202100 -0.63808900 0.56598198 1.905766e-42
-14.85830000 14.76090000 478.49600000 -0.52243298 -0.64744401 0.55487001 1.905766e-42
-15.26940000 13.86650000 476.98901000 -0.52322203 -0.65668398 0.54314399 1.905766e-42
-15.23950000 12.70540000 475.61401000 -0.52058798 -0.66841900 0.53122801 1.905766e-42
-15.50850000 11.78040000 474.09399000 -0.52093297 -0.67792898 0.51869202 1.905766e-42
-15.72220000 10.82280000 472.58499000 -0.52115202 -0.68724000 0.50606501 1.905766e-42
-16.05920000 10.00960000 471.01401000 -0.52300298 -0.69498098 0.49342501 1.905766e-42
-16.13489900 9.04432960 469.49701000 -0.52325702 -0.70315802 0.48142600 1.905766e-42
-16.01750000 7.96857020 468.05899000 -0.52237999 -0.71096498 0.47079501 1.905766e-42
-16.00709900 7.04316000 466.51501000 -0.52189302 -0.71659303 0.46273199 1.905766e-42
-15.93470000 5.83303020 465.18399000 -0.51973802 -0.72183299 0.45697901 1.905766e-42
-15.77260000 4.83320000 463.69601000 -0.51865798 -0.72611398 0.45138901 1.905766e-42
-15.94410000 4.31923010 461.98001000 -0.52065700 -0.72912002 0.44418499 1.905766e-42
-16.20900000 3.49583010 460.40100000 -0.51940000 -0.73567998 0.43474099 1.905766e-42
-16.19389900 2.37429000 458.99301000 -0.51453501 -0.74484199 0.42480999 1.905766e-42
-16.91400000 2.15276000 457.35901000 -0.52004099 -0.74660701 0.41489199 1.905766e-42
-17.08429900 1.27611010 455.79599000 -0.51832402 -0.75398898 0.40353599 1.905766e-42
-17.61720100 0.86299801 454.12701000 -0.52180201 -0.75763398 0.39206401 1.905766e-42
-17.77330000 -0.03555440 452.57501000 -0.51784199 -0.76448900 0.38392299 1.905766e-42
-18.51520000 -0.15675101 450.94000000 -0.51945198 -0.76573998 0.37922600 1.905766e-42
-18.88979900 -0.61237299 449.23901000 -0.51766002 -0.76993299 0.37313700 1.905766e-42
-19.28240000 -1.30615000 447.62500000 -0.51549101 -0.77431399 0.36702299 1.905766e-42
-19.68199900 -1.90039000 445.97400000 -0.51411998 -0.77785701 0.36141300 1.905766e-42
-20.08400000 -2.30037000 444.26501000 -0.51379502 -0.78034502 0.35647801 1.905766e-42
-20.51330000 -2.81668000 442.59500000 -0.51385200 -0.78227597 0.35213700 1.905766e-42
-20.81950000 -3.21492000 440.86700000 -0.51446497 -0.78343600 0.34864700 1.905766e-42
-20.64780000 -4.21055980 439.37701000 -0.51306403 -0.78507000 0.34703001 1.905766e-42
-19.74469900 -5.29186010 438.25699000 -0.50873798 -0.78716099 0.34865999 1.905766e-42
-18.32399900 -6.37425990 438.03299000 -0.49532801 -0.79537201 0.34933299 1.905766e-42
-16.88040000 -7.33584980 437.55200000 -0.47791299 -0.80619597 0.34877899 1.905766e-42
-15.40940000 -8.35280040 437.34698000 -0.45868099 -0.81741703 0.34848401 1.905766e-42
-13.94700000 -9.21951960 436.75500000 -0.43905500 -0.82798201 0.34882200 1.905766e-42
-12.47130000 -10.22850000 436.54401000 -0.41784301 -0.83895999 0.34864399 1.905766e-42
-10.94920000 -10.99840000 435.96899000 -0.39650300 -0.84908497 0.34905499 1.905766e-42
-9.41722970 -11.94340000 435.96701000 -0.37435299 -0.85964501 0.34766299 1.905766e-42
-7.75441980 -12.60310000 435.76801000 -0.35194799 -0.86973000 0.34598100 1.905766e-42
-6.20037980 -13.26810000 435.14899000 -0.32991400 -0.87844503 0.34567600 1.905766e-42
-4.57954980 -14.05030000 435.18301000 -0.30901399 -0.88712102 0.34282100 1.905766e-42
-2.89449000 -14.67920000 435.11200000 -0.28824201 -0.89546400 0.33920699 1.905766e-42
-1.19193010 -15.24770000 434.97800000 -0.26754299 -0.90349501 0.33483899 1.905766e-42
0.41046700 -15.80010000 434.37201000 -0.24620900 -0.91059798 0.33195099 1.905766e-42
2.13737990 -16.30690000 434.34100000 -0.22585900 -0.91829002 0.32516500 1.905766e-42
3.87502000 -16.76120000 434.22198000 -0.20535199 -0.92569900 0.31766599 1.905766e-42
5.54380990 -17.08330000 433.63000000 -0.18352300 -0.93231601 0.31161699 1.905766e-42
7.26584010 -17.58980000 433.76401000 -0.16463400 -0.93936902 0.30080101 1.905766e-42
9.03330040 -17.88270000 433.59000000 -0.14468700 -0.94611502 0.28970999 1.905766e-42
10.81210000 -18.15650000 433.56299000 -0.12935001 -0.95167702 0.27853000 1.905766e-42
12.57410000 -18.52409900 433.57700000 -0.11751600 -0.95644999 0.26719499 1.905766e-42
14.35660000 -18.77409900 433.56400000 -0.10220900 -0.96018201 0.26000801 1.905766e-42
16.14660100 -18.96369900 433.55399000 -0.08325180 -0.96289402 0.25672001 1.905766e-42
17.94479900 -19.04270000 433.57199000 -0.06409740 -0.96539301 0.25280100 1.905766e-42
19.73710100 -19.20220000 433.52600000 -0.04449990 -0.96767902 0.24822700 1.905766e-42
21.53620000 -19.19280100 433.58200000 -0.02514480 -0.96969402 0.24302600 1.905766e-42
23.33490000 -19.26079900 433.59500000 -0.00553609 -0.97145402 0.23716401 1.905766e-42
25.13320000 -19.18390100 433.60001000 0.01391540 -0.97293001 0.23068200 1.905766e-42
26.93090100 -19.14850000 433.68399000 0.03290240 -0.97411799 0.22363199 1.905766e-42
28.70999900 -18.96730000 433.88901000 0.05057850 -0.97500402 0.21635300 1.905766e-42
30.45089900 -18.80550000 434.31699000 0.06415930 -0.97532803 0.21122999 1.905766e-42
32.09890000 -18.73430100 433.59601000 0.08033350 -0.97507298 0.20683201 1.905766e-42
33.87690000 -18.48380100 433.72299000 0.09677730 -0.97449899 0.20244800 1.905766e-42
35.60789900 -18.36210100 434.20099000 0.11443300 -0.97299701 0.20045300 1.905766e-42
37.37509900 -18.07099900 434.38101000 0.13331100 -0.97118998 0.19752900 1.905766e-42
39.15399900 -17.79760000 434.35400000 0.15304101 -0.96903002 0.19380000 1.905766e-42
40.93550100 -17.54180000 434.38300000 0.17301500 -0.96648502 0.18966500 1.905766e-42
42.70710000 -17.22340000 434.37399000 0.19340301 -0.96351397 0.18503000 1.905766e-42
44.44929900 -16.77129900 434.39200000 0.21397600 -0.96011001 0.18000700 1.905766e-42
46.19580100 -16.34100000 434.45999000 0.23473600 -0.95625198 0.17458700 1.905766e-42
47.93119800 -15.89210000 434.62399000 0.25537300 -0.95198101 0.16887000 1.905766e-42
49.63510100 -15.48580000 435.03799000 0.27454701 -0.94765502 0.16301399 1.905766e-42
51.24729900 -14.76430000 434.69101000 0.29541600 -0.94262600 0.15551500 1.905766e-42
52.95130200 -14.38780000 435.13199000 0.30895400 -0.93877202 0.15249400 1.905766e-42
54.67100100 -13.85750000 435.16800000 0.32224199 -0.93465000 0.15030000 1.905766e-42
56.34730100 -13.20220000 435.19501000 0.33506900 -0.93054903 0.14767100 1.905766e-42
58.04539900 -12.60540000 435.21399000 0.34775901 -0.92635602 0.14466600 1.905766e-42
59.64569900 -11.78230000 435.25201000 0.36036199 -0.92207599 0.14111800 1.905766e-42
61.23730100 -10.95960000 435.42499000 0.37294999 -0.91771102 0.13680300 1.905766e-42
62.87340200 -10.47580000 435.99899000 0.38450599 -0.91372299 0.13139801 1.905766e-42
64.51540400 -9.73826030 436.00299000 0.40068299 -0.90714002 0.12864600 1.905766e-42
66.11019900 -8.90624050 436.06699000 0.41991299 -0.89846402 0.12820099 1.905766e-42
67.66639700 -8.01274010 436.20901000 0.43886501 -0.88951999 0.12708700 1.905766e-42
69.22789800 -7.35053010 436.81100000 0.45600399 -0.88107800 0.12554900 1.905766e-42
70.80600000 -6.48586990 436.85400000 0.47424999 -0.87173098 0.12317600 1.905766e-42
72.25180100 -5.68072990 437.56201000 0.48949400 -0.86357599 0.12096100 1.905766e-42
73.78749800 -4.77378990 437.80600000 0.50594503 -0.85449499 0.11772100 1.905766e-42
75.26629600 -3.86816000 438.28799000 0.52064902 -0.84605902 0.11449500 1.905766e-42
76.75910200 -2.86254000 438.27200000 0.53616703 -0.83694100 0.10979200 1.905766e-42
78.27899900 -1.90383010 438.37601000 0.55375803 -0.82560199 0.10832300 1.905766e-42
79.70179700 -0.80132002 438.37601000 0.57019198 -0.81459898 0.10634700 1.905766e-42
81.05149800 0.38955101 438.36801000 0.58475399 -0.80452299 0.10395000 1.905766e-42
82.43640100 1.13021000 439.24701000 0.59429401 -0.79715198 0.10659600 1.905766e-42
