# .PCD v0.7 - Point Cloud Data file format
# 4 106 0
# 1 17 0
# 18 52 0
# 53 79 0
# 80 106 0
VERSION 0.7
FIELDS x y z normal_x normal_y normal_z curvature
SIZE 4 4 4 4 4 4 4
TYPE F F F F F F F
COUNT 1 1 1 1 1 1 1
WIDTH 106
HEIGHT 1
VIEWPOINT 0 0 0 1 0 0 0
POINTS 106
DATA ascii
-6.84627010 0.29848799 458.03601000 0.38675299 0.76807702 -0.51037198 1.905766e-42
-7.05337000 0.20651600 457.59299000 0.38893899 0.77014202 -0.50557601 1.905766e-42
-8.28654000 1.15632000 458.49701000 0.40397099 0.75246203 -0.52020001 1.905766e-42
-8.67199040 2.48921990 459.64401000 0.42502299 0.72457302 -0.54254001 1.905766e-42
-8.81130030 3.63154010 461.02802000 0.44299600 0.69846600 -0.56204998 1.905766e-42
-9.14849000 4.86806010 462.29199000 0.46465501 0.67273098 -0.57578498 1.905766e-42
-10.15610000 6.07418010 463.16901000 0.46803501 0.67140901 -0.57459003 1.905766e-42
-10.24710000 7.35984990 464.42599000 0.45783600 0.68417102 -0.56771100 1.905766e-42
-10.57350000 8.70615960 465.57501000 0.44993600 0.70027298 -0.55423403 1.905766e-42
-11.07480000 9.91563990 466.81000000 0.44681501 0.71473002 -0.53806800 1.905766e-42
-11.85180000 11.19260000 467.81299000 0.45743901 0.71555102 -0.52795500 1.905766e-42
-12.58130000 12.33730000 468.99500000 0.46759400 0.70974100 -0.52689999 1.905766e-42
-12.68160000 13.55270000 470.31900000 0.47211000 0.70480502 -0.52949202 1.905766e-42
-12.88730000 14.68850000 471.70001000 0.48018500 0.69817799 -0.53100801 1.905766e-42
-13.31510000 15.95490000 472.90601000 0.48221001 0.69983399 -0.52697903 1.905766e-42
-13.89710000 17.21540100 474.05099000 0.48178899 0.70813501 -0.51616299 1.905766e-42
-14.76390000 18.40370000 475.08899000 0.48218101 0.72138798 -0.49709201 1.905766e-42
-15.10960000 19.61230100 476.37701000 0.47114500 0.74292099 -0.47549000 1.905766e-42
-14.05420000 19.89440000 477.80801000 0.44005501 0.75794601 -0.48152801 1.905766e-42
-12.80460000 20.00160000 479.09900000 0.40805399 0.76705700 -0.49509200 1.905766e-42
-12.01430000 20.49770000 480.63800000 0.37293401 0.78412098 -0.49605900 1.905766e-42
-10.64480000 20.75720000 481.77701000 0.34040299 0.78918999 -0.51117998 1.905766e-42
-9.48719980 21.21279900 483.07800000 0.30412799 0.79858202 -0.51939702 1.905766e-42
-8.89280990 21.57650000 484.73801000 0.26276499 0.81718701 -0.51299101 1.905766e-42
-7.51420020 22.05890100 485.79001000 0.23322000 0.82446700 -0.51561803 1.905766e-42
-6.31731990 22.50250100 487.05899000 0.20527300 0.83485401 -0.51076502 1.905766e-42
-4.80424980 22.81040000 487.98401000 0.18935101 0.83401603 -0.51823097 1.905766e-42
-3.98937010 23.38460000 489.48300000 0.15939300 0.85149902 -0.49954301 1.905766e-42
-2.90939000 23.93170000 490.81500000 0.13415401 0.86241102 -0.48810801 1.905766e-42
-1.93436000 24.51919900 492.20901000 0.10479100 0.87549198 -0.47173399 1.905766e-42
-0.90033501 25.15630000 493.53699000 0.06395850 0.87520802 -0.47950101 1.905766e-42
0.22099100 25.90539900 494.73001000 0.02155230 0.87134802 -0.49019101 1.905766e-42
1.35376000 26.68980000 495.88800000 -0.02066910 0.86557603 -0.50035101 1.905766e-42
2.51306010 27.48690000 497.01099000 -0.06203320 0.85774601 -0.51031703 1.905766e-42
3.26525000 28.27050000 498.44601000 -0.10005300 0.85263598 -0.51283699 1.905766e-42
4.70066020 29.07029900 499.18100000 -0.13632300 0.83886898 -0.52698600 1.905766e-42
5.11297990 29.91820000 500.71399000 -0.15913300 0.85243303 -0.49803099 1.905766e-42
6.47427990 30.75309900 501.54501000 -0.18102300 0.85284698 -0.48977900 1.905766e-42
7.40479990 31.63200000 502.81000000 -0.20386900 0.85924000 -0.46919399 1.905766e-42
8.09352970 32.40000200 504.28500000 -0.22656700 0.86766797 -0.44251499 1.905766e-42
9.18879030 33.34840000 505.35400000 -0.24882101 0.87014800 -0.42535901 1.905766e-42
10.05700000 34.15910000 506.70599000 -0.27362400 0.87149101 -0.40698001 1.905766e-42
10.95240000 35.03730000 507.99701000 -0.30195400 0.86443502 -0.40196601 1.905766e-42
12.27690000 36.02830100 508.70700000 -0.33305901 0.85205197 -0.40382999 1.905766e-42
13.17470000 36.99330100 509.93301000 -0.36025000 0.84299099 -0.39948100 1.905766e-42
14.07090000 38.02600100 511.10300000 -0.38575000 0.83286703 -0.39690101 1.905766e-42
15.02080000 39.00740100 512.27600000 -0.40930700 0.82183701 -0.39629701 1.905766e-42
15.56980000 39.77590200 513.80798000 -0.42332801 0.81486303 -0.39596799 1.905766e-42
16.46330100 40.91149900 514.88098000 -0.44409600 0.80545998 -0.39244401 1.905766e-42
17.39580000 42.01459900 515.95502000 -0.46443000 0.79672998 -0.38668701 1.905766e-42
18.03920000 43.08560200 517.25098000 -0.48201799 0.79111898 -0.37654901 1.905766e-42
19.02170000 44.16899900 518.29999000 -0.50212300 0.78273398 -0.36769599 1.905766e-42
20.29950000 45.24800100 518.96600000 -0.51987797 0.77217698 -0.36533499 1.905766e-42
20.51079900 44.67120000 517.27399000 -0.51046401 0.77082998 -0.38111401 1.905766e-42
20.66130100 43.88940000 515.65997000 -0.49331999 0.77314800 -0.39859501 1.905766e-42
20.68849900 43.06309900 514.06097000 -0.48117799 0.77609599 -0.40760499 1.905766e-42
21.03620000 42.36759900 512.43701000 -0.47409299 0.77893001 -0.41049200 1.905766e-42
20.80909900 41.55699900 510.84601000 -0.46915901 0.78545398 -0.40367401 1.905766e-42
21.29640000 40.82640100 509.27499000 -0.46789601 0.79361498 -0.38890600 1.905766e-42
21.25830100 40.10060100 507.62799000 -0.46942899 0.79311299 -0.38808399 1.905766e-42
21.43530100 39.30659900 506.02301000 -0.47014400 0.78348303 -0.40634900 1.905766e-42
21.48760000 38.52259800 504.40302000 -0.46774799 0.77029502 -0.43342501 1.905766e-42
21.35460100 37.62429800 502.84900000 -0.46343100 0.75462401 -0.46451500 1.905766e-42
21.96820100 36.91809800 501.31100000 -0.46022701 0.73679203 -0.49530599 1.905766e-42
22.24770000 36.06250000 499.75299000 -0.45980501 0.71967697 -0.52023500 1.905766e-42
22.71750100 35.16019800 498.26801000 -0.46668199 0.70661002 -0.53189301 1.905766e-42
23.19170000 34.23799900 496.79599000 -0.47826800 0.70413500 -0.52483702 1.905766e-42
23.34499900 33.34140000 495.24301000 -0.49107701 0.70641899 -0.50972199 1.905766e-42
23.68499900 32.50099900 493.68799000 -0.48985401 0.70252401 -0.51624000 1.905766e-42
24.49780100 31.66939900 492.31400000 -0.48736101 0.69008601 -0.53503299 1.905766e-42
24.66869900 30.88900000 490.70099000 -0.48451400 0.66878903 -0.56388599 1.905766e-42
24.81900000 29.83620100 489.24899000 -0.48046699 0.64120299 -0.59833902 1.905766e-42
25.75540000 28.99300000 487.96399000 -0.46844301 0.61306399 -0.63617098 1.905766e-42
26.23399900 28.01140000 486.53299000 -0.46105701 0.58490598 -0.66731697 1.905766e-42
26.89170100 26.95700100 485.23001000 -0.46014500 0.56388801 -0.68578202 1.905766e-42
27.37159900 25.81349900 483.92599000 -0.44705901 0.57618803 -0.68421102 1.905766e-42
27.81320000 24.62509900 482.64801000 -0.43311599 0.58714902 -0.68386102 1.905766e-42
28.16740000 23.31550000 481.46500000 -0.42495999 0.59583998 -0.68145698 1.905766e-42
28.50040100 22.08140000 480.19800000 -0.41977999 0.60201901 -0.67923301 1.905766e-42
28.67779900 20.96570000 478.79599000 -0.41706401 0.60587400 -0.67747700 1.905766e-42
27.60300100 19.63200000 478.24301000 -0.41278800 0.60979599 -0.67657602 1.905766e-42
26.10000000 18.64240100 478.28500000 -0.40028399 0.61941302 -0.67535198 1.905766e-42
24.79570000 17.45560100 477.92401000 -0.37933201 0.63371098 -0.67417902 1.905766e-42
23.40990100 16.33980000 477.65100000 -0.35197499 0.64956599 -0.67392701 1.905766e-42
21.93569900 15.34440000 477.37601000 -0.31862101 0.66572702 -0.67474997 1.905766e-42
20.68619900 14.17950000 476.80801000 -0.28466401 0.67973697 -0.67596102 1.905766e-42
19.19420100 13.25180000 476.41699000 -0.24789301 0.69394702 -0.67600697 1.905766e-42
17.66700000 12.37630000 476.04099000 -0.20794199 0.70749003 -0.67544001 1.905766e-42
16.32180000 11.34030000 475.44299000 -0.17060000 0.71314001 -0.67994601 1.905766e-42
15.47320000 10.04930000 474.51999000 -0.14441200 0.71434999 -0.68472600 1.905766e-42
13.99060000 9.28757950 473.84000000 -0.10427100 0.71799701 -0.68819201 1.905766e-42
12.33210000 8.81033990 473.32901000 -0.05990110 0.72047198 -0.69089198 1.905766e-42
10.77360000 8.11968990 472.75101000 -0.02610190 0.72295398 -0.69040298 1.905766e-42
10.01020000 6.94750980 471.61801000 -0.00633295 0.72038603 -0.69354498 1.905766e-42
8.58687970 6.24743990 470.76700000 0.02800170 0.72332299 -0.68994099 1.905766e-42
7.49922990 5.28562020 469.70300000 0.05819410 0.72767001 -0.68345499 1.905766e-42
6.14004990 4.54769990 468.78201000 0.09621820 0.73010099 -0.67653102 1.905766e-42
4.88312010 3.77146010 467.75400000 0.13108499 0.73204499 -0.66852599 1.905766e-42
3.95915010 2.77222990 466.57599000 0.15372400 0.73693299 -0.65825498 1.905766e-42
2.44789000 2.43233990 465.65900000 0.19151600 0.73475897 -0.65073198 1.905766e-42
1.60722010 1.58178000 464.31400000 0.21169400 0.75086701 -0.62560803 1.905766e-42
0.41059101 1.00326000 463.10001000 0.24502701 0.75823200 -0.60418999 1.905766e-42
-0.96902502 0.61606598 462.01001000 0.28265500 0.76075900 -0.58425301 1.905766e-42
-2.33450010 0.27323100 460.88901000 0.31814501 0.76210397 -0.56389898 1.905766e-42
-3.78362010 0.14470300 459.82901000 0.34997800 0.76292002 -0.54357100 1.905766e-42
-5.21426010 0.02206630 458.74301000 0.37411800 0.76496100 -0.52428001 1.905766e-42
