# .PCD v0.7 - Point Cloud Data file format
# 3 65 0
# 1 15 0
# 16 42 0
# 43 65 0
VERSION 0.7
FIELDS x y z normal_x normal_y normal_z curvature
SIZE 4 4 4 4 4 4 4
TYPE F F F F F F F
COUNT 1 1 1 1 1 1 1
WIDTH 65
HEIGHT 1
VIEWPOINT 0 0 0 1 0 0 0
POINTS 65
DATA ascii
16.14399900 50.58739900 329.28000000 0.11684100 0.45373899 0.88344198 1.905766e-42
14.80070000 51.69290200 328.81799000 0.13131601 0.45748201 0.87946999 1.905766e-42
13.13640000 51.31200000 329.38800000 0.16362201 0.45691299 0.87433302 1.905766e-42
11.45050000 51.94070100 329.43799000 0.19492100 0.45396701 0.86943603 1.905766e-42
9.69345000 52.00099900 329.82401000 0.20811900 0.45297500 0.86689103 1.905766e-42
7.95169020 51.97150000 330.27701000 0.25071901 0.45545700 0.85422403 1.905766e-42
6.31271980 52.70740100 330.38699000 0.29031801 0.45491400 0.84188402 1.905766e-42
4.65605020 53.36830100 330.62900000 0.32250401 0.45746300 0.82868499 1.905766e-42
2.98357010 53.89329900 331.03799000 0.35384101 0.46574199 0.81109899 1.905766e-42
0.80340201 55.02100000 331.19101000 0.40857300 0.47127301 0.78164500 1.905766e-42
-0.70563501 55.23260100 332.14899000 0.44423801 0.47201800 0.76147997 1.905766e-42
-2.27520990 55.96270000 332.64200000 0.46022901 0.47466099 0.75025702 1.905766e-42
-3.66409990 57.10250100 332.75201000 0.47856900 0.47614801 0.73773599 1.905766e-42
-5.19092990 57.76699800 333.43500000 0.51138002 0.48189601 0.71152401 1.905766e-42
-6.58416990 58.89950200 333.56299000 0.50650001 0.50020403 0.70231998 1.905766e-42
-7.65484000 58.30099900 334.88000000 0.48826200 0.53101701 0.69254702 1.905766e-42
-8.07087040 56.92319900 335.96100000 0.52249098 0.52532703 0.67159098 1.905766e-42
-7.28916980 55.46620200 336.67300000 0.55116802 0.50782198 0.66206598 1.905766e-42
-7.21726990 54.05580100 337.78900000 0.56616700 0.50560302 0.65101397 1.905766e-42
-7.20715000 52.58800100 338.83099000 0.56829000 0.49512801 0.65718699 1.905766e-42
-7.31912990 51.11800000 339.86301000 0.55624598 0.48798299 0.67265302 1.905766e-42
-6.58726980 49.59040100 340.47198000 0.54513800 0.49284899 0.67817801 1.905766e-42
-6.05992980 48.01490000 341.16501000 0.53457302 0.49804601 0.68277502 1.905766e-42
-5.58804990 46.46189900 341.94299000 0.52656698 0.50035799 0.68729103 1.905766e-42
-4.79798980 44.95780200 342.53799000 0.52803701 0.50182498 0.68509001 1.905766e-42
-4.03480010 43.42160000 343.08301000 0.53170401 0.50851500 0.67727602 1.905766e-42
-3.83490990 41.88449900 343.99799000 0.51915902 0.51607901 0.68127501 1.905766e-42
-3.04260990 40.39080000 344.61600000 0.52137703 0.52433801 0.67322701 1.905766e-42
-2.85254000 38.87929900 345.57401000 0.50376600 0.53548801 0.67784399 1.905766e-42
-2.52847000 37.40549900 346.55600000 0.48618799 0.55093199 0.67830300 1.905766e-42
-1.63215990 35.97280100 347.17599000 0.48021299 0.56892002 0.66762698 1.905766e-42
-1.61540000 34.51419800 348.23001000 0.45383701 0.58127099 0.67539299 1.905766e-42
-1.02285000 33.11629900 349.19699000 0.44680700 0.58353800 0.67812002 1.905766e-42
-0.72592503 31.63780000 350.17999000 0.43318400 0.58416700 0.68636799 1.905766e-42
0.20513199 30.24640100 350.84100000 0.45711499 0.58288300 0.67178398 1.905766e-42
0.79036802 28.78500000 351.71399000 0.45933500 0.58245802 0.67063701 1.905766e-42
1.55129000 27.31699900 352.42499000 0.46646601 0.58340800 0.66486400 1.905766e-42
2.78995990 26.04280100 352.71201000 0.48970601 0.58994001 0.64199603 1.905766e-42
3.66441010 24.61300100 353.36801000 0.48025700 0.59749800 0.64214402 1.905766e-42
4.58994010 23.17670100 353.93399000 0.44688299 0.60243398 0.66133898 1.905766e-42
5.98733000 22.05950000 354.13199000 0.41357499 0.61337501 0.67285001 1.905766e-42
7.52324010 21.12150000 354.10001000 0.38116601 0.62407398 0.68208802 1.905766e-42
9.11110020 20.27580100 354.15900000 0.35122499 0.63229603 0.69053799 1.905766e-42
10.41390000 20.78120000 353.02499000 0.34017801 0.64042097 0.68857801 1.905766e-42
10.48270000 22.03550000 351.73499000 0.34139499 0.64496797 0.68371499 1.905766e-42
10.45760000 23.32560000 350.48001000 0.33738700 0.65117502 0.67980999 1.905766e-42
10.41650000 24.55760000 349.16901000 0.33012301 0.65383899 0.68081802 1.905766e-42
10.40780000 25.91970100 347.99200000 0.32767099 0.64563799 0.68976998 1.905766e-42
10.43230000 27.24700000 346.77600000 0.32365501 0.63862300 0.69814599 1.905766e-42
10.41440000 28.59569900 345.58499000 0.32016599 0.63185799 0.70586801 1.905766e-42
10.55770000 29.91420000 344.36801000 0.31480700 0.61943001 0.71916801 1.905766e-42
10.85320000 31.19240000 343.13501000 0.30450201 0.60568702 0.73513401 1.905766e-42
11.13810000 32.50859800 341.94101000 0.29435501 0.59054601 0.75140601 1.905766e-42
11.22250000 33.94060100 340.85400000 0.28534001 0.58073300 0.76244998 1.905766e-42
11.80900000 35.11439900 339.62100000 0.26912299 0.57353598 0.77371103 1.905766e-42
12.02250000 36.55720100 338.56601000 0.25313199 0.56543702 0.78498697 1.905766e-42
12.01850000 38.04610100 337.55499000 0.23437300 0.55643302 0.79715198 1.905766e-42
12.65700000 39.35350000 336.49500000 0.21753301 0.53965598 0.81329697 1.905766e-42
13.44340000 40.58660100 335.44601000 0.20464800 0.52548301 0.82582498 1.905766e-42
13.60300000 42.12390100 334.52301000 0.19602300 0.51476300 0.83462203 1.905766e-42
14.60080000 43.25650000 333.54300000 0.18587600 0.50392801 0.84350902 1.905766e-42
15.16910000 44.69010200 332.61401000 0.17277700 0.49013400 0.85435098 1.905766e-42
15.85940000 46.09940000 331.73300000 0.15772600 0.47414899 0.86620200 1.905766e-42
16.65360100 47.33200100 330.68900000 0.14127100 0.45522600 0.87909698 1.905766e-42
16.26160000 48.98149900 330.08401000 0.12638400 0.45127699 0.88338900 1.905766e-42
