# .PCD v0.7 - Point Cloud Data file format
# 4 94 -3
# 1 27 1
# 28 59 0
# 60 80 0
# 81 94 0
VERSION 0.7
FIELDS x y z normal_x normal_y normal_z curvature
SIZE 4 4 4 4 4 4 4
TYPE F F F F F F F
COUNT 1 1 1 1 1 1 1
WIDTH 94
HEIGHT 1
VIEWPOINT 0 0 0 1 0 0 0
POINTS 94
DATA ascii
-5.80961990 24.72710000 455.64700000 -0.18996100 -0.87781799 0.43971699 1.905766e-42
-6.77399020 24.30360000 454.18799000 -0.17965500 -0.86824298 0.46247000 1.905766e-42
-7.07320980 23.39399900 452.66299000 -0.15792000 -0.86483902 0.47656599 1.905766e-42
-8.11614040 22.87960100 451.28900000 -0.15556900 -0.85385799 0.49671400 1.905766e-42
-8.42477040 21.94380000 449.78299000 -0.13967800 -0.84706497 0.51280701 1.905766e-42
-9.14766030 21.16099900 448.33200000 -0.13508500 -0.83274400 0.53692597 1.905766e-42
-9.64352990 20.25770000 446.85599000 -0.12477900 -0.81971002 0.55902201 1.905766e-42
-10.20460000 19.32620000 445.42200000 -0.11296700 -0.80593401 0.58112699 1.905766e-42
-11.10470000 18.53660000 444.07800000 -0.10707300 -0.78917098 0.60476798 1.905766e-42
-11.32090000 17.40220100 442.69699000 -0.09047810 -0.77868199 0.62086099 1.905766e-42
-12.02370000 16.42050000 441.36200000 -0.09052270 -0.76450199 0.63823402 1.905766e-42
-12.57410000 15.33800000 440.03400000 -0.08630100 -0.75163400 0.65390998 1.905766e-42
-12.99980000 14.20410000 438.70200000 -0.08057240 -0.73226899 0.67623299 1.905766e-42
-13.52400000 13.05260000 437.42200000 -0.07700590 -0.71349299 0.69641799 1.905766e-42
-13.75120000 11.77080000 436.17899000 -0.06847060 -0.69652700 0.71425599 1.905766e-42
-14.19300000 10.53520000 434.94699000 -0.06274810 -0.67581803 0.73439300 1.905766e-42
-14.63360000 9.26634030 433.74799000 -0.05594700 -0.65229702 0.75589597 1.905766e-42
-15.12490000 7.99192000 432.57599000 -0.04929450 -0.62877101 0.77602601 1.905766e-42
-15.17620000 6.55128000 431.49799000 -0.03977950 -0.60693097 0.79375899 1.905766e-42
-15.80860000 5.30369000 430.36499000 -0.03708120 -0.58056402 0.81336999 1.905766e-42
-15.74510000 3.75419000 429.45099000 -0.03123090 -0.55524600 0.83109897 1.905766e-42
-16.00340100 2.32639000 428.38599000 -0.02932420 -0.52958000 0.84775299 1.905766e-42
-15.95040000 1.41368000 427.86801000 -0.02793130 -0.51495099 0.85676497 1.905766e-42
-16.05559900 -0.13883799 426.96301000 -0.02546180 -0.49408400 0.86904103 1.905766e-42
-16.03630100 -1.73085000 426.12399000 -0.02055960 -0.46792001 0.88353199 1.905766e-42
-16.01000000 -3.33839010 425.31400000 -0.01137310 -0.43356299 0.90105098 1.905766e-42
-15.66660000 -4.95546010 424.60199000 -0.00011251 -0.43214700 0.90180302 1.905766e-42
-14.82450000 -6.42401980 423.98999000 0.00581390 -0.42870200 0.90342700 1.905766e-42
-13.02900000 -6.29728980 423.98499000 0.00265564 -0.43347400 0.90116203 1.905766e-42
-11.23280000 -6.34091000 423.87601000 0.00115350 -0.43383601 0.90099102 1.905766e-42
-9.43929960 -6.42795990 423.75101000 -0.00086308 -0.43107301 0.90231597 1.905766e-42
-7.64768980 -6.59004020 423.81299000 -0.00709157 -0.42594999 0.90471900 1.905766e-42
-6.00575020 -7.24808980 423.48001000 -0.01447280 -0.41924801 0.90775698 1.905766e-42
-4.21127990 -7.37556980 423.54001000 -0.01965620 -0.41672400 0.90881997 1.905766e-42
-2.55854990 -8.02174000 423.23801000 -0.02371060 -0.41159999 0.91105598 1.905766e-42
-0.76470798 -7.99989990 423.38501000 -0.02790640 -0.41326299 0.91018403 1.905766e-42
1.03092000 -7.90247010 423.46399000 -0.03258130 -0.41913399 0.90733898 1.905766e-42
2.62670990 -7.19215010 423.89899000 -0.04192290 -0.43239701 0.90070802 1.905766e-42
4.41980980 -7.03541990 423.88400000 -0.05012140 -0.44430500 0.89447200 1.905766e-42
5.91993000 -6.25623990 424.50201000 -0.08006720 -0.46080899 0.88388002 1.905766e-42
7.43529990 -5.49084000 425.10001000 -0.10930000 -0.47583401 0.87271702 1.905766e-42
8.97259040 -4.80928990 425.74301000 -0.13629700 -0.48780900 0.86224502 1.905766e-42
10.64540000 -4.33300020 426.20599000 -0.16129000 -0.49411699 0.85430300 1.905766e-42
12.12440000 -3.59130000 426.91501000 -0.18508600 -0.49722999 0.84764701 1.905766e-42
13.52260000 -2.86686990 427.78699000 -0.21051200 -0.49941000 0.84040099 1.905766e-42
15.12710000 -2.42374990 428.47198000 -0.24216600 -0.50410903 0.82899302 1.905766e-42
16.85020100 -2.82096000 428.80801000 -0.27721599 -0.49955800 0.82072699 1.905766e-42
18.58120000 -3.27571010 429.00000000 -0.30418700 -0.49529600 0.81372702 1.905766e-42
20.31690000 -3.62077000 429.32999000 -0.32406899 -0.49232799 0.80783200 1.905766e-42
21.72260100 -3.28747010 430.40302000 -0.34108400 -0.50024700 0.79587299 1.905766e-42
23.42470000 -3.72751000 430.79001000 -0.35991701 -0.49221599 0.79258001 1.905766e-42
25.11520000 -3.85767010 431.39401000 -0.37464300 -0.48853999 0.78801697 1.905766e-42
26.69129900 -4.47695020 432.00400000 -0.38878000 -0.48059100 0.78605503 1.905766e-42
28.18100000 -5.48570010 432.06100000 -0.40072101 -0.47268301 0.78485203 1.905766e-42
29.79369900 -5.64128020 432.84500000 -0.41598201 -0.47012001 0.77842599 1.905766e-42
31.32350000 -5.43131020 433.76999000 -0.41939700 -0.48902500 0.76482701 1.905766e-42
32.79819900 -5.17617990 434.76999000 -0.42494100 -0.51132202 0.74697798 1.905766e-42
34.44649900 -5.30005980 435.48300000 -0.42632499 -0.53185999 0.73169100 1.905766e-42
35.71720100 -4.86380000 436.68100000 -0.43763700 -0.55229300 0.70954001 1.905766e-42
36.68590200 -3.99713990 437.92599000 -0.45154801 -0.56622601 0.68955898 1.905766e-42
35.48600000 -2.70125010 438.27399000 -0.45633900 -0.56927198 0.68387502 1.905766e-42
34.34280000 -1.36270000 438.64999000 -0.45711499 -0.58355302 0.67120200 1.905766e-42
34.04670000 0.07963160 439.68500000 -0.45677301 -0.60942698 0.64804202 1.905766e-42
32.65990100 1.18108000 440.00800000 -0.45276099 -0.62772000 0.63322598 1.905766e-42
31.82180000 2.60337000 440.72501000 -0.44773501 -0.65324700 0.61057502 1.905766e-42
31.05979900 4.01265000 441.54501000 -0.44266200 -0.67207998 0.59359801 1.905766e-42
29.85570000 5.20812990 442.14600000 -0.43771499 -0.68867600 0.57804102 1.905766e-42
28.80530000 6.46479990 442.89301000 -0.42720801 -0.70778000 0.56261897 1.905766e-42
27.54470100 7.63351010 443.42700000 -0.41918999 -0.72338003 0.54863501 1.905766e-42
27.18569900 8.86528970 444.68900000 -0.41541499 -0.73835200 0.53128803 1.905766e-42
26.26330000 10.05090000 445.68100000 -0.41074499 -0.75322402 0.51375300 1.905766e-42
25.28780000 11.29460000 446.54199000 -0.40488800 -0.76933700 0.49415299 1.905766e-42
23.88069900 12.17480000 447.23901000 -0.39776301 -0.78571701 0.47374400 1.905766e-42
22.93720100 13.27940000 448.30200000 -0.38614699 -0.80494899 0.45049700 1.905766e-42
22.31060000 14.35750000 449.60001000 -0.37298799 -0.82377303 0.42693901 1.905766e-42
21.72020000 15.36620000 450.96899000 -0.35887101 -0.84168798 0.40345201 1.905766e-42
20.59960000 16.18569900 452.11401000 -0.33832100 -0.86004400 0.38192201 1.905766e-42
19.46520000 17.12260100 453.15100000 -0.32121101 -0.87563902 0.36066601 1.905766e-42
19.04520000 18.11010000 454.59601000 -0.31359100 -0.88851899 0.33495501 1.905766e-42
18.47590100 18.58429900 456.23700000 -0.30982199 -0.89677602 0.31591600 1.905766e-42
17.51520000 19.46870000 457.47601000 -0.31522301 -0.87674397 0.36325601 1.905766e-42
15.83540000 20.01730000 457.13300000 -0.32380599 -0.87419099 0.36185500 1.905766e-42
14.13680000 20.37929900 456.66000000 -0.33105701 -0.87138301 0.36206701 1.905766e-42
12.43870000 20.86689900 456.31601000 -0.30985600 -0.87401998 0.37427101 1.905766e-42
10.79740000 21.60160100 456.23599000 -0.28976199 -0.87735701 0.38246799 1.905766e-42
9.02279000 21.87039900 456.10001000 -0.26811099 -0.88282698 0.38565901 1.905766e-42
7.53106020 22.68380000 456.69400000 -0.24638100 -0.88999403 0.38367501 1.905766e-42
5.87849000 22.64550000 455.98199000 -0.22075801 -0.89590800 0.38550499 1.905766e-42
4.14633990 23.13299900 456.02701000 -0.19178399 -0.90254200 0.38553500 1.905766e-42
2.54925990 23.02910000 455.20300000 -0.16547200 -0.90458697 0.39286301 1.905766e-42
0.78434598 23.38209900 455.22501000 -0.14031900 -0.90703899 0.39697701 1.905766e-42
-0.96082503 23.75989900 455.45200000 -0.14279699 -0.90549397 0.39961201 1.905766e-42
-2.53601000 24.32010100 456.11899000 -0.15544800 -0.90178299 0.40326700 1.905766e-42
-4.22896000 24.79369900 456.50601000 -0.17854799 -0.89245802 0.41429499 1.905766e-42
