# .PCD v0.7 - Point Cloud Data file format
# 3 72 0
# 1 18 0
# 19 36 0
# 37 72 0
VERSION 0.7
FIELDS x y z normal_x normal_y normal_z curvature
SIZE 4 4 4 4 4 4 4
TYPE F F F F F F F
COUNT 1 1 1 1 1 1 1
WIDTH 72
HEIGHT 1
VIEWPOINT 0 0 0 1 0 0 0
POINTS 72
DATA ascii
30.01280000 19.52660000 475.36401000 -0.60593998 -0.61535698 0.50415599 1.905766e-42
29.57830000 19.15560000 474.91901000 -0.58795702 -0.63748902 0.49791101 1.905766e-42
28.42180100 19.67210000 473.64001000 -0.57944900 -0.61546201 0.53426999 1.905766e-42
27.39539900 19.31839900 472.20401000 -0.53346199 -0.63917202 0.55396402 1.905766e-42
26.27210000 18.88570000 470.86600000 -0.47065601 -0.64924502 0.59746403 1.905766e-42
24.96649900 18.62060000 469.65601000 -0.41691700 -0.64860398 0.63678300 1.905766e-42
23.52249900 18.41230000 468.60101000 -0.37655401 -0.64400703 0.66592902 1.905766e-42
21.96710000 18.38660000 467.69601000 -0.34443599 -0.62493700 0.70058298 1.905766e-42
20.34680000 18.35420000 466.91199000 -0.30511099 -0.60491198 0.73551899 1.905766e-42
18.62730000 18.36330000 466.38000000 -0.23445401 -0.59844899 0.76608700 1.905766e-42
16.89340000 18.37170000 465.89700000 -0.12680200 -0.61577803 0.77764899 1.905766e-42
15.10780000 18.39080000 465.67099000 -0.02227210 -0.60971099 0.79231101 1.905766e-42
13.30900000 18.35330000 465.61499000 0.05477700 -0.59309101 0.80326998 1.905766e-42
11.63990000 17.68050000 465.57599000 0.11837600 -0.60006398 0.79114503 1.905766e-42
9.98694990 18.26630000 465.98099000 0.18844099 -0.58991498 0.78516901 1.905766e-42
8.23336030 18.29730000 466.38599000 0.25923601 -0.57660002 0.77480900 1.905766e-42
6.62919000 17.64880000 466.88199000 0.32554501 -0.55567402 0.76501501 1.905766e-42
4.97539000 17.58930000 467.59000000 0.33447200 -0.55054098 0.76487499 1.905766e-42
3.74262000 16.31139900 467.29501000 0.29953000 -0.60331899 0.73911297 1.905766e-42
2.93581010 14.99240000 466.37399000 0.27002701 -0.66829002 0.69316298 1.905766e-42
2.15623000 13.73700000 465.34601000 0.24413300 -0.72309297 0.64617002 1.905766e-42
1.48424010 12.59020000 464.13199000 0.22722501 -0.75636202 0.61342001 1.905766e-42
1.38793000 11.40970000 462.77701000 0.20488200 -0.77769899 0.59431303 1.905766e-42
1.00114000 10.40300000 461.33499000 0.17731500 -0.80030000 0.57278103 1.905766e-42
0.86577702 9.24040990 459.96799000 0.15535299 -0.82290900 0.54652101 1.905766e-42
0.75179499 8.25897030 458.46301000 0.16263500 -0.84663498 0.50671399 1.905766e-42
0.13051701 7.44418000 456.98300000 0.17652600 -0.86135900 0.47633901 1.905766e-42
0.01482810 6.55299000 455.42401000 0.18698400 -0.86919498 0.45775199 1.905766e-42
-0.01774490 5.72707990 453.82501000 0.19166100 -0.86452901 0.46460301 1.905766e-42
0.21322100 4.81496000 452.29001000 0.20065300 -0.84922200 0.48842701 1.905766e-42
-0.01795880 4.04194020 450.68100000 0.20643800 -0.82021999 0.53350002 1.905766e-42
0.60740602 3.03063990 449.32999000 0.20958100 -0.78818798 0.57864898 1.905766e-42
0.59025002 1.94951000 447.89099000 0.20303001 -0.76123500 0.61587399 1.905766e-42
0.69307899 0.75812203 446.54599000 0.19657300 -0.73702598 0.64664698 1.905766e-42
0.71625698 -0.48137400 445.24100000 0.17982300 -0.70379901 0.68726301 1.905766e-42
0.75223500 -1.57252000 443.80899000 0.15215200 -0.65445501 0.74063402 1.905766e-42
1.43016000 -2.93417000 442.84698000 0.15991800 -0.61029899 0.77586102 1.905766e-42
3.15037990 -3.18902990 442.38199000 0.20337500 -0.63416100 0.74597502 1.905766e-42
4.88575980 -2.71122000 442.39401000 0.20099699 -0.64010298 0.74153101 1.905766e-42
6.33503010 -1.65768000 442.56601000 0.19702500 -0.63568699 0.74637997 1.905766e-42
7.07771020 -0.36071000 443.56900000 0.19587500 -0.64641398 0.73741603 1.905766e-42
8.14070030 0.77497500 444.47501000 0.16058300 -0.68548697 0.71015602 1.905766e-42
9.10188960 1.97293000 445.41299000 0.12433300 -0.72659099 0.67572701 1.905766e-42
10.22030000 3.03763010 446.33801000 0.09346800 -0.76395601 0.63846302 1.905766e-42
11.40170000 3.86290000 447.41699000 0.07878880 -0.79197299 0.60545099 1.905766e-42
13.02400000 4.50245000 447.86301000 0.07774580 -0.80649501 0.58610702 1.905766e-42
14.42150000 5.34886980 448.61899000 0.07125730 -0.82162899 0.56555200 1.905766e-42
15.62430000 6.00175000 449.78799000 0.06301550 -0.83383501 0.54840600 1.905766e-42
16.96120100 6.67415000 450.78799000 0.06827170 -0.83570200 0.54492301 1.905766e-42
18.14310100 7.58112000 451.79800000 0.06908460 -0.83252800 0.54965901 1.905766e-42
18.99189900 8.49057960 453.09900000 0.07146040 -0.82541299 0.55998898 1.905766e-42
19.94529900 9.34383010 454.36499000 0.03875670 -0.83395898 0.55046302 1.905766e-42
21.72839900 9.58881000 454.38800000 -0.02393270 -0.84956503 0.52693999 1.905766e-42
23.38920000 9.80189990 455.04800000 -0.08733870 -0.86471999 0.49460199 1.905766e-42
25.03230100 9.97523980 455.76199000 -0.13887000 -0.88079602 0.45267400 1.905766e-42
26.40029900 10.24530000 456.90100000 -0.14518000 -0.88464099 0.44309500 1.905766e-42
27.94339900 10.36230000 457.82001000 -0.14590800 -0.89096498 0.42998999 1.905766e-42
29.29810000 10.70430000 458.95499000 -0.15144899 -0.89471799 0.42017001 1.905766e-42
30.40070000 11.18290000 460.29501000 -0.16718800 -0.89750600 0.40808201 1.905766e-42
31.43619900 11.60770000 461.70401000 -0.18773100 -0.90144098 0.39007899 1.905766e-42
32.57109800 11.99530000 463.04700000 -0.20822500 -0.90628499 0.36781701 1.905766e-42
33.82600000 12.14360000 464.32800000 -0.23365600 -0.91056800 0.34098601 1.905766e-42
35.56090200 12.00930000 464.78900000 -0.26186001 -0.91018498 0.32092601 1.905766e-42
37.22020000 11.31150000 464.78101000 -0.28195101 -0.91014898 0.30353400 1.905766e-42
37.53369900 11.79740000 466.48599000 -0.30282700 -0.90309602 0.30448800 1.905766e-42
37.01300000 12.51730000 468.05099000 -0.31132901 -0.89016300 0.33269101 1.905766e-42
36.34320100 13.27990000 469.53799000 -0.31334901 -0.88380098 0.34742999 1.905766e-42
35.13079800 14.15750000 470.53799000 -0.33151999 -0.87497002 0.35287699 1.905766e-42
33.99200100 14.98250000 471.66101000 -0.36316800 -0.86311501 0.35091600 1.905766e-42
32.96839900 15.96850000 472.76599000 -0.41534701 -0.83720201 0.35578001 1.905766e-42
31.74410100 17.06740000 473.49600000 -0.47169900 -0.79208702 0.38742599 1.905766e-42
30.59470000 18.19050000 474.30701000 -0.53268898 -0.72373801 0.43868601 1.905766e-42
