# .PCD v0.7 - Point Cloud Data file format
# 3 116 0
# 1 47 0
# 48 73 0
# 74 116 0
VERSION 0.7
FIELDS x y z normal_x normal_y normal_z curvature
SIZE 4 4 4 4 4 4 4
TYPE F F F F F F F
COUNT 1 1 1 1 1 1 1
WIDTH 116
HEIGHT 1
VIEWPOINT 0 0 0 1 0 0 0
POINTS 116
DATA ascii
49.59730100 21.52210000 471.39099000 0.35014400 -0.61489600 0.70661300 1.905766e-42
48.83020000 22.57099900 472.63599000 0.34626701 -0.60569400 0.71640301 1.905766e-42
47.41910200 23.09760100 473.62201000 0.33194399 -0.60007697 0.72781903 1.905766e-42
45.98249800 23.50480100 474.62701000 0.31426299 -0.59360802 0.74085701 1.905766e-42
44.49480100 23.85100000 475.57901000 0.29561299 -0.58671302 0.75391001 1.905766e-42
42.85760100 23.94150000 476.32199000 0.27796999 -0.58264297 0.76371503 1.905766e-42
41.56309900 24.74920100 477.27701000 0.26262900 -0.57377398 0.77576399 1.905766e-42
40.04280100 25.22120100 478.11700000 0.24620099 -0.56537497 0.78723300 1.905766e-42
38.51459900 25.68479900 478.94699000 0.23019600 -0.55559099 0.79895502 1.905766e-42
36.94490100 26.11010000 479.71899000 0.21547000 -0.54561001 0.80986500 1.905766e-42
35.28110100 26.38559900 480.34799000 0.19965400 -0.54560500 0.81391197 1.905766e-42
33.81720000 27.08630000 481.12701000 0.18254501 -0.54296798 0.81967199 1.905766e-42
32.08309900 27.16980000 481.60199000 0.16010500 -0.54437399 0.82342201 1.905766e-42
30.78879900 28.17370000 482.34799000 0.14387600 -0.53738201 0.83097500 1.905766e-42
29.15910000 28.65290100 482.94299000 0.12255600 -0.53304899 0.83716100 1.905766e-42
27.39460000 28.73220100 483.29001000 0.10022200 -0.53077900 0.84156299 1.905766e-42
25.85689900 29.45780000 483.88101000 0.08043730 -0.52118099 0.84964699 1.905766e-42
24.07910000 29.55999900 484.14301000 0.05956170 -0.51668501 0.85410100 1.905766e-42
22.58630000 30.40860000 484.68301000 0.03867920 -0.50379997 0.86295402 1.905766e-42
20.96040000 31.17510000 484.77899000 0.01671380 -0.49257699 0.87010801 1.905766e-42
19.19610000 31.17930000 485.13501000 -0.00193845 -0.49491301 0.86894000 1.905766e-42
17.39930000 31.19420100 485.24100000 -0.02022950 -0.49686301 0.86759299 1.905766e-42
15.76340000 31.88940000 485.52499000 -0.03718930 -0.49471000 0.86826199 1.905766e-42
13.96640000 31.94370100 485.43500000 -0.05583480 -0.49173501 0.86895299 1.905766e-42
11.99400000 32.53139900 485.59900000 -0.08425870 -0.48499200 0.87045002 1.905766e-42
10.19950000 32.66680100 485.56299000 -0.10920300 -0.47907200 0.87095600 1.905766e-42
8.41839980 32.75719800 485.31900000 -0.13177700 -0.47336501 0.87095398 1.905766e-42
6.64593980 32.76770000 485.00601000 -0.15140100 -0.46882299 0.87022001 1.905766e-42
4.92498020 32.79359800 484.47900000 -0.16765501 -0.46638799 0.86854702 1.905766e-42
3.21454000 32.33810000 484.15201000 -0.18580300 -0.46977600 0.86301100 1.905766e-42
1.53570000 32.10940200 483.54401000 -0.20558099 -0.47240400 0.85707098 1.905766e-42
-0.04431670 31.51460100 482.92001000 -0.22334000 -0.47886300 0.84900498 1.905766e-42
-1.77566000 31.60320100 482.43500000 -0.24325500 -0.47740501 0.84434098 1.905766e-42
-3.39792990 31.19330000 481.77200000 -0.26088899 -0.48255000 0.83611101 1.905766e-42
-5.07911010 31.23329900 481.13000000 -0.27976400 -0.48312801 0.82964998 1.905766e-42
-6.72308020 30.93479900 480.45999000 -0.29835501 -0.48695001 0.82089198 1.905766e-42
-8.28983020 30.53120000 479.67200000 -0.31654999 -0.49167600 0.81120402 1.905766e-42
-9.92566970 30.40000000 478.93201000 -0.33640000 -0.49199900 0.80297703 1.905766e-42
-11.50600000 30.41780100 478.07001000 -0.35699901 -0.49012801 0.79518902 1.905766e-42
-12.95370000 29.81520100 477.18701000 -0.37150601 -0.49386200 0.78618300 1.905766e-42
-14.51100000 29.60490000 476.30899000 -0.38852599 -0.49521700 0.77705002 1.905766e-42
-16.03550000 29.41040000 475.37201000 -0.40748599 -0.49882099 0.76494002 1.905766e-42
-17.40749900 28.89060000 474.32901000 -0.42718300 -0.50782800 0.74808103 1.905766e-42
-18.89730100 28.78480000 473.32501000 -0.45206401 -0.51155001 0.73072201 1.905766e-42
-20.32189900 28.55660100 472.24799000 -0.45947701 -0.51768798 0.72171998 1.905766e-42
-21.57939900 28.01180100 471.08099000 -0.46415100 -0.52824098 0.71100301 1.905766e-42
-22.66869900 27.28730000 469.84500000 -0.46689001 -0.54281801 0.69811302 1.905766e-42
-24.06810000 27.25740100 468.71301000 -0.46748099 -0.55320400 0.68951201 1.905766e-42
-24.29050100 25.87970000 467.57599000 -0.47002399 -0.57792801 0.66714102 1.905766e-42
-24.12949900 24.49099900 466.44199000 -0.47004199 -0.61057901 0.63738000 1.905766e-42
-23.72640000 23.10990000 465.36099000 -0.47743699 -0.61936998 0.62324500 1.905766e-42
-23.30710000 21.73210000 464.28101000 -0.48167300 -0.62563401 0.61365497 1.905766e-42
-22.68350000 20.31979900 463.35501000 -0.48102701 -0.63091397 0.60873699 1.905766e-42
-21.79210100 18.95369900 462.59399000 -0.47266701 -0.64374298 0.60181499 1.905766e-42
-21.93210000 17.84339900 461.18500000 -0.47145599 -0.66055000 0.58429700 1.905766e-42
-21.12710000 16.49010100 460.31299000 -0.46003601 -0.67963201 0.57137299 1.905766e-42
-20.87700100 15.24780000 459.03400000 -0.45330599 -0.69667000 0.55602598 1.905766e-42
-20.25079900 13.99880000 457.89899000 -0.44242999 -0.71346402 0.54334599 1.905766e-42
-19.25110100 12.75840000 457.06100000 -0.42912501 -0.72960401 0.53247499 1.905766e-42
-18.60969900 11.54680000 455.89499000 -0.42031401 -0.74497402 0.51802403 1.905766e-42
-18.36829900 10.48380000 454.46301000 -0.41630399 -0.75924599 0.50023597 1.905766e-42
-17.74640100 9.34585000 453.21399000 -0.41033700 -0.77334601 0.48328099 1.905766e-42
-16.81290100 8.19738010 452.19000000 -0.40168899 -0.78663200 0.46888900 1.905766e-42
-16.42760100 7.32261990 450.66501000 -0.39776599 -0.79925501 0.45052600 1.905766e-42
-15.66490000 6.20854000 449.47400000 -0.38933900 -0.81211102 0.43461600 1.905766e-42
-14.96530000 5.15039010 448.19699000 -0.37781301 -0.82864398 0.41304499 1.905766e-42
-14.06980000 4.15609980 446.99301000 -0.36359799 -0.84597802 0.39002201 1.905766e-42
-13.34480000 3.25580000 445.61301000 -0.35108900 -0.86259401 0.36423501 1.905766e-42
-12.65570000 2.51415990 444.12500000 -0.33976099 -0.87831199 0.33634999 1.905766e-42
-11.82530000 1.67393990 442.76700000 -0.32649699 -0.89319700 0.30919001 1.905766e-42
-10.76430000 0.78488302 441.61600000 -0.30690199 -0.90970302 0.27973601 1.905766e-42
-10.10880000 0.31532699 440.00699000 -0.28773099 -0.92718399 0.23987600 1.905766e-42
-9.00111010 -0.46155301 438.82001000 -0.26397401 -0.94342703 0.20065799 1.905766e-42
-7.53926990 -0.88042003 437.85699000 -0.24207500 -0.95424801 0.17552599 1.905766e-42
-5.85273980 -1.24456000 438.37000000 -0.22605300 -0.95835203 0.17453399 1.905766e-42
-4.39721010 -1.52635000 439.39001000 -0.21320000 -0.95925999 0.18538199 1.905766e-42
-2.68157010 -1.61463000 439.92801000 -0.19497401 -0.96213800 0.19046000 1.905766e-42
-1.40847000 -1.76732000 441.19101000 -0.18087199 -0.96055901 0.21121600 1.905766e-42
0.34453499 -1.88894000 441.58099000 -0.15823300 -0.96346402 0.21610001 1.905766e-42
2.00349000 -2.07987000 442.25299000 -0.13825899 -0.96460801 0.22453400 1.905766e-42
3.61838010 -2.19844010 443.03900000 -0.12086300 -0.96465802 0.23415101 1.905766e-42
5.15610980 -2.18309000 443.97501000 -0.10667200 -0.96324801 0.24652600 1.905766e-42
6.86645980 -2.07228990 444.52499000 -0.09169320 -0.96334797 0.25209901 1.905766e-42
8.47793960 -2.06323000 445.32700000 -0.07598120 -0.96165699 0.26351801 1.905766e-42
10.22360000 -2.09220000 444.88901000 -0.05805090 -0.96533501 0.25447699 1.905766e-42
11.94570000 -2.21099000 445.39899000 -0.04256440 -0.96402901 0.26236701 1.905766e-42
13.61830000 -2.37939000 444.75500000 -0.03129000 -0.96660203 0.25436601 1.905766e-42
15.30870000 -2.22463990 445.35400000 -0.02037190 -0.96308798 0.26841399 1.905766e-42
16.43199900 -1.83464000 446.70599000 -0.01136960 -0.95599598 0.29315999 1.905766e-42
17.26350000 -1.34804000 448.22601000 -0.00282626 -0.94741201 0.32000500 1.905766e-42
17.69590000 -0.85851902 449.90302000 0.00520541 -0.93755299 0.34780499 1.905766e-42
18.44310000 -0.28009400 451.43600000 0.01433610 -0.92716300 0.37438500 1.905766e-42
18.82490000 0.41549700 453.05099000 0.02023170 -0.91581398 0.40109199 1.905766e-42
19.83610000 1.04100000 454.40302000 0.03025130 -0.90561301 0.42302501 1.905766e-42
21.04320000 1.65552000 455.58801000 0.04044440 -0.89430898 0.44561899 1.905766e-42
22.26720000 2.36569000 456.70001000 0.05138000 -0.88252902 0.46744299 1.905766e-42
23.19129900 3.10963990 458.05399000 0.05946570 -0.86782700 0.49329600 1.905766e-42
24.44549900 3.83292010 459.12399000 0.07282910 -0.85537201 0.51286900 1.905766e-42
25.86500000 4.51466990 459.99600000 0.08926830 -0.84451002 0.52804703 1.905766e-42
27.36179900 5.27831980 460.64099000 0.10776500 -0.83480000 0.53990400 1.905766e-42
28.77840000 6.05601980 461.43399000 0.12535501 -0.82432997 0.55205601 1.905766e-42
29.77010000 6.85764980 462.70401000 0.13774300 -0.81221902 0.56685799 1.905766e-42
31.38290000 7.59290980 463.01700000 0.15862501 -0.80478197 0.57198298 1.905766e-42
32.79090100 8.33170990 463.86099000 0.17711399 -0.79540497 0.57962197 1.905766e-42
34.09439800 9.16065980 464.78500000 0.19477600 -0.78671998 0.58577698 1.905766e-42
35.44319900 10.10290000 465.51501000 0.20929700 -0.77457100 0.59685498 1.905766e-42
37.02150000 10.96660000 465.56900000 0.22917201 -0.76878703 0.59703100 1.905766e-42
38.23650000 11.81980000 466.58600000 0.23951900 -0.75168598 0.61449099 1.905766e-42
39.75199900 12.73390000 466.91400000 0.25821701 -0.73979300 0.62131298 1.905766e-42
41.05460000 13.71690000 467.67401000 0.27299300 -0.72192597 0.63584399 1.905766e-42
42.49259900 14.68020000 468.16800000 0.29155499 -0.70624799 0.64514297 1.905766e-42
43.81570100 15.75540000 468.74500000 0.30443400 -0.68976498 0.65692103 1.905766e-42
45.28319900 16.79740000 468.77100000 0.31669900 -0.67760497 0.66374201 1.905766e-42
46.59569900 17.88410000 469.35101000 0.32557800 -0.66046000 0.67660302 1.905766e-42
47.78730000 19.06860000 469.99701000 0.33401400 -0.64303499 0.68915999 1.905766e-42
49.20579900 20.12830000 470.32101000 0.34180501 -0.62845802 0.69871998 1.905766e-42
