# .PCD v0.7 - Point Cloud Data file format
# 3 42 0
# 1 10 0
# 11 23 0
# 24 42 0
VERSION 0.7
FIELDS x y z normal_x normal_y normal_z curvature
SIZE 4 4 4 4 4 4 4
TYPE F F F F F F F
COUNT 1 1 1 1 1 1 1
WIDTH 42
HEIGHT 1
VIEWPOINT 0 0 0 1 0 0 0
POINTS 42
DATA ascii
15.13770000 6.63184020 444.79501000 0.15327500 0.85679698 -0.49234700 1.905766e-42
15.07210000 8.71341040 448.77100000 0.10534600 0.87472600 -0.47302899 1.905766e-42
15.08550000 9.57674030 450.35101000 0.12528600 0.87152499 -0.47407499 1.905766e-42
15.06380000 10.43440000 451.93301000 0.13192400 0.87414300 -0.46740699 1.905766e-42
15.02170000 11.32270000 453.49799000 0.13829000 0.87298697 -0.46772701 1.905766e-42
14.75280000 12.17580000 455.06000000 0.11819500 0.87296897 -0.47323900 1.905766e-42
14.38080000 13.00480000 456.61401000 0.12338800 0.85965902 -0.49574301 1.905766e-42
14.21420000 13.93360000 458.14700000 0.14715099 0.83897603 -0.52389598 1.905766e-42
14.28720000 14.98460000 459.60599000 0.14713000 0.82857901 -0.54019397 1.905766e-42
14.18930000 15.98180000 461.10101000 0.12807199 0.82676202 -0.54777902 1.905766e-42
13.69090000 16.91210000 462.56000000 0.04013610 0.86775500 -0.49537000 1.905766e-42
14.42750000 17.63320000 464.03500000 0.01830300 0.88504899 -0.46513700 1.905766e-42
16.05299900 17.77090100 464.79599000 0.05624420 0.87570202 -0.47956499 1.905766e-42
17.84210000 17.91280000 464.93399000 0.14335200 0.82357299 -0.54879701 1.905766e-42
19.48300000 18.11479900 465.64600000 0.11780900 0.80195099 -0.58565801 1.905766e-42
21.27580100 18.05220000 465.79401000 0.07343320 0.78710002 -0.61243898 1.905766e-42
22.95500000 18.36669900 466.36099000 -0.02272610 0.77916300 -0.62640899 1.905766e-42
24.74630000 18.51149900 466.25900000 -0.08364380 0.75167501 -0.65420800 1.905766e-42
26.51129900 18.82720000 466.41699000 -0.13325900 0.74251300 -0.65644300 1.905766e-42
28.25560000 19.26680000 466.48199000 -0.16642000 0.73784101 -0.65413702 1.905766e-42
29.99010100 19.74000000 466.56900000 -0.16067100 0.72412503 -0.67069203 1.905766e-42
31.56130000 20.37420100 467.17599000 -0.15823200 0.73105502 -0.66371799 1.905766e-42
33.31810000 20.76580000 467.15799000 -0.13250899 0.72231799 -0.67874801 1.905766e-42
35.09619900 21.04369900 467.12601000 -0.05494150 0.68650800 -0.72504401 1.905766e-42
34.19630100 19.91860000 466.04700000 -0.02592110 0.67440897 -0.73790300 1.905766e-42
32.78210100 19.07040000 465.32501000 -0.06279680 0.67726701 -0.73305303 1.905766e-42
32.29200000 17.76320100 464.18900000 -0.05783490 0.66018701 -0.74887103 1.905766e-42
31.55010000 16.45240000 463.20401000 -0.06393600 0.67611998 -0.73401201 1.905766e-42
30.31979900 15.48100000 462.31900000 -0.10684600 0.69566500 -0.71037602 1.905766e-42
29.48410000 14.33590000 461.20999000 -0.07156550 0.76648498 -0.63826299 1.905766e-42
28.44120000 13.40520000 460.07501000 0.00210763 0.81231999 -0.58320802 1.905766e-42
27.14990000 12.75330000 459.00400000 0.07473210 0.82708901 -0.55708098 1.905766e-42
26.32910000 11.98050000 457.60101000 0.12424700 0.82894498 -0.54535502 1.905766e-42
25.19310000 11.34340000 456.35901000 0.14656200 0.83733898 -0.52667099 1.905766e-42
24.21640000 10.61500000 455.03400000 0.15711001 0.84051800 -0.51850402 1.905766e-42
22.83569900 10.27750000 453.92899000 0.14644000 0.85411602 -0.49904001 1.905766e-42
21.68170000 9.75189970 452.65201000 0.15743200 0.86555398 -0.47542700 1.905766e-42
20.73889900 9.17467020 451.23099000 0.18142401 0.86997098 -0.45851499 1.905766e-42
19.61680000 8.70145030 449.90601000 0.18238300 0.86262000 -0.47182900 1.905766e-42
18.29620000 8.33535000 448.73901000 0.16219500 0.86365497 -0.47727701 1.905766e-42
17.56399900 7.58470010 447.27600000 0.17661600 0.84820497 -0.49935499 1.905766e-42
16.38450100 7.06874990 446.01801000 0.16873699 0.84973103 -0.49948499 1.905766e-42
