# .PCD v0.7 - Point Cloud Data file format
# 4 104 1
# 1 29 0
# 30 52 0
# 53 90 1
# 91 104 0
VERSION 0.7
FIELDS x y z normal_x normal_y normal_z curvature
SIZE 4 4 4 4 4 4 4
TYPE F F F F F F F
COUNT 1 1 1 1 1 1 1
WIDTH 104
HEIGHT 1
VIEWPOINT 0 0 0 1 0 0 0
POINTS 104
DATA ascii
-26.59709900 18.36599900 313.63901000 -0.88738602 0.02902680 0.46011299 1.905766e-42
-26.57060100 17.05410000 314.87100000 -0.89183801 0.03073780 0.45131001 1.905766e-42
-26.00460100 16.46999900 315.19699000 -0.89390099 0.03219220 0.44710699 1.905766e-42
-25.24119900 16.01840000 316.76300000 -0.89405000 0.04616980 0.44558099 1.905766e-42
-24.53710000 15.35190000 318.28000000 -0.89584899 0.05638190 0.44076699 1.905766e-42
-23.89720000 14.51220000 319.73801000 -0.89873201 0.06357170 0.43386501 1.905766e-42
-23.28599900 13.59350000 321.16000000 -0.90342098 0.07031220 0.42295000 1.905766e-42
-22.73399900 12.51860000 322.49399000 -0.90914798 0.07582550 0.40951201 1.905766e-42
-22.09230000 12.12750000 324.13000000 -0.91335899 0.08511910 0.39815801 1.905766e-42
-21.62719900 10.99620000 325.45001000 -0.91882002 0.08849840 0.38462701 1.905766e-42
-21.14259900 9.90503980 326.79700000 -0.92405999 0.09147980 0.37113899 1.905766e-42
-20.58420000 9.42039010 328.43799000 -0.92935097 0.09859940 0.35578701 1.905766e-42
-20.01070000 8.92286010 330.07001000 -0.93419403 0.10547300 0.34081799 1.905766e-42
-19.64410000 7.72554020 331.36301000 -0.93899399 0.10922200 0.32612899 1.905766e-42
-19.21080000 6.61474990 332.71201000 -0.94324899 0.11434800 0.31177899 1.905766e-42
-18.90640100 5.83040000 334.30301000 -0.94710201 0.12129800 0.29712600 1.905766e-42
-18.55769900 4.89254000 335.79901000 -0.95078599 0.12939300 0.28153601 1.905766e-42
-18.28980100 4.04559990 337.36499000 -0.95399398 0.13869800 0.26581600 1.905766e-42
-18.02899900 2.98552990 338.79599000 -0.95658201 0.14967801 0.25009501 1.905766e-42
-17.83020000 1.91359000 340.22800000 -0.95849597 0.16254100 0.23423301 1.905766e-42
-17.67720000 0.90131700 341.70901000 -0.95918298 0.17534900 0.22185899 1.905766e-42
-17.58379900 -0.16142100 343.15900000 -0.96033198 0.18433100 0.20924699 1.905766e-42
-17.43460100 -1.03304990 344.72699000 -0.96132600 0.19275200 0.19672100 1.905766e-42
-17.45760000 -2.40277000 345.89401000 -0.96346200 0.19600201 0.18254800 1.905766e-42
-17.47850000 -3.74537990 347.09299000 -0.96539402 0.19912700 0.16841599 1.905766e-42
-17.52140000 -4.94820980 348.43100000 -0.96703398 0.20243300 0.15448800 1.905766e-42
-17.59740100 -6.18138980 349.73999000 -0.96882403 0.20401500 0.14056000 1.905766e-42
-17.71680100 -7.63740020 350.79199000 -0.97084498 0.20287500 0.12768000 1.905766e-42
-17.69150000 -8.87656970 352.09698000 -0.97262800 0.20301899 0.11303900 1.905766e-42
-17.97060000 -9.90635970 353.54700000 -0.97417498 0.19869900 0.10724800 1.905766e-42
-17.56259900 -8.54609010 354.65302000 -0.97282499 0.20607500 0.10556300 1.905766e-42
-17.06139900 -7.30127000 355.85300000 -0.97102702 0.21472999 0.10487200 1.905766e-42
-16.63859900 -5.74298000 356.64801000 -0.96746200 0.23011300 0.10518700 1.905766e-42
-16.16820000 -4.56669000 357.92700000 -0.96865201 0.22754900 0.09966990 1.905766e-42
-15.77660000 -3.12157990 358.92599000 -0.97392601 0.20865300 0.08906700 1.905766e-42
-15.43720000 -1.58771000 359.80499000 -0.97796202 0.19256601 0.08067650 1.905766e-42
-15.09660000 -0.07073240 360.71201000 -0.97962397 0.18543901 0.07713180 1.905766e-42
-14.73360000 1.36428000 361.73599000 -0.98075801 0.18027100 0.07494490 1.905766e-42
-14.40710000 2.69984010 362.89801000 -0.98176998 0.17535000 0.07334420 1.905766e-42
-14.07720000 4.24360990 363.76300000 -0.98298401 0.16972300 0.07026070 1.905766e-42
-13.76310000 5.57923980 364.92801000 -0.98436499 0.16395800 0.06437040 1.905766e-42
-13.37360000 6.82026000 366.17200000 -0.98596102 0.15764201 0.05504360 1.905766e-42
-13.15330000 8.34772010 367.09799000 -0.99160600 0.12549800 0.03112590 1.905766e-42
-13.01530000 9.85692980 368.06900000 -0.99655700 0.08286990 0.00275781 1.905766e-42
-12.87320000 11.27250000 369.17200000 -0.99890202 0.04004300 -0.02431340 1.905766e-42
-12.87650000 12.81480000 370.10001000 -0.99901998 0.01763530 -0.04059460 1.905766e-42
-12.99580000 14.38720000 370.96799000 -0.99873501 0.00876024 -0.04950560 1.905766e-42
-13.04430000 15.94370000 371.87100000 -0.99838197 -0.00037289 -0.05686710 1.905766e-42
-13.10260000 17.49200100 372.78699000 -0.99835098 0.00689356 -0.05698220 1.905766e-42
-13.11050000 19.12019900 373.55499000 -0.99822003 0.03410740 -0.04891550 1.905766e-42
-13.03210000 20.27570000 374.93301000 -0.99720401 0.06353440 -0.03934450 1.905766e-42
-12.93180000 21.83490000 375.82599000 -0.99315602 0.11553000 -0.01712740 1.905766e-42
-12.76520000 23.41449900 376.67300000 -0.98492301 0.17282701 0.00760641 1.905766e-42
-12.33980000 25.07850100 376.13501000 -0.97553098 0.21609600 0.04052300 1.905766e-42
-12.07220000 26.11560100 374.68799000 -0.97701502 0.21041000 0.03418560 1.905766e-42
-12.06690000 26.90510000 373.07001000 -0.97785401 0.20682199 0.03201610 1.905766e-42
-11.92720000 27.79760000 371.51300000 -0.97679102 0.21132299 0.03494790 1.905766e-42
-11.88890000 28.42380000 369.82599000 -0.97611302 0.21359301 0.03975600 1.905766e-42
-11.92610000 28.75820000 368.05801000 -0.97812998 0.19814600 0.06324990 1.905766e-42
-11.77650000 29.90970000 366.68301000 -0.97454602 0.20514400 0.09041590 1.905766e-42
-11.78190000 30.68980000 365.06100000 -0.97270900 0.20260000 0.11309600 1.905766e-42
-11.94940000 31.13190100 363.32401000 -0.97268802 0.19169900 0.13088299 1.905766e-42
-11.82780000 32.21419900 361.89099000 -0.96744400 0.20461100 0.14895500 1.905766e-42
-12.00270000 32.83470200 360.20999000 -0.96562600 0.20412800 0.16092800 1.905766e-42
-12.15800000 33.50790000 358.54800000 -0.96313202 0.20559500 0.17351601 1.905766e-42
-12.29140000 34.19900100 356.89099000 -0.96015000 0.20816700 0.18649000 1.905766e-42
-12.70050000 34.38890100 355.14899000 -0.96130103 0.19432101 0.19529501 1.905766e-42
-12.83120000 35.19430200 353.54401000 -0.95670199 0.20349400 0.20811200 1.905766e-42
-13.07490000 35.81449900 351.87201000 -0.95278001 0.20858601 0.22068501 1.905766e-42
-13.27310000 36.55239900 350.24200000 -0.94668603 0.22013500 0.23521499 1.905766e-42
-13.48400000 37.23289900 348.58899000 -0.93996698 0.23156101 0.25068301 1.905766e-42
-13.57510000 37.90300000 346.92099000 -0.93196303 0.24527000 0.26699799 1.905766e-42
-14.12470000 38.25600100 345.24399000 -0.92794198 0.24349600 0.28219500 1.905766e-42
-14.53960000 38.76670100 343.56799000 -0.92256999 0.24668600 0.29666501 1.905766e-42
-15.10090000 39.04550200 341.88101000 -0.92081797 0.23846699 0.30858901 1.905766e-42
-15.79110000 38.91479900 340.22400000 -0.92568702 0.20946200 0.31500700 1.905766e-42
-16.12949900 39.61150000 338.59900000 -0.91925198 0.21922100 0.32698199 1.905766e-42
-16.68470000 39.92350000 336.91501000 -0.91943997 0.21013400 0.33237600 1.905766e-42
-16.96180000 40.70420100 335.31699000 -0.91106802 0.22944000 0.34250900 1.905766e-42
-17.63200000 40.80530200 333.64999000 -0.91311800 0.21224600 0.34808999 1.905766e-42
-18.17569900 41.18999900 331.97800000 -0.90909803 0.21348400 0.35772300 1.905766e-42
-18.79780000 41.46600000 330.31100000 -0.90465802 0.20898800 0.37137201 1.905766e-42
-19.52370100 41.54330100 328.66599000 -0.90015399 0.19965100 0.38712001 1.905766e-42
-20.17170000 41.84780100 327.01401000 -0.89294100 0.20168200 0.40246800 1.905766e-42
-20.68650100 42.30670200 325.35199000 -0.88371497 0.21145301 0.41753599 1.905766e-42
-21.46400100 42.41199900 323.73199000 -0.88051897 0.20513500 0.42732301 1.905766e-42
-22.28830000 42.41299800 322.13199000 -0.88102102 0.19977599 0.42882499 1.905766e-42
-23.10969900 42.42369800 320.53000000 -0.88062501 0.19671200 0.43104899 1.905766e-42
-23.81310100 42.70330000 318.89700000 -0.87634498 0.20865400 0.43414599 1.905766e-42
-24.57080100 42.87820100 317.27399000 -0.87085199 0.21901500 0.44005701 1.905766e-42
-25.32090000 42.50080100 315.68100000 -0.86611998 0.21158101 0.45284599 1.905766e-42
-25.81990100 40.79750100 315.98099000 -0.87804800 0.13439099 0.45931599 1.905766e-42
-25.93530100 39.00120200 315.97198000 -0.88366097 0.07127310 0.46267101 1.905766e-42
-26.03500000 37.20399900 315.98499000 -0.88579702 0.01982310 0.46364900 1.905766e-42
-26.05110000 35.40409900 315.99100000 -0.88578701 -0.01991420 0.46366501 1.905766e-42
-26.00200100 33.60480100 315.99600000 -0.88523501 -0.05303480 0.46211100 1.905766e-42
-25.86109900 31.81040000 315.98599000 -0.88442498 -0.08128860 0.45954901 1.905766e-42
-25.98819900 30.17620100 315.24200000 -0.88045299 -0.08182810 0.46701801 1.905766e-42
-25.89259900 28.37940000 315.19400000 -0.87807000 -0.07185320 0.47310701 1.905766e-42
-25.79649900 26.58200100 315.18399000 -0.87758601 -0.05376130 0.47639501 1.905766e-42
-25.69930100 24.92560000 314.48700000 -0.87797099 -0.02630390 0.47799000 1.905766e-42
-26.00160000 23.15320000 314.40100000 -0.87727201 0.00648025 0.47995001 1.905766e-42
-25.82440000 21.52870000 315.15601000 -0.87738103 0.03533040 0.47849101 1.905766e-42
-26.32080100 19.94689900 314.45499000 -0.87746799 0.04845090 0.47718099 1.905766e-42
