# .PCD v0.7 - Point Cloud Data file format
# 3 34 0
# 1 15 0
# 16 24 0
# 25 34 0
VERSION 0.7
FIELDS x y z normal_x normal_y normal_z curvature
SIZE 4 4 4 4 4 4 4
TYPE F F F F F F F
COUNT 1 1 1 1 1 1 1
WIDTH 34
HEIGHT 1
VIEWPOINT 0 0 0 1 0 0 0
POINTS 34
DATA ascii
36.80849800 13.63980000 458.83600000 0.48918200 0.80111402 -0.34484500 1.905766e-42
35.22940100 14.37790000 458.38699000 0.41879800 0.76488799 -0.48944300 1.905766e-42
33.64849900 14.36870000 457.52600000 0.31235999 0.79469699 -0.52046800 1.905766e-42
31.97410000 14.37330000 456.86499000 0.30116799 0.79259199 -0.53018498 1.905766e-42
30.37900000 15.18010000 456.65399000 0.27443701 0.79661101 -0.53860497 1.905766e-42
28.70190000 15.17790000 456.00000000 0.22868000 0.79305899 -0.56459099 1.905766e-42
26.99040000 15.18430000 455.44299000 0.15790200 0.79632902 -0.58388901 1.905766e-42
25.24620100 15.18870000 454.99799000 0.09713350 0.80031502 -0.59166002 1.905766e-42
23.31069900 15.19990000 454.81299000 0.01312270 0.79044801 -0.61238801 1.905766e-42
21.91659900 15.85600000 455.74399000 -0.06574590 0.77948600 -0.62295997 1.905766e-42
20.19240000 15.98560000 456.24399000 -0.19950999 0.74228400 -0.63969600 1.905766e-42
18.82519900 16.41390000 457.33401000 -0.32324401 0.67958403 -0.65854299 1.905766e-42
17.40180000 16.68310000 458.40201000 -0.43956599 0.60161799 -0.66696101 1.905766e-42
16.04960100 16.78080000 459.58600000 -0.49232000 0.54832602 -0.67598802 1.905766e-42
15.90890000 18.21060000 460.67099000 -0.45019501 0.63766903 -0.62506199 1.905766e-42
14.78170000 18.35000000 462.06699000 -0.48085499 0.64803302 -0.59061903 1.905766e-42
16.17380000 19.46570000 462.30600000 -0.34716901 0.79519898 -0.49712399 1.905766e-42
17.44739900 20.44290000 463.12000000 -0.17012601 0.89871901 -0.40417999 1.905766e-42
18.65360100 20.94590000 464.35800000 -0.07991220 0.94007099 -0.33148301 1.905766e-42
20.36540000 21.34339900 464.74701000 -0.04895780 0.94642901 -0.31917799 1.905766e-42
21.42950100 21.62840100 466.17099000 -0.03846280 0.95870000 -0.28180799 1.905766e-42
22.93610000 22.02010000 467.07501000 0.06288690 0.96643800 -0.24908400 1.905766e-42
24.16750000 22.20929900 468.37399000 0.12550800 0.96520698 -0.22939600 1.905766e-42
25.74270100 22.12949900 469.24100000 0.15491100 0.96814698 -0.19670600 1.905766e-42
27.33330000 22.03430000 470.07800000 0.25564101 0.96466202 -0.06384030 1.905766e-42
28.94899900 21.32950000 469.71399000 0.47210699 0.87939602 -0.06146230 1.905766e-42
30.26989900 20.45500000 468.85901000 0.55920100 0.82807201 -0.03987910 1.905766e-42
31.34100000 19.63740000 467.66599000 0.61060399 0.79039198 -0.04944150 1.905766e-42
32.37229900 18.77730000 466.46701000 0.62722403 0.77698100 -0.05377110 1.905766e-42
33.50140000 17.64769900 465.63699000 0.66740000 0.74452001 -0.01636300 1.905766e-42
34.27240000 16.96030000 464.16299000 0.66884798 0.74151498 -0.05290330 1.905766e-42
35.24720000 15.89210000 463.09100000 0.68547100 0.72512400 -0.06576160 1.905766e-42
36.22589900 14.85960000 461.98801000 0.66219199 0.74521399 -0.07846780 1.905766e-42
36.98560000 14.02820000 460.58401000 0.62502801 0.76355600 -0.16224299 1.905766e-42
