# .PCD v0.7 - Point Cloud Data file format
# 3 191 2
# 1 87 0
# 88 113 0
# 114 191 0
VERSION 0.7
FIELDS x y z normal_x normal_y normal_z curvature
SIZE 4 4 4 4 4 4 4
TYPE F F F F F F F
COUNT 1 1 1 1 1 1 1
WIDTH 191
HEIGHT 1
VIEWPOINT 0 0 0 1 0 0 0
POINTS 191
DATA ascii
-33.86150000 -22.34830100 477.70001000 0.69410801 0.07463930 0.71599102 1.905766e-42
-32.53039900 -23.08970100 476.74200000 0.68637699 0.04536090 0.72583002 1.905766e-42
-31.35160100 -23.99740000 475.72800000 0.67384601 0.02531930 0.73843801 1.905766e-42
-30.31489900 -25.01810100 474.66800000 0.65641397 0.01845530 0.75417501 1.905766e-42
-29.25589900 -25.99469900 473.58899000 0.63386297 0.01693820 0.77326000 1.905766e-42
-27.77059900 -26.41460000 472.66299000 0.60166699 0.01513680 0.79860300 1.905766e-42
-26.49000000 -27.40480000 471.87601000 0.57102102 0.02064090 0.82067603 1.905766e-42
-25.29460000 -28.43890000 471.01501000 0.53694999 0.02900080 0.84311497 1.905766e-42
-23.87430000 -29.06970000 470.10699000 0.49363801 0.03540710 0.86894602 1.905766e-42
-22.41360100 -29.66470000 469.23901000 0.44531900 0.04239780 0.89436698 1.905766e-42
-20.88369900 -30.26380000 468.50400000 0.39167601 0.05014730 0.91873598 1.905766e-42
-19.20100000 -30.69030000 468.02802000 0.34619400 0.05998410 0.93624300 1.905766e-42
-17.81950000 -31.75659900 467.58701000 0.32203600 0.07801730 0.94350702 1.905766e-42
-16.11669900 -32.10450000 467.11899000 0.29970101 0.07921940 0.95073801 1.905766e-42
-14.50970000 -32.76739900 466.65100000 0.27764800 0.07511190 0.95774198 1.905766e-42
-12.77600000 -33.04250000 466.25299000 0.25635299 0.07904610 0.96334600 1.905766e-42
-11.57890000 -34.27890000 465.72601000 0.23604500 0.06839690 0.96933198 1.905766e-42
-9.80879970 -34.58110000 465.60199000 0.21505500 0.07517740 0.97370398 1.905766e-42
-8.17224980 -35.16400100 465.13101000 0.19305800 0.08087560 0.97784799 1.905766e-42
-6.43234010 -35.53839900 464.86099000 0.17155699 0.09150100 0.98091602 1.905766e-42
-4.80529020 -36.25690100 464.58499000 0.14226800 0.10123700 0.98463702 1.905766e-42
-3.00598000 -36.24359900 464.63300000 0.11683100 0.11632700 0.98631603 1.905766e-42
-1.31335000 -36.74630000 464.28299000 0.08898910 0.13074499 0.98741400 1.905766e-42
0.30809900 -37.43870200 463.92099000 0.06127250 0.14735200 0.98718399 1.905766e-42
2.05283000 -37.34759900 464.35400000 0.03932740 0.16288400 0.98586100 1.905766e-42
3.74229000 -37.91980000 464.59500000 0.01288500 0.18399100 0.98284298 1.905766e-42
5.18256000 -38.99670000 464.67200000 -0.01485330 0.21129601 0.97730899 1.905766e-42
6.55735020 -40.15539900 464.75900000 -0.04265660 0.24211600 0.96930897 1.905766e-42
8.01751040 -41.20150000 464.87601000 -0.07347090 0.27401799 0.95891398 1.905766e-42
9.75364970 -40.82609900 465.16699000 -0.09235960 0.28719899 0.95340800 1.905766e-42
11.55310000 -40.80740000 465.20700000 -0.11412800 0.29997301 0.94709599 1.905766e-42
13.20410000 -40.10559800 465.35501000 -0.13157099 0.29700801 0.94576699 1.905766e-42
14.86850000 -40.59040100 464.87000000 -0.15222301 0.30699199 0.93945998 1.905766e-42
16.40309900 -39.74509800 465.28299000 -0.17165799 0.29642600 0.93950301 1.905766e-42
17.07000000 -38.09970100 465.57901000 -0.18086100 0.26511899 0.94710100 1.905766e-42
18.70630100 -37.45800000 465.96701000 -0.20499200 0.25265199 0.94559300 1.905766e-42
20.47550000 -37.61019900 466.26199000 -0.23021001 0.25730401 0.93850797 1.905766e-42
22.21530000 -37.41780100 466.68201000 -0.24877501 0.25377300 0.93472499 1.905766e-42
23.95750000 -37.07059900 466.97101000 -0.26740399 0.24580000 0.93170702 1.905766e-42
25.73630000 -36.95999900 467.22400000 -0.28724399 0.24204400 0.92677200 1.905766e-42
27.44440100 -36.88140100 467.78601000 -0.30836499 0.23966800 0.92058098 1.905766e-42
29.15280000 -36.84040100 468.35199000 -0.33061501 0.23710600 0.91349602 1.905766e-42
30.65980000 -36.22200000 469.11801000 -0.35351300 0.22807600 0.90719903 1.905766e-42
31.18639900 -36.01900100 469.29800000 -0.36125699 0.22527599 0.90484500 1.905766e-42
32.89510000 -35.75009900 469.79599000 -0.38576999 0.22152300 0.89560598 1.905766e-42
34.59709900 -35.45640200 470.30301000 -0.40753901 0.21901000 0.88653600 1.905766e-42
36.13000100 -34.74649800 470.92401000 -0.42252600 0.21698600 0.87999398 1.905766e-42
37.66960100 -34.03870000 471.53201000 -0.43699899 0.21888199 0.87242299 1.905766e-42
39.19250100 -33.36159900 472.21100000 -0.45147601 0.22455101 0.86356598 1.905766e-42
40.82450100 -33.16040000 472.94400000 -0.46884501 0.23130400 0.85245699 1.905766e-42
42.37239800 -32.71709800 473.74799000 -0.48762399 0.23100699 0.84193701 1.905766e-42
43.87900200 -32.16910200 474.56699000 -0.50978798 0.21869700 0.83203799 1.905766e-42
45.53799800 -32.01810100 475.24899000 -0.53256202 0.21152200 0.81953400 1.905766e-42
46.99089800 -31.83300000 476.29501000 -0.56102800 0.20421401 0.80221200 1.905766e-42
48.46139900 -31.39740000 477.23700000 -0.59673899 0.19334801 0.77879298 1.905766e-42
49.78459900 -30.78480000 478.29300000 -0.63287199 0.18102400 0.75279701 1.905766e-42
51.03599900 -30.27230100 479.48099000 -0.66963601 0.17164600 0.72258300 1.905766e-42
52.30300100 -30.11529900 480.75000000 -0.70680201 0.16873699 0.68699300 1.905766e-42
53.62690000 -29.63489900 481.87000000 -0.74175602 0.16311300 0.65053302 1.905766e-42
54.84479900 -29.07370000 483.07101000 -0.77357501 0.15961599 0.61327302 1.905766e-42
55.76800200 -28.02360000 484.20499000 -0.79711801 0.15319100 0.58406800 1.905766e-42
56.90910000 -27.74239900 485.56799000 -0.82235700 0.16062200 0.54582900 1.905766e-42
57.63489900 -26.73679900 486.87299000 -0.83845001 0.16194600 0.52036101 1.905766e-42
58.51210000 -26.72370000 488.44501000 -0.86013597 0.17116500 0.48048699 1.905766e-42
59.58229800 -26.00799900 489.70200000 -0.87991601 0.16175500 0.44674700 1.905766e-42
60.49409900 -25.00239900 490.88501000 -0.89749599 0.14752799 0.41561499 1.905766e-42
61.07170100 -24.59560000 492.54001000 -0.91530198 0.14394800 0.37616599 1.905766e-42
61.77660000 -23.94730000 494.06400000 -0.93035799 0.13727599 0.33998501 1.905766e-42
62.61470000 -23.86930100 495.65500000 -0.94283402 0.13886400 0.30295399 1.905766e-42
62.95679900 -23.72640000 497.41699000 -0.95270801 0.14190400 0.26871899 1.905766e-42
63.36759900 -23.06250000 499.03900000 -0.95968997 0.14252700 0.24224000 1.905766e-42
63.76150100 -23.19689900 500.79001000 -0.96472102 0.15291500 0.21431200 1.905766e-42
64.18389900 -22.94610000 502.52100000 -0.96742600 0.16357701 0.19320700 1.905766e-42
64.63939700 -22.06550000 504.02399000 -0.97062302 0.15885000 0.18071300 1.905766e-42
65.20089700 -20.95480000 505.32401000 -0.97744101 0.12972900 0.16667500 1.905766e-42
65.52410100 -19.53019900 506.37601000 -0.98339802 0.09337600 0.15559100 1.905766e-42
65.77680200 -18.36790100 507.72699000 -0.98793101 0.06463660 0.14076599 1.905766e-42
66.22139700 -16.96279900 508.76001000 -0.99121201 0.03176410 0.12841500 1.905766e-42
66.31780200 -16.04760000 510.30701000 -0.99366200 0.01066160 0.11190600 1.905766e-42
66.38379700 -15.36730000 511.97299000 -0.99543798 -0.00559922 0.09525030 1.905766e-42
66.55619800 -15.18410000 513.75500000 -0.99684298 -0.01701720 0.07755820 1.905766e-42
66.36070300 -14.55470000 515.42999000 -0.99709803 -0.04304250 0.06279760 1.905766e-42
66.15580000 -13.13160000 516.51300000 -0.99589300 -0.08099720 0.04044370 1.905766e-42
66.17170000 -11.84400000 517.77100000 -0.99287099 -0.11791700 0.01738020 1.905766e-42
66.20749700 -10.71080000 519.16901000 -0.98819798 -0.15308200 -0.00558950 1.905766e-42
65.84750400 -9.74652960 520.64502000 -0.98191899 -0.18712801 -0.02861000 1.905766e-42
65.47160300 -9.10346030 522.28400000 -0.97499001 -0.21674000 -0.04916670 1.905766e-42
65.16700000 -7.54208990 523.12598000 -0.97914100 -0.19773000 -0.04674750 1.905766e-42
64.81659700 -5.77668000 523.14899000 -0.98266703 -0.18133201 -0.03852620 1.905766e-42
64.62210100 -4.14898010 522.40601000 -0.98404300 -0.17605400 -0.02579560 1.905766e-42
64.85269900 -3.24361990 520.86700000 -0.98228800 -0.18644799 -0.01864710 1.905766e-42
64.68090100 -1.99041000 519.58698000 -0.98066801 -0.19552100 -0.00782223 1.905766e-42
64.45020300 -0.99821699 518.10303000 -0.97801298 -0.20854101 0.00120369 1.905766e-42
64.48230000 -1.43455000 516.35699000 -0.97605300 -0.21751100 0.00307487 1.905766e-42
64.44979900 -0.72383600 514.70300000 -0.97347701 -0.22834601 0.01417820 1.905766e-42
64.26030000 -0.15762600 513.00500000 -0.97082698 -0.23822600 0.02725630 1.905766e-42
64.13729900 -0.00228637 511.21600000 -0.96894002 -0.24350899 0.04312000 1.905766e-42
64.03839900 0.99956602 509.72400000 -0.96476001 -0.25615799 0.06016890 1.905766e-42
63.55810200 2.13682010 508.41400000 -0.95876700 -0.27342099 0.07750620 1.905766e-42
62.96920000 2.93433000 506.91199000 -0.95223200 -0.28859401 0.09983410 1.905766e-42
62.45209900 4.12983990 505.66901000 -0.94244802 -0.31144601 0.12162600 1.905766e-42
61.84000000 4.47221990 504.01099000 -0.93392199 -0.32191199 0.15543900 1.905766e-42
61.27740100 5.03320980 502.39600000 -0.92086601 -0.33701399 0.19602799 1.905766e-42
60.82749900 5.56500010 500.73700000 -0.90275800 -0.35252401 0.24648701 1.905766e-42
60.43510100 5.04863980 499.05701000 -0.88595802 -0.34954500 0.30478999 1.905766e-42
59.86520000 5.12785010 497.35199000 -0.85138500 -0.36378899 0.37788901 1.905766e-42
59.26430100 5.62669990 495.73001000 -0.81230003 -0.38412800 0.43887800 1.905766e-42
58.13970200 6.18870020 494.44199000 -0.79126698 -0.39782000 0.46436599 1.905766e-42
56.82989900 6.16248990 493.20801000 -0.76958698 -0.40403500 0.49445999 1.905766e-42
56.03390100 7.76442000 493.00699000 -0.75117999 -0.42736900 0.50307602 1.905766e-42
54.91820100 7.75568010 491.59500000 -0.72374898 -0.43006501 0.53965902 1.905766e-42
53.89160200 7.96644020 490.13101000 -0.69036502 -0.43353099 0.57917798 1.905766e-42
52.86790100 7.20869020 488.85901000 -0.65713698 -0.42754599 0.62078601 1.905766e-42
51.65269900 7.78240010 487.66199000 -0.61081600 -0.43113199 0.66409999 1.905766e-42
50.37360000 8.98666950 487.26999000 -0.57380700 -0.43880901 0.69151503 1.905766e-42
49.28820000 10.38540000 487.59399000 -0.55578202 -0.44924599 0.69948900 1.905766e-42
48.37830000 11.91030000 487.88800000 -0.54284602 -0.45969900 0.70284802 1.905766e-42
47.32970000 13.35530000 488.11700000 -0.52603102 -0.46803799 0.71009302 1.905766e-42
46.47969800 14.88470000 488.54001000 -0.51684302 -0.47900799 0.70952499 1.905766e-42
45.69310000 16.47030100 488.86700000 -0.50455099 -0.50724900 0.69866002 1.905766e-42
44.86999900 18.03870000 489.18799000 -0.48937500 -0.53697699 0.68714398 1.905766e-42
43.36119800 18.99810000 489.39499000 -0.45167401 -0.55442899 0.69899899 1.905766e-42
42.45510100 20.48979900 489.83600000 -0.43704501 -0.58385700 0.68418002 1.905766e-42
41.16009900 21.66799900 490.25299000 -0.41259199 -0.60529602 0.68072402 1.905766e-42
40.17520100 23.07500100 490.79199000 -0.40329400 -0.63033301 0.66335100 1.905766e-42
38.52299900 23.78900000 490.77301000 -0.36797199 -0.62876701 0.68501800 1.905766e-42
37.16550100 24.92410100 491.10300000 -0.35587600 -0.63141501 0.68896103 1.905766e-42
36.05270000 26.23020000 491.64700000 -0.35462099 -0.63918900 0.68240899 1.905766e-42
34.59529900 27.25720000 491.89401000 -0.33834901 -0.64124501 0.68871200 1.905766e-42
33.04810000 28.17630000 491.85800000 -0.31658700 -0.64052099 0.69964701 1.905766e-42
31.34460100 28.72920000 491.67801000 -0.29722500 -0.63426900 0.71369398 1.905766e-42
29.70249900 29.46610100 491.65601000 -0.28052101 -0.63873798 0.71646398 1.905766e-42
27.95480000 29.64690000 491.26501000 -0.25647601 -0.62952101 0.73343301 1.905766e-42
26.43849900 30.61170000 491.36600000 -0.23955899 -0.64900202 0.72208601 1.905766e-42
24.67869900 30.95319900 491.20300000 -0.21622699 -0.65256298 0.72622800 1.905766e-42
22.95879900 31.48320000 491.16800000 -0.19357599 -0.66450399 0.72177702 1.905766e-42
21.25090000 32.05099900 491.19000000 -0.17074600 -0.67974102 0.71329999 1.905766e-42
19.45420100 32.14899800 491.14301000 -0.14750300 -0.68426502 0.71416003 1.905766e-42
17.74650000 32.71469900 491.20401000 -0.12509800 -0.70260102 0.70050198 1.905766e-42
16.10240000 33.42400000 491.38800000 -0.09880140 -0.72767597 0.67876798 1.905766e-42
14.30690000 33.55020100 491.40900000 -0.07049950 -0.74075902 0.66806197 1.905766e-42
12.58480000 33.98730100 491.69699000 -0.03722170 -0.76550800 0.64234900 1.905766e-42
10.81300000 34.26290100 491.85400000 -0.00295341 -0.78577697 0.61850297 1.905766e-42
9.02338980 34.34220100 492.03000000 0.03113760 -0.80391699 0.59392601 1.905766e-42
7.36886980 33.73540100 491.66400000 0.04980790 -0.80388403 0.59269702 1.905766e-42
5.58532000 33.57310100 491.48300000 0.07410110 -0.81457698 0.57530200 1.905766e-42
4.09423020 32.89740000 490.73499000 0.08063540 -0.80447203 0.58849198 1.905766e-42
2.38580990 32.41650000 490.43399000 0.10276900 -0.80227202 0.58804500 1.905766e-42
0.74798501 32.00780100 489.81000000 0.12559301 -0.79079503 0.59905702 1.905766e-42
-0.73945397 31.16440000 489.24701000 0.14913499 -0.77130902 0.61874199 1.905766e-42
-1.50776990 29.89720000 488.22601000 0.15240800 -0.73109603 0.66503400 1.905766e-42
-3.25151990 29.49480100 488.03201000 0.19111399 -0.72788000 0.65853298 1.905766e-42
-4.60348990 28.45389900 487.45901000 0.21268199 -0.70723498 0.67422903 1.905766e-42
-5.88255980 27.37620000 486.79401000 0.22630499 -0.69019198 0.68732899 1.905766e-42
-7.40826990 26.45179900 486.55399000 0.24702200 -0.69471699 0.67553598 1.905766e-42
-9.04592040 25.71940000 486.40601000 0.26236999 -0.70892298 0.65466702 1.905766e-42
-10.60270000 24.86720100 486.10599000 0.27415901 -0.72166902 0.63563401 1.905766e-42
-11.97680000 23.82480000 485.59100000 0.27936199 -0.72455901 0.63005602 1.905766e-42
-13.47030000 22.87050100 485.27701000 0.29787299 -0.71756703 0.62957799 1.905766e-42
-14.91840000 21.88180000 484.87000000 0.32008800 -0.70249802 0.63564098 1.905766e-42
-16.39720000 20.91160000 484.53500000 0.34940401 -0.68379700 0.64057600 1.905766e-42
-17.97460000 20.04450000 484.54599000 0.38835901 -0.66675502 0.63609302 1.905766e-42
-19.57539900 19.22190100 484.51901000 0.42898199 -0.64476299 0.63265699 1.905766e-42
-21.27860100 18.69030000 484.75699000 0.45659101 -0.62918401 0.62900800 1.905766e-42
-22.87140100 17.89570000 485.02499000 0.46845099 -0.61111301 0.63804001 1.905766e-42
-24.39640000 16.95980100 485.22101000 0.48275301 -0.58776200 0.64921898 1.905766e-42
-25.73780100 15.76330000 485.31500000 0.50007600 -0.55785900 0.66235697 1.905766e-42
-27.20190000 14.73240000 485.49899000 0.51884800 -0.52819997 0.67216200 1.905766e-42
-28.65560000 13.67470000 485.58899000 0.53917199 -0.49880999 0.67858797 1.905766e-42
-29.41840000 12.04530000 485.53500000 0.55751503 -0.47839999 0.67846203 1.905766e-42
-30.51899900 10.62130000 485.56900000 0.57359999 -0.46414101 0.67494899 1.905766e-42
-31.68779900 9.25263980 485.59299000 0.58566302 -0.45825201 0.66858399 1.905766e-42
-33.07600000 8.18223950 486.00201000 0.59577900 -0.45931900 0.65884298 1.905766e-42
-34.04639800 6.66766020 486.06900000 0.59690601 -0.47275200 0.64823502 1.905766e-42
-35.10139800 5.29448990 485.57700000 0.58819699 -0.49639001 0.63845199 1.905766e-42
-35.85179900 3.96269990 484.62701000 0.56974101 -0.51652098 0.63922000 1.905766e-42
-35.95290000 2.51689000 483.56000000 0.55387998 -0.49811500 0.66715699 1.905766e-42
-35.85350000 1.10365000 482.44901000 0.53869700 -0.47618401 0.69502097 1.905766e-42
-35.86520000 -0.38670000 481.44000000 0.52460498 -0.45362100 0.72042900 1.905766e-42
-35.94950100 -1.94883000 480.54999000 0.51166499 -0.43029699 0.74366897 1.905766e-42
-35.97589900 -3.56581000 479.75900000 0.49954501 -0.40544099 0.76555401 1.905766e-42
-35.98270000 -5.21742010 479.04401000 0.48952100 -0.36080599 0.79384398 1.905766e-42
-36.06179800 -6.91397000 478.44699000 0.48614001 -0.27473900 0.82957000 1.905766e-42
-36.00890000 -8.63899040 477.93600000 0.48832601 -0.18235099 0.85339701 1.905766e-42
-35.96270000 -10.42260000 477.69800000 0.49710900 -0.08612110 0.86340398 1.905766e-42
-35.47790100 -12.15480000 477.76401000 0.51134402 0.00447958 0.85936397 1.905766e-42
-35.80709800 -13.91350000 477.96100000 0.53118002 0.10511300 0.84071302 1.905766e-42
-35.29130200 -15.63450000 478.07101000 0.56522900 0.14679800 0.81176698 1.905766e-42
-35.19879900 -17.40630000 478.37500000 0.60898501 0.14054801 0.78062999 1.905766e-42
-34.76039900 -19.15200000 478.38800000 0.64769602 0.12348400 0.75182599 1.905766e-42
-34.76330200 -20.95200000 478.39099000 0.67954701 0.10593300 0.72594398 1.905766e-42
