# .PCD v0.7 - Point Cloud Data file format
# 3 100 0
# 1 40 0
# 41 82 0
# 83 100 0
VERSION 0.7
FIELDS x y z normal_x normal_y normal_z curvature
SIZE 4 4 4 4 4 4 4
TYPE F F F F F F F
COUNT 1 1 1 1 1 1 1
WIDTH 100
HEIGHT 1
VIEWPOINT 0 0 0 1 0 0 0
POINTS 100
DATA ascii
50.36320100 18.15119900 450.75500000 0.18623400 -0.49043700 0.85134500 1.905766e-42
48.72769900 17.58350000 451.24799000 0.18230700 -0.52306700 0.83256501 1.905766e-42
47.11629900 16.79010000 451.36499000 0.14740400 -0.56213999 0.81379998 1.905766e-42
45.33829900 16.78680000 451.64600000 0.12672301 -0.57955301 0.80502200 1.905766e-42
44.59909800 16.03610000 451.20001000 0.11091700 -0.59364903 0.79704303 1.905766e-42
42.81779900 15.77730000 451.20901000 0.09159880 -0.60522401 0.79076803 1.905766e-42
41.04959900 15.95700000 451.49399000 0.07598980 -0.60938001 0.78922898 1.905766e-42
39.26380200 15.78170000 451.35199000 0.06118520 -0.61729300 0.78434998 1.905766e-42
37.58850100 15.15480000 451.15100000 0.04510440 -0.62878799 0.77626699 1.905766e-42
35.80180000 14.97500000 451.02802000 0.02992830 -0.63845599 0.76907599 1.905766e-42
34.15599800 14.36410000 450.63000000 0.01240060 -0.65212703 0.75800800 1.905766e-42
32.37509900 14.26190000 450.38901000 -0.00347009 -0.66326398 0.74837798 1.905766e-42
30.80900000 13.53450000 449.88101000 -0.02252200 -0.67826998 0.73446703 1.905766e-42
29.10780000 13.15540000 449.43201000 -0.04095950 -0.69165099 0.72106898 1.905766e-42
27.64699900 12.45870000 448.64401000 -0.06096630 -0.70670301 0.70487797 1.905766e-42
26.04940000 11.95950000 447.98199000 -0.08019520 -0.71931797 0.69003701 1.905766e-42
24.26560000 11.92980000 447.74301000 -0.09750500 -0.72651201 0.68020099 1.905766e-42
22.62890100 11.59050000 447.07501000 -0.11686000 -0.73568201 0.66716897 1.905766e-42
20.88740000 11.61960000 446.62100000 -0.13538700 -0.74309403 0.65534800 1.905766e-42
19.39480000 11.06910000 445.77899000 -0.15599699 -0.75207603 0.64034802 1.905766e-42
17.74670000 10.90320000 445.07401000 -0.17637900 -0.75912797 0.62659001 1.905766e-42
16.12999900 10.68760000 444.31299000 -0.19702600 -0.76507002 0.61306500 1.905766e-42
14.63000000 10.27700000 443.40601000 -0.21734500 -0.76965600 0.60032499 1.905766e-42
13.04150000 10.14580000 442.57001000 -0.23915000 -0.77214700 0.58872402 1.905766e-42
11.53780000 9.92877010 441.60501000 -0.26110199 -0.77536303 0.57501101 1.905766e-42
10.35750000 9.33047010 440.38501000 -0.28097400 -0.78093201 0.55785203 1.905766e-42
8.81495950 9.32888980 439.45700000 -0.30291700 -0.78333402 0.54279798 1.905766e-42
7.56959010 9.00809000 438.19699000 -0.32202700 -0.78627402 0.52732497 1.905766e-42
5.90988020 9.30548000 437.56699000 -0.34174299 -0.78427100 0.51781398 1.905766e-42
4.71966980 8.79555030 436.31699000 -0.35659000 -0.78551698 0.50577301 1.905766e-42
3.38511990 8.77616020 435.10901000 -0.37440100 -0.78628802 0.49150300 1.905766e-42
1.98147000 8.78899000 433.98300000 -0.39335999 -0.78647399 0.47615901 1.905766e-42
0.64137900 8.77843000 432.78101000 -0.41244900 -0.78607702 0.46039999 1.905766e-42
-0.67504698 8.78077980 431.55301000 -0.43151799 -0.78422600 0.44585001 1.905766e-42
-2.03952000 8.90268990 430.38599000 -0.45151901 -0.77966702 0.43387699 1.905766e-42
-3.51408000 9.34778020 429.45401000 -0.47198501 -0.77436203 0.42141899 1.905766e-42
-4.98784020 9.60984040 428.45499000 -0.48800099 -0.77282798 0.40570000 1.905766e-42
-6.23411990 9.82958980 427.17499000 -0.50316799 -0.77222401 0.38793299 1.905766e-42
-7.67206000 10.43340000 426.27600000 -0.51314300 -0.77526599 0.36830199 1.905766e-42
-8.86999990 10.55320000 424.93799000 -0.52749401 -0.77248901 0.35356799 1.905766e-42
-9.12191960 9.80195050 423.32101000 -0.54121399 -0.75659698 0.36694500 1.905766e-42
-7.60830020 9.11756040 424.01501000 -0.53046501 -0.76169997 0.37204799 1.905766e-42
-6.09388020 8.14945980 424.11099000 -0.51790798 -0.76937300 0.37394699 1.905766e-42
-4.59861990 7.48829980 424.86401000 -0.50348300 -0.77598399 0.37993899 1.905766e-42
-3.01303010 6.65743020 425.05301000 -0.48595500 -0.78661501 0.38089800 1.905766e-42
-1.45622000 6.02507020 425.69800000 -0.46500099 -0.79344898 0.39269799 1.905766e-42
0.17434700 5.31422000 425.97400000 -0.44350001 -0.80265802 0.39880899 1.905766e-42
1.61590000 4.79269980 426.91699000 -0.42831501 -0.80190200 0.41653299 1.905766e-42
3.23302010 4.22961000 427.47198000 -0.41352701 -0.80408800 0.42712799 1.905766e-42
4.88506980 3.78551010 428.03201000 -0.39980599 -0.80414200 0.43989801 1.905766e-42
6.53442000 3.12164000 428.31299000 -0.38785499 -0.80748200 0.44445601 1.905766e-42
8.19830040 2.46891000 428.10001000 -0.37843299 -0.81547302 0.43794101 1.905766e-42
9.74495030 1.86795000 428.79700000 -0.36246699 -0.81243300 0.45669499 1.905766e-42
11.41000000 1.18409000 428.79501000 -0.34917700 -0.81712598 0.45867401 1.905766e-42
13.13700000 0.67675900 428.80200000 -0.33688399 -0.81506699 0.47135499 1.905766e-42
14.68800000 0.25887799 429.61499000 -0.31837001 -0.81097198 0.49088100 1.905766e-42
16.42090000 -0.21198399 429.73801000 -0.30547401 -0.80480099 0.50890100 1.905766e-42
18.09460100 -0.86972702 429.81699000 -0.29156399 -0.80082202 0.52314001 1.905766e-42
19.78490100 -1.09221990 430.39401000 -0.27179000 -0.79499602 0.54232001 1.905766e-42
21.50169900 -1.63320000 430.39600000 -0.25683701 -0.79386699 0.55119002 1.905766e-42
22.88040000 -2.47087000 429.59799000 -0.25010699 -0.80257201 0.54159498 1.905766e-42
24.60240000 -2.99495010 429.59201000 -0.23570900 -0.80356801 0.54655200 1.905766e-42
26.33910000 -3.46798990 429.58899000 -0.22148800 -0.80342901 0.55267000 1.905766e-42
28.07670000 -3.93270990 429.65900000 -0.20458201 -0.80250001 0.56048101 1.905766e-42
29.77590000 -4.11530020 430.22501000 -0.18403800 -0.79488999 0.57816899 1.905766e-42
31.32200100 -4.79342990 429.60101000 -0.17355999 -0.79055399 0.58728302 1.905766e-42
33.07189900 -4.93825010 429.99701000 -0.15241399 -0.78822500 0.59621501 1.905766e-42
34.74200100 -5.49818990 429.62601000 -0.13471000 -0.78967899 0.59854800 1.905766e-42
36.52489900 -5.73377990 429.70001000 -0.11356600 -0.79140598 0.60064900 1.905766e-42
38.25899900 -6.13988020 429.43900000 -0.09159790 -0.79770201 0.59605402 1.905766e-42
40.01110100 -6.43171980 429.14801000 -0.06705940 -0.80631900 0.58766699 1.905766e-42
41.70380000 -6.95180990 428.82501000 -0.03888830 -0.81823599 0.57356602 1.905766e-42
43.49420200 -6.88959980 429.00000000 -0.01331290 -0.82745200 0.56137902 1.905766e-42
45.11640200 -6.38352010 429.59399000 0.00046144 -0.82981598 0.55803698 1.905766e-42
46.89839900 -6.15349010 429.70200000 0.02303570 -0.83818102 0.54490602 1.905766e-42
48.67800100 -5.91845990 429.83600000 0.04728310 -0.84549201 0.53189099 1.905766e-42
50.37609900 -5.67610980 430.38101000 0.06704950 -0.84328401 0.53327000 1.905766e-42
52.16619900 -5.48886010 430.40601000 0.09735610 -0.85212201 0.51420897 1.905766e-42
53.94680000 -5.22987990 430.45599000 0.12047800 -0.85903299 0.49754199 1.905766e-42
55.65060000 -4.75810000 430.79401000 0.13282201 -0.85283399 0.50500798 1.905766e-42
57.42890200 -4.51708980 430.65500000 0.15149499 -0.86513001 0.47812000 1.905766e-42
59.04169800 -3.94084000 431.20801000 0.15298501 -0.84553403 0.51153499 1.905766e-42
60.76820000 -3.70590000 430.75699000 0.18344299 -0.88453197 0.42889500 1.905766e-42
61.40950000 -2.88220000 432.22299000 0.14719300 -0.78331000 0.60395402 1.905766e-42
60.79320100 -1.75758000 433.48599000 0.12904100 -0.70569599 0.69666398 1.905766e-42
60.04460100 -0.65275401 434.69400000 0.12916300 -0.68133998 0.72048098 1.905766e-42
59.24969900 0.39428800 435.92401000 0.13439900 -0.66854799 0.73142302 1.905766e-42
58.78929900 1.71696000 437.05399000 0.14183500 -0.65745699 0.74002302 1.905766e-42
58.06129800 2.90244010 438.19601000 0.14543600 -0.64855802 0.74714202 1.905766e-42
57.25140000 3.99277000 439.37799000 0.14648999 -0.64507598 0.74994498 1.905766e-42
56.61809900 5.38408990 440.32800000 0.14635199 -0.63927001 0.75492698 1.905766e-42
55.80239900 6.31108000 441.63800000 0.14213100 -0.63284701 0.76112002 1.905766e-42
55.12429800 7.51054000 442.79599000 0.13907400 -0.62435001 0.76866502 1.905766e-42
54.41560000 8.73832990 443.90500000 0.13643099 -0.61565101 0.77611899 1.905766e-42
54.12699900 10.14910000 444.98499000 0.13832200 -0.60815603 0.78167301 1.905766e-42
53.50090000 11.40290000 446.11499000 0.13971400 -0.60146397 0.78658801 1.905766e-42
52.96460000 12.71510000 447.22400000 0.14435300 -0.60004503 0.78683400 1.905766e-42
52.39970000 14.00770000 448.34201000 0.15082400 -0.59913200 0.78631598 1.905766e-42
51.77730200 15.34020000 449.38000000 0.15684000 -0.56332397 0.81121302 1.905766e-42
51.48220100 16.78300100 450.41501000 0.16987900 -0.51656997 0.83922398 1.905766e-42
