# .PCD v0.7 - Point Cloud Data file format
# 3 145 0
# 1 59 0
# 60 106 0
# 107 145 0
VERSION 0.7
FIELDS x y z normal_x normal_y normal_z curvature
SIZE 4 4 4 4 4 4 4
TYPE F F F F F F F
COUNT 1 1 1 1 1 1 1
WIDTH 145
HEIGHT 1
VIEWPOINT 0 0 0 1 0 0 0
POINTS 145
DATA ascii
51.00669900 20.43829900 516.70801000 -0.35761499 0.68634701 -0.63327700 1.905766e-42
50.52259800 19.08760100 515.62097000 -0.35824099 0.69299799 -0.62563401 1.905766e-42
48.94990200 18.39480000 515.08600000 -0.37865099 0.69549298 -0.61066598 1.905766e-42
47.73239900 17.23420000 514.44501000 -0.38885701 0.70145202 -0.59728998 1.905766e-42
46.63940000 15.98610000 513.74597000 -0.39286399 0.71380001 -0.57978302 1.905766e-42
45.35760100 14.83300000 513.22900000 -0.38907900 0.73209703 -0.55915201 1.905766e-42
44.14839900 13.64510000 512.62402000 -0.38302401 0.74830103 -0.54160798 1.905766e-42
42.76779900 12.60060000 512.13098000 -0.37539199 0.76112401 -0.52893400 1.905766e-42
41.44030000 11.54640000 511.52600000 -0.36537501 0.77270299 -0.51906800 1.905766e-42
40.15580000 10.45940000 510.88599000 -0.35341200 0.78266400 -0.51238400 1.905766e-42
38.62289800 9.61485960 510.46600000 -0.33870801 0.79129899 -0.50904101 1.905766e-42
37.58860000 8.44384960 509.57199000 -0.32290500 0.79951900 -0.50645900 1.905766e-42
36.03960000 7.66191010 509.09299000 -0.30306101 0.81002098 -0.50201601 1.905766e-42
34.37130000 7.02944990 508.85501000 -0.28323701 0.82034600 -0.49679899 1.905766e-42
32.96490100 6.12627980 508.18701000 -0.26304501 0.83036101 -0.49123099 1.905766e-42
31.27070000 5.56971980 507.94199000 -0.24285901 0.84035999 -0.48457801 1.905766e-42
29.78690000 4.77872990 507.29901000 -0.22176000 0.85010999 -0.47763601 1.905766e-42
28.29810000 4.02185010 506.62799000 -0.20016900 0.85958999 -0.47014701 1.905766e-42
26.57280000 3.55612990 506.41299000 -0.17967600 0.86907601 -0.46089399 1.905766e-42
25.03310000 2.91613010 505.73499000 -0.15867400 0.87748098 -0.45260400 1.905766e-42
23.82270100 2.07069990 504.70499000 -0.13738200 0.88416100 -0.44652700 1.905766e-42
22.15640100 1.63774000 504.17999000 -0.11692500 0.89220297 -0.43623599 1.905766e-42
20.94500000 0.90170997 503.07101000 -0.09474680 0.89781302 -0.43006501 1.905766e-42
19.61459900 0.27074900 502.03500000 -0.07230190 0.90339202 -0.42267600 1.905766e-42
18.37410000 -0.40664399 500.92099000 -0.04940670 0.90788001 -0.41630900 1.905766e-42
16.87840100 -0.80484599 500.00201000 -0.02808920 0.91351599 -0.40583101 1.905766e-42
15.22470000 -1.02725010 499.32700000 -0.01224960 0.91990697 -0.39194599 1.905766e-42
13.80720000 -1.47803000 498.31299000 0.00689225 0.92405897 -0.38218799 1.905766e-42
12.51840000 -1.89128010 497.12601000 0.02813600 0.92673302 -0.37466601 1.905766e-42
11.30960000 -2.43376990 495.90799000 0.05100510 0.92811501 -0.36878300 1.905766e-42
9.60175990 -2.48927000 495.34201000 0.06120130 0.93593502 -0.34681299 1.905766e-42
8.15176010 -2.76125000 494.31100000 0.07904320 0.93984503 -0.33232901 1.905766e-42
6.61919020 -2.89824010 493.37701000 0.09282020 0.94525099 -0.31286401 1.905766e-42
5.16518020 -3.14672990 492.34500000 0.10664900 0.94866699 -0.29775399 1.905766e-42
3.60915990 -3.23436000 491.44400000 0.11417600 0.95450199 -0.27548000 1.905766e-42
2.12621000 -3.45939990 490.44901000 0.13801301 0.95342100 -0.26822001 1.905766e-42
0.51580298 -3.32411000 489.65701000 0.16474099 0.95099699 -0.26166001 1.905766e-42
-1.09914000 -3.15921000 488.87900000 0.19034700 0.94837302 -0.25368699 1.905766e-42
-2.52711010 -3.19593000 487.78400000 0.21335401 0.94584101 -0.24467200 1.905766e-42
-3.99804000 -3.20755000 486.74600000 0.23557299 0.94306099 -0.23482300 1.905766e-42
-5.38325980 -3.15837000 485.59799000 0.25667599 0.94012702 -0.22423001 1.905766e-42
-6.85470010 -2.84202000 484.61099000 0.27624199 0.93758798 -0.21123099 1.905766e-42
-8.22272970 -2.65542010 483.45599000 0.29531699 0.93463302 -0.19811299 1.905766e-42
-9.66687970 -2.40722990 482.41000000 0.31291500 0.93194598 -0.18319499 1.905766e-42
-10.87110000 -2.46161010 481.07401000 0.33181801 0.92770898 -0.17103100 1.905766e-42
-12.27800000 -2.06871010 480.02200000 0.34783101 0.92472303 -0.15459999 1.905766e-42
-13.66420000 -1.67133000 478.94501000 0.36337700 0.92138499 -0.13786399 1.905766e-42
-15.06990000 -1.13591000 477.95599000 0.37693501 0.91826397 -0.12129100 1.905766e-42
-16.21520000 -1.05666010 476.57001000 0.39353999 0.91231102 -0.11320200 1.905766e-42
-17.70809900 -0.18593501 476.06699000 0.40285599 0.91021103 -0.09603660 1.905766e-42
-18.88820100 0.08998980 474.73599000 0.42086899 0.90266001 -0.08985790 1.905766e-42
-20.25580000 0.67508602 473.72198000 0.44536200 0.89121503 -0.08595630 1.905766e-42
-21.64430000 1.48186000 472.90900000 0.46987399 0.87903500 -0.08072220 1.905766e-42
-22.78410000 1.81607000 471.55701000 0.49003500 0.86822701 -0.07776300 1.905766e-42
-24.06790000 2.36527990 470.11401000 0.51345098 0.85486698 -0.07463530 1.905766e-42
-25.43460100 3.42596010 469.61700000 0.53083998 0.84520799 -0.06189630 1.905766e-42
-26.84420000 4.28128000 470.33899000 0.53468198 0.84375203 -0.04687420 1.905766e-42
-28.27990000 5.14726020 470.99399000 0.53470999 0.84421599 -0.03721370 1.905766e-42
-29.51829900 6.03499980 471.95200000 0.53160000 0.84602302 -0.04057940 1.905766e-42
-30.78540000 7.00588990 472.78400000 0.52061898 0.85227901 -0.05075750 1.905766e-42
-30.38670000 6.88662000 474.53500000 0.52499902 0.84725899 -0.08080180 1.905766e-42
-29.74500100 6.61622000 476.19501000 0.53179300 0.83980799 -0.10917300 1.905766e-42
-29.63600000 6.47895000 477.98599000 0.53720802 0.83149099 -0.14152600 1.905766e-42
-28.52269900 6.27816010 479.38599000 0.54163998 0.82478702 -0.16233200 1.905766e-42
-27.92310000 6.25922010 481.08301000 0.54515100 0.81666201 -0.18940200 1.905766e-42
-27.50200100 6.35020020 482.83099000 0.54851699 0.80778199 -0.21591000 1.905766e-42
-27.08659900 6.38090990 484.58200000 0.54838800 0.80194598 -0.23696800 1.905766e-42
-26.23570100 6.45149990 486.16699000 0.54146099 0.80243599 -0.25083300 1.905766e-42
-25.58420000 6.55362990 487.84201000 0.53181702 0.80490398 -0.26324999 1.905766e-42
-24.76219900 6.56433010 489.44299000 0.51803601 0.80805498 -0.28051001 1.905766e-42
-23.96220000 6.59779980 491.05499000 0.50513500 0.80957502 -0.29904300 1.905766e-42
-22.78920000 6.44159980 492.41101000 0.49060899 0.81160998 -0.31716201 1.905766e-42
-22.43600100 6.88979010 494.11899000 0.48325199 0.80765802 -0.33787099 1.905766e-42
-22.49700000 7.23912000 495.88300000 0.47947401 0.80026400 -0.36011401 1.905766e-42
-21.41810000 7.62047000 497.27301000 0.46937901 0.79592299 -0.38234800 1.905766e-42
-20.70089900 8.07464980 498.85999000 0.46246499 0.78744501 -0.40749899 1.905766e-42
-19.86290000 8.47776990 500.40100000 0.45573500 0.77817398 -0.43214700 1.905766e-42
-19.40250000 9.11343960 502.02100000 0.45422599 0.76345199 -0.45915100 1.905766e-42
-18.51460100 9.57824040 503.51599000 0.44905400 0.75135398 -0.48354700 1.905766e-42
-18.51129900 10.28250000 505.17300000 0.45090100 0.73207402 -0.51064199 1.905766e-42
-17.90449900 11.08560000 506.66501000 0.44328499 0.72185397 -0.53143603 1.905766e-42
-16.87710000 11.55020000 508.06799000 0.43404099 0.71361202 -0.54987800 1.905766e-42
-16.74860000 12.68910000 509.45599000 0.42842701 0.70369202 -0.56680399 1.905766e-42
-16.31329900 13.63360000 510.92499000 0.42144799 0.69415498 -0.58354902 1.905766e-42
-15.95860000 14.65330000 512.36499000 0.41484401 0.68426299 -0.59974003 1.905766e-42
-15.33830000 15.60890000 513.75897000 0.40599599 0.67395103 -0.61721700 1.905766e-42
-14.62580000 16.50050000 515.15100000 0.39700300 0.66329002 -0.63437700 1.905766e-42
-14.37380000 17.67590000 516.49103000 0.39395699 0.64745998 -0.65237498 1.905766e-42
-13.56110000 18.62789900 517.78400000 0.39388800 0.62561500 -0.67339301 1.905766e-42
-13.58580000 19.83379900 519.12000000 0.40628400 0.59021503 -0.69755298 1.905766e-42
-12.79680000 20.89329900 520.34302000 0.40833899 0.56455100 -0.71731597 1.905766e-42
-12.02170000 21.99889900 521.53302000 0.41145200 0.53727800 -0.73623300 1.905766e-42
-11.36490000 23.12640000 522.77301000 0.41577399 0.50695097 -0.75507098 1.905766e-42
-10.97770000 24.52570000 523.83698000 0.42279899 0.46835801 -0.77581102 1.905766e-42
-9.84504990 25.41000000 524.92102000 0.41746899 0.44707799 -0.79110098 1.905766e-42
-9.60717960 26.90309900 525.89801000 0.42633200 0.40456399 -0.80905402 1.905766e-42
-8.71064000 28.10920000 526.88898000 0.42589399 0.37421501 -0.82375801 1.905766e-42
-8.49645040 29.63719900 527.81598000 0.42311499 0.34776500 -0.83668000 1.905766e-42
-7.43397000 30.80999900 528.67297000 0.41718799 0.32591501 -0.84837103 1.905766e-42
-7.03884980 32.39810200 529.42297000 0.41311201 0.29818201 -0.86048001 1.905766e-42
-6.23325010 33.76710100 530.27002000 0.40851501 0.27079299 -0.87165803 1.905766e-42
-5.72270010 35.34560000 530.96802000 0.40494800 0.24033099 -0.88218999 1.905766e-42
-5.58014010 36.95679900 531.75800000 0.40182701 0.20964600 -0.89139402 1.905766e-42
-4.82298990 38.48310100 532.33801000 0.40076900 0.18105400 -0.89811099 1.905766e-42
-3.99700000 40.02330000 532.76898000 0.40151799 0.15480401 -0.90267301 1.905766e-42
-3.49035000 41.65169900 533.34497000 0.40446600 0.13022600 -0.90523398 1.905766e-42
-2.13355990 42.68859900 533.91400000 0.40951699 0.12147800 -0.90417898 1.905766e-42
-0.51958299 42.38990000 534.65302000 0.40315899 0.13451301 -0.90518999 1.905766e-42
1.06127000 41.79299900 535.27301000 0.38673601 0.15144400 -0.90967000 1.905766e-42
2.53165010 41.52539800 536.27600000 0.36823499 0.16521101 -0.91493601 1.905766e-42
3.99413990 40.47819900 536.34302000 0.34563100 0.18523601 -0.91990602 1.905766e-42
5.63907000 39.84009900 536.69897000 0.32147500 0.20427400 -0.92462200 1.905766e-42
7.14107990 38.87690000 536.93597000 0.29474199 0.22862899 -0.92782301 1.905766e-42
8.69839950 38.00140000 537.15601000 0.26211199 0.26020101 -0.92929697 1.905766e-42
10.13990000 36.92459900 537.20599000 0.22014600 0.30490199 -0.92659098 1.905766e-42
11.70670000 36.03950100 537.24799000 0.17641200 0.34540299 -0.92172402 1.905766e-42
13.33380000 35.27080200 537.20502000 0.13203201 0.38242099 -0.91450602 1.905766e-42
14.93660000 34.46500000 537.05798000 0.08795120 0.41784900 -0.90424901 1.905766e-42
16.54840100 33.68750000 536.86499000 0.05787890 0.43612900 -0.89802098 1.905766e-42
18.31790000 33.36180100 536.81097000 0.02952630 0.44467601 -0.89520502 1.905766e-42
20.01689900 32.84989900 536.50897000 0.00062277 0.45576799 -0.89009798 1.905766e-42
21.64510000 32.19229900 536.11298000 -0.02799870 0.46811199 -0.88322502 1.905766e-42
23.42880100 32.00220100 535.96399000 -0.05766610 0.47465101 -0.87828302 1.905766e-42
24.96240000 32.64680100 536.65198000 -0.07961890 0.47037801 -0.87886602 1.905766e-42
26.65700000 32.64320000 536.04498000 -0.10918300 0.47840601 -0.87132502 1.905766e-42
28.43800000 32.76210000 535.81299000 -0.13550000 0.48275101 -0.86521101 1.905766e-42
30.21100000 32.68940000 535.51099000 -0.15774301 0.48761001 -0.85869300 1.905766e-42
31.97489900 32.74549900 535.15698000 -0.17388199 0.49042001 -0.85396302 1.905766e-42
33.73420000 32.77090100 534.77698000 -0.18271600 0.49230000 -0.85103202 1.905766e-42
35.48450100 33.03990200 534.45398000 -0.18542799 0.48975599 -0.85191298 1.905766e-42
37.17350000 32.82749900 533.86902000 -0.19131300 0.49330699 -0.84855598 1.905766e-42
38.91510000 32.40060000 533.71301000 -0.20210700 0.49752101 -0.84357899 1.905766e-42
40.65670000 31.98189900 533.53601000 -0.21839100 0.50213301 -0.83675998 1.905766e-42
42.13740200 31.28140100 532.78900000 -0.24040700 0.50892103 -0.82656199 1.905766e-42
43.07000000 30.43180100 531.50598000 -0.29110801 0.54140800 -0.78875399 1.905766e-42
44.11270100 29.59930000 530.29700000 -0.34101099 0.57326198 -0.74503797 1.905766e-42
45.07160200 28.76549900 529.02197000 -0.38712999 0.60288298 -0.69761199 1.905766e-42
45.97990000 27.91939900 527.71899000 -0.42923599 0.62885302 -0.64830500 1.905766e-42
46.91400100 27.00040100 526.48499000 -0.43477899 0.63241702 -0.64110500 1.905766e-42
47.61290000 26.03900000 525.13300000 -0.43354899 0.63842100 -0.63596702 1.905766e-42
48.18560000 25.22990000 523.63098000 -0.43215600 0.64919299 -0.62593198 1.905766e-42
48.98920100 24.34370000 522.28601000 -0.43025601 0.66404700 -0.61149198 1.905766e-42
49.54980100 23.43020100 520.84003000 -0.41507900 0.67264199 -0.61258698 1.905766e-42
50.20830200 22.45130000 519.47998000 -0.39674899 0.67692900 -0.61996502 1.905766e-42
50.94129900 21.62690000 518.05798000 -0.37325099 0.68058902 -0.63046199 1.905766e-42
