# .PCD v0.7 - Point Cloud Data file format
# 3 122 0
# 1 45 0
# 46 92 0
# 93 122 0
VERSION 0.7
FIELDS x y z normal_x normal_y normal_z curvature
SIZE 4 4 4 4 4 4 4
TYPE F F F F F F F
COUNT 1 1 1 1 1 1 1
WIDTH 122
HEIGHT 1
VIEWPOINT 0 0 0 1 0 0 0
POINTS 122
DATA ascii
1.20497000 42.78699900 508.66901000 -0.36016300 -0.87060702 0.33515000 1.905766e-42
0.46001700 43.17179900 508.79401000 -0.36016300 -0.87060702 0.33515000 1.905766e-42
-0.48052499 43.08779900 507.26199000 -0.39311799 -0.81904000 0.41789001 1.905766e-42
-0.77318698 42.32640100 505.65701000 -0.41014799 -0.80461597 0.42938599 1.905766e-42
-0.51558501 41.20320100 504.27399000 -0.41952801 -0.79513699 0.43789700 1.905766e-42
-0.96512997 40.57590100 502.64801000 -0.44113499 -0.78466100 0.43555501 1.905766e-42
-1.05890000 39.73450100 501.06000000 -0.45383301 -0.77054799 0.44753900 1.905766e-42
-0.96287000 38.71480200 499.57901000 -0.46101001 -0.75301099 0.46951601 1.905766e-42
-1.12486990 37.81160000 498.03101000 -0.47395200 -0.73115402 0.49069700 1.905766e-42
-1.42239000 36.96410000 496.47101000 -0.48764500 -0.70911998 0.50926602 1.905766e-42
-1.85704000 36.21550000 494.89301000 -0.49476400 -0.69570500 0.52077198 1.905766e-42
-2.12714000 35.32770200 493.35001000 -0.49849600 -0.68453002 0.53190303 1.905766e-42
-2.21418000 34.16450100 491.98001000 -0.50214797 -0.67763901 0.53726399 1.905766e-42
-2.33590010 33.05090000 490.57101000 -0.50958800 -0.67222703 0.53705800 1.905766e-42
-2.77146010 32.26480100 489.01099000 -0.52407402 -0.66484499 0.53228498 1.905766e-42
-2.88682010 31.11560100 487.63000000 -0.53111303 -0.65915000 0.53239101 1.905766e-42
-3.48190000 30.46369900 486.06201000 -0.54933202 -0.64844400 0.52702397 1.905766e-42
-3.97128010 29.76440000 484.47699000 -0.56708199 -0.63547599 0.52401203 1.905766e-42
-4.40176010 28.83820000 482.99500000 -0.57696301 -0.62245297 0.52883500 1.905766e-42
-4.85661980 27.98670000 481.47601000 -0.58440500 -0.61058700 0.53446603 1.905766e-42
-5.29356000 27.00300000 480.03299000 -0.58995700 -0.60059100 0.53966802 1.905766e-42
-5.78736020 26.12120100 478.54300000 -0.59739798 -0.59000897 0.54314297 1.905766e-42
-6.23267980 25.16630000 477.08401000 -0.60379797 -0.58001500 0.54681897 1.905766e-42
-6.39692020 23.97370000 475.74600000 -0.60524899 -0.57211798 0.55349302 1.905766e-42
-7.11144020 23.27549900 474.24899000 -0.61751097 -0.55760902 0.55475402 1.905766e-42
-7.90140010 22.75280000 472.71799000 -0.63258499 -0.54064101 0.55456603 1.905766e-42
-8.41536050 21.95690000 471.18701000 -0.64417702 -0.52236801 0.55871999 1.905766e-42
-9.09150030 21.20500000 469.69800000 -0.65868098 -0.50040501 0.56190300 1.905766e-42
-9.58067040 20.05250000 468.40500000 -0.66902298 -0.47449401 0.57206899 1.905766e-42
-10.44960000 19.56870100 466.90500000 -0.68782800 -0.44556600 0.57302999 1.905766e-42
-11.18160000 18.79500000 465.45401000 -0.69875002 -0.41623500 0.58180499 1.905766e-42
-11.97730000 18.01409900 464.04099000 -0.70850998 -0.38971499 0.58833301 1.905766e-42
-12.65300000 17.29760000 462.53400000 -0.71717697 -0.36557701 0.59330499 1.905766e-42
-13.50180000 16.44720100 461.19400000 -0.72451800 -0.34369501 0.59745097 1.905766e-42
-13.81230000 15.07670000 460.06900000 -0.72299403 -0.32826701 0.60788298 1.905766e-42
-14.90750000 14.89360000 458.65201000 -0.73871601 -0.30989701 0.59855002 1.905766e-42
-15.62620000 13.94800000 457.29901000 -0.74756700 -0.29604301 0.59456003 1.905766e-42
-16.41840000 13.41570000 455.77301000 -0.75993299 -0.28274801 0.58528298 1.905766e-42
-17.24189900 13.07470000 454.20901000 -0.77303702 -0.27074999 0.57367998 1.905766e-42
-18.15080100 12.08710000 453.01001000 -0.78125000 -0.26345500 0.56589800 1.905766e-42
-18.94860100 11.33050000 451.58499000 -0.78996599 -0.25670499 0.55682701 1.905766e-42
-19.75340100 10.86930000 450.04199000 -0.79718798 -0.25011501 0.54948503 1.905766e-42
-20.65650000 10.34990000 448.57401000 -0.80270702 -0.24507800 0.54368901 1.905766e-42
-21.49659900 9.89671990 447.04800000 -0.80719000 -0.24119300 0.53876799 1.905766e-42
-22.23500100 8.98692990 445.68201000 -0.80962300 -0.23980001 0.53573102 1.905766e-42
-22.37630100 7.37876990 444.88599000 -0.80911303 -0.24171899 0.53563899 1.905766e-42
-21.37879900 6.48799990 446.09100000 -0.80371302 -0.24582800 0.54186201 1.905766e-42
-20.12509900 5.43543000 446.83899000 -0.79426801 -0.25790000 0.55011499 1.905766e-42
-19.02759900 4.57219980 447.97501000 -0.78095597 -0.27318799 0.56167299 1.905766e-42
-17.93779900 3.91996000 449.25101000 -0.76506001 -0.28979099 0.57506901 1.905766e-42
-17.02580100 3.88999010 450.80200000 -0.75007600 -0.30265400 0.58803600 1.905766e-42
-15.83520000 3.53492000 452.10501000 -0.72932899 -0.31902200 0.60523099 1.905766e-42
-14.58650000 3.21550010 453.36099000 -0.70550901 -0.33532301 0.62435198 1.905766e-42
-13.32020000 3.07332990 454.63199000 -0.68329501 -0.35108301 0.64019400 1.905766e-42
-12.07810000 3.10932990 455.93500000 -0.66293401 -0.36409199 0.65418297 1.905766e-42
-10.77920000 3.09587000 457.18100000 -0.64283699 -0.37650701 0.66708601 1.905766e-42
-9.49481960 3.15519000 458.44000000 -0.62521601 -0.38538799 0.67866099 1.905766e-42
-8.16520980 3.18866990 459.65302000 -0.60865200 -0.39307401 0.68922800 1.905766e-42
-6.67031000 2.67192010 460.51300000 -0.58803302 -0.40750301 0.69868302 1.905766e-42
-5.25043010 2.60985990 461.61700000 -0.56630403 -0.41906101 0.70971000 1.905766e-42
-3.79724000 2.60268000 462.67899000 -0.54096001 -0.43215501 0.72152901 1.905766e-42
-2.58091000 2.96794010 463.95499000 -0.51786500 -0.44161701 0.73265898 1.905766e-42
-0.97864902 2.58351990 464.67899000 -0.48112699 -0.46113500 0.74556798 1.905766e-42
0.55118799 2.46880010 465.62100000 -0.44293401 -0.47831401 0.75830400 1.905766e-42
2.07185010 2.39200000 466.58099000 -0.40416399 -0.49615899 0.76842600 1.905766e-42
3.39229990 2.97349000 467.65701000 -0.38059601 -0.50809002 0.77265197 1.905766e-42
5.13654990 3.12571000 468.07501000 -0.35794801 -0.51505202 0.77884197 1.905766e-42
6.59478000 3.75315000 468.92300000 -0.34268799 -0.51952398 0.78272599 1.905766e-42
8.28083990 3.73060010 469.55301000 -0.32615501 -0.52340800 0.78718901 1.905766e-42
9.58403970 3.76852010 470.79401000 -0.31121200 -0.52849901 0.78983200 1.905766e-42
11.23490000 3.93436000 471.49200000 -0.28862900 -0.53336501 0.79511899 1.905766e-42
12.52680000 4.63644980 472.53101000 -0.26449901 -0.53555399 0.80201101 1.905766e-42
13.97660000 5.29499010 473.37000000 -0.23557900 -0.53926003 0.80851799 1.905766e-42
15.65260000 5.55480000 473.97299000 -0.19985200 -0.54401201 0.81492901 1.905766e-42
17.15259900 6.20743990 474.72400000 -0.16817600 -0.54690599 0.82012898 1.905766e-42
18.64060000 6.88698010 475.47501000 -0.13797700 -0.54835498 0.82478398 1.905766e-42
20.06520100 7.69766000 476.21899000 -0.12267700 -0.56037199 0.81910503 1.905766e-42
21.77160100 8.03403000 476.68201000 -0.09704590 -0.57479101 0.81252497 1.905766e-42
23.32749900 8.73904990 477.25000000 -0.07394600 -0.58924901 0.80456001 1.905766e-42
24.79750100 9.56126020 477.88501000 -0.05148930 -0.60320801 0.79592001 1.905766e-42
26.34230000 10.33950000 478.38300000 -0.02566960 -0.61543697 0.78776801 1.905766e-42
27.40860000 11.30410000 479.46500000 -0.00806374 -0.63079202 0.77591002 1.905766e-42
28.70970000 12.21730000 480.31000000 0.01587840 -0.64345503 0.76531899 1.905766e-42
30.34289900 12.88430000 480.66699000 0.04588010 -0.65020603 0.75837100 1.905766e-42
31.63870000 13.80180000 481.51501000 0.06922900 -0.66110098 0.74709600 1.905766e-42
33.06230200 14.70930000 482.14001000 0.09441320 -0.66922402 0.73703903 1.905766e-42
34.58409900 15.52220000 482.65302000 0.12018600 -0.67439401 0.72852498 1.905766e-42
36.09130100 16.35190000 483.18201000 0.14356101 -0.68033302 0.71870500 1.905766e-42
37.63579900 17.15420000 483.64099000 0.16284800 -0.68619800 0.70895100 1.905766e-42
38.98410000 18.15840000 484.28400000 0.17901000 -0.69408101 0.69728500 1.905766e-42
40.49879800 19.02840000 484.71899000 0.19766299 -0.69793802 0.68834001 1.905766e-42
42.06959900 19.90650000 484.75800000 0.22838600 -0.69556397 0.68119800 1.905766e-42
43.41280000 20.77090100 485.58701000 0.29128900 -0.69425398 0.65815002 1.905766e-42
42.55040000 21.78900000 486.79599000 0.24933399 -0.71218199 0.65622401 1.905766e-42
41.04999900 22.13810000 487.72699000 0.20520800 -0.72505099 0.65741199 1.905766e-42
39.47760000 22.34219900 488.57901000 0.18386300 -0.72993100 0.65832800 1.905766e-42
38.06959900 22.92799900 489.53500000 0.16785900 -0.73728698 0.65439397 1.905766e-42
36.71979900 23.61570000 490.50699000 0.14466000 -0.74313599 0.65331602 1.905766e-42
35.12060200 23.88410000 491.28799000 0.11806700 -0.74680799 0.65447497 1.905766e-42
33.45809900 24.13890100 491.92999000 0.09185250 -0.75044000 0.65452498 1.905766e-42
32.37649900 25.11930100 492.98300000 0.07609440 -0.75560403 0.65059298 1.905766e-42
30.83350000 25.53809900 493.81000000 0.05279110 -0.75947499 0.64839101 1.905766e-42
29.42530100 26.20220000 494.71301000 0.03090720 -0.76334500 0.64525199 1.905766e-42
28.16970100 27.01750000 495.71201000 0.01106610 -0.76691300 0.64165598 1.905766e-42
26.72950000 27.70780000 496.54199000 -0.01185140 -0.77012098 0.63778800 1.905766e-42
25.25550100 28.37750100 497.32901000 -0.03251360 -0.77418703 0.63212198 1.905766e-42
24.16160000 29.36430000 498.36301000 -0.04656450 -0.77808899 0.62642598 1.905766e-42
22.59510000 29.92770000 499.04800000 -0.06828240 -0.78034198 0.62161398 1.905766e-42
21.11980100 30.66050000 499.77399000 -0.08772190 -0.78233600 0.61664802 1.905766e-42
19.64810000 31.42330000 500.47501000 -0.10833800 -0.78507298 0.60985500 1.905766e-42
18.19129900 32.20589800 501.18600000 -0.13113500 -0.78832501 0.60112101 1.905766e-42
16.75460100 33.00149900 501.92300000 -0.15571900 -0.79197401 0.59036303 1.905766e-42
15.40500000 33.91650000 502.68500000 -0.18014200 -0.79630899 0.57744300 1.905766e-42
13.76190000 34.55090000 503.05701000 -0.21021800 -0.79680097 0.56649500 1.905766e-42
12.38470000 35.44390100 503.79501000 -0.23366900 -0.79955298 0.55327600 1.905766e-42
10.94300000 36.31880200 504.42499000 -0.25772399 -0.80091500 0.54047602 1.905766e-42
9.54471020 37.27119800 505.03900000 -0.27800301 -0.80353802 0.52634698 1.905766e-42
7.93748000 38.00759900 505.37799000 -0.30118901 -0.80413902 0.51248902 1.905766e-42
6.61111020 38.99150100 506.09399000 -0.31809601 -0.80811602 0.49574599 1.905766e-42
5.00788020 39.76010100 506.37500000 -0.34332499 -0.80703002 0.48044899 1.905766e-42
3.72622990 40.78080000 507.12000000 -0.35704300 -0.80945998 0.46614900 1.905766e-42
2.32583000 41.72129800 507.74799000 -0.36603200 -0.81476098 0.44965100 1.905766e-42
