# .PCD v0.7 - Point Cloud Data file format
# 2 82 0
# 1 40 0
# 41 82 0
VERSION 0.7
FIELDS x y z normal_x normal_y normal_z curvature
SIZE 4 4 4 4 4 4 4
TYPE F F F F F F F
COUNT 1 1 1 1 1 1 1
WIDTH 82
HEIGHT 1
VIEWPOINT 0 0 0 1 0 0 0
POINTS 82
DATA ascii
61.24589900 -1.97006000 431.64899000 0.36260599 0.12837200 -0.92305899 1.905766e-42
59.97250000 -3.13591000 431.14001000 0.42376700 0.05205160 -0.90427500 1.905766e-42
58.67490000 -4.12971020 430.38599000 0.49847400 0.08754400 -0.86247301 1.905766e-42
57.08459900 -4.83229020 429.92001000 0.52429801 0.13781300 -0.84030902 1.905766e-42
55.82730100 -4.87024020 428.63300000 0.53135401 0.23454100 -0.81403500 1.905766e-42
54.59830100 -5.56332020 427.51501000 0.52688301 0.33342901 -0.78180599 1.905766e-42
53.76330200 -6.65869000 426.35599000 0.49170601 0.43005899 -0.75714898 1.905766e-42
52.25640100 -6.03685000 425.59299000 0.40934300 0.41167000 -0.81422698 1.905766e-42
50.84190000 -4.92363020 425.58899000 0.32517999 0.36732700 -0.87139499 1.905766e-42
49.34249900 -3.92784000 425.58301000 0.29823101 0.32613000 -0.89704901 1.905766e-42
47.68040100 -3.31270000 425.26901000 0.26180100 0.29273999 -0.91965401 1.905766e-42
45.96920000 -3.61111000 424.79700000 0.20178699 0.21598101 -0.95531899 1.905766e-42
44.34529900 -2.83491990 424.77802000 0.19279701 0.20207299 -0.96020597 1.905766e-42
43.22580000 -1.42580000 424.74399000 0.21302100 0.28421301 -0.93479699 1.905766e-42
41.53920000 -0.82272398 424.56601000 0.19628300 0.29353699 -0.93558002 1.905766e-42
39.95570000 0.01910590 424.41199000 0.19227301 0.34673199 -0.91804600 1.905766e-42
38.34059900 0.80916798 424.32599000 0.18818000 0.40482801 -0.89481997 1.905766e-42
36.70600100 1.56087010 424.27200000 0.18501300 0.46208000 -0.86732501 1.905766e-42
35.11629900 2.39330010 424.41400000 0.21081500 0.51884502 -0.82846701 1.905766e-42
33.51129900 3.17264010 424.65100000 0.23419300 0.55931598 -0.79518503 1.905766e-42
31.84110100 3.82860990 424.79300000 0.25323099 0.57781100 -0.77589202 1.905766e-42
30.23560000 4.64186000 424.76300000 0.27162400 0.59483701 -0.75656497 1.905766e-42
28.71460000 5.60186000 424.69000000 0.28202599 0.62137097 -0.73099899 1.905766e-42
27.09390100 6.38206010 424.75699000 0.27704099 0.64950401 -0.70809102 1.905766e-42
25.62360000 6.72343020 424.49500000 0.26433101 0.63989699 -0.72156900 1.905766e-42
24.03010000 7.50540020 424.79401000 0.26029399 0.67490703 -0.69046903 1.905766e-42
22.32060100 8.06884960 424.80099000 0.24858400 0.68337703 -0.68644202 1.905766e-42
20.61870000 8.65423010 424.83301000 0.24914300 0.68886399 -0.68073100 1.905766e-42
19.15130000 9.60620980 425.25800000 0.26438099 0.71546698 -0.64669102 1.905766e-42
17.54810000 10.41940000 425.35001000 0.27094501 0.71415800 -0.64542001 1.905766e-42
16.01000000 11.32550000 425.58099000 0.27553201 0.70589799 -0.65252602 1.905766e-42
14.34670000 12.01350000 425.57199000 0.27618501 0.70038497 -0.65816599 1.905766e-42
12.74890000 12.79000000 425.86200000 0.26078600 0.69638097 -0.66861302 1.905766e-42
10.97340000 12.93600000 425.60501000 0.24007300 0.69796199 -0.67469603 1.905766e-42
9.60107990 13.95610000 426.16699000 0.22456700 0.69088602 -0.68720198 1.905766e-42
7.98472980 14.70660000 426.42099000 0.20264401 0.68477798 -0.70001000 1.905766e-42
6.43522980 15.58110000 426.69299000 0.21688300 0.67472100 -0.70548803 1.905766e-42
5.17819020 16.76110100 427.20999000 0.22703899 0.65473002 -0.72095901 1.905766e-42
3.69256000 17.72390000 427.53601000 0.23540901 0.63872898 -0.73253500 1.905766e-42
2.14760990 18.56790000 427.91101000 0.24161300 0.62574500 -0.74166501 1.905766e-42
0.82443601 19.63290000 428.50699000 0.24429600 0.60210299 -0.76012599 1.905766e-42
1.24260000 20.95140100 429.65900000 0.25905800 0.58358002 -0.76962501 1.905766e-42
2.77130010 21.51520000 430.42401000 0.27557600 0.61037898 -0.74262798 1.905766e-42
4.48040010 21.57460000 430.98599000 0.27170399 0.62870598 -0.72863197 1.905766e-42
6.15953020 21.50770000 431.63101000 0.24392401 0.61704701 -0.74816799 1.905766e-42
7.79828980 21.60780000 432.36801000 0.20448700 0.59932500 -0.77394700 1.905766e-42
9.49993040 21.61580100 432.95499000 0.16594601 0.59287602 -0.78801000 1.905766e-42
11.28910000 21.60120000 433.15201000 0.20485801 0.59417897 -0.77780801 1.905766e-42
13.02350000 21.65469900 433.63000000 0.24374500 0.60111600 -0.76108301 1.905766e-42
14.53120000 22.01240000 434.54599000 0.27256599 0.61773998 -0.73763502 1.905766e-42
16.19899900 22.07160000 435.22101000 0.28761300 0.61497003 -0.73422801 1.905766e-42
17.90320000 21.52039900 435.39899000 0.30061400 0.58954799 -0.74971002 1.905766e-42
19.59059900 21.43320100 436.01999000 0.28571200 0.58541799 -0.75871903 1.905766e-42
21.27599900 20.81819900 436.16501000 0.27296999 0.57532501 -0.77103102 1.905766e-42
22.95610000 20.88260100 436.80801000 0.26982599 0.60168302 -0.75177902 1.905766e-42
24.65690000 20.29350100 436.82901000 0.26478001 0.59727699 -0.75706798 1.905766e-42
26.34160000 19.96279900 437.36899000 0.28395700 0.66104001 -0.69454598 1.905766e-42
27.83700000 19.99449900 438.37100000 0.30967501 0.72978401 -0.60952097 1.905766e-42
29.27170000 19.15290100 437.68301000 0.30217201 0.67827201 -0.66980499 1.905766e-42
31.00260000 18.90210000 438.10800000 0.31000400 0.69927597 -0.64413500 1.905766e-42
32.65250000 18.18250100 438.11301000 0.30821800 0.67751902 -0.66780901 1.905766e-42
34.34050000 17.64760000 438.43600000 0.30050799 0.66954303 -0.67926902 1.905766e-42
35.96270000 16.98520100 438.84799000 0.27734199 0.66334802 -0.69501901 1.905766e-42
37.47180200 16.11249900 438.39899000 0.25902000 0.63796997 -0.72519201 1.905766e-42
39.22880200 15.96050000 438.75900000 0.24171600 0.64749098 -0.72272301 1.905766e-42
40.97760000 15.66220000 439.06400000 0.22912200 0.65317100 -0.72171402 1.905766e-42
42.65900000 15.03990000 438.90302000 0.21959300 0.65745801 -0.72078300 1.905766e-42
44.28490100 14.27170000 438.82501000 0.20951200 0.65939897 -0.72201002 1.905766e-42
45.99660100 13.75050000 439.02100000 0.19662000 0.65981603 -0.72524703 1.905766e-42
47.40599800 12.77570000 438.47000000 0.18673100 0.64868402 -0.73779398 1.905766e-42
49.12749900 12.60170000 438.96600000 0.16349800 0.64272600 -0.74844599 1.905766e-42
50.69549900 11.95280000 438.36600000 0.16081700 0.62388802 -0.76478797 1.905766e-42
52.36280100 11.29200000 438.21301000 0.15402600 0.60992098 -0.77734900 1.905766e-42
53.64090000 10.13560000 437.69400000 0.15404101 0.60354400 -0.78230798 1.905766e-42
55.02299900 9.10560040 437.17599000 0.15086000 0.61045700 -0.77754998 1.905766e-42
55.99169900 7.90378000 436.25000000 0.14280801 0.63529301 -0.75895202 1.905766e-42
56.31110000 6.57335000 435.07999000 0.13577101 0.63552397 -0.76005000 1.905766e-42
57.17839800 5.27940990 434.17801000 0.15719500 0.61949801 -0.76909900 1.905766e-42
57.66249800 3.81079010 433.25699000 0.19287799 0.57224202 -0.79707998 1.905766e-42
58.74729900 2.46910000 432.74399000 0.23677200 0.50630999 -0.82920998 1.905766e-42
60.09460100 1.28438000 432.59799000 0.26637000 0.42385900 -0.86567402 1.905766e-42
60.84899900 -0.28293899 432.13501000 0.31898499 0.30868199 -0.89608198 1.905766e-42
