# .PCD v0.7 - Point Cloud Data file format
# 2 101 0
# 1 61 0
# 62 101 0
VERSION 0.7
FIELDS x y z normal_x normal_y normal_z curvature
SIZE 4 4 4 4 4 4 4
TYPE F F F F F F F
COUNT 1 1 1 1 1 1 1
WIDTH 101
HEIGHT 1
VIEWPOINT 0 0 0 1 0 0 0
POINTS 101
DATA ascii
15.42140000 -8.68535040 448.80099000 -0.38345799 -0.92314702 0.02756080 1.905766e-42
16.97430000 -9.22997000 449.53000000 -0.25830999 -0.91406500 0.31266800 1.905766e-42
18.57880000 -9.27797030 450.34500000 -0.18941499 -0.90942597 0.37022600 1.905766e-42
20.22470100 -9.23021980 451.07199000 -0.14060900 -0.90605801 0.39910799 1.905766e-42
21.82140000 -9.10935970 451.89401000 -0.12699001 -0.90655500 0.40253100 1.905766e-42
23.61870000 -9.15168950 451.98300000 -0.10477300 -0.90956599 0.40213600 1.905766e-42
25.25250100 -9.10585980 452.73700000 -0.07338840 -0.90832001 0.41178700 1.905766e-42
26.80960100 -8.76082990 453.57199000 -0.04877600 -0.90331203 0.42620301 1.905766e-42
28.11599900 -8.24923990 454.70001000 -0.03623200 -0.89607698 0.44241700 1.905766e-42
29.42210000 -7.79307990 455.85101000 -0.02709770 -0.89112002 0.45295799 1.905766e-42
30.54780000 -7.24582000 457.14499000 -0.01949430 -0.88741899 0.46055099 1.905766e-42
31.77350000 -6.57974000 458.28201000 -0.00636829 -0.88186699 0.47145501 1.905766e-42
32.67139800 -5.73637010 459.59500000 0.00732585 -0.87217897 0.48913199 1.905766e-42
33.30939900 -4.89912990 461.05499000 0.01853010 -0.86091501 0.50841200 1.905766e-42
34.22620000 -3.99669000 462.31400000 0.02242560 -0.85214400 0.52282703 1.905766e-42
34.23490100 -3.25405000 463.95401000 0.02551180 -0.84261203 0.53791600 1.905766e-42
34.32310100 -2.25678990 465.44901000 0.02865160 -0.83294803 0.55260903 1.905766e-42
34.36980100 -1.25136010 466.94199000 0.03150300 -0.82325399 0.56679899 1.905766e-42
35.13670000 -0.31819701 468.27600000 0.03989830 -0.81178200 0.58259702 1.905766e-42
35.80830000 0.71304601 469.59000000 0.04699750 -0.79624999 0.60313898 1.905766e-42
34.60070000 1.46368000 470.69400000 0.03480140 -0.78547800 0.61791003 1.905766e-42
34.47010000 2.66646000 472.02600000 0.03617210 -0.77017701 0.63680398 1.905766e-42
34.40679900 3.84115000 473.38901000 0.02874670 -0.75952899 0.64983702 1.905766e-42
34.66859800 5.03708980 474.70801000 0.02360250 -0.74942601 0.66166699 1.905766e-42
34.04230100 6.06821010 476.04401000 0.02237150 -0.73940098 0.67289299 1.905766e-42
33.59569900 7.21506020 477.35800000 0.02552950 -0.72935700 0.68365699 1.905766e-42
33.44780000 8.44542980 478.66299000 0.03274300 -0.71650100 0.69681698 1.905766e-42
32.77479900 9.60303020 479.86600000 0.03954870 -0.70532697 0.70777798 1.905766e-42
32.47729900 10.86760000 481.11200000 0.05056750 -0.69058901 0.72147697 1.905766e-42
31.59140000 11.96040000 482.23499000 0.05509010 -0.67844200 0.73258501 1.905766e-42
30.94850000 13.18450000 483.38800000 0.05944930 -0.66307801 0.74618602 1.905766e-42
30.46200000 14.59760000 484.39099000 0.06420430 -0.64833701 0.75864100 1.905766e-42
29.34100000 15.50990000 485.46399000 0.05665860 -0.64126301 0.76522601 1.905766e-42
28.25950100 16.56049900 486.44699000 0.04758700 -0.63409501 0.77178901 1.905766e-42
27.38710000 17.76219900 487.46399000 0.03969150 -0.62498599 0.77962601 1.905766e-42
26.39450100 18.91740000 488.42300000 0.03040420 -0.61514997 0.78782302 1.905766e-42
25.55229900 20.26440000 489.26999000 0.02305720 -0.60372698 0.79685700 1.905766e-42
24.41120000 21.27560000 490.22699000 0.01415640 -0.59268999 0.80530602 1.905766e-42
23.27920000 22.43960000 491.00400000 0.00622125 -0.58052301 0.81422001 1.905766e-42
22.17079900 23.61980100 491.79001000 -0.00195772 -0.56807202 0.82297701 1.905766e-42
20.76499900 24.51030000 492.47601000 -0.01602040 -0.55589598 0.83109701 1.905766e-42
19.97139900 25.86210100 493.36099000 -0.03399500 -0.54353797 0.83869600 1.905766e-42
18.51720000 26.76670100 493.91501000 -0.05784760 -0.52759099 0.84752601 1.905766e-42
16.86520000 27.45999900 494.08899000 -0.08178460 -0.50697398 0.85807300 1.905766e-42
15.10420000 27.81940100 494.18701000 -0.11293000 -0.49075201 0.86395001 1.905766e-42
13.43770000 28.61280100 494.35101000 -0.12851501 -0.49383399 0.86000699 1.905766e-42
11.73490000 29.18969900 494.26401000 -0.13131601 -0.49633801 0.85813999 1.905766e-42
9.96994020 29.53820000 494.20401000 -0.14099699 -0.50413102 0.85203999 1.905766e-42
8.17510030 29.57000000 494.07199000 -0.17765000 -0.51829100 0.83655000 1.905766e-42
6.49701020 30.20809900 493.94199000 -0.21067099 -0.52270597 0.82607299 1.905766e-42
4.83997010 30.88180000 493.74100000 -0.23539200 -0.52298999 0.81919003 1.905766e-42
3.06215000 31.12240000 493.59500000 -0.25292701 -0.52295297 0.81397003 1.905766e-42
1.39715000 31.78790100 493.43701000 -0.26881701 -0.51962900 0.81100100 1.905766e-42
-0.29628301 32.34270100 493.18301000 -0.28764600 -0.51719302 0.80608398 1.905766e-42
-2.00335000 32.86719900 492.95801000 -0.31192699 -0.51534897 0.79819602 1.905766e-42
-3.69492010 33.40750100 492.66299000 -0.33904600 -0.51338100 0.78834498 1.905766e-42
-5.32437990 34.11990000 492.38501000 -0.36093700 -0.51070100 0.78032601 1.905766e-42
-7.00340990 34.65660100 492.02100000 -0.37338600 -0.50866598 0.77578503 1.905766e-42
-8.51842020 35.59970100 491.78601000 -0.38097501 -0.50727201 0.77300298 1.905766e-42
-10.13570000 36.34529900 491.52399000 -0.38705599 -0.50747901 0.76983899 1.905766e-42
-11.69250000 37.19380200 491.21301000 -0.39411399 -0.50928402 0.76505202 1.905766e-42
-13.37060000 37.54029800 490.66199000 -0.39683300 -0.51456398 0.76009703 1.905766e-42
-13.73420000 36.24869900 489.46201000 -0.38893801 -0.52072102 0.75998402 1.905766e-42
-13.05020000 34.67940100 488.90601000 -0.39731601 -0.52354300 0.75368601 1.905766e-42
-12.48280000 33.14090000 488.16400000 -0.40013501 -0.52695900 0.74980402 1.905766e-42
-11.62070000 31.67140000 487.58301000 -0.40979800 -0.53104901 0.74165499 1.905766e-42
-10.49040000 30.32280000 487.20300000 -0.41867301 -0.53561401 0.73336899 1.905766e-42
-9.92780020 28.80780000 486.41101000 -0.41609800 -0.54715699 0.72627902 1.905766e-42
-9.21856980 27.32200100 485.68301000 -0.40644401 -0.56569397 0.71749097 1.905766e-42
-8.52157020 25.84750000 484.92200000 -0.39786100 -0.58245599 0.70883799 1.905766e-42
-7.80328990 24.41640100 484.10001000 -0.38974401 -0.59763801 0.70066297 1.905766e-42
-7.08226010 23.01940000 483.22299000 -0.38192099 -0.61138302 0.69307101 1.905766e-42
-6.25843000 21.59030000 482.50299000 -0.37254301 -0.62436903 0.68656802 1.905766e-42
-5.34569980 20.24290100 481.73300000 -0.36339700 -0.63740999 0.67944902 1.905766e-42
-4.70829010 18.94920000 480.65601000 -0.35836199 -0.65101397 0.66914600 1.905766e-42
-3.79092000 17.58960000 479.91501000 -0.35020700 -0.66400099 0.66064900 1.905766e-42
-2.74401000 16.30390000 479.21399000 -0.34112999 -0.67644501 0.65272701 1.905766e-42
-2.44322990 15.01090000 477.99899000 -0.33986101 -0.69056797 0.63844401 1.905766e-42
-1.69372000 13.71400000 477.00000000 -0.33421701 -0.70429897 0.62630802 1.905766e-42
-1.11431000 12.53590000 475.76901000 -0.33111200 -0.71809500 0.61213100 1.905766e-42
-0.09749340 11.25370000 475.01901000 -0.32375601 -0.72999001 0.60191101 1.905766e-42
0.70100498 10.07340000 473.92001000 -0.31948701 -0.74258399 0.58863997 1.905766e-42
2.04333000 9.02068040 473.34500000 -0.30821201 -0.75177300 0.58296001 1.905766e-42
3.11851000 7.87960000 472.46100000 -0.29830900 -0.76279998 0.57371402 1.905766e-42
4.13036010 6.96817020 471.28400000 -0.28850299 -0.77411801 0.56347698 1.905766e-42
5.26890990 5.78154990 470.55200000 -0.27291101 -0.78481102 0.55641001 1.905766e-42
5.76083990 4.86496020 469.08301000 -0.26743200 -0.79543602 0.54383999 1.905766e-42
6.73525000 3.65560010 468.17300000 -0.25302199 -0.80408800 0.53798002 1.905766e-42
7.14654020 2.65389990 466.73499000 -0.25282899 -0.80685198 0.53391600 1.905766e-42
7.64644000 1.62135990 465.34799000 -0.25782999 -0.81148499 0.52441901 1.905766e-42
8.47976020 0.49884501 464.21399000 -0.25830001 -0.81626600 0.51671201 1.905766e-42
8.79477980 -0.32940599 462.64801000 -0.27549300 -0.82438201 0.49446699 1.905766e-42
9.46424960 -1.51310000 461.46799000 -0.28267100 -0.83124799 0.47866899 1.905766e-42
10.05400000 -2.49390010 460.07901000 -0.28740701 -0.84230500 0.45598200 1.905766e-42
10.29420000 -3.34955000 458.51401000 -0.29307699 -0.85308403 0.43168601 1.905766e-42
11.28900000 -4.26500990 457.32501000 -0.28717199 -0.86234897 0.41699699 1.905766e-42
11.74020000 -5.12691020 455.81100000 -0.28629899 -0.87207299 0.39689001 1.905766e-42
12.12210000 -5.94884010 454.25601000 -0.28448001 -0.88171798 0.37635699 1.905766e-42
12.81840000 -6.66315980 452.75699000 -0.27838600 -0.89262003 0.35458401 1.905766e-42
13.83160000 -7.60678010 451.60699000 -0.27236599 -0.90221500 0.33440199 1.905766e-42
14.13830000 -8.04368970 449.88800000 -0.29038700 -0.91938001 0.26535800 1.905766e-42
