# .PCD v0.7 - Point Cloud Data file format
# 3 50 -2
# 1 14 0
# 15 32 0
# 33 50 0
VERSION 0.7
FIELDS x y z normal_x normal_y normal_z curvature
SIZE 4 4 4 4 4 4 4
TYPE F F F F F F F
COUNT 1 1 1 1 1 1 1
WIDTH 50
HEIGHT 1
VIEWPOINT 0 0 0 1 0 0 0
POINTS 50
DATA ascii
21.27820000 24.89979900 457.59500000 -0.01099740 -0.95608801 -0.29287201 1.905766e-42
22.27090100 24.70490100 458.22900000 -0.00873717 -0.94309199 -0.33241701 1.905766e-42
23.25989900 24.08820000 459.60001000 -0.03665410 -0.90302300 -0.42802599 1.905766e-42
24.02160100 23.27490000 461.01401000 -0.06650970 -0.83182400 -0.55103999 1.905766e-42
24.30960100 22.18630000 462.41800000 -0.07568040 -0.77030098 -0.63317400 1.905766e-42
25.56230000 21.26300000 463.32300000 -0.07162780 -0.73110002 -0.67850000 1.905766e-42
25.92270100 19.94650100 464.49600000 -0.08658120 -0.67167503 -0.73576897 1.905766e-42
26.66070000 18.68709900 465.54901000 -0.12143200 -0.60474998 -0.78710300 1.905766e-42
27.07630000 17.22040000 466.50699000 -0.14448000 -0.58381301 -0.79892898 1.905766e-42
27.84230000 15.84400000 467.37799000 -0.16879299 -0.56524003 -0.80747300 1.905766e-42
28.21489900 14.33890000 468.29199000 -0.19306800 -0.50044101 -0.84396899 1.905766e-42
28.82710100 12.81360000 469.02600000 -0.20683999 -0.44002700 -0.87383801 1.905766e-42
29.34520000 11.26930000 469.79199000 -0.21553500 -0.38598299 -0.89697301 1.905766e-42
28.86650100 9.69888020 470.53000000 -0.19421799 -0.45825201 -0.86734301 1.905766e-42
28.92420000 8.11264040 471.37900000 -0.21342000 -0.49041399 -0.84495300 1.905766e-42
27.21279900 8.00362010 471.92599000 -0.18255000 -0.52245498 -0.83289599 1.905766e-42
25.43790100 8.00092030 472.22601000 -0.12319300 -0.53808397 -0.83384001 1.905766e-42
23.65420000 8.00072960 472.46701000 -0.07820790 -0.54171598 -0.83691502 1.905766e-42
21.86000100 7.99802020 472.61200000 -0.04448370 -0.53931898 -0.84092599 1.905766e-42
20.06119900 7.96471980 472.66699000 -0.00809091 -0.53353798 -0.84573698 1.905766e-42
18.26820000 7.84848020 472.77600000 0.02447730 -0.54295802 -0.83940297 1.905766e-42
16.50009900 7.99164010 472.47101000 0.03787910 -0.50576901 -0.86183703 1.905766e-42
14.70400000 7.87419990 472.45599000 0.05960200 -0.50922400 -0.85856801 1.905766e-42
12.99110000 7.41286990 472.76099000 0.07982300 -0.56513000 -0.82113099 1.905766e-42
11.20450000 7.22183990 472.65302000 0.10776500 -0.59426600 -0.79701602 1.905766e-42
9.43451980 7.20370010 472.32599000 0.17826000 -0.60385299 -0.77690703 1.905766e-42
7.69161990 7.07813980 471.89401000 0.21840000 -0.58155602 -0.78364199 1.905766e-42
5.99765010 7.18773980 471.29599000 0.24689500 -0.52551502 -0.81417203 1.905766e-42
4.26769020 7.03790000 470.82101000 0.29206300 -0.51430702 -0.80634201 1.905766e-42
2.57021000 6.44477990 470.73901000 0.33347699 -0.56863099 -0.75196499 1.905766e-42
1.01090000 6.52091980 469.84299000 0.37597299 -0.53799498 -0.75445700 1.905766e-42
-0.48989600 6.76514010 468.88000000 0.38000900 -0.45619500 -0.80466098 1.905766e-42
-1.65617000 7.63650990 467.82101000 0.40266901 -0.37145099 -0.83658999 1.905766e-42
-1.61593000 9.32404990 467.19601000 0.40746000 -0.34130099 -0.84704798 1.905766e-42
-0.45572501 10.69990000 467.16400000 0.40708101 -0.38595399 -0.82784301 1.905766e-42
0.77724701 12.00490000 467.03500000 0.38059601 -0.46028000 -0.80205297 1.905766e-42
2.03871990 13.27470000 466.84500000 0.34525400 -0.51977003 -0.78143400 1.905766e-42
3.27949000 14.53400000 466.50601000 0.31339499 -0.56242400 -0.76515502 1.905766e-42
4.48285010 15.78140000 466.01999000 0.29789799 -0.58389902 -0.75519401 1.905766e-42
5.63580990 17.05660100 465.48700000 0.28518099 -0.59439898 -0.75190502 1.905766e-42
6.62122010 18.38430000 464.77499000 0.26125801 -0.62957799 -0.73169398 1.905766e-42
8.14464000 19.29680100 464.48099000 0.19899400 -0.67615402 -0.70937800 1.905766e-42
9.63204000 20.16690100 463.96100000 0.14633000 -0.72508401 -0.67293400 1.905766e-42
10.90100000 21.14150000 463.13599000 0.12961000 -0.76208901 -0.63436699 1.905766e-42
12.25190000 21.95960000 462.27301000 0.11039900 -0.78393799 -0.61094499 1.905766e-42
13.81540000 22.61260000 461.66501000 0.10086200 -0.80869901 -0.57951099 1.905766e-42
15.14290000 23.41200100 460.75000000 0.08473810 -0.84843898 -0.52246702 1.905766e-42
16.46950000 24.08140000 459.73401000 0.04992660 -0.89394301 -0.44539100 1.905766e-42
18.01450000 24.47340000 458.89700000 0.00717839 -0.92779899 -0.37301201 1.905766e-42
19.52090100 24.82650000 457.97800000 -0.01646370 -0.94735700 -0.31975499 1.905766e-42
