# .PCD v0.7 - Point Cloud Data file format
# 3 47 0
# 1 19 0
# 20 35 0
# 36 47 0
VERSION 0.7
FIELDS x y z normal_x normal_y normal_z curvature
SIZE 4 4 4 4 4 4 4
TYPE F F F F F F F
COUNT 1 1 1 1 1 1 1
WIDTH 47
HEIGHT 1
VIEWPOINT 0 0 0 1 0 0 0
POINTS 47
DATA ascii
27.25260000 20.00239900 445.44699000 -0.09613360 -0.56261700 -0.82110900 1.905766e-42
28.70590000 19.48329900 445.64999000 -0.06185820 -0.58394599 -0.80943203 1.905766e-42
29.30050100 18.09600100 446.63101000 -0.03458530 -0.58248401 -0.81210601 1.905766e-42
28.40710100 16.82200100 447.53500000 -0.02133360 -0.56846899 -0.82242799 1.905766e-42
27.67240000 15.48090000 448.48499000 -0.00565190 -0.57881403 -0.81544000 1.905766e-42
27.02829900 14.10660000 449.45300000 0.00806831 -0.59424800 -0.80424100 1.905766e-42
26.35370100 12.78220000 450.46799000 0.02443710 -0.60766500 -0.79381800 1.905766e-42
26.09359900 11.40550000 451.59799000 0.05143430 -0.62736303 -0.77702701 1.905766e-42
25.42490000 10.07710000 452.61200000 0.08210330 -0.63427198 -0.76873797 1.905766e-42
24.79640000 8.73182960 453.63000000 0.10902200 -0.64114201 -0.75963902 1.905766e-42
23.74460000 7.53926990 454.47299000 0.13279700 -0.64450300 -0.75298202 1.905766e-42
23.10080000 6.21840000 455.51300000 0.15242299 -0.65505099 -0.74005097 1.905766e-42
22.49690100 4.90622000 456.58701000 0.16991200 -0.66976100 -0.72287601 1.905766e-42
21.86150000 3.65015010 457.70901000 0.18580900 -0.68949902 -0.70004702 1.905766e-42
20.73469900 2.46386000 458.45901000 0.20661999 -0.70052499 -0.68306202 1.905766e-42
19.83090000 1.24402000 459.42599000 0.21120900 -0.70579600 -0.67619699 1.905766e-42
19.12439900 0.03145650 460.55301000 0.21588700 -0.71645200 -0.66339302 1.905766e-42
18.16480100 -1.17040000 461.48801000 0.21532001 -0.71064597 -0.66979003 1.905766e-42
17.38590000 -2.42143010 462.52200000 0.21961300 -0.70723099 -0.67200798 1.905766e-42
15.62180000 -2.61455010 462.22101000 0.21831600 -0.70051098 -0.67942798 1.905766e-42
14.74810000 -1.65675000 460.97198000 0.20690700 -0.69452101 -0.68907899 1.905766e-42
14.06940000 -0.58631802 459.69400000 0.18054900 -0.68866497 -0.70224100 1.905766e-42
12.85620000 0.23137900 458.64600000 0.14804000 -0.66947401 -0.72793502 1.905766e-42
11.78970000 1.20834000 457.57401000 0.12241200 -0.64905298 -0.75082999 1.905766e-42
11.06230000 2.41173010 456.45001000 0.10000600 -0.62929600 -0.77070498 1.905766e-42
10.84120000 3.81325010 455.34299000 0.08559000 -0.60722297 -0.78990799 1.905766e-42
10.24960000 5.08901980 454.21899000 0.06258210 -0.58322400 -0.80989701 1.905766e-42
9.66096020 6.50350000 453.27399000 0.06141270 -0.56284600 -0.82427698 1.905766e-42
8.75428010 7.82389020 452.45300000 0.05412240 -0.54097801 -0.83929402 1.905766e-42
8.28687950 9.22900010 451.42999000 0.04298940 -0.51259798 -0.85755199 1.905766e-42
7.72224000 10.70030000 450.56000000 0.02184760 -0.48311001 -0.87528700 1.905766e-42
7.39100980 12.25830000 449.72198000 -0.00390927 -0.45227599 -0.89187002 1.905766e-42
6.44880010 13.63550000 449.04700000 -0.03034720 -0.41292799 -0.91025800 1.905766e-42
6.54224010 15.29200000 448.34900000 -0.05807920 -0.39475301 -0.91694999 1.905766e-42
6.54652980 17.02300100 447.85501000 -0.07628950 -0.37913299 -0.92219198 1.905766e-42
7.55057000 18.21460000 446.95401000 -0.06883570 -0.36973500 -0.92658401 1.905766e-42
8.76570990 19.45610000 446.48199000 -0.05087210 -0.35666299 -0.93284702 1.905766e-42
9.75471020 20.84820000 445.91299000 -0.03895370 -0.35353801 -0.93460900 1.905766e-42
11.37080000 21.57449900 445.59601000 -0.02550380 -0.35034001 -0.93627501 1.905766e-42
13.16500000 21.43000000 445.59698000 -0.02319430 -0.34278700 -0.93912703 1.905766e-42
14.96330000 21.35090100 445.59698000 -0.01027960 -0.33473799 -0.94225502 1.905766e-42
16.72790000 21.70570000 445.59900000 -0.00508577 -0.31615901 -0.94869298 1.905766e-42
18.52549900 21.61220000 445.59601000 -0.03481220 -0.31690601 -0.94781798 1.905766e-42
20.30460000 21.33860000 445.59698000 -0.06674170 -0.34632701 -0.93573701 1.905766e-42
21.89310100 20.49210000 445.59601000 -0.08456020 -0.40739501 -0.90932900 1.905766e-42
23.67100000 20.21060000 445.59900000 -0.07297370 -0.47355399 -0.87773699 1.905766e-42
25.45890000 20.00219900 445.59698000 -0.07641390 -0.52694702 -0.84645599 1.905766e-42
