# .PCD v0.7 - Point Cloud Data file format
# 4 131 1
# 1 27 0
# 28 52 0
# 53 94 1
# 95 131 0
VERSION 0.7
FIELDS x y z normal_x normal_y normal_z curvature
SIZE 4 4 4 4 4 4 4
TYPE F F F F F F F
COUNT 1 1 1 1 1 1 1
WIDTH 131
HEIGHT 1
VIEWPOINT 0 0 0 1 0 0 0
POINTS 131
DATA ascii
-1.92076000 -20.52650100 352.74799000 0.96804798 0.10214800 -0.22901700 1.905766e-42
-2.45427990 -19.63100100 351.28000000 0.96972102 0.09478880 -0.22507000 1.905766e-42
-2.66544010 -17.87599900 350.94101000 0.97201198 0.09459070 -0.21504600 1.905766e-42
-3.21940990 -16.52120000 349.89301000 0.97451901 0.08983830 -0.20552599 1.905766e-42
-3.27863000 -14.75770000 349.53799000 0.97695500 0.09192030 -0.19263600 1.905766e-42
-3.49534010 -13.00020000 349.21500000 0.97932100 0.09576030 -0.17821600 1.905766e-42
-3.79459000 -11.51090000 348.24899000 0.98158699 0.09547230 -0.16544300 1.905766e-42
-4.17290020 -10.38420000 346.89700000 0.98354203 0.09149690 -0.15579700 1.905766e-42
-4.37098980 -8.70973970 346.26700000 0.98522103 0.09529320 -0.14233100 1.905766e-42
-4.66105990 -7.29504010 345.19299000 0.98766899 0.07692220 -0.13635200 1.905766e-42
-4.96831990 -6.03002980 343.95001000 0.98969102 0.06097860 -0.12958699 1.905766e-42
-4.97826000 -4.26852990 343.57999000 0.99127197 0.04328290 -0.12452400 1.905766e-42
-5.20982980 -2.84911990 342.49701000 0.99277902 0.02805220 -0.11663100 1.905766e-42
-5.56912990 -1.89015000 341.01700000 0.99411500 0.01591050 -0.10715700 1.905766e-42
-5.66363000 -0.41621700 339.98801000 0.99521703 0.00116950 -0.09768560 1.905766e-42
-5.60872980 0.07526190 339.56000000 0.99557298 -0.00387181 -0.09390850 1.905766e-42
-5.59112980 1.77835000 338.97699000 0.99619198 -0.01824270 -0.08526270 1.905766e-42
-5.63412000 3.16355990 337.82800000 0.99648601 -0.03767490 -0.07480740 1.905766e-42
-5.66644000 4.52701000 336.65399000 0.99613398 -0.06030740 -0.06386840 1.905766e-42
-5.60029980 6.14098980 335.85999000 0.99477398 -0.08623770 -0.05465580 1.905766e-42
-5.58241990 7.23403980 334.42999000 0.99363202 -0.10522800 -0.04026880 1.905766e-42
-5.52219010 8.46908000 333.12201000 0.99170399 -0.12593900 -0.02573620 1.905766e-42
-5.26445010 9.94631000 332.12601000 0.98874801 -0.14892000 -0.01412120 1.905766e-42
-5.14117000 10.89400000 330.60001000 0.98641199 -0.16428900 -0.00051806 1.905766e-42
-4.94822980 12.10340000 329.28101000 0.98351800 -0.18049400 0.01072670 1.905766e-42
-4.77774000 12.84750000 327.65100000 0.98157501 -0.18979500 0.02208830 1.905766e-42
-4.62456990 13.79720000 326.13000000 0.97995800 -0.19659901 0.03211440 1.905766e-42
-4.28659010 15.13740000 324.97699000 0.97939098 -0.19784300 0.04063260 1.905766e-42
-3.96712990 16.71769900 325.77701000 0.97991198 -0.19549400 0.03942900 1.905766e-42
-3.97143010 18.36090100 326.51199000 0.98036098 -0.19343400 0.03841260 1.905766e-42
-3.49279000 19.61750000 327.70801000 0.98096198 -0.19102500 0.03497490 1.905766e-42
-3.21708990 20.94249900 328.89499000 0.98152500 -0.18867999 0.03174230 1.905766e-42
-2.94108010 22.47909900 329.79099000 0.98124897 -0.19045401 0.02963550 1.905766e-42
-2.63174010 24.08970100 330.53299000 0.97983801 -0.19786200 0.02772550 1.905766e-42
-2.31750990 25.68860100 331.29800000 0.97840202 -0.20505600 0.02611200 1.905766e-42
-2.02598000 27.28710000 332.07199000 0.97694099 -0.21207801 0.02469570 1.905766e-42
-1.68554000 28.83400000 332.92700000 0.97552902 -0.21866900 0.02293980 1.905766e-42
-1.31533000 30.46380000 333.59601000 0.97318798 -0.22901200 0.02143480 1.905766e-42
-1.01247000 32.21379900 333.88901000 0.96585500 -0.25854799 0.01664920 1.905766e-42
-0.72121501 33.91199900 334.40900000 0.95751101 -0.28826499 0.00876046 1.905766e-42
-0.05543680 35.34820200 335.26599000 0.94824302 -0.31753901 -0.00215378 1.905766e-42
0.47448501 36.90280200 336.00201000 0.93725199 -0.34839901 -0.01331660 1.905766e-42
0.97530502 38.62879900 336.10400000 0.92516798 -0.37893099 -0.02180330 1.905766e-42
1.76013000 40.09149900 336.79999000 0.91364503 -0.40522400 -0.03233110 1.905766e-42
2.50233010 41.72259900 336.96899000 0.90078300 -0.43223101 -0.04203540 1.905766e-42
3.46357010 43.08369800 337.64999000 0.88608700 -0.46051699 -0.05265650 1.905766e-42
4.29612020 44.64040000 338.00201000 0.86955500 -0.48979801 -0.06303290 1.905766e-42
5.11658000 46.19450000 338.39099000 0.87349200 -0.48203999 -0.06819230 1.905766e-42
5.80355980 47.83160000 338.68799000 0.91314298 -0.40283200 -0.06241950 1.905766e-42
6.56430010 49.35070000 339.28201000 0.94074202 -0.33521399 -0.05134370 1.905766e-42
7.20340010 50.87699900 339.99100000 0.96013200 -0.27738699 -0.03468590 1.905766e-42
7.70872020 52.60450000 340.00601000 0.97313899 -0.22915199 -0.02211540 1.905766e-42
7.86605980 54.04650100 341.07199000 0.98192298 -0.18901400 0.01003070 1.905766e-42
7.75788020 53.50659900 342.78601000 0.98239303 -0.18149300 0.04431380 1.905766e-42
7.63452010 53.41759900 344.57901000 0.98765999 -0.15302700 0.03332190 1.905766e-42
7.51776980 53.28889800 346.37100000 0.99129599 -0.12927100 0.02492330 1.905766e-42
7.46875000 52.68009900 348.06400000 0.99225903 -0.12354800 0.01258670 1.905766e-42
7.34700010 52.57429900 349.85699000 0.99459201 -0.10348500 0.00878782 1.905766e-42
7.22297000 52.39780000 351.64401000 0.99621397 -0.08679780 0.00492607 1.905766e-42
7.28357980 51.65280200 353.28201000 0.99598402 -0.08849160 -0.01358600 1.905766e-42
7.33555980 50.90210000 354.91699000 0.99537200 -0.09077470 -0.03155020 1.905766e-42
7.40598010 50.07090000 356.51199000 0.99416000 -0.09575610 -0.04976040 1.905766e-42
7.32662010 49.93000000 358.30399000 0.99504799 -0.07888450 -0.06047420 1.905766e-42
7.42992020 49.11930100 359.90799000 0.99360502 -0.08205380 -0.07756190 1.905766e-42
7.45127010 48.72919800 361.66501000 0.99337000 -0.07200350 -0.08962240 1.905766e-42
7.59225990 47.91429900 363.26401000 0.99185401 -0.07347400 -0.10405100 1.905766e-42
7.69857980 47.20330000 364.91400000 0.99055898 -0.07083760 -0.11737000 1.905766e-42
7.90814020 46.22549800 366.41101000 0.98827398 -0.07465820 -0.13319500 1.905766e-42
8.07952020 45.53990200 368.06601000 0.98688698 -0.06910860 -0.14586800 1.905766e-42
8.25776000 44.81320200 369.70401000 0.98525298 -0.06379980 -0.15876500 1.905766e-42
8.47204970 43.95209900 371.26999000 0.98335499 -0.06140960 -0.17100400 1.905766e-42
8.70007990 43.10860100 372.84299000 0.98184299 -0.05761140 -0.18073399 1.905766e-42
8.96374030 42.11980100 374.32401000 0.97976297 -0.05587530 -0.19220600 1.905766e-42
9.21508980 41.14979900 375.81900000 0.97771698 -0.05176170 -0.20344600 1.905766e-42
9.45930960 40.43330000 377.45200000 0.97674000 -0.03959040 -0.21073900 1.905766e-42
9.72142980 39.59420000 379.02301000 0.97522700 -0.02817190 -0.21940701 1.905766e-42
10.10520000 38.19129900 380.08401000 0.97043699 -0.02854440 -0.23966099 1.905766e-42
10.43350000 37.35350000 381.64301000 0.96816999 -0.01219470 -0.24999601 1.905766e-42
10.77190000 36.19160100 382.97501000 0.96423799 -0.00255782 -0.26502699 1.905766e-42
11.11710000 35.29729800 384.49899000 0.96154201 0.01225270 -0.27438501 1.905766e-42
11.52230000 33.96609900 385.64001000 0.95587802 0.00736311 -0.29367200 1.905766e-42
11.95400000 32.79589800 386.93799000 0.95130199 0.00990307 -0.30809999 1.905766e-42
12.42540000 31.50939900 388.10599000 0.94529200 0.01020420 -0.32606599 1.905766e-42
12.86490000 30.67840000 389.64099000 0.94253200 0.02638740 -0.33307201 1.905766e-42
13.29140000 29.27000000 390.67700000 0.93575698 0.02573590 -0.35170701 1.905766e-42
13.82560000 28.09630000 391.93301000 0.93089098 0.03508450 -0.36361000 1.905766e-42
14.34250000 26.70999900 392.95801000 0.92453301 0.04033270 -0.37896201 1.905766e-42
14.90630000 25.57700000 394.23801000 0.92044699 0.05447890 -0.38705200 1.905766e-42
15.44690000 24.31580000 395.40302000 0.91229898 0.06864440 -0.40373200 1.905766e-42
16.01000000 23.13380100 396.63800000 0.90505201 0.08536100 -0.41664699 1.905766e-42
16.60260000 21.55330100 397.26300000 0.89558899 0.09125430 -0.43542200 1.905766e-42
17.19050000 20.30030100 398.41400000 0.88864899 0.09681960 -0.44825199 1.905766e-42
17.83149900 18.82720000 399.22601000 0.88019401 0.09362460 -0.46528700 1.905766e-42
18.48180000 17.34639900 400.01599000 0.87202799 0.09040770 -0.48103401 1.905766e-42
19.00160000 15.77630000 400.72699000 0.86324501 0.08438260 -0.49768201 1.905766e-42
18.90780100 14.02430000 400.32501000 0.84922099 0.05728980 -0.52491999 1.905766e-42
18.12050100 13.26240000 398.89600000 0.83680999 0.02409040 -0.54696202 1.905766e-42
17.22839900 12.66240000 397.45300000 0.82388699 -0.00537497 -0.56672800 1.905766e-42
16.31730100 11.51370000 396.40799000 0.80910301 -0.02718160 -0.58703798 1.905766e-42
15.34670000 10.54650000 395.24100000 0.79707402 -0.04388960 -0.60228401 1.905766e-42
14.38640000 9.87586980 393.87399000 0.78862202 -0.05438570 -0.61246800 1.905766e-42
13.35370000 8.95429990 392.72400000 0.78411102 -0.05774740 -0.61792803 1.905766e-42
12.30330000 8.34220980 391.39600000 0.78494602 -0.05263460 -0.61732399 1.905766e-42
11.33900000 7.22449020 390.36600000 0.80192000 -0.04518420 -0.59572101 1.905766e-42
10.58890000 5.82626010 389.51599000 0.82100898 -0.03080710 -0.57008302 1.905766e-42
9.82822040 5.03387020 388.09000000 0.84056002 -0.01669950 -0.54146200 1.905766e-42
9.00881000 4.19616990 386.72400000 0.85722798 -0.00482442 -0.51491398 1.905766e-42
8.20936970 3.29880000 385.38400000 0.87106699 0.00489122 -0.49114001 1.905766e-42
7.36046980 2.41206000 384.06799000 0.88251799 0.01216650 -0.47012001 1.905766e-42
6.73737000 1.80863000 382.48999000 0.89274198 0.01519970 -0.45031300 1.905766e-42
6.01767020 0.96310902 381.07401000 0.90044999 0.01718640 -0.43461999 1.905766e-42
5.33785010 0.16429500 379.61099000 0.90618098 0.02075460 -0.42238200 1.905766e-42
4.68782000 -0.93622702 378.34399000 0.91065902 0.03204520 -0.41191399 1.905766e-42
4.10953000 -1.44276000 376.71600000 0.91656202 0.03733070 -0.39814499 1.905766e-42
3.44085000 -2.04268000 375.15601000 0.92205799 0.04334000 -0.38461801 1.905766e-42
2.84889010 -2.67179990 373.57700000 0.92690003 0.04860560 -0.37214801 1.905766e-42
2.38827990 -4.10840990 372.59500000 0.92815799 0.06191680 -0.36700100 1.905766e-42
2.04493000 -5.13500020 371.15701000 0.92961198 0.06868410 -0.36208400 1.905766e-42
1.55481000 -6.26037980 369.84000000 0.92924398 0.07314990 -0.36215201 1.905766e-42
0.98554897 -7.34747980 368.52399000 0.92964798 0.07557710 -0.36061400 1.905766e-42
0.56264299 -8.07571030 366.93301000 0.93410498 0.07602200 -0.34881100 1.905766e-42
0.06815760 -9.03604980 365.49301000 0.93853098 0.08272920 -0.33513400 1.905766e-42
-0.39274400 -9.29837040 363.77301000 0.94507003 0.08485760 -0.31566000 1.905766e-42
-0.74046499 -10.27540000 362.30099000 0.94992298 0.09784960 -0.29676801 1.905766e-42
-1.14580000 -11.43060000 360.98199000 0.95411700 0.11487600 -0.27652299 1.905766e-42
-1.55866000 -12.44590000 359.55399000 0.95827597 0.13245399 -0.25330499 1.905766e-42
-1.61742000 -13.69870000 358.26300000 0.96282899 0.12775400 -0.23798800 1.905766e-42
-1.64991000 -14.94310000 356.96301000 0.96620703 0.12254800 -0.22677299 1.905766e-42
-1.71341000 -16.33400000 355.82199000 0.96788400 0.11723200 -0.22239000 1.905766e-42
-1.78849010 -17.99080100 355.12201000 0.96821302 0.11258500 -0.22335599 1.905766e-42
-1.87819000 -18.93890000 353.59500000 0.96895897 0.10662900 -0.22304399 1.905766e-42
