# .PCD v0.7 - Point Cloud Data file format
# 3 80 0
# 1 28 0
# 29 52 0
# 53 80 0
VERSION 0.7
FIELDS x y z normal_x normal_y normal_z curvature
SIZE 4 4 4 4 4 4 4
TYPE F F F F F F F
COUNT 1 1 1 1 1 1 1
WIDTH 80
HEIGHT 1
VIEWPOINT 0 0 0 1 0 0 0
POINTS 80
DATA ascii
23.76370000 35.29320100 465.31299000 0.00273543 -0.63776398 0.77022702 1.905766e-42
23.40920100 35.98180000 465.64700000 0.00291184 -0.64196497 0.76672798 1.905766e-42
21.61920000 36.16569900 465.60199000 -0.00037333 -0.65363699 0.75680798 1.905766e-42
19.97030100 35.53580100 465.24899000 -0.01064550 -0.67177898 0.74067497 1.905766e-42
18.54170000 34.66640100 464.58301000 0.00362847 -0.67773700 0.73529500 1.905766e-42
17.34230000 33.75640100 463.59601000 0.01594140 -0.67816901 0.73473299 1.905766e-42
16.08120000 32.88489900 462.65302000 0.02379220 -0.68469602 0.72843999 1.905766e-42
14.68960000 32.03070100 461.89600000 -0.03604550 -0.70987803 0.70340198 1.905766e-42
13.61380000 31.03820000 460.84799000 -0.10212200 -0.74259001 0.66191500 1.905766e-42
13.25210000 29.64340000 459.76901000 -0.17034000 -0.74620801 0.64355099 1.905766e-42
12.34570000 28.89220000 458.40701000 -0.23890001 -0.74050701 0.62815398 1.905766e-42
11.53100000 28.20229900 456.95801000 -0.26255000 -0.72363102 0.63829899 1.905766e-42
10.92390000 27.22790000 455.57199000 -0.27379999 -0.69161499 0.66835803 1.905766e-42
10.08710000 26.47120100 454.16901000 -0.27837199 -0.66736698 0.69074702 1.905766e-42
9.33218960 25.53760000 452.82800000 -0.27065700 -0.68691701 0.67445499 1.905766e-42
8.87745000 24.30680100 451.59601000 -0.25607401 -0.70275497 0.66374803 1.905766e-42
8.12078950 23.32580000 450.29001000 -0.22168601 -0.70612299 0.67249203 1.905766e-42
7.49123000 22.26339900 448.98099000 -0.17786001 -0.70288199 0.68871099 1.905766e-42
6.37340020 21.58300000 447.74500000 -0.13786399 -0.72898901 0.67049903 1.905766e-42
5.40436980 20.66500100 446.53699000 -0.10706900 -0.77263403 0.62575799 1.905766e-42
4.83555980 19.48119900 445.30600000 -0.07993620 -0.82396197 0.56097901 1.905766e-42
4.02886010 18.66690100 443.91800000 -0.05746490 -0.86103898 0.50528097 1.905766e-42
3.25925990 17.90630000 442.48001000 -0.03464050 -0.88002998 0.47365299 1.905766e-42
1.91021000 17.50340100 441.35800000 -0.02565500 -0.86800802 0.49588701 1.905766e-42
1.01381000 16.61330000 440.07599000 -0.00657191 -0.85299897 0.52187097 1.905766e-42
-0.20023200 16.05209900 438.87100000 0.00716291 -0.83642501 0.54803401 1.905766e-42
-1.01722000 15.04960000 437.61899000 0.02240710 -0.82063001 0.57102001 1.905766e-42
-2.23022010 14.45120000 436.43201000 0.03524850 -0.79986697 0.59914100 1.905766e-42
-2.74581000 13.14000000 435.31201000 0.05725660 -0.77794701 0.62571597 1.905766e-42
-1.06714000 12.84690000 434.73199000 0.06299530 -0.78315502 0.61862803 1.905766e-42
0.72339702 12.85000000 434.54700000 0.05644040 -0.79043001 0.60994703 1.905766e-42
2.51977990 12.88120000 434.43799000 0.03825790 -0.79698497 0.60278702 1.905766e-42
4.31472020 12.83310000 434.31201000 0.01270440 -0.80071902 0.59890503 1.905766e-42
6.11425020 12.79790000 434.29099000 -0.01109190 -0.80198300 0.59724402 1.905766e-42
7.91404010 12.78930000 434.31699000 -0.03374650 -0.80133498 0.59726298 1.905766e-42
9.71154020 12.71580000 434.37701000 -0.05646470 -0.80208898 0.59452897 1.905766e-42
11.33110000 12.17230000 433.81000000 -0.07052940 -0.79413301 0.60363799 1.905766e-42
13.12390000 12.02240000 433.86600000 -0.08812490 -0.80432099 0.58762401 1.905766e-42
14.85700000 11.60340000 433.62000000 -0.10534800 -0.81107301 0.57538003 1.905766e-42
16.42390100 11.05550000 432.92300000 -0.11702100 -0.81076699 0.57355303 1.905766e-42
18.16830100 10.61410000 432.97101000 -0.13938400 -0.81373298 0.56427997 1.905766e-42
19.89489900 10.13380000 432.80301000 -0.16911700 -0.81157500 0.55923700 1.905766e-42
21.52470000 10.33240000 433.54001000 -0.20327200 -0.81672901 0.54003102 1.905766e-42
23.11610000 9.59951970 433.12799000 -0.22886901 -0.80860603 0.54201001 1.905766e-42
24.67770000 8.82687000 432.67599000 -0.24309100 -0.80304998 0.54407501 1.905766e-42
26.25160000 8.04679010 432.28299000 -0.25386399 -0.80153799 0.54137802 1.905766e-42
27.81100100 7.24873020 431.86899000 -0.25914001 -0.80475003 0.53406399 1.905766e-42
29.55400100 6.81510020 431.98700000 -0.28135201 -0.80691701 0.51935202 1.905766e-42
31.10040100 6.10146000 431.40500000 -0.30711299 -0.80486798 0.50780898 1.905766e-42
32.65510200 5.20738980 431.25101000 -0.34142601 -0.80396700 0.48689300 1.905766e-42
34.28379800 4.44179010 431.21600000 -0.33374599 -0.81336403 0.47650099 1.905766e-42
35.89139900 3.82442000 430.69199000 -0.30141300 -0.83091700 0.46768400 1.905766e-42
37.61629900 3.36086010 430.46899000 -0.19882400 -0.87332600 0.44471401 1.905766e-42
37.62760200 3.84860990 432.20099000 -0.26854101 -0.85160202 0.45017701 1.905766e-42
37.18830100 4.76062010 433.69000000 -0.31617299 -0.81734997 0.48163599 1.905766e-42
36.59750000 5.91248990 434.94000000 -0.33603099 -0.78106600 0.52632701 1.905766e-42
36.09849900 7.08146000 436.21500000 -0.34038699 -0.74885798 0.56863701 1.905766e-42
35.31679900 8.23316000 437.35599000 -0.32599601 -0.75802302 0.56491399 1.905766e-42
34.88629900 9.48740960 438.57401000 -0.30750999 -0.76714498 0.56296200 1.905766e-42
34.26200100 10.54760000 439.88699000 -0.28759301 -0.77710903 0.55981398 1.905766e-42
33.64770100 11.60510000 441.20801000 -0.26933399 -0.77962798 0.56536698 1.905766e-42
32.93209800 12.66040000 442.47900000 -0.25051299 -0.78312498 0.56917399 1.905766e-42
32.77000000 13.89560000 443.77802000 -0.22598299 -0.78281498 0.57976902 1.905766e-42
32.12580100 15.10380000 444.94601000 -0.20327701 -0.77501601 0.59835500 1.905766e-42
31.34680000 16.18510100 446.15601000 -0.19349000 -0.74273801 0.64101702 1.905766e-42
31.30950000 17.30130000 447.56799000 -0.19223000 -0.70144099 0.68631601 1.905766e-42
30.98010100 18.61640000 448.75201000 -0.20210300 -0.65930498 0.72420400 1.905766e-42
30.92030000 19.99370000 449.90900000 -0.20526101 -0.68106401 0.70286602 1.905766e-42
30.54579900 21.34660000 451.03601000 -0.18681400 -0.72897202 0.65855998 1.905766e-42
29.95579900 22.39469900 452.37500000 -0.15012901 -0.77805698 0.60999101 1.905766e-42
29.12439900 23.42880100 453.59100000 -0.09827790 -0.82095402 0.56247300 1.905766e-42
29.06150100 24.54030000 455.00601000 -0.07641000 -0.79890299 0.59658700 1.905766e-42
28.62859900 25.60199900 456.39301000 -0.05634880 -0.77839601 0.62523901 1.905766e-42
27.94409900 26.65300000 457.68500000 -0.04357820 -0.75824100 0.65051597 1.905766e-42
27.29150000 27.77389900 458.93301000 -0.03972920 -0.72706997 0.68541300 1.905766e-42
27.41190000 29.04270000 460.20401000 -0.03023270 -0.67655802 0.73576897 1.905766e-42
26.60850000 30.32130100 461.18301000 -0.02246680 -0.62418598 0.78095299 1.905766e-42
26.30870100 31.78430000 462.18799000 -0.00655458 -0.58515900 0.81089199 1.905766e-42
25.47080000 33.16420000 462.98401000 0.00917264 -0.60881501 0.79325902 1.905766e-42
24.74510000 34.30040000 464.17700000 0.00923028 -0.62603998 0.77973700 1.905766e-42
