# .PCD v0.7 - Point Cloud Data file format
# 3 33 0
# 1 14 0
# 15 27 0
# 28 33 0
VERSION 0.7
FIELDS x y z normal_x normal_y normal_z curvature
SIZE 4 4 4 4 4 4 4
TYPE F F F F F F F
COUNT 1 1 1 1 1 1 1
WIDTH 33
HEIGHT 1
VIEWPOINT 0 0 0 1 0 0 0
POINTS 33
DATA ascii
12.77450000 12.81410000 450.27499000 -0.33454800 0.62851799 0.70217001 1.905766e-42
10.88010000 10.96240000 450.44400000 -0.50500101 0.62939698 0.59062099 1.905766e-42
10.09530000 9.53651050 451.21301000 -0.57917100 0.64401299 0.49980700 1.905766e-42
10.37210000 8.69238000 452.77802000 -0.28680801 0.67133498 0.68340999 1.905766e-42
10.62780000 7.39083000 453.99500000 -0.18443801 0.63628799 0.74908000 1.905766e-42
11.50260000 6.23511980 455.06201000 -0.18316700 0.64602900 0.74101001 1.905766e-42
12.79220000 5.58991000 456.14001000 -0.21597700 0.66947001 0.71074897 1.905766e-42
13.72740000 4.66944980 457.37201000 -0.27467200 0.68920398 0.67048699 1.905766e-42
14.59640000 3.80048990 458.68701000 -0.32102400 0.65271002 0.68623102 1.905766e-42
15.48220000 2.88222000 459.95700000 -0.36720100 0.61335999 0.69925201 1.905766e-42
16.35450000 1.92566000 461.20700000 -0.43092200 0.61564302 0.65976501 1.905766e-42
17.53179900 1.48208000 462.49500000 -0.47550300 0.58028603 0.66118503 1.905766e-42
18.87660000 1.28512000 463.67499000 -0.50107902 0.54437602 0.67273700 1.905766e-42
20.13290000 0.88141602 464.89899000 -0.46359199 0.36767900 0.80616099 1.905766e-42
21.41260000 -0.21114600 465.53799000 -0.39576501 0.18720900 0.89906800 1.905766e-42
21.09940000 1.47253000 464.98401000 -0.37083799 0.46992701 0.80102903 1.905766e-42
21.79000100 2.89296010 464.12100000 -0.28346601 0.63196301 0.72129703 1.905766e-42
22.28599900 4.34088990 463.17300000 -0.37776300 0.57878000 0.72271001 1.905766e-42
23.12700100 5.77639010 462.48599000 -0.39249900 0.50447702 0.76905602 1.905766e-42
23.32070000 7.29130980 461.53299000 -0.48641801 0.53510499 0.69069499 1.905766e-42
23.80610100 8.84508990 460.76501000 -0.51749998 0.51950800 0.67992997 1.905766e-42
24.66430100 10.31500000 460.17999000 -0.39543900 0.51871002 0.75800300 1.905766e-42
24.87960100 11.89540000 459.34500000 -0.38349900 0.52028102 0.76304400 1.905766e-42
25.08519900 13.40300000 458.38400000 -0.42824000 0.49428499 0.75650102 1.905766e-42
24.59590000 14.74880000 457.29300000 -0.56352597 0.47378099 0.67673498 1.905766e-42
23.67310000 15.28470000 455.84399000 -0.61703598 0.43277901 0.65724301 1.905766e-42
22.26260000 15.48210000 454.74301000 -0.64382398 0.41250399 0.64446199 1.905766e-42
21.77319900 16.55139900 453.38000000 -0.62613702 0.41772699 0.65837502 1.905766e-42
20.34190000 15.80370000 452.58499000 -0.55954897 0.42443001 0.71187401 1.905766e-42
18.84420000 15.06260000 451.91599000 -0.54061401 0.43708101 0.71881598 1.905766e-42
17.39300000 14.32280000 451.14999000 -0.54230100 0.47270301 0.69459498 1.905766e-42
15.83090000 13.94390000 450.34000000 -0.41593999 0.55979598 0.71667397 1.905766e-42
14.19110000 13.71940000 449.63199000 -0.23084000 0.67626601 0.69955498 1.905766e-42
