# .PCD v0.7 - Point Cloud Data file format
# 3 41 0
# 1 16 0
# 17 28 0
# 29 41 0
VERSION 0.7
FIELDS x y z normal_x normal_y normal_z curvature
SIZE 4 4 4 4 4 4 4
TYPE F F F F F F F
COUNT 1 1 1 1 1 1 1
WIDTH 41
HEIGHT 1
VIEWPOINT 0 0 0 1 0 0 0
POINTS 41
DATA ascii
0.65976900 19.35860100 471.98801000 -0.22513200 -0.84781700 0.48012701 1.905766e-42
-0.71264201 20.15010100 472.79901000 -0.21837500 -0.82247502 0.52521199 1.905766e-42
-1.48410000 19.39119900 471.36099000 -0.21590900 -0.83687502 0.50301403 1.905766e-42
-1.40279000 18.56720000 469.76199000 -0.20336600 -0.87150300 0.44623399 1.905766e-42
-1.48628000 17.75350000 468.15900000 -0.18493301 -0.89022398 0.41629401 1.905766e-42
-1.56940000 17.06690000 466.49701000 -0.18652999 -0.88742602 0.42152199 1.905766e-42
-1.57852010 16.21480000 464.91199000 -0.19007400 -0.88496500 0.42509899 1.905766e-42
-1.56265000 15.41180000 463.30099000 -0.18998601 -0.88254702 0.43013501 1.905766e-42
-1.51578000 14.56500000 461.71301000 -0.18658400 -0.87313598 0.45035601 1.905766e-42
-1.59275000 13.83280000 460.07101000 -0.18437700 -0.86138397 0.47331101 1.905766e-42
-1.61341000 12.88660000 458.53900000 -0.18796800 -0.83857799 0.51132601 1.905766e-42
-1.62433000 11.97680000 456.98599000 -0.20515101 -0.81499898 0.54193097 1.905766e-42
-1.03281000 10.86090000 455.70401000 -0.21432000 -0.79566097 0.56656098 1.905766e-42
-0.85381401 9.81410980 454.25000000 -0.23613200 -0.76809502 0.59520698 1.905766e-42
-0.27794200 8.53149990 453.12601000 -0.25186500 -0.71722198 0.64973599 1.905766e-42
-0.03607000 7.31289010 451.82401000 -0.29148901 -0.67078501 0.68196899 1.905766e-42
0.33903801 5.89485980 450.78101000 -0.30578199 -0.65299398 0.69288999 1.905766e-42
1.89075010 5.06206990 450.40799000 -0.20155400 -0.64699697 0.73537099 1.905766e-42
3.36515000 5.58127020 451.30099000 -0.20424600 -0.65047199 0.73155302 1.905766e-42
4.60305980 6.26834010 452.41199000 -0.21687900 -0.65862203 0.72054201 1.905766e-42
6.29854010 6.36454010 453.00900000 -0.21585500 -0.67788303 0.70276701 1.905766e-42
7.76484010 7.07423020 453.77499000 -0.22000000 -0.71348298 0.66523802 1.905766e-42
8.56079960 7.79078010 455.22101000 -0.25672901 -0.73640198 0.62594098 1.905766e-42
9.83343980 8.24168970 456.41199000 -0.28232199 -0.75607997 0.59045500 1.905766e-42
11.06530000 8.74417970 457.62399000 -0.32506299 -0.76950198 0.54972798 1.905766e-42
12.32930000 9.05681990 458.86700000 -0.36204401 -0.76282299 0.53574800 1.905766e-42
13.85880000 9.19727040 459.80600000 0.10086100 -0.79979998 0.59173298 1.905766e-42
15.31490000 10.24100000 459.98001000 0.43859500 -0.73359698 0.51910502 1.905766e-42
16.86230100 11.16060000 459.98901000 0.51182699 -0.74448198 0.42869499 1.905766e-42
15.97140000 11.48600000 461.51901000 0.39808699 -0.80493897 0.43999901 1.905766e-42
14.90070000 11.83330000 462.92300000 0.27210599 -0.87210000 0.40669399 1.905766e-42
13.84120000 12.39020000 464.26801000 0.06765350 -0.90884501 0.41161099 1.905766e-42
13.63070000 12.78450000 466.01099000 0.02799780 -0.91984898 0.39127299 1.905766e-42
12.53010000 13.58110000 467.19199000 -0.17594200 -0.88008201 0.44102100 1.905766e-42
11.13180000 14.46000000 467.90799000 -0.36901200 -0.83059698 0.41705999 1.905766e-42
9.78201960 15.38500000 468.65799000 -0.30660599 -0.84975600 0.42884400 1.905766e-42
8.35680010 16.17740100 469.42001000 -0.25578201 -0.87327701 0.41468400 1.905766e-42
6.97212980 16.95780000 470.26501000 -0.22769700 -0.88806701 0.39936399 1.905766e-42
5.38648990 17.58099900 470.84500000 -0.20079800 -0.89958102 0.38785899 1.905766e-42
4.11451010 18.36840100 471.84698000 -0.18842401 -0.89001602 0.41517299 1.905766e-42
2.36965990 18.79730000 471.95401000 -0.21474800 -0.87235200 0.43918699 1.905766e-42
