# .PCD v0.7 - Point Cloud Data file format
# 3 126 0
# 1 51 0
# 52 107 0
# 108 126 0
VERSION 0.7
FIELDS x y z normal_x normal_y normal_z curvature
SIZE 4 4 4 4 4 4 4
TYPE F F F F F F F
COUNT 1 1 1 1 1 1 1
WIDTH 126
HEIGHT 1
VIEWPOINT 0 0 0 1 0 0 0
POINTS 126
DATA ascii
30.26129900 37.54959900 488.53101000 -0.00780811 -0.44252300 0.89672297 1.905766e-42
29.44080000 37.46149800 488.32300000 -0.02922830 -0.43196699 0.90141600 1.905766e-42
28.26409900 36.38069900 487.49399000 -0.05039300 -0.42289701 0.90477502 1.905766e-42
27.58309900 34.80920000 486.94101000 -0.04668920 -0.43533599 0.89905697 1.905766e-42
26.32799900 33.69730000 486.28601000 -0.05817960 -0.44318101 0.89454198 1.905766e-42
25.00540000 32.69269900 485.59201000 -0.07113600 -0.45309401 0.88862002 1.905766e-42
23.86599900 31.47800100 484.91000000 -0.07517050 -0.47357500 0.87753999 1.905766e-42
22.83639900 30.16550100 484.23300000 -0.07241930 -0.50129402 0.86224103 1.905766e-42
21.44370100 29.29540100 483.49600000 -0.08569900 -0.51058698 0.85554498 1.905766e-42
20.20310000 28.15710100 482.85999000 -0.08952540 -0.52818900 0.84439403 1.905766e-42
18.88260100 27.14990000 482.16501000 -0.09405190 -0.53839302 0.83742899 1.905766e-42
17.28220000 26.78590000 481.42700000 -0.12056700 -0.52335000 0.84354502 1.905766e-42
15.73980000 26.29690000 480.63800000 -0.14077400 -0.51553601 0.84522498 1.905766e-42
14.30290000 25.43210000 479.98401000 -0.15331601 -0.51597899 0.84276903 1.905766e-42
13.05110000 24.35190000 479.27301000 -0.15688799 -0.52662301 0.83549601 1.905766e-42
11.52040000 23.75429900 478.53799000 -0.17442200 -0.52273101 0.83446300 1.905766e-42
10.14950000 22.96990000 477.67499000 -0.18181100 -0.52988100 0.82835400 1.905766e-42
8.92391010 21.98070000 476.80301000 -0.17505001 -0.54771000 0.81815100 1.905766e-42
7.63157990 21.25729900 475.78000000 -0.17254201 -0.56176502 0.80910403 1.905766e-42
6.21057990 20.48390000 474.99100000 -0.17263900 -0.57339799 0.80088103 1.905766e-42
4.61332990 19.94290000 474.36200000 -0.18010400 -0.57364500 0.79905802 1.905766e-42
3.29488990 19.07280000 473.49899000 -0.17508100 -0.59503800 0.78439498 1.905766e-42
1.83849000 18.29990000 472.77701000 -0.17456700 -0.60956800 0.77327502 1.905766e-42
0.59992200 17.40760000 471.82300000 -0.16944700 -0.63645399 0.75247198 1.905766e-42
-0.71108598 16.63620000 470.85999000 -0.17216700 -0.65904701 0.73213100 1.905766e-42
-2.25280000 16.29780000 469.99500000 -0.18578300 -0.66453099 0.72379702 1.905766e-42
-3.46510000 15.47600000 468.94901000 -0.18663900 -0.68918997 0.70012999 1.905766e-42
-4.76140020 14.80800000 467.89401000 -0.19160400 -0.70716703 0.68058997 1.905766e-42
-6.04066990 14.17110000 466.79901000 -0.19734500 -0.72310197 0.66194999 1.905766e-42
-7.32558010 13.50330000 465.73001000 -0.20425400 -0.73635298 0.64503002 1.905766e-42
-8.37625980 12.70970000 464.50299000 -0.20542599 -0.74684602 0.63247198 1.905766e-42
-9.94734950 12.40620000 463.67801000 -0.20908900 -0.74648798 0.63169402 1.905766e-42
-11.36320000 11.92520000 462.67599000 -0.20935100 -0.75066698 0.62663400 1.905766e-42
-12.72000000 11.56300000 461.54999000 -0.20867100 -0.75631398 0.62003702 1.905766e-42
-13.95900000 10.92710000 460.41000000 -0.20519701 -0.76637101 0.60874403 1.905766e-42
-15.17400000 10.23170000 459.27899000 -0.20096301 -0.77788198 0.59540999 1.905766e-42
-16.38010000 9.71160980 458.04800000 -0.19675601 -0.78943700 0.58144301 1.905766e-42
-17.74920100 9.43262000 456.91299000 -0.19628800 -0.79746300 0.57054597 1.905766e-42
-18.71830000 8.55904010 455.67300000 -0.19118901 -0.81357700 0.54912603 1.905766e-42
-19.75149900 7.96869990 454.32199000 -0.18728100 -0.82767701 0.52903301 1.905766e-42
-21.27640000 7.72793010 453.39700000 -0.18966199 -0.83236200 0.52077001 1.905766e-42
-22.18890000 7.02344990 452.01401000 -0.18486001 -0.84710699 0.49823299 1.905766e-42
-23.41410100 6.60140990 450.76501000 -0.18385300 -0.85661000 0.48209599 1.905766e-42
-24.69980000 6.24241020 449.55801000 -0.18500100 -0.86369699 0.46882999 1.905766e-42
-25.93810100 5.90373990 448.29599000 -0.18673600 -0.87073600 0.45491701 1.905766e-42
-26.93630000 5.29730990 446.92599000 -0.18666600 -0.88027197 0.43620801 1.905766e-42
-27.88110000 4.83501010 445.46600000 -0.18585201 -0.89037502 0.41556200 1.905766e-42
-28.79070100 4.34068010 443.99301000 -0.18452901 -0.90078199 0.39311701 1.905766e-42
-30.29660000 4.29160020 443.00800000 -0.18141000 -0.90732098 0.37928700 1.905766e-42
-31.39110000 3.91289000 441.63000000 -0.17848700 -0.91679198 0.35726100 1.905766e-42
-32.29489900 3.47827010 440.13599000 -0.17656700 -0.92607301 0.33348599 1.905766e-42
-32.08229800 2.88275000 438.45001000 -0.18273300 -0.93139499 0.31481999 1.905766e-42
-30.32200100 2.65320990 438.74799000 -0.18533500 -0.92880499 0.32089299 1.905766e-42
-28.67460100 2.57479000 439.46899000 -0.18339600 -0.92693299 0.32735500 1.905766e-42
-26.96590000 2.49494000 440.02899000 -0.17946599 -0.92642403 0.33095399 1.905766e-42
-25.16820000 2.44909000 440.10800000 -0.17272399 -0.92892301 0.32751700 1.905766e-42
-23.60619900 2.19960000 440.96701000 -0.16830100 -0.92779797 0.33296600 1.905766e-42
-21.98490000 2.11753010 441.74500000 -0.16429000 -0.92608798 0.33966100 1.905766e-42
-20.33210000 2.08770990 442.45700000 -0.16152000 -0.92370200 0.34739900 1.905766e-42
-18.55050100 1.96346000 442.68100000 -0.16809800 -0.91839099 0.35819000 1.905766e-42
-16.91460000 1.90834000 443.42999000 -0.16996001 -0.91370898 0.36912099 1.905766e-42
-15.24110000 1.86623000 444.09201000 -0.17159900 -0.90947700 0.37869000 1.905766e-42
-13.69990000 1.89444990 445.02100000 -0.17153700 -0.90540999 0.38833901 1.905766e-42
-12.02350000 1.86902000 445.67599000 -0.17230700 -0.90190703 0.39607301 1.905766e-42
-10.24780000 1.66281000 445.88699000 -0.17347001 -0.89997703 0.39993799 1.905766e-42
-8.52651020 1.64579000 446.41299000 -0.17323300 -0.89777201 0.40496299 1.905766e-42
-6.93467000 1.64572000 447.25299000 -0.16788100 -0.89427298 0.41483799 1.905766e-42
-5.33726980 1.70079000 448.08099000 -0.16145700 -0.89130300 0.42368600 1.905766e-42
-3.81100010 1.91152000 449.01199000 -0.15438400 -0.88823098 0.43267900 1.905766e-42
-2.10889010 1.92325000 449.59698000 -0.14563400 -0.88734198 0.43751001 1.905766e-42
-0.33291799 1.63013990 449.59900000 -0.12943800 -0.89392000 0.42913100 1.905766e-42
1.12420000 1.89332000 450.62201000 -0.12120500 -0.89114600 0.43722701 1.905766e-42
2.82643010 1.95257000 451.20401000 -0.10516000 -0.89409798 0.43535101 1.905766e-42
4.61645980 1.91280000 451.38901000 -0.08183280 -0.90005600 0.42802101 1.905766e-42
6.26492020 2.10825990 452.08499000 -0.06603830 -0.89908099 0.43277201 1.905766e-42
8.05846020 2.16826010 452.22501000 -0.04750540 -0.90342802 0.42609999 1.905766e-42
9.69732000 2.25756000 452.96399000 -0.03682150 -0.90051103 0.43327200 1.905766e-42
11.36950000 2.42526010 453.60901000 -0.02844500 -0.89703703 0.44103801 1.905766e-42
12.93570000 2.83383990 454.39700000 -0.02414350 -0.88944799 0.45639899 1.905766e-42
14.73560000 2.84860990 454.40201000 -0.02116370 -0.89080203 0.45389801 1.905766e-42
16.44170000 3.28851010 454.77100000 -0.02275700 -0.88552701 0.46403000 1.905766e-42
17.68420000 3.67104010 456.01599000 -0.02353650 -0.87238801 0.48824701 1.905766e-42
19.47839900 3.63797000 456.15601000 -0.02139790 -0.87303001 0.48719701 1.905766e-42
21.05040000 3.99836990 456.95499000 -0.01871920 -0.86593598 0.49980399 1.905766e-42
22.84720000 4.02415990 456.85199000 0.00095809 -0.87860900 0.47754201 1.905766e-42
24.44120000 4.39977980 457.59900000 0.00903620 -0.87517399 0.48372501 1.905766e-42
26.23959900 4.47474000 457.59698000 0.03132070 -0.88509703 0.46435201 1.905766e-42
27.96460000 4.98823980 457.62201000 0.05937940 -0.88650900 0.45888600 1.905766e-42
29.51219900 5.23089980 458.50900000 0.07859930 -0.87681699 0.47435701 1.905766e-42
31.27240000 5.50274990 458.76901000 0.10196400 -0.87392902 0.47523800 1.905766e-42
32.97499800 5.89544010 459.20099000 0.11934400 -0.86609697 0.48542100 1.905766e-42
34.71220000 6.36010980 459.28000000 0.13192600 -0.86052400 0.49203101 1.905766e-42
36.28860100 6.86555000 459.98700000 0.13811600 -0.84300798 0.51986700 1.905766e-42
38.04420100 7.25635000 460.05899000 0.13219000 -0.83203501 0.53874201 1.905766e-42
39.47610100 8.01012990 460.84698000 0.13080899 -0.80562299 0.57780701 1.905766e-42
40.89569900 8.86938950 461.54501000 0.13269299 -0.77858001 0.61335599 1.905766e-42
41.71709800 9.99147990 462.68799000 0.15315901 -0.75477397 0.63785499 1.905766e-42
42.28080000 11.17090000 463.92499000 0.17765000 -0.74090600 0.64768702 1.905766e-42
43.17100100 12.39370000 464.90100000 0.20033400 -0.73168999 0.65153301 1.905766e-42
43.85200100 13.48420000 466.16101000 0.22537200 -0.73258698 0.64227998 1.905766e-42
44.98410000 14.45500000 467.16901000 0.25210601 -0.73376799 0.63089401 1.905766e-42
46.39860200 15.51740000 467.50101000 0.27353001 -0.72702497 0.62977499 1.905766e-42
47.32249800 16.67630000 468.52301000 0.28268901 -0.71667397 0.63754702 1.905766e-42
48.57189900 17.88649900 468.98599000 0.29480800 -0.70526999 0.64473403 1.905766e-42
49.83660100 18.94549900 469.70599000 0.30359000 -0.69163197 0.65534598 1.905766e-42
51.22539900 19.99880000 470.15500000 0.31255099 -0.67926800 0.66400802 1.905766e-42
52.45900000 21.18460100 470.71399000 0.31889600 -0.66430998 0.67601699 1.905766e-42
53.58829900 22.44599900 471.32501000 0.32502601 -0.64867598 0.68817002 1.905766e-42
53.25610000 23.58630000 472.67801000 0.32593399 -0.63603902 0.69944298 1.905766e-42
52.38290000 24.61310000 473.87100000 0.31852901 -0.62628901 0.71154898 1.905766e-42
51.00939900 25.03060000 474.95700000 0.30666700 -0.62189299 0.72055799 1.905766e-42
50.16149900 26.02400000 476.19501000 0.29881600 -0.61325300 0.73118401 1.905766e-42
49.11140100 26.96439900 477.31500000 0.28584200 -0.60072100 0.74661100 1.905766e-42
48.26979800 28.10570000 478.42300000 0.27609199 -0.58624101 0.76163900 1.905766e-42
47.06499900 28.79770100 479.56799000 0.26420400 -0.57517701 0.77418900 1.905766e-42
45.94720100 29.79500000 480.56601000 0.25383800 -0.56257802 0.78681099 1.905766e-42
44.73960100 30.59059900 481.63800000 0.24165900 -0.55070698 0.79895103 1.905766e-42
43.78820000 31.79040000 482.58401000 0.23282801 -0.53730601 0.81061298 1.905766e-42
42.47020000 32.74990100 483.34698000 0.21975499 -0.53034800 0.81880301 1.905766e-42
40.83720000 32.91370000 484.08600000 0.19856200 -0.52644598 0.82669699 1.905766e-42
39.28039900 33.60170000 484.67200000 0.17811200 -0.52159399 0.83439499 1.905766e-42
37.62189900 33.66870100 485.36801000 0.16228200 -0.52616602 0.83475399 1.905766e-42
36.11719900 34.50479900 485.89401000 0.15015900 -0.53008997 0.83454001 1.905766e-42
34.47340000 34.88330100 486.52200000 0.13098700 -0.52868998 0.83864701 1.905766e-42
33.07009900 35.80600000 487.17001000 0.08206400 -0.48089901 0.87292701 1.905766e-42
31.59020000 36.49639900 487.92700000 0.03836820 -0.45425400 0.89004600 1.905766e-42
