# .PCD v0.7 - Point Cloud Data file format
# 4 189 2
# 1 42 0
# 43 109 0
# 110 170 0
# 171 189 0
VERSION 0.7
FIELDS x y z normal_x normal_y normal_z curvature
SIZE 4 4 4 4 4 4 4
TYPE F F F F F F F
COUNT 1 1 1 1 1 1 1
WIDTH 189
HEIGHT 1
VIEWPOINT 0 0 0 1 0 0 0
POINTS 189
DATA ascii
61.31480000 -24.06040000 454.95700000 0.42527801 0.73154998 -0.53289199 1.905766e-42
60.42890200 -24.39970000 453.42801000 0.41788000 0.73356003 -0.53597200 1.905766e-42
58.84970100 -23.83470000 452.77399000 0.42497501 0.72084802 -0.54751700 1.905766e-42
57.31629900 -22.89200000 452.78799000 0.41803601 0.71255201 -0.56348598 1.905766e-42
55.98830000 -23.14349900 451.60001000 0.38334399 0.71592301 -0.58352500 1.905766e-42
54.37739900 -23.29830000 450.81100000 0.34809500 0.72244799 -0.59741002 1.905766e-42
52.87300100 -23.12420100 449.83899000 0.31148699 0.73433697 -0.60309601 1.905766e-42
51.58390000 -23.55060000 448.65701000 0.28698701 0.74863398 -0.59764999 1.905766e-42
49.96530200 -23.29719900 447.91101000 0.24739100 0.77203703 -0.58545399 1.905766e-42
48.21469900 -23.25420000 447.49500000 0.21210700 0.79565001 -0.56740803 1.905766e-42
46.52159900 -23.32010100 446.88699000 0.18607700 0.81302702 -0.55169100 1.905766e-42
45.29710000 -23.53060000 445.58499000 0.17049401 0.82561898 -0.53785199 1.905766e-42
43.49879800 -23.60630000 445.56299000 0.14734700 0.83121800 -0.53606498 1.905766e-42
41.70169800 -23.67340100 445.48700000 0.12949499 0.83174002 -0.53985202 1.905766e-42
39.95740100 -24.07510000 445.29700000 0.11569800 0.82911497 -0.54697597 1.905766e-42
38.31029900 -24.02669900 444.57199000 0.14399900 0.82991600 -0.53898400 1.905766e-42
36.63670000 -23.77409900 443.95999000 0.17532700 0.83662701 -0.51895601 1.905766e-42
34.91899900 -23.25250100 443.82700000 0.19242200 0.84538400 -0.49829701 1.905766e-42
33.17160000 -23.02920000 443.45700000 0.20524199 0.86121398 -0.46495900 1.905766e-42
31.41320000 -22.75379900 443.18799000 0.20702299 0.87942100 -0.42867199 1.905766e-42
29.62669900 -22.53980100 443.13901000 0.19697700 0.89734697 -0.39492700 1.905766e-42
27.84170000 -22.40519900 442.95001000 0.20668800 0.91170901 -0.35505900 1.905766e-42
24.90220100 -21.94050000 443.52301000 0.23670401 0.91281199 -0.33278599 1.905766e-42
23.60170000 -20.76940000 443.94400000 0.25723699 0.90563202 -0.33713400 1.905766e-42
22.02949900 -20.21060000 444.61899000 0.28231001 0.89722401 -0.33954301 1.905766e-42
20.34760100 -19.93890000 444.03799000 0.33084801 0.89764601 -0.29115501 1.905766e-42
18.75869900 -19.17190000 444.39499000 0.35247099 0.89418203 -0.27604800 1.905766e-42
17.24550100 -18.27590000 444.77899000 0.37065101 0.89162201 -0.26005200 1.905766e-42
15.56820000 -17.62400100 444.81799000 0.40643099 0.88555199 -0.22497100 1.905766e-42
14.02170000 -16.76359900 445.14801000 0.44206601 0.87563902 -0.19450700 1.905766e-42
12.53290000 -15.86360000 445.60901000 0.48044401 0.86201501 -0.16156501 1.905766e-42
10.94860000 -15.03350000 445.81201000 0.53374398 0.83741403 -0.11770600 1.905766e-42
9.63477990 -13.94260000 446.38101000 0.58853197 0.80221301 -0.10042000 1.905766e-42
8.15830040 -12.91430000 446.43301000 0.58556902 0.80068499 -0.12654001 1.905766e-42
6.79062990 -11.98800000 447.14801000 0.56444001 0.80859900 -0.16605601 1.905766e-42
5.22859000 -11.52850000 446.38101000 0.50958198 0.83032602 -0.22557700 1.905766e-42
3.77273990 -10.47150000 446.32300000 0.48071599 0.83381599 -0.27140999 1.905766e-42
2.22848010 -9.59449960 446.61600000 0.47125599 0.82747000 -0.30530301 1.905766e-42
0.45359600 -9.45814990 446.35001000 0.45522401 0.81656098 -0.35496500 1.905766e-42
-1.08456000 -8.54913040 446.56799000 0.47053599 0.79325199 -0.38645399 1.905766e-42
-2.27226000 -7.34969000 447.19299000 0.51100397 0.76468903 -0.39258900 1.905766e-42
-3.15004990 -5.96200990 447.93100000 0.56170702 0.73311102 -0.38345000 1.905766e-42
-3.50970010 -4.41969010 448.78601000 0.61023200 0.70725602 -0.35694000 1.905766e-42
-3.33529000 -3.71831010 450.43500000 0.63358498 0.70693702 -0.31434000 1.905766e-42
-3.63600990 -3.04832010 452.07800000 0.65376002 0.69814700 -0.29187000 1.905766e-42
-3.85665990 -2.32415010 453.71100000 0.66713297 0.68985897 -0.28111899 1.905766e-42
-4.04573010 -1.57518990 455.33701000 0.67581302 0.68174899 -0.28016901 1.905766e-42
-4.12822010 -0.87809700 456.99399000 0.68008298 0.67444998 -0.28740901 1.905766e-42
-3.73194000 -0.28973499 458.64899000 0.67880100 0.66941398 -0.30184999 1.905766e-42
-3.39997010 0.30679199 460.31400000 0.67660201 0.66234303 -0.32173201 1.905766e-42
-3.20956990 1.12578000 461.90601000 0.67610502 0.65056998 -0.34588999 1.905766e-42
-3.13613010 1.80514000 463.57101000 0.67578900 0.63613099 -0.37235299 1.905766e-42
-2.60831000 2.49226000 465.14899000 0.67272598 0.62357700 -0.39823499 1.905766e-42
-3.00020000 3.61873010 466.49701000 0.67839402 0.60209203 -0.42103001 1.905766e-42
-3.02994990 4.51691010 468.05701000 0.68068600 0.58241999 -0.44435799 1.905766e-42
-2.30111000 5.29680010 469.50601000 0.68009502 0.56776100 -0.46380901 1.905766e-42
-2.16466000 6.25731990 471.02200000 0.68543100 0.54668897 -0.48095301 1.905766e-42
-1.81435000 7.17446990 472.53101000 0.69277298 0.52666098 -0.49264100 1.905766e-42
-1.82319000 8.39529990 473.85300000 0.70545602 0.50088400 -0.50144500 1.905766e-42
-1.62311010 9.61026000 475.16599000 0.70223403 0.48995501 -0.51653802 1.905766e-42
-1.62047990 10.82630000 476.49301000 0.69931298 0.47582299 -0.53343499 1.905766e-42
-1.67137000 12.14590000 477.71701000 0.69873899 0.45764199 -0.54984301 1.905766e-42
-0.96055800 13.01630000 479.12299000 0.67997801 0.45019299 -0.57875401 1.905766e-42
-0.40586701 14.06270000 480.47800000 0.66647398 0.43476999 -0.60562998 1.905766e-42
0.06782260 15.19920000 481.79099000 0.65524203 0.41311201 -0.63245302 1.905766e-42
-0.14778100 16.74480100 482.68799000 0.65691698 0.37959799 -0.65143400 1.905766e-42
-0.64322698 18.36710000 483.29001000 0.65885401 0.34859300 -0.66662902 1.905766e-42
-0.40006900 19.99869900 484.01099000 0.64930397 0.32750800 -0.68639803 1.905766e-42
-0.82738602 21.70330000 484.39999000 0.64830297 0.30638999 -0.69701397 1.905766e-42
-0.73720598 23.38789900 485.02802000 0.64113599 0.28197500 -0.71374702 1.905766e-42
-0.52729899 24.92060100 485.94800000 0.63212103 0.25616601 -0.73130202 1.905766e-42
-0.02103810 26.42910000 486.79001000 0.62308502 0.23006301 -0.74755299 1.905766e-42
0.14562200 28.06520100 487.52100000 0.61804199 0.20220000 -0.75969702 1.905766e-42
0.90240198 29.49990100 488.30200000 0.61138999 0.17715600 -0.77124500 1.905766e-42
1.41517000 31.09530100 488.95901000 0.60945302 0.11830800 -0.78394598 1.905766e-42
1.98477010 32.62500000 489.71701000 0.60538203 0.05596520 -0.79396498 1.905766e-42
3.14112000 33.81060000 490.42300000 0.59795499 0.00770481 -0.80149299 1.905766e-42
4.19071010 35.05469900 491.19101000 0.58243197 -0.04112040 -0.81183898 1.905766e-42
4.20826010 36.85459900 491.19101000 0.57753801 -0.10449500 -0.80964899 1.905766e-42
4.59495020 38.61249900 491.17401000 0.56905198 -0.16240200 -0.80610502 1.905766e-42
5.41791010 40.21250200 491.12000000 0.55962098 -0.21215899 -0.80113202 1.905766e-42
5.64847990 41.97720000 490.85001000 0.55377102 -0.26060301 -0.79083800 1.905766e-42
5.95874980 43.72090100 490.52899000 0.54840302 -0.30391100 -0.77903301 1.905766e-42
7.33766980 44.64989900 491.21899000 0.54687101 -0.31237200 -0.77675903 1.905766e-42
8.54065990 45.92900100 491.61499000 0.54645997 -0.31410199 -0.77635199 1.905766e-42
9.54045960 47.40860000 491.84100000 0.54583400 -0.31975701 -0.77448100 1.905766e-42
10.42130000 48.97819900 491.81900000 0.54259402 -0.33043700 -0.77227199 1.905766e-42
11.20060000 50.59669900 491.70401000 0.53532797 -0.34600800 -0.77052099 1.905766e-42
12.07790000 52.16379900 491.82401000 0.51199299 -0.36939001 -0.77550900 1.905766e-42
13.57740000 53.15350000 491.93399000 0.46851701 -0.39927500 -0.78808099 1.905766e-42
14.45520000 54.69310000 491.61899000 0.43345401 -0.42837900 -0.79284900 1.905766e-42
15.03680000 56.29800000 491.04800000 0.40349299 -0.45437899 -0.79418701 1.905766e-42
15.58500000 57.83900100 490.29700000 0.37445301 -0.47846800 -0.79426301 1.905766e-42
16.63670000 59.23239900 489.85800000 0.34278199 -0.50599003 -0.79150200 1.905766e-42
16.72870100 60.66600000 488.77301000 0.32053000 -0.52139801 -0.79082501 1.905766e-42
17.76849900 62.01340100 488.18701000 0.29633501 -0.54511499 -0.78424197 1.905766e-42
18.53660000 63.49029900 487.50299000 0.27654499 -0.56457400 -0.77767497 1.905766e-42
19.35110100 64.99009700 486.93100000 0.26206699 -0.58200902 -0.76979703 1.905766e-42
20.75420000 65.97000100 486.37299000 0.25747401 -0.59705102 -0.75976098 1.905766e-42
22.38699900 66.72470100 486.30600000 0.25853500 -0.60597998 -0.75229502 1.905766e-42
23.21999900 68.05930300 485.43201000 0.25301799 -0.61603397 -0.74597901 1.905766e-42
24.80120100 68.88649700 485.19601000 0.23797400 -0.62207502 -0.74591601 1.905766e-42
26.22170100 69.89050300 484.73300000 0.22397800 -0.62647402 -0.74656802 1.905766e-42
27.91620100 70.49559800 484.68301000 0.20476501 -0.62944502 -0.74958003 1.905766e-42
29.54490100 71.24240100 484.51199000 0.18507400 -0.63114101 -0.75326502 1.905766e-42
31.31979900 71.48480200 484.68799000 0.16102600 -0.63178903 -0.75822997 1.905766e-42
32.40860000 72.71730000 483.95599000 0.14784101 -0.63159502 -0.76107198 1.905766e-42
34.19580100 72.50479900 483.98499000 0.13897300 -0.63024497 -0.76385701 1.905766e-42
35.97399900 72.78379800 483.99100000 0.13958400 -0.62718898 -0.76625699 1.905766e-42
37.42739900 72.17569700 484.86200000 0.14137200 -0.62270302 -0.76958102 1.905766e-42
37.37360000 71.06539900 486.27701000 0.13549000 -0.61722201 -0.77503502 1.905766e-42
36.69329800 69.76080300 487.31400000 0.12951900 -0.61316198 -0.77926701 1.905766e-42
36.41330000 68.47499800 488.54199000 0.12426900 -0.60700703 -0.78491998 1.905766e-42
35.72020000 67.26319900 489.67899000 0.12112700 -0.60152102 -0.78962100 1.905766e-42
35.38290000 65.81860400 490.69800000 0.11802700 -0.59408802 -0.79569399 1.905766e-42
36.13610100 64.70800000 491.89801000 0.11081500 -0.58487499 -0.80351800 1.905766e-42
36.51829900 63.24219900 492.87000000 0.10428400 -0.57480401 -0.81161898 1.905766e-42
36.61159900 61.72950000 493.84100000 0.09903110 -0.56402701 -0.81979698 1.905766e-42
36.39510000 60.08549900 494.54199000 0.09668360 -0.55276901 -0.82770699 1.905766e-42
35.43880100 58.74959900 495.27701000 0.10224000 -0.54223102 -0.83398598 1.905766e-42
34.18899900 57.56810000 495.80801000 0.11310100 -0.53132701 -0.83958298 1.905766e-42
32.64720200 56.65980100 496.00299000 0.12882200 -0.52140999 -0.84352702 1.905766e-42
31.39380100 55.48560000 496.54099000 0.14345500 -0.50465500 -0.85131902 1.905766e-42
30.57720000 54.03929900 497.23499000 0.15614200 -0.48119900 -0.86259401 1.905766e-42
30.50230000 52.49160000 498.15100000 0.16241001 -0.45234299 -0.87693202 1.905766e-42
30.91390000 50.84640100 498.75400000 0.16369200 -0.41962600 -0.89281499 1.905766e-42
31.25930000 49.20550200 499.40900000 0.16571400 -0.37700501 -0.91126603 1.905766e-42
31.94710000 47.81230200 500.31799000 0.16108400 -0.32758701 -0.93098801 1.905766e-42
31.87360000 46.08750200 500.82700000 0.16636799 -0.27708101 -0.94633400 1.905766e-42
31.86270000 44.36710000 501.35599000 0.16841100 -0.23712000 -0.95677203 1.905766e-42
32.17079900 42.67829900 501.89801000 0.16427100 -0.19559599 -0.96682900 1.905766e-42
33.37760200 41.43679800 502.39001000 0.14484800 -0.16296101 -0.97594202 1.905766e-42
34.59130100 40.17770000 502.81601000 0.12390700 -0.12769200 -0.98404402 1.905766e-42
35.73260100 38.81930200 503.12000000 0.10297000 -0.08785020 -0.99079698 1.905766e-42
36.61309800 37.25650000 503.26901000 0.08527980 -0.04063670 -0.99552798 1.905766e-42
37.83430100 35.97280100 503.58701000 0.06152100 0.00070747 -0.99810600 1.905766e-42
38.40380100 34.26559800 503.55499000 0.04807410 0.05445180 -0.99735802 1.905766e-42
39.52730200 32.91579800 503.16000000 0.02665350 0.10007900 -0.99462199 1.905766e-42
40.64170100 31.50960000 503.01700000 0.00525522 0.14686400 -0.98914301 1.905766e-42
41.34330000 29.86650100 502.79700000 -0.00531104 0.17337400 -0.98484200 1.905766e-42
41.92670100 28.16869900 502.66699000 -0.01056000 0.18997100 -0.98173302 1.905766e-42
43.19630100 26.89270000 502.65302000 -0.02540740 0.20015800 -0.97943401 1.905766e-42
43.57709900 25.18740100 502.22101000 -0.02394230 0.21985599 -0.97523803 1.905766e-42
44.09840000 23.51870000 501.79199000 -0.02267160 0.24057700 -0.97036499 1.905766e-42
44.69369900 22.04380000 500.94901000 -0.02104520 0.26175100 -0.96490598 1.905766e-42
45.63190100 20.62809900 500.35300000 -0.02384490 0.28026199 -0.95962697 1.905766e-42
46.73310100 19.28019900 499.89401000 -0.02953620 0.29629099 -0.95464098 1.905766e-42
47.59349800 17.82749900 499.26999000 -0.03364620 0.35720500 -0.93342000 1.905766e-42
48.66759900 16.46859900 498.78101000 -0.04263060 0.42872801 -0.90242702 1.905766e-42
49.57910200 15.10310000 498.04300000 -0.04197260 0.50213802 -0.86376798 1.905766e-42
51.21419900 14.55530000 497.52701000 -0.06462470 0.51646799 -0.85386401 1.905766e-42
52.39189900 13.39410000 496.81601000 -0.06080150 0.56390101 -0.82360101 1.905766e-42
53.88779800 12.63890000 496.15900000 -0.07067090 0.57974601 -0.81172699 1.905766e-42
55.34429900 11.85900000 495.44501000 -0.08447080 0.59480500 -0.79942000 1.905766e-42
56.83990100 11.13890000 494.74899000 -0.10120000 0.60462397 -0.79005599 1.905766e-42
58.08810000 10.19480000 493.85901000 -0.10579200 0.62691200 -0.77187401 1.905766e-42
59.34460100 9.30811980 492.92401000 -0.11131900 0.63685501 -0.76290500 1.905766e-42
60.89630100 8.56371970 492.39700000 -0.13515200 0.63120002 -0.76375401 1.905766e-42
61.14230000 7.34457020 491.09500000 -0.10682800 0.66797000 -0.73648101 1.905766e-42
61.59750000 5.92233990 490.09000000 -0.08173400 0.69977099 -0.70967603 1.905766e-42
62.02069900 4.82899000 488.72501000 -0.05414760 0.73057300 -0.68068397 1.905766e-42
63.36479900 4.16322990 487.73001000 -0.06334430 0.73157400 -0.67881298 1.905766e-42
64.91519900 3.92843010 486.84601000 -0.07765120 0.71729702 -0.69242698 1.905766e-42
65.80670200 2.95011000 485.62601000 -0.04278430 0.73206401 -0.67989099 1.905766e-42
66.75219700 1.83750000 484.57300000 0.00763950 0.72738397 -0.68618798 1.905766e-42
67.29630300 0.39808401 483.63901000 0.06914710 0.71485400 -0.69584697 1.905766e-42
68.01180300 -1.00113000 482.76199000 0.11988900 0.69570899 -0.70824802 1.905766e-42
68.29630300 -1.90967000 481.23401000 0.16226000 0.68576401 -0.70950699 1.905766e-42
68.85379800 -3.06508990 479.97101000 0.18920000 0.66991198 -0.71792799 1.905766e-42
70.03070100 -4.03773020 479.01801000 0.19024700 0.65675300 -0.72971302 1.905766e-42
70.15470100 -5.40115980 477.85001000 0.18667100 0.64637601 -0.73983198 1.905766e-42
70.13359800 -6.89937020 476.85199000 0.17240700 0.63347799 -0.75430900 1.905766e-42
69.53299700 -8.35696980 475.98300000 0.18089899 0.62431401 -0.75993901 1.905766e-42
69.26899700 -9.94229030 475.17300000 0.18701901 0.62170100 -0.76059997 1.905766e-42
68.40210000 -11.18760000 474.20401000 0.22477700 0.62026101 -0.75149900 1.905766e-42
66.83080300 -11.44910000 473.36600000 0.29547399 0.61859101 -0.72803903 1.905766e-42
65.27300300 -11.66760000 472.49100000 0.37017500 0.61663800 -0.69478601 1.905766e-42
64.52729800 -12.41540000 471.03400000 0.42808500 0.61213100 -0.66486001 1.905766e-42
64.11720300 -13.25730000 469.49600000 0.47682601 0.60274398 -0.63979399 1.905766e-42
63.83589900 -14.40410000 468.13800000 0.51249099 0.58982599 -0.62406600 1.905766e-42
63.34159900 -15.31820000 466.66800000 0.55865002 0.56805998 -0.60433197 1.905766e-42
63.06200000 -16.44240000 465.29001000 0.55983502 0.57243502 -0.59908497 1.905766e-42
62.49089800 -17.40920100 463.88400000 0.52955902 0.59973300 -0.59990603 1.905766e-42
61.45589800 -17.85960000 462.48099000 0.50281602 0.61678600 -0.60560000 1.905766e-42
60.67359900 -18.82160000 461.17700000 0.48271900 0.63956898 -0.59827602 1.905766e-42
59.87850200 -19.57850100 459.75000000 0.46684200 0.65938002 -0.58930200 1.905766e-42
59.74589900 -20.99440000 458.64700000 0.45921201 0.67935801 -0.57236099 1.905766e-42
59.40380100 -21.96769900 457.17200000 0.45023000 0.69553500 -0.55993199 1.905766e-42
60.30110200 -23.06990100 456.06699000 0.44066599 0.71274102 -0.54572397 1.905766e-42
