# .PCD v0.7 - Point Cloud Data file format
# 5 172 0
# 1 32 0
# 33 73 0
# 74 97 0
# 98 125 0
# 126 172 0
VERSION 0.7
FIELDS x y z normal_x normal_y normal_z curvature
SIZE 4 4 4 4 4 4 4
TYPE F F F F F F F
COUNT 1 1 1 1 1 1 1
WIDTH 172
HEIGHT 1
VIEWPOINT 0 0 0 1 0 0 0
POINTS 172
DATA ascii
55.23320000 3.57145000 463.60300000 -0.27282399 -0.95953602 0.06969150 1.905766e-42
55.81620000 3.54656000 465.30600000 -0.26643199 -0.96271503 0.04683620 1.905766e-42
55.37229900 3.74421000 467.03900000 -0.25768101 -0.96601999 0.02016470 1.905766e-42
54.65259900 3.91872000 468.67899000 -0.24869999 -0.96856701 -0.00508166 1.905766e-42
54.04230100 4.06129980 470.36700000 -0.23952299 -0.97045302 -0.02916750 1.905766e-42
53.38930100 4.13534020 472.04199000 -0.23016299 -0.97119302 -0.06172740 1.905766e-42
52.58520100 4.17895980 473.65201000 -0.22212200 -0.97035003 -0.09530070 1.905766e-42
51.80749900 4.13908000 475.27499000 -0.21529301 -0.96821600 -0.12730099 1.905766e-42
51.14049900 4.07266000 476.94601000 -0.20954899 -0.96491498 -0.15820400 1.905766e-42
50.70980100 3.89432000 478.68399000 -0.20508400 -0.96041602 -0.18852299 1.905766e-42
49.94839900 3.69542000 480.30301000 -0.20071700 -0.95550901 -0.21613801 1.905766e-42
49.42440000 3.44364000 482.00699000 -0.19733299 -0.94984502 -0.24260101 1.905766e-42
48.79980100 3.15292000 483.67001000 -0.19352500 -0.94376802 -0.26804700 1.905766e-42
47.70750000 2.84855010 485.06699000 -0.18781100 -0.93827403 -0.29046500 1.905766e-42
47.64020200 2.35905000 486.79800000 -0.18559200 -0.93001097 -0.31722999 1.905766e-42
46.78820000 1.90727000 488.31799000 -0.17993000 -0.92236203 -0.34186700 1.905766e-42
46.39350100 1.37637000 489.99200000 -0.17599399 -0.91284299 -0.36843500 1.905766e-42
45.58000200 0.81289297 491.49600000 -0.16989000 -0.90436298 -0.39149001 1.905766e-42
44.91140000 0.20652400 493.05301000 -0.16361099 -0.89545500 -0.41399500 1.905766e-42
44.27840000 -0.43523401 494.61099000 -0.15649800 -0.88580102 -0.43688101 1.905766e-42
44.43360100 -1.13553000 496.26199000 -0.15428700 -0.87468898 -0.45947099 1.905766e-42
43.49070000 -1.88986000 497.59698000 -0.14414100 -0.86476600 -0.48104301 1.905766e-42
43.49100100 -2.71249010 499.49100000 -0.13974001 -0.85062099 -0.50686902 1.905766e-42
42.96180000 -3.61930990 500.95300000 -0.13201500 -0.83901298 -0.52785301 1.905766e-42
42.25579800 -4.52937980 502.33701000 -0.12198700 -0.82685101 -0.54903299 1.905766e-42
41.83160000 -5.40100000 503.85300000 -0.11334200 -0.81283098 -0.57136601 1.905766e-42
41.22930100 -6.36519000 505.24899000 -0.10276000 -0.79767603 -0.59426701 1.905766e-42
40.57310100 -7.41513010 506.55499000 -0.09148970 -0.78112501 -0.61763602 1.905766e-42
39.54299900 -8.34796050 507.69901000 -0.07678000 -0.76515800 -0.63924801 1.905766e-42
39.43109900 -9.50712970 509.07199000 -0.07271540 -0.74878597 -0.65881097 1.905766e-42
39.18209800 -10.68090000 510.41400000 -0.06865290 -0.73447800 -0.67515099 1.905766e-42
38.50080100 -11.80420000 511.64401000 -0.06142710 -0.72280198 -0.68831998 1.905766e-42
37.44160100 -12.76860000 512.73401000 -0.05105470 -0.71409601 -0.69818401 1.905766e-42
35.64939900 -12.62970000 512.82703000 -0.03018970 -0.71639502 -0.69704199 1.905766e-42
34.00709900 -12.88850000 513.51703000 -0.02181440 -0.71343702 -0.70038003 1.905766e-42
32.23130000 -12.77600000 513.24597000 -0.03224880 -0.71246201 -0.70096898 1.905766e-42
30.43240000 -12.71210000 513.24799000 -0.04148330 -0.71001703 -0.70296103 1.905766e-42
28.73140000 -12.34300000 512.78998000 -0.05058930 -0.71007299 -0.70230800 1.905766e-42
26.93590000 -12.21790000 512.76703000 -0.05834240 -0.70714200 -0.70466000 1.905766e-42
25.13620000 -12.19930000 512.79602000 -0.06484860 -0.70307499 -0.70815301 1.905766e-42
23.35190000 -11.97310000 512.86798000 -0.07070700 -0.69894600 -0.71167099 1.905766e-42
21.56259900 -11.82570000 512.99701000 -0.06408320 -0.69503701 -0.71611297 1.905766e-42
19.92450000 -11.16740000 512.64600000 -0.05708700 -0.69637603 -0.71540302 1.905766e-42
18.14090000 -11.19690000 512.88599000 -0.04700080 -0.69189900 -0.72046298 1.905766e-42
16.34849900 -11.04510000 512.82098000 -0.03825370 -0.68993598 -0.72285903 1.905766e-42
14.57670000 -11.10310000 513.13300000 -0.02911100 -0.68531501 -0.72766399 1.905766e-42
13.37520000 -10.39190000 511.99701000 -0.02608880 -0.69355500 -0.71993101 1.905766e-42
11.57560000 -10.43200000 511.99100000 -0.01784920 -0.69139600 -0.72225499 1.905766e-42
9.77668000 -10.37480000 511.96899000 -0.01110170 -0.69026399 -0.72347200 1.905766e-42
7.98595000 -10.35250000 512.15002000 -0.00950230 -0.68756902 -0.72605699 1.905766e-42
6.20041990 -10.21180000 512.32898000 -0.00794720 -0.68547201 -0.72805601 1.905766e-42
4.53228000 -9.62784960 511.98801000 -0.00752691 -0.68870002 -0.72500700 1.905766e-42
2.73481010 -9.69958020 511.92599000 -0.00589248 -0.68644500 -0.72715801 1.905766e-42
0.95288301 -9.76348970 511.67899000 -0.00444316 -0.68511599 -0.72842002 1.905766e-42
-0.76884902 -9.54531960 511.20200000 -0.00370281 -0.68656099 -0.72706199 1.905766e-42
-2.56237010 -9.54845050 511.35400000 -0.00174396 -0.68320602 -0.73022401 1.905766e-42
-4.34834000 -9.38410000 511.50699000 0.00649178 -0.68133497 -0.73194301 1.905766e-42
-5.96759990 -8.80278020 510.97800000 0.01942310 -0.68593699 -0.72740197 1.905766e-42
-7.76422020 -8.83951000 510.87399000 0.03491660 -0.68443602 -0.72823602 1.905766e-42
-9.52972030 -9.09021000 511.11899000 0.05083040 -0.67973298 -0.73169601 1.905766e-42
-11.32290000 -8.95660020 511.03699000 0.06653710 -0.67855603 -0.73152900 1.905766e-42
-13.04780000 -8.79341980 510.54901000 0.08154530 -0.67941898 -0.72920501 1.905766e-42
-14.83040000 -8.80399040 510.79901000 0.09776010 -0.67525798 -0.73107398 1.905766e-42
-16.57329900 -8.80278020 510.34900000 0.11347300 -0.67443401 -0.72956300 1.905766e-42
-18.15850100 -8.80294990 509.49600000 0.13316700 -0.67614597 -0.72463298 1.905766e-42
-19.90320000 -8.74092960 509.05801000 0.15655300 -0.67649400 -0.71961600 1.905766e-42
-21.62470100 -8.54870030 508.56799000 0.18040000 -0.67828900 -0.71230602 1.905766e-42
-23.34730000 -8.32483010 508.09698000 0.20494300 -0.68032902 -0.70366901 1.905766e-42
-24.98020000 -8.97863010 508.47900000 0.22653800 -0.67342299 -0.70369202 1.905766e-42
-26.71050100 -9.30879970 508.10901000 0.25196299 -0.67203200 -0.69633800 1.905766e-42
-28.36820000 -9.75875000 507.57101000 0.27776799 -0.67065001 -0.68780398 1.905766e-42
-30.02790100 -10.29270000 507.12299000 0.29577300 -0.66950202 -0.68138498 1.905766e-42
-31.74670000 -10.41780000 506.60400000 0.30697301 -0.67450398 -0.67142600 1.905766e-42
-33.47029900 -10.62280000 506.12701000 0.31846699 -0.68268597 -0.65766197 1.905766e-42
-34.71089900 -9.97443960 504.99600000 0.33882001 -0.69330102 -0.63603002 1.905766e-42
-35.70309800 -9.37075040 503.62000000 0.36254400 -0.70105898 -0.61406702 1.905766e-42
-36.63600200 -8.75098040 502.21100000 0.38763201 -0.70561099 -0.59317398 1.905766e-42
-37.15300000 -7.87006000 500.72900000 0.40873900 -0.70644200 -0.57781601 1.905766e-42
-38.29359800 -7.54300020 499.37601000 0.43407899 -0.70511800 -0.56069899 1.905766e-42
-39.36349900 -7.09392980 498.00000000 0.45729399 -0.69999999 -0.54852700 1.905766e-42
-40.21559900 -6.41215990 496.56799000 0.45979199 -0.69802701 -0.54895300 1.905766e-42
-40.73590100 -5.49781990 495.10800000 0.45239601 -0.70827597 -0.54192501 1.905766e-42
-41.73759800 -4.73555990 493.82101000 0.44327000 -0.72448099 -0.52786201 1.905766e-42
-41.69329800 -3.94644000 492.20401000 0.44319600 -0.73876101 -0.50774902 1.905766e-42
-42.46320000 -3.32556010 490.70001000 0.44186300 -0.75166303 -0.48965299 1.905766e-42
-43.14059800 -2.70531990 489.15201000 0.44474599 -0.76289803 -0.46924201 1.905766e-42
-43.96699900 -2.27743010 487.61099000 0.45135900 -0.77233398 -0.44696200 1.905766e-42
-44.67190200 -1.79810000 486.02600000 0.46225500 -0.78113002 -0.41971099 1.905766e-42
-44.96360000 -1.23620000 484.34100000 0.47536600 -0.78850502 -0.39024001 1.905766e-42
-45.65210000 -0.99594700 482.69501000 0.49186799 -0.79354799 -0.35825500 1.905766e-42
-46.41000000 -0.83155102 481.07001000 0.51075500 -0.79606402 -0.32466999 1.905766e-42
-46.60400000 -0.42008999 479.32901000 0.52836800 -0.79652798 -0.29388899 1.905766e-42
-47.19920000 -0.25069100 477.63901000 0.54907203 -0.79417503 -0.26039699 1.905766e-42
-47.80780000 -0.03869290 475.95801000 0.57010698 -0.78902000 -0.22896700 1.905766e-42
-48.88200000 -0.12348300 474.51599000 0.59235799 -0.78051901 -0.19975500 1.905766e-42
-49.26020100 -0.05509220 472.75800000 0.61074901 -0.77134800 -0.17890599 1.905766e-42
-49.91450100 -0.04515240 471.08099000 0.62853402 -0.76069802 -0.16212200 1.905766e-42
-50.21329900 0.05753000 469.30899000 0.64121002 -0.75174701 -0.15403201 1.905766e-42
-49.48770100 0.80034900 467.83801000 0.63692802 -0.75479603 -0.15685999 1.905766e-42
-48.74499900 1.81700000 466.55200000 0.62567598 -0.76386499 -0.15824100 1.905766e-42
-47.73960100 2.83596990 465.46100000 0.60820103 -0.77807802 -0.15711500 1.905766e-42
-46.68170200 3.78222990 464.35400000 0.58819503 -0.79411101 -0.15301500 1.905766e-42
-45.48289900 4.68056010 463.35599000 0.56484300 -0.81214797 -0.14617801 1.905766e-42
-44.22710000 5.53092000 462.38599000 0.53929800 -0.83094603 -0.13669799 1.905766e-42
-43.28260000 6.37293000 461.10599000 0.51529300 -0.84798902 -0.12404400 1.905766e-42
-42.16960100 7.24355980 459.99100000 0.48835701 -0.86577398 -0.10928600 1.905766e-42
-40.80110200 8.08337020 459.17801000 0.45919299 -0.88334203 -0.09406510 1.905766e-42
-39.59479900 8.89519020 458.11700000 0.43185401 -0.89873898 -0.07596340 1.905766e-42
-39.19850200 9.55558010 456.48999000 0.41531199 -0.90800798 -0.05510530 1.905766e-42
-37.68330000 9.98419950 455.61801000 0.39067000 -0.91974199 -0.03809260 1.905766e-42
-36.68730200 10.53870000 454.22501000 0.37173700 -0.92818302 -0.01695090 1.905766e-42
-35.68719900 10.92070000 452.77802000 0.35564601 -0.93460798 0.00484470 1.905766e-42
-34.36890000 11.33890000 451.62500000 0.34020901 -0.94005901 0.02339300 1.905766e-42
-32.93629800 11.76950000 450.62399000 0.32625499 -0.94455498 0.03704690 1.905766e-42
-32.24599800 12.03130000 448.98300000 0.32002801 -0.94623500 0.04714040 1.905766e-42
-30.80780000 12.24970000 447.92300000 0.30416301 -0.95105797 0.05452240 1.905766e-42
-29.38820100 12.54010000 446.85501000 0.28658900 -0.95591497 0.06397540 1.905766e-42
-28.38629900 12.71800000 445.37000000 0.27166900 -0.95923299 0.07789410 1.905766e-42
-26.87800000 12.98980000 444.42599000 0.25063801 -0.96384197 0.09048970 1.905766e-42
-25.76860000 13.16250000 443.01901000 0.23186700 -0.96676803 0.10769100 1.905766e-42
-25.13390000 13.45770000 441.36099000 0.21648200 -0.96860403 0.12223600 1.905766e-42
-23.58910000 13.41520000 440.43799000 0.19473600 -0.97171497 0.13359600 1.905766e-42
-22.71320000 13.61180000 438.87799000 0.17695799 -0.97358203 0.14430401 1.905766e-42
-21.53000100 13.73130000 437.52600000 0.15703399 -0.97527498 0.15549500 1.905766e-42
-20.75670100 13.39370000 435.93600000 0.13999701 -0.97636801 0.16463900 1.905766e-42
-19.84960000 13.49820000 434.38501000 0.12149800 -0.97714502 0.17442900 1.905766e-42
-18.07080100 13.22220000 434.38699000 0.10656600 -0.97676599 0.18593700 1.905766e-42
-16.27529900 13.34910000 434.37701000 0.08504840 -0.97697997 0.19564600 1.905766e-42
-14.47640000 13.40790000 434.39301000 0.06455110 -0.97672600 0.20454800 1.905766e-42
-12.68010000 13.52280000 434.37799000 0.04509780 -0.97608298 0.21266800 1.905766e-42
-10.90100000 13.79600000 434.38599000 0.02718010 -0.97525698 0.21939600 1.905766e-42
-9.12522980 14.08970000 434.36301000 0.01036810 -0.97427702 0.22511300 1.905766e-42
-7.32556010 14.12280000 434.37299000 -0.00558868 -0.97319400 0.22991601 1.905766e-42
-5.52615980 14.07760000 434.38400000 -0.02201670 -0.97210503 0.23351000 1.905766e-42
-3.73938990 13.85990000 434.38901000 -0.04906650 -0.97079998 0.23481700 1.905766e-42
-1.94907000 13.67350000 434.38300000 -0.07521330 -0.96919000 0.23455100 1.905766e-42
-0.15562201 13.52030000 434.38901000 -0.10047800 -0.96740401 0.23244999 1.905766e-42
1.63174000 13.60150000 434.58600000 -0.12506200 -0.96590900 0.22666900 1.905766e-42
3.29415010 13.31150000 435.21201000 -0.14933600 -0.96470702 0.21688500 1.905766e-42
5.08999010 13.23130000 435.30399000 -0.17313001 -0.96225899 0.20996200 1.905766e-42
6.71426010 12.88800000 436.00000000 -0.19704001 -0.96009803 0.19846000 1.905766e-42
8.36048030 12.60140000 436.66901000 -0.21017200 -0.95927602 0.18872599 1.905766e-42
9.77882960 12.23090000 437.71301000 -0.21722600 -0.95954698 0.17911801 1.905766e-42
11.41570000 12.23270000 438.46201000 -0.22402300 -0.95931399 0.17184199 1.905766e-42
13.18630000 11.96790000 438.64899000 -0.23048501 -0.95844501 0.16810900 1.905766e-42
14.64670000 11.59470000 439.63300000 -0.23725300 -0.95783103 0.16208500 1.905766e-42
15.97810000 11.20460000 440.77899000 -0.24353500 -0.95712000 0.15688001 1.905766e-42
17.73230000 11.09790000 441.16901000 -0.25045100 -0.95571899 0.15451799 1.905766e-42
18.95830000 11.01010000 442.48401000 -0.25581199 -0.95479202 0.15143700 1.905766e-42
20.52560000 10.87710000 443.35901000 -0.25820401 -0.95422000 0.15098201 1.905766e-42
22.06670000 10.55520000 444.23099000 -0.25755000 -0.95424199 0.15195400 1.905766e-42
23.65930000 10.17960000 444.98099000 -0.25715500 -0.95410001 0.15350901 1.905766e-42
24.72069900 9.79817010 446.38400000 -0.25646600 -0.95390499 0.15585500 1.905766e-42
26.42950100 9.50485990 446.86801000 -0.25694400 -0.95349598 0.15756001 1.905766e-42
27.75900100 9.40779020 448.07800000 -0.25748700 -0.95287299 0.16041701 1.905766e-42
29.42140000 9.20938970 448.73901000 -0.25861999 -0.95316899 0.15679599 1.905766e-42
30.99990100 9.03672980 449.58600000 -0.25988200 -0.95442098 0.14677000 1.905766e-42
32.52430000 8.77070050 450.50601000 -0.26179099 -0.95550400 0.13593400 1.905766e-42
34.20980100 8.46364020 451.05801000 -0.26405501 -0.95562297 0.13061500 1.905766e-42
35.54370100 7.91769980 452.13599000 -0.26537701 -0.95663500 0.12009900 1.905766e-42
37.09260200 7.46218010 452.93201000 -0.26698500 -0.95694900 0.11387100 1.905766e-42
38.68439900 7.09423020 453.68799000 -0.26850599 -0.95709401 0.10897700 1.905766e-42
40.35240200 6.88271000 454.32999000 -0.27012801 -0.95696598 0.10605000 1.905766e-42
41.80899800 6.49152990 455.31299000 -0.27062300 -0.95740002 0.10073800 1.905766e-42
43.39350100 6.11038020 456.07700000 -0.27192801 -0.95723301 0.09879270 1.905766e-42
45.07239900 5.98330020 456.71301000 -0.27421001 -0.95663202 0.09830310 1.905766e-42
46.54700100 5.65743020 457.69299000 -0.27507499 -0.95666802 0.09549610 1.905766e-42
48.11840100 5.20757010 458.44699000 -0.27667400 -0.95620102 0.09555220 1.905766e-42
49.60660200 4.68497990 459.31400000 -0.27763000 -0.95591497 0.09564230 1.905766e-42
51.07099900 4.25800990 460.26999000 -0.27792001 -0.95576698 0.09627800 1.905766e-42
52.57550000 3.96308990 461.21301000 -0.27769300 -0.95592898 0.09532230 1.905766e-42
53.95970200 3.74398990 462.34201000 -0.27571499 -0.95759898 0.08357520 1.905766e-42
