# .PCD v0.7 - Point Cloud Data file format
# 2 174 -2
# 1 91 0
# 92 174 0
VERSION 0.7
FIELDS x y z normal_x normal_y normal_z curvature
SIZE 4 4 4 4 4 4 4
TYPE F F F F F F F
COUNT 1 1 1 1 1 1 1
WIDTH 174
HEIGHT 1
VIEWPOINT 0 0 0 1 0 0 0
POINTS 174
DATA ascii
79.27469600 35.29750100 516.31500000 -0.33984599 0.51832002 -0.78476000 1.905766e-42
78.10769700 33.97250000 515.96503000 -0.33640999 0.51462001 -0.78866601 1.905766e-42
76.60019700 32.98939900 515.99701000 -0.33670101 0.51694798 -0.78701800 1.905766e-42
75.16040000 31.91050000 515.94098000 -0.33634400 0.51924503 -0.78565699 1.905766e-42
74.78099800 30.28260000 515.27301000 -0.32856399 0.51567000 -0.79128402 1.905766e-42
73.10009800 29.64349900 515.35199000 -0.33148399 0.52161402 -0.78615302 1.905766e-42
71.93009900 28.32819900 514.97699000 -0.32845300 0.52358401 -0.78611600 1.905766e-42
70.55840300 27.19619900 514.69897000 -0.32717001 0.52685201 -0.78446603 1.905766e-42
69.27359800 25.96620000 514.42297000 -0.32748401 0.53401601 -0.77947497 1.905766e-42
68.31970200 24.50709900 513.97400000 -0.32691801 0.54242301 -0.77388799 1.905766e-42
66.95259900 23.38310100 513.64697000 -0.32770899 0.54962301 -0.76845402 1.905766e-42
65.43119800 22.42639900 513.54602000 -0.32743800 0.55602098 -0.76395398 1.905766e-42
64.62190200 20.97340000 512.85699000 -0.32013100 0.56755197 -0.75855201 1.905766e-42
63.63460200 19.57410000 512.30298000 -0.31222400 0.57877100 -0.75335300 1.905766e-42
62.25899900 18.48340000 511.90500000 -0.30363199 0.58862197 -0.74922001 1.905766e-42
61.37910100 17.03809900 511.29199000 -0.29658100 0.59904999 -0.74375999 1.905766e-42
59.76240200 16.26250100 511.13400000 -0.28809401 0.60610503 -0.74137598 1.905766e-42
58.64839900 14.98860000 510.52100000 -0.28114101 0.61461997 -0.73702198 1.905766e-42
57.70240000 13.65450000 509.76901000 -0.27675301 0.62482500 -0.73006898 1.905766e-42
56.15930200 12.76930000 509.49500000 -0.27089101 0.63348103 -0.72478902 1.905766e-42
54.90490000 11.60250000 508.94199000 -0.26941201 0.65010703 -0.71047699 1.905766e-42
54.03739900 10.30920000 508.04001000 -0.27233601 0.67636698 -0.68436903 1.905766e-42
53.13069900 9.04815960 507.13000000 -0.27463499 0.70571399 -0.65310299 1.905766e-42
51.89709900 7.95386980 506.40799000 -0.27108201 0.73343003 -0.62337399 1.905766e-42
51.05720100 6.70922990 505.41599000 -0.26836601 0.77134001 -0.57707399 1.905766e-42
49.60179900 5.88568020 504.75000000 -0.26165101 0.79821402 -0.54258001 1.905766e-42
48.16719800 5.00745010 504.10901000 -0.25478300 0.82527900 -0.50398499 1.905766e-42
46.77619900 4.14975020 503.35400000 -0.24801700 0.85313499 -0.45896399 1.905766e-42
45.58729900 3.27364990 502.32501000 -0.23021300 0.86645901 -0.44300300 1.905766e-42
44.04250000 2.61120010 501.68100000 -0.21550000 0.87606901 -0.43135101 1.905766e-42
43.15670000 1.70008000 500.40601000 -0.18800800 0.88059199 -0.43498400 1.905766e-42
41.46889900 1.19114010 500.04199000 -0.18134500 0.89396900 -0.40979701 1.905766e-42
40.33940100 0.35394201 498.91901000 -0.15562500 0.90533400 -0.39516100 1.905766e-42
38.89880000 -0.24480700 498.02100000 -0.12823699 0.92071497 -0.36856401 1.905766e-42
37.40650200 -0.74712700 497.14801000 -0.10341900 0.93524498 -0.33855700 1.905766e-42
35.63629900 -0.85949600 496.84201000 -0.09101220 0.94744802 -0.30669200 1.905766e-42
34.54150000 -1.60716000 495.62399000 -0.06360670 0.95848399 -0.27796099 1.905766e-42
32.78620100 -1.60990000 495.22601000 -0.05237910 0.96758902 -0.24704000 1.905766e-42
31.09499900 -1.76173000 494.62900000 -0.03821830 0.97559798 -0.21621101 1.905766e-42
29.71649900 -2.04953000 493.50699000 -0.01894610 0.98286998 -0.18332399 1.905766e-42
28.16510000 -2.18893000 492.60501000 -0.00418159 0.98844397 -0.15153100 1.905766e-42
26.61820000 -2.37394000 491.70401000 0.01181980 0.99270201 -0.12001600 1.905766e-42
24.95550000 -2.41105010 491.01501000 0.02853970 0.99533898 -0.09212320 1.905766e-42
23.50750000 -2.54037000 489.95401000 0.04637130 0.99693501 -0.06300280 1.905766e-42
21.97620000 -2.44873000 489.01199000 0.06227480 0.99733198 -0.03808370 1.905766e-42
20.41860000 -2.37297010 488.11301000 0.07722440 0.99686998 -0.01690400 1.905766e-42
18.86090100 -2.32711010 487.21201000 0.09164990 0.99579102 0.00080444 1.905766e-42
17.25230000 -2.22782990 486.41101000 0.10621100 0.99424702 0.01384300 1.905766e-42
15.57290000 -2.01430010 485.79901000 0.12212600 0.99228299 0.02144890 1.905766e-42
13.88480000 -1.70987000 485.25400000 0.13978200 0.98985499 0.02546960 1.905766e-42
12.17330000 -1.39224000 484.79501000 0.15963900 0.98682302 0.02637130 1.905766e-42
10.49250000 -1.11405000 484.21500000 0.18046699 0.98320800 0.02709940 1.905766e-42
8.83584020 -0.82007998 483.57501000 0.20234200 0.97893798 0.02715210 1.905766e-42
7.12205980 -0.36689600 483.26300000 0.22757500 0.97344500 0.02479450 1.905766e-42
5.39501000 0.13540500 483.19199000 0.25466701 0.96678001 0.02195940 1.905766e-42
3.73494010 0.56610602 482.64499000 0.28046599 0.95963103 0.02115580 1.905766e-42
2.02804990 1.09412000 482.42700000 0.30784699 0.95121300 0.02059130 1.905766e-42
0.34609699 1.73501000 482.41000000 0.33453500 0.94212800 0.02191450 1.905766e-42
-1.33698000 2.37272000 482.38599000 0.35925901 0.93288302 0.02574450 1.905766e-42
-2.96339010 3.04054000 482.00000000 0.37967801 0.92465299 0.02933550 1.905766e-42
-4.57005980 3.77081990 482.35400000 0.39707100 0.91698802 0.03831590 1.905766e-42
-6.12229010 4.45352980 481.75000000 0.41743600 0.90765500 0.04369300 1.905766e-42
-7.73054980 5.23964980 481.56201000 0.43623900 0.89821702 0.05387010 1.905766e-42
-9.33950040 6.04627990 481.58701000 0.45246500 0.88913798 0.06862310 1.905766e-42
-10.89050000 6.64676000 480.89899000 0.47227100 0.87815601 0.07617480 1.905766e-42
-12.46700000 7.51290990 480.83099000 0.48668700 0.86845100 0.09449160 1.905766e-42
-13.94920000 8.49149990 481.12399000 0.50419199 0.85733998 0.10372000 1.905766e-42
-15.55940000 9.13494010 480.64099000 0.52638203 0.84355599 0.10646800 1.905766e-42
-15.87530000 9.44198990 480.77600000 0.53186297 0.84021997 0.10560500 1.905766e-42
-17.14850000 10.47520000 481.51901000 0.54778802 0.83065498 0.09969920 1.905766e-42
-18.62630100 11.50100000 481.57901000 0.56088102 0.82212698 0.09757260 1.905766e-42
-20.05180000 12.42400000 482.17599000 0.57322001 0.81397599 0.09413840 1.905766e-42
-21.43590000 13.29570000 482.92700000 0.58506399 0.80583203 0.09129790 1.905766e-42
-22.92830100 14.26970000 483.17999000 0.59868902 0.79582900 0.09071080 1.905766e-42
-24.28430000 15.23070000 483.87100000 0.61862701 0.78165400 0.07948140 1.905766e-42
-25.71369900 16.15020000 484.46399000 0.64020801 0.76523799 0.06740620 1.905766e-42
-26.88929900 17.19470000 485.34000000 0.66063100 0.74868298 0.05514380 1.905766e-42
-27.91750000 18.27529900 486.34799000 0.67909402 0.73273998 0.04386020 1.905766e-42
-29.36790100 19.34110100 486.37201000 0.69744903 0.71552700 0.03983210 1.905766e-42
-30.58180000 20.50440000 487.01401000 0.71432000 0.69900697 0.03369020 1.905766e-42
-31.61969900 21.73749900 487.81601000 0.73108900 0.68183798 0.02463240 1.905766e-42
-32.66610000 22.87809900 488.73401000 0.74534601 0.66646701 0.01675330 1.905766e-42
-33.62139900 24.02930100 489.73499000 0.75670701 0.65367299 0.01031760 1.905766e-42
-34.48230000 25.04590000 490.94601000 0.76414198 0.64503503 0.00410925 1.905766e-42
-35.44570200 26.19129900 491.94601000 0.76981401 0.63826698 0.00106959 1.905766e-42
-36.30229900 27.27450000 493.10001000 0.77587199 0.63080901 -0.01013860 1.905766e-42
-37.38959900 28.42490000 493.95700000 0.78239900 0.62243199 -0.02074570 1.905766e-42
-37.93240000 29.40040000 495.36899000 0.78541797 0.61769497 -0.03962740 1.905766e-42
-38.58729900 30.47470100 496.65701000 0.78726602 0.61369801 -0.05990090 1.905766e-42
-39.07849900 31.38520100 498.13000000 0.78724700 0.61052299 -0.08662470 1.905766e-42
-39.55440100 32.35060100 499.57199000 0.77925497 0.61879998 -0.09923540 1.905766e-42
-39.74150100 32.86690100 501.28699000 0.76564997 0.63454098 -0.10553600 1.905766e-42
-38.82680100 31.77720100 502.38901000 0.76577902 0.63054901 -0.12645000 1.905766e-42
-37.81340000 30.48650000 503.12900000 0.76757199 0.62389600 -0.14692700 1.905766e-42
-36.77669900 29.28389900 503.97699000 0.76615399 0.62077802 -0.16626000 1.905766e-42
-35.75579800 28.31370000 505.09799000 0.76132399 0.62088001 -0.18679801 1.905766e-42
-34.77380000 27.37290000 506.27701000 0.75490999 0.62226099 -0.20713000 1.905766e-42
-33.73130000 26.55100100 507.49301000 0.74699599 0.62470698 -0.22746100 1.905766e-42
-32.61529900 25.68860100 508.61099000 0.73766601 0.62874401 -0.24602900 1.905766e-42
-31.53150000 24.96400100 509.85199000 0.72669399 0.63359702 -0.26546401 1.905766e-42
-30.33300000 24.19500000 510.95300000 0.71355999 0.64112800 -0.28246599 1.905766e-42
-29.41750000 23.83950000 512.46198000 0.70124102 0.64483601 -0.30405000 1.905766e-42
-28.31209900 23.42359900 513.82001000 0.68641502 0.65151101 -0.32306001 1.905766e-42
-27.69780000 23.30120100 515.50702000 0.67586100 0.65166998 -0.34429300 1.905766e-42
-26.66309900 23.15020000 516.97302000 0.66090697 0.65722102 -0.36230099 1.905766e-42
-25.47380100 22.93140000 518.30603000 0.62928700 0.67437398 -0.38628599 1.905766e-42
-24.67770000 23.12680100 519.90802000 0.60242897 0.68129301 -0.41583499 1.905766e-42
-23.44750000 23.15990100 521.22198000 0.56003201 0.69469398 -0.45140299 1.905766e-42
-22.57900000 23.45509900 522.77100000 0.51864100 0.69459498 -0.49854600 1.905766e-42
-21.23380100 23.66900100 523.94702000 0.45783100 0.69729501 -0.55151701 1.905766e-42
-20.48539900 24.23110000 525.48499000 0.40270001 0.68337202 -0.60896301 1.905766e-42
-19.40850100 24.83429900 526.79498000 0.33114901 0.66631597 -0.66810501 1.905766e-42
-18.23430100 25.46100000 528.00702000 0.25127301 0.64381599 -0.72274703 1.905766e-42
-16.79540100 26.05900000 528.90802000 0.16272800 0.61972100 -0.76776600 1.905766e-42
-15.81740000 27.09860000 530.00500000 0.09424460 0.58993500 -0.80193198 1.905766e-42
-14.53880000 28.04480000 530.84698000 0.04544810 0.56609899 -0.82308400 1.905766e-42
-12.93420000 28.69720100 531.33698000 0.04720250 0.55535400 -0.83027297 1.905766e-42
-11.74320000 29.79900000 532.11603000 0.04861260 0.54987001 -0.83383399 1.905766e-42
-10.62460000 30.86879900 533.03497000 0.05239720 0.54987001 -0.83360499 1.905766e-42
-9.19108960 31.80020000 533.59802000 0.05696890 0.55389899 -0.83063298 1.905766e-42
-7.68817000 32.62319900 534.15002000 0.06145290 0.55982101 -0.82633102 1.905766e-42
-6.33966020 33.52590200 534.92902000 0.06649520 0.56657398 -0.82132298 1.905766e-42
-4.88215020 34.33720000 535.60498000 0.07088600 0.57325101 -0.81630701 1.905766e-42
-3.19617010 34.85590000 535.96301000 0.07369840 0.57887203 -0.81208098 1.905766e-42
-1.91015990 35.80479800 536.79102000 0.07506890 0.58280498 -0.80913699 1.905766e-42
-0.32221299 36.46460000 537.32300000 0.07093500 0.58554000 -0.80753398 1.905766e-42
1.11177000 37.28879900 538.03400000 0.06795680 0.58751899 -0.80635202 1.905766e-42
2.42331000 38.22219800 538.83899000 0.06597110 0.58900100 -0.80543500 1.905766e-42
4.17820980 38.39390200 539.20099000 0.06068150 0.59231597 -0.80341798 1.905766e-42
5.61255980 39.11389900 540.01599000 0.05838620 0.59510398 -0.80152500 1.905766e-42
7.41244980 39.11520000 539.99597000 0.05156460 0.59973198 -0.79853803 1.905766e-42
9.21210000 39.08020000 539.98798000 0.04429030 0.60440397 -0.79544598 1.905766e-42
10.85470000 38.44599900 539.61401000 0.03562420 0.60768402 -0.79338002 1.905766e-42
12.54990000 37.93750000 539.28601000 0.02277490 0.60908997 -0.79277402 1.905766e-42
14.31660000 37.65729900 539.08600000 0.00676541 0.60947698 -0.79277402 1.905766e-42
16.11570000 37.60179900 539.10797000 -0.01006830 0.60997599 -0.79235601 1.905766e-42
17.71980100 37.10129900 538.46301000 -0.02577960 0.60741800 -0.79396403 1.905766e-42
19.25680000 36.37879900 537.86603000 -0.04069310 0.60285801 -0.79680997 1.905766e-42
21.03170000 36.17450000 537.64697000 -0.05875200 0.59928602 -0.79837602 1.905766e-42
22.82250000 36.01649900 537.55798000 -0.07750230 0.59527498 -0.79977602 1.905766e-42
24.31520100 35.29940000 536.85199000 -0.09367200 0.59146500 -0.80087203 1.905766e-42
25.97570000 34.84180100 536.32898000 -0.11392800 0.59255099 -0.79743600 1.905766e-42
27.74740000 34.64120100 536.08301000 -0.13557599 0.59208399 -0.79439002 1.905766e-42
29.54560100 34.65729900 536.00403000 -0.15029000 0.59300601 -0.79104799 1.905766e-42
31.34550100 34.64690000 535.98401000 -0.16204600 0.59420800 -0.78781903 1.905766e-42
32.97040200 34.38670000 535.25500000 -0.17351800 0.59446001 -0.78518099 1.905766e-42
34.53820000 34.04959900 534.43799000 -0.18370201 0.59355903 -0.78354400 1.905766e-42
36.18949900 33.86410100 533.74500000 -0.19318800 0.59146398 -0.78284597 1.905766e-42
37.94879900 34.16339900 533.51001000 -0.20302300 0.58841097 -0.78265798 1.905766e-42
39.68870200 34.33260000 533.08197000 -0.21183801 0.58402401 -0.78360701 1.905766e-42
41.39320000 34.38040200 532.50500000 -0.21895000 0.57810199 -0.78604001 1.905766e-42
42.73059800 33.71569800 531.50000000 -0.22218600 0.57486701 -0.78750300 1.905766e-42
44.47250000 34.06290100 531.20801000 -0.23073301 0.57048202 -0.78823400 1.905766e-42
46.08630000 33.79840100 530.45599000 -0.23791300 0.56860697 -0.78745401 1.905766e-42
47.77579900 33.63620000 529.85699000 -0.24843700 0.56784701 -0.78474802 1.905766e-42
49.55379900 33.78850200 529.62097000 -0.26141900 0.56811303 -0.78032500 1.905766e-42
51.13900000 33.52150000 528.81097000 -0.27755299 0.57010299 -0.77327102 1.905766e-42
52.81010100 33.34759900 528.16498000 -0.29696500 0.57312202 -0.76376897 1.905766e-42
54.50859800 33.92660100 528.02301000 -0.31457099 0.57703102 -0.75371099 1.905766e-42
56.25460100 34.26950100 527.75201000 -0.33535501 0.58223200 -0.74063700 1.905766e-42
57.75830100 34.21760200 526.76398000 -0.36207500 0.58750302 -0.72369999 1.905766e-42
59.45539900 34.71690000 526.43103000 -0.38405401 0.59101999 -0.70936400 1.905766e-42
61.10839800 35.00159800 525.77802000 -0.40669399 0.58879298 -0.69851398 1.905766e-42
62.63850000 35.13660000 524.84003000 -0.40958399 0.59011298 -0.69570601 1.905766e-42
64.11859900 35.17100100 523.81598000 -0.40722701 0.58680999 -0.69987100 1.905766e-42
65.61430400 35.17850100 522.81500000 -0.40075201 0.58100098 -0.70840299 1.905766e-42
67.19450400 35.18259800 521.95300000 -0.39163500 0.57384002 -0.71925700 1.905766e-42
68.78279900 35.12730000 521.10797000 -0.38097900 0.56434298 -0.73237401 1.905766e-42
70.52089700 35.52719900 520.86499000 -0.37316301 0.56124997 -0.73874801 1.905766e-42
72.07009900 35.54740100 519.94897000 -0.36287701 0.54944497 -0.75261599 1.905766e-42
73.74929800 35.72639800 519.32599000 -0.35626999 0.54330802 -0.76018900 1.905766e-42
75.36239600 35.79779800 518.53003000 -0.35228199 0.53943598 -0.76479203 1.905766e-42
76.98819700 35.92179900 517.76801000 -0.34887400 0.53465700 -0.76969397 1.905766e-42
78.71740000 36.40070000 517.62402000 -0.34732401 0.53347200 -0.77121502 1.905766e-42
