# .PCD v0.7 - Point Cloud Data file format
# 3 104 1
# 1 39 1
# 40 69 1
# 70 104 1
VERSION 0.7
FIELDS x y z normal_x normal_y normal_z curvature
SIZE 4 4 4 4 4 4 4
TYPE F F F F F F F
COUNT 1 1 1 1 1 1 1
WIDTH 104
HEIGHT 1
VIEWPOINT 0 0 0 1 0 0 0
POINTS 104
DATA ascii
31.87500000 -1.77186000 382.39899000 0.20157300 -0.97827500 0.04842920 1.905766e-42
32.38550200 -1.65295000 381.83499000 0.21272200 -0.97613502 0.04370650 1.905766e-42
33.75790000 -1.24792000 382.92700000 0.23329200 -0.97084600 0.05507650 1.905766e-42
34.59240000 -0.82308102 384.46500000 0.24766700 -0.96523899 0.08351240 1.905766e-42
35.02330000 -0.43360201 386.16800000 0.25612700 -0.96002197 0.11294500 1.905766e-42
35.07700000 -0.40130201 387.96701000 0.26333100 -0.95421797 0.14186200 1.905766e-42
35.39690000 0.00348461 389.69199000 0.27363399 -0.94634002 0.17194299 1.905766e-42
35.10979800 0.18897000 391.45901000 0.27547100 -0.94017702 0.20045701 1.905766e-42
35.74789800 0.80167103 393.02701000 0.29112601 -0.92868000 0.22978200 1.905766e-42
35.90129900 1.31589000 394.74500000 0.29137301 -0.91936898 0.26431599 1.905766e-42
36.02130100 1.85375000 396.45801000 0.28985101 -0.90983200 0.29697001 1.905766e-42
36.29589800 2.57452990 398.08499000 0.29432100 -0.89783698 0.32751200 1.905766e-42
36.33070000 3.28391000 399.73901000 0.29730001 -0.88523000 0.35774300 1.905766e-42
36.07899900 3.79431010 401.44601000 0.29561299 -0.87386501 0.38596901 1.905766e-42
36.36869800 4.69969990 402.97501000 0.30727699 -0.85597098 0.41580501 1.905766e-42
36.13470100 5.37555980 404.62701000 0.30535099 -0.83997202 0.44856200 1.905766e-42
36.45140100 6.40866990 406.06601000 0.30490401 -0.82602400 0.47404400 1.905766e-42
36.16260100 7.15863990 407.67700000 0.29612800 -0.81263399 0.50193101 1.905766e-42
36.01850100 8.07172970 409.22101000 0.29218200 -0.79669899 0.52905703 1.905766e-42
35.68080100 8.94738010 410.75699000 0.28569800 -0.77825701 0.55918902 1.905766e-42
35.18050000 9.88982010 412.20700000 0.27813300 -0.75888300 0.58884603 1.905766e-42
35.59650000 11.17410000 413.39801000 0.29275200 -0.73143202 0.61587602 1.905766e-42
35.19979900 12.13740000 414.86600000 0.29110900 -0.70914203 0.64216298 1.905766e-42
35.03329800 13.43220000 416.10501000 0.29782501 -0.68336999 0.66656297 1.905766e-42
34.40599800 14.33470000 417.53000000 0.28559801 -0.66741902 0.68773901 1.905766e-42
34.16899900 15.61120000 418.77701000 0.27669799 -0.65047199 0.70733601 1.905766e-42
33.67689900 16.75970100 420.07300000 0.26821300 -0.63138902 0.72760499 1.905766e-42
33.31840100 18.13340000 421.17899000 0.26369801 -0.60975701 0.74743497 1.905766e-42
32.65860000 19.25860000 422.42001000 0.25418299 -0.58700699 0.76864398 1.905766e-42
32.44649900 20.80220000 423.32101000 0.25209901 -0.56112301 0.78840798 1.905766e-42
31.83460000 22.01680000 424.50000000 0.24428700 -0.53859800 0.80637199 1.905766e-42
31.19260000 23.30139900 425.58499000 0.23618400 -0.51763397 0.82235801 1.905766e-42
30.36599900 24.49900100 426.64499000 0.22477800 -0.49999300 0.83635002 1.905766e-42
29.98880000 26.02689900 427.51801000 0.21959400 -0.47949901 0.84962302 1.905766e-42
29.13080000 27.25219900 428.51999000 0.20430000 -0.46202701 0.86301398 1.905766e-42
28.45270000 28.67400000 429.39099000 0.19001700 -0.44207299 0.87662101 1.905766e-42
27.74200100 30.10210000 430.22501000 0.17153300 -0.41927999 0.89150500 1.905766e-42
27.02409900 31.57250000 430.97501000 0.15175401 -0.39652100 0.90539598 1.905766e-42
26.26370000 33.02539800 431.71701000 0.13444100 -0.37591201 0.91685098 1.905766e-42
25.45940000 34.50820200 432.34500000 0.11576500 -0.34911999 0.92989999 1.905766e-42
23.69829900 34.25619900 432.61899000 0.09314460 -0.36017001 0.92822498 1.905766e-42
22.12640000 33.42400000 432.34201000 0.05583730 -0.37599000 0.92493999 1.905766e-42
20.49990100 32.69549900 432.09000000 0.00876604 -0.39126000 0.92023802 1.905766e-42
19.36549900 31.40110000 431.56299000 -0.03635970 -0.41617301 0.90855801 1.905766e-42
18.13400100 30.24250000 430.94601000 -0.05722820 -0.43024099 0.90089798 1.905766e-42
16.61850000 29.44109900 430.39700000 -0.08067910 -0.43842301 0.89513999 1.905766e-42
15.03110000 28.74740000 429.90799000 -0.10399600 -0.44317600 0.89038199 1.905766e-42
13.51300000 27.93390100 429.38501000 -0.12197800 -0.44659799 0.88638097 1.905766e-42
12.07020000 27.10120000 428.70300000 -0.13456900 -0.45034301 0.88265598 1.905766e-42
10.50610000 26.48560000 428.05899000 -0.14887799 -0.45177400 0.87962198 1.905766e-42
9.15725040 25.52070000 427.35999000 -0.15765600 -0.46034601 0.87362802 1.905766e-42
7.47676990 25.22360000 426.78699000 -0.17354900 -0.45918900 0.87122101 1.905766e-42
5.97883990 24.49679900 426.10300000 -0.18439700 -0.46710899 0.86475801 1.905766e-42
4.66422990 23.54990000 425.31900000 -0.19176300 -0.48139200 0.85527098 1.905766e-42
3.23267010 22.83709900 424.49301000 -0.20068800 -0.49326399 0.84641302 1.905766e-42
1.77600000 22.18590000 423.65900000 -0.21861599 -0.50683498 0.83386201 1.905766e-42
0.41852099 21.28949900 422.88901000 -0.23676400 -0.52026999 0.82052499 1.905766e-42
-0.82847297 20.31699900 422.02899000 -0.25318700 -0.53228301 0.80781901 1.905766e-42
-2.27079010 19.77739900 421.09698000 -0.27419901 -0.53441900 0.79950601 1.905766e-42
-3.69588990 19.29070100 420.11099000 -0.27994001 -0.53333002 0.79824400 1.905766e-42
-4.97352980 18.38390000 419.22501000 -0.27946201 -0.54560798 0.79007202 1.905766e-42
-6.56261010 18.31550000 418.38199000 -0.28268600 -0.54740602 0.78767699 1.905766e-42
-7.82288980 17.33760100 417.54800000 -0.28073400 -0.57092202 0.77151603 1.905766e-42
-9.22772030 16.73830000 416.59601000 -0.28290799 -0.59016001 0.75609201 1.905766e-42
-10.81220000 16.57519900 415.75800000 -0.28632501 -0.60177100 0.74558002 1.905766e-42
-12.20550000 15.98310000 414.78400000 -0.29033801 -0.62145698 0.72766399 1.905766e-42
-13.78080000 15.83580000 413.92499000 -0.29842100 -0.63555402 0.71205097 1.905766e-42
-15.39960000 15.84770000 413.13800000 -0.29604301 -0.64637601 0.70324701 1.905766e-42
-16.80640000 15.27920000 412.17001000 -0.27784199 -0.66972297 0.68867600 1.905766e-42
-18.22340000 14.76370000 411.18701000 -0.15999299 -0.73032898 0.66409498 1.905766e-42
-17.17580000 13.55110000 410.36700000 -0.28889400 -0.70358098 0.64924097 1.905766e-42
-15.54840000 12.79570000 410.22198000 -0.29625800 -0.71202701 0.63659197 1.905766e-42
-14.16100000 11.84930000 409.57501000 -0.28845501 -0.74052203 0.60697699 1.905766e-42
-12.55680000 11.04210000 409.45200000 -0.27607399 -0.76348299 0.58384699 1.905766e-42
-11.09800000 10.18710000 408.83499000 -0.26769501 -0.78091401 0.56436902 1.905766e-42
-9.44851970 9.50006010 409.05099000 -0.25708899 -0.78798997 0.55944300 1.905766e-42
-7.78846980 8.86600020 408.76501000 -0.24386799 -0.79920298 0.54936600 1.905766e-42
-6.13587000 8.20331000 408.50101000 -0.22894000 -0.80907702 0.54127699 1.905766e-42
-4.62311980 7.42984010 407.90601000 -0.21483600 -0.82292700 0.52596301 1.905766e-42
-3.18815990 6.62416980 407.17700000 -0.19869100 -0.83907098 0.50643998 1.905766e-42
-1.95073000 5.85500000 406.12000000 -0.18349300 -0.85767001 0.48034599 1.905766e-42
-0.47513899 5.19034000 405.33200000 -0.16421901 -0.87287903 0.45947099 1.905766e-42
1.01603000 4.44109010 404.65701000 -0.14497700 -0.88646603 0.43950000 1.905766e-42
2.51955010 3.85411000 403.86099000 -0.13120100 -0.89578301 0.42468700 1.905766e-42
4.00682020 3.22015000 403.06900000 -0.11846200 -0.90499401 0.40859801 1.905766e-42
5.35515020 2.63138010 402.03201000 -0.10791700 -0.91532302 0.38799199 1.905766e-42
6.57514000 2.31395010 400.74799000 -0.09897430 -0.92586201 0.36466900 1.905766e-42
8.09638980 1.72528990 399.98599000 -0.08952080 -0.93362999 0.34687200 1.905766e-42
9.81713010 1.21208000 399.86099000 -0.07655870 -0.93730199 0.34000599 1.905766e-42
11.31180000 0.84997898 398.92599000 -0.06027420 -0.94504499 0.32133600 1.905766e-42
12.25430000 0.42738500 397.45200000 -0.04874940 -0.95509601 0.29225901 1.905766e-42
13.80130000 0.03125320 396.62100000 -0.03327920 -0.96023798 0.27719101 1.905766e-42
15.34600000 -0.33302000 395.77200000 -0.02564220 -0.96259499 0.26972800 1.905766e-42
16.45859900 -0.63775802 394.39001000 -0.02241660 -0.96659100 0.25534201 1.905766e-42
17.93610000 -0.97394300 393.41901000 -0.01870870 -0.96937501 0.24487200 1.905766e-42
19.19560100 -1.24378000 392.16101000 -0.01672440 -0.97279602 0.23105800 1.905766e-42
20.63290000 -1.47984000 391.10400000 -0.00977552 -0.97782898 0.20917700 1.905766e-42
21.89209900 -1.63036000 389.82599000 0.00034497 -0.98319501 0.18256100 1.905766e-42
23.18330000 -1.80982010 388.58499000 0.01315950 -0.98788500 0.15463100 1.905766e-42
24.72650000 -2.10847000 387.70801000 0.02665640 -0.99143898 0.12782399 1.905766e-42
26.12579900 -2.16106010 386.57700000 0.04550420 -0.99436003 0.09580390 1.905766e-42
27.43680000 -2.20100000 385.34399000 0.07891840 -0.99400902 0.07561780 1.905766e-42
28.71620000 -2.10071990 384.08200000 0.11671700 -0.99113703 0.06344540 1.905766e-42
30.26280000 -1.99777000 383.16699000 0.16167900 -0.98524803 0.05608510 1.905766e-42
