# .PCD v0.7 - Point Cloud Data file format
# 2 121 0
# 1 64 0
# 65 121 0
VERSION 0.7
FIELDS x y z normal_x normal_y normal_z curvature
SIZE 4 4 4 4 4 4 4
TYPE F F F F F F F
COUNT 1 1 1 1 1 1 1
WIDTH 121
HEIGHT 1
VIEWPOINT 0 0 0 1 0 0 0
POINTS 121
DATA ascii
5.88137010 -0.64380503 441.59799000 0.06132680 0.90054703 -0.43041301 1.905766e-42
4.25319000 -0.03925870 442.40601000 0.07774570 0.89182901 -0.44564199 1.905766e-42
2.46477010 0.10841300 442.54599000 0.08804470 0.88325298 -0.46055600 1.905766e-42
1.88743000 0.99182898 444.00400000 0.11025400 0.87661397 -0.46839300 1.905766e-42
1.32876000 1.86062000 445.47800000 0.12650201 0.87218797 -0.47253099 1.905766e-42
0.97956401 2.86469010 446.93100000 0.13811800 0.86976302 -0.47374600 1.905766e-42
0.58716398 3.81824990 448.40601000 0.14994401 0.86738002 -0.47451901 1.905766e-42
0.34539601 4.71684980 449.94699000 0.16570000 0.86379600 -0.47581401 1.905766e-42
-0.06238760 5.53681990 451.49701000 0.18483600 0.85862601 -0.47811800 1.905766e-42
-1.17577000 6.38879010 452.62601000 0.21026200 0.84913802 -0.48451501 1.905766e-42
-1.85666000 7.32257990 454.00601000 0.21544400 0.84863698 -0.48311499 1.905766e-42
-2.10119010 8.29006960 455.50400000 0.21690400 0.84733403 -0.48474401 1.905766e-42
-2.57895990 9.32363030 456.89801000 0.21406300 0.83952099 -0.49938101 1.905766e-42
-2.96638990 10.33000000 458.33899000 0.21473099 0.83036101 -0.51419002 1.905766e-42
-3.18537000 11.34310000 459.81100000 0.20853101 0.82437199 -0.52623802 1.905766e-42
-3.32898000 12.29600000 461.33099000 0.19351400 0.82271397 -0.53450400 1.905766e-42
-3.51107000 13.22450000 462.86200000 0.17655399 0.82253999 -0.54060799 1.905766e-42
-3.59767010 14.28210000 464.31601000 0.16153200 0.82246202 -0.54540199 1.905766e-42
-4.46482990 15.18680000 465.60800000 0.12708101 0.82753903 -0.54683602 1.905766e-42
-4.87998010 16.25370000 466.99701000 0.09208820 0.83167398 -0.54757398 1.905766e-42
-5.14332010 17.23290100 468.48401000 0.06291280 0.82942098 -0.55506998 1.905766e-42
-5.38325980 18.15770000 470.01001000 0.03518990 0.82136899 -0.56931102 1.905766e-42
-5.93944980 19.02840000 471.48401000 -0.00610647 0.81147999 -0.58434802 1.905766e-42
-6.05273010 20.27210000 472.78000000 -0.00480331 0.79303902 -0.60915202 1.905766e-42
-6.40858980 21.49350000 474.05399000 -0.00038684 0.76916498 -0.63905102 1.905766e-42
-7.13321020 22.50639900 475.35300000 -0.00196027 0.73957402 -0.67307198 1.905766e-42
-7.19994020 23.65620000 476.73599000 0.02057790 0.70870399 -0.70520598 1.905766e-42
-7.09784980 24.86930100 478.06201000 0.05047340 0.67653298 -0.73468000 1.905766e-42
-6.74012990 26.28640000 479.11301000 0.09288570 0.65711498 -0.74804503 1.905766e-42
-5.99443010 27.55320000 480.15201000 0.13822900 0.64640999 -0.75036401 1.905766e-42
-4.63929990 28.27310000 481.09299000 0.17581999 0.64885998 -0.74031597 1.905766e-42
-3.36239000 29.01070000 482.12500000 0.20468500 0.64821500 -0.73343098 1.905766e-42
-2.08766010 29.71430000 483.18301000 0.22527400 0.64712799 -0.72833902 1.905766e-42
-1.18642000 30.58670000 484.47400000 0.24216799 0.64007300 -0.72915101 1.905766e-42
0.13161300 31.30290000 485.46899000 0.24706800 0.64038301 -0.72723198 1.905766e-42
1.04011000 32.32280000 486.64200000 0.25223601 0.63210100 -0.73268402 1.905766e-42
2.27410010 33.02610000 487.74701000 0.24991000 0.62894702 -0.73618603 1.905766e-42
2.97838000 34.21580100 488.89999000 0.25302100 0.61794603 -0.74439400 1.905766e-42
4.31608010 34.94319900 489.85999000 0.24513200 0.61463898 -0.74975300 1.905766e-42
5.51647000 35.74580000 490.93500000 0.23644800 0.60868698 -0.75735801 1.905766e-42
6.44904990 36.77980000 492.07501000 0.22804099 0.59979099 -0.76697302 1.905766e-42
7.79796980 37.53480100 492.99701000 0.21167800 0.59369999 -0.77634603 1.905766e-42
8.82989980 38.56890100 494.04901000 0.20322700 0.59748399 -0.77570099 1.905766e-42
9.64249990 39.63880200 495.24701000 0.20294701 0.60913599 -0.76665902 1.905766e-42
10.87480000 40.58420200 496.15701000 0.21159799 0.61581498 -0.75894499 1.905766e-42
12.18300000 41.30609900 497.16000000 0.22446100 0.62083900 -0.75111699 1.905766e-42
13.23520000 42.17839800 498.33200000 0.23293801 0.62885100 -0.74181300 1.905766e-42
14.52590000 42.89139900 499.36401000 0.24032600 0.63429701 -0.73478699 1.905766e-42
16.06160000 43.24630000 500.23300000 0.23734400 0.63722801 -0.73321801 1.905766e-42
16.95599900 44.29610100 501.39001000 0.22671700 0.64917803 -0.72606301 1.905766e-42
17.51100000 45.53780000 502.56900000 0.21141000 0.64976799 -0.73014200 1.905766e-42
18.59970100 46.47930100 503.64999000 0.19948700 0.64322299 -0.73923498 1.905766e-42
19.65090000 47.40029900 504.78400000 0.19101401 0.63612002 -0.74757302 1.905766e-42
21.00980000 48.25190000 505.60199000 0.18809099 0.62767798 -0.75540900 1.905766e-42
22.15119900 49.13589900 506.67700000 0.18656801 0.61952299 -0.76248503 1.905766e-42
23.42009900 49.90000200 507.69901000 0.18883400 0.61099398 -0.76878399 1.905766e-42
24.14830000 51.00000000 508.92401000 0.18828100 0.60277200 -0.77538198 1.905766e-42
25.59009900 51.74649800 509.70099000 0.19445600 0.59632301 -0.77883601 1.905766e-42
26.67110100 52.77270100 510.70999000 0.19882300 0.59279799 -0.78042299 1.905766e-42
27.95089900 53.59439800 511.67300000 0.20396300 0.58877701 -0.78213900 1.905766e-42
28.69230100 54.78839900 512.79797000 0.20346899 0.58665299 -0.78386098 1.905766e-42
30.07760000 55.51170000 513.69098000 0.20735700 0.58207601 -0.78625101 1.905766e-42
31.23679900 56.43909800 514.70898000 0.20631200 0.57907999 -0.78873497 1.905766e-42
32.72150000 57.04270200 515.52802000 0.20720500 0.57489300 -0.79155803 1.905766e-42
34.31219900 57.46970000 516.25403000 0.21871001 0.56737798 -0.79388201 1.905766e-42
33.57720200 56.25280000 515.15002000 0.21605600 0.57246298 -0.79095298 1.905766e-42
33.73429900 54.77130100 514.14001000 0.22072600 0.57670200 -0.78657198 1.905766e-42
32.78799800 53.66640100 513.08002000 0.21335500 0.58373499 -0.78341103 1.905766e-42
32.83850100 52.23170100 511.99399000 0.21080400 0.59322500 -0.77694601 1.905766e-42
33.08610200 50.73410000 511.02701000 0.20099500 0.60794199 -0.76811999 1.905766e-42
32.64799900 49.53609800 509.75699000 0.19359399 0.61981302 -0.76049602 1.905766e-42
32.47620000 48.14709900 508.62500000 0.18696900 0.63408899 -0.75031602 1.905766e-42
32.01039900 46.84410100 507.47400000 0.17739899 0.64486098 -0.74342698 1.905766e-42
32.35950100 45.42010100 506.42999000 0.17256100 0.65456402 -0.73604900 1.905766e-42
32.05699900 44.17839800 505.16199000 0.16440800 0.66142100 -0.73177302 1.905766e-42
31.75200100 42.95790100 503.87500000 0.15705100 0.66758698 -0.72777897 1.905766e-42
31.66589900 41.65829800 502.63199000 0.15095800 0.67392802 -0.72320998 1.905766e-42
31.31170100 40.47829800 501.32001000 0.14753599 0.67802900 -0.72007698 1.905766e-42
31.17370000 39.16330000 500.09900000 0.15554200 0.67886198 -0.71760201 1.905766e-42
30.90370000 37.87110100 498.87500000 0.15738000 0.68147701 -0.71471798 1.905766e-42
30.57650000 36.56980100 497.67499000 0.15707800 0.68483198 -0.71157002 1.905766e-42
30.44660000 35.22269800 496.48801000 0.16151600 0.68701398 -0.70846599 1.905766e-42
29.96710000 34.07199900 495.19000000 0.15712500 0.69094300 -0.70562798 1.905766e-42
29.69669900 32.83150100 493.91400000 0.15881599 0.69316798 -0.70306098 1.905766e-42
29.62260100 31.46380000 492.74600000 0.16646300 0.69320899 -0.70125002 1.905766e-42
29.00499900 30.54890100 491.32401000 0.16158199 0.69638503 -0.69924200 1.905766e-42
28.63990000 29.40329900 489.98499000 0.16446400 0.69751197 -0.69744402 1.905766e-42
27.87500000 28.47730100 488.64401000 0.15401000 0.70278001 -0.69453597 1.905766e-42
27.79060000 27.17050000 487.40900000 0.16134000 0.70413899 -0.69148999 1.905766e-42
27.40390000 25.90290100 486.19101000 0.15734100 0.70953602 -0.68687898 1.905766e-42
26.98140000 24.60420000 485.01901000 0.14864200 0.71718103 -0.68085098 1.905766e-42
26.25560000 23.62900000 483.69101000 0.12791100 0.72631299 -0.67535800 1.905766e-42
25.82920100 22.43170000 482.41699000 0.11002600 0.73729903 -0.66654599 1.905766e-42
25.34870000 21.31469900 481.08899000 0.09080470 0.75443202 -0.65006697 1.905766e-42
24.72160000 20.31590100 479.73001000 0.07474720 0.77072197 -0.63277203 1.905766e-42
24.03610000 19.34359900 478.37900000 0.06404010 0.78455698 -0.61674100 1.905766e-42
23.47260100 18.35020100 476.98700000 0.05907960 0.79716200 -0.60086799 1.905766e-42
22.86730000 17.37190100 475.60300000 0.05984980 0.80777597 -0.58644402 1.905766e-42
22.11410000 16.46780000 474.24100000 0.06727670 0.81671101 -0.57311100 1.905766e-42
21.37920000 15.54500000 472.88101000 0.08006370 0.82472599 -0.55983698 1.905766e-42
20.98220100 14.55710000 471.42999000 0.09159170 0.82664800 -0.55521601 1.905766e-42
20.32519900 13.72210000 469.97699000 0.10002200 0.82582998 -0.55497801 1.905766e-42
19.45319900 12.97810000 468.58899000 0.10541000 0.82611102 -0.55356097 1.905766e-42
18.80780000 12.06010000 467.18201000 0.10953100 0.82609600 -0.55278301 1.905766e-42
18.19529900 11.19420000 465.72800000 0.11225900 0.82639498 -0.55178702 1.905766e-42
17.43330000 10.33550000 464.34100000 0.11216800 0.82747900 -0.55017900 1.905766e-42
16.60020100 9.46183010 463.00601000 0.10985200 0.82899600 -0.54835898 1.905766e-42
15.74310000 8.60912040 461.67200000 0.10982300 0.83504498 -0.53910899 1.905766e-42
15.19670000 7.83847000 460.14001000 0.11641100 0.84227198 -0.52633399 1.905766e-42
14.36870000 7.31928010 458.62900000 0.12091600 0.85061598 -0.51169401 1.905766e-42
13.15400000 6.77791980 457.41599000 0.11822000 0.86111099 -0.49448201 1.905766e-42
13.08660000 5.82626010 455.88901000 0.13548601 0.86580598 -0.48168799 1.905766e-42
12.31640000 5.02349000 454.47400000 0.14102800 0.87499398 -0.46313801 1.905766e-42
11.65060000 4.33343980 452.95099000 0.14704300 0.88334799 -0.44505700 1.905766e-42
11.02930000 3.82096000 451.34100000 0.15131100 0.88206202 -0.44617501 1.905766e-42
10.43680000 3.02123000 449.84100000 0.15532000 0.88065600 -0.44757199 1.905766e-42
9.52536010 2.33071990 448.45099000 0.14272100 0.88419700 -0.44477600 1.905766e-42
8.82349010 1.67100000 446.93100000 0.13508300 0.88597500 -0.44362301 1.905766e-42
8.64136030 1.00962000 445.26700000 0.14991701 0.88198298 -0.44679999 1.905766e-42
7.48677020 0.65738100 443.93100000 0.11060800 0.89150900 -0.43929201 1.905766e-42
7.45375010 -0.27990600 442.39499000 0.13081400 0.88764101 -0.44156700 1.905766e-42
