# .PCD v0.7 - Point Cloud Data file format
# 2 123 0
# 1 65 0
# 66 123 0
VERSION 0.7
FIELDS x y z normal_x normal_y normal_z curvature
SIZE 4 4 4 4 4 4 4
TYPE F F F F F F F
COUNT 1 1 1 1 1 1 1
WIDTH 123
HEIGHT 1
VIEWPOINT 0 0 0 1 0 0 0
POINTS 123
DATA ascii
32.15810000 51.53089900 520.50098000 -0.18483900 -0.59168601 0.78469199 1.905766e-42
31.70610000 53.59019900 522.17297000 -0.21305600 -0.57588297 0.78928202 1.905766e-42
30.39800100 52.87139900 521.16699000 -0.21708900 -0.57222098 0.79084498 1.905766e-42
29.12509900 52.07479900 520.17401000 -0.21201500 -0.57290602 0.79172498 1.905766e-42
28.23180000 50.90100100 519.14301000 -0.20849800 -0.57356101 0.79218400 1.905766e-42
27.29920000 49.76670100 518.10199000 -0.20516400 -0.57393497 0.79278398 1.905766e-42
26.43240000 48.58620100 517.05499000 -0.20202699 -0.57418102 0.79341102 1.905766e-42
24.92700000 48.01219900 516.25299000 -0.20101400 -0.57235599 0.79498500 1.905766e-42
23.83180000 47.02690100 515.21802000 -0.19978800 -0.57102400 0.79625100 1.905766e-42
22.49430100 46.24010100 514.30603000 -0.20356800 -0.56764698 0.79770702 1.905766e-42
21.71320000 45.02800000 513.22900000 -0.20590900 -0.57338500 0.79298902 1.905766e-42
20.39480000 44.19559900 512.32898000 -0.21752900 -0.57298499 0.79017001 1.905766e-42
19.24500100 43.21220000 511.35400000 -0.22630800 -0.57383299 0.78708398 1.905766e-42
18.20400000 42.20980100 510.28101000 -0.23245600 -0.57535499 0.78417498 1.905766e-42
16.83540000 41.52870200 509.33099000 -0.24457900 -0.57112998 0.78357601 1.905766e-42
15.76150000 40.54399900 508.27399000 -0.24724101 -0.57148701 0.78248000 1.905766e-42
14.41750000 39.95529900 507.23099000 -0.24520500 -0.57015800 0.78408802 1.905766e-42
13.61200000 38.70520000 506.21701000 -0.23728700 -0.57697302 0.78153503 1.905766e-42
12.38170000 37.84780100 505.22198000 -0.23679601 -0.58170199 0.77817100 1.905766e-42
11.27350000 36.87170000 504.19299000 -0.23941401 -0.58688903 0.77346098 1.905766e-42
10.02260000 36.08789800 503.16199000 -0.24713200 -0.58903003 0.76939601 1.905766e-42
8.84996990 35.22110000 502.10699000 -0.25455901 -0.59146202 0.76509702 1.905766e-42
7.62283990 34.41830100 501.06299000 -0.26215199 -0.59245801 0.76175398 1.905766e-42
6.46776010 33.48880000 500.04300000 -0.25479400 -0.60021299 0.75817198 1.905766e-42
5.40879010 32.56499900 498.91800000 -0.24805200 -0.60714298 0.75488299 1.905766e-42
4.30060010 31.71740000 497.78101000 -0.24334399 -0.61614197 0.74910098 1.905766e-42
3.44348000 30.68740100 496.57901000 -0.24255601 -0.62761098 0.73977798 1.905766e-42
2.20075010 29.94580100 495.50800000 -0.24488400 -0.63584900 0.73193502 1.905766e-42
1.03692000 29.08289900 494.44000000 -0.24994200 -0.64380598 0.72321701 1.905766e-42
-0.29594001 28.51370000 493.37299000 -0.25836301 -0.64969802 0.71494198 1.905766e-42
-1.33203010 27.55820100 492.25299000 -0.27451399 -0.65278202 0.70605803 1.905766e-42
-2.57380010 26.98350000 491.08401000 -0.29411599 -0.65285802 0.69804901 1.905766e-42
-3.73815990 26.35950100 489.86099000 -0.30767700 -0.65506500 0.69009000 1.905766e-42
-4.78614000 25.53840100 488.64999000 -0.31492901 -0.65688002 0.68507499 1.905766e-42
-5.74613000 24.62410000 487.43201000 -0.31951201 -0.65944201 0.68047702 1.905766e-42
-6.89507010 24.04870000 486.17200000 -0.32582799 -0.66056103 0.67638397 1.905766e-42
-7.66590980 22.96690000 484.95700000 -0.32784599 -0.66486901 0.67116803 1.905766e-42
-8.57779030 22.05999900 483.69699000 -0.33169100 -0.66818702 0.66596401 1.905766e-42
-8.68365960 20.81500100 482.40201000 -0.32972699 -0.67474598 0.66030198 1.905766e-42
-9.26227000 20.01160000 480.89899000 -0.33267900 -0.67860502 0.65484297 1.905766e-42
-9.41864970 18.91540000 479.47900000 -0.32967600 -0.68544000 0.64921999 1.905766e-42
-9.31958960 17.50790000 478.36200000 -0.32162499 -0.69564402 0.64236802 1.905766e-42
-8.87598990 16.12830000 477.29401000 -0.30860299 -0.70863098 0.63451302 1.905766e-42
-8.81768040 15.16900000 475.77200000 -0.30059499 -0.71910203 0.62652600 1.905766e-42
-8.12763980 13.80840000 474.81699000 -0.28091401 -0.73338801 0.61905497 1.905766e-42
-7.15997980 12.63300000 473.85699000 -0.27124801 -0.74189901 0.61319703 1.905766e-42
-7.25876000 11.47360000 472.48300000 -0.26873800 -0.74851602 0.60622102 1.905766e-42
-7.10022020 10.30730000 471.12100000 -0.26415101 -0.75585997 0.59908301 1.905766e-42
-6.77881000 9.13879010 469.79001000 -0.25851199 -0.76511800 0.58971697 1.905766e-42
-6.77151010 8.04310990 468.36200000 -0.25440401 -0.77449000 0.57917500 1.905766e-42
-6.32573990 6.96432020 466.99200000 -0.24700999 -0.78546602 0.56747597 1.905766e-42
-5.72952990 5.85266020 465.70801000 -0.23787300 -0.79735601 0.55465299 1.905766e-42
-5.41626980 4.90662000 464.20901000 -0.22977600 -0.80911702 0.54086298 1.905766e-42
-4.57359980 3.84790990 463.02200000 -0.21860100 -0.82160503 0.52647698 1.905766e-42
-3.96620990 2.81069990 461.68201000 -0.21073900 -0.83240098 0.51253998 1.905766e-42
-3.31069990 1.84457000 460.31201000 -0.20503300 -0.84131300 0.50015402 1.905766e-42
-2.43270990 0.84624398 459.09900000 -0.20081501 -0.84776098 0.49089199 1.905766e-42
-1.85520990 -0.12878899 457.70001000 -0.19276799 -0.85313803 0.48476401 1.905766e-42
-1.31718000 -1.05160000 456.25201000 -0.18267000 -0.85715199 0.48158199 1.905766e-42
-0.89221299 -1.94625000 454.74899000 -0.17364700 -0.86143500 0.47725901 1.905766e-42
-0.33047700 -2.88219000 453.31699000 -0.16377699 -0.86631799 0.47187901 1.905766e-42
-0.09543560 -3.63628010 451.70001000 -0.15552700 -0.87091303 0.46617901 1.905766e-42
0.54407901 -4.41391990 450.20801000 -0.14230999 -0.87730497 0.45835000 1.905766e-42
1.32446000 -5.45255990 448.96201000 -0.12730800 -0.88428402 0.44926000 1.905766e-42
1.20584000 -6.21710010 447.33701000 -0.11930600 -0.88868397 0.44272700 1.905766e-42
1.54011000 -6.98832990 445.74500000 -0.10766400 -0.89425898 0.43440601 1.905766e-42
3.23213010 -7.01274010 446.35901000 -0.10141400 -0.89689302 0.43046200 1.905766e-42
4.42115020 -6.51898000 447.61700000 -0.10025300 -0.89637297 0.43181500 1.905766e-42
5.69219020 -5.99733020 448.77899000 -0.09729550 -0.89620697 0.43283600 1.905766e-42
6.53352020 -5.41905020 450.26199000 -0.09829630 -0.89387602 0.43740499 1.905766e-42
7.65102010 -4.89952990 451.57401000 -0.10044600 -0.89148802 0.44176799 1.905766e-42
8.37481980 -4.23511980 453.08200000 -0.10264300 -0.88791198 0.44841599 1.905766e-42
9.18836020 -3.60416010 454.55899000 -0.10361900 -0.88428098 0.45531201 1.905766e-42
10.25900000 -3.05906010 455.89899000 -0.10282500 -0.88076597 0.46225300 1.905766e-42
11.02340000 -2.36084010 457.37100000 -0.10006500 -0.87632501 0.47121400 1.905766e-42
11.89370000 -1.70845000 458.80600000 -0.09587620 -0.87137997 0.48115000 1.905766e-42
12.61840000 -0.90204901 460.24200000 -0.09132330 -0.86676103 0.49029100 1.905766e-42
13.41730000 -0.17279100 461.68100000 -0.08620340 -0.86264902 0.49840200 1.905766e-42
14.46540000 0.54721099 462.95499000 -0.07971730 -0.85935497 0.50512898 1.905766e-42
15.20760000 1.30479000 464.41000000 -0.07550800 -0.85584497 0.51169097 1.905766e-42
15.96200000 2.07239010 465.85199000 -0.07232250 -0.85255098 0.51761597 1.905766e-42
16.46500000 2.89262010 467.37399000 -0.07156420 -0.84835899 0.52456200 1.905766e-42
17.32959900 3.69511010 468.73300000 -0.06766200 -0.84489000 0.53064400 1.905766e-42
18.19059900 4.53519010 470.07199000 -0.06337690 -0.84152299 0.53649002 1.905766e-42
18.54630100 5.44992020 471.58099000 -0.06281140 -0.83730501 0.54311597 1.905766e-42
19.62280100 6.30455020 472.74301000 -0.05677650 -0.83476800 0.54766601 1.905766e-42
20.09919900 7.12051010 474.27499000 -0.05583650 -0.83092099 0.55358100 1.905766e-42
20.44850000 8.10863020 475.73901000 -0.05665200 -0.82670498 0.55977601 1.905766e-42
21.09840000 9.02587030 477.14499000 -0.05422930 -0.82126802 0.56795901 1.905766e-42
21.79750100 9.91932960 478.54199000 -0.05089350 -0.81497198 0.57726097 1.905766e-42
22.43520000 10.85000000 479.94501000 -0.04827020 -0.80840999 0.58663702 1.905766e-42
23.16519900 11.88180000 481.22601000 -0.04505640 -0.80203903 0.59556901 1.905766e-42
23.36580100 12.90400000 482.69400000 -0.04659680 -0.79420298 0.60586399 1.905766e-42
24.00880100 13.89920000 484.04901000 -0.04445840 -0.78736800 0.61487800 1.905766e-42
24.57340000 14.94000000 485.40500000 -0.04321590 -0.78019601 0.62404102 1.905766e-42
25.06300000 15.96410000 486.80200000 -0.04302710 -0.77289099 0.63307899 1.905766e-42
25.06259900 17.10120000 488.19699000 -0.04879340 -0.76407099 0.64328402 1.905766e-42
25.84720000 18.13870000 489.44199000 -0.04598380 -0.75772703 0.65095001 1.905766e-42
26.60090100 19.29880000 490.59299000 -0.04372880 -0.75091797 0.65894598 1.905766e-42
26.94000100 20.43660000 491.94601000 -0.04606350 -0.74200702 0.66880798 1.905766e-42
27.43980000 21.63349900 493.19400000 -0.04647410 -0.73340797 0.67819899 1.905766e-42
27.69330000 22.79130000 494.54901000 -0.04893150 -0.72376198 0.68831301 1.905766e-42
28.01440000 23.94450000 495.89301000 -0.05015290 -0.71483302 0.69749397 1.905766e-42
28.47909900 25.20159900 497.09500000 -0.05197330 -0.71115100 0.70111603 1.905766e-42
28.78350100 26.41180000 498.39200000 -0.05485700 -0.70691401 0.70516902 1.905766e-42
28.54999900 27.65300000 499.67401000 -0.06091000 -0.70166898 0.70989501 1.905766e-42
29.50950100 28.76050000 500.72000000 -0.05802710 -0.69934303 0.71242702 1.905766e-42
29.40239900 29.99320000 502.02701000 -0.06103740 -0.69484502 0.71656501 1.905766e-42
29.69330000 31.26160000 503.27100000 -0.06085910 -0.69127601 0.72002298 1.905766e-42
30.18849900 32.52780200 504.45001000 -0.05898950 -0.68800902 0.72330099 1.905766e-42
30.34240000 33.78390100 505.73001000 -0.05554550 -0.68343401 0.72789598 1.905766e-42
30.49910000 35.09550100 506.95300000 -0.05813530 -0.67655098 0.73409700 1.905766e-42
31.11520000 36.41109800 508.01599000 -0.05418770 -0.67069298 0.73975301 1.905766e-42
30.97950000 37.67290100 509.29300000 -0.06954580 -0.65901899 0.74890399 1.905766e-42
31.39749900 38.94860100 510.49200000 -0.07120060 -0.65037298 0.75627100 1.905766e-42
31.87590000 40.38550200 511.46500000 -0.07157740 -0.64166701 0.76363599 1.905766e-42
31.71600000 41.69720100 512.68701000 -0.08399740 -0.62927997 0.77262598 1.905766e-42
31.99040000 43.08990100 513.79401000 -0.09435730 -0.62660903 0.77359998 1.905766e-42
32.09019900 44.43759900 514.98297000 -0.10711200 -0.62404400 0.77401298 1.905766e-42
32.13140100 45.83089800 516.12097000 -0.11891600 -0.62081802 0.77488297 1.905766e-42
32.06409800 47.21360000 517.27197000 -0.13157400 -0.61613798 0.77657098 1.905766e-42
31.99329900 48.61710000 518.39697000 -0.15120800 -0.60781598 0.77954799 1.905766e-42
32.03810100 50.04620000 519.48999000 -0.16881700 -0.59964103 0.78226101 1.905766e-42
