# .PCD v0.7 - Point Cloud Data file format
# 3 170 1
# 1 77 0
# 78 150 1
# 151 170 0
VERSION 0.7
FIELDS x y z normal_x normal_y normal_z curvature
SIZE 4 4 4 4 4 4 4
TYPE F F F F F F F
COUNT 1 1 1 1 1 1 1
WIDTH 170
HEIGHT 1
VIEWPOINT 0 0 0 1 0 0 0
POINTS 170
DATA ascii
-15.84850000 -16.81310100 412.19601000 -0.11305700 -0.08793470 0.98969001 1.905766e-42
-10.96160000 -15.79070000 412.78400000 -0.08586340 -0.02181280 0.99606800 1.905766e-42
-10.46730000 -14.05990000 412.79300000 -0.05474760 -0.00123576 0.99849898 1.905766e-42
-9.70841980 -12.42830000 412.83499000 -0.01177430 0.02106990 0.99970901 1.905766e-42
-9.26587960 -10.68360000 412.85599000 0.01716830 0.03767760 0.99914199 1.905766e-42
-8.65421010 -8.99143030 412.90399000 0.04186840 0.05505940 0.99760503 1.905766e-42
-8.78637980 -7.22341010 412.59299000 0.05672300 0.06669540 0.99615997 1.905766e-42
-8.00459000 -5.61132000 412.42001000 0.07596340 0.08543310 0.99344403 1.905766e-42
-7.01572990 -4.10902980 412.34799000 0.09255990 0.10471400 0.99018598 1.905766e-42
-6.62246990 -2.37712000 412.05499000 0.10654800 0.12307100 0.98666197 1.905766e-42
-5.92989020 -0.76935798 411.63599000 0.12107200 0.14428200 0.98210198 1.905766e-42
-5.61028000 0.98743200 411.40900000 0.13537800 0.15524200 0.97855598 1.905766e-42
-4.98714020 2.62189010 410.98401000 0.14849301 0.16476899 0.97509003 1.905766e-42
-4.80156990 4.39365010 410.72699000 0.15620901 0.17080000 0.97284400 1.905766e-42
-4.78023000 6.14473010 410.31000000 0.15944099 0.17594799 0.97140098 1.905766e-42
-4.79090020 7.90319010 409.92599000 0.15901799 0.18087400 0.97056597 1.905766e-42
-4.23913000 9.57851980 409.56699000 0.15755799 0.18367501 0.97027802 1.905766e-42
-3.86289000 11.28930000 409.15302000 0.15083700 0.18520400 0.97105497 1.905766e-42
-3.87928010 13.06100000 408.83499000 0.13959900 0.19014400 0.97178102 1.905766e-42
-3.49997000 14.75200000 408.34900000 0.12810600 0.19812900 0.97176802 1.905766e-42
-3.21639990 16.51210000 408.10101000 0.11671200 0.20714401 0.97132403 1.905766e-42
-3.13070010 18.28160100 407.78201000 0.10640800 0.21731099 0.97028500 1.905766e-42
-3.11588000 20.05080000 407.45099000 0.09726600 0.22765601 0.96887100 1.905766e-42
-3.17127990 21.80150000 407.03601000 0.08938960 0.23803800 0.96713400 1.905766e-42
-3.18487000 23.54240000 406.57901000 0.08196920 0.24799000 0.96528900 1.905766e-42
-2.57814000 25.09460100 405.89899000 0.06995880 0.25479299 0.96446198 1.905766e-42
-2.38818000 26.79350100 405.33499000 0.06129280 0.26373300 0.96264601 1.905766e-42
-2.38877010 28.51890000 404.82199000 0.05566070 0.27638900 0.95943302 1.905766e-42
-2.31850000 30.26880100 404.40601000 0.05121290 0.28915900 0.95591003 1.905766e-42
-2.31715990 31.98010100 403.84799000 0.04920660 0.30191201 0.95206499 1.905766e-42
-2.33301000 33.68130100 403.26001000 0.04923580 0.31443700 0.94800103 1.905766e-42
-2.35216000 35.40599800 402.74600000 0.05119120 0.32663900 0.94376200 1.905766e-42
-2.35861990 37.09600100 402.12601000 0.05480640 0.33852601 0.93935901 1.905766e-42
-2.27034000 38.78760100 401.51700000 0.05934110 0.35035500 0.93473500 1.905766e-42
-2.25957990 40.48870100 400.92899000 0.06638690 0.36160001 0.92996699 1.905766e-42
-2.36775990 42.18899900 400.34799000 0.07591990 0.37130001 0.92540401 1.905766e-42
-2.34711000 43.88130200 399.73499000 0.08482120 0.38015699 0.92102402 1.905766e-42
-2.39047000 45.52389900 399.00000000 0.09405760 0.38880301 0.91650701 1.905766e-42
-2.39547990 47.17430100 398.28201000 0.10303200 0.39767200 0.91172498 1.905766e-42
-2.95036010 48.76620100 397.65100000 0.11361300 0.40361401 0.90784800 1.905766e-42
-3.12649990 50.39690000 396.90900000 0.12227000 0.41184500 0.90301400 1.905766e-42
-3.19054010 51.99779900 396.08899000 0.13026699 0.42069599 0.89780003 1.905766e-42
-3.00919010 53.62730000 395.34601000 0.13792600 0.43048301 0.89199799 1.905766e-42
-3.08219000 55.25180100 394.57401000 0.14568301 0.43933800 0.88643003 1.905766e-42
-3.12715010 56.79900000 393.65601000 0.15260500 0.44323799 0.88331801 1.905766e-42
-3.55106000 58.39720200 392.94400000 0.15575300 0.44578701 0.88148499 1.905766e-42
-3.91711000 60.03200100 392.28601000 0.15615501 0.44995201 0.87929398 1.905766e-42
-3.83506990 61.64220000 391.48599000 0.15655901 0.45518100 0.87652701 1.905766e-42
-3.98353000 63.26160000 390.71399000 0.15369999 0.46120000 0.87388301 1.905766e-42
-4.63448000 64.77950300 389.99799000 0.14541601 0.46900800 0.87114102 1.905766e-42
-4.78636980 66.36589800 389.16101000 0.13848101 0.47694400 0.86795598 1.905766e-42
-4.71087980 67.90440400 388.23001000 0.13189800 0.48447701 0.86480302 1.905766e-42
-4.84100010 69.40930200 387.25101000 0.12261600 0.49996200 0.85732299 1.905766e-42
-5.28193000 70.95259900 386.43600000 0.10919700 0.51958799 0.84741002 1.905766e-42
-6.15382000 72.34880100 385.70801000 0.09115010 0.54073697 0.83623803 1.905766e-42
-6.32029010 73.76650200 384.61099000 0.07822630 0.56064802 0.82435101 1.905766e-42
-7.14602990 75.21460000 383.93301000 0.05847640 0.58251202 0.81071597 1.905766e-42
-7.83433010 76.55539700 382.94800000 0.03889650 0.60425401 0.79584199 1.905766e-42
-8.51274970 77.88369800 381.94101000 0.01664360 0.62564898 0.77992702 1.905766e-42
-9.67938040 78.94210100 381.07001000 -0.01355500 0.64548701 0.76365101 1.905766e-42
-10.33360000 80.20110300 379.96201000 -0.03511580 0.66509598 0.74593103 1.905766e-42
-11.51770000 81.14980300 378.99399000 -0.06511200 0.67688900 0.73320001 1.905766e-42
-12.22370000 82.23549700 377.74301000 -0.08968420 0.68123102 0.72655499 1.905766e-42
-13.74830000 82.89779700 377.05301000 -0.12027500 0.68810099 0.71557701 1.905766e-42
-14.94370000 83.76470200 376.02399000 -0.13792700 0.69312501 0.70749801 1.905766e-42
-15.76230000 84.72530400 374.73999000 -0.14586399 0.69680399 0.70227301 1.905766e-42
-17.19459900 85.35620100 373.85101000 -0.15053400 0.70187902 0.69620800 1.905766e-42
-18.29130000 86.21990200 372.71500000 -0.15577599 0.70654398 0.69031101 1.905766e-42
-19.51450000 87.05059800 371.68799000 -0.16042200 0.71211499 0.68348801 1.905766e-42
-20.93950100 87.58979800 370.73001000 -0.16810399 0.71876103 0.67462897 1.905766e-42
-22.35800000 88.13279700 369.76401000 -0.19265500 0.72652000 0.65958601 1.905766e-42
-23.31940100 89.00450100 368.51599000 -0.21655600 0.73545003 0.64204103 1.905766e-42
-24.64020000 89.59700000 367.44699000 -0.24308699 0.74590999 0.62010199 1.905766e-42
-25.94010000 90.02290300 366.27701000 -0.27012500 0.75729603 0.59458798 1.905766e-42
-27.28360000 90.41239900 365.14401000 -0.29717401 0.76934397 0.56550699 1.905766e-42
-28.49290100 90.84140000 363.88101000 -0.32361299 0.78042102 0.53499299 1.905766e-42
-29.57799900 91.35469800 362.54001000 -0.34437600 0.78975099 0.50764000 1.905766e-42
-31.17130100 90.99870300 361.78201000 -0.35713199 0.79432303 0.49143401 1.905766e-42
-32.49679900 89.96130400 362.42001000 -0.36578700 0.78824300 0.49484599 1.905766e-42
-34.11460100 89.17269900 362.39600000 -0.38674900 0.78011602 0.49177599 1.905766e-42
-35.72050100 88.35949700 362.39200000 -0.39059401 0.77392101 0.49847999 1.905766e-42
-37.34240000 87.57910200 362.37900000 -0.39274201 0.76723802 0.50704998 1.905766e-42
-38.58829900 86.54419700 363.16501000 -0.40080699 0.75749999 0.51531398 1.905766e-42
-39.79359800 85.38510100 363.83099000 -0.41086400 0.74715501 0.52244598 1.905766e-42
-40.82939900 84.22580000 364.73801000 -0.42299199 0.73648298 0.52789301 1.905766e-42
-41.92310000 83.00140400 365.47601000 -0.43705100 0.72498900 0.53233200 1.905766e-42
-42.97850000 81.74659700 366.21899000 -0.44598901 0.71494102 0.53847301 1.905766e-42
-43.94689900 80.43029800 366.97400000 -0.45221201 0.70616800 0.54482102 1.905766e-42
-44.82970000 79.12149800 367.83801000 -0.45796701 0.69786102 0.55068803 1.905766e-42
-45.82270100 77.80909700 368.56699000 -0.46261501 0.68964702 0.55711198 1.905766e-42
-46.72510100 76.59559600 369.54401000 -0.46814501 0.67797798 0.56673300 1.905766e-42
-47.61679800 75.16819800 370.18201000 -0.47358799 0.66543800 0.57698101 1.905766e-42
-48.51279800 73.80690000 370.94601000 -0.48018500 0.65239400 0.58634800 1.905766e-42
-49.30260100 72.52809900 371.93600000 -0.48811200 0.63900602 0.59448898 1.905766e-42
-50.08440000 71.18019900 372.83701000 -0.49724999 0.62521499 0.60153902 1.905766e-42
-50.65370200 69.81199600 373.85901000 -0.50704402 0.61157799 0.60735297 1.905766e-42
-51.18539800 68.43470000 374.88901000 -0.51744801 0.59791702 0.61216301 1.905766e-42
-51.93249900 67.00060300 375.67999000 -0.51668400 0.58670902 0.62354600 1.905766e-42
-52.94039900 65.53050200 375.92999000 -0.50557399 0.57782900 0.64070898 1.905766e-42
-53.71410000 64.04160300 376.58200000 -0.50487202 0.56531203 0.65232402 1.905766e-42
-54.33700200 62.53160100 377.33801000 -0.50786901 0.55198902 0.66134501 1.905766e-42
-54.97219800 60.99539900 378.02802000 -0.51094002 0.53864098 0.66992903 1.905766e-42
-55.37710200 59.61769900 379.11401000 -0.51887000 0.52545100 0.67429602 1.905766e-42
-56.03509900 57.94310000 379.16699000 -0.51920402 0.51297700 0.68357998 1.905766e-42
-56.06990100 56.91790000 380.64600000 -0.53047401 0.50224000 0.68290001 1.905766e-42
-56.77980000 55.39419900 381.28900000 -0.53486300 0.48903200 0.68903601 1.905766e-42
-57.20169800 53.81200000 382.03699000 -0.54178298 0.47596601 0.69276702 1.905766e-42
-57.97209900 52.21279900 382.33499000 -0.54803300 0.46045601 0.69831198 1.905766e-42
-58.41360100 50.58810000 382.97198000 -0.55744100 0.44180700 0.70289803 1.905766e-42
-58.78559900 49.00260200 383.73901000 -0.56697100 0.42386699 0.70631498 1.905766e-42
-59.18479900 47.33100100 384.27399000 -0.57653600 0.40579200 0.70918202 1.905766e-42
-59.51100200 45.61550100 384.70999000 -0.58597702 0.38824299 0.71126598 1.905766e-42
-59.71369900 44.01210000 385.50299000 -0.59378099 0.37257901 0.71316898 1.905766e-42
-59.99720000 42.42789800 386.30899000 -0.60082197 0.35742101 0.71502697 1.905766e-42
-60.06580000 40.84249900 387.15900000 -0.60565501 0.34380201 0.71762300 1.905766e-42
-60.54840100 39.10860100 387.17999000 -0.61442798 0.32868099 0.71724898 1.905766e-42
-60.70819900 37.49039800 387.95200000 -0.61826003 0.31532800 0.71994698 1.905766e-42
-60.78020100 35.84220100 388.67200000 -0.62088799 0.30212900 0.72333699 1.905766e-42
-60.99670000 34.05830000 388.77499000 -0.62618899 0.28837901 0.72437900 1.905766e-42
-60.88349900 32.62360000 389.85599000 -0.62365699 0.27711701 0.73092997 1.905766e-42
-61.04660000 30.90300000 390.35901000 -0.62467599 0.26406401 0.73488098 1.905766e-42
-61.05099900 29.22600000 391.01300000 -0.62281001 0.25139499 0.74088299 1.905766e-42
-61.19020100 27.43610000 391.14200000 -0.62291002 0.23924100 0.74481398 1.905766e-42
-61.16310100 25.69750000 391.60800000 -0.61919302 0.22680500 0.75177097 1.905766e-42
-61.00740100 24.14300000 392.50201000 -0.61221600 0.21406101 0.76116300 1.905766e-42
-60.83020000 22.51230000 393.24301000 -0.60518199 0.20283701 0.76981300 1.905766e-42
-60.84930000 20.73370000 393.51901000 -0.59941798 0.19228700 0.77699703 1.905766e-42
-60.57790000 19.10470000 394.23499000 -0.59097201 0.17944799 0.78648001 1.905766e-42
-60.54230100 17.30780000 394.33499000 -0.58367902 0.16834299 0.79434198 1.905766e-42
-60.31679900 15.65010000 394.99899000 -0.57490700 0.15426400 0.80354500 1.905766e-42
-60.07690000 13.94930000 395.53699000 -0.56641799 0.13973100 0.81218600 1.905766e-42
-59.85279800 12.19710000 395.88300000 -0.55811399 0.12517001 0.82026899 1.905766e-42
-59.25870100 10.70810000 396.70099000 -0.55277503 0.10833800 0.82625800 1.905766e-42
-58.58750200 9.18546960 397.38800000 -0.54949999 0.09423960 0.83016199 1.905766e-42
-58.55440100 7.39495990 397.56900000 -0.54224598 0.08323210 0.83608699 1.905766e-42
-58.59199900 5.59536980 397.56100000 -0.53317499 0.07260970 0.84288400 1.905766e-42
-57.79900000 4.16663980 398.31601000 -0.53362298 0.05650590 0.84383202 1.905766e-42
-57.62139900 2.38258000 398.47601000 -0.52644002 0.04251450 0.84914899 1.905766e-42
-56.89790000 0.84532201 399.07001000 -0.52742898 0.02507590 0.84922898 1.905766e-42
-56.82249800 -0.95229399 399.01599000 -0.51827300 0.01041670 0.85515100 1.905766e-42
-56.10360000 -2.51386000 399.54999000 -0.52049500 -0.00850320 0.85382199 1.905766e-42
-55.36840100 -4.08699990 400.02399000 -0.52370203 -0.02709010 0.85147101 1.905766e-42
-54.69990200 -5.71647980 400.39499000 -0.52609903 -0.04358720 0.84930599 1.905766e-42
-54.51829900 -7.50075010 400.24200000 -0.51779503 -0.05581150 0.85368299 1.905766e-42
-53.76699800 -9.07827000 400.67401000 -0.52181101 -0.07050720 0.85014200 1.905766e-42
-53.24980200 -10.79900000 400.78201000 -0.51846898 -0.08316720 0.85104197 1.905766e-42
-52.70859900 -12.51570000 400.77499000 -0.51260000 -0.09505070 0.85334998 1.905766e-42
-51.66809800 -13.84450000 401.40100000 -0.50070298 -0.10883900 0.85874897 1.905766e-42
-51.30690000 -15.59090000 401.15701000 -0.49054700 -0.11871100 0.86329103 1.905766e-42
-50.52470000 -17.17740100 401.48999000 -0.48132101 -0.13164200 0.86660302 1.905766e-42
-49.21939800 -18.20010000 402.19000000 -0.47758299 -0.14475299 0.86658001 1.905766e-42
-47.61740100 -18.39800100 402.98700000 -0.47795001 -0.15171400 0.86518598 1.905766e-42
-46.02830100 -18.46810000 403.82901000 -0.47438499 -0.15441300 0.86667001 1.905766e-42
-44.72010000 -17.55069900 404.65799000 -0.44826999 -0.14595200 0.88190299 1.905766e-42
-43.14149900 -17.96080000 405.42001000 -0.42007801 -0.14531501 0.89577800 1.905766e-42
-41.49039800 -17.90399900 406.13400000 -0.39207599 -0.13739200 0.90961498 1.905766e-42
-39.84439800 -18.18050000 406.80801000 -0.36807001 -0.12868500 0.92084998 1.905766e-42
-38.17729900 -18.18689900 407.48700000 -0.33868000 -0.11563500 0.93376899 1.905766e-42
-36.51359900 -18.01829900 408.15302000 -0.30547100 -0.10525700 0.94636601 1.905766e-42
-34.78099800 -17.80559900 408.59201000 -0.27140400 -0.09930130 0.95732898 1.905766e-42
-33.24420200 -16.99830100 409.06799000 -0.24119499 -0.09377400 0.96593499 1.905766e-42
-31.54180000 -17.44990000 409.43900000 -0.21503299 -0.10116800 0.97135299 1.905766e-42
-29.79999900 -17.18919900 409.81100000 -0.20818900 -0.10511900 0.97242302 1.905766e-42
-28.03970000 -17.28739900 410.17401000 -0.20042101 -0.11046000 0.97346300 1.905766e-42
-26.34359900 -16.89040000 410.62701000 -0.19414400 -0.11114100 0.97465700 1.905766e-42
-24.65410000 -16.37920000 410.98001000 -0.18781599 -0.10972500 0.97605598 1.905766e-42
-22.92140000 -16.76720000 411.27499000 -0.17253999 -0.11290100 0.97851098 1.905766e-42
-21.19300100 -16.68880100 411.77200000 -0.15642101 -0.10963600 0.98158699 1.905766e-42
-19.41270100 -16.51310000 411.97101000 -0.13959099 -0.10309500 0.98482800 1.905766e-42
-17.63590000 -16.80080000 411.98401000 -0.12464600 -0.09823330 0.98732603 1.905766e-42
