# .PCD v0.7 - Point Cloud Data file format
# 4 159 0
# 1 80 0
# 81 104 0
# 105 137 0
# 138 159 0
VERSION 0.7
FIELDS x y z normal_x normal_y normal_z curvature
SIZE 4 4 4 4 4 4 4
TYPE F F F F F F F
COUNT 1 1 1 1 1 1 1
WIDTH 159
HEIGHT 1
VIEWPOINT 0 0 0 1 0 0 0
POINTS 159
DATA ascii
77.13760400 40.27370100 476.65100000 0.63362700 -0.29847300 0.71374398 1.905766e-42
76.04769900 41.00719800 477.88199000 0.61618501 -0.28678799 0.73353201 1.905766e-42
74.82900200 41.72129800 478.99701000 0.59905100 -0.27421099 0.75229400 1.905766e-42
73.41970100 41.61899900 480.11301000 0.58126700 -0.26977801 0.76769000 1.905766e-42
72.12190200 42.02500200 481.29199000 0.56382298 -0.25930500 0.78413302 1.905766e-42
70.67489600 41.55649900 482.25500000 0.54622197 -0.26135001 0.79582500 1.905766e-42
69.30539700 42.02940000 483.32300000 0.52642697 -0.25043300 0.81250101 1.905766e-42
67.83350400 42.28179900 484.32800000 0.50350899 -0.24051701 0.82983702 1.905766e-42
66.29579900 42.48640100 485.24100000 0.47848800 -0.23029099 0.84735799 1.905766e-42
64.76010100 42.80080000 486.12500000 0.45193499 -0.21757700 0.86510998 1.905766e-42
63.14210100 42.76430100 486.91299000 0.42428100 -0.21232399 0.88028598 1.905766e-42
61.51829900 42.90480000 487.67700000 0.39741901 -0.20413600 0.89464301 1.905766e-42
59.89199800 43.16199900 488.40399000 0.37186599 -0.19330201 0.90793699 1.905766e-42
58.25260200 43.15560200 489.14801000 0.35286599 -0.20509800 0.91291898 1.905766e-42
56.57389800 43.14519900 489.79700000 0.33386499 -0.21843100 0.91696399 1.905766e-42
54.94089900 43.40959900 490.50699000 0.31427500 -0.22787100 0.92157799 1.905766e-42
53.24700200 43.60670100 491.08301000 0.29160500 -0.23210700 0.92795098 1.905766e-42
51.55390200 43.87469900 491.63199000 0.26664901 -0.23157400 0.93555999 1.905766e-42
49.89049900 44.35319900 492.12601000 0.23564801 -0.22718100 0.94491202 1.905766e-42
48.15340000 44.55049900 492.55499000 0.19460601 -0.22078900 0.95570999 1.905766e-42
46.39040000 44.67950100 492.89401000 0.15396801 -0.21122400 0.96523499 1.905766e-42
44.63150000 44.69240200 493.27600000 0.11582700 -0.20036399 0.97285098 1.905766e-42
42.84220100 44.72510100 493.46899000 0.08062490 -0.18915100 0.97863299 1.905766e-42
41.22930100 45.50820200 493.62900000 0.04764640 -0.17232500 0.98388702 1.905766e-42
40.42639900 45.33990100 493.73599000 0.03568440 -0.16923399 0.98492998 1.905766e-42
38.68809900 45.78749800 493.60199000 0.00851140 -0.15635000 0.98766500 1.905766e-42
36.88819900 45.76770000 493.59500000 -0.03299170 -0.15126801 0.98794198 1.905766e-42
35.86140100 44.29349900 493.48401000 -0.05127710 -0.16551200 0.98487401 1.905766e-42
34.09080100 44.01940200 493.31201000 -0.08917300 -0.16268601 0.98264003 1.905766e-42
32.35549900 43.61859900 493.05099000 -0.12453000 -0.16098601 0.97906899 1.905766e-42
30.59770000 43.32630200 492.79700000 -0.15916400 -0.15705900 0.97467899 1.905766e-42
29.02930100 42.52370100 492.42801000 -0.18607000 -0.16083200 0.96928400 1.905766e-42
27.30820100 42.21440100 492.00101000 -0.21703300 -0.15670900 0.96350402 1.905766e-42
25.59250100 42.00949900 491.49701000 -0.25180200 -0.15186600 0.95578903 1.905766e-42
23.94619900 41.53260000 490.94699000 -0.28480601 -0.15233199 0.94640398 1.905766e-42
22.23480000 41.69929900 490.41501000 -0.32207301 -0.14346001 0.93578202 1.905766e-42
20.60290000 41.81399900 489.66400000 -0.35892701 -0.13664000 0.92330998 1.905766e-42
19.16519900 40.92599900 489.04401000 -0.38780501 -0.14464800 0.91032100 1.905766e-42
17.57410000 40.97430000 488.20300000 -0.42434999 -0.13882799 0.89479297 1.905766e-42
16.01549900 40.54950000 487.40900000 -0.45377800 -0.13859600 0.88027102 1.905766e-42
14.52850000 40.06060000 486.52100000 -0.47600099 -0.13993600 0.86824000 1.905766e-42
13.10090000 39.28379800 485.74701000 -0.49804601 -0.14509600 0.85492498 1.905766e-42
11.62160000 39.27610000 484.72198000 -0.52551597 -0.14343700 0.83860499 1.905766e-42
10.28990000 39.04499800 483.53299000 -0.55300599 -0.14489000 0.82048303 1.905766e-42
8.81480980 38.45480000 482.68701000 -0.57965702 -0.14780600 0.80134398 1.905766e-42
7.56096980 37.64120100 481.68399000 -0.60424298 -0.14982800 0.78258699 1.905766e-42
6.32172010 36.89559900 480.61200000 -0.62204301 -0.14853100 0.76876599 1.905766e-42
4.93451980 36.59560000 479.50500000 -0.63367403 -0.14350100 0.76017398 1.905766e-42
3.68257000 36.08280200 478.31799000 -0.64630002 -0.15079100 0.74803603 1.905766e-42
2.57570000 35.27710000 477.14899000 -0.65894598 -0.16538601 0.73378301 1.905766e-42
1.31280990 35.09470000 475.88000000 -0.67473400 -0.16956900 0.71831799 1.905766e-42
0.20618300 34.36750000 474.66000000 -0.68940800 -0.17996401 0.70166200 1.905766e-42
-0.99521798 33.88230100 473.41101000 -0.70588100 -0.18585600 0.68351299 1.905766e-42
-2.07968000 33.35900100 472.07300000 -0.72263801 -0.19113401 0.66427499 1.905766e-42
-3.20563010 32.92340100 470.73801000 -0.73449802 -0.19639100 0.64957100 1.905766e-42
-4.29945990 32.74770000 469.31900000 -0.74287897 -0.20081800 0.63859499 1.905766e-42
-5.17850020 31.79870000 468.06799000 -0.75046003 -0.21167000 0.62610400 1.905766e-42
-6.09877010 31.15430100 466.66101000 -0.75865799 -0.22419199 0.61169899 1.905766e-42
-6.97743990 30.54280100 465.21399000 -0.76627803 -0.23398200 0.59838903 1.905766e-42
-7.74727010 29.69160100 463.82700000 -0.77281898 -0.24297500 0.58627099 1.905766e-42
-8.55541040 28.81209900 462.48099000 -0.77898097 -0.24939901 0.57531601 1.905766e-42
-9.23383050 27.98550000 461.03299000 -0.78514397 -0.25328299 0.56515199 1.905766e-42
-9.72696970 26.71410000 459.85800000 -0.79000401 -0.26899099 0.55094200 1.905766e-42
-10.23030000 25.59210000 458.54401000 -0.79731899 -0.30295801 0.52201301 1.905766e-42
-10.38460000 24.12859900 457.50699000 -0.79981703 -0.33931500 0.49513400 1.905766e-42
-10.72200000 23.02520000 456.12500000 -0.80392402 -0.36863601 0.46670601 1.905766e-42
-10.72690000 21.71120100 454.89499000 -0.80324203 -0.39917099 0.44211501 1.905766e-42
-10.81320000 20.50440000 453.56299000 -0.80160999 -0.42730901 0.41812599 1.905766e-42
-10.73420000 19.24700000 452.27701000 -0.79625797 -0.46278301 0.38962200 1.905766e-42
-10.61700000 18.11560100 450.88199000 -0.78953201 -0.49789301 0.35880500 1.905766e-42
-9.91582010 16.52360000 450.41901000 -0.77230197 -0.53838700 0.33717901 1.905766e-42
-9.79269980 15.42650000 448.99799000 -0.76086700 -0.57355398 0.30350900 1.905766e-42
-9.40273000 14.44870000 447.53799000 -0.74576700 -0.60924703 0.26953599 1.905766e-42
-8.71774960 13.13080000 446.52100000 -0.72848701 -0.63766098 0.25038999 1.905766e-42
-8.10060020 11.97640000 445.28500000 -0.71258301 -0.66391701 0.22680201 1.905766e-42
-7.56824020 11.01090000 443.86200000 -0.69854099 -0.68736202 0.19893201 1.905766e-42
-6.74455980 9.89536000 442.71500000 -0.68209302 -0.71081197 0.17174400 1.905766e-42
-6.29901980 9.11456970 441.15500000 -0.67224699 -0.72686201 0.14055900 1.905766e-42
-5.56733990 8.16257000 439.81400000 -0.66469502 -0.73625398 0.12692800 1.905766e-42
-4.91057010 7.28288980 438.38800000 -0.65390003 -0.74842900 0.11077000 1.905766e-42
-3.63825010 6.16826010 437.77200000 -0.63286299 -0.76789701 0.09909080 1.905766e-42
-2.25176000 5.03159000 437.61200000 -0.60842299 -0.78860497 0.08901620 1.905766e-42
-0.82969803 3.99982000 437.22101000 -0.58165002 -0.81009197 0.07371690 1.905766e-42
0.61513501 3.00366000 436.82101000 -0.55864501 -0.82661200 0.06803010 1.905766e-42
2.04407000 1.90930000 436.79800000 -0.53748101 -0.84029502 0.07083350 1.905766e-42
3.45426990 1.11528000 436.01001000 -0.51950800 -0.85148001 0.07136670 1.905766e-42
4.93131020 0.08681890 435.98499000 -0.49592999 -0.86502898 0.07600750 1.905766e-42
6.33901980 -0.73216200 435.21799000 -0.47367799 -0.87729502 0.07735100 1.905766e-42
7.82562020 -1.39809000 435.98401000 -0.44334900 -0.89225101 0.08560780 1.905766e-42
9.46459960 -2.14202000 435.96600000 -0.40951300 -0.90783000 0.09024720 1.905766e-42
11.05690000 -2.74865010 436.54599000 -0.37785500 -0.92070502 0.09761120 1.905766e-42
12.47190000 -3.17433000 437.57401000 -0.35122100 -0.92996103 0.10870400 1.905766e-42
14.16800000 -3.77652000 437.59500000 -0.32461300 -0.93901700 0.11346500 1.905766e-42
15.79790000 -4.33113000 438.12000000 -0.30131099 -0.94546199 0.12374700 1.905766e-42
17.51960000 -4.82010980 438.31201000 -0.28267199 -0.94984698 0.13374200 1.905766e-42
18.72970000 -5.03635980 439.62701000 -0.26120001 -0.95321798 0.15215200 1.905766e-42
20.24840000 -5.10929010 440.59000000 -0.23748600 -0.95673501 0.16810600 1.905766e-42
21.29320000 -5.19997980 442.05301000 -0.21720900 -0.95849299 0.18469501 1.905766e-42
22.44450000 -5.15610980 443.43600000 -0.19662000 -0.95968902 0.20084199 1.905766e-42
23.98189900 -5.21330020 444.37000000 -0.17248300 -0.96138299 0.21445701 1.905766e-42
25.38369900 -5.20833020 445.50000000 -0.14921699 -0.96190101 0.22908700 1.905766e-42
26.99920100 -5.12984990 446.29001000 -0.12395200 -0.96236801 0.24183300 1.905766e-42
28.13209900 -4.97521020 447.67999000 -0.10290400 -0.96051300 0.25850701 1.905766e-42
29.66930000 -4.83355000 448.60501000 -0.08104420 -0.95878798 0.27231801 1.905766e-42
31.33480100 -4.78215980 449.28601000 -0.05936970 -0.95700800 0.28392199 1.905766e-42
33.09700000 -4.78709980 448.91901000 -0.03956010 -0.95730603 0.28635699 1.905766e-42
34.86679800 -5.09474990 448.80499000 -0.01869990 -0.95673001 0.29037499 1.905766e-42
36.57910200 -5.27509020 448.28000000 0.00066283 -0.95676798 0.29085201 1.905766e-42
38.36399800 -5.38335990 448.07401000 0.02250830 -0.95560402 0.29379401 1.905766e-42
40.01129900 -5.49896000 447.35800000 0.04204570 -0.95567900 0.29139301 1.905766e-42
41.64429900 -5.63031010 446.61200000 0.06284560 -0.95562899 0.28778899 1.905766e-42
43.27370100 -5.74483010 445.85599000 0.08475780 -0.95523298 0.28345299 1.905766e-42
45.05649900 -5.64221000 445.63000000 0.11010800 -0.95256102 0.28373200 1.905766e-42
46.84380000 -5.43051000 445.60101000 0.13606501 -0.94857800 0.28580600 1.905766e-42
48.58179900 -4.96253010 445.58401000 0.16209801 -0.94360501 0.28867501 1.905766e-42
50.26139800 -4.63744020 446.14401000 0.18758400 -0.93643397 0.29648599 1.905766e-42
51.98939900 -4.16343020 446.31500000 0.21388900 -0.92926002 0.30120900 1.905766e-42
53.48000000 -3.15448000 446.32599000 0.23884700 -0.92160797 0.30592600 1.905766e-42
55.26030000 -3.20502000 446.58701000 0.26429299 -0.91316903 0.31027800 1.905766e-42
56.91740000 -2.71985010 447.09500000 0.29093799 -0.90195602 0.31910700 1.905766e-42
58.56800100 -2.21887990 446.58099000 0.31645101 -0.89354402 0.31849301 1.905766e-42
60.27479900 -1.67858000 446.39499000 0.34376499 -0.88255399 0.32081699 1.905766e-42
61.87189900 -0.84831899 446.39200000 0.37166899 -0.86972302 0.32472199 1.905766e-42
63.52180100 -0.15983500 446.60101000 0.39923799 -0.85597998 0.32849199 1.905766e-42
65.02610000 0.67511201 447.13000000 0.42050999 -0.84349400 0.33419999 1.905766e-42
66.58830300 1.56821000 447.17499000 0.43907499 -0.83319700 0.33614799 1.905766e-42
68.12690000 2.50234010 447.17499000 0.45906100 -0.82146800 0.33831000 1.905766e-42
69.59520000 3.38048010 447.73401000 0.47876301 -0.80691600 0.34593800 1.905766e-42
70.96140300 4.45552020 447.26801000 0.50064701 -0.79460102 0.34345600 1.905766e-42
72.41580200 5.31645010 447.88699000 0.52126700 -0.77808601 0.35051700 1.905766e-42
73.83380100 6.42425010 447.93201000 0.54440802 -0.76187497 0.35095099 1.905766e-42
75.13580300 7.47911980 448.58899000 0.56808603 -0.74156702 0.35687101 1.905766e-42
76.48560300 8.65742020 448.76099000 0.59402901 -0.72077000 0.35723999 1.905766e-42
77.77850300 9.77898980 448.20300000 0.61883998 -0.70418298 0.34808600 1.905766e-42
79.09059900 11.00310000 448.06201000 0.64020199 -0.68607801 0.34559801 1.905766e-42
80.48490100 12.13690000 447.95901000 0.65916401 -0.66883701 0.34374401 1.905766e-42
81.73790000 13.42900000 447.97299000 0.67556000 -0.65129101 0.34560001 1.905766e-42
82.73809800 14.75690000 448.66299000 0.68684000 -0.63119501 0.36033899 1.905766e-42
83.18609600 15.91390000 449.96701000 0.69064599 -0.60911798 0.38984999 1.905766e-42
83.61239600 17.32119900 451.00500000 0.69655001 -0.58480901 0.41571200 1.905766e-42
83.60569800 18.21629900 452.56699000 0.69613701 -0.56548798 0.44228700 1.905766e-42
83.22799700 19.15020000 454.05899000 0.69389600 -0.54990500 0.46487901 1.905766e-42
82.96060200 20.06790000 455.58401000 0.69176400 -0.53577298 0.48415801 1.905766e-42
82.28420300 20.63050100 457.15399000 0.68513900 -0.52796602 0.50183302 1.905766e-42
81.63300300 21.29900000 458.69299000 0.67916799 -0.51917499 0.51883399 1.905766e-42
81.19349700 22.25950100 460.15100000 0.67588198 -0.50695902 0.53495401 1.905766e-42
81.08319900 23.46120100 461.48599000 0.67581099 -0.49151599 0.54926503 1.905766e-42
80.68910200 24.54290000 462.87000000 0.67291701 -0.47859100 0.56403297 1.905766e-42
80.44590000 25.77160100 464.16299000 0.67263103 -0.46775800 0.57338500 1.905766e-42
80.15540300 26.94599900 465.49600000 0.67238599 -0.45880401 0.58085799 1.905766e-42
79.87950100 28.19669900 466.76001000 0.67321801 -0.44884500 0.58763599 1.905766e-42
79.94180300 29.61350100 467.86899000 0.67790198 -0.43524501 0.59246200 1.905766e-42
79.68360100 30.93870000 469.05899000 0.68041402 -0.42364001 0.59796798 1.905766e-42
79.23700000 32.15729900 470.30701000 0.67929000 -0.40860000 0.60960001 1.905766e-42
79.11280100 33.58840200 471.39099000 0.67861903 -0.38622001 0.62474799 1.905766e-42
78.97080200 35.09999800 472.35800000 0.67652601 -0.36440900 0.63993597 1.905766e-42
78.95639800 36.69839900 473.18600000 0.67419702 -0.34322900 0.65395099 1.905766e-42
78.57890300 37.98329900 474.38800000 0.66289997 -0.32552299 0.67423898 1.905766e-42
78.10479700 39.37369900 475.42899000 0.65063602 -0.30973601 0.69335198 1.905766e-42
