# .PCD v0.7 - Point Cloud Data file format
# 10 313 1
# 1 37 0
# 38 65 0
# 66 87 0
# 88 114 0
# 115 179 0
# 180 252 0
# 253 263 1
# 264 285 0
# 286 297 1
# 298 313 0
VERSION 0.7
FIELDS x y z normal_x normal_y normal_z curvature
SIZE 4 4 4 4 4 4 4
TYPE F F F F F F F
COUNT 1 1 1 1 1 1 1
WIDTH 313
HEIGHT 1
VIEWPOINT 0 0 0 1 0 0 0
POINTS 313
DATA ascii
64.07460000 13.30350000 461.71600000 0.96458501 0.21710500 0.14980100 1.905766e-42
64.33219900 11.60980000 462.26901000 0.96825999 0.19983000 0.15013599 1.905766e-42
64.79709600 10.03330000 461.53500000 0.97216499 0.18069801 0.14914200 1.905766e-42
64.92250100 8.27775960 461.91199000 0.97539902 0.16419800 0.14709000 1.905766e-42
65.33499900 6.55426980 461.59698000 0.97869700 0.14668199 0.14365500 1.905766e-42
65.48439800 4.76083990 461.56100000 0.98162502 0.13043600 0.13927600 1.905766e-42
65.61949900 2.96693990 461.50000000 0.98429799 0.11491000 0.13398699 1.905766e-42
65.79560100 1.20096000 461.20001000 0.98703998 0.09764980 0.12734200 1.905766e-42
66.03060200 -0.49871999 460.65601000 0.98998702 0.07577160 0.11909900 1.905766e-42
66.24749800 -2.15517000 459.98599000 0.99231303 0.05531730 0.11070000 1.905766e-42
66.26779900 -3.95482990 459.95700000 0.99412602 0.03605350 0.10204600 1.905766e-42
66.35669700 -5.73243000 459.68900000 0.99551702 0.01761960 0.09292690 1.905766e-42
66.19969900 -7.50601010 459.95300000 0.99645901 0.00142709 0.08406530 1.905766e-42
66.03630100 -9.29852960 459.96600000 0.99712199 -0.01434130 0.07445140 1.905766e-42
65.88240100 -11.09190000 459.95801000 0.99750501 -0.02900170 0.06436440 1.905766e-42
65.97540300 -12.69920000 459.15302000 0.99714899 -0.05460170 0.05209040 1.905766e-42
65.62259700 -14.41530000 459.56601000 0.99580503 -0.08215870 0.04026780 1.905766e-42
65.66320000 -16.16350000 457.81000000 0.99274802 -0.11738300 0.02595140 1.905766e-42
65.69920300 -17.46980100 456.57199000 0.98946100 -0.14395501 0.01562490 1.905766e-42
65.66870100 -18.47380100 455.07800000 0.98603100 -0.16640800 0.00715069 1.905766e-42
65.65550200 -19.32150100 453.48999000 0.98247200 -0.18641201 -0.00024461 1.905766e-42
65.84839600 -20.08540000 451.87201000 0.97888899 -0.20426600 -0.00722632 1.905766e-42
65.59279600 -21.35030000 450.61700000 0.97261900 -0.23174401 -0.01752980 1.905766e-42
65.48349800 -22.28650100 449.08401000 0.96700102 -0.25322601 -0.02802040 1.905766e-42
65.03140300 -23.34110100 447.69699000 0.96010101 -0.27699900 -0.03843920 1.905766e-42
64.82830000 -24.21830000 446.13800000 0.95330501 -0.29776600 -0.05043800 1.905766e-42
64.44699900 -25.19070100 444.67200000 0.94441199 -0.32254300 -0.06364930 1.905766e-42
63.74169900 -26.34700000 443.48700000 0.93193501 -0.35428199 -0.07734330 1.905766e-42
63.51739900 -27.11599900 441.87500000 0.92121398 -0.37772399 -0.09321800 1.905766e-42
63.00519900 -28.05830000 440.42899000 0.90633303 -0.40800199 -0.10997900 1.905766e-42
62.41339900 -28.86450000 438.93201000 0.89012200 -0.43752801 -0.12748300 1.905766e-42
61.83540000 -29.74239900 437.47101000 0.87134302 -0.46878001 -0.14494000 1.905766e-42
60.92110100 -30.53760000 436.14001000 0.84973001 -0.50190800 -0.16139200 1.905766e-42
60.22679900 -31.18989900 434.61301000 0.83050102 -0.52790600 -0.17771700 1.905766e-42
59.14350100 -32.50450100 434.03101000 0.81933802 -0.54183400 -0.18735400 1.905766e-42
58.23880000 -33.28270000 432.68399000 0.80915397 -0.55155998 -0.20261100 1.905766e-42
57.37130000 -34.02100000 431.29001000 0.79792702 -0.56202298 -0.21781300 1.905766e-42
55.42060100 26.45400000 416.45901000 0.79733700 0.42999101 -0.42351100 1.905766e-42
56.36029800 25.41169900 417.58600000 0.81050301 0.42436400 -0.40373299 1.905766e-42
57.38970200 24.76400000 418.91299000 0.82448298 0.41819400 -0.38123599 1.905766e-42
58.18090100 24.98580000 420.51501000 0.83416200 0.42364100 -0.35313100 1.905766e-42
58.72000100 25.07180000 422.23001000 0.84396797 0.42443201 -0.32798800 1.905766e-42
59.30139900 24.98590100 423.93100000 0.85326999 0.42354599 -0.30420199 1.905766e-42
59.99480100 24.77039900 425.57901000 0.86208200 0.42121601 -0.28176501 1.905766e-42
60.33430100 24.68120000 427.34399000 0.86948401 0.41981301 -0.26029700 1.905766e-42
61.26760100 24.15420000 428.79001000 0.87730801 0.41496500 -0.24111000 1.905766e-42
61.46210100 24.18490000 430.57901000 0.88300401 0.41374800 -0.22161999 1.905766e-42
61.99560200 23.76530100 432.24600000 0.90063000 0.39705801 -0.17666300 1.905766e-42
62.69210100 23.20109900 433.80701000 0.91443300 0.38071799 -0.13735300 1.905766e-42
63.19260000 22.62210100 435.43701000 0.92498499 0.36591399 -0.10251500 1.905766e-42
63.41619900 22.37179900 437.20499000 0.93228000 0.35448200 -0.07208950 1.905766e-42
63.83589900 21.94140100 438.90201000 0.93846798 0.34246400 -0.04467580 1.905766e-42
64.06340000 21.53630100 440.64099000 0.94319701 0.33161601 -0.02024840 1.905766e-42
64.27549700 21.17110100 442.39001000 0.94689602 0.32153699 0.00154214 1.905766e-42
64.59690100 20.42919900 443.99899000 0.95046699 0.31009400 0.02133480 1.905766e-42
64.49310300 20.52090100 445.79300000 0.95204997 0.30366099 0.03729040 1.905766e-42
64.19170400 20.10820000 447.51901000 0.95403802 0.29499799 0.05279660 1.905766e-42
64.46649900 19.38100100 449.14301000 0.95624900 0.28458101 0.06783770 1.905766e-42
64.69439700 18.38760000 450.62601000 0.95820498 0.27414101 0.08179750 1.905766e-42
64.38289600 18.11370100 452.37799000 0.95937198 0.26628199 0.09326720 1.905766e-42
64.76730300 17.00210000 453.73999000 0.96067399 0.25690401 0.10538400 1.905766e-42
64.74539900 16.28879900 455.39301000 0.96162301 0.24839699 0.11652900 1.905766e-42
64.56919900 15.90250000 457.14200000 0.96246499 0.24041900 0.12593301 1.905766e-42
64.32920100 15.21760000 458.78900000 0.96316701 0.23233999 0.13537700 1.905766e-42
63.99950000 14.56390000 460.43399000 0.96378100 0.22445200 0.14403699 1.905766e-42
57.74259900 -33.93420000 429.53101000 0.79504901 -0.56032997 -0.23222300 1.905766e-42
58.73580200 -32.44829900 429.31699000 0.80587697 -0.54431498 -0.23298800 1.905766e-42
59.64839900 -31.06160000 428.62100000 0.81532598 -0.52631801 -0.24131399 1.905766e-42
60.18220100 -29.39040000 428.21799000 0.83599502 -0.48940900 -0.24817500 1.905766e-42
60.67660100 -28.21780000 426.94501000 0.84632498 -0.46224600 -0.26469499 1.905766e-42
61.22320200 -26.61759900 426.32800000 0.86127800 -0.42938501 -0.27171499 1.905766e-42
61.82249800 -25.12590000 425.51901000 0.87273800 -0.39971301 -0.28028101 1.905766e-42
61.99119900 -23.55400100 424.65799000 0.88045901 -0.37382099 -0.29163301 1.905766e-42
62.46320000 -21.89209900 424.15302000 0.89114499 -0.34520701 -0.29443499 1.905766e-42
62.67850100 -20.49600000 423.03699000 0.89320701 -0.32511899 -0.31061101 1.905766e-42
62.95880100 -18.90430100 422.24500000 0.89779198 -0.30226400 -0.32032299 1.905766e-42
63.06620000 -17.30110000 421.43301000 0.90154099 -0.27717900 -0.33225799 1.905766e-42
63.05690000 -15.66500000 420.68301000 0.90514100 -0.24711500 -0.34591001 1.905766e-42
63.21900200 -13.95100000 420.15799000 0.91036499 -0.21243601 -0.35511401 1.905766e-42
63.26680000 -12.45610000 419.15601000 0.90653402 -0.18115400 -0.38128799 1.905766e-42
63.12030000 -10.67790000 418.91901000 0.90874201 -0.14272800 -0.39219499 1.905766e-42
63.07619900 -8.96463010 418.36801000 0.90420198 -0.10251800 -0.41461900 1.905766e-42
62.93090100 -7.17164990 418.30399000 0.90242797 -0.05994720 -0.42665100 1.905766e-42
62.76649900 -5.60974980 417.42499000 0.88667601 -0.01797500 -0.46204099 1.905766e-42
62.46340200 -4.75852010 415.86801000 0.87777299 0.00023508 -0.47907701 1.905766e-42
62.20140100 -3.35533000 414.77100000 0.87099600 0.03121260 -0.49029800 1.905766e-42
62.03229900 -2.70566010 413.10101000 0.86045903 0.04343800 -0.50766498 1.905766e-42
62.75550100 -2.95522000 411.47198000 0.85304600 0.03501960 -0.52065998 1.905766e-42
61.83610200 -3.72528000 410.13000000 0.84001702 0.01489730 -0.54235500 1.905766e-42
60.85660200 -4.20251990 408.69699000 0.82454199 0.00031295 -0.56580001 1.905766e-42
59.72829800 -4.27931020 407.29700000 0.80744302 -0.00591567 -0.58991599 1.905766e-42
58.89600000 -5.53801010 406.31500000 0.79171699 -0.03816000 -0.60969502 1.905766e-42
58.09190000 -6.87961010 405.42401000 0.77500898 -0.07217920 -0.62781501 1.905766e-42
57.04190100 -7.83899020 404.32101000 0.75434798 -0.09796810 -0.64912301 1.905766e-42
55.83219900 -8.57641030 403.21100000 0.73190397 -0.11842800 -0.67103702 1.905766e-42
54.24770000 -9.39877030 403.44101000 0.71696401 -0.14221500 -0.68245000 1.905766e-42
52.65090200 -10.17680000 403.73300000 0.70181203 -0.16547400 -0.69287699 1.905766e-42
52.70880100 -11.97060000 403.87000000 0.69743001 -0.20510800 -0.68667501 1.905766e-42
52.48350100 -13.73630000 404.13800000 0.69228297 -0.24163100 -0.67997003 1.905766e-42
52.42210000 -15.45580000 404.66599000 0.69546002 -0.26166999 -0.66922700 1.905766e-42
51.86890000 -17.14329900 404.95999000 0.69274700 -0.27994701 -0.66462898 1.905766e-42
52.50109900 -18.65940100 405.69601000 0.70167899 -0.29664800 -0.64780098 1.905766e-42
51.90319800 -20.27529900 406.21701000 0.69994700 -0.31385100 -0.64153898 1.905766e-42
51.88670000 -21.89209900 407.00800000 0.70413202 -0.33102000 -0.62819099 1.905766e-42
51.87270000 -23.53389900 407.74600000 0.70789897 -0.34778699 -0.61475497 1.905766e-42
51.73749900 -25.17490000 408.47299000 0.71093303 -0.36425599 -0.60157400 1.905766e-42
51.74580000 -26.84429900 409.14600000 0.71473002 -0.38033000 -0.58694899 1.905766e-42
51.42450000 -28.46270000 409.86600000 0.71708298 -0.39661601 -0.57313800 1.905766e-42
50.86700100 -30.04660000 410.51401000 0.70745599 -0.43271500 -0.55880499 1.905766e-42
50.91439800 -31.66029900 411.31000000 0.70250702 -0.46707901 -0.53695601 1.905766e-42
50.21080000 -33.06039800 412.19601000 0.69062603 -0.50390601 -0.51876301 1.905766e-42
50.05320000 -34.45909900 413.31799000 0.68404597 -0.53849399 -0.49204201 1.905766e-42
49.46250200 -36.01419800 414.00500000 0.66668898 -0.57639700 -0.47253701 1.905766e-42
48.62710200 -37.16289900 415.11099000 0.65006500 -0.61295003 -0.44911900 1.905766e-42
47.44039900 -38.20769900 415.97101000 0.62607098 -0.65006101 -0.43064600 1.905766e-42
46.05770100 -38.93069800 415.07401000 0.59655100 -0.66863501 -0.44390801 1.905766e-42
44.64860200 -40.04570000 415.17999000 0.57070398 -0.69631201 -0.43525499 1.905766e-42
43.22259900 -41.13159900 415.01501000 0.55773801 -0.70522499 -0.43770501 1.905766e-42
41.84890000 -42.18590200 414.52399000 0.54376602 -0.71276700 -0.44303700 1.905766e-42
40.48189900 -43.24580000 415.02200000 0.53187400 -0.72583199 -0.43620801 1.905766e-42
39.06230200 -43.98049900 414.19400000 0.51690298 -0.73198199 -0.44386199 1.905766e-42
37.51860000 -44.63850000 413.54300000 0.50165600 -0.73986799 -0.44826001 1.905766e-42
35.87450000 -45.27240000 413.17599000 0.47689700 -0.75174397 -0.45546600 1.905766e-42
34.28699900 -45.86069900 412.56400000 0.44648299 -0.76314801 -0.46718100 1.905766e-42
32.72359800 -46.38230100 411.84100000 0.41607001 -0.77310801 -0.47873700 1.905766e-42
31.05610100 -46.79019900 411.29901000 0.38638201 -0.78298903 -0.48748001 1.905766e-42
29.65309900 -47.03360000 410.19800000 0.36226100 -0.78509402 -0.50238800 1.905766e-42
28.00300000 -47.42020000 409.59201000 0.33765101 -0.79103601 -0.51015103 1.905766e-42
26.27689900 -47.92570100 409.51999000 0.31608400 -0.80016702 -0.50972903 1.905766e-42
24.52470000 -48.30070100 409.35001000 0.29888901 -0.80581897 -0.51119602 1.905766e-42
22.87920000 -48.76979800 408.79099000 0.28555599 -0.80660099 -0.51754498 1.905766e-42
21.13740000 -48.91750000 408.36200000 0.26433501 -0.80580699 -0.52990699 1.905766e-42
19.78039900 -48.94480100 407.17899000 0.24399100 -0.79719698 -0.55221897 1.905766e-42
18.04630100 -49.42530100 407.13300000 0.22369300 -0.80045599 -0.55608499 1.905766e-42
16.31769900 -49.57120100 406.65302000 0.20187700 -0.79746300 -0.56859398 1.905766e-42
14.63810000 -49.54349900 406.00699000 0.18001100 -0.79144198 -0.58413702 1.905766e-42
12.89830000 -49.34009900 405.59201000 0.15848100 -0.78557801 -0.59812301 1.905766e-42
11.10720000 -49.44200100 405.44601000 0.13808601 -0.78301001 -0.60648799 1.905766e-42
9.33366010 -49.68399800 405.25601000 0.11842200 -0.77983201 -0.61468601 1.905766e-42
7.68278980 -49.58879900 404.54501000 0.09624120 -0.77082801 -0.62973100 1.905766e-42
6.03168010 -49.18019900 403.95599000 0.06805470 -0.75935400 -0.64710897 1.905766e-42
4.23190020 -49.17089800 403.98199000 0.03927820 -0.75306898 -0.65676802 1.905766e-42
2.43914010 -49.01269900 403.95001000 0.00744119 -0.74360198 -0.66858202 1.905766e-42
0.67031300 -48.74280200 403.75400000 -0.02685980 -0.73378903 -0.67884600 1.905766e-42
-1.07450000 -48.40269900 403.47198000 -0.06274950 -0.72386801 -0.68707901 1.905766e-42
-2.80392000 -48.02080200 403.14999000 -0.09962650 -0.71110398 -0.69599199 1.905766e-42
-4.25933980 -47.37189900 402.31299000 -0.13281301 -0.69408202 -0.70753902 1.905766e-42
-5.68970010 -46.54530000 401.59900000 -0.16466200 -0.67691398 -0.71740800 1.905766e-42
-7.40857980 -46.01279800 401.55600000 -0.19631501 -0.66597199 -0.71968198 1.905766e-42
-9.07478050 -45.36489900 401.76599000 -0.22356600 -0.65596199 -0.72092497 1.905766e-42
-10.61840000 -44.61970100 402.31500000 -0.25094199 -0.64596802 -0.72093898 1.905766e-42
-12.19780000 -43.75619900 402.31000000 -0.28014699 -0.63025498 -0.72408301 1.905766e-42
-13.83000000 -43.06990100 401.98599000 -0.30931401 -0.61306000 -0.72696799 1.905766e-42
-15.42050000 -42.26190200 401.74600000 -0.33841801 -0.59501702 -0.72899097 1.905766e-42
-17.08449900 -41.57630200 401.71399000 -0.36756101 -0.57861799 -0.72807902 1.905766e-42
-18.67790000 -40.82569900 402.08401000 -0.39606300 -0.56409001 -0.72452497 1.905766e-42
-20.11290000 -39.76030000 402.29901000 -0.42208001 -0.54795802 -0.72221202 1.905766e-42
-21.51450000 -38.64059800 402.15100000 -0.44387001 -0.53198802 -0.72108799 1.905766e-42
-22.64600000 -37.30820100 401.72198000 -0.46098700 -0.51536202 -0.72242099 1.905766e-42
-24.08470000 -36.34120200 402.20700000 -0.48467600 -0.50327301 -0.71540499 1.905766e-42
-25.66850100 -35.59230000 402.62000000 -0.50905800 -0.49206901 -0.70620698 1.905766e-42
-27.21310000 -34.94829900 403.28299000 -0.53387398 -0.48238099 -0.69446898 1.905766e-42
-28.66560000 -34.23460000 404.07001000 -0.55839199 -0.47301400 -0.68151098 1.905766e-42
-30.20360000 -33.52769900 404.68301000 -0.58198702 -0.46389699 -0.66790003 1.905766e-42
-31.62100000 -32.56600200 405.23599000 -0.60342801 -0.45539999 -0.65458798 1.905766e-42
-32.83540000 -32.16050000 406.50101000 -0.62526798 -0.45092100 -0.63695401 1.905766e-42
-34.28229900 -31.17160000 406.91199000 -0.64251202 -0.44646499 -0.62277400 1.905766e-42
-35.59640100 -30.22530000 407.69800000 -0.65871400 -0.44554499 -0.60628903 1.905766e-42
-36.77030200 -29.90259900 409.02301000 -0.67819798 -0.44419000 -0.58544201 1.905766e-42
-38.04710000 -28.89360000 409.79300000 -0.69814199 -0.42690900 -0.57475799 1.905766e-42
-39.35910000 -27.74390000 410.23599000 -0.71732599 -0.40397301 -0.56766999 1.905766e-42
-40.54880100 -26.72419900 411.12201000 -0.73688900 -0.38451001 -0.55600899 1.905766e-42
-41.77159900 -25.99049900 412.22101000 -0.75544900 -0.36906701 -0.54137403 1.905766e-42
-42.79859900 -25.56230000 413.63599000 -0.77169198 -0.35925299 -0.52481300 1.905766e-42
-43.99509800 -24.72090000 414.68500000 -0.78857398 -0.34153599 -0.51137400 1.905766e-42
-44.94010200 -24.02540000 416.04999000 -0.80372101 -0.32783201 -0.49654701 1.905766e-42
-46.12730000 -23.12940000 417.06400000 -0.81821197 -0.31121799 -0.48339701 1.905766e-42
-47.11600100 -22.37220000 418.36301000 -0.83107698 -0.29877800 -0.46908700 1.905766e-42
-47.75460100 -22.09950100 420.02399000 -0.84135097 -0.29286200 -0.45426899 1.905766e-42
-48.59960200 -21.66630000 421.55301000 -0.85152000 -0.28532201 -0.43989199 1.905766e-42
-49.19889800 -19.97010000 421.49301000 -0.85629398 -0.27579701 -0.43668699 1.905766e-42
-49.58020000 -18.31970000 420.88400000 -0.85585397 -0.27106899 -0.44049400 1.905766e-42
-49.96239900 -16.58530000 421.17700000 -0.85614800 -0.27160001 -0.43959501 1.905766e-42
-50.46789900 -14.93040000 420.68100000 -0.85766202 -0.25040299 -0.44912699 1.905766e-42
-50.66149900 -13.33720000 419.86600000 -0.85756600 -0.22694699 -0.46160099 1.905766e-42
-51.03570200 -11.57710000 419.91101000 -0.85968399 -0.20497800 -0.46789700 1.905766e-42
-51.36230100 -9.80895040 419.82800000 -0.85932302 -0.18101300 -0.47832900 1.905766e-42
-51.45069900 -8.09199050 419.29501000 -0.85788399 -0.15738000 -0.48914799 1.905766e-42
-51.69710200 -6.35619020 419.70300000 -0.85587299 -0.13426501 -0.49945399 1.905766e-42
-51.65330100 -4.75126980 418.88901000 -0.85343999 -0.11291100 -0.50881398 1.905766e-42
-51.51639900 -3.03660010 418.35901000 -0.85093898 -0.08477880 -0.51837802 1.905766e-42
-51.50540200 -1.23663000 418.35599000 -0.84849799 -0.04733230 -0.52707702 1.905766e-42
-51.38710000 0.55863601 418.30099000 -0.84546500 -0.00924571 -0.53395200 1.905766e-42
-51.21820100 2.19047000 417.56100000 -0.84221202 0.02499270 -0.53856701 1.905766e-42
-51.05030100 3.98262000 417.55899000 -0.83792901 0.06338940 -0.54208601 1.905766e-42
-50.83890200 5.76989980 417.58899000 -0.83295900 0.10163100 -0.54392099 1.905766e-42
-50.57930000 7.55104020 417.57800000 -0.82736200 0.13922399 -0.54414099 1.905766e-42
-50.24449900 9.31962970 417.57199000 -0.82119799 0.17591800 -0.54285002 1.905766e-42
-49.95159900 11.09560000 417.58301000 -0.81506801 0.20900699 -0.54035199 1.905766e-42
-49.64320000 12.86900000 417.59100000 -0.80890799 0.24288100 -0.53542298 1.905766e-42
-49.15879800 14.60070000 417.67001000 -0.80269200 0.27776599 -0.52776098 1.905766e-42
-48.93479900 16.22769900 418.40701000 -0.79643798 0.31356201 -0.51707298 1.905766e-42
-48.35390100 17.93070000 418.45499000 -0.79043800 0.34879199 -0.50353998 1.905766e-42
-48.02640200 19.57449900 419.11099000 -0.78457099 0.38465101 -0.48630399 1.905766e-42
-47.37500000 21.23390000 419.35999000 -0.77895600 0.41795200 -0.46748701 1.905766e-42
-46.83810000 22.84960000 419.94400000 -0.77441901 0.44688001 -0.44785500 1.905766e-42
-46.08380100 24.46690000 420.17899000 -0.76759303 0.47175300 -0.43387899 1.905766e-42
-45.63940000 25.96050100 421.07999000 -0.76062000 0.49992499 -0.41416401 1.905766e-42
-44.98370000 27.44599900 421.85699000 -0.75004601 0.52915102 -0.39677399 1.905766e-42
-44.24390000 28.88769900 422.64099000 -0.73621899 0.55993801 -0.38006699 1.905766e-42
-43.35070000 30.34250100 423.21100000 -0.71779197 0.59261298 -0.36549199 1.905766e-42
-42.30619800 31.78940000 423.44699000 -0.69496697 0.62597603 -0.35380101 1.905766e-42
-41.27249900 33.16339900 423.97900000 -0.67557001 0.65126300 -0.34563199 1.905766e-42
-40.10390100 34.52040100 424.16101000 -0.66067100 0.66449600 -0.34922600 1.905766e-42
-39.07389800 35.86899900 424.76099000 -0.64706397 0.67770898 -0.34931400 1.905766e-42
-37.81589900 37.15179800 424.87000000 -0.63066399 0.69201499 -0.35125199 1.905766e-42
-36.52780200 38.19319900 425.57501000 -0.61703998 0.70517898 -0.34926301 1.905766e-42
-35.33169900 39.53820000 425.58701000 -0.60225803 0.71774298 -0.34947300 1.905766e-42
-33.96699900 40.69990200 425.75601000 -0.58943301 0.72874200 -0.34857401 1.905766e-42
-32.80649900 41.84209800 426.52301000 -0.58093601 0.73830199 -0.34267101 1.905766e-42
-31.41960000 42.97309900 426.32999000 -0.57319701 0.74405098 -0.34326899 1.905766e-42
-29.94759900 44.00560000 426.41599000 -0.57350498 0.74091202 -0.34948701 1.905766e-42
-28.69820000 45.07659900 427.14600000 -0.59607798 0.70405000 -0.38601199 1.905766e-42
-27.32570100 46.21500000 426.89999000 -0.60723698 0.68138498 -0.40863001 1.905766e-42
-26.25510000 47.37519800 426.03500000 -0.59565997 0.67721897 -0.43193001 1.905766e-42
-24.78840100 48.09199900 425.27701000 -0.56785703 0.68352503 -0.45862001 1.905766e-42
-23.56500100 48.08530000 423.95700000 -0.53595299 0.70093900 -0.47057301 1.905766e-42
-22.73300000 47.99819900 422.36301000 -0.50618303 0.72011799 -0.47456199 1.905766e-42
-21.33169900 48.13690200 421.24200000 -0.47403800 0.73316401 -0.48760501 1.905766e-42
-20.10140000 48.20019900 419.92899000 -0.44226301 0.74755502 -0.49554399 1.905766e-42
-18.58989900 48.41109800 418.97501000 -0.40974200 0.75783998 -0.50773001 1.905766e-42
-16.96670000 48.72050100 418.26099000 -0.37696400 0.76577699 -0.52104098 1.905766e-42
-15.36300000 49.02850000 417.50400000 -0.34360701 0.77389699 -0.53199399 1.905766e-42
-13.62550000 49.45800000 417.31201000 -0.31123900 0.77808702 -0.54562801 1.905766e-42
-11.96410000 49.80440100 416.71201000 -0.27804899 0.78457999 -0.55418700 1.905766e-42
-10.21800000 50.20180100 416.53000000 -0.25287899 0.78719503 -0.56247300 1.905766e-42
-8.54382990 50.59349800 415.99701000 -0.22485000 0.79277098 -0.56653100 1.905766e-42
-6.80770020 51.06829800 416.01901000 -0.19418800 0.79749602 -0.57121801 1.905766e-42
-5.27022980 51.41070200 416.89001000 -0.16417900 0.80075598 -0.57605201 1.905766e-42
-3.57190990 51.99819900 416.78799000 -0.12690300 0.80858397 -0.57453299 1.905766e-42
-1.84400000 52.50210200 416.76599000 -0.08717010 0.81714600 -0.56980097 1.905766e-42
-0.41294700 53.02909900 417.72299000 -0.04691450 0.82359600 -0.56523299 1.905766e-42
1.18779000 53.59769800 418.31799000 -0.00130945 0.83188498 -0.55494702 1.905766e-42
2.60006000 54.14310100 419.29199000 0.04521930 0.83907998 -0.54212499 1.905766e-42
3.83656000 54.67789800 420.48499000 0.09185340 0.84509701 -0.52666301 1.905766e-42
5.11077020 55.20729800 421.64099000 0.11183100 0.85145700 -0.51236200 1.905766e-42
6.17786980 55.69710200 423.00500000 0.13123401 0.85702902 -0.49827600 1.905766e-42
7.31312990 56.17779900 424.31699000 0.14889100 0.86305100 -0.48267400 1.905766e-42
8.58706000 56.52019900 425.54199000 0.16337501 0.86982697 -0.46552101 1.905766e-42
10.34400000 56.13430000 425.47699000 0.16078700 0.87801898 -0.45081100 1.905766e-42
11.73340000 55.23130000 424.77399000 0.15017200 0.88335401 -0.44399801 1.905766e-42
13.44650000 54.68299900 424.70599000 0.14502700 0.88976997 -0.43275499 1.905766e-42
15.18500000 54.22860000 424.59900000 0.13886900 0.89543402 -0.42298099 1.905766e-42
15.98140000 54.39559900 422.99399000 0.12845799 0.89538401 -0.42636400 1.905766e-42
15.09070000 54.14500000 421.45001000 0.12092600 0.89032298 -0.43897900 1.905766e-42
13.43460000 53.73120100 420.87900000 0.11738800 0.88446403 -0.45160201 1.905766e-42
12.30220000 53.48930000 419.50101000 0.10761100 0.87911999 -0.46429199 1.905766e-42
10.86670000 52.76459900 418.69199000 0.09775250 0.87349498 -0.47691801 1.905766e-42
10.14920000 52.09360100 417.18399000 0.08413130 0.86964601 -0.48645300 1.905766e-42
9.19396970 51.35200100 415.85101000 0.07014140 0.86555398 -0.49587899 1.905766e-42
9.32369040 50.71460000 414.17200000 0.05968420 0.86473799 -0.49866399 1.905766e-42
9.02908040 49.82680100 412.63400000 0.04850670 0.86306798 -0.50275397 1.905766e-42
8.99979020 48.91680100 411.08200000 0.04011570 0.86232501 -0.50476301 1.905766e-42
9.76478960 47.96040000 409.76300000 0.03952840 0.86294597 -0.50374800 1.905766e-42
11.13510000 47.47079800 408.70300000 0.04623950 0.86344999 -0.50231099 1.905766e-42
12.73110000 47.40200000 407.87399000 0.05638570 0.86288399 -0.50224602 1.905766e-42
14.17250000 46.70150000 407.05399000 0.06726920 0.86013299 -0.50561398 1.905766e-42
15.40630000 45.79090100 406.11099000 0.07992720 0.85486400 -0.51265800 1.905766e-42
17.01370000 45.38579900 405.41000000 0.09629430 0.84418899 -0.52732497 1.905766e-42
18.42890000 44.50920100 404.72501000 0.11508600 0.82886201 -0.54748702 1.905766e-42
19.97559900 43.85940200 404.07300000 0.13748799 0.81219399 -0.56695497 1.905766e-42
21.54030000 43.12789900 403.56601000 0.16300701 0.79354501 -0.58627301 1.905766e-42
23.24180000 42.71350100 403.14999000 0.19086000 0.77497500 -0.60248399 1.905766e-42
24.45669900 41.49100100 402.63101000 0.21873499 0.75065398 -0.62343699 1.905766e-42
26.21150000 41.09240000 402.59000000 0.24672100 0.73389000 -0.63287801 1.905766e-42
27.62019900 40.03279900 402.22501000 0.27508599 0.70947897 -0.64881903 1.905766e-42
29.08840000 39.03300100 401.93399000 0.30298400 0.68508500 -0.66246402 1.905766e-42
30.78140100 38.42179900 401.94601000 0.33011901 0.66594702 -0.66898102 1.905766e-42
32.12509900 37.25899900 401.65900000 0.35560000 0.63914597 -0.68193901 1.905766e-42
33.30500000 35.97480000 401.21399000 0.37874100 0.60909802 -0.69681799 1.905766e-42
34.88390000 35.18360100 401.56201000 0.40292200 0.58978498 -0.69986200 1.905766e-42
36.66849900 35.11980100 401.78799000 0.42351401 0.57912701 -0.69659698 1.905766e-42
38.05390200 34.05889900 402.23001000 0.45078301 0.55528402 -0.69889498 1.905766e-42
39.71329900 33.72190100 402.84100000 0.49354801 0.53622401 -0.68474299 1.905766e-42
41.28410000 33.69850200 403.71899000 0.53058600 0.52600503 -0.66467798 1.905766e-42
42.59820200 34.14730100 404.86499000 0.55812001 0.52920598 -0.63909501 1.905766e-42
43.47620000 35.13190100 406.08899000 0.57231098 0.54632801 -0.61154401 1.905766e-42
44.01390100 36.26499900 407.38000000 0.57905501 0.56845897 -0.58442199 1.905766e-42
44.05120100 36.55799900 409.15601000 0.58876997 0.58363402 -0.55921501 1.905766e-42
44.15869900 37.83290100 410.42200000 0.58527303 0.61001199 -0.53417301 1.905766e-42
43.45420100 38.91730100 411.67401000 0.56874502 0.64085299 -0.51559401 1.905766e-42
42.79090100 40.16260100 412.79199000 0.54939401 0.67130500 -0.49750900 1.905766e-42
41.56990100 41.47769900 412.93201000 0.51312900 0.70097101 -0.49531701 1.905766e-42
40.57609900 42.78500000 413.66901000 0.48503199 0.72617102 -0.48725700 1.905766e-42
39.52920200 44.00750000 414.47501000 0.45513701 0.75024599 -0.47956499 1.905766e-42
38.47359800 45.26839800 415.20700000 0.42296401 0.77323401 -0.47245100 1.905766e-42
37.34740100 46.35960000 416.09100000 0.39041001 0.79483598 -0.46455899 1.905766e-42
36.62509900 47.10310000 417.56201000 0.36962599 0.81111097 -0.45329401 1.905766e-42
38.13510100 46.13240100 417.42999000 0.41226801 0.78944403 -0.45476800 1.905766e-42
39.33260000 44.95930100 416.77499000 0.44918501 0.76655400 -0.45894200 1.905766e-42
40.77130100 43.89139900 416.60199000 0.49078900 0.74171501 -0.45714900 1.905766e-42
42.17570100 42.76670100 416.65500000 0.53202999 0.71615100 -0.45174301 1.905766e-42
43.46130000 41.53300100 416.39999000 0.56841898 0.69030702 -0.44763401 1.905766e-42
44.55030100 40.28270000 415.69901000 0.59558702 0.66662401 -0.44820601 1.905766e-42
45.59569900 38.95150000 415.08701000 0.62480199 0.63371801 -0.45609701 1.905766e-42
46.88970200 37.70460100 415.19101000 0.65898502 0.60096002 -0.45231101 1.905766e-42
48.05379900 36.33300000 415.13101000 0.68832803 0.56779099 -0.45146301 1.905766e-42
49.21649900 34.95990000 415.07999000 0.71354699 0.53676701 -0.45025799 1.905766e-42
50.30160100 33.52380000 415.09698000 0.73422199 0.50929999 -0.44892299 1.905766e-42
51.44170000 32.13390000 415.19000000 0.75040901 0.48716900 -0.44671199 1.905766e-42
52.33509800 30.58200100 415.00699000 0.76105499 0.46669701 -0.45054299 1.905766e-42
53.38499800 29.13640000 415.22699000 0.77297401 0.45090199 -0.44631699 1.905766e-42
54.41190000 27.73450100 415.69601000 0.78491902 0.43867999 -0.43756399 1.905766e-42
