# .PCD v0.7 - Point Cloud Data file format
# 4 119 -2
# 1 35 0
# 36 75 0
# 76 100 0
# 101 119 0
VERSION 0.7
FIELDS x y z normal_x normal_y normal_z curvature
SIZE 4 4 4 4 4 4 4
TYPE F F F F F F F
COUNT 1 1 1 1 1 1 1
WIDTH 119
HEIGHT 1
VIEWPOINT 0 0 0 1 0 0 0
POINTS 119
DATA ascii
-7.40599010 11.16150000 421.40302000 0.60981798 -0.56835699 -0.55235201 1.905766e-42
-6.59494020 12.64190000 420.77802000 0.60684800 -0.57055998 -0.55334997 1.905766e-42
-5.39249990 13.98110000 420.75299000 0.58813101 -0.57931697 -0.56435299 1.905766e-42
-3.93356990 14.70880000 421.51501000 0.56466103 -0.58723998 -0.57991999 1.905766e-42
-2.60033990 15.91790000 421.53699000 0.54647100 -0.59192199 -0.59245002 1.905766e-42
-1.27763000 17.13769900 421.58801000 0.52825201 -0.59391600 -0.60680699 1.905766e-42
0.21682701 18.11220000 421.82700000 0.49971899 -0.60541803 -0.61947602 1.905766e-42
1.53640000 19.33239900 421.72699000 0.46428099 -0.63384402 -0.61861598 1.905766e-42
3.14752010 20.07430100 422.03400000 0.43323499 -0.65787297 -0.61604398 1.905766e-42
4.38235000 21.35910000 421.78000000 0.40568101 -0.69210500 -0.59700400 1.905766e-42
5.97336010 22.19829900 421.84698000 0.38165599 -0.71875399 -0.58114702 1.905766e-42
7.55555010 23.02450000 421.61401000 0.36008599 -0.74924600 -0.55585003 1.905766e-42
8.99271970 23.90379900 420.98099000 0.32855999 -0.79034799 -0.51710498 1.905766e-42
10.65940000 24.56679900 420.82999000 0.29156399 -0.81570601 -0.49961400 1.905766e-42
12.18220000 25.29540100 420.20599000 0.25095600 -0.84194201 -0.47765601 1.905766e-42
13.88250000 25.85290000 420.01001000 0.20324600 -0.85946298 -0.46905699 1.905766e-42
15.43510000 26.52619900 419.39700000 0.15488300 -0.87561101 -0.45751199 1.905766e-42
16.66080100 27.46100000 418.46799000 0.14083999 -0.87410802 -0.46486601 1.905766e-42
18.23580000 28.08930000 417.86401000 0.13239300 -0.86871099 -0.47729701 1.905766e-42
19.74580000 28.78280100 417.17200000 0.12466500 -0.86292797 -0.48970699 1.905766e-42
21.26350000 29.45840100 416.47900000 0.11657800 -0.85719401 -0.50162601 1.905766e-42
22.99010100 29.79600000 416.09799000 0.10550800 -0.85400701 -0.50945097 1.905766e-42
24.57010100 30.35520000 415.44199000 0.08107830 -0.85099798 -0.51887202 1.905766e-42
25.97060000 30.99230000 414.50800000 0.04646860 -0.85087401 -0.52331001 1.905766e-42
27.24830100 31.69759900 413.45401000 0.01576850 -0.85120201 -0.52460200 1.905766e-42
28.42849900 32.42770000 412.30801000 -0.01205160 -0.85230398 -0.52290797 1.905766e-42
30.08390000 32.70360200 411.65701000 -0.05042160 -0.85246199 -0.52035201 1.905766e-42
31.46270000 33.20169800 410.61200000 -0.07932680 -0.85307902 -0.51571703 1.905766e-42
33.04140100 33.53699900 409.81500000 -0.10468100 -0.85132098 -0.51409602 1.905766e-42
34.33710100 34.05899800 408.67999000 -0.12765500 -0.84845001 -0.51365000 1.905766e-42
35.86399800 34.37640000 407.78101000 -0.15586400 -0.84464502 -0.51213402 1.905766e-42
37.53720100 34.40510200 407.11801000 -0.18727800 -0.84099001 -0.50760502 1.905766e-42
38.67499900 34.93539800 405.82800000 -0.21107800 -0.83406001 -0.50969601 1.905766e-42
39.98469900 35.29810000 404.64801000 -0.23126100 -0.82640499 -0.51339400 1.905766e-42
42.45090100 36.00059900 402.25699000 -0.26093599 -0.80765599 -0.52877599 1.905766e-42
44.16099900 36.11180100 401.70599000 -0.27703699 -0.79811698 -0.53503197 1.905766e-42
45.63029900 35.24770000 402.28500000 -0.29414499 -0.80111998 -0.52123398 1.905766e-42
46.80369900 34.10829900 403.03601000 -0.31654599 -0.79838002 -0.51223898 1.905766e-42
47.17260000 33.00529900 404.41000000 -0.33549401 -0.79719698 -0.50191700 1.905766e-42
48.69839900 32.10590000 404.73099000 -0.37253100 -0.78248501 -0.49893701 1.905766e-42
49.99050100 31.05220000 405.40900000 -0.40773299 -0.77003998 -0.49070501 1.905766e-42
51.06250000 29.94470000 406.33899000 -0.43865901 -0.76005399 -0.47947499 1.905766e-42
52.22480000 28.77730000 407.06400000 -0.46130699 -0.75693601 -0.46286500 1.905766e-42
53.28239800 27.58330000 407.89899000 -0.46400300 -0.76123500 -0.45301500 1.905766e-42
54.49959900 26.39040000 408.47800000 -0.45399800 -0.76785398 -0.45197999 1.905766e-42
54.72460200 25.42680000 409.98099000 -0.44157299 -0.76063699 -0.47586200 1.905766e-42
54.28970000 24.62159900 411.53101000 -0.44008800 -0.74544799 -0.50062901 1.905766e-42
54.31760000 23.78039900 413.12201000 -0.42802101 -0.75088102 -0.50296801 1.905766e-42
54.30880000 22.92140000 414.70401000 -0.42026600 -0.76175201 -0.49306199 1.905766e-42
53.70550200 22.06440000 416.16800000 -0.42239699 -0.77065700 -0.47714600 1.905766e-42
53.25159800 21.28150000 417.72400000 -0.42703900 -0.77962399 -0.45806599 1.905766e-42
53.39580200 20.27720100 419.20999000 -0.42682400 -0.78784901 -0.44397700 1.905766e-42
54.05059800 19.20109900 420.49600000 -0.44204399 -0.76616597 -0.46646199 1.905766e-42
54.12509900 18.17140000 421.97101000 -0.47666299 -0.72012502 -0.50419402 1.905766e-42
54.89910100 17.24860000 423.30801000 -0.49846101 -0.66299701 -0.55854499 1.905766e-42
54.41059900 16.02070000 424.53101000 -0.49406901 -0.59578699 -0.63319302 1.905766e-42
54.63600200 14.59600000 425.60699000 -0.49546301 -0.52352297 -0.69313800 1.905766e-42
54.15240100 13.26680000 426.72101000 -0.46713501 -0.52164501 -0.71391302 1.905766e-42
54.21609900 11.80880000 427.77399000 -0.44141600 -0.53407800 -0.72104901 1.905766e-42
54.23759800 10.32450000 428.79199000 -0.41894600 -0.54600501 -0.72550899 1.905766e-42
54.28640000 8.92191980 429.91901000 -0.39674899 -0.55289000 -0.73273599 1.905766e-42
54.17720000 7.47860000 430.98901000 -0.38055000 -0.53916800 -0.75131798 1.905766e-42
54.25709900 6.04790020 432.07901000 -0.36622301 -0.51674902 -0.77385402 1.905766e-42
53.77780200 4.60397010 433.04099000 -0.35738099 -0.49302700 -0.79322302 1.905766e-42
53.57680100 3.12500000 434.04700000 -0.35732499 -0.48004800 -0.80116999 1.905766e-42
53.57420000 1.59857000 435.00101000 -0.35901901 -0.47383499 -0.80410498 1.905766e-42
53.54510100 0.09650770 435.99200000 -0.33727300 -0.49089301 -0.80328798 1.905766e-42
53.38359800 -1.49038000 436.82599000 -0.31015700 -0.48668000 -0.81666702 1.905766e-42
52.95940000 -2.97190000 437.75601000 -0.29808399 -0.44492099 -0.84450603 1.905766e-42
53.16310100 -4.41277980 438.81601000 -0.24203500 -0.38899401 -0.88887697 1.905766e-42
52.48550000 -5.97768020 439.39200000 -0.23032200 -0.27240801 -0.93420798 1.905766e-42
51.72670000 -7.54559990 439.84601000 -0.21047200 -0.10919800 -0.97148198 1.905766e-42
50.09040100 -8.20075990 440.21100000 -0.22261500 0.04131920 -0.97403002 1.905766e-42
48.74399900 -9.39103980 440.31299000 -0.18439500 0.16961400 -0.96810597 1.905766e-42
48.03450000 -11.02080000 440.02899000 -0.14012800 0.26315099 -0.95452398 1.905766e-42
47.06390000 -12.53630000 439.99701000 -0.11060000 0.32282299 -0.93997502 1.905766e-42
45.28730000 -12.80220000 439.88300000 -0.07187480 0.34380299 -0.93628699 1.905766e-42
43.49039800 -12.78070000 439.98599000 -0.04046640 0.35081401 -0.93557101 1.905766e-42
41.74800100 -13.23250000 439.98999000 -0.00615038 0.36725399 -0.93010002 1.905766e-42
40.11220200 -12.48140000 439.98801000 0.01804120 0.37300500 -0.92765403 1.905766e-42
38.32040000 -12.65300000 439.99200000 0.05397710 0.39368999 -0.91765702 1.905766e-42
36.64250200 -12.00140000 439.99500000 0.07724980 0.40955400 -0.90900999 1.905766e-42
35.01380200 -11.26050000 440.19101000 0.09086410 0.42808801 -0.89915800 1.905766e-42
33.31610100 -10.67990000 440.33499000 0.08895950 0.44027600 -0.89344400 1.905766e-42
31.53210100 -10.55330000 440.13199000 0.10242200 0.44037300 -0.89195400 1.905766e-42
29.75540000 -10.29130000 440.01099000 0.11536500 0.44205299 -0.88953900 1.905766e-42
27.95780000 -10.38090000 439.98300000 0.12895100 0.45419401 -0.88152099 1.905766e-42
26.31230000 -9.65131000 439.98401000 0.13228101 0.45647401 -0.87984800 1.905766e-42
24.58989900 -9.12874980 439.99200000 0.13186800 0.46731001 -0.87420303 1.905766e-42
22.80909900 -8.89863970 439.86499000 0.13647100 0.48210299 -0.86541998 1.905766e-42
21.13330100 -9.23760030 439.30301000 0.14028101 0.49169001 -0.85939598 1.905766e-42
19.36109900 -8.93645950 439.20901000 0.14657600 0.48533401 -0.86195499 1.905766e-42
17.81240100 -9.54463010 438.52200000 0.15341800 0.50888097 -0.84705502 1.905766e-42
16.05500000 -9.60227970 438.13800000 0.15767699 0.52303702 -0.83759803 1.905766e-42
14.96810000 -10.95590000 437.66199000 0.17013299 0.55416697 -0.81483400 1.905766e-42
13.30990000 -11.35740000 437.08801000 0.17535700 0.57861799 -0.79652500 1.905766e-42
11.58050000 -11.27890000 436.59500000 0.12580299 0.57726097 -0.80681002 1.905766e-42
9.86299990 -11.53360000 436.12000000 0.10186400 0.55697298 -0.82426000 1.905766e-42
8.29706950 -12.38620000 435.87399000 0.10122100 0.53627098 -0.83795500 1.905766e-42
6.56298020 -12.73860000 435.54401000 0.11576500 0.51335001 -0.85033500 1.905766e-42
4.78382020 -12.74010000 435.27100000 0.13667400 0.49286300 -0.85930598 1.905766e-42
3.86458990 -11.19340000 435.21899000 0.15981700 0.46975100 -0.86821198 1.905766e-42
2.22183990 -10.45790000 435.19800000 0.17651400 0.45203301 -0.87436199 1.905766e-42
1.00202000 -9.16973970 435.50299000 0.22159199 0.40404099 -0.88749599 1.905766e-42
-0.22924399 -7.87801980 435.73801000 0.28669000 0.32414499 -0.90152001 1.905766e-42
-1.54067000 -6.64628980 435.79300000 0.34806499 0.22171900 -0.91087401 1.905766e-42
-3.06570010 -5.77938990 435.38901000 0.38863000 0.11636100 -0.91401702 1.905766e-42
-4.01494980 -4.29215000 435.03299000 0.41916201 -0.04527690 -0.90678197 1.905766e-42
-4.60031990 -2.67922000 434.48901000 0.45012000 -0.21214101 -0.86740297 1.905766e-42
-4.81242990 -1.05652000 433.73999000 0.48717499 -0.36014301 -0.79558700 1.905766e-42
-4.85323000 0.43022200 432.72601000 0.52194500 -0.46994001 -0.71184897 1.905766e-42
-4.87708000 1.84471000 431.61301000 0.54844397 -0.53404802 -0.64342999 1.905766e-42
-5.76738980 2.87727000 430.43701000 0.54030198 -0.53850597 -0.64659500 1.905766e-42
-5.85858010 4.09401990 429.11401000 0.53675503 -0.53870898 -0.64937401 1.905766e-42
-6.17012980 5.28550000 427.80099000 0.53505999 -0.53362399 -0.65494698 1.905766e-42
-7.03142020 6.25054980 426.54999000 0.53824800 -0.53112298 -0.65436798 1.905766e-42
-7.37546010 7.43863010 425.24200000 0.56417298 -0.54570901 -0.61960500 1.905766e-42
-7.26045990 8.73762040 424.00101000 0.58122301 -0.55592698 -0.59424299 1.905766e-42
-7.58219000 9.85085010 422.62399000 0.59861600 -0.56484503 -0.56798702 1.905766e-42
