# .PCD v0.7 - Point Cloud Data file format
# 2 69 0
# 1 36 0
# 37 69 0
VERSION 0.7
FIELDS x y z normal_x normal_y normal_z curvature
SIZE 4 4 4 4 4 4 4
TYPE F F F F F F F
COUNT 1 1 1 1 1 1 1
WIDTH 69
HEIGHT 1
VIEWPOINT 0 0 0 1 0 0 0
POINTS 69
DATA ascii
39.8913 32.729401 481.58701 0.51583099 -0.0883471 0.85212302 1.9057659e-42
38.848099 34.044399 482.237 0.42645299 -0.0105553 0.90444797 1.9057659e-42
37.3965 34.914501 482.85001 0.362138 0.0108948 0.93206102 1.9057659e-42
35.703499 35.133999 483.42001 0.31109399 0.0100985 0.95032501 1.9057659e-42
34.0597 34.644699 483.966 0.26229101 -0.0027824601 0.96498501 1.9057659e-42
32.340302 34.2803 484.35501 0.20158 -0.017130701 0.97932202 1.9057659e-42
30.643 33.765701 484.66199 0.174979 -0.0455928 0.98351598 1.9057659e-42
29.427999 32.451698 484.85501 0.143792 -0.0540131 0.98813301 1.9057659e-42
27.8673 31.5595 484.94601 0.109811 -0.067515403 0.99165702 1.9057659e-42
25.765699 29.591 485.03699 0.029455099 -0.125926 0.991602 1.9057659e-42
24.135599 28.857901 484.82401 -0.033647999 -0.14586 0.98873299 1.9057659e-42
22.3417 28.791 484.69199 -0.100127 -0.147974 0.98391002 1.9057659e-42
20.775101 27.9634 484.375 -0.17896099 -0.15359201 0.971793 1.9057659e-42
19.288099 27.080999 483.875 -0.28286499 -0.154009 0.946715 1.9057659e-42
18.1668 25.798599 483.293 -0.36632499 -0.14245 0.91951799 1.9057659e-42
17.1012 24.5137 482.62 -0.43840301 -0.126827 0.88978499 1.9057659e-42
16.3584 22.990499 482.013 -0.46943599 -0.140085 0.87178302 1.9057659e-42
15.158 22.120001 480.992 -0.55860001 -0.118113 0.82098401 1.9057659e-42
14.2854 20.7813 480.164 -0.58986503 -0.13652 0.79587799 1.9057659e-42
13.6349 19.234699 479.51199 -0.58378202 -0.190402 0.78926897 1.9057659e-42
12.6825 18.215401 478.375 -0.62365198 -0.197528 0.75633401 1.9057659e-42
12.1197 16.689899 477.603 -0.600299 -0.27935299 0.74940199 1.9057659e-42
11.3784 15.491 476.483 -0.60697198 -0.33055401 0.72271597 1.9057659e-42
10.4123 14.7714 475.146 -0.65524799 -0.325122 0.68186897 1.9057659e-42
9.6743202 13.6352 473.961 -0.65984899 -0.37370899 0.65187502 1.9057659e-42
8.8424301 12.8397 472.577 -0.68969899 -0.38821501 0.61123198 1.9057659e-42
8.0797796 12.0885 471.13 -0.71537501 -0.398619 0.573883 1.9057659e-42
7.38133 11.344 469.647 -0.734299 -0.40329 0.54604203 1.9057659e-42
6.6914201 10.6749 468.125 -0.757029 -0.40331101 0.51405001 1.9057659e-42
6.0047898 10.105 466.56201 -0.78009599 -0.40279299 0.47875699 1.9057659e-42
5.4285998 9.4723902 464.978 -0.79284298 -0.401566 0.458415 1.9057659e-42
5.04286 8.5661898 463.47198 -0.75687802 -0.489393 0.433164 1.9057659e-42
4.7719402 7.6347299 461.95499 -0.69643599 -0.60022998 0.39331999 1.9057659e-42
4.9066801 6.7154298 460.414 -0.62792802 -0.69868201 0.34285599 1.9057659e-42
5.8928099 5.49721 459.52899 -0.54022002 -0.78749102 0.296682 1.9057659e-42
6.9911098 4.4499202 458.561 -0.494481 -0.82433099 0.275621 1.9057659e-42
8.2596703 3.4719801 457.73901 -0.46526301 -0.84613198 0.259983 1.9057659e-42
9.77349 2.5077801 457.603 -0.43539399 -0.859115 0.26898399 1.9057659e-42
11.4169 1.77363 457.59 -0.38900599 -0.874219 0.29054299 1.9057659e-42
12.7234 1.65065 458.82199 -0.34007201 -0.88857698 0.307868 1.9057659e-42
14.4529 1.19529 459.026 -0.29235899 -0.899535 0.324597 1.9057659e-42
16.1978 0.77129197 459.14999 -0.236974 -0.912628 0.333096 1.9057659e-42
17.9636 0.42471099 459.19199 -0.110671 -0.93807101 0.32829201 1.9057659e-42
18.726101 0.83941501 460.76901 -0.033398502 -0.95240301 0.30300701 1.9057659e-42
20.0238 1.30317 461.927 0.10461 -0.94681901 0.30428699 1.9057659e-42
21.3435 1.89645 462.99799 0.26593101 -0.91899103 0.29109499 1.9057659e-42
22.3232 2.67219 464.293 0.35831401 -0.89157099 0.27697 1.9057659e-42
22.977301 3.41236 465.798 0.386617 -0.87505102 0.291226 1.9057659e-42
23.6248 4.2134099 467.27399 0.40563601 -0.85599297 0.32052499 1.9057659e-42
24.4869 5.1791401 468.52499 0.449992 -0.82736099 0.336126 1.9057659e-42
25.071899 6.0946698 469.95999 0.45377201 -0.80675399 0.37847 1.9057659e-42
25.9132 7.1400299 471.16 0.48603401 -0.78166801 0.39085299 1.9057659e-42
26.5837 8.2130804 472.44 0.49634901 -0.76500797 0.41036701 1.9057659e-42
27.820999 9.47645 472.776 0.57814401 -0.72759801 0.36925501 1.9057659e-42
28.449699 10.5506 474.07599 0.59117502 -0.71089602 0.380972 1.9057659e-42
29.3449 11.8373 474.961 0.62290901 -0.69074202 0.36723301 1.9057659e-42
30.083799 13.0404 476.078 0.64917201 -0.676099 0.34852001 1.9057659e-42
30.8109 14.3051 477.13199 0.63817698 -0.66606402 0.386121 1.9057659e-42
31.8002 15.6692 477.76501 0.68193001 -0.64033002 0.35348099 1.9057659e-42
32.744701 17.077 478.37 0.71407199 -0.61472702 0.33498201 1.9057659e-42
33.682701 18.5418 478.83401 0.74585199 -0.58949101 0.31016999 1.9057659e-42
34.489601 19.967699 479.57901 0.73880303 -0.57016701 0.35927799 1.9057659e-42
35.4818 21.423401 479.948 0.76110101 -0.54790002 0.34717599 1.9057659e-42
36.451599 22.939199 479.99301 0.79455501 -0.52803302 0.29977399 1.9057659e-42
37.390301 24.475 479.98901 0.806229 -0.50998998 0.299842 1.9057659e-42
38.231899 26.021601 480.36301 0.81154698 -0.46999401 0.34712601 1.9057659e-42
39.057201 27.6059 480.58401 0.79817802 -0.41893199 0.43290699 1.9057659e-42
39.776001 29.247601 480.75101 0.75588 -0.35659 0.549079 1.9057659e-42
39.994202 30.9659 481.241 0.64105302 -0.219455 0.73545301 1.9057659e-42
