# .PCD v0.7 - Point Cloud Data file format
# 4 217 0
# 1 78 0
# 79 106 0
# 107 194 0
# 195 217 0
VERSION 0.7
FIELDS x y z normal_x normal_y normal_z curvature
SIZE 4 4 4 4 4 4 4
TYPE F F F F F F F
COUNT 1 1 1 1 1 1 1
WIDTH 217
HEIGHT 1
VIEWPOINT 0 0 0 1 0 0 0
POINTS 217
DATA ascii
57.91849900 1.96750000 451.33099000 0.96008199 -0.22900000 -0.16063000 1.905766e-42
58.22349900 3.03054000 451.19400000 0.96277398 -0.22429000 -0.15086301 1.905766e-42
58.75770200 3.96404000 452.63699000 0.96593797 -0.20739500 -0.15476300 1.905766e-42
59.15380100 5.26983020 453.81100000 0.97065300 -0.19011000 -0.14727500 1.905766e-42
59.53690000 5.72620010 455.51001000 0.97487998 -0.17287000 -0.14044499 1.905766e-42
59.89899800 6.65737010 457.00699000 0.98054099 -0.15193801 -0.12431300 1.905766e-42
59.99470100 7.98834990 458.21500000 0.98659098 -0.12820600 -0.10100100 1.905766e-42
60.41709900 8.05208020 459.96399000 0.99079001 -0.10784600 -0.08188210 1.905766e-42
60.62229900 9.47968960 461.04099000 0.99416202 -0.09043270 -0.05885420 1.905766e-42
60.66750000 10.87270000 462.17999000 0.99676299 -0.07255190 -0.03462470 1.905766e-42
60.85599900 11.88470000 463.65601000 0.99849701 -0.05407080 -0.00893563 1.905766e-42
60.70029800 13.33050000 464.71701000 0.99928302 -0.03498180 0.01448430 1.905766e-42
60.89390200 14.57160000 466.00601000 0.99913901 -0.01475660 0.03878580 1.905766e-42
60.88919800 16.12210100 466.92099000 0.99807602 0.00551874 0.06175970 1.905766e-42
60.81860000 17.84630000 467.43301000 0.99631298 0.02440400 0.08224620 1.905766e-42
60.71310000 19.37410000 468.37900000 0.99327302 0.04585100 0.10632700 1.905766e-42
60.53440100 21.02179900 469.08099000 0.98936701 0.06660420 0.12929100 1.905766e-42
60.17219900 22.74099900 469.47198000 0.98495501 0.08572050 0.15005200 1.905766e-42
60.04710000 24.16680000 470.56299000 0.97835398 0.10806100 0.17648400 1.905766e-42
59.53530100 25.81880000 471.06299000 0.97192001 0.12631200 0.19853900 1.905766e-42
59.19620100 27.45319900 471.73599000 0.96506101 0.14285199 0.21965800 1.905766e-42
58.89429900 29.03070100 472.54901000 0.95687199 0.16216899 0.24103400 1.905766e-42
58.46530200 30.49449900 473.50400000 0.94710499 0.18377499 0.26309499 1.905766e-42
57.92359900 32.02780200 474.27600000 0.93632400 0.20750199 0.28326800 1.905766e-42
57.23280000 33.50280000 475.04199000 0.92387301 0.23347799 0.30322599 1.905766e-42
56.51440000 34.75519900 476.11700000 0.90898901 0.25980499 0.32594600 1.905766e-42
55.74850100 36.06890100 477.08099000 0.89209998 0.28835100 0.34786800 1.905766e-42
54.91140000 37.43610000 477.89899000 0.87300402 0.31952599 0.36846700 1.905766e-42
54.07830000 38.63579900 478.95099000 0.85087597 0.34987801 0.39191300 1.905766e-42
53.02769900 40.07889900 479.18301000 0.82866001 0.38592401 0.40544400 1.905766e-42
52.22940100 41.35240200 480.17300000 0.81255901 0.40276399 0.42134199 1.905766e-42
51.24100100 42.41970100 481.23300000 0.79500198 0.41843599 0.43918499 1.905766e-42
50.14090000 43.42710100 482.24100000 0.77624297 0.43445700 0.45682999 1.905766e-42
48.89920000 44.72729900 482.32901000 0.75921500 0.45827100 0.46214700 1.905766e-42
47.58150100 45.72610100 483.04099000 0.73789901 0.47772399 0.47674400 1.905766e-42
46.35240200 46.65430100 483.97198000 0.71471399 0.49527100 0.49385300 1.905766e-42
45.16009900 47.17089800 485.21799000 0.69094098 0.50565201 0.51664001 1.905766e-42
44.00619900 48.51620100 485.53201000 0.66656899 0.53112400 0.52306098 1.905766e-42
42.68719900 49.41019800 486.36899000 0.63864398 0.54874998 0.53945100 1.905766e-42
41.38390000 50.11539800 487.39099000 0.61142200 0.56033897 0.55873400 1.905766e-42
39.85520200 50.87270000 487.96500000 0.58375698 0.57518101 0.57305700 1.905766e-42
38.46609900 51.82260100 488.60400000 0.55620700 0.58979499 0.58547002 1.905766e-42
37.06050100 52.12080000 489.68799000 0.52889103 0.59289098 0.60725099 1.905766e-42
35.51499900 52.88579900 490.20401000 0.50175601 0.60480303 0.61842901 1.905766e-42
33.95470000 53.53540000 490.82300000 0.47491500 0.61391401 0.63052702 1.905766e-42
32.44599900 54.41999800 490.39700000 0.45421201 0.63249397 0.62740999 1.905766e-42
31.05419900 55.52700000 490.67499000 0.43062800 0.64700103 0.62924600 1.905766e-42
29.82430100 56.78609800 490.29800000 0.40206599 0.67085701 0.62313199 1.905766e-42
28.31440000 57.76580000 490.27899000 0.36547700 0.68999398 0.62476802 1.905766e-42
26.78440100 58.61830100 489.86401000 0.33292201 0.70809698 0.62270498 1.905766e-42
25.20570000 59.48239900 489.83301000 0.29906699 0.72131300 0.62471300 1.905766e-42
23.59030000 60.27629900 489.81699000 0.26669300 0.73167503 0.62731701 1.905766e-42
22.05030100 60.98510000 489.21201000 0.24047400 0.74260801 0.62506402 1.905766e-42
20.30190100 61.39559900 489.33099000 0.20942800 0.74638599 0.63170201 1.905766e-42
18.72250000 62.09980000 488.83099000 0.18533801 0.75289297 0.63150799 1.905766e-42
17.12820100 62.77740100 488.34299000 0.16225301 0.76836503 0.61910403 1.905766e-42
15.51550000 63.52040100 488.04700000 0.13813800 0.78291500 0.60659802 1.905766e-42
13.75920000 63.87170000 488.22601000 0.09693790 0.78680301 0.60954398 1.905766e-42
12.18000000 64.37719700 487.52499000 0.06013870 0.80218101 0.59404498 1.905766e-42
10.41640000 64.73690000 487.54300000 0.01916800 0.80502802 0.59292698 1.905766e-42
8.64684010 64.94580100 487.28799000 -0.01981100 0.80791700 0.58896202 1.905766e-42
6.95601990 65.04340400 486.67899000 -0.05539110 0.81169498 0.58144999 1.905766e-42
5.17012980 65.13800000 486.47501000 -0.09175710 0.80999100 0.57921898 1.905766e-42
3.37383010 65.03540000 486.42200000 -0.12714399 0.80496699 0.57953602 1.905766e-42
1.72908000 65.10350000 485.69400000 -0.15792800 0.80521601 0.57156402 1.905766e-42
-0.04906050 64.86920200 485.84601000 -0.19024500 0.79740900 0.57266498 1.905766e-42
-1.49895000 64.77259800 484.78400000 -0.21694700 0.79745901 0.56302100 1.905766e-42
-3.28775000 64.57450100 484.75299000 -0.24726200 0.79080802 0.55989701 1.905766e-42
-4.89225010 64.28669700 483.98901000 -0.28231299 0.78539097 0.55087298 1.905766e-42
-6.55143020 63.88769900 483.41699000 -0.32504699 0.77487499 0.54213703 1.905766e-42
-8.31159970 63.54760000 483.25500000 -0.36318499 0.76288199 0.53489000 1.905766e-42
-9.81019020 63.04950000 482.39099000 -0.39624301 0.75226402 0.52639401 1.905766e-42
-11.50280000 62.55360000 482.03201000 -0.42735800 0.74034500 0.51889700 1.905766e-42
-13.19450000 62.04309800 481.68900000 -0.45534199 0.72894400 0.51117802 1.905766e-42
-14.71090000 61.56499900 480.84500000 -0.48035201 0.71750897 0.50442398 1.905766e-42
-16.15180000 60.92079900 479.98001000 -0.50365603 0.70515001 0.49909401 1.905766e-42
-17.77739900 60.14799900 479.99399000 -0.52494001 0.69757402 0.48767701 1.905766e-42
-19.26510000 59.53970000 479.18399000 -0.54621100 0.68414700 0.48331699 1.905766e-42
-20.46340000 59.04190100 477.93600000 -0.56881702 0.66044801 0.49015900 1.905766e-42
-21.36590000 57.79560100 478.87000000 -0.57578599 0.68272400 0.44984201 1.905766e-42
-22.14979900 56.50140000 479.84500000 -0.57487500 0.69149297 0.43744200 1.905766e-42
-22.39040000 55.46060200 481.29401000 -0.56705099 0.69660097 0.43954399 1.905766e-42
-22.99029900 54.05670200 482.24701000 -0.56641698 0.69916898 0.43627399 1.905766e-42
-23.25169900 53.20790100 483.81299000 -0.55955201 0.70464802 0.43631601 1.905766e-42
-23.79410000 51.76689900 484.74500000 -0.55924398 0.71009600 0.42779601 1.905766e-42
-23.91799900 50.93320100 486.33600000 -0.55242002 0.71743798 0.42439899 1.905766e-42
-24.16300000 50.02180100 487.86801000 -0.54725200 0.72412002 0.41971999 1.905766e-42
-24.43409900 49.00330000 489.32800000 -0.54325801 0.73021799 0.41431001 1.905766e-42
-24.70200000 48.03609800 490.82199000 -0.53986502 0.72994399 0.41919899 1.905766e-42
-24.89629900 47.03850200 492.30701000 -0.53634900 0.72960299 0.42427501 1.905766e-42
-25.50740100 45.74100100 493.39499000 -0.53877002 0.72727698 0.42519999 1.905766e-42
-25.64030100 44.94549900 495.00400000 -0.53437400 0.72708899 0.43102899 1.905766e-42
-26.14349900 43.64210100 496.13901000 -0.53598303 0.73037100 0.42341501 1.905766e-42
-26.49469900 42.74789800 497.66101000 -0.53081203 0.74360698 0.40655401 1.905766e-42
-26.97250000 41.61190000 498.97299000 -0.52543998 0.75725198 0.38792101 1.905766e-42
-27.51960000 40.31119900 500.09100000 -0.51937401 0.77150500 0.36746401 1.905766e-42
-27.88310100 39.63990000 501.72101000 -0.50417000 0.78872001 0.35175800 1.905766e-42
-28.36459900 38.80310100 503.23999000 -0.48866501 0.80533701 0.33561701 1.905766e-42
-28.87120100 37.96559900 504.75101000 -0.47363901 0.82062900 0.31973901 1.905766e-42
-29.59170000 37.07059900 506.13599000 -0.46171999 0.83411902 0.30176201 1.905766e-42
-30.02640000 36.22010000 507.66199000 -0.44768000 0.84680700 0.28722799 1.905766e-42
-30.84770000 34.97190100 508.66599000 -0.44166300 0.85598600 0.26874101 1.905766e-42
-31.39730100 34.38750100 510.27701000 -0.43462801 0.85039598 0.29652300 1.905766e-42
-32.09540200 33.61410100 511.74500000 -0.43424201 0.83968902 0.32612500 1.905766e-42
-32.82109800 32.68989900 513.10797000 -0.43731299 0.82428998 0.35958701 1.905766e-42
-33.36270100 31.54670000 514.38898000 -0.44460699 0.80293298 0.39701799 1.905766e-42
-32.96939800 30.63190100 515.88800000 -0.45949101 0.75079298 0.47452900 1.905766e-42
-31.58620100 31.20970000 516.88501000 -0.45752600 0.73209101 0.50469100 1.905766e-42
-30.12360000 31.47360000 517.90002000 -0.45014501 0.70545799 0.54744798 1.905766e-42
-28.61739900 31.83239900 518.81799000 -0.43973601 0.68444997 0.58151501 1.905766e-42
-27.08390000 32.03329800 519.73901000 -0.42853501 0.65240800 0.62507701 1.905766e-42
-25.82490000 31.22870100 520.74298000 -0.42079699 0.51980299 0.74346203 1.905766e-42
-24.43680000 30.65099900 521.73297000 -0.40278599 0.35694700 0.84282398 1.905766e-42
-22.86689900 30.53070100 522.60498000 -0.38973400 0.30007699 0.87066698 1.905766e-42
-21.26750000 30.52980000 523.43103000 -0.37614101 0.26512399 0.88782197 1.905766e-42
-19.64900000 30.49819900 524.21802000 -0.36185500 0.23402600 0.90238202 1.905766e-42
-17.98600000 30.67610000 524.88300000 -0.34772000 0.22863699 0.90929401 1.905766e-42
-16.36630100 30.47990000 525.64301000 -0.33181399 0.19298100 0.92339498 1.905766e-42
-14.67560000 30.71870000 526.21301000 -0.31569001 0.20024000 0.92749298 1.905766e-42
-12.99970000 30.57080100 526.85303000 -0.29779100 0.17848399 0.93779701 1.905766e-42
-11.28220000 30.58000000 527.39203000 -0.27800101 0.17442900 0.94461101 1.905766e-42
-9.54261020 30.70570000 527.83698000 -0.25503799 0.18485799 0.94909602 1.905766e-42
-7.82147980 30.52479900 528.33197000 -0.23040900 0.17432700 0.95735103 1.905766e-42
-6.06810000 30.43499900 528.72900000 -0.20212300 0.17656600 0.96331197 1.905766e-42
-4.29383990 30.54140100 529.01300000 -0.17121699 0.19766700 0.96520102 1.905766e-42
-2.52290010 30.42480100 529.31299000 -0.14177699 0.20117100 0.96924198 1.905766e-42
-0.73452002 30.39139900 529.51398000 -0.11078100 0.21589699 0.97011101 1.905766e-42
0.93194801 29.80699900 529.86298000 -0.08947590 0.18255299 0.97911602 1.905766e-42
2.58537010 29.15940100 530.15698000 -0.07086840 0.15108401 0.98597699 1.905766e-42
4.37024020 28.95050000 530.26001000 -0.04489730 0.16209599 0.98575300 1.905766e-42
6.12618020 28.57189900 530.37598000 -0.02308790 0.16485600 0.98604703 1.905766e-42
7.85869980 28.09720000 530.48999000 -0.00502251 0.16615100 0.98608798 1.905766e-42
9.65520000 28.00700000 530.42297000 0.02540530 0.20355900 0.97873300 1.905766e-42
11.37200000 27.46710000 530.45801000 0.04627510 0.20702501 0.97724098 1.905766e-42
12.87320000 26.48590100 530.61200000 0.05371490 0.17714000 0.98271900 1.905766e-42
14.65540000 26.59569900 530.38397000 0.09774760 0.22977400 0.96832299 1.905766e-42
16.18810100 25.65280000 530.42297000 0.11707000 0.22037700 0.96836400 1.905766e-42
17.94860100 25.78340000 530.07098000 0.16046900 0.26293299 0.95137602 1.905766e-42
19.58300000 25.04380000 529.92401000 0.18589200 0.25988001 0.94757903 1.905766e-42
21.19120000 24.25680000 529.73798000 0.21786299 0.26933500 0.93808001 1.905766e-42
22.85600100 23.65000000 529.42200000 0.25303099 0.28201199 0.92544299 1.905766e-42
24.49850100 22.99790000 529.08002000 0.29031199 0.28878999 0.91231602 1.905766e-42
26.22769900 22.76380000 528.63800000 0.33212000 0.30373099 0.89299703 1.905766e-42
27.69860100 21.77870000 528.31201000 0.36006501 0.28176600 0.88936001 1.905766e-42
29.21500000 20.90819900 527.88501000 0.39304700 0.26727799 0.87981600 1.905766e-42
30.73760000 20.07239900 527.41199000 0.42292899 0.24540401 0.87230003 1.905766e-42
32.21130000 19.14570000 526.95502000 0.44891700 0.21638200 0.86697900 1.905766e-42
33.65050100 18.19059900 526.44800000 0.47017899 0.18077500 0.86385900 1.905766e-42
35.06050100 17.20669900 525.91602000 0.48509300 0.14024100 0.86314398 1.905766e-42
36.52629900 16.38550000 525.27002000 0.49266201 0.11266200 0.86289698 1.905766e-42
37.73680100 15.16830000 524.72803000 0.49395001 0.07026340 0.86664701 1.905766e-42
39.09109900 14.20120000 524.04199000 0.50122398 0.04389040 0.86420399 1.905766e-42
40.55419900 13.50720000 523.25598000 0.52561402 0.05180440 0.84914398 1.905766e-42
41.99380100 12.82840000 522.41602000 0.55484498 0.06509530 0.82940298 1.905766e-42
43.21860100 11.74020000 521.66998000 0.56793398 0.04435800 0.82187802 1.905766e-42
44.45230100 10.72210000 520.84497000 0.58687699 0.03349730 0.80898303 1.905766e-42
45.43550100 9.42726990 520.07202000 0.59096998 -0.00123422 0.80669200 1.905766e-42
46.37329900 8.11645980 519.27100000 0.59096301 -0.02444070 0.80632800 1.905766e-42
47.63570000 7.36566020 518.22998000 0.62866801 0.00126698 0.77767301 1.905766e-42
48.79970200 6.43078990 517.22498000 0.66165799 0.01552320 0.74964499 1.905766e-42
50.13219800 6.02767990 516.08398000 0.72206801 0.06943120 0.68832898 1.905766e-42
51.41640100 5.60573010 514.89502000 0.77910900 0.12593199 0.61410898 1.905766e-42
52.40930200 4.55055000 513.82703000 0.80665898 0.13158700 0.57618201 1.905766e-42
53.19189800 3.25580000 512.85199000 0.82103598 0.11374600 0.55942899 1.905766e-42
54.18550100 2.41303990 511.60999000 0.85246402 0.13788500 0.50427401 1.905766e-42
55.08589900 1.41568010 510.41199000 0.87357002 0.14633900 0.46417701 1.905766e-42
55.44739900 -0.18338500 509.66901000 0.87166297 0.08011410 0.48351300 1.905766e-42
56.24700200 -1.20992000 508.42499000 0.89348602 0.07474490 0.44282600 1.905766e-42
56.81679900 -2.54844000 507.36499000 0.90392703 0.03938320 0.42587000 1.905766e-42
57.42039900 -3.78303000 506.20300000 0.91711003 0.01256570 0.39843699 1.905766e-42
58.18420000 -4.64960000 504.82199000 0.93679100 0.01011280 0.34974301 1.905766e-42
58.38340000 -6.18021010 503.89600000 0.93809301 -0.04439380 0.34352800 1.905766e-42
58.72990000 -7.50600000 502.72900000 0.94464600 -0.08076710 0.31799299 1.905766e-42
59.19160100 -8.60404010 501.38000000 0.95380300 -0.10336100 0.28209201 1.905766e-42
59.23410000 -10.08480000 500.35699000 0.95025301 -0.15291899 0.27135801 1.905766e-42
59.21180000 -11.52950000 499.28400000 0.95071602 -0.16256000 0.26403201 1.905766e-42
59.21730000 -12.91640000 498.13599000 0.95458198 -0.15320399 0.25554299 1.905766e-42
59.43629800 -14.10810000 496.80499000 0.95859897 -0.14629300 0.24430899 1.905766e-42
59.58960000 -15.27970000 495.44699000 0.96140701 -0.14295000 0.23507801 1.905766e-42
59.86299900 -16.12739900 493.88300000 0.96326101 -0.14409301 0.22663900 1.905766e-42
60.02999900 -17.28400000 492.51401000 0.96462798 -0.14752100 0.21847400 1.905766e-42
60.29850000 -18.17490000 490.97299000 0.96533400 -0.15537100 0.20973900 1.905766e-42
60.65020000 -18.88450100 489.35699000 0.96636498 -0.16558699 0.19677299 1.905766e-42
60.83319900 -19.92250100 487.89801000 0.97810799 -0.15640301 0.13727200 1.905766e-42
60.58260000 -21.19660000 486.65100000 0.98350197 -0.15588500 0.09177660 1.905766e-42
60.43970100 -22.24099900 485.19199000 0.98800200 -0.15138300 0.03056940 1.905766e-42
60.17190200 -23.41010100 483.85001000 0.98832703 -0.15078400 -0.02178120 1.905766e-42
60.04200000 -24.22349900 482.24899000 0.98577899 -0.14589900 -0.08338160 1.905766e-42
59.67890200 -25.39570000 480.93201000 0.98111498 -0.14799000 -0.12455000 1.905766e-42
59.26160000 -26.44199900 479.52899000 0.97522599 -0.14896300 -0.16353500 1.905766e-42
58.53839900 -27.81209900 478.61200000 0.97057199 -0.15726399 -0.18236899 1.905766e-42
58.36990000 -28.37179900 476.91000000 0.96410602 -0.15213600 -0.21761100 1.905766e-42
57.77719900 -29.45770100 475.60199000 0.95948201 -0.15627800 -0.23446099 1.905766e-42
56.98460000 -30.70190000 474.57101000 0.95642400 -0.16147999 -0.24326500 1.905766e-42
56.70280100 -31.08589900 472.83499000 0.95189202 -0.15174100 -0.26622400 1.905766e-42
56.31880200 -30.69430000 471.12100000 0.94526899 -0.14029600 -0.29459101 1.905766e-42
55.92459900 -29.84520000 469.58301000 0.93737501 -0.12932800 -0.32342300 1.905766e-42
55.95380000 -28.38909900 468.52499000 0.93132198 -0.11731800 -0.34478399 1.905766e-42
55.76540000 -26.91519900 467.50900000 0.92700499 -0.10960000 -0.35867599 1.905766e-42
55.66700000 -25.39760000 466.54700000 0.92637700 -0.11293100 -0.35926500 1.905766e-42
55.22539900 -24.13810000 465.33899000 0.92417097 -0.12348700 -0.36146900 1.905766e-42
55.14230000 -22.54260100 464.51001000 0.92470002 -0.13717900 -0.35512099 1.905766e-42
55.16690100 -21.00569900 463.57300000 0.92497897 -0.15598901 -0.34652799 1.905766e-42
55.19030000 -19.40420000 462.75201000 0.92626297 -0.17963900 -0.33130899 1.905766e-42
55.16350200 -17.84480100 461.85300000 0.92940199 -0.21127000 -0.30261701 1.905766e-42
55.13710000 -16.33530000 460.87299000 0.93098301 -0.23728600 -0.27742800 1.905766e-42
55.22480000 -14.71220000 460.10001000 0.93307000 -0.25488400 -0.25380000 1.905766e-42
55.47090100 -13.13130000 459.27499000 0.93508500 -0.26734900 -0.23267999 1.905766e-42
56.09230000 -11.44340000 459.20401000 0.93961900 -0.26708999 -0.21396101 1.905766e-42
55.96480200 -10.24780000 457.86401000 0.93887401 -0.27066499 -0.21273300 1.905766e-42
55.98289900 -8.78645990 456.81299000 0.93971002 -0.26651600 -0.21427600 1.905766e-42
56.76620100 -7.18138980 456.58899000 0.94370598 -0.25595000 -0.20954201 1.905766e-42
56.75790000 -5.68522980 455.58899000 0.94516701 -0.24862400 -0.21176800 1.905766e-42
57.11610000 -4.10216000 454.81000000 0.94789201 -0.23816299 -0.21161200 1.905766e-42
57.50700000 -2.39219000 454.40601000 0.95201200 -0.22951500 -0.20247599 1.905766e-42
57.65409900 -0.97247702 453.31000000 0.95439100 -0.22924399 -0.19127400 1.905766e-42
57.64270000 0.36688101 452.10699000 0.95648003 -0.23116000 -0.17807600 1.905766e-42
