# .PCD v0.7 - Point Cloud Data file format
# 4 147 0
# 1 60 0
# 61 92 0
# 93 123 0
# 124 147 0
VERSION 0.7
FIELDS x y z normal_x normal_y normal_z curvature
SIZE 4 4 4 4 4 4 4
TYPE F F F F F F F
COUNT 1 1 1 1 1 1 1
WIDTH 147
HEIGHT 1
VIEWPOINT 0 0 0 1 0 0 0
POINTS 147
DATA ascii
33.76870000 -24.78120000 390.27399000 -0.02887610 0.69482499 0.71859902 1.905766e-42
35.25170100 -23.99920100 389.61899000 -0.01474850 0.67817903 0.73474902 1.905766e-42
36.07989900 -22.87360000 388.48499000 -0.02716050 0.66322500 0.74792701 1.905766e-42
36.28070100 -21.47209900 387.37299000 -0.04380810 0.65349001 0.75566602 1.905766e-42
36.70080200 -20.19470000 386.17700000 -0.05215870 0.64177501 0.76511699 1.905766e-42
36.96110200 -18.78560100 385.08701000 -0.06027640 0.62993097 0.77430803 1.905766e-42
37.37340200 -17.43470000 383.97198000 -0.06260100 0.61638099 0.78495598 1.905766e-42
37.34360100 -15.87330000 383.07700000 -0.07333870 0.60251403 0.79473102 1.905766e-42
37.35689900 -14.39550000 382.04901000 -0.08264540 0.58594102 0.80612803 1.905766e-42
37.98160200 -13.04930000 381.03000000 -0.07662120 0.57217097 0.81654698 1.905766e-42
38.64550000 -11.77160000 379.95001000 -0.06990170 0.55941600 0.82593399 1.905766e-42
38.79250000 -10.17470000 379.13300000 -0.07510350 0.54811001 0.83302802 1.905766e-42
40.01269900 -9.04848000 378.43799000 -0.05453140 0.53659201 0.84207797 1.905766e-42
41.41199900 -7.98297980 378.05499000 -0.03117910 0.52580500 0.85003400 1.905766e-42
42.44210100 -8.05714040 377.50699000 -0.01295160 0.52086103 0.85354298 1.905766e-42
42.77640200 -6.41786000 376.84299000 -0.01476110 0.51148599 0.85916501 1.905766e-42
43.38460200 -5.05699010 375.83401000 -0.01126370 0.50221598 0.86466902 1.905766e-42
43.16960100 -3.39484000 375.17700000 -0.02280280 0.48873401 0.87213498 1.905766e-42
43.17599900 -1.78040000 374.38101000 -0.03100740 0.47302899 0.88050097 1.905766e-42
43.69279900 -0.33152100 373.44601000 -0.03056080 0.45646700 0.88921499 1.905766e-42
43.99810000 1.19384000 372.54099000 -0.03363140 0.44079500 0.89697802 1.905766e-42
43.97160000 2.84562990 371.82599000 -0.04116550 0.42649901 0.90355098 1.905766e-42
43.88850000 4.50704000 371.13800000 -0.04843100 0.41260999 0.90961897 1.905766e-42
44.05670200 6.12304020 370.36401000 -0.05066850 0.39843699 0.91579503 1.905766e-42
44.01599900 7.80487010 369.72400000 -0.05290010 0.38856599 0.91990101 1.905766e-42
44.03630100 9.47651000 369.05600000 -0.05048060 0.37810701 0.92438400 1.905766e-42
43.99399900 11.15590000 368.41000000 -0.04570270 0.36665401 0.92923403 1.905766e-42
43.92350000 12.84080000 367.78000000 -0.03858240 0.35403001 0.93443799 1.905766e-42
43.91899900 14.51940000 367.13101000 -0.02777070 0.34071100 0.93975800 1.905766e-42
44.05040000 16.17919900 366.44699000 -0.01171020 0.32753101 0.94476801 1.905766e-42
44.00740100 17.87750100 365.85199000 0.00218103 0.31218201 0.95002002 1.905766e-42
43.90370200 19.59170000 365.31299000 0.01496420 0.29942501 0.95400202 1.905766e-42
43.82109800 21.30579900 364.76901000 0.02778740 0.28701401 0.95752299 1.905766e-42
43.28939800 23.00620100 364.51199000 0.02364960 0.27138600 0.96218002 1.905766e-42
43.47740200 24.68460100 363.89001000 0.04470920 0.26017901 0.96452498 1.905766e-42
43.13340000 26.41790000 363.54700000 0.04536410 0.24464500 0.96855098 1.905766e-42
42.97950000 28.15449900 363.09900000 0.05309600 0.22974700 0.97180098 1.905766e-42
42.46939800 29.86070100 362.83701000 0.04315840 0.21226500 0.97625899 1.905766e-42
42.38700100 31.58079900 362.31400000 0.05304040 0.20128700 0.97809500 1.905766e-42
42.32580200 33.29900000 361.78000000 0.06399740 0.19146800 0.97940999 1.905766e-42
41.92039900 35.03030000 361.50101000 0.05527140 0.17922001 0.98225498 1.905766e-42
41.40990100 36.74750100 361.32599000 0.03831080 0.16572200 0.98542798 1.905766e-42
40.80180000 38.43579900 361.18600000 0.01237240 0.15030099 0.98856300 1.905766e-42
40.75999800 40.19110100 360.78900000 0.02762490 0.13802400 0.99004400 1.905766e-42
40.04380000 41.84230000 360.76700000 -0.00887632 0.11741900 0.99304301 1.905766e-42
39.87640000 43.60260000 360.43100000 0.00844900 0.10463000 0.99447501 1.905766e-42
39.16439800 45.25579800 360.43301000 0.01206330 0.08576840 0.99624199 1.905766e-42
38.96139900 47.02410100 360.16501000 0.02833280 0.07563420 0.99673301 1.905766e-42
38.56530000 48.77109900 359.98901000 0.03408570 0.06409820 0.99736100 1.905766e-42
37.92490000 50.45330000 359.98199000 0.02731630 0.05060920 0.99834502 1.905766e-42
37.31969800 52.14849900 359.99600000 0.02200620 0.03688280 0.99907702 1.905766e-42
36.73799900 53.85189800 359.98499000 0.01986010 0.02147200 0.99957198 1.905766e-42
36.14559900 55.55160100 359.98599000 0.02235490 0.00680118 0.99972701 1.905766e-42
35.57619900 57.25920100 359.98401000 0.03133380 -0.00389967 0.99950099 1.905766e-42
35.19070100 59.01720000 359.95599000 0.05137000 -0.01365340 0.99858600 1.905766e-42
34.66330000 60.73759800 360.00000000 0.06986070 -0.02839080 0.99715298 1.905766e-42
34.19540000 62.47570000 360.01300000 0.08694740 -0.04255350 0.99530399 1.905766e-42
33.59349800 64.16390200 360.17899000 0.09598410 -0.06023790 0.99355799 1.905766e-42
32.76800200 65.73429900 360.48300000 0.09349150 -0.08348210 0.99211401 1.905766e-42
31.97600000 67.32510400 360.76999000 0.09304010 -0.10863800 0.98971802 1.905766e-42
31.18770000 68.93499800 360.93301000 0.09410070 -0.13655400 0.98615301 1.905766e-42
29.51230000 69.44319900 361.35199000 0.04432980 -0.17283399 0.98395300 1.905766e-42
28.00440000 68.48880000 361.11600000 -0.00168023 -0.18221800 0.98325700 1.905766e-42
26.30349900 67.93219800 360.92300000 -0.02095260 -0.18478100 0.98255599 1.905766e-42
25.46240000 66.34690100 360.78400000 -0.02157740 -0.16927700 0.98533201 1.905766e-42
23.88110000 65.49230200 360.68900000 -0.00777725 -0.15587300 0.98774600 1.905766e-42
22.28270000 64.72989700 360.36600000 0.01764510 -0.13728601 0.99037403 1.905766e-42
20.80620000 63.70220200 360.30801000 0.05153720 -0.11466700 0.99206603 1.905766e-42
19.34770000 62.64730100 360.30099000 0.08531820 -0.09240640 0.99205899 1.905766e-42
17.80649900 61.72460200 360.41599000 0.11700800 -0.07263190 0.99047101 1.905766e-42
16.34650000 60.68109900 360.55600000 0.14560001 -0.05540440 0.98779100 1.905766e-42
14.82440000 59.74480100 360.77200000 0.17140999 -0.04265270 0.98427600 1.905766e-42
13.34300000 58.76120000 361.05200000 0.19296400 -0.03514390 0.98057598 1.905766e-42
12.01240000 57.56900000 361.27100000 0.19272400 -0.02943880 0.98081100 1.905766e-42
10.59850000 56.47359800 361.47299000 0.19238301 -0.01955780 0.98112500 1.905766e-42
9.19544980 55.40150100 361.82300000 0.19704400 -0.00679704 0.98037100 1.905766e-42
7.92477990 54.14099900 362.01401000 0.20729201 0.00988237 0.97822899 1.905766e-42
6.44401980 53.20420100 362.42599000 0.22237299 0.02838140 0.97454798 1.905766e-42
5.42002010 51.75799900 362.74200000 0.24374700 0.04985860 0.96855700 1.905766e-42
4.05020000 50.65670000 363.13000000 0.28715399 0.07029690 0.95530200 1.905766e-42
2.71809010 49.51870000 363.54300000 0.33355501 0.09154710 0.93827498 1.905766e-42
1.40282000 48.42459900 364.10199000 0.38198799 0.11319000 0.91720903 1.905766e-42
0.61552697 46.97580000 364.82401000 0.42209601 0.13426100 0.89655399 1.905766e-42
-0.56758499 45.82420000 365.54099000 0.46918499 0.15238699 0.86985302 1.905766e-42
-1.77846000 44.71590000 366.28000000 0.51439798 0.16681001 0.84117103 1.905766e-42
-2.78192000 43.56919900 367.23801000 0.54709297 0.18174900 0.81710303 1.905766e-42
-3.68867990 42.38000100 368.23999000 0.56850803 0.19699600 0.79874402 1.905766e-42
-5.06328010 41.77520000 369.23199000 0.58493400 0.21173701 0.78295600 1.905766e-42
-5.85753010 40.65879800 370.39899000 0.59865600 0.22321300 0.76927698 1.905766e-42
-6.60522990 39.46950100 371.52499000 0.60871601 0.23278600 0.75846899 1.905766e-42
-7.73039010 38.52420000 372.56400000 0.61502099 0.24039100 0.75097400 1.905766e-42
-8.80086040 37.62220000 373.69601000 0.61772799 0.24514700 0.74720502 1.905766e-42
-9.18153950 36.11920200 374.60999000 0.61795002 0.24725799 0.74632502 1.905766e-42
-9.31803990 34.44559900 375.25900000 0.61800998 0.24938600 0.74556702 1.905766e-42
-8.77421000 32.74129900 375.45801000 0.61948001 0.25066799 0.74391502 1.905766e-42
-8.77178000 31.02669900 376.00601000 0.62025499 0.25243300 0.74267203 1.905766e-42
-8.76527020 29.29620000 376.50101000 0.62103301 0.25419801 0.74141800 1.905766e-42
-8.66361050 27.54000100 376.88199000 0.62202901 0.25592801 0.73998702 1.905766e-42
-7.88521000 25.91939900 376.97101000 0.62468499 0.25712001 0.73733199 1.905766e-42
-8.06223010 24.24959900 377.61899000 0.62397999 0.26347399 0.73568398 1.905766e-42
-7.88204000 22.52249900 378.09299000 0.62390101 0.27036601 0.73324603 1.905766e-42
-7.60895010 20.79390000 378.51401000 0.62386000 0.27763700 0.73055899 1.905766e-42
-7.19270990 19.07869900 378.86700000 0.62441403 0.28502700 0.72723299 1.905766e-42
-7.24898000 17.42090000 379.56601000 0.62249899 0.29304001 0.72568798 1.905766e-42
-7.76422980 15.93080000 380.43500000 0.61783201 0.30089399 0.72646099 1.905766e-42
-7.71319010 14.26630000 381.11801000 0.61559403 0.30932000 0.72482097 1.905766e-42
-7.76422980 12.65790000 381.92401000 0.61231297 0.31554499 0.72491699 1.905766e-42
-7.49144980 10.97290000 382.49600000 0.61214000 0.32080501 0.72275102 1.905766e-42
-7.77478980 9.39972970 383.32300000 0.60749400 0.32654601 0.72409898 1.905766e-42
-7.74916980 7.73122980 383.99799000 0.60570800 0.33200601 0.72311097 1.905766e-42
-7.22210980 6.11089990 384.57901000 0.60869002 0.33628401 0.71861702 1.905766e-42
-7.46336980 4.53548000 385.41501000 0.60413802 0.34218600 0.71967101 1.905766e-42
-7.25568010 2.87791990 386.08499000 0.60482299 0.34699100 0.71678901 1.905766e-42
-7.58974980 1.38516000 387.03400000 0.59811401 0.35301501 0.71947199 1.905766e-42
-7.83410980 -0.12649700 387.98001000 0.59180701 0.35905799 0.72169298 1.905766e-42
-7.82357980 -1.73979000 388.77899000 0.58865303 0.36488900 0.72134799 1.905766e-42
-7.62452980 -3.42821000 389.37000000 0.58872300 0.37053400 0.71840799 1.905766e-42
-6.97263000 -5.05464980 389.78201000 0.59543699 0.37513199 0.71044397 1.905766e-42
-6.91274020 -6.62888000 390.65302000 0.59103000 0.38254100 0.71017301 1.905766e-42
-7.04339980 -8.15777970 391.59399000 0.58281898 0.39003900 0.71287501 1.905766e-42
-6.35969020 -9.79014020 391.92200000 0.58992201 0.39447299 0.70454401 1.905766e-42
-6.32597020 -11.38420000 392.75699000 0.58207601 0.40049499 0.70766598 1.905766e-42
-6.27008010 -12.99080000 393.56699000 0.57312298 0.40622899 0.71169299 1.905766e-42
-5.83964010 -14.64290000 394.13699000 0.56906301 0.41304299 0.71103001 1.905766e-42
-4.47439000 -15.78230000 393.85800000 0.55756098 0.43203101 0.70885402 1.905766e-42
-3.02609990 -15.87050000 392.79300000 0.53606498 0.45191401 0.71302700 1.905766e-42
-1.60120000 -16.50729900 391.89600000 0.50851101 0.47300300 0.71950299 1.905766e-42
-0.01870280 -16.58860000 391.04300000 0.48367900 0.48959199 0.72550303 1.905766e-42
1.59186010 -16.85479900 390.28400000 0.44982201 0.50809401 0.73450798 1.905766e-42
3.18841000 -17.33410100 389.60501000 0.41052800 0.52764499 0.74367797 1.905766e-42
4.84603980 -17.68210000 388.99600000 0.37113601 0.54526401 0.75162798 1.905766e-42
6.47947980 -18.36770100 388.67700000 0.33042401 0.56287402 0.75762302 1.905766e-42
8.13374040 -19.02230100 388.40302000 0.29340401 0.57762003 0.76175398 1.905766e-42
9.88428020 -19.10590000 387.99200000 0.26012301 0.58810300 0.76581401 1.905766e-42
11.43150000 -20.01689900 387.86499000 0.22703101 0.59981197 0.76725602 1.905766e-42
13.23090000 -20.01129900 387.81900000 0.19472300 0.60775203 0.76988399 1.905766e-42
14.99930000 -20.22780000 387.56201000 0.16992000 0.61371398 0.77102602 1.905766e-42
16.61710000 -20.99309900 387.75601000 0.15550800 0.62130302 0.76798397 1.905766e-42
18.25210000 -21.71390000 387.97299000 0.13962600 0.63031298 0.76368201 1.905766e-42
19.91200100 -22.40410000 387.88300000 0.12307300 0.64028901 0.75821000 1.905766e-42
21.69570000 -22.50620100 388.10199000 0.10682000 0.65100503 0.75151998 1.905766e-42
23.40959900 -23.04089900 388.23099000 0.06530450 0.66395801 0.74491298 1.905766e-42
25.19070100 -23.20260000 388.43500000 0.02372270 0.67366397 0.73865700 1.905766e-42
26.86060000 -23.74480100 388.83200000 -0.01748240 0.68311602 0.73010099 1.905766e-42
28.60230100 -24.04030000 389.17700000 -0.05923010 0.68925202 0.72209603 1.905766e-42
30.37949900 -24.04590000 389.46301000 -0.06369640 0.69413501 0.71702099 1.905766e-42
32.15420200 -24.22900000 389.70099000 -0.05133040 0.69593900 0.71626401 1.905766e-42
