# .PCD v0.7 - Point Cloud Data file format
# 2 141 0
# 1 77 0
# 78 141 0
VERSION 0.7
FIELDS x y z normal_x normal_y normal_z curvature
SIZE 4 4 4 4 4 4 4
TYPE F F F F F F F
COUNT 1 1 1 1 1 1 1
WIDTH 141
HEIGHT 1
VIEWPOINT 0 0 0 1 0 0 0
POINTS 141
DATA ascii
-46.85390100 20.36560100 472.89600000 0.34319901 0.81182897 -0.47238499 1.905766e-42
-46.27100000 21.01919900 474.46899000 0.30354100 0.80610502 -0.50799400 1.905766e-42
-45.02130100 21.45690000 475.68799000 0.29161701 0.79478103 -0.53224301 1.905766e-42
-43.77539800 21.90230000 476.90900000 0.28247201 0.79186600 -0.54144001 1.905766e-42
-42.59690100 22.36470000 478.18799000 0.27329099 0.79488999 -0.54172099 1.905766e-42
-41.38880200 22.79750100 479.45099000 0.26765901 0.79596001 -0.54295999 1.905766e-42
-40.36629900 23.28669900 480.84900000 0.25728399 0.80514097 -0.53437197 1.905766e-42
-39.18660000 23.69940000 482.14401000 0.25171700 0.81107599 -0.52801001 1.905766e-42
-37.91719800 24.08420000 483.36099000 0.24827901 0.81296903 -0.52672499 1.905766e-42
-36.36309800 24.40180000 484.21201000 0.25872800 0.79809999 -0.54414803 1.905766e-42
-35.22069900 24.86920000 485.52200000 0.24721800 0.79768503 -0.55007398 1.905766e-42
-33.99459800 25.26269900 486.77899000 0.23482300 0.80043900 -0.55150300 1.905766e-42
-32.74070000 25.64580000 488.01300000 0.22474501 0.80711198 -0.54594898 1.905766e-42
-31.09440000 25.90740000 488.69199000 0.23426600 0.79589701 -0.55827099 1.905766e-42
-29.74430100 26.26950100 489.82599000 0.22854200 0.80025703 -0.55439901 1.905766e-42
-28.24729900 26.57630000 490.77701000 0.22905201 0.79885203 -0.55621201 1.905766e-42
-27.02510100 26.98770000 492.03299000 0.21608400 0.81267297 -0.54117399 1.905766e-42
-25.44300100 27.23979900 492.85400000 0.21867201 0.80766702 -0.54759198 1.905766e-42
-23.86780000 27.46579900 493.69501000 0.21972799 0.80149299 -0.55617303 1.905766e-42
-22.98520100 27.92030000 495.19601000 0.18766300 0.82600200 -0.53151000 1.905766e-42
-21.29439900 28.11270000 495.78299000 0.19512600 0.81010300 -0.55286503 1.905766e-42
-19.74620100 28.38019900 496.66101000 0.19234499 0.80912900 -0.55526102 1.905766e-42
-18.25620100 28.65230000 497.63400000 0.18630099 0.81582397 -0.54746902 1.905766e-42
-16.74140000 28.88769900 498.57700000 0.18118200 0.82277799 -0.53871101 1.905766e-42
-15.06210000 29.02310000 499.21100000 0.18660000 0.81483901 -0.54883301 1.905766e-42
-13.51150000 29.28070100 500.08801000 0.18110099 0.81948400 -0.54373598 1.905766e-42
-11.87330000 29.46349900 500.81100000 0.18109199 0.81347102 -0.55269402 1.905766e-42
-10.29510000 29.64970000 501.65701000 0.17333500 0.81794697 -0.54856002 1.905766e-42
-8.66781040 29.84250100 502.40100000 0.16577500 0.82073301 -0.54673201 1.905766e-42
-7.07614990 30.04710000 503.21701000 0.15574101 0.83024001 -0.53520602 1.905766e-42
-5.46195980 30.18650100 504.00101000 0.14881200 0.83735597 -0.52601302 1.905766e-42
-3.67496990 30.05200000 504.17001000 0.16298901 0.80828702 -0.56577998 1.905766e-42
-2.70322990 30.47850000 505.62399000 0.13097700 0.86193001 -0.48981801 1.905766e-42
-0.91337198 30.58869900 505.78000000 0.13991700 0.84513497 -0.51591700 1.905766e-42
0.72750098 30.72040000 506.50800000 0.13496099 0.85082400 -0.50782400 1.905766e-42
2.38577010 30.83840000 507.19800000 0.13099401 0.85389698 -0.50368601 1.905766e-42
4.18308020 30.74539900 507.23001000 0.14185500 0.82812399 -0.54229897 1.905766e-42
5.74081990 30.97279900 508.10300000 0.12823600 0.84155703 -0.52472502 1.905766e-42
7.39964010 31.09180100 508.79099000 0.12075700 0.84443402 -0.52187097 1.905766e-42
9.18708040 31.02249900 508.99200000 0.12489300 0.82767302 -0.54713702 1.905766e-42
10.87800000 31.11290000 509.60199000 0.11954200 0.82835501 -0.54730099 1.905766e-42
12.67340000 30.98920100 509.63800000 0.12571999 0.80684102 -0.57723600 1.905766e-42
14.26310000 31.16290100 510.46500000 0.11632500 0.81837100 -0.56279403 1.905766e-42
15.96750000 31.20229900 511.04199000 0.11265900 0.81886202 -0.56282502 1.905766e-42
17.76580000 31.13150000 511.07501000 0.11887600 0.80298197 -0.58402801 1.905766e-42
19.55610100 30.98410000 511.19000000 0.12340400 0.79160500 -0.59844202 1.905766e-42
21.34380000 30.77520000 511.21201000 0.12516600 0.78018397 -0.61290002 1.905766e-42
23.13640000 30.61930100 511.25699000 0.12295800 0.77454799 -0.62044901 1.905766e-42
24.77479900 30.76910000 511.98700000 0.11945200 0.80292702 -0.58398598 1.905766e-42
26.56690000 30.60059900 512.00098000 0.11261200 0.80469298 -0.58291298 1.905766e-42
28.35950100 30.44100000 512.03601000 0.10237700 0.81007999 -0.57731199 1.905766e-42
30.13120100 30.35570000 512.34198000 0.09492320 0.83072400 -0.54853100 1.905766e-42
31.87509900 30.30649900 512.78497000 0.12142800 0.85812002 -0.49888399 1.905766e-42
33.66640100 30.12910100 512.78497000 0.14777599 0.86080199 -0.48701400 1.905766e-42
35.44879900 29.87940000 512.80798000 0.17918800 0.85982502 -0.47811401 1.905766e-42
37.21979900 29.57679900 512.91803000 0.21457100 0.85949302 -0.46393099 1.905766e-42
38.90670000 29.24570100 513.45099000 0.25510299 0.86869299 -0.42461199 1.905766e-42
40.53670100 28.55460000 513.12598000 0.28323001 0.85613501 -0.43221799 1.905766e-42
42.15810000 27.93120000 513.59802000 0.32291001 0.86493301 -0.38421401 1.905766e-42
43.83340100 27.27360000 513.56799000 0.32293299 0.87431800 -0.36232799 1.905766e-42
45.47140100 26.53400000 513.46698000 0.30250400 0.88125998 -0.36314201 1.905766e-42
46.44390100 25.51479900 512.34698000 0.27042001 0.86916298 -0.41404000 1.905766e-42
47.11060000 24.37500000 511.12399000 0.22001100 0.85628301 -0.46730599 1.905766e-42
47.98289900 23.12050100 510.17200000 0.17763001 0.82512099 -0.53630602 1.905766e-42
48.81160000 22.27030000 508.81900000 0.13726600 0.78666902 -0.60192102 1.905766e-42
49.61759900 21.58960000 507.36099000 0.10601900 0.75762802 -0.64401799 1.905766e-42
50.62540100 20.88600000 506.04599000 0.09149450 0.73468298 -0.67221302 1.905766e-42
51.93550100 19.91280000 505.28601000 0.08576020 0.72539800 -0.68296599 1.905766e-42
52.91040000 19.04040000 504.04999000 0.07056820 0.72757900 -0.68238401 1.905766e-42
54.01590000 18.02969900 503.05200000 0.06003230 0.72630799 -0.68474299 1.905766e-42
55.34120200 17.09350000 502.27301000 0.05154890 0.73449999 -0.67664802 1.905766e-42
56.78640000 16.25840000 501.59900000 0.04127310 0.74951702 -0.66069698 1.905766e-42
57.61119800 15.67970000 500.74799000 0.03198080 0.75799501 -0.65147603 1.905766e-42
59.29800000 15.07390000 500.91501000 0.02694410 0.76640600 -0.64179099 1.905766e-42
60.24440000 14.24280000 499.62900000 0.01666440 0.76912200 -0.63888502 1.905766e-42
60.86990000 13.30990000 498.22198000 0.01114800 0.76604402 -0.64269203 1.905766e-42
61.50970100 11.98700000 497.18301000 0.01159080 0.76782000 -0.64056098 1.905766e-42
61.40480000 11.14430000 495.59601000 0.02509470 0.76301998 -0.64588702 1.905766e-42
59.70669900 10.69510000 495.20200000 0.02579370 0.77154702 -0.63564903 1.905766e-42
57.97990000 11.13050000 495.46399000 0.02021400 0.78251600 -0.62230200 1.905766e-42
56.26150100 10.85680000 495.00299000 0.02454100 0.78831798 -0.61477900 1.905766e-42
54.64690000 10.35730000 494.38400000 0.03013360 0.79590303 -0.60467398 1.905766e-42
52.85310000 10.50440000 494.35599000 0.03436860 0.79847997 -0.60104001 1.905766e-42
51.06140100 10.40870000 494.21201000 0.04051290 0.80228102 -0.59557003 1.905766e-42
49.30049900 10.73230000 494.39801000 0.04656450 0.80176699 -0.59582001 1.905766e-42
47.50260200 10.81920000 494.39899000 0.05409290 0.80384398 -0.59237599 1.905766e-42
45.71559900 10.99310000 494.52600000 0.05878510 0.80456197 -0.59095198 1.905766e-42
44.11589800 10.58180000 493.81000000 0.06519720 0.81260997 -0.57915002 1.905766e-42
42.83160000 9.92461970 492.73401000 0.07080100 0.82064998 -0.56702900 1.905766e-42
41.19080000 9.57536980 492.08099000 0.07590210 0.82424003 -0.56112999 1.905766e-42
39.43199900 9.52750020 491.70200000 0.08071080 0.82554501 -0.55853599 1.905766e-42
37.75450100 9.35519030 491.07199000 0.08522330 0.82666898 -0.55619800 1.905766e-42
36.13290000 8.97397040 490.39001000 0.08919750 0.82685101 -0.55530298 1.905766e-42
34.34970100 9.21928980 490.37701000 0.09268060 0.82586497 -0.55619901 1.905766e-42
32.56819900 9.47661970 490.37201000 0.09556050 0.82502598 -0.55695599 1.905766e-42
30.77330000 9.61015030 490.35300000 0.09841680 0.82432801 -0.55749202 1.905766e-42
28.98399900 9.69528010 490.17599000 0.10129700 0.82350498 -0.55819201 1.905766e-42
27.24300000 10.10260000 490.38300000 0.10448800 0.82343900 -0.55770099 1.905766e-42
25.45470000 10.30690000 490.38199000 0.10789600 0.82295299 -0.55777001 1.905766e-42
23.65990100 10.43510000 490.33499000 0.11162700 0.82211399 -0.55827200 1.905766e-42
21.88120100 10.71080000 490.34900000 0.11592300 0.82135999 -0.55850703 1.905766e-42
20.09530100 10.89430000 490.21799000 0.12078100 0.81964999 -0.55998701 1.905766e-42
18.42260000 10.67670000 489.59000000 0.12494100 0.81597102 -0.56443000 1.905766e-42
16.64500000 10.96030000 489.58701000 0.13020900 0.81484503 -0.56486601 1.905766e-42
14.86320000 11.19010000 489.47699000 0.13538700 0.81255698 -0.56694001 1.905766e-42
13.13220000 11.20060000 488.98401000 0.13955900 0.81053603 -0.56881899 1.905766e-42
11.37130000 11.20960000 488.60999000 0.14386800 0.80857700 -0.57053101 1.905766e-42
9.60883050 11.29680000 488.25500000 0.14818101 0.80674797 -0.57201397 1.905766e-42
7.83290000 11.53240000 488.07999000 0.15271300 0.80486798 -0.57346803 1.905766e-42
6.10721020 11.99830000 488.29300000 0.15842400 0.80246800 -0.57528001 1.905766e-42
4.32647990 12.19450000 488.11801000 0.16556500 0.79993403 -0.57679600 1.905766e-42
2.56207990 12.52890000 487.99500000 0.17322600 0.79673702 -0.57896698 1.905766e-42
0.78729200 12.82270000 487.93301000 0.18128400 0.79296899 -0.58166701 1.905766e-42
-0.96858400 12.90660000 487.54599000 0.18857799 0.78970098 -0.58379000 1.905766e-42
-2.71336010 13.12380000 487.16101000 0.19625100 0.78595501 -0.58631003 1.905766e-42
-4.47524020 13.47440000 487.04700000 0.20498499 0.78099000 -0.58994502 1.905766e-42
-5.99369000 13.17990000 486.12701000 0.20952500 0.77979302 -0.58993399 1.905766e-42
-7.60964010 12.98120000 485.35901000 0.21571800 0.77773201 -0.59042197 1.905766e-42
-9.30926990 12.98030000 484.76599000 0.22434500 0.77422601 -0.59181303 1.905766e-42
-10.94180000 12.99050000 484.00800000 0.23217200 0.77112401 -0.59284401 1.905766e-42
-12.62410000 13.61470000 484.15201000 0.24406900 0.76309699 -0.59842497 1.905766e-42
-14.30710000 13.65550000 483.51501000 0.25236300 0.75885201 -0.60038000 1.905766e-42
-16.04110000 13.90830000 483.10300000 0.26213399 0.75265002 -0.60399002 1.905766e-42
-17.76680000 14.38740000 482.92300000 0.27340701 0.74395603 -0.60973603 1.905766e-42
-19.46970000 14.67180000 482.41400000 0.28286299 0.73705399 -0.61379099 1.905766e-42
-21.19050000 15.16130000 482.21600000 0.29643899 0.72630399 -0.62016702 1.905766e-42
-22.81880000 15.19910000 481.45001000 0.30933899 0.72163898 -0.61931199 1.905766e-42
-24.44910000 15.20830000 480.68701000 0.32245201 0.71756399 -0.61735398 1.905766e-42
-26.16070000 15.57740000 480.26999000 0.33940101 0.70731699 -0.62008798 1.905766e-42
-27.82970000 16.15990100 479.92999000 0.35777801 0.69392401 -0.62487203 1.905766e-42
-29.48990100 16.79800000 479.65399000 0.37672201 0.67872101 -0.63041198 1.905766e-42
-31.07980000 16.86640000 478.81299000 0.39097700 0.67551702 -0.62515098 1.905766e-42
-32.69860100 17.08580000 478.05701000 0.40704700 0.67009002 -0.62071902 1.905766e-42
-34.31380100 17.53750000 477.40302000 0.41112000 0.66280103 -0.62583899 1.905766e-42
-35.81930200 17.48380100 476.41800000 0.40720099 0.66988999 -0.62083399 1.905766e-42
-37.30369900 17.49780100 475.39999000 0.40727499 0.67990798 -0.60979599 1.905766e-42
-38.67240100 17.27800000 474.25201000 0.41177699 0.69034398 -0.59486598 1.905766e-42
-40.31029900 17.64740000 473.60300000 0.41406301 0.69814801 -0.58407301 1.905766e-42
-41.90309900 18.42960000 473.30099000 0.40846199 0.71523702 -0.56709403 1.905766e-42
-43.54940000 18.96089900 472.80399000 0.40239501 0.73772103 -0.54207498 1.905766e-42
-45.15630000 19.77170000 472.82101000 0.37743399 0.77271903 -0.51034200 1.905766e-42
