# .PCD v0.7 - Point Cloud Data file format
# 4 292 0
# 1 87 0
# 88 197 0
# 198 273 0
# 274 292 0
VERSION 0.7
FIELDS x y z normal_x normal_y normal_z curvature
SIZE 4 4 4 4 4 4 4
TYPE F F F F F F F
COUNT 1 1 1 1 1 1 1
WIDTH 292
HEIGHT 1
VIEWPOINT 0 0 0 1 0 0 0
POINTS 292
DATA ascii
96.29599800 48.59610000 455.33099000 0.70214701 -0.20503899 0.68187100 1.905766e-42
95.29789700 49.18730200 456.70700000 0.69709700 -0.20460200 0.68716401 1.905766e-42
94.62390100 50.47160000 457.77301000 0.69475102 -0.20070800 0.69067901 1.905766e-42
93.53479800 51.13130200 459.04501000 0.68946397 -0.20062999 0.69597900 1.905766e-42
92.40850100 51.95159900 460.18500000 0.68695498 -0.20043699 0.69851100 1.905766e-42
91.37609900 52.72760000 461.43900000 0.68463099 -0.20017400 0.70086402 1.905766e-42
90.29840100 53.40020000 462.71399000 0.68218797 -0.20042500 0.70317101 1.905766e-42
89.16660300 53.94279900 464.00400000 0.67953700 -0.20143400 0.70544499 1.905766e-42
88.09980000 54.75750000 465.20300000 0.67801201 -0.20075101 0.70710599 1.905766e-42
87.05010200 55.54740100 466.43399000 0.67664301 -0.20013000 0.70859200 1.905766e-42
85.91770200 56.07640100 467.72900000 0.67461997 -0.20118800 0.71021903 1.905766e-42
84.71830000 56.52439900 468.99399000 0.67249799 -0.20291699 0.71173799 1.905766e-42
83.70649700 57.39410000 470.20200000 0.67207998 -0.20174800 0.71246499 1.905766e-42
82.63079800 58.13639800 471.44000000 0.67140800 -0.20154200 0.71315700 1.905766e-42
81.47170300 58.47549800 472.77499000 0.66814899 -0.20353299 0.71564800 1.905766e-42
80.37049900 59.16859800 474.01901000 0.66551101 -0.20323500 0.71818602 1.905766e-42
79.22869900 59.82860200 475.24399000 0.66285801 -0.20359901 0.72053200 1.905766e-42
78.04989600 60.48300200 476.43600000 0.66029698 -0.20452100 0.72262001 1.905766e-42
76.98110200 61.39289900 477.56299000 0.65906203 -0.20413500 0.72385502 1.905766e-42
75.74530000 61.85990100 478.78601000 0.65608400 -0.20746200 0.72561198 1.905766e-42
74.51560200 62.30820100 480.02100000 0.65315002 -0.21155700 0.72707498 1.905766e-42
73.48950200 63.21070100 481.19299000 0.65268600 -0.21330400 0.72698200 1.905766e-42
72.27020300 63.60780000 482.45599000 0.64991498 -0.21927200 0.72768903 1.905766e-42
71.03029600 63.99459800 483.70200000 0.64717299 -0.22622800 0.72800303 1.905766e-42
69.91210200 64.77570300 484.87701000 0.64683300 -0.23193100 0.72650898 1.905766e-42
68.80950200 65.46659900 486.12100000 0.65018898 -0.24093300 0.72055900 1.905766e-42
67.64060200 66.00620300 487.37900000 0.65491903 -0.25236100 0.71231699 1.905766e-42
66.43000000 66.33889800 488.66800000 0.65831500 -0.26507899 0.70452398 1.905766e-42
65.26499900 66.70259900 489.99100000 0.66186303 -0.27789199 0.69621402 1.905766e-42
64.09179700 67.09130100 491.29999000 0.66540599 -0.29086000 0.68748498 1.905766e-42
63.02619900 67.69129900 492.62100000 0.67028302 -0.30286899 0.67748803 1.905766e-42
61.86970100 68.14050300 493.92499000 0.67395598 -0.31578401 0.66788000 1.905766e-42
60.68820200 68.58339700 495.20901000 0.67736697 -0.32873899 0.65810698 1.905766e-42
59.57770200 68.96510300 496.57300000 0.68047100 -0.34171399 0.64822203 1.905766e-42
58.37970000 69.23269700 497.88901000 0.68246800 -0.35517699 0.63881701 1.905766e-42
57.21340200 69.53099800 499.22800000 0.68457901 -0.36823401 0.62909102 1.905766e-42
56.03110100 69.53179900 500.58499000 0.68459898 -0.38237801 0.62057400 1.905766e-42
54.80960100 69.48339800 501.90601000 0.68080997 -0.39582399 0.61629599 1.905766e-42
53.86330000 70.26210000 503.22400000 0.68286198 -0.40367100 0.60889298 1.905766e-42
52.80139900 70.08429700 504.66699000 0.67828900 -0.41737300 0.60475099 1.905766e-42
51.60049800 69.95570400 506.00201000 0.67319000 -0.43162501 0.60042900 1.905766e-42
50.65959900 70.45700100 507.45200000 0.67343301 -0.44136801 0.59302700 1.905766e-42
49.44599900 70.31590300 508.77399000 0.66774499 -0.45616099 0.58824599 1.905766e-42
48.49290100 70.65789800 510.26199000 0.66664797 -0.46723601 0.58075100 1.905766e-42
47.32339900 70.58290100 511.62799000 0.66116500 -0.48195699 0.57495999 1.905766e-42
46.01070000 70.22460200 512.80701000 0.65223801 -0.49888200 0.57070398 1.905766e-42
44.96519900 70.46299700 514.25201000 0.64924598 -0.51160800 0.56279403 1.905766e-42
43.99100100 70.85569800 515.71399000 0.64772099 -0.52316600 0.55385399 1.905766e-42
42.72209900 70.66919700 516.97699000 0.63935900 -0.53967398 0.54769802 1.905766e-42
41.39989900 70.33630400 518.15198000 0.62997699 -0.55727202 0.54090500 1.905766e-42
40.09999800 70.16519900 519.38501000 0.62380397 -0.57455301 0.52986503 1.905766e-42
38.97259900 70.35040300 520.77600000 0.62157500 -0.58958501 0.51578498 1.905766e-42
37.86169800 70.48329900 522.18597000 0.61865699 -0.60516500 0.50103801 1.905766e-42
36.64780000 70.66059900 523.50403000 0.61477399 -0.62125599 0.48589501 1.905766e-42
35.43510100 70.16890000 524.73999000 0.60431302 -0.64028901 0.47416899 1.905766e-42
34.08710100 69.51920300 525.73999000 0.59023201 -0.66004002 0.46472901 1.905766e-42
33.19870000 69.64240300 527.30103000 0.58739603 -0.67509401 0.44633400 1.905766e-42
32.26240200 69.77189600 528.83197000 0.58377600 -0.69045001 0.42718199 1.905766e-42
30.84950100 69.08480100 529.71100000 0.56674403 -0.71012300 0.41776401 1.905766e-42
29.53290000 68.76940200 530.89697000 0.55379498 -0.72873700 0.40280700 1.905766e-42
28.30810000 68.60279800 532.20502000 0.54265100 -0.74634302 0.38535899 1.905766e-42
26.96530000 68.26129900 533.35400000 0.52775002 -0.76460999 0.36993399 1.905766e-42
25.62430000 67.97260300 534.52002000 0.50933200 -0.78261799 0.35789800 1.905766e-42
24.45920000 67.83319900 535.88501000 0.49370000 -0.79878497 0.34380600 1.905766e-42
23.00580000 67.26349600 536.78101000 0.47070399 -0.81588101 0.33582199 1.905766e-42
21.67729900 66.92990100 537.94897000 0.45164999 -0.83142197 0.32365000 1.905766e-42
20.08830100 66.40339700 538.61102000 0.42751300 -0.84669697 0.31676099 1.905766e-42
18.69840000 66.16639700 539.72900000 0.40898800 -0.86045402 0.30388799 1.905766e-42
17.06189900 65.48049900 540.03198000 0.38340399 -0.87347901 0.30005801 1.905766e-42
15.57490000 65.22100100 541.01300000 0.36425400 -0.88572901 0.28775701 1.905766e-42
14.13200000 65.11229700 542.08301000 0.34732401 -0.89682198 0.27399999 1.905766e-42
12.49270000 64.48780100 542.48700000 0.32421601 -0.90740597 0.26739299 1.905766e-42
10.79380000 63.95760000 542.75598000 0.30125901 -0.91711700 0.26103699 1.905766e-42
9.36898990 63.85210000 543.85101000 0.28670299 -0.92571503 0.24668500 1.905766e-42
7.64851000 63.43780100 544.17999000 0.25869301 -0.93374097 0.24740000 1.905766e-42
5.96549990 63.14320000 544.74597000 0.23352100 -0.94087499 0.24540401 1.905766e-42
4.21146010 62.74480100 544.67700000 0.20787600 -0.94714803 0.24433000 1.905766e-42
2.46124010 62.36309800 544.50098000 0.18249699 -0.95298100 0.24191301 1.905766e-42
0.99463099 62.32569900 545.54401000 0.16546100 -0.95781302 0.23498100 1.905766e-42
-0.67488903 62.28390100 546.21600000 0.14571300 -0.96273202 0.22784799 1.905766e-42
-2.46387000 62.09149900 546.26599000 0.12216900 -0.96758300 0.22103900 1.905766e-42
-4.66765020 62.24660100 546.07703000 0.09230610 -0.97306103 0.21126200 1.905766e-42
-6.33420990 61.57939900 545.94501000 0.06708950 -0.97704101 0.20221201 1.905766e-42
-8.13228030 61.54499800 546.02100000 0.04202560 -0.98073900 0.19074599 1.905766e-42
-9.86332040 61.36330000 545.56201000 0.01305070 -0.98383403 0.17860600 1.905766e-42
-11.66310000 61.37239800 545.58801000 -0.01355780 -0.98621798 0.16489300 1.905766e-42
-13.45830000 61.50050000 545.55603000 -0.04067330 -0.98766601 0.15120301 1.905766e-42
-15.25060000 61.64770100 545.47998000 -0.06865700 -0.98814601 0.13731000 1.905766e-42
-16.79229900 61.63100100 544.55103000 -0.09954210 -0.98678499 0.12785199 1.905766e-42
-18.31279900 61.64699900 543.58698000 -0.12996501 -0.98425102 0.11983200 1.905766e-42
-19.12280100 61.55009800 541.98297000 -0.15338300 -0.98076397 0.12073100 1.905766e-42
-20.16500100 61.53210100 540.51501000 -0.17863201 -0.97652000 0.12041200 1.905766e-42
-20.78120000 61.45360200 538.82599000 -0.19835301 -0.97214001 0.12490300 1.905766e-42
-21.59919900 61.41389800 537.22302000 -0.21986100 -0.96707100 0.12819800 1.905766e-42
-21.59350000 60.97190100 535.47803000 -0.22971401 -0.96330798 0.13881600 1.905766e-42
-22.44360000 60.91360100 533.89301000 -0.25066599 -0.95749497 0.14272299 1.905766e-42
-23.11920000 60.91210200 532.22400000 -0.26956499 -0.95148897 0.14833499 1.905766e-42
-23.56329900 60.70760000 530.49200000 -0.28518999 -0.94558197 0.15665700 1.905766e-42
-24.01420000 60.56510200 528.75500000 -0.30097899 -0.93917501 0.16541199 1.905766e-42
-24.53280100 60.47869900 527.03400000 -0.31776300 -0.93211901 0.17372499 1.905766e-42
-24.84989900 60.27290000 525.27399000 -0.33235899 -0.92497998 0.18425500 1.905766e-42
-25.97960100 60.54200000 523.89899000 -0.35453099 -0.91656101 0.18499500 1.905766e-42
-26.40679900 60.68520000 522.15601000 -0.37117299 -0.90822101 0.19330101 1.905766e-42
-26.47279900 59.96960100 520.50598000 -0.38133001 -0.90089899 0.20728999 1.905766e-42
-26.73950000 59.65070000 518.75403000 -0.39551601 -0.89194399 0.21909501 1.905766e-42
-27.28070100 59.52930100 517.04199000 -0.41262600 -0.88198400 0.22769199 1.905766e-42
-27.57060100 59.16149900 515.30402000 -0.42700201 -0.87194401 0.23954700 1.905766e-42
-28.26040100 59.08160000 513.64301000 -0.44498599 -0.86100298 0.24629401 1.905766e-42
-28.84020000 58.95299900 511.94400000 -0.46196100 -0.84969002 0.25420299 1.905766e-42
-28.85689900 58.30659900 510.26401000 -0.47316000 -0.83884001 0.26919699 1.905766e-42
-29.40180000 58.10450000 508.56000000 -0.48958600 -0.82659501 0.27757201 1.905766e-42
-29.58449900 57.55559900 506.85599000 -0.50308299 -0.81428099 0.28957701 1.905766e-42
-30.52829900 57.86800000 505.35501000 -0.52147400 -0.80337602 0.28749201 1.905766e-42
-30.90800100 57.41790000 503.65399000 -0.53606600 -0.79111803 0.29455900 1.905766e-42
-31.26740100 56.87789900 501.97501000 -0.55020899 -0.77882499 0.30116701 1.905766e-42
-31.33560000 56.20399900 500.30801000 -0.56274498 -0.76635200 0.30987400 1.905766e-42
-31.70260000 55.85390100 498.58099000 -0.57753199 -0.75379002 0.31345999 1.905766e-42
-32.05360000 55.52920200 496.84500000 -0.59223503 -0.74111098 0.31624699 1.905766e-42
-32.19129900 54.74449900 495.23099000 -0.60538000 -0.72740400 0.32310700 1.905766e-42
-32.31420100 54.13259900 493.54300000 -0.61942297 -0.71291101 0.32874399 1.905766e-42
-32.89220000 53.94490100 491.84900000 -0.63469601 -0.69996899 0.32742000 1.905766e-42
-33.14110200 53.43629800 490.14001000 -0.64963001 -0.68439901 0.33102700 1.905766e-42
-33.19960000 52.57600000 488.56000000 -0.66434097 -0.66596401 0.33932701 1.905766e-42
-33.11520000 51.70349900 486.98801000 -0.67399698 -0.65242398 0.34651300 1.905766e-42
-33.61080200 51.39260100 485.28601000 -0.68090302 -0.64088601 0.35445300 1.905766e-42
-33.76079900 50.95140100 483.54700000 -0.68279302 -0.63063598 0.36890700 1.905766e-42
-33.96799900 50.10609800 481.97101000 -0.68273801 -0.62205899 0.38329101 1.905766e-42
-34.17170000 49.24850100 480.40201000 -0.68270999 -0.61375201 0.39650401 1.905766e-42
-34.46699900 48.52080200 478.78201000 -0.68390203 -0.60488099 0.40791899 1.905766e-42
-34.50830100 47.47340000 477.31900000 -0.68247700 -0.59850699 0.41954100 1.905766e-42
-35.12250100 47.02159900 475.68799000 -0.68636501 -0.58883798 0.42681801 1.905766e-42
-35.33900100 46.09750000 474.15900000 -0.68665999 -0.58205098 0.43556201 1.905766e-42
-35.79190100 45.31499900 472.60199000 -0.68858099 -0.57467598 0.44227201 1.905766e-42
-36.02669900 44.46730000 471.03201000 -0.68963802 -0.56847399 0.44859400 1.905766e-42
-36.35409900 43.53929900 469.52499000 -0.69088399 -0.56274700 0.45386699 1.905766e-42
-36.56230200 42.63800000 467.98099000 -0.69209802 -0.55765498 0.45828101 1.905766e-42
-36.84849900 41.84009900 466.39301000 -0.69454598 -0.55300999 0.46020201 1.905766e-42
-37.04079800 40.72399900 464.99399000 -0.69723898 -0.55002803 0.45970199 1.905766e-42
-37.60710100 40.21099900 463.36401000 -0.70293301 -0.54577303 0.45608899 1.905766e-42
-37.71300100 39.05279900 461.98999000 -0.70576298 -0.54268903 0.45539701 1.905766e-42
-38.01979800 38.15280200 460.46201000 -0.71024299 -0.53885102 0.45298401 1.905766e-42
-38.22900000 37.18849900 458.95599000 -0.71454000 -0.53496802 0.45082399 1.905766e-42
-38.41920100 36.13280100 457.51099000 -0.71876299 -0.53092003 0.44889200 1.905766e-42
-38.70249900 35.22710000 455.98099000 -0.72384000 -0.52646399 0.44597101 1.905766e-42
-39.19670100 34.61349900 454.36301000 -0.73004401 -0.52180398 0.44131199 1.905766e-42
-39.28260000 33.48389800 452.96399000 -0.73447001 -0.51688999 0.43974900 1.905766e-42
-39.65599800 32.69120000 451.39200000 -0.74045300 -0.51156199 0.43592799 1.905766e-42
-40.23989900 32.16009900 449.77399000 -0.74718797 -0.50627500 0.43057600 1.905766e-42
-40.56010100 31.34129900 448.20300000 -0.75001502 -0.50088501 0.43196201 1.905766e-42
-40.84249900 30.30649900 446.75800000 -0.74801302 -0.50064498 0.43569699 1.905766e-42
-41.16050000 29.41510000 445.22699000 -0.74683398 -0.50016099 0.43826699 1.905766e-42
-41.24570100 28.37410000 443.76099000 -0.74444300 -0.50187302 0.44037199 1.905766e-42
-41.62250100 27.63870000 442.16199000 -0.74423897 -0.50161600 0.44101000 1.905766e-42
-41.88320200 26.76490000 440.60999000 -0.74325901 -0.50295299 0.44113901 1.905766e-42
-41.77170200 25.54340000 439.29199000 -0.74015701 -0.50746298 0.44119099 1.905766e-42
-42.13940000 25.25190000 437.55499000 -0.74167299 -0.50683701 0.43936101 1.905766e-42
-41.94189800 23.68140000 436.69800000 -0.73745602 -0.51344001 0.43879101 1.905766e-42
-41.57560000 22.19120000 435.75699000 -0.73343199 -0.51994002 0.43788099 1.905766e-42
-41.04299900 20.74000000 434.83499000 -0.72936600 -0.52643502 0.43691200 1.905766e-42
-40.42409900 19.17000000 434.20901000 -0.72461402 -0.53321600 0.43659401 1.905766e-42
-39.89009900 17.69910000 433.31900000 -0.72097898 -0.53900898 0.43549800 1.905766e-42
-39.22840100 16.22150000 432.53299000 -0.71705800 -0.54471499 0.43487099 1.905766e-42
-38.50980000 14.70770000 431.87500000 -0.71284902 -0.55022800 0.43485099 1.905766e-42
-37.74280200 13.16990000 431.33899000 -0.70832801 -0.55548602 0.43555301 1.905766e-42
-37.17279800 11.75290000 430.38699000 -0.70464301 -0.55858999 0.43755600 1.905766e-42
-36.17440000 10.26580000 430.20901000 -0.69537699 -0.56811798 0.44010499 1.905766e-42
-35.58250000 8.86297040 429.24899000 -0.68658298 -0.57559001 0.44418401 1.905766e-42
-34.78939800 7.40604020 428.54999000 -0.67723399 -0.58465099 0.44669601 1.905766e-42
-33.96030000 5.96149020 427.86801000 -0.66796398 -0.59380800 0.44857201 1.905766e-42
-32.87319900 4.53758000 427.69199000 -0.65789598 -0.60415500 0.44963300 1.905766e-42
-32.08589900 3.08996010 426.96799000 -0.64895397 -0.61283302 0.45088300 1.905766e-42
-31.20890000 1.70391000 426.22601000 -0.64007199 -0.62150002 0.45171300 1.905766e-42
-30.51700000 0.31410599 425.31601000 -0.63220900 -0.62929600 0.45199400 1.905766e-42
-29.65850100 -1.06864000 424.54700000 -0.62381500 -0.63759702 0.45202300 1.905766e-42
-28.40600000 -2.35950990 424.47699000 -0.61358398 -0.64679199 0.45296100 1.905766e-42
-28.08950000 -3.52665000 423.14401000 -0.60922402 -0.65206099 0.45129001 1.905766e-42
-26.80500000 -4.78500990 423.06400000 -0.59910297 -0.66070998 0.45225900 1.905766e-42
-26.32220100 -6.02588990 421.85199000 -0.59416199 -0.66664898 0.45005599 1.905766e-42
-25.71980100 -7.29500010 420.72699000 -0.58789498 -0.67412102 0.44714701 1.905766e-42
-24.94899900 -8.60476970 419.76199000 -0.58013701 -0.68297303 0.44383401 1.905766e-42
-23.96970000 -9.89684960 418.98001000 -0.57103503 -0.69265997 0.44061401 1.905766e-42
-22.82720000 -11.17450000 418.43100000 -0.56067699 -0.70277703 0.43788800 1.905766e-42
-22.04290000 -12.41490000 417.38800000 -0.55258399 -0.71229798 0.43276101 1.905766e-42
-21.07990100 -13.69230000 416.56299000 -0.54295701 -0.72237802 0.42821401 1.905766e-42
-19.89300000 -14.92220000 415.99899000 -0.53173202 -0.73266602 0.42480600 1.905766e-42
-18.95439900 -16.07329900 414.98199000 -0.52238101 -0.74238199 0.41950801 1.905766e-42
-17.85730000 -17.23550000 414.15399000 -0.51160800 -0.75224501 0.41519299 1.905766e-42
-16.82749900 -18.42050000 413.27301000 -0.50097299 -0.76171499 0.41087201 1.905766e-42
-15.95250000 -19.55600000 412.18500000 -0.49158800 -0.77026403 0.40624499 1.905766e-42
-15.16040000 -20.69440100 411.03699000 -0.48279101 -0.77793199 0.40216199 1.905766e-42
-14.01800000 -21.83729900 410.24500000 -0.47476900 -0.78269702 0.40246701 1.905766e-42
-13.09330000 -22.96690000 409.19101000 -0.47141099 -0.78363198 0.40458900 1.905766e-42
-12.02120000 -24.07320000 408.26001000 -0.46721101 -0.78394502 0.40883201 1.905766e-42
-11.19450000 -25.20100000 407.12701000 -0.46520901 -0.78237802 0.41408399 1.905766e-42
-10.16450000 -26.30789900 406.14999000 -0.46197000 -0.78008097 0.42196900 1.905766e-42
-8.86244960 -27.26840000 405.36200000 -0.45679301 -0.77753800 0.43217400 1.905766e-42
-7.45943020 -28.35180100 405.04901000 -0.44862300 -0.77574903 0.44379199 1.905766e-42
-6.33489990 -29.39399900 404.10599000 -0.43982300 -0.77314401 0.45695201 1.905766e-42
-4.90409990 -29.33840000 405.19699000 -0.43002999 -0.77681100 0.46004200 1.905766e-42
-4.64057020 -28.81150100 406.89700000 -0.42088699 -0.78604603 0.45275399 1.905766e-42
-3.21248010 -28.76670100 407.99200000 -0.40574101 -0.79245698 0.45539701 1.905766e-42
-2.91256000 -28.33630000 409.71399000 -0.39713499 -0.79948598 0.45067301 1.905766e-42
-2.05398990 -27.85600100 411.22101000 -0.38570601 -0.80554301 0.44981200 1.905766e-42
-1.34904000 -27.35770000 412.80099000 -0.37565699 -0.81044698 0.44950899 1.905766e-42
-0.12414000 -27.18720100 414.10901000 -0.36184099 -0.81499898 0.45260200 1.905766e-42
0.66611302 -26.67330000 415.64200000 -0.35179299 -0.81813902 0.45485201 1.905766e-42
1.78907000 -26.38310100 417.01901000 -0.33902001 -0.82105899 0.45926899 1.905766e-42
2.82662010 -25.99880000 418.43900000 -0.32710800 -0.82289398 0.46459201 1.905766e-42
4.09813980 -25.60710000 419.65100000 -0.31356201 -0.82444000 0.47114500 1.905766e-42
4.95932010 -25.13769900 421.16000000 -0.30311799 -0.82371402 0.47918200 1.905766e-42
5.88476990 -24.58760100 422.60300000 -0.29171100 -0.82146800 0.48999399 1.905766e-42
7.20589020 -24.30450100 423.79199000 -0.27607399 -0.82042497 0.50068498 1.905766e-42
8.16337970 -23.77070000 425.22000000 -0.26377201 -0.81753200 0.51192403 1.905766e-42
9.47717950 -23.40670000 426.39499000 -0.24814200 -0.81608701 0.52194601 1.905766e-42
10.55670000 -22.88100100 427.73599000 -0.23476900 -0.81336701 0.53227597 1.905766e-42
11.74830000 -22.37809900 428.98801000 -0.22041500 -0.81095898 0.54199898 1.905766e-42
12.69650000 -21.84219900 430.42099000 -0.20837700 -0.80752999 0.55179101 1.905766e-42
14.06800000 -21.30719900 431.45700000 -0.19273400 -0.80557400 0.56027198 1.905766e-42
15.23760000 -20.63890100 432.65100000 -0.17919099 -0.80250800 0.56909698 1.905766e-42
16.41050000 -20.14889900 433.92499000 -0.16543201 -0.79947299 0.57747298 1.905766e-42
17.67740100 -19.63800000 435.09698000 -0.15123799 -0.79673398 0.58510000 1.905766e-42
18.87999900 -19.01140000 436.28101000 -0.13862801 -0.79430300 0.59149402 1.905766e-42
19.93840000 -18.26079900 437.52899000 -0.12720001 -0.79124898 0.59811801 1.905766e-42
21.30640000 -17.57659900 438.47800000 -0.11249700 -0.78904903 0.60394198 1.905766e-42
22.42869900 -16.86430000 439.69101000 -0.09974650 -0.78588498 0.61027402 1.905766e-42
23.43670100 -16.01709900 440.91901000 -0.08794650 -0.78228498 0.61668098 1.905766e-42
24.87319900 -15.36740000 441.78699000 -0.07162010 -0.77967101 0.62207901 1.905766e-42
25.46810000 -14.40480000 443.18701000 -0.06353420 -0.77523500 0.62846899 1.905766e-42
26.71299900 -13.67520000 444.26300000 -0.04853300 -0.77167499 0.63416302 1.905766e-42
27.82790000 -12.81640000 445.38501000 -0.03463410 -0.76762497 0.63996202 1.905766e-42
28.83950000 -11.89570000 446.55499000 -0.02156760 -0.76324302 0.64575100 1.905766e-42
29.78010000 -10.89530000 447.71899000 -0.00894244 -0.75850302 0.65160799 1.905766e-42
30.91029900 -10.00770000 448.80301000 0.00565156 -0.75368202 0.65721500 1.905766e-42
31.99309900 -8.97179030 449.79999000 0.01970920 -0.74859101 0.66273898 1.905766e-42
33.59249900 -8.36277010 450.35800000 0.03827230 -0.74430197 0.66674501 1.905766e-42
35.37429800 -8.12726020 450.45499000 0.05751620 -0.74116999 0.66884899 1.905766e-42
36.86029800 -7.44742010 451.20999000 0.07433020 -0.73597097 0.67292100 1.905766e-42
38.55139900 -6.96097990 451.58899000 0.09219770 -0.73142999 0.67565501 1.905766e-42
40.20629900 -6.38073020 451.99399000 0.10927400 -0.72650301 0.67841899 1.905766e-42
41.98989900 -6.14158010 452.03400000 0.12620500 -0.72278899 0.67944801 1.905766e-42
43.68780100 -5.60902980 452.30600000 0.14058299 -0.71725202 0.68248498 1.905766e-42
45.42369800 -5.17831990 452.10300000 0.15299501 -0.71200299 0.68530601 1.905766e-42
47.06990100 -4.58785010 452.52899000 0.16616300 -0.70583498 0.68861300 1.905766e-42
48.73899800 -3.92423010 452.64499000 0.18072000 -0.69845301 0.69246203 1.905766e-42
50.40750100 -3.25034000 452.69101000 0.19716901 -0.68915302 0.69727498 1.905766e-42
52.11100000 -2.67532990 452.77802000 0.21383300 -0.67979801 0.70153397 1.905766e-42
53.81160000 -2.10893990 452.94199000 0.23068200 -0.67018199 0.70543700 1.905766e-42
55.50970100 -1.53227000 452.78799000 0.24722899 -0.66110897 0.70838702 1.905766e-42
57.02489900 -0.61764503 453.11600000 0.26415199 -0.65043801 0.71214700 1.905766e-42
58.73059800 -0.19162899 452.73001000 0.27990100 -0.64217597 0.71362799 1.905766e-42
60.44850200 0.34557199 452.73700000 0.29635799 -0.63264000 0.71549898 1.905766e-42
62.07540100 1.11522000 452.70801000 0.31278899 -0.62264401 0.71727097 1.905766e-42
63.72340000 1.80641000 452.49200000 0.32871801 -0.61319900 0.71828401 1.905766e-42
65.27200300 2.55050990 451.95499000 0.34382200 -0.60446602 0.71861500 1.905766e-42
66.94879900 3.20470000 451.93799000 0.35908401 -0.59489202 0.71913999 1.905766e-42
68.55950200 4.00719980 451.89801000 0.37393501 -0.58517200 0.71954602 1.905766e-42
70.19480100 4.74893000 451.77200000 0.38819200 -0.57590699 0.71947098 1.905766e-42
71.82920100 5.02713010 451.07101000 0.40030199 -0.56938499 0.71802402 1.905766e-42
73.42610200 5.79972980 450.76599000 0.41298699 -0.55947900 0.71862698 1.905766e-42
75.02310200 6.51371000 450.34201000 0.42698699 -0.54808199 0.71922702 1.905766e-42
76.63349900 7.28901000 450.12900000 0.44188401 -0.53597701 0.71935201 1.905766e-42
78.25959800 7.77060990 449.52600000 0.45579699 -0.52516598 0.71864498 1.905766e-42
79.75219700 8.74324040 449.26801000 0.47150001 -0.51257598 0.71760303 1.905766e-42
81.32920100 9.26725010 448.57599000 0.48579800 -0.50130498 0.71602601 1.905766e-42
82.89769700 9.92710020 447.98999000 0.50079399 -0.48927400 0.71401399 1.905766e-42
84.17540000 11.17210000 447.75000000 0.51667100 -0.47672999 0.71118200 1.905766e-42
85.58689900 11.73770000 446.78699000 0.53058398 -0.46526599 0.70852500 1.905766e-42
87.04129800 12.46950000 446.01901000 0.54544598 -0.45291501 0.70523500 1.905766e-42
88.61830100 13.19840000 445.54800000 0.56053603 -0.44038099 0.70133001 1.905766e-42
90.07460000 13.78160000 444.66599000 0.57455099 -0.42802599 0.69762802 1.905766e-42
91.44439700 14.54090000 443.77802000 0.58892697 -0.41534099 0.69329399 1.905766e-42
92.88330100 15.36600000 443.07901000 0.60361302 -0.40252399 0.68820399 1.905766e-42
94.33210000 16.17810100 442.38501000 0.61807197 -0.38973400 0.68271101 1.905766e-42
95.31919900 17.68009900 442.48300000 0.63169199 -0.38039199 0.67547500 1.905766e-42
95.23719800 19.20179900 443.44101000 0.63680601 -0.37932301 0.67126203 1.905766e-42
94.94120000 20.61809900 444.51199000 0.63924801 -0.37915501 0.66903198 1.905766e-42
94.88120300 22.18910000 445.38800000 0.64371198 -0.37575001 0.66666901 1.905766e-42
94.79160300 23.59450000 446.50900000 0.64612198 -0.37198901 0.66644597 1.905766e-42
95.33360300 25.27890000 446.84000000 0.65497297 -0.36188799 0.66336000 1.905766e-42
95.57930000 27.01549900 447.24500000 0.66173297 -0.35190099 0.66202301 1.905766e-42
95.61620300 28.54490100 448.19299000 0.66458899 -0.34320000 0.66372800 1.905766e-42
95.77130100 30.22250000 448.82700000 0.66922498 -0.33199701 0.66476798 1.905766e-42
95.67250100 31.78820000 449.70901000 0.67122698 -0.32152599 0.66788799 1.905766e-42
95.47760000 33.33219900 450.61401000 0.67249000 -0.31074700 0.67171001 1.905766e-42
95.63490300 35.02439900 451.20700000 0.67675197 -0.29718700 0.67356300 1.905766e-42
95.92260000 36.77320100 451.52100000 0.68251401 -0.28237700 0.67412102 1.905766e-42
96.02320100 38.39810200 452.28900000 0.68561500 -0.26870099 0.67655897 1.905766e-42
96.17230200 40.11190000 452.81900000 0.68995100 -0.25399700 0.67782903 1.905766e-42
96.11599700 41.78020100 453.49200000 0.69300699 -0.24027400 0.67971301 1.905766e-42
96.46019700 43.53860100 453.66501000 0.69769502 -0.22901800 0.67880201 1.905766e-42
96.62920400 45.31549800 453.89700000 0.70101601 -0.21936400 0.67856902 1.905766e-42
96.52369700 46.93569900 454.67401000 0.70163399 -0.21192700 0.68029100 1.905766e-42
