# .PCD v0.7 - Point Cloud Data file format
# 3 75 0
# 1 21 0
# 22 47 0
# 48 75 0
VERSION 0.7
FIELDS x y z normal_x normal_y normal_z curvature
SIZE 4 4 4 4 4 4 4
TYPE F F F F F F F
COUNT 1 1 1 1 1 1 1
WIDTH 75
HEIGHT 1
VIEWPOINT 0 0 0 1 0 0 0
POINTS 75
DATA ascii
-27.94360000 22.41210000 384.75201000 0.08501890 -0.76088500 -0.64329302 1.905766e-42
-26.56889900 23.27100000 383.97000000 0.10633000 -0.76641899 -0.63347900 1.905766e-42
-24.80390000 23.62150000 383.92899000 0.10649200 -0.76624298 -0.63366503 1.905766e-42
-23.04960100 24.00160000 383.79401000 0.08869930 -0.77023900 -0.63155699 1.905766e-42
-21.26380000 23.88740000 383.98901000 0.06547120 -0.77357203 -0.63031799 1.905766e-42
-19.46800000 24.00919900 383.99399000 0.04595350 -0.77625197 -0.62874597 1.905766e-42
-17.67090000 24.00980000 384.09601000 0.03366710 -0.77669102 -0.62898201 1.905766e-42
-15.87160000 24.04369900 384.13699000 0.02182820 -0.77740502 -0.62862098 1.905766e-42
-14.10190000 24.27300100 383.90201000 0.00611955 -0.77984703 -0.62594002 1.905766e-42
-12.53720000 24.80590100 383.19000000 -0.01165780 -0.78356302 -0.62120301 1.905766e-42
-10.73780000 24.82469900 383.14700000 -0.03076610 -0.78471500 -0.61909300 1.905766e-42
-8.95193000 24.93030000 382.94800000 -0.02347620 -0.78349501 -0.62095398 1.905766e-42
-7.28103020 25.30719900 382.39499000 -0.01452290 -0.78418303 -0.62036002 1.905766e-42
-5.48131990 25.27500000 382.39099000 -0.01558360 -0.78801697 -0.61545599 1.905766e-42
-3.68301010 25.19739900 382.39700000 -0.03280090 -0.79196399 -0.60968602 1.905766e-42
-1.88324000 25.16910000 382.39001000 -0.05469210 -0.79266202 -0.60720301 1.905766e-42
-0.30745399 25.50709900 381.58899000 -0.07297360 -0.79139900 -0.60692900 1.905766e-42
1.49200000 25.47050100 381.56400000 -0.09664960 -0.79230398 -0.60242301 1.905766e-42
3.23256990 25.60110100 381.12399000 -0.10209000 -0.79169500 -0.60232598 1.905766e-42
4.00408980 25.65329900 380.86401000 -0.10170900 -0.79073000 -0.60365701 1.905766e-42
5.30159000 24.76919900 381.74399000 -0.10338800 -0.79107398 -0.60292101 1.905766e-42
6.95410010 24.27529900 382.25900000 -0.10441500 -0.78930801 -0.60505497 1.905766e-42
6.48495010 23.19179900 383.61801000 -0.10321400 -0.78526002 -0.61050200 1.905766e-42
6.52876000 22.10650100 385.05301000 -0.09977430 -0.77926898 -0.61869597 1.905766e-42
6.92022990 20.98370000 386.40399000 -0.09716540 -0.76838499 -0.63256902 1.905766e-42
6.44310000 19.88419900 387.74701000 -0.09511300 -0.75526798 -0.64847898 1.905766e-42
6.62433000 18.68330000 389.07599000 -0.09206310 -0.74193299 -0.66412401 1.905766e-42
7.24592020 17.50890000 390.29001000 -0.08842240 -0.72964799 -0.67808199 1.905766e-42
7.38856980 16.29140100 391.60800000 -0.08484040 -0.71588701 -0.69304198 1.905766e-42
7.17842010 15.07210000 392.91501000 -0.08163440 -0.70174599 -0.70773500 1.905766e-42
7.14423990 13.76160000 394.14899000 -0.08096990 -0.68760997 -0.72155100 1.905766e-42
7.37075000 12.51180000 395.42401000 -0.08170640 -0.67009503 -0.73776501 1.905766e-42
7.13115980 11.14970000 396.57599000 -0.08588160 -0.65236199 -0.75302601 1.905766e-42
6.34362980 9.91123010 397.61801000 -0.09371290 -0.63699698 -0.76514900 1.905766e-42
5.93471000 8.57306000 398.75101000 -0.10013600 -0.62226802 -0.77637303 1.905766e-42
5.98655990 7.14625980 399.84698000 -0.10266900 -0.60995400 -0.78575802 1.905766e-42
6.25170990 5.71823980 400.91000000 -0.10329600 -0.59706098 -0.79551798 1.905766e-42
5.69669010 4.37923000 401.97699000 -0.10680400 -0.58422297 -0.80453497 1.905766e-42
5.72560980 2.91845010 403.02899000 -0.10597000 -0.57151002 -0.81372398 1.905766e-42
5.93541000 1.44634000 404.04300000 -0.10306800 -0.55808198 -0.82336003 1.905766e-42
5.33289000 0.04281300 404.99500000 -0.10564600 -0.54314899 -0.83296400 1.905766e-42
4.60552980 -1.27263000 405.98599000 -0.10743300 -0.53220302 -0.83977300 1.905766e-42
4.00994010 -2.66305990 406.96100000 -0.09819760 -0.53059101 -0.84192097 1.905766e-42
3.19409990 -3.97024990 407.89200000 -0.07689730 -0.52132303 -0.84988701 1.905766e-42
1.71528010 -4.83046010 408.45099000 -0.05891520 -0.50563800 -0.86073202 1.905766e-42
0.40505499 -5.82254980 409.18600000 -0.04185460 -0.48933700 -0.87108999 1.905766e-42
-0.93557298 -6.88889980 409.73801000 -0.03322090 -0.47607499 -0.87877703 1.905766e-42
-2.25542000 -7.91935010 410.39899000 -0.03101600 -0.46991801 -0.88216501 1.905766e-42
-4.05365990 -7.98547980 410.44299000 -0.04123740 -0.47762299 -0.87759697 1.905766e-42
-5.81719020 -7.62604000 410.41501000 -0.05138290 -0.49004999 -0.87017900 1.905766e-42
-6.90654990 -6.34506990 409.77301000 -0.04370280 -0.49534199 -0.86759800 1.905766e-42
-8.26599980 -5.34636020 409.14499000 -0.02975860 -0.50163299 -0.86456901 1.905766e-42
-9.52474020 -4.25194980 408.46799000 -0.01151550 -0.50682700 -0.86197102 1.905766e-42
-10.80940000 -3.13448000 407.88400000 0.00633444 -0.51558203 -0.85681701 1.905766e-42
-12.00250000 -2.02438000 407.12000000 0.02225900 -0.52315801 -0.85194498 1.905766e-42
-12.77980000 -0.62041003 406.30499000 0.03386670 -0.52915603 -0.84784800 1.905766e-42
-13.81120000 0.59074003 405.46301000 0.04795160 -0.53666902 -0.84242898 1.905766e-42
-15.20620000 1.50016000 404.77899000 0.05383500 -0.54819101 -0.83461797 1.905766e-42
-16.00840000 2.83118010 403.87100000 0.05456030 -0.56007600 -0.82664198 1.905766e-42
-16.69220000 4.18225000 402.89801000 0.05593520 -0.57166398 -0.81857902 1.905766e-42
-17.66379900 5.38329980 401.97400000 0.05498500 -0.59091800 -0.80485600 1.905766e-42
-18.43140000 6.65944000 400.96301000 0.05761600 -0.60815603 -0.79172403 1.905766e-42
-19.50830100 7.74098010 400.00900000 0.05769140 -0.62322497 -0.77991199 1.905766e-42
-20.15469900 9.03106020 398.93301000 0.05874260 -0.63277298 -0.77210599 1.905766e-42
-21.00410100 10.24560000 397.91101000 0.06125930 -0.64050299 -0.76550901 1.905766e-42
-21.57140000 11.50440000 396.75699000 0.06668120 -0.64794898 -0.75875998 1.905766e-42
-21.63369900 12.83150000 395.54199000 0.07112780 -0.66025901 -0.74766201 1.905766e-42
-22.69780000 13.85860000 394.51599000 0.08618480 -0.67621100 -0.73164898 1.905766e-42
-23.26280000 15.10740000 393.34900000 0.09585860 -0.69370699 -0.71385002 1.905766e-42
-24.24830100 16.08550100 392.20401000 0.10736000 -0.70883602 -0.69715500 1.905766e-42
-24.85210000 17.17860000 390.90701000 0.10965500 -0.71325397 -0.69227499 1.905766e-42
-25.85070000 18.21760000 389.82901000 0.11190100 -0.71738303 -0.68763399 1.905766e-42
-26.34930000 19.36669900 388.53601000 0.11028800 -0.72417903 -0.68073499 1.905766e-42
-26.15790000 20.54690000 387.19101000 0.10873500 -0.74216098 -0.66134202 1.905766e-42
-27.30349900 21.36660000 386.07001000 0.10628500 -0.75158697 -0.65101498 1.905766e-42
