# .PCD v0.7 - Point Cloud Data file format
# 2 58 0
# 1 31 0
# 32 58 0
VERSION 0.7
FIELDS x y z normal_x normal_y normal_z curvature
SIZE 4 4 4 4 4 4 4
TYPE F F F F F F F
COUNT 1 1 1 1 1 1 1
WIDTH 58
HEIGHT 1
VIEWPOINT 0 0 0 1 0 0 0
POINTS 58
DATA ascii
28.78890000 -15.57160000 486.83200000 0.05799800 -0.64931202 0.75830698 1.905766e-42
28.71810000 -13.97260000 488.22198000 0.02232170 -0.63844800 0.76934099 1.905766e-42
27.13439900 -14.55570000 487.59601000 -0.09123060 -0.63593203 0.76633298 1.905766e-42
25.60479900 -15.21550000 486.91400000 -0.13380399 -0.64030898 0.75637400 1.905766e-42
23.91260000 -15.44380000 486.34500000 -0.14928301 -0.64501101 0.74945003 1.905766e-42
22.35070000 -15.99860000 485.64301000 -0.15422900 -0.64979601 0.74429703 1.905766e-42
20.64060000 -16.15959900 485.10501000 -0.17637600 -0.64083302 0.74714500 1.905766e-42
18.95500000 -16.06580000 484.48001000 -0.18720600 -0.63615102 0.74850899 1.905766e-42
17.34140000 -16.61100000 483.89801000 -0.17188500 -0.65825498 0.73290902 1.905766e-42
15.63720000 -16.82150100 483.35800000 -0.17097300 -0.68069899 0.71233201 1.905766e-42
13.88640000 -16.81220100 482.94000000 -0.19033401 -0.70819300 0.67987901 1.905766e-42
13.55820000 -17.99690100 481.62500000 -0.23522100 -0.70086002 0.67339897 1.905766e-42
12.99890000 -18.88540100 480.16299000 -0.27286100 -0.70414102 0.65553999 1.905766e-42
12.85220000 -20.15259900 478.89301000 -0.29018199 -0.71184599 0.63958597 1.905766e-42
12.70280000 -21.38349900 477.58801000 -0.30310500 -0.72239202 0.62151200 1.905766e-42
12.26410000 -22.21830000 476.05499000 -0.32893801 -0.73010600 0.59895301 1.905766e-42
12.09570000 -23.27990000 474.61099000 -0.34671500 -0.73847800 0.57830697 1.905766e-42
12.01590000 -24.42740100 473.22699000 -0.36523101 -0.74366099 0.55997699 1.905766e-42
11.99210000 -25.49480100 471.77802000 -0.36048999 -0.75812900 0.54340303 1.905766e-42
11.90650000 -26.51180100 470.29501000 -0.35765901 -0.77356398 0.52314198 1.905766e-42
11.76530000 -27.45030000 468.76501000 -0.36278501 -0.78573602 0.50100398 1.905766e-42
11.87380000 -28.49920100 467.30701000 -0.35743800 -0.79785401 0.48545599 1.905766e-42
11.98330000 -29.45080000 465.78299000 -0.36075500 -0.80434400 0.47210801 1.905766e-42
11.26360000 -29.86780000 464.18600000 -0.42058000 -0.79253203 0.44159400 1.905766e-42
11.19190000 -30.75820000 462.62399000 -0.43910199 -0.79082900 0.42635700 1.905766e-42
11.18820000 -31.56830000 461.01599000 -0.42334199 -0.80480301 0.41602099 1.905766e-42
11.14620000 -32.41569900 459.42899000 -0.40225500 -0.82372600 0.39958400 1.905766e-42
11.15470000 -33.21320000 457.81500000 -0.37652901 -0.84586298 0.37781101 1.905766e-42
11.07710000 -33.91000000 456.15701000 -0.36444101 -0.86226600 0.35168201 1.905766e-42
10.53360000 -34.29990000 454.48599000 -0.38925001 -0.85724598 0.33706501 1.905766e-42
10.22760000 -34.87699900 452.80899000 -0.38269100 -0.86422098 0.32660300 1.905766e-42
11.01560000 -35.55339800 451.33899000 -0.34877399 -0.88056600 0.32087299 1.905766e-42
12.01590000 -35.42430100 452.82901000 -0.31298000 -0.89014000 0.33120200 1.905766e-42
12.91150000 -35.18769800 454.37299000 -0.28118899 -0.89688998 0.34134999 1.905766e-42
14.32040000 -35.11690100 455.49100000 -0.25823900 -0.90001100 0.35113099 1.905766e-42
15.40680000 -34.89970000 456.91000000 -0.23923500 -0.90113801 0.36154801 1.905766e-42
16.58200100 -34.64880000 458.25000000 -0.22471599 -0.89796799 0.37836099 1.905766e-42
17.63760000 -34.25370000 459.65302000 -0.22126199 -0.89280200 0.39236200 1.905766e-42
18.39080000 -33.85800200 461.23901000 -0.22300699 -0.88670403 0.40499899 1.905766e-42
19.49110000 -33.44810100 462.60400000 -0.22253300 -0.88000298 0.41961199 1.905766e-42
20.66910000 -33.04499800 463.90399000 -0.23118301 -0.86646402 0.44248599 1.905766e-42
21.66180000 -32.62599900 465.34500000 -0.23907900 -0.85096300 0.46765700 1.905766e-42
22.78730000 -32.16820100 466.67300000 -0.24587500 -0.83679199 0.48920801 1.905766e-42
23.90930000 -31.69140100 467.99799000 -0.24400800 -0.82283998 0.51321900 1.905766e-42
25.08659900 -31.22909900 469.27802000 -0.19136199 -0.82393903 0.53338999 1.905766e-42
26.59410100 -30.77940000 470.15302000 -0.11589900 -0.82238001 0.55700898 1.905766e-42
27.47540100 -29.89900000 471.45300000 -0.05369700 -0.81568199 0.57600302 1.905766e-42
27.43820000 -28.97520100 472.99701000 -0.04472380 -0.80809599 0.58735102 1.905766e-42
27.97780000 -27.83029900 474.27701000 -0.00626745 -0.79690802 0.60406798 1.905766e-42
28.02500000 -26.78140100 475.73901000 -0.00933863 -0.78281301 0.62218702 1.905766e-42
27.83720000 -25.76899900 477.21500000 -0.04950580 -0.76137799 0.64641500 1.905766e-42
28.08410100 -24.59709900 478.55899000 -0.05075500 -0.74064302 0.66997898 1.905766e-42
27.30590100 -23.41670000 479.67300000 -0.12969100 -0.71538901 0.68658501 1.905766e-42
27.68180100 -22.22069900 480.96500000 -0.09741660 -0.69849199 0.70895600 1.905766e-42
27.98080100 -20.92590000 482.17899000 -0.05495610 -0.68146998 0.72978002 1.905766e-42
28.04880000 -19.65630000 483.45300000 -0.00770420 -0.67158997 0.74088299 1.905766e-42
28.58820000 -18.26549900 484.45999000 0.06905150 -0.66529298 0.74338198 1.905766e-42
28.78720100 -16.91430100 485.63300000 0.09707350 -0.66323000 0.74209303 1.905766e-42
