# .PCD v0.7 - Point Cloud Data file format
# 4 280 0
# 1 86 0
# 87 106 0
# 107 175 0
# 176 280 0
VERSION 0.7
FIELDS x y z normal_x normal_y normal_z curvature
SIZE 4 4 4 4 4 4 4
TYPE F F F F F F F
COUNT 1 1 1 1 1 1 1
WIDTH 280
HEIGHT 1
VIEWPOINT 0 0 0 1 0 0 0
POINTS 280
DATA ascii
-16.86440100 67.40049700 541.69397000 0.15666300 0.97295600 -0.16974799 1.905766e-42
-15.22470000 67.07379900 542.36102000 0.14436500 0.97419101 -0.17352200 1.905766e-42
-13.42870000 66.96089900 542.40100000 0.11754900 0.97726399 -0.17645700 1.905766e-42
-11.64370000 66.80490100 542.57300000 0.09104250 0.97956401 -0.17934500 1.905766e-42
-9.93202970 66.69830300 543.12000000 0.06315540 0.98116702 -0.18254700 1.905766e-42
-8.13255980 66.68430300 543.16101000 0.03270450 0.98224300 -0.18474101 1.905766e-42
-6.33274980 66.71089900 543.15997000 0.00048489 0.98250800 -0.18621700 1.905766e-42
-4.53339000 66.75830100 543.15302000 -0.03303020 0.98188800 -0.18656300 1.905766e-42
-2.73639990 66.85749800 543.18402000 -0.06680680 0.98042798 -0.18519500 1.905766e-42
-0.94347000 67.01680000 543.18903000 -0.10415300 0.97771901 -0.18225800 1.905766e-42
0.84334898 67.22550200 543.25000000 -0.14169499 0.97328198 -0.18067600 1.905766e-42
2.61136010 67.43910200 542.98798000 -0.17775901 0.96719801 -0.18146700 1.905766e-42
4.26621010 67.63860300 542.30902000 -0.20953999 0.96008402 -0.18528999 1.905766e-42
6.05454020 67.81800100 542.21100000 -0.24270099 0.95164299 -0.18833999 1.905766e-42
7.57331990 68.13150000 541.29700000 -0.26867601 0.94316697 -0.19557600 1.905766e-42
9.30160050 68.25289900 540.80902000 -0.29637200 0.93343598 -0.20213901 1.905766e-42
10.74290000 68.64849900 539.80499000 -0.31827399 0.92411298 -0.21146300 1.905766e-42
12.27230000 68.95089700 538.90601000 -0.33996600 0.91408801 -0.22105500 1.905766e-42
13.69230000 69.33470200 537.86798000 -0.36445901 0.90227598 -0.23036200 1.905766e-42
15.23840000 69.67769600 537.01300000 -0.39601499 0.88687003 -0.23797999 1.905766e-42
16.37130000 69.96029700 535.64301000 -0.41736299 0.87382400 -0.24947800 1.905766e-42
17.59310000 70.21180000 534.34497000 -0.43912101 0.85950500 -0.26157799 1.905766e-42
19.09110100 70.76329800 533.51398000 -0.46832001 0.84105098 -0.27075601 1.905766e-42
20.56189900 71.16310100 532.55603000 -0.49388599 0.82263201 -0.28169701 1.905766e-42
21.55699900 71.34960200 531.06799000 -0.50737703 0.80882001 -0.29728600 1.905766e-42
22.87540100 71.65080300 529.88000000 -0.52646101 0.79111600 -0.31140801 1.905766e-42
24.27179900 71.99990100 528.79901000 -0.54600698 0.77211303 -0.32514101 1.905766e-42
25.39510000 72.28730000 527.42200000 -0.55921900 0.75535297 -0.34163600 1.905766e-42
26.51100000 72.54699700 526.03400000 -0.57094401 0.73847699 -0.35871199 1.905766e-42
27.59129900 72.72750100 524.60498000 -0.57907897 0.72271299 -0.37729800 1.905766e-42
28.67380000 72.94429800 523.18402000 -0.58249998 0.70882100 -0.39782700 1.905766e-42
29.88330100 73.29160300 521.89697000 -0.58918703 0.69287097 -0.41567701 1.905766e-42
31.09580000 73.55799900 520.59302000 -0.59553498 0.67699403 -0.43245599 1.905766e-42
32.01950100 73.54769900 519.04797000 -0.59702599 0.66407001 -0.45007899 1.905766e-42
33.12630100 73.56030300 517.62903000 -0.60100698 0.64941299 -0.46588999 1.905766e-42
34.22510100 73.46890300 516.20599000 -0.60441601 0.63503999 -0.48104599 1.905766e-42
35.43849900 73.51139800 514.87701000 -0.61032498 0.61906701 -0.49422601 1.905766e-42
36.69049800 73.54830200 513.58502000 -0.61667299 0.60273498 -0.50638402 1.905766e-42
37.91109800 73.56140100 512.26202000 -0.62262797 0.58640701 -0.51813197 1.905766e-42
39.09719800 73.53620100 510.90799000 -0.62801200 0.57007998 -0.52972502 1.905766e-42
40.18479900 73.49490400 509.47400000 -0.63250798 0.55379403 -0.54152203 1.905766e-42
41.34280000 73.56210300 508.09799000 -0.63598502 0.53741503 -0.55381203 1.905766e-42
42.32329900 73.49440000 506.59000000 -0.63726002 0.52185202 -0.56707197 1.905766e-42
43.55410000 73.44780000 505.27701000 -0.64086199 0.50480598 -0.57833099 1.905766e-42
44.58520100 73.06279800 503.85300000 -0.64141899 0.48901701 -0.59113801 1.905766e-42
45.70660000 72.85350000 502.46100000 -0.64439398 0.47383901 -0.60019398 1.905766e-42
46.75519900 72.59950300 501.01999000 -0.64734399 0.45885500 -0.60860300 1.905766e-42
47.74829900 72.05860100 499.61899000 -0.64851397 0.44505399 -0.61754000 1.905766e-42
49.14279900 72.35800200 498.52100000 -0.65841401 0.42752400 -0.61944699 1.905766e-42
50.35150100 72.17299700 497.20099000 -0.66422302 0.41125000 -0.62424499 1.905766e-42
51.21979900 71.67359900 495.70499000 -0.66654801 0.39668301 -0.63115501 1.905766e-42
52.17720000 71.14099900 494.27701000 -0.66933602 0.38145199 -0.63756001 1.905766e-42
53.33070000 70.94069700 492.91000000 -0.67306799 0.36514401 -0.64315599 1.905766e-42
54.44509900 70.55490100 491.54999000 -0.66667700 0.35232899 -0.65681499 1.905766e-42
55.64370000 70.19149800 490.25699000 -0.66122198 0.33910701 -0.66917199 1.905766e-42
56.81420100 69.75190000 488.96201000 -0.65610600 0.32584500 -0.68069899 1.905766e-42
57.91529800 69.22039800 487.64099000 -0.65130901 0.31267700 -0.69139701 1.905766e-42
59.00450100 68.50859800 486.39700000 -0.64671499 0.29977199 -0.70135301 1.905766e-42
60.19739900 67.95120200 485.17001000 -0.64408898 0.28684399 -0.70913303 1.905766e-42
61.50849900 67.83619700 483.94199000 -0.64475101 0.27474999 -0.71330798 1.905766e-42
62.46400100 67.23609900 482.82501000 -0.64383698 0.26423901 -0.71808898 1.905766e-42
63.70830200 66.74720000 481.62000000 -0.64509499 0.25298101 -0.72100902 1.905766e-42
64.94699900 66.22670000 480.42200000 -0.64752102 0.24246500 -0.72244501 1.905766e-42
65.87380200 65.39640000 479.12100000 -0.64964300 0.23237200 -0.72385597 1.905766e-42
66.89440200 64.50830100 477.93399000 -0.65235001 0.23187800 -0.72157699 1.905766e-42
68.19629700 64.40660100 476.69501000 -0.65722299 0.23217399 -0.71704400 1.905766e-42
69.23590100 63.65160000 475.43500000 -0.66069102 0.23615099 -0.71254498 1.905766e-42
70.49109600 63.30419900 474.19199000 -0.66515899 0.23666400 -0.70820397 1.905766e-42
71.39340200 62.35559800 472.95700000 -0.66764098 0.24031299 -0.70463097 1.905766e-42
72.41610000 61.50320100 471.74500000 -0.67030400 0.24236000 -0.70139402 1.905766e-42
73.82959700 61.52320100 470.63101000 -0.67565799 0.23851500 -0.69756502 1.905766e-42
74.59310200 60.62770100 469.26901000 -0.67759401 0.23967101 -0.69528699 1.905766e-42
75.58260300 59.89090000 467.95801000 -0.68020302 0.23872399 -0.69306201 1.905766e-42
76.79360200 59.40610100 466.71799000 -0.68386298 0.23535800 -0.69060701 1.905766e-42
77.98010300 58.84629800 465.48499000 -0.68713403 0.23159499 -0.68862998 1.905766e-42
79.04229700 58.14310100 464.21399000 -0.68953300 0.22786400 -0.68747598 1.905766e-42
80.07370000 57.43660000 462.91901000 -0.68989998 0.22410500 -0.68834299 1.905766e-42
81.23380300 56.81290100 461.69199000 -0.68999600 0.21981300 -0.68962902 1.905766e-42
82.35189800 56.11660000 460.46500000 -0.69021702 0.21557499 -0.69074500 1.905766e-42
83.17189800 55.26490000 459.10800000 -0.69014102 0.21193200 -0.69194603 1.905766e-42
84.32659900 54.65169900 457.87100000 -0.69178599 0.20712499 -0.69176000 1.905766e-42
85.44570200 54.02809900 456.60599000 -0.69522500 0.20803601 -0.68802899 1.905766e-42
86.15190100 53.05770100 455.26501000 -0.69877398 0.21542500 -0.68213397 1.905766e-42
87.11190000 52.29980100 453.94400000 -0.70348901 0.22058500 -0.67560703 1.905766e-42
88.17389700 51.68140000 452.62900000 -0.70883298 0.22424300 -0.66878402 1.905766e-42
89.18419600 50.85620100 451.38901000 -0.71364301 0.22849201 -0.66219801 1.905766e-42
90.33049800 50.25500100 450.13800000 -0.71903598 0.23054700 -0.65561801 1.905766e-42
90.61280100 48.73870100 449.20999000 -0.71953601 0.23769300 -0.65250999 1.905766e-42
90.74320200 47.08570100 448.50900000 -0.71800500 0.24538299 -0.65134901 1.905766e-42
90.92880200 45.47359800 447.73099000 -0.71598297 0.25229201 -0.65093499 1.905766e-42
91.13800000 43.88520100 446.91000000 -0.71319997 0.25846100 -0.65157002 1.905766e-42
91.53579700 42.36240000 446.03699000 -0.71018797 0.26289901 -0.65308303 1.905766e-42
91.65529600 40.71120100 445.32999000 -0.70454198 0.26879400 -0.65678799 1.905766e-42
91.06279800 39.07960100 444.85400000 -0.69578701 0.27841499 -0.66209197 1.905766e-42
90.74210400 37.36330000 444.41599000 -0.68626499 0.28765699 -0.66805202 1.905766e-42
90.61190000 35.65430100 443.86600000 -0.67670703 0.29699400 -0.67369199 1.905766e-42
90.71219600 34.01750200 443.12399000 -0.66763198 0.30421600 -0.67949998 1.905766e-42
91.00340300 32.43930100 442.30899000 -0.65869600 0.30971700 -0.68570799 1.905766e-42
90.54989600 30.75020000 441.88300000 -0.64687800 0.32173300 -0.69140202 1.905766e-42
90.51429700 29.09210000 441.18399000 -0.63551801 0.33026701 -0.69788301 1.905766e-42
90.65589900 27.45459900 440.45001000 -0.62397897 0.33742899 -0.70483500 1.905766e-42
91.14859800 25.90350000 439.68100000 -0.61290002 0.34142199 -0.71258998 1.905766e-42
91.25569900 24.27070000 438.93100000 -0.59975803 0.34860200 -0.72025502 1.905766e-42
91.12039900 22.67380000 438.11099000 -0.58564597 0.35716400 -0.72763503 1.905766e-42
90.74749800 21.11360000 437.29501000 -0.57089698 0.36746001 -0.73420000 1.905766e-42
89.82520300 19.71960100 436.62701000 -0.55671102 0.38167101 -0.73783499 1.905766e-42
89.01059700 18.14720000 436.30399000 -0.54199702 0.39728099 -0.74054497 1.905766e-42
87.53510300 17.58939900 437.17099000 -0.53768498 0.41449001 -0.73422903 1.905766e-42
86.05380200 16.76460100 437.77600000 -0.52972198 0.43232599 -0.72971803 1.905766e-42
84.56569700 16.46069900 438.74200000 -0.52580601 0.44707200 -0.72364002 1.905766e-42
83.09690100 15.78630000 439.53400000 -0.51777202 0.46301100 -0.71939701 1.905766e-42
81.63300300 15.00820000 440.23499000 -0.50796801 0.47878101 -0.71605599 1.905766e-42
80.12729600 14.37410000 440.99100000 -0.49815401 0.49335200 -0.71305400 1.905766e-42
78.72429700 13.51300000 441.71899000 -0.48633301 0.50783998 -0.71104097 1.905766e-42
77.07109800 13.33750000 442.40900000 -0.47631401 0.51931500 -0.70953202 1.905766e-42
75.48519900 13.09560000 443.22501000 -0.46466500 0.53009701 -0.70928401 1.905766e-42
73.87870000 12.51220000 443.79001000 -0.45037499 0.54227197 -0.70929801 1.905766e-42
72.27330000 11.85930000 444.27600000 -0.43579099 0.55443299 -0.70900702 1.905766e-42
70.62840300 11.44220000 444.87601000 -0.42212901 0.56514800 -0.70881200 1.905766e-42
68.99500300 10.79030000 445.26001000 -0.40716600 0.57668602 -0.70827198 1.905766e-42
67.34809900 10.17200000 445.64099000 -0.39227501 0.58765799 -0.70765698 1.905766e-42
65.72989700 9.42142010 445.88199000 -0.37696800 0.59870100 -0.70671999 1.905766e-42
64.05030100 9.15285020 446.47101000 -0.36365500 0.60704499 -0.70657700 1.905766e-42
62.36850000 8.61448000 446.82001000 -0.34908599 0.61626500 -0.70594400 1.905766e-42
60.72880200 7.87985990 446.92899000 -0.33417499 0.62518102 -0.70531899 1.905766e-42
59.06580000 7.21965980 447.12500000 -0.31864500 0.63354403 -0.70504498 1.905766e-42
57.43009900 6.47212980 447.20099000 -0.30135199 0.64219099 -0.70482397 1.905766e-42
55.78960000 5.73142000 447.20901000 -0.28351900 0.65090698 -0.70422798 1.905766e-42
54.05649900 5.49071980 447.63199000 -0.26641101 0.65819001 -0.70413899 1.905766e-42
52.32009900 5.14436010 447.95499000 -0.24839500 0.66575599 -0.70361102 1.905766e-42
50.65300000 4.46854020 447.89001000 -0.22917999 0.67420298 -0.70208699 1.905766e-42
48.99330100 3.78699990 447.74600000 -0.20957400 0.68254399 -0.70015198 1.905766e-42
47.60490000 2.78358010 447.19299000 -0.19094700 0.69093102 -0.69724703 1.905766e-42
45.85540000 2.36055990 447.17700000 -0.17088100 0.69831300 -0.69509602 1.905766e-42
44.11420100 1.91044000 447.10199000 -0.15050399 0.70546001 -0.69258499 1.905766e-42
42.39530200 1.39879000 446.94800000 -0.13049200 0.71239698 -0.68953800 1.905766e-42
40.86430000 0.63339198 446.39099000 -0.11130400 0.71943301 -0.68558502 1.905766e-42
39.13830200 0.17427500 446.16699000 -0.09153850 0.72555101 -0.68205303 1.905766e-42
37.40959900 -0.26632500 445.92801000 -0.07189930 0.73117298 -0.67839301 1.905766e-42
35.71369900 -0.74523801 445.56100000 -0.05253040 0.73642600 -0.67447501 1.905766e-42
33.92750200 -0.94169903 445.45599000 -0.03352590 0.74054199 -0.67117399 1.905766e-42
32.43740100 -1.62730000 444.71500000 -0.01598020 0.74507701 -0.66678703 1.905766e-42
30.94700100 -2.33084990 443.99100000 0.00096902 0.74905002 -0.66251302 1.905766e-42
29.23210000 -2.63378000 443.53601000 0.01859400 0.75191402 -0.65899903 1.905766e-42
27.86650100 -3.34994010 442.60699000 0.03325150 0.75489700 -0.65499902 1.905766e-42
27.47600000 -4.51922990 441.29599000 0.03898930 0.75787902 -0.65122902 1.905766e-42
27.00860000 -5.68526980 440.00699000 0.04482360 0.76082897 -0.64740199 1.905766e-42
26.87310000 -7.16919990 438.99701000 0.04726270 0.76398700 -0.64349800 1.905766e-42
25.70369900 -7.72343020 437.74600000 0.05873700 0.76800001 -0.63775098 1.905766e-42
24.63069900 -8.62434010 436.61600000 0.07355110 0.77193600 -0.63143098 1.905766e-42
23.85899900 -9.61363030 435.32501000 0.08551970 0.77647400 -0.62431902 1.905766e-42
22.98740000 -10.53550000 434.04800000 0.09946040 0.78086400 -0.61673301 1.905766e-42
22.06110000 -11.43550000 432.79401000 0.11460700 0.78515601 -0.60860199 1.905766e-42
20.55470100 -11.73820000 431.85699000 0.13629299 0.78791898 -0.60050601 1.905766e-42
20.03920000 -12.68700000 430.41699000 0.14742900 0.79252398 -0.59175199 1.905766e-42
18.95620000 -13.38040000 429.15701000 0.16506299 0.79636502 -0.58185601 1.905766e-42
17.64220000 -13.84220000 428.01700000 0.18468200 0.79955602 -0.57149202 1.905766e-42
16.31720000 -14.30230000 426.88901000 0.20382801 0.80256301 -0.56066698 1.905766e-42
14.88740000 -14.65110000 425.85199000 0.22299600 0.80503303 -0.54972202 1.905766e-42
14.10030000 -15.41820000 424.42700000 0.23640300 0.80883902 -0.53841698 1.905766e-42
12.99460000 -15.95220000 423.11099000 0.25197300 0.81191701 -0.52659398 1.905766e-42
11.75970000 -16.21250000 421.82700000 0.26745000 0.81149203 -0.51956898 1.905766e-42
10.77620000 -16.92330000 420.49799000 0.28030100 0.80979598 -0.51542401 1.905766e-42
9.35639950 -17.05750100 419.39999000 0.29555300 0.80847800 -0.50893301 1.905766e-42
8.31423000 -17.62879900 418.04800000 0.30858299 0.80689597 -0.50368202 1.905766e-42
6.98282000 -17.87820100 416.86200000 0.32277301 0.80565900 -0.49672100 1.905766e-42
6.33663990 -18.56930000 415.33099000 0.33404499 0.80367798 -0.49245900 1.905766e-42
5.11528020 -18.65870100 414.01199000 0.34802401 0.80241799 -0.48477301 1.905766e-42
4.15689990 -19.09600100 412.55200000 0.36269400 0.79987901 -0.47817001 1.905766e-42
3.38136010 -19.66169900 411.03000000 0.37631199 0.79705203 -0.47233301 1.905766e-42
2.26472000 -19.86210100 409.63199000 0.39163399 0.79454899 -0.46402100 1.905766e-42
1.22551000 -20.41270100 408.26999000 0.40594500 0.79172999 -0.45647800 1.905766e-42
-0.09502280 -20.28160100 407.05301000 0.42065099 0.78991097 -0.44619900 1.905766e-42
-0.85508901 -20.91050000 405.54800000 0.43357801 0.78664201 -0.43955100 1.905766e-42
-1.53104000 -21.35140000 403.93900000 0.44668001 0.78311902 -0.43266800 1.905766e-42
-2.44403000 -21.48060000 402.39301000 0.46019199 0.78023201 -0.42363000 1.905766e-42
-4.01657010 -20.64590100 402.65799000 0.46459001 0.78300500 -0.41359299 1.905766e-42
-5.44208000 -19.76020100 403.30899000 0.46675199 0.78524202 -0.40686399 1.905766e-42
-6.19875000 -18.50410100 404.35300000 0.46536800 0.78670698 -0.40561700 1.905766e-42
-7.08175990 -17.26100000 405.30899000 0.46629700 0.78656501 -0.40482399 1.905766e-42
-8.16110040 -16.04310000 406.07901000 0.47005701 0.78480798 -0.40388501 1.905766e-42
-9.37526990 -14.93600000 406.81400000 0.47547799 0.78169799 -0.40357101 1.905766e-42
-10.28720000 -13.89070000 407.96100000 0.47914401 0.77781999 -0.40671501 1.905766e-42
-11.15530000 -12.84140000 409.13800000 0.48563999 0.77175999 -0.41053799 1.905766e-42
-12.43400000 -11.76190000 409.80099000 0.49789000 0.76331598 -0.41164801 1.905766e-42
-13.42760000 -10.53660000 410.66699000 0.50883001 0.75429600 -0.41488501 1.905766e-42
-14.10250000 -9.30212970 411.79001000 0.51729703 0.74548203 -0.42031100 1.905766e-42
-15.27420000 -8.09274960 412.42599000 0.53109902 0.73445600 -0.42250201 1.905766e-42
-16.00300000 -6.98369980 413.64200000 0.53974903 0.72462398 -0.42847499 1.905766e-42
-16.65620000 -5.74105980 414.76901000 0.54856902 0.71431798 -0.43453699 1.905766e-42
-17.60400000 -4.46253010 415.60999000 0.56056100 0.70250100 -0.43847901 1.905766e-42
-18.57980000 -3.17806010 416.40799000 0.57270098 0.69038898 -0.44201401 1.905766e-42
-19.24869900 -1.95575000 417.54800000 0.58062899 0.67959398 -0.44835600 1.905766e-42
-20.20439900 -0.66672701 418.36401000 0.59175003 0.66781002 -0.45151100 1.905766e-42
-21.14209900 0.63574898 419.17899000 0.60298300 0.65817797 -0.45079201 1.905766e-42
-22.24900100 1.94611000 419.72400000 0.61594999 0.64794600 -0.44807601 1.905766e-42
-22.62109900 3.34629990 420.79199000 0.62162501 0.64178598 -0.44910300 1.905766e-42
-23.38760000 4.75176000 421.61499000 0.62997299 0.63447899 -0.44785100 1.905766e-42
-24.52290000 6.08446980 422.03400000 0.64031798 0.62641901 -0.44451401 1.905766e-42
-25.00760100 7.46004010 423.08899000 0.64494801 0.62134099 -0.44494599 1.905766e-42
-25.82659900 8.84943010 423.88800000 0.65206301 0.61484802 -0.44359401 1.905766e-42
-26.91640100 10.17470000 424.43201000 0.66075498 0.60738200 -0.44101101 1.905766e-42
-27.67240000 11.55630000 425.30301000 0.66709602 0.60114098 -0.44001400 1.905766e-42
-28.42400000 12.97980000 426.10901000 0.67373902 0.59458899 -0.43879399 1.905766e-42
-28.86870000 14.43960000 427.06299000 0.67893797 0.58894902 -0.43838701 1.905766e-42
-29.70780000 15.86300000 427.77802000 0.68633801 0.58155602 -0.43673101 1.905766e-42
-30.61090100 17.28080000 428.42099000 0.69415498 0.57357001 -0.43493301 1.905766e-42
-31.25890000 18.76390100 429.20901000 0.70105797 0.56601900 -0.43375200 1.905766e-42
-31.90860000 20.25510000 429.98001000 0.70823401 0.55805999 -0.43240401 1.905766e-42
-32.22110000 21.68700000 431.02499000 0.71381199 0.55240101 -0.43049401 1.905766e-42
-32.87300100 23.14360000 431.85699000 0.72112501 0.54494298 -0.42780301 1.905766e-42
-33.96460000 24.55270000 432.10800000 0.73051298 0.53500301 -0.42440701 1.905766e-42
-34.61859900 26.06850100 432.82501000 0.73808801 0.52713001 -0.42114201 1.905766e-42
-35.14939900 27.58160000 433.64301000 0.74500698 0.52012300 -0.41765699 1.905766e-42
-35.53400000 29.07230000 434.57599000 0.75104702 0.51432502 -0.41400200 1.905766e-42
-35.35150100 30.05999900 436.06900000 0.75217903 0.51436102 -0.41189700 1.905766e-42
-35.17330200 31.08140000 437.54099000 0.75305003 0.51465601 -0.40993199 1.905766e-42
-34.99760100 31.93910000 439.11301000 0.75267899 0.51622897 -0.40863499 1.905766e-42
-34.95060000 32.84540200 440.66800000 0.75257897 0.51751900 -0.40718400 1.905766e-42
-34.69580100 33.52600100 442.31500000 0.75021303 0.52095401 -0.40717101 1.905766e-42
-34.69469800 34.50680200 443.82401000 0.74987501 0.52252299 -0.40577999 1.905766e-42
-34.31819900 35.32630200 445.38199000 0.74673802 0.52210498 -0.41205499 1.905766e-42
-33.59909800 36.00690100 446.88501000 0.74177003 0.52345300 -0.41925400 1.905766e-42
-33.36679800 36.90969800 448.42499000 0.73942298 0.52224702 -0.42486700 1.905766e-42
-33.26350000 37.92630000 449.90701000 0.73816597 0.52008802 -0.42967400 1.905766e-42
-32.98070100 38.74720000 451.48300000 0.73510301 0.51954299 -0.43554300 1.905766e-42
-32.67630000 39.58010100 453.04999000 0.73195601 0.51906902 -0.44137001 1.905766e-42
-32.46699900 40.48560000 454.59100000 0.72950900 0.51798201 -0.44666600 1.905766e-42
-32.20859900 41.39950200 456.12000000 0.72685403 0.51708400 -0.45200300 1.905766e-42
-31.86479900 42.27539800 457.65500000 0.72358501 0.51672101 -0.45762801 1.905766e-42
-31.69800000 43.27700000 459.14099000 0.72168499 0.51521701 -0.46230200 1.905766e-42
-31.17140000 44.14500000 460.62701000 0.71753103 0.51562798 -0.46826899 1.905766e-42
-30.76890000 45.08960000 462.10599000 0.71448898 0.51716900 -0.47121301 1.905766e-42
-30.62229900 46.18759900 463.52499000 0.71393198 0.52090901 -0.46792701 1.905766e-42
-30.10630000 46.86920200 465.10901000 0.70924097 0.52775103 -0.46739200 1.905766e-42
-30.18429900 47.94409900 466.54999000 0.70930201 0.53118098 -0.46339899 1.905766e-42
-29.83070000 48.85010100 468.06500000 0.70613402 0.53711498 -0.46139199 1.905766e-42
-29.26390100 49.69110100 469.55200000 0.70147598 0.54408598 -0.46032900 1.905766e-42
-28.91720000 50.57379900 471.08200000 0.69774097 0.55053800 -0.45832801 1.905766e-42
-28.34610000 51.16080100 472.68500000 0.69109201 0.55881798 -0.45838201 1.905766e-42
-28.00340100 51.91949800 474.28101000 0.68612099 0.56616497 -0.45683199 1.905766e-42
-28.06209900 53.02870200 475.69699000 0.68535203 0.57096201 -0.45199001 1.905766e-42
-28.07650000 53.99350000 477.21701000 0.68320400 0.57683498 -0.44776401 1.905766e-42
-27.51370000 54.70399900 478.77200000 0.67623597 0.58565199 -0.44689599 1.905766e-42
-27.39370000 55.63539900 480.30801000 0.67301202 0.59462601 -0.43985701 1.905766e-42
-26.90099900 56.36769900 481.87601000 0.66676903 0.61089402 -0.42688000 1.905766e-42
-26.47570000 57.03900100 483.49100000 0.65966100 0.62747598 -0.41366801 1.905766e-42
-26.25830100 57.73540100 485.13699000 0.65307701 0.64380699 -0.39875099 1.905766e-42
-26.22410000 58.58110000 486.72501000 0.64781100 0.65946501 -0.38137501 1.905766e-42
-26.04840100 59.39580200 488.32101000 0.64052302 0.67597502 -0.36440101 1.905766e-42
-25.64340000 60.15560200 489.90201000 0.63054001 0.69328099 -0.34897101 1.905766e-42
-25.29270000 60.72589900 491.57199000 0.61873001 0.71105802 -0.33402100 1.905766e-42
-25.10199900 61.08960000 493.32501000 0.60586703 0.72885698 -0.31889200 1.905766e-42
-25.50400000 61.72470100 494.96100000 0.59829700 0.74425697 -0.29685301 1.905766e-42
-25.32290100 62.20660000 496.68500000 0.58410102 0.76207799 -0.27939701 1.905766e-42
-24.90020000 62.76020100 498.34500000 0.56771803 0.77990198 -0.26353201 1.905766e-42
-24.48790000 63.29219800 500.01501000 0.55018401 0.79750299 -0.24756300 1.905766e-42
-24.08620100 63.64199800 501.73401000 0.53085703 0.81374300 -0.23667100 1.905766e-42
-24.28290000 64.24520100 503.41800000 0.51731497 0.82743001 -0.21850599 1.905766e-42
-24.14539900 64.50430300 505.19400000 0.49909800 0.84189999 -0.20519400 1.905766e-42
-23.90889900 64.71659900 506.96600000 0.47995001 0.85592198 -0.19247299 1.905766e-42
-23.84960000 64.91069800 508.75500000 0.46126899 0.86916500 -0.17827800 1.905766e-42
-23.20630100 65.04509700 510.42999000 0.44014701 0.88195902 -0.16857600 1.905766e-42
-23.23460000 65.34210200 512.20599000 0.42356601 0.89324802 -0.15066600 1.905766e-42
-23.04579900 65.50550100 513.98798000 0.40477899 0.90437901 -0.13510101 1.905766e-42
-22.74290100 65.62660200 515.75800000 0.38514501 0.91496599 -0.12041600 1.905766e-42
-22.38349900 65.60769700 517.52197000 0.36486900 0.92495400 -0.10644300 1.905766e-42
-22.19170000 65.57150300 519.31097000 0.34594500 0.93392402 -0.09004360 1.905766e-42
-21.56909900 65.69310000 520.99597000 0.32472199 0.94262099 -0.07759710 1.905766e-42
-21.55349900 65.76490000 522.79401000 0.30796599 0.94906801 -0.06653230 1.905766e-42
-21.11280100 65.87400100 524.53601000 0.28903499 0.95399398 -0.07971790 1.905766e-42
-20.82060100 65.87539700 526.31201000 0.27194300 0.95799702 -0.09104290 1.905766e-42
-20.11170000 65.95330000 527.96503000 0.25308400 0.96185601 -0.10383100 1.905766e-42
-20.04910100 66.12429800 529.75598000 0.24041200 0.96422797 -0.11165700 1.905766e-42
-19.96719900 66.18640100 531.55298000 0.22835200 0.96622998 -0.11939600 1.905766e-42
-19.47820100 66.29519700 533.28198000 0.21415401 0.96827298 -0.12878700 1.905766e-42
-19.18680000 66.40709700 535.05402000 0.20248900 0.96968699 -0.13677000 1.905766e-42
-18.75680000 66.73310100 536.77197000 0.18934000 0.97100902 -0.14591999 1.905766e-42
-18.51330000 66.98249800 538.53802000 0.17182600 0.97233999 -0.15821201 1.905766e-42
-17.80229900 67.29350300 540.16199000 0.15666300 0.97295600 -0.16974799 1.905766e-42
