# .PCD v0.7 - Point Cloud Data file format
# 4 140 0
# 1 35 0
# 36 62 0
# 63 102 0
# 103 140 0
VERSION 0.7
FIELDS x y z normal_x normal_y normal_z curvature
SIZE 4 4 4 4 4 4 4
TYPE F F F F F F F
COUNT 1 1 1 1 1 1 1
WIDTH 140
HEIGHT 1
VIEWPOINT 0 0 0 1 0 0 0
POINTS 140
DATA ascii
17.92550100 -14.75660000 378.45200000 -0.31423301 -0.89899200 0.30507499 1.905766e-42
20.81539900 -15.98790000 377.48599000 -0.28312200 -0.91102600 0.29978999 1.905766e-42
22.40180000 -16.36020100 378.25101000 -0.26698601 -0.91350597 0.30695999 1.905766e-42
24.03060000 -16.60199900 378.97800000 -0.25134200 -0.91501898 0.31554201 1.905766e-42
25.64460000 -16.73810000 379.76300000 -0.23615600 -0.91540098 0.32599401 1.905766e-42
27.43420000 -16.77319900 379.95300000 -0.22123700 -0.91640699 0.33354399 1.905766e-42
29.04430000 -16.87060000 380.75201000 -0.20331100 -0.91524398 0.34784001 1.905766e-42
30.22419900 -16.83820000 382.11099000 -0.18427700 -0.91198999 0.36649200 1.905766e-42
31.79870000 -16.80710000 382.98199000 -0.16229001 -0.90872103 0.38456199 1.905766e-42
33.37179900 -16.70809900 383.85101000 -0.13824700 -0.90429699 0.40389901 1.905766e-42
34.94269900 -16.53620000 384.71301000 -0.11205300 -0.89869899 0.42400900 1.905766e-42
36.64139900 -16.36899900 385.28500000 -0.08499670 -0.89203399 0.44390500 1.905766e-42
38.02159900 -16.00009900 386.38000000 -0.06128810 -0.88458401 0.46233600 1.905766e-42
39.65470100 -15.68200000 387.06601000 -0.04058260 -0.87654299 0.47961000 1.905766e-42
41.13719900 -15.22370000 387.97900000 -0.01734840 -0.86866802 0.49509200 1.905766e-42
42.73870100 -14.80700000 388.68701000 0.00595032 -0.86023802 0.50985801 1.905766e-42
44.26770000 -14.24380000 389.45200000 0.03085750 -0.85223299 0.52225202 1.905766e-42
45.67699800 -13.64950000 390.40100000 0.05710670 -0.84577698 0.53047198 1.905766e-42
47.23889900 -13.00100000 391.01700000 0.07752620 -0.83932197 0.53807902 1.905766e-42
48.68240000 -12.45430000 391.94299000 0.09233730 -0.83671999 0.53978997 1.905766e-42
49.60810100 -11.52950000 393.17899000 0.10594100 -0.82932299 0.54863399 1.905766e-42
50.67960000 -10.64340000 394.32199000 0.11803600 -0.81649297 0.56516099 1.905766e-42
51.93380000 -9.72961040 395.23401000 0.13126400 -0.80429000 0.57955700 1.905766e-42
53.39799900 -8.95950030 395.94400000 0.14564700 -0.79285902 0.59174401 1.905766e-42
54.81620000 -8.07604030 396.61301000 0.16091800 -0.78107399 0.60334802 1.905766e-42
55.56679900 -7.03093000 397.87201000 0.17415801 -0.76882303 0.61528897 1.905766e-42
56.58969900 -5.96744010 398.90302000 0.18767101 -0.75689000 0.62601602 1.905766e-42
58.08470200 -5.10141990 399.40799000 0.19869500 -0.74569303 0.63597399 1.905766e-42
58.87710200 -3.93689990 400.52899000 0.21201099 -0.73250401 0.64690799 1.905766e-42
60.17400000 -2.90769000 401.23499000 0.22714500 -0.71772498 0.65823698 1.905766e-42
61.44319900 -1.85097000 401.95099000 0.24414200 -0.70112902 0.66993499 1.905766e-42
62.21369900 -0.58971900 402.97800000 0.26343900 -0.68418097 0.68007100 1.905766e-42
63.16659900 0.67070699 403.84000000 0.28462401 -0.66498202 0.69049799 1.905766e-42
64.57560000 1.78422000 403.96201000 0.30458099 -0.64337599 0.70235199 1.905766e-42
65.53880300 3.00789000 404.86499000 0.32786399 -0.61910301 0.71359402 1.905766e-42
66.65609700 4.31870990 405.38800000 0.35001200 -0.59183502 0.72610199 1.905766e-42
66.39389800 5.60216000 406.62201000 0.36297801 -0.57727802 0.73143500 1.905766e-42
65.69529700 6.75918010 407.81100000 0.36655599 -0.56834602 0.73662698 1.905766e-42
64.29100000 7.11473990 408.87900000 0.35524601 -0.56941098 0.74133098 1.905766e-42
63.65810000 8.32429030 410.05301000 0.35291401 -0.55790001 0.75113201 1.905766e-42
62.72440000 9.31221960 411.23199000 0.34448501 -0.54946202 0.76119798 1.905766e-42
62.22200000 10.64360000 412.33499000 0.34071499 -0.53703898 0.77168798 1.905766e-42
61.20080200 11.57520000 413.48801000 0.32942200 -0.52783799 0.78285903 1.905766e-42
60.52769900 12.82890000 414.59000000 0.32175800 -0.51452601 0.79481697 1.905766e-42
60.08470200 14.25570000 415.59399000 0.31607300 -0.49902201 0.80689198 1.905766e-42
59.25849900 15.48290000 416.61899000 0.30537501 -0.48410901 0.81999099 1.905766e-42
58.15259900 16.46960100 417.64099000 0.29136801 -0.46968901 0.83336502 1.905766e-42
56.99140200 17.45389900 418.60101000 0.27736601 -0.45487899 0.84625900 1.905766e-42
56.25450100 18.81290100 419.52301000 0.26890299 -0.43516299 0.85925800 1.905766e-42
55.33120000 20.04640000 420.45401000 0.26028201 -0.41626701 0.87119198 1.905766e-42
54.62500000 21.51170000 421.22501000 0.25669599 -0.39647299 0.88142902 1.905766e-42
53.49700200 22.62249900 422.08099000 0.25390601 -0.38971999 0.88524002 1.905766e-42
52.30530200 23.66750000 422.93500000 0.25291100 -0.38264200 0.88860601 1.905766e-42
51.13340000 24.76600100 423.74701000 0.24782801 -0.37541699 0.89310902 1.905766e-42
50.14099900 26.02759900 424.56201000 0.24103799 -0.36493501 0.89929003 1.905766e-42
48.95539900 27.15250000 425.31601000 0.23020700 -0.35535401 0.90594000 1.905766e-42
48.15350000 28.58219900 426.05899000 0.22393800 -0.34008700 0.91334099 1.905766e-42
47.26200100 30.01910000 426.67599000 0.21487699 -0.32649401 0.92045099 1.905766e-42
46.18550100 31.24980000 427.42899000 0.20179400 -0.31489199 0.92742801 1.905766e-42
45.40319800 32.80619800 427.88199000 0.19186300 -0.30146599 0.93397403 1.905766e-42
44.47209900 34.06530000 428.76999000 0.17909400 -0.28904000 0.94041598 1.905766e-42
42.91479900 34.82249800 429.26099000 0.16419700 -0.27957800 0.94597900 1.905766e-42
41.22560100 35.38520100 429.52600000 0.15235201 -0.27233899 0.95006299 1.905766e-42
39.49620100 34.97409800 429.80899000 0.14029300 -0.27577400 0.95092899 1.905766e-42
37.73379900 34.62379800 429.91501000 0.11483400 -0.28107101 0.95279199 1.905766e-42
36.02550100 34.07180000 430.04599000 0.09089700 -0.28812101 0.95327002 1.905766e-42
34.27790100 33.64130000 430.07101000 0.06760970 -0.29442501 0.95327997 1.905766e-42
32.48659900 33.47769900 430.00400000 0.04497250 -0.29829499 0.95341402 1.905766e-42
30.73390000 33.07120100 429.95300000 0.02343290 -0.30562499 0.95186400 1.905766e-42
28.95109900 32.84240000 429.85599000 0.00256413 -0.31172100 0.95016998 1.905766e-42
27.30590100 32.12279900 429.73199000 -0.02125660 -0.32506001 0.94545501 1.905766e-42
25.51840000 31.95520000 429.60199000 -0.04605880 -0.33155900 0.94230902 1.905766e-42
23.80439900 31.50029900 429.29401000 -0.07072580 -0.34283999 0.93672800 1.905766e-42
22.07230000 31.15930000 428.94199000 -0.09546510 -0.35271499 0.93084800 1.905766e-42
20.46520000 30.47120100 428.51401000 -0.11910000 -0.36717299 0.92249602 1.905766e-42
18.71180000 30.33449900 428.13000000 -0.14339399 -0.37357801 0.91644800 1.905766e-42
17.10650100 29.66239900 427.67099000 -0.16382501 -0.38673800 0.90752101 1.905766e-42
15.36880000 29.85969900 427.24500000 -0.17969701 -0.38914099 0.90348101 1.905766e-42
13.70610000 29.30069900 426.84100000 -0.19691999 -0.40143999 0.89446503 1.905766e-42
12.09900000 28.74519900 426.25000000 -0.21515501 -0.41459301 0.88420600 1.905766e-42
10.38250000 28.76240000 425.70901000 -0.23392799 -0.42123300 0.87626499 1.905766e-42
8.83524990 28.07990100 425.09201000 -0.25350600 -0.43438300 0.86431801 1.905766e-42
7.16357990 28.10610000 424.42499000 -0.27376100 -0.44046000 0.85501403 1.905766e-42
5.50492000 27.87280100 423.76599000 -0.28824699 -0.44792399 0.84633201 1.905766e-42
3.88691000 27.84120000 422.97800000 -0.30126101 -0.45388600 0.83858800 1.905766e-42
2.28410010 27.32959900 422.33801000 -0.31508100 -0.46044299 0.82988900 1.905766e-42
0.67027497 27.11109900 421.57101000 -0.32940501 -0.46529600 0.82157898 1.905766e-42
-0.96903199 27.00499900 420.83600000 -0.34412700 -0.46939299 0.81317103 1.905766e-42
-2.54956010 26.74420000 420.01501000 -0.35958499 -0.47302800 0.80432802 1.905766e-42
-4.09060000 26.41550100 419.14499000 -0.37518200 -0.47582299 0.79550701 1.905766e-42
-5.60368010 26.42210000 418.17001000 -0.39090601 -0.47835401 0.78636497 1.905766e-42
-7.00955010 25.71040000 417.29999000 -0.40735200 -0.47738001 0.77857101 1.905766e-42
-8.53353980 25.50610000 416.36401000 -0.42392501 -0.48708701 0.76356602 1.905766e-42
-9.98631950 25.88690000 415.37201000 -0.44075701 -0.49021700 0.75194401 1.905766e-42
-11.45760000 25.32920100 414.49701000 -0.45744300 -0.50327402 0.73311800 1.905766e-42
-12.77910000 24.83490000 413.38000000 -0.47277501 -0.51642197 0.71399701 1.905766e-42
-14.20640000 24.71649900 412.28900000 -0.48355699 -0.52676898 0.69906199 1.905766e-42
-15.22030000 23.96080000 411.00800000 -0.49388301 -0.54303700 0.67910999 1.905766e-42
-16.66830100 23.97370000 409.93900000 -0.50455600 -0.55210298 0.66378099 1.905766e-42
-18.18670100 24.30380100 409.03101000 -0.51352602 -0.55980998 0.65031099 1.905766e-42
-19.64900000 24.86920000 408.14600000 -0.52018702 -0.56866801 0.63719797 1.905766e-42
-20.60129900 24.14539900 406.80099000 -0.53374100 -0.58163202 0.61386102 1.905766e-42
-21.39270000 23.42590000 405.35400000 -0.54814899 -0.59280699 0.59000999 1.905766e-42
-21.62610100 22.27210000 403.99200000 -0.56075001 -0.60581398 0.56440198 1.905766e-42
-21.50650000 20.99360100 402.73001000 -0.56901300 -0.61923802 0.54108101 1.905766e-42
-21.83659900 20.05150000 401.23300000 -0.57845902 -0.63108301 0.51683599 1.905766e-42
-21.42910000 18.71680100 400.09601000 -0.57932502 -0.64295000 0.50099599 1.905766e-42
-20.93840000 17.43650100 398.92899000 -0.57711899 -0.65556997 0.48699301 1.905766e-42
-21.00600100 16.41680000 397.44800000 -0.57845902 -0.66464603 0.47289601 1.905766e-42
-20.55640000 15.13730000 396.26401000 -0.57493001 -0.67515099 0.46219799 1.905766e-42
-20.11190000 13.96020000 394.97699000 -0.57182097 -0.68512398 0.45124900 1.905766e-42
-19.76840000 12.81330000 393.63300000 -0.56924498 -0.69449002 0.44004899 1.905766e-42
-19.28150000 11.61990000 392.37601000 -0.56561399 -0.70385098 0.42973700 1.905766e-42
-18.55320000 10.40820000 391.26199000 -0.56030899 -0.71382803 0.42012399 1.905766e-42
-18.30010000 9.55848030 389.69601000 -0.55776501 -0.72302598 0.40759200 1.905766e-42
-17.32259900 8.25199030 388.93600000 -0.54954302 -0.73435301 0.39840701 1.905766e-42
-16.26880100 6.99322990 388.19699000 -0.54092902 -0.74595201 0.38852599 1.905766e-42
-15.49490000 5.86239000 387.03000000 -0.53360999 -0.75802702 0.37504199 1.905766e-42
-14.68940000 4.77380990 385.84399000 -0.52650398 -0.76905102 0.36242801 1.905766e-42
-13.33410000 3.67342000 385.40601000 -0.51804501 -0.77836001 0.35466301 1.905766e-42
-11.95560000 2.65669990 384.85300000 -0.50990403 -0.78788197 0.34531099 1.905766e-42
-10.76470000 1.49583010 384.16400000 -0.50244999 -0.79770398 0.33348399 1.905766e-42
-9.55062960 0.55652702 383.22400000 -0.49601099 -0.80748200 0.31929001 1.905766e-42
-8.16458030 -0.58780402 383.12701000 -0.49233299 -0.81313401 0.31051800 1.905766e-42
-6.66870020 -1.58737000 383.18399000 -0.49210101 -0.81546497 0.30472001 1.905766e-42
-5.11777020 -2.50090000 383.17499000 -0.48092401 -0.81847900 0.31433201 1.905766e-42
-3.80555010 -3.50837990 382.46600000 -0.47309601 -0.82218403 0.31653401 1.905766e-42
-2.20941000 -4.33870980 382.41199000 -0.45929900 -0.82747501 0.32300001 1.905766e-42
-0.76478899 -5.25122980 381.84601000 -0.44769901 -0.83359402 0.32355201 1.905766e-42
0.70916802 -6.24390980 381.56000000 -0.43401799 -0.84043700 0.32449099 1.905766e-42
2.25443010 -7.16354990 381.47900000 -0.41936600 -0.84733301 0.32582101 1.905766e-42
3.80372000 -7.85782000 380.88101000 -0.40646499 -0.85499501 0.32213199 1.905766e-42
5.41079000 -8.54370020 380.44901000 -0.39379901 -0.86231399 0.31833401 1.905766e-42
6.81848000 -9.61544040 380.78000000 -0.38453099 -0.86584699 0.32006899 1.905766e-42
8.33992960 -10.28010000 380.08499000 -0.37674201 -0.87024099 0.31740400 1.905766e-42
9.89632030 -11.17810000 379.97900000 -0.36809099 -0.87419701 0.31668401 1.905766e-42
11.53180000 -11.92980000 379.98801000 -0.35962000 -0.87786698 0.31626299 1.905766e-42
13.08690000 -12.60160000 379.37900000 -0.35200700 -0.88236302 0.31229201 1.905766e-42
14.68820000 -13.25870000 378.88501000 -0.34420300 -0.88687903 0.30817199 1.905766e-42
16.29640000 -13.99880000 378.56000000 -0.33421499 -0.89190900 0.30462801 1.905766e-42
