# .PCD v0.7 - Point Cloud Data file format
# 3 44 0
# 1 18 0
# 19 30 0
# 31 44 0
VERSION 0.7
FIELDS x y z normal_x normal_y normal_z curvature
SIZE 4 4 4 4 4 4 4
TYPE F F F F F F F
COUNT 1 1 1 1 1 1 1
WIDTH 44
HEIGHT 1
VIEWPOINT 0 0 0 1 0 0 0
POINTS 44
DATA ascii
13.46110000 2.09595990 463.08200000 -0.25221500 0.65789002 0.70962602 1.905766e-42
15.47020000 0.23256300 465.44400000 -0.14772099 0.67060101 0.72696102 1.905766e-42
16.54509900 1.40022000 464.59500000 -0.06604190 0.67878199 0.73136401 1.905766e-42
17.19940000 2.71569990 463.55499000 -0.03398930 0.70196402 0.71139997 1.905766e-42
18.20560100 3.75108000 462.48001000 0.00461527 0.71541703 0.69868302 1.905766e-42
19.31049900 4.76629020 461.48599000 0.00465033 0.69391203 0.72004497 1.905766e-42
20.66950000 5.51018000 460.56900000 -0.01622750 0.65684098 0.75385398 1.905766e-42
21.11010000 7.01324990 459.68201000 -0.07993650 0.63746899 0.76631802 1.905766e-42
22.34199900 7.98563000 458.80099000 -0.04316240 0.59141302 0.80521297 1.905766e-42
22.83230000 9.45366950 457.88199000 -0.04148410 0.59606302 0.80186498 1.905766e-42
23.59779900 10.79870000 456.96301000 -0.00194668 0.59494299 0.80376601 1.905766e-42
24.27470000 12.09600000 455.91400000 0.01590850 0.59625298 0.80263901 1.905766e-42
25.22139900 13.17970000 454.83301000 0.00166218 0.59079897 0.80681700 1.905766e-42
25.61910100 14.71090000 453.97501000 -0.05810920 0.56303400 0.82438898 1.905766e-42
26.27680000 16.14250000 453.10400000 -0.08487310 0.51118398 0.85527003 1.905766e-42
26.80760000 17.66099900 452.29599000 -0.06210250 0.50801599 0.85910600 1.905766e-42
27.41670000 19.10460100 451.41000000 0.00364920 0.53694397 0.84360999 1.905766e-42
28.00260000 20.51580000 450.45901000 0.07364520 0.53451002 0.84194702 1.905766e-42
28.60740100 21.92960000 449.52301000 0.19670799 0.52761197 0.82639700 1.905766e-42
26.84709900 22.30100100 449.46600000 0.04404810 0.50706798 0.86078000 1.905766e-42
25.05040000 22.39200000 449.40500000 -0.04721340 0.48024899 0.87586099 1.905766e-42
23.25120000 22.40169900 449.35300000 -0.07890170 0.45170400 0.88867199 1.905766e-42
21.54620000 22.84170000 448.97900000 -0.05245430 0.43680200 0.89802700 1.905766e-42
19.75009900 22.90720000 448.88199000 0.02674330 0.42500499 0.90479600 1.905766e-42
18.01450000 22.52669900 449.17001000 0.07495710 0.42636001 0.90144199 1.905766e-42
16.26969900 22.94910000 449.04001000 0.05849510 0.40165201 0.91392201 1.905766e-42
14.48730000 23.19260000 449.10300000 0.02906400 0.36794999 0.92939103 1.905766e-42
12.68840000 23.20410000 449.16400000 0.01256660 0.35516700 0.93471801 1.905766e-42
10.88860000 23.21470100 449.18500000 0.00224262 0.37194699 0.92825103 1.905766e-42
9.54553990 22.08099900 449.57401000 0.00970946 0.41218901 0.91104698 1.905766e-42
8.41032980 20.79960100 450.13000000 0.03772350 0.44764701 0.89341402 1.905766e-42
7.66467000 19.42630000 451.02399000 0.06076950 0.44962400 0.89114797 1.905766e-42
6.58209990 18.17880100 451.73901000 0.04751560 0.45133001 0.89109099 1.905766e-42
6.90244010 16.56230000 452.46301000 0.03079470 0.43323499 0.90075499 1.905766e-42
7.54325010 15.06010000 453.22000000 0.00052116 0.44471201 0.89567399 1.905766e-42
7.20048000 13.34960000 453.66299000 -0.06497400 0.47130701 0.87957299 1.905766e-42
7.85468010 11.99920000 454.65799000 -0.08730340 0.51789802 0.85097599 1.905766e-42
8.58841990 10.82130000 455.80399000 -0.05954520 0.54035002 0.83933097 1.905766e-42
8.86007020 9.21304990 456.56500000 -0.08414760 0.53430903 0.84109002 1.905766e-42
9.37454990 7.83958010 457.60901000 -0.13090000 0.53704399 0.83333600 1.905766e-42
10.21360000 6.66113000 458.67999000 -0.17888001 0.56910098 0.80257398 1.905766e-42
10.89060000 5.35722020 459.72000000 -0.20406100 0.59991598 0.77360201 1.905766e-42
12.03080000 4.50127980 460.81900000 -0.18003900 0.62693501 0.75798303 1.905766e-42
12.74090000 3.27142000 461.92499000 -0.20771401 0.63730103 0.74209303 1.905766e-42
