# .PCD v0.7 - Point Cloud Data file format
# 3 74 0
# 1 30 0
# 31 62 0
# 63 74 0
VERSION 0.7
FIELDS x y z normal_x normal_y normal_z curvature
SIZE 4 4 4 4 4 4 4
TYPE F F F F F F F
COUNT 1 1 1 1 1 1 1
WIDTH 74
HEIGHT 1
VIEWPOINT 0 0 0 1 0 0 0
POINTS 74
DATA ascii
41.4739 33.586399 475.09698 0.441838 -0.51628101 -0.733643 1.9057659e-42
40.991402 32.070202 475.939 0.495013 -0.49664801 -0.71295398 1.9057659e-42
40.031101 30.5748 476.22501 0.49470901 -0.458738 -0.73812097 1.9057659e-42
39.273201 28.9886 476.612 0.53351802 -0.41371 -0.737701 1.9057659e-42
38.347198 27.453199 476.76999 0.56383598 -0.36420801 -0.741243 1.9057659e-42
37.4072 25.918301 476.79099 0.59056699 -0.32158801 -0.740143 1.9057659e-42
36.572102 24.323799 476.79099 0.62509298 -0.29200399 -0.72387302 1.9057659e-42
35.539299 22.920601 476.33899 0.64893699 -0.246555 -0.71978599 1.9057659e-42
34.416302 21.671 475.69299 0.66226798 -0.189237 -0.724976 1.9057659e-42
33.6311 20.098 475.30701 0.70350403 -0.16361099 -0.69160199 1.9057659e-42
32.693699 18.742701 474.58301 0.72554201 -0.12829299 -0.67611301 1.9057659e-42
31.883801 17.2675 473.944 0.75298601 -0.117626 -0.64743799 1.9057659e-42
30.9494 15.9857 473.09299 0.76702499 -0.088579901 -0.63547301 1.9057659e-42
30.1724 14.5562 472.323 0.791426 -0.079169601 -0.606116 1.9057659e-42
29.4228 13.158 471.47299 0.81247503 -0.067416497 -0.57908499 1.9057659e-42
28.509001 12.1886 470.26199 0.814282 -0.0165969 -0.58023202 1.9057659e-42
27.713699 11.0818 469.08701 0.82397401 0.0270954 -0.565979 1.9057659e-42
26.893 10.1191 467.806 0.82498199 0.079060398 -0.55960101 1.9057659e-42
26.0308 9.3840704 466.40701 0.81747103 0.148834 -0.55640799 1.9057659e-42
25.1984 8.6989403 464.966 0.807935 0.22643299 -0.54403102 1.9057659e-42
24.109699 8.7833595 463.535 0.749659 0.34870201 -0.56251001 1.9057659e-42
23.289101 8.3270102 461.99899 0.72967398 0.42444101 -0.53612101 1.9057659e-42
22.73 7.5203199 460.48999 0.74732602 0.45155701 -0.487443 1.9057659e-42
21.898701 7.28304 458.91199 0.72609502 0.49358001 -0.47871199 1.9057659e-42
20.5446 8.3615999 458.418 0.56591702 0.68338698 -0.461216 1.9057659e-42
19.1192 8.7826996 457.40302 0.50802302 0.72000498 -0.472763 1.9057659e-42
17.685801 9.1997404 456.397 0.43843299 0.74391901 -0.50434297 1.9057659e-42
16.4375 8.5390902 455.28101 0.35393599 0.75218099 -0.55583602 1.9057659e-42
14.2853 8.2866001 454.397 0.15592299 0.77026701 -0.618366 1.9057659e-42
12.6678 9.0762796 454.397 0.207353 0.708381 -0.67468601 1.9057659e-42
11.1169 9.9529696 454.655 0.337677 0.67829102 -0.65260702 1.9057659e-42
9.8401499 11.1267 455.13699 0.36287299 0.76084203 -0.53799897 1.9057659e-42
8.80651 12.1135 456.23099 0.233403 0.90319198 -0.36023301 1.9057659e-42
8.0799704 12.7006 457.76999 0.0283504 0.972893 -0.22950999 1.9057659e-42
7.3643398 12.9698 459.39899 -0.13217001 0.97678602 -0.168585 1.9057659e-42
7.2114601 13.2645 461.168 -0.26908001 0.95226902 -0.14414801 1.9057659e-42
7.3186002 13.5645 462.94 -0.46618599 0.87975103 -0.093326703 1.9057659e-42
8.0233297 14.2212 464.45999 -0.47924399 0.86300802 -0.159821 1.9057659e-42
7.9531398 14.4311 466.24701 -0.66150302 0.74817097 -0.051504999 1.9057659e-42
7.3249102 13.4909 467.647 -0.77897501 0.62256402 0.074910901 1.9057659e-42
7.8205299 13.8757 469.33401 -0.80657798 0.58331198 0.095809698 1.9057659e-42
8.7069702 15.0942 470.319 -0.791242 0.60860902 0.0594224 1.9057659e-42
9.4812403 15.9153 471.72101 -0.795268 0.60457402 0.045159198 1.9057659e-42
10.2684 16.8964 473.009 -0.79858702 0.601255 0.0274236 1.9057659e-42
11.0203 17.903299 474.297 -0.80664098 0.59068203 0.0206264 1.9057659e-42
11.9328 19.115801 475.26501 -0.80780798 0.589441 -0.00246052 1.9057659e-42
12.6581 20.004499 476.65302 -0.826855 0.56228697 0.0120282 1.9057659e-42
13.5435 21.3613 477.43701 -0.82899702 0.55908799 -0.0136069 1.9057659e-42
14.3661 22.6486 478.38901 -0.83615899 0.54800701 -0.0229342 1.9057659e-42
15.2509 24.092501 478.99899 -0.83440298 0.54921299 -0.046228699 1.9057659e-42
16.105 25.3808 479.92099 -0.84193999 0.53787601 -0.042745199 1.9057659e-42
16.9454 26.7757 480.68799 -0.84697402 0.52952099 -0.047357801 1.9057659e-42
17.8745 28.3146 480.78101 -0.84259897 0.53189301 -0.084361702 1.9057659e-42
18.7551 29.7831 481.336 -0.847633 0.523206 -0.088172399 1.9057659e-42
19.6784 31.314899 481.53799 -0.847866 0.517829 -0.11391 1.9057659e-42
20.569201 32.8783 481.58801 -0.84433597 0.51599699 -0.144372 1.9057659e-42
21.4664 34.438702 481.578 -0.842713 0.51326799 -0.162451 1.9057659e-42
22.442101 35.951302 481.57999 -0.84655601 0.50894302 -0.155949 1.9057659e-42
23.354 37.423698 481.08899 -0.855133 0.48521599 -0.182519 1.9057659e-42
24.265699 38.7388 480.26501 -0.86023599 0.43630701 -0.26387501 1.9057659e-42
25.031799 40.312099 480.68701 -0.87727201 0.46602201 -0.114961 1.9057659e-42
25.9291 41.870899 480.75699 -0.86111999 0.50603002 0.049054701 1.9057659e-42
26.545799 42.8643 479.38901 -0.88965499 0.41553101 -0.189335 1.9057659e-42
27.1423 42.740601 477.69501 -0.81123799 0.230979 -0.53716099 1.9057659e-42
27.936501 41.635101 476.517 -0.662265 0.074850202 -0.74552101 1.9057659e-42
28.7911 40.1987 475.849 -0.53199899 -0.023460601 -0.84641999 1.9057659e-42
30.2379 39.390499 475.146 -0.43311301 -0.103939 -0.89532602 1.9057659e-42
31.8706 39.5998 474.418 -0.39546001 -0.157162 -0.90493703 1.9057659e-42
33.3941 38.779202 473.923 -0.32669401 -0.20432401 -0.92277998 1.9057659e-42
35.073299 38.212601 473.60699 -0.26828301 -0.25007901 -0.930314 1.9057659e-42
36.2369 36.839199 473.599 -0.223662 -0.26498201 -0.93795502 1.9057659e-42
37.912201 36.211601 473.401 -0.15719201 -0.30039999 -0.94077098 1.9057659e-42
39.692799 36.036499 473.203 -0.043681301 -0.355463 -0.93366897 1.9057659e-42
40.597099 34.682201 473.97 0.25977001 -0.461559 -0.84822297 1.9057659e-42
