# .PCD v0.7 - Point Cloud Data file format
# 2 133 1
# 1 59 1
# 60 133 0
VERSION 0.7
FIELDS x y z normal_x normal_y normal_z curvature
SIZE 4 4 4 4 4 4 4
TYPE F F F F F F F
COUNT 1 1 1 1 1 1 1
WIDTH 133
HEIGHT 1
VIEWPOINT 0 0 0 1 0 0 0
POINTS 133
DATA ascii
67.22750100 19.20330000 431.00400000 0.74647999 0.05969730 0.66272497 1.905766e-42
66.25820200 19.30680100 432.51801000 0.73631197 0.07217780 0.67278200 1.905766e-42
65.11090100 19.69050000 433.85001000 0.72318298 0.09164290 0.68454999 1.905766e-42
63.89519900 20.13850000 435.10001000 0.71061301 0.10707900 0.69538802 1.905766e-42
62.58760100 20.92180100 436.05701000 0.69436502 0.14159501 0.70555502 1.905766e-42
61.21979900 21.61490100 437.00000000 0.67040300 0.18665799 0.71813500 1.905766e-42
60.02809900 21.67550100 438.34799000 0.64790499 0.19433901 0.73651302 1.905766e-42
58.57049900 22.43549900 439.08099000 0.61648601 0.25694400 0.74426198 1.905766e-42
57.33290100 22.48900000 440.38699000 0.59317797 0.25588399 0.76332402 1.905766e-42
55.94929900 22.57630000 441.53500000 0.56870800 0.25047499 0.78347498 1.905766e-42
54.44100200 23.26280000 442.23801000 0.55037099 0.27707499 0.78760499 1.905766e-42
52.95740100 23.38340000 443.25000000 0.52555799 0.25583801 0.81137902 1.905766e-42
51.38970200 24.05209900 443.82901000 0.49630100 0.28434101 0.82026500 1.905766e-42
49.86859900 24.11020100 444.79001000 0.46112901 0.27752799 0.84281600 1.905766e-42
48.29900000 24.18730000 445.66699000 0.42499599 0.27536601 0.86229497 1.905766e-42
46.67319900 24.86290000 446.04199000 0.38842899 0.31984600 0.86418802 1.905766e-42
45.05849800 24.99830100 446.82599000 0.35531801 0.32101601 0.87789398 1.905766e-42
43.37500000 25.45910100 447.26501000 0.32408300 0.34408101 0.88123697 1.905766e-42
41.65499900 25.76779900 447.69699000 0.29089499 0.35772401 0.88736302 1.905766e-42
39.92030000 26.06690000 448.07300000 0.25714299 0.37044400 0.89255202 1.905766e-42
38.17179900 26.44199900 448.27802000 0.22461200 0.38722900 0.89420497 1.905766e-42
36.46460000 26.53109900 448.84201000 0.19311000 0.37987101 0.90465802 1.905766e-42
34.71519900 26.45410000 449.25900000 0.16222499 0.36426800 0.91705602 1.905766e-42
32.93270100 26.47750100 449.50800000 0.13106801 0.35250500 0.92658597 1.905766e-42
31.31060000 27.13060000 449.08099000 0.10754900 0.37726000 0.91984099 1.905766e-42
29.57930000 26.96570000 449.54501000 0.07106780 0.35010001 0.93401301 1.905766e-42
27.79810000 27.20120000 449.43600000 0.03801860 0.34547499 0.93765700 1.905766e-42
26.00140000 27.20319900 449.54501000 0.00049849 0.32703301 0.94501299 1.905766e-42
24.20369900 27.13320000 449.60400000 -0.03837950 0.30613700 0.95121402 1.905766e-42
22.41650000 26.92289900 449.64200000 -0.07852230 0.28117499 0.95643800 1.905766e-42
20.69269900 26.42560000 449.78799000 -0.11913200 0.24839801 0.96130401 1.905766e-42
18.92639900 26.35020100 449.45001000 -0.15786000 0.23435800 0.95924801 1.905766e-42
17.17939900 26.40679900 449.01999000 -0.19645099 0.22605500 0.95410001 1.905766e-42
15.40820000 26.20220000 448.77301000 -0.23690100 0.21072400 0.94840598 1.905766e-42
13.68800000 25.85220000 448.37500000 -0.27645600 0.19469100 0.94109899 1.905766e-42
12.03680000 26.25169900 447.78000000 -0.31163001 0.20184000 0.92851901 1.905766e-42
10.37260000 26.40710100 447.11200000 -0.34347099 0.20313799 0.91693097 1.905766e-42
8.70750050 26.20520000 446.45901000 -0.37626901 0.19491100 0.90577602 1.905766e-42
7.10641000 25.61560100 445.88501000 -0.40938699 0.17737301 0.89495301 1.905766e-42
5.52979990 24.83560000 445.50299000 -0.44023001 0.15439001 0.88451201 1.905766e-42
3.97709990 24.88069900 444.59399000 -0.47078899 0.15573700 0.86839098 1.905766e-42
2.39599990 24.81480000 443.73599000 -0.49921700 0.15628199 0.85226601 1.905766e-42
0.85821402 24.93860100 442.80899000 -0.52881002 0.16530500 0.83248699 1.905766e-42
-0.61826301 25.05250000 441.78500000 -0.56247300 0.17750400 0.80753702 1.905766e-42
-1.99520000 25.42470000 440.68701000 -0.59509701 0.19683599 0.77917600 1.905766e-42
-3.29774000 25.66690100 439.46899000 -0.62569898 0.21723101 0.74920702 1.905766e-42
-4.47004990 25.91140000 438.12500000 -0.65359598 0.24159899 0.71724600 1.905766e-42
-5.85286000 25.59410100 437.01700000 -0.66683298 0.27575800 0.69230902 1.905766e-42
-7.07835010 25.49799900 435.70200000 -0.68930501 0.28485301 0.66612202 1.905766e-42
-8.45549960 24.94610000 434.68301000 -0.71448600 0.25431201 0.65179402 1.905766e-42
-9.63568020 24.75390100 433.33801000 -0.73832101 0.24361300 0.62891501 1.905766e-42
-10.74350000 24.64909900 431.92300000 -0.76100999 0.23328400 0.60534501 1.905766e-42
-11.84630000 24.38220000 430.52499000 -0.78428501 0.21249200 0.58287603 1.905766e-42
-12.97700000 23.97629900 429.18500000 -0.80600101 0.18705601 0.56158000 1.905766e-42
-13.98750000 23.73440000 427.71500000 -0.82270402 0.17381400 0.54124600 1.905766e-42
-14.97900000 23.32049900 426.27100000 -0.83832502 0.15378700 0.52302998 1.905766e-42
-15.85100000 22.96649900 424.73700000 -0.85375398 0.13196500 0.50367600 1.905766e-42
-16.73920100 22.69339900 423.19501000 -0.86765403 0.11192900 0.48440599 1.905766e-42
-17.72890100 21.95520000 421.50800000 -0.88307297 0.07518290 0.46317300 1.905766e-42
-18.50540000 20.49080100 420.80600000 -0.89082003 0.02281480 0.45378399 1.905766e-42
-18.51000000 18.69599900 420.94199000 -0.89113098 -0.00832068 0.45367101 1.905766e-42
-18.14580000 17.06679900 421.61499000 -0.88752800 -0.03498060 0.45942399 1.905766e-42
-17.90029900 15.28680000 421.72000000 -0.88607699 -0.06143570 0.45944899 1.905766e-42
-17.35730000 13.78150000 422.54401000 -0.88062102 -0.08067970 0.46690199 1.905766e-42
-16.85450000 12.17910000 423.19199000 -0.87446302 -0.09630230 0.47543699 1.905766e-42
-16.47340000 10.42820000 423.36301000 -0.86660701 -0.11568400 0.48539600 1.905766e-42
-16.07049900 8.79446980 424.00201000 -0.85317099 -0.15083501 0.49934700 1.905766e-42
-15.44770000 7.12899020 424.28201000 -0.83380598 -0.20513900 0.51252800 1.905766e-42
-14.77110000 5.53617000 424.77701000 -0.80500299 -0.28225699 0.52182502 1.905766e-42
-13.92170000 3.94921990 424.78201000 -0.76235902 -0.40143001 0.50760502 1.905766e-42
-12.93330000 2.44494010 424.79800000 -0.71240199 -0.50808197 0.48408201 1.905766e-42
-11.86740000 0.99455202 424.81201000 -0.66574502 -0.59127301 0.45517099 1.905766e-42
-10.52480000 -0.10282800 425.29501000 -0.63366002 -0.63288498 0.44489500 1.905766e-42
-9.35204030 -1.35906990 424.76001000 -0.62145299 -0.66061598 0.42116901 1.905766e-42
-8.12734990 -2.67772010 424.79599000 -0.61290598 -0.67720002 0.40711999 1.905766e-42
-6.79738000 -3.89042000 424.77301000 -0.58110499 -0.71052700 0.39682299 1.905766e-42
-5.41973020 -5.04694990 424.70499000 -0.53370899 -0.75599498 0.37898099 1.905766e-42
-3.91929010 -6.03748990 424.79199000 -0.48371601 -0.79736400 0.36087400 1.905766e-42
-2.36361000 -6.94035010 424.72299000 -0.44540000 -0.82089901 0.35741299 1.905766e-42
-0.80941302 -7.84630010 424.78400000 -0.45762101 -0.74541599 0.48470399 1.905766e-42
0.80432397 -8.64299010 424.81799000 -0.47421601 -0.64844197 0.59551799 1.905766e-42
2.39378000 -8.98301030 425.59100000 -0.46370199 -0.62370598 0.62926197 1.905766e-42
3.71190000 -10.18230000 425.33801000 -0.52059102 -0.45863500 0.72016603 1.905766e-42
4.96735000 -11.46780000 425.44400000 -0.54891199 -0.33961201 0.76378000 1.905766e-42
6.15112020 -12.56910000 426.23499000 -0.55857497 -0.27585399 0.78223997 1.905766e-42
7.32605980 -13.71280000 426.97800000 -0.56220597 -0.22851101 0.79479998 1.905766e-42
8.71697040 -13.61220000 428.11600000 -0.56562603 -0.24634600 0.78700799 1.905766e-42
10.20860000 -13.59750000 429.12299000 -0.57072598 -0.25655100 0.78003401 1.905766e-42
11.63810000 -13.33580000 430.18600000 -0.55955899 -0.26825899 0.78417498 1.905766e-42
13.14060000 -13.10150000 431.14899000 -0.48282599 -0.27304000 0.83206302 1.905766e-42
14.86050000 -13.44490000 431.55399000 -0.40942901 -0.25521600 0.87591797 1.905766e-42
16.47440000 -13.26410000 432.32999000 -0.32764399 -0.23309800 0.91559500 1.905766e-42
17.98329900 -12.82240000 433.20599000 -0.25106001 -0.20008799 0.94706601 1.905766e-42
19.72950000 -12.85110000 433.64200000 -0.18662301 -0.17652600 0.96644199 1.905766e-42
21.51120000 -12.89060000 433.89499000 -0.12943500 -0.16252600 0.97817802 1.905766e-42
23.30780000 -12.83480000 433.98999000 -0.07924750 -0.15532500 0.98468000 1.905766e-42
25.09810100 -12.96850000 434.12100000 -0.02919570 -0.16419700 0.98599499 1.905766e-42
26.73300000 -13.60780000 433.72299000 0.02762840 -0.19676600 0.98006099 1.905766e-42
28.53249900 -13.63460000 433.69601000 0.09195970 -0.21963100 0.97123897 1.905766e-42
30.32819900 -13.67610000 433.57700000 0.16347399 -0.24994200 0.95436102 1.905766e-42
32.08359900 -13.87300000 433.23099000 0.24495700 -0.28127101 0.92783803 1.905766e-42
33.69430200 -14.40060000 432.62500000 0.33061099 -0.29524100 0.89639801 1.905766e-42
35.44390100 -14.40420000 432.20200000 0.35328001 -0.31889799 0.87948698 1.905766e-42
37.04489900 -14.45600000 431.38101000 0.37524700 -0.33369401 0.86477602 1.905766e-42
38.52619900 -14.96940000 430.49701000 0.40595800 -0.32581699 0.85383898 1.905766e-42
39.88420100 -15.63970000 429.52399000 0.44480601 -0.30935001 0.84050602 1.905766e-42
41.40350000 -15.61580000 428.55899000 0.48790801 -0.32600400 0.80973202 1.905766e-42
42.68240000 -14.38470000 428.26099000 0.48980400 -0.41139501 0.76866502 1.905766e-42
44.03680000 -13.80590000 427.22601000 0.52059799 -0.47724599 0.70796502 1.905766e-42
45.36249900 -12.59080000 427.30301000 0.45319599 -0.60487199 0.65478498 1.905766e-42
46.98220100 -11.80590000 427.28000000 0.40337700 -0.70308000 0.58563298 1.905766e-42
48.64870100 -11.12600000 427.30200000 0.36494601 -0.77276802 0.51927203 1.905766e-42
50.09719800 -10.34360000 428.03000000 0.32942700 -0.82587200 0.45761701 1.905766e-42
51.67269900 -9.47966000 428.13599000 0.33429000 -0.84282100 0.42178500 1.905766e-42
53.12960100 -8.65719030 428.79999000 0.36768600 -0.83328801 0.41284001 1.905766e-42
54.42020000 -7.44216010 429.11301000 0.42577201 -0.78039998 0.45792300 1.905766e-42
55.73569900 -6.32113980 429.61600000 0.44715500 -0.74122798 0.50063300 1.905766e-42
57.24929800 -5.35410980 429.73401000 0.45701700 -0.71913898 0.52342701 1.905766e-42
58.51010100 -4.24478010 430.38199000 0.46765199 -0.69614798 0.54468298 1.905766e-42
59.87110100 -3.07782010 430.54300000 0.48332801 -0.67316800 0.55967700 1.905766e-42
60.71989800 -1.62841000 431.19000000 0.51740098 -0.60942298 0.60074902 1.905766e-42
61.85789900 -0.24525300 431.36801000 0.56398797 -0.53168601 0.63184398 1.905766e-42
62.17110100 1.15576000 432.45401000 0.60695398 -0.44992900 0.65511101 1.905766e-42
62.81409800 2.78230000 432.88000000 0.65312600 -0.35537300 0.66868299 1.905766e-42
63.30849800 4.48547980 433.18701000 0.68440503 -0.27625400 0.67473900 1.905766e-42
63.52470000 6.22979020 433.57599000 0.70041001 -0.21572800 0.68035799 1.905766e-42
64.04850000 7.95189000 433.58200000 0.71040398 -0.17104100 0.68269402 1.905766e-42
65.03220400 9.21916010 432.76501000 0.72433698 -0.15814599 0.67106402 1.905766e-42
65.71460000 10.79310000 432.22000000 0.73382503 -0.14375000 0.66395497 1.905766e-42
66.06250000 12.54830000 432.41599000 0.73791599 -0.12779200 0.66268301 1.905766e-42
66.69850200 14.15630000 431.91599000 0.74676800 -0.11122100 0.65571898 1.905766e-42
67.31479600 15.67410000 431.17001000 0.75495499 -0.09010090 0.64955699 1.905766e-42
67.60150100 17.45120000 431.17801000 0.75268698 -0.02335180 0.65796399 1.905766e-42
