# .PCD v0.7 - Point Cloud Data file format
# 4 144 0
# 1 43 0
# 44 88 0
# 89 128 0
# 129 144 0
VERSION 0.7
FIELDS x y z normal_x normal_y normal_z curvature
SIZE 4 4 4 4 4 4 4
TYPE F F F F F F F
COUNT 1 1 1 1 1 1 1
WIDTH 144
HEIGHT 1
VIEWPOINT 0 0 0 1 0 0 0
POINTS 144
DATA ascii
-18.49749900 6.03329990 453.85901000 -0.51284200 0.82393003 0.24110800 1.905766e-42
-17.05960100 6.79677010 454.62601000 -0.49686199 0.83125901 0.24927300 1.905766e-42
-15.56420000 7.48519990 455.35400000 -0.48021299 0.83900601 0.25586000 1.905766e-42
-14.03330000 7.96591000 456.17001000 -0.46313599 0.84444398 0.26910800 1.905766e-42
-12.47560000 8.69548990 456.70001000 -0.44203201 0.85260600 0.27869400 1.905766e-42
-10.94540000 9.60999970 456.95001000 -0.41879600 0.86407202 0.27926600 1.905766e-42
-9.54936980 9.64852050 458.08499000 -0.39952701 0.85995799 0.31756800 1.905766e-42
-7.94096990 10.01570000 458.80499000 -0.37579301 0.86161900 0.34116301 1.905766e-42
-6.31225010 10.52330000 459.37900000 -0.35161701 0.86558199 0.35655701 1.905766e-42
-4.66305020 10.85320000 460.02100000 -0.32453299 0.86830002 0.37514400 1.905766e-42
-2.99797010 11.24670000 460.57999000 -0.29613501 0.87216800 0.38939399 1.905766e-42
-1.34654000 11.37440000 461.28500000 -0.27053899 0.87063801 0.41084999 1.905766e-42
0.33864501 11.88090000 461.66400000 -0.24454699 0.87827802 0.41088301 1.905766e-42
1.91709010 11.60920000 462.48499000 -0.23121300 0.87139398 0.43268001 1.905766e-42
3.62400010 12.07290000 462.81900000 -0.21274900 0.88088799 0.42281699 1.905766e-42
5.36010980 12.32640000 463.22101000 -0.19680400 0.88524199 0.42144400 1.905766e-42
7.08747010 12.81170000 463.36499000 -0.17558500 0.89468402 0.41074300 1.905766e-42
8.79625030 12.76790000 463.92899000 -0.15344900 0.88872898 0.43198901 1.905766e-42
10.52300000 12.67870000 464.42899000 -0.12738600 0.88098001 0.45568299 1.905766e-42
12.11730000 12.15010000 465.07599000 -0.10216700 0.86244100 0.49573901 1.905766e-42
13.88200000 12.11340000 465.42899000 -0.07624310 0.85486603 0.51321602 1.905766e-42
15.66660000 12.24340000 465.62500000 -0.05358190 0.85375899 0.51790398 1.905766e-42
17.44860100 12.47240000 465.73499000 -0.03234430 0.85794401 0.51272398 1.905766e-42
19.17359900 12.12810000 466.11700000 -0.01184170 0.85083598 0.52529699 1.905766e-42
20.96550000 12.15550000 466.28601000 0.00996260 0.85438198 0.51955003 1.905766e-42
22.76059900 12.19920000 466.41000000 0.03000770 0.86007398 0.50928497 1.905766e-42
24.55290000 12.07780000 466.52499000 0.04765090 0.86403602 0.50116998 1.905766e-42
26.34550100 12.17580000 466.39499000 0.06818340 0.87138498 0.48583800 1.905766e-42
28.13489900 11.98240000 466.42099000 0.08784580 0.86957502 0.48592401 1.905766e-42
29.85800000 11.51600000 466.65201000 0.11232800 0.85814101 0.50097501 1.905766e-42
31.35920000 10.68380000 467.19400000 0.13774000 0.83477801 0.53307801 1.905766e-42
33.14780000 10.48170000 467.19699000 0.16819400 0.82815403 0.53466898 1.905766e-42
34.32300200 10.62550000 466.96100000 0.18729800 0.83119202 0.52348697 1.905766e-42
35.77230100 9.61489010 467.30399000 0.21075401 0.81025100 0.54687798 1.905766e-42
37.55229900 9.37310980 467.19000000 0.23518300 0.80771101 0.54064101 1.905766e-42
39.27759900 8.86250970 467.13699000 0.25384301 0.80478400 0.53655100 1.905766e-42
41.04510100 8.73550990 466.82101000 0.27160701 0.81300998 0.51501900 1.905766e-42
42.69820000 8.02351000 466.81601000 0.28348801 0.81511199 0.50519902 1.905766e-42
44.44549900 7.86034010 466.41501000 0.30272001 0.82578802 0.47585201 1.905766e-42
46.06689800 7.07967000 466.37500000 0.31336001 0.83204901 0.45771101 1.905766e-42
47.73320000 7.02411990 465.69699000 0.33781800 0.84234297 0.41992599 1.905766e-42
49.38840100 6.40264990 465.35901000 0.35596901 0.84958303 0.38922399 1.905766e-42
50.96300100 6.13310000 464.53000000 0.38416201 0.85258901 0.35427499 1.905766e-42
52.57939900 5.57629010 463.96701000 0.39305300 0.85866702 0.32893801 1.905766e-42
53.28170000 5.99526980 462.36301000 0.41489801 0.85132200 0.32110801 1.905766e-42
54.55970000 5.79142000 461.11200000 0.43183801 0.84742302 0.30885199 1.905766e-42
55.38800000 5.92719980 459.51999000 0.45272300 0.83591402 0.31030500 1.905766e-42
56.02600100 6.20880990 457.85999000 0.47358099 0.82031298 0.32063699 1.905766e-42
56.74250000 6.45163010 456.22699000 0.49470100 0.80238199 0.33384699 1.905766e-42
57.64360000 6.51343010 454.67001000 0.51721603 0.78312498 0.34525600 1.905766e-42
58.71970000 6.42009020 453.23001000 0.54121399 0.76340199 0.35257000 1.905766e-42
59.80600000 6.36541990 451.79599000 0.54957700 0.74982202 0.36841801 1.905766e-42
60.76300000 6.65374990 450.29901000 0.55204898 0.74262500 0.37914401 1.905766e-42
61.74029900 6.47176980 448.79800000 0.55393702 0.73664498 0.38795200 1.905766e-42
62.26260000 6.91013000 447.13300000 0.55760199 0.72610199 0.40231299 1.905766e-42
62.71149800 7.35296010 445.44699000 0.56123698 0.71559697 0.41585299 1.905766e-42
62.33649800 8.61549000 444.22000000 0.56375402 0.70471197 0.43077001 1.905766e-42
62.33900100 9.55113030 442.68201000 0.56582201 0.69815701 0.43866000 1.905766e-42
62.27740100 10.49090000 441.14801000 0.56642902 0.69758201 0.43879101 1.905766e-42
61.96220000 11.64360000 439.80200000 0.56542599 0.69769299 0.43990701 1.905766e-42
61.75330000 12.70240000 438.36099000 0.56489903 0.69739699 0.44105199 1.905766e-42
61.47850000 13.81320000 436.97198000 0.56364501 0.69731998 0.44277501 1.905766e-42
61.21730000 14.92160000 435.57800000 0.56201601 0.69903499 0.44214001 1.905766e-42
61.05490100 15.98370000 434.13400000 0.56160903 0.70086902 0.43974799 1.905766e-42
60.93529900 16.96600000 432.63000000 0.56258100 0.70202398 0.43665299 1.905766e-42
60.79029800 18.03510100 431.18900000 0.56322998 0.70330399 0.43374601 1.905766e-42
60.53599900 19.18180100 429.82501000 0.56251800 0.70513803 0.43168700 1.905766e-42
60.01750200 20.30550000 428.51801000 0.55788302 0.71140403 0.42739901 1.905766e-42
59.79130200 21.34849900 427.06900000 0.55545503 0.71697402 0.42121100 1.905766e-42
59.59100000 22.32630000 425.57101000 0.55236399 0.72215098 0.41640499 1.905766e-42
59.19340100 23.45400000 424.22501000 0.54353398 0.72981399 0.41465899 1.905766e-42
59.14740000 24.34149900 422.66000000 0.53928298 0.73354101 0.41363099 1.905766e-42
59.26509900 25.15350000 421.05801000 0.53756499 0.73057401 0.42105299 1.905766e-42
59.42030000 25.97990000 419.46600000 0.53560698 0.72599298 0.43134701 1.905766e-42
59.55059800 26.86680000 417.90500000 0.53155601 0.72197700 0.44294199 1.905766e-42
59.71789900 27.70350100 416.32101000 0.52675599 0.71744800 0.45584700 1.905766e-42
59.36880100 28.81500100 414.94800000 0.51226801 0.71937799 0.46912301 1.905766e-42
58.25360100 30.09129900 414.34201000 0.48961401 0.72759801 0.48049900 1.905766e-42
57.10599900 31.22750100 413.54700000 0.46905899 0.73100299 0.49559999 1.905766e-42
55.74850100 32.34439800 413.16000000 0.44747099 0.73660803 0.50712699 1.905766e-42
54.60129900 33.50989900 412.40799000 0.42783600 0.73634100 0.52417499 1.905766e-42
53.47489900 34.60749800 411.53299000 0.40834799 0.73335499 0.54354602 1.905766e-42
52.23720200 35.74710100 410.89301000 0.38623601 0.73514801 0.55711597 1.905766e-42
51.07329900 37.01139800 410.35699000 0.36346701 0.74554199 0.55862200 1.905766e-42
49.86510100 38.10660200 409.59500000 0.34160000 0.75240701 0.56319898 1.905766e-42
48.68370100 39.13510100 408.70801000 0.31994200 0.75676697 0.57003599 1.905766e-42
47.41659900 40.18970100 407.98599000 0.29537600 0.76108402 0.57749897 1.905766e-42
45.86819800 41.09209800 407.81799000 0.26451099 0.76897800 0.58198500 1.905766e-42
44.45150000 42.01590000 407.20200000 0.23271801 0.77426702 0.58851701 1.905766e-42
42.69929900 42.40179800 407.34799000 0.18913800 0.78485203 0.59011400 1.905766e-42
41.09859800 42.08070000 408.10501000 0.15801799 0.79762399 0.58208799 1.905766e-42
39.90029900 41.57640100 409.35001000 0.14154200 0.80820101 0.57164299 1.905766e-42
38.27270100 41.28879900 410.06299000 0.11541800 0.81877100 0.56239903 1.905766e-42
36.91149900 40.76190200 411.11700000 0.09765430 0.82738900 0.55307400 1.905766e-42
35.20790100 40.34370000 411.51999000 0.07153910 0.83515298 0.54534602 1.905766e-42
33.52310200 39.96379900 412.02701000 0.04239520 0.84199202 0.53782201 1.905766e-42
32.20859900 39.74560200 413.23700000 0.02282600 0.84782898 0.52977800 1.905766e-42
30.96180000 39.10459900 414.36600000 0.00597700 0.85348803 0.52107799 1.905766e-42
29.59720000 38.43090100 415.32800000 -0.01346000 0.85931200 0.51127398 1.905766e-42
27.90720000 37.97440000 415.74600000 -0.04211410 0.86462700 0.50064600 1.905766e-42
26.66580000 37.16450100 416.76801000 -0.05823920 0.87078100 0.48820999 1.905766e-42
24.88400100 37.11740100 417.01901000 -0.08909620 0.87479699 0.47622699 1.905766e-42
23.31440000 36.56079900 417.70200000 -0.10893100 0.88076198 0.46086100 1.905766e-42
21.84190000 35.85549900 418.45999000 -0.12680601 0.88713998 0.44373801 1.905766e-42
20.34840000 35.28979900 419.29001000 -0.14487299 0.89375001 0.42452601 1.905766e-42
18.80340000 34.73690000 420.03000000 -0.16306800 0.89798599 0.40869200 1.905766e-42
17.34350000 34.15350000 420.90601000 -0.17740400 0.89965200 0.39894199 1.905766e-42
15.80010000 33.43249900 421.48801000 -0.19500700 0.90029103 0.38916501 1.905766e-42
14.54450000 32.81029900 422.61700000 -0.20626000 0.89814198 0.38832599 1.905766e-42
12.98310000 32.14070100 423.21201000 -0.22863200 0.89449298 0.38419899 1.905766e-42
11.28610000 31.54890100 423.31299000 -0.25661200 0.89069301 0.37525600 1.905766e-42
9.79302020 30.84779900 424.03299000 -0.27731901 0.88401198 0.37632000 1.905766e-42
8.17568020 30.08490000 424.23901000 -0.30351701 0.87743503 0.37146401 1.905766e-42
6.61245010 29.41060100 424.82300000 -0.32620600 0.86888802 0.37232101 1.905766e-42
5.15901990 28.67240000 425.58600000 -0.34620199 0.85913801 0.37686300 1.905766e-42
3.54393010 27.88159900 425.66400000 -0.37184599 0.85079598 0.37131700 1.905766e-42
2.02894000 27.02059900 426.11600000 -0.39351299 0.84103000 0.37123701 1.905766e-42
0.50688601 26.09960000 426.39001000 -0.41586900 0.83147001 0.36838999 1.905766e-42
-1.05732000 25.21030000 426.34100000 -0.43972600 0.82240999 0.36094800 1.905766e-42
-2.61737990 24.31349900 426.38400000 -0.46222100 0.81295002 0.35420799 1.905766e-42
-4.19487000 23.44660000 426.39401000 -0.48411599 0.80343503 0.34658900 1.905766e-42
-5.76221990 22.56240100 426.35501000 -0.49732199 0.79886103 0.33836699 1.905766e-42
-7.24431990 21.54560100 426.25699000 -0.50815499 0.79547399 0.33015001 1.905766e-42
-8.79245000 20.63139900 426.34299000 -0.51847601 0.79200602 0.32235000 1.905766e-42
-10.27830000 19.61599900 426.37701000 -0.52903700 0.78837597 0.31398001 1.905766e-42
-11.74320000 18.57049900 426.41000000 -0.53972602 0.78463101 0.30504000 1.905766e-42
-13.20330000 17.51849900 426.44901000 -0.55057198 0.78077400 0.29540199 1.905766e-42
-14.45060000 16.48119900 427.22900000 -0.55608201 0.78169900 0.28234601 1.905766e-42
-15.85000000 15.35670000 427.35999000 -0.56019002 0.78245097 0.27195200 1.905766e-42
-16.05489900 14.67410000 429.01300000 -0.55655801 0.79044300 0.25581801 1.905766e-42
-16.45859900 13.76860000 430.51501000 -0.55315202 0.79537100 0.24780500 1.905766e-42
-16.55540100 13.26010000 432.23901000 -0.54599398 0.79716998 0.25770301 1.905766e-42
-16.57169900 12.71370000 433.95401000 -0.53947699 0.79868400 0.26658499 1.905766e-42
-16.85180100 12.00640000 435.58600000 -0.53562200 0.79935199 0.27229699 1.905766e-42
-16.97430000 11.35230000 437.25800000 -0.53007799 0.80135900 0.27720401 1.905766e-42
-17.01790000 10.80440000 438.97198000 -0.52496201 0.80928099 0.26358801 1.905766e-42
-17.27490000 10.08850000 440.60400000 -0.52184600 0.81956100 0.23663700 1.905766e-42
-17.45220000 9.43562980 442.27200000 -0.51739699 0.82961702 0.20984700 1.905766e-42
-17.71010000 8.79354000 443.93301000 -0.51359200 0.83815801 0.18361400 1.905766e-42
-17.96620000 8.21045020 445.61700000 -0.51083601 0.84483403 0.15906700 1.905766e-42
-18.05180000 8.05554010 447.40799000 -0.50663400 0.84895200 0.15034300 1.905766e-42
-18.78160100 7.37702990 448.90701000 -0.51070303 0.84368300 0.16547400 1.905766e-42
-19.16820000 6.46020980 450.40701000 -0.51609701 0.83589798 0.18686600 1.905766e-42
-19.12719900 6.35709000 452.20401000 -0.51606101 0.82945901 0.21372600 1.905766e-42
