# .PCD v0.7 - Point Cloud Data file format
# 3 152 1
# 1 59 1
# 60 117 0
# 118 152 0
VERSION 0.7
FIELDS x y z normal_x normal_y normal_z curvature
SIZE 4 4 4 4 4 4 4
TYPE F F F F F F F
COUNT 1 1 1 1 1 1 1
WIDTH 152
HEIGHT 1
VIEWPOINT 0 0 0 1 0 0 0
POINTS 152
DATA ascii
-22.61300100 50.16770200 362.18600000 0.84784901 0.51796198 -0.11343600 1.905766e-42
-22.26390100 49.80250200 363.91299000 0.83964902 0.53688502 -0.08212260 1.905766e-42
-21.40519900 48.75270100 365.09698000 0.84297800 0.53227800 -0.07789830 1.905766e-42
-20.63710000 47.74700200 366.37701000 0.84581500 0.52875698 -0.07080090 1.905766e-42
-19.97850000 46.85070000 367.79199000 0.84762901 0.52702600 -0.06139230 1.905766e-42
-19.60479900 46.01779900 369.34299000 0.84806198 0.52741700 -0.05120880 1.905766e-42
-18.63349900 44.81670000 370.26700000 0.85629302 0.51357400 -0.05481630 1.905766e-42
-17.83210000 43.59149900 371.31500000 0.86363900 0.50077301 -0.05791290 1.905766e-42
-17.06930000 42.42739900 372.45599000 0.87282699 0.48452300 -0.05840030 1.905766e-42
-16.40770000 41.30860100 373.70099000 0.88382900 0.46517000 -0.04963430 1.905766e-42
-15.82320000 40.21390200 375.00500000 0.89287400 0.44872400 -0.03771550 1.905766e-42
-15.17420000 38.98989900 376.15399000 0.90136302 0.43230999 -0.02552790 1.905766e-42
-14.57270000 37.79110000 377.35501000 0.90814400 0.41850600 -0.01128690 1.905766e-42
-13.80860000 36.36349900 378.14099000 0.91502500 0.40338999 -0.00227743 1.905766e-42
-13.58530000 35.50569900 379.70801000 0.91735500 0.39758101 0.01970750 1.905766e-42
-13.00690000 34.19030000 380.79199000 0.92141002 0.38707301 0.03433190 1.905766e-42
-12.45340000 32.78070100 381.76501000 0.92543799 0.37593001 0.04734080 1.905766e-42
-12.08730000 31.59370000 383.06699000 0.92736799 0.36803499 0.06737420 1.905766e-42
-12.07760000 30.55670000 384.53900000 0.92736298 0.36270201 0.09189990 1.905766e-42
-11.30190000 29.07539900 385.20499000 0.93112397 0.35070500 0.10007500 1.905766e-42
-10.90500000 27.75919900 386.36700000 0.93212599 0.34220001 0.11848800 1.905766e-42
-10.48510000 26.28450000 387.31000000 0.93421203 0.33161300 0.13145600 1.905766e-42
-10.40570000 25.10750000 388.66901000 0.93222302 0.32596600 0.15718400 1.905766e-42
-9.66775990 23.47410000 388.83499000 0.93980700 0.30698699 0.15007401 1.905766e-42
-9.53232000 22.31930000 390.20901000 0.93715799 0.30089900 0.17662200 1.905766e-42
-9.57736020 21.03660000 391.47101000 0.93431097 0.29410699 0.20140700 1.905766e-42
-9.62053010 18.73320000 393.57599000 0.92844200 0.28184801 0.24198700 1.905766e-42
-9.30879970 17.23200000 394.51901000 0.92868799 0.27012500 0.25410900 1.905766e-42
-9.03932950 15.77050000 395.53500000 0.92779601 0.25964400 0.26791799 1.905766e-42
-8.49378010 14.09180000 395.88699000 0.93588001 0.24123700 0.25677401 1.905766e-42
-8.69559960 12.63350000 396.92300000 0.93413800 0.23269300 0.27063099 1.905766e-42
-8.20495990 11.01900000 397.54901000 0.94078201 0.21086399 0.26545501 1.905766e-42
-8.03326990 9.31952950 398.11700000 0.94753200 0.18602601 0.25995800 1.905766e-42
-8.00578980 7.71458010 398.93201000 0.95082802 0.16437100 0.26250300 1.905766e-42
-8.20154950 6.27015020 399.98801000 0.94981098 0.14892000 0.27510199 1.905766e-42
-8.01887990 4.57496020 400.56500000 0.95589298 0.11928100 0.26840299 1.905766e-42
-8.19966980 3.07612990 401.54501000 0.95499200 0.09923450 0.27954000 1.905766e-42
-8.16907980 1.37780000 402.14099000 0.95871001 0.06848250 0.27601600 1.905766e-42
-8.01241020 -0.41318300 402.22900000 0.96711200 0.02877330 0.25271901 1.905766e-42
-8.34702010 -1.80440000 403.32101000 0.96147197 0.01619930 0.27442601 1.905766e-42
-8.78341010 -2.81800010 404.74301000 0.94961798 0.01517790 0.31304300 1.905766e-42
-8.84117030 -4.61660000 404.78400000 0.95508999 -0.01310310 0.29602501 1.905766e-42
-8.94999980 -6.32344010 405.34500000 0.95365000 -0.02657390 0.29974201 1.905766e-42
-9.38111970 -7.78003980 406.31100000 0.94472599 -0.02686920 0.32675800 1.905766e-42
-9.58092980 -9.50230980 406.79401000 0.94370300 -0.03886680 0.32850200 1.905766e-42
-9.70744990 -11.27660000 407.07001000 0.94547200 -0.06052950 0.32002801 1.905766e-42
-10.17600000 -12.78810000 407.92801000 0.93880397 -0.07465290 0.33626500 1.905766e-42
-10.86800000 -14.10160000 408.94501000 0.92826402 -0.08424160 0.36225700 1.905766e-42
-11.10110000 -15.84660000 409.32101000 0.92769098 -0.11193200 0.35617599 1.905766e-42
-11.74680000 -17.38060000 410.00601000 0.92047501 -0.13036700 0.36841699 1.905766e-42
-11.92490000 -19.12929900 410.39401000 0.91843098 -0.15426700 0.36425999 1.905766e-42
-12.08790000 -20.92190000 410.39899000 0.91899598 -0.17981400 0.35087499 1.905766e-42
-12.77650000 -22.37369900 411.20999000 0.90762103 -0.19194201 0.37334001 1.905766e-42
-13.54030000 -23.91440000 411.74200000 0.89904797 -0.20613299 0.38629201 1.905766e-42
-13.88500000 -25.67219900 411.91901000 0.89564699 -0.22263600 0.38503301 1.905766e-42
-14.67000000 -27.15150100 412.57800000 0.88637698 -0.23872501 0.39666900 1.905766e-42
-15.35820000 -28.67600100 413.24399000 0.87772697 -0.25627601 0.40486699 1.905766e-42
-15.91990000 -30.38570000 413.28000000 0.87616301 -0.28310701 0.39011300 1.905766e-42
-16.83120000 -31.70480000 414.09900000 0.86534101 -0.29049900 0.40840599 1.905766e-42
-17.41990100 -33.40570100 414.11499000 0.86540699 -0.30517799 0.39741299 1.905766e-42
-17.05349900 -34.46690000 412.70801000 0.88353902 -0.32495800 0.33728400 1.905766e-42
-16.75110100 -35.29880100 411.14099000 0.89906198 -0.34338599 0.27161300 1.905766e-42
-16.69969900 -35.69559900 409.38599000 0.91032100 -0.34673500 0.22603200 1.905766e-42
-16.27549900 -35.98880000 407.66101000 0.91734397 -0.34438699 0.19969399 1.905766e-42
-15.66040000 -35.36539800 406.08899000 0.91973698 -0.34761599 0.18233700 1.905766e-42
-15.52440000 -35.88140100 404.37000000 0.92372900 -0.34216201 0.17219400 1.905766e-42
-15.26570000 -35.91899900 402.58899000 0.92613798 -0.33958599 0.16416100 1.905766e-42
-15.18080000 -36.35100200 400.84399000 0.92885798 -0.33498800 0.15813400 1.905766e-42
-14.51340000 -35.85609800 399.24701000 0.92987001 -0.33645201 0.14880300 1.905766e-42
-14.31680000 -36.04010000 397.46701000 0.92869800 -0.35138300 0.11853200 1.905766e-42
-14.13820000 -35.93999900 395.67899000 0.92695802 -0.36490399 0.08714530 1.905766e-42
-13.97810000 -35.88110000 393.88699000 0.92434001 -0.37790200 0.05278250 1.905766e-42
-13.93700000 -35.93140000 392.08801000 0.92171299 -0.38764700 0.01323750 1.905766e-42
-14.06550000 -35.88010000 390.29300000 0.91845202 -0.39460900 -0.02701010 1.905766e-42
-13.97990000 -35.67470200 388.50699000 0.91443300 -0.39975300 -0.06332020 1.905766e-42
-13.70070000 -35.07320000 386.83401000 0.91302198 -0.39797899 -0.08946300 1.905766e-42
-14.20630000 -35.08020000 385.10599000 0.91633803 -0.38820401 -0.09808790 1.905766e-42
-14.18690000 -34.64160200 383.36099000 0.91931701 -0.37855500 -0.10747800 1.905766e-42
-14.20700000 -34.27040100 381.59900000 0.92224097 -0.36955199 -0.11358700 1.905766e-42
-14.26600000 -33.93740100 379.83099000 0.92511201 -0.36135399 -0.11657800 1.905766e-42
-14.39290000 -33.50750000 378.08801000 0.92800802 -0.35372299 -0.11696200 1.905766e-42
-14.14010000 -32.80059800 376.45200000 0.93132901 -0.34509501 -0.11633900 1.905766e-42
-14.12500000 -32.01820000 374.83099000 0.93508297 -0.33584601 -0.11325500 1.905766e-42
-14.38160000 -31.90609900 373.05301000 0.93825102 -0.33023399 -0.10310200 1.905766e-42
-13.96660000 -30.79290000 371.70099000 0.94318497 -0.31792599 -0.09656760 1.905766e-42
-13.79420000 -30.02380000 370.08301000 0.94800103 -0.30691499 -0.08425070 1.905766e-42
-13.99310000 -30.33540000 368.32101000 0.94964898 -0.30533400 -0.07027250 1.905766e-42
-14.05590000 -30.03550000 366.54700000 0.95087200 -0.30305400 -0.06325300 1.905766e-42
-14.06860000 -29.67300000 364.78400000 0.95062500 -0.30397400 -0.06253760 1.905766e-42
-14.18150000 -29.48660100 362.99701000 0.94875699 -0.30775201 -0.07175220 1.905766e-42
-14.42510000 -29.47870100 361.21399000 0.94747901 -0.30327100 -0.10154100 1.905766e-42
-14.38320000 -29.04789900 359.46701000 0.94489598 -0.29813799 -0.13522400 1.905766e-42
-14.74660000 -28.86360000 357.71301000 0.95122498 -0.27328101 -0.14314000 1.905766e-42
-14.61440000 -27.99729900 356.14099000 0.95471197 -0.25427201 -0.15450300 1.905766e-42
-14.75270000 -27.41270100 354.44400000 0.95997500 -0.23130199 -0.15794800 1.905766e-42
-14.84270000 -26.68020100 352.80301000 0.96307200 -0.21339899 -0.16417600 1.905766e-42
-15.11550000 -26.43470000 351.04001000 0.96692401 -0.19378699 -0.16584501 1.905766e-42
-15.19680000 -25.60580100 349.44501000 0.96711498 -0.18281899 -0.17681900 1.905766e-42
-15.44020000 -24.97830000 347.77499000 0.96666098 -0.16582400 -0.19511500 1.905766e-42
-15.53200000 -23.82920100 346.39301000 0.96339399 -0.15397599 -0.21946201 1.905766e-42
-15.92700000 -23.28190000 344.72400000 0.95943600 -0.14020900 -0.24458900 1.905766e-42
-16.10380000 -22.17750000 343.31400000 0.95338899 -0.13069101 -0.27197501 1.905766e-42
-16.71760000 -21.63859900 341.70999000 0.94579500 -0.12078200 -0.30146801 1.905766e-42
-16.82399900 -20.36790100 340.44000000 0.93797702 -0.11409800 -0.32738400 1.905766e-42
-17.33390000 -19.38820100 339.01801000 0.92855698 -0.10719400 -0.35537499 1.905766e-42
-17.51820000 -18.06970000 337.80701000 0.92068601 -0.10001700 -0.37727100 1.905766e-42
-17.90370000 -16.80880000 336.58099000 0.91279101 -0.09123620 -0.39810601 1.905766e-42
-18.30310100 -15.54130000 335.36700000 0.90556097 -0.08038680 -0.41653001 1.905766e-42
-18.79360000 -14.24700000 334.21701000 0.89921498 -0.06702070 -0.43234399 1.905766e-42
-18.86990000 -12.56050000 333.59201000 0.89717901 -0.04567960 -0.43929800 1.905766e-42
-19.62050100 -11.43560000 332.40399000 0.89088100 -0.02940690 -0.45328501 1.905766e-42
-19.94730000 -9.90369990 331.51700000 0.88676798 -0.00513389 -0.46218601 1.905766e-42
-20.07360100 -8.12586020 331.26599000 0.88753700 0.01396470 -0.46052399 1.905766e-42
-20.56419900 -6.62739990 330.39801000 0.88601500 0.02868710 -0.46276799 1.905766e-42
-20.91430100 -4.95870020 329.82101000 0.88425100 0.04530260 -0.46481001 1.905766e-42
-21.13509900 -3.18422010 329.61401000 0.88191301 0.06163890 -0.46736500 1.905766e-42
-21.60030000 -1.53968000 329.04999000 0.87813997 0.07674790 -0.47220701 1.905766e-42
-22.18639900 -0.08237340 328.17099000 0.87357998 0.09140030 -0.47802100 1.905766e-42
-22.08330000 1.65327000 328.63599000 0.86951101 0.10041000 -0.48359999 1.905766e-42
-21.93490000 3.30784010 329.32901000 0.86657798 0.10507300 -0.48785400 1.905766e-42
-21.65640100 4.87003990 330.17899000 0.86672699 0.10750800 -0.48706001 1.905766e-42
-21.30979900 6.33727980 331.16199000 0.87155700 0.11944900 -0.47552001 1.905766e-42
-21.26390100 8.03398990 331.76199000 0.87254202 0.13575800 -0.46929699 1.905766e-42
-20.84610000 9.42214970 332.82901000 0.87475699 0.15118900 -0.46037099 1.905766e-42
-20.45690000 10.73900000 333.99200000 0.87592298 0.16711000 -0.45258501 1.905766e-42
-20.53960000 12.50210000 334.34601000 0.87488198 0.18910100 -0.44589499 1.905766e-42
-20.33779900 13.93670000 335.41400000 0.87711900 0.20721699 -0.43327001 1.905766e-42
-20.63970000 15.66790000 335.80399000 0.87770897 0.22054100 -0.42542800 1.905766e-42
-21.28389900 17.34210000 335.95200000 0.87776601 0.22731701 -0.42172700 1.905766e-42
-21.57980000 18.95610000 336.69199000 0.88078499 0.23001100 -0.41389900 1.905766e-42
-20.98380100 20.08440000 337.96100000 0.88702703 0.22689401 -0.40212101 1.905766e-42
-20.85080000 21.47040000 339.10199000 0.88810003 0.20430499 -0.41174999 1.905766e-42
-20.54740000 22.90220100 340.14999000 0.88764101 0.18542300 -0.42155901 1.905766e-42
-20.43370100 24.58869900 340.76801000 0.88519001 0.17229301 -0.43215001 1.905766e-42
-20.09429900 25.98660100 341.85101000 0.88217402 0.16264699 -0.44194400 1.905766e-42
-19.80100100 27.39290000 342.93500000 0.87926000 0.16346800 -0.44741601 1.905766e-42
-19.81329900 28.96439900 343.81299000 0.87957197 0.18275800 -0.43926400 1.905766e-42
-19.89940100 30.56030100 344.64099000 0.87891001 0.20304000 -0.43161601 1.905766e-42
-19.59760100 31.96250000 345.72800000 0.87813503 0.22193500 -0.42381999 1.905766e-42
-19.31850100 33.29980100 346.89999000 0.87691700 0.24020199 -0.41631600 1.905766e-42
-19.24620100 34.72449900 347.99799000 0.87566799 0.26505700 -0.40367201 1.905766e-42
-19.28350100 36.22530000 348.99100000 0.87555999 0.30712199 -0.37292299 1.905766e-42
-19.18820000 37.52619900 350.23199000 0.87487900 0.34583199 -0.33909699 1.905766e-42
-19.71320000 39.02710000 351.07501000 0.86995798 0.38360000 -0.30987799 1.905766e-42
-19.66320000 40.21270000 352.42899000 0.86741698 0.41607600 -0.27288800 1.905766e-42
-19.86389900 41.42200100 353.74701000 0.86393303 0.44155401 -0.24217799 1.905766e-42
-20.31440000 42.78279900 354.83499000 0.86127001 0.44720501 -0.24129300 1.905766e-42
-20.39329900 43.70949900 356.37601000 0.86248201 0.44813201 -0.23516300 1.905766e-42
-20.86010000 45.12160100 357.39001000 0.86129802 0.45180100 -0.23246799 1.905766e-42
-21.19100000 46.45500200 358.55301000 0.86186099 0.45352200 -0.22696599 1.905766e-42
-21.58429900 47.81810000 359.66101000 0.86083001 0.46588099 -0.20476000 1.905766e-42
-22.06189900 49.01829900 360.91501000 0.85613197 0.49037901 -0.16299400 1.905766e-42
