# .PCD v0.7 - Point Cloud Data file format
# 3 102 0
# 1 42 0
# 43 61 0
# 62 102 0
VERSION 0.7
FIELDS x y z normal_x normal_y normal_z curvature
SIZE 4 4 4 4 4 4 4
TYPE F F F F F F F
COUNT 1 1 1 1 1 1 1
WIDTH 102
HEIGHT 1
VIEWPOINT 0 0 0 1 0 0 0
POINTS 102
DATA ascii
34.93069800 -5.63031010 411.22699000 -0.19648400 0.90262997 -0.38295299 1.905766e-42
33.26750200 -5.60980990 411.91501000 -0.13187400 0.91293401 -0.38621300 1.905766e-42
31.56270000 -5.60422990 412.49301000 -0.04720000 0.92259699 -0.38286701 1.905766e-42
29.82110000 -5.60767980 412.94699000 -0.00689319 0.91467202 -0.40413901 1.905766e-42
29.52100000 -5.19611980 413.58301000 0.01262550 0.91951603 -0.39285001 1.905766e-42
27.76330000 -4.96657990 413.89600000 0.01341740 0.90473002 -0.42577499 1.905766e-42
26.54500000 -4.26628020 415.02100000 0.03322140 0.89948499 -0.43568799 1.905766e-42
25.67340100 -3.53889990 416.41800000 0.06146420 0.89283299 -0.44617501 1.905766e-42
24.52160100 -3.09427000 417.72699000 0.07584180 0.88345897 -0.46233001 1.905766e-42
23.58160000 -2.31870010 419.05200000 0.09638150 0.87750697 -0.46977901 1.905766e-42
22.67330000 -1.47113000 420.35501000 0.11670600 0.87196898 -0.47544599 1.905766e-42
21.80279900 -0.55158901 421.63400000 0.13650000 0.86645800 -0.48022699 1.905766e-42
20.83410100 0.33293301 422.86700000 0.15131000 0.85843098 -0.49010399 1.905766e-42
19.72790000 1.20881000 423.98401000 0.16352600 0.84622699 -0.50710899 1.905766e-42
18.55209900 2.06974010 425.04099000 0.17459300 0.83320302 -0.52468097 1.905766e-42
17.29750100 2.88952990 426.03799000 0.18453400 0.81936401 -0.54276198 1.905766e-42
16.35190000 3.95582010 427.13699000 0.20348801 0.80775797 -0.55328101 1.905766e-42
15.33870000 4.99657010 428.20001000 0.21660399 0.79799002 -0.56240100 1.905766e-42
14.51990000 6.07448010 429.38699000 0.22811601 0.79497200 -0.56212300 1.905766e-42
13.23180000 7.03345010 430.20001000 0.22476700 0.78850400 -0.57248700 1.905766e-42
12.11980000 8.06408980 431.17001000 0.22916400 0.78386003 -0.57710201 1.905766e-42
11.26220000 9.18636990 432.28601000 0.23445500 0.77970600 -0.58059502 1.905766e-42
10.03600000 10.20830000 433.11801000 0.24868800 0.77173400 -0.58530402 1.905766e-42
8.78555970 11.22590000 433.91800000 0.28986600 0.74959999 -0.59504402 1.905766e-42
7.60865020 12.29350000 434.76401000 0.33554000 0.72500497 -0.60148197 1.905766e-42
7.04204990 13.56470000 435.90601000 0.35495099 0.69995302 -0.61973900 1.905766e-42
5.91190000 14.78430000 436.59500000 0.40628701 0.67113203 -0.62009102 1.905766e-42
4.92765000 16.11899900 437.29501000 0.44986901 0.64068598 -0.62220502 1.905766e-42
3.64258000 17.34620100 437.58200000 0.48064399 0.61822897 -0.62191200 1.905766e-42
2.82178000 18.79870000 438.25800000 0.48878300 0.59631503 -0.63678902 1.905766e-42
1.90106000 20.25540000 438.77802000 0.48397201 0.57447100 -0.66011602 1.905766e-42
0.85395902 21.66430100 439.17599000 0.46203801 0.55519301 -0.69158000 1.905766e-42
0.20997600 23.18110100 439.89999000 0.44004199 0.52366698 -0.72947598 1.905766e-42
-0.68973500 24.55050100 440.64600000 0.40071499 0.50450599 -0.76478899 1.905766e-42
-1.48376000 26.09800000 441.10901000 0.35254899 0.48353201 -0.80119002 1.905766e-42
-2.55249000 27.50440000 441.45499000 0.27945900 0.46403500 -0.84057999 1.905766e-42
-3.83736990 28.65140000 441.97800000 0.18466900 0.44511801 -0.87622303 1.905766e-42
-4.88291980 30.05839900 442.38699000 0.08920110 0.41186199 -0.90687001 1.905766e-42
-5.83314990 31.46920000 442.97601000 -0.01940630 0.41759899 -0.90842402 1.905766e-42
-6.80431990 32.82130100 443.66101000 -0.12465300 0.43204099 -0.89319700 1.905766e-42
-7.95790000 33.92419800 444.49301000 -0.26332101 0.44957501 -0.85354799 1.905766e-42
-8.52344040 35.32889900 445.46600000 -0.47074100 0.43917799 -0.76519698 1.905766e-42
-8.00866990 36.71400100 446.49399000 -0.40731499 0.43831301 -0.80123401 1.905766e-42
-6.40795990 37.53010200 446.38599000 -0.16254801 0.43152499 -0.88733602 1.905766e-42
-4.81245990 38.36340000 446.38901000 0.12213700 0.39599901 -0.91009200 1.905766e-42
-3.28713010 39.17869900 446.88800000 0.43334401 0.36520299 -0.82391798 1.905766e-42
-2.69651010 40.36270100 448.10800000 0.55908698 0.35769999 -0.74797899 1.905766e-42
-1.27653000 40.68310200 449.16699000 0.55533201 0.34112900 -0.75844401 1.905766e-42
0.21438999 40.09849900 449.98901000 0.54712403 0.33915699 -0.76526302 1.905766e-42
1.65844000 40.00030100 451.05899000 0.54845297 0.34441501 -0.76195598 1.905766e-42
3.16845010 39.63510100 451.96799000 0.55657500 0.35502601 -0.75111997 1.905766e-42
4.70890000 38.96630100 452.61600000 0.55457699 0.37108099 -0.74481100 1.905766e-42
6.25027990 38.36019900 453.32101000 0.48749599 0.38311201 -0.78458399 1.905766e-42
7.79452990 37.63209900 453.89099000 0.39904100 0.40113199 -0.82453603 1.905766e-42
9.34473990 37.59759900 454.80499000 0.30570599 0.41252300 -0.85811901 1.905766e-42
10.98040000 36.84629800 454.80701000 0.24135500 0.43011099 -0.86991501 1.905766e-42
12.75230000 36.74720000 455.10800000 0.19648799 0.42705601 -0.88261902 1.905766e-42
14.43120000 36.10189800 455.17599000 0.20479301 0.43318599 -0.87773001 1.905766e-42
16.18969900 36.00650000 455.54800000 0.21754600 0.42831001 -0.87705398 1.905766e-42
17.94070100 35.99079900 455.96500000 0.21716300 0.43276501 -0.87496001 1.905766e-42
19.68520000 35.98230000 456.40799000 0.21272200 0.44355300 -0.87063801 1.905766e-42
21.44580100 35.98550000 456.78299000 0.20553200 0.45664701 -0.86558098 1.905766e-42
22.30670000 34.51450000 456.20401000 0.19160999 0.46452901 -0.86457998 1.905766e-42
23.04229900 32.99580000 455.57800000 0.18290000 0.47488999 -0.86082900 1.905766e-42
23.10280000 31.43580100 454.68201000 0.17780299 0.48692799 -0.85515302 1.905766e-42
23.73160000 29.93549900 453.91101000 0.16811000 0.50664800 -0.84560502 1.905766e-42
24.79220000 28.50379900 453.65601000 0.15300301 0.52724600 -0.83582401 1.905766e-42
25.31450100 27.12389900 452.62500000 0.13568200 0.54320103 -0.82856703 1.905766e-42
25.55120100 25.69080000 451.56201000 0.11990900 0.55487198 -0.82324898 1.905766e-42
26.25560000 24.28300100 450.68900000 0.10191800 0.56795299 -0.81672698 1.905766e-42
27.56110000 23.21920000 450.05301000 0.07277170 0.58657402 -0.80662000 1.905766e-42
28.88340000 22.15180000 449.45999000 0.03487480 0.60680300 -0.79408699 1.905766e-42
30.03879900 21.07329900 448.59799000 -0.00498474 0.62429202 -0.78117502 1.905766e-42
31.25040100 20.08810000 447.70300000 -0.04941080 0.63898301 -0.76763201 1.905766e-42
32.37599900 19.06110000 446.74500000 -0.09560480 0.65010202 -0.75380802 1.905766e-42
34.00170100 18.50370000 446.20999000 -0.15100300 0.65928400 -0.73657501 1.905766e-42
35.41870100 17.84059900 445.32001000 -0.19745000 0.66602200 -0.71932399 1.905766e-42
36.62410000 17.21130000 444.14001000 -0.23327200 0.67368799 -0.70123398 1.905766e-42
37.35430100 16.28669900 442.77899000 -0.25665599 0.68511200 -0.68172598 1.905766e-42
36.94509900 14.96170000 441.63199000 -0.26657501 0.69647598 -0.66622698 1.905766e-42
36.82420000 13.69960000 440.35400000 -0.28550300 0.70858598 -0.64528602 1.905766e-42
36.78490100 12.48130000 439.03000000 -0.30205801 0.70784199 -0.63853002 1.905766e-42
36.80740000 11.24490000 437.72198000 -0.31105900 0.71226603 -0.62922102 1.905766e-42
37.94969900 10.65430000 436.46201000 -0.33828899 0.71469402 -0.61218703 1.905766e-42
38.36029800 9.69332980 434.99600000 -0.34642801 0.72803599 -0.59156698 1.905766e-42
38.43560000 8.60138030 433.56799000 -0.35334101 0.74067998 -0.57143998 1.905766e-42
38.99739800 7.73781010 432.09100000 -0.36599100 0.74611598 -0.55620301 1.905766e-42
39.71870000 6.89268020 430.67499000 -0.37550700 0.74824202 -0.54692602 1.905766e-42
39.99210000 5.94928980 429.16699000 -0.38663501 0.74929500 -0.53765303 1.905766e-42
39.91199900 4.95497990 427.66901000 -0.38543001 0.76074803 -0.52221298 1.905766e-42
39.95330000 3.99898000 426.14401000 -0.38924399 0.77025199 -0.50517398 1.905766e-42
40.50740100 3.26308990 424.59799000 -0.40147200 0.77716202 -0.48460200 1.905766e-42
40.79280100 2.45705010 423.01401000 -0.40499601 0.78127402 -0.47496301 1.905766e-42
41.29270200 1.76217000 421.42999000 -0.40044001 0.78864998 -0.46656001 1.905766e-42
41.96860100 1.11777000 419.89099000 -0.39485401 0.79691797 -0.45717800 1.905766e-42
42.00519900 0.33395600 418.27100000 -0.38868499 0.80676699 -0.44503000 1.905766e-42
41.60189800 -0.62611598 416.80301000 -0.38587800 0.81390297 -0.43435100 1.905766e-42
41.55920000 -1.52351000 415.24301000 -0.38057199 0.82342201 -0.42088100 1.905766e-42
40.05640000 -2.39450000 414.77200000 -0.35146701 0.84283203 -0.40755999 1.905766e-42
38.50090000 -3.21761990 414.39301000 -0.31744400 0.85862601 -0.40248099 1.905766e-42
37.11719900 -4.05028010 413.59799000 -0.27381301 0.87672901 -0.39543900 1.905766e-42
36.11920200 -4.86855980 412.34399000 -0.23495500 0.89267898 -0.38460499 1.905766e-42
