# .PCD v0.7 - Point Cloud Data file format
# 4 269 0
# 1 109 0
# 110 181 0
# 182 254 0
# 255 269 0
VERSION 0.7
FIELDS x y z normal_x normal_y normal_z curvature
SIZE 4 4 4 4 4 4 4
TYPE F F F F F F F
COUNT 1 1 1 1 1 1 1
WIDTH 269
HEIGHT 1
VIEWPOINT 0 0 0 1 0 0 0
POINTS 269
DATA ascii
57.34709900 58.77510100 534.60901000 0.59960902 -0.26766601 0.75420398 1.905766e-42
56.06269800 58.96040000 535.85602000 0.58826298 -0.26369500 0.76446801 1.905766e-42
54.81200000 59.45280100 537.05298000 0.57702500 -0.25747401 0.77508003 1.905766e-42
53.90490000 60.70510100 537.97400000 0.56813699 -0.24659200 0.78512001 1.905766e-42
52.78400000 61.52640200 539.11902000 0.55702502 -0.23762301 0.79577500 1.905766e-42
51.75930000 62.66159800 540.06799000 0.54659200 -0.22681400 0.80609697 1.905766e-42
50.68439900 63.69300100 541.07800000 0.53536999 -0.21612400 0.81649798 1.905766e-42
49.49750100 64.54340400 542.13098000 0.52341503 -0.20585600 0.82683700 1.905766e-42
48.17580000 65.24359900 543.13300000 0.51197302 -0.19677401 0.83616000 1.905766e-42
46.94240200 66.15709700 544.07300000 0.50287300 -0.18875000 0.84350002 1.905766e-42
45.71929900 67.15360300 544.93903000 0.49377900 -0.18014500 0.85072303 1.905766e-42
44.48479800 68.05899800 545.88599000 0.48450899 -0.17144001 0.85782301 1.905766e-42
43.47290000 69.33490000 546.65302000 0.47559601 -0.16170301 0.86467397 1.905766e-42
42.08190200 69.95159900 547.61499000 0.46648699 -0.15306801 0.87118298 1.905766e-42
41.09009900 71.24590300 548.37701000 0.45733199 -0.14286700 0.87774497 1.905766e-42
39.93960200 72.41230000 549.12299000 0.44640300 -0.13395700 0.88474798 1.905766e-42
38.61539800 73.32499700 549.93103000 0.43164101 -0.12851700 0.89284301 1.905766e-42
37.24739800 74.24169900 550.65802000 0.41634700 -0.12309000 0.90083498 1.905766e-42
35.69469800 74.69629700 551.44702000 0.39733401 -0.12232100 0.90948498 1.905766e-42
34.26050200 75.55860100 552.10999000 0.38165799 -0.11841700 0.91668701 1.905766e-42
32.68579900 76.07420300 552.81299000 0.36415201 -0.11942200 0.92365098 1.905766e-42
31.15550000 76.77189600 553.45398000 0.34721100 -0.11835100 0.93028897 1.905766e-42
29.71859900 77.69100200 554.02899000 0.33148399 -0.11476500 0.93645501 1.905766e-42
28.13900000 78.30509900 554.63599000 0.31264001 -0.11350100 0.94306600 1.905766e-42
26.59870000 79.04290000 555.20398000 0.29419199 -0.11057100 0.94932902 1.905766e-42
25.09009900 79.99410200 555.44702000 0.27715099 -0.10537900 0.95503002 1.905766e-42
23.56189900 80.76139800 556.00897000 0.25816599 -0.10098300 0.96080798 1.905766e-42
21.92160000 81.02800000 556.70099000 0.23692501 -0.10019300 0.96634799 1.905766e-42
20.37480000 81.81199600 557.18298000 0.21818601 -0.09444290 0.97132701 1.905766e-42
18.69650100 82.34940300 557.54999000 0.19840600 -0.09039460 0.97594303 1.905766e-42
16.99410100 82.80919600 557.91199000 0.17903399 -0.08652930 0.98003000 1.905766e-42
15.30050000 83.30139900 558.27100000 0.16072200 -0.08192890 0.98359400 1.905766e-42
13.73520000 84.18250300 558.38800000 0.15054300 -0.08277710 0.98513198 1.905766e-42
11.99940000 84.30470300 558.84802000 0.13736200 -0.08819840 0.98658597 1.905766e-42
10.26930000 84.71939800 559.12201000 0.12238500 -0.09285450 0.98812997 1.905766e-42
8.63486000 85.44539600 559.32599000 0.10421500 -0.09699050 0.98981398 1.905766e-42
6.95136980 86.04609700 559.53802000 0.08352560 -0.10106900 0.99136698 1.905766e-42
5.15627000 86.02240000 559.66901000 0.05848740 -0.10726500 0.99250901 1.905766e-42
3.57465000 86.87200200 559.79797000 0.03889340 -0.10849100 0.99333602 1.905766e-42
1.77658000 86.95430000 559.81000000 0.01410830 -0.11287300 0.99350899 1.905766e-42
-0.00908831 87.18019900 559.82800000 -0.00964557 -0.11606700 0.99319500 1.905766e-42
-1.80902000 87.19500000 559.82300000 -0.03324800 -0.11978500 0.99224299 1.905766e-42
-2.87681010 87.04319800 559.86200000 -0.04700890 -0.12258400 0.99134398 1.905766e-42
-4.66908980 87.18949900 559.78198000 -0.06843820 -0.12526600 0.98975998 1.905766e-42
-6.46683980 87.19470200 559.69202000 -0.08879660 -0.12849499 0.98772699 1.905766e-42
-8.25568960 87.24259900 559.49799000 -0.10753200 -0.13149300 0.98546797 1.905766e-42
-9.73458960 88.26560200 559.41901000 -0.12172000 -0.12875400 0.98417801 1.905766e-42
-11.49850000 88.45529900 559.11499000 -0.14106899 -0.13122401 0.98126400 1.905766e-42
-13.29120000 88.30870100 559.04498000 -0.16051599 -0.13500600 0.97775698 1.905766e-42
-15.03920000 88.01129900 558.73499000 -0.17961399 -0.13949400 0.97379702 1.905766e-42
-16.79470100 87.87249800 558.36200000 -0.19813301 -0.14288600 0.96970499 1.905766e-42
-18.55380100 87.93070200 557.98499000 -0.21589100 -0.14487700 0.96561003 1.905766e-42
-20.31030100 87.86260200 557.59802000 -0.23315699 -0.14735900 0.96120900 1.905766e-42
-22.03750000 87.65899700 557.13397000 -0.24978000 -0.15050399 0.95653498 1.905766e-42
-23.77190000 87.65779900 556.65302000 -0.26567400 -0.15227500 0.95196098 1.905766e-42
-25.41120000 87.12719700 556.13202000 -0.28051901 -0.15718800 0.94689000 1.905766e-42
-27.13040000 86.98700000 555.61700000 -0.29667699 -0.16012201 0.94145799 1.905766e-42
-28.71940000 86.61440300 554.85797000 -0.31388101 -0.16521300 0.93497801 1.905766e-42
-30.35129900 86.22869900 554.20398000 -0.33143800 -0.17039201 0.92796302 1.905766e-42
-31.79590000 85.35430100 553.58099000 -0.34781399 -0.17898400 0.92032099 1.905766e-42
-33.45000100 85.14689600 552.90100000 -0.36589801 -0.18322200 0.91244102 1.905766e-42
-35.00939900 84.63980100 552.15900000 -0.38377601 -0.18984599 0.90370101 1.905766e-42
-36.58029900 84.31770300 551.34198000 -0.40204099 -0.19537701 0.89453399 1.905766e-42
-38.12310000 83.84880100 550.54199000 -0.42018700 -0.20218600 0.88462597 1.905766e-42
-39.60969900 83.18849900 549.77100000 -0.43787199 -0.21070400 0.87399799 1.905766e-42
-41.06629900 83.13739800 548.71503000 -0.45611399 -0.21526900 0.86349303 1.905766e-42
-42.49660100 82.25650000 548.06799000 -0.46659899 -0.22425701 0.85556698 1.905766e-42
-44.03290200 82.05100300 547.15302000 -0.47725499 -0.22939500 0.84829599 1.905766e-42
-45.44329800 81.61329700 546.12402000 -0.48780999 -0.23835900 0.83977699 1.905766e-42
-46.61560100 80.66079700 545.14398000 -0.49827701 -0.25327900 0.82919902 1.905766e-42
-48.09610000 80.44390100 544.14398000 -0.50935000 -0.26306799 0.81936401 1.905766e-42
-49.36579900 79.96469900 542.96100000 -0.52104503 -0.27726999 0.80723798 1.905766e-42
-50.53290200 78.96779600 542.02100000 -0.53354800 -0.29609901 0.79224497 1.905766e-42
-50.89699900 77.43959800 541.14301000 -0.54435802 -0.31737000 0.77649897 1.905766e-42
-51.22570000 75.90309900 540.26501000 -0.55515403 -0.33836600 0.75981098 1.905766e-42
-51.31660100 74.26779900 539.51801000 -0.56400001 -0.35833901 0.74397397 1.905766e-42
-51.95710000 73.01889800 538.39099000 -0.57589501 -0.37773800 0.72502297 1.905766e-42
-52.37609900 71.61209900 537.34900000 -0.58147502 -0.39606801 0.71064502 1.905766e-42
-52.74810000 70.27770200 536.20001000 -0.58697802 -0.41368300 0.69593298 1.905766e-42
-52.86880100 68.77210200 535.22101000 -0.59125000 -0.43089101 0.68172997 1.905766e-42
-53.19689900 67.43479900 534.06097000 -0.59618700 -0.44738099 0.66664201 1.905766e-42
-53.93899900 66.45960200 532.74298000 -0.60273898 -0.46156099 0.65089703 1.905766e-42
-54.49110000 65.45240000 531.35699000 -0.60897100 -0.47575599 0.63467300 1.905766e-42
-54.89910100 64.31729900 530.02100000 -0.61452103 -0.49008200 0.61821002 1.905766e-42
-55.28580100 63.15290100 528.70398000 -0.61977202 -0.50408900 0.60147899 1.905766e-42
-55.71239900 61.94240200 527.44202000 -0.62473398 -0.51775301 0.58449900 1.905766e-42
-55.94150200 60.76419800 526.09998000 -0.62889600 -0.53157800 0.56737500 1.905766e-42
-56.19490100 59.61100000 524.74200000 -0.63263899 -0.54574198 0.54948401 1.905766e-42
-56.76179900 59.02550100 523.13702000 -0.63894802 -0.55746597 0.53007299 1.905766e-42
-57.15790200 58.35609800 521.51398000 -0.64429200 -0.56992602 0.50997198 1.905766e-42
-57.31779900 57.19290200 520.14899000 -0.64333999 -0.58502698 0.49381900 1.905766e-42
-57.52420000 56.15219900 518.69501000 -0.64028603 -0.59931803 0.48046899 1.905766e-42
-57.68890000 54.99750100 517.32397000 -0.63699597 -0.61304402 0.46734601 1.905766e-42
-58.06819900 54.22140100 515.74500000 -0.63420099 -0.62452698 0.45580301 1.905766e-42
-58.18119800 53.24000200 514.23999000 -0.63091499 -0.63635099 0.44385099 1.905766e-42
-58.15770000 52.08260000 512.86200000 -0.62731999 -0.64779198 0.43224400 1.905766e-42
-57.95610000 51.02420000 511.42001000 -0.62357599 -0.65849900 0.42134500 1.905766e-42
-58.30329900 50.49520100 509.73499000 -0.62115598 -0.66616601 0.41278100 1.905766e-42
-58.47769900 49.74940100 508.10599000 -0.61827898 -0.67402202 0.40425801 1.905766e-42
-58.44459900 48.68769800 506.65302000 -0.61477000 -0.68200898 0.39613301 1.905766e-42
-58.59190000 47.90039800 505.04099000 -0.61191398 -0.68836999 0.38949701 1.905766e-42
-58.82280000 47.21180000 503.39401000 -0.61087501 -0.69149202 0.38557801 1.905766e-42
-58.75510000 46.33129900 501.82501000 -0.60954201 -0.69497299 0.38140699 1.905766e-42
-59.10340100 46.12149800 500.07199000 -0.60918897 -0.69742101 0.37748301 1.905766e-42
-59.22259900 45.36510100 498.44299000 -0.60826403 -0.70091701 0.37246501 1.905766e-42
-59.41709900 44.78910100 496.74899000 -0.60764599 -0.70437801 0.36690399 1.905766e-42
-59.21340200 43.55419900 495.45499000 -0.60672599 -0.70837498 0.36067700 1.905766e-42
-59.25659900 42.82680100 493.80899000 -0.60646403 -0.71222299 0.35346800 1.905766e-42
-59.02890000 41.82020200 492.33401000 -0.60636801 -0.71615398 0.34560299 1.905766e-42
-58.41360100 40.61800000 491.14401000 -0.60651100 -0.71958202 0.33815101 1.905766e-42
-57.22190100 39.26929900 491.11801000 -0.60617602 -0.72075498 0.33624700 1.905766e-42
-55.86380000 38.08860000 491.15701000 -0.60547203 -0.72167099 0.33555099 1.905766e-42
-54.48000000 37.32910200 490.29199000 -0.60535002 -0.72359103 0.33161199 1.905766e-42
-53.18610000 36.62270000 489.25900000 -0.60465401 -0.72679698 0.32582000 1.905766e-42
-51.99000200 35.37419900 488.75800000 -0.59954602 -0.73453897 0.31779999 1.905766e-42
-50.83390000 33.99480100 488.73499000 -0.59333700 -0.74150801 0.31323501 1.905766e-42
-49.63029900 32.65630000 488.73700000 -0.58615202 -0.74883801 0.30930200 1.905766e-42
-48.30860100 31.43549900 488.78799000 -0.57804298 -0.75632602 0.30632901 1.905766e-42
-46.81679900 30.42930000 488.73901000 -0.56917900 -0.76414299 0.30351299 1.905766e-42
-45.44220000 29.26849900 488.68701000 -0.55974197 -0.77227199 0.30047300 1.905766e-42
-44.40449900 28.02870000 487.89499000 -0.55139101 -0.78135401 0.29232401 1.905766e-42
-43.19960000 26.70299900 487.72000000 -0.54169601 -0.78956598 0.28835899 1.905766e-42
-42.04309800 25.59569900 486.89700000 -0.53303599 -0.79822600 0.28054801 1.905766e-42
-40.74250000 24.59520000 486.15701000 -0.52403301 -0.80655998 0.27358800 1.905766e-42
-39.57590100 23.72190100 485.10101000 -0.51620299 -0.81455302 0.26464701 1.905766e-42
-38.52750000 22.95700100 483.85300000 -0.50931400 -0.82206798 0.25456601 1.905766e-42
-37.67210000 21.88320000 482.68900000 -0.50426298 -0.82758600 0.24661800 1.905766e-42
-37.28870000 21.11450000 481.10699000 -0.50437999 -0.82946497 0.23997700 1.905766e-42
-36.74990100 20.62439900 479.46100000 -0.50416499 -0.83135599 0.23380400 1.905766e-42
-35.95510100 20.24570100 477.89099000 -0.50300598 -0.83351302 0.22856300 1.905766e-42
-35.00719800 19.45739900 476.57999000 -0.50043100 -0.83620799 0.22433101 1.905766e-42
-34.16690100 18.92180100 475.08099000 -0.49845600 -0.83864701 0.21957700 1.905766e-42
-33.94080000 18.17569900 473.45801000 -0.49754500 -0.84056097 0.21425600 1.905766e-42
-34.38600200 18.32500100 471.72101000 -0.49931601 -0.84073102 0.20941301 1.905766e-42
-34.54639800 17.79040000 470.00900000 -0.49905801 -0.84199297 0.20491099 1.905766e-42
-34.45550200 16.67490000 468.60001000 -0.49699301 -0.84412199 0.20113599 1.905766e-42
-34.41009900 15.62580000 467.13800000 -0.49490601 -0.84619898 0.19752200 1.905766e-42
-33.38290000 14.96740000 465.81400000 -0.49085200 -0.84932798 0.19418000 1.905766e-42
-32.00280000 14.05450000 465.10599000 -0.48590699 -0.85277897 0.19147301 1.905766e-42
-30.65589900 13.03570000 464.48300000 -0.48164701 -0.85568100 0.18928100 1.905766e-42
-29.21439900 12.11220000 463.92700000 -0.47762799 -0.85831600 0.18752401 1.905766e-42
-27.90530000 11.21870000 463.07401000 -0.47344300 -0.86111301 0.18529999 1.905766e-42
-27.08600000 10.96650000 461.49100000 -0.47029099 -0.86331099 0.18308599 1.905766e-42
-25.70130000 9.82586960 461.34299000 -0.46537700 -0.86636603 0.18120299 1.905766e-42
-24.34670100 9.00397970 460.48901000 -0.45997199 -0.86973602 0.17884301 1.905766e-42
-23.12980100 8.23233990 459.41101000 -0.45426199 -0.87320399 0.17652300 1.905766e-42
-21.68770000 7.28238010 458.90302000 -0.44765201 -0.87710702 0.17404400 1.905766e-42
-20.29690000 6.43875980 458.13199000 -0.44041100 -0.88125801 0.17153300 1.905766e-42
-18.81329900 5.58007000 457.58301000 -0.43234301 -0.88575900 0.16885100 1.905766e-42
-17.33700000 4.59094000 457.29599000 -0.42351800 -0.89055401 0.16596900 1.905766e-42
-15.83540000 3.77357010 456.73300000 -0.41356400 -0.89574802 0.16309699 1.905766e-42
-14.27080000 2.91795990 456.48801000 -0.39868400 -0.90391201 0.15490000 1.905766e-42
-12.80540000 2.21270990 455.71600000 -0.38212499 -0.91252899 0.14584500 1.905766e-42
-11.28080000 1.47461000 455.10800000 -0.36483899 -0.92099398 0.13661100 1.905766e-42
-9.78050990 0.82067800 454.35800000 -0.34684399 -0.92928803 0.12697800 1.905766e-42
-8.10433960 0.17695300 454.23199000 -0.32953301 -0.93671203 0.11823500 1.905766e-42
-6.55670980 -0.40276301 453.51801000 -0.31074300 -0.94431800 0.10818000 1.905766e-42
-4.99069020 -0.86775303 452.76199000 -0.29183900 -0.95145202 0.09782010 1.905766e-42
-3.31662010 -1.50130000 452.57199000 -0.27129501 -0.95817202 0.09113240 1.905766e-42
-1.70769000 -1.95233000 451.90302000 -0.25143200 -0.96439898 0.08195300 1.905766e-42
0.00279094 -2.45605990 451.65701000 -0.23259901 -0.96971101 0.07455230 1.905766e-42
1.59726000 -2.89176010 450.94400000 -0.21457900 -0.97457302 0.06452930 1.905766e-42
3.21966000 -3.29873990 450.28000000 -0.19753000 -0.97878301 0.05445920 1.905766e-42
4.90932990 -3.38175010 449.66501000 -0.18305200 -0.98198199 0.04694060 1.905766e-42
6.61579990 -3.90053010 449.42200000 -0.17012000 -0.98447400 0.04324370 1.905766e-42
8.30142020 -4.17590000 448.85400000 -0.15627100 -0.98697901 0.03809730 1.905766e-42
10.03520000 -4.51743980 448.51099000 -0.14138401 -0.98941201 0.03276970 1.905766e-42
11.65930000 -4.67108010 447.75101000 -0.12507100 -0.99179602 0.02643450 1.905766e-42
13.34990000 -4.85197020 447.16000000 -0.10695900 -0.99406803 0.01970060 1.905766e-42
15.11500000 -5.15499020 446.97900000 -0.08782100 -0.99606198 0.01214290 1.905766e-42
16.79950000 -5.18979980 446.34500000 -0.06585430 -0.99782097 0.00397030 1.905766e-42
18.58480100 -5.41898010 446.35901000 -0.04375400 -0.99902600 -0.00569849 1.905766e-42
20.18610000 -5.38956020 445.53799000 -0.01345790 -0.99983001 -0.01261740 1.905766e-42
21.96120100 -5.37498000 445.23999000 0.02381510 -0.99956697 -0.01726760 1.905766e-42
23.62660000 -5.25635000 444.56699000 0.05868260 -0.99799901 -0.02353930 1.905766e-42
25.23350000 -5.04955010 443.78299000 0.09125260 -0.99535400 -0.03072800 1.905766e-42
26.91090000 -4.83712010 443.16599000 0.12192000 -0.99179101 -0.03855870 1.905766e-42
28.69529900 -4.61249020 443.09201000 0.14848800 -0.98785597 -0.04573480 1.905766e-42
30.28990000 -4.37035990 442.29300000 0.17133400 -0.98370498 -0.05449550 1.905766e-42
31.75480100 -4.00516990 441.31299000 0.19007400 -0.97969699 -0.06376330 1.905766e-42
33.30759800 -3.59765010 440.49899000 0.20517400 -0.97600001 -0.07298680 1.905766e-42
34.98320000 -3.17752000 439.99301000 0.21502399 -0.97328001 -0.08056500 1.905766e-42
36.42760100 -2.92381000 441.03699000 0.21787401 -0.97280902 -0.07857090 1.905766e-42
37.41939900 -2.70300010 442.52200000 0.21947400 -0.97320300 -0.06861030 1.905766e-42
37.78490100 -2.78991010 444.28299000 0.22139201 -0.97370201 -0.05376610 1.905766e-42
38.15779900 -2.73987010 446.04300000 0.22466899 -0.97369599 -0.03794720 1.905766e-42
38.15750100 -2.98460010 447.82599000 0.22677100 -0.97369403 -0.02225270 1.905766e-42
38.26969900 -3.01499010 449.62299000 0.22967000 -0.97324800 -0.00626940 1.905766e-42
38.18450200 -3.08293010 451.41901000 0.23158599 -0.97276902 0.00941587 1.905766e-42
38.61890000 -2.91080000 453.15799000 0.23675500 -0.97123802 0.02536260 1.905766e-42
38.12929900 -3.05277990 454.88400000 0.23571000 -0.97101301 0.03967920 1.905766e-42
38.99710100 -2.71490000 456.42401000 0.24431300 -0.96816897 0.05440510 1.905766e-42
39.76110100 -2.28713990 457.99701000 0.25289801 -0.96499997 0.06940620 1.905766e-42
40.01509900 -2.18923000 459.77600000 0.25784901 -0.96245497 0.08482160 1.905766e-42
40.31700100 -1.84897990 461.51801000 0.26368999 -0.95941103 0.09999470 1.905766e-42
40.48009900 -1.51698990 463.27899000 0.26845399 -0.95642698 0.11480300 1.905766e-42
40.45780200 -1.46360000 465.07800000 0.27070099 -0.95398802 0.12895299 1.905766e-42
41.14230000 -1.01551000 466.68201000 0.28012201 -0.94931602 0.14258701 1.905766e-42
41.60110100 -0.52738398 468.35300000 0.28778800 -0.94489199 0.15606900 1.905766e-42
42.63850000 0.14733000 469.66000000 0.30129999 -0.93871099 0.16745301 1.905766e-42
43.25870100 0.52941400 471.30600000 0.30937201 -0.93391103 0.17916100 1.905766e-42
43.78130000 0.90811002 472.98599000 0.31499699 -0.92996901 0.18956199 1.905766e-42
44.70140100 1.50087000 474.41501000 0.32486099 -0.92470300 0.19846800 1.905766e-42
45.18080100 1.98253000 476.08200000 0.32924899 -0.92003399 0.21244600 1.905766e-42
45.90860000 2.60794000 477.60501000 0.33695301 -0.91402698 0.22587200 1.905766e-42
46.63180200 3.29151010 479.10501000 0.34531301 -0.90735799 0.23971000 1.905766e-42
47.35720100 3.99806000 480.59299000 0.35425201 -0.90002000 0.25390899 1.905766e-42
48.20819900 4.78989980 481.96701000 0.36514601 -0.89164400 0.26765701 1.905766e-42
49.02970100 5.55126000 483.37601000 0.37604499 -0.88268697 0.28187600 1.905766e-42
49.93709900 6.38321020 484.68900000 0.38837299 -0.87279999 0.29561400 1.905766e-42
50.60739900 7.18664980 486.15399000 0.39871499 -0.86294198 0.31041500 1.905766e-42
51.43009900 8.07645030 487.48499000 0.41106600 -0.85199898 0.32422799 1.905766e-42
52.33200100 9.00576020 488.73499000 0.42463300 -0.84019297 0.33728701 1.905766e-42
53.33490000 10.01010000 489.84201000 0.43968400 -0.82749701 0.34918001 1.905766e-42
54.40440000 11.13100000 490.75900000 0.45595101 -0.81406802 0.35972500 1.905766e-42
55.30699900 12.16400000 491.92401000 0.47040901 -0.80070299 0.37093201 1.905766e-42
56.17330200 13.28460000 493.03500000 0.48497000 -0.78706300 0.38123000 1.905766e-42
56.84019900 13.99120000 494.54999000 0.49537700 -0.77547902 0.39145100 1.905766e-42
57.91350200 15.13410000 495.43399000 0.51149303 -0.76120400 0.39867699 1.905766e-42
58.67190200 16.29550000 496.58099000 0.52475798 -0.74820697 0.40597501 1.905766e-42
59.55460000 17.43310000 497.66101000 0.53860801 -0.73516297 0.41162601 1.905766e-42
60.69839900 18.70620000 498.21899000 0.55524498 -0.72104102 0.41449100 1.905766e-42
61.52470000 19.91050000 499.27100000 0.56826502 -0.70907700 0.41747400 1.905766e-42
62.39530200 21.21500000 500.15399000 0.58524799 -0.69359201 0.42001799 1.905766e-42
63.32059900 22.55780000 500.91599000 0.60298300 -0.67679602 0.42232600 1.905766e-42
64.21330300 23.94669900 501.63300000 0.62062502 -0.65916502 0.42464900 1.905766e-42
65.17690300 25.37660000 502.14999000 0.63743299 -0.63885599 0.43074700 1.905766e-42
66.03569800 26.86220000 502.69400000 0.65270299 -0.61721402 0.43934700 1.905766e-42
66.83100100 28.32630000 503.37500000 0.66654599 -0.59473801 0.44944701 1.905766e-42
67.53009800 29.90220100 503.89200000 0.68025500 -0.57163501 0.45878899 1.905766e-42
68.32389800 31.12039900 504.95300000 0.69069397 -0.54916298 0.47049099 1.905766e-42
68.98449700 32.62329900 505.69101000 0.70212698 -0.52559203 0.48038599 1.905766e-42
69.65360300 34.12830000 506.41800000 0.71303099 -0.50208902 0.48938200 1.905766e-42
70.13210300 35.64030100 507.26901000 0.72205102 -0.47954899 0.49867299 1.905766e-42
70.77940400 37.20669900 507.87500000 0.73126501 -0.45811599 0.50535202 1.905766e-42
71.35790300 38.82180000 508.42001000 0.72765899 -0.45400000 0.51419502 1.905766e-42
71.74620100 40.47240100 509.02399000 0.72460902 -0.44825101 0.52346200 1.905766e-42
72.16429900 42.09100000 509.69101000 0.72213602 -0.44144800 0.53258097 1.905766e-42
72.51960000 43.58169900 510.63501000 0.72027099 -0.43305901 0.54191297 1.905766e-42
72.83719600 45.25140000 511.22800000 0.71889699 -0.42457500 0.55038500 1.905766e-42
72.60790300 46.06050100 512.82001000 0.71831101 -0.41508299 0.55833298 1.905766e-42
72.83920300 47.65060000 513.63098000 0.71793199 -0.40486601 0.56626701 1.905766e-42
73.39630100 49.32379900 513.99103000 0.71796298 -0.39490601 0.57321799 1.905766e-42
73.89320400 51.00420000 514.40302000 0.71821702 -0.38366801 0.58048600 1.905766e-42
73.99780300 52.50939900 515.38397000 0.71699703 -0.36799800 0.59202403 1.905766e-42
74.18609600 54.13019900 516.14398000 0.71531200 -0.35135201 0.60405397 1.905766e-42
74.40450300 55.78879900 516.80902000 0.71399802 -0.33496299 0.61482197 1.905766e-42
74.61499800 57.46620200 517.42700000 0.71296799 -0.31894499 0.62445998 1.905766e-42
74.92209600 59.18439900 517.86700000 0.71241897 -0.30389500 0.63253999 1.905766e-42
75.23919700 60.90700100 518.28101000 0.71214902 -0.28956899 0.63952601 1.905766e-42
75.72760000 62.62749900 518.48499000 0.71243298 -0.27671900 0.64487600 1.905766e-42
76.03500400 64.36990400 518.81500000 0.71278602 -0.26431999 0.64967000 1.905766e-42
76.10479700 65.99320200 519.59003000 0.71288902 -0.25321600 0.65396601 1.905766e-42
76.41330000 67.73210100 519.93799000 0.71386200 -0.24371301 0.65651000 1.905766e-42
76.54270200 69.49759700 520.26398000 0.71501797 -0.23588000 0.65811002 1.905766e-42
75.27120200 69.60849800 521.53302000 0.71164203 -0.23598599 0.66172200 1.905766e-42
74.11270100 68.58039900 522.45001000 0.70703202 -0.23970200 0.66531903 1.905766e-42
72.66359700 67.90390000 523.27600000 0.70142102 -0.24216400 0.67034698 1.905766e-42
71.45670300 66.95189700 524.21301000 0.69530499 -0.24513100 0.67561901 1.905766e-42
70.48370400 65.77520000 525.16602000 0.68925899 -0.24874100 0.68047798 1.905766e-42
69.21140300 64.87640400 526.06799000 0.68206197 -0.25138700 0.68672901 1.905766e-42
67.96230300 63.97580000 527.00000000 0.67437398 -0.25395700 0.69334400 1.905766e-42
66.79579900 62.98749900 527.95001000 0.66652697 -0.25690699 0.69981498 1.905766e-42
65.42199700 62.34560000 528.91998000 0.65760201 -0.25845599 0.70764500 1.905766e-42
64.39740000 61.09310200 529.70801000 0.65043402 -0.26333001 0.71245497 1.905766e-42
62.92120000 60.69469800 530.65802000 0.64070499 -0.26391900 0.72100198 1.905766e-42
61.77719900 59.85430100 531.76501000 0.63146597 -0.26655599 0.72814697 1.905766e-42
60.30440100 59.35940200 532.67401000 0.62130201 -0.26781300 0.73638302 1.905766e-42
58.82360100 58.89640000 533.58600000 0.61078399 -0.26893100 0.74472803 1.905766e-42
