# .PCD v0.7 - Point Cloud Data file format
# 5 136 -2
# 1 40 0
# 41 55 0
# 56 71 0
# 72 116 0
# 117 136 0
VERSION 0.7
FIELDS x y z normal_x normal_y normal_z curvature
SIZE 4 4 4 4 4 4 4
TYPE F F F F F F F
COUNT 1 1 1 1 1 1 1
WIDTH 136
HEIGHT 1
VIEWPOINT 0 0 0 1 0 0 0
POINTS 136
DATA ascii
-10.67070000 31.41150100 521.70599000 0.09149700 -0.98039502 0.17450900 1.905766e-42
-11.34640000 30.91610000 520.11298000 0.08584580 -0.97068000 0.22452401 1.905766e-42
-11.79500000 30.46229900 518.42999000 0.07850520 -0.95741701 0.27783200 1.905766e-42
-12.91550000 30.05690000 517.08099000 0.06785730 -0.94580901 0.31755501 1.905766e-42
-13.15740000 29.41850100 515.41498000 0.05901120 -0.92751801 0.36908999 1.905766e-42
-13.90810000 28.99970100 513.83398000 0.04717350 -0.91071099 0.41034099 1.905766e-42
-13.89010000 28.04960100 512.30499000 0.03172160 -0.88810498 0.45854399 1.905766e-42
-13.72740000 27.10220000 510.78299000 0.00658103 -0.86060399 0.50923300 1.905766e-42
-14.25310000 26.33740000 509.24100000 -0.00818203 -0.84590298 0.53327298 1.905766e-42
-13.91460000 25.22960100 507.86301000 -0.01408560 -0.83733600 0.54650801 1.905766e-42
-13.96040000 24.27339900 506.33899000 -0.02045850 -0.82970202 0.55783200 1.905766e-42
-13.54290000 23.18919900 504.96399000 -0.02608380 -0.82177699 0.56921101 1.905766e-42
-13.63780000 22.25620100 503.42801000 -0.03282170 -0.81514502 0.57832599 1.905766e-42
-13.46130000 21.30810000 501.90799000 -0.03911330 -0.80844599 0.58727002 1.905766e-42
-12.76240000 20.26140000 500.62100000 -0.02263120 -0.82399201 0.56614900 1.905766e-42
-12.45050000 19.33169900 499.11200000 -0.00366487 -0.84307498 0.53778303 1.905766e-42
-12.59340000 18.56640100 497.48901000 0.01214110 -0.85847098 0.51271802 1.905766e-42
-11.96080000 17.49410100 496.18900000 0.03347600 -0.87476099 0.48339701 1.905766e-42
-11.37110000 16.60479900 494.73901000 0.05515750 -0.88904500 0.45448500 1.905766e-42
-11.41580000 15.84490000 493.10800000 0.06827330 -0.89341599 0.44401199 1.905766e-42
-11.05990000 14.95870000 491.58200000 0.05345240 -0.87347901 0.48391899 1.905766e-42
-10.58290000 14.10760000 490.07001000 0.03748230 -0.85262102 0.52118301 1.905766e-42
-10.26600000 13.22490000 488.53299000 0.02409190 -0.83065897 0.55625999 1.905766e-42
-10.12040000 12.32950000 486.97800000 0.01404300 -0.80802000 0.58898801 1.905766e-42
-10.06840000 11.30970000 485.49600000 0.00608217 -0.78537202 0.61899501 1.905766e-42
-9.64811040 10.15680000 484.17899000 0.00339241 -0.77354300 0.63373500 1.905766e-42
-9.55922990 9.08337020 482.73700000 0.01467760 -0.77318901 0.63400501 1.905766e-42
-9.69417950 7.97917990 481.32199000 0.02648600 -0.76828200 0.63956302 1.905766e-42
-8.77369980 6.21587990 479.49799000 0.04971960 -0.76126599 0.64653099 1.905766e-42
-8.11878970 5.08642010 478.25900000 0.06887270 -0.75387502 0.65339798 1.905766e-42
-7.77253010 3.96914010 476.89099000 0.08486210 -0.74383599 0.66295302 1.905766e-42
-7.35098980 2.90605000 475.50101000 0.13185900 -0.76207602 0.63391900 1.905766e-42
-6.76128010 1.89705000 474.13199000 0.20132001 -0.76549602 0.61113602 1.905766e-42
-6.61774020 0.86732697 472.66299000 0.26604101 -0.74169499 0.61571997 1.905766e-42
-6.59721990 -0.13156401 471.16501000 0.33445701 -0.68748999 0.64459002 1.905766e-42
-5.52999020 -1.00859000 470.01099000 0.46948501 -0.62189698 0.62676001 1.905766e-42
-5.06804990 -1.96391000 468.55701000 0.57209402 -0.51642299 0.63719302 1.905766e-42
-4.04557990 -2.12737990 467.08499000 0.67581701 -0.44778299 0.58545899 1.905766e-42
-2.57603000 -1.94096000 466.06201000 0.74051899 -0.40878099 0.53341299 1.905766e-42
-1.49924000 -1.60204010 464.66000000 0.77500701 -0.37696901 0.50720602 1.905766e-42
-0.70718902 -0.94233400 463.18500000 0.78652799 -0.36239600 0.50004399 1.905766e-42
-1.00464000 0.15022901 464.58401000 0.78999501 -0.38974401 0.47329399 1.905766e-42
-1.08445000 1.51028000 465.76001000 0.79984599 -0.43034700 0.41838601 1.905766e-42
-1.12368000 2.15001990 467.44199000 0.79788399 -0.49413201 0.34527501 1.905766e-42
-0.70096099 3.64878010 468.34500000 0.82310599 -0.51648402 0.23609400 1.905766e-42
-0.27763000 4.65748980 469.77499000 0.81718999 -0.56264102 0.12504099 1.905766e-42
0.54321498 5.93162010 470.74600000 0.73660302 -0.67513502 0.04011430 1.905766e-42
1.50069000 7.28891990 471.43900000 0.66712099 -0.74408197 -0.03593910 1.905766e-42
2.65416000 8.14789960 472.52100000 0.59662700 -0.79965299 -0.06775590 1.905766e-42
3.87032010 8.79224970 473.68201000 0.53567803 -0.84109002 -0.07494190 1.905766e-42
5.31408980 9.58354000 474.40900000 0.45257801 -0.88415998 -0.11590700 1.905766e-42
6.88130000 10.42620000 474.68100000 0.35289100 -0.91765600 -0.18269099 1.905766e-42
8.45705030 10.48340000 475.54901000 0.22708800 -0.95237899 -0.20348400 1.905766e-42
10.19820000 10.63860000 475.97900000 0.09246010 -0.96536499 -0.24396899 1.905766e-42
11.97840000 10.89370000 475.90399000 -0.01286960 -0.95557201 -0.29447800 1.905766e-42
13.70720000 11.17150000 475.48700000 -0.07820710 -0.93685800 -0.34085301 1.905766e-42
15.37700000 10.51270000 475.62100000 -0.17737000 -0.92179197 -0.34472999 1.905766e-42
17.07609900 10.16460000 475.14001000 -0.29375699 -0.87497199 -0.38487801 1.905766e-42
18.68700000 9.51015000 474.67401000 -0.46830201 -0.80133301 -0.37223399 1.905766e-42
20.17480100 8.71498970 474.04599000 -0.65897602 -0.68511802 -0.31042400 1.905766e-42
21.41970100 7.54035000 473.48901000 -0.74164599 -0.63587302 -0.21360700 1.905766e-42
22.59030000 6.50017980 472.60199000 -0.79560202 -0.59323698 -0.12283300 1.905766e-42
23.60980000 5.37590980 471.63400000 -0.83400100 -0.55036497 -0.03924940 1.905766e-42
24.38810000 3.98880000 470.79099000 -0.85557598 -0.51549900 0.04743950 1.905766e-42
25.00980000 2.73979000 469.65399000 -0.87543899 -0.46644500 0.12663500 1.905766e-42
25.42750000 1.41735990 468.50601000 -0.88587898 -0.40730399 0.22208300 1.905766e-42
25.60430000 0.10177800 467.29099000 -0.88443601 -0.34738401 0.31160501 1.905766e-42
25.60310000 -1.13826000 465.98599000 -0.87411201 -0.28755000 0.39146399 1.905766e-42
25.39290000 -2.44963000 464.77100000 -0.85599798 -0.23372300 0.46113101 1.905766e-42
24.89020000 -3.67343000 463.54999000 -0.82116902 -0.19014600 0.53807700 1.905766e-42
24.25440000 -4.91688010 462.41501000 -0.77466500 -0.16204900 0.61125702 1.905766e-42
24.18250100 -6.70646000 462.59399000 -0.76574898 -0.14629599 0.62628001 1.905766e-42
25.32550000 -7.60196020 463.65799000 -0.74881798 -0.18860500 0.63537300 1.905766e-42
26.66990100 -8.00269990 464.78601000 -0.70048398 -0.26393500 0.66306901 1.905766e-42
27.96629900 -7.98154020 466.03500000 -0.64712900 -0.35209301 0.67620498 1.905766e-42
28.88260100 -7.15276000 467.34399000 -0.61671102 -0.43004999 0.65933597 1.905766e-42
29.67950100 -6.31529000 468.72299000 -0.56730402 -0.50410599 0.65118599 1.905766e-42
30.48189900 -5.53511000 470.13300000 -0.53890997 -0.56182897 0.62763399 1.905766e-42
31.21229900 -4.67019990 471.53299000 -0.49479201 -0.61082202 0.61812401 1.905766e-42
32.03670100 -3.90820000 472.94000000 -0.42388999 -0.65298599 0.62763602 1.905766e-42
32.95819900 -3.11882000 474.26901000 -0.33213899 -0.68541300 0.64799100 1.905766e-42
33.59740100 -2.16689990 475.65701000 -0.25040099 -0.71241802 0.65556097 1.905766e-42
34.04340000 -1.08435000 477.02399000 -0.23460600 -0.74476397 0.62472898 1.905766e-42
34.83490000 -0.15219900 478.34500000 -0.22678600 -0.75513899 0.61508799 1.905766e-42
35.49810000 0.81328398 479.71100000 -0.21950001 -0.76158798 0.60975701 1.905766e-42
36.09780100 1.75199000 481.12500000 -0.21162599 -0.76765603 0.60491198 1.905766e-42
36.59560000 2.79941010 482.50201000 -0.20534199 -0.77470797 0.59804899 1.905766e-42
36.67020000 3.74313000 484.03299000 -0.19873500 -0.78247702 0.59011298 1.905766e-42
36.91960100 4.77023980 485.48999000 -0.18394300 -0.79027098 0.58449697 1.905766e-42
37.24300000 5.78551010 486.94101000 -0.16948600 -0.79757601 0.57891899 1.905766e-42
37.34759900 6.82382010 488.40701000 -0.16127400 -0.80045199 0.57729298 1.905766e-42
37.13700100 7.81989000 489.89200000 -0.15688200 -0.80209398 0.57622403 1.905766e-42
35.98880000 8.71004960 490.95401000 -0.16824400 -0.80404800 0.57026303 1.905766e-42
34.90620000 9.74392030 491.95401000 -0.17804000 -0.80654001 0.56373298 1.905766e-42
33.97959900 10.80920000 493.07001000 -0.18179600 -0.80920398 0.55869299 1.905766e-42
32.70970200 11.67900000 494.00400000 -0.19100900 -0.81437200 0.54800999 1.905766e-42
31.37369900 12.51630000 494.87201000 -0.20157900 -0.82171202 0.53306299 1.905766e-42
30.40010100 13.49850000 496.02399000 -0.19835199 -0.82740903 0.52540600 1.905766e-42
29.72290000 14.51970000 497.34299000 -0.18470401 -0.83111602 0.52452898 1.905766e-42
28.72590100 15.45930000 498.51001000 -0.17169400 -0.83580899 0.52148300 1.905766e-42
28.02750000 16.50169900 499.80099000 -0.15812100 -0.83900100 0.52064902 1.905766e-42
26.94759900 17.35120000 500.96399000 -0.14741801 -0.84078300 0.52091497 1.905766e-42
26.53940000 18.41470000 502.35699000 -0.13696299 -0.83751601 0.52896899 1.905766e-42
25.53240000 19.22400100 503.61099000 -0.12766901 -0.83659601 0.53273600 1.905766e-42
25.43269900 20.26269900 505.07700000 -0.11715200 -0.83175701 0.54263699 1.905766e-42
24.70690000 21.20630100 506.42700000 -0.10716600 -0.82913601 0.54867899 1.905766e-42
23.65110000 22.03170000 507.62900000 -0.09824360 -0.82801402 0.55203301 1.905766e-42
22.68989900 22.95809900 508.83701000 -0.09128760 -0.82576901 0.55657202 1.905766e-42
22.07220100 23.97550000 510.18701000 -0.08814070 -0.82272500 0.56156403 1.905766e-42
21.63900000 25.05769900 511.55801000 -0.08905010 -0.82111698 0.56377000 1.905766e-42
21.68009900 26.05530000 513.05603000 -0.10234600 -0.82495397 0.55585700 1.905766e-42
21.61360000 27.05950000 514.54901000 -0.12708899 -0.83354300 0.53763801 1.905766e-42
21.89839900 28.02050000 516.04401000 -0.15618201 -0.84772402 0.50692302 1.905766e-42
22.19450000 28.86370100 517.60602000 -0.16975300 -0.87755001 0.44843099 1.905766e-42
22.03870000 29.55620000 519.26001000 -0.17541599 -0.90310103 0.39196599 1.905766e-42
22.75230000 30.01919900 520.84698000 -0.18240300 -0.92134398 0.34329799 1.905766e-42
23.48870100 30.43460100 522.43597000 -0.18602800 -0.93302298 0.30799499 1.905766e-42
21.82760000 30.95929900 522.88898000 -0.16559200 -0.94221002 0.29123801 1.905766e-42
20.09660000 31.00860000 522.39801000 -0.14804100 -0.94574702 0.28921601 1.905766e-42
18.35490000 31.46290000 522.39801000 -0.12614100 -0.95350599 0.27370501 1.905766e-42
16.55570000 31.51230000 522.42200000 -0.10831500 -0.95861399 0.26330200 1.905766e-42
14.76430000 31.66350000 522.51202000 -0.09672440 -0.95977098 0.26359701 1.905766e-42
13.14360000 32.04520000 523.19598000 -0.08889230 -0.96405399 0.25039500 1.905766e-42
11.34600000 32.13840100 523.19299000 -0.07823420 -0.96464300 0.25168100 1.905766e-42
9.55008030 32.25750000 523.16901000 -0.06840690 -0.96602499 0.24923100 1.905766e-42
7.75488000 32.38719900 523.18799000 -0.05380210 -0.96838999 0.24356900 1.905766e-42
5.95497990 32.40259900 523.19897000 -0.03355760 -0.97089702 0.23713300 1.905766e-42
4.15610980 32.46360000 523.21899000 -0.01289720 -0.97364700 0.22769400 1.905766e-42
2.36079000 32.54539900 523.31897000 0.00713378 -0.97666800 0.21463600 1.905766e-42
0.63706303 32.77030200 523.78601000 0.02920670 -0.98082399 0.19269300 1.905766e-42
-1.13794990 32.69469800 524.07599000 0.05287120 -0.98303300 0.17564100 1.905766e-42
-2.78227000 32.79690200 524.80103000 0.07852590 -0.98568398 0.14920200 1.905766e-42
-4.57453010 32.75759900 524.96301000 0.10177300 -0.98587400 0.13301800 1.905766e-42
-5.89488980 32.24530000 523.85199000 0.10610600 -0.98356801 0.14606901 1.905766e-42
-7.60618020 31.97590100 523.36298000 0.10587700 -0.98411298 0.14251800 1.905766e-42
-9.31385990 31.82360100 522.81500000 0.10046000 -0.98416698 0.14602600 1.905766e-42
