# .PCD v0.7 - Point Cloud Data file format
# 4 156 1
# 1 31 0
# 32 88 1
# 89 103 0
# 104 156 0
VERSION 0.7
FIELDS x y z normal_x normal_y normal_z curvature
SIZE 4 4 4 4 4 4 4
TYPE F F F F F F F
COUNT 1 1 1 1 1 1 1
WIDTH 156
HEIGHT 1
VIEWPOINT 0 0 0 1 0 0 0
POINTS 156
DATA ascii
-7.65924980 49.44210100 366.44601000 0.92672598 -0.18171200 -0.32887700 1.905766e-42
-7.51748990 51.23600000 366.40302000 0.92303199 -0.17871800 -0.34069401 1.905766e-42
-6.90207000 52.75890000 367.13901000 0.92000997 -0.18524900 -0.34534600 1.905766e-42
-6.36612990 54.27730200 367.94400000 0.91691500 -0.19541299 -0.34796700 1.905766e-42
-5.75826980 55.78490100 368.71701000 0.91299897 -0.21005300 -0.34972900 1.905766e-42
-5.08722020 57.25920100 369.50201000 0.90697402 -0.23252299 -0.35118601 1.905766e-42
-4.22377010 58.35549900 370.63901000 0.89516097 -0.27067801 -0.35414699 1.905766e-42
-4.01733020 59.52030200 370.38800000 0.88338399 -0.29417199 -0.36482099 1.905766e-42
-3.14467000 60.98780100 370.95801000 0.86588502 -0.33989799 -0.36703199 1.905766e-42
-2.23386000 62.23410000 371.88400000 0.85013199 -0.38419601 -0.36009699 1.905766e-42
-1.25188000 63.56810000 372.58801000 0.82728499 -0.43617699 -0.35404599 1.905766e-42
-0.19557001 64.77710000 373.40201000 0.79999900 -0.48664099 -0.35097301 1.905766e-42
0.91325700 65.97820300 374.15601000 0.77093899 -0.53150100 -0.35094199 1.905766e-42
2.03670000 67.37229900 374.34100000 0.73983097 -0.57247901 -0.35343701 1.905766e-42
3.27244000 68.48249800 375.03400000 0.71555197 -0.59982198 -0.35804901 1.905766e-42
4.51351020 69.50050400 375.84900000 0.70618200 -0.61033201 -0.35889101 1.905766e-42
5.76199010 70.79200000 375.96399000 0.69669700 -0.62120098 -0.35877901 1.905766e-42
7.03605990 71.96510300 376.45499000 0.68811798 -0.62882602 -0.36203700 1.905766e-42
8.35816960 73.15529600 376.72900000 0.68060100 -0.63448000 -0.36635599 1.905766e-42
9.61069010 74.44789900 376.74899000 0.66582900 -0.64602703 -0.37325701 1.905766e-42
10.57080000 75.97000100 376.78900000 0.64598900 -0.66340202 -0.37761900 1.905766e-42
12.11360000 76.59010300 377.47800000 0.62441403 -0.68162203 -0.38144201 1.905766e-42
13.48320000 77.75430300 377.57199000 0.59827101 -0.70679402 -0.37751099 1.905766e-42
14.86200000 78.91100300 377.54599000 0.56854898 -0.73579299 -0.36791399 1.905766e-42
16.36829900 79.78099800 378.00900000 0.54383600 -0.75890201 -0.35820499 1.905766e-42
17.89600000 80.69020100 378.29001000 0.51759303 -0.77989203 -0.35194501 1.905766e-42
19.43700000 81.61669900 378.37500000 0.49139699 -0.79825097 -0.34831700 1.905766e-42
20.94940000 82.59259800 378.38800000 0.46657699 -0.81325799 -0.34773299 1.905766e-42
22.52549900 83.25039700 378.95599000 0.46449301 -0.81376302 -0.34933600 1.905766e-42
23.99650000 84.27200300 378.77600000 0.47720999 -0.80863798 -0.34405601 1.905766e-42
25.51240000 85.20220200 378.49899000 0.49874899 -0.79634601 -0.34217399 1.905766e-42
26.82110000 85.64610300 379.65201000 0.51649302 -0.77737999 -0.35904700 1.905766e-42
27.51740100 85.41089600 381.29501000 0.51303101 -0.76920402 -0.38095301 1.905766e-42
28.22850000 85.41159800 382.94901000 0.52933902 -0.75118202 -0.39436701 1.905766e-42
28.28809900 84.27960200 384.34698000 0.51048899 -0.75738198 -0.40715301 1.905766e-42
28.93140000 83.92970300 385.99100000 0.52778703 -0.74046499 -0.41611499 1.905766e-42
29.38920000 83.29979700 387.61401000 0.53487003 -0.72935700 -0.42655900 1.905766e-42
29.59480100 82.37120100 389.14301000 0.52906603 -0.72555000 -0.44007599 1.905766e-42
30.23399900 81.98069800 390.77899000 0.54407400 -0.70747501 -0.45106900 1.905766e-42
30.81160000 81.61869800 392.44501000 0.55468702 -0.69020998 -0.46468499 1.905766e-42
31.11140100 80.62650300 393.91699000 0.54613698 -0.68637198 -0.48023701 1.905766e-42
31.66239900 80.00849900 395.51501000 0.54693103 -0.67560798 -0.49438900 1.905766e-42
32.11100000 79.21479800 397.06699000 0.54122502 -0.66933799 -0.50898099 1.905766e-42
32.35490000 78.12709800 398.48001000 0.52758503 -0.66943097 -0.52298701 1.905766e-42
32.72470100 77.17630000 399.96301000 0.51672697 -0.66700900 -0.53674197 1.905766e-42
33.19530100 76.35340100 401.49399000 0.50696701 -0.66317397 -0.55062300 1.905766e-42
33.52119800 75.32959700 402.93799000 0.49239999 -0.66122103 -0.56597698 1.905766e-42
34.03490100 74.42359900 404.40601000 0.48026299 -0.65617001 -0.58205599 1.905766e-42
34.28659800 73.28859700 405.78000000 0.46593201 -0.65431398 -0.59563398 1.905766e-42
34.76620100 72.36350300 407.24799000 0.45533100 -0.64949799 -0.60895503 1.905766e-42
35.12009800 71.26899700 408.63199000 0.44537699 -0.64567399 -0.62027800 1.905766e-42
35.69860100 70.48190300 410.14401000 0.43947700 -0.63982701 -0.63046098 1.905766e-42
35.87739900 69.16519900 411.35800000 0.43372801 -0.63567197 -0.63859302 1.905766e-42
36.13650100 67.94170400 412.65302000 0.42915899 -0.62608403 -0.65103197 1.905766e-42
36.66490200 66.94490100 414.05499000 0.42599601 -0.61481798 -0.66372198 1.905766e-42
37.18259800 65.95950300 415.47000000 0.42326599 -0.60336798 -0.67586499 1.905766e-42
37.47290000 64.66549700 416.68701000 0.41987899 -0.59200299 -0.68791997 1.905766e-42
37.57970000 63.22790100 417.76501000 0.41608301 -0.58073801 -0.69972700 1.905766e-42
38.14670200 62.22969800 419.15100000 0.41501799 -0.56824303 -0.71053499 1.905766e-42
38.38710000 60.82669800 420.25299000 0.41219601 -0.55593598 -0.72182399 1.905766e-42
38.87490100 59.66230000 421.53601000 0.41307899 -0.54645401 -0.72852898 1.905766e-42
39.09669900 58.23170100 422.60599000 0.41447601 -0.53702599 -0.73471898 1.905766e-42
39.45389900 56.90530000 423.76901000 0.41911101 -0.52547801 -0.74041802 1.905766e-42
39.86869800 55.62929900 424.96899000 0.42651701 -0.51209700 -0.74554700 1.905766e-42
39.89880000 54.06160000 425.85300000 0.42927900 -0.49709100 -0.75406897 1.905766e-42
40.42440000 52.83850100 427.06500000 0.44104800 -0.48017600 -0.75822699 1.905766e-42
40.75400200 51.41890000 428.12100000 0.45020601 -0.46128401 -0.76454699 1.905766e-42
41.13710000 50.04119900 429.21399000 0.46155801 -0.44304401 -0.76855499 1.905766e-42
41.27520000 48.44929900 430.04300000 0.46526301 -0.42617199 -0.77582699 1.905766e-42
41.66650000 47.06969800 431.13101000 0.47585699 -0.40797001 -0.77917999 1.905766e-42
41.88140100 45.49739800 431.98001000 0.47888899 -0.39095199 -0.78601700 1.905766e-42
41.94689900 43.87860100 432.76501000 0.47582299 -0.37582499 -0.79520297 1.905766e-42
42.23130000 42.35720100 433.68399000 0.47841600 -0.35896501 -0.80141199 1.905766e-42
42.67269900 40.98650000 434.76401000 0.48774201 -0.33983299 -0.80412799 1.905766e-42
42.50709900 39.23870100 435.16101000 0.46791300 -0.33802599 -0.81657499 1.905766e-42
43.04760000 37.91379900 436.25299000 0.48226100 -0.32358199 -0.81407499 1.905766e-42
43.15420200 36.22819900 436.87601000 0.47110501 -0.31856200 -0.82254398 1.905766e-42
43.15910000 34.53310000 437.48099000 0.45404699 -0.31519499 -0.83336300 1.905766e-42
43.41109800 32.94630100 438.29199000 0.45133099 -0.30465201 -0.83874202 1.905766e-42
43.76620100 31.36669900 439.07901000 0.45469999 -0.29001001 -0.84210598 1.905766e-42
44.04390000 29.77899900 439.88000000 0.45782200 -0.27265400 -0.84620303 1.905766e-42
44.00370000 28.01890000 440.25500000 0.44092301 -0.25979701 -0.85912299 1.905766e-42
44.15010100 26.30229900 440.77701000 0.44270399 -0.24297801 -0.86311901 1.905766e-42
43.99560200 24.53330000 441.07199000 0.42992300 -0.23459101 -0.87185699 1.905766e-42
43.97589900 22.78840100 441.51300000 0.42101401 -0.22810701 -0.87790400 1.905766e-42
44.49729900 21.28480000 442.35400000 0.43108699 -0.21721201 -0.87577498 1.905766e-42
44.73009900 19.58919900 442.91101000 0.42925900 -0.20929500 -0.87859702 1.905766e-42
44.62379800 17.80740000 443.14401000 0.41611800 -0.20310500 -0.88633800 1.905766e-42
44.79410200 16.07530000 443.60300000 0.41509801 -0.19032100 -0.88964701 1.905766e-42
43.54930100 14.85180000 443.16299000 0.38192001 -0.18274200 -0.90594798 1.905766e-42
41.96889900 14.16870000 442.63800000 0.36876801 -0.16998400 -0.91384703 1.905766e-42
40.30260100 13.91540000 442.00601000 0.36388800 -0.16686100 -0.91637498 1.905766e-42
38.83169900 12.94020000 441.65100000 0.36588299 -0.16140001 -0.91655898 1.905766e-42
37.26470200 12.25050000 441.09601000 0.37341201 -0.16354001 -0.91313601 1.905766e-42
36.08540000 10.92080000 440.81100000 0.39525601 -0.15271001 -0.90578800 1.905766e-42
34.67100100 9.88797000 440.39499000 0.42229301 -0.14009801 -0.89556801 1.905766e-42
33.14009900 9.31200980 439.64401000 0.44974399 -0.12959900 -0.88370502 1.905766e-42
32.01290100 7.98118020 439.19800000 0.47153699 -0.11421000 -0.87441897 1.905766e-42
30.74630000 6.81529000 438.67300000 0.48949501 -0.10224300 -0.86599201 1.905766e-42
29.57930000 5.45729020 438.48801000 0.49924701 -0.09322970 -0.86142999 1.905766e-42
28.25890000 4.59774020 437.61801000 0.51230699 -0.08597330 -0.85448802 1.905766e-42
27.19949900 3.34071990 436.88400000 0.52386898 -0.07508240 -0.84848303 1.905766e-42
25.91470000 2.53688000 435.91299000 0.53652400 -0.06590100 -0.84130800 1.905766e-42
24.42620100 2.20370010 434.95801000 0.54079199 -0.06942670 -0.83828700 1.905766e-42
22.79950000 2.34464000 434.20001000 0.55102098 -0.07427930 -0.83117902 1.905766e-42
21.31220100 2.28697990 433.18799000 0.56569099 -0.07862420 -0.82086098 1.905766e-42
19.86930100 2.37739990 432.11499000 0.58486098 -0.08234120 -0.80694300 1.905766e-42
18.61529900 3.07937000 431.03201000 0.60646099 -0.08325070 -0.79074299 1.905766e-42
17.30450100 3.78714990 430.02100000 0.63297302 -0.07985940 -0.77004403 1.905766e-42
15.90820000 4.42719980 429.08301000 0.66200203 -0.07382310 -0.74585700 1.905766e-42
14.85220000 5.26409010 427.88901000 0.68818200 -0.06904540 -0.72224498 1.905766e-42
13.79410000 6.09267000 426.69199000 0.71425903 -0.06502670 -0.69685400 1.905766e-42
12.58690000 6.01127000 425.35901000 0.74704099 -0.05649880 -0.66237301 1.905766e-42
11.43840000 6.39095020 424.02600000 0.77708203 -0.05357660 -0.62711501 1.905766e-42
10.29640000 6.75420000 422.68301000 0.80436897 -0.04947990 -0.59206599 1.905766e-42
9.27791980 7.22665020 421.27600000 0.82698202 -0.04681170 -0.56027699 1.905766e-42
8.40627000 7.69809010 419.77301000 0.83141202 -0.06907230 -0.55134702 1.905766e-42
7.61621000 8.28917980 418.26801000 0.83728498 -0.08525190 -0.54008001 1.905766e-42
6.94601010 9.35165020 416.97900000 0.84558398 -0.09310530 -0.52565998 1.905766e-42
6.12301020 10.15900000 415.59601000 0.85171700 -0.10345700 -0.51368701 1.905766e-42
5.31939980 11.14920000 414.32599000 0.85708702 -0.10755000 -0.50382000 1.905766e-42
4.90072010 12.42280000 413.12500000 0.86289603 -0.10677800 -0.49397299 1.905766e-42
4.51046990 13.88840000 412.15601000 0.86864698 -0.10405200 -0.48438099 1.905766e-42
3.97180010 14.90700000 410.77301000 0.87339997 -0.10577000 -0.47537899 1.905766e-42
3.64312010 16.36030000 409.76300000 0.87834603 -0.10373000 -0.46663499 1.905766e-42
3.20322990 17.62459900 408.55899000 0.88285899 -0.10361600 -0.45806500 1.905766e-42
2.74038000 18.83550100 407.31100000 0.88737500 -0.10457200 -0.44903201 1.905766e-42
2.17676000 20.03900000 406.09698000 0.89253402 -0.10837500 -0.43776500 1.905766e-42
1.72868000 21.22030100 404.81500000 0.89727801 -0.11232400 -0.42693800 1.905766e-42
1.52640000 22.82760000 404.03000000 0.90061003 -0.11581100 -0.41891500 1.905766e-42
1.06844000 24.02720100 402.76801000 0.90444601 -0.12050300 -0.40921399 1.905766e-42
0.84305400 25.53930100 401.81799000 0.90712601 -0.12572899 -0.40164000 1.905766e-42
0.66191101 26.99379900 400.77301000 0.90950900 -0.13163200 -0.39429101 1.905766e-42
0.45986301 28.48830000 399.79099000 0.91121399 -0.13766401 -0.38824999 1.905766e-42
-0.10749400 29.61039900 398.50299000 0.91315198 -0.13963699 -0.38295701 1.905766e-42
-0.01085380 31.18689900 397.63901000 0.91319197 -0.14429200 -0.38113099 1.905766e-42
-0.33803299 32.39960100 396.35001000 0.91474402 -0.14698200 -0.37635100 1.905766e-42
-0.76057202 33.53870000 395.02200000 0.91654402 -0.14924900 -0.37104100 1.905766e-42
-1.10397010 34.79200000 393.77600000 0.91792202 -0.15225200 -0.36638501 1.905766e-42
-1.55216000 35.91669800 392.44400000 0.91973001 -0.15449899 -0.36086801 1.905766e-42
-1.59302000 37.28229900 391.27200000 0.92040902 -0.15867600 -0.35730901 1.905766e-42
-2.01395990 38.09389900 389.72198000 0.92300600 -0.15937801 -0.35022700 1.905766e-42
-2.39009000 39.10850100 388.28400000 0.92490703 -0.16139901 -0.34423500 1.905766e-42
-2.71312000 40.19969900 386.88901000 0.92648399 -0.16399699 -0.33872300 1.905766e-42
-3.08682990 41.14230000 385.40201000 0.92831600 -0.16599301 -0.33268100 1.905766e-42
-3.49082990 41.94710200 383.84299000 0.93024999 -0.16761801 -0.32640499 1.905766e-42
-3.97235990 42.40650200 382.17099000 0.93241400 -0.16827600 -0.31982300 1.905766e-42
-4.18514010 43.68650100 380.92300000 0.93315703 -0.17232400 -0.31547201 1.905766e-42
-4.55866000 44.43130100 379.32800000 0.93462402 -0.17590199 -0.30908999 1.905766e-42
-4.92121980 45.16030100 377.72198000 0.93563598 -0.18016900 -0.30351901 1.905766e-42
-5.59715990 45.54380000 376.09900000 0.93650001 -0.18315400 -0.29903400 1.905766e-42
-5.88752990 46.23420000 374.46201000 0.93661100 -0.18834400 -0.29544300 1.905766e-42
-6.36270000 46.40160000 372.73401000 0.93667698 -0.19101900 -0.29350901 1.905766e-42
-6.68748000 46.97150000 371.05801000 0.93588102 -0.19629499 -0.29256701 1.905766e-42
-7.10601000 47.47050100 369.38000000 0.93445301 -0.20142099 -0.29364499 1.905766e-42
-7.50129990 48.31420100 367.83899000 0.93048197 -0.19295800 -0.31140101 1.905766e-42
