# .PCD v0.7 - Point Cloud Data file format
# 3 83 1
# 1 33 1
# 34 56 1
# 57 83 1
VERSION 0.7
FIELDS x y z normal_x normal_y normal_z curvature
SIZE 4 4 4 4 4 4 4
TYPE F F F F F F F
COUNT 1 1 1 1 1 1 1
WIDTH 83
HEIGHT 1
VIEWPOINT 0 0 0 1 0 0 0
POINTS 83
DATA ascii
9.58347990 -9.63107010 476.71701000 0.36351499 0.44216901 -0.81996602 1.905766e-42
8.51451970 -8.62749960 476.76401000 0.34326199 0.45201400 -0.82331902 1.905766e-42
7.10905980 -7.50443980 476.82300000 0.31833500 0.46869400 -0.82400799 1.905766e-42
6.10064980 -6.08237980 477.27100000 0.28658000 0.48399600 -0.82681298 1.905766e-42
4.98863980 -4.74138020 477.72400000 0.24698600 0.51077998 -0.82346898 1.905766e-42
3.68815990 -3.57778000 478.16501000 0.20434400 0.53338701 -0.82081699 1.905766e-42
2.86908010 -2.14478990 478.88300000 0.17280100 0.54332000 -0.82154900 1.905766e-42
1.58253000 -0.98996800 479.38501000 0.13823400 0.55433798 -0.82073200 1.905766e-42
0.47484300 0.27172801 480.03400000 0.10834800 0.56398600 -0.81864601 1.905766e-42
-0.53325403 1.52965000 480.83499000 0.07866520 0.57781702 -0.81236601 1.905766e-42
-1.69444000 2.66549990 481.60999000 0.04920840 0.59104502 -0.80513602 1.905766e-42
-2.66396000 3.89399000 482.49899000 0.02783440 0.60517299 -0.79560697 1.905766e-42
-3.67900990 5.08084010 483.39401000 0.00998889 0.62012100 -0.78444302 1.905766e-42
-4.62815000 6.28135010 484.34201000 -0.00681803 0.63460600 -0.77280498 1.905766e-42
-5.70356990 7.38019990 485.27802000 -0.02674200 0.64697301 -0.76204401 1.905766e-42
-6.59059000 8.53435990 486.33701000 -0.04443620 0.65868300 -0.75110698 1.905766e-42
-7.08450980 9.81970020 487.49600000 -0.05475300 0.67014402 -0.74020803 1.905766e-42
-8.21986010 10.81280000 488.47800000 -0.07778170 0.67859602 -0.73038101 1.905766e-42
-8.92325970 11.97910000 489.65500000 -0.09237790 0.68926197 -0.71859902 1.905766e-42
-10.58060000 12.33910000 490.25800000 -0.12772501 0.69164997 -0.71085000 1.905766e-42
-12.08740000 12.86940000 491.08801000 -0.15868400 0.69513601 -0.70114601 1.905766e-42
-13.19470000 13.58570000 492.31299000 -0.17605101 0.69630200 -0.69582301 1.905766e-42
-13.39720000 14.83410000 493.59399000 -0.17684500 0.70396602 -0.68786502 1.905766e-42
-13.40840000 16.16710100 494.80301000 -0.17380300 0.71393698 -0.67829698 1.905766e-42
-14.00550000 17.23110000 496.12601000 -0.18252900 0.72131002 -0.66812700 1.905766e-42
-14.79400000 18.19840000 497.42401000 -0.19667700 0.72931701 -0.65529698 1.905766e-42
-15.28940000 19.28739900 498.76901000 -0.20789801 0.74043101 -0.63917100 1.905766e-42
-16.02500000 20.19240000 500.14001000 -0.22652000 0.75161397 -0.61948800 1.905766e-42
-15.99100000 21.34000000 501.52600000 -0.23774600 0.76219100 -0.60211498 1.905766e-42
-16.01350000 22.44350100 502.94800000 -0.23573899 0.78085297 -0.57852900 1.905766e-42
-16.42840000 23.36389900 504.43799000 -0.23204800 0.80258501 -0.54955500 1.905766e-42
-16.84410100 24.22990000 505.95999000 -0.22387300 0.82469302 -0.51938599 1.905766e-42
-16.75620100 25.19339900 507.47800000 -0.20925100 0.84804600 -0.48686001 1.905766e-42
-15.44650000 25.99600000 508.41699000 -0.18717000 0.86437702 -0.46671200 1.905766e-42
-13.76880000 26.52540000 508.79800000 -0.16234100 0.87214202 -0.46153501 1.905766e-42
-11.98720000 26.78220000 508.78900000 -0.13072400 0.87828201 -0.45992601 1.905766e-42
-10.19900000 26.98760000 508.78601000 -0.09786220 0.88380599 -0.45750499 1.905766e-42
-8.58848000 26.84140000 507.99600000 -0.07238810 0.88447601 -0.46093699 1.905766e-42
-6.79341980 26.97460000 507.99600000 -0.04369860 0.88909101 -0.45563900 1.905766e-42
-4.99423980 27.02890000 507.99600000 -0.01752680 0.89385802 -0.44800699 1.905766e-42
-3.19425990 27.02389900 507.98999000 0.00860819 0.89436400 -0.44725600 1.905766e-42
-1.39665000 26.93280000 507.97101000 0.04226610 0.89170903 -0.45063201 1.905766e-42
0.39213499 26.75650000 507.87601000 0.07886270 0.88826001 -0.45252100 1.905766e-42
2.02287010 26.31040000 507.25800000 0.11056400 0.87999099 -0.46194300 1.905766e-42
3.66795990 26.37599900 507.98599000 0.14017500 0.88398802 -0.44600001 1.905766e-42
5.42940000 26.00569900 507.97101000 0.16891700 0.88168800 -0.44056001 1.905766e-42
7.18649010 25.61510100 507.96399000 0.19621800 0.88053799 -0.43145299 1.905766e-42
8.92986010 25.16790000 507.93799000 0.22709800 0.87065703 -0.43632901 1.905766e-42
10.63760000 24.68790100 507.63300000 0.25571299 0.85770398 -0.44604301 1.905766e-42
12.27060000 24.01549900 507.28400000 0.28380001 0.84446597 -0.45424199 1.905766e-42
13.89910000 23.62010000 507.94101000 0.31653899 0.84240800 -0.43606400 1.905766e-42
15.57060000 22.95410000 507.88901000 0.34018400 0.83269399 -0.43691599 1.905766e-42
17.17200100 22.19790100 507.56699000 0.36409700 0.81460899 -0.45149300 1.905766e-42
18.78420100 21.46970000 507.89999000 0.39153999 0.79813600 -0.45790300 1.905766e-42
20.30340000 20.60580100 507.46899000 0.42066300 0.77836001 -0.46604601 1.905766e-42
21.88089900 19.75499900 507.63599000 0.44811401 0.76247102 -0.46672401 1.905766e-42
23.31440000 18.67440000 507.50400000 0.47120100 0.74671102 -0.46946001 1.905766e-42
24.13929900 17.53000100 506.38599000 0.48333299 0.72544402 -0.49002099 1.905766e-42
23.87760000 16.73430100 504.79199000 0.48188600 0.70312202 -0.52288198 1.905766e-42
24.11800000 15.50270000 503.50201000 0.48741901 0.67251301 -0.55690998 1.905766e-42
24.54789900 14.19340000 502.34399000 0.49518001 0.64059597 -0.58688402 1.905766e-42
24.78920000 12.81780000 501.20801000 0.49847901 0.61546099 -0.61051399 1.905766e-42
24.96209900 11.42610000 500.07999000 0.50458801 0.58889401 -0.63134402 1.905766e-42
24.50869900 10.39050000 498.67899000 0.50294298 0.56674701 -0.65256798 1.905766e-42
23.89290000 9.37485980 497.32700000 0.49921599 0.54890603 -0.67043698 1.905766e-42
23.44590000 8.12514970 496.11099000 0.50331599 0.53293800 -0.68018401 1.905766e-42
22.99049900 6.91585020 494.85800000 0.50115502 0.53407401 -0.68088800 1.905766e-42
23.33359900 5.33023980 494.07800000 0.50973099 0.52452201 -0.68194699 1.905766e-42
23.99630000 3.88421010 493.23599000 0.51817101 0.51058602 -0.68614900 1.905766e-42
24.17830100 2.39631010 492.23901000 0.52051300 0.49365801 -0.69668299 1.905766e-42
23.16140000 1.62510000 490.97000000 0.51376599 0.48371801 -0.70856303 1.905766e-42
22.33050000 0.66473699 489.69400000 0.50787699 0.47299799 -0.71995401 1.905766e-42
21.91580000 -0.70942301 488.60800000 0.50027400 0.46934700 -0.72762603 1.905766e-42
20.94879900 -1.57418000 487.35999000 0.49220899 0.46511599 -0.73579699 1.905766e-42
19.89480000 -2.50557990 486.23700000 0.48394999 0.45988300 -0.74451298 1.905766e-42
18.66020000 -2.94792010 485.00400000 0.46817201 0.45488200 -0.75756001 1.905766e-42
17.77650100 -4.01441000 483.85400000 0.45730299 0.44404799 -0.77051598 1.905766e-42
16.62459900 -4.80405000 482.71899000 0.44295400 0.43530399 -0.78377402 1.905766e-42
15.47830000 -5.65503980 481.62201000 0.42746100 0.42627400 -0.79722500 1.905766e-42
14.71430000 -6.89834020 480.56900000 0.41782001 0.41454899 -0.80844003 1.905766e-42
13.69370000 -8.01253030 479.59000000 0.40779600 0.40826499 -0.81671399 1.905766e-42
12.27820000 -8.45722960 478.57101000 0.39292699 0.41338101 -0.82141602 1.905766e-42
11.15990000 -9.44676970 477.56601000 0.38563901 0.42278799 -0.82008100 1.905766e-42
