# .PCD v0.7 - Point Cloud Data file format
# 4 152 0
# 1 39 0
# 40 63 0
# 64 113 0
# 114 152 0
VERSION 0.7
FIELDS x y z normal_x normal_y normal_z curvature
SIZE 4 4 4 4 4 4 4
TYPE F F F F F F F
COUNT 1 1 1 1 1 1 1
WIDTH 152
HEIGHT 1
VIEWPOINT 0 0 0 1 0 0 0
POINTS 152
DATA ascii
37.65070000 33.61330000 514.65100000 0.30636799 -0.83601600 0.45521101 1.905766e-42
37.26470200 33.87990200 515.17999000 0.29779199 -0.84157699 0.45063099 1.905766e-42
35.94829900 32.91379900 514.42297000 0.27857399 -0.83660603 0.47168499 1.905766e-42
34.54900000 32.03379800 513.71002000 0.25823000 -0.83289897 0.48948601 1.905766e-42
32.82590100 31.52170000 513.61700000 0.22881000 -0.83312303 0.50353998 1.905766e-42
31.25060100 30.83020000 513.08698000 0.20450699 -0.83040899 0.51826298 1.905766e-42
29.90119900 29.91430100 512.32501000 0.18617199 -0.82732898 0.52996898 1.905766e-42
28.34090000 29.22410000 511.75201000 0.16288200 -0.82539600 0.54054600 1.905766e-42
26.60600100 28.83090000 511.47699000 0.13391800 -0.82311201 0.55186200 1.905766e-42
25.04960100 28.17440000 510.85501000 0.10982000 -0.82198501 0.55882001 1.905766e-42
23.29480000 27.93549900 510.53299000 0.07703900 -0.81864202 0.56911403 1.905766e-42
21.70640000 27.34690100 509.92401000 0.04949050 -0.81553698 0.57658499 1.905766e-42
20.24690100 26.59610000 509.18500000 0.02596630 -0.81260598 0.58223498 1.905766e-42
18.51610000 26.46660000 508.70801000 -0.00923212 -0.80527598 0.59282899 1.905766e-42
16.85460100 26.10150000 508.12000000 -0.04171960 -0.79756999 0.60178298 1.905766e-42
15.26200000 25.63730000 507.42200000 -0.07146550 -0.78968900 0.60933101 1.905766e-42
13.52650000 25.51750000 506.95901000 -0.10902800 -0.77688497 0.62013102 1.905766e-42
11.87130000 25.44150000 506.25601000 -0.14357400 -0.76382703 0.62924999 1.905766e-42
10.33490000 24.91519900 505.48001000 -0.16978200 -0.75374699 0.63485402 1.905766e-42
8.69274040 24.74990100 504.76099000 -0.20139500 -0.74012297 0.64160597 1.905766e-42
7.09058000 24.46470100 503.99200000 -0.22878900 -0.72794402 0.64633799 1.905766e-42
5.59743980 24.04680100 503.07800000 -0.25008500 -0.71891803 0.64854801 1.905766e-42
4.02478980 23.86470000 502.22101000 -0.27328300 -0.70826501 0.65090400 1.905766e-42
2.45705010 23.98650000 501.34500000 -0.29786301 -0.69718200 0.65208501 1.905766e-42
0.90835297 23.73090000 500.46399000 -0.31861001 -0.68915099 0.65081298 1.905766e-42
-0.46847799 23.27430000 499.39899000 -0.33506301 -0.68360901 0.64839101 1.905766e-42
-2.06630990 23.59370000 498.63400000 -0.35957599 -0.67236000 0.64702201 1.905766e-42
-3.64382000 23.82090000 497.79700000 -0.37489501 -0.67215902 0.63847899 1.905766e-42
-5.29528000 23.89340000 497.08499000 -0.39379200 -0.66842800 0.63097697 1.905766e-42
-6.94632010 23.89850000 496.36801000 -0.41527900 -0.66148502 0.62448400 1.905766e-42
-8.64624980 23.97780000 495.78101000 -0.43978801 -0.65319699 0.61637598 1.905766e-42
-9.98363020 25.17260000 495.62799000 -0.46506900 -0.65144199 0.59944499 1.905766e-42
-11.51260000 26.04980100 495.26300000 -0.49552500 -0.64470798 0.58207101 1.905766e-42
-13.09190000 26.35670100 494.45599000 -0.52782202 -0.63056302 0.56902999 1.905766e-42
-14.36700000 26.38400100 493.18600000 -0.55672401 -0.61230803 0.56137103 1.905766e-42
-15.60290000 26.37780000 491.87701000 -0.58391601 -0.59333402 0.55407298 1.905766e-42
-16.90860000 26.31920100 490.64001000 -0.60963500 -0.57424998 0.54642701 1.905766e-42
-18.20879900 26.68930100 489.45099000 -0.63601702 -0.55580598 0.53531498 1.905766e-42
-19.51790000 27.05760000 488.27200000 -0.66026801 -0.53760898 0.52442503 1.905766e-42
-20.72800100 27.36000100 486.97400000 -0.68071699 -0.51964802 0.51632297 1.905766e-42
-21.56839900 26.94249900 485.43799000 -0.69233698 -0.50326800 0.51709902 1.905766e-42
-21.85980000 25.85120000 484.03699000 -0.69508100 -0.49277401 0.52348500 1.905766e-42
-22.32360100 24.95010000 482.54901000 -0.70126098 -0.48139599 0.52582401 1.905766e-42
-22.87010000 24.07460000 481.07401000 -0.70875198 -0.47021100 0.52590197 1.905766e-42
-23.29100000 23.17750000 479.57199000 -0.71608502 -0.45954201 0.52539802 1.905766e-42
-23.86039900 22.39800100 478.05200000 -0.72586000 -0.44759399 0.52228999 1.905766e-42
-24.03010000 21.10490000 476.81201000 -0.72971499 -0.43720901 0.52570498 1.905766e-42
-24.58379900 20.22470100 475.34201000 -0.73778898 -0.42145199 0.52730000 1.905766e-42
-25.31609900 19.59709900 473.82300000 -0.74608499 -0.40382701 0.52941501 1.905766e-42
-25.63680100 18.42230000 472.49701000 -0.75074601 -0.38521099 0.53665000 1.905766e-42
-26.35390100 17.69610000 471.01401000 -0.75878501 -0.37048501 0.53571099 1.905766e-42
-26.70840100 16.52720100 469.69199000 -0.76077098 -0.36316499 0.53790098 1.905766e-42
-27.15070000 15.88120000 468.07101000 -0.76909697 -0.35102800 0.53410602 1.905766e-42
-27.60880100 14.62120000 466.87000000 -0.77284497 -0.34043899 0.53554797 1.905766e-42
-28.09000000 13.43860000 465.60199000 -0.77842301 -0.32582900 0.53655797 1.905766e-42
-28.60330000 12.34370000 464.26801000 -0.78331000 -0.30648199 0.54082799 1.905766e-42
-29.06010100 11.13480000 463.01501000 -0.78471398 -0.28476900 0.55057198 1.905766e-42
-29.56590100 9.91090010 461.79599000 -0.78704399 -0.26176599 0.55860502 1.905766e-42
-30.11260000 9.04710960 460.31500000 -0.79260498 -0.23962399 0.56067699 1.905766e-42
-30.67320100 7.76941010 459.17700000 -0.79321301 -0.23090801 0.56346703 1.905766e-42
-31.34390100 6.76385020 457.84399000 -0.79564899 -0.22952500 0.56059003 1.905766e-42
-31.98340000 5.77321000 456.48401000 -0.79889798 -0.22928999 0.55604702 1.905766e-42
-32.46979900 4.54937980 455.25699000 -0.80074900 -0.23161300 0.55241001 1.905766e-42
-32.31639900 2.93178010 454.48199000 -0.79705602 -0.23762999 0.55518901 1.905766e-42
-32.08689900 1.15493000 454.30899000 -0.78913403 -0.24318901 0.56402701 1.905766e-42
-31.58449900 -0.57275897 454.35999000 -0.77753299 -0.24789800 0.57791799 1.905766e-42
-31.09040100 -2.30323000 454.39700000 -0.76317501 -0.25557399 0.59350401 1.905766e-42
-30.05190100 -3.59081010 455.10699000 -0.74181700 -0.27329600 0.61238599 1.905766e-42
-29.72780000 -5.32632020 454.75601000 -0.72777700 -0.27895299 0.62651902 1.905766e-42
-28.98180000 -6.96421000 454.78400000 -0.70756203 -0.28999001 0.64440799 1.905766e-42
-28.14979900 -8.55665020 454.89301000 -0.68527901 -0.30207500 0.66267902 1.905766e-42
-27.36650100 -10.17690000 454.92899000 -0.66261703 -0.31291100 0.68045998 1.905766e-42
-26.17970100 -11.41950000 455.46500000 -0.63785303 -0.32586899 0.69782001 1.905766e-42
-25.30920000 -12.99000000 455.59100000 -0.61774200 -0.32354999 0.71673602 1.905766e-42
-24.23119900 -14.39290000 455.92200000 -0.59447300 -0.32589999 0.73511302 1.905766e-42
-22.96439900 -15.61300000 456.30499000 -0.56914198 -0.33190301 0.75227499 1.905766e-42
-21.70050000 -16.84660000 456.65201000 -0.54248202 -0.33801499 0.76906401 1.905766e-42
-20.27170000 -17.79980100 457.19101000 -0.51418102 -0.34985900 0.78308201 1.905766e-42
-18.89930000 -18.88190100 457.62100000 -0.48432499 -0.35994700 0.79741299 1.905766e-42
-17.32819900 -19.40350000 458.32800000 -0.45576701 -0.37807900 0.80581099 1.905766e-42
-15.71420000 -19.91029900 458.94299000 -0.42781401 -0.39447200 0.81324500 1.905766e-42
-14.13340000 -20.63030100 459.41501000 -0.39957401 -0.40659401 0.82159698 1.905766e-42
-12.56340000 -21.43750000 459.76700000 -0.37166601 -0.41594800 0.82997102 1.905766e-42
-10.88260000 -21.57670000 460.39600000 -0.34755099 -0.43308899 0.83165002 1.905766e-42
-9.23814010 -22.21260100 460.75800000 -0.31849799 -0.44226000 0.83842999 1.905766e-42
-7.56308980 -22.81200000 461.03201000 -0.28615299 -0.44880399 0.84657598 1.905766e-42
-5.83517980 -23.20439900 461.34900000 -0.25274101 -0.45897400 0.85174203 1.905766e-42
-4.11160990 -23.68140000 461.55301000 -0.21760701 -0.47047001 0.85516399 1.905766e-42
-2.35432000 -23.91939900 461.86200000 -0.18438600 -0.48274800 0.85612899 1.905766e-42
-0.57575601 -24.00330000 462.12601000 -0.15249600 -0.49479499 0.85552502 1.905766e-42
1.20724000 -24.00840000 462.37201000 -0.12143700 -0.50641000 0.85369903 1.905766e-42
2.98967000 -24.07530000 462.61401000 -0.09026170 -0.51707602 0.85116702 1.905766e-42
4.78538990 -24.05110000 462.73599000 -0.05914250 -0.52733302 0.84759802 1.905766e-42
6.58100990 -24.02490000 462.85901000 -0.02611630 -0.53590697 0.84387302 1.905766e-42
8.38057990 -24.00540000 462.89200000 0.00773307 -0.54304898 0.83966601 1.905766e-42
10.17530000 -24.00650000 462.75500000 0.03419840 -0.53995800 0.84099698 1.905766e-42
11.80960000 -23.37809900 463.17200000 0.05893750 -0.54720902 0.83491898 1.905766e-42
13.60230000 -23.23250000 463.10101000 0.08585730 -0.54652399 0.83303100 1.905766e-42
15.38330000 -23.20649900 462.84100000 0.11370100 -0.54402900 0.83132702 1.905766e-42
17.08289900 -22.62800000 462.97000000 0.14064200 -0.54955298 0.82353598 1.905766e-42
18.82519900 -22.35110100 462.61301000 0.17027000 -0.54938400 0.81803799 1.905766e-42
20.51429900 -21.74729900 462.76300000 0.20154400 -0.55274498 0.80861098 1.905766e-42
22.15749900 -21.01359900 462.80301000 0.23687100 -0.55229002 0.79929203 1.905766e-42
23.78570000 -20.25040100 462.88199000 0.27068099 -0.55221999 0.78853399 1.905766e-42
25.38120100 -19.41720000 462.89801000 0.30313200 -0.55226600 0.77660400 1.905766e-42
26.99589900 -18.63010000 462.78299000 0.33533800 -0.55139703 0.76387799 1.905766e-42
28.56650000 -17.75289900 462.72299000 0.36544901 -0.55133301 0.74998599 1.905766e-42
30.06440000 -16.76289900 462.59500000 0.39380401 -0.55160803 0.73528701 1.905766e-42
31.49460000 -15.67690000 462.71799000 0.41818100 -0.55333298 0.72038001 1.905766e-42
32.97600200 -14.65700000 462.64600000 0.44332400 -0.55370200 0.70489597 1.905766e-42
34.38919800 -13.54210000 462.64899000 0.46540800 -0.55353898 0.69064498 1.905766e-42
35.76419800 -12.62620000 461.93399000 0.48968199 -0.55043900 0.67618698 1.905766e-42
37.12789900 -11.54280000 462.38901000 0.50358301 -0.54843402 0.66755098 1.905766e-42
38.37609900 -10.24590000 462.38400000 0.51775002 -0.54365498 0.66058600 1.905766e-42
38.87300100 -8.66186050 463.07999000 0.52293903 -0.53670597 0.66217899 1.905766e-42
38.28450000 -7.66285990 464.45700000 0.51612198 -0.53379798 0.66983402 1.905766e-42
38.14410000 -6.30812980 465.63400000 0.51619601 -0.52871001 0.67379999 1.905766e-42
37.78459900 -5.09804010 466.91699000 0.51334298 -0.52768397 0.67677802 1.905766e-42
37.81200000 -3.59297990 467.90399000 0.51905799 -0.52643800 0.67338097 1.905766e-42
37.45290000 -2.44605990 469.24399000 0.51244599 -0.53941500 0.66815501 1.905766e-42
37.46720100 -1.07650010 470.41199000 0.50178498 -0.56161499 0.65787601 1.905766e-42
37.35500000 0.26148000 471.60999000 0.48963699 -0.57944500 0.65153599 1.905766e-42
36.95629900 1.36231990 472.97800000 0.47461501 -0.59381503 0.64971101 1.905766e-42
37.12250100 2.77503990 474.08099000 0.46923101 -0.60572201 0.64259100 1.905766e-42
36.82609900 3.90868000 475.44699000 0.45841101 -0.61566198 0.64095300 1.905766e-42
36.67839800 5.16580010 476.72699000 0.45142001 -0.62357903 0.63825500 1.905766e-42
36.58950000 6.41570000 478.01901000 0.44586399 -0.62937403 0.63647002 1.905766e-42
36.24620100 7.54451990 479.37799000 0.43748599 -0.63502401 0.63667202 1.905766e-42
36.56240100 8.89879040 480.52100000 0.43965900 -0.63818902 0.63199300 1.905766e-42
36.71920000 10.22970000 481.72299000 0.44055599 -0.64225203 0.62723398 1.905766e-42
36.68980000 11.46140000 483.03500000 0.43901601 -0.64838499 0.62198198 1.905766e-42
36.47330100 12.55850000 484.44601000 0.43134999 -0.66025102 0.61482102 1.905766e-42
36.83359900 13.92660000 485.55899000 0.42531499 -0.67733598 0.60026997 1.905766e-42
36.63980100 14.99700000 486.99301000 0.41150099 -0.69156599 0.59363598 1.905766e-42
36.51710100 16.10759900 488.40399000 0.39960101 -0.70565802 0.58512002 1.905766e-42
36.63489900 17.29500000 489.75201000 0.39173299 -0.71934903 0.57365698 1.905766e-42
36.70990000 18.42779900 491.14801000 0.38448301 -0.73250198 0.56179500 1.905766e-42
36.59209800 19.48080100 492.60300000 0.37612799 -0.74542397 0.55033702 1.905766e-42
36.77999900 20.56790000 494.02600000 0.37247100 -0.75743401 0.53624600 1.905766e-42
36.72140100 21.61949900 495.48499000 0.36500800 -0.76816702 0.52601302 1.905766e-42
37.42509800 22.68409900 496.75500000 0.36729601 -0.77494103 0.51435399 1.905766e-42
37.67120000 23.78300100 498.15900000 0.36407700 -0.78199899 0.50589103 1.905766e-42
37.60450000 24.73020000 499.68799000 0.35784799 -0.78834099 0.50046301 1.905766e-42
38.12360000 25.79690000 501.04199000 0.36069801 -0.79176098 0.49296299 1.905766e-42
38.31750100 26.79730000 502.52600000 0.35939500 -0.79583901 0.48731399 1.905766e-42
38.44620100 27.77840000 504.02899000 0.35786501 -0.79978198 0.48195601 1.905766e-42
38.41560000 28.64990000 505.60400000 0.35480899 -0.80411899 0.47697300 1.905766e-42
38.57350200 29.61360000 507.11600000 0.35083899 -0.80587697 0.47694299 1.905766e-42
38.25569900 30.45039900 508.67801000 0.33995199 -0.80886698 0.47975799 1.905766e-42
38.68719900 31.51490000 510.06400000 0.34053299 -0.81090599 0.47588700 1.905766e-42
38.39020200 32.24119900 511.68399000 0.32978600 -0.81680501 0.47336200 1.905766e-42
38.61629900 33.20309800 513.18799000 0.32762501 -0.82386500 0.46250299 1.905766e-42
