# .PCD v0.7 - Point Cloud Data file format
# 3 105 1
# 1 33 1
# 34 68 0
# 69 105 0
VERSION 0.7
FIELDS x y z normal_x normal_y normal_z curvature
SIZE 4 4 4 4 4 4 4
TYPE F F F F F F F
COUNT 1 1 1 1 1 1 1
WIDTH 105
HEIGHT 1
VIEWPOINT 0 0 0 1 0 0 0
POINTS 105
DATA ascii
-35.19979900 16.85530100 382.99600000 0.95777798 0.12760501 0.25764099 1.905766e-42
-35.28580100 15.16610000 383.61099000 0.95065200 0.10708500 0.29119399 1.905766e-42
-34.92750200 13.58050000 382.83801000 0.95572400 0.09944680 0.27695000 1.905766e-42
-34.39709900 12.19380000 381.82101000 0.96121299 0.09067080 0.26047599 1.905766e-42
-34.16310100 10.51750000 381.20801000 0.96489602 0.07532160 0.25159800 1.905766e-42
-33.68949900 9.37761020 379.89801000 0.97235799 0.06329950 0.22475000 1.905766e-42
-33.57490200 7.60223010 379.62399000 0.97467202 0.04661560 0.21872699 1.905766e-42
-33.48600000 5.91273020 379.01001000 0.97754401 0.03212860 0.20826600 1.905766e-42
-33.16389800 4.46963980 377.98300000 0.98094100 0.02076420 0.19319101 1.905766e-42
-32.97090100 2.91009000 377.10501000 0.98334402 0.00888266 0.18153600 1.905766e-42
-32.76030000 1.44733000 376.07800000 0.98571098 -0.00301205 0.16842100 1.905766e-42
-32.58160000 0.03420990 374.97699000 0.98778403 -0.01491970 0.15511300 1.905766e-42
-32.54750100 -1.56801000 374.15701000 0.98894501 -0.02860850 0.14549901 1.905766e-42
-32.45159900 -3.03434990 373.11801000 0.99017602 -0.04242310 0.13323399 1.905766e-42
-32.42260000 -4.52166990 372.10501000 0.99089801 -0.05750730 0.12171100 1.905766e-42
-32.29050100 -5.77789020 370.82199000 0.99160701 -0.07051260 0.10837000 1.905766e-42
-32.18040100 -6.88883020 369.41000000 0.99214000 -0.08173200 0.09475480 1.905766e-42
-32.28039900 -8.42782020 368.48199000 0.99134302 -0.09824350 0.08710000 1.905766e-42
-32.48709900 -10.14860000 367.99600000 0.98943400 -0.11813300 0.08404970 1.905766e-42
-32.61100000 -11.88260000 366.54501000 0.98789102 -0.13760900 0.07166260 1.905766e-42
-32.75109900 -13.30800000 365.45499000 0.98612601 -0.15387499 0.06228150 1.905766e-42
-32.65190100 -14.34020000 363.98401000 0.98545098 -0.16294201 0.04832700 1.905766e-42
-32.93909800 -15.87540000 363.08899000 0.98291898 -0.17891900 0.04311040 1.905766e-42
-33.19789900 -17.16220100 361.85699000 0.98092198 -0.19143300 0.03383500 1.905766e-42
-33.35129900 -18.47660100 360.63699000 0.97857499 -0.20432401 0.02534630 1.905766e-42
-33.65219900 -19.85040100 359.51401000 0.97573602 -0.21803200 0.02001180 1.905766e-42
-33.86299900 -20.95299900 358.10699000 0.97411603 -0.22590800 0.00797545 1.905766e-42
-34.15290100 -22.20120000 356.84299000 0.97116500 -0.23837000 -0.00434682 1.905766e-42
-34.46740000 -23.52920000 355.66901000 0.96679801 -0.25496599 -0.01715370 1.905766e-42
-34.85699800 -24.61010000 354.28299000 0.95888603 -0.28042501 -0.04357980 1.905766e-42
-35.24660100 -25.65399900 352.87000000 0.95185000 -0.29914200 -0.06705560 1.905766e-42
-35.79390000 -26.98200000 351.78500000 0.94381601 -0.32158700 -0.07611760 1.905766e-42
-36.25030100 -28.02269900 350.38901000 0.93911803 -0.33184701 -0.08907850 1.905766e-42
-36.61159900 -28.57600000 348.71500000 0.93933803 -0.32585901 -0.10704900 1.905766e-42
-36.17129900 -27.03030000 347.90399000 0.95185798 -0.26882601 -0.14730801 1.905766e-42
-36.18539800 -26.14119900 346.33899000 0.95795202 -0.24582601 -0.14797901 1.905766e-42
-35.88819900 -24.57130100 345.51001000 0.96080798 -0.23630300 -0.14494200 1.905766e-42
-35.86570000 -23.32810000 344.20901000 0.96092403 -0.23931600 -0.13911600 1.905766e-42
-35.74940100 -22.00050000 342.99899000 0.95947897 -0.24829900 -0.13321900 1.905766e-42
-35.53580100 -20.60810100 341.87799000 0.95772398 -0.25039199 -0.14166000 1.905766e-42
-35.44630100 -19.53430000 340.43600000 0.95664102 -0.24648100 -0.15519600 1.905766e-42
-35.24580000 -18.26790000 339.17300000 0.95709598 -0.23672999 -0.16711199 1.905766e-42
-34.85220000 -16.52540000 338.95200000 0.95937997 -0.22066399 -0.17577700 1.905766e-42
-34.77180100 -15.16210000 337.77899000 0.96197098 -0.19557600 -0.19068800 1.905766e-42
-34.84970100 -13.83750000 336.56299000 0.96385700 -0.16433600 -0.20969699 1.905766e-42
-34.85049800 -12.20390000 335.80701000 0.96588498 -0.12916300 -0.22446001 1.905766e-42
-34.83210000 -10.56950000 335.05301000 0.96654701 -0.09705470 -0.23741899 1.905766e-42
-34.88520100 -9.00677010 334.16199000 0.96458000 -0.07473770 -0.25297999 1.905766e-42
-34.95460100 -7.37057020 333.41501000 0.96305799 -0.05771860 -0.26303500 1.905766e-42
-34.99359900 -5.71848010 332.70099000 0.96240699 -0.04361900 -0.26808700 1.905766e-42
-35.15129900 -4.07332990 331.98801000 0.96132898 -0.02975410 -0.27379099 1.905766e-42
-35.46080000 -2.54103990 331.09601000 0.95957601 -0.01747300 -0.28090799 1.905766e-42
-35.54959900 -0.76885802 330.79300000 0.95821100 -0.00753427 -0.28596500 1.905766e-42
-35.77570000 0.73274702 329.82700000 0.95669001 -0.00338545 -0.29108900 1.905766e-42
-36.07220100 2.08728000 328.67899000 0.95699900 -0.00361204 -0.29006901 1.905766e-42
-36.36040100 3.67035010 327.87201000 0.95791000 0.00227311 -0.28706101 1.905766e-42
-36.62060200 5.31366010 327.18500000 0.95914102 0.01368550 -0.28259599 1.905766e-42
-36.59000000 7.11331990 327.16800000 0.96018702 0.02754060 -0.27799800 1.905766e-42
-36.89899800 8.65196990 326.28601000 0.96128702 0.03302390 -0.27356300 1.905766e-42
-37.19440100 10.23350000 325.47900000 0.96446699 0.03208460 -0.26224801 1.905766e-42
-37.32289900 12.01540000 325.25900000 0.96682799 0.03174800 -0.25344700 1.905766e-42
-37.61520000 13.44660000 324.20700000 0.96966398 0.02693450 -0.24295300 1.905766e-42
-37.67129900 15.22920000 323.96399000 0.97203302 0.02951070 -0.23298100 1.905766e-42
-37.95589800 16.74819900 323.04099000 0.97384697 0.03403890 -0.22464199 1.905766e-42
-38.21580100 18.39740000 322.36801000 0.96983403 0.05341450 -0.23784199 1.905766e-42
-38.55920000 19.96940000 321.56100000 0.96607602 0.07056080 -0.24843100 1.905766e-42
-38.88090100 21.64629900 320.99100000 0.96304399 0.08656880 -0.25505501 1.905766e-42
-39.21680100 23.19759900 320.14301000 0.95985901 0.09967270 -0.26217699 1.905766e-42
-39.40650200 24.93680000 319.71899000 0.95745999 0.11034500 -0.26663399 1.905766e-42
-39.04460100 25.59960000 321.35300000 0.96047002 0.11617000 -0.25298601 1.905766e-42
-38.71110200 25.91810000 323.09299000 0.96464097 0.12379800 -0.23268200 1.905766e-42
-38.40510200 26.31769900 324.82101000 0.96882403 0.13284799 -0.20911799 1.905766e-42
-38.18009900 27.00070000 326.47101000 0.97226101 0.14469500 -0.18377200 1.905766e-42
-37.83079900 27.00400000 328.23700000 0.97627002 0.14909200 -0.15706301 1.905766e-42
-37.58969900 27.27860100 330.00000000 0.97993302 0.15083601 -0.13030700 1.905766e-42
-37.47650100 27.77960000 331.72501000 0.97985297 0.15951701 -0.12017400 1.905766e-42
-37.32989900 27.98200000 333.50699000 0.97812700 0.17194401 -0.11706200 1.905766e-42
-37.20119900 28.00429900 335.30301000 0.97601801 0.18422700 -0.11597400 1.905766e-42
-36.78039900 27.63310100 337.01300000 0.97368598 0.19461800 -0.11857100 1.905766e-42
-36.63420100 27.70780000 338.80600000 0.97116899 0.20698300 -0.11827800 1.905766e-42
-36.36040100 27.47640000 340.56900000 0.96903402 0.21644799 -0.11883900 1.905766e-42
-36.04290000 27.10950100 342.30301000 0.96753800 0.22312100 -0.11868600 1.905766e-42
-35.84660000 27.02850000 344.09000000 0.96707100 0.22291800 -0.12280400 1.905766e-42
-35.39970000 26.25270100 345.65201000 0.96613097 0.22501300 -0.12633400 1.905766e-42
-35.15100100 26.27910000 347.43399000 0.96535498 0.22679000 -0.12905400 1.905766e-42
-35.01369900 26.33490000 349.22800000 0.96597201 0.22683100 -0.12428300 1.905766e-42
-34.75569900 26.02750000 350.98300000 0.96679801 0.22792600 -0.11554900 1.905766e-42
-34.41460000 25.49650000 352.66901000 0.96735001 0.23066001 -0.10501900 1.905766e-42
-34.16389800 25.46880000 354.45099000 0.96766597 0.23577499 -0.08962600 1.905766e-42
-33.77560000 24.60409900 355.98099000 0.96801800 0.23946400 -0.07482670 1.905766e-42
-33.62939800 24.56220100 357.77499000 0.96950603 0.24057899 -0.04668260 1.905766e-42
-33.52800000 24.17060100 359.52899000 0.97048700 0.24015100 -0.02196130 1.905766e-42
-33.47449900 23.81460000 361.29199000 0.97096598 0.23921500 -0.00070158 1.905766e-42
-33.48109800 23.64100100 363.08401000 0.97057998 0.24001700 0.01912360 1.905766e-42
-33.45729800 23.22500000 364.83499000 0.97143799 0.23227300 0.04854340 1.905766e-42
-33.26450000 22.37540100 366.41000000 0.97388798 0.20936000 0.08780830 1.905766e-42
-33.56179800 22.40690000 368.18500000 0.97216302 0.19927999 0.12323700 1.905766e-42
-33.52999900 21.62350100 369.80499000 0.97202802 0.17519300 0.15642600 1.905766e-42
-33.66569900 20.63839900 371.30600000 0.97172099 0.14636000 0.18530101 1.905766e-42
-33.90200000 20.02319900 372.98099000 0.97230500 0.15323700 0.17647199 1.905766e-42
-34.19329800 19.84050000 374.74799000 0.97205299 0.16369300 0.16827901 1.905766e-42
-34.46229900 19.55940100 376.50500000 0.97156000 0.17362800 0.16101000 1.905766e-42
-34.59569900 18.92460100 378.18399000 0.97068799 0.18410100 0.15450300 1.905766e-42
-34.74440000 18.21380000 379.83099000 0.96840298 0.17487100 0.17780800 1.905766e-42
-35.14730100 17.94640000 381.56500000 0.96382099 0.15362500 0.21782599 1.905766e-42
