# .PCD v0.7 - Point Cloud Data file format
# 6 201 1
# 1 72 0
# 73 93 0
# 94 119 1
# 120 138 0
# 139 170 0
# 171 201 0
VERSION 0.7
FIELDS x y z normal_x normal_y normal_z curvature
SIZE 4 4 4 4 4 4 4
TYPE F F F F F F F
COUNT 1 1 1 1 1 1 1
WIDTH 201
HEIGHT 1
VIEWPOINT 0 0 0 1 0 0 0
POINTS 201
DATA ascii
36.42170000 -38.20740100 434.54700000 0.15281899 -0.24190000 -0.95819098 1.905766e-42
34.90499900 -37.43119800 433.96600000 0.14574400 -0.23806800 -0.96025097 1.905766e-42
33.48469900 -36.42170000 433.51501000 0.11843900 -0.21041299 -0.97041202 1.905766e-42
32.75840000 -34.84190000 433.04901000 0.09687190 -0.18690901 -0.97758901 1.905766e-42
32.77410100 -33.08829900 432.64401000 0.08681160 -0.16381700 -0.98266399 1.905766e-42
32.74300000 -31.30750100 432.38300000 0.07765190 -0.13841200 -0.98732603 1.905766e-42
32.64979900 -29.52059900 432.18701000 0.06861350 -0.11170200 -0.99137002 1.905766e-42
31.78440100 -27.95340000 432.00101000 0.05207600 -0.08431810 -0.99507701 1.905766e-42
31.34830100 -26.21680100 431.81601000 0.04102920 -0.05517710 -0.99763298 1.905766e-42
30.36790100 -24.71159900 431.70200000 0.02711940 -0.02704690 -0.99926603 1.905766e-42
29.57110000 -23.10120000 431.59299000 0.01648870 0.00301438 -0.99985999 1.905766e-42
28.71520000 -22.22020000 431.61401000 0.01052690 0.02094160 -0.99972498 1.905766e-42
27.96629900 -20.58630000 431.71201000 0.00372067 0.05107150 -0.99868798 1.905766e-42
26.99679900 -19.07589900 431.84799000 -0.00469093 0.08037650 -0.99675399 1.905766e-42
26.29019900 -17.42919900 432.01999000 -0.01384510 0.11162500 -0.99365401 1.905766e-42
25.46570000 -15.85760000 432.32001000 -0.02436300 0.14276101 -0.98945701 1.905766e-42
24.27400000 -14.54650000 432.63699000 -0.03673910 0.17170000 -0.98446399 1.905766e-42
23.08639900 -13.24600000 433.00900000 -0.04999330 0.20141201 -0.97823000 1.905766e-42
22.50309900 -11.57810000 433.35199000 -0.06304180 0.23425201 -0.97013003 1.905766e-42
21.87620000 -9.94958020 433.79401000 -0.07696600 0.26704401 -0.96060598 1.905766e-42
20.57379900 -8.84871960 434.37000000 -0.09302410 0.29606101 -0.95062798 1.905766e-42
20.02290000 -7.18357990 434.77499000 -0.10003600 0.32311001 -0.94105899 1.905766e-42
18.82670000 -5.97566990 435.36700000 -0.10546900 0.34583199 -0.93234998 1.905766e-42
17.78760000 -4.63380000 435.96600000 -0.11256600 0.36958799 -0.92235202 1.905766e-42
16.87820100 -3.21038010 436.58801000 -0.12136600 0.39314401 -0.91143203 1.905766e-42
15.85310000 -1.93447010 437.33701000 -0.13107400 0.41559500 -0.90005600 1.905766e-42
14.98710000 -0.53561902 438.06799000 -0.14271200 0.43703899 -0.88804799 1.905766e-42
13.92400000 0.67094898 438.87601000 -0.15490700 0.45725700 -0.87573999 1.905766e-42
12.94210000 1.91652000 439.72800000 -0.16882700 0.47592601 -0.86312902 1.905766e-42
11.99040000 3.11286000 440.67801000 -0.18441799 0.49269301 -0.85043699 1.905766e-42
11.63750000 4.60345980 441.62299000 -0.20531300 0.50287402 -0.83962101 1.905766e-42
10.76640000 5.82426020 442.61801000 -0.22764400 0.51367801 -0.82723200 1.905766e-42
9.50057980 6.71313000 443.53900000 -0.24820900 0.52731103 -0.81260997 1.905766e-42
8.20814990 7.55365990 444.46799000 -0.26626301 0.54418403 -0.79559302 1.905766e-42
6.94205000 8.33094020 445.48499000 -0.28461599 0.56071597 -0.77755398 1.905766e-42
5.47048000 8.82096000 446.39801000 -0.30772200 0.57010603 -0.76176500 1.905766e-42
4.13490010 9.45635990 447.42401000 -0.32833999 0.58318400 -0.74302697 1.905766e-42
3.15188000 10.35820000 448.63199000 -0.34256399 0.60315299 -0.72031701 1.905766e-42
1.83896010 10.90250000 449.73700000 -0.35782099 0.61253899 -0.70481199 1.905766e-42
0.82843500 11.59140000 451.05801000 -0.36739999 0.62775701 -0.68624902 1.905766e-42
0.11270200 12.66050000 452.31601000 -0.37168700 0.64859802 -0.66420501 1.905766e-42
-0.86071700 13.37560000 453.65100000 -0.38164300 0.66342402 -0.64359599 1.905766e-42
-2.02207990 13.86080000 454.93799000 -0.39513299 0.67372203 -0.62447399 1.905766e-42
-2.92105010 14.54540000 456.33899000 -0.40549001 0.68701398 -0.60298401 1.905766e-42
-3.88537000 15.09040000 457.75800000 -0.41782299 0.69720298 -0.58252198 1.905766e-42
-4.76487020 15.96610000 459.06100000 -0.42837900 0.70715898 -0.56251001 1.905766e-42
-5.83766980 16.35400000 460.45401000 -0.44667399 0.71194899 -0.54185897 1.905766e-42
-6.83161020 16.79870000 461.88699000 -0.46686199 0.71634400 -0.51854700 1.905766e-42
-7.65204000 17.24200100 463.42700000 -0.48649299 0.71995002 -0.49497101 1.905766e-42
-8.32470990 17.75939900 465.01401000 -0.50557297 0.72229701 -0.47189400 1.905766e-42
-9.15192030 18.08729900 466.57901000 -0.52691299 0.72234601 -0.44786099 1.905766e-42
-9.75562950 18.74930000 468.14001000 -0.54512203 0.72253799 -0.42518300 1.905766e-42
-10.28890000 19.23560000 469.78900000 -0.55630797 0.73129398 -0.39462700 1.905766e-42
-10.96730000 19.58869900 471.41800000 -0.57058603 0.73568100 -0.36497301 1.905766e-42
-11.60220000 19.89399900 473.07501000 -0.58486801 0.73804700 -0.33647701 1.905766e-42
-12.19870000 20.19140100 474.74701000 -0.59887099 0.73850203 -0.30978701 1.905766e-42
-12.56730000 20.55690000 476.47000000 -0.60107601 0.74306899 -0.29420200 1.905766e-42
-12.94150000 20.88260100 478.20099000 -0.60396802 0.74673200 -0.27859399 1.905766e-42
-13.11330000 21.37019900 479.92499000 -0.60665798 0.75068402 -0.26160899 1.905766e-42
-12.98000000 22.04229900 481.58899000 -0.60749602 0.75637603 -0.24258000 1.905766e-42
-12.88570000 22.64469900 483.28299000 -0.60460699 0.76701099 -0.21481100 1.905766e-42
-13.33030000 22.65970000 485.02701000 -0.60947901 0.77059197 -0.18634400 1.905766e-42
-13.75920000 22.77850000 486.77100000 -0.61364901 0.77396297 -0.15625501 1.905766e-42
-14.14510000 22.81259900 488.52899000 -0.61785799 0.77619898 -0.12556300 1.905766e-42
-14.67630000 22.59639900 490.23499000 -0.62267601 0.77661002 -0.09566320 1.905766e-42
-15.00210000 22.48370000 492.00201000 -0.62659502 0.77660400 -0.06530620 1.905766e-42
-15.37950000 22.29540100 493.75201000 -0.63057399 0.77529103 -0.03606050 1.905766e-42
-15.53440000 22.22670000 495.54401000 -0.63472402 0.77269298 -0.00836401 1.905766e-42
-15.68260000 22.12150000 497.33499000 -0.63905102 0.76897103 0.01724900 1.905766e-42
-15.53900000 22.17009900 499.12799000 -0.64437002 0.76380998 0.03718250 1.905766e-42
-15.10320000 22.49449900 500.84399000 -0.65035897 0.75810200 0.04811090 1.905766e-42
-15.23890000 21.87800000 502.53000000 -0.65671200 0.75210202 0.05541810 1.905766e-42
-14.43870000 22.67709900 503.92999000 -0.65884501 0.75078702 0.04736340 1.905766e-42
-13.04110000 23.79830000 503.75900000 -0.65597302 0.75384998 0.03755650 1.905766e-42
-11.77220000 25.03500000 503.44101000 -0.64060998 0.76747698 0.02444480 1.905766e-42
-10.45240000 26.21970000 503.13400000 -0.61722398 0.78662401 0.01603680 1.905766e-42
-9.14451030 27.20940000 502.39200000 -0.59049398 0.80699497 0.00867435 1.905766e-42
-7.68660020 28.25490000 502.24600000 -0.56016201 0.82838303 0.00050796 1.905766e-42
-6.11080980 29.06469900 501.92801000 -0.52603298 0.85043001 -0.00765855 1.905766e-42
-4.59006980 29.87120100 501.40201000 -0.48844901 0.87244302 -0.01612280 1.905766e-42
-3.33027010 30.92030000 500.65900000 -0.44966701 0.89283597 -0.02537790 1.905766e-42
-1.78884010 31.55820100 499.98199000 -0.40724400 0.91259801 -0.03631040 1.905766e-42
-0.05685050 32.04570000 499.93201000 -0.36242801 0.93088299 -0.04585070 1.905766e-42
1.46284000 32.67279800 499.19901000 -0.31616101 0.94677597 -0.06047520 1.905766e-42
3.19419000 33.16490200 499.18399000 -0.26849401 0.96066898 -0.07089240 1.905766e-42
4.95138980 33.55509900 499.18301000 -0.22181199 0.97157001 -0.08277600 1.905766e-42
6.70760010 33.94850200 499.15201000 -0.17604201 0.97960103 -0.09690440 1.905766e-42
8.44697000 34.41130100 499.17200000 -0.13239400 0.98484302 -0.11205700 1.905766e-42
10.22660000 34.66980000 499.25000000 -0.09050620 0.98753798 -0.12875199 1.905766e-42
12.00760000 34.86380000 499.42499000 -0.07144930 0.99012202 -0.12063700 1.905766e-42
13.72360000 35.05929900 499.93201000 -0.09306070 0.98332202 -0.15626200 1.905766e-42
15.47230000 34.94170000 499.52200000 -0.10816500 0.97847301 -0.17575701 1.905766e-42
16.93810100 34.87480200 498.47900000 -0.10761900 0.97937101 -0.17103000 1.905766e-42
17.94330000 34.76499900 496.98999000 -0.09376000 0.98478103 -0.14633700 1.905766e-42
18.93409900 34.75339900 495.48700000 -0.07886750 0.98945898 -0.12145200 1.905766e-42
20.09120000 34.52339900 494.12799000 -0.06835800 0.99224001 -0.10385600 1.905766e-42
20.76940000 34.47230100 492.46100000 -0.06017060 0.99419600 -0.08918180 1.905766e-42
21.91640100 34.30690000 491.08401000 -0.06422420 0.99375302 -0.09127450 1.905766e-42
23.28590000 34.55080000 489.94199000 -0.05907070 0.99384999 -0.09366590 1.905766e-42
24.64550000 34.53559900 488.76199000 -0.04526490 0.99365997 -0.10291500 1.905766e-42
24.67410100 34.32030100 486.97501000 -0.05579840 0.99013698 -0.12851000 1.905766e-42
23.61070100 34.16070200 485.53201000 -0.08016850 0.98438102 -0.15673600 1.905766e-42
23.15239900 33.72449900 483.84698000 -0.09794130 0.97759700 -0.18631300 1.905766e-42
22.39609900 33.39320000 482.24701000 -0.11822300 0.96903998 -0.21675999 1.905766e-42
22.34770000 32.86280100 480.52802000 -0.13287300 0.96043497 -0.24476200 1.905766e-42
22.10190000 32.35060100 478.82001000 -0.14145900 0.95391899 -0.26462701 1.905766e-42
21.87550000 31.90329900 477.09100000 -0.14988400 0.94627798 -0.28651699 1.905766e-42
22.00860000 31.34390100 475.38501000 -0.15901799 0.93693697 -0.31122699 1.905766e-42
22.73710100 30.67359900 473.88199000 -0.16865200 0.92710203 -0.33472100 1.905766e-42
23.30369900 29.98620000 472.31799000 -0.18132800 0.91305101 -0.36531901 1.905766e-42
23.25930000 29.66630000 470.54700000 -0.19645201 0.89163703 -0.40790999 1.905766e-42
23.98070000 29.06909900 469.01001000 -0.21342400 0.86770201 -0.44893500 1.905766e-42
24.82230000 28.44450000 467.54599000 -0.23087800 0.83962101 -0.49166101 1.905766e-42
25.85580100 27.82990100 466.20700000 -0.20202900 0.81705898 -0.53999901 1.905766e-42
26.99480100 27.20280100 464.96201000 -0.16902199 0.79518998 -0.58232599 1.905766e-42
28.25370000 26.58600000 463.83301000 -0.13272101 0.77417201 -0.61890501 1.905766e-42
29.73040000 25.98950000 462.99399000 -0.09355210 0.75221401 -0.65224397 1.905766e-42
31.21800000 25.39590100 462.17300000 -0.04569170 0.73095798 -0.68089098 1.905766e-42
32.80099900 24.81699900 461.54099000 0.01080750 0.70820898 -0.70591998 1.905766e-42
34.25859800 24.10330000 460.76300000 0.07882980 0.68798202 -0.72143400 1.905766e-42
36.01129900 23.69409900 460.73901000 0.17181399 0.66946298 -0.72270298 1.905766e-42
37.74580000 23.21750100 460.67401000 0.22365400 0.68201900 -0.69629598 1.905766e-42
39.28960000 22.53210100 460.05200000 0.24596700 0.69385499 -0.67680502 1.905766e-42
40.93849900 22.33900100 460.74799000 0.27949300 0.70041603 -0.65673500 1.905766e-42
42.67260000 21.89830000 460.94400000 0.29881400 0.70639098 -0.64165503 1.905766e-42
44.31209900 21.60990000 461.62900000 0.31496999 0.70992601 -0.62991899 1.905766e-42
46.04650100 21.27549900 461.97601000 0.32646000 0.71192300 -0.62176400 1.905766e-42
47.71490100 21.01110100 462.59698000 0.33785999 0.71171302 -0.61588597 1.905766e-42
49.39400100 20.77400000 463.20099000 0.36082301 0.71409398 -0.59989703 1.905766e-42
50.29869800 20.75560000 464.75699000 0.39022300 0.72101003 -0.57260001 1.905766e-42
52.07619900 20.68610000 465.03201000 0.42131501 0.71956903 -0.55201000 1.905766e-42
53.18930100 20.81620000 466.44000000 0.45221901 0.72282302 -0.52251899 1.905766e-42
54.60820000 20.84190000 467.54800000 0.48436201 0.72188002 -0.49425000 1.905766e-42
55.82920100 20.93350000 468.86700000 0.51300102 0.72246403 -0.46354699 1.905766e-42
56.68389900 21.13610100 470.43799000 0.53742701 0.72910601 -0.42376599 1.905766e-42
57.77190000 21.29080000 471.86401000 0.55710202 0.73248398 -0.39128599 1.905766e-42
58.51789900 21.54140100 473.48300000 0.56775802 0.74010098 -0.36041799 1.905766e-42
59.06090200 21.87400100 475.16599000 0.57269597 0.74970198 -0.33161101 1.905766e-42
60.38750100 21.30760000 476.24301000 0.58805197 0.74308598 -0.31940100 1.905766e-42
61.18479900 20.10720100 475.16400000 0.60167098 0.72143400 -0.34281999 1.905766e-42
62.34380000 18.75810100 474.88800000 0.60094702 0.72041798 -0.34620801 1.905766e-42
63.43820200 17.44389900 474.32700000 0.59966803 0.71887499 -0.35159299 1.905766e-42
64.61579900 16.27599900 473.62701000 0.59894502 0.71722001 -0.35617501 1.905766e-42
65.68920100 15.18920000 472.67499000 0.59769303 0.71564001 -0.36141700 1.905766e-42
66.60870400 13.98010000 471.70901000 0.59614903 0.71474099 -0.36572000 1.905766e-42
67.60530100 12.67980000 470.96301000 0.59599298 0.71452302 -0.36640099 1.905766e-42
68.65490000 11.35850000 470.33701000 0.59690303 0.71474397 -0.36448401 1.905766e-42
69.66950200 10.22430000 469.37500000 0.59523398 0.71574700 -0.36524400 1.905766e-42
70.63749700 8.89490990 468.64401000 0.61393100 0.69595999 -0.37246299 1.905766e-42
71.48320000 7.62358000 467.69000000 0.63209403 0.67075998 -0.38799199 1.905766e-42
72.44030000 6.25955010 467.01001000 0.65359199 0.64098901 -0.40243000 1.905766e-42
73.16829700 4.84142020 466.17401000 0.67213202 0.60808301 -0.42245999 1.905766e-42
73.81140100 3.44191000 465.24200000 0.68870300 0.57246703 -0.44493800 1.905766e-42
74.53179900 1.97516000 464.48700000 0.70710897 0.53400302 -0.46350601 1.905766e-42
75.26300000 0.44221500 463.89099000 0.72668600 0.49399701 -0.47738299 1.905766e-42
75.78810100 -1.10396000 463.13400000 0.74222600 0.45521501 -0.49181300 1.905766e-42
76.55999800 -2.72233010 462.97601000 0.76776701 0.41186899 -0.49081299 1.905766e-42
77.01660200 -4.35188010 462.36200000 0.78456700 0.36980399 -0.49769500 1.905766e-42
77.57379900 -6.06147000 462.28000000 0.80169201 0.32919800 -0.49891800 1.905766e-42
77.87690000 -7.81874990 462.03500000 0.81127900 0.29107001 -0.50705498 1.905766e-42
78.20449800 -9.42416950 461.29001000 0.81432199 0.25465301 -0.52156597 1.905766e-42
78.41020200 -11.13730000 460.77701000 0.81670302 0.21853600 -0.53407699 1.905766e-42
78.83760100 -12.88440000 460.70599000 0.82023001 0.18496101 -0.54130501 1.905766e-42
78.71499600 -14.56110000 460.06299000 0.81828398 0.15189800 -0.55438000 1.905766e-42
79.20539900 -16.19420100 460.63901000 0.82111800 0.12631799 -0.55660498 1.905766e-42
79.20340000 -17.98060000 460.41901000 0.81940901 0.09599010 -0.56511497 1.905766e-42
79.21330300 -19.65230000 459.75101000 0.81680602 0.06798090 -0.57289302 1.905766e-42
79.27320100 -21.44440100 459.90799000 0.81564200 0.04270080 -0.57697898 1.905766e-42
78.94490100 -23.06590100 459.19800000 0.81330103 0.01981950 -0.58150601 1.905766e-42
78.54779800 -24.76989900 458.77600000 0.80834597 -0.00332741 -0.58869803 1.905766e-42
77.99189800 -26.37870000 458.19000000 0.80173802 -0.01382920 -0.59751600 1.905766e-42
76.88980100 -27.26560000 457.07700000 0.79206097 -0.02364750 -0.60998398 1.905766e-42
75.85019700 -27.02890000 455.62701000 0.78319800 -0.02919490 -0.62108600 1.905766e-42
74.93260200 -26.80460000 454.09500000 0.77386099 -0.02977620 -0.63265598 1.905766e-42
73.87319900 -26.32449900 452.72101000 0.75762802 -0.02474960 -0.65221697 1.905766e-42
72.46690400 -26.27490000 451.59900000 0.73143899 -0.02929340 -0.68127698 1.905766e-42
71.31790200 -25.87579900 450.27200000 0.70519298 -0.02954190 -0.70839900 1.905766e-42
70.13610100 -25.29210100 449.04599000 0.68028599 -0.02706400 -0.73244703 1.905766e-42
68.83930200 -24.80550000 447.89600000 0.65567601 -0.02595900 -0.75459599 1.905766e-42
67.46759800 -24.75140000 446.73199000 0.63063902 -0.03188390 -0.77542102 1.905766e-42
66.14810200 -24.66490000 445.51099000 0.61672503 -0.03160350 -0.78654402 1.905766e-42
64.70030200 -24.35829900 444.48599000 0.60366398 -0.02522890 -0.79684001 1.905766e-42
63.25930000 -24.41200100 443.40900000 0.58657902 -0.02290520 -0.80956799 1.905766e-42
61.80519900 -24.51660000 442.35300000 0.56553400 -0.02100930 -0.82445699 1.905766e-42
60.30699900 -24.46810000 441.35699000 0.54053402 -0.01797470 -0.84113002 1.905766e-42
58.80749900 -24.56320000 440.36499000 0.51370901 -0.01679960 -0.85780001 1.905766e-42
57.27819800 -24.75499900 439.43600000 0.48837599 -0.01676510 -0.87247199 1.905766e-42
55.80640000 -25.50250100 438.71799000 0.46528700 -0.02290730 -0.88486397 1.905766e-42
54.25220100 -25.60070000 437.81500000 0.44003001 -0.02401810 -0.89766198 1.905766e-42
52.70100000 -26.37430000 437.33099000 0.41741800 -0.03180610 -0.90815800 1.905766e-42
51.16009900 -26.37260100 436.39999000 0.39202201 -0.03435880 -0.91931403 1.905766e-42
49.93970100 -27.62770100 435.98099000 0.36626300 -0.05218020 -0.92904699 1.905766e-42
48.28440100 -28.13279900 435.48599000 0.33688501 -0.06572650 -0.93924898 1.905766e-42
46.70570000 -28.86120000 435.01999000 0.30930299 -0.08306170 -0.94732898 1.905766e-42
45.17869900 -29.75900100 434.70099000 0.28385001 -0.10377600 -0.95323700 1.905766e-42
43.60450000 -30.48430100 434.21500000 0.25758100 -0.12724400 -0.95784199 1.905766e-42
42.06750100 -31.36930100 433.90799000 0.22749400 -0.15538099 -0.96130300 1.905766e-42
40.79520000 -32.64250200 433.88699000 0.20509499 -0.17959100 -0.96212399 1.905766e-42
39.51400000 -33.90620000 433.84698000 0.18789800 -0.19944200 -0.96172601 1.905766e-42
38.27690100 -35.20990000 433.94699000 0.17428599 -0.21621101 -0.96066499 1.905766e-42
37.52380000 -36.80479800 434.30600000 0.16260999 -0.22952600 -0.95962298 1.905766e-42
