# .PCD v0.7 - Point Cloud Data file format
# 3 75 0
# 1 28 0
# 29 53 0
# 54 75 0
VERSION 0.7
FIELDS x y z normal_x normal_y normal_z curvature
SIZE 4 4 4 4 4 4 4
TYPE F F F F F F F
COUNT 1 1 1 1 1 1 1
WIDTH 75
HEIGHT 1
VIEWPOINT 0 0 0 1 0 0 0
POINTS 75
DATA ascii
-5.10591980 14.69980000 432.81400000 0.45204401 0.45370299 -0.76799101 1.905766e-42
-6.41406010 15.97250000 432.75500000 0.45121101 0.45038101 -0.77043200 1.905766e-42
-6.80202010 17.52860100 433.57199000 0.45616701 0.44566000 -0.77025902 1.905766e-42
-5.97276020 18.71600000 434.64099000 0.46909299 0.44810900 -0.76101899 1.905766e-42
-5.96618990 20.05160000 435.84799000 0.47804800 0.44763100 -0.75571001 1.905766e-42
-4.82506990 21.11490100 436.74600000 0.48811600 0.45656800 -0.74383402 1.905766e-42
-4.26308010 22.31220100 437.96701000 0.50177503 0.47344300 -0.72392899 1.905766e-42
-3.56311990 23.35960000 439.25299000 0.50750202 0.49368700 -0.70619798 1.905766e-42
-2.87701010 24.42869900 440.52802000 0.50894099 0.51756799 -0.68782401 1.905766e-42
-1.83476000 25.11270000 441.82700000 0.50399101 0.54773599 -0.66781598 1.905766e-42
-1.26242010 26.18700000 443.15302000 0.50527799 0.57700402 -0.64168602 1.905766e-42
-0.17530601 26.72069900 444.48401000 0.49611399 0.60555702 -0.62223101 1.905766e-42
0.35157001 27.72600000 445.88101000 0.48988801 0.62783003 -0.60484600 1.905766e-42
0.79439402 28.50930000 447.44000000 0.47533199 0.65284902 -0.58978599 1.905766e-42
1.93344000 28.99410100 448.74701000 0.44663101 0.67555797 -0.58663601 1.905766e-42
2.75585010 29.78030000 450.14200000 0.42112800 0.70402497 -0.57183999 1.905766e-42
3.95633010 30.20179900 451.41501000 0.40357101 0.72821200 -0.55392998 1.905766e-42
5.12076000 30.59830100 452.72900000 0.39317900 0.75086898 -0.53066498 1.905766e-42
6.16014000 30.94170000 454.15799000 0.38535401 0.77423298 -0.50206202 1.905766e-42
6.62853000 31.39550000 455.83600000 0.37137300 0.79330498 -0.48244101 1.905766e-42
7.98281000 31.69269900 456.98401000 0.35891300 0.80385500 -0.47434101 1.905766e-42
9.26488020 31.97629900 458.21500000 0.34847900 0.81542999 -0.46220899 1.905766e-42
10.29690000 32.33610200 459.64499000 0.33772400 0.82489198 -0.45331600 1.905766e-42
11.19050000 32.62889900 461.17999000 0.32265800 0.83138502 -0.45242801 1.905766e-42
12.57520000 32.79769900 462.31799000 0.29526499 0.84038800 -0.45449600 1.905766e-42
13.30380000 33.30690000 463.88300000 0.27575999 0.84653300 -0.45534500 1.905766e-42
14.58290000 33.74140200 465.07199000 0.24317600 0.84806198 -0.47080499 1.905766e-42
15.46800000 34.38729900 466.50000000 0.20709600 0.85508901 -0.47532400 1.905766e-42
15.88540000 34.97440000 468.14999000 0.15705401 0.87593400 -0.45615000 1.905766e-42
17.64570000 34.62080000 468.02200000 0.15349500 0.84969300 -0.50444102 1.905766e-42
18.31699900 33.76499900 466.58801000 0.16908400 0.83932799 -0.51666200 1.905766e-42
19.09480100 32.82870100 465.26199000 0.15368000 0.84958100 -0.50457299 1.905766e-42
20.01840000 31.88530000 464.03900000 0.13029400 0.86697602 -0.48101500 1.905766e-42
20.96820100 31.02529900 462.77399000 0.11030600 0.88523299 -0.45187899 1.905766e-42
21.85290000 30.25379900 461.41000000 0.09931880 0.89276302 -0.43944201 1.905766e-42
22.66110000 29.46100000 460.01001000 0.07722550 0.88563401 -0.45791799 1.905766e-42
23.48360100 28.64150000 458.63501000 0.05522260 0.87753397 -0.47632501 1.905766e-42
24.06399900 27.77920000 457.16501000 0.04207040 0.86661899 -0.49719399 1.905766e-42
24.92030000 26.91020000 455.84201000 0.02716820 0.85653400 -0.51537502 1.905766e-42
25.35720100 26.12730000 454.28101000 0.01522620 0.84364998 -0.53667802 1.905766e-42
26.04190100 25.19059900 452.90500000 -0.00388107 0.83016098 -0.55751002 1.905766e-42
26.63540100 24.25420000 451.48700000 -0.02321760 0.81852001 -0.57400900 1.905766e-42
27.11969900 23.20050000 450.10999000 -0.04391750 0.80956900 -0.58538002 1.905766e-42
27.94350100 22.25160000 448.82199000 -0.06764580 0.80646998 -0.58739299 1.905766e-42
27.87949900 21.28170000 447.30600000 -0.09051940 0.79568601 -0.59890699 1.905766e-42
28.62089900 20.32780100 445.97198000 -0.11216600 0.78242201 -0.61256403 1.905766e-42
29.25040100 19.28380000 444.64801000 -0.12562400 0.75920302 -0.63861501 1.905766e-42
29.51330000 18.19750000 443.23700000 -0.14111000 0.72735101 -0.67160201 1.905766e-42
29.54520000 16.98110000 441.91101000 -0.15640000 0.69392902 -0.70285201 1.905766e-42
30.05970000 15.78460000 440.66800000 -0.16716000 0.68274599 -0.71127701 1.905766e-42
30.83029900 14.56860000 439.58801000 -0.18115900 0.67370898 -0.71644801 1.905766e-42
31.18280000 13.42500000 438.24301000 -0.19042601 0.66081101 -0.72599399 1.905766e-42
31.16440000 12.10830000 437.01599000 -0.19578600 0.64303899 -0.74038398 1.905766e-42
31.19680000 10.73500000 435.85300000 -0.19859600 0.62158602 -0.75775301 1.905766e-42
29.43450000 10.47110000 436.10699000 -0.18425100 0.62155002 -0.76139802 1.905766e-42
27.77949900 9.77771000 435.96500000 -0.16950800 0.61319798 -0.77152801 1.905766e-42
25.99780100 9.61096000 436.15900000 -0.14946800 0.61046702 -0.77780998 1.905766e-42
24.28879900 9.06340980 436.01999000 -0.11902800 0.59286499 -0.79645699 1.905766e-42
22.50540000 8.82102010 435.99200000 -0.07452890 0.57516098 -0.81463802 1.905766e-42
20.82000000 8.18898960 435.99600000 -0.03219190 0.55329400 -0.83236301 1.905766e-42
19.37719900 7.35446980 436.67599000 0.00493486 0.53632402 -0.84399801 1.905766e-42
18.21270000 8.55089000 436.00299000 0.02508760 0.55186200 -0.83355802 1.905766e-42
16.41990100 8.71115970 435.98901000 0.05713120 0.55199301 -0.83188897 1.905766e-42
14.62580000 8.78009990 435.85999000 0.09244960 0.54881799 -0.83081400 1.905766e-42
12.83950000 8.79862020 435.63901000 0.12656701 0.54496700 -0.82884997 1.905766e-42
11.06530000 8.87362000 435.34500000 0.15950000 0.54176998 -0.82525498 1.905766e-42
9.30580040 9.23554040 435.23099000 0.18895300 0.53961301 -0.82043499 1.905766e-42
7.55044980 9.52836040 434.95999000 0.22032499 0.53073001 -0.81840301 1.905766e-42
5.79929020 9.72235010 434.59201000 0.25018799 0.52065003 -0.81629002 1.905766e-42
4.10321000 10.29540000 434.40500000 0.28232399 0.51503497 -0.80934101 1.905766e-42
2.50086000 11.11530000 434.39200000 0.31530201 0.50976902 -0.80045003 1.905766e-42
0.84035498 11.18500000 433.70099000 0.34437099 0.49698099 -0.79650402 1.905766e-42
-0.70145601 12.10840000 433.60001000 0.37411699 0.49043101 -0.78709197 1.905766e-42
-2.13386010 13.19840000 433.59900000 0.40576401 0.47928300 -0.77823102 1.905766e-42
-3.76041010 13.50680000 432.89301000 0.43554100 0.46162301 -0.77279299 1.905766e-42
