# .PCD v0.7 - Point Cloud Data file format
# 3 206 0
# 1 74 0
# 75 139 0
# 140 206 0
VERSION 0.7
FIELDS x y z normal_x normal_y normal_z curvature
SIZE 4 4 4 4 4 4 4
TYPE F F F F F F F
COUNT 1 1 1 1 1 1 1
WIDTH 206
HEIGHT 1
VIEWPOINT 0 0 0 1 0 0 0
POINTS 206
DATA ascii
19.86260000 58.73749900 549.54797000 0.40271100 0.71393698 -0.57281601 1.905766e-42
21.00630000 57.47790100 548.96002000 0.38481700 0.70587999 -0.59468502 1.905766e-42
21.94160100 56.23569900 548.05298000 0.33838201 0.69950598 -0.62943500 1.905766e-42
22.78770100 54.91230000 547.17401000 0.30864000 0.69229400 -0.65227997 1.905766e-42
23.83169900 53.65309900 546.42297000 0.27829799 0.69586802 -0.66205603 1.905766e-42
24.92980000 52.44520200 545.66498000 0.24627300 0.70293099 -0.66726100 1.905766e-42
25.78809900 51.25920100 544.61700000 0.21520901 0.70853198 -0.67206198 1.905766e-42
26.70910100 50.13880200 543.55103000 0.18150499 0.71613598 -0.67394698 1.905766e-42
27.65449900 49.04169800 542.48199000 0.14658800 0.72350001 -0.67458099 1.905766e-42
28.80769900 47.96789900 541.61200000 0.11041600 0.72995400 -0.67451900 1.905766e-42
29.84880100 46.71659900 540.84399000 0.07674120 0.73359698 -0.67523801 1.905766e-42
30.64080000 45.62400100 539.65302000 0.04865640 0.73350000 -0.67794597 1.905766e-42
31.78450000 44.59380000 538.71997000 0.01660450 0.73507202 -0.67778599 1.905766e-42
32.46609900 43.57310100 537.40302000 -0.00679441 0.73292798 -0.68027198 1.905766e-42
33.42450000 42.52610000 536.29602000 -0.03312210 0.73203403 -0.68046200 1.905766e-42
34.44440100 41.57199900 535.15997000 -0.05869670 0.73117203 -0.67966402 1.905766e-42
35.36850000 40.66920100 533.90698000 -0.08162590 0.72976100 -0.67881203 1.905766e-42
36.53609800 39.77740100 532.86700000 -0.10524800 0.72836697 -0.67705601 1.905766e-42
37.34940000 38.80659900 531.58801000 -0.12518100 0.72463500 -0.67766798 1.905766e-42
38.17689900 37.69720100 530.43701000 -0.14492001 0.72021300 -0.67844701 1.905766e-42
39.26829900 36.75730100 529.35797000 -0.16726799 0.71649301 -0.67724401 1.905766e-42
40.20259900 35.77719900 528.17200000 -0.18773399 0.71161199 -0.67702597 1.905766e-42
41.14080000 34.89199800 526.91602000 -0.20803300 0.70654202 -0.67640299 1.905766e-42
41.91690100 34.02460100 525.54303000 -0.22640800 0.70082802 -0.67644602 1.905766e-42
42.79850000 33.19760100 524.20898000 -0.24532799 0.69548601 -0.67536199 1.905766e-42
43.47140100 32.28120000 522.81403000 -0.26152501 0.68971199 -0.67520499 1.905766e-42
44.54790100 31.50890000 521.59497000 -0.28139901 0.68602902 -0.67095399 1.905766e-42
44.93920100 30.41110000 520.22400000 -0.29371500 0.68172097 -0.67006600 1.905766e-42
46.18109900 29.65180000 519.16498000 -0.31274301 0.67944300 -0.66373903 1.905766e-42
46.74530000 28.54590000 517.86102000 -0.32560599 0.67628700 -0.66077000 1.905766e-42
47.74969900 27.69479900 516.63397000 -0.34182101 0.67394298 -0.65495002 1.905766e-42
48.53830000 26.82920100 515.26703000 -0.35643300 0.67126697 -0.64989001 1.905766e-42
49.52330000 26.16610000 513.91400000 -0.37219599 0.66893101 -0.64342999 1.905766e-42
50.16059900 25.35150000 512.44098000 -0.38594499 0.66545498 -0.63891798 1.905766e-42
51.01810100 24.51219900 511.09900000 -0.40072000 0.66178101 -0.63361597 1.905766e-42
51.79100000 23.58460000 509.76401000 -0.41252801 0.65550500 -0.63256103 1.905766e-42
52.48350100 22.68199900 508.36899000 -0.42436999 0.64915299 -0.63127702 1.905766e-42
53.50890000 21.98570100 507.06400000 -0.43658400 0.64501399 -0.62717700 1.905766e-42
54.05250200 21.08180000 505.60501000 -0.44818401 0.63887900 -0.62527198 1.905766e-42
54.97840100 20.42970100 504.20599000 -0.45967001 0.63568097 -0.62017202 1.905766e-42
55.84590100 19.69290000 502.81201000 -0.47072899 0.63271898 -0.61488301 1.905766e-42
56.62410000 18.86030000 501.41901000 -0.48147801 0.62991899 -0.60941100 1.905766e-42
57.42950100 18.01650000 500.04800000 -0.49167800 0.62822402 -0.60298198 1.905766e-42
58.55670200 17.42079900 498.77701000 -0.50129998 0.63059700 -0.59249097 1.905766e-42
58.97530000 16.68300100 497.18900000 -0.51601702 0.63285702 -0.57725102 1.905766e-42
59.70520000 16.08740000 495.65601000 -0.52995300 0.63658798 -0.56027299 1.905766e-42
60.35720100 15.30730000 494.17001000 -0.54407197 0.63879299 -0.54399401 1.905766e-42
61.14260100 14.66000000 492.68600000 -0.55769998 0.64103299 -0.52730203 1.905766e-42
61.49509800 13.67610000 491.22000000 -0.56560600 0.64681703 -0.51158398 1.905766e-42
62.69780000 13.33620000 489.92499000 -0.57874000 0.64793497 -0.49521700 1.905766e-42
63.09310200 12.73650000 488.27399000 -0.58611798 0.65343398 -0.47905099 1.905766e-42
63.49599800 12.13710000 486.62500000 -0.59309602 0.65838301 -0.46343201 1.905766e-42
63.84280000 11.54720000 484.96100000 -0.59939402 0.66330498 -0.44805500 1.905766e-42
64.34819800 11.04010000 483.30899000 -0.60788298 0.66810799 -0.42908001 1.905766e-42
65.38780200 10.72230000 481.87399000 -0.61992902 0.66933602 -0.40948501 1.905766e-42
66.01540400 10.05780000 480.32401000 -0.62673998 0.67574400 -0.38802999 1.905766e-42
66.09649700 9.31099990 478.68799000 -0.62881601 0.68616199 -0.36574900 1.905766e-42
66.92250100 8.95215030 477.13000000 -0.63748997 0.69012201 -0.34254700 1.905766e-42
67.04250300 8.48587990 475.39499000 -0.64076501 0.69877499 -0.31801501 1.905766e-42
67.64450100 8.38084980 473.70200000 -0.64870399 0.70218801 -0.29345399 1.905766e-42
67.77420000 8.10429000 471.92801000 -0.65274101 0.70850700 -0.26823100 1.905766e-42
67.88120300 7.59401990 470.20499000 -0.65548402 0.71486801 -0.24352500 1.905766e-42
68.23210100 7.22375010 468.47900000 -0.65948200 0.71816099 -0.22210100 1.905766e-42
68.50420400 6.86480000 466.73599000 -0.66040999 0.72130001 -0.20877101 1.905766e-42
68.68530300 6.55535980 464.97198000 -0.66140801 0.72372699 -0.19687100 1.905766e-42
69.32420300 6.58836980 463.29001000 -0.66552001 0.72272003 -0.18643799 1.905766e-42
69.04419700 6.13370990 461.57101000 -0.66486102 0.72560698 -0.17735399 1.905766e-42
69.55500000 6.00567010 459.85001000 -0.66831398 0.72456098 -0.16842499 1.905766e-42
69.99759700 5.77189020 458.12100000 -0.67138302 0.72356898 -0.16028801 1.905766e-42
70.08499900 5.59800000 456.33099000 -0.67404097 0.72263801 -0.15317500 1.905766e-42
69.54660000 5.01834010 454.34100000 -0.67513198 0.72269797 -0.14799801 1.905766e-42
70.12300100 4.99138020 452.63599000 -0.68031400 0.71898597 -0.14224200 1.905766e-42
69.90020000 4.69732000 450.87399000 -0.68434799 0.71554500 -0.14022100 1.905766e-42
69.62290200 4.23764990 449.15601000 -0.68908501 0.71079600 -0.14117900 1.905766e-42
69.51540400 3.63668990 447.46301000 -0.69497198 0.70433801 -0.14464401 1.905766e-42
68.38900000 2.32825990 447.97198000 -0.68829602 0.70872903 -0.15476499 1.905766e-42
67.13890100 1.46596000 448.93799000 -0.67838597 0.71647900 -0.16263500 1.905766e-42
65.81680300 0.73952699 449.92001000 -0.66720003 0.72520798 -0.17005201 1.905766e-42
64.63590200 0.00118288 451.06000000 -0.65480697 0.73487502 -0.17659500 1.905766e-42
63.53929900 -1.10470000 451.96301000 -0.64170802 0.74438298 -0.18467300 1.905766e-42
62.24599800 -1.85110000 452.96799000 -0.62736201 0.75470001 -0.19194999 1.905766e-42
60.90760000 -2.98331000 453.37601000 -0.61022699 0.76652700 -0.20014501 1.905766e-42
59.49959900 -3.81407000 454.13000000 -0.59069002 0.78010499 -0.20620599 1.905766e-42
58.07980000 -4.48683020 455.00800000 -0.57113200 0.79302400 -0.21194600 1.905766e-42
56.73120100 -5.67059990 455.14899000 -0.55129999 0.80511600 -0.21876299 1.905766e-42
55.17330200 -6.17685990 455.89499000 -0.53125900 0.81692398 -0.22449701 1.905766e-42
53.83260000 -7.37532000 455.97501000 -0.51150399 0.82773000 -0.23070800 1.905766e-42
52.23450100 -7.93381020 456.58600000 -0.49116999 0.83841801 -0.23623601 1.905766e-42
50.69979900 -8.55972000 457.28900000 -0.47114301 0.84832698 -0.24159101 1.905766e-42
49.24330100 -9.58277030 457.55701000 -0.45167300 0.85747898 -0.24641600 1.905766e-42
47.65760000 -10.16700000 458.17700000 -0.43291000 0.86579502 -0.25097501 1.905766e-42
46.14070100 -10.40530000 459.11600000 -0.41693100 0.87210703 -0.25611901 1.905766e-42
44.57360100 -10.80060000 459.90799000 -0.39950201 0.87810200 -0.26331499 1.905766e-42
43.02159900 -11.23600000 460.70901000 -0.38087800 0.88405001 -0.27090001 1.905766e-42
41.38110000 -11.87070000 461.09100000 -0.36091301 0.89047498 -0.27712199 1.905766e-42
39.80239900 -12.16570000 461.90399000 -0.34061199 0.89598298 -0.28495300 1.905766e-42
38.18429900 -12.64810000 462.52802000 -0.31910601 0.90159303 -0.29206401 1.905766e-42
36.65720000 -12.75730000 463.47501000 -0.29837900 0.90594298 -0.30039501 1.905766e-42
35.28820000 -12.82110000 464.64099000 -0.27874801 0.90916198 -0.30939201 1.905766e-42
33.70439900 -13.06670000 465.46100000 -0.25704399 0.91280401 -0.31736100 1.905766e-42
32.29040100 -13.03500000 466.57401000 -0.23744100 0.91485202 -0.32660100 1.905766e-42
30.59770000 -13.33180000 467.10999000 -0.21600400 0.91772598 -0.33334801 1.905766e-42
29.22909900 -13.17580000 468.26801000 -0.19828300 0.91809702 -0.34319299 1.905766e-42
27.63810000 -13.18690000 469.10999000 -0.17999500 0.91874403 -0.35144001 1.905766e-42
25.91379900 -13.45940000 469.54901000 -0.16094901 0.92035800 -0.35642099 1.905766e-42
24.17100000 -13.58070000 469.98199000 -0.13667201 0.92315102 -0.35932299 1.905766e-42
22.39909900 -13.65780000 470.29001000 -0.11088600 0.92568499 -0.36167899 1.905766e-42
20.60440100 -13.76630000 470.37399000 -0.08413020 0.92817700 -0.36250600 1.905766e-42
18.80789900 -13.87910000 470.37601000 -0.05735310 0.93017203 -0.36261699 1.905766e-42
17.00810100 -13.89590000 470.39600000 -0.03122100 0.93133402 -0.36282399 1.905766e-42
15.31460000 -14.23390000 469.88800000 -0.00754125 0.93378502 -0.35775599 1.905766e-42
13.54910000 -14.39150000 469.57501000 0.01538880 0.93518400 -0.35382801 1.905766e-42
11.77570000 -14.41620000 469.26700000 0.03618970 0.93623501 -0.34950599 1.905766e-42
9.99433040 -14.40820000 469.00900000 0.05504430 0.93693399 -0.34514400 1.905766e-42
8.38659000 -14.57600000 468.21799000 0.07324740 0.93911701 -0.33569899 1.905766e-42
6.87766980 -14.77600000 467.25699000 0.09142900 0.94120300 -0.32523501 1.905766e-42
5.55343010 -15.09380000 466.07999000 0.10875200 0.94310200 -0.31421599 1.905766e-42
3.97877000 -14.99170000 465.21399000 0.12895900 0.94340098 -0.30555600 1.905766e-42
2.24369000 -14.78380000 464.78201000 0.15035599 0.94253200 -0.29837200 1.905766e-42
0.49678400 -14.42440000 465.02499000 0.16985300 0.94075298 -0.29348600 1.905766e-42
-0.91743499 -13.89300000 466.00400000 0.18275300 0.93834102 -0.29345801 1.905766e-42
-2.18850990 -13.33100000 467.14801000 0.20252199 0.92968500 -0.30768600 1.905766e-42
-3.76862000 -12.73710000 467.77301000 0.22565900 0.92160898 -0.31577700 1.905766e-42
-5.26487020 -12.09840000 468.54300000 0.24556500 0.91293198 -0.32596499 1.905766e-42
-6.74237010 -11.43170000 469.32599000 0.26267001 0.90396202 -0.33742899 1.905766e-42
-8.20232960 -10.70890000 470.09100000 0.27936500 0.89499497 -0.34776199 1.905766e-42
-9.88788990 -10.18610000 470.44601000 0.29774401 0.88732201 -0.35214701 1.905766e-42
-11.41270000 -9.36853030 470.94199000 0.31558701 0.87899601 -0.35745001 1.905766e-42
-13.07770000 -8.70874020 471.12201000 0.33534199 0.87154597 -0.35770500 1.905766e-42
-14.68420000 -7.92824980 471.34601000 0.35536000 0.86369801 -0.35741299 1.905766e-42
-16.15010100 -7.01503990 471.85300000 0.37754700 0.85185099 -0.36305401 1.905766e-42
-17.77510100 -6.24713990 471.95099000 0.40293500 0.83996999 -0.36344799 1.905766e-42
-19.39349900 -5.45933010 471.96500000 0.42824501 0.82778800 -0.36245599 1.905766e-42
-20.95019900 -4.55562020 471.96701000 0.45235801 0.81532001 -0.36142099 1.905766e-42
-22.51709900 -3.66974000 471.97900000 0.47464201 0.80311602 -0.36016601 1.905766e-42
-24.04430000 -2.71716000 471.99100000 0.49433899 0.79157698 -0.35921499 1.905766e-42
-25.54590000 -1.72462000 471.99600000 0.51089698 0.78124398 -0.35866699 1.905766e-42
-27.14430000 -0.96089298 471.67700000 0.52448601 0.77445602 -0.35374099 1.905766e-42
-28.51140000 0.19076499 471.88800000 0.53239799 0.76710498 -0.35791501 1.905766e-42
-30.05340000 1.11328010 471.99301000 0.53610998 0.76310498 -0.36091101 1.905766e-42
-30.77389900 2.25233010 473.18600000 0.53445500 0.75260299 -0.38463801 1.905766e-42
-30.48749900 3.07557010 474.76099000 0.53305101 0.73876899 -0.41240400 1.905766e-42
-30.67520000 4.07568980 476.24600000 0.53276902 0.72430801 -0.43764701 1.905766e-42
-31.02150000 5.09426020 477.68900000 0.53370798 0.70948201 -0.46020800 1.905766e-42
-30.74150100 5.93848990 479.25400000 0.53523701 0.69533598 -0.47961399 1.905766e-42
-30.66610000 6.90516000 480.76999000 0.53830302 0.68133700 -0.49599400 1.905766e-42
-30.92840000 8.12364960 482.06900000 0.54359901 0.66692698 -0.50961602 1.905766e-42
-30.98090000 9.30537990 483.42599000 0.55034697 0.65350097 -0.51966798 1.905766e-42
-30.62879900 10.21430000 484.93900000 0.55773503 0.64388800 -0.52377403 1.905766e-42
-30.77899900 11.47570000 486.21399000 0.56860799 0.63229001 -0.52620697 1.905766e-42
-30.46740000 12.43230000 487.70700000 0.57975399 0.62690598 -0.52045602 1.905766e-42
-30.89640000 13.43640000 489.13800000 0.59348899 0.61922997 -0.51412499 1.905766e-42
-30.49959900 14.51260000 490.52499000 0.59397900 0.61379600 -0.52004200 1.905766e-42
-29.96340000 15.46310000 491.95700000 0.58482897 0.60607898 -0.53911400 1.905766e-42
-29.78640000 16.60110100 493.34000000 0.58020699 0.59245199 -0.55889201 1.905766e-42
-29.58569900 17.80590100 494.66199000 0.57553297 0.57618600 -0.58032000 1.905766e-42
-29.35840000 18.94520000 496.03699000 0.56969601 0.55848199 -0.60294598 1.905766e-42
-29.44879900 20.04150000 497.46201000 0.56617397 0.53878403 -0.62382501 1.905766e-42
-28.94319900 21.14290000 498.79300000 0.55752701 0.52129102 -0.64608002 1.905766e-42
-28.24430100 22.22020000 500.05399000 0.54731601 0.50549698 -0.66702199 1.905766e-42
-27.64590100 23.49570100 501.17401000 0.53945500 0.48927200 -0.68527400 1.905766e-42
-27.62400100 25.00300000 502.15799000 0.54078299 0.47180000 -0.69638902 1.905766e-42
-27.30800100 26.31679900 503.34698000 0.53860199 0.45770499 -0.70739901 1.905766e-42
-26.81270000 27.58410100 504.52499000 0.53397799 0.44502899 -0.71890002 1.905766e-42
-26.48100100 28.92350000 505.68100000 0.52894801 0.43257001 -0.73013502 1.905766e-42
-25.88780000 30.12480000 506.88300000 0.52124798 0.41970000 -0.74306899 1.905766e-42
-25.86240000 31.68530100 507.78000000 0.51809800 0.40371400 -0.75404900 1.905766e-42
-25.67989900 33.08720000 508.89401000 0.51227999 0.38750899 -0.76642400 1.905766e-42
-25.16470000 34.51639900 509.85999000 0.50472099 0.37101999 -0.77948803 1.905766e-42
-24.22760000 35.78170000 510.73199000 0.49512801 0.35553601 -0.79274398 1.905766e-42
-23.89150000 37.23770100 511.73499000 0.49473500 0.34190801 -0.79895902 1.905766e-42
-23.17760100 38.54010000 512.75201000 0.49485001 0.33156699 -0.80323499 1.905766e-42
-22.08869900 39.51160000 513.80603000 0.49435899 0.32556301 -0.80598903 1.905766e-42
-21.08499900 40.62459900 514.80298000 0.49479699 0.32010701 -0.80790299 1.905766e-42
-20.70450000 42.10789900 515.74902000 0.49827099 0.31202701 -0.80892903 1.905766e-42
-19.67770000 43.23030100 516.71100000 0.50015700 0.30919701 -0.80885100 1.905766e-42
-18.51960000 44.16799900 517.72101000 0.50160199 0.30926400 -0.80792999 1.905766e-42
-17.76100000 45.41330000 518.77600000 0.50552601 0.30710599 -0.80630600 1.905766e-42
-16.91480100 46.61320100 519.81799000 0.50855100 0.30534500 -0.80507201 1.905766e-42
-15.61390000 47.49449900 520.69598000 0.50906497 0.30750999 -0.80392200 1.905766e-42
-14.65970000 48.53620100 521.81097000 0.51155800 0.30778801 -0.80223101 1.905766e-42
-13.88640000 49.75849900 522.88300000 0.51584500 0.30660999 -0.79993403 1.905766e-42
-12.73970000 50.62929900 523.96301000 0.51731199 0.31013900 -0.79762298 1.905766e-42
-11.55170000 51.50289900 524.99500000 0.51866198 0.31480101 -0.79491502 1.905766e-42
-10.46680000 52.46310000 526.06299000 0.52093601 0.31957501 -0.79151601 1.905766e-42
-9.00524040 52.88660000 527.02502000 0.52041602 0.33129501 -0.78702599 1.905766e-42
-7.60295010 53.21989800 528.10303000 0.51931697 0.34398600 -0.78229398 1.905766e-42
-6.29311990 53.59050000 529.28101000 0.51847202 0.35657001 -0.77720302 1.905766e-42
-5.11895990 54.05260100 530.56403000 0.51862401 0.36840001 -0.77156299 1.905766e-42
-3.93716000 54.52819800 531.83600000 0.51854098 0.38041201 -0.76576900 1.905766e-42
-2.35290000 54.72480000 532.66803000 0.51351702 0.39542001 -0.76154000 1.905766e-42
-1.10134010 55.11330000 533.90198000 0.51164401 0.40837601 -0.75594300 1.905766e-42
0.39872900 55.51359900 534.81201000 0.50759798 0.42227900 -0.75101602 1.905766e-42
1.79516990 55.83420200 535.90198000 0.50255501 0.43730900 -0.74578798 1.905766e-42
3.05900000 56.20869800 537.12799000 0.49822301 0.45284900 -0.73939198 1.905766e-42
4.37050010 56.50930000 538.32300000 0.49205700 0.47031301 -0.73258799 1.905766e-42
5.57934000 56.94480100 539.58398000 0.48735201 0.48818499 -0.72399199 1.905766e-42
7.11931990 56.97959900 540.51501000 0.47425899 0.50944102 -0.71801698 1.905766e-42
8.38529970 57.48600000 541.69000000 0.46779901 0.52991402 -0.70735800 1.905766e-42
9.93058010 57.57709900 542.60901000 0.44958100 0.55127198 -0.70283401 1.905766e-42
11.10990000 58.10329800 543.86298000 0.43882701 0.56815499 -0.69615400 1.905766e-42
12.56040000 58.16809800 544.92700000 0.42549199 0.58579701 -0.68978101 1.905766e-42
13.91690000 58.40150100 546.08698000 0.41873500 0.60385299 -0.67825001 1.905766e-42
15.19170000 58.66650000 547.32898000 0.41509399 0.62665701 -0.65954399 1.905766e-42
16.58519900 58.85129900 548.45398000 0.40737799 0.66638201 -0.62448198 1.905766e-42
18.08799900 59.01530100 549.43103000 0.40271100 0.71393698 -0.57281601 1.905766e-42
