# .PCD v0.7 - Point Cloud Data file format
# 6 134 -2
# 1 23 0
# 24 40 0
# 41 65 0
# 66 77 0
# 78 96 0
# 97 134 0
VERSION 0.7
FIELDS x y z normal_x normal_y normal_z curvature
SIZE 4 4 4 4 4 4 4
TYPE F F F F F F F
COUNT 1 1 1 1 1 1 1
WIDTH 134
HEIGHT 1
VIEWPOINT 0 0 0 1 0 0 0
POINTS 134
DATA ascii
-19.39590100 -4.54239990 479.42899000 0.11410600 -0.58426303 -0.80350298 1.905766e-42
-19.21540100 -3.09288000 478.37701000 0.19087499 -0.56712502 -0.80120897 1.905766e-42
-18.26470000 -1.75376000 477.64001000 0.28870201 -0.44277701 -0.84888101 1.905766e-42
-17.68020100 -0.08842030 477.28699000 0.44989100 -0.19430400 -0.87168998 1.905766e-42
-17.71920000 3.08738990 477.13699000 0.68565202 0.33103400 -0.64830399 1.905766e-42
-18.66050000 4.59015990 477.44601000 0.72705501 0.46802101 -0.50234199 1.905766e-42
-19.15340000 6.08542010 478.31900000 0.76288801 0.50705600 -0.40111899 1.905766e-42
-19.87719900 7.55966000 479.05600000 0.78807598 0.51436502 -0.33817899 1.905766e-42
-20.61640000 9.09348960 479.63901000 0.80730301 0.50924301 -0.29821599 1.905766e-42
-21.36170000 10.60910000 480.26199000 0.82110298 0.50016701 -0.27499601 1.905766e-42
-22.08370000 12.19320000 480.71899000 0.82526898 0.50520402 -0.25238901 1.905766e-42
-22.94560100 13.68820000 481.23099000 0.82773203 0.51245898 -0.22857299 1.905766e-42
-23.82980000 15.22540000 481.54001000 0.83151001 0.51666802 -0.20407200 1.905766e-42
-24.56660100 16.77319900 482.08899000 0.83289099 0.52327198 -0.18021899 1.905766e-42
-25.42890000 18.32869900 482.36600000 0.84205598 0.51434702 -0.16244499 1.905766e-42
-26.14990000 19.82869900 483.05200000 0.84887302 0.50658798 -0.15094000 1.905766e-42
-27.09919900 21.35740100 483.09698000 0.85831100 0.49380600 -0.13949201 1.905766e-42
-27.77290000 22.77450000 483.97900000 0.86297703 0.48655900 -0.13612700 1.905766e-42
-28.63299900 24.35510100 483.93600000 0.87630701 0.46332800 -0.13195799 1.905766e-42
-29.54560100 25.90609900 483.97400000 0.89200097 0.43309501 -0.12947001 1.905766e-42
-30.43840000 27.46910100 483.99100000 0.90938002 0.39587000 -0.12772900 1.905766e-42
-30.80710000 29.11039900 484.63101000 0.92500299 0.35778701 -0.12789600 1.905766e-42
-31.42849900 30.79410000 484.76901000 0.90632099 0.41300201 -0.08951190 1.905766e-42
-32.17050200 32.08570100 485.78000000 0.88080603 0.46950200 -0.06122730 1.905766e-42
-31.79750100 32.04410200 487.54001000 0.87123698 0.48672301 -0.06361760 1.905766e-42
-31.78560100 32.30149800 489.32199000 0.85696799 0.51119298 -0.06547870 1.905766e-42
-31.52850000 31.98920100 491.07599000 0.85451001 0.51329702 -0.07961640 1.905766e-42
-31.21180000 31.65329900 492.81601000 0.85450500 0.50988102 -0.09920910 1.905766e-42
-31.01260000 31.86000100 494.59299000 0.85185403 0.50745398 -0.12975401 1.905766e-42
-30.40760000 31.16750000 496.14001000 0.84850502 0.49602500 -0.18438600 1.905766e-42
-29.90550000 31.18829900 497.86801000 0.84113300 0.47721601 -0.25448200 1.905766e-42
-29.00400000 30.49799900 499.26501000 0.83250201 0.46320900 -0.30393600 1.905766e-42
-28.70019900 30.57020000 501.03799000 0.82221699 0.42535001 -0.37820300 1.905766e-42
-27.69080000 30.59499900 502.52802000 0.80767202 0.38935399 -0.44279599 1.905766e-42
-26.80139900 30.94560100 504.05301000 0.78966397 0.33822000 -0.51189601 1.905766e-42
-25.85780000 31.17610000 505.56799000 0.75325698 0.27678600 -0.59665197 1.905766e-42
-24.67510000 30.27860100 506.58600000 0.73155898 0.27085900 -0.62566501 1.905766e-42
-23.43670100 29.66780100 507.74100000 0.70676798 0.24512701 -0.66362000 1.905766e-42
-22.29089900 29.64480000 509.12900000 0.67194301 0.17068499 -0.72066498 1.905766e-42
-20.90320000 29.41280000 510.25201000 0.64589101 0.11666200 -0.75446302 1.905766e-42
-19.60969900 30.00989900 511.35199000 0.60026801 -0.00677338 -0.79977000 1.905766e-42
-18.28410000 30.97839900 512.09003000 0.51854300 -0.15258700 -0.84132600 1.905766e-42
-16.88769900 32.01730000 512.54901000 0.44386199 -0.26693901 -0.85541201 1.905766e-42
-15.45710000 33.09349800 512.73602000 0.38134199 -0.34857401 -0.85619801 1.905766e-42
-13.98110000 34.12260100 512.78400000 0.32870299 -0.40213701 -0.85454100 1.905766e-42
-12.56800000 35.23749900 512.79401000 0.28283900 -0.43796301 -0.85334098 1.905766e-42
-11.06400000 36.22650100 512.78601000 0.25907400 -0.45556000 -0.85167199 1.905766e-42
-10.17950000 37.79280100 512.85199000 0.26190299 -0.46622699 -0.84500802 1.905766e-42
-8.72103020 38.74530000 512.39801000 0.26027700 -0.46610099 -0.84557998 1.905766e-42
-7.17497010 39.62120100 512.11102000 0.25127599 -0.46004701 -0.85159701 1.905766e-42
-5.58688020 40.46229900 512.00897000 0.23305599 -0.45023000 -0.86196101 1.905766e-42
-4.14238980 41.51380200 511.79001000 0.21230100 -0.43794999 -0.87357199 1.905766e-42
-2.58225990 42.40739800 511.70300000 0.17953099 -0.42315000 -0.88809502 1.905766e-42
-0.86176097 42.88240100 511.93600000 0.15285701 -0.41127601 -0.89860302 1.905766e-42
0.78727102 43.60350000 511.96399000 0.14305000 -0.40265000 -0.90410697 1.905766e-42
2.43936990 44.31769900 511.98499000 0.13896599 -0.39779001 -0.90689099 1.905766e-42
4.08406020 45.04909900 511.98401000 0.13773701 -0.39486200 -0.90835702 1.905766e-42
5.46157980 46.20700100 512.02600000 0.13486899 -0.38676101 -0.91226399 1.905766e-42
7.20003990 45.75310100 511.91800000 0.13625599 -0.39871299 -0.90689701 1.905766e-42
8.91446970 46.29280100 511.82001000 0.12955301 -0.39640000 -0.90889102 1.905766e-42
10.64630000 46.75840000 511.97501000 0.11828100 -0.39280400 -0.91198403 1.905766e-42
11.80910000 48.10409900 511.69699000 0.11034400 -0.37326899 -0.92113698 1.905766e-42
13.45480000 48.82500100 511.80600000 0.09213250 -0.35718799 -0.92947698 1.905766e-42
15.06090000 48.14469900 512.25000000 0.04065240 -0.34423399 -0.93800300 1.905766e-42
16.76300000 47.58929800 512.43701000 -0.02531250 -0.33344999 -0.94242799 1.905766e-42
18.52710000 47.24649800 512.33398000 -0.08486670 -0.34957099 -0.93305802 1.905766e-42
19.76170000 45.95869800 512.57300000 -0.07523340 -0.40382999 -0.91173500 1.905766e-42
21.31320000 45.06589900 512.76300000 -0.04415640 -0.45665300 -0.88854802 1.905766e-42
22.61490100 43.96120100 513.33301000 0.00536776 -0.51233101 -0.85877198 1.905766e-42
23.70089900 42.77389900 514.14001000 0.05684260 -0.56178302 -0.82533002 1.905766e-42
24.61410000 41.58330200 515.13397000 0.05785480 -0.56359702 -0.82402200 1.905766e-42
25.41370000 40.21490100 515.98700000 0.04160210 -0.54730999 -0.83589500 1.905766e-42
26.10570000 38.85210000 516.93799000 0.02690710 -0.52914602 -0.84810400 1.905766e-42
27.00880100 37.63950000 517.91498000 0.01248330 -0.50870103 -0.86085302 1.905766e-42
28.14290000 36.44680000 518.64398000 -0.00234969 -0.48697099 -0.87341499 1.905766e-42
28.57670000 34.81100100 519.25702000 -0.07745680 -0.38919801 -0.91789198 1.905766e-42
29.73930000 33.48170100 519.60498000 -0.20005600 -0.21366701 -0.95620298 1.905766e-42
30.24469900 31.75650000 519.51501000 -0.31092501 0.01791170 -0.95026600 1.905766e-42
30.91470000 30.16519900 519.00598000 -0.40264001 0.26363599 -0.87657100 1.905766e-42
31.18700000 28.54600000 518.26801000 -0.42426199 0.40725401 -0.80879301 1.905766e-42
32.01919900 27.39399900 517.16400000 -0.43080300 0.49070501 -0.75737500 1.905766e-42
32.32569900 26.14550000 515.90399000 -0.44953501 0.56799799 -0.68941700 1.905766e-42
32.60860100 24.96489900 514.57501000 -0.47545001 0.62749600 -0.61659998 1.905766e-42
33.12200200 23.98670000 513.15399000 -0.49048600 0.65227002 -0.57789898 1.905766e-42
33.20750000 22.77529900 511.82501000 -0.48237300 0.64378798 -0.59401500 1.905766e-42
34.14339800 21.86710000 510.58499000 -0.47978199 0.62774903 -0.61297601 1.905766e-42
34.14090000 20.73570100 509.18500000 -0.47588599 0.60701501 -0.63644803 1.905766e-42
34.07310100 19.39870100 507.98099000 -0.47240400 0.58494997 -0.65929300 1.905766e-42
34.89429900 18.45730000 506.68500000 -0.49641401 0.58965099 -0.63709098 1.905766e-42
35.14730100 17.32700000 505.30801000 -0.51694000 0.59473300 -0.61568302 1.905766e-42
35.69210100 16.35860100 503.89099000 -0.54034001 0.60123700 -0.58868301 1.905766e-42
35.89239900 15.31330000 502.44000000 -0.56361699 0.60360599 -0.56391001 1.905766e-42
36.56250000 14.29310000 501.11700000 -0.55362803 0.58599597 -0.59169698 1.905766e-42
36.44129900 13.08950000 499.78400000 -0.53028202 0.58418298 -0.61443502 1.905766e-42
36.78200100 12.01800000 498.37799000 -0.51469702 0.57697302 -0.63418400 1.905766e-42
37.48099900 11.11470000 496.98700000 -0.50468099 0.56760401 -0.65047902 1.905766e-42
36.94689900 9.68445010 496.03400000 -0.48514101 0.57525998 -0.65856898 1.905766e-42
35.70679900 8.39087960 495.86401000 -0.46856701 0.58837903 -0.65898103 1.905766e-42
34.41740000 7.14325000 495.72000000 -0.45434800 0.59888399 -0.65947402 1.905766e-42
32.92269900 6.15942000 495.91400000 -0.43705601 0.61303699 -0.65815401 1.905766e-42
31.39320000 5.21178010 495.96600000 -0.40702799 0.63743699 -0.65421802 1.905766e-42
29.87820100 4.23983000 495.98001000 -0.37535799 0.65943599 -0.65134603 1.905766e-42
28.26120000 3.44924000 495.99500000 -0.34156701 0.67848200 -0.65038002 1.905766e-42
26.78060000 2.44587990 495.79199000 -0.30646199 0.69521701 -0.65019500 1.905766e-42
25.13999900 1.72250000 495.63400000 -0.26776001 0.70884299 -0.65256900 1.905766e-42
23.58830100 0.88058400 495.28201000 -0.23821600 0.70988399 -0.66281003 1.905766e-42
21.99290100 0.09779120 494.99600000 -0.20688701 0.70327902 -0.68014401 1.905766e-42
20.52860100 -0.77784002 494.42200000 -0.17365199 0.68862301 -0.70402002 1.905766e-42
19.13299900 -1.61902000 493.65799000 -0.13672400 0.66471899 -0.73447597 1.905766e-42
17.72540100 -2.59114000 493.09799000 -0.09092710 0.63353997 -0.76834899 1.905766e-42
16.15189900 -3.43206000 493.33600000 -0.03056180 0.61829299 -0.78535300 1.905766e-42
14.74950000 -4.47942020 492.91599000 0.03683790 0.58291399 -0.81169802 1.905766e-42
13.62930000 -5.67573020 492.17200000 0.09641140 0.51950997 -0.84900802 1.905766e-42
12.18450000 -5.68854000 491.09799000 0.16757300 0.49612299 -0.85192800 1.905766e-42
10.91260000 -6.57950020 490.18799000 0.23473200 0.42635000 -0.87357098 1.905766e-42
9.31585980 -6.90278010 489.42300000 0.30882201 0.38824001 -0.86827302 1.905766e-42
7.90016980 -7.64457990 488.59500000 0.33148199 0.30071801 -0.89425302 1.905766e-42
6.52409980 -8.59292980 487.92599000 0.31186700 0.18624701 -0.93169302 1.905766e-42
4.84311010 -8.90334990 487.36200000 0.30307600 0.11297400 -0.94624603 1.905766e-42
3.27441000 -9.57933040 486.79501000 0.28663099 0.00987795 -0.95798999 1.905766e-42
1.76371000 -10.47700000 486.40500000 0.26307401 -0.10417100 -0.95913500 1.905766e-42
0.06812920 -10.92000000 485.99399000 0.26243800 -0.19512500 -0.94501501 1.905766e-42
-1.25926010 -12.08940000 486.32599000 0.22291400 -0.28908601 -0.93098801 1.905766e-42
-2.91798000 -12.64470000 485.90201000 0.19830100 -0.34698501 -0.91666698 1.905766e-42
-4.48898980 -12.05100000 485.25400000 0.18391401 -0.36682600 -0.91192901 1.905766e-42
-6.20366000 -11.71230000 484.82401000 0.14384399 -0.39660099 -0.90665102 1.905766e-42
-7.79567000 -11.05200000 484.30499000 0.10764500 -0.42352900 -0.89946401 1.905766e-42
-9.15289020 -10.09310000 483.61301000 0.10483600 -0.44846001 -0.88763303 1.905766e-42
-10.53750000 -9.15948010 482.94101000 0.10401100 -0.48318699 -0.86931700 1.905766e-42
-12.28880000 -8.80060010 482.73099000 0.08074710 -0.52539098 -0.84702098 1.905766e-42
-13.79600000 -8.05696010 482.08701000 0.07563300 -0.55988902 -0.82510900 1.905766e-42
-15.38550000 -7.36931990 481.59601000 0.05937680 -0.55533600 -0.82950300 1.905766e-42
-16.70010000 -6.41834020 480.81699000 0.06306220 -0.54899001 -0.83344698 1.905766e-42
-18.20789900 -5.65662000 480.19501000 0.07499680 -0.56445700 -0.82204801 1.905766e-42
