# .PCD v0.7 - Point Cloud Data file format
# 4 174 0
# 1 28 0
# 29 92 0
# 93 129 0
# 130 174 0
VERSION 0.7
FIELDS x y z normal_x normal_y normal_z curvature
SIZE 4 4 4 4 4 4 4
TYPE F F F F F F F
COUNT 1 1 1 1 1 1 1
WIDTH 174
HEIGHT 1
VIEWPOINT 0 0 0 1 0 0 0
POINTS 174
DATA ascii
38.34370000 36.64860200 556.48297000 0.15739700 -0.70787299 0.68857998 1.905766e-42
36.73979900 36.76950100 557.29102000 0.14854500 -0.70203102 0.69648200 1.905766e-42
34.97290000 36.80780000 557.63202000 0.13879900 -0.69952601 0.70099801 1.905766e-42
33.36389900 37.29740100 558.27301000 0.12335300 -0.69359899 0.70972198 1.905766e-42
31.60170000 37.42900100 558.61603000 0.10747200 -0.69083202 0.71498299 1.905766e-42
29.85110100 37.50280000 559.02802000 0.09144770 -0.68856198 0.71938801 1.905766e-42
28.08270100 37.59970100 559.34998000 0.07510800 -0.68722200 0.72255403 1.905766e-42
26.30870100 37.61719900 559.65399000 0.05187660 -0.68539202 0.72632402 1.905766e-42
24.65990100 38.18009900 560.10699000 0.02969630 -0.68012500 0.73249501 1.905766e-42
22.93260000 38.52999900 560.47302000 0.00662166 -0.67605102 0.73682499 1.905766e-42
21.20730000 38.91159800 560.81598000 -0.01637800 -0.67167503 0.74066502 1.905766e-42
19.49340100 39.31610100 561.18903000 -0.03797820 -0.66695702 0.74412799 1.905766e-42
17.78120000 39.76789900 561.51099000 -0.05918890 -0.66167402 0.74745202 1.905766e-42
16.04000100 40.16249800 561.74103000 -0.08069830 -0.65646499 0.75002700 1.905766e-42
14.39570000 40.80210100 562.09698000 -0.10136300 -0.64895099 0.75404799 1.905766e-42
12.85830000 41.68830100 562.39899000 -0.12023500 -0.64043403 0.75854301 1.905766e-42
11.17580000 42.30619800 562.56500000 -0.13938500 -0.63422799 0.76047701 1.905766e-42
9.38239960 42.44229900 562.63702000 -0.15922900 -0.63088399 0.75936300 1.905766e-42
7.78885980 43.25560000 562.83502000 -0.17756900 -0.62391901 0.76104802 1.905766e-42
6.12378980 43.93809900 562.87598000 -0.19660400 -0.61821902 0.76102102 1.905766e-42
5.06139990 44.07289900 562.82898000 -0.20838401 -0.61601001 0.75967598 1.905766e-42
3.33131000 44.55450100 562.70801000 -0.22859600 -0.61026001 0.75850302 1.905766e-42
1.56179000 44.78950100 562.47601000 -0.24951200 -0.60482699 0.75625902 1.905766e-42
-0.12045000 45.42089800 562.36902000 -0.27147701 -0.59543002 0.75615001 1.905766e-42
-1.73167000 46.21920000 562.28802000 -0.29223701 -0.58474100 0.75675303 1.905766e-42
-3.33007000 46.99980200 562.01300000 -0.30985400 -0.57625401 0.75625497 1.905766e-42
-5.08239980 47.23820100 561.67700000 -0.32416701 -0.57229698 0.75325400 1.905766e-42
-6.73636010 47.90480000 561.43201000 -0.33267400 -0.56719899 0.75340098 1.905766e-42
-8.37623020 47.76779900 560.70300000 -0.33101001 -0.57022703 0.75184703 1.905766e-42
-8.70121960 46.49179800 559.47498000 -0.34775600 -0.58898199 0.72949702 1.905766e-42
-9.19670960 45.32989900 558.19299000 -0.35821801 -0.59799802 0.71699202 1.905766e-42
-9.31589030 43.91820100 557.08301000 -0.36383599 -0.60784900 0.70579201 1.905766e-42
-9.85077000 42.80770100 555.77100000 -0.37176901 -0.61764902 0.69303501 1.905766e-42
-9.81130980 41.42190200 554.62299000 -0.37405401 -0.62894702 0.68154901 1.905766e-42
-10.47750000 40.40580000 553.29498000 -0.38216099 -0.63992703 0.66666800 1.905766e-42
-10.51320000 39.10670100 552.04901000 -0.38571000 -0.65194798 0.65283298 1.905766e-42
-10.70060000 37.89889900 550.72803000 -0.39019200 -0.66266698 0.63923597 1.905766e-42
-11.23260000 36.87559900 549.34601000 -0.39737800 -0.67154402 0.62539500 1.905766e-42
-11.46430000 35.74089800 547.96802000 -0.40120801 -0.68103701 0.61255300 1.905766e-42
-11.78470000 34.74290100 546.50500000 -0.40548900 -0.68988597 0.59969598 1.905766e-42
-12.22410000 33.84130100 545.01001000 -0.41007900 -0.69809401 0.58693999 1.905766e-42
-12.23520000 32.58190200 543.72400000 -0.40956399 -0.70821202 0.57505900 1.905766e-42
-12.68260000 31.73180000 542.20203000 -0.41149300 -0.71509099 0.56508303 1.905766e-42
-12.76220000 30.64160000 540.77197000 -0.40941799 -0.72215497 0.55755597 1.905766e-42
-12.81670000 29.53340000 539.35400000 -0.40762499 -0.72872102 0.55027902 1.905766e-42
-12.96490000 28.52280000 537.87201000 -0.40726301 -0.73428702 0.54310203 1.905766e-42
-13.34550000 27.62940000 536.35699000 -0.40911099 -0.73855698 0.53587401 1.905766e-42
-13.40120000 26.61220000 534.87299000 -0.40939099 -0.74330401 0.52905399 1.905766e-42
-13.12180000 25.50910000 533.47803000 -0.40834200 -0.74794298 0.52329600 1.905766e-42
-13.36240000 24.56040000 531.96698000 -0.41155300 -0.75078702 0.51666600 1.905766e-42
-13.62530000 23.66640100 530.42700000 -0.41582599 -0.75293100 0.51008099 1.905766e-42
-13.66620000 22.64080000 528.94897000 -0.41828901 -0.75142401 0.51029003 1.905766e-42
-13.64910000 21.62039900 527.46600000 -0.42058200 -0.74946302 0.51128900 1.905766e-42
-13.60050000 20.60400000 525.98102000 -0.41893801 -0.74976897 0.51218802 1.905766e-42
-13.56200000 19.60360000 524.48499000 -0.41735700 -0.75015801 0.51290900 1.905766e-42
-14.26190000 19.14539900 522.89099000 -0.42510599 -0.74663800 0.51168102 1.905766e-42
-14.37470000 18.04089900 521.47498000 -0.42409399 -0.74693501 0.51208597 1.905766e-42
-14.10680000 16.89180000 520.11499000 -0.41918799 -0.74903202 0.51306200 1.905766e-42
-14.21410000 15.90470000 518.61401000 -0.41861400 -0.74930203 0.51313603 1.905766e-42
-14.45830000 15.02250000 517.06403000 -0.41963401 -0.74872202 0.51315099 1.905766e-42
-14.57890000 14.04010000 515.56097000 -0.41926801 -0.74838102 0.51394498 1.905766e-42
-14.92030000 13.18870000 514.01202000 -0.42190200 -0.74661499 0.51435798 1.905766e-42
-14.89330000 12.12780000 512.55798000 -0.42082500 -0.74616897 0.51588601 1.905766e-42
-14.75400000 11.06150000 511.11499000 -0.41938999 -0.74550098 0.51801503 1.905766e-42
-14.51620000 9.96269040 509.70901000 -0.41771200 -0.74443901 0.52089101 1.905766e-42
-14.58950000 8.95378970 508.22000000 -0.42004099 -0.74151099 0.52319002 1.905766e-42
-14.97620000 8.08592990 506.69101000 -0.42618400 -0.73712599 0.52441603 1.905766e-42
-15.09160000 7.02960010 505.23801000 -0.43025199 -0.73268002 0.52731699 1.905766e-42
-14.78580000 5.91446020 503.85901000 -0.43110901 -0.72743201 0.53384203 1.905766e-42
-14.97210000 4.94844010 502.35101000 -0.43665001 -0.72087097 0.53822100 1.905766e-42
-15.24690000 3.96743990 500.86801000 -0.44132799 -0.71504301 0.54216498 1.905766e-42
-15.95630000 3.32441000 499.34299000 -0.45193601 -0.70745301 0.54338199 1.905766e-42
-16.16500100 2.24279000 497.92001000 -0.45473400 -0.70239198 0.54759699 1.905766e-42
-16.85640000 1.58733000 496.39200000 -0.46526101 -0.69457000 0.54872900 1.905766e-42
-17.62260100 0.95621097 494.89099000 -0.47428900 -0.68784797 0.54946798 1.905766e-42
-18.36100000 0.20319000 493.43201000 -0.48226801 -0.68136799 0.55059499 1.905766e-42
-19.40650000 0.00679554 491.98001000 -0.49351001 -0.67736298 0.54555303 1.905766e-42
-20.04990000 -0.92272800 490.57999000 -0.50219101 -0.67350399 0.54239899 1.905766e-42
-20.98110000 -1.39649000 489.11401000 -0.51330501 -0.66952503 0.53689301 1.905766e-42
-21.98580000 -1.77486000 487.66901000 -0.52513099 -0.66533101 0.53063399 1.905766e-42
-22.43289900 -2.58268000 486.12399000 -0.53361899 -0.66129798 0.52719599 1.905766e-42
-22.60650100 -3.59083010 484.64301000 -0.53996497 -0.65764099 0.52530497 1.905766e-42
-23.45369900 -4.08953000 483.13501000 -0.55135202 -0.65316701 0.51902300 1.905766e-42
-23.89380100 -4.95668980 481.62000000 -0.55990797 -0.64901203 0.51506001 1.905766e-42
-24.30610100 -5.79998020 480.08401000 -0.56607300 -0.64189702 0.51723200 1.905766e-42
-24.91550100 -6.51750990 478.54999000 -0.57388997 -0.63337201 0.51912498 1.905766e-42
-25.03220000 -7.61869000 477.13101000 -0.57881802 -0.62483197 0.52397901 1.905766e-42
-25.77470000 -8.12499050 475.57199000 -0.58986801 -0.61545599 0.52275199 1.905766e-42
-26.59870000 -8.52995010 474.02301000 -0.60264403 -0.60585499 0.51938403 1.905766e-42
-27.13310100 -9.42669960 472.55701000 -0.61347902 -0.59516102 0.51906401 1.905766e-42
-28.14720000 -9.40598010 471.07001000 -0.63018501 -0.58573598 0.50968599 1.905766e-42
-28.12980100 -10.74520000 469.86700000 -0.63643998 -0.57461202 0.51455301 1.905766e-42
-27.86170000 -12.15290000 468.77802000 -0.64107502 -0.56242198 0.52221000 1.905766e-42
-26.55480000 -13.36310000 469.03799000 -0.63064498 -0.55794901 0.53942603 1.905766e-42
-25.13629900 -14.27620000 469.66599000 -0.61071998 -0.56293601 0.55688798 1.905766e-42
-23.59620100 -15.15120000 469.98599000 -0.57609302 -0.58052099 0.57542402 1.905766e-42
-22.16070000 -15.74850000 470.89301000 -0.54276001 -0.59936702 0.58836198 1.905766e-42
-20.76980000 -16.16770000 471.95599000 -0.51274300 -0.61676103 0.59724498 1.905766e-42
-19.47130000 -16.02039900 473.19400000 -0.48914301 -0.63224399 0.60083801 1.905766e-42
-18.11210100 -15.98200000 474.37299000 -0.46520299 -0.64697301 0.60416198 1.905766e-42
-16.55090000 -16.19440100 475.24399000 -0.43762800 -0.66156697 0.60894299 1.905766e-42
-15.18140000 -16.06189900 476.40399000 -0.41468099 -0.67520702 0.61002898 1.905766e-42
-13.51340000 -16.45949900 476.95099000 -0.38614100 -0.68787301 0.61459398 1.905766e-42
-11.97230000 -16.48080100 477.88101000 -0.36123499 -0.70044702 0.61553502 1.905766e-42
-10.55980000 -16.24270100 478.97101000 -0.33982900 -0.71237600 0.61403298 1.905766e-42
-8.86789040 -16.80859900 479.21100000 -0.31056300 -0.72262299 0.61754900 1.905766e-42
-7.26078990 -16.82309900 480.02100000 -0.28271499 -0.73505098 0.61625701 1.905766e-42
-5.89022020 -16.38970000 481.10501000 -0.26151001 -0.74703401 0.61118901 1.905766e-42
-4.50904990 -16.00000000 482.19101000 -0.23829600 -0.75452602 0.61147797 1.905766e-42
-2.82765010 -15.98900000 482.83401000 -0.20832200 -0.76335299 0.61146897 1.905766e-42
-1.15125000 -15.77520000 483.45300000 -0.17945200 -0.77158201 0.61029297 1.905766e-42
0.60847199 -15.71840000 483.82800000 -0.15230200 -0.77856803 0.60879898 1.905766e-42
1.80775000 -15.20640000 485.06799000 -0.13740499 -0.78204101 0.60789198 1.905766e-42
3.52412010 -15.12860000 485.60501000 -0.11229700 -0.78702199 0.60661799 1.905766e-42
5.29657980 -15.00050000 485.89099000 -0.08535390 -0.79161000 0.60503602 1.905766e-42
6.58479020 -14.37650000 486.98300000 -0.06753160 -0.79436100 0.60368001 1.905766e-42
8.32682040 -14.14070000 487.37000000 -0.04052510 -0.79788703 0.60144401 1.905766e-42
9.93179040 -13.68370000 488.04401000 -0.01528470 -0.80091602 0.59858203 1.905766e-42
11.70190000 -13.40840000 488.22000000 0.01501310 -0.80433601 0.59398597 1.905766e-42
13.22350000 -12.95240000 489.06699000 0.03853260 -0.80677700 0.58959901 1.905766e-42
14.85020000 -12.46110000 489.66000000 0.06427430 -0.80945200 0.58365798 1.905766e-42
16.48180000 -11.92680000 490.20099000 0.08943030 -0.81276101 0.57569301 1.905766e-42
18.07309900 -11.16390000 490.55600000 0.11361200 -0.81584001 0.56700802 1.905766e-42
19.40220100 -10.54610000 491.60101000 0.12867500 -0.81756300 0.56127799 1.905766e-42
20.96060000 -9.87648960 492.20300000 0.14816600 -0.81873101 0.55473202 1.905766e-42
22.50989900 -9.18062970 492.79999000 0.16586301 -0.81933898 0.54879200 1.905766e-42
24.20579900 -8.58378980 492.88800000 0.18497901 -0.81935799 0.54261899 1.905766e-42
25.60430000 -7.83761980 493.74100000 0.19624600 -0.82004797 0.53759599 1.905766e-42
26.87450000 -6.90005020 494.60599000 0.20435999 -0.82113302 0.53289598 1.905766e-42
27.82710100 -5.85463000 495.71899000 0.20716999 -0.82256800 0.52958798 1.905766e-42
27.15660100 -5.03290990 497.17401000 0.19630000 -0.82287598 0.53323603 1.905766e-42
26.14720000 -4.55143980 498.58401000 0.18260700 -0.82320797 0.53757101 1.905766e-42
26.19610000 -3.52719000 500.06299000 0.17667300 -0.82645202 0.53456903 1.905766e-42
25.49150100 -2.73260000 501.51700000 0.16493900 -0.82922202 0.53402799 1.905766e-42
25.24110000 -1.78155000 503.02399000 0.15714900 -0.83259499 0.53112102 1.905766e-42
24.74880000 -0.92103201 504.52701000 0.14670201 -0.83584201 0.52900600 1.905766e-42
24.27800000 -0.03703640 506.02200000 0.13550600 -0.83903003 0.52693999 1.905766e-42
23.66350000 0.76899898 507.51001000 0.12005000 -0.84179598 0.52627701 1.905766e-42
23.23690000 1.67730000 509.00400000 0.10691800 -0.84451097 0.52475703 1.905766e-42
23.00550100 2.57157990 510.54901000 0.09674620 -0.84724200 0.52232200 1.905766e-42
23.48090000 3.48675990 512.02399000 0.09763100 -0.85006201 0.51755500 1.905766e-42
24.46690000 4.35097980 513.25800000 0.10802300 -0.85049498 0.51477098 1.905766e-42
25.34690100 5.33221010 514.48297000 0.11633700 -0.85090703 0.51227200 1.905766e-42
26.13200000 6.16873980 515.87097000 0.12226200 -0.85131001 0.51021802 1.905766e-42
27.15090000 7.07104020 517.04797000 0.13158999 -0.85174799 0.50715703 1.905766e-42
28.05680100 7.94832990 518.33301000 0.13837600 -0.85219997 0.50458598 1.905766e-42
28.74099900 8.88232040 519.71100000 0.14139800 -0.85264498 0.50299400 1.905766e-42
29.40600000 9.79179000 521.11499000 0.14391901 -0.85310698 0.50149399 1.905766e-42
30.22850000 10.72430000 522.41602000 0.14932700 -0.85364199 0.49899599 1.905766e-42
31.09550100 11.70600000 523.65100000 0.15606500 -0.85298502 0.49805599 1.905766e-42
31.70750000 12.58260000 525.09900000 0.15862200 -0.85168803 0.49946600 1.905766e-42
32.45309800 13.48440000 526.46698000 0.16353799 -0.85038000 0.50010902 1.905766e-42
33.40689800 14.56440000 527.54602000 0.17240000 -0.84902400 0.49943599 1.905766e-42
34.15589900 15.37750000 528.96600000 0.17713800 -0.84759998 0.50019699 1.905766e-42
34.81959900 16.23979900 530.40002000 0.18087500 -0.84615499 0.50130397 1.905766e-42
35.71690000 17.18160100 531.64398000 0.18807399 -0.84456301 0.50133902 1.905766e-42
36.65340000 18.16589900 532.82501000 0.19570599 -0.84285402 0.50129497 1.905766e-42
37.57469900 19.14870100 534.01898000 0.20330200 -0.83990198 0.50322300 1.905766e-42
38.25280000 20.09790000 535.39001000 0.20840600 -0.83410102 0.51072800 1.905766e-42
39.33300000 21.14580000 536.37701000 0.21695501 -0.82850200 0.51625103 1.905766e-42
39.98770100 22.04180000 537.79498000 0.21995500 -0.82229000 0.52484202 1.905766e-42
40.98720200 23.05760000 538.89398000 0.22516900 -0.81631398 0.53191203 1.905766e-42
41.81980100 23.97690000 540.19897000 0.22756501 -0.80980700 0.54076499 1.905766e-42
42.39640000 25.09820000 541.48297000 0.22764200 -0.80251402 0.55149901 1.905766e-42
42.38069900 26.21610100 542.89398000 0.22447599 -0.79387200 0.56513602 1.905766e-42
42.42570100 27.33040000 544.30701000 0.22191700 -0.78458202 0.57895100 1.905766e-42
42.45780200 28.26899900 545.84198000 0.21931900 -0.77589703 0.59150797 1.905766e-42
42.46149800 29.35470000 547.27802000 0.21669200 -0.76777703 0.60296202 1.905766e-42
41.99490000 30.38470100 548.67902000 0.21223800 -0.76016700 0.61408597 1.905766e-42
41.71839900 31.49519900 550.06799000 0.20759401 -0.75266701 0.62481803 1.905766e-42
41.41899900 32.54959900 551.49597000 0.20130999 -0.74513602 0.63580400 1.905766e-42
40.89329900 33.60720100 552.85400000 0.19095100 -0.73703903 0.64831400 1.905766e-42
39.92900100 34.46080000 554.11200000 0.17729500 -0.72799700 0.66225898 1.905766e-42
39.09059900 35.47740200 555.33801000 0.16632600 -0.71819001 0.67567599 1.905766e-42
