# .PCD v0.7 - Point Cloud Data file format
# 3 95 1
# 1 31 1
# 32 66 0
# 67 95 0
VERSION 0.7
FIELDS x y z normal_x normal_y normal_z curvature
SIZE 4 4 4 4 4 4 4
TYPE F F F F F F F
COUNT 1 1 1 1 1 1 1
WIDTH 95
HEIGHT 1
VIEWPOINT 0 0 0 1 0 0 0
POINTS 95
DATA ascii
25.73189900 20.03980100 501.20499000 -0.07442230 -0.51408100 0.85450703 1.905766e-42
24.36980100 21.20030000 501.39899000 -0.09181360 -0.47873601 0.87314498 1.905766e-42
21.56069900 21.60129900 501.39200000 -0.08823800 -0.44175601 0.89278603 1.905766e-42
19.76260000 21.54229900 501.33301000 -0.08727220 -0.43240201 0.89744699 1.905766e-42
17.96850000 21.51660000 501.19101000 -0.08943170 -0.42717201 0.89973700 1.905766e-42
16.17670100 21.56690000 501.02600000 -0.10008600 -0.42098001 0.90153098 1.905766e-42
14.40010000 21.32119900 500.87399000 -0.11236200 -0.42453200 0.89841402 1.905766e-42
12.67250000 21.77050000 500.64200000 -0.12649600 -0.41098699 0.90282297 1.905766e-42
10.88760000 21.88229900 500.43799000 -0.14013700 -0.40673199 0.90273499 1.905766e-42
9.10723020 21.90620000 500.17401000 -0.15583000 -0.40498799 0.90094501 1.905766e-42
7.36516000 22.21120100 499.83899000 -0.17284600 -0.39375901 0.90281701 1.905766e-42
5.59942010 22.02350000 499.54401000 -0.18639100 -0.39771500 0.89837700 1.905766e-42
3.86988000 22.35660000 499.17300000 -0.19879299 -0.37954700 0.90356302 1.905766e-42
2.11771010 22.16500100 498.80801000 -0.20092800 -0.37762201 0.90389699 1.905766e-42
0.36800101 22.34400000 498.42499000 -0.20850299 -0.36305001 0.90814197 1.905766e-42
-1.36787000 22.39340000 497.95200000 -0.22036600 -0.35962299 0.90670300 1.905766e-42
-3.10987000 22.40119900 497.49799000 -0.23574500 -0.35919699 0.90299600 1.905766e-42
-4.83832980 22.43989900 496.99701000 -0.25165600 -0.35803601 0.89915502 1.905766e-42
-6.56360010 22.29509900 496.50500000 -0.26592401 -0.36490601 0.89226002 1.905766e-42
-8.27478030 22.13209900 495.97101000 -0.28009799 -0.36985999 0.88586098 1.905766e-42
-9.97698020 22.04999900 495.39099000 -0.29252800 -0.36667800 0.88316202 1.905766e-42
-11.63030000 21.61870000 494.82501000 -0.29486999 -0.37179300 0.88023901 1.905766e-42
-13.33060000 21.63760000 494.23499000 -0.29924899 -0.36161700 0.88299698 1.905766e-42
-14.99570000 21.61249900 493.55200000 -0.31150100 -0.36231700 0.87846100 1.905766e-42
-16.64399900 21.69400000 492.83301000 -0.33034199 -0.35839900 0.87316900 1.905766e-42
-18.31290100 21.51880100 492.18201000 -0.34928799 -0.36227900 0.86414802 1.905766e-42
-19.94910000 21.58760100 491.43500000 -0.35735700 -0.35767400 0.86276603 1.905766e-42
-21.47990000 20.89270000 490.79199000 -0.35151899 -0.38307700 0.85421699 1.905766e-42
-23.06979900 20.58869900 490.00400000 -0.35060799 -0.39089400 0.85104400 1.905766e-42
-24.59050000 20.07110000 489.19199000 -0.35737300 -0.41860399 0.83489799 1.905766e-42
-26.19780000 20.02000000 488.38300000 -0.36679399 -0.42760900 0.82620400 1.905766e-42
-27.77590000 19.91939900 487.52301000 -0.37120399 -0.43646100 0.81957901 1.905766e-42
-27.39950000 18.27090100 486.90701000 -0.35840300 -0.50066501 0.78796101 1.905766e-42
-26.91970100 16.76639900 486.04300000 -0.34321499 -0.55306703 0.75915802 1.905766e-42
-26.54800000 15.26630000 485.12000000 -0.32771799 -0.58128798 0.74478501 1.905766e-42
-26.02269900 13.81720000 484.19000000 -0.31783000 -0.60272801 0.73191702 1.905766e-42
-25.20710000 12.40780000 483.42300000 -0.31270501 -0.61922997 0.72025698 1.905766e-42
-24.70249900 11.00510000 482.41400000 -0.30924499 -0.63392401 0.70887798 1.905766e-42
-24.03800000 9.63115020 481.45999000 -0.30954301 -0.64875799 0.69519502 1.905766e-42
-23.40710100 8.27196980 480.46301000 -0.30388400 -0.66467601 0.68254000 1.905766e-42
-22.73959900 6.95532990 479.43301000 -0.29642799 -0.68008602 0.67053300 1.905766e-42
-21.97450100 5.65848020 478.44601000 -0.28971899 -0.69338697 0.65975600 1.905766e-42
-21.16799900 4.45710990 477.37601000 -0.28552499 -0.70719200 0.64680302 1.905766e-42
-20.09380000 3.24671010 476.58801000 -0.27950299 -0.71998698 0.63521397 1.905766e-42
-19.05670000 2.12065010 475.64099000 -0.27559701 -0.73335803 0.62147498 1.905766e-42
-18.26460100 0.97951299 474.49600000 -0.27266899 -0.74926603 0.60353303 1.905766e-42
-16.82060100 -0.00083081 474.05600000 -0.26061600 -0.75858098 0.59718901 1.905766e-42
-15.29510000 -0.81289798 473.55301000 -0.24889199 -0.76521999 0.59370899 1.905766e-42
-13.97980000 -1.90153000 472.98300000 -0.24122700 -0.77014399 0.59049797 1.905766e-42
-12.72020000 -2.84229990 472.10599000 -0.23734701 -0.77179497 0.58991498 1.905766e-42
-11.16480000 -3.67563010 471.75101000 -0.23225200 -0.77262503 0.59085500 1.905766e-42
-9.62901020 -4.49263000 471.28799000 -0.22849600 -0.77554601 0.58848703 1.905766e-42
-7.93165020 -5.08640000 471.20801000 -0.22271800 -0.77571100 0.59048200 1.905766e-42
-6.71175000 -5.92948010 470.18799000 -0.22209500 -0.78746802 0.57494998 1.905766e-42
-5.02791980 -6.55991980 470.10300000 -0.21153501 -0.79242599 0.57211399 1.905766e-42
-3.43457010 -7.31595990 469.74301000 -0.20225599 -0.80119401 0.56318700 1.905766e-42
-1.89437000 -8.09062000 469.22501000 -0.19377001 -0.81139600 0.55144298 1.905766e-42
-0.23261499 -8.74160000 468.99100000 -0.18489400 -0.81695402 0.54626000 1.905766e-42
1.14457000 -9.41057970 468.04501000 -0.19050500 -0.82239401 0.53607398 1.905766e-42
2.75863000 -10.00730000 467.51700000 -0.20000400 -0.81404197 0.54528397 1.905766e-42
4.42822980 -10.60640000 467.21100000 -0.21130000 -0.79213500 0.57260299 1.905766e-42
6.14299010 -11.15030000 467.27200000 -0.21352901 -0.75529301 0.61962801 1.905766e-42
7.61224990 -11.83140000 466.48700000 -0.24289300 -0.69986302 0.67171001 1.905766e-42
9.07878970 -12.70500000 467.05801000 -0.23715800 -0.64058000 0.73035097 1.905766e-42
10.76050000 -13.33250000 467.19199000 -0.24028100 -0.55926400 0.79340303 1.905766e-42
12.37830000 -13.75510000 466.52600000 -0.25172701 -0.45838800 0.85235798 1.905766e-42
14.04700000 -14.16850000 467.06000000 -0.16551100 -0.41052100 0.89670402 1.905766e-42
15.64980000 -13.74800000 467.76300000 -0.10170300 -0.43880200 0.89280999 1.905766e-42
17.15800100 -12.94580000 468.32999000 -0.06498700 -0.51708400 0.85346401 1.905766e-42
18.11570000 -11.70980000 469.22101000 -0.06315230 -0.63998300 0.76578999 1.905766e-42
18.97950000 -10.61450000 470.35901000 -0.07235070 -0.75562400 0.65099698 1.905766e-42
19.57880000 -9.56838990 471.69601000 -0.05953310 -0.77663302 0.62713403 1.905766e-42
20.36990000 -8.57087990 472.96799000 -0.04816570 -0.77406400 0.63127202 1.905766e-42
21.12150000 -7.51709990 474.21899000 -0.04537870 -0.77215397 0.63381302 1.905766e-42
21.65300000 -6.47822000 475.58899000 -0.05032180 -0.76963502 0.63649797 1.905766e-42
22.09980000 -5.41389990 476.97101000 -0.05426270 -0.76664901 0.63976902 1.905766e-42
22.92210000 -4.36485000 478.17999000 -0.05363130 -0.76476902 0.64206898 1.905766e-42
23.20850000 -3.28574990 479.59201000 -0.05427900 -0.76194203 0.64536601 1.905766e-42
23.77080000 -2.19701000 480.91101000 -0.05314960 -0.76049298 0.64716703 1.905766e-42
23.82420000 -1.09286000 482.33099000 -0.05535730 -0.75825799 0.64960003 1.905766e-42
24.38150000 -0.03082530 483.67300000 -0.05585980 -0.75650197 0.65160102 1.905766e-42
24.71970000 1.21310000 484.92999000 -0.05722810 -0.75169498 0.65702403 1.905766e-42
24.82440000 2.39907000 486.28000000 -0.05691680 -0.73723799 0.67323202 1.905766e-42
24.75810100 3.57219000 487.64301000 -0.05721550 -0.72194600 0.68957901 1.905766e-42
24.66160000 4.82126000 488.93600000 -0.05725620 -0.70603800 0.70585603 1.905766e-42
24.91000000 6.08679010 490.19101000 -0.05621690 -0.69242901 0.71929300 1.905766e-42
25.20840100 7.38107010 491.40601000 -0.05630950 -0.68076599 0.73033297 1.905766e-42
25.62870000 8.69106010 492.56699000 -0.05649060 -0.66859198 0.74148101 1.905766e-42
25.56340000 10.02040000 493.77899000 -0.05793920 -0.65513998 0.75328201 1.905766e-42
25.72130000 11.35920000 494.97198000 -0.05893230 -0.64290601 0.76367402 1.905766e-42
25.50580000 12.74360000 496.10199000 -0.05983990 -0.62935400 0.77481198 1.905766e-42
25.73990100 14.15240000 497.19699000 -0.05835740 -0.61432701 0.78688997 1.905766e-42
26.03850000 15.52790000 498.31900000 -0.05140550 -0.58687800 0.80804199 1.905766e-42
25.97930000 17.00190000 499.35101000 -0.05023270 -0.55964297 0.82721001 1.905766e-42
26.07869900 18.48650000 500.36401000 -0.05781700 -0.53755200 0.84124601 1.905766e-42
