# .PCD v0.7 - Point Cloud Data file format
# 4 140 0
# 1 34 0
# 35 74 0
# 75 115 0
# 116 140 0
VERSION 0.7
FIELDS x y z normal_x normal_y normal_z curvature
SIZE 4 4 4 4 4 4 4
TYPE F F F F F F F
COUNT 1 1 1 1 1 1 1
WIDTH 140
HEIGHT 1
VIEWPOINT 0 0 0 1 0 0 0
POINTS 140
DATA ascii
32.24240100 18.77630000 516.81299000 0.43009099 -0.69649100 0.57438803 1.905766e-42
30.73380100 18.47090000 517.74597000 0.41603401 -0.69885200 0.58182698 1.905766e-42
29.13040000 17.70680000 518.03802000 0.40047100 -0.70490903 0.58542800 1.905766e-42
27.58970100 17.60440100 518.96301000 0.38524699 -0.71009701 0.58936203 1.905766e-42
26.00779900 17.65180000 519.82001000 0.37026799 -0.71649802 0.59121299 1.905766e-42
22.40060000 17.25729900 521.41302000 0.32604399 -0.73449898 0.59515297 1.905766e-42
20.81410000 16.79640000 522.12799000 0.30450201 -0.74226600 0.59692597 1.905766e-42
19.12360000 16.74869900 522.74402000 0.28371400 -0.74921697 0.59848100 1.905766e-42
17.40070000 16.47850000 523.19000000 0.26197699 -0.75607097 0.59977001 1.905766e-42
15.76790000 16.53680000 523.94501000 0.24254601 -0.76165402 0.60087800 1.905766e-42
14.08440000 16.69020100 524.56299000 0.22337300 -0.76686400 0.60168397 1.905766e-42
12.34580000 16.69890000 525.02899000 0.20354301 -0.77178901 0.60242099 1.905766e-42
10.66980000 16.04250000 525.04797000 0.18276300 -0.77690798 0.60250503 1.905766e-42
8.92094040 15.96160000 525.46600000 0.16252500 -0.78089201 0.60315198 1.905766e-42
7.20173980 15.97890000 525.99902000 0.14267100 -0.78404599 0.60408401 1.905766e-42
5.56150010 16.48090000 526.54401000 0.12444700 -0.78581899 0.60580599 1.905766e-42
3.83273010 16.53970000 527.04199000 0.10411000 -0.78787702 0.60696799 1.905766e-42
2.06172990 16.24700000 527.17603000 0.08354770 -0.79126197 0.60574299 1.905766e-42
0.32165900 16.39209900 527.61298000 0.06357950 -0.79334199 0.60544598 1.905766e-42
-1.36064000 16.73950000 528.15100000 0.04429090 -0.79455900 0.60557002 1.905766e-42
-3.14197990 16.79620000 528.40302000 0.02260970 -0.79666799 0.60399401 1.905766e-42
-4.88558010 17.01280000 528.79401000 0.00169264 -0.79765302 0.60311401 1.905766e-42
-6.61391020 17.34650000 529.16998000 -0.01891210 -0.79783899 0.60257399 1.905766e-42
-8.19620040 18.03010000 529.68903000 -0.03364740 -0.79764003 0.60219502 1.905766e-42
-9.92914010 18.33079900 530.07202000 -0.05101700 -0.79812503 0.60032803 1.905766e-42
-11.69650000 18.54800000 530.33502000 -0.06968430 -0.79844099 0.59802699 1.905766e-42
-13.37940000 19.10570000 530.64600000 -0.08786720 -0.79773700 0.59657001 1.905766e-42
-15.17700000 19.18680000 530.69202000 -0.10844700 -0.79738802 0.59364200 1.905766e-42
-16.83330000 19.78440100 531.06598000 -0.12848701 -0.79472798 0.59320998 1.905766e-42
-18.60530100 20.08700000 531.15802000 -0.15093701 -0.79156601 0.59214902 1.905766e-42
-20.23860000 20.75720000 531.50897000 -0.16908699 -0.78752100 0.59263802 1.905766e-42
-21.94179900 21.32379900 531.64203000 -0.18604200 -0.78449202 0.59157503 1.905766e-42
-23.72590100 21.52820000 531.51801000 -0.20246400 -0.78336698 0.58766001 1.905766e-42
-25.37990000 22.19190000 531.77100000 -0.21584500 -0.78082001 0.58628500 1.905766e-42
-27.11039900 22.34630000 531.29999000 -0.23131099 -0.78208601 0.57865101 1.905766e-42
-28.06900000 21.66020000 529.94000000 -0.24698199 -0.79101598 0.55972701 1.905766e-42
-28.79670000 20.84520000 528.51001000 -0.26103601 -0.79749799 0.54392803 1.905766e-42
-28.56220100 19.79740000 527.06500000 -0.26566100 -0.80248600 0.53426600 1.905766e-42
-28.74080100 18.85650100 525.54102000 -0.27365899 -0.80668300 0.52380699 1.905766e-42
-29.28879900 18.06119900 524.02197000 -0.28458500 -0.81023401 0.51238000 1.905766e-42
-29.56110000 17.21040000 522.45898000 -0.29360199 -0.81428099 0.50074399 1.905766e-42
-29.59120000 16.25120000 520.93597000 -0.30005801 -0.81797200 0.49080300 1.905766e-42
-29.54190100 15.34410000 519.38300000 -0.30588400 -0.82122898 0.48168200 1.905766e-42
-30.31660100 14.84460000 517.83600000 -0.31865400 -0.82313800 0.47000399 1.905766e-42
-30.36150000 13.88990000 516.31097000 -0.32503501 -0.82545400 0.46149501 1.905766e-42
-30.26650000 13.01100000 514.74298000 -0.33025199 -0.82697600 0.45502099 1.905766e-42
-30.45019900 12.20300000 513.14502000 -0.33774599 -0.82800502 0.44758901 1.905766e-42
-30.82910000 11.47050000 511.54501000 -0.34661201 -0.82869703 0.43945599 1.905766e-42
-31.18709900 10.92930000 509.86600000 -0.35561299 -0.82918900 0.43125999 1.905766e-42
-31.04730000 9.96887020 508.35001000 -0.36034101 -0.82999003 0.42575800 1.905766e-42
-31.30870100 9.28374960 506.70700000 -0.36829600 -0.83038503 0.41811201 1.905766e-42
-31.63480000 8.71362020 505.03101000 -0.37718400 -0.83067799 0.40952000 1.905766e-42
-31.67960000 7.82120990 503.46799000 -0.38414499 -0.83100498 0.40232199 1.905766e-42
-31.72760000 7.04708000 501.84399000 -0.39231500 -0.83077198 0.39484999 1.905766e-42
-31.20960000 6.09028010 500.41000000 -0.39697000 -0.82987398 0.39207700 1.905766e-42
-31.44980000 5.40073010 498.76501000 -0.40939701 -0.82740402 0.38444301 1.905766e-42
-31.70540000 4.78284980 497.09299000 -0.42124000 -0.82447100 0.37789401 1.905766e-42
-31.92410100 4.18708990 495.40900000 -0.43155399 -0.82250899 0.37046000 1.905766e-42
-31.90959900 3.42859010 493.77701000 -0.43854901 -0.82180703 0.36374101 1.905766e-42
-32.23650000 3.08347990 492.04001000 -0.44997901 -0.82006598 0.35356900 1.905766e-42
-32.01969900 2.12019990 490.53500000 -0.45354500 -0.82076502 0.34733599 1.905766e-42
-32.17480100 1.49538000 488.85501000 -0.46204501 -0.82018101 0.33736899 1.905766e-42
-32.01929900 0.71323800 487.24100000 -0.46712801 -0.82119501 0.32776499 1.905766e-42
-31.46719900 -0.20042001 485.79199000 -0.46872899 -0.82332301 0.32004899 1.905766e-42
-30.87330100 -0.90790999 484.24701000 -0.47238100 -0.82462299 0.31121099 1.905766e-42
-30.13590000 -1.96747000 482.99200000 -0.47446299 -0.82525498 0.30633000 1.905766e-42
-29.49650000 -2.91128990 481.59900000 -0.48052001 -0.82372499 0.30096099 1.905766e-42
-29.00230000 -3.67899990 480.04800000 -0.48742399 -0.81794697 0.30558100 1.905766e-42
-28.35829900 -4.62378980 478.65799000 -0.49073800 -0.81135201 0.31762299 1.905766e-42
-27.66200100 -5.59164000 477.30899000 -0.48587900 -0.81225598 0.32273999 1.905766e-42
-27.06160000 -6.35840990 475.79501000 -0.48003101 -0.81645000 0.32090399 1.905766e-42
-26.29660000 -7.44070010 474.57700000 -0.47125199 -0.82421798 0.31398401 1.905766e-42
-25.59680000 -8.34253980 473.18600000 -0.46313199 -0.83356100 0.30114001 1.905766e-42
-24.76009900 -9.34364990 471.94601000 -0.45406899 -0.84453702 0.28386301 1.905766e-42
-24.00460100 -10.17470000 470.53900000 -0.44538999 -0.85631901 0.26142901 1.905766e-42
-22.38489900 -10.95070000 470.41901000 -0.43806499 -0.86300302 0.25164300 1.905766e-42
-20.66400000 -11.47670000 470.37500000 -0.43381900 -0.86636198 0.24742299 1.905766e-42
-19.45509900 -11.97690000 471.61099000 -0.42776600 -0.86334801 0.26766899 1.905766e-42
-17.80690000 -12.63100000 471.92001000 -0.41730201 -0.86495697 0.27876300 1.905766e-42
-16.14510000 -13.31980000 471.98300000 -0.40454301 -0.86728698 0.29010001 1.905766e-42
-14.60260000 -14.00570000 472.60800000 -0.38496301 -0.86858100 0.31204399 1.905766e-42
-12.94830000 -14.69020000 472.79501000 -0.36551800 -0.87028497 0.33015200 1.905766e-42
-11.19580000 -15.10050000 472.79099000 -0.34521201 -0.87150502 0.34829199 1.905766e-42
-9.48209950 -15.65130000 472.79401000 -0.32407901 -0.87196302 0.36695099 1.905766e-42
-7.94876000 -16.20870000 473.55499000 -0.29651901 -0.87029898 0.39326301 1.905766e-42
-6.22168020 -16.71500000 473.58301000 -0.27393800 -0.86917800 0.41168800 1.905766e-42
-4.47144990 -17.13509900 473.59698000 -0.25015199 -0.86745399 0.43005601 1.905766e-42
-2.84994010 -17.54490100 474.26300000 -0.22029200 -0.86320001 0.45426601 1.905766e-42
-1.08500000 -17.88670000 474.35300000 -0.19367500 -0.85971397 0.47263300 1.905766e-42
0.62109601 -17.93689900 474.92401000 -0.16154000 -0.85241002 0.49729499 1.905766e-42
2.33937000 -18.27829900 474.51099000 -0.14004500 -0.85060298 0.50681502 1.905766e-42
4.13160990 -18.38789900 474.38501000 -0.11527600 -0.84782600 0.51759303 1.905766e-42
5.79287000 -18.57510000 475.05200000 -0.08694880 -0.84392101 0.52937400 1.905766e-42
7.58231020 -18.72330100 475.17801000 -0.05932560 -0.83946198 0.54017001 1.905766e-42
9.37860970 -18.83700000 475.19800000 -0.03152550 -0.83429402 0.55041802 1.905766e-42
11.17810000 -18.87509900 475.18201000 -0.00313453 -0.82829702 0.56028098 1.905766e-42
12.97720000 -18.81870100 475.18701000 0.02647430 -0.82143003 0.56969398 1.905766e-42
14.77190000 -18.68160100 475.16400000 0.05959740 -0.81446201 0.57714802 1.905766e-42
16.53060000 -18.29940000 475.18799000 0.09346940 -0.80635297 0.58400202 1.905766e-42
17.92160000 -17.63830000 476.12000000 0.12409000 -0.79682398 0.59133202 1.905766e-42
19.48930000 -16.94689900 476.67200000 0.15568200 -0.78665203 0.59744602 1.905766e-42
21.14629900 -16.72820100 476.00299000 0.18339400 -0.77963799 0.59877503 1.905766e-42
22.72410000 -16.13950000 476.63901000 0.20961800 -0.77416700 0.59726602 1.905766e-42
24.34900100 -15.44750000 476.98599000 0.23591900 -0.76853698 0.59472102 1.905766e-42
25.88789900 -14.67620000 477.51300000 0.26078701 -0.76242697 0.59219497 1.905766e-42
27.54880000 -13.98630000 477.58600000 0.28828299 -0.75418800 0.58999401 1.905766e-42
29.15320000 -13.17020000 477.57901000 0.31566000 -0.74424201 0.58861101 1.905766e-42
30.42450000 -12.11520000 478.29300000 0.34022099 -0.73564500 0.58572799 1.905766e-42
31.98090000 -11.21230000 478.34299000 0.36809701 -0.72324598 0.58431101 1.905766e-42
33.50709900 -10.25870000 478.38199000 0.39483500 -0.71190703 0.58077002 1.905766e-42
34.74729900 -9.16936020 479.10001000 0.41754901 -0.70522797 0.57297999 1.905766e-42
36.23650000 -8.16119960 479.17599000 0.44259700 -0.69445902 0.56730402 1.905766e-42
37.65359900 -7.06761980 479.36600000 0.46622100 -0.68466699 0.56023997 1.905766e-42
39.08430100 -5.99247980 479.17401000 0.48918599 -0.67357099 0.55407500 1.905766e-42
40.33950000 -4.86231990 479.79599000 0.50765300 -0.66812003 0.54396999 1.905766e-42
41.28970000 -3.65363000 480.73199000 0.52073002 -0.66670102 0.53324598 1.905766e-42
41.63420100 -2.31051990 481.88000000 0.52733397 -0.66710401 0.52620399 1.905766e-42
41.78630100 -1.00223000 483.10699000 0.53083402 -0.66813099 0.52135998 1.905766e-42
41.46149800 -0.13538501 484.65100000 0.52712500 -0.67180902 0.52039599 1.905766e-42
41.56769900 1.00247000 486.04099000 0.52822101 -0.67227298 0.51868302 1.905766e-42
40.91090000 1.69188000 487.56900000 0.52161402 -0.67591399 0.52063400 1.905766e-42
40.70389900 2.68387010 489.05701000 0.52006501 -0.67699498 0.52077901 1.905766e-42
40.36370100 3.54845000 490.59799000 0.51698798 -0.67956501 0.52049500 1.905766e-42
39.42240100 3.94444990 492.08099000 0.50838101 -0.68450302 0.52249902 1.905766e-42
39.35150100 5.06041000 493.49100000 0.50976002 -0.68371600 0.52218503 1.905766e-42
38.35940200 5.39091010 494.95599000 0.50114298 -0.68829697 0.52450198 1.905766e-42
38.33060100 6.65170000 496.24100000 0.50489199 -0.68534499 0.52477199 1.905766e-42
37.66719800 7.13955020 497.84100000 0.50003302 -0.68749702 0.52660698 1.905766e-42
37.60459900 8.22542950 499.27499000 0.49973500 -0.68646002 0.52824003 1.905766e-42
36.57370000 8.53814030 500.71701000 0.48374501 -0.69223601 0.53553599 1.905766e-42
36.21070100 9.45559020 502.22299000 0.47810000 -0.69213301 0.54071403 1.905766e-42
36.12300100 10.56320000 503.63901000 0.47687200 -0.68939298 0.54527903 1.905766e-42
35.82020200 11.57220000 505.09900000 0.47336400 -0.68723202 0.55103397 1.905766e-42
35.33549900 12.41810000 506.61200000 0.46841800 -0.68593299 0.55684900 1.905766e-42
34.80040000 13.22870000 508.12701000 0.46254399 -0.68892401 0.55806500 1.905766e-42
34.62590000 14.24710000 509.60101000 0.45956701 -0.69315201 0.55528200 1.905766e-42
34.39040000 15.30610000 511.03699000 0.45684800 -0.69596303 0.55400902 1.905766e-42
34.25690100 16.43219900 512.43500000 0.45499599 -0.69724602 0.55391997 1.905766e-42
33.69860100 17.18520000 513.97198000 0.45086199 -0.69784802 0.55653501 1.905766e-42
33.19360000 18.02770000 515.47998000 0.44114599 -0.69745702 0.56475103 1.905766e-42
