# .PCD v0.7 - Point Cloud Data file format
# 3 73 0
# 1 28 0
# 29 53 0
# 54 73 0
VERSION 0.7
FIELDS x y z normal_x normal_y normal_z curvature
SIZE 4 4 4 4 4 4 4
TYPE F F F F F F F
COUNT 1 1 1 1 1 1 1
WIDTH 73
HEIGHT 1
VIEWPOINT 0 0 0 1 0 0 0
POINTS 73
DATA ascii
18.95870000 -3.57402990 466.02399000 0.14377800 0.89566302 -0.42085099 1.905766e-42
17.95710000 -4.68922000 463.19400000 0.11255500 0.92441702 -0.36439699 1.905766e-42
16.35650100 -4.16371010 463.82800000 0.11815100 0.90309900 -0.41285899 1.905766e-42
14.90090000 -3.64662000 464.75201000 0.11809000 0.89579600 -0.42849001 1.905766e-42
13.96720000 -2.76309990 466.01199000 0.11939500 0.89115500 -0.43770799 1.905766e-42
12.75800000 -2.05467010 467.14200000 0.12235700 0.88536203 -0.44851100 1.905766e-42
11.18390000 -1.48814000 467.80600000 0.12120200 0.87761402 -0.46379301 1.905766e-42
9.44221970 -1.07003000 467.98401000 0.10861800 0.86937600 -0.48206699 1.905766e-42
8.33246990 -0.30203700 469.17499000 0.10231200 0.86095202 -0.49829099 1.905766e-42
7.27265980 0.51232201 470.38101000 0.09500340 0.85351700 -0.51233202 1.905766e-42
6.48012020 1.41652000 471.72000000 0.09850860 0.84613198 -0.52379102 1.905766e-42
5.26236010 2.25622010 472.74600000 0.08163020 0.83657199 -0.54174203 1.905766e-42
4.67832990 3.20966010 474.15601000 0.07909440 0.83359498 -0.54668403 1.905766e-42
3.27386000 3.93777990 475.01501000 0.02453750 0.81754798 -0.57533801 1.905766e-42
2.06014990 4.53840020 476.20099000 -0.02071580 0.79363197 -0.60804498 1.905766e-42
0.72677702 5.17817020 477.22699000 0.00211019 0.74070603 -0.67182600 1.905766e-42
-0.42912599 6.14466000 478.21201000 0.04986860 0.69831401 -0.71405202 1.905766e-42
-0.82476002 7.61448000 479.17200000 0.11686800 0.69200099 -0.71237397 1.905766e-42
-1.62410000 8.83708950 480.22400000 0.15707400 0.69893700 -0.69772100 1.905766e-42
-2.82917000 9.93212990 480.99200000 0.16226301 0.70739800 -0.68793797 1.905766e-42
-4.57382010 10.34060000 481.16299000 0.12822101 0.68845302 -0.71385700 1.905766e-42
-5.92296980 11.23640000 481.94800000 0.12792800 0.68449402 -0.71770602 1.905766e-42
-6.50679020 12.57150000 483.00500000 0.16644500 0.68875098 -0.70563298 1.905766e-42
-7.03589010 13.92430000 484.06799000 0.20188600 0.68531400 -0.69970500 1.905766e-42
-8.36548040 14.88140000 484.81400000 0.21439201 0.66554898 -0.71489900 1.905766e-42
-8.68494030 16.26520000 485.92001000 0.21215400 0.69015700 -0.69186300 1.905766e-42
-10.15330000 17.21200000 486.35300000 0.20012800 0.71272701 -0.67228597 1.905766e-42
-10.83010000 18.41010100 487.51300000 0.20943600 0.76382899 -0.61049300 1.905766e-42
-11.72890000 19.38430000 488.73099000 0.22037400 0.81589597 -0.53455400 1.905766e-42
-10.04510000 19.36100000 489.36700000 0.20103399 0.83380502 -0.51415402 1.905766e-42
-8.40884970 19.36660000 490.11700000 0.19045600 0.84952301 -0.49197301 1.905766e-42
-6.82004980 19.30509900 490.96100000 0.18646801 0.86847800 -0.45932099 1.905766e-42
-5.03102020 19.21069900 491.13501000 0.17388700 0.87016499 -0.46105900 1.905766e-42
-3.23910000 19.04700100 491.18301000 0.15826000 0.85748398 -0.48956600 1.905766e-42
-1.60479000 19.07320000 491.93701000 0.16020399 0.87212801 -0.46230701 1.905766e-42
0.18048900 18.85140000 491.99701000 0.17542800 0.86210299 -0.47539800 1.905766e-42
1.93927000 18.48119900 491.89899000 0.18180300 0.84496099 -0.50297898 1.905766e-42
3.46680000 18.45529900 492.85001000 0.15986601 0.87256098 -0.46160701 1.905766e-42
5.12382980 18.41460000 493.55200000 0.14844400 0.88574398 -0.43979800 1.905766e-42
6.91618010 18.25110100 493.57999000 0.15177600 0.87918103 -0.45166799 1.905766e-42
8.71014020 18.10430000 493.59201000 0.15257700 0.87546402 -0.45856601 1.905766e-42
10.49740000 17.89090000 493.59799000 0.14399000 0.87114102 -0.46944600 1.905766e-42
12.16280000 17.66190000 494.24200000 0.13500600 0.87983799 -0.45569599 1.905766e-42
13.85550000 17.33569900 493.72400000 0.13856600 0.85543799 -0.49902400 1.905766e-42
15.54720000 17.26330000 494.33499000 0.14244799 0.87380701 -0.46494001 1.905766e-42
17.32810000 17.00890000 494.39801000 0.14369600 0.87556797 -0.46122801 1.905766e-42
19.10870000 16.74550100 494.39700000 0.14008200 0.87718999 -0.45925501 1.905766e-42
20.77140000 16.33630000 493.84201000 0.12610500 0.85804999 -0.49784401 1.905766e-42
22.50420000 16.15800100 494.29501000 0.11769100 0.87525803 -0.46912000 1.905766e-42
24.29120100 15.95230000 494.36099000 0.12221700 0.87514102 -0.46817800 1.905766e-42
25.94080000 15.55770000 493.75900000 0.13375400 0.85083002 -0.50813198 1.905766e-42
27.70200000 15.22200000 493.59799000 0.12709001 0.83760202 -0.53129202 1.905766e-42
29.47520100 14.91260000 493.59500000 0.07683150 0.82346398 -0.56214303 1.905766e-42
31.12270000 14.40800000 493.07501000 0.02035470 0.77427799 -0.63251799 1.905766e-42
30.52080000 13.25910000 491.82700000 0.09184250 0.73309702 -0.67389399 1.905766e-42
29.70170000 12.12610000 490.69299000 0.13286200 0.71416998 -0.68724698 1.905766e-42
29.87010000 11.02550000 489.27899000 0.15146400 0.71180397 -0.68585300 1.905766e-42
29.13820100 10.04410000 487.95901000 0.13300800 0.72521698 -0.67555100 1.905766e-42
28.78350100 8.84780030 486.66199000 0.12004200 0.73562902 -0.66666299 1.905766e-42
28.15710100 7.79308990 485.34399000 0.11073600 0.74423599 -0.65867299 1.905766e-42
27.95830000 6.62140990 483.99200000 0.11737200 0.75331998 -0.64709502 1.905766e-42
27.92530100 5.38048980 482.68900000 0.12596400 0.76086700 -0.63656503 1.905766e-42
27.40600000 4.38107010 481.28500000 0.12979600 0.77256298 -0.62152898 1.905766e-42
26.23230000 3.70707010 480.09799000 0.12815800 0.78687298 -0.60366100 1.905766e-42
26.39699900 2.62727000 478.66800000 0.14008000 0.79663599 -0.58800298 1.905766e-42
25.68079900 1.71175000 477.29300000 0.14508000 0.80931300 -0.56917900 1.905766e-42
25.05950000 0.78339601 475.88199000 0.15124901 0.82159400 -0.54964203 1.905766e-42
24.15730100 0.12700801 474.46899000 0.15464500 0.83336699 -0.53064603 1.905766e-42
23.29820100 -0.71500200 473.13000000 0.15931100 0.84514099 -0.51025099 1.905766e-42
22.23770000 -1.24281000 471.77499000 0.16060400 0.85723197 -0.48924401 1.905766e-42
20.99119900 -1.57518990 470.51999000 0.15686101 0.86828798 -0.47060701 1.905766e-42
20.16169900 -2.16694000 469.03601000 0.15348300 0.87798500 -0.45341399 1.905766e-42
19.24810000 -2.75462010 467.60101000 0.15102400 0.88874602 -0.43280801 1.905766e-42
