# .PCD v0.7 - Point Cloud Data file format
# 4 172 0
# 1 63 0
# 64 80 0
# 81 131 0
# 132 172 0
VERSION 0.7
FIELDS x y z normal_x normal_y normal_z curvature
SIZE 4 4 4 4 4 4 4
TYPE F F F F F F F
COUNT 1 1 1 1 1 1 1
WIDTH 172
HEIGHT 1
VIEWPOINT 0 0 0 1 0 0 0
POINTS 172
DATA ascii
86.79579900 11.47400000 446.29501000 0.16968700 -0.74417502 0.64607298 1.905766e-42
86.72740200 12.56850000 447.72299000 0.16028400 -0.73199302 0.66219002 1.905766e-42
85.48470300 13.24070000 448.83801000 0.15728401 -0.71614701 0.67999601 1.905766e-42
84.33239700 14.08720000 449.93100000 0.15534700 -0.69805199 0.69899201 1.905766e-42
83.12619800 14.91620000 450.97900000 0.15626401 -0.67898703 0.71732700 1.905766e-42
81.67279800 15.37440000 451.93701000 0.16036700 -0.66639698 0.72814697 1.905766e-42
80.24749800 15.97030000 452.86099000 0.16467300 -0.65676898 0.73589301 1.905766e-42
79.16069800 16.92580000 453.93100000 0.16775800 -0.64739799 0.74346000 1.905766e-42
77.99939700 17.92720000 454.87399000 0.17201699 -0.63886303 0.74984300 1.905766e-42
76.43080100 18.30670000 455.67099000 0.18003400 -0.63230699 0.75350899 1.905766e-42
75.14320400 19.28150000 456.46600000 0.18579200 -0.62319601 0.75967598 1.905766e-42
73.70819900 19.76210000 457.44101000 0.19306099 -0.61366397 0.76560003 1.905766e-42
72.24729900 20.25510000 458.37000000 0.17763899 -0.60496199 0.77618599 1.905766e-42
70.80500000 21.06950000 459.07401000 0.16277100 -0.59399599 0.78782898 1.905766e-42
69.20140100 21.46170000 459.79199000 0.14838700 -0.58535701 0.79708099 1.905766e-42
67.83529700 22.38880000 460.50900000 0.13706000 -0.57271200 0.80821800 1.905766e-42
66.15080300 22.69590000 461.06400000 0.12529400 -0.56731600 0.81391299 1.905766e-42
64.49210400 23.22440000 461.52100000 0.11500800 -0.56251401 0.81875002 1.905766e-42
62.81589900 23.64250000 462.02701000 0.10550100 -0.56079400 0.82120597 1.905766e-42
61.17599900 23.90189900 462.72198000 0.09673790 -0.56190997 0.82152200 1.905766e-42
59.45830200 24.24239900 463.13901000 0.08684380 -0.56392503 0.82124698 1.905766e-42
57.78270000 24.71229900 463.59900000 0.07776390 -0.56359202 0.82238501 1.905766e-42
56.03130000 24.89349900 463.97299000 0.06787270 -0.56403297 0.82295799 1.905766e-42
54.33520100 25.38719900 464.31799000 0.05907690 -0.56139702 0.82543498 1.905766e-42
52.59080100 25.57020000 464.72299000 0.05026230 -0.55906898 0.82759702 1.905766e-42
50.87590000 26.07119900 464.94199000 0.04208250 -0.55437499 0.83120197 1.905766e-42
49.11990000 26.32720000 465.24301000 0.03429440 -0.54973602 0.83463401 1.905766e-42
47.39099900 26.76940000 465.47800000 0.02713930 -0.54318601 0.83917397 1.905766e-42
45.66420000 27.23910000 465.67200000 0.02286390 -0.53750002 0.84295398 1.905766e-42
43.97219800 26.62960100 465.59799000 0.01850060 -0.54181898 0.84029198 1.905766e-42
42.38550200 27.30139900 466.11899000 0.01390550 -0.53523099 0.84459198 1.905766e-42
40.74179800 27.96579900 466.42999000 0.00933015 -0.53086901 0.84740299 1.905766e-42
38.94820000 27.98749900 466.57901000 0.00317115 -0.53250700 0.84641999 1.905766e-42
37.22650100 28.44650100 466.83499000 -0.00238887 -0.53195500 0.84676898 1.905766e-42
35.45100000 28.72020000 466.94699000 -0.00902674 -0.53396797 0.84545600 1.905766e-42
33.74340100 29.25149900 467.15100000 -0.01496670 -0.53528500 0.84453899 1.905766e-42
31.96880000 29.51030000 467.30600000 -0.02408670 -0.53832102 0.84239501 1.905766e-42
30.17130100 29.53089900 467.39999000 -0.03631040 -0.54045200 0.84059101 1.905766e-42
28.44170000 29.98720000 467.60001000 -0.04682950 -0.53933501 0.84078801 1.905766e-42
26.67840000 30.32119900 467.73901000 -0.05712310 -0.53744000 0.84136498 1.905766e-42
24.88139900 30.35740100 467.64001000 -0.06653000 -0.53588998 0.84166300 1.905766e-42
23.08740000 30.36330000 467.49399000 -0.07478320 -0.53367800 0.84237498 1.905766e-42
21.48780100 31.15469900 467.72900000 -0.08324500 -0.52669698 0.84596699 1.905766e-42
19.72460000 31.50729900 467.81000000 -0.09107080 -0.52068198 0.84887999 1.905766e-42
17.94549900 31.78089900 467.79901000 -0.09809480 -0.51454902 0.85183102 1.905766e-42
16.15959900 31.94490100 467.64600000 -0.10538200 -0.50930101 0.85411203 1.905766e-42
14.43610000 32.46120100 467.70099000 -0.11428000 -0.50206900 0.85724401 1.905766e-42
12.66370000 32.77069900 467.64700000 -0.12339700 -0.49710301 0.85887301 1.905766e-42
11.07930000 33.57780100 467.92700000 -0.13264200 -0.48827201 0.86255199 1.905766e-42
9.38805010 34.19210100 467.97601000 -0.14226900 -0.48177901 0.86466700 1.905766e-42
7.92242000 34.78369900 467.99399000 -0.15082900 -0.47606701 0.86637801 1.905766e-42
6.23644020 35.41070200 467.92801000 -0.16083901 -0.47042701 0.86765701 1.905766e-42
4.48443980 35.82130100 467.88400000 -0.17126700 -0.46642601 0.86782199 1.905766e-42
2.74727990 36.29150000 467.85001000 -0.18142401 -0.46225199 0.86799097 1.905766e-42
0.99186802 36.67630000 467.74799000 -0.19181800 -0.45965299 0.86713600 1.905766e-42
-0.72913200 37.18140000 467.59601000 -0.20311600 -0.45682800 0.86605603 1.905766e-42
-2.44552990 37.71239900 467.48700000 -0.21523000 -0.45395401 0.86464000 1.905766e-42
-4.10893010 38.38140100 467.32700000 -0.22786500 -0.45046401 0.86322701 1.905766e-42
-5.77537010 39.03270000 467.13000000 -0.24142900 -0.44722199 0.86122298 1.905766e-42
-7.41663980 39.76310000 467.01700000 -0.25540301 -0.44302601 0.85935903 1.905766e-42
-9.12372970 40.26910000 466.75299000 -0.27102599 -0.44010699 0.85606700 1.905766e-42
-10.82140000 40.80519900 466.48700000 -0.29503000 -0.43253499 0.85198098 1.905766e-42
-12.46590000 41.51990100 466.32999000 -0.31865901 -0.42489499 0.84730202 1.905766e-42
-14.14830000 42.14149900 466.17801000 -0.33965901 -0.42059699 0.84126699 1.905766e-42
-15.65600000 41.77750000 465.26401000 -0.35968700 -0.42213601 0.83212203 1.905766e-42
-16.73480000 40.77119800 464.23300000 -0.37605900 -0.42839599 0.82161802 1.905766e-42
-18.07329900 40.08190200 463.24600000 -0.39690599 -0.43600401 0.80769199 1.905766e-42
-19.21400100 39.19419900 462.17401000 -0.41962701 -0.44867101 0.78905499 1.905766e-42
-19.87010000 37.91999800 461.08401000 -0.43614301 -0.45554700 0.77605200 1.905766e-42
-20.86120000 36.99520100 459.89999000 -0.45736900 -0.46035400 0.76084697 1.905766e-42
-21.88690000 36.10329800 458.72000000 -0.47912699 -0.46380299 0.74519998 1.905766e-42
-23.12120100 35.57659900 457.52100000 -0.50446498 -0.46476901 0.72767001 1.905766e-42
-24.01450000 34.57809800 456.31900000 -0.52471399 -0.46653900 0.71205097 1.905766e-42
-24.77440100 33.60329800 455.01001000 -0.54534602 -0.47118101 0.69324303 1.905766e-42
-25.80180000 33.02249900 453.65100000 -0.57030100 -0.47262001 0.67185402 1.905766e-42
-26.69829900 32.10960000 452.38501000 -0.59080601 -0.47449601 0.65253401 1.905766e-42
-27.62140100 31.38060000 451.02200000 -0.61141598 -0.47462800 0.63316602 1.905766e-42
-28.57570100 30.72310100 449.64499000 -0.63070601 -0.47349000 0.61483198 1.905766e-42
-29.50860000 30.32670000 448.15799000 -0.64973301 -0.47170499 0.59610498 1.905766e-42
-30.40790000 29.49099900 446.84100000 -0.66333902 -0.47309899 0.57979101 1.905766e-42
-30.47470100 28.14430000 445.64899000 -0.66488397 -0.48222199 0.57043099 1.905766e-42
-29.71950000 26.60370100 445.10400000 -0.65393603 -0.49804699 0.56948799 1.905766e-42
-29.03170000 25.19400000 444.22101000 -0.64519697 -0.51449603 0.56481498 1.905766e-42
-28.06489900 23.68969900 444.01599000 -0.62876499 -0.53337598 0.56582999 1.905766e-42
-27.29080000 22.27940000 443.20801000 -0.61670297 -0.55134100 0.56187201 1.905766e-42
-26.30760000 20.93350000 442.52899000 -0.59925002 -0.56691200 0.56525201 1.905766e-42
-25.26219900 19.47250000 442.41699000 -0.57635599 -0.58648300 0.56907898 1.905766e-42
-24.25009900 18.11290000 441.81100000 -0.55494797 -0.60685700 0.56899703 1.905766e-42
-23.19319900 16.66790000 441.62399000 -0.52844101 -0.62898803 0.57019699 1.905766e-42
-21.92980000 15.38580000 441.60501000 -0.49629501 -0.65153003 0.57375902 1.905766e-42
-20.90519900 14.06310000 440.94101000 -0.46848300 -0.67414999 0.57100499 1.905766e-42
-19.50799900 12.93540000 440.81400000 -0.42724100 -0.69714898 0.57571501 1.905766e-42
-18.64740000 11.79440000 439.72000000 -0.41581601 -0.71209902 0.56569600 1.905766e-42
-17.49990100 10.52010000 439.17300000 -0.39934999 -0.72611898 0.55970597 1.905766e-42
-16.19269900 9.38424970 438.68201000 -0.38124600 -0.73896700 0.55549902 1.905766e-42
-15.03750000 8.28610990 437.84601000 -0.36595601 -0.75057203 0.55019802 1.905766e-42
-13.65070000 7.21181010 437.44199000 -0.34707701 -0.76094103 0.54818499 1.905766e-42
-12.30210000 6.18591980 436.83499000 -0.32988101 -0.77091199 0.54486102 1.905766e-42
-11.41320000 5.24497990 435.58401000 -0.32079199 -0.78068602 0.53630298 1.905766e-42
-10.40420000 4.23349000 434.48901000 -0.31035101 -0.78978503 0.52907598 1.905766e-42
-8.94149970 3.18782000 434.40500000 -0.29197600 -0.79589200 0.53038299 1.905766e-42
-8.28073020 2.32809000 432.96899000 -0.28855300 -0.80321699 0.52113301 1.905766e-42
-7.05301000 1.24018000 432.22800000 -0.27775699 -0.80874002 0.51845098 1.905766e-42
-6.07088990 0.11552900 431.22198000 -0.27187699 -0.81581199 0.51042598 1.905766e-42
-5.53607990 -0.79184502 429.76300000 -0.27258700 -0.82747501 0.49089900 1.905766e-42
-4.72597980 -1.83895000 428.54300000 -0.26860300 -0.83892500 0.47334701 1.905766e-42
-4.22295000 -2.73154000 427.06299000 -0.26855800 -0.85107797 0.45115700 1.905766e-42
-3.27340010 -3.75170990 425.92401000 -0.26267299 -0.86181700 0.43390599 1.905766e-42
-2.27144000 -4.71686980 424.78201000 -0.25696000 -0.87172401 0.41721699 1.905766e-42
-1.68364000 -5.55891990 423.30301000 -0.25792599 -0.88184702 0.39474201 1.905766e-42
-1.23299000 -5.63911010 421.56299000 -0.26463801 -0.89501101 0.35905600 1.905766e-42
-0.43102500 -6.18863010 420.04800000 -0.26429200 -0.90518302 0.33285701 1.905766e-42
1.09444000 -6.74791000 419.27301000 -0.25604600 -0.91112202 0.32295099 1.905766e-42
2.46728990 -7.90926980 419.19199000 -0.24667200 -0.91428798 0.32129499 1.905766e-42
4.10378980 -8.65882970 419.19800000 -0.23441100 -0.91611999 0.32523200 1.905766e-42
5.85235020 -9.08603950 419.19400000 -0.21522500 -0.91841698 0.33194599 1.905766e-42
7.62451980 -9.40133950 419.19101000 -0.19627699 -0.91985500 0.33961999 1.905766e-42
9.18478010 -9.97266960 418.49899000 -0.18363400 -0.92586398 0.33023399 1.905766e-42
10.50230000 -10.44720000 417.36801000 -0.17561400 -0.93370903 0.31200400 1.905766e-42
12.13310000 -10.99470000 416.83801000 -0.16188800 -0.93798298 0.30656299 1.905766e-42
13.77760000 -11.49670000 416.30600000 -0.14846700 -0.94180399 0.30160001 1.905766e-42
15.45460000 -12.05910000 415.97198000 -0.13431799 -0.94435602 0.30025199 1.905766e-42
17.07399900 -12.52640000 415.34000000 -0.12236900 -0.94774401 0.29462901 1.905766e-42
18.64629900 -12.93240000 414.56400000 -0.11195200 -0.95113301 0.28777099 1.905766e-42
20.24589900 -13.26310000 413.80701000 -0.10093500 -0.95393503 0.28252599 1.905766e-42
21.72769900 -13.43620000 412.79999000 -0.09166990 -0.95705903 0.27501699 1.905766e-42
23.35220000 -13.87450000 412.16101000 -0.07932080 -0.95875698 0.27293599 1.905766e-42
24.87719900 -14.28160000 411.29599000 -0.06861190 -0.96068698 0.26902401 1.905766e-42
26.49700000 -14.60430000 410.57999000 -0.05605470 -0.96164298 0.26851401 1.905766e-42
28.27400000 -14.82780000 410.39999000 -0.03915760 -0.96083599 0.27433801 1.905766e-42
29.52510100 -15.08880000 409.13300000 -0.03232570 -0.96224099 0.27027401 1.905766e-42
31.29920000 -15.25100000 408.87500000 -0.02105790 -0.96030301 0.27816299 1.905766e-42
32.99269900 -14.97120000 409.41699000 -0.01337590 -0.95651299 0.29138401 1.905766e-42
34.21600000 -14.73590000 410.71600000 -0.00377825 -0.95251697 0.30446300 1.905766e-42
35.26910000 -14.31270000 412.11301000 0.00447200 -0.94831198 0.31730801 1.905766e-42
36.53789900 -13.86520000 413.30899000 0.01055300 -0.94400901 0.32975000 1.905766e-42
38.04069900 -13.58820000 414.26001000 0.01459870 -0.94017798 0.34037000 1.905766e-42
39.62020100 -13.17140000 415.01599000 0.01742850 -0.93681300 0.34939700 1.905766e-42
40.85670100 -12.74980000 416.25500000 0.01992310 -0.93244201 0.36077100 1.905766e-42
42.34209800 -12.32750000 417.17899000 0.02153010 -0.92943603 0.36835399 1.905766e-42
43.74020000 -11.89420000 418.22699000 0.02372390 -0.92626101 0.37613499 1.905766e-42
45.22510100 -11.42950000 419.13199000 0.02678860 -0.92328101 0.38318899 1.905766e-42
46.66899900 -10.97580000 420.10599000 0.03099710 -0.92006201 0.39054301 1.905766e-42
47.89350100 -10.49770000 421.33600000 0.03634940 -0.91633201 0.39876699 1.905766e-42
49.27959800 -10.02490000 422.38199000 0.04394720 -0.91277498 0.40609100 1.905766e-42
50.81309900 -9.44373990 423.12399000 0.05298210 -0.90873402 0.41399899 1.905766e-42
52.07320000 -8.72467990 424.19000000 0.06180380 -0.90248001 0.42627600 1.905766e-42
53.70090100 -8.10462000 424.64401000 0.07070890 -0.89822298 0.43381500 1.905766e-42
54.98020200 -7.64511010 425.82401000 0.07818890 -0.89242601 0.44436800 1.905766e-42
56.32320000 -7.07300000 426.87701000 0.08513740 -0.88710999 0.45363900 1.905766e-42
57.74689900 -6.44539020 427.78201000 0.09172220 -0.88250399 0.46127301 1.905766e-42
59.24440000 -5.72577000 428.47501000 0.09814500 -0.87879699 0.46699300 1.905766e-42
60.62929900 -5.06241990 429.41400000 0.10485700 -0.87220299 0.47777200 1.905766e-42
61.69010200 -4.53394990 430.76901000 0.11011600 -0.86391503 0.49145299 1.905766e-42
62.96270000 -3.81090000 431.81601000 0.11623100 -0.85650498 0.50288099 1.905766e-42
64.47959900 -3.05663990 432.42499000 0.12329700 -0.85104698 0.51040798 1.905766e-42
65.53060200 -2.28307010 433.66400000 0.12750500 -0.84311998 0.52239001 1.905766e-42
67.12380200 -1.64082000 434.20200000 0.13395999 -0.83881402 0.52767903 1.905766e-42
68.42880200 -0.82661003 435.13699000 0.13676900 -0.83318901 0.53580803 1.905766e-42
69.20500200 0.04742190 436.50601000 0.13774399 -0.82585400 0.54680097 1.905766e-42
70.70860300 0.75814700 437.19400000 0.14105800 -0.82110202 0.55307698 1.905766e-42
72.10080000 1.57992990 437.98599000 0.14476500 -0.81541097 0.56048900 1.905766e-42
73.34120200 2.43871000 438.96799000 0.14856200 -0.80879903 0.56901097 1.905766e-42
74.77150000 3.34331010 439.58099000 0.15311500 -0.80317301 0.57573301 1.905766e-42
75.83470200 4.24705980 440.71799000 0.15734500 -0.79441100 0.58664501 1.905766e-42
77.24829900 5.04291010 441.49799000 0.16245200 -0.78639102 0.59598601 1.905766e-42
78.70050000 5.92362020 442.09399000 0.16719900 -0.77913600 0.60414600 1.905766e-42
79.86679800 6.86121990 443.09399000 0.17056800 -0.77032399 0.61441600 1.905766e-42
81.13670300 7.82873010 443.92599000 0.17319600 -0.76262599 0.62322098 1.905766e-42
82.58309900 8.68146990 444.57401000 0.17503300 -0.75693601 0.62961203 1.905766e-42
84.11229700 9.50370030 445.04901000 0.17577000 -0.75305402 0.63404602 1.905766e-42
85.62000300 10.39700000 445.45999000 0.17493500 -0.74947798 0.63849801 1.905766e-42
