# .PCD v0.7 - Point Cloud Data file format
# 4 136 0
# 1 41 0
# 42 89 0
# 90 115 0
# 116 136 0
VERSION 0.7
FIELDS x y z normal_x normal_y normal_z curvature
SIZE 4 4 4 4 4 4 4
TYPE F F F F F F F
COUNT 1 1 1 1 1 1 1
WIDTH 136
HEIGHT 1
VIEWPOINT 0 0 0 1 0 0 0
POINTS 136
DATA ascii
-1.85812000 43.96130000 490.52600000 -0.12911899 -0.41231400 0.90184599 1.905766e-42
-3.60475990 43.79660000 490.12299000 -0.13998599 -0.42141801 0.89599699 1.905766e-42
-5.20513010 43.07070200 489.73300000 -0.15867101 -0.43522000 0.88623202 1.905766e-42
-6.68312980 42.19340100 489.19901000 -0.17583600 -0.44676000 0.87720400 1.905766e-42
-7.92330980 41.27389900 488.27301000 -0.19065399 -0.45654500 0.86903203 1.905766e-42
-9.34231000 40.50099900 487.48001000 -0.20551500 -0.46336299 0.86200798 1.905766e-42
-10.84790000 39.78850200 486.79800000 -0.22007599 -0.46840900 0.85566300 1.905766e-42
-12.28060000 38.99219900 486.05399000 -0.23298700 -0.47313401 0.84962398 1.905766e-42
-13.52550000 38.09730100 485.11099000 -0.24417301 -0.47884101 0.84326202 1.905766e-42
-14.93430000 37.40250000 484.23199000 -0.25655299 -0.48395401 0.83664101 1.905766e-42
-16.39240100 36.87210100 483.31900000 -0.26930800 -0.48869899 0.82984698 1.905766e-42
-17.64760000 35.97370100 482.39301000 -0.28100500 -0.49434501 0.82259297 1.905766e-42
-18.69739900 34.80839900 481.51001000 -0.29137400 -0.49978799 0.81566697 1.905766e-42
-20.15329900 34.26400000 480.60300000 -0.30424300 -0.50307798 0.80891901 1.905766e-42
-21.23160000 33.28960000 479.54099000 -0.31081900 -0.50534898 0.80499297 1.905766e-42
-22.65600000 32.71200200 478.60400000 -0.31576300 -0.50609201 0.80259901 1.905766e-42
-24.06559900 32.11449800 477.65701000 -0.32115501 -0.50680000 0.80000800 1.905766e-42
-25.11080000 31.03930100 476.66199000 -0.32689399 -0.50633597 0.79797500 1.905766e-42
-26.27980000 30.15959900 475.61301000 -0.33079901 -0.51344901 0.79179698 1.905766e-42
-27.72060000 29.67300000 474.64999000 -0.33621600 -0.51954699 0.78551298 1.905766e-42
-28.85759900 28.78809900 473.57101000 -0.33994699 -0.53141803 0.77590603 1.905766e-42
-29.84980000 27.92810100 472.53299000 -0.34567800 -0.54344201 0.76496798 1.905766e-42
-31.39069900 27.66610000 471.64001000 -0.35614100 -0.54841399 0.75657499 1.905766e-42
-32.57360100 26.92910000 470.50101000 -0.36447901 -0.55887002 0.74486202 1.905766e-42
-33.87139900 26.33650000 469.40399000 -0.37390700 -0.56703299 0.73394001 1.905766e-42
-35.14569900 25.86190000 468.22400000 -0.38381201 -0.57389301 0.72341901 1.905766e-42
-36.37509900 25.24810000 467.06201000 -0.39344499 -0.58048803 0.71290600 1.905766e-42
-37.42570100 24.39749900 465.87299000 -0.39878699 -0.58719498 0.70439398 1.905766e-42
-38.53780000 23.68890000 464.64801000 -0.39594001 -0.59178400 0.70215601 1.905766e-42
-39.83980200 23.29120100 463.47000000 -0.39404699 -0.59397101 0.70137298 1.905766e-42
-40.77990000 22.30069900 462.29800000 -0.39169800 -0.59802300 0.69924301 1.905766e-42
-41.83359900 21.53560100 461.05499000 -0.39014801 -0.60071898 0.69779801 1.905766e-42
-43.25930000 21.23490000 459.99799000 -0.38872999 -0.60366702 0.69604200 1.905766e-42
-44.41550100 20.60740100 458.76999000 -0.38545799 -0.61195999 0.69059902 1.905766e-42
-45.46040000 19.87380000 457.50101000 -0.38157600 -0.62149203 0.68421400 1.905766e-42
-46.57140000 19.17390100 456.26901000 -0.37816301 -0.63013101 0.67817998 1.905766e-42
-47.93890000 18.83090000 455.14999000 -0.37631899 -0.63530397 0.67436802 1.905766e-42
-49.13390000 18.25270100 453.93500000 -0.37423599 -0.64282203 0.66837698 1.905766e-42
-50.48450100 17.92869900 452.79001000 -0.37282500 -0.64852500 0.66363901 1.905766e-42
-51.23970000 16.95710000 451.47601000 -0.37149599 -0.65800202 0.65499902 1.905766e-42
-52.21130000 16.20430000 450.16101000 -0.37089401 -0.66550201 0.64772302 1.905766e-42
-52.36259800 15.06150000 448.77899000 -0.37025899 -0.67382002 0.63943398 1.905766e-42
-50.91429900 14.00310000 448.63000000 -0.36465901 -0.68432200 0.63144797 1.905766e-42
-49.69920000 12.84770000 447.97601000 -0.35506901 -0.70147598 0.61794698 1.905766e-42
-48.52000000 11.75150000 447.17099000 -0.34443700 -0.71861100 0.60412103 1.905766e-42
-47.05500000 10.71120000 447.06400000 -0.33392000 -0.73195601 0.59391701 1.905766e-42
-45.90490000 9.71259980 446.10400000 -0.32253101 -0.74805099 0.57999402 1.905766e-42
-44.49570100 8.72430040 445.57800000 -0.31110799 -0.76190901 0.56807297 1.905766e-42
-42.95529900 7.79727980 445.48999000 -0.30020401 -0.77323598 0.55855399 1.905766e-42
-41.71640000 6.85820010 444.58200000 -0.28791699 -0.78821898 0.54388899 1.905766e-42
-40.25439800 5.95852990 444.04099000 -0.27548999 -0.80195701 0.53006703 1.905766e-42
-38.98469900 5.14894010 443.05499000 -0.26277301 -0.81721699 0.51293898 1.905766e-42
-37.46509900 4.21228980 442.82300000 -0.25205901 -0.82921797 0.49886301 1.905766e-42
-36.05090000 3.45708990 442.00500000 -0.24256800 -0.84185600 0.48211899 1.905766e-42
-34.57500100 2.73166990 441.27301000 -0.23570900 -0.85154700 0.46830401 1.905766e-42
-33.00230000 2.03399990 440.74399000 -0.22694500 -0.86097699 0.45520899 1.905766e-42
-31.38859900 1.27116000 440.51199000 -0.21781600 -0.86980599 0.44271100 1.905766e-42
-29.77809900 0.67560703 439.97198000 -0.20728500 -0.87989801 0.42756599 1.905766e-42
-28.09620100 0.07138730 439.75699000 -0.19825800 -0.88855898 0.41371199 1.905766e-42
-26.45809900 -0.40822500 439.18500000 -0.18982200 -0.89709902 0.39897501 1.905766e-42
-24.75460100 -0.98941302 439.19800000 -0.18701500 -0.90088302 0.39170799 1.905766e-42
-22.99500100 -1.35850000 439.10999000 -0.18467800 -0.90488303 0.38351101 1.905766e-42
-21.39270000 -1.73672000 438.38199000 -0.17959900 -0.91099799 0.37125200 1.905766e-42
-19.63610100 -2.12974000 438.37900000 -0.17616300 -0.91549802 0.36170301 1.905766e-42
-17.90300000 -2.44620990 438.01001000 -0.16157800 -0.92103601 0.35437900 1.905766e-42
-16.17130100 -2.78836990 438.36200000 -0.14822499 -0.92403799 0.35239699 1.905766e-42
-14.38510000 -3.01027010 438.37799000 -0.13436601 -0.92815202 0.34710100 1.905766e-42
-12.59540000 -3.20040010 438.40399000 -0.12133000 -0.93196499 0.34164500 1.905766e-42
-10.80170000 -3.26255010 438.54199000 -0.11006300 -0.93463600 0.33814400 1.905766e-42
-9.16948990 -3.54554010 439.24600000 -0.10299200 -0.93377000 0.34273300 1.905766e-42
-7.38899990 -3.60977010 439.50201000 -0.09373350 -0.93298101 0.34750599 1.905766e-42
-5.65559010 -3.60070990 439.98700000 -0.07937000 -0.93205100 0.35352701 1.905766e-42
-3.86069990 -3.73612000 439.99301000 -0.06473350 -0.93238401 0.35562700 1.905766e-42
-2.06395010 -3.83562990 440.03500000 -0.04946280 -0.93292499 0.35665599 1.905766e-42
-0.28203499 -3.76910000 440.28101000 -0.03427040 -0.93308502 0.35802001 1.905766e-42
1.44063000 -3.63663010 440.78601000 -0.02000790 -0.93263000 0.36028001 1.905766e-42
3.23987010 -3.59673000 440.82001000 -0.00526568 -0.93316901 0.35940000 1.905766e-42
5.03383020 -3.47429990 440.90201000 0.00836576 -0.93360102 0.35821700 1.905766e-42
6.81002000 -3.32944990 441.15500000 0.02174950 -0.93366098 0.35749599 1.905766e-42
8.54393010 -3.23023010 441.62799000 0.03484660 -0.93323702 0.35756701 1.905766e-42
10.31140000 -2.99526000 441.87500000 0.04887490 -0.93309599 0.35629100 1.905766e-42
12.02320000 -2.78040000 442.38800000 0.06225160 -0.93232000 0.35623699 1.905766e-42
13.77590000 -2.37488010 442.44699000 0.07728460 -0.93227798 0.35339001 1.905766e-42
15.44400000 -2.25461010 443.11301000 0.09111650 -0.93085998 0.35383299 1.905766e-42
17.20010000 -1.92525010 443.33099000 0.10970200 -0.92913598 0.35308799 1.905766e-42
18.88320000 -1.57094000 443.86200000 0.12668499 -0.92593700 0.35579601 1.905766e-42
20.64340000 -1.19567000 443.88699000 0.14464000 -0.92359501 0.35503700 1.905766e-42
22.38680100 -0.76842201 443.75299000 0.16138300 -0.92120200 0.35403699 1.905766e-42
24.08950000 -0.37765500 444.18701000 0.17615400 -0.91616797 0.36000901 1.905766e-42
25.75239900 0.23149900 444.50900000 0.18820700 -0.91077399 0.36751699 1.905766e-42
26.60300100 0.83021098 445.97800000 0.18999200 -0.90343201 0.38433599 1.905766e-42
26.29480000 1.44489000 447.64099000 0.19068800 -0.89516699 0.40288201 1.905766e-42
26.07169900 2.09764000 449.30399000 0.19034401 -0.88626999 0.42225000 1.905766e-42
25.65679900 2.78512000 450.91501000 0.18730199 -0.87708497 0.44231200 1.905766e-42
25.65560000 3.62170000 452.50900000 0.18534499 -0.86642402 0.46363500 1.905766e-42
25.94689900 4.55820990 454.01801000 0.18497200 -0.85464799 0.48514101 1.905766e-42
25.70690000 5.41439010 455.58301000 0.18210500 -0.84433198 0.50392598 1.905766e-42
26.38220000 6.52665000 456.82700000 0.18936500 -0.83273298 0.52028602 1.905766e-42
26.34660000 7.33052020 458.43701000 0.19055299 -0.82083702 0.53843898 1.905766e-42
26.45400000 8.35428050 459.91400000 0.19453800 -0.80793202 0.55623901 1.905766e-42
26.49130100 9.37127020 461.39801000 0.19875000 -0.79470497 0.57353503 1.905766e-42
26.85360000 10.52310000 462.73300000 0.20664801 -0.77947098 0.59137303 1.905766e-42
27.24710100 11.76210000 463.97800000 0.21454000 -0.76307100 0.60966802 1.905766e-42
27.13920000 12.72300000 465.49600000 0.21224999 -0.75003099 0.62642097 1.905766e-42
27.44370100 13.92480000 466.80099000 0.21089900 -0.73808497 0.64090002 1.905766e-42
27.96579900 15.24060000 467.91299000 0.21176501 -0.72652400 0.65369600 1.905766e-42
28.07119900 16.42370000 469.26599000 0.21155700 -0.71430200 0.66709602 1.905766e-42
28.35140000 17.67989900 470.52399000 0.21225600 -0.69963700 0.68224299 1.905766e-42
28.82469900 19.06390000 471.57300000 0.21535000 -0.68384999 0.69711798 1.905766e-42
28.78970000 20.22699900 472.94699000 0.21606199 -0.66785401 0.71224201 1.905766e-42
28.97890100 21.54640000 474.15601000 0.21920000 -0.65169698 0.72611499 1.905766e-42
29.53700100 23.00040100 475.05899000 0.22566900 -0.63591999 0.73802400 1.905766e-42
29.82360100 24.40250000 476.14999000 0.23074999 -0.62078601 0.74925297 1.905766e-42
30.38270000 25.91470000 476.95099000 0.23784900 -0.60644799 0.75871497 1.905766e-42
30.39780000 27.19610000 478.21500000 0.23974800 -0.59534001 0.76687098 1.905766e-42
30.05369900 28.48150100 479.42700000 0.23645900 -0.58826900 0.77332199 1.905766e-42
28.58639900 29.06570100 480.29099000 0.21839300 -0.58546501 0.78072798 1.905766e-42
27.04810000 29.63850000 481.02899000 0.19606601 -0.58065802 0.79018599 1.905766e-42
25.42140000 29.93590000 481.73999000 0.17098400 -0.57390499 0.80087298 1.905766e-42
23.87369900 30.58390000 482.39200000 0.14906900 -0.56965101 0.80825502 1.905766e-42
22.31150100 31.14580000 483.08701000 0.12871200 -0.56512600 0.81490201 1.905766e-42
20.59129900 31.34240000 483.57999000 0.10961200 -0.56021100 0.82106602 1.905766e-42
19.09230000 32.07469900 484.25500000 0.09208710 -0.55383599 0.82751799 1.905766e-42
17.70809900 33.03699900 484.88599000 0.07573840 -0.54646301 0.83405203 1.905766e-42
16.19750000 33.83610200 485.45200000 0.05981850 -0.53866303 0.84039497 1.905766e-42
14.64300000 34.51459900 486.05399000 0.04760860 -0.53559798 0.84312999 1.905766e-42
13.10880000 35.28820000 486.59100000 0.03630120 -0.53220600 0.84583598 1.905766e-42
11.55080000 35.97180200 487.17801000 0.02136440 -0.52996701 0.84774899 1.905766e-42
9.89927960 36.52000000 487.63901000 0.00345789 -0.52800697 0.84923297 1.905766e-42
8.57971000 37.55070100 488.29901000 -0.01222210 -0.52484900 0.85110801 1.905766e-42
7.10245990 38.46369900 488.77301000 -0.03286150 -0.51448101 0.85687202 1.905766e-42
5.50969980 39.22209900 489.13000000 -0.05801500 -0.49280000 0.86820602 1.905766e-42
3.94169000 40.04480000 489.45401000 -0.08069140 -0.47309300 0.87730998 1.905766e-42
2.67643000 41.30659900 489.67001000 -0.09885200 -0.45237100 0.88633400 1.905766e-42
1.01366000 41.89699900 490.02600000 -0.11461600 -0.43912399 0.89108598 1.905766e-42
-0.55595702 42.75299800 490.23499000 -0.12531701 -0.42646801 0.89577901 1.905766e-42
