# .PCD v0.7 - Point Cloud Data file format
# 3 107 0
# 1 34 0
# 35 75 0
# 76 107 0
VERSION 0.7
FIELDS x y z normal_x normal_y normal_z curvature
SIZE 4 4 4 4 4 4 4
TYPE F F F F F F F
COUNT 1 1 1 1 1 1 1
WIDTH 107
HEIGHT 1
VIEWPOINT 0 0 0 1 0 0 0
POINTS 107
DATA ascii
9.96444030 30.81870100 455.96301000 -0.34228599 -0.50547802 0.79204297 1.905766e-42
7.98830990 31.70599900 456.10300000 -0.35911301 -0.50078702 0.78755999 1.905766e-42
7.22635980 30.56550000 454.93701000 -0.36858600 -0.50736398 0.77892601 1.905766e-42
6.00828980 29.77549900 453.87299000 -0.38249201 -0.51557201 0.76673698 1.905766e-42
5.23370980 28.66300000 452.68900000 -0.39595500 -0.52525002 0.75321501 1.905766e-42
3.96231010 28.06690000 451.56299000 -0.40627101 -0.53369898 0.74169397 1.905766e-42
2.96262000 27.11800000 450.40500000 -0.41253501 -0.54053098 0.73324102 1.905766e-42
3.15727000 25.74570100 449.25699000 -0.41759899 -0.54356301 0.72811401 1.905766e-42
3.39687990 24.29500000 448.21899000 -0.41699699 -0.55198699 0.72209603 1.905766e-42
4.03757000 22.78060000 447.48599000 -0.41151500 -0.56186801 0.71760702 1.905766e-42
4.61801000 21.27039900 446.69699000 -0.40551201 -0.57104403 0.71377099 1.905766e-42
5.37435010 19.80410000 445.97800000 -0.39581999 -0.58272702 0.70975798 1.905766e-42
6.35625980 18.39300000 445.44400000 -0.38212001 -0.59878302 0.70387697 1.905766e-42
6.41344980 17.13019900 444.16299000 -0.38084999 -0.61400700 0.69133902 1.905766e-42
7.13103010 15.69200000 443.35300000 -0.37267101 -0.63065499 0.68072802 1.905766e-42
7.87740990 14.29570000 442.49600000 -0.36704701 -0.64303702 0.67214501 1.905766e-42
8.26012040 13.00030000 441.30701000 -0.36582699 -0.65413600 0.66202497 1.905766e-42
8.75489040 11.61610000 440.26801000 -0.36249501 -0.66476101 0.65321600 1.905766e-42
9.31670000 10.23860000 439.25400000 -0.35815799 -0.67470402 0.64536601 1.905766e-42
9.53857990 9.05165000 437.91901000 -0.35922599 -0.68355101 0.63538498 1.905766e-42
9.94762040 7.70078990 436.80200000 -0.35723701 -0.69268203 0.62655598 1.905766e-42
10.36500000 6.45835020 435.56900000 -0.35597900 -0.70181501 0.61703700 1.905766e-42
10.34940000 5.28776980 434.20099000 -0.35991299 -0.71226400 0.60261297 1.905766e-42
10.38990000 4.08115010 432.86600000 -0.36273500 -0.72310102 0.58783299 1.905766e-42
10.53440000 2.88220000 431.53101000 -0.36423501 -0.73332602 0.57407802 1.905766e-42
10.24990000 2.01722000 429.97900000 -0.37303299 -0.74088299 0.55851501 1.905766e-42
9.85696030 1.21023000 428.41800000 -0.38044101 -0.75088698 0.53984600 1.905766e-42
9.61462970 0.15682000 426.97900000 -0.38198799 -0.76521403 0.51820099 1.905766e-42
9.55336000 -0.89852703 425.52200000 -0.37983200 -0.78212601 0.49396899 1.905766e-42
8.89389040 -1.49222000 423.95599000 -0.38348600 -0.79536301 0.46939999 1.905766e-42
8.72523980 -2.34607010 422.38101000 -0.37507001 -0.81795800 0.43619701 1.905766e-42
7.96831990 -2.76013990 420.80099000 -0.36890900 -0.83588701 0.40644601 1.905766e-42
7.73847010 -3.47588990 419.16501000 -0.35742801 -0.85580897 0.37394699 1.905766e-42
7.23034000 -3.96334000 417.50900000 -0.34986901 -0.87105501 0.34475300 1.905766e-42
7.19251010 -4.55328990 415.80899000 -0.33015600 -0.90228498 0.27727100 1.905766e-42
8.82660960 -4.89276980 416.48300000 -0.33360699 -0.89712602 0.28960401 1.905766e-42
10.24640000 -5.08967020 417.57199000 -0.33329901 -0.88493198 0.32527900 1.905766e-42
11.76160000 -5.21874000 418.53500000 -0.32329899 -0.88150400 0.34413400 1.905766e-42
13.16380000 -5.27576020 419.66199000 -0.30759299 -0.87963098 0.36281699 1.905766e-42
14.65730000 -5.33717010 420.66501000 -0.28398201 -0.87944502 0.38200799 1.905766e-42
15.97520000 -5.28841020 421.89001000 -0.26292700 -0.87649798 0.40326101 1.905766e-42
17.30929900 -5.16823010 423.09201000 -0.24420001 -0.87285101 0.42248899 1.905766e-42
18.87970000 -5.08043000 423.96701000 -0.22510201 -0.87078500 0.43710601 1.905766e-42
20.52500000 -4.96163990 424.68799000 -0.20759000 -0.86851299 0.45010200 1.905766e-42
21.83270100 -4.74535990 425.90601000 -0.19344500 -0.86128801 0.46985301 1.905766e-42
23.08060100 -4.41444020 427.16000000 -0.17928900 -0.85253400 0.49096000 1.905766e-42
24.67740100 -4.16792010 427.95300000 -0.16235600 -0.84706402 0.50608599 1.905766e-42
26.26969900 -3.99052000 428.77399000 -0.14498900 -0.84118903 0.52094102 1.905766e-42
27.12929900 -3.28936000 430.19101000 -0.13348199 -0.82797098 0.54465199 1.905766e-42
28.60840000 -2.90982010 431.14401000 -0.11597600 -0.81946802 0.56126702 1.905766e-42
29.83130100 -2.21092010 432.26501000 -0.10027800 -0.80770200 0.58099997 1.905766e-42
31.33379900 -1.74901000 433.14200000 -0.08134770 -0.79936200 0.59531701 1.905766e-42
32.83340100 -1.22193000 433.98700000 -0.06219450 -0.79129601 0.60826099 1.905766e-42
34.10160100 -0.52000302 435.05399000 -0.04565220 -0.78171200 0.62196702 1.905766e-42
35.61669900 0.06353670 435.83099000 -0.02578450 -0.77571201 0.63055998 1.905766e-42
36.74140200 0.93283701 436.93500000 -0.01104110 -0.76881099 0.63938099 1.905766e-42
38.32059900 1.52523010 437.56400000 0.01239250 -0.76757199 0.64084297 1.905766e-42
39.78010200 2.24798990 438.32999000 0.03505950 -0.76771200 0.63983601 1.905766e-42
41.16450100 3.00899000 439.19299000 0.05463800 -0.76627100 0.64019102 1.905766e-42
42.59479900 3.82660010 439.91800000 0.07535960 -0.76602799 0.63837498 1.905766e-42
43.93899900 4.69017980 440.74701000 0.09136310 -0.76245099 0.64056301 1.905766e-42
44.97000100 5.64264010 441.87399000 0.09928790 -0.75121599 0.65254599 1.905766e-42
46.51459900 6.37730980 442.43500000 0.12182800 -0.74566400 0.65509099 1.905766e-42
47.89709900 7.30421020 443.12000000 0.13984500 -0.73557299 0.66285503 1.905766e-42
49.27439900 8.22002980 443.82999000 0.15673099 -0.72496998 0.67071098 1.905766e-42
50.63520100 9.14896010 444.55499000 0.16995400 -0.71553999 0.67758298 1.905766e-42
52.23339800 9.96043970 444.72000000 0.19131300 -0.71136999 0.67627800 1.905766e-42
53.41999800 10.95680000 445.63699000 0.20390201 -0.70096302 0.68342900 1.905766e-42
54.99980200 11.81710000 445.57101000 0.22886200 -0.69685501 0.67971700 1.905766e-42
56.11449800 12.88870000 446.49200000 0.24041900 -0.69086498 0.68183899 1.905766e-42
57.45259900 13.90610000 447.13599000 0.23893100 -0.68833101 0.68491799 1.905766e-42
58.80910100 14.86100000 447.83499000 0.23818199 -0.67598200 0.69736499 1.905766e-42
60.40079900 15.69100000 447.96701000 0.22974201 -0.65991497 0.71535403 1.905766e-42
61.63810000 16.83060100 448.60800000 0.22156800 -0.61583602 0.75607800 1.905766e-42
63.12970000 17.82749900 448.75299000 0.20686600 -0.57628000 0.79063803 1.905766e-42
62.63390000 19.17200100 449.84201000 0.22674800 -0.51449400 0.82697099 1.905766e-42
61.15119900 19.71110000 450.70901000 0.23072900 -0.48166299 0.84543800 1.905766e-42
59.42340100 20.01490000 451.11099000 0.22963201 -0.47095901 0.85174298 1.905766e-42
57.77859900 19.28669900 451.17801000 0.22541800 -0.49524200 0.83900100 1.905766e-42
56.03860100 19.09030000 451.59500000 0.22649901 -0.51601601 0.82608998 1.905766e-42
54.34890000 19.11350100 452.21500000 0.22508600 -0.53065503 0.81715500 1.905766e-42
52.58210000 19.18730000 452.55099000 0.21473500 -0.54466599 0.81069601 1.905766e-42
50.98770100 18.38579900 452.78699000 0.18290700 -0.57087398 0.80040503 1.905766e-42
49.21680100 18.38500000 453.10901000 0.15413700 -0.58409798 0.79691398 1.905766e-42
47.45150000 18.56590100 453.41101000 0.12416100 -0.59283602 0.79569399 1.905766e-42
45.67750200 18.31570100 453.58401000 0.09024900 -0.60545999 0.79074198 1.905766e-42
43.99649800 18.82519900 453.97800000 0.06204170 -0.60346597 0.79497200 1.905766e-42
42.22530000 18.50440000 453.96600000 0.03370180 -0.61246800 0.78977698 1.905766e-42
40.54000100 19.00830100 454.34799000 0.01571280 -0.60425198 0.79663801 1.905766e-42
38.74100100 18.96690000 454.39001000 -0.00465136 -0.60503501 0.79618502 1.905766e-42
36.95570000 19.16430100 454.50699000 -0.02523320 -0.60278600 0.79750401 1.905766e-42
35.33929800 19.84250100 454.91599000 -0.04301690 -0.59368300 0.80354899 1.905766e-42
33.54219800 19.93540000 454.87500000 -0.06326250 -0.59508801 0.80116701 1.905766e-42
31.82340000 20.43619900 455.06201000 -0.08233830 -0.58875901 0.80410397 1.905766e-42
30.04290000 20.70019900 455.06100000 -0.10343700 -0.58521402 0.80425400 1.905766e-42
28.25140000 20.76779900 454.89899000 -0.12538800 -0.58436197 0.80174702 1.905766e-42
26.77450000 21.71240000 455.30701000 -0.14337499 -0.56926900 0.80955303 1.905766e-42
25.14240100 22.46590000 455.21399000 -0.16261700 -0.56041002 0.81209397 1.905766e-42
23.47190100 23.13159900 455.13400000 -0.18010800 -0.55337101 0.81322902 1.905766e-42
21.67989900 23.19249900 455.29300000 -0.19589300 -0.55605501 0.80773002 1.905766e-42
19.92690100 23.58989900 455.19901000 -0.21667901 -0.55700201 0.80174702 1.905766e-42
18.51460100 24.68530100 455.41199000 -0.23316000 -0.54830599 0.80311698 1.905766e-42
16.92700000 25.53130000 455.47101000 -0.25442299 -0.54082203 0.80173600 1.905766e-42
15.37500000 26.42910000 455.63000000 -0.27549201 -0.53071100 0.80153000 1.905766e-42
13.72300000 27.13710000 455.53101000 -0.29777500 -0.52412599 0.79788601 1.905766e-42
12.40670000 28.33890000 455.78299000 -0.31334901 -0.51658398 0.79683900 1.905766e-42
10.86890000 29.27430000 455.77200000 -0.33196300 -0.51168698 0.79245001 1.905766e-42
