# .PCD v0.7 - Point Cloud Data file format
# 3 99 0
# 1 32 0
# 33 65 0
# 66 99 0
VERSION 0.7
FIELDS x y z normal_x normal_y normal_z curvature
SIZE 4 4 4 4 4 4 4
TYPE F F F F F F F
COUNT 1 1 1 1 1 1 1
WIDTH 99
HEIGHT 1
VIEWPOINT 0 0 0 1 0 0 0
POINTS 99
DATA ascii
28.104799 12.0039 518.04401 -0.025945 -0.240463 0.97031099 1.9057659e-42
28.4175 13.7136 518.51202 -0.063371196 -0.40159601 0.91362202 1.9057659e-42
28.4384 15.33 519.30402 -0.080676302 -0.45961601 0.88444602 1.9057659e-42
28.0518 16.781401 520.29602 -0.108781 -0.46785599 0.87708497 1.9057659e-42
28.1618 18.3908 521.09497 -0.105956 -0.44754201 0.88796401 1.9057659e-42
29.0058 19.8396 521.74902 -0.083419703 -0.42356899 0.90201497 1.9057659e-42
28.5763 21.4053 522.526 -0.092961602 -0.413185 0.90588999 1.9057659e-42
27.9102 22.949301 523.16901 -0.109279 -0.40920001 0.90587699 1.9057659e-42
27.8965 24.642599 523.77899 -0.113483 -0.41464901 0.90287799 1.9057659e-42
27.494101 26.2624 524.453 -0.126912 -0.42144299 0.89793003 1.9057659e-42
26.762501 27.7229 525.20898 -0.141114 -0.41765201 0.89758199 1.9057659e-42
26.3109 29.3897 525.71698 -0.14728799 -0.40465099 0.90253198 1.9057659e-42
25.0231 30.5347 526.237 -0.14858399 -0.38999501 0.90875 1.9057659e-42
23.9582 31.9484 526.565 -0.151384 -0.37388599 0.91503698 1.9057659e-42
22.4517 32.891998 526.84802 -0.160336 -0.36324701 0.91779298 1.9057659e-42
20.7591 33.487598 526.70599 -0.173233 -0.356089 0.91825402 1.9057659e-42
19.257401 34.478901 526.75098 -0.183621 -0.34647 0.91991401 1.9057659e-42
17.648399 35.282299 526.67401 -0.192926 -0.33866 0.92091697 1.9057659e-42
15.9839 35.9608 526.57898 -0.20179901 -0.330661 0.92192203 1.9057659e-42
14.5233 37.0135 526.396 -0.210244 -0.318349 0.92436498 1.9057659e-42
12.7948 37.515701 526.409 -0.21805499 -0.30974501 0.92547798 1.9057659e-42
11.2395 38.4156 526.302 -0.22483601 -0.29686299 0.928074 1.9057659e-42
9.6444502 39.23 526.12097 -0.230921 -0.28493801 0.93031502 1.9057659e-42
7.9484701 39.815601 525.97803 -0.23883399 -0.27726001 0.930637 1.9057659e-42
6.5138202 40.8881 525.79999 -0.242863 -0.26864001 0.93212098 1.9057659e-42
5.1286302 42.011002 525.55499 -0.248147 -0.25947201 0.93332601 1.9057659e-42
3.44191 42.613602 525.37598 -0.25690401 -0.25449699 0.93232602 1.9057659e-42
1.7323999 43.139 525.172 -0.26622599 -0.248803 0.931247 1.9057659e-42
0.20981701 44.060501 524.90302 -0.27623901 -0.235963 0.93167299 1.9057659e-42
-1.34457 44.893501 524.54199 -0.28579599 -0.227043 0.93100601 1.9057659e-42
-3.07915 45.272301 524.24597 -0.294848 -0.22227199 0.92933297 1.9057659e-42
-4.6802902 45.946999 523.776 -0.30451 -0.21712101 0.92743301 1.9057659e-42
-6.4021902 46.0606 523.26398 -0.31277099 -0.21765 0.92455602 1.9057659e-42
-6.80831 44.340401 522.92297 -0.31617799 -0.234965 0.91914201 1.9057659e-42
-7.76547 42.989399 522.21698 -0.32211599 -0.25189701 0.91257298 1.9057659e-42
-8.9538498 41.922699 521.38599 -0.3285 -0.26687199 0.90601701 1.9057659e-42
-9.60005 40.380501 520.71997 -0.33205101 -0.282628 0.89992398 1.9057659e-42
-10.485 39.0187 519.94397 -0.33552599 -0.294534 0.89480299 1.9057659e-42
-11.6082 37.877899 519.12097 -0.339935 -0.303238 0.89021897 1.9057659e-42
-12.5401 36.572201 518.30499 -0.34418201 -0.311205 0.885827 1.9057659e-42
-12.9194 34.940498 517.646 -0.34576699 -0.31941101 0.88228202 1.9057659e-42
-13.6106 33.519402 516.784 -0.34989601 -0.33232701 0.87585998 1.9057659e-42
-14.0209 31.9639 515.97699 -0.353508 -0.34822801 0.86819899 1.9057659e-42
-14.4256 30.415199 515.15399 -0.35761401 -0.36347201 0.86023301 1.9057659e-42
-14.4531 28.7251 514.53497 -0.35674399 -0.37839201 0.85413897 1.9057659e-42
-15.1213 27.391399 513.52802 -0.36561701 -0.38762701 0.84620899 1.9057659e-42
-15.5127 25.908001 512.586 -0.36753601 -0.399472 0.839845 1.9057659e-42
-15.7002 24.3139 511.771 -0.36098301 -0.414213 0.83553499 1.9057659e-42
-15.7921 22.717199 510.94601 -0.35307401 -0.427775 0.83207399 1.9057659e-42
-16.177 21.2019 510.05301 -0.352604 -0.43737301 0.82726997 1.9057659e-42
-16.7516 19.857 509.004 -0.35877001 -0.44355199 0.821307 1.9057659e-42
-17.1192 18.4046 508.00601 -0.36506701 -0.446401 0.81697798 1.9057659e-42
-17.6591 17.056499 506.94299 -0.37961799 -0.443326 0.81200498 1.9057659e-42
-17.8367 15.4545 506.142 -0.38834101 -0.43852201 0.81048697 1.9057659e-42
-18.1758 14.0226 505.10501 -0.394609 -0.42969099 0.81218803 1.9057659e-42
-18.436501 12.4461 504.276 -0.400695 -0.420147 0.81419897 1.9057659e-42
-18.7953 11.0694 503.17401 -0.40756699 -0.41423601 0.81381702 1.9057659e-42
-19.2376 9.6393003 502.17401 -0.39576799 -0.43655199 0.80795401 1.9057659e-42
-19.3545 7.9574299 501.543 -0.373557 -0.46840301 0.80065799 1.9057659e-42
-19.5422 6.5179701 500.479 -0.357609 -0.49513301 0.791807 1.9057659e-42
-20.117201 5.2693701 499.31699 -0.36188701 -0.51696199 0.77574998 1.9057659e-42
-20.6003 3.93133 498.21399 -0.366202 -0.53729498 0.75974399 1.9057659e-42
-20.8269 2.3573301 497.371 -0.41797 -0.48174 0.77021301 1.9057659e-42
-21.044001 0.87213802 496.37701 -0.487984 -0.39247799 0.77963698 1.9057659e-42
-21.467199 -0.55437601 495.36499 -0.543414 -0.314969 0.77813601 1.9057659e-42
-21.5634 -2.18168 494.60101 -0.60063398 -0.22516701 0.76716298 1.9057659e-42
-20.4161 -3.3311701 495.37701 -0.63697398 -0.174532 0.75086802 1.9057659e-42
-19.255899 -2.6069901 496.548 -0.64004201 -0.15358099 0.75283402 1.9057659e-42
-18.0728 -1.84947 497.673 -0.64292598 -0.128802 0.75502098 1.9057659e-42
-17.0751 -0.66514099 498.59 -0.639579 -0.095702603 0.76274502 1.9057659e-42
-15.8859 0.032252401 499.74799 -0.64284003 -0.053318899 0.76414299 1.9057659e-42
-14.6245 0.37369201 500.98599 -0.64249301 -0.0096441302 0.766231 1.9057659e-42
-13.3995 1.17696 502.03201 -0.62713599 0.036443401 0.77805698 1.9057659e-42
-12.1891 2.2883601 502.76599 -0.60560101 0.0517518 0.79408401 1.9057659e-42
-10.7963 2.8889101 503.73599 -0.59197301 0.074662402 0.80249202 1.9057659e-42
-9.4561701 2.9572699 504.935 -0.57102698 0.079368398 0.81708503 1.9057659e-42
-8.3620396 4.32866 505.33801 -0.549972 0.0436115 0.83404398 1.9057659e-42
-6.9307299 5.0826998 506.12701 -0.52491099 0.022668101 0.85085499 1.9057659e-42
-5.5257502 5.7364898 507.043 -0.499044 0.0093386304 0.86652601 1.9057659e-42
-4.0314002 6.16717 507.94901 -0.46881801 0.0049565602 0.88328099 1.9057659e-42
-2.6226699 6.9967299 508.703 -0.43690899 -0.0401331 0.89861 1.9057659e-42
-1.16865 7.8972902 509.26401 -0.41253 -0.102817 0.905123 1.9057659e-42
0.40977499 8.1792402 510.082 -0.39256799 -0.110313 0.91308397 1.9057659e-42
1.9712 8.2716999 510.97198 -0.38041201 -0.095169798 0.91990697 1.9057659e-42
3.5471699 8.8608198 511.612 -0.36410701 -0.113086 0.92446601 1.9057659e-42
5.1780901 9.07547 512.34302 -0.35951599 -0.090323001 0.92875701 1.9057659e-42
6.8145299 9.3656197 513.034 -0.35359401 -0.070247099 0.93275797 1.9057659e-42
8.4784203 9.0949097 513.66498 -0.360248 0.0083352504 0.93281901 1.9057659e-42
10.0547 9.8689699 514.06 -0.332472 -0.0255033 0.94276798 1.9057659e-42
11.7312 10.0644 514.68597 -0.31042999 0.00051177398 0.95059597 1.9057659e-42
13.42 9.8559904 515.27301 -0.29134601 0.062941298 0.95454502 1.9057659e-42
15.1725 10.0592 515.63 -0.27687901 0.0483342 0.95968801 1.9057659e-42
16.880501 10.4511 516.04102 -0.256185 0.0082855104 0.96659201 1.9057659e-42
18.5825 10.1678 516.55402 -0.236185 0.040441599 0.97086602 1.9057659e-42
20.282301 9.7799997 517.00098 -0.21225999 0.079902001 0.97394103 1.9057659e-42
22.017799 10.2294 517.16302 -0.175033 0.049851701 0.98329997 1.9057659e-42
23.6453 9.6004696 517.60498 -0.146437 0.098715402 0.98428202 1.9057659e-42
25.393 9.8106098 517.98199 -0.114707 0.059238601 0.99163198 1.9057659e-42
26.508301 11.2109 517.79401 -0.10137 -0.10677 0.98910302 1.9057659e-42
