# .PCD v0.7 - Point Cloud Data file format
# 2 49 0
# 1 20 0
# 21 49 0
VERSION 0.7
FIELDS x y z normal_x normal_y normal_z curvature
SIZE 4 4 4 4 4 4 4
TYPE F F F F F F F
COUNT 1 1 1 1 1 1 1
WIDTH 49
HEIGHT 1
VIEWPOINT 0 0 0 1 0 0 0
POINTS 49
DATA ascii
0.207682 2.9632699 435.99899 -0.15929499 -0.858069 0.48820299 1.9057659e-42
1.99745 3.2524199 437.40201 -0.167503 -0.83124799 0.53006601 1.9057659e-42
3.6161699 3.51334 438.14401 -0.147137 -0.82920498 0.539231 1.9057659e-42
4.9426398 3.9778099 439.26901 -0.14584801 -0.79540002 0.58827502 1.9057659e-42
6.7292099 3.7953501 439.39099 -0.081265703 -0.84018099 0.536183 1.9057659e-42
8.3441601 4.12357 440.11499 -0.059381802 -0.84359097 0.533692 1.9057659e-42
9.56464 4.7979598 441.25299 -0.067573898 -0.82950598 0.55439401 1.9057659e-42
11.3646 4.8092299 441.241 -0.025827101 -0.85603499 0.51627201 1.9057659e-42
12.6494 5.3133702 442.397 -0.029706599 -0.85012603 0.52574098 1.9057659e-42
14.3845 5.7386599 442.617 -0.0114948 -0.86170602 0.50727701 1.9057659e-42
15.2772 6.3173199 444.069 -0.0263365 -0.84201598 0.53881001 1.9057659e-42
17.0002 6.6693902 444.453 -0.00185562 -0.848171 0.529719 1.9057659e-42
18.198099 7.2864199 445.646 -0.0026137701 -0.83058298 0.556889 1.9057659e-42
19.936501 7.58041 446.009 0.012454 -0.835473 0.54939002 1.9057659e-42
21.6201 8.0029097 446.48499 0.0156752 -0.83264202 0.55359 1.9057659e-42
23.0159 8.5747204 447.46701 0.0167107 -0.81638098 0.577272 1.9057659e-42
24.653601 9.0775404 448.01999 0.048244402 -0.80575901 0.590276 1.9057659e-42
25.673901 10.0504 449.13901 0.085105598 -0.79998398 0.59395498 1.9057659e-42
26.6332 11.0263 450.30801 0.097774103 -0.794774 0.59897798 1.9057659e-42
27.2556 12.0257 451.67001 0.077840202 -0.779477 0.62157601 1.9057659e-42
27.0739 13.3292 452.89801 0.042375699 -0.77053303 0.63599002 1.9057659e-42
26.088699 14.0816 454.203 0.018770101 -0.75695199 0.65320098 1.9057659e-42
25.3582 15.277 455.33301 0.0022009299 -0.72416502 0.689623 1.9057659e-42
24.051201 16.0021 456.336 0.019362601 -0.736458 0.67620599 1.9057659e-42
22.2665 16.158001 456.51099 0.0080927396 -0.73924702 0.67338502 1.9057659e-42
20.942301 16.9729 457.418 -0.0098153101 -0.73735601 0.67543298 1.9057659e-42
19.347099 17.591801 457.97699 -0.0374007 -0.72868299 0.68382901 1.9057659e-42
17.5522 17.5716 457.84399 -0.062359702 -0.72054303 0.69060099 1.9057659e-42
16.203899 16.8281 456.91199 -0.0756227 -0.72281098 0.68689501 1.9057659e-42
14.4115 16.9466 456.79599 -0.094083197 -0.72051197 0.68703002 1.9057659e-42
12.6259 17.174101 456.79599 -0.1072 -0.72231799 0.68320203 1.9057659e-42
10.8449 17.433399 456.76999 -0.11524 -0.73064101 0.672966 1.9057659e-42
9.0590096 17.549 456.577 -0.118346 -0.741822 0.66007102 1.9057659e-42
7.3350801 17.394899 456.082 -0.13288601 -0.74647301 0.65201199 1.9057659e-42
5.8600798 16.887501 455.18399 -0.155913 -0.75217801 0.64025003 1.9057659e-42
4.0960898 17.0194 454.85101 -0.170875 -0.75855601 0.62880403 1.9057659e-42
2.82656 16.396799 453.737 -0.184062 -0.76425999 0.61808401 1.9057659e-42
2.1049399 15.4832 452.36499 -0.203696 -0.76036298 0.61672997 1.9057659e-42
1.80335 14.5067 450.883 -0.229093 -0.72946799 0.64450997 1.9057659e-42
2.1301999 13.1574 449.737 -0.22058401 -0.72755003 0.64962602 1.9057659e-42
1.54345 12.1291 448.38101 -0.222443 -0.73280102 0.64305699 1.9057659e-42
0.818762 11.2629 446.98001 -0.22792201 -0.73674202 0.636603 1.9057659e-42
0.55386603 10.17 445.57401 -0.227448 -0.74053198 0.63236099 1.9057659e-42
0.68325299 8.9134197 444.29199 -0.21507201 -0.75651801 0.61759597 1.9057659e-42
0.62373102 7.7944798 442.883 -0.209977 -0.76938403 0.60328901 1.9057659e-42
-0.184495 6.98985 441.491 -0.221462 -0.770482 0.59775603 1.9057659e-42
-0.110943 5.8534899 440.09698 -0.217941 -0.76969302 0.60006201 1.9057659e-42
-0.0307841 4.7470198 438.67899 -0.213971 -0.77384502 0.59613699 1.9057659e-42
-0.702371 3.8863499 437.24799 -0.207625 -0.78764898 0.58008701 1.9057659e-42
