# .PCD v0.7 - Point Cloud Data file format
# 5 211 0
# 1 30 0
# 31 97 0
# 98 108 0
# 109 176 0
# 177 211 0
VERSION 0.7
FIELDS x y z normal_x normal_y normal_z curvature
SIZE 4 4 4 4 4 4 4
TYPE F F F F F F F
COUNT 1 1 1 1 1 1 1
WIDTH 211
HEIGHT 1
VIEWPOINT 0 0 0 1 0 0 0
POINTS 211
DATA ascii
-7.57060000 -26.29760000 403.97699000 0.60743600 0.79297602 -0.04702210 1.905766e-42
-9.03273010 -25.43630000 403.37601000 0.62409902 0.78019798 -0.04232180 1.905766e-42
-10.37500000 -24.01250100 403.14801000 0.64439201 0.76341301 -0.04425490 1.905766e-42
-11.74610000 -23.25680000 402.26001000 0.65933102 0.75099599 -0.03586860 1.905766e-42
-13.01530000 -22.10510100 401.70999000 0.67866498 0.73372501 -0.03259540 1.905766e-42
-14.27630000 -20.99119900 401.07001000 0.70128101 0.71239001 -0.02655270 1.905766e-42
-15.49600000 -19.78170000 400.53201000 0.72472799 0.68874103 -0.02013430 1.905766e-42
-16.56500100 -18.45050000 399.96201000 0.74749100 0.66417199 -0.01153470 1.905766e-42
-17.52100000 -17.03610000 399.39099000 0.76900601 0.63923502 -0.00284403 1.905766e-42
-18.69829900 -15.90600000 398.63199000 0.78803098 0.61558902 0.00750334 1.905766e-42
-19.62050100 -14.37370000 398.42801000 0.80580097 0.59181398 0.02100190 1.905766e-42
-20.61340000 -13.17160000 397.52802000 0.81995100 0.57132900 0.03556490 1.905766e-42
-21.59030000 -11.78090000 396.93500000 0.83294600 0.55081302 0.05297670 1.905766e-42
-22.46990000 -10.31390000 396.37500000 0.84597403 0.52886099 0.06806820 1.905766e-42
-23.42520000 -9.01338010 395.57700000 0.85687798 0.50851798 0.08466960 1.905766e-42
-24.27790100 -7.44046020 395.38000000 0.86727601 0.48923099 0.09212020 1.905766e-42
-24.86459900 -5.85772990 394.75500000 0.87567598 0.47132501 0.10509600 1.905766e-42
-25.45159900 -4.47007990 393.76999000 0.88156700 0.45588699 0.12250100 1.905766e-42
-25.98770000 -3.38796000 392.43500000 0.88440502 0.44389400 0.14417200 1.905766e-42
-26.45200000 -2.16135000 391.20300000 0.88646501 0.43278500 0.16393900 1.905766e-42
-26.82770000 -0.81043297 390.07401000 0.88768899 0.42302001 0.18183300 1.905766e-42
-27.11150000 0.55658603 388.93799000 0.88767600 0.41506499 0.19938201 1.905766e-42
-27.37710000 1.75940000 387.62500000 0.88699400 0.40689701 0.21835101 1.905766e-42
-27.50799900 2.91213990 386.24899000 0.88629299 0.39769700 0.23732100 1.905766e-42
-27.67070000 4.22629980 385.03000000 0.88763100 0.38499600 0.25276500 1.905766e-42
-27.74220100 5.40774010 383.67401000 0.88829702 0.37202001 0.26931399 1.905766e-42
-27.83239900 6.83822010 382.58499000 0.89243001 0.35295099 0.28106001 1.905766e-42
-27.78800000 7.53835010 380.92700000 0.88940799 0.34456801 0.30037901 1.905766e-42
-27.67650000 8.89116950 379.74500000 0.89368999 0.32306999 0.31135699 1.905766e-42
-27.54100000 10.10340000 378.42099000 0.89838499 0.29977700 0.32099599 1.905766e-42
-27.62389900 11.57990000 377.39499000 0.90427601 0.26913300 0.33143899 1.905766e-42
-28.18180100 13.16300000 378.04501000 0.92030603 0.22746500 0.31827301 1.905766e-42
-28.82460000 14.59230000 378.93100000 0.93599898 0.19041599 0.29605299 1.905766e-42
-29.44949900 16.11350100 379.66299000 0.95034498 0.15020400 0.27254900 1.905766e-42
-29.74550100 17.87929900 379.84698000 0.96115601 0.10871500 0.25369400 1.905766e-42
-29.85790100 19.67310000 379.94601000 0.96984500 0.06622960 0.23455000 1.905766e-42
-29.95590000 21.47040000 379.93201000 0.97632802 0.02298520 0.21507099 1.905766e-42
-30.14100100 23.08729900 380.70099000 0.98284501 -0.02708400 0.18243501 1.905766e-42
-30.16060100 24.21019900 382.10699000 0.98704398 -0.07486410 0.14191400 1.905766e-42
-30.18940000 25.74029900 383.05499000 0.98637497 -0.12948801 0.10147200 1.905766e-42
-30.12900000 26.66560000 384.59799000 0.98325700 -0.17209899 0.05990480 1.905766e-42
-29.89440000 27.91280000 385.87399000 0.97775900 -0.20723300 0.03227590 1.905766e-42
-29.63299900 29.64049900 386.30600000 0.96890002 -0.24700800 0.01485500 1.905766e-42
-29.29579900 31.40740000 386.37299000 0.95862401 -0.28465900 0.00309736 1.905766e-42
-28.63330100 32.95470000 387.01099000 0.94714701 -0.32050800 -0.01365490 1.905766e-42
-27.98270000 34.44350100 387.78601000 0.93555599 -0.35191599 -0.02983030 1.905766e-42
-27.50350000 36.17430100 387.90799000 0.92467099 -0.37891501 -0.03751880 1.905766e-42
-26.80340000 37.44900100 388.96799000 0.91516298 -0.39956599 -0.05314310 1.905766e-42
-26.08330000 38.71530200 390.02600000 0.90542197 -0.41889799 -0.06882200 1.905766e-42
-25.47130000 40.37530100 390.35699000 0.89530301 -0.43861300 -0.07778320 1.905766e-42
-24.91160000 41.10500000 391.90500000 0.88691300 -0.45156500 -0.09733590 1.905766e-42
-24.03529900 42.46229900 392.69800000 0.87641698 -0.46847901 -0.11144900 1.905766e-42
-23.05920000 43.76129900 393.47299000 0.86610699 -0.48375899 -0.12584101 1.905766e-42
-22.43779900 45.44960000 393.53400000 0.85704798 -0.49560699 -0.14086400 1.905766e-42
-21.61599900 46.36420100 394.84900000 0.84699303 -0.50738800 -0.15862200 1.905766e-42
-20.80690000 47.39960100 396.07901000 0.83545500 -0.52057898 -0.17610399 1.905766e-42
-19.72120100 48.50059900 397.00101000 0.82225901 -0.53550398 -0.19267900 1.905766e-42
-18.61860100 49.49850100 398.01501000 0.80800599 -0.55142802 -0.20749600 1.905766e-42
-17.71699900 50.47409800 399.22900000 0.79312199 -0.56784803 -0.22024100 1.905766e-42
-16.80909900 51.24580000 400.57901000 0.77823400 -0.58395201 -0.23097800 1.905766e-42
-15.76310000 52.08459900 401.77899000 0.76270401 -0.59960502 -0.24239901 1.905766e-42
-14.60190000 53.37149800 402.26501000 0.74281001 -0.62203699 -0.24759500 1.905766e-42
-13.49200000 54.18679800 403.42401000 0.71774799 -0.64560401 -0.26083100 1.905766e-42
-12.29580000 55.43679800 403.92001000 0.68765801 -0.67432702 -0.26909000 1.905766e-42
-10.98470000 56.22740200 404.86700000 0.65876698 -0.69776797 -0.28132799 1.905766e-42
-9.58393000 57.16709900 405.49500000 0.62718803 -0.72253603 -0.29082000 1.905766e-42
-8.26492020 58.38610100 405.61499000 0.59503597 -0.74777299 -0.29456300 1.905766e-42
-6.72440000 59.03340100 406.28400000 0.56410599 -0.76765603 -0.30412099 1.905766e-42
-5.24951980 59.89830000 406.84698000 0.53899801 -0.78318697 -0.30999899 1.905766e-42
-3.73336010 60.75360100 407.30399000 0.52475500 -0.79126602 -0.31389600 1.905766e-42
-2.59849000 61.03929900 408.67200000 0.50962597 -0.79448497 -0.33026400 1.905766e-42
-1.07385000 61.99430100 408.73001000 0.48834601 -0.80541801 -0.33588701 1.905766e-42
0.37372601 63.06309900 408.77802000 0.46423101 -0.81639397 -0.34349799 1.905766e-42
1.90359000 63.73510000 409.44800000 0.43316299 -0.82619601 -0.36023599 1.905766e-42
2.94592000 63.33490000 410.85901000 0.40739501 -0.82946998 -0.38211101 1.905766e-42
4.49673990 63.76990100 411.66299000 0.37012100 -0.83844298 -0.40002999 1.905766e-42
6.04468010 64.03330200 412.54300000 0.33952501 -0.84326899 -0.41667801 1.905766e-42
7.66944980 64.22920200 413.29300000 0.30842900 -0.84809601 -0.43081900 1.905766e-42
9.40625950 64.63909900 413.52802000 0.27503499 -0.85513902 -0.43942401 1.905766e-42
10.92830000 64.58400000 414.48801000 0.24261700 -0.85848403 -0.45182100 1.905766e-42
12.45840000 64.50370000 415.43201000 0.20927300 -0.86145997 -0.46270001 1.905766e-42
13.92030000 64.23069800 416.44601000 0.17719001 -0.86291498 -0.47326699 1.905766e-42
15.47380000 64.02660400 417.33200000 0.14232400 -0.86460799 -0.48186901 1.905766e-42
16.98250000 63.61999900 418.22601000 0.10833700 -0.86461699 -0.49061200 1.905766e-42
18.30380100 63.15390000 419.35599000 0.07047120 -0.85765201 -0.50937903 1.905766e-42
20.08980000 63.27290000 419.54599000 0.02290400 -0.85506099 -0.51802099 1.905766e-42
21.85610000 63.14139900 419.86600000 -0.01922710 -0.84812701 -0.52944398 1.905766e-42
23.35450000 62.47650100 420.60999000 -0.05277120 -0.83527797 -0.54728901 1.905766e-42
25.13950000 62.27790100 420.72900000 -0.07996010 -0.82805097 -0.55492097 1.905766e-42
26.63320000 61.56460200 421.43600000 -0.09699350 -0.81522000 -0.57097203 1.905766e-42
28.34650000 61.05960100 421.65900000 -0.10319600 -0.80783498 -0.58030403 1.905766e-42
30.13279900 60.83960000 421.62900000 -0.09562610 -0.80608201 -0.58402699 1.905766e-42
31.91560000 60.81740200 421.38199000 -0.07418790 -0.80960798 -0.58226401 1.905766e-42
33.69520200 60.80609900 421.11099000 -0.03878420 -0.81517100 -0.57792002 1.905766e-42
35.47100100 60.57090000 421.28699000 -0.00443841 -0.80900198 -0.58778799 1.905766e-42
37.24639900 60.37599900 421.51099000 0.02639850 -0.79856700 -0.60132700 1.905766e-42
38.91210200 60.04869800 422.10999000 0.04752940 -0.77985698 -0.62414998 1.905766e-42
40.66050000 60.10150100 422.53500000 0.06763040 -0.76345098 -0.64231497 1.905766e-42
41.63449900 59.51829900 423.93201000 0.06213770 -0.73547000 -0.67470199 1.905766e-42
42.15459800 58.65330100 425.42200000 0.04752810 -0.70872402 -0.70388299 1.905766e-42
42.30099900 57.50289900 426.79901000 0.02834800 -0.68485200 -0.72813100 1.905766e-42
42.71310000 56.27560000 428.04901000 0.01126840 -0.66021800 -0.75098902 1.905766e-42
42.97679900 54.79970200 429.04501000 -0.00695623 -0.63733399 -0.77055597 1.905766e-42
43.31370200 53.30070100 429.98300000 -0.04237120 -0.60282701 -0.79674602 1.905766e-42
43.91569900 51.86000100 430.87900000 -0.08629170 -0.56042898 -0.82369500 1.905766e-42
44.98840000 50.65350000 431.67499000 -0.13212900 -0.51392502 -0.84759802 1.905766e-42
45.83319900 49.16740000 432.23801000 -0.17910500 -0.46966600 -0.86448503 1.905766e-42
46.93370100 47.84109900 432.75800000 -0.22688100 -0.42481300 -0.87638903 1.905766e-42
48.12020100 46.53319900 433.10599000 -0.27432200 -0.38148499 -0.88273197 1.905766e-42
49.14749900 45.05939900 433.21899000 -0.32036501 -0.34193701 -0.88342798 1.905766e-42
50.68800000 44.12979900 433.27200000 -0.36359301 -0.30288100 -0.88094401 1.905766e-42
51.77410100 42.71419900 433.03500000 -0.40476799 -0.27039200 -0.87352800 1.905766e-42
53.26670100 41.77180100 432.68301000 -0.43251899 -0.25137001 -0.86587602 1.905766e-42
54.61970100 40.71040000 432.15100000 -0.46221799 -0.23320401 -0.85555297 1.905766e-42
55.92470200 39.66080100 431.49100000 -0.49342799 -0.21548399 -0.84267199 1.905766e-42
57.53049900 39.21580100 430.81000000 -0.52401698 -0.19409300 -0.82929701 1.905766e-42
59.18669900 39.17200100 430.10699000 -0.55263400 -0.17071301 -0.81575298 1.905766e-42
60.55799900 38.49940100 429.15399000 -0.58725601 -0.14979801 -0.79541802 1.905766e-42
61.94340100 37.98930000 428.12500000 -0.62208200 -0.12762199 -0.77248102 1.905766e-42
62.56209900 36.37850200 427.61200000 -0.65257198 -0.12661600 -0.74707299 1.905766e-42
62.95970200 34.65850100 427.26099000 -0.67762601 -0.13493501 -0.72292203 1.905766e-42
63.58990100 33.00759900 426.91800000 -0.69410402 -0.16004200 -0.70186001 1.905766e-42
64.49690200 31.51820000 426.47198000 -0.70390201 -0.19091900 -0.68415803 1.905766e-42
65.61430400 30.34350000 425.69000000 -0.71575499 -0.21115300 -0.66566402 1.905766e-42
66.19270300 28.84890000 424.87000000 -0.72203100 -0.23277199 -0.65152699 1.905766e-42
66.73320000 27.13450100 424.77802000 -0.72213900 -0.25325999 -0.64371902 1.905766e-42
67.27369700 25.41780100 424.75299000 -0.72219002 -0.26578400 -0.63859302 1.905766e-42
67.89499700 23.72860000 424.78400000 -0.72321898 -0.26983801 -0.63572198 1.905766e-42
68.63860300 22.09020000 424.73499000 -0.72628498 -0.26557299 -0.63401902 1.905766e-42
69.40860000 20.46349900 424.70300000 -0.73256397 -0.25056499 -0.63290399 1.905766e-42
70.55570200 19.15720000 424.23599000 -0.74346101 -0.23180100 -0.62732297 1.905766e-42
70.55359600 17.44059900 424.77802000 -0.74681598 -0.20543399 -0.63250500 1.905766e-42
70.43800400 15.74890000 425.38199000 -0.74928200 -0.17556500 -0.63855600 1.905766e-42
70.55750300 13.95770000 425.51300000 -0.75494200 -0.14004201 -0.64066398 1.905766e-42
71.15180200 12.36090000 424.93201000 -0.76539999 -0.10501800 -0.63492799 1.905766e-42
71.24210400 10.56780000 424.80301000 -0.77076501 -0.06534970 -0.63375902 1.905766e-42
71.75910200 8.97712040 424.13800000 -0.77984399 -0.02891130 -0.62530601 1.905766e-42
71.99819900 7.22038980 423.82700000 -0.78306299 0.01391790 -0.62178701 1.905766e-42
72.00280000 5.43088010 423.63300000 -0.77937502 0.06204740 -0.62347800 1.905766e-42
72.49289700 3.83962010 422.94901000 -0.77695203 0.10246600 -0.62116498 1.905766e-42
72.43779800 2.07424000 422.60199000 -0.76796401 0.15631200 -0.62112600 1.905766e-42
72.66320000 0.40861100 421.95801000 -0.76003402 0.20879699 -0.61542797 1.905766e-42
72.28910100 -1.32948010 421.67700000 -0.74581498 0.26859900 -0.60960197 1.905766e-42
71.69239800 -3.02665000 421.61700000 -0.72871798 0.32670900 -0.60185599 1.905766e-42
71.25050400 -4.74618010 421.32001000 -0.71166998 0.38252300 -0.58923900 1.905766e-42
71.00299800 -6.43598990 420.75201000 -0.69855499 0.42885000 -0.57280803 1.905766e-42
70.03589600 -7.95375010 420.78400000 -0.68623298 0.46170199 -0.56206298 1.905766e-42
69.41249800 -9.52136040 420.15601000 -0.67584002 0.49618199 -0.54501802 1.905766e-42
68.97969800 -11.00400000 419.23199000 -0.66720301 0.52801901 -0.52539098 1.905766e-42
68.26879900 -12.45710000 418.44199000 -0.65786600 0.55691803 -0.50700599 1.905766e-42
68.19799800 -13.58450000 417.04099000 -0.65345502 0.58141500 -0.48472100 1.905766e-42
68.35080000 -14.62090000 415.57700000 -0.65035498 0.60289299 -0.46212500 1.905766e-42
67.97630300 -15.93590000 414.40701000 -0.64470500 0.62483501 -0.44038200 1.905766e-42
67.45739700 -17.23920100 413.27899000 -0.63691401 0.64747900 -0.41846299 1.905766e-42
66.98200200 -18.43490000 412.01999000 -0.63023698 0.66712302 -0.39717600 1.905766e-42
66.98870100 -19.38900000 410.49399000 -0.62722999 0.68187499 -0.37633699 1.905766e-42
66.33260300 -20.55950000 409.29401000 -0.62147897 0.69570601 -0.36021799 1.905766e-42
65.45520000 -21.73910000 408.25500000 -0.61493599 0.70741498 -0.34845200 1.905766e-42
65.39379900 -22.63019900 406.69299000 -0.61395800 0.71474600 -0.33495301 1.905766e-42
64.97589900 -23.62400100 405.25101000 -0.60920101 0.72197002 -0.32807499 1.905766e-42
64.17479700 -24.76590000 404.11301000 -0.60205400 0.72955602 -0.32446599 1.905766e-42
63.10929900 -25.95620000 403.28400000 -0.59847599 0.73200202 -0.32557499 1.905766e-42
62.83010100 -27.49620100 402.39499000 -0.59403801 0.73444301 -0.32819399 1.905766e-42
61.83779900 -28.80719900 401.66299000 -0.58743799 0.73757398 -0.33301800 1.905766e-42
60.81890100 -30.04060000 400.83701000 -0.57912302 0.74105400 -0.33978599 1.905766e-42
59.61019900 -31.12970000 400.06699000 -0.56894898 0.74486297 -0.34853399 1.905766e-42
58.44570200 -32.19860100 399.20599000 -0.55643201 0.74918097 -0.35932001 1.905766e-42
57.64920000 -33.15840100 397.90900000 -0.54324198 0.75299501 -0.37132999 1.905766e-42
56.88909900 -34.45959900 396.92401000 -0.50437802 0.78075898 -0.36880699 1.905766e-42
55.71979900 -35.54410200 396.09000000 -0.45829600 0.81309801 -0.35893700 1.905766e-42
54.52240000 -36.46780000 395.11301000 -0.40853199 0.84568799 -0.34338501 1.905766e-42
54.07860200 -37.03160100 393.46201000 -0.37238899 0.86839801 -0.32743201 1.905766e-42
53.23370000 -37.74480100 392.04199000 -0.32681000 0.89508599 -0.30334201 1.905766e-42
52.26699800 -38.47470100 390.71100000 -0.28081599 0.92011702 -0.27299500 1.905766e-42
51.08029900 -39.16700000 389.54800000 -0.23620300 0.94251400 -0.23637900 1.905766e-42
49.87970000 -40.00529900 388.50101000 -0.21379100 0.95318902 -0.21383201 1.905766e-42
48.54000100 -40.62570200 387.47101000 -0.18821600 0.96310002 -0.19238900 1.905766e-42
46.74919900 -40.79230100 387.54300000 -0.16163400 0.97109199 -0.17565399 1.905766e-42
44.98770100 -40.80880000 387.91299000 -0.13474900 0.97794199 -0.15960200 1.905766e-42
43.33639900 -40.93370100 388.61801000 -0.11109700 0.98301297 -0.14609499 1.905766e-42
41.67630000 -41.12839900 389.28601000 -0.08555130 0.98775101 -0.13049200 1.905766e-42
39.92919900 -41.44060100 389.58701000 -0.05187310 0.99291003 -0.10695200 1.905766e-42
38.38370100 -41.20980100 390.48001000 -0.03395390 0.99480999 -0.09591760 1.905766e-42
36.72539900 -41.12099800 391.17401000 -0.01115500 0.99675900 -0.07966300 1.905766e-42
35.10189800 -40.80810200 391.88599000 0.00871701 0.99786103 -0.06478540 1.905766e-42
33.30500000 -40.89339800 391.94800000 0.03676090 0.99854702 -0.03939080 1.905766e-42
31.55030100 -40.82770200 392.34399000 0.05213270 0.99831700 -0.02540350 1.905766e-42
29.77700000 -40.91210200 392.64099000 0.06798820 0.99763697 -0.00993668 1.905766e-42
28.14100100 -40.76219900 393.37701000 0.07769720 0.99697697 -0.00039648 1.905766e-42
26.35129900 -40.72900000 393.56601000 0.09620190 0.99519801 0.01808040 1.905766e-42
24.70669900 -40.39889900 394.21899000 0.13503200 0.99065000 0.01946070 1.905766e-42
22.93450000 -40.11200000 394.35001000 0.17915800 0.98335302 0.03031850 1.905766e-42
21.16379900 -39.78960000 394.32501000 0.22179200 0.97409898 0.04404540 1.905766e-42
19.42540000 -39.32400100 394.35999000 0.26005301 0.96390998 0.05700920 1.905766e-42
17.79310000 -38.76160000 394.86899000 0.28915700 0.95526397 0.06211820 1.905766e-42
16.07760000 -38.25759900 395.07700000 0.31665799 0.94587201 0.07108920 1.905766e-42
14.36850000 -37.76559800 395.35400000 0.33851701 0.93776202 0.07751440 1.905766e-42
12.73290000 -37.30519900 395.94800000 0.35348499 0.93226898 0.07696210 1.905766e-42
11.39640000 -36.66939900 396.97299000 0.36314800 0.92932397 0.06693820 1.905766e-42
9.81847950 -36.10990100 397.63400000 0.38321900 0.92163903 0.06102700 1.905766e-42
8.24650000 -35.46500000 398.22800000 0.40428600 0.91292399 0.05588550 1.905766e-42
6.50998020 -35.00610000 398.34601000 0.42699000 0.90242600 0.05750100 1.905766e-42
5.11122990 -34.33520100 399.25900000 0.44565701 0.89403898 0.04565360 1.905766e-42
3.47510000 -33.75490200 399.73401000 0.46657801 0.88358498 0.03978470 1.905766e-42
2.20939990 -32.87279900 400.66199000 0.48482299 0.87422800 0.02592550 1.905766e-42
0.73399103 -31.95599900 401.13400000 0.50504398 0.86290801 0.01788120 1.905766e-42
-0.91645497 -31.26960000 401.34500000 0.52438998 0.85139298 0.01202380 1.905766e-42
-2.14133000 -30.28739900 402.22601000 0.53972799 0.84182698 -0.00459904 1.905766e-42
-3.52659010 -29.42130100 402.98099000 0.55546802 0.83130401 -0.01971070 1.905766e-42
-5.06441020 -28.50200100 403.15399000 0.57259798 0.81941098 -0.02641150 1.905766e-42
-6.01712990 -27.20680000 403.96301000 0.58906698 0.80696100 -0.04259910 1.905766e-42
