# .PCD v0.7 - Point Cloud Data file format
# 5 114 0
# 1 34 0
# 35 55 0
# 56 73 0
# 74 102 0
# 103 114 0
VERSION 0.7
FIELDS x y z normal_x normal_y normal_z curvature
SIZE 4 4 4 4 4 4 4
TYPE F F F F F F F
COUNT 1 1 1 1 1 1 1
WIDTH 114
HEIGHT 1
VIEWPOINT 0 0 0 1 0 0 0
POINTS 114
DATA ascii
55.31679900 3.93894000 439.96201000 -0.40030199 0.84862298 -0.34582800 1.905766e-42
53.52170200 3.81130000 439.99899000 -0.37478700 0.86704999 -0.32826501 1.905766e-42
52.50109900 2.85673000 439.20300000 -0.35428300 0.85082698 -0.38804200 1.905766e-42
50.90370200 2.02763010 439.23401000 -0.33999699 0.84885401 -0.40478301 1.905766e-42
49.29100000 1.52825000 439.85800000 -0.32888299 0.86813802 -0.37171501 1.905766e-42
47.74520100 1.52885000 440.78000000 -0.32138401 0.89927000 -0.29669100 1.905766e-42
46.01680000 1.02637000 440.78400000 -0.29994801 0.90815800 -0.29202700 1.905766e-42
44.25080100 0.67816299 440.77899000 -0.26736701 0.92196602 -0.28016800 1.905766e-42
42.51060100 0.21817000 440.76401000 -0.23564400 0.92144698 -0.30888000 1.905766e-42
40.81700100 -0.38798001 440.69901000 -0.22415499 0.90362501 -0.36498901 1.905766e-42
39.23799900 -1.20378990 440.41400000 -0.22205000 0.85759598 -0.46392199 1.905766e-42
37.71910100 -2.06645990 439.98001000 -0.20488900 0.78932601 -0.57877898 1.905766e-42
35.95769900 -2.43674990 439.97101000 -0.15428600 0.81697500 -0.55565101 1.905766e-42
34.19590000 -2.80413010 440.00601000 -0.09793920 0.85194898 -0.51438397 1.905766e-42
33.48160200 -1.35437000 440.79901000 -0.12909800 0.91416901 -0.38422599 1.905766e-42
31.70529900 -1.64359000 440.76300000 -0.06320900 0.93233699 -0.35602400 1.905766e-42
29.93639900 -1.97489000 440.79501000 -0.02339470 0.93746001 -0.34730601 1.905766e-42
28.14730100 -1.77741000 440.80899000 0.00195087 0.94164801 -0.33659300 1.905766e-42
26.35290000 -1.90725000 440.86700000 0.01961590 0.94082803 -0.33831501 1.905766e-42
24.57379900 -2.10124990 441.06000000 0.03362450 0.94217998 -0.33341599 1.905766e-42
22.87089900 -1.82069000 441.57101000 0.06625310 0.94827300 -0.31046700 1.905766e-42
21.08540000 -1.59317000 441.56000000 0.10401900 0.94386297 -0.31353301 1.905766e-42
19.34289900 -1.40897000 441.14700000 0.13841200 0.93659198 -0.32192901 1.905766e-42
17.76540000 -0.81697601 441.78101000 0.16617800 0.93865299 -0.30218300 1.905766e-42
16.13050100 -0.37427899 442.39001000 0.19202401 0.93737501 -0.29061100 1.905766e-42
14.37190000 0.00938604 442.37399000 0.22199000 0.93098402 -0.28981000 1.905766e-42
12.62120000 0.03566600 441.95700000 0.26504400 0.91910899 -0.29153001 1.905766e-42
10.96230000 0.59792203 442.37100000 0.30968201 0.90560597 -0.28978401 1.905766e-42
9.65456960 1.58055000 443.12299000 0.35047799 0.88937700 -0.29355201 1.905766e-42
7.96613980 1.93543990 442.60901000 0.39267701 0.87138897 -0.29408401 1.905766e-42
6.41509010 2.84033990 442.73300000 0.43629801 0.84718603 -0.30318299 1.905766e-42
4.87334010 3.71899010 442.43201000 0.45289400 0.83443701 -0.31400999 1.905766e-42
3.31851010 4.62278990 442.50699000 0.45590299 0.82288301 -0.33914000 1.905766e-42
1.83290000 5.60358000 442.77301000 0.45732400 0.80419201 -0.37964499 1.905766e-42
0.68127501 6.65701010 443.67001000 0.47661999 0.76942199 -0.42523301 1.905766e-42
-0.05001190 7.89058020 444.75800000 0.51234800 0.72659397 -0.45777801 1.905766e-42
-1.54037000 8.89896010 444.80301000 0.49418801 0.70033598 -0.51508099 1.905766e-42
-2.29215000 10.31190000 445.62701000 0.49929899 0.68423402 -0.53153002 1.905766e-42
-3.75263000 11.28230000 446.03299000 0.46757901 0.67821097 -0.56692100 1.905766e-42
-5.39406010 11.62530000 446.68799000 0.43026900 0.67390001 -0.60060602 1.905766e-42
-5.02277990 12.84620000 447.95700000 0.49153101 0.68173200 -0.54188401 1.905766e-42
-4.44240000 14.15820000 449.04401000 0.53264099 0.68167001 -0.50161701 1.905766e-42
-4.57407000 15.37170000 450.36700000 0.55449200 0.68230301 -0.47644600 1.905766e-42
-4.60691020 16.39720000 451.84601000 0.57510900 0.67605501 -0.46065101 1.905766e-42
-4.53705980 17.40560000 453.33499000 0.58244503 0.64796197 -0.49081901 1.905766e-42
-4.58340980 18.55030100 454.72400000 0.58911300 0.61979002 -0.51846600 1.905766e-42
-5.35297010 19.96120100 455.53400000 0.59886098 0.59234202 -0.53897703 1.905766e-42
-6.43190000 21.32799900 455.98999000 0.61364299 0.56537700 -0.55117202 1.905766e-42
-7.49701980 22.77899900 456.00101000 0.62516099 0.53943098 -0.56408203 1.905766e-42
-8.51089000 24.25330000 456.19800000 0.63571501 0.51101702 -0.57855701 1.905766e-42
-8.81136990 25.74080100 457.16599000 0.65372300 0.48188099 -0.58346999 1.905766e-42
-8.89433000 27.18210000 458.24100000 0.67292500 0.45292601 -0.58483398 1.905766e-42
-9.62644960 28.73650000 458.77701000 0.68816501 0.41514200 -0.59505099 1.905766e-42
-9.62341020 30.34900100 459.57700000 0.70033097 0.37261599 -0.60884601 1.905766e-42
-10.07650000 31.98880000 460.16501000 0.71378201 0.33884200 -0.61294502 1.905766e-42
-9.38951970 32.96569800 461.51199000 0.72002000 0.34051701 -0.60466498 1.905766e-42
-8.60805030 33.71210100 462.95099000 0.71151799 0.35904601 -0.60400999 1.905766e-42
-7.67744020 34.19979900 464.41299000 0.69313800 0.38236299 -0.61102998 1.905766e-42
-6.61143020 34.54460100 465.82199000 0.66954398 0.40842101 -0.62040597 1.905766e-42
-5.08021020 33.97869900 466.57999000 0.64060599 0.41987801 -0.64290500 1.905766e-42
-3.83702990 32.84230000 467.21500000 0.61497098 0.42573601 -0.66374600 1.905766e-42
-2.53165010 32.11679800 468.22000000 0.59144902 0.44063199 -0.67530102 1.905766e-42
-1.24026000 31.00740100 468.80399000 0.56831598 0.45412099 -0.68614203 1.905766e-42
0.19666199 29.92390100 468.83899000 0.54346699 0.47239000 -0.69389600 1.905766e-42
1.64145000 29.28089900 469.69901000 0.52157801 0.49455300 -0.69524997 1.905766e-42
3.14803000 28.32770000 469.94800000 0.50317103 0.50772601 -0.69930899 1.905766e-42
4.67079020 27.74070000 470.70700000 0.48462999 0.51925701 -0.70392197 1.905766e-42
6.30314020 27.10150000 471.11499000 0.46412599 0.52862698 -0.71073198 1.905766e-42
7.74322990 27.28510100 472.17999000 0.44419101 0.53558499 -0.71822202 1.905766e-42
9.33063030 27.19730000 473.02399000 0.41223899 0.52690601 -0.74325597 1.905766e-42
10.94090000 27.17250100 473.82800000 0.37980101 0.51877600 -0.76591301 1.905766e-42
12.54420000 27.21290000 474.64499000 0.34556001 0.51145101 -0.78676897 1.905766e-42
14.20790000 27.28300100 475.32800000 0.31231701 0.50413001 -0.80517697 1.905766e-42
15.88200000 27.27090100 475.98999000 0.28264999 0.49668401 -0.82061797 1.905766e-42
17.32799900 26.19890000 475.99100000 0.26687300 0.49737200 -0.82546997 1.905766e-42
18.00180100 24.75799900 475.14899000 0.26615900 0.50892800 -0.81862801 1.905766e-42
19.36080000 23.61689900 474.84698000 0.25286800 0.51717901 -0.81766999 1.905766e-42
20.33510000 22.22979900 474.24200000 0.22845200 0.54116398 -0.80928999 1.905766e-42
21.21530000 20.84550100 473.50101000 0.20488000 0.57034701 -0.79544199 1.905766e-42
22.06060000 19.46320000 472.71701000 0.18173200 0.60441703 -0.77566302 1.905766e-42
23.17140000 18.27050000 471.95300000 0.14966200 0.63387400 -0.75881797 1.905766e-42
24.64060000 17.35409900 471.46100000 0.10756500 0.65406197 -0.74875402 1.905766e-42
26.30509900 16.73770000 471.16199000 0.06536890 0.67203599 -0.73762703 1.905766e-42
28.08120000 16.44669900 471.13501000 0.06232910 0.67837101 -0.73207098 1.905766e-42
29.71880000 15.92340000 470.60199000 0.05687970 0.68054599 -0.73049498 1.905766e-42
31.25140000 15.16680000 470.03799000 0.05011930 0.67752898 -0.73378599 1.905766e-42
32.90510200 14.65100000 469.54800000 0.04251480 0.67282999 -0.73857403 1.905766e-42
34.64500000 14.24680000 469.32700000 0.03197880 0.66649097 -0.74482697 1.905766e-42
36.13320200 13.43450000 468.72198000 -0.00002039 0.66333199 -0.74832600 1.905766e-42
37.70360200 12.69800000 468.24100000 -0.04590720 0.66787100 -0.74286002 1.905766e-42
39.07239900 11.96610000 467.32999000 -0.08623540 0.67692202 -0.73098600 1.905766e-42
40.39479800 11.24680000 466.34299000 -0.12457100 0.68926901 -0.71371597 1.905766e-42
42.17869900 11.41160000 466.16800000 -0.16840500 0.68897498 -0.70494902 1.905766e-42
43.87469900 11.28710000 465.57800000 -0.20804900 0.69187200 -0.69139600 1.905766e-42
45.65589900 11.54210000 465.52899000 -0.23777901 0.68599802 -0.68765402 1.905766e-42
47.21810200 11.42740000 464.64200000 -0.26609501 0.69042099 -0.67268997 1.905766e-42
48.83269900 11.48730000 463.84900000 -0.29600301 0.69256401 -0.65782702 1.905766e-42
50.45060000 11.50020000 463.06000000 -0.32642800 0.69487500 -0.64077598 1.905766e-42
52.07939900 11.64340000 462.30701000 -0.35766700 0.69527400 -0.62343198 1.905766e-42
53.77520000 11.99290000 461.81500000 -0.36843699 0.69889998 -0.61302000 1.905766e-42
55.47969800 12.28060000 461.31299000 -0.36730799 0.71166402 -0.59884799 1.905766e-42
56.94490100 12.31010000 460.26801000 -0.36496899 0.73521298 -0.57119101 1.905766e-42
58.07320000 11.99380000 458.90201000 -0.37026900 0.76341403 -0.52924401 1.905766e-42
58.62879900 11.23790000 457.36600000 -0.39095101 0.78975999 -0.47268999 1.905766e-42
59.07020200 10.28890000 455.90100000 -0.41556501 0.81529498 -0.40323699 1.905766e-42
59.08610200 9.69466020 454.20200000 -0.44073501 0.83857203 -0.32023400 1.905766e-42
58.90449900 9.06015970 452.52701000 -0.45912999 0.85310501 -0.24781200 1.905766e-42
58.97409800 8.52672000 450.81000000 -0.47023901 0.86220300 -0.18836500 1.905766e-42
58.08420200 7.95306020 449.35400000 -0.47423100 0.86567497 -0.16034999 1.905766e-42
57.99079900 7.45825000 447.62601000 -0.47927400 0.86570901 -0.14437599 1.905766e-42
57.39379900 6.95086000 446.00500000 -0.46954200 0.87194699 -0.13869999 1.905766e-42
56.67269900 6.42375990 444.44299000 -0.45295101 0.87920702 -0.14775100 1.905766e-42
56.21220000 5.85840990 442.79700000 -0.44932300 0.86928701 -0.20603301 1.905766e-42
55.77629900 5.16960000 441.19199000 -0.43289700 0.85824299 -0.27571699 1.905766e-42
