# .PCD v0.7 - Point Cloud Data file format
# 5 192 0
# 1 79 0
# 80 99 0
# 100 141 0
# 142 179 0
# 180 192 0
VERSION 0.7
FIELDS x y z normal_x normal_y normal_z curvature
SIZE 4 4 4 4 4 4 4
TYPE F F F F F F F
COUNT 1 1 1 1 1 1 1
WIDTH 192
HEIGHT 1
VIEWPOINT 0 0 0 1 0 0 0
POINTS 192
DATA ascii
85.28240200 11.33040000 476.77499000 0.08197940 -0.66963202 0.73815399 1.905766e-42
83.50129700 11.52430000 476.94901000 0.07186540 -0.65772098 0.74982601 1.905766e-42
81.88710000 10.74250000 476.79700000 0.06797020 -0.65725702 0.75059599 1.905766e-42
80.10109700 10.51880000 476.80801000 0.05877950 -0.65428299 0.75396198 1.905766e-42
78.30480200 10.56610000 476.91400000 0.04814210 -0.64898801 0.75927401 1.905766e-42
76.61170200 11.11950000 477.17300000 0.03767770 -0.64102298 0.76659602 1.905766e-42
74.81490300 11.09440000 477.27600000 0.02726050 -0.64053899 0.76744097 1.905766e-42
73.02140000 11.21340000 477.37299000 0.01643270 -0.64039397 0.76787102 1.905766e-42
71.22550200 11.28540000 477.47101000 0.00498765 -0.64136398 0.76722097 1.905766e-42
69.51699800 11.83830000 477.59500000 -0.00578940 -0.63845199 0.76964003 1.905766e-42
67.78929900 11.33400000 477.61600000 -0.01769460 -0.64456397 0.76434499 1.905766e-42
66.07759900 11.85630000 477.81000000 -0.02834400 -0.63858801 0.76902699 1.905766e-42
64.28939800 12.05570000 477.85999000 -0.03961600 -0.63578397 0.77085000 1.905766e-42
62.49119900 11.97830000 477.88400000 -0.05042950 -0.63519901 0.77069998 1.905766e-42
60.69129900 11.96400000 477.87500000 -0.06083680 -0.63382500 0.77108002 1.905766e-42
58.85380200 12.36130000 477.90500000 -0.07152340 -0.62715900 0.77560103 1.905766e-42
57.08950000 12.07390000 477.69400000 -0.08048200 -0.63014400 0.77229601 1.905766e-42
55.43980000 12.77180000 477.87100000 -0.08994690 -0.61856198 0.78057098 1.905766e-42
53.64350100 12.78150000 477.75500000 -0.09852970 -0.61701000 0.78076202 1.905766e-42
51.85620100 12.99280000 477.72601000 -0.10340600 -0.61270797 0.78351498 1.905766e-42
50.11169800 13.42480000 477.62500000 -0.10841700 -0.60657799 0.78759700 1.905766e-42
48.32120100 13.58780000 477.53900000 -0.11314000 -0.60289299 0.78975898 1.905766e-42
46.53089900 13.55730000 477.35400000 -0.11740200 -0.60180300 0.78996801 1.905766e-42
44.74440000 13.57100000 477.13501000 -0.12159900 -0.60048401 0.79033703 1.905766e-42
42.96600000 13.59830000 476.85800000 -0.12565701 -0.59948498 0.79046100 1.905766e-42
41.22140100 14.03840000 476.80701000 -0.13046201 -0.59206498 0.79526001 1.905766e-42
39.45940000 14.36600000 476.63901000 -0.13494100 -0.58679903 0.79841000 1.905766e-42
37.68249900 14.14480000 476.45599000 -0.13840701 -0.58754599 0.79726601 1.905766e-42
35.89070100 14.20370000 476.29501000 -0.14166699 -0.58515197 0.79845297 1.905766e-42
34.11990000 14.33070000 475.99799000 -0.14418399 -0.58320600 0.79942602 1.905766e-42
32.33980200 14.29430000 475.73300000 -0.14642100 -0.58297497 0.79918802 1.905766e-42
30.57180000 14.40140000 475.41299000 -0.14876799 -0.58157402 0.79977500 1.905766e-42
28.79299900 14.52630000 475.16699000 -0.15117200 -0.57928997 0.80098099 1.905766e-42
27.05870100 14.99020000 475.03799000 -0.15411299 -0.57183403 0.80576301 1.905766e-42
25.27790100 14.94590000 474.77899000 -0.15612100 -0.57168800 0.80548102 1.905766e-42
23.52949900 14.91070000 474.35300000 -0.15789300 -0.57309699 0.80413300 1.905766e-42
21.77109900 15.18320000 474.08099000 -0.16026200 -0.56907099 0.80651999 1.905766e-42
20.03570000 15.18300000 473.60300000 -0.16190299 -0.57062799 0.80509001 1.905766e-42
18.26170000 15.16030000 473.29901000 -0.16255701 -0.57098502 0.80470598 1.905766e-42
16.50449900 15.15990000 472.90900000 -0.16258800 -0.57218802 0.80384499 1.905766e-42
14.72810000 15.14050000 472.61899000 -0.16280399 -0.57282001 0.80334997 1.905766e-42
12.94990000 15.10420000 472.34201000 -0.16309600 -0.57372302 0.80264598 1.905766e-42
11.16580000 15.15000000 472.10800000 -0.16363400 -0.57291102 0.80311698 1.905766e-42
9.40085980 15.23850000 471.76501000 -0.16418900 -0.57266700 0.80317801 1.905766e-42
7.64995000 15.16200000 471.35501000 -0.16448399 -0.57581902 0.80086100 1.905766e-42
5.89260010 15.17850000 470.96600000 -0.16499101 -0.57714802 0.79979903 1.905766e-42
4.12270020 15.22710000 470.64200000 -0.16567600 -0.57705301 0.79972601 1.905766e-42
2.35300990 15.32850000 470.32901000 -0.16651601 -0.57587498 0.80040002 1.905766e-42
0.59749401 15.68690000 470.15601000 -0.15900999 -0.56941098 0.80652797 1.905766e-42
-1.18332000 15.67370000 469.89499000 -0.14896099 -0.56849802 0.80908698 1.905766e-42
-2.95485000 15.84780000 469.62799000 -0.13936301 -0.56478500 0.81338602 1.905766e-42
-4.74073980 15.84300000 469.40302000 -0.12943900 -0.56259102 0.81654000 1.905766e-42
-6.52612020 15.91580000 469.18600000 -0.11976600 -0.55904502 0.82044202 1.905766e-42
-8.30980010 16.01759900 468.96600000 -0.11024000 -0.55491400 0.82457101 1.905766e-42
-10.09200000 16.16320000 468.76001000 -0.10095500 -0.54994398 0.82907802 1.905766e-42
-11.87750000 16.04970000 468.56299000 -0.09104000 -0.54773498 0.83168399 1.905766e-42
-13.66330000 15.97140000 468.35101000 -0.08124260 -0.54505801 0.83445299 1.905766e-42
-15.45950000 15.99100000 468.23401000 -0.07024820 -0.54010397 0.83866102 1.905766e-42
-17.24630000 16.20730000 468.25400000 -0.05094370 -0.52987301 0.84654498 1.905766e-42
-18.95900000 16.70590000 468.49500000 -0.03480990 -0.51440197 0.85684198 1.905766e-42
-20.75700000 16.79030000 468.48099000 -0.01470050 -0.50341803 0.86391801 1.905766e-42
-22.53860100 17.00700000 468.61801000 0.00395971 -0.48918599 0.87216997 1.905766e-42
-24.28920000 17.36759900 468.83099000 0.02098470 -0.47254801 0.88105500 1.905766e-42
-26.06570100 17.62060000 468.97198000 0.03938330 -0.45634401 0.88893199 1.905766e-42
-27.85950100 17.62200000 469.12100000 0.06023820 -0.44136301 0.89530498 1.905766e-42
-29.34709900 18.52610000 469.57901000 0.06933720 -0.42015800 0.90479797 1.905766e-42
-31.02039900 19.15990100 469.77499000 0.08420660 -0.40085301 0.91226399 1.905766e-42
-32.73040000 19.35720100 470.30099000 0.10394500 -0.38259801 0.91804898 1.905766e-42
-34.38309900 19.94330000 470.70700000 0.12511800 -0.36151499 0.92393303 1.905766e-42
-36.03690000 20.49510000 471.15500000 0.14416499 -0.33979699 0.92938399 1.905766e-42
-37.74670000 20.87019900 471.57401000 0.16281500 -0.31644401 0.93453401 1.905766e-42
-39.37609900 21.40230000 472.12399000 0.17936800 -0.29048699 0.93991703 1.905766e-42
-40.90990100 20.46110000 472.07999000 0.20515600 -0.27353701 0.93972802 1.905766e-42
-41.72600200 18.87039900 471.87100000 0.23349600 -0.28587699 0.92938399 1.905766e-42
-42.97200000 17.57360100 471.79501000 0.26293501 -0.29534900 0.91849601 1.905766e-42
-44.11759900 16.19230100 471.65500000 0.28765801 -0.31200600 0.90548599 1.905766e-42
-45.09220100 14.69730000 471.42099000 0.30584601 -0.33283499 0.89200902 1.905766e-42
-46.47729900 13.54780000 471.43600000 0.32503599 -0.34523499 0.88043398 1.905766e-42
-47.82510000 12.35990000 471.32501000 0.34113899 -0.35849199 0.86896902 1.905766e-42
-48.93600100 10.94560000 471.24899000 0.35422400 -0.37213901 0.85792601 1.905766e-42
-49.41149900 9.31254010 470.66000000 0.36398199 -0.38931501 0.84613901 1.905766e-42
-48.92810100 7.94468020 469.59500000 0.36961800 -0.42110801 0.82828200 1.905766e-42
-47.93030200 6.69154980 468.77399000 0.36999300 -0.44874701 0.81346899 1.905766e-42
-47.56359900 5.27405980 467.72699000 0.37570801 -0.47353399 0.79662299 1.905766e-42
-46.94250100 3.97247000 466.64999000 0.37925500 -0.49657300 0.78075600 1.905766e-42
-46.63219800 2.57828000 465.55399000 0.38681599 -0.52107400 0.76082599 1.905766e-42
-46.19080000 1.26694000 464.40302000 0.39253801 -0.54953903 0.73751003 1.905766e-42
-45.79840100 0.04118960 463.14401000 0.39704701 -0.57756799 0.71328002 1.905766e-42
-45.35070000 -1.06428000 461.79599000 0.39952001 -0.60525298 0.68851501 1.905766e-42
-44.83280200 -2.15856000 460.46399000 0.40057799 -0.63240403 0.66302502 1.905766e-42
-44.13520100 -3.24559000 459.21100000 0.39965999 -0.65674698 0.63949603 1.905766e-42
-43.59600100 -4.28114990 457.84100000 0.39989501 -0.68038201 0.61413699 1.905766e-42
-42.79819900 -5.08486990 456.44101000 0.39716101 -0.70310700 0.58983397 1.905766e-42
-42.97940100 -6.14276980 454.99600000 0.40273601 -0.72276801 0.56161398 1.905766e-42
-42.53559900 -6.98682020 453.47000000 0.40243900 -0.74469501 0.53242099 1.905766e-42
-41.90510200 -7.88029000 452.04001000 0.39998800 -0.76767498 0.50068498 1.905766e-42
-41.34100000 -8.58751010 450.48401000 0.39585701 -0.79048502 0.46736500 1.905766e-42
-41.13530000 -9.29996970 448.84399000 0.39253899 -0.81312603 0.42981201 1.905766e-42
-40.31670000 -9.89997960 447.35699000 0.38335299 -0.83411402 0.39660400 1.905766e-42
-39.59249900 -10.35270000 445.77301000 0.37318400 -0.85196602 0.36726901 1.905766e-42
-38.17919900 -10.10340000 444.68600000 0.35866800 -0.86353803 0.35448501 1.905766e-42
-36.63230100 -9.80130960 443.81699000 0.34306300 -0.87326300 0.34600401 1.905766e-42
-35.58280200 -9.76068020 442.35501000 0.32883799 -0.88837898 0.32038701 1.905766e-42
-33.90539900 -9.58586980 441.72601000 0.31114501 -0.89658803 0.31514800 1.905766e-42
-32.42820000 -9.43433000 440.70901000 0.29210201 -0.90798903 0.30038601 1.905766e-42
-30.90630000 -9.26869960 439.76199000 0.27067101 -0.91885698 0.28712100 1.905766e-42
-29.55870100 -9.17409040 438.57199000 0.24862000 -0.92890900 0.27443799 1.905766e-42
-28.22750100 -9.12716010 437.36200000 0.22655800 -0.93855399 0.26036000 1.905766e-42
-26.63209900 -9.04166030 436.53201000 0.20300999 -0.94651002 0.25081101 1.905766e-42
-25.50860000 -8.84214020 435.14001000 0.18514900 -0.95560098 0.22923300 1.905766e-42
-23.80590100 -8.95849990 434.56799000 0.16188200 -0.96194100 0.22014301 1.905766e-42
-22.34070000 -8.79113010 433.53601000 0.14105301 -0.96917701 0.20199201 1.905766e-42
-20.54200000 -8.84261040 433.58099000 0.11767400 -0.97178602 0.20441300 1.905766e-42
-19.11070100 -8.79074950 432.49100000 0.09824410 -0.97820002 0.18295500 1.905766e-42
-17.38430000 -8.77289010 431.98199000 0.07603910 -0.98189902 0.17347300 1.905766e-42
-15.58970000 -8.65135000 431.91299000 0.05383700 -0.98327798 0.17397100 1.905766e-42
-13.94560000 -8.55117990 431.18701000 0.03353780 -0.98501098 0.16919900 1.905766e-42
-12.15020000 -8.67879960 431.18500000 0.01258110 -0.98530799 0.17032000 1.905766e-42
-10.35100000 -8.72902970 431.16400000 -0.00442183 -0.98505902 0.17216100 1.905766e-42
-8.55628970 -8.71747020 431.02600000 -0.01820980 -0.98458499 0.17395400 1.905766e-42
-6.80725000 -8.82402990 430.61401000 -0.03178180 -0.98432201 0.17349200 1.905766e-42
-5.02145000 -8.86586000 430.39301000 -0.04505440 -0.98378199 0.17361800 1.905766e-42
-3.23002000 -9.04127980 430.38901000 -0.05797370 -0.98296303 0.17442000 1.905766e-42
-1.44221000 -9.19406030 430.24600000 -0.07058820 -0.98227203 0.17366201 1.905766e-42
0.28089300 -9.12158970 429.73001000 -0.08208250 -0.98208702 0.16961101 1.905766e-42
1.96952000 -9.48736000 430.23499000 -0.09358690 -0.98060602 0.17219900 1.905766e-42
3.70700000 -9.60783000 429.78101000 -0.10417100 -0.98054600 0.16636901 1.905766e-42
5.49847980 -9.68733980 429.62500000 -0.11359700 -0.98019600 0.16221000 1.905766e-42
7.28095010 -9.93787960 429.62201000 -0.11240300 -0.98061502 0.16050000 1.905766e-42
9.05593970 -10.20280000 429.76001000 -0.11140500 -0.98075300 0.16034999 1.905766e-42
10.82440000 -10.46020000 429.97601000 -0.11053900 -0.98068202 0.16138300 1.905766e-42
12.56820000 -10.69540000 429.59698000 -0.10956800 -0.98168498 0.15584899 1.905766e-42
14.34620000 -10.97620000 429.58801000 -0.10892900 -0.98194498 0.15465701 1.905766e-42
16.13500000 -11.17610000 429.59500000 -0.10849800 -0.98207498 0.15413000 1.905766e-42
17.92270100 -11.38580000 429.58499000 -0.10829900 -0.98214602 0.15381700 1.905766e-42
19.70900000 -11.60700000 429.56699000 -0.10837700 -0.98212701 0.15388700 1.905766e-42
21.49790000 -11.80040000 429.51599000 -0.10880300 -0.98202699 0.15422399 1.905766e-42
23.11599900 -12.08770000 428.78201000 -0.10942700 -0.98302799 0.14724500 1.905766e-42
24.89839900 -12.27970000 428.62000000 -0.10814500 -0.98303503 0.14814700 1.905766e-42
26.58569900 -12.47790000 428.02499000 -0.10832300 -0.98343402 0.14533900 1.905766e-42
28.37290000 -12.67880000 428.10101000 -0.10739600 -0.98273599 0.15065500 1.905766e-42
30.15430100 -12.87200000 428.27100000 -0.10638600 -0.98171902 0.15782700 1.905766e-42
31.37299900 -12.81000000 429.59500000 -0.10122900 -0.97952902 0.17399999 1.905766e-42
32.92170000 -12.77930000 430.51199000 -0.09704160 -0.97747999 0.18739100 1.905766e-42
34.43389900 -12.71820000 431.48599000 -0.09246040 -0.97527999 0.20070000 1.905766e-42
35.66470000 -12.59870000 432.79401000 -0.08724320 -0.97267997 0.21513399 1.905766e-42
37.39189900 -12.60410000 433.30099000 -0.08364360 -0.97114903 0.22332200 1.905766e-42
38.93180100 -12.48330000 434.22501000 -0.07922450 -0.96922600 0.23307601 1.905766e-42
40.33290100 -12.41390000 435.35300000 -0.07605260 -0.96728897 0.24200900 1.905766e-42
41.98870100 -12.26160000 436.04199000 -0.07328770 -0.96609402 0.24756999 1.905766e-42
43.45169800 -12.06980000 437.07300000 -0.07032760 -0.96492201 0.25294000 1.905766e-42
44.65259900 -11.90490000 438.40399000 -0.06879860 -0.96177000 0.26507801 1.905766e-42
46.24119900 -11.80200000 439.24399000 -0.06648430 -0.95889199 0.27587500 1.905766e-42
47.84740100 -11.67020000 440.04599000 -0.06384130 -0.95601499 0.28628501 1.905766e-42
49.29869800 -11.42360000 441.08099000 -0.06152730 -0.95188302 0.30022299 1.905766e-42
50.95360200 -11.20710000 441.75601000 -0.05836210 -0.94937199 0.30868700 1.905766e-42
52.28730000 -10.99630000 442.94601000 -0.05627370 -0.94470000 0.32307300 1.905766e-42
53.68059900 -10.72540000 444.05301000 -0.05419650 -0.94051600 0.33539799 1.905766e-42
55.20990000 -10.47090000 444.96701000 -0.05169800 -0.93750900 0.34409899 1.905766e-42
56.86309800 -10.28040000 445.65302000 -0.04642370 -0.93588901 0.34922299 1.905766e-42
58.40280200 -9.99967960 446.54199000 -0.04162460 -0.93272698 0.35817200 1.905766e-42
60.05250200 -9.73441980 447.21201000 -0.03564290 -0.92981398 0.36630100 1.905766e-42
61.59100000 -9.49837970 448.11600000 -0.02987070 -0.92533302 0.37797600 1.905766e-42
63.16519900 -9.21407030 448.94101000 -0.02342900 -0.92094302 0.38899201 1.905766e-42
64.74359900 -8.90876960 449.75101000 -0.01661960 -0.91645098 0.39980099 1.905766e-42
66.32029700 -8.60276990 450.56299000 -0.00959881 -0.91191798 0.41026101 1.905766e-42
67.95159900 -8.28361990 451.25400000 -0.00210288 -0.90813601 0.41867101 1.905766e-42
69.56289700 -7.93787000 451.97800000 0.00525783 -0.90434003 0.42677999 1.905766e-42
71.12539700 -7.55861000 452.78699000 0.01207060 -0.90040803 0.43487999 1.905766e-42
72.89779700 -7.24770020 452.83301000 0.02359550 -0.90067798 0.43384501 1.905766e-42
74.37010200 -6.92694000 453.81799000 0.03264350 -0.89601398 0.44282401 1.905766e-42
76.03830000 -6.58696990 454.40201000 0.04355570 -0.89164197 0.45064101 1.905766e-42
77.78299700 -6.22662020 454.66000000 0.05486210 -0.88823998 0.45609099 1.905766e-42
79.39199800 -5.84000020 455.36801000 0.06569770 -0.88164800 0.46731201 1.905766e-42
81.02610000 -5.38940000 455.97299000 0.07696080 -0.87498301 0.47799900 1.905766e-42
82.76129900 -4.95774980 456.17999000 0.08809100 -0.86977500 0.48552099 1.905766e-42
84.46859700 -4.44511990 456.42999000 0.09920610 -0.86366498 0.49420801 1.905766e-42
86.12819700 -4.01194000 456.97601000 0.11082200 -0.85646403 0.50417000 1.905766e-42
87.74259900 -3.54087000 457.61700000 0.12271900 -0.84926403 0.51350701 1.905766e-42
88.82730100 -2.77944990 458.83499000 0.13383000 -0.84271097 0.52146697 1.905766e-42
88.66780100 -1.85193000 460.37000000 0.13568300 -0.83835500 0.52796799 1.905766e-42
88.93890400 -0.83118200 461.82700000 0.13793400 -0.82565701 0.54705101 1.905766e-42
88.95159900 0.18024100 463.31601000 0.13834301 -0.81270200 0.56601799 1.905766e-42
88.77529900 1.21044000 464.78201000 0.13713101 -0.79969800 0.58453298 1.905766e-42
88.53530100 2.28551010 466.20499000 0.13503000 -0.78652000 0.60262197 1.905766e-42
88.18550100 3.31311010 467.64099000 0.13202401 -0.77608597 0.61665201 1.905766e-42
87.95500200 4.46102000 469.00800000 0.12982300 -0.76504499 0.63075501 1.905766e-42
87.46640000 5.50847010 470.38800000 0.12570301 -0.75383598 0.64492702 1.905766e-42
86.65329700 6.50204990 471.64999000 0.11948600 -0.74304199 0.65849203 1.905766e-42
86.22440300 7.58233980 473.02399000 0.11489800 -0.72772300 0.67617798 1.905766e-42
85.98799900 8.86423020 474.26599000 0.10837800 -0.70917702 0.69665098 1.905766e-42
85.53739900 10.00950000 475.57901000 0.09688580 -0.68912798 0.71813297 1.905766e-42
