# .PCD v0.7 - Point Cloud Data file format
# 4 139 0
# 1 43 0
# 44 69 0
# 70 86 0
# 87 139 0
VERSION 0.7
FIELDS x y z normal_x normal_y normal_z curvature
SIZE 4 4 4 4 4 4 4
TYPE F F F F F F F
COUNT 1 1 1 1 1 1 1
WIDTH 139
HEIGHT 1
VIEWPOINT 0 0 0 1 0 0 0
POINTS 139
DATA ascii
-22.62859900 -13.86700000 449.38199000 0.46601301 0.05097890 -0.88330799 1.905766e-42
-23.20680000 -12.17260000 449.19501000 0.51546901 0.10770900 -0.85011202 1.905766e-42
-22.66640100 -10.40170000 449.68500000 0.53442299 0.16626699 -0.82870197 1.905766e-42
-22.41420000 -8.68173980 450.15201000 0.55074000 0.19385099 -0.81185400 1.905766e-42
-21.68479900 -7.26785990 450.99399000 0.55101800 0.21260101 -0.80695802 1.905766e-42
-21.98620000 -5.56190010 451.48300000 0.57121098 0.19984899 -0.79610199 1.905766e-42
-21.29240000 -4.10540010 452.28101000 0.57123101 0.19523700 -0.79723102 1.905766e-42
-20.62130000 -2.63199000 453.06699000 0.57157099 0.18823799 -0.79866999 1.905766e-42
-20.09339900 -1.06637000 453.78201000 0.57656002 0.18071599 -0.79681897 1.905766e-42
-19.72320000 0.59378701 454.37100000 0.58966398 0.17612000 -0.78821200 1.905766e-42
-19.08420000 2.04826000 455.21701000 0.59110302 0.21569701 -0.77722102 1.905766e-42
-18.44739900 3.46429990 456.12799000 0.59340101 0.25767601 -0.76254702 1.905766e-42
-18.26230000 5.09900000 456.85800000 0.60198402 0.28276500 -0.74676597 1.905766e-42
-17.61619900 6.45016000 457.85599000 0.59903401 0.30136400 -0.74184698 1.905766e-42
-17.19700100 7.90563010 458.82901000 0.59874302 0.30968499 -0.73864901 1.905766e-42
-16.99370000 9.47212980 459.69199000 0.60108203 0.31002200 -0.73660499 1.905766e-42
-16.46159900 10.88250000 460.67599000 0.59935498 0.31237501 -0.73701799 1.905766e-42
-16.02669900 12.35440000 461.61600000 0.60069901 0.31495401 -0.73482299 1.905766e-42
-16.00210000 13.99160000 462.36401000 0.61024803 0.31480601 -0.72697598 1.905766e-42
-15.96510000 15.58090000 463.20801000 0.62228698 0.31718099 -0.71565002 1.905766e-42
-15.54550000 17.00239900 464.22900000 0.62830400 0.34213400 -0.69869798 1.905766e-42
-15.11710000 18.36930100 465.31900000 0.62990302 0.37808400 -0.67843598 1.905766e-42
-15.00670000 19.81209900 466.39001000 0.62766701 0.40238899 -0.66642100 1.905766e-42
-14.86460000 21.21470100 467.50900000 0.62345803 0.41720301 -0.66124201 1.905766e-42
-14.40990000 22.45900000 468.72800000 0.61837798 0.42383200 -0.66179699 1.905766e-42
-14.28950000 23.90560000 469.79199000 0.61282903 0.43555301 -0.65934402 1.905766e-42
-13.91450000 25.15790000 471.02899000 0.60798901 0.45266700 -0.65225899 1.905766e-42
-13.22590000 26.34310000 472.19601000 0.60475701 0.47101700 -0.64219302 1.905766e-42
-12.00210000 26.73539900 473.45700000 0.60195601 0.48363501 -0.63541001 1.905766e-42
-10.88830000 27.03610000 474.83801000 0.59876698 0.49807301 -0.62721699 1.905766e-42
-10.00400000 27.54710000 476.32001000 0.59550601 0.51572698 -0.61595303 1.905766e-42
-8.88986970 27.92880100 477.68201000 0.58225399 0.53052801 -0.61605299 1.905766e-42
-8.10295960 28.67520000 479.11801000 0.57193601 0.54462701 -0.61340898 1.905766e-42
-6.97168020 29.19730000 480.41699000 0.56055701 0.55395800 -0.61555398 1.905766e-42
-6.26375010 29.98040000 481.87500000 0.54865700 0.56713098 -0.61427802 1.905766e-42
-5.27089020 30.57080100 483.25601000 0.53285199 0.58464199 -0.61176902 1.905766e-42
-4.44230990 31.07790000 484.77100000 0.51536900 0.60718203 -0.60475200 1.905766e-42
-3.31049990 31.54850000 486.08899000 0.49651900 0.62972099 -0.59742802 1.905766e-42
-2.34015990 32.04320100 487.52200000 0.47818300 0.66295201 -0.57605100 1.905766e-42
-1.55938990 32.67120000 489.01801000 0.45820299 0.71278298 -0.53102702 1.905766e-42
-1.31241000 33.48389800 490.60400000 0.44158000 0.77831501 -0.44635499 1.905766e-42
-0.47891000 33.90800100 492.14200000 0.41731200 0.83809799 -0.35134301 1.905766e-42
-0.00975190 34.08890200 493.87100000 0.39154699 0.89380503 -0.21864200 1.905766e-42
0.92140502 33.97119900 495.40701000 0.35372499 0.93028700 -0.09718500 1.905766e-42
2.52079010 33.82310100 496.21899000 0.31281400 0.94853002 -0.04937820 1.905766e-42
4.12877990 33.37459900 496.89200000 0.26490000 0.96372402 -0.03262840 1.905766e-42
5.62584020 32.49789800 497.37201000 0.22577401 0.97327799 -0.04189250 1.905766e-42
7.09878020 31.86160100 496.55600000 0.24028900 0.95449001 -0.17666200 1.905766e-42
8.68449970 31.32510000 495.89499000 0.28220800 0.89337200 -0.34963700 1.905766e-42
10.24190000 30.81629900 495.14899000 0.35197499 0.76034600 -0.54588199 1.905766e-42
11.93680000 30.21559900 495.06799000 0.32766199 0.75853002 -0.56326699 1.905766e-42
13.65070000 29.68339900 495.20599000 0.30981001 0.76000899 -0.57131797 1.905766e-42
15.23750000 29.36389900 495.99301000 0.29502100 0.77722400 -0.55577397 1.905766e-42
16.98650000 28.97100100 496.15701000 0.27788699 0.77897400 -0.56211901 1.905766e-42
18.63530000 28.70290000 496.82700000 0.25726801 0.79571301 -0.54831898 1.905766e-42
20.39300000 28.43779900 497.10999000 0.22919600 0.80541098 -0.54661000 1.905766e-42
22.11860100 28.28870000 497.60001000 0.19803099 0.82416099 -0.53060597 1.905766e-42
23.73130000 28.23870100 498.39801000 0.17278001 0.84629500 -0.50391603 1.905766e-42
25.52840000 28.15350000 498.45499000 0.14767000 0.85172701 -0.50274700 1.905766e-42
27.16990100 28.21579900 499.19101000 0.12764500 0.86841100 -0.47913301 1.905766e-42
28.94350100 28.25099900 499.49600000 0.10702200 0.87615103 -0.47000501 1.905766e-42
30.39900000 28.34160000 500.55099000 0.08925090 0.89634198 -0.43428701 1.905766e-42
31.86350100 28.48740000 501.58701000 0.05586920 0.90945101 -0.41204000 1.905766e-42
33.62419900 28.86150000 501.59399000 0.01751430 0.90453100 -0.42604700 1.905766e-42
35.42030000 28.97470100 501.56000000 -0.01590390 0.89883900 -0.43799001 1.905766e-42
37.21149800 28.86619900 501.41901000 -0.04341730 0.89255798 -0.44883800 1.905766e-42
38.88460200 29.01540000 500.77200000 -0.05641400 0.88058901 -0.47051001 1.905766e-42
40.68450200 29.01460100 500.79401000 -0.06831220 0.87327802 -0.48240900 1.905766e-42
42.48180000 29.11240000 500.81000000 -0.07720670 0.86668700 -0.49284199 1.905766e-42
44.12009800 29.55270000 501.41101000 -0.08849940 0.86693799 -0.49049601 1.905766e-42
45.68389900 29.24290100 500.57501000 -0.08845640 0.85397601 -0.51273900 1.905766e-42
46.77570000 28.51600100 499.34201000 -0.08600910 0.83817202 -0.53858203 1.905766e-42
47.54579900 27.67970100 497.94699000 -0.10268900 0.83933598 -0.53382599 1.905766e-42
47.89270000 26.85460100 496.38501000 -0.11410400 0.84295398 -0.52574700 1.905766e-42
48.75880100 26.16169900 494.96799000 -0.12548400 0.84894598 -0.51336598 1.905766e-42
49.54040100 25.44210100 493.51501000 -0.13312700 0.85662103 -0.49847499 1.905766e-42
50.66109800 24.83190000 492.24500000 -0.14457400 0.86764097 -0.47570801 1.905766e-42
51.34289900 24.15959900 490.72101000 -0.16225199 0.87553698 -0.45509300 1.905766e-42
52.13340000 23.51610000 489.23700000 -0.18413700 0.87977099 -0.43828800 1.905766e-42
53.28170000 22.90420000 487.99399000 -0.21005400 0.88224101 -0.42134199 1.905766e-42
53.91090000 22.47860000 486.36200000 -0.23616600 0.87851399 -0.41525799 1.905766e-42
54.39730100 21.84590000 484.74799000 -0.26133400 0.87356299 -0.41060099 1.905766e-42
55.69139900 21.53060000 483.53799000 -0.29270500 0.87200302 -0.39234400 1.905766e-42
56.30310100 21.09520000 481.90201000 -0.32579100 0.86666501 -0.37782499 1.905766e-42
57.55730100 20.86969900 480.63000000 -0.35527200 0.85665500 -0.37406400 1.905766e-42
58.11209900 20.57970000 478.94299000 -0.37223801 0.84692103 -0.37968799 1.905766e-42
58.15190100 19.84320100 477.30099000 -0.37861499 0.84224200 -0.38376999 1.905766e-42
56.69089900 19.09240000 476.56500000 -0.36273500 0.84628803 -0.39015299 1.905766e-42
55.28310000 18.17930000 475.91299000 -0.34830001 0.85019201 -0.39479199 1.905766e-42
53.99010100 17.19059900 475.14499000 -0.33602199 0.85383201 -0.39756799 1.905766e-42
52.36320100 16.43079900 475.01801000 -0.31813201 0.85772097 -0.40386501 1.905766e-42
50.90840100 15.60300000 474.35599000 -0.30371800 0.86108398 -0.40778700 1.905766e-42
49.69889800 14.75110000 473.33099000 -0.30613300 0.85607100 -0.41644201 1.905766e-42
48.31570100 13.86520000 472.59399000 -0.30874300 0.84860897 -0.42958200 1.905766e-42
46.77610000 13.18140000 471.95999000 -0.30883801 0.84114897 -0.44394499 1.905766e-42
45.50410100 12.17500000 471.17999000 -0.31127799 0.83243102 -0.45843700 1.905766e-42
44.32199900 11.09540000 470.35699000 -0.31428501 0.82305700 -0.47307700 1.905766e-42
42.66540100 10.41700000 470.16901000 -0.30934599 0.81613898 -0.48808101 1.905766e-42
41.20719900 9.53666970 469.58701000 -0.30545101 0.80934799 -0.50165302 1.905766e-42
39.54230100 8.88160990 469.39001000 -0.29377300 0.80551201 -0.51463300 1.905766e-42
38.14180000 8.01780030 468.66000000 -0.28771201 0.79958999 -0.52714097 1.905766e-42
36.87950100 6.96741010 467.92300000 -0.28314000 0.79290998 -0.53956097 1.905766e-42
35.46480200 5.98672010 467.39700000 -0.27520201 0.78613198 -0.55340701 1.905766e-42
33.95740100 5.09429980 466.98300000 -0.26476800 0.77907699 -0.56827599 1.905766e-42
32.65620000 4.00655980 466.38000000 -0.25812700 0.77060997 -0.58269203 1.905766e-42
30.89290000 3.65502000 466.29401000 -0.24172600 0.76247799 -0.60016400 1.905766e-42
29.47200000 2.80882000 465.58401000 -0.23787300 0.74894601 -0.61846298 1.905766e-42
27.78380000 2.20412990 465.42700000 -0.22344600 0.73687398 -0.63803500 1.905766e-42
26.45750000 1.16758000 464.78900000 -0.21938400 0.72165501 -0.65657097 1.905766e-42
24.83009900 0.41143599 464.64899000 -0.20468800 0.70792001 -0.67598200 1.905766e-42
23.15270000 -0.23509701 464.55801000 -0.18775100 0.69417799 -0.69488603 1.905766e-42
21.79590000 -1.23457000 463.92499000 -0.18188100 0.67774099 -0.71245098 1.905766e-42
20.15650000 -1.90980990 463.61401000 -0.16463500 0.66390198 -0.72947198 1.905766e-42
18.50470000 -2.55282000 463.30200000 -0.13980600 0.65185797 -0.74534303 1.905766e-42
16.91640100 -3.30964990 462.92099000 -0.11498700 0.63773203 -0.76162702 1.905766e-42
15.32170000 -4.04255010 462.52200000 -0.08808200 0.62208498 -0.77798003 1.905766e-42
13.70940000 -4.77567010 462.20099000 -0.05851280 0.60532498 -0.79382497 1.905766e-42
12.75520000 -6.16305020 461.56500000 -0.04859540 0.58251798 -0.81136400 1.905766e-42
11.09330000 -6.75610020 461.20901000 -0.01453720 0.56309700 -0.82626301 1.905766e-42
9.41217990 -7.21997020 460.76401000 0.01754680 0.54218400 -0.84007698 1.905766e-42
7.66886000 -6.78036020 460.67599000 0.04768910 0.53490400 -0.84356600 1.905766e-42
6.33309980 -7.75718020 459.96799000 0.05718000 0.50601298 -0.86062801 1.905766e-42
4.57242010 -8.03065970 459.71301000 0.07585200 0.48931700 -0.86880100 1.905766e-42
2.78625010 -8.15577980 459.52899000 0.09367870 0.47586000 -0.87451798 1.905766e-42
1.27077000 -8.94005010 458.95599000 0.10340400 0.44982499 -0.88711101 1.905766e-42
-0.25245601 -9.70580960 458.37799000 0.11250300 0.42380601 -0.89873898 1.905766e-42
-1.83182000 -10.41600000 457.88699000 0.13270600 0.40370801 -0.90521199 1.905766e-42
-3.54404000 -10.77180000 457.46100000 0.16887100 0.39237800 -0.90416902 1.905766e-42
-4.93502000 -11.68630000 456.77600000 0.19727200 0.37628499 -0.90525901 1.905766e-42
-6.64706990 -11.99340000 456.31299000 0.23433299 0.36586300 -0.90068400 1.905766e-42
-8.05296990 -12.89040000 455.63599000 0.26426500 0.35164800 -0.89805800 1.905766e-42
-9.70594020 -12.94410000 454.92499000 0.30136201 0.34578300 -0.88860297 1.905766e-42
-11.37620000 -12.91550000 454.25500000 0.33026201 0.34017101 -0.88046098 1.905766e-42
-13.07410000 -12.84900000 453.66101000 0.34159100 0.32462600 -0.88200498 1.905766e-42
-14.73640000 -12.92310000 452.97400000 0.35560301 0.30239901 -0.88436502 1.905766e-42
-16.32449900 -13.35180000 452.24399000 0.36943299 0.26282299 -0.89131498 1.905766e-42
-17.98600000 -13.03700000 451.62701000 0.40164801 0.22949401 -0.88657302 1.905766e-42
-19.46470100 -13.71070000 450.85300000 0.41303799 0.16638701 -0.89538503 1.905766e-42
-21.02300100 -14.22460000 450.11301000 0.42750400 0.09018470 -0.89950401 1.905766e-42
