# .PCD v0.7 - Point Cloud Data file format
# 2 41 0
# 1 20 1
# 21 41 0
VERSION 0.7
FIELDS x y z normal_x normal_y normal_z curvature
SIZE 4 4 4 4 4 4 4
TYPE F F F F F F F
COUNT 1 1 1 1 1 1 1
WIDTH 41
HEIGHT 1
VIEWPOINT 0 0 0 1 0 0 0
POINTS 41
DATA ascii
-16.076401 9.72019 448.95599 -0.276357 0.903 -0.32896501 1.9057659e-42
-15.9931 10.2494 450.67401 -0.226657 0.90658402 -0.35599399 1.9057659e-42
-14.7972 10.936 451.83099 -0.25162601 0.93655998 -0.244009 1.9057659e-42
-13.7928 11.4532 453.233 -0.26802799 0.960329 0.077005103 1.9057659e-42
-12.6598 11.3879 454.63 -0.184701 0.97521502 0.121821 1.9057659e-42
-11.6153 11.5073 456.091 -0.13634799 0.98869997 0.062305599 1.9057659e-42
-10.1669 11.56 457.15799 -0.12925 0.98885298 0.073913798 1.9057659e-42
-8.44063 11.8415 457.58401 -0.141772 0.98767602 0.066313498 1.9057659e-42
-7.01687 11.9471 458.67999 -0.15665001 0.98579699 0.0605372 1.9057659e-42
-5.3066201 12.2265 459.16699 -0.152018 0.98772502 0.0359191 1.9057659e-42
-3.5256 12.4852 459.19901 -0.134636 0.99089199 0.00249188 1.9057659e-42
-1.86921 12.7396 459.85599 -0.111035 0.99312401 -0.0370933 1.9057659e-42
-0.075152896 12.8336 459.96799 -0.078859597 0.995139 -0.058989201 1.9057659e-42
1.72012 12.9618 459.991 -0.055718001 0.996216 -0.066695102 1.9057659e-42
3.32604 13.1214 460.789 -0.036240499 0.99599099 -0.0817867 1.9057659e-42
5.1202402 13.2656 460.79599 -0.0273658 0.99717897 -0.069894798 1.9057659e-42
6.9166198 13.1516 460.79999 -0.0305859 0.99874902 -0.039569002 1.9057659e-42
7.9082298 13.3863 459.31601 -0.12139 0.96861798 0.216894 1.9057659e-42
9.3258696 14.1375 458.5 -0.177761 0.863177 0.47257501 1.9057659e-42
11.8142 14.6064 457.59698 0.143021 0.88525099 0.442579 1.9057659e-42
13.47 14.4325 456.91299 0.26925799 0.885517 0.37862799 1.9057659e-42
12.9562 15.5819 455.62601 0.197863 0.79257202 0.57678503 1.9057659e-42
11.8389 16.4373 454.504 0.14874101 0.78875601 0.596439 1.9057659e-42
10.4662 17.236401 453.65701 0.127809 0.74418598 0.65563101 1.9057659e-42
8.7051401 17.605101 453.60599 0.093200199 0.75219703 0.65231401 1.9057659e-42
7.0829401 18.2034 453.10501 -0.047727201 0.74567801 0.66459501 1.9057659e-42
5.3154702 18.3601 452.80301 -0.196307 0.74554598 0.636886 1.9057659e-42
3.6972201 18.2152 452.02802 -0.317563 0.740493 0.59230399 1.9057659e-42
2.1600399 18.1416 451.09399 -0.41228801 0.70529902 0.57669002 1.9057659e-42
0.651824 18.065201 450.11499 -0.40862501 0.70409203 0.58075798 1.9057659e-42
-1.02854 17.631701 449.63699 -0.38904601 0.76682401 0.51051402 1.9057659e-42
-2.63833 17.1523 448.98999 -0.43978599 0.82232398 0.36107099 1.9057659e-42
-4.1064801 16.5485 448.14099 -0.50404799 0.85548902 0.118631 1.9057659e-42
-5.51404 15.7929 447.31201 -0.44406801 0.875916 -0.188612 1.9057659e-42
-6.9647799 14.8902 446.746 -0.286984 0.81100601 -0.509812 1.9057659e-42
-8.7069702 14.4591 446.60901 -0.294478 0.85883099 -0.41915599 1.9057659e-42
-10.4369 13.9958 446.42801 -0.25840801 0.63375998 -0.72909099 1.9057659e-42
-11.4046 12.4781 446.409 -0.67952698 0.636756 0.364398 1.9057659e-42
-12.4662 11.1812 445.75299 -0.30837101 0.51714098 -0.798419 1.9057659e-42
-13.882 10.2177 446.30701 -0.619124 0.78482097 0.027231701 1.9057659e-42
-14.6207 9.993 447.93301 -0.41483 0.89600301 -0.15841401 1.9057659e-42
