# .PCD v0.7 - Point Cloud Data file format
# 3 229 -2
# 1 77 0
# 78 137 0
# 138 229 0
VERSION 0.7
FIELDS x y z normal_x normal_y normal_z curvature
SIZE 4 4 4 4 4 4 4
TYPE F F F F F F F
COUNT 1 1 1 1 1 1 1
WIDTH 229
HEIGHT 1
VIEWPOINT 0 0 0 1 0 0 0
POINTS 229
DATA ascii
102.68900000 21.48990100 415.96201000 -0.56857902 0.65812302 -0.49355099 1.905766e-42
101.23900000 20.43650100 416.12601000 -0.57046598 0.65887702 -0.49035600 1.905766e-42
99.77100400 19.66470000 416.82501000 -0.56116903 0.66253501 -0.49612099 1.905766e-42
98.37960100 19.11030000 417.82401000 -0.55101401 0.66569698 -0.50322098 1.905766e-42
97.00640100 18.83720000 418.95499000 -0.54101598 0.66721600 -0.51198101 1.905766e-42
95.54740100 18.10640000 419.71500000 -0.52960300 0.67231798 -0.51721197 1.905766e-42
94.12120100 17.82720000 420.77701000 -0.51865602 0.67380297 -0.52629399 1.905766e-42
92.55180400 17.39580000 421.54501000 -0.50652301 0.67748803 -0.53333300 1.905766e-42
91.02130100 16.69660000 422.18500000 -0.49302700 0.68403798 -0.53760201 1.905766e-42
89.52220200 16.42310000 423.14301000 -0.48044601 0.68506199 -0.54759502 1.905766e-42
88.32420300 15.12050000 422.81400000 -0.46956599 0.69930297 -0.53896499 1.905766e-42
86.67820000 14.50730000 423.20801000 -0.45666000 0.70523602 -0.54231298 1.905766e-42
85.18380000 13.50630000 423.27701000 -0.44464201 0.71472901 -0.53986698 1.905766e-42
83.52639800 13.12100000 423.86401000 -0.43184301 0.71671098 -0.54757398 1.905766e-42
81.97979700 12.20020000 423.86499000 -0.42023000 0.72526902 -0.54533601 1.905766e-42
80.85859700 10.93930000 423.23801000 -0.41264001 0.73908103 -0.53243601 1.905766e-42
79.18820200 10.28170000 423.37000000 -0.40100801 0.74464703 -0.53356600 1.905766e-42
77.66369600 9.33979990 423.20099000 -0.39085501 0.75338203 -0.52881700 1.905766e-42
75.99559800 8.70458980 423.43301000 -0.37790000 0.76022702 -0.52843702 1.905766e-42
74.48090400 7.76313020 423.18900000 -0.36591899 0.77292502 -0.51835299 1.905766e-42
72.86689800 6.96635010 423.19601000 -0.35293201 0.78332001 -0.51171100 1.905766e-42
71.17810100 6.39471010 423.44299000 -0.33936301 0.79111999 -0.50888300 1.905766e-42
69.54000100 6.22096010 424.16901000 -0.32711399 0.79335499 -0.51340401 1.905766e-42
67.94180300 5.40156980 424.04901000 -0.31103301 0.80503899 -0.50514400 1.905766e-42
66.24440000 4.88766000 424.35599000 -0.29483199 0.81252402 -0.50287199 1.905766e-42
64.53749800 4.58236980 424.84000000 -0.27879301 0.81778097 -0.50349599 1.905766e-42
62.82790000 4.34232000 425.34900000 -0.26239201 0.82252902 -0.50457501 1.905766e-42
61.45399900 3.42699000 424.63101000 -0.24431200 0.83730400 -0.48911399 1.905766e-42
60.24959900 2.60597990 423.57501000 -0.23274900 0.84870499 -0.47489700 1.905766e-42
59.36920200 1.67253010 422.31299000 -0.22329400 0.86010498 -0.45864901 1.905766e-42
58.48249800 0.75149298 421.04599000 -0.21378399 0.87077999 -0.44276300 1.905766e-42
57.51089900 -0.11299000 419.80200000 -0.20376600 0.88071501 -0.42757601 1.905766e-42
56.28659800 -0.82327002 418.68900000 -0.19222000 0.88962901 -0.41426101 1.905766e-42
55.70520000 -1.79310000 417.28900000 -0.18512700 0.89855498 -0.39790201 1.905766e-42
54.63100100 -2.47576000 416.01599000 -0.17496100 0.90675402 -0.38364801 1.905766e-42
53.57109800 -3.15665010 414.73001000 -0.16368200 0.91516799 -0.36834100 1.905766e-42
52.68780100 -3.97437000 413.39200000 -0.15025599 0.92472601 -0.34972200 1.905766e-42
51.30260100 -4.39131020 412.32101000 -0.13315000 0.93307102 -0.33414099 1.905766e-42
50.78780000 -5.09943010 410.74799000 -0.12280700 0.94143301 -0.31404299 1.905766e-42
49.67670100 -5.53681990 409.40100000 -0.10735900 0.94920999 -0.29576200 1.905766e-42
48.89090000 -6.11216020 407.88699000 -0.09441980 0.95652801 -0.27593401 1.905766e-42
47.81890100 -6.51570990 406.49899000 -0.07904060 0.96312201 -0.25719401 1.905766e-42
46.81460200 -6.93928000 405.06699000 -0.06413290 0.96913397 -0.23804601 1.905766e-42
46.12030000 -7.33726980 403.45401000 -0.05258570 0.97445899 -0.21832100 1.905766e-42
44.93030200 -7.67701010 402.14700000 -0.04141800 0.97817600 -0.20360900 1.905766e-42
45.03699900 -8.02342990 400.38400000 -0.03405450 0.98083800 -0.19182500 1.905766e-42
44.16360100 -8.30245020 398.83499000 -0.02149240 0.98374999 -0.17825000 1.905766e-42
43.45010000 -8.70053960 397.23099000 -0.00890982 0.98628700 -0.16479900 1.905766e-42
42.77330000 -8.92525960 395.57800000 0.00387689 0.98852700 -0.15099700 1.905766e-42
42.03060200 -9.01867960 393.94101000 0.01680270 0.99052298 -0.13631800 1.905766e-42
41.63760000 -9.29411980 392.20700000 0.03008480 0.99199599 -0.12263000 1.905766e-42
41.23020200 -9.62837980 390.48499000 0.04374770 0.99316800 -0.10817900 1.905766e-42
40.12400100 -9.74927040 389.07101000 0.05848490 0.99442500 -0.08774420 1.905766e-42
38.74350000 -9.94575980 387.93201000 0.08432220 0.99486798 -0.05592860 1.905766e-42
37.00030100 -9.58994010 387.65900000 0.10199500 0.99440700 -0.02742160 1.905766e-42
35.47020000 -9.47132020 386.71799000 0.12861000 0.99167198 0.00684476 1.905766e-42
33.82199900 -9.04043010 386.13699000 0.15151100 0.98760402 0.04101500 1.905766e-42
32.25350200 -8.79028990 385.29001000 0.17797600 0.98097700 0.07752110 1.905766e-42
30.57980000 -8.44884970 384.72299000 0.19984400 0.97312498 0.11441500 1.905766e-42
28.82469900 -8.08030030 384.56799000 0.21240200 0.96548098 0.15077300 1.905766e-42
27.18199900 -7.66313980 383.96201000 0.23544399 0.95388401 0.18620101 1.905766e-42
25.47930000 -7.08129980 383.91699000 0.26517299 0.94341999 0.19910400 1.905766e-42
23.80160000 -6.43059020 383.87299000 0.29280400 0.93276298 0.21028200 1.905766e-42
22.18380000 -6.03099010 383.19299000 0.31896701 0.92007899 0.22740901 1.905766e-42
20.58840000 -5.19759990 383.17300000 0.34327999 0.90905797 0.23616000 1.905766e-42
18.95150000 -4.44898990 383.17401000 0.36618900 0.89798498 0.24398600 1.905766e-42
17.30160000 -3.73090000 383.12701000 0.38763699 0.88673699 0.25186399 1.905766e-42
15.68370000 -2.97898010 382.88800000 0.40772399 0.87494302 0.26122001 1.905766e-42
14.09950000 -2.33376000 382.32800000 0.42594999 0.86283398 0.27218401 1.905766e-42
12.48820000 -1.54561000 382.17899000 0.44218001 0.85211200 0.27996901 1.905766e-42
11.00920000 -0.52076399 382.13101000 0.45626900 0.84213400 0.28745201 1.905766e-42
9.47381970 0.30943900 381.69101000 0.46872500 0.83196402 0.29687199 1.905766e-42
7.98172000 1.03746000 382.38699000 0.47879401 0.82644200 0.29622501 1.905766e-42
6.34763000 1.79144000 382.35199000 0.49466199 0.81687802 0.29668200 1.905766e-42
4.65834000 2.41006990 382.29199000 0.50855798 0.80827200 0.29675701 1.905766e-42
3.03606010 3.18991990 382.29800000 0.52046001 0.80106902 0.29565001 1.905766e-42
2.29442000 3.70873000 383.24399000 0.52727902 0.79943198 0.28789899 1.905766e-42
0.64228898 4.38430020 383.47699000 0.53528398 0.79771799 0.27769899 1.905766e-42
-0.14818600 4.73509980 385.05499000 0.54262799 0.79641002 0.26699400 1.905766e-42
-0.16138600 4.43101980 386.82999000 0.54510403 0.79980701 0.25133699 1.905766e-42
0.17013700 3.99220990 388.54300000 0.54496199 0.80586702 0.23150501 1.905766e-42
-0.19533700 3.73882010 390.28799000 0.54795098 0.80991203 0.20926499 1.905766e-42
0.07218160 3.30551000 392.01401000 0.54708600 0.81621498 0.18571299 1.905766e-42
-0.06600010 3.10152010 393.79700000 0.54819399 0.82096398 0.15968999 1.905766e-42
-0.05549380 2.80655000 395.57300000 0.54737300 0.82648802 0.13153400 1.905766e-42
-0.58793598 2.88684010 397.29001000 0.54419500 0.83195400 0.10818800 1.905766e-42
-1.33759000 3.15862010 398.90399000 0.54059100 0.83675599 0.08717610 1.905766e-42
-2.23306990 3.48516990 400.43100000 0.53746802 0.84063601 0.06677830 1.905766e-42
-2.98788000 3.77576990 402.03900000 0.53340602 0.84477001 0.04292070 1.905766e-42
-3.94541000 4.12795020 403.52200000 0.53009200 0.84768099 0.02097560 1.905766e-42
-4.55826000 4.57555010 405.15399000 0.52516800 0.85097599 -0.00623957 1.905766e-42
-5.20139980 5.03315020 406.77200000 0.51989299 0.85353202 -0.03455100 1.905766e-42
-5.42708020 5.52450990 408.48901000 0.51214302 0.85614401 -0.06875450 1.905766e-42
-5.88922980 5.91419980 410.18399000 0.50400400 0.85750401 -0.10327900 1.905766e-42
-6.66221000 6.52429010 411.69101000 0.49804500 0.85696900 -0.13249999 1.905766e-42
-6.86706020 7.22783990 413.33499000 0.48895299 0.85517001 -0.17207301 1.905766e-42
-7.30059000 8.03699970 414.88300000 0.48224199 0.85036200 -0.21054000 1.905766e-42
-8.00035000 8.62660030 416.43399000 0.47622401 0.84377497 -0.24749599 1.905766e-42
-8.16827010 9.20755960 418.12900000 0.46131000 0.83671802 -0.29512000 1.905766e-42
-8.62720010 9.86075020 419.74200000 0.45589000 0.82652700 -0.33017799 1.905766e-42
-8.75222020 10.45120000 421.43799000 0.45708600 0.81508702 -0.35595700 1.905766e-42
-9.28997040 11.28130000 422.94199000 0.46078700 0.80245697 -0.37912801 1.905766e-42
-9.03843020 12.04320000 424.55301000 0.46200600 0.79081202 -0.40145600 1.905766e-42
-9.53442000 13.08500000 425.93500000 0.46736601 0.77711099 -0.42150700 1.905766e-42
-9.45398040 13.90670000 427.53400000 0.47056800 0.76466298 -0.44029099 1.905766e-42
-9.46986960 14.81770000 429.08701000 0.47500601 0.75202000 -0.45698500 1.905766e-42
-9.72029970 15.91610000 430.48999000 0.47778201 0.74304301 -0.46862701 1.905766e-42
-10.41490000 17.02409900 431.72699000 0.48066401 0.73583001 -0.47698700 1.905766e-42
-10.85410000 18.15010100 433.06100000 0.48366600 0.72849399 -0.48514301 1.905766e-42
-11.12650000 19.43310000 434.29401000 0.48720300 0.72105700 -0.49265599 1.905766e-42
-11.62510000 20.56690000 435.60001000 0.49146301 0.71318698 -0.49982801 1.905766e-42
-12.56280000 21.60800000 436.73001000 0.49614501 0.70491499 -0.50688797 1.905766e-42
-12.16940000 22.69850000 438.10699000 0.50014901 0.69791001 -0.51261401 1.905766e-42
-11.81560000 23.72069900 439.54599000 0.50331002 0.69024003 -0.51985401 1.905766e-42
-11.74330000 24.74780100 441.02200000 0.49757800 0.67934000 -0.53936398 1.905766e-42
-12.71390000 25.96019900 441.93201000 0.50144899 0.66829699 -0.54947901 1.905766e-42
-13.59090000 27.34639900 442.67300000 0.50679100 0.65522403 -0.56021798 1.905766e-42
-14.20760000 28.82690000 443.48999000 0.51218200 0.63942999 -0.57340997 1.905766e-42
-15.25600000 30.15239900 444.10999000 0.52038699 0.62420398 -0.58272302 1.905766e-42
-15.94140000 31.59680000 444.93701000 0.52653301 0.60770297 -0.59452599 1.905766e-42
-16.74440000 33.01890200 445.69400000 0.53360701 0.59111899 -0.60484898 1.905766e-42
-17.65130000 34.36200000 446.47699000 0.54105300 0.57448298 -0.61419100 1.905766e-42
-18.07410000 35.89350100 447.32300000 0.54719597 0.55759197 -0.62423402 1.905766e-42
-18.19100000 37.38600200 448.32300000 0.55237699 0.54171503 -0.63358098 1.905766e-42
-18.68310000 38.88530000 449.18900000 0.55975002 0.52525300 -0.64092898 1.905766e-42
-19.31670000 40.41289900 449.89899000 0.56799001 0.50898302 -0.64677900 1.905766e-42
-19.86060000 41.84450100 450.84500000 0.56984597 0.50147098 -0.65100098 1.905766e-42
-19.48060000 43.20019900 451.96701000 0.57129103 0.49452600 -0.65503502 1.905766e-42
-20.05570000 44.77500200 452.62201000 0.57364398 0.48601201 -0.65933597 1.905766e-42
-20.66530000 46.33140200 453.28900000 0.57535899 0.47699600 -0.66440701 1.905766e-42
-20.68190000 47.84899900 454.25699000 0.57785398 0.46692801 -0.66937500 1.905766e-42
-20.89270000 49.40950000 455.12900000 0.57999402 0.45558000 -0.67531800 1.905766e-42
-21.02870000 50.93249900 456.07901000 0.58227098 0.44275799 -0.68185502 1.905766e-42
-21.59800000 52.42319900 456.91199000 0.58139902 0.42846701 -0.69165802 1.905766e-42
-21.03340000 53.90610100 457.76199000 0.57563698 0.40958899 -0.70772803 1.905766e-42
-21.32220100 55.43349800 458.66901000 0.57163298 0.39083600 -0.72144502 1.905766e-42
-20.79080000 56.91260100 459.54700000 0.56777000 0.37103900 -0.73482400 1.905766e-42
-20.57650000 58.37659800 460.57199000 0.56514102 0.35113800 -0.74653703 1.905766e-42
-19.62130000 59.47219800 461.63300000 0.56320798 0.33521399 -0.75526702 1.905766e-42
-18.63200000 60.33860000 462.86301000 0.56144899 0.32301500 -0.76186401 1.905766e-42
-17.42910000 60.94129900 464.05801000 0.55873197 0.31629899 -0.76666403 1.905766e-42
-16.37599900 61.78410000 465.25000000 0.55633700 0.31030101 -0.77084500 1.905766e-42
-15.11370000 62.36819800 466.39301000 0.54719901 0.30785900 -0.77832901 1.905766e-42
-13.57100000 62.36449800 467.32001000 0.53044301 0.30937499 -0.78925103 1.905766e-42
-12.03640000 62.40440000 468.26001000 0.51025403 0.31268400 -0.80116701 1.905766e-42
-10.82180000 63.18380000 469.33600000 0.49279001 0.31080499 -0.81274700 1.905766e-42
-9.41755960 63.54850000 470.40100000 0.46946001 0.31363001 -0.82537502 1.905766e-42
-7.76910020 63.24169900 471.05600000 0.44027999 0.32086301 -0.83857000 1.905766e-42
-6.31870990 63.68629800 472.02499000 0.41185099 0.32367700 -0.85182899 1.905766e-42
-4.77041010 63.84000000 472.92999000 0.37894601 0.32746401 -0.86554497 1.905766e-42
-3.09164000 63.66820100 473.55600000 0.35385701 0.33651799 -0.87266302 1.905766e-42
-1.39637010 63.14699900 473.86301000 0.33192301 0.34538600 -0.87780201 1.905766e-42
0.31854400 63.05690000 474.40302000 0.31255701 0.35322800 -0.88178098 1.905766e-42
2.03395010 62.91120100 474.92801000 0.29398501 0.35998201 -0.88542998 1.905766e-42
3.71877000 62.36230100 475.24399000 0.27562001 0.36587700 -0.88891399 1.905766e-42
5.46036010 62.16059900 475.65201000 0.25814301 0.37103099 -0.89201897 1.905766e-42
7.18281980 61.76929900 475.99899000 0.24061200 0.37571800 -0.89495403 1.905766e-42
8.69334980 60.79060000 475.97601000 0.22420500 0.38029701 -0.89727700 1.905766e-42
10.43910000 60.63439900 476.38599000 0.20620400 0.38418001 -0.89993602 1.905766e-42
12.10110000 59.95259900 476.50000000 0.18685099 0.38830900 -0.90238702 1.905766e-42
13.85880000 59.85950100 476.87701000 0.15768500 0.38572901 -0.90903699 1.905766e-42
15.54320000 59.66149900 477.48001000 0.12839800 0.38293099 -0.91481000 1.905766e-42
17.12809900 58.93289900 477.03601000 0.10381000 0.38533899 -0.91691703 1.905766e-42
18.66900100 58.10760100 476.60599000 0.07574190 0.39349601 -0.91620100 1.905766e-42
20.44829900 57.83689900 476.57901000 0.04181960 0.39658499 -0.91704500 1.905766e-42
22.14550000 57.26310000 476.40500000 0.00978959 0.40209001 -0.91554803 1.905766e-42
23.87130000 56.78200100 476.23199000 -0.02204810 0.40627199 -0.91348600 1.905766e-42
25.61520000 56.42710100 475.96201000 -0.05322490 0.40922600 -0.91087902 1.905766e-42
27.26129900 55.82500100 475.55200000 -0.08128190 0.41440901 -0.90645403 1.905766e-42
29.01520000 55.58179900 475.22900000 -0.10976500 0.41579601 -0.90280902 1.905766e-42
30.68779900 55.09569900 474.77499000 -0.13496700 0.41959399 -0.89762199 1.905766e-42
32.43439900 54.85630000 474.41101000 -0.15930100 0.42066500 -0.89312100 1.905766e-42
34.09069800 54.35780000 473.91299000 -0.18002699 0.42467701 -0.88726598 1.905766e-42
35.86349900 54.32960100 473.60199000 -0.17262800 0.44070300 -0.88089800 1.905766e-42
37.30450100 53.51789900 472.89200000 -0.16569200 0.44421101 -0.88046700 1.905766e-42
39.06060000 53.43780100 472.50500000 -0.14714800 0.45456299 -0.87847602 1.905766e-42
40.70100000 52.91920100 471.97601000 -0.13001600 0.46173000 -0.87743998 1.905766e-42
42.45900000 52.72530000 471.64099000 -0.10691000 0.47011399 -0.87610698 1.905766e-42
44.25500100 52.69829900 471.52499000 -0.08047250 0.47765699 -0.87485301 1.905766e-42
45.93439900 52.22029900 471.08701000 -0.05614000 0.48335299 -0.87362403 1.905766e-42
47.54000100 51.53540000 470.64801000 -0.03209880 0.48838300 -0.87203902 1.905766e-42
48.67839800 50.38530000 469.85999000 -0.01625660 0.49276999 -0.87000799 1.905766e-42
50.47440000 50.39690000 469.74200000 0.01491850 0.49624500 -0.86805499 1.905766e-42
52.21900200 50.03500000 469.48599000 0.03589170 0.50732702 -0.86100602 1.905766e-42
53.82440200 49.34040100 469.06100000 0.04469390 0.52721202 -0.84855700 1.905766e-42
55.36320100 48.51079900 468.63199000 0.05171900 0.54722297 -0.83538699 1.905766e-42
56.97710000 47.74390000 468.41501000 0.06114400 0.56561297 -0.82240099 1.905766e-42
58.12149800 46.64419900 467.56601000 0.06059120 0.58628601 -0.80783498 1.905766e-42
59.48830000 45.60020100 467.03500000 0.06464750 0.60583001 -0.79296398 1.905766e-42
60.90530000 44.59050000 466.57401000 0.07034990 0.62455899 -0.77780300 1.905766e-42
61.63390000 43.28789900 465.56799000 0.06359630 0.64295501 -0.76325899 1.905766e-42
63.03070100 42.30339800 465.00201000 0.06936370 0.66082901 -0.74732399 1.905766e-42
64.34839600 41.28430200 464.32001000 0.06661750 0.68439502 -0.72606099 1.905766e-42
65.70069900 40.33820000 463.60199000 0.04923350 0.71622300 -0.69613200 1.905766e-42
67.13430000 39.46099900 462.95801000 0.02856110 0.74576300 -0.66559899 1.905766e-42
68.40470100 38.63480000 461.98599000 -0.00151312 0.77195501 -0.63567501 1.905766e-42
69.62030000 37.90580000 460.87701000 -0.03743360 0.79395300 -0.60682499 1.905766e-42
70.98200200 37.27780200 459.88101000 -0.07653530 0.81337202 -0.57668698 1.905766e-42
72.28790300 36.74070000 458.76501000 -0.12131100 0.82801598 -0.54742402 1.905766e-42
73.09439800 36.18360100 457.25500000 -0.16986600 0.83219200 -0.52782798 1.905766e-42
74.56870300 35.90779900 456.26001000 -0.22013099 0.83988500 -0.49612099 1.905766e-42
75.53900100 35.41849900 454.82501000 -0.26780900 0.83378702 -0.48278099 1.905766e-42
76.62130000 34.98090000 453.45499000 -0.29525301 0.81877500 -0.49237499 1.905766e-42
77.86630200 34.68199900 452.19000000 -0.32242301 0.80526000 -0.49759400 1.905766e-42
79.14489700 34.42890200 450.94800000 -0.34872201 0.79159701 -0.50176400 1.905766e-42
80.49479700 34.20520000 449.77899000 -0.37409201 0.77822798 -0.50439799 1.905766e-42
81.68579900 33.91970100 448.45999000 -0.39757600 0.76248699 -0.51043802 1.905766e-42
82.54409800 33.58319900 446.91400000 -0.41763401 0.74438900 -0.52102500 1.905766e-42
83.72460200 33.26789900 445.59201000 -0.43803301 0.72845799 -0.52675903 1.905766e-42
84.91190300 32.92129900 444.28400000 -0.45681301 0.71263301 -0.53242397 1.905766e-42
85.55650300 32.32450100 442.71301000 -0.47012699 0.69468498 -0.54442000 1.905766e-42
86.67040300 31.93810100 441.35300000 -0.48187399 0.67740703 -0.55580300 1.905766e-42
87.71690400 31.52210000 439.94901000 -0.48998100 0.65955400 -0.57000601 1.905766e-42
88.99849700 31.22120100 438.72101000 -0.49798000 0.64365602 -0.58113998 1.905766e-42
89.89540100 30.70350100 437.24899000 -0.50151300 0.62722999 -0.59587502 1.905766e-42
90.94550300 30.10360000 435.91599000 -0.50363803 0.61243200 -0.60932398 1.905766e-42
91.77870200 29.39620000 434.48599000 -0.50248802 0.59959602 -0.62288898 1.905766e-42
92.97190100 28.99150100 433.20001000 -0.50195199 0.58841598 -0.63388503 1.905766e-42
93.76540400 28.18190000 431.80200000 -0.49640799 0.58065802 -0.64530200 1.905766e-42
95.24479700 27.92779900 430.80899000 -0.49496201 0.57396299 -0.65236402 1.905766e-42
95.80950200 27.21929900 429.25299000 -0.50684202 0.58232498 -0.63561702 1.905766e-42
96.76670100 26.55010000 427.88400000 -0.51874602 0.59135902 -0.61741197 1.905766e-42
97.79370100 25.95649900 426.53000000 -0.52899402 0.60074198 -0.59939498 1.905766e-42
98.50840000 25.17900100 425.07199000 -0.53675401 0.61182803 -0.58099997 1.905766e-42
99.37699900 24.51380000 423.64301000 -0.54348302 0.62238097 -0.56326598 1.905766e-42
100.49100000 24.02140000 422.31799000 -0.54769200 0.63286299 -0.54728198 1.905766e-42
101.09100000 23.46750100 420.71399000 -0.55128402 0.64402002 -0.53039998 1.905766e-42
101.73600000 22.87610100 419.14099000 -0.55453598 0.65444303 -0.51399797 1.905766e-42
102.21500000 22.25680000 417.51999000 -0.56130600 0.66022903 -0.49903300 1.905766e-42
