# .PCD v0.7 - Point Cloud Data file format
# 4 129 0
# 1 29 0
# 30 64 0
# 65 102 0
# 103 129 0
VERSION 0.7
FIELDS x y z normal_x normal_y normal_z curvature
SIZE 4 4 4 4 4 4 4
TYPE F F F F F F F
COUNT 1 1 1 1 1 1 1
WIDTH 129
HEIGHT 1
VIEWPOINT 0 0 0 1 0 0 0
POINTS 129
DATA ascii
38.63280100 4.47283980 439.66400000 -0.47099400 0.52533400 -0.70865297 1.905766e-42
37.66379900 3.99261000 439.91000000 -0.46462500 0.52557999 -0.71266401 1.905766e-42
36.08449900 3.33254000 440.46701000 -0.44899300 0.52661198 -0.72186202 1.905766e-42
34.57160200 3.39190010 441.44000000 -0.42770100 0.53061599 -0.73179102 1.905766e-42
33.24800100 3.88388990 442.55701000 -0.40521100 0.53556198 -0.74093002 1.905766e-42
31.66190000 3.93870000 443.40601000 -0.37660000 0.53992802 -0.75276202 1.905766e-42
30.55090000 4.76115990 444.55899000 -0.35141599 0.54343301 -0.76235598 1.905766e-42
28.91130100 4.79408980 445.30099000 -0.31685701 0.54356903 -0.77726102 1.905766e-42
27.76829900 5.66714000 446.38300000 -0.28798300 0.54813898 -0.78524500 1.905766e-42
26.05299900 5.57145980 446.92001000 -0.26243100 0.55054200 -0.79248601 1.905766e-42
24.48730100 5.97984980 447.70901000 -0.23667300 0.55775398 -0.79554701 1.905766e-42
22.83550100 6.27214000 448.36200000 -0.20342700 0.56688303 -0.79828602 1.905766e-42
21.09709900 6.37564990 448.81699000 -0.16622999 0.57209200 -0.80316800 1.905766e-42
19.35810100 5.91132020 448.79800000 -0.13059001 0.56691498 -0.81335902 1.905766e-42
17.70210100 6.37396000 449.32999000 -0.09349940 0.57054901 -0.81592399 1.905766e-42
15.91770000 6.42458010 449.56201000 -0.05750660 0.56557697 -0.82268798 1.905766e-42
14.11950000 6.36898990 449.61700000 -0.02689810 0.55672699 -0.83025998 1.905766e-42
12.31980000 6.37866020 449.64999000 0.00135297 0.54592103 -0.83783501 1.905766e-42
10.52070000 6.41190000 449.60199000 0.03581410 0.53791600 -0.84223700 1.905766e-42
8.72712040 6.39056020 449.45200000 0.07632370 0.53132898 -0.84372097 1.905766e-42
6.94141010 6.39303020 449.22601000 0.11640500 0.52227002 -0.84479803 1.905766e-42
5.18351980 6.24025010 448.87000000 0.15295000 0.51060301 -0.84610301 1.905766e-42
3.40769000 6.35673000 448.60001000 0.18801001 0.49837300 -0.84633100 1.905766e-42
1.64861000 6.37712000 448.21899000 0.21734200 0.48501799 -0.84706599 1.905766e-42
-0.08346340 6.38184020 447.73001000 0.24384300 0.47256500 -0.84688997 1.905766e-42
-1.81099000 6.39238980 447.22400000 0.26733300 0.45995900 -0.84674102 1.905766e-42
-3.50264000 6.38103010 446.60901000 0.28845799 0.44659501 -0.84696198 1.905766e-42
-5.14406010 6.31942990 445.87299000 0.30645800 0.43359500 -0.84739500 1.905766e-42
-6.83425000 6.89333010 445.64099000 0.32627699 0.42031601 -0.84668601 1.905766e-42
-8.04430010 8.12876030 446.14001000 0.34341401 0.40953001 -0.84519398 1.905766e-42
-8.04487990 9.81917000 446.75900000 0.35591200 0.40547001 -0.84197402 1.905766e-42
-9.09710030 11.24800000 447.06100000 0.37204999 0.39390799 -0.84048498 1.905766e-42
-9.31882000 12.90750000 447.72198000 0.38843900 0.38955101 -0.83508402 1.905766e-42
-8.74905010 14.38020000 448.58600000 0.40408400 0.39804000 -0.82357800 1.905766e-42
-8.63883970 15.97710000 449.40900000 0.42269599 0.41083601 -0.80779999 1.905766e-42
-8.22539040 17.45299900 450.35300000 0.44647801 0.43130499 -0.78398502 1.905766e-42
-8.66646000 19.05789900 451.03799000 0.47478801 0.43980700 -0.76232898 1.905766e-42
-8.49487970 20.57799900 451.98700000 0.49803600 0.45299500 -0.73942900 1.905766e-42
-8.63399980 22.07259900 452.98001000 0.51536602 0.45629099 -0.72539401 1.905766e-42
-8.22099020 23.43260000 454.08499000 0.52830201 0.46671900 -0.70927501 1.905766e-42
-8.57347970 24.97349900 454.94601000 0.55290103 0.46665600 -0.69031399 1.905766e-42
-8.09270000 26.29750100 456.06601000 0.56881601 0.48416600 -0.66485500 1.905766e-42
-8.34620000 27.78370100 457.04999000 0.59330201 0.49900699 -0.63165200 1.905766e-42
-8.40711980 29.21859900 458.13501000 0.61247498 0.52578002 -0.59027898 1.905766e-42
-8.48933980 30.62179900 459.25900000 0.62381601 0.54446000 -0.56072998 1.905766e-42
-8.94083020 32.05590100 460.24899000 0.63926601 0.55111402 -0.53629500 1.905766e-42
-9.06805040 33.32899900 461.51501000 0.64962399 0.55765897 -0.51672500 1.905766e-42
-9.48824020 34.74210000 462.54800000 0.66439098 0.55433202 -0.50129902 1.905766e-42
-9.80426980 36.15729900 463.61401000 0.67844403 0.54802501 -0.48926800 1.905766e-42
-10.14960000 37.56280100 464.68399000 0.69280398 0.53830898 -0.47983900 1.905766e-42
-10.36510000 38.82400100 465.95001000 0.70158100 0.53657198 -0.46890801 1.905766e-42
-11.39990000 40.18030200 466.52499000 0.71341997 0.52840298 -0.46024200 1.905766e-42
-11.25090000 41.60329800 467.61700000 0.72246897 0.53000498 -0.44399700 1.905766e-42
-11.72830000 43.17499900 468.35300000 0.73514903 0.52611202 -0.42750701 1.905766e-42
-11.96550000 44.48199800 469.56699000 0.74622601 0.52712101 -0.40656000 1.905766e-42
-12.77450000 45.94450000 470.23599000 0.75888902 0.51940799 -0.39281401 1.905766e-42
-13.42070000 47.36479900 471.13300000 0.77045000 0.51228702 -0.37943301 1.905766e-42
-14.00210000 48.94100200 471.77899000 0.79179698 0.48166299 -0.37557700 1.905766e-42
-14.33630000 50.45209900 472.69901000 0.80974197 0.45237601 -0.37373000 1.905766e-42
-14.68840000 51.87049900 473.74899000 0.82406598 0.42491201 -0.37465301 1.905766e-42
-15.23880000 53.42509800 474.47101000 0.83632499 0.39568701 -0.37946299 1.905766e-42
-15.18180000 54.54629900 475.87799000 0.84505600 0.37395501 -0.38214901 1.905766e-42
-15.48370000 56.17580000 476.57999000 0.85107797 0.34531799 -0.39550099 1.905766e-42
-15.68700000 57.81409800 477.29700000 0.85770601 0.32108700 -0.40155101 1.905766e-42
-15.37740000 58.81039800 478.76401000 0.86355400 0.31745899 -0.39178401 1.905766e-42
-14.55120000 57.64469900 479.85901000 0.85245597 0.34337199 -0.39422601 1.905766e-42
-13.61510000 56.39720200 480.75800000 0.83565700 0.37052101 -0.40545201 1.905766e-42
-12.69730000 55.05730100 481.53400000 0.81439799 0.39696601 -0.42329001 1.905766e-42
-11.64840000 53.78570200 482.25699000 0.78952199 0.42318600 -0.44448701 1.905766e-42
-10.53630000 52.70560100 483.17099000 0.76118898 0.45064199 -0.46638301 1.905766e-42
-9.32892040 51.51039900 483.76599000 0.73431498 0.47546500 -0.48447400 1.905766e-42
-8.24699970 50.44120000 484.72900000 0.71187901 0.50183702 -0.49131301 1.905766e-42
-6.97936010 49.16360100 484.75699000 0.68890703 0.51876402 -0.50625300 1.905766e-42
-5.72612000 48.00930000 485.33701000 0.66773498 0.54004198 -0.51233202 1.905766e-42
-4.46881010 46.95500200 486.07700000 0.64844197 0.56055099 -0.51507801 1.905766e-42
-3.10535000 45.82020200 486.38300000 0.62438899 0.58653897 -0.51585799 1.905766e-42
-1.84373000 44.53640000 486.39301000 0.59795398 0.61258900 -0.51690000 1.905766e-42
-0.40649700 43.45990000 486.26801000 0.57075298 0.63781399 -0.51714098 1.905766e-42
0.87646699 42.22250000 486.01700000 0.54255599 0.66213202 -0.51692700 1.905766e-42
2.09805010 40.94929900 485.66101000 0.51426101 0.68542498 -0.51548803 1.905766e-42
3.33291010 39.64040000 485.62000000 0.48488101 0.70750999 -0.51412100 1.905766e-42
4.59983020 38.51810100 485.00699000 0.45538399 0.73047000 -0.50895900 1.905766e-42
6.12234020 37.57780100 484.81299000 0.41891301 0.75414699 -0.50574201 1.905766e-42
7.67666010 36.67039900 484.78601000 0.38012499 0.77587199 -0.50351501 1.905766e-42
9.07233050 35.77880100 484.08099000 0.34505901 0.79781502 -0.49439299 1.905766e-42
10.63360000 34.88499800 484.02200000 0.30933401 0.81675202 -0.48706099 1.905766e-42
12.11750000 34.22819900 483.24301000 0.27800900 0.83601302 -0.47306800 1.905766e-42
13.80640000 33.60910000 483.17801000 0.24845199 0.85102999 -0.46262300 1.905766e-42
15.44940000 32.87400100 483.17200000 0.21816300 0.86280602 -0.45603901 1.905766e-42
17.01940000 32.39149900 482.43600000 0.18329400 0.87461001 -0.44884399 1.905766e-42
18.77080000 31.97710000 482.40601000 0.14242101 0.88477999 -0.44371200 1.905766e-42
20.51260000 31.52319900 482.39001000 0.09947140 0.89384902 -0.43719500 1.905766e-42
22.21839900 31.35580100 481.84100000 0.05592340 0.90140498 -0.42934999 1.905766e-42
23.99060100 31.17310000 481.58301000 0.01306230 0.90771502 -0.41938299 1.905766e-42
25.79050100 31.17690100 481.59698000 -0.02500720 0.91312099 -0.40691999 1.905766e-42
27.58919900 31.24449900 481.58701000 -0.06572720 0.91284299 -0.40298501 1.905766e-42
29.38870000 31.20280100 481.59601000 -0.10326600 0.91146201 -0.39821100 1.905766e-42
31.02360000 31.38550000 480.86499000 -0.13862801 0.90933698 -0.39228600 1.905766e-42
32.81300000 31.56889900 480.79901000 -0.17082700 0.90754199 -0.38364801 1.905766e-42
34.48899800 31.77820000 480.17700000 -0.19845299 0.90577102 -0.37442699 1.905766e-42
36.26549900 31.96730000 479.95801000 -0.21737701 0.90542901 -0.36461699 1.905766e-42
37.63349900 31.99530000 478.78799000 -0.22979701 0.90664899 -0.35381001 1.905766e-42
39.22110000 31.89559900 477.94601000 -0.23168200 0.91104102 -0.34106901 1.905766e-42
39.73669800 31.37789900 476.30099000 -0.23697600 0.91153002 -0.33608899 1.905766e-42
39.90399900 30.57290100 474.69901000 -0.24945700 0.90667498 -0.34016299 1.905766e-42
39.12950100 30.19780000 473.11801000 -0.26932999 0.89481699 -0.35603899 1.905766e-42
38.94530100 29.51370000 471.46399000 -0.29147899 0.88069701 -0.37337899 1.905766e-42
38.99990100 28.62459900 469.89999000 -0.31749699 0.86426902 -0.39017299 1.905766e-42
39.14440200 27.74980000 468.33301000 -0.34798899 0.84598398 -0.40399799 1.905766e-42
39.11150000 26.97680100 466.70801000 -0.36717701 0.83762401 -0.40443400 1.905766e-42
39.12939800 26.28900000 465.04501000 -0.37553200 0.83910102 -0.39355499 1.905766e-42
39.22240100 25.47480000 463.44199000 -0.38898501 0.83653599 -0.38587400 1.905766e-42
39.07749900 24.72830000 461.81100000 -0.39185101 0.82758999 -0.40193000 1.905766e-42
38.96780000 23.93170000 460.20001000 -0.39557001 0.81190902 -0.42933401 1.905766e-42
39.03910100 23.12350100 458.59299000 -0.40371501 0.79048300 -0.46059901 1.905766e-42
39.01110100 22.28529900 457.00101000 -0.41233999 0.76705199 -0.49153501 1.905766e-42
39.13790100 21.29760000 455.50101000 -0.42113799 0.74562597 -0.51641399 1.905766e-42
39.07809800 20.19870000 454.07700000 -0.43028200 0.72460097 -0.53834099 1.905766e-42
38.84669900 19.01730000 452.73901000 -0.43991899 0.70387501 -0.55770200 1.905766e-42
39.04760000 17.99920100 451.26801000 -0.45459199 0.68499601 -0.56932098 1.905766e-42
39.03780000 16.82950000 449.89999000 -0.46915501 0.66622698 -0.57968599 1.905766e-42
38.95080200 15.58670000 448.60101000 -0.47144201 0.64771301 -0.59850699 1.905766e-42
39.05910100 14.39280000 447.25800000 -0.46590099 0.62489903 -0.62644798 1.905766e-42
38.96070100 13.03540000 446.07999000 -0.46322501 0.59880102 -0.65334600 1.905766e-42
39.13790100 11.65700000 444.93600000 -0.46383101 0.57090902 -0.67743999 1.905766e-42
39.15119900 10.20570000 443.87100000 -0.46636701 0.54435301 -0.69726700 1.905766e-42
39.01250100 8.80039020 442.75500000 -0.47080499 0.52227098 -0.71103901 1.905766e-42
39.03030000 7.27608010 441.79800000 -0.47266299 0.51490098 -0.71516901 1.905766e-42
39.13900000 5.87594990 440.67200000 -0.47161600 0.52070302 -0.71165103 1.905766e-42
