# .PCD v0.7 - Point Cloud Data file format
# 9 180 0
# 1 27 0
# 28 49 0
# 50 75 1
# 76 94 0
# 95 115 0
# 116 128 0
# 129 144 0
# 145 168 0
# 169 180 0
VERSION 0.7
FIELDS x y z normal_x normal_y normal_z curvature
SIZE 4 4 4 4 4 4 4
TYPE F F F F F F F
COUNT 1 1 1 1 1 1 1
WIDTH 180
HEIGHT 1
VIEWPOINT 0 0 0 1 0 0 0
POINTS 180
DATA ascii
-4.2347398 27.843901 486.388 -0.60675001 0.77613902 -0.17165001 1.9057659e-42
-5.6784401 27.1397 487.20001 -0.60602802 0.77285498 -0.18821301 1.9057659e-42
-6.9753799 25.892 487.23401 -0.62329298 0.75277102 -0.211759 1.9057659e-42
-8.3655195 25.046301 488.004 -0.63947701 0.73953301 -0.210144 1.9057659e-42
-9.6258802 23.813499 488.367 -0.66411901 0.71655703 -0.21328799 1.9057659e-42
-10.9296 22.7637 489.02899 -0.68911302 0.69529802 -0.204166 1.9057659e-42
-12.1665 21.633301 489.686 -0.71136898 0.67598301 -0.192357 1.9057659e-42
-13.3589 20.535601 490.46899 -0.73631901 0.65373099 -0.174558 1.9057659e-42
-14.5647 19.4555 491.25601 -0.76216298 0.62839401 -0.15565901 1.9057659e-42
-15.7227 18.3076 492.01901 -0.78657299 0.60166699 -0.138925 1.9057659e-42
-16.605 16.7957 492.43799 -0.80896002 0.57127202 -0.13868 1.9057659e-42
-17.6714 15.6575 493.336 -0.82626098 0.55041301 -0.119746 1.9057659e-42
-18.477301 14.1058 493.76401 -0.84462702 0.52220798 -0.117912 1.9057659e-42
-19.305201 12.6365 494.39301 -0.85585803 0.50627702 -0.105787 1.9057659e-42
-20.308201 11.5833 495.45401 -0.86473799 0.496775 -0.073774502 1.9057659e-42
-21.1717 10.275 496.33801 -0.87574601 0.480322 -0.048581701 1.9057659e-42
-21.8832 8.8043003 497.09399 -0.88760197 0.459764 -0.0279196 1.9057659e-42
-22.559 7.3273101 497.87 -0.90140498 0.43297601 -0.000442619 1.9057659e-42
-23.2549 6.0141802 498.88501 -0.914841 0.40222201 0.035812698 1.9057659e-42
-23.773199 4.4611201 499.633 -0.92707098 0.36921701 0.064949296 1.9057659e-42
-24.395201 3.28439 500.845 -0.93445998 0.341557 0.100614 1.9057659e-42
-24.692101 1.5436701 501.194 -0.94155103 0.31664801 0.114957 1.9057659e-42
-25.1952 0.40406099 502.49301 -0.942931 0.30055401 0.143347 1.9057659e-42
-25.3757 -1.36046 502.79999 -0.94713402 0.280469 0.15580299 1.9057659e-42
-25.599199 -3.0114999 503.48099 -0.94995099 0.25650501 0.17831799 1.9057659e-42
-25.828501 -4.17453 504.35699 -0.95099199 0.23335899 0.202874 1.9057659e-42
-25.9914 -5.70365 505.29199 -0.95152903 0.201462 0.232391 1.9057659e-42
-26.1367 -6.9488902 506.58401 -0.94905901 0.175606 0.261628 1.9057659e-42
-25.724899 -6.3765502 508.23999 -0.94660801 0.16633099 0.27616501 1.9057659e-42
-25.336599 -5.8168302 509.90601 -0.940759 0.167173 0.295003 1.9057659e-42
-24.7787 -6.33534 511.53699 -0.93498999 0.148977 0.321868 1.9057659e-42
-24.1535 -6.01756 513.19501 -0.92603701 0.147842 0.34727201 1.9057659e-42
-23.661301 -6.9656401 514.64398 -0.91802502 0.122843 0.377013 1.9057659e-42
-22.991501 -7.1436501 516.30499 -0.90748501 0.123335 0.40157101 1.9057659e-42
-22.191999 -7.3654099 517.90198 -0.89582902 0.138247 0.42234701 1.9057659e-42
-21.3643 -7.5896201 519.48499 -0.87650502 0.15386701 0.45614001 1.9057659e-42
-20.5574 -7.6883898 521.091 -0.84675997 0.168525 0.50457603 1.9057659e-42
-19.649799 -7.9844098 522.617 -0.80721301 0.178321 0.56268001 1.9057659e-42
-18.7159 -8.4220104 524.09198 -0.75797999 0.18055101 0.62679201 1.9057659e-42
-17.658199 -8.9674797 525.44299 -0.7044 0.173402 0.68829602 1.9057659e-42
-16.627399 -9.7192802 526.71198 -0.65562898 0.16006599 0.73792303 1.9057659e-42
-15.3803 -10.2307 527.90503 -0.61001801 0.14628699 0.77876699 1.9057659e-42
-14.0471 -10.6672 529.03302 -0.57309502 0.132734 0.80866802 1.9057659e-42
-12.7329 -11.3338 530.06702 -0.55169803 0.12075 0.825257 1.9057659e-42
-11.2501 -11.8537 530.94501 -0.53431398 0.12741999 0.83562702 1.9057659e-42
-9.8120699 -12.4917 531.82001 -0.503079 0.13524801 0.85359198 1.9057659e-42
-8.36765 -13.1475 532.66998 -0.465027 0.1399 0.87417299 1.9057659e-42
-7.2526598 -14.3662 533.38501 -0.43555701 0.134573 0.89004499 1.9057659e-42
-5.8844199 -15.2582 534.14203 -0.39687601 0.13169201 0.90837598 1.9057659e-42
-4.4238701 -16.035601 534.85101 -0.36126801 0.127489 0.923706 1.9057659e-42
-2.98001 -15.03 535.22998 -0.33127201 0.141323 0.93289202 1.9057659e-42
-2.3396699 -13.3871 535.59198 -0.311555 0.164343 0.93590802 1.9057659e-42
-0.97175503 -12.2267 535.742 -0.28910601 0.185973 0.93905902 1.9057659e-42
0.42494601 -11.0959 535.84399 -0.314015 0.184184 0.93138099 1.9057659e-42
1.38667 -9.5749598 535.79999 -0.34532201 0.17593101 0.92184699 1.9057659e-42
2.66749 -8.3132601 535.88702 -0.383349 0.14991599 0.91135502 1.9057659e-42
3.6382599 -6.8108501 536.08801 -0.429077 0.118587 0.89544898 1.9057659e-42
3.9688301 -5.0494399 536.25598 -0.48304999 0.097313501 0.87016797 1.9057659e-42
4.6984 -3.4096701 536.11798 -0.54151601 0.067311898 0.837991 1.9057659e-42
5.3710299 -1.7494299 536.29498 -0.60337001 0.032644302 0.79679298 1.9057659e-42
4.5521998 -0.25460699 536.87402 -0.65524799 0.046026099 0.75401002 1.9057659e-42
4.1817698 1.35491 536.15802 -0.70793599 0.109949 0.69766599 1.9057659e-42
4.0981398 2.9634099 535.35498 -0.745942 0.17580099 0.64239001 1.9057659e-42
3.94644 4.55972 534.53699 -0.764956 0.25317699 0.592237 1.9057659e-42
4.01296 6.18291 533.76202 -0.77407598 0.334546 0.53748 1.9057659e-42
4.1190901 7.7947998 532.96802 -0.74680102 0.43982399 0.498842 1.9057659e-42
4.49892 9.3740301 532.19202 -0.68589699 0.50271398 0.52614099 1.9057659e-42
4.8638 10.9346 531.37201 -0.62875199 0.55729598 0.54230303 1.9057659e-42
5.7502799 12.2867 530.58099 -0.575059 0.61200303 0.54291803 1.9057659e-42
6.6382499 13.6781 529.86298 -0.53184301 0.65607101 0.53545702 1.9057659e-42
8.1787004 14.3592 529.22803 -0.50237399 0.68566799 0.52676302 1.9057659e-42
9.724 15.1101 528.69098 -0.48259601 0.70048797 0.52575499 1.9057659e-42
10.0216 16.756201 528.02698 -0.48942 0.70422399 0.514332 1.9057659e-42
10.7823 18.208799 527.284 -0.50759602 0.69172102 0.51368099 1.9057659e-42
12.3213 18.961201 526.73199 -0.53057802 0.67439902 0.51349097 1.9057659e-42
11.6972 20.5987 526.32001 -0.539832 0.68626499 0.48746401 1.9057659e-42
13.3775 21.059999 525.86902 -0.43441001 0.74849701 0.50103903 1.9057659e-42
14.9369 21.7815 525.33301 -0.328641 0.80743802 0.48993799 1.9057659e-42
16.5291 22.449699 524.82397 -0.23129299 0.85240602 0.468943 1.9057659e-42
18.272301 22.649099 524.42297 -0.136849 0.871557 0.470808 1.9057659e-42
19.9268 23.1677 523.93903 -0.0612395 0.88695598 0.45777601 1.9057659e-42
21.699301 23.18 523.62598 0.022058999 0.87381399 0.48575899 1.9057659e-42
23.466999 23.1017 523.29602 0.088030502 0.84997398 0.51941699 1.9057659e-42
25.110901 22.3895 523.12201 0.153384 0.79900497 0.58143401 1.9057659e-42
26.8895 22.4513 522.85199 0.197612 0.78124303 0.59212297 1.9057659e-42
28.6705 22.3873 522.599 0.23787899 0.76579303 0.59747303 1.9057659e-42
30.455 22.4501 522.37097 0.27113599 0.76177698 0.58837199 1.9057659e-42
32.243801 22.4018 522.177 0.29923701 0.76195598 0.57435203 1.9057659e-42
34.0215 22.2703 521.927 0.32060599 0.77133298 0.54978001 1.9057659e-42
35.318802 23.3519 521.30499 0.34477201 0.80064702 0.48999599 1.9057659e-42
35.407398 24.0755 519.659 0.34998101 0.83028501 0.43375099 1.9057659e-42
35.7332 24.767401 518.02899 0.33108601 0.85368401 0.40200299 1.9057659e-42
36.865601 24.1355 516.78101 0.33045399 0.84431398 0.42182299 1.9057659e-42
38.516899 23.419201 516.76703 0.35553801 0.82138002 0.44601199 1.9057659e-42
40.1534 22.670401 516.79999 0.37696299 0.80566299 0.456954 1.9057659e-42
41.712399 21.805599 517.04797 0.39994901 0.79568303 0.45489401 1.9057659e-42
42.899799 21.0994 518.20203 0.42271999 0.79799199 0.429555 1.9057659e-42
43.113201 20.9653 519.98401 0.42045 0.81346399 0.40186799 1.9057659e-42
41.5522 21.8477 520.14099 0.393049 0.818133 0.41972801 1.9057659e-42
39.947498 21.848301 520.95697 0.36693001 0.81966001 0.43990999 1.9057659e-42
38.4258 21.6485 521.89697 0.338294 0.80914903 0.480452 1.9057659e-42
36.77 22.346701 521.79199 0.33649299 0.79782599 0.500247 1.9057659e-42
36.0555 20.8006 522.37402 0.30284899 0.773601 0.55661899 1.9057659e-42
37.748299 20.191401 522.43103 0.30496001 0.79568702 0.52333701 1.9057659e-42
39.1717 19.119499 522.68597 0.308667 0.79808098 0.51748598 1.9057659e-42
40.819099 18.4235 522.89001 0.34618801 0.78723699 0.510306 1.9057659e-42
42.117199 17.215599 523.20001 0.39423299 0.75338298 0.52630299 1.9057659e-42
43.629501 16.267 523.42999 0.46408299 0.71085602 0.52849901 1.9057659e-42
44.700298 14.925 523.97101 0.52087897 0.65377003 0.54888099 1.9057659e-42
45.684502 13.5047 524.47498 0.57128203 0.59647697 0.563784 1.9057659e-42
46.650002 12.0976 525.04797 0.60860598 0.54619801 0.57555699 1.9057659e-42
47.363602 10.5559 525.64301 0.632873 0.49672201 0.59391898 1.9057659e-42
48.119598 9.0374699 526.245 0.65433502 0.44370401 0.61234999 1.9057659e-42
48.748402 7.4059501 526.672 0.67181301 0.389819 0.629848 1.9057659e-42
48.978001 5.6336298 526.88702 0.67633498 0.34069601 0.65306801 1.9057659e-42
50.704201 5.7364502 526.388 0.68044698 0.37852401 0.627464 1.9057659e-42
52.153198 5.9441299 525.34003 0.68012899 0.41724399 0.60276997 1.9057659e-42
52.6908 7.07935 524.05103 0.68274701 0.457775 0.56947303 1.9057659e-42
52.514801 8.0708504 522.55902 0.67706901 0.49536201 0.54423797 1.9057659e-42
52.015701 9.5362997 521.64099 0.67136002 0.53070903 0.51732397 1.9057659e-42
52.702099 7.99786 522.27502 0.67306399 0.49841499 0.546413 1.9057659e-42
53.620998 6.4872699 521.93799 0.66585398 0.47924399 0.57180703 1.9057659e-42
54.784199 6.7421398 520.58801 0.64864898 0.48981699 0.582524 1.9057659e-42
56.029301 7.10882 519.341 0.62613702 0.48794401 0.60816401 1.9057659e-42
57.2248 7.7368102 518.151 0.59384298 0.47516501 0.64928299 1.9057659e-42
58.278599 8.4958296 516.90399 0.54704702 0.447588 0.70739299 1.9057659e-42
59.494099 8.9463596 515.65503 0.49592099 0.42670301 0.75629801 1.9057659e-42
60.645802 9.3248701 514.32501 0.44667599 0.41834399 0.79086602 1.9057659e-42
60.7486 10.6127 513.07098 0.399207 0.474439 0.78456497 1.9057659e-42
59.8214 12.1291 512.78699 0.39163899 0.526205 0.754803 1.9057659e-42
59.2024 13.558 511.884 0.38700399 0.56331199 0.73000503 1.9057659e-42
58.148899 14.9885 511.595 0.40013301 0.58945203 0.70174003 1.9057659e-42
57.774899 16.2313 510.34799 0.40400201 0.63919199 0.654383 1.9057659e-42
56.623501 17.5931 510.103 0.42139599 0.65961099 0.622365 1.9057659e-42
55.826302 18.9487 509.228 0.44035301 0.685853 0.57939202 1.9057659e-42
55.120998 20.2535 508.20801 0.46557999 0.70690101 0.53247201 1.9057659e-42
54.407001 21.503799 507.12799 0.49664301 0.71811199 0.48750499 1.9057659e-42
53.294601 22.712 506.39099 0.51296997 0.72158003 0.46495599 1.9057659e-42
52.328499 23.956499 505.51999 0.51965499 0.735376 0.43494999 1.9057659e-42
51.109699 25.0387 504.75601 0.513156 0.75309002 0.41173699 1.9057659e-42
49.854198 26.321199 504.61899 0.49286199 0.77008599 0.405036 1.9057659e-42
48.518799 27.4863 504.30399 0.47075099 0.78946602 0.39387301 1.9057659e-42
47.492901 28.4363 503.17099 0.46658099 0.80140901 0.37422699 1.9057659e-42
45.9053 29.278299 503.06699 0.43816 0.81368101 0.38202 1.9057659e-42
45.166 29.959801 501.57401 0.42906401 0.83305502 0.34917599 1.9057659e-42
43.5779 30.7876 501.39401 0.385721 0.85617 0.343793 1.9057659e-42
41.926399 31.448 501.117 0.328648 0.884341 0.33155799 1.9057659e-42
40.968899 32.315102 502.371 0.296547 0.88879597 0.34942901 1.9057659e-42
39.192799 32.605701 502.39999 0.256035 0.909926 0.326314 1.9057659e-42
37.4212 32.8815 502.56 0.21939699 0.92696601 0.30430001 1.9057659e-42
35.748798 33.105801 503.18701 0.19498201 0.93151301 0.30702901 1.9057659e-42
33.980999 33.444401 503.173 0.167622 0.94244897 0.289296 1.9057659e-42
32.188702 33.600498 503.23001 0.153469 0.94032198 0.30371201 1.9057659e-42
30.407301 33.6805 503.47601 0.140762 0.93719202 0.319152 1.9057659e-42
28.765499 33.9491 504.16299 0.117111 0.93397099 0.33761299 1.9057659e-42
27.070601 34.007599 504.76599 0.091956303 0.93072599 0.35396701 1.9057659e-42
25.271099 33.9921 504.80399 0.067633003 0.92859 0.36489099 1.9057659e-42
23.4876 33.783298 504.92899 0.040517598 0.92708898 0.37264401 1.9057659e-42
21.822399 33.945 505.59299 0.0133285 0.92465597 0.38056999 1.9057659e-42
20.024799 33.8526 505.58401 -0.016055901 0.92457002 0.380674 1.9057659e-42
18.227699 33.751499 505.60199 -0.042492401 0.92479199 0.378093 1.9057659e-42
16.4543 33.4632 505.70999 -0.0660161 0.92353398 0.37779099 1.9057659e-42
14.782 33.430401 506.375 -0.086518198 0.91806602 0.38687101 1.9057659e-42
12.9982 33.2337 506.23599 -0.108605 0.91694897 0.383939 1.9057659e-42
11.3522 32.795399 505.65399 -0.129325 0.919447 0.37133899 1.9057659e-42
9.6339197 32.775799 506.19 -0.147631 0.91181701 0.383138 1.9057659e-42
7.89151 32.6451 505.758 -0.17556 0.91336799 0.36733899 1.9057659e-42
6.1778102 32.292599 505.33499 -0.225904 0.909639 0.34860399 1.9057659e-42
4.4478798 32.108002 504.87299 -0.27879 0.90585601 0.318905 1.9057659e-42
3.58358 32.349701 503.31201 -0.31532899 0.91771102 0.241607 1.9057659e-42
3.4003999 32.6483 501.547 -0.33322999 0.92885703 0.16181201 1.9057659e-42
2.46117 32.4086 500.03 -0.367192 0.92553902 0.092453197 1.9057659e-42
2.24769 32.394501 498.24301 -0.38403901 0.92134601 0.060293999 1.9057659e-42
1.5486799 32.1021 496.60999 -0.41245601 0.91014498 0.038943902 1.9057659e-42
0.69015002 31.747 495.06799 -0.44168401 0.897026 0.016120199 1.9057659e-42
-0.19111399 31.2321 493.586 -0.46985 0.88270301 -0.0087065203 1.9057659e-42
-1.1862 30.7572 492.16299 -0.496317 0.86738503 -0.0362182 1.9057659e-42
-1.92916 30.196501 490.62201 -0.52235001 0.85028899 -0.064493798 1.9057659e-42
-2.8994901 29.568199 489.24301 -0.54655403 0.83162498 -0.098382801 1.9057659e-42
-3.6672599 28.7609 487.82901 -0.57765698 0.805143 -0.13437501 1.9057659e-42
