# .PCD v0.7 - Point Cloud Data file format
# 6 112 -2
# 1 14 0
# 15 33 0
# 34 67 0
# 68 86 0
# 87 98 0
# 99 112 0
VERSION 0.7
FIELDS x y z normal_x normal_y normal_z curvature
SIZE 4 4 4 4 4 4 4
TYPE F F F F F F F
COUNT 1 1 1 1 1 1 1
WIDTH 112
HEIGHT 1
VIEWPOINT 0 0 0 1 0 0 0
POINTS 112
DATA ascii
19.96419900 31.33400000 415.97000000 -0.04085400 0.66236699 0.74806499 1.905766e-42
19.32900000 30.64620000 416.48599000 -0.02576340 0.66180402 0.74923402 1.905766e-42
17.74430100 29.96929900 417.00601000 0.01169900 0.66187698 0.74952102 1.905766e-42
16.28440100 29.22209900 417.74799000 0.04811110 0.65705800 0.75230300 1.905766e-42
14.71580000 28.58359900 418.35800000 0.07904710 0.64912498 0.75656402 1.905766e-42
13.35120000 27.82869900 419.25699000 0.10248900 0.63363498 0.76681399 1.905766e-42
11.91520000 27.16250000 420.11301000 0.13249899 0.64322299 0.75412703 1.905766e-42
10.15660000 27.07000000 420.48599000 0.17273200 0.64316601 0.74598998 1.905766e-42
8.64912030 26.57950000 421.33801000 0.21043700 0.64968401 0.73049802 1.905766e-42
6.97765020 27.24650000 421.30099000 0.25471401 0.63771802 0.72693598 1.905766e-42
5.27758980 27.25659900 421.89200000 0.30136499 0.63324898 0.71286398 1.905766e-42
3.57111000 27.40690000 422.44501000 0.33908400 0.62910199 0.69946599 1.905766e-42
1.92163000 28.10840000 422.60901000 0.36827600 0.62104201 0.69186699 1.905766e-42
0.32603601 28.70450000 423.19199000 0.39396200 0.61785501 0.68047798 1.905766e-42
-1.37679000 29.24449900 423.41199000 0.41514301 0.61629099 0.66921002 1.905766e-42
-1.33390000 27.96190100 424.67499000 0.41420701 0.60370100 0.68115902 1.905766e-42
-2.18899010 26.86470000 425.81699000 0.41899100 0.57923901 0.69923502 1.905766e-42
-2.59606000 25.67450000 427.10400000 0.42096400 0.55770302 0.71537203 1.905766e-42
-2.47773000 24.37890100 428.34799000 0.42117500 0.55191201 0.71972603 1.905766e-42
-3.01829000 23.13600000 429.53299000 0.43070799 0.55715603 0.70997798 1.905766e-42
-3.36022000 21.81839900 430.71100000 0.43493599 0.56397402 0.70197099 1.905766e-42
-3.65195990 20.53529900 431.93900000 0.43670300 0.57197201 0.69436198 1.905766e-42
-3.91519000 19.29710000 433.21899000 0.43895701 0.58060902 0.68571901 1.905766e-42
-4.50821020 18.10199900 434.42700000 0.44552100 0.58705902 0.67592299 1.905766e-42
-4.49962000 16.82440000 435.69501000 0.44588599 0.59424198 0.66937399 1.905766e-42
-4.58705000 15.53460000 436.94699000 0.44175699 0.57316500 0.69016802 1.905766e-42
-4.78985980 14.19800000 438.13599000 0.43823799 0.55032700 0.71069598 1.905766e-42
-4.97806980 12.86280000 439.32800000 0.43431500 0.52618700 0.73109299 1.905766e-42
-5.06848000 11.44870000 440.43799000 0.44008300 0.55663502 0.70461601 1.905766e-42
-5.74676990 10.28520000 441.63199000 0.45334300 0.59985101 0.65928602 1.905766e-42
-6.01448010 9.10717010 442.96701000 0.46347499 0.64887601 0.60344899 1.905766e-42
-5.88698010 8.04121970 444.41199000 0.46873799 0.77180701 0.42965001 1.905766e-42
-5.41680000 7.20158000 445.93301000 0.43807200 0.85787201 0.26860601 1.905766e-42
-4.63193990 6.49578000 447.39099000 0.38610700 0.90727901 0.16663200 1.905766e-42
-3.40236000 6.00245000 448.60901000 0.33988899 0.93575698 0.09399270 1.905766e-42
-1.80906000 5.35197020 448.08200000 0.33280200 0.94218397 0.03914290 1.905766e-42
-0.21531799 5.00243000 448.84201000 0.27113199 0.96150398 -0.04468600 1.905766e-42
1.54703000 4.74598980 449.10300000 0.22249199 0.96814901 -0.11482300 1.905766e-42
3.21217990 4.16038990 448.75101000 0.19599600 0.96542400 -0.17187700 1.905766e-42
4.96303990 3.75345990 448.65601000 0.17468700 0.96019101 -0.21798600 1.905766e-42
6.54629990 3.20305990 448.00000000 0.17222300 0.96249002 -0.20964800 1.905766e-42
8.33380030 2.99248000 448.02301000 0.15130900 0.95911300 -0.23918100 1.905766e-42
10.11230000 2.80992010 448.23099000 0.12565200 0.95254701 -0.27724600 1.905766e-42
11.82260000 2.82165000 448.79199000 0.10012200 0.93705398 -0.33452201 1.905766e-42
13.61060000 2.61392000 448.79901000 0.08628890 0.93283200 -0.34982699 1.905766e-42
15.39710000 2.39382000 448.79901000 0.07451350 0.93102998 -0.35725501 1.905766e-42
16.96360000 2.66332010 449.64401000 0.05263870 0.90596902 -0.42005900 1.905766e-42
18.74760100 2.71088000 449.87900000 0.03663010 0.89653498 -0.44145599 1.905766e-42
20.42170000 2.93481990 450.50101000 0.02415180 0.87582898 -0.48201799 1.905766e-42
22.03540000 3.31610990 451.20200000 0.01666240 0.85130203 -0.52441102 1.905766e-42
23.45420100 3.85961010 452.16699000 0.02736310 0.82173699 -0.56920999 1.905766e-42
25.06590100 4.29551980 452.83899000 0.04181110 0.80528200 -0.59141499 1.905766e-42
26.83149900 4.49324990 453.12900000 0.04902110 0.80646503 -0.58924598 1.905766e-42
28.30699900 5.04065990 454.00201000 0.06102480 0.79109699 -0.60863900 1.905766e-42
29.69910000 5.66249990 454.95901000 0.06796970 0.77494901 -0.62835801 1.905766e-42
31.42160000 5.93397000 455.40500000 0.05404900 0.77785200 -0.62611902 1.905766e-42
32.95909900 6.43949990 456.19299000 0.04618830 0.77026701 -0.63604599 1.905766e-42
34.31589900 7.20349980 457.09601000 0.04384710 0.75593901 -0.65317202 1.905766e-42
35.95500200 7.64004990 457.69901000 0.03007990 0.75694901 -0.65278101 1.905766e-42
37.48020200 8.27451040 458.41400000 0.02245850 0.75658602 -0.65350902 1.905766e-42
38.95579900 8.92599960 459.21201000 0.00998911 0.75923699 -0.65073699 1.905766e-42
40.72769900 9.13605020 459.45001000 -0.04195680 0.78297502 -0.62063700 1.905766e-42
42.40070000 9.58580970 459.93799000 -0.09005610 0.80449301 -0.58709598 1.905766e-42
44.14720200 9.91100980 460.22800000 -0.12693700 0.83521402 -0.53507400 1.905766e-42
45.76480100 10.49370000 460.76099000 -0.14165901 0.86443198 -0.48237899 1.905766e-42
47.50669900 10.39590000 460.31799000 -0.23284601 0.89448899 -0.38167000 1.905766e-42
48.73669800 10.81720000 459.07300000 -0.38586000 0.89403403 -0.22762901 1.905766e-42
50.31349900 11.22700000 458.30801000 -0.55882800 0.82898200 -0.02237280 1.905766e-42
51.33950000 12.25910000 457.24899000 -0.70088500 0.69520700 0.15952399 1.905766e-42
51.94310000 13.41240000 456.00500000 -0.77416801 0.55844498 0.29799899 1.905766e-42
52.01060100 14.54510000 454.60800000 -0.78851402 0.48584399 0.37709600 1.905766e-42
52.27339900 15.91430000 453.47000000 -0.79069799 0.45014700 0.41492701 1.905766e-42
52.59970100 17.36230100 452.45099000 -0.79056698 0.41662401 0.44880700 1.905766e-42
52.68980000 18.70780000 451.25900000 -0.78423899 0.40041500 0.47395799 1.905766e-42
52.64880000 20.01520000 450.02200000 -0.77795702 0.42381200 0.46386001 1.905766e-42
52.57899900 21.25890000 448.72299000 -0.77578801 0.44760799 0.44474599 1.905766e-42
52.74280200 22.55320000 447.48300000 -0.77875203 0.47091401 0.41446900 1.905766e-42
52.69110100 23.84260000 446.22800000 -0.78646898 0.45429900 0.41842499 1.905766e-42
52.65860000 25.18180100 445.02600000 -0.79256499 0.43259901 0.42976701 1.905766e-42
52.79719900 26.57270100 443.89200000 -0.79777098 0.40797400 0.44398099 1.905766e-42
53.52949900 28.19720100 443.63800000 -0.80925500 0.38842100 0.44072101 1.905766e-42
53.59470000 29.71419900 442.67099000 -0.81337202 0.38030100 0.44022301 1.905766e-42
53.54510100 31.08379900 441.50400000 -0.81592703 0.37314600 0.44161701 1.905766e-42
53.75510000 32.60240200 440.56100000 -0.82187498 0.36896199 0.43403801 1.905766e-42
54.28279900 34.21609900 439.96301000 -0.83025998 0.37289301 0.41427001 1.905766e-42
54.32410000 35.64650000 438.87100000 -0.83284497 0.38716599 0.39556599 1.905766e-42
54.08240100 36.61529900 437.37299000 -0.82861102 0.41280901 0.37814301 1.905766e-42
53.10480100 35.81900000 436.08899000 -0.81425899 0.43046400 0.38946500 1.905766e-42
52.12850200 34.95690200 434.84601000 -0.79624301 0.44915700 0.40528300 1.905766e-42
51.24449900 34.29729800 433.42401000 -0.77322799 0.47371399 0.42156100 1.905766e-42
50.05149800 32.95690200 433.56500000 -0.75144303 0.47677499 0.45609200 1.905766e-42
49.03910100 31.47069900 433.48401000 -0.72433800 0.48872101 0.48629901 1.905766e-42
47.92950100 30.24320000 432.77499000 -0.69419599 0.50527298 0.51263201 1.905766e-42
46.66310100 29.00140000 432.46799000 -0.66572601 0.51851797 0.53660798 1.905766e-42
45.38230100 27.75530100 432.25201000 -0.63678902 0.53215301 0.55795401 1.905766e-42
44.03509900 26.95719900 431.36499000 -0.60387099 0.55079103 0.57616800 1.905766e-42
42.61800000 25.92050000 430.96799000 -0.57179099 0.56817901 0.59179997 1.905766e-42
41.16370000 25.16680000 430.22198000 -0.53790998 0.58624703 0.60577798 1.905766e-42
39.62950100 24.82000000 429.34698000 -0.50271499 0.60233998 0.62005198 1.905766e-42
38.20370100 24.88940000 428.25000000 -0.46846399 0.61372298 0.63551998 1.905766e-42
37.00220100 25.31230000 426.97900000 -0.43737099 0.61922598 0.65212399 1.905766e-42
35.71590000 25.77720100 425.80801000 -0.40805799 0.62248802 0.66782999 1.905766e-42
34.47790100 26.33740000 424.62799000 -0.38043499 0.62344003 0.68307501 1.905766e-42
33.25180100 26.93110100 423.45099000 -0.35351700 0.62342501 0.69739997 1.905766e-42
31.90250000 27.38220000 422.34900000 -0.32451999 0.62627900 0.70884502 1.905766e-42
30.29870000 27.53130000 421.54501000 -0.28947800 0.63996500 0.71179199 1.905766e-42
29.03100000 28.16480100 420.43500000 -0.25810099 0.65270901 0.71228802 1.905766e-42
27.56300000 28.63999900 419.50800000 -0.22044399 0.65916598 0.71896100 1.905766e-42
25.94109900 28.98410000 418.80801000 -0.17829300 0.66157699 0.72837299 1.905766e-42
24.52750000 29.63540100 417.90399000 -0.13777800 0.66163802 0.73705697 1.905766e-42
23.27549900 30.42740100 416.88101000 -0.10124300 0.65968400 0.74469203 1.905766e-42
21.51450000 30.66840000 416.59698000 -0.06904170 0.65883702 0.74911100 1.905766e-42
