# .PCD v0.7 - Point Cloud Data file format
# 3 141 0
# 1 57 0
# 58 99 0
# 100 141 0
VERSION 0.7
FIELDS x y z normal_x normal_y normal_z curvature
SIZE 4 4 4 4 4 4 4
TYPE F F F F F F F
COUNT 1 1 1 1 1 1 1
WIDTH 141
HEIGHT 1
VIEWPOINT 0 0 0 1 0 0 0
POINTS 141
DATA ascii
-25.51280000 6.06756020 452.79001000 0.78984201 0.28770000 -0.54164499 1.905766e-42
-25.20990000 7.86665010 454.74100000 0.77327800 0.27755001 -0.57009399 1.905766e-42
-24.34450000 8.83172990 455.98999000 0.75741100 0.27015701 -0.59442699 1.905766e-42
-23.77710000 10.00010000 457.23599000 0.75040102 0.27232799 -0.60227603 1.905766e-42
-23.19319900 11.21700000 458.42700000 0.74843901 0.28271201 -0.59992701 1.905766e-42
-22.98410000 12.67890000 459.45599000 0.74886000 0.29231599 -0.59477699 1.905766e-42
-22.43050000 13.84000000 460.71500000 0.74574798 0.30410701 -0.59277201 1.905766e-42
-22.09420000 15.12560000 461.92899000 0.74395603 0.31561500 -0.58899701 1.905766e-42
-21.49309900 16.24869900 463.20099000 0.73999101 0.32822701 -0.58709598 1.905766e-42
-21.36389900 17.62130000 464.35800000 0.73899198 0.33674300 -0.58352000 1.905766e-42
-20.67490000 18.70640000 465.61801000 0.73198700 0.34623799 -0.58678299 1.905766e-42
-19.93289900 19.62260100 466.97800000 0.72236502 0.35760099 -0.59187001 1.905766e-42
-19.55260100 20.81340000 468.27301000 0.71566802 0.36924401 -0.59285599 1.905766e-42
-19.34330000 22.09870000 469.51599000 0.70959002 0.38306099 -0.59139299 1.905766e-42
-19.09079900 23.28820000 470.84299000 0.70036501 0.40104401 -0.59046799 1.905766e-42
-18.93670100 24.54290000 472.12500000 0.68961799 0.42438501 -0.58679199 1.905766e-42
-17.95120000 25.38900000 473.37100000 0.67101800 0.45107701 -0.58844203 1.905766e-42
-17.41040000 26.48130000 474.69501000 0.65089297 0.48614299 -0.58309799 1.905766e-42
-17.03430000 27.66869900 475.99500000 0.62612301 0.52845901 -0.57332402 1.905766e-42
-17.34950100 28.87260100 477.29501000 0.59734899 0.58397502 -0.54967898 1.905766e-42
-16.66869900 29.79810000 478.68100000 0.55759197 0.62697703 -0.54404998 1.905766e-42
-16.65300000 30.63780000 480.27301000 0.50923502 0.68261099 -0.52413899 1.905766e-42
-16.30680100 31.52150000 481.80301000 0.45332000 0.73169798 -0.50903702 1.905766e-42
-15.55340000 32.24810000 483.26700000 0.40245599 0.75536400 -0.51716000 1.905766e-42
-13.91570000 31.92429900 483.94000000 0.40921500 0.72093898 -0.55927598 1.905766e-42
-12.24140000 31.97130000 484.59900000 0.41581500 0.69294202 -0.58900702 1.905766e-42
-10.68840000 31.87570000 485.50400000 0.42848799 0.66555703 -0.61109102 1.905766e-42
-9.26354980 31.63909900 486.57800000 0.44940600 0.63591301 -0.62741500 1.905766e-42
-7.86358980 31.51800000 487.70300000 0.47547200 0.60539103 -0.63830000 1.905766e-42
-6.91213990 32.21200200 489.06500000 0.46950001 0.61293900 -0.63551098 1.905766e-42
-5.64050010 32.53139900 490.29800000 0.48761901 0.59468400 -0.63920200 1.905766e-42
-4.43394990 32.91450100 491.57700000 0.46166399 0.61290699 -0.64125699 1.905766e-42
-3.50140000 33.56959900 492.97101000 0.43814600 0.63999099 -0.63122100 1.905766e-42
-2.19374990 33.90290100 494.16199000 0.40713799 0.66464698 -0.62648499 1.905766e-42
-1.18110000 34.44150200 495.54901000 0.38358700 0.68940997 -0.61447102 1.905766e-42
0.03975740 34.91310100 496.78500000 0.35691699 0.71261400 -0.60397899 1.905766e-42
1.05933000 35.50519900 498.14499000 0.33424601 0.73595798 -0.58876598 1.905766e-42
2.37899990 35.99800100 499.26599000 0.30553201 0.75712597 -0.57741702 1.905766e-42
4.01718000 36.01839800 500.01099000 0.26844299 0.77186698 -0.57633299 1.905766e-42
5.43815990 36.41180000 501.04401000 0.23011400 0.78178298 -0.57953602 1.905766e-42
7.04435010 36.52389900 501.84799000 0.18761800 0.78719598 -0.58747000 1.905766e-42
8.56669040 36.87519800 502.74200000 0.14977100 0.79227901 -0.59149098 1.905766e-42
10.27060000 36.98560000 503.31201000 0.11302200 0.79465401 -0.59644800 1.905766e-42
11.87820000 37.22969800 504.08401000 0.07999980 0.79771698 -0.59770203 1.905766e-42
13.64850000 37.35319900 504.38599000 0.04758260 0.79824501 -0.60044998 1.905766e-42
15.15340000 37.80830000 505.26199000 0.01989410 0.80128402 -0.59795302 1.905766e-42
16.87039900 38.19279900 505.64099000 -0.00940257 0.80166298 -0.59770203 1.905766e-42
18.47489900 38.54019900 506.38000000 -0.04515790 0.80454099 -0.59217799 1.905766e-42
20.18660000 39.09199900 506.45499000 -0.08379410 0.80853403 -0.58245301 1.905766e-42
21.95660000 39.40409900 506.55301000 -0.11734200 0.81669199 -0.56501800 1.905766e-42
23.44179900 40.07700000 507.31601000 -0.13849100 0.82980102 -0.54060203 1.905766e-42
24.82220100 40.66379900 508.31100000 -0.15626501 0.84137601 -0.51736498 1.905766e-42
26.45739900 41.24060100 508.79401000 -0.18190700 0.84740400 -0.49881500 1.905766e-42
28.10530100 41.93080100 509.01401000 -0.20985200 0.85037398 -0.48252100 1.905766e-42
29.67320100 42.62160100 509.56601000 -0.22901399 0.85366797 -0.46776500 1.905766e-42
31.35440100 43.25610000 509.67001000 -0.25207299 0.85252702 -0.45788401 1.905766e-42
32.79340000 44.11790100 510.32300000 -0.27342200 0.85361397 -0.44337699 1.905766e-42
34.16460000 43.89960100 509.17801000 -0.29699901 0.84208000 -0.45021400 1.905766e-42
34.31589900 42.84840000 507.72501000 -0.29955500 0.83258098 -0.46591401 1.905766e-42
33.47790100 42.16630200 506.28500000 -0.29093599 0.82646298 -0.48199099 1.905766e-42
33.33400000 41.18500100 504.78299000 -0.29418501 0.81681103 -0.49626201 1.905766e-42
33.20000100 40.04629900 503.39499000 -0.29958600 0.80691600 -0.50905299 1.905766e-42
32.58300000 39.07080100 502.01401000 -0.30278200 0.79667300 -0.52310199 1.905766e-42
32.29250000 37.93970100 500.64401000 -0.31349701 0.78487802 -0.53449601 1.905766e-42
32.15610100 36.85030000 499.21799000 -0.32910401 0.77339500 -0.54180300 1.905766e-42
31.74790000 35.75930000 497.84601000 -0.33810499 0.76466399 -0.54861200 1.905766e-42
31.29890100 34.62780000 496.51999000 -0.34411800 0.75560099 -0.55735999 1.905766e-42
31.08729900 33.52209900 495.11499000 -0.34788099 0.74562901 -0.56834602 1.905766e-42
30.69129900 32.35500000 493.80301000 -0.34570301 0.73515898 -0.58312100 1.905766e-42
30.96830000 31.31279900 492.36200000 -0.34627801 0.72232199 -0.59861702 1.905766e-42
31.10000000 30.10320100 491.03601000 -0.34737700 0.70873302 -0.61402500 1.905766e-42
31.01969900 28.87010000 489.72699000 -0.34697199 0.69766998 -0.62678999 1.905766e-42
31.01720000 27.63629900 488.41599000 -0.34748799 0.68962598 -0.63534802 1.905766e-42
30.70229900 26.47520100 487.07700000 -0.34681600 0.68234599 -0.64352298 1.905766e-42
30.87820100 25.14500000 485.87799000 -0.35191101 0.67415297 -0.64936602 1.905766e-42
30.44319900 23.85850000 484.69601000 -0.35052699 0.66673899 -0.65771598 1.905766e-42
30.67100000 22.56550000 483.46500000 -0.35769999 0.65745097 -0.66317999 1.905766e-42
29.85520000 21.45990000 482.30200000 -0.35100001 0.65010798 -0.67391300 1.905766e-42
29.93980000 20.24930000 480.97299000 -0.35705101 0.63721800 -0.68298399 1.905766e-42
30.36249900 19.07970000 479.67099000 -0.36752200 0.62270099 -0.69077599 1.905766e-42
30.55400100 17.71130000 478.51801000 -0.36936200 0.60807598 -0.70271999 1.905766e-42
31.12800000 16.38450100 477.44501000 -0.37147599 0.59451097 -0.71313500 1.905766e-42
30.43289900 15.08440000 476.41199000 -0.36884901 0.58400601 -0.72311002 1.905766e-42
30.99790000 13.79380000 475.29199000 -0.37616301 0.57427198 -0.72712702 1.905766e-42
31.30460000 12.44280000 474.14301000 -0.38480699 0.56697798 -0.72832698 1.905766e-42
30.44580100 11.12970000 473.26099000 -0.38629201 0.55993497 -0.73297399 1.905766e-42
31.20080000 9.99485970 472.08499000 -0.40141499 0.55991101 -0.72482097 1.905766e-42
31.86660000 8.73987010 470.98001000 -0.41764700 0.55861199 -0.71660602 1.905766e-42
31.87910100 7.28831010 469.91501000 -0.42951101 0.55310798 -0.71385700 1.905766e-42
32.00410100 5.93845990 468.73099000 -0.44345501 0.54540801 -0.71125102 1.905766e-42
32.51990100 4.62393000 467.61499000 -0.44139901 0.53244400 -0.72226697 1.905766e-42
32.62920000 3.23145010 466.48001000 -0.43829101 0.51658398 -0.73555601 1.905766e-42
32.66180000 1.83653000 465.34201000 -0.43858799 0.50059497 -0.74635398 1.905766e-42
32.62789900 0.42540500 464.22501000 -0.44177601 0.48865399 -0.75236398 1.905766e-42
32.77830100 -0.98724598 463.12000000 -0.44124401 0.50072402 -0.74470103 1.905766e-42
33.44649900 -2.32404990 462.11700000 -0.44591799 0.51405299 -0.73273998 1.905766e-42
33.41759900 -3.78976990 461.07300000 -0.45103100 0.52900302 -0.71883702 1.905766e-42
33.54169800 -5.15184020 459.90201000 -0.45902300 0.54393202 -0.70244998 1.905766e-42
33.30530200 -6.56543020 458.81299000 -0.46617299 0.55654597 -0.68770498 1.905766e-42
32.98680100 -7.94216010 457.69800000 -0.47291699 0.56624901 -0.67506403 1.905766e-42
31.44490100 -8.55313010 458.39801000 -0.45657700 0.56490898 -0.68732399 1.905766e-42
30.03360000 -9.67033960 458.39801000 -0.44043499 0.57249397 -0.69156897 1.905766e-42
28.59960000 -10.75820000 458.39600000 -0.41884500 0.58366501 -0.69563198 1.905766e-42
27.13080000 -11.79860000 458.38300000 -0.39262301 0.59657103 -0.69996500 1.905766e-42
25.70330000 -12.88710000 458.25000000 -0.36375201 0.61160702 -0.70258200 1.905766e-42
24.08589900 -13.67220000 458.33600000 -0.32814801 0.62497002 -0.70832998 1.905766e-42
22.58219900 -14.63370000 458.10300000 -0.29283601 0.64096302 -0.70951599 1.905766e-42
20.86260000 -15.14220000 458.25900000 -0.24910700 0.65043902 -0.71754801 1.905766e-42
19.32539900 -16.02050000 457.93399000 -0.21032400 0.66491801 -0.71669197 1.905766e-42
17.57440000 -16.18689900 458.31699000 -0.16999300 0.66879499 -0.72375101 1.905766e-42
16.61790100 -17.52619900 457.58801000 -0.14834701 0.68492198 -0.71335500 1.905766e-42
14.81860000 -17.47979900 457.60699000 -0.10876000 0.68759298 -0.71790498 1.905766e-42
13.02670000 -17.64749900 457.64099000 -0.06816830 0.69163001 -0.71902698 1.905766e-42
11.51860000 -18.48220100 457.12201000 -0.03066280 0.70092201 -0.71257800 1.905766e-42
9.76410010 -18.78150000 456.85400000 0.01429300 0.70787197 -0.70619601 1.905766e-42
8.04557040 -18.27500000 457.02802000 0.05349780 0.71113700 -0.70101500 1.905766e-42
6.36525010 -17.73979900 457.38800000 0.08926990 0.71143597 -0.69705802 1.905766e-42
4.74909020 -18.25960000 456.79001000 0.13124000 0.72266901 -0.67861998 1.905766e-42
3.01553990 -17.77770000 456.73901000 0.16752100 0.72546297 -0.66756302 1.905766e-42
1.48492000 -18.20529900 455.89401000 0.20761199 0.73774898 -0.64235801 1.905766e-42
-0.16400500 -18.13150000 455.17599000 0.25464401 0.74294698 -0.61901999 1.905766e-42
-1.87939000 -17.60150000 455.04700000 0.29136100 0.74082202 -0.60522002 1.905766e-42
-3.47937010 -17.52500000 454.22601000 0.32308900 0.74730098 -0.58064997 1.905766e-42
-5.10281990 -16.76310000 454.38101000 0.33950999 0.73955399 -0.58119899 1.905766e-42
-6.77711010 -16.10230100 454.37601000 0.35050800 0.73108000 -0.58537698 1.905766e-42
-8.42259030 -15.40470000 454.16199000 0.38541400 0.70744801 -0.59243000 1.905766e-42
-10.06040000 -14.91760000 453.59698000 0.41610301 0.69014901 -0.59207600 1.905766e-42
-11.54690000 -13.90270000 453.57501000 0.44895300 0.65553898 -0.60721499 1.905766e-42
-13.00800000 -12.85260000 453.52701000 0.48053700 0.61854500 -0.62168002 1.905766e-42
-14.41200000 -11.72910000 453.44501000 0.51174402 0.57871902 -0.63498199 1.905766e-42
-15.85440000 -10.70460000 453.11301000 0.54583001 0.53949499 -0.64110500 1.905766e-42
-17.24539900 -9.60807040 452.79300000 0.58147401 0.49943399 -0.64222503 1.905766e-42
-18.50690100 -8.32406040 452.78799000 0.61654902 0.45935199 -0.63942403 1.905766e-42
-19.59040100 -6.88671020 452.79300000 0.64881098 0.42471799 -0.63139403 1.905766e-42
-20.62420100 -5.41322990 452.78400000 0.67552602 0.39917400 -0.61993903 1.905766e-42
-21.65490000 -3.94396000 452.64700000 0.69936800 0.37812501 -0.60655200 1.905766e-42
-22.49860000 -2.35589000 452.56799000 0.72261202 0.35643500 -0.59227198 1.905766e-42
-23.25760100 -0.72542202 452.49399000 0.74592203 0.33441901 -0.57599002 1.905766e-42
-23.63660000 1.00832000 452.79501000 0.76106101 0.31646001 -0.56625003 1.905766e-42
-24.28050000 2.68909000 452.77399000 0.77916598 0.29942200 -0.55067903 1.905766e-42
-24.94190000 4.36215020 452.71500000 0.78588802 0.29405099 -0.54398000 1.905766e-42
