# .PCD v0.7 - Point Cloud Data file format
# 4 143 1
# 1 27 0
# 28 66 0
# 67 89 0
# 90 143 1
VERSION 0.7
FIELDS x y z normal_x normal_y normal_z curvature
SIZE 4 4 4 4 4 4 4
TYPE F F F F F F F
COUNT 1 1 1 1 1 1 1
WIDTH 143
HEIGHT 1
VIEWPOINT 0 0 0 1 0 0 0
POINTS 143
DATA ascii
33.61220200 26.96430000 389.07800000 0.91288900 0.19572900 -0.35822299 1.905766e-42
33.54819900 25.55559900 387.95901000 0.89114499 0.17471100 -0.41873100 1.905766e-42
32.71480200 24.67830100 386.20999000 0.86444902 0.14932901 -0.48002899 1.905766e-42
31.78160100 23.76610000 384.97000000 0.84358603 0.13692500 -0.51924402 1.905766e-42
31.20760000 23.38360000 383.30701000 0.83001697 0.12918399 -0.54257101 1.905766e-42
30.33449900 22.88740000 381.81299000 0.82046902 0.12181700 -0.55856198 1.905766e-42
29.46279900 22.17600100 380.40799000 0.81444001 0.11510600 -0.56871599 1.905766e-42
28.60490000 21.33740000 379.06601000 0.81159800 0.10778100 -0.57418799 1.905766e-42
27.70179900 20.78980100 377.60901000 0.82767099 0.12710200 -0.54663199 1.905766e-42
27.04130000 19.69860100 376.33899000 0.84496897 0.15020899 -0.51328802 1.905766e-42
26.32630000 18.91130100 374.88699000 0.86267102 0.17043400 -0.47618499 1.905766e-42
25.67000000 18.07930000 373.43201000 0.87916899 0.18963499 -0.43715000 1.905766e-42
25.13590000 17.32530000 371.88699000 0.88781399 0.19144399 -0.41849199 1.905766e-42
24.50149900 17.12910100 370.21399000 0.89354199 0.19094700 -0.40635100 1.905766e-42
24.02710000 16.14430000 368.78400000 0.89696300 0.19117300 -0.39863700 1.905766e-42
23.40449900 15.86180000 367.11899000 0.89936101 0.19252200 -0.39253700 1.905766e-42
23.10040100 14.68190000 365.79401000 0.90128797 0.19758600 -0.38553900 1.905766e-42
22.57770000 13.97510000 364.22299000 0.90353698 0.20482600 -0.37638801 1.905766e-42
22.07600000 13.13460000 362.71201000 0.90560597 0.21258201 -0.36699700 1.905766e-42
21.55439900 12.36320000 361.17200000 0.90737599 0.22074100 -0.35769099 1.905766e-42
21.14010000 11.60230000 359.59399000 0.90899402 0.22931300 -0.34805900 1.905766e-42
20.77599900 11.01630000 357.93201000 0.91049701 0.23877101 -0.33761501 1.905766e-42
20.24500100 10.60880000 356.26099000 0.91166103 0.24941200 -0.32660201 1.905766e-42
19.94630100 9.47700980 354.89301000 0.91425598 0.25913101 -0.31142601 1.905766e-42
19.62660000 9.23314000 353.13901000 0.91435403 0.26177201 -0.30892000 1.905766e-42
19.25300000 8.48727990 351.54401000 0.91551399 0.26060301 -0.30646399 1.905766e-42
18.88279900 7.93722010 349.87000000 0.91742998 0.25814801 -0.30278999 1.905766e-42
18.30570000 7.67917010 348.18500000 0.92224199 0.25023699 -0.29470500 1.905766e-42
17.51600100 8.46325020 346.76999000 0.92814398 0.24142100 -0.28331000 1.905766e-42
16.76750000 9.64645960 345.63901000 0.93315703 0.23305701 -0.27368200 1.905766e-42
16.50690100 11.20890000 344.78400000 0.93736303 0.22421899 -0.26660201 1.905766e-42
16.06270000 12.94760000 344.64401000 0.94105899 0.21468399 -0.26137999 1.905766e-42
15.48470000 14.44780000 343.83401000 0.94504201 0.20321500 -0.25612399 1.905766e-42
14.90010000 15.92080000 342.98099000 0.95102203 0.18594800 -0.24694300 1.905766e-42
14.43070000 17.54800000 342.37100000 0.95854503 0.16497301 -0.23232600 1.905766e-42
14.01630000 18.87949900 341.23300000 0.96549100 0.14478600 -0.21648100 1.905766e-42
13.65050000 20.42970100 340.39401000 0.97156101 0.12580000 -0.20060800 1.905766e-42
13.29450000 21.97260100 339.53799000 0.97690499 0.10758800 -0.18460900 1.905766e-42
12.90330000 23.24080100 338.32199000 0.98172098 0.08975130 -0.16783699 1.905766e-42
12.66020000 24.81690000 337.48801000 0.98568398 0.07263640 -0.15215400 1.905766e-42
12.39880000 26.04330100 336.19601000 0.98915899 0.05614500 -0.13568901 1.905766e-42
12.13290000 27.32840000 334.96399000 0.99210501 0.04031440 -0.11875600 1.905766e-42
12.02650000 28.91640100 334.12299000 0.99435300 0.02580260 -0.10294300 1.905766e-42
11.85970000 30.03370100 332.72198000 0.99633199 0.01161560 -0.08477720 1.905766e-42
11.77240000 31.41510000 331.57101000 0.99775898 -0.00181025 -0.06688200 1.905766e-42
11.65610000 32.56930200 330.19501000 0.99876100 -0.01450130 -0.04760750 1.905766e-42
11.40760000 33.50619900 328.67801000 0.99928302 -0.02583070 -0.02766340 1.905766e-42
11.70760000 35.02360200 327.75800000 0.99931502 -0.03468660 -0.01290260 1.905766e-42
11.71980000 35.96910100 326.22601000 0.99900401 -0.04431840 0.00514538 1.905766e-42
11.81600000 37.27339900 324.98901000 0.99826998 -0.05475240 0.02144730 1.905766e-42
11.91890000 38.72359800 323.92801000 0.99716097 -0.06596060 0.03633260 1.905766e-42
12.00550000 39.38550200 322.25601000 0.99571002 -0.07554700 0.05343380 1.905766e-42
12.22820000 40.93119800 321.36099000 0.99389601 -0.08790650 0.06665360 1.905766e-42
12.43950000 42.42750200 320.38300000 0.99172598 -0.10066200 0.07966140 1.905766e-42
12.70020000 43.86380000 319.32999000 0.98932302 -0.11362300 0.09126250 1.905766e-42
12.97630000 45.18019900 318.13400000 0.98645800 -0.12787899 0.10270000 1.905766e-42
13.30280000 46.69780000 317.22299000 0.98305202 -0.14463700 0.11264600 1.905766e-42
13.60680000 47.91230000 315.92999000 0.97923100 -0.16113400 0.12305700 1.905766e-42
13.99440000 49.43759900 315.05600000 0.97463799 -0.17998700 0.13298699 1.905766e-42
14.37390000 50.91680100 314.10300000 0.96944499 -0.19887300 0.14362100 1.905766e-42
14.55690000 52.07849900 312.73999000 0.96588498 -0.21216799 0.14849301 1.905766e-42
15.30450000 53.53760100 311.99701000 0.96194798 -0.22464100 0.15553699 1.905766e-42
15.72910000 54.86619900 310.85901000 0.95775598 -0.23791900 0.16154701 1.905766e-42
16.36980100 56.34470000 310.05701000 0.95322198 -0.24920601 0.17106700 1.905766e-42
16.93870000 57.85030000 309.25101000 0.94847202 -0.25896800 0.18258201 1.905766e-42
17.50309900 58.96390200 307.95499000 0.94327098 -0.27383199 0.18776500 1.905766e-42
18.00440000 60.59249900 307.37500000 0.94430798 -0.26747099 0.19168299 1.905766e-42
18.37540100 62.20970200 308.07300000 0.94587201 -0.23850100 0.22009701 1.905766e-42
18.65420000 63.93629800 308.49799000 0.94762701 -0.23560300 0.21562600 1.905766e-42
18.72010000 65.37690000 309.57501000 0.94765401 -0.24139400 0.20899899 1.905766e-42
18.89769900 66.84629800 310.60001000 0.94765002 -0.24651200 0.20295499 1.905766e-42
19.14740000 68.42450000 311.42801000 0.94748002 -0.25239301 0.19641601 1.905766e-42
19.43569900 69.97390000 312.29800000 0.94605500 -0.26835901 0.18155600 1.905766e-42
19.68670100 71.51550300 313.19299000 0.94385600 -0.28473800 0.16751400 1.905766e-42
19.94420100 72.83319900 314.39200000 0.94110000 -0.30112600 0.15379900 1.905766e-42
20.36899900 74.54209900 314.76501000 0.93755299 -0.31692100 0.14337599 1.905766e-42
20.65710100 75.84770200 315.97000000 0.93322098 -0.33443701 0.13133900 1.905766e-42
21.16860000 77.44149800 316.63199000 0.92698801 -0.35475701 0.12182400 1.905766e-42
21.65800100 78.83740200 317.65701000 0.91969901 -0.37611601 0.11265600 1.905766e-42
22.12700100 80.30249800 318.59201000 0.91059399 -0.39991099 0.10435300 1.905766e-42
22.77840000 81.81720000 319.31400000 0.89783001 -0.43150401 0.08777640 1.905766e-42
23.46120100 83.29820300 320.07599000 0.88655299 -0.45713601 0.07106210 1.905766e-42
24.16320000 84.78520200 320.80801000 0.87821901 -0.47513801 0.05455000 1.905766e-42
24.87360000 86.19259600 321.67700000 0.87427402 -0.48410299 0.03591690 1.905766e-42
25.55160000 87.61000100 322.55499000 0.88499498 -0.46376801 0.04127540 1.905766e-42
26.19020100 89.08210000 323.37000000 0.89947897 -0.43365601 0.05366600 1.905766e-42
26.68009900 90.56990100 324.25699000 0.91451901 -0.39924601 0.06525300 1.905766e-42
27.24309900 91.58570100 325.63300000 0.92856503 -0.36448899 0.07010650 1.905766e-42
27.74729900 93.00560000 326.61700000 0.94292802 -0.32296401 0.08112350 1.905766e-42
27.98620000 94.45939600 327.65100000 0.95706999 -0.27261499 0.09848410 1.905766e-42
27.63369900 93.41590100 329.07501000 0.95576602 -0.28248999 0.08191850 1.905766e-42
27.23679900 92.58090200 330.61899000 0.95618802 -0.28448799 0.06906980 1.905766e-42
26.97139900 92.29570000 332.37701000 0.96168101 -0.26586401 0.06697090 1.905766e-42
26.68610000 91.60610200 334.01501000 0.96389198 -0.25979000 0.05848670 1.905766e-42
26.42810100 90.98760200 335.68500000 0.96665502 -0.25109899 0.05026380 1.905766e-42
26.14539900 90.55690000 337.41000000 0.97012502 -0.23876800 0.04297540 1.905766e-42
25.86080000 89.75260200 338.99500000 0.97129798 -0.23584500 0.03094110 1.905766e-42
25.70039900 88.45770300 340.23499000 0.96876800 -0.24777800 0.00970224 1.905766e-42
25.50090000 87.74800100 341.87701000 0.97160202 -0.23661600 -0.00149489 1.905766e-42
25.30900000 86.91989900 343.46399000 0.97337699 -0.22882000 -0.01334900 1.905766e-42
25.13030100 86.09709900 345.05499000 0.97504097 -0.22070900 -0.02414880 1.905766e-42
24.96019900 84.97930100 346.45499000 0.97443300 -0.22120500 -0.03934560 1.905766e-42
24.74500100 84.04499800 347.97900000 0.97496098 -0.21640600 -0.05119070 1.905766e-42
24.59750000 82.85299700 349.31900000 0.97352201 -0.21862300 -0.06677710 1.905766e-42
24.51950100 81.98049900 350.89200000 0.97473198 -0.20830999 -0.08064830 1.905766e-42
24.45019900 80.95520000 352.37000000 0.97457302 -0.20207600 -0.09681520 1.905766e-42
24.36300100 79.82420300 353.76700000 0.97341400 -0.19865499 -0.11402200 1.905766e-42
24.28150000 78.92929800 355.32700000 0.97342700 -0.19010399 -0.12767100 1.905766e-42
24.27260000 77.69819600 356.64001000 0.97135699 -0.18869500 -0.14443199 1.905766e-42
24.25790000 76.42019700 357.90701000 0.96892500 -0.18802300 -0.16072300 1.905766e-42
24.26689900 75.39189900 359.38501000 0.96802503 -0.17983501 -0.17489301 1.905766e-42
24.27840000 73.90419800 360.39801000 0.96448702 -0.17902000 -0.19420800 1.905766e-42
24.32379900 72.65959900 361.69800000 0.96295297 -0.17117999 -0.20837399 1.905766e-42
24.38730000 71.73310100 363.23901000 0.96380401 -0.15743800 -0.21516199 1.905766e-42
24.41010100 70.09069800 363.97601000 0.96017098 -0.15599801 -0.23181200 1.905766e-42
24.55310100 68.93810300 365.35101000 0.96115297 -0.14236900 -0.23646700 1.905766e-42
24.69860100 67.71209700 366.66101000 0.96244001 -0.12829800 -0.23926900 1.905766e-42
24.80160000 66.51249700 367.99899000 0.96417898 -0.11144000 -0.24070600 1.905766e-42
24.88180000 65.39869700 369.41000000 0.96604198 -0.09299460 -0.24106900 1.905766e-42
24.96789900 63.90179800 370.40601000 0.96403700 -0.08239820 -0.25266999 1.905766e-42
25.23060000 62.30640000 371.19699000 0.96034199 -0.07597700 -0.26827300 1.905766e-42
25.56940100 61.06150100 372.45300000 0.95974302 -0.06101300 -0.27417400 1.905766e-42
25.73200000 59.77539800 373.70099000 0.95803702 -0.04793460 -0.28260800 1.905766e-42
26.01689900 58.15300000 374.42700000 0.95257699 -0.04519430 -0.30092400 1.905766e-42
26.24029900 56.59080100 375.29300000 0.94857103 -0.04307290 -0.31362000 1.905766e-42
26.42849900 54.98619800 376.08600000 0.94452000 -0.03900580 -0.32613099 1.905766e-42
26.72710000 53.52660000 377.09698000 0.94264102 -0.02837090 -0.33260199 1.905766e-42
27.01490000 52.04810000 378.08200000 0.94089198 -0.01609140 -0.33832499 1.905766e-42
27.37879900 50.78350100 379.31000000 0.94156301 0.00106451 -0.33683500 1.905766e-42
27.71920000 49.19030000 380.07599000 0.93870097 0.01419820 -0.34444001 1.905766e-42
28.06419900 47.62220000 380.88901000 0.93695498 0.02614580 -0.34847099 1.905766e-42
28.44610000 46.07350200 381.72299000 0.93631899 0.03649220 -0.34924999 1.905766e-42
28.79260100 44.45529900 382.43100000 0.93457001 0.04645930 -0.35273200 1.905766e-42
29.18160100 42.91379900 383.27499000 0.93409002 0.05936150 -0.35206699 1.905766e-42
29.60689900 41.35179900 384.06201000 0.93327701 0.07322910 -0.35161299 1.905766e-42
29.98210000 39.74570100 384.78299000 0.93174398 0.08789090 -0.35231900 1.905766e-42
30.31559900 38.00379900 385.09100000 0.92635298 0.10054300 -0.36298901 1.905766e-42
30.81399900 36.74179800 386.27399000 0.92920202 0.12131900 -0.34909201 1.905766e-42
31.22390000 34.99190100 386.37399000 0.92310703 0.13119200 -0.36147100 1.905766e-42
31.65830000 33.44509900 387.18500000 0.92290801 0.14651400 -0.35605499 1.905766e-42
32.06819900 31.69310000 387.23599000 0.91762900 0.15792499 -0.36471400 1.905766e-42
32.66299800 30.32539900 388.24399000 0.92051899 0.17465700 -0.34948599 1.905766e-42
33.15269900 28.67960000 388.78400000 0.91989601 0.19269800 -0.34155300 1.905766e-42
