# .PCD v0.7 - Point Cloud Data file format
# 3 53 0
# 1 17 0
# 18 32 0
# 33 53 0
VERSION 0.7
FIELDS x y z normal_x normal_y normal_z curvature
SIZE 4 4 4 4 4 4 4
TYPE F F F F F F F
COUNT 1 1 1 1 1 1 1
WIDTH 53
HEIGHT 1
VIEWPOINT 0 0 0 1 0 0 0
POINTS 53
DATA ascii
39.83540000 -2.24488000 436.39301000 0.03704760 -0.29036200 0.95619899 1.905766e-42
38.91740000 -0.84645802 437.05801000 0.11770500 -0.39246199 0.91220599 1.905766e-42
37.55600000 0.14911300 437.68600000 0.14965600 -0.43579999 0.88751400 1.905766e-42
36.23109800 1.13856010 438.39700000 0.16724800 -0.43831801 0.88312203 1.905766e-42
34.88140100 2.00111010 439.21899000 0.17220800 -0.41958800 0.89122999 1.905766e-42
33.34030200 2.68275000 439.85101000 0.18845201 -0.42044401 0.88753200 1.905766e-42
32.22829800 3.84517000 440.65900000 0.24203500 -0.51771200 0.82060498 1.905766e-42
31.11580100 4.84680990 441.65900000 0.25580901 -0.66253102 0.70399898 1.905766e-42
29.90350000 5.42742010 442.85599000 0.17119800 -0.74404901 0.64581901 1.905766e-42
29.08560000 6.52133990 444.02802000 0.14672700 -0.71708202 0.68136901 1.905766e-42
27.99539900 7.24729010 445.26300000 0.12620400 -0.71970099 0.68271703 1.905766e-42
27.80419900 8.53194050 446.50900000 0.20639300 -0.71487600 0.66809702 1.905766e-42
26.50309900 9.00992010 447.65701000 0.21415301 -0.75165898 0.62381703 1.905766e-42
25.43149900 9.71061990 448.92200000 0.21354300 -0.79782999 0.56379700 1.905766e-42
25.45949900 10.73660000 450.40100000 0.22867499 -0.81006300 0.53991300 1.905766e-42
23.69840000 10.39310000 450.54501000 0.18177401 -0.82070303 0.54166800 1.905766e-42
22.09040100 9.56416030 449.77600000 0.12841900 -0.83139300 0.54064298 1.905766e-42
20.29730000 9.44544980 449.87900000 0.06690830 -0.83358300 0.54832602 1.905766e-42
18.63310100 8.93344020 449.42300000 0.01194200 -0.82588899 0.56370699 1.905766e-42
16.93740100 8.66390990 448.88199000 -0.08698900 -0.80461597 0.58738899 1.905766e-42
15.50280000 8.33438010 447.84601000 -0.16222300 -0.80485302 0.57087302 1.905766e-42
13.89120000 8.43282990 447.05099000 -0.25298801 -0.76280302 0.59508699 1.905766e-42
12.97420000 7.29154010 446.00400000 -0.22596000 -0.78906500 0.57124299 1.905766e-42
11.53030000 7.33796980 444.92999000 -0.28675300 -0.76944500 0.57072598 1.905766e-42
10.08650000 7.50867990 443.86899000 -0.35571000 -0.73455697 0.57783800 1.905766e-42
9.16436960 6.43990990 442.75201000 -0.30665299 -0.78603899 0.53675503 1.905766e-42
9.09494020 5.57844020 441.17300000 -0.25110799 -0.80896401 0.53152800 1.905766e-42
8.62370970 4.74841980 439.64700000 -0.26748499 -0.78440201 0.55961198 1.905766e-42
7.78408000 3.96519990 438.26001000 -0.30470899 -0.73195201 0.60942501 1.905766e-42
6.78938010 3.29839990 436.91699000 -0.34257799 -0.68945801 0.63819098 1.905766e-42
6.18756010 2.30862000 435.53900000 -0.35942599 -0.64022797 0.67891198 1.905766e-42
4.86254980 1.90268000 434.39001000 -0.37369701 -0.59921098 0.70802301 1.905766e-42
5.22729020 0.34762999 433.56000000 -0.31909901 -0.53722000 0.78074998 1.905766e-42
6.51040980 -0.86469001 433.20801000 -0.27566001 -0.56528503 0.77747297 1.905766e-42
8.09613040 -1.70488000 433.06799000 -0.23760000 -0.58945101 0.77207100 1.905766e-42
9.57326030 -2.68101000 432.74399000 -0.17134300 -0.59988898 0.78152001 1.905766e-42
11.28050000 -3.24295000 432.64600000 -0.15725400 -0.62069303 0.76812202 1.905766e-42
12.86890000 -4.03814980 432.35501000 -0.13948900 -0.63857800 0.75680900 1.905766e-42
14.62530000 -4.36526010 432.13501000 -0.12264500 -0.66551203 0.73624200 1.905766e-42
16.28720100 -4.22377010 432.81201000 -0.12050600 -0.69358402 0.71022499 1.905766e-42
18.07910000 -4.38542990 432.86401000 -0.10865600 -0.71300900 0.69268501 1.905766e-42
19.86580100 -4.39325000 433.08301000 -0.10523400 -0.72672498 0.67882001 1.905766e-42
21.56329900 -4.16931010 433.63800000 -0.09880130 -0.74276602 0.66222101 1.905766e-42
23.32399900 -4.03571990 433.98700000 -0.09860270 -0.75124300 0.65261900 1.905766e-42
25.06590100 -4.43590020 433.77301000 -0.10535500 -0.72727698 0.67821002 1.905766e-42
26.71439900 -4.26179980 434.47501000 -0.09204980 -0.72027802 0.68755102 1.905766e-42
28.47390000 -4.00898980 434.75800000 -0.07959940 -0.69416398 0.71540201 1.905766e-42
30.26540000 -4.00281000 434.93301000 -0.07711310 -0.65025997 0.75578803 1.905766e-42
32.03970000 -4.00607010 435.23599000 -0.08136110 -0.60186398 0.79444402 1.905766e-42
33.83649800 -4.04464010 435.33600000 -0.10043500 -0.53802103 0.83692700 1.905766e-42
35.61970100 -3.99828000 435.57700000 -0.10480000 -0.46791500 0.87753803 1.905766e-42
37.40090200 -3.98257990 435.83600000 -0.09999670 -0.38128600 0.91903299 1.905766e-42
39.18989900 -3.88009000 436.00601000 -0.09096870 -0.27031401 0.95846498 1.905766e-42
