# .PCD v0.7 - Point Cloud Data file format
# 4 133 -3
# 1 27 0
# 28 47 0
# 48 112 1
# 113 133 0
VERSION 0.7
FIELDS x y z normal_x normal_y normal_z curvature
SIZE 4 4 4 4 4 4 4
TYPE F F F F F F F
COUNT 1 1 1 1 1 1 1
WIDTH 133
HEIGHT 1
VIEWPOINT 0 0 0 1 0 0 0
POINTS 133
DATA ascii
-6.26571990 17.63559900 446.73001000 0.44713101 -0.61931002 0.64539099 1.905766e-42
-4.65463020 17.99889900 446.01401000 0.21423399 0.48404801 -0.84841102 1.905766e-42
-3.15247010 18.34300000 445.08401000 0.16971700 0.52211303 -0.83582002 1.905766e-42
-1.79200990 19.29030000 444.38300000 0.15229701 0.48017401 -0.86385101 1.905766e-42
-0.41300100 20.31780100 443.85101000 0.14190900 0.42398700 -0.89448202 1.905766e-42
-4.71121980 17.56670000 445.84698000 0.19584700 0.54806697 -0.81318301 1.905766e-42
-3.27816010 17.27360000 444.79800000 0.17845400 0.60520798 -0.77580798 1.905766e-42
-2.08628010 16.70890000 443.57300000 0.16918799 0.69666201 -0.69716400 1.905766e-42
-0.91493797 16.08630000 442.35599000 0.16568001 0.79556900 -0.58276999 1.905766e-42
0.27822301 15.49700000 441.14401000 0.17519300 0.88958001 -0.42184600 1.905766e-42
1.74012990 15.07530000 440.18201000 0.40556401 -0.20233899 0.89139003 1.905766e-42
3.05704000 14.48180000 439.10800000 0.41867200 -0.14802501 0.89599198 1.905766e-42
4.66168020 14.39340000 438.29800000 0.45507401 -0.09516330 0.88535398 1.905766e-42
6.07762000 13.72980000 437.40601000 0.47768399 -0.07743260 0.87511301 1.905766e-42
7.72488020 13.61750000 436.68900000 0.49367899 0.01275790 0.86955100 1.905766e-42
9.18260960 12.80600000 436.01401000 0.37878999 0.20061401 0.90347803 1.905766e-42
10.87190000 13.21750000 435.54800000 0.31093001 0.32263401 0.89399701 1.905766e-42
12.57270000 12.75460000 435.18301000 0.17171900 0.43619701 0.88331503 1.905766e-42
14.34980000 12.82910000 434.90601000 0.07551320 0.50621700 0.85909402 1.905766e-42
16.14810000 12.80830000 434.83200000 0.00118301 0.56222802 0.82698101 1.905766e-42
17.94720100 12.86330000 434.84698000 -0.05289430 0.61200398 0.78908402 1.905766e-42
19.73100100 12.85790000 435.08801000 -0.15195300 0.67293203 0.72392899 1.905766e-42
21.44820000 13.34110000 435.32800000 -0.27968401 0.71903002 0.63621700 1.905766e-42
23.04620000 13.07070000 436.11099000 -0.45308700 0.72278398 0.52181900 1.905766e-42
24.71830000 13.39760000 436.69199000 -0.46978900 0.73248100 0.49271601 1.905766e-42
26.22010000 13.61100000 437.66101000 -0.46147600 0.72705698 0.50835800 1.905766e-42
27.59300000 14.05840000 438.73499000 -0.51961201 0.73789197 0.43071899 1.905766e-42
28.86980100 14.85010000 439.72699000 -0.63689798 0.73115200 0.24449600 1.905766e-42
29.98060000 15.88240000 440.69699000 -0.74470001 0.65973198 0.10087700 1.905766e-42
30.94129900 16.95010000 441.78201000 -0.80077398 0.59886497 0.01104220 1.905766e-42
31.77059900 18.07239900 442.91901000 -0.78611499 0.61584002 -0.05258540 1.905766e-42
32.35509900 18.88100100 444.41699000 -0.78638798 0.59869200 -0.15218800 1.905766e-42
32.73389800 19.78770100 445.92499000 -0.78470302 0.56361598 -0.25802800 1.905766e-42
33.03080000 21.06279900 447.16000000 -0.77024400 0.52565497 -0.36112401 1.905766e-42
33.05649900 22.20340000 448.55200000 -0.75675797 0.48691800 -0.43615100 1.905766e-42
32.73970000 22.94220000 450.16299000 -0.74659199 0.44240999 -0.49686399 1.905766e-42
32.52769900 24.41750000 451.17200000 -0.70862502 0.40476301 -0.57794201 1.905766e-42
31.83130100 25.20960000 452.63101000 -0.59183800 0.33599600 -0.73268998 1.905766e-42
31.33849900 26.75120000 453.41901000 -0.48608100 0.30817899 -0.81777197 1.905766e-42
31.39340000 28.54420100 453.56699000 -0.44737899 0.30355299 -0.84125400 1.905766e-42
32.49509800 29.93479900 453.26300000 -0.48723400 0.32692200 -0.80976897 1.905766e-42
33.59629800 31.34460100 453.46301000 -0.48733801 0.34114301 -0.80381799 1.905766e-42
34.86119800 32.62160100 453.56000000 -0.48342499 0.35243899 -0.80130303 1.905766e-42
36.22650100 33.65959900 453.01300000 -0.50585002 0.36524901 -0.78147799 1.905766e-42
37.43600100 34.96609900 452.74799000 -0.52880299 0.35637400 -0.77030200 1.905766e-42
38.63539900 36.19770100 452.21500000 -0.56875998 0.34688300 -0.74577802 1.905766e-42
39.57189900 37.72489900 452.04001000 -0.60453802 0.33581200 -0.72233200 1.905766e-42
41.06539900 38.33369800 451.24100000 -0.62427002 0.34124899 -0.70273501 1.905766e-42
41.58029900 37.03260000 450.10901000 -0.63968700 0.33770901 -0.69047302 1.905766e-42
42.93579900 36.70589800 448.97000000 -0.66146100 0.34441900 -0.66621703 1.905766e-42
43.59709900 35.67620100 447.64999000 -0.69666702 0.38745901 -0.60376400 1.905766e-42
44.06079900 34.60260000 446.28201000 -0.72821200 0.42186800 -0.54012501 1.905766e-42
44.46580100 33.55789900 444.87299000 -0.75042200 0.44777399 -0.48617399 1.905766e-42
44.62170000 32.47440000 443.44400000 -0.76289302 0.48353800 -0.42916900 1.905766e-42
44.73020200 31.43820000 441.97601000 -0.76905000 0.51480901 -0.37885800 1.905766e-42
44.86080200 30.43100000 440.48999000 -0.76930398 0.54367501 -0.33554301 1.905766e-42
44.72480000 29.44170000 438.99301000 -0.76477200 0.58487701 -0.27026701 1.905766e-42
44.03630100 28.36170000 437.72800000 -0.75647700 0.61720097 -0.21634500 1.905766e-42
43.97510100 27.54730000 436.12399000 -0.75761098 0.63388199 -0.15562500 1.905766e-42
43.47180200 26.69570000 434.62000000 -0.75245398 0.64945197 -0.10966300 1.905766e-42
43.01499900 25.87080000 433.08701000 -0.73800701 0.67214000 -0.05976870 1.905766e-42
42.16090000 25.07420000 431.71701000 -0.70875502 0.70539200 -0.00943561 1.905766e-42
41.36930100 24.33600000 430.27899000 -0.67395502 0.73761398 0.04136200 1.905766e-42
40.21709800 23.62579900 429.09201000 -0.62277699 0.77673101 0.09400770 1.905766e-42
38.80749900 22.89040000 428.24799000 -0.56210899 0.81481600 0.14180399 1.905766e-42
38.08649800 22.46590000 426.65500000 -0.53142399 0.82427299 0.19535200 1.905766e-42
36.72440000 21.93700000 425.60400000 -0.50630099 0.83379501 0.22010300 1.905766e-42
35.47470100 21.50449900 424.38199000 -0.47891301 0.83743000 0.26335001 1.905766e-42
33.98370000 21.12420100 423.44800000 -0.39949599 0.85960197 0.31857100 1.905766e-42
32.54420100 20.84110100 422.40601000 -0.33903801 0.87374300 0.34875101 1.905766e-42
30.85899900 20.57609900 421.83099000 -0.28657800 0.88913602 0.35680699 1.905766e-42
29.21460000 20.42700000 421.11499000 -0.23833400 0.89427602 0.37877199 1.905766e-42
27.72150000 20.36490100 420.11099000 -0.17492300 0.88959402 0.42192999 1.905766e-42
25.92380000 20.31580000 420.03500000 -0.11114400 0.88888103 0.44445199 1.905766e-42
24.28370100 20.42770000 419.30099000 -0.05412760 0.87467903 0.48167101 1.905766e-42
22.63100100 20.60100000 418.60999000 -0.00018653 0.85972500 0.51075798 1.905766e-42
20.86350100 20.79540100 418.32999000 0.06633510 0.84832501 0.52530402 1.905766e-42
19.08600000 21.07539900 418.37601000 0.12826900 0.83850098 0.52958798 1.905766e-42
17.31559900 21.39970000 418.39600000 0.18452300 0.82615000 0.53237802 1.905766e-42
15.56930000 21.83620100 418.39700000 0.23430499 0.81192899 0.53467000 1.905766e-42
13.84580000 22.35440100 418.36600000 0.28413701 0.79560000 0.53505802 1.905766e-42
12.28160000 22.76499900 419.15601000 0.33714101 0.79403198 0.50581503 1.905766e-42
10.60970000 23.43140000 419.18500000 0.38983199 0.77502698 0.49735600 1.905766e-42
8.95576950 24.14150000 419.19601000 0.44485199 0.75409299 0.48316699 1.905766e-42
7.46350000 24.84499900 419.91599000 0.51665503 0.73850900 0.43321100 1.905766e-42
6.02841000 25.62870000 420.66901000 0.58684301 0.71535403 0.37932000 1.905766e-42
4.79641010 26.29089900 421.80200000 0.63124800 0.70559400 0.32196799 1.905766e-42
3.34848000 27.19940000 422.36600000 0.67061001 0.67570800 0.30610701 1.905766e-42
2.15942000 28.11980100 423.35501000 0.71188599 0.64438099 0.27926999 1.905766e-42
1.02471010 29.06740000 424.38199000 0.77399802 0.58905602 0.23225100 1.905766e-42
-0.07641670 30.03310000 425.42801000 0.63464200 0.74840802 0.19265600 1.905766e-42
-1.12612000 31.13019900 426.39499000 0.84850103 0.50308901 0.16415501 1.905766e-42
-1.70328000 31.95100000 427.88901000 0.86999798 0.47779700 0.12171300 1.905766e-42
-2.48129010 33.02240000 429.10901000 0.90140700 0.42535299 0.08087540 1.905766e-42
-3.15721010 34.14640000 430.34201000 0.92116302 0.38778800 0.03284260 1.905766e-42
-3.23379990 34.88790100 431.98001000 0.90947902 0.41401201 -0.03797930 1.905766e-42
-3.92934990 36.15350000 433.05499000 0.88523602 0.45978400 -0.07039280 1.905766e-42
-4.47640990 37.34190000 434.29099000 0.86466199 0.47950101 -0.14979701 1.905766e-42
-4.56735990 38.35160100 435.77802000 0.84898198 0.46286300 -0.25492701 1.905766e-42
-4.71253010 39.38840100 437.24200000 0.83690000 0.42341599 -0.34686801 1.905766e-42
-4.31574010 40.26030000 438.76599000 0.83382100 0.35789901 -0.42029700 1.905766e-42
-3.46914010 40.65840100 440.30399000 0.84905100 0.29646701 -0.43728599 1.905766e-42
-3.31165000 41.80390200 441.68399000 0.86344600 0.21522599 -0.45622200 1.905766e-42
-2.47745990 42.30180000 443.19901000 0.86761498 0.16709800 -0.46831900 1.905766e-42
-1.80185000 43.10900100 444.65900000 0.86007100 0.11787900 -0.49636999 1.905766e-42
-0.99084502 43.81409800 446.10300000 0.84806502 0.09524940 -0.52126098 1.905766e-42
-0.37365100 44.88309900 447.41299000 0.82309800 0.05968300 -0.56475401 1.905766e-42
0.67045802 45.48180000 448.75201000 0.77300102 0.03375710 -0.63350701 1.905766e-42
1.56923000 46.37060200 450.03299000 0.73428100 0.01693740 -0.67863500 1.905766e-42
2.76577000 46.97919800 451.23199000 0.70045501 0.03440670 -0.71286702 1.905766e-42
3.70325990 47.82040000 452.51801000 0.65920699 0.04041100 -0.75087500 1.905766e-42
5.25808000 47.94689900 453.41599000 0.59271401 0.04171140 -0.80433202 1.905766e-42
6.82161000 47.99300000 454.30701000 0.51114798 0.03808180 -0.85864902 1.905766e-42
6.95890000 46.19910000 454.36200000 0.50760901 0.04995400 -0.86013800 1.905766e-42
6.55400990 44.48350100 453.99799000 0.54186600 0.06753960 -0.83774698 1.905766e-42
6.39013000 42.70090100 453.81000000 0.57158798 0.09134120 -0.81544101 1.905766e-42
6.38358020 40.92430100 453.51999000 0.61365998 0.12645300 -0.77937800 1.905766e-42
6.36745020 39.16379900 453.14600000 0.64571798 0.12411200 -0.75342202 1.905766e-42
6.35837980 37.42509800 452.67999000 0.68949199 0.10099100 -0.71721798 1.905766e-42
6.71103000 35.66199900 452.76401000 0.72191000 0.03451540 -0.69112498 1.905766e-42
6.68925000 33.86240000 452.79199000 0.77561301 -0.06418370 -0.62793702 1.905766e-42
6.44069000 32.09769800 452.53799000 0.85237497 -0.18539500 -0.48896399 1.905766e-42
5.88605020 30.46110000 452.03400000 0.92129600 -0.28252399 -0.26719800 1.905766e-42
5.07899000 28.85269900 451.99301000 0.89696300 -0.43688899 -0.06771780 1.905766e-42
4.03832010 27.38430000 451.96399000 0.81234503 -0.57335699 0.10657500 1.905766e-42
2.80273010 26.07539900 451.96799000 0.74241501 -0.66424102 0.08720300 1.905766e-42
1.45260000 24.88520100 451.99500000 0.70296800 -0.70364398 -0.10354000 1.905766e-42
0.15320399 23.77160100 451.43701000 0.63514102 -0.77206802 -0.02249410 1.905766e-42
-1.15678000 22.71750100 450.79501000 0.56104398 -0.82759303 0.01786910 1.905766e-42
-2.31504990 21.60640000 449.98001000 0.48922601 -0.81849498 0.30120400 1.905766e-42
-3.54018000 20.54690000 449.19501000 0.44462499 -0.76466697 0.46646899 1.905766e-42
-5.06452990 19.64749900 448.86700000 0.47743100 -0.74890703 0.45956299 1.905766e-42
-6.42146020 18.67840000 448.18900000 0.50178301 -0.70122898 0.50645000 1.905766e-42
