# .PCD v0.7 - Point Cloud Data file format
# 3 63 1
# 1 20 0
# 21 42 0
# 43 63 1
VERSION 0.7
FIELDS x y z normal_x normal_y normal_z curvature
SIZE 4 4 4 4 4 4 4
TYPE F F F F F F F
COUNT 1 1 1 1 1 1 1
WIDTH 63
HEIGHT 1
VIEWPOINT 0 0 0 1 0 0 0
POINTS 63
DATA ascii
-35.22020000 -0.54435700 313.06699000 0.01330090 0.49918401 0.86639398 1.905766e-42
-33.42910000 -0.72326797 313.06500000 0.03722920 0.49140099 0.87013698 1.905766e-42
-31.63050100 -0.78141898 313.02301000 0.06379690 0.48622000 0.87150502 1.905766e-42
-29.85880100 -1.08929000 312.94400000 0.08476500 0.48110801 0.87255400 1.905766e-42
-28.08060100 -0.86707199 312.77499000 0.09501980 0.47969401 0.87227601 1.905766e-42
-26.30859900 -0.81738299 312.46201000 0.11189500 0.46930501 0.87591797 1.905766e-42
-24.52680000 -0.81416398 312.20700000 0.14180800 0.45828599 0.87741899 1.905766e-42
-22.93409900 -0.21254100 311.62299000 0.18156800 0.46766299 0.86505800 1.905766e-42
-21.21730000 -0.73064202 311.46799000 0.23478299 0.44845599 0.86241698 1.905766e-42
-19.47170100 -0.86776000 311.04999000 0.27852401 0.43689099 0.85530698 1.905766e-42
-17.79460000 -0.80053800 310.39999000 0.28945601 0.44207600 0.84899002 1.905766e-42
-16.12080000 -1.39722000 310.11301000 0.28124401 0.44242400 0.85156500 1.905766e-42
-14.40370000 -1.43142000 309.57401000 0.28242600 0.44779700 0.84835899 1.905766e-42
-12.78080000 -1.65036000 309.09601000 0.30049300 0.44826400 0.84188098 1.905766e-42
-11.09050000 -1.59853990 308.48001000 0.32364300 0.45082501 0.83187300 1.905766e-42
-9.41491990 -1.59376000 307.82199000 0.34028000 0.45464399 0.82310897 1.905766e-42
-7.76048990 -1.50039010 307.11899000 0.34512201 0.46495000 0.81529897 1.905766e-42
-6.11357020 -1.50928000 306.39301000 0.35091299 0.46883899 0.81058699 1.905766e-42
-4.45760010 -1.57652000 305.69000000 0.36938599 0.46849900 0.80253500 1.905766e-42
-2.84085990 -1.55034010 304.89899000 0.40248701 0.46909299 0.78610200 1.905766e-42
-1.23344000 -1.94681000 304.19299000 0.42886099 0.46469101 0.77468699 1.905766e-42
-0.90244299 -0.48909301 303.19000000 0.42978999 0.47025901 0.77080297 1.905766e-42
-1.89953990 0.97228098 302.85800000 0.41747999 0.48302901 0.76967102 1.905766e-42
-2.15740990 2.51588990 301.96899000 0.40587699 0.50139898 0.76410902 1.905766e-42
-3.10290000 4.00229980 301.59900000 0.38199300 0.52019602 0.76385701 1.905766e-42
-4.07661010 5.41403010 301.05301000 0.37110701 0.53592098 0.75833201 1.905766e-42
-4.78089000 6.80827000 300.15799000 0.37062800 0.55062997 0.74795800 1.905766e-42
-6.20003990 7.91350980 300.22501000 0.36856601 0.55042303 0.74912798 1.905766e-42
-7.01381020 9.34891990 299.50500000 0.36572799 0.55116600 0.74997300 1.905766e-42
-8.26550960 10.62380000 299.28601000 0.35304499 0.55370402 0.75416899 1.905766e-42
-9.46825980 11.90290000 298.89001000 0.34196401 0.56061101 0.75417203 1.905766e-42
-10.74690000 13.10900000 298.50201000 0.33623701 0.56810498 0.75113302 1.905766e-42
-11.92380000 14.39460000 298.05200000 0.32510501 0.58698398 0.74145597 1.905766e-42
-12.65060000 15.81180000 297.21399000 0.30717099 0.61181003 0.72892600 1.905766e-42
-14.04780000 16.89119900 296.86401000 0.28006101 0.63344902 0.72132403 1.905766e-42
-14.99570000 18.18460100 296.04599000 0.25269800 0.65488899 0.71222502 1.905766e-42
-16.12970000 19.36330000 295.29401000 0.22124600 0.67667198 0.70225698 1.905766e-42
-17.26740100 20.51429900 294.50601000 0.18937799 0.69877100 0.68982297 1.905766e-42
-18.38890100 21.62330100 293.63901000 0.16889800 0.71308202 0.68043101 1.905766e-42
-19.46530000 22.72550000 292.70801000 0.14743701 0.73132199 0.66590500 1.905766e-42
-20.55530000 23.79550000 291.75601000 0.13477600 0.74579698 0.65239799 1.905766e-42
-21.39830000 24.84020000 290.55701000 0.13541199 0.75331199 0.64357197 1.905766e-42
-23.00460100 25.57690000 290.21500000 0.13685000 0.75919998 0.63630801 1.905766e-42
-24.49650000 25.03089900 291.06100000 0.11990100 0.74396902 0.65736800 1.905766e-42
-25.28000100 24.01590000 292.32401000 0.09973260 0.73434699 0.67140698 1.905766e-42
-26.06060000 22.92030000 293.51999000 0.08901700 0.72855300 0.67918098 1.905766e-42
-26.39049900 21.81570100 294.90302000 0.08384900 0.72227800 0.68650103 1.905766e-42
-27.16650000 20.70369900 296.08600000 0.07320950 0.71386898 0.69644201 1.905766e-42
-27.77730000 19.56300000 297.33801000 0.06211760 0.70344901 0.70802599 1.905766e-42
-28.33560000 18.37610100 298.57001000 0.05554940 0.69127297 0.72045499 1.905766e-42
-29.32670000 17.20310000 299.50900000 0.04417590 0.68164402 0.73034900 1.905766e-42
-29.65980000 16.01070000 300.81601000 0.04587870 0.66450900 0.74587101 1.905766e-42
-30.28270000 14.73310000 301.92001000 0.04251350 0.64823997 0.76024801 1.905766e-42
-30.95089900 13.44880000 302.98999000 0.03687400 0.63507098 0.77157301 1.905766e-42
-31.71610100 12.11290000 303.92300000 0.02654530 0.62907898 0.77688801 1.905766e-42
-31.94290000 10.83880000 305.17401000 0.02748000 0.61984998 0.78423899 1.905766e-42
-32.59759900 9.47062020 306.14301000 0.01540760 0.60365301 0.79709798 1.905766e-42
-32.82270100 8.12047960 307.31201000 0.01618820 0.58387601 0.81168097 1.905766e-42
-33.45629900 6.73695990 308.27301000 0.00835112 0.57377899 0.81896800 1.905766e-42
-34.18629800 5.28422020 309.04599000 -0.00336044 0.56746799 0.82338899 1.905766e-42
-34.34540200 3.89376000 310.17801000 -0.00109127 0.55554098 0.83148801 1.905766e-42
-34.73730100 2.45145010 311.18100000 -0.00065195 0.53972000 0.84184402 1.905766e-42
-35.19670100 0.96805900 312.09100000 0.00337465 0.52064598 0.85376602 1.905766e-42
