# .PCD v0.7 - Point Cloud Data file format
# 4 156 -3
# 1 38 1
# 39 61 0
# 62 101 0
# 102 156 0
VERSION 0.7
FIELDS x y z normal_x normal_y normal_z curvature
SIZE 4 4 4 4 4 4 4
TYPE F F F F F F F
COUNT 1 1 1 1 1 1 1
WIDTH 156
HEIGHT 1
VIEWPOINT 0 0 0 1 0 0 0
POINTS 156
DATA ascii
18.34690100 -27.22769900 489.63699000 0.07405480 0.59504300 -0.80027503 1.905766e-42
17.36689900 -26.44750000 489.91800000 0.07559630 0.60325599 -0.79395700 1.905766e-42
15.56840000 -26.38640000 489.87500000 0.07496760 0.60031801 -0.79623997 1.905766e-42
13.77280000 -26.26140000 489.87201000 0.07560700 0.59852499 -0.79752898 1.905766e-42
12.11440000 -25.60010000 490.10101000 0.07939540 0.60568601 -0.79173303 1.905766e-42
10.31560000 -25.57340000 490.04300000 0.08651530 0.60374600 -0.79246801 1.905766e-42
8.78765960 -24.67359900 490.35300000 0.10049700 0.61317199 -0.78353000 1.905766e-42
7.01448010 -24.36750000 490.39899000 0.11389300 0.61078900 -0.78355902 1.905766e-42
5.22760010 -24.15060000 490.39899000 0.11488300 0.59843999 -0.79288799 1.905766e-42
3.45552990 -23.84160000 490.46399000 0.11522400 0.58923900 -0.79970002 1.905766e-42
1.80871000 -23.14209900 490.66101000 0.11834400 0.58742303 -0.80058002 1.905766e-42
0.16905101 -22.43770000 490.89600000 0.12100900 0.58565199 -0.80147898 1.905766e-42
-1.62988000 -22.40110000 490.84601000 0.11805200 0.57239699 -0.81143498 1.905766e-42
-3.21062990 -21.58040000 491.10599000 0.12388500 0.57081503 -0.81167901 1.905766e-42
-4.95352980 -21.15620000 491.25601000 0.12669501 0.56391197 -0.81605899 1.905766e-42
-6.13522010 -19.84590000 491.61200000 0.13685800 0.57023799 -0.80999899 1.905766e-42
-7.72482010 -19.04030000 491.86499000 0.14395800 0.56897199 -0.80965900 1.905766e-42
-9.41189960 -18.42700000 491.99799000 0.15126900 0.56530601 -0.81089300 1.905766e-42
-11.18340000 -18.10810100 492.01099000 0.15994200 0.55851799 -0.81392699 1.905766e-42
-12.88960000 -17.56130000 492.18301000 0.17087100 0.55563599 -0.81367803 1.905766e-42
-14.52860000 -16.85409900 492.41501000 0.18174499 0.55535501 -0.81151098 1.905766e-42
-16.06870100 -15.95150000 492.64600000 0.19190501 0.55714899 -0.80793399 1.905766e-42
-17.35450000 -14.73440000 492.97000000 0.20082800 0.56190997 -0.80244899 1.905766e-42
-18.63850000 -13.53350000 493.35699000 0.20841700 0.56618297 -0.79749501 1.905766e-42
-20.27500000 -12.80060000 493.51300000 0.21608099 0.56529301 -0.79608601 1.905766e-42
-21.85790100 -11.97730000 493.75201000 0.22563900 0.56366700 -0.79458499 1.905766e-42
-23.32210000 -10.96850000 494.03201000 0.23483001 0.56309003 -0.79232800 1.905766e-42
-25.03030000 -10.42070000 494.17999000 0.24337500 0.56074899 -0.79140902 1.905766e-42
-26.51890000 -9.45215030 494.47299000 0.25119299 0.56026298 -0.78930801 1.905766e-42
-27.39800100 -7.93892000 494.89401000 0.25684801 0.56130302 -0.78674501 1.905766e-42
-28.79200000 -6.84107020 495.19601000 0.26313800 0.55967498 -0.78582603 1.905766e-42
-30.49300000 -6.26510000 495.31799000 0.27047801 0.55600399 -0.78593999 1.905766e-42
-31.46110000 -4.81065990 495.75101000 0.27703899 0.55326599 -0.78558600 1.905766e-42
-32.92490000 -3.79408000 496.00400000 0.28452101 0.54939699 -0.78562802 1.905766e-42
-34.51319900 -2.98063990 496.23999000 0.29218599 0.54526299 -0.78569502 1.905766e-42
-35.81150100 -1.78628000 496.59698000 0.29964301 0.54089099 -0.78590798 1.905766e-42
-37.08530000 -0.55411899 496.91199000 0.30322400 0.53991002 -0.78520799 1.905766e-42
-38.20190000 0.80631101 497.29001000 0.30201000 0.54234898 -0.78399497 1.905766e-42
-38.97919800 2.32370000 497.86700000 0.29952300 0.54402101 -0.78378999 1.905766e-42
-38.32650000 3.69348000 498.83499000 0.29700500 0.54269201 -0.78566700 1.905766e-42
-38.14160200 5.05809020 499.99500000 0.29440400 0.54082400 -0.78793103 1.905766e-42
-37.37649900 6.35541010 500.98001000 0.29263899 0.53733301 -0.79097098 1.905766e-42
-36.89569900 7.65219020 502.13199000 0.29081199 0.53288001 -0.79465002 1.905766e-42
-36.04660000 8.82590960 503.20099000 0.28977799 0.52714199 -0.79884303 1.905766e-42
-35.37329900 10.05220000 504.33301000 0.28870901 0.51996702 -0.80391598 1.905766e-42
-34.80670200 11.32730000 505.47000000 0.28761899 0.51088297 -0.81010699 1.905766e-42
-34.23590100 12.78700000 506.35599000 0.27836201 0.49508899 -0.82304400 1.905766e-42
-33.88090100 14.27310000 507.30701000 0.26062301 0.48040399 -0.83742899 1.905766e-42
-32.81720000 15.38050000 508.24600000 0.24523900 0.46278000 -0.85187602 1.905766e-42
-32.76800200 16.81329900 509.33499000 0.22878000 0.45242700 -0.86195701 1.905766e-42
-31.81410000 18.18300100 510.00800000 0.21386400 0.43788600 -0.87322301 1.905766e-42
-31.70190000 19.76140000 510.86700000 0.19987100 0.42843100 -0.88119203 1.905766e-42
-31.42040100 21.36170000 511.64099000 0.18708800 0.41836101 -0.88880402 1.905766e-42
-30.73640100 22.79060000 512.49500000 0.17472400 0.40671599 -0.89669001 1.905766e-42
-29.62050100 24.03150000 513.16998000 0.16190299 0.39348799 -0.90496099 1.905766e-42
-28.66120000 25.36580100 513.90399000 0.14930999 0.38062301 -0.91259700 1.905766e-42
-28.12410000 26.90690000 514.66400000 0.13801800 0.36896199 -0.91913998 1.905766e-42
-27.52730000 28.45120000 515.37000000 0.12699600 0.35782900 -0.92511100 1.905766e-42
-26.89410000 30.01600100 515.99500000 0.11617500 0.34781501 -0.93033803 1.905766e-42
-25.93810100 31.40029900 516.63501000 0.10419500 0.33874500 -0.93509102 1.905766e-42
-25.68800000 33.07420000 517.24799000 0.09733270 0.33529299 -0.93707299 1.905766e-42
-25.68300100 34.75859800 517.88300000 0.09468720 0.33693099 -0.93675601 1.905766e-42
-24.30870100 35.73370000 518.51501000 0.08666100 0.33681601 -0.93757403 1.905766e-42
-22.54050100 36.00880100 518.71002000 0.07783660 0.33450300 -0.93917501 1.905766e-42
-20.74480100 36.13159900 518.72803000 0.06936550 0.33123100 -0.94099599 1.905766e-42
-19.15040000 36.89970000 519.05603000 0.06021600 0.32925600 -0.94231898 1.905766e-42
-17.37360000 37.15020000 519.19897000 0.05204250 0.32523599 -0.94419998 1.905766e-42
-15.61150000 36.78920000 519.26599000 0.04668330 0.31949499 -0.94643700 1.905766e-42
-13.81390000 36.75799900 519.35303000 0.04161940 0.31366801 -0.94862002 1.905766e-42
-12.01710000 36.79190100 519.45599000 0.04313940 0.31244901 -0.94895500 1.905766e-42
-10.21840000 36.79600100 519.52399000 0.04895770 0.31249800 -0.94865602 1.905766e-42
-8.44328020 37.00540200 519.73602000 0.05290100 0.31595799 -0.94729698 1.905766e-42
-6.86695000 37.78530100 520.11902000 0.05623120 0.32249099 -0.94490099 1.905766e-42
-5.12593980 38.16540100 520.37299000 0.05856150 0.32784799 -0.94291401 1.905766e-42
-3.61571000 39.03080000 520.83099000 0.06177350 0.33469799 -0.94029897 1.905766e-42
-1.83310000 39.26660200 520.91400000 0.06378990 0.33890599 -0.93865502 1.905766e-42
-0.11204900 39.71720100 521.18701000 0.06645730 0.34385201 -0.93666899 1.905766e-42
1.33302000 40.70880100 521.59802000 0.06728140 0.34828401 -0.93497097 1.905766e-42
3.11737990 40.76900100 521.82703000 0.06695890 0.34811699 -0.93505698 1.905766e-42
4.51785990 41.77949900 522.33398000 0.06591240 0.35144100 -0.93388700 1.905766e-42
6.08936020 42.54990000 522.75500000 0.06417470 0.35415101 -0.93298399 1.905766e-42
7.63771010 43.35800200 523.19000000 0.06137370 0.35754001 -0.93187898 1.905766e-42
9.26216980 43.96970000 523.66699000 0.05700020 0.36075699 -0.93091601 1.905766e-42
10.63970000 44.82149900 524.45203000 0.05175460 0.36655101 -0.92895699 1.905766e-42
12.25290000 45.57469900 524.71698000 0.04030960 0.36706799 -0.92931998 1.905766e-42
13.82130000 46.45320100 524.62500000 0.02742600 0.36524400 -0.93050802 1.905766e-42
15.37110000 47.16210200 525.20398000 0.01532850 0.36331201 -0.93154198 1.905766e-42
17.12999900 47.08380100 524.83002000 0.01038640 0.35602301 -0.93441898 1.905766e-42
18.91630000 47.24039800 524.98602000 0.00861710 0.34739599 -0.93767899 1.905766e-42
20.45170000 48.02959800 525.49597000 0.00446888 0.34214601 -0.93963599 1.905766e-42
22.22590100 48.31359900 525.60303000 0.00481027 0.33395201 -0.94257802 1.905766e-42
24.00830100 48.56230200 525.63599000 0.00562105 0.32601100 -0.94534898 1.905766e-42
25.77820000 48.76530100 525.89301000 0.00647339 0.31971300 -0.94749200 1.905766e-42
27.55330100 48.66140000 525.61401000 0.00868808 0.31338099 -0.94958800 1.905766e-42
29.34580000 48.79600100 525.70801000 0.00887106 0.30876300 -0.95109802 1.905766e-42
31.14539900 48.83240100 525.71503000 0.00856716 0.30434200 -0.95252401 1.905766e-42
32.94269900 48.92139800 525.75800000 0.00508026 0.30336800 -0.95286000 1.905766e-42
34.57099900 49.59709900 526.12097000 0.00221846 0.30354899 -0.95281303 1.905766e-42
36.36539800 49.58700200 525.97998000 0.00083654 0.30230600 -0.95321000 1.905766e-42
38.16529800 49.57210200 525.98499000 0.00082528 0.30079001 -0.95368999 1.905766e-42
39.96440100 49.51319900 525.98798000 0.00219543 0.29893100 -0.95427197 1.905766e-42
41.74929800 49.31039800 525.87500000 0.00505727 0.29681101 -0.95492297 1.905766e-42
42.97829800 48.04370100 525.52100000 0.00928072 0.29607800 -0.95511901 1.905766e-42
42.90670000 46.32260100 524.99902000 0.01037280 0.29915801 -0.95414698 1.905766e-42
42.32609900 44.71500000 524.43500000 0.00886906 0.30431500 -0.95253003 1.905766e-42
42.06110000 43.00510000 523.93799000 0.00728902 0.31075701 -0.95046097 1.905766e-42
41.58820000 41.36299900 523.37299000 0.00534266 0.31756401 -0.94822198 1.905766e-42
41.87350100 39.68660000 522.78302000 0.00397250 0.32576799 -0.94544101 1.905766e-42
42.36320100 38.02999900 522.27698000 0.00285558 0.33438399 -0.94243300 1.905766e-42
42.39530200 36.36669900 521.59003000 0.00116415 0.34321401 -0.93925703 1.905766e-42
42.54850000 34.67480100 520.99500000 -0.00037918 0.35231000 -0.93588299 1.905766e-42
43.17290100 33.06940100 520.47198000 -0.00134312 0.36134401 -0.93243200 1.905766e-42
43.43240000 31.42300000 519.79199000 0.00287174 0.36401501 -0.93138897 1.905766e-42
44.13259900 29.86310000 519.22998000 0.00925716 0.36333001 -0.93161398 1.905766e-42
44.73849900 28.27680000 518.63300000 0.01477160 0.36130199 -0.93233198 1.905766e-42
44.53559900 26.60290000 518.00299000 0.01522840 0.35848200 -0.93341202 1.905766e-42
43.78170000 25.14430000 517.26501000 0.01267640 0.35525599 -0.93468302 1.905766e-42
43.35030000 23.49950000 516.67499000 0.01213250 0.35045999 -0.93649900 1.905766e-42
42.94360000 21.82799900 516.14502000 0.01166560 0.34487000 -0.93857801 1.905766e-42
42.17879900 20.33160000 515.50000000 0.00972236 0.33940601 -0.94059002 1.905766e-42
41.39410000 18.82070000 514.91602000 0.00785168 0.33360600 -0.94268000 1.905766e-42
41.09780100 17.12789900 514.38000000 0.00965123 0.32954100 -0.94409198 1.905766e-42
40.58570100 15.49120000 513.83398000 0.01108690 0.32728499 -0.94486099 1.905766e-42
39.90959900 13.93850000 513.22400000 0.01152830 0.32645401 -0.94514298 1.905766e-42
39.52640200 12.26440000 512.68500000 0.01199220 0.32661000 -0.94508302 1.905766e-42
38.68270100 10.76550000 512.15399000 0.01071550 0.32813400 -0.94457102 1.905766e-42
38.06679900 9.16364000 511.61099000 0.00931398 0.33080199 -0.94365400 1.905766e-42
37.68460100 7.47419020 511.12201000 0.00777806 0.33501801 -0.94217998 1.905766e-42
36.57410000 6.19432020 510.51401000 0.00723449 0.34174600 -0.93976498 1.905766e-42
36.62310000 4.46657990 510.01199000 0.00913261 0.35208300 -0.93592399 1.905766e-42
35.85549900 3.00662990 509.29099000 0.01004850 0.36282399 -0.93180299 1.905766e-42
34.74980200 1.70323000 508.72699000 0.01045510 0.37259600 -0.92793500 1.905766e-42
34.86220200 0.03019760 508.07199000 0.01074960 0.38490301 -0.92289400 1.905766e-42
34.33160000 -1.54216000 507.37500000 0.01053980 0.39707801 -0.91772401 1.905766e-42
34.18870200 -3.19096990 506.66699000 0.01001280 0.40998700 -0.91203600 1.905766e-42
33.89709900 -4.78351020 505.88101000 0.00914355 0.42271599 -0.90621603 1.905766e-42
33.42559800 -6.35845990 505.14801000 0.01217190 0.43918699 -0.89831299 1.905766e-42
33.39090000 -7.96623990 504.33899000 0.01580440 0.46044201 -0.88754898 1.905766e-42
33.13110000 -9.58051010 503.58600000 0.01890650 0.48415300 -0.87477899 1.905766e-42
32.49039800 -11.01370000 502.70599000 0.02119820 0.50834501 -0.86089301 1.905766e-42
31.70599900 -12.37930000 501.83401000 0.02291450 0.53224701 -0.84627903 1.905766e-42
31.40930000 -13.86370000 500.85999000 0.02445480 0.55792397 -0.82953101 1.905766e-42
32.58050200 -14.98500000 500.07800000 0.02623660 0.57626599 -0.81684101 1.905766e-42
33.79700100 -16.07720000 499.32501000 0.02916600 0.59347302 -0.80432498 1.905766e-42
34.45430000 -17.43070000 498.33701000 0.03161390 0.61470902 -0.78812099 1.905766e-42
32.96889900 -18.19899900 497.67200000 0.02917300 0.62709999 -0.77839202 1.905766e-42
31.86090100 -19.27700000 496.74899000 0.02536610 0.63914198 -0.76867002 1.905766e-42
30.65029900 -20.33700000 495.94299000 0.02210540 0.64578903 -0.76319599 1.905766e-42
28.86360000 -20.41650000 495.73999000 0.02545290 0.64481598 -0.76391399 1.905766e-42
27.41900100 -21.23480000 495.04401000 0.03125900 0.64824098 -0.76079297 1.905766e-42
26.34650000 -22.42390100 494.22198000 0.03862290 0.65055698 -0.75847399 1.905766e-42
25.07010100 -23.15150100 493.18201000 0.05095970 0.65032297 -0.75794601 1.905766e-42
23.85969900 -24.08470000 492.23199000 0.06647870 0.64755601 -0.75911301 1.905766e-42
22.87159900 -25.24869900 491.27802000 0.07159390 0.63268000 -0.77109700 1.905766e-42
21.74390000 -26.30190100 490.35101000 0.07321800 0.61509800 -0.78504401 1.905766e-42
20.02450000 -26.65850100 489.95599000 0.07514840 0.60612601 -0.79181099 1.905766e-42
