# .PCD v0.7 - Point Cloud Data file format
# 2 130 0
# 1 69 0
# 70 130 0
VERSION 0.7
FIELDS x y z normal_x normal_y normal_z curvature
SIZE 4 4 4 4 4 4 4
TYPE F F F F F F F
COUNT 1 1 1 1 1 1 1
WIDTH 130
HEIGHT 1
VIEWPOINT 0 0 0 1 0 0 0
POINTS 130
DATA ascii
-31.22340000 17.59240000 447.83200000 0.46718100 0.62628198 -0.62410998 1.905766e-42
-33.51509900 18.15519900 447.76501000 0.46678999 0.63683403 -0.61363500 1.905766e-42
-32.00500100 18.69409900 448.58301000 0.45693800 0.64884001 -0.60845298 1.905766e-42
-32.18790100 19.65870100 450.09201000 0.37071100 0.79721200 -0.47647199 1.905766e-42
-32.48600000 20.38750100 451.70999000 0.22661400 0.88068497 -0.41598201 1.905766e-42
-32.05989800 21.17110100 453.27399000 0.14109400 0.88783002 -0.43800700 1.905766e-42
-31.78459900 21.98790000 454.85400000 0.07264110 0.88551497 -0.45889601 1.905766e-42
-31.48810000 22.86560100 456.39700000 0.02973110 0.87742102 -0.47880000 1.905766e-42
-30.65959900 23.61650100 457.80801000 0.02394140 0.86532998 -0.50063097 1.905766e-42
-29.46310000 24.35030000 458.93500000 0.04175440 0.85346699 -0.51947200 1.905766e-42
-28.34440000 25.05810000 460.15399000 0.05958390 0.85506898 -0.51507902 1.905766e-42
-26.79719900 25.52400000 460.94800000 0.09110760 0.86133403 -0.49980301 1.905766e-42
-25.18590000 25.85129900 461.67999000 0.12643200 0.86322200 -0.48873499 1.905766e-42
-23.58280000 25.88290000 462.49799000 0.16863000 0.85610503 -0.48851600 1.905766e-42
-22.08880000 26.06530000 463.48499000 0.20335700 0.85235298 -0.48180899 1.905766e-42
-20.95970000 26.40730100 464.84500000 0.19199599 0.87911397 -0.43623000 1.905766e-42
-19.37719900 26.47220000 465.70001000 0.19950999 0.87909502 -0.43288401 1.905766e-42
-17.60840000 26.53459900 466.02802000 0.23156901 0.85003197 -0.47309801 1.905766e-42
-16.06830000 26.55110000 466.95901000 0.23369700 0.86042202 -0.45283499 1.905766e-42
-14.71120000 26.63699900 468.13901000 0.21548501 0.89578801 -0.38875499 1.905766e-42
-13.11830000 26.62890100 468.97699000 0.21819600 0.90140098 -0.37398899 1.905766e-42
-11.50030000 26.58659900 469.76401000 0.22325499 0.90052301 -0.37311700 1.905766e-42
-9.90808010 26.54970000 470.60300000 0.22287001 0.90184802 -0.37013400 1.905766e-42
-8.28855040 26.47100100 471.38501000 0.22275899 0.89959598 -0.37564000 1.905766e-42
-6.63555000 26.37529900 472.09100000 0.22283299 0.89617598 -0.38368401 1.905766e-42
-5.11456010 26.26849900 473.04700000 0.20952600 0.91214198 -0.35227200 1.905766e-42
-3.32926010 26.04010000 473.02399000 0.24436501 0.86084902 -0.44634601 1.905766e-42
-1.71559000 26.01689900 473.82101000 0.23502800 0.87691998 -0.41925299 1.905766e-42
-0.08414350 25.93300100 474.57700000 0.22963300 0.88698202 -0.40066499 1.905766e-42
1.54659000 25.83490000 475.33301000 0.22467400 0.89631301 -0.38228801 1.905766e-42
3.12488010 25.75750000 476.19501000 0.21403500 0.91181397 -0.35040599 1.905766e-42
4.80810020 25.58630000 476.80899000 0.21245800 0.91237998 -0.34989101 1.905766e-42
6.41335010 25.43689900 477.60999000 0.20463200 0.92445701 -0.32172301 1.905766e-42
8.19147010 25.21069900 477.77399000 0.21607500 0.90662599 -0.36241001 1.905766e-42
9.83067040 25.04120100 478.49799000 0.21048900 0.91931599 -0.33249399 1.905766e-42
11.47450000 24.84499900 479.20499000 0.20607100 0.93132699 -0.30027401 1.905766e-42
13.25230000 24.57819900 479.29501000 0.21451899 0.91668600 -0.33714601 1.905766e-42
15.00010000 24.25370000 479.57800000 0.21763600 0.91025400 -0.35223901 1.905766e-42
16.32850100 24.17400000 480.79001000 0.20257200 0.95106900 -0.23330601 1.905766e-42
18.10829900 23.90530000 480.79999000 0.21008000 0.93972498 -0.26978299 1.905766e-42
19.87319900 23.56220100 480.88599000 0.21598800 0.92874599 -0.30129799 1.905766e-42
21.52360000 23.38110000 481.58099000 0.21093801 0.94631702 -0.24492800 1.905766e-42
23.28019900 22.98910000 481.60699000 0.21593900 0.93528801 -0.28036901 1.905766e-42
25.04150000 22.64250000 481.74100000 0.21762700 0.92923701 -0.29859301 1.905766e-42
26.69870000 22.38830000 482.39499000 0.21271800 0.94748998 -0.23877500 1.905766e-42
28.46330100 22.03290000 482.40601000 0.21287601 0.94073099 -0.26402500 1.905766e-42
30.22570000 21.66799900 482.42899000 0.21290401 0.93356198 -0.28832799 1.905766e-42
31.99670000 21.35350000 482.49899000 0.21292000 0.92863798 -0.30380499 1.905766e-42
33.62279900 21.00720000 483.18799000 0.20991100 0.94873500 -0.23630500 1.905766e-42
35.35870000 20.53089900 483.18600000 0.21140800 0.94174403 -0.26158300 1.905766e-42
37.09170200 20.04550000 483.15701000 0.21230599 0.93269902 -0.29154700 1.905766e-42
38.68529900 19.71299900 482.38901000 0.20819899 0.87886399 -0.42924500 1.905766e-42
40.43170200 19.27700000 482.38699000 0.20331299 0.87329298 -0.44274601 1.905766e-42
42.17969900 18.85000000 482.34100000 0.19901501 0.86588198 -0.45895800 1.905766e-42
43.91640100 18.39100100 482.22699000 0.19569600 0.85317898 -0.48351699 1.905766e-42
45.66880000 18.00260000 482.36301000 0.19649100 0.85797697 -0.47462201 1.905766e-42
47.40029900 17.52360000 482.25201000 0.19530199 0.84695899 -0.49448800 1.905766e-42
49.13330100 17.05620000 482.38800000 0.19721100 0.85165000 -0.48559201 1.905766e-42
50.85720100 16.53850000 482.37601000 0.19717801 0.85187900 -0.48520499 1.905766e-42
52.58789800 16.04420100 482.35999000 0.19690700 0.85457999 -0.48054299 1.905766e-42
54.14950200 15.60480000 481.57999000 0.18021999 0.83597499 -0.51833099 1.905766e-42
55.87279900 15.08500000 481.58600000 0.17708699 0.84998798 -0.49614599 1.905766e-42
57.57440200 14.50000000 481.53799000 0.17341600 0.85999000 -0.47994199 1.905766e-42
59.12490100 14.01710000 480.76199000 0.16411600 0.83167601 -0.53045303 1.905766e-42
60.84520000 13.48990000 480.71201000 0.16661701 0.83233601 -0.52863598 1.905766e-42
62.36460100 12.87280000 479.97000000 0.15613700 0.81177402 -0.56271100 1.905766e-42
64.10669700 12.42140000 479.93399000 0.15535600 0.82345903 -0.54569203 1.905766e-42
65.61830100 11.79200000 479.18600000 0.13609600 0.81711501 -0.56017900 1.905766e-42
67.22180200 11.16660000 478.65900000 0.11506700 0.82131898 -0.55874401 1.905766e-42
68.60399600 10.38280000 477.81400000 0.07489420 0.81730902 -0.57131100 1.905766e-42
67.56469700 9.55268960 476.60101000 0.04254450 0.74510300 -0.66559100 1.905766e-42
66.00530200 9.01733020 475.87900000 0.03790400 0.69283497 -0.72009897 1.905766e-42
64.41510000 8.43126960 475.27200000 0.03975230 0.66264701 -0.74787599 1.905766e-42
62.78329800 7.92045020 474.70999000 0.04373150 0.65907300 -0.75080699 1.905766e-42
61.05160100 7.56466010 474.37100000 0.05087990 0.65928000 -0.75017399 1.905766e-42
59.25690100 7.58359000 474.23499000 0.05994060 0.65846503 -0.75022101 1.905766e-42
57.54869800 7.19547990 473.82101000 0.06981090 0.66473502 -0.74381000 1.905766e-42
55.95430000 6.62888000 473.20700000 0.08194580 0.67549998 -0.73279202 1.905766e-42
54.28630100 6.36519000 472.58401000 0.09604590 0.68444502 -0.72271001 1.905766e-42
52.67729900 5.85301020 471.95999000 0.10830000 0.69136298 -0.71434402 1.905766e-42
51.30799900 5.12006000 471.05099000 0.12234300 0.69054401 -0.71286798 1.905766e-42
49.67559800 4.79550980 470.36499000 0.13404900 0.69445598 -0.70693803 1.905766e-42
48.16059900 4.22485020 469.57800000 0.14578100 0.69734800 -0.70174998 1.905766e-42
46.42350000 4.69110010 469.50699000 0.15027501 0.70467800 -0.69343102 1.905766e-42
44.64049900 4.79084010 469.28201000 0.15686899 0.70972103 -0.68679601 1.905766e-42
42.91199900 4.75061990 468.78101000 0.16416600 0.71241599 -0.68228501 1.905766e-42
41.13079800 4.85427000 468.54300000 0.17132699 0.71534503 -0.67744303 1.905766e-42
39.38000100 5.27182010 468.56201000 0.17695899 0.72056401 -0.67042798 1.905766e-42
37.69789900 5.05422020 467.95901000 0.18519600 0.71942103 -0.66943002 1.905766e-42
35.97940100 5.57954980 467.85599000 0.19076000 0.72484398 -0.66197598 1.905766e-42
34.35760100 5.34099010 467.11200000 0.19865200 0.71954298 -0.66542900 1.905766e-42
32.59140000 5.58862020 466.86899000 0.20514400 0.72081000 -0.66207898 1.905766e-42
30.87599900 5.51725010 466.32901000 0.21198700 0.71494102 -0.66627401 1.905766e-42
29.14130000 5.61847020 465.85901000 0.21735600 0.70991802 -0.66990501 1.905766e-42
27.38750100 5.90562010 465.57300000 0.22198500 0.70915800 -0.66919100 1.905766e-42
25.65570100 6.38572980 465.47198000 0.22622800 0.71494299 -0.66157198 1.905766e-42
24.05340000 6.27214000 464.65900000 0.23077901 0.69945401 -0.67639101 1.905766e-42
22.32480000 6.37021020 464.16699000 0.23519699 0.69203401 -0.68247402 1.905766e-42
20.65029900 6.35206990 463.50699000 0.23922800 0.67978400 -0.69329900 1.905766e-42
18.88610100 6.70890000 463.51599000 0.24385700 0.68398398 -0.68753201 1.905766e-42
17.45660000 7.71057990 463.95599000 0.24731600 0.71340901 -0.65565401 1.905766e-42
15.85290000 7.54683020 463.15500000 0.25333399 0.69062501 -0.67739099 1.905766e-42
14.13910000 8.07044980 462.98499000 0.25962800 0.69854701 -0.66680199 1.905766e-42
12.50600000 8.80352970 463.17300000 0.26326901 0.72628701 -0.63497800 1.905766e-42
10.83380000 8.85533050 462.50900000 0.27054599 0.70992899 -0.65023500 1.905766e-42
9.09189030 9.27546980 462.33801000 0.27545401 0.72061801 -0.63626701 1.905766e-42
7.38205000 9.81945040 462.19501000 0.27936801 0.73833603 -0.61385101 1.905766e-42
5.73750020 10.54510000 462.28900000 0.28733701 0.73369497 -0.61573499 1.905766e-42
4.11564020 10.45070000 461.51401000 0.29173601 0.73324299 -0.61420298 1.905766e-42
2.41001010 10.61070000 460.96100000 0.29828799 0.72942197 -0.61560398 1.905766e-42
0.72152698 11.16680000 460.67899000 0.30651501 0.72247601 -0.61974001 1.905766e-42
-0.87005401 11.16660000 459.83801000 0.31230700 0.71732700 -0.62282199 1.905766e-42
-2.53414010 11.17290000 459.15201000 0.32020000 0.70199603 -0.63613999 1.905766e-42
-4.19667010 11.46690000 458.52802000 0.32731101 0.69656700 -0.63848299 1.905766e-42
-5.72762010 11.31450000 457.59299000 0.33535400 0.67974597 -0.65229100 1.905766e-42
-7.33833980 12.11730000 457.56100000 0.33980700 0.69388402 -0.63486701 1.905766e-42
-8.98103050 12.78820000 457.25900000 0.34549099 0.70283502 -0.62181801 1.905766e-42
-10.67540000 13.05550000 456.71399000 0.35544300 0.69744903 -0.62227398 1.905766e-42
-12.36060000 13.58760000 456.37100000 0.36627999 0.69358701 -0.62030298 1.905766e-42
-14.01580000 13.89660000 455.73499000 0.37689701 0.68712401 -0.62113500 1.905766e-42
-15.67280000 14.28250000 455.14700000 0.38833901 0.67847103 -0.62359399 1.905766e-42
-17.30299900 14.58450000 454.44699000 0.39952499 0.66692299 -0.62896198 1.905766e-42
-18.94580100 15.26720000 454.17200000 0.41427800 0.65306801 -0.63393599 1.905766e-42
-20.51560000 15.54300000 453.33600000 0.42433199 0.64490902 -0.63563699 1.905766e-42
-22.13299900 15.86210000 452.61301000 0.43098000 0.63414401 -0.64196301 1.905766e-42
-23.65850100 15.98210000 451.66501000 0.43667200 0.62704301 -0.64508498 1.905766e-42
-25.16390000 15.98890000 450.67801000 0.44277200 0.62241501 -0.64540797 1.905766e-42
-26.64850000 15.97970000 449.66101000 0.44929001 0.61832398 -0.64483601 1.905766e-42
-28.15430100 16.08120000 448.67999000 0.45631999 0.61352098 -0.64448702 1.905766e-42
-29.71990000 16.61210100 447.96799000 0.46407199 0.61185402 -0.64052498 1.905766e-42
