# .PCD v0.7 - Point Cloud Data file format
# 5 144 0
# 1 29 0
# 30 47 0
# 48 71 0
# 72 127 0
# 128 144 0
VERSION 0.7
FIELDS x y z normal_x normal_y normal_z curvature
SIZE 4 4 4 4 4 4 4
TYPE F F F F F F F
COUNT 1 1 1 1 1 1 1
WIDTH 144
HEIGHT 1
VIEWPOINT 0 0 0 1 0 0 0
POINTS 144
DATA ascii
44.96900200 23.83720000 506.49399000 0.10935600 -0.76545203 0.63413298 1.905766e-42
43.23379900 23.78960000 506.97101000 0.08759600 -0.75912797 0.64502102 1.905766e-42
41.45410200 24.04730000 507.04901000 0.06603660 -0.75196499 0.65588701 1.905766e-42
39.69660200 23.68849900 507.19901000 0.04666700 -0.74456000 0.66592199 1.905766e-42
37.89830000 23.76350000 507.21799000 0.02575560 -0.73693299 0.67547500 1.905766e-42
36.14020200 23.38180000 507.15799000 0.00746613 -0.73093802 0.68240303 1.905766e-42
34.35100200 23.22030100 507.04599000 -0.01252060 -0.72604698 0.68753099 1.905766e-42
32.64709900 23.71089900 507.35599000 -0.03492570 -0.71908402 0.69404501 1.905766e-42
32.00479900 24.00149900 507.25201000 -0.04267040 -0.71757698 0.69517100 1.905766e-42
30.21229900 23.86350100 507.16400000 -0.06263610 -0.71352100 0.69782799 1.905766e-42
28.64500000 23.19339900 506.58499000 -0.07734010 -0.71077800 0.69915199 1.905766e-42
26.85630000 23.26380000 506.39700000 -0.09697450 -0.70521301 0.70233202 1.905766e-42
25.33659900 24.04770100 506.95901000 -0.11761900 -0.69742799 0.70693702 1.905766e-42
23.63150000 24.61949900 506.88400000 -0.13839599 -0.68939400 0.71104300 1.905766e-42
21.91040000 24.37669900 506.41501000 -0.15552101 -0.68344599 0.71324199 1.905766e-42
20.29530000 23.93110100 505.75800000 -0.17338701 -0.67935598 0.71303099 1.905766e-42
18.53970000 24.01829900 505.37000000 -0.19530500 -0.67210603 0.71423298 1.905766e-42
16.77820000 24.23840000 505.07199000 -0.21774501 -0.66382402 0.71548897 1.905766e-42
15.07490000 24.75110100 504.79700000 -0.24042200 -0.65463501 0.71669400 1.905766e-42
13.29960000 24.77459900 504.50101000 -0.26092401 -0.64652997 0.71688098 1.905766e-42
11.62570000 25.42009900 504.35400000 -0.28220001 -0.63708103 0.71727997 1.905766e-42
9.89227960 25.76639900 504.01401000 -0.30104101 -0.63259602 0.71358001 1.905766e-42
8.24866960 26.49889900 503.96899000 -0.32263899 -0.62859100 0.70765603 1.905766e-42
6.62312980 27.27080000 504.01099000 -0.34610200 -0.62219697 0.70220000 1.905766e-42
4.97928000 27.91830100 503.66599000 -0.37059101 -0.61194998 0.69869798 1.905766e-42
3.41377000 28.80299900 503.58600000 -0.39557701 -0.60161901 0.69395500 1.905766e-42
1.82224000 29.49070000 503.10199000 -0.41959700 -0.58822697 0.69132298 1.905766e-42
0.19894101 30.04320000 502.55499000 -0.44204500 -0.57376802 0.68948299 1.905766e-42
-1.42573000 30.38450100 501.85901000 -0.46165901 -0.55905598 0.68871403 1.905766e-42
-3.00008010 30.47180000 500.99100000 -0.47743499 -0.54534101 0.68895501 1.905766e-42
-3.89933990 29.70010000 499.63599000 -0.48160100 -0.53774703 0.69201797 1.905766e-42
-4.76441000 28.80960100 498.33301000 -0.48563999 -0.53173101 0.69384098 1.905766e-42
-5.97713990 28.43070000 497.05801000 -0.49646401 -0.52304399 0.69278300 1.905766e-42
-6.95404010 27.69290000 495.73801000 -0.50402898 -0.51668799 0.69208997 1.905766e-42
-7.85276990 26.74850100 494.49701000 -0.51033199 -0.51093602 0.69173998 1.905766e-42
-8.88434030 26.05550000 493.19501000 -0.51994097 -0.50281399 0.69053501 1.905766e-42
-10.02790000 25.48329900 491.92801000 -0.53166699 -0.49246299 0.68906498 1.905766e-42
-10.86440000 24.53840100 490.64401000 -0.53640801 -0.48266801 0.69231302 1.905766e-42
-12.12790000 24.22940100 489.39999000 -0.54761702 -0.47205600 0.69085300 1.905766e-42
-13.13090000 23.48609900 488.10300000 -0.55513799 -0.46445000 0.69000602 1.905766e-42
-14.15970000 22.77370100 486.81000000 -0.56399101 -0.45681500 0.68791997 1.905766e-42
-15.29720000 22.27039900 485.50900000 -0.57541698 -0.44853300 0.68389601 1.905766e-42
-16.61060000 22.11809900 484.28699000 -0.58959103 -0.43994400 0.67737103 1.905766e-42
-17.71750100 21.56959900 482.97800000 -0.60143298 -0.43197000 0.67207098 1.905766e-42
-18.96310000 21.33289900 481.70001000 -0.61206001 -0.42412901 0.66745502 1.905766e-42
-20.19010000 20.93420000 480.44501000 -0.61850798 -0.41658500 0.66626197 1.905766e-42
-21.35000000 20.79690000 479.07501000 -0.62580597 -0.40961501 0.66376400 1.905766e-42
-22.28410000 19.99340100 477.76300000 -0.63162601 -0.40112901 0.66343403 1.905766e-42
-21.77100000 18.35339900 477.22699000 -0.62752998 -0.39843601 0.66892099 1.905766e-42
-21.47820100 16.70910100 476.55600000 -0.62257701 -0.39890701 0.67325401 1.905766e-42
-21.76870000 15.33960000 475.42499000 -0.62273598 -0.39487600 0.67548001 1.905766e-42
-22.09269900 14.00170000 474.26501000 -0.62349498 -0.38924500 0.67804301 1.905766e-42
-22.01420000 12.37600000 473.49600000 -0.61884600 -0.38617301 0.68403202 1.905766e-42
-22.04180000 10.81280000 472.60400000 -0.61386102 -0.38849300 0.68720299 1.905766e-42
-22.42289900 9.46119020 471.47800000 -0.61369902 -0.38638401 0.68853498 1.905766e-42
-22.40740000 7.84919980 470.67700000 -0.60789198 -0.38691300 0.69337302 1.905766e-42
-22.47520100 6.29929020 469.76501000 -0.60339302 -0.38505900 0.69831699 1.905766e-42
-23.06629900 5.06718020 468.59299000 -0.60603100 -0.37772399 0.70003700 1.905766e-42
-23.14220000 3.51065990 467.69199000 -0.59946400 -0.37444201 0.70741498 1.905766e-42
-23.39800100 2.02568010 466.70801000 -0.59166300 -0.36770201 0.71744698 1.905766e-42
-23.68350000 0.53947198 465.73300000 -0.58411598 -0.35908201 0.72792101 1.905766e-42
-24.03130000 -0.92544103 464.74701000 -0.57721800 -0.34800699 0.73872203 1.905766e-42
-24.59590000 -2.25368000 463.67099000 -0.57303602 -0.33281100 0.74891001 1.905766e-42
-24.85940000 -3.78929000 462.76999000 -0.56591499 -0.31873399 0.76036102 1.905766e-42
-25.01199900 -5.41305020 462.00800000 -0.55760002 -0.30555299 0.77182901 1.905766e-42
-25.62170000 -6.72948980 460.94299000 -0.55543602 -0.28825700 0.77999902 1.905766e-42
-25.63990000 -8.47080990 460.48700000 -0.54530799 -0.27583399 0.79155201 1.905766e-42
-25.76800000 -10.13570000 459.81500000 -0.53609997 -0.26499301 0.80148298 1.905766e-42
-26.44969900 -11.54710000 458.92999000 -0.53207600 -0.25748000 0.80659699 1.905766e-42
-26.58350000 -13.22800000 458.29999000 -0.52019799 -0.25383601 0.81545198 1.905766e-42
-27.01450000 -14.78910000 457.51501000 -0.51090801 -0.24219000 0.82481301 1.905766e-42
-26.63419900 -16.51960000 457.19699000 -0.48845699 -0.23555300 0.84019297 1.905766e-42
-25.11680000 -17.23119900 457.85400000 -0.46321300 -0.26555699 0.84552503 1.905766e-42
-23.61179900 -16.95770100 458.80301000 -0.45043600 -0.28674099 0.84551001 1.905766e-42
-21.98910000 -17.27599900 459.51300000 -0.42700899 -0.31253201 0.84851998 1.905766e-42
-20.34230000 -17.59250100 460.16800000 -0.40242699 -0.33388799 0.85239100 1.905766e-42
-18.71789900 -17.64180000 460.94199000 -0.37855899 -0.35081699 0.85651600 1.905766e-42
-17.07040000 -17.62960100 461.66599000 -0.35198399 -0.36561000 0.86164802 1.905766e-42
-15.38700000 -17.66939900 462.30301000 -0.32087600 -0.37879500 0.86807400 1.905766e-42
-13.69200000 -17.66850100 462.90900000 -0.29635999 -0.39487800 0.86962199 1.905766e-42
-11.98230000 -17.68870000 463.47101000 -0.27240300 -0.41175801 0.86962801 1.905766e-42
-10.26780000 -17.79450000 464.00900000 -0.24719501 -0.42838001 0.86912900 1.905766e-42
-8.53050990 -17.63110000 464.45099000 -0.22346100 -0.44592100 0.86672902 1.905766e-42
-6.77306990 -17.63640000 464.84000000 -0.19743200 -0.46267399 0.86426502 1.905766e-42
-5.01407000 -17.62350100 465.22101000 -0.17100801 -0.47937801 0.86078602 1.905766e-42
-3.32564000 -17.25810100 465.72699000 -0.15149100 -0.49866101 0.85345697 1.905766e-42
-1.69163000 -16.80100100 466.32800000 -0.13544400 -0.51877999 0.84411001 1.905766e-42
0.08702900 -16.79509900 466.60400000 -0.11211800 -0.53554201 0.83703297 1.905766e-42
1.62626000 -16.13960100 467.26901000 -0.09874350 -0.55583602 0.82540601 1.905766e-42
3.41409990 -16.34800000 467.25601000 -0.07143850 -0.56959498 0.81881499 1.905766e-42
5.08686020 -15.87910000 467.72699000 -0.05316630 -0.58849198 0.80675298 1.905766e-42
6.78148980 -15.43860000 468.14401000 -0.03377470 -0.60689902 0.79406101 1.905766e-42
8.54481030 -15.18090000 468.39801000 -0.00921416 -0.62338001 0.78186500 1.905766e-42
10.34050000 -15.07790000 468.46799000 0.01756060 -0.63811898 0.76973701 1.905766e-42
11.87030000 -14.35140000 469.07800000 0.03115130 -0.65462899 0.75530797 1.905766e-42
13.49470000 -13.70350000 469.50400000 0.04734540 -0.66973698 0.74108797 1.905766e-42
15.12640000 -14.01580000 468.81100000 0.07764170 -0.67795497 0.73099202 1.905766e-42
16.58480100 -13.31490000 469.60001000 0.08670380 -0.69156599 0.71709102 1.905766e-42
18.35660000 -12.99870000 469.62799000 0.10726600 -0.70336503 0.70268798 1.905766e-42
20.11020100 -12.59690000 469.68701000 0.12990101 -0.71332598 0.68868798 1.905766e-42
21.76219900 -12.00990000 470.09399000 0.14828900 -0.72284001 0.67491698 1.905766e-42
23.34650000 -11.29320000 470.55899000 0.16405600 -0.73169100 0.66159999 1.905766e-42
24.77960000 -10.38050000 471.15399000 0.17524400 -0.73928100 0.65019500 1.905766e-42
26.53050000 -10.29430000 470.74500000 0.20203701 -0.74630803 0.63419598 1.905766e-42
28.27660000 -10.00200000 470.42001000 0.22609700 -0.75306302 0.61788100 1.905766e-42
29.92849900 -9.30334000 470.57199000 0.24210601 -0.75920200 0.60415000 1.905766e-42
31.41820000 -8.50506020 471.19101000 0.25260201 -0.76279801 0.59525698 1.905766e-42
33.12020100 -7.91946980 471.20801000 0.27235499 -0.76537299 0.58311898 1.905766e-42
34.75299800 -7.16224000 471.23199000 0.29057300 -0.76676899 0.57239199 1.905766e-42
36.21770100 -6.29239990 471.81400000 0.30282000 -0.76628101 0.56666899 1.905766e-42
37.51879900 -5.25561000 472.50101000 0.31266901 -0.76481003 0.56329697 1.905766e-42
39.08280200 -4.41783000 472.80399000 0.32839701 -0.76387298 0.55556601 1.905766e-42
40.61320100 -3.51882000 473.10400000 0.34381899 -0.76269901 0.54779398 1.905766e-42
42.00949900 -2.48091010 473.56500000 0.35147300 -0.76430500 0.54065198 1.905766e-42
43.44520200 -1.45084000 473.90900000 0.35782301 -0.76717502 0.53235799 1.905766e-42
44.65119900 -0.44805500 474.79199000 0.35973400 -0.76916897 0.52817601 1.905766e-42
46.02190000 0.61173701 475.28000000 0.36657301 -0.77115798 0.52051902 1.905766e-42
47.47810000 1.65618000 475.44901000 0.37726700 -0.77267599 0.51053101 1.905766e-42
48.73239900 2.65013000 476.27301000 0.38283101 -0.77500600 0.50279897 1.905766e-42
50.03770100 3.65844010 476.99399000 0.39027900 -0.77805501 0.49225301 1.905766e-42
51.34420000 4.73992010 477.59698000 0.39524901 -0.78340799 0.47963601 1.905766e-42
52.72250000 5.84500980 477.94101000 0.40267000 -0.78782803 0.46602899 1.905766e-42
54.09130100 6.82488010 478.57901000 0.40861201 -0.79337198 0.45121700 1.905766e-42
55.36240000 7.84936000 479.33701000 0.41382101 -0.80048102 0.43356800 1.905766e-42
56.69220000 8.82952020 480.05200000 0.41607100 -0.80260599 0.42744499 1.905766e-42
57.91680100 9.86868950 480.86401000 0.41531199 -0.80229598 0.42876300 1.905766e-42
59.10480100 10.92520000 481.70801000 0.41434401 -0.80182499 0.43057600 1.905766e-42
59.41280000 11.88570000 483.19901000 0.40197301 -0.80011201 0.44524100 1.905766e-42
58.55189900 12.53470000 484.64099000 0.38286299 -0.79899198 0.46371001 1.905766e-42
57.46080000 12.75470000 486.05499000 0.36297101 -0.79872900 0.47987899 1.905766e-42
56.53440100 13.39180000 487.46100000 0.34396201 -0.79886597 0.49346101 1.905766e-42
55.44660200 13.64850000 488.87201000 0.32479599 -0.79804200 0.50757903 1.905766e-42
54.48300200 14.27630000 490.25601000 0.30658501 -0.79739100 0.51978302 1.905766e-42
53.38550200 14.55520000 491.65601000 0.28787699 -0.79607302 0.53234798 1.905766e-42
52.54510100 15.27910000 493.07300000 0.27036399 -0.79508501 0.54290301 1.905766e-42
51.61759900 15.88260000 494.49301000 0.25226399 -0.79299301 0.55454898 1.905766e-42
50.75730100 16.74259900 495.82001000 0.23533200 -0.79058999 0.56532001 1.905766e-42
49.45690200 17.03900000 497.02802000 0.21660000 -0.78727698 0.57730401 1.905766e-42
48.74210000 17.91970100 498.42599000 0.20156001 -0.78417301 0.58689499 1.905766e-42
48.46410000 18.98800100 499.84799000 0.19079900 -0.78128999 0.59429097 1.905766e-42
47.93050000 20.06650000 501.18701000 0.17771900 -0.77828699 0.60223299 1.905766e-42
47.15160000 20.86490100 502.59900000 0.16145100 -0.77475798 0.61129600 1.905766e-42
46.31660100 21.75790000 503.92001000 0.14391500 -0.77084500 0.62055302 1.905766e-42
45.48910100 22.64500000 505.25000000 0.12562200 -0.76681101 0.62945998 1.905766e-42
