# .PCD v0.7 - Point Cloud Data file format
# 3 60 1
# 1 20 0
# 21 39 0
# 40 60 1
VERSION 0.7
FIELDS x y z normal_x normal_y normal_z curvature
SIZE 4 4 4 4 4 4 4
TYPE F F F F F F F
COUNT 1 1 1 1 1 1 1
WIDTH 60
HEIGHT 1
VIEWPOINT 0 0 0 1 0 0 0
POINTS 60
DATA ascii
-23.44720100 23.16190000 288.01199000 -0.31073499 -0.67371798 -0.67048299 1.905766e-42
-22.58709900 21.90720000 288.97400000 -0.25479901 -0.68346900 -0.68406701 1.905766e-42
-21.11340000 21.00379900 289.47601000 -0.21909700 -0.70144302 -0.67821401 1.905766e-42
-19.77440100 19.95430000 290.06400000 -0.21969000 -0.71125400 -0.66772300 1.905766e-42
-18.70439900 18.77540000 290.90399000 -0.21604501 -0.71889102 -0.66069698 1.905766e-42
-17.61100000 17.63760000 291.76999000 -0.20965301 -0.72417301 -0.65697700 1.905766e-42
-16.32250000 16.65770000 292.55701000 -0.22051300 -0.70556802 -0.67346001 1.905766e-42
-15.31120000 15.49060000 293.48199000 -0.23626301 -0.68363899 -0.69051999 1.905766e-42
-14.40660000 14.18870000 294.33401000 -0.25813100 -0.65607399 -0.70917898 1.905766e-42
-13.59280000 12.83610000 295.19901000 -0.28470299 -0.62374002 -0.72793698 1.905766e-42
-12.37530000 11.62260000 295.73300000 -0.32264799 -0.59163898 -0.73882401 1.905766e-42
-11.01660000 10.46630000 295.97198000 -0.34710199 -0.57494497 -0.74091703 1.905766e-42
-10.40280000 8.97132970 296.76401000 -0.35187399 -0.55896699 -0.75082701 1.905766e-42
-9.21936990 7.70207020 297.24301000 -0.34669399 -0.54762501 -0.76151800 1.905766e-42
-7.99456980 6.43971010 297.62500000 -0.34819999 -0.53609502 -0.76899898 1.905766e-42
-7.22293000 4.92534020 298.21799000 -0.35396299 -0.52139199 -0.77644199 1.905766e-42
-6.47143980 3.42299010 298.86401000 -0.35821101 -0.51079798 -0.78151798 1.905766e-42
-5.15124990 2.22517990 299.11401000 -0.35545200 -0.50512898 -0.78644699 1.905766e-42
-4.79478980 0.82430398 299.85501000 -0.35168999 -0.50078303 -0.79090500 1.905766e-42
-3.97357010 -0.68653202 300.38699000 -0.34654799 -0.50871700 -0.78810602 1.905766e-42
-3.24483990 -2.21146990 301.00601000 -0.33629701 -0.51737100 -0.78691298 1.905766e-42
-4.75469020 -2.53481010 301.93100000 -0.34757099 -0.51452500 -0.78387398 1.905766e-42
-6.04310990 -2.98667000 303.10400000 -0.35095400 -0.52448100 -0.77572602 1.905766e-42
-7.66360000 -3.07034990 303.88300000 -0.33712301 -0.53160602 -0.77700901 1.905766e-42
-9.35982990 -3.07140990 304.48599000 -0.32874000 -0.53190500 -0.78038901 1.905766e-42
-11.05910000 -2.55380010 304.77701000 -0.32151601 -0.52505100 -0.78800303 1.905766e-42
-12.63900000 -2.85855010 305.58301000 -0.31137300 -0.52327198 -0.79324299 1.905766e-42
-14.36060000 -2.39444990 305.82999000 -0.30823100 -0.51416099 -0.80039501 1.905766e-42
-16.01829900 -2.39376000 306.53101000 -0.29836199 -0.50841397 -0.80777198 1.905766e-42
-17.69750000 -2.38880990 307.17999000 -0.28636801 -0.50549299 -0.81392300 1.905766e-42
-19.43600100 -2.33958010 307.64301000 -0.24882799 -0.50215602 -0.82820499 1.905766e-42
-21.18440100 -2.05180000 307.95999000 -0.19409201 -0.50035399 -0.84378600 1.905766e-42
-22.93420000 -1.64437000 308.07101000 -0.14293000 -0.50026399 -0.85399503 1.905766e-42
-24.54360000 -2.14610000 308.70200000 -0.12908000 -0.49498999 -0.85925800 1.905766e-42
-26.31060000 -2.35393000 308.97400000 -0.11493700 -0.49111101 -0.86348099 1.905766e-42
-28.08250000 -2.37624000 309.29001000 -0.11172700 -0.48986599 -0.86460900 1.905766e-42
-29.86039900 -2.53948000 309.51901000 -0.11301000 -0.48826399 -0.86534798 1.905766e-42
-31.63080000 -2.42139010 309.82199000 -0.17130999 -0.50799400 -0.84415299 1.905766e-42
-33.41659900 -2.38124990 310.04401000 -0.26550999 -0.52379501 -0.80940902 1.905766e-42
-35.03120000 -2.39485000 310.84000000 -0.32592499 -0.51458597 -0.79307902 1.905766e-42
-35.35520200 -0.87090403 309.93900000 -0.34101501 -0.50363600 -0.79376298 1.905766e-42
-35.20959900 0.68300903 309.04199000 -0.34736300 -0.46770701 -0.81276602 1.905766e-42
-34.75270100 2.16342000 308.12500000 -0.34474099 -0.44294301 -0.82762003 1.905766e-42
-34.28049900 3.59995010 307.14899000 -0.34934500 -0.44502199 -0.82456899 1.905766e-42
-33.59360100 4.84271000 306.04300000 -0.33658999 -0.46345201 -0.81970698 1.905766e-42
-33.27959800 6.37106990 305.14499000 -0.35536501 -0.45256200 -0.81786501 1.905766e-42
-32.41989900 7.45790000 303.99701000 -0.33827400 -0.47355801 -0.81321198 1.905766e-42
-32.48609900 9.14350990 303.36899000 -0.38946801 -0.48229700 -0.78466898 1.905766e-42
-31.95970000 10.41580000 302.20901000 -0.39991599 -0.50151002 -0.76717299 1.905766e-42
-31.45970000 11.69480000 301.04501000 -0.38816899 -0.50615102 -0.77015299 1.905766e-42
-30.55880000 12.64620000 299.81100000 -0.34597901 -0.53571302 -0.77026600 1.905766e-42
-30.10059900 13.98910000 298.70401000 -0.35285100 -0.54691201 -0.75919902 1.905766e-42
-29.73560000 15.41480000 297.66699000 -0.37207299 -0.54704702 -0.74986702 1.905766e-42
-29.01849900 16.48749900 296.41199000 -0.35752901 -0.56079298 -0.74678200 1.905766e-42
-28.12480000 17.43479900 295.17001000 -0.33807901 -0.57961899 -0.74144799 1.905766e-42
-27.55080000 18.66449900 293.98700000 -0.35201901 -0.58040202 -0.73431301 1.905766e-42
-27.01330000 19.93079900 292.82599000 -0.36280701 -0.57328397 -0.73465502 1.905766e-42
-26.39710000 21.14010000 291.64401000 -0.36822000 -0.58509499 -0.72254997 1.905766e-42
-25.74480100 22.23070000 290.36899000 -0.37739599 -0.60488600 -0.70120299 1.905766e-42
-24.94290000 23.09880100 289.01199000 -0.37019601 -0.63148397 -0.68131000 1.905766e-42
