# .PCD v0.7 - Point Cloud Data file format
# 3 118 0
# 1 27 0
# 28 76 0
# 77 118 0
VERSION 0.7
FIELDS x y z normal_x normal_y normal_z curvature
SIZE 4 4 4 4 4 4 4
TYPE F F F F F F F
COUNT 1 1 1 1 1 1 1
WIDTH 118
HEIGHT 1
VIEWPOINT 0 0 0 1 0 0 0
POINTS 118
DATA ascii
1.03664000 -2.46487000 459.18100000 0.11621500 0.89969403 -0.42076701 1.905766e-42
-0.49548301 -1.64556000 461.12201000 0.11152100 0.87418300 -0.47261801 1.905766e-42
-0.97426897 -0.53370100 462.45401000 0.11466300 0.87301898 -0.47401601 1.905766e-42
-1.59428000 0.31741300 463.91400000 0.11844100 0.87263602 -0.47379100 1.905766e-42
-2.08539010 1.25504990 465.37000000 0.12852000 0.86590701 -0.48341200 1.905766e-42
-2.84364010 2.13731000 466.74399000 0.13683499 0.85896301 -0.49341601 1.905766e-42
-3.51599000 3.02923990 468.15500000 0.14372200 0.85262400 -0.50237000 1.905766e-42
-4.17283010 3.99296000 469.52600000 0.14980900 0.84665602 -0.51061797 1.905766e-42
-4.88460020 4.94140010 470.88000000 0.15630600 0.84064102 -0.51854700 1.905766e-42
-5.47127010 5.95871020 472.24500000 0.16316301 0.83467102 -0.52602500 1.905766e-42
-6.70299010 6.80389980 473.24899000 0.17091700 0.82734799 -0.53505403 1.905766e-42
-7.31611010 7.84650990 474.58200000 0.18068200 0.81765300 -0.54662400 1.905766e-42
-8.26414010 8.84552960 475.74100000 0.19020800 0.80762601 -0.55817699 1.905766e-42
-9.17292020 9.92064950 476.86301000 0.19940300 0.79756802 -0.56931901 1.905766e-42
-10.33810000 10.84020000 477.88101000 0.21054600 0.78433502 -0.58351398 1.905766e-42
-10.93480000 12.00000000 479.12100000 0.22251201 0.76910698 -0.59913498 1.905766e-42
-12.09110000 13.03480000 480.03400000 0.23509000 0.75331700 -0.61420298 1.905766e-42
-12.59550000 14.26480000 481.24701000 0.24707100 0.73667502 -0.62949699 1.905766e-42
-12.90240000 15.49700000 482.52301000 0.25885099 0.71723098 -0.64697403 1.905766e-42
-13.81720000 16.70150000 483.49899000 0.27118599 0.69631898 -0.66452903 1.905766e-42
-14.60560000 18.00130100 484.46301000 0.28284299 0.67440599 -0.68203902 1.905766e-42
-15.11870000 19.36150000 485.52399000 0.29053199 0.65970802 -0.69309199 1.905766e-42
-15.95530000 20.68370100 486.41400000 0.29422599 0.65089798 -0.69983101 1.905766e-42
-17.08440000 21.91900100 487.07599000 0.29576299 0.64261103 -0.70680600 1.905766e-42
-17.64600000 23.29579900 488.09100000 0.28741801 0.64908701 -0.70432699 1.905766e-42
-18.55559900 24.53930100 489.02200000 0.25826401 0.70851898 -0.65673500 1.905766e-42
-19.93149900 25.51650000 489.64801000 0.23200800 0.75876999 -0.60863799 1.905766e-42
-19.61490100 26.40550000 491.17999000 0.19743600 0.79584903 -0.57240200 1.905766e-42
-17.91250000 26.51180100 491.75500000 0.20345899 0.78762698 -0.58159101 1.905766e-42
-16.54740000 26.86660000 492.87399000 0.19748500 0.79138303 -0.57854402 1.905766e-42
-14.94890000 27.11100000 493.66400000 0.19756100 0.78830302 -0.58270800 1.905766e-42
-13.31810000 27.29250000 494.40399000 0.19660200 0.78575498 -0.58646101 1.905766e-42
-11.75080000 27.52710000 495.25800000 0.19143701 0.78766501 -0.58560699 1.905766e-42
-10.04770000 27.58230000 495.83801000 0.18837699 0.78337598 -0.59231502 1.905766e-42
-8.70390990 27.90560000 496.99100000 0.17741400 0.79380202 -0.58172297 1.905766e-42
-6.97300000 28.00060100 497.47601000 0.17496400 0.78973001 -0.58797401 1.905766e-42
-5.19092990 28.02730000 497.72800000 0.17508800 0.78102499 -0.59945399 1.905766e-42
-3.56588010 28.16780100 498.48901000 0.17096400 0.78367001 -0.59718698 1.905766e-42
-1.94118000 28.34400000 499.24301000 0.17035100 0.78987998 -0.58912599 1.905766e-42
-0.31761000 28.47390000 500.01001000 0.16777700 0.79823101 -0.57851398 1.905766e-42
1.47920000 28.40220100 500.08899000 0.16738500 0.79123700 -0.58815497 1.905766e-42
3.12258010 28.51510000 500.81500000 0.16011401 0.80215901 -0.57524300 1.905766e-42
4.78077980 28.60899900 501.50900000 0.15101101 0.81365299 -0.56139499 1.905766e-42
6.40136000 28.74140000 502.28101000 0.14049400 0.82801402 -0.54282099 1.905766e-42
8.10556980 28.76440000 502.85999000 0.13214900 0.83494103 -0.53423899 1.905766e-42
9.87057020 28.78150000 503.21301000 0.12637900 0.83547801 -0.53479397 1.905766e-42
11.48400000 28.79730000 504.01099000 0.11799100 0.84649801 -0.51915300 1.905766e-42
13.28340000 28.76380000 504.04501000 0.11609800 0.83768100 -0.53367698 1.905766e-42
14.92200000 28.78459900 504.78900000 0.10976400 0.84788197 -0.51869798 1.905766e-42
16.71920000 28.73840000 504.69901000 0.11292300 0.83529902 -0.53807497 1.905766e-42
18.51470000 28.66220100 504.79999000 0.11500300 0.82624298 -0.55145001 1.905766e-42
20.30719900 28.50869900 504.85699000 0.11695600 0.81366003 -0.56945503 1.905766e-42
22.09160000 28.39629900 505.06500000 0.11489700 0.80794400 -0.57794899 1.905766e-42
23.81119900 28.40640100 505.59698000 0.10679800 0.82156903 -0.56001598 1.905766e-42
25.60420000 28.24799900 505.59900000 0.09946300 0.81720197 -0.56770402 1.905766e-42
27.39609900 28.07799900 505.61801000 0.09743840 0.81137198 -0.57635200 1.905766e-42
29.18630000 27.94730000 505.75201000 0.09834760 0.80844998 -0.58029002 1.905766e-42
30.97480000 27.75460100 505.81699000 0.10030300 0.80250400 -0.58815598 1.905766e-42
32.68220100 27.70330000 506.38501000 0.10019100 0.81613600 -0.56910902 1.905766e-42
34.28760100 27.33550100 505.65900000 0.09612420 0.78973401 -0.60587198 1.905766e-42
35.97750100 27.33000000 506.27899000 0.09356380 0.81027597 -0.57853103 1.905766e-42
37.74580000 27.09420000 506.03900000 0.08702660 0.80708998 -0.58398002 1.905766e-42
39.52310200 26.90029900 506.24701000 0.08263630 0.81821197 -0.56894600 1.905766e-42
41.16249800 26.53570000 505.59900000 0.07841490 0.79755402 -0.59812999 1.905766e-42
42.95010000 26.32550000 505.61099000 0.07937210 0.79792100 -0.59751397 1.905766e-42
44.66350200 26.21870000 506.15302000 0.07641150 0.81445903 -0.57516801 1.905766e-42
46.35260000 25.94210100 505.59601000 0.06931460 0.79884303 -0.59753299 1.905766e-42
48.13119900 25.67030000 505.54401000 0.06312130 0.79863101 -0.59850103 1.905766e-42
49.89020200 25.32790000 505.37500000 0.05493620 0.79794502 -0.60022199 1.905766e-42
51.52730200 24.94230100 504.73401000 0.04345030 0.78742099 -0.61488301 1.905766e-42
53.27019900 24.55369900 504.50800000 0.03787490 0.78120500 -0.62312502 1.905766e-42
54.72909900 23.83840000 503.73300000 0.02721760 0.75697798 -0.65287399 1.905766e-42
55.44300100 22.84840000 502.41000000 0.01019580 0.71327102 -0.70081401 1.905766e-42
56.59120200 21.82700000 501.47299000 -0.01604840 0.68506998 -0.72829998 1.905766e-42
56.78229900 20.49760100 500.27399000 -0.02641040 0.65148699 -0.75819999 1.905766e-42
57.34669900 19.18590000 499.17801000 -0.01798720 0.62425500 -0.78101403 1.905766e-42
58.25930000 17.93779900 498.25699000 0.01293840 0.59713799 -0.80203402 1.905766e-42
57.59349800 16.52619900 497.35999000 0.02431470 0.62065202 -0.78370899 1.905766e-42
55.97620000 16.06440000 496.71899000 0.02095050 0.64077997 -0.76743901 1.905766e-42
54.19400000 15.95930000 496.48999000 0.01489100 0.65431100 -0.75607902 1.905766e-42
52.58110000 15.37440000 495.94501000 0.01658740 0.67198801 -0.74037600 1.905766e-42
50.79890100 15.17890000 495.78500000 0.01745750 0.68326998 -0.72995698 1.905766e-42
49.01670100 15.08060000 495.55200000 0.02221290 0.69407302 -0.71956199 1.905766e-42
47.44960000 14.46070000 494.92001000 0.03276750 0.70981699 -0.70362300 1.905766e-42
45.98420000 13.76020000 494.14401000 0.04346010 0.72466099 -0.68773401 1.905766e-42
44.71110200 12.84230000 493.26300000 0.05373680 0.73886198 -0.67171103 1.905766e-42
43.08530000 12.54650000 492.54901000 0.06268210 0.74816102 -0.66055000 1.905766e-42
41.38029900 12.26010000 492.04800000 0.07128430 0.75507998 -0.65174598 1.905766e-42
40.11100000 11.49660000 491.02600000 0.07697920 0.76550001 -0.63881499 1.905766e-42
38.53379800 11.10120000 490.25400000 0.08262050 0.77334499 -0.62857902 1.905766e-42
37.12060200 10.44690000 489.35101000 0.08848070 0.78281897 -0.61592603 1.905766e-42
36.00040100 9.62681960 488.20499000 0.09440480 0.79389399 -0.60068297 1.905766e-42
34.84220100 8.90727040 487.03000000 0.10045800 0.80465603 -0.58518100 1.905766e-42
33.70309800 8.10655020 485.88901000 0.10515100 0.81520802 -0.56954300 1.905766e-42
32.30740000 7.71817020 484.82101000 0.10685300 0.82331800 -0.55743098 1.905766e-42
31.07589900 7.10193010 483.66199000 0.11017100 0.82927400 -0.54787499 1.905766e-42
29.84950100 6.52122020 482.47900000 0.11487400 0.83185399 -0.54297602 1.905766e-42
29.02409900 5.65752980 481.13300000 0.12106700 0.83245999 -0.54069698 1.905766e-42
27.76930000 5.05206010 479.99301000 0.12475600 0.83429199 -0.53702199 1.905766e-42
26.01140000 5.35140990 479.74799000 0.12266500 0.83833700 -0.53117299 1.905766e-42
24.81460000 4.74630020 478.54700000 0.12629400 0.83999997 -0.52768302 1.905766e-42
23.11720100 4.65985010 477.95401000 0.12636399 0.84328699 -0.52239799 1.905766e-42
21.74130100 4.14535000 476.91400000 0.12886500 0.84586400 -0.51759797 1.905766e-42
20.18610000 3.84394000 476.06000000 0.13013700 0.84902102 -0.51208103 1.905766e-42
18.76590000 3.49093010 475.01099000 0.13152701 0.85227400 -0.50628901 1.905766e-42
17.43569900 3.04865000 473.88199000 0.13196801 0.85550702 -0.50069100 1.905766e-42
16.59320100 2.32248000 472.46701000 0.13377300 0.85871100 -0.49469200 1.905766e-42
15.41760000 1.71856000 471.24500000 0.13387001 0.86230898 -0.48836699 1.905766e-42
13.95480000 1.52018000 470.21500000 0.13382700 0.86362600 -0.48604500 1.905766e-42
12.84650000 0.92526299 468.92801000 0.13765401 0.86178499 -0.48823899 1.905766e-42
11.61090000 0.37795800 467.73901000 0.14051500 0.86174601 -0.48749200 1.905766e-42
10.16400000 -0.06451740 466.76401000 0.14245300 0.86336797 -0.48404899 1.905766e-42
8.60095980 -0.11025000 465.87201000 0.14286500 0.86599201 -0.47921500 1.905766e-42
7.45143990 -0.61401701 464.58200000 0.14649200 0.86723101 -0.47586799 1.905766e-42
6.84713980 -1.49874000 463.13501000 0.15256201 0.86805499 -0.47244701 1.905766e-42
5.43201020 -1.64367000 462.03201000 0.15161000 0.87187302 -0.46567401 1.905766e-42
4.13688990 -2.02902010 460.84299000 0.13933399 0.87480402 -0.46400800 1.905766e-42
2.73091010 -2.41167000 459.78601000 0.12736100 0.87875801 -0.45995900 1.905766e-42
