# .PCD v0.7 - Point Cloud Data file format
# 4 166 0
# 1 17 0
# 18 76 0
# 77 106 0
# 107 166 0
VERSION 0.7
FIELDS x y z normal_x normal_y normal_z curvature
SIZE 4 4 4 4 4 4 4
TYPE F F F F F F F
COUNT 1 1 1 1 1 1 1
WIDTH 166
HEIGHT 1
VIEWPOINT 0 0 0 1 0 0 0
POINTS 166
DATA ascii
23.26800000 38.32230000 468.13000000 -0.43280101 -0.81270498 0.39012000 1.905766e-42
22.45240000 39.17060100 468.56299000 -0.45514899 -0.80220598 0.38640100 1.905766e-42
20.81049900 39.66050000 468.01199000 -0.49406901 -0.78503901 0.37364301 1.905766e-42
19.28610000 40.34420000 467.34201000 -0.52747601 -0.76833498 0.36253199 1.905766e-42
17.84910000 40.84249900 466.37900000 -0.55595499 -0.75262499 0.35280299 1.905766e-42
16.38509900 41.55199800 465.60901000 -0.58331901 -0.73557901 0.34447500 1.905766e-42
14.96720000 42.47729900 464.99799000 -0.60908002 -0.71804202 0.33680299 1.905766e-42
13.61110000 43.16700000 464.03601000 -0.63621402 -0.69896299 0.32662299 1.905766e-42
12.28830000 44.10620100 463.25601000 -0.66272998 -0.67881501 0.31622499 1.905766e-42
11.03020000 45.39230000 463.20099000 -0.68607599 -0.66020298 0.30566499 1.905766e-42
9.76636980 46.38159900 462.38699000 -0.70843399 -0.64095199 0.29546699 1.905766e-42
8.52114960 47.49720000 461.72000000 -0.72986102 -0.62156200 0.28454199 1.905766e-42
7.31036000 48.51050200 460.85501000 -0.75228900 -0.59973502 0.27272600 1.905766e-42
6.19281010 49.78010200 460.23901000 -0.77558798 -0.57590199 0.25845599 1.905766e-42
5.07040020 50.89320000 459.37799000 -0.79925001 -0.54929799 0.24386600 1.905766e-42
4.02571010 52.14630100 458.61801000 -0.82282698 -0.52085000 0.22731100 1.905766e-42
3.03473000 53.36920200 457.74500000 -0.83510500 -0.50253397 0.22373900 1.905766e-42
2.23165010 54.01269900 456.26801000 -0.84457302 -0.48476300 0.22737999 1.905766e-42
2.11649990 53.40810000 454.57599000 -0.84410298 -0.47894701 0.24104100 1.905766e-42
2.32335000 52.60150100 452.98099000 -0.84046501 -0.47718701 0.25673300 1.905766e-42
2.62040000 51.13729900 451.97699000 -0.83072197 -0.48487899 0.27348199 1.905766e-42
2.89170000 50.00910200 450.60001000 -0.82382601 -0.48641500 0.29105100 1.905766e-42
3.18749000 48.65910000 449.44699000 -0.81482399 -0.49040800 0.30913001 1.905766e-42
3.48279000 47.38650100 448.20901000 -0.80625403 -0.49230000 0.32801801 1.905766e-42
3.57455990 46.29729800 446.77899000 -0.80019099 -0.48892301 0.34734401 1.905766e-42
3.94582010 44.95180100 445.64200000 -0.79000002 -0.49042201 0.36794901 1.905766e-42
3.98709010 43.75130100 444.30200000 -0.78229398 -0.48765299 0.38757101 1.905766e-42
3.84854010 43.04100000 442.65399000 -0.78095901 -0.47643900 0.40386799 1.905766e-42
3.76908990 41.90319800 441.26099000 -0.77475899 -0.47052199 0.42232299 1.905766e-42
3.68259000 40.61370100 440.00800000 -0.76634902 -0.46662101 0.44155800 1.905766e-42
3.62058000 39.30580100 438.77301000 -0.75693601 -0.46300101 0.46117100 1.905766e-42
3.34515000 38.32949800 437.28601000 -0.75045401 -0.45339701 0.48088399 1.905766e-42
3.26077010 37.03699900 436.03601000 -0.73694199 -0.45064899 0.50381702 1.905766e-42
2.85764000 36.06240100 434.57800000 -0.72601199 -0.44200501 0.52681899 1.905766e-42
2.48728990 34.94969900 433.21201000 -0.71508700 -0.43635300 0.54611999 1.905766e-42
2.37195990 33.61100000 432.01401000 -0.70285499 -0.43447599 0.56322700 1.905766e-42
2.34578990 32.21830000 430.87399000 -0.69039601 -0.43320099 0.57938802 1.905766e-42
1.43674000 31.97139900 429.34000000 -0.69342101 -0.41612399 0.58822399 1.905766e-42
0.76435202 30.89819900 428.06100000 -0.68999100 -0.40580001 0.59936500 1.905766e-42
0.17975000 29.96260100 426.63901000 -0.68884498 -0.39399999 0.60848802 1.905766e-42
-0.32800701 28.71780000 425.44199000 -0.68418300 -0.38527399 0.61923897 1.905766e-42
-0.75236797 27.42790000 424.26001000 -0.67671198 -0.37796500 0.63182497 1.905766e-42
-1.54194000 26.61060000 422.86499000 -0.67473602 -0.36559901 0.64114702 1.905766e-42
-2.08894990 25.43009900 421.62100000 -0.67010498 -0.36660400 0.64541501 1.905766e-42
-2.78165010 24.49530000 420.24701000 -0.66874403 -0.36469200 0.64790601 1.905766e-42
-3.49015000 23.50320100 418.92300000 -0.66771102 -0.36292699 0.64995801 1.905766e-42
-4.09427980 22.30810000 417.72000000 -0.66523498 -0.36284301 0.65253901 1.905766e-42
-4.79005000 21.23870100 416.45001000 -0.66420901 -0.36072001 0.65475702 1.905766e-42
-4.34066010 19.53739900 416.07199000 -0.65177500 -0.37161100 0.66113198 1.905766e-42
-4.19578980 17.91350000 415.30899000 -0.64106703 -0.37905300 0.66734701 1.905766e-42
-4.05104020 16.30610100 414.51199000 -0.62975103 -0.38623300 0.67397201 1.905766e-42
-3.95117000 14.68270000 413.74100000 -0.61789399 -0.39357799 0.68066400 1.905766e-42
-3.42424010 13.05070000 413.19400000 -0.60281199 -0.40565801 0.68706602 1.905766e-42
-3.34216000 11.47370000 412.32999000 -0.59210902 -0.41280499 0.69209701 1.905766e-42
-3.31079010 9.92636970 411.41101000 -0.58265299 -0.41919601 0.69626802 1.905766e-42
-3.36699010 8.39698980 410.46301000 -0.57470298 -0.42480001 0.69947201 1.905766e-42
-3.24159000 6.82127000 409.60199000 -0.56550097 -0.43201301 0.70254803 1.905766e-42
-3.21496010 5.32001020 408.60901000 -0.55861598 -0.43787900 0.70442200 1.905766e-42
-3.19779990 4.02656980 407.35800000 -0.55464202 -0.44229001 0.70480603 1.905766e-42
-2.54152010 2.35814000 407.19800000 -0.53965402 -0.45364001 0.70921397 1.905766e-42
-2.83183000 1.12853000 405.91501000 -0.53992200 -0.45754099 0.70649898 1.905766e-42
-2.50398990 -0.56411397 405.39801000 -0.52843100 -0.46874699 0.70784003 1.905766e-42
-2.46483990 -2.09445000 404.45099000 -0.52190900 -0.47714800 0.70706499 1.905766e-42
-2.37629010 -3.57436990 403.43100000 -0.51508403 -0.48566699 0.70626903 1.905766e-42
-1.81305000 -5.17619990 402.83301000 -0.50063598 -0.49836299 0.70781201 1.905766e-42
-1.71589990 -6.66345980 401.82401000 -0.49297801 -0.50730199 0.70683599 1.905766e-42
-1.61467000 -8.17379000 400.85001000 -0.48471701 -0.51655102 0.70585102 1.905766e-42
-1.11424010 -9.70718960 400.05099000 -0.47141799 -0.52862799 0.70591599 1.905766e-42
-1.39563000 -10.90680000 398.73901000 -0.46974000 -0.53104103 0.70522302 1.905766e-42
-1.07819000 -12.43570000 397.84399000 -0.45842901 -0.53787702 0.70748299 1.905766e-42
-0.65190399 -13.97360000 397.01099000 -0.44552699 -0.54562497 0.70978802 1.905766e-42
-0.27702600 -15.48360000 396.10599000 -0.43311700 -0.55291498 0.71182501 1.905766e-42
-0.13152400 -16.93409900 395.04999000 -0.42266101 -0.55842102 0.71380901 1.905766e-42
-0.05318680 -18.36400000 393.95901000 -0.41198099 -0.56343597 0.71610898 1.905766e-42
-0.03501180 -19.79299900 392.86499000 -0.40052000 -0.56810200 0.71891898 1.905766e-42
0.64108199 -21.27090100 392.09100000 -0.38629699 -0.57599300 0.72042102 1.905766e-42
1.29246000 -22.72800100 391.25900000 -0.37445500 -0.58050501 0.72304702 1.905766e-42
2.78678010 -23.72940100 391.19400000 -0.36386001 -0.58784503 0.72252601 1.905766e-42
4.45597980 -24.00099900 391.81100000 -0.35252899 -0.59559602 0.72179502 1.905766e-42
6.08034990 -24.00639900 392.58600000 -0.33733299 -0.60343200 0.72254801 1.905766e-42
7.76874020 -24.54719900 392.89801000 -0.31488800 -0.61120403 0.72613698 1.905766e-42
9.47964000 -24.81460000 393.38901000 -0.29384199 -0.61944503 0.72797298 1.905766e-42
11.16290000 -24.91390000 394.01901000 -0.27465299 -0.62775701 0.72834498 1.905766e-42
12.84500000 -25.43219900 393.64099000 -0.25473800 -0.63427901 0.72992998 1.905766e-42
14.46340000 -25.56209900 394.41901000 -0.23730201 -0.64204001 0.72902101 1.905766e-42
16.15749900 -25.57500100 395.02701000 -0.21939901 -0.64939600 0.72811300 1.905766e-42
17.90020000 -25.99690100 395.18500000 -0.19913800 -0.65637499 0.72767901 1.905766e-42
19.49270100 -25.59980000 395.92401000 -0.17879599 -0.66254199 0.72737199 1.905766e-42
21.11290000 -26.33390000 395.64801000 -0.15223899 -0.66995102 0.72662902 1.905766e-42
22.88410000 -26.43740100 395.95099000 -0.12614100 -0.67757398 0.72455603 1.905766e-42
24.49550100 -27.16290100 395.60901000 -0.09820930 -0.68620300 0.72074997 1.905766e-42
26.24029900 -27.32200100 395.19699000 -0.07303940 -0.69506001 0.71523201 1.905766e-42
27.96069900 -27.23979900 395.71899000 -0.05335220 -0.70192599 0.71024901 1.905766e-42
29.66260000 -27.65510000 395.30600000 -0.02941330 -0.71025997 0.70332497 1.905766e-42
31.45389900 -27.78070100 395.18100000 -0.00751544 -0.71734500 0.69667798 1.905766e-42
33.25210200 -27.70019900 395.18201000 0.01067120 -0.72276300 0.69101399 1.905766e-42
34.96680100 -27.69339900 394.63400000 0.02700390 -0.72747201 0.68560600 1.905766e-42
36.71410000 -27.54690000 395.04099000 0.03952150 -0.72773600 0.68471801 1.905766e-42
38.50750000 -27.43950100 395.15201000 0.05142350 -0.72653902 0.68519801 1.905766e-42
40.30009800 -27.28050000 395.18600000 0.07110120 -0.72207302 0.68815303 1.905766e-42
41.95550200 -27.57110000 394.54199000 0.08847430 -0.72029799 0.68799901 1.905766e-42
43.64799900 -27.95220000 394.06201000 0.10679800 -0.71696401 0.68888098 1.905766e-42
45.40390000 -28.20410000 393.75601000 0.12811600 -0.71120697 0.69120997 1.905766e-42
46.87710200 -28.69680000 392.84698000 0.15141700 -0.70553702 0.69230801 1.905766e-42
48.46770100 -29.01300000 392.06601000 0.17655300 -0.69683403 0.69516301 1.905766e-42
49.98440200 -29.48830000 391.22101000 0.18941000 -0.68810701 0.70045203 1.905766e-42
51.37410000 -28.55920000 391.88901000 0.19093400 -0.67146099 0.71601999 1.905766e-42
51.37459900 -27.28190000 393.15701000 0.22334200 -0.66879398 0.70910800 1.905766e-42
51.34380000 -25.94829900 394.36600000 0.24450700 -0.66550201 0.70521098 1.905766e-42
51.25989900 -24.63610100 395.59500000 0.25382000 -0.66244400 0.70480001 1.905766e-42
51.17530100 -23.30620000 396.80499000 0.26023901 -0.65889102 0.70578903 1.905766e-42
50.87950100 -22.11619900 398.12299000 0.26152501 -0.65640098 0.70763201 1.905766e-42
50.50949900 -20.94969900 399.44299000 0.26059100 -0.65402597 0.71016997 1.905766e-42
50.77780200 -19.44710000 400.39700000 0.27024901 -0.64801401 0.71206999 1.905766e-42
50.54719900 -18.18100000 401.65500000 0.27034399 -0.64548302 0.71432900 1.905766e-42
50.35979800 -16.85490000 402.85800000 0.27062500 -0.64340901 0.71609098 1.905766e-42
49.81489900 -15.76100000 404.17999000 0.26274800 -0.64364499 0.71880800 1.905766e-42
49.65060000 -14.36220000 405.29999000 0.26213801 -0.64220101 0.72032100 1.905766e-42
49.06079900 -13.26890000 406.60300000 0.25135601 -0.64312601 0.72333199 1.905766e-42
48.55260100 -12.12020000 407.89200000 0.24123199 -0.64384001 0.72613800 1.905766e-42
48.13349900 -10.82840000 409.07401000 0.23269901 -0.64432299 0.72849101 1.905766e-42
47.74100100 -9.61721990 410.34601000 0.22328700 -0.64504701 0.73079199 1.905766e-42
47.30220000 -8.38920020 411.58701000 0.21276700 -0.64859003 0.73079503 1.905766e-42
47.13380100 -6.97049000 412.68201000 0.20815600 -0.65156603 0.72947401 1.905766e-42
46.53279900 -5.89635990 413.99500000 0.19324601 -0.65534902 0.73018700 1.905766e-42
46.49520100 -4.45757010 415.07599000 0.19050001 -0.65830702 0.72824502 1.905766e-42
46.34610000 -3.09960010 416.24799000 0.18460500 -0.66164500 0.72673798 1.905766e-42
45.81959900 -2.04024000 417.60501000 0.17017899 -0.66523802 0.72697902 1.905766e-42
45.72810000 -0.68179899 418.78201000 0.16454600 -0.66870999 0.72508699 1.905766e-42
45.51110100 0.47729900 420.14200000 0.15534399 -0.67231500 0.72378200 1.905766e-42
45.08470200 1.65687000 421.43301000 0.14291701 -0.67885900 0.72022599 1.905766e-42
44.82780100 3.05093000 422.54300000 0.13396700 -0.68583101 0.71532398 1.905766e-42
44.57070200 4.19071010 423.91199000 0.12385600 -0.69274902 0.71046299 1.905766e-42
44.16479900 5.39836980 425.18301000 0.11125900 -0.69943100 0.70598698 1.905766e-42
44.09479900 6.78973010 426.32300000 0.10434900 -0.70657700 0.69989997 1.905766e-42
43.59790000 7.89527990 427.65399000 0.08961030 -0.71282399 0.69559401 1.905766e-42
42.82099900 8.94542980 428.89200000 0.07053080 -0.71798402 0.69247699 1.905766e-42
43.06720000 10.17280000 430.18600000 0.06758080 -0.72552800 0.68486601 1.905766e-42
42.79629900 11.34490000 431.52499000 0.05697420 -0.73585099 0.67474198 1.905766e-42
42.51530100 12.59290000 432.79099000 0.04671730 -0.74791002 0.66215402 1.905766e-42
41.67390100 13.58580000 434.03400000 0.02801300 -0.75749803 0.65223700 1.905766e-42
41.65309900 14.76160000 435.39700000 0.02165090 -0.76985002 0.63785702 1.905766e-42
41.47320200 16.07980000 436.60999000 0.01290300 -0.78152502 0.62374002 1.905766e-42
41.01219900 17.06370000 438.04501000 -0.00012097 -0.79215300 0.61032301 1.905766e-42
40.11909900 17.89370000 439.36899000 -0.01936170 -0.80049002 0.59903300 1.905766e-42
39.21630100 18.77829900 440.64999000 -0.03905440 -0.80852801 0.58715999 1.905766e-42
38.94300100 19.79620000 442.10999000 -0.04913720 -0.81739098 0.57398403 1.905766e-42
38.38940000 20.79110000 443.50400000 -0.06257830 -0.82349002 0.56386900 1.905766e-42
37.72119900 21.76680000 444.86099000 -0.07609090 -0.82941002 0.55343401 1.905766e-42
37.18410100 22.71180000 446.29599000 -0.08555990 -0.83588600 0.54219401 1.905766e-42
36.25840000 23.64310100 447.52701000 -0.10189700 -0.84145802 0.53062803 1.905766e-42
35.36420100 24.80489900 448.57101000 -0.11907200 -0.84701002 0.51806903 1.905766e-42
34.69570200 25.86910100 449.85999000 -0.13072900 -0.85342801 0.50454998 1.905766e-42
33.99029900 26.69510100 451.29501000 -0.14266001 -0.85979599 0.49030599 1.905766e-42
32.88449900 27.27319900 452.59201000 -0.16958100 -0.86247897 0.47683501 1.905766e-42
32.07640100 28.17720000 453.92300000 -0.19070999 -0.86403400 0.46591300 1.905766e-42
31.63710000 29.00449900 455.45999000 -0.19582100 -0.86728001 0.45768899 1.905766e-42
30.69230100 29.78739900 456.77701000 -0.22496600 -0.86766702 0.44333300 1.905766e-42
30.09370000 30.71439900 458.19901000 -0.23916800 -0.86977702 0.43160999 1.905766e-42
29.13859900 31.64110000 459.41101000 -0.27764001 -0.86773199 0.41225901 1.905766e-42
28.46430000 32.53810100 460.81799000 -0.29903901 -0.86797202 0.39648399 1.905766e-42
27.69260000 33.44820000 462.16599000 -0.32934999 -0.86578202 0.37676200 1.905766e-42
26.82189900 34.34109900 463.46399000 -0.34747201 -0.85862100 0.37687200 1.905766e-42
25.75639900 35.30830000 464.54501000 -0.37297201 -0.84562302 0.38185599 1.905766e-42
24.99799900 36.39740000 465.76099000 -0.39181799 -0.83460402 0.38718799 1.905766e-42
23.79830000 37.33420200 466.72198000 -0.42135501 -0.82071102 0.38586700 1.905766e-42
