# .PCD v0.7 - Point Cloud Data file format
# 4 143 0
# 1 54 0
# 55 77 0
# 78 121 0
# 122 143 0
VERSION 0.7
FIELDS x y z normal_x normal_y normal_z curvature
SIZE 4 4 4 4 4 4 4
TYPE F F F F F F F
COUNT 1 1 1 1 1 1 1
WIDTH 143
HEIGHT 1
VIEWPOINT 0 0 0 1 0 0 0
POINTS 143
DATA ascii
-14.25210000 -16.08700000 472.78299000 0.17033599 0.60199302 -0.78012198 1.905766e-42
-15.76370000 -14.55930000 473.52701000 0.18167000 0.58741200 -0.78863400 1.905766e-42
-15.96220000 -13.09910000 474.56000000 0.19291601 0.57969999 -0.79166400 1.905766e-42
-15.74160000 -11.63580000 475.58499000 0.20283000 0.57420701 -0.79318702 1.905766e-42
-15.87020000 -10.20050000 476.66299000 0.21255700 0.56716198 -0.79570502 1.905766e-42
-15.72810000 -8.74479960 477.71301000 0.22118200 0.56123799 -0.79755300 1.905766e-42
-16.66890000 -7.38022990 478.41501000 0.23160000 0.55091500 -0.80178201 1.905766e-42
-16.87739900 -5.82039020 479.28799000 0.24203300 0.54210103 -0.80470300 1.905766e-42
-16.81839900 -4.30894990 480.26401000 0.25320601 0.53407198 -0.80663103 1.905766e-42
-17.16060100 -2.87937000 481.30301000 0.27261600 0.53119898 -0.80219001 1.905766e-42
-17.29460000 -1.42055000 482.34900000 0.29170200 0.53014100 -0.79615301 1.905766e-42
-17.54649900 0.02879900 483.38599000 0.30737701 0.52936900 -0.79075098 1.905766e-42
-17.51600100 1.57806000 484.30200000 0.32064599 0.53082800 -0.78447902 1.905766e-42
-17.47520100 3.16911010 485.14301000 0.33267701 0.53211302 -0.77857602 1.905766e-42
-17.43460100 4.69750980 486.09299000 0.34430599 0.53323603 -0.77273101 1.905766e-42
-17.41930000 6.19823980 487.08701000 0.35606900 0.53320998 -0.76740003 1.905766e-42
-17.41900100 7.61334990 488.19901000 0.36850601 0.53215200 -0.76224500 1.905766e-42
-17.57920100 9.04671000 489.27600000 0.38231000 0.52885801 -0.75772601 1.905766e-42
-17.73469900 10.50610000 490.31799000 0.39714301 0.52417803 -0.75333601 1.905766e-42
-18.62809900 11.99230000 490.80099000 0.41229799 0.51160699 -0.75383598 1.905766e-42
-18.60420000 13.44230000 491.86700000 0.42852101 0.50536197 -0.74898499 1.905766e-42
-18.04840100 14.83920000 492.85699000 0.44359300 0.50261801 -0.74202502 1.905766e-42
-18.15670000 16.40920100 493.73001000 0.46259299 0.49543101 -0.73522502 1.905766e-42
-18.29579900 17.84630000 494.80499000 0.48161200 0.48988199 -0.72668201 1.905766e-42
-17.67660000 18.92919900 496.10300000 0.49592000 0.49372000 -0.71435601 1.905766e-42
-17.76470000 20.41519900 497.11499000 0.51432699 0.48784199 -0.70532203 1.905766e-42
-17.87630100 21.87420100 498.16299000 0.53240299 0.48179299 -0.69600499 1.905766e-42
-17.21970000 23.15730100 499.24100000 0.54566801 0.48383600 -0.68421501 1.905766e-42
-17.23440000 24.67280000 500.21201000 0.56286502 0.47775599 -0.67448699 1.905766e-42
-16.87340000 25.95529900 501.42300000 0.57745397 0.47799301 -0.66186899 1.905766e-42
-16.82140000 27.23220100 502.69000000 0.59409702 0.47479200 -0.64932400 1.905766e-42
-16.55030100 28.47680100 503.96201000 0.60990602 0.47332999 -0.63558799 1.905766e-42
-16.56749900 29.75849900 505.22601000 0.62744802 0.46807501 -0.62226599 1.905766e-42
-15.95000000 30.95439900 506.42099000 0.64125502 0.46926701 -0.60710901 1.905766e-42
-15.75130000 32.25009900 507.65500000 0.65772098 0.46519199 -0.59245199 1.905766e-42
-15.13160000 33.40259900 508.89099000 0.67111498 0.46737701 -0.57546800 1.905766e-42
-14.73110000 34.44900100 510.29901000 0.68493497 0.47274899 -0.55441201 1.905766e-42
-14.09960000 35.18840000 511.81400000 0.69343603 0.48365399 -0.53406501 1.905766e-42
-13.68720000 36.16650000 513.26801000 0.70312399 0.49135399 -0.51399201 1.905766e-42
-13.52690000 37.37509900 514.59198000 0.71361297 0.49649301 -0.49421799 1.905766e-42
-13.02350000 38.09590100 516.16302000 0.71706200 0.50909102 -0.47607499 1.905766e-42
-12.72320000 38.98170100 517.70099000 0.72051197 0.52079600 -0.45785901 1.905766e-42
-11.64690000 38.72589900 519.12097000 0.71377200 0.53569198 -0.45118099 1.905766e-42
-11.07150000 39.33560200 520.71399000 0.71548599 0.54631102 -0.43545899 1.905766e-42
-10.51550000 39.79140100 522.36401000 0.71765500 0.55715400 -0.41779301 1.905766e-42
-9.67696950 39.97580000 523.94598000 0.71795899 0.56985700 -0.39974701 1.905766e-42
-9.20110030 40.37799800 525.63397000 0.72151297 0.57996500 -0.37823299 1.905766e-42
-8.73231030 40.77290000 527.32703000 0.72515702 0.58985400 -0.35527399 1.905766e-42
-8.50378040 41.24919900 529.04797000 0.72974497 0.59803802 -0.33139399 1.905766e-42
-7.87818000 41.73450100 530.66400000 0.73233598 0.60507703 -0.31235600 1.905766e-42
-7.75143000 42.37099800 532.34302000 0.73572701 0.60934800 -0.29563600 1.905766e-42
-7.63821980 42.99140200 534.02899000 0.73795301 0.61356097 -0.28101501 1.905766e-42
-7.44485000 43.58129900 535.71899000 0.73910397 0.61793500 -0.26810801 1.905766e-42
-7.34175010 44.13880200 537.42700000 0.73961002 0.62222999 -0.25652799 1.905766e-42
-6.66774990 44.30250200 539.08801000 0.73878801 0.62687200 -0.24743500 1.905766e-42
-5.46429010 43.22909900 539.88800000 0.72137702 0.64611501 -0.24930000 1.905766e-42
-4.41264010 42.20520000 540.92999000 0.69098699 0.67634702 -0.25513199 1.905766e-42
-3.24261000 41.16540100 541.81799000 0.66237903 0.70123601 -0.26367199 1.905766e-42
-1.80362000 40.25630200 542.40399000 0.63547200 0.72173297 -0.27436501 1.905766e-42
-0.28582701 39.30530200 542.58301000 0.61123401 0.73806202 -0.28575799 1.905766e-42
1.11576000 38.51770000 543.39203000 0.58588600 0.75494701 -0.29460499 1.905766e-42
2.56516000 37.63710000 543.99500000 0.55906600 0.77179301 -0.30295399 1.905766e-42
4.04809000 36.61740100 544.02698000 0.53126699 0.78869802 -0.30937299 1.905766e-42
5.45627020 35.70040100 544.67297000 0.49836001 0.80769902 -0.31505600 1.905766e-42
7.03737020 34.85380200 544.82599000 0.45897499 0.82864302 -0.32045600 1.905766e-42
8.70221040 34.17789800 544.93298000 0.41749299 0.84817803 -0.32602701 1.905766e-42
10.22110000 33.47670000 545.59698000 0.37502199 0.86477602 -0.33394700 1.905766e-42
11.96270000 33.02190000 545.59399000 0.33852899 0.87736499 -0.34004301 1.905766e-42
13.64820000 32.39020200 545.59497000 0.30455500 0.88850200 -0.34323600 1.905766e-42
15.35450000 31.81740000 545.61902000 0.26855001 0.89978802 -0.34389201 1.905766e-42
16.96080000 31.36230100 546.29199000 0.23434301 0.90835899 -0.34636301 1.905766e-42
18.51310000 30.95220000 545.47803000 0.20667800 0.91865802 -0.33667701 1.905766e-42
20.25320100 30.56090000 545.23499000 0.17574300 0.92898798 -0.32572499 1.905766e-42
21.76400000 29.99230000 544.43903000 0.14189000 0.94067597 -0.30821401 1.905766e-42
23.29200000 29.58149900 543.58099000 0.10541200 0.95170403 -0.28835300 1.905766e-42
24.94100000 29.10600100 543.03802000 0.06664540 0.96100199 -0.26839101 1.905766e-42
26.24760100 28.83079900 541.83099000 0.02844810 0.96796399 -0.24947201 1.905766e-42
27.64539900 28.36520000 540.79700000 -0.01077200 0.97265399 -0.23201001 1.905766e-42
28.50029900 28.13699900 539.22900000 -0.04240500 0.97457999 -0.21999000 1.905766e-42
29.41550100 27.86400000 537.70300000 -0.08025890 0.97432297 -0.21036400 1.905766e-42
30.41680000 27.57320000 536.23602000 -0.11479400 0.97236502 -0.20329399 1.905766e-42
30.80839900 27.38019900 534.48999000 -0.12940000 0.97128201 -0.19966500 1.905766e-42
30.37430000 27.00919900 532.78302000 -0.11908800 0.97316402 -0.19689900 1.905766e-42
29.26040100 26.58480100 531.43402000 -0.08336390 0.97573298 -0.20247500 1.905766e-42
28.35110100 26.19389900 529.93103000 -0.06546000 0.97246200 -0.22368100 1.905766e-42
27.92700000 25.80680100 528.22498000 -0.06904750 0.96705401 -0.24503000 1.905766e-42
28.11060000 25.35330000 526.49200000 -0.08406270 0.96145803 -0.26178700 1.905766e-42
28.41799900 24.93250100 524.77002000 -0.10276000 0.95588797 -0.27517000 1.905766e-42
28.82110000 24.50680000 523.06799000 -0.13174701 0.94968897 -0.28413600 1.905766e-42
29.91820000 24.17939900 521.67902000 -0.17807899 0.94335502 -0.27994600 1.905766e-42
30.73630000 23.83610000 520.11298000 -0.21498400 0.93472201 -0.28297901 1.905766e-42
31.23860000 23.43950100 518.42999000 -0.24424601 0.92292899 -0.29756600 1.905766e-42
32.20660000 23.15940100 516.93903000 -0.27654099 0.91105598 -0.30577999 1.905766e-42
32.97040200 22.87400100 515.33398000 -0.30296999 0.89797002 -0.31915399 1.905766e-42
33.58409900 22.59720000 513.66498000 -0.32483000 0.88415402 -0.33579400 1.905766e-42
33.95420100 22.18050000 511.95300000 -0.34095699 0.86991501 -0.35636601 1.905766e-42
34.18339900 21.53860100 510.28699000 -0.35254601 0.85569900 -0.37880099 1.905766e-42
34.16490200 20.51250100 508.80801000 -0.35798001 0.84259701 -0.40234399 1.905766e-42
33.73160200 19.62870000 507.30099000 -0.35698101 0.83285397 -0.42298701 1.905766e-42
33.16989900 18.67930000 505.87900000 -0.35197699 0.82450902 -0.44305500 1.905766e-42
32.42729900 17.71220000 504.55499000 -0.34311301 0.81791401 -0.46183401 1.905766e-42
31.54140100 16.68160100 503.37500000 -0.33133101 0.81297398 -0.47884500 1.905766e-42
31.12719900 15.64400000 501.96301000 -0.32421699 0.80526000 -0.49642599 1.905766e-42
30.68059900 14.61080000 500.55899000 -0.31593499 0.79785401 -0.51343298 1.905766e-42
30.10530100 13.55110000 499.22198000 -0.30608901 0.79190803 -0.52838498 1.905766e-42
29.45459900 12.51290000 497.90399000 -0.29747400 0.78613502 -0.54175699 1.905766e-42
28.69400000 11.48720000 496.63501000 -0.29037100 0.77948701 -0.55505401 1.905766e-42
27.98640100 10.25330000 495.53201000 -0.28497601 0.77165103 -0.56863302 1.905766e-42
27.92490000 9.01616000 494.22601000 -0.28355101 0.76088297 -0.58365703 1.905766e-42
27.43210000 7.68887000 493.11401000 -0.28104499 0.75042403 -0.59822899 1.905766e-42
26.50169900 6.63884020 491.98700000 -0.27810901 0.74040902 -0.61192298 1.905766e-42
25.18040100 5.72068980 491.17999000 -0.27269301 0.73810101 -0.61712599 1.905766e-42
25.09590000 4.56501010 489.80200000 -0.27058101 0.73555398 -0.62108499 1.905766e-42
25.36310000 3.36541010 488.48700000 -0.26870599 0.73223799 -0.62579900 1.905766e-42
24.53800000 2.21763990 487.37299000 -0.26306301 0.73109502 -0.62952203 1.905766e-42
23.84989900 0.95551997 486.28900000 -0.25736400 0.72967201 -0.63351703 1.905766e-42
23.19770100 -0.27101400 485.14499000 -0.25157899 0.72804898 -0.63769400 1.905766e-42
22.87540100 -1.47058000 483.84201000 -0.24600500 0.71984702 -0.64907801 1.905766e-42
22.53640000 -2.68167000 482.55399000 -0.24272600 0.69527000 -0.67652297 1.905766e-42
21.92490000 -3.93665000 481.41800000 -0.24188000 0.67020702 -0.70165300 1.905766e-42
22.02290000 -5.42311000 480.40799000 -0.24097601 0.64210802 -0.72775501 1.905766e-42
20.92720000 -6.57670020 479.56601000 -0.24436399 0.61789697 -0.74732101 1.905766e-42
19.54579900 -7.66882990 479.19299000 -0.23728900 0.59745800 -0.76598799 1.905766e-42
17.84740100 -8.26498030 479.20499000 -0.21660399 0.58754301 -0.77966398 1.905766e-42
16.10600100 -8.70843030 479.31000000 -0.19462401 0.58197302 -0.78957498 1.905766e-42
14.33980000 -8.81962970 479.63800000 -0.17173000 0.58475798 -0.79282200 1.905766e-42
12.57180000 -8.84945010 479.97501000 -0.14098600 0.58929098 -0.79552400 1.905766e-42
10.82660000 -9.28125950 479.88699000 -0.10573700 0.58621800 -0.80322301 1.905766e-42
9.26239970 -10.07750000 479.48700000 -0.06965680 0.57803297 -0.81303501 1.905766e-42
7.82802010 -11.11120000 479.14999000 -0.03000700 0.57472301 -0.81779802 1.905766e-42
6.17538020 -10.39870000 479.18301000 -0.00550967 0.58995098 -0.80742002 1.905766e-42
4.43058010 -10.73320000 478.89301000 0.01358080 0.60045397 -0.79954398 1.905766e-42
2.79374000 -11.28310000 478.38501000 0.03029510 0.60697699 -0.79414201 1.905766e-42
0.99482203 -11.31960000 478.33401000 0.04174810 0.61255199 -0.78932703 1.905766e-42
-0.09097790 -12.54850000 477.59201000 0.05164330 0.61174500 -0.78936702 1.905766e-42
-1.86951010 -12.27540000 477.54401000 0.06781920 0.61350000 -0.78677702 1.905766e-42
-3.02175000 -13.41270000 476.75800000 0.07987650 0.61190498 -0.78688800 1.905766e-42
-4.80615000 -13.26800000 476.57101000 0.09637370 0.61165100 -0.78523600 1.905766e-42
-6.32328990 -13.94450000 475.87701000 0.11007500 0.61078298 -0.78411001 1.905766e-42
-7.81718020 -14.62060000 475.13501000 0.12378600 0.61049002 -0.78229100 1.905766e-42
-9.57147980 -14.65750000 474.73401000 0.14420401 0.60858798 -0.78027302 1.905766e-42
-10.97120000 -15.38400000 473.86600000 0.15734901 0.60807699 -0.77812898 1.905766e-42
-12.48990000 -16.02759900 473.14499000 0.16658400 0.60705900 -0.77700001 1.905766e-42
