# .PCD v0.7 - Point Cloud Data file format
# 3 72 0
# 1 29 0
# 30 48 0
# 49 72 0
VERSION 0.7
FIELDS x y z normal_x normal_y normal_z curvature
SIZE 4 4 4 4 4 4 4
TYPE F F F F F F F
COUNT 1 1 1 1 1 1 1
WIDTH 72
HEIGHT 1
VIEWPOINT 0 0 0 1 0 0 0
POINTS 72
DATA ascii
37.34389900 20.14950000 444.00500000 -0.07897030 0.72222698 -0.68713301 1.905766e-42
35.89310100 19.32780100 443.32700000 -0.08486010 0.73038399 -0.67774498 1.905766e-42
34.94260000 18.24329900 442.24899000 -0.06733310 0.72394800 -0.68656099 1.905766e-42
33.73099900 17.29929900 441.31100000 -0.05475840 0.72249901 -0.68919998 1.905766e-42
32.40230200 16.43600100 440.45700000 -0.03709320 0.72257602 -0.69029599 1.905766e-42
31.08370000 15.53910000 439.62201000 -0.03314950 0.71693099 -0.69635499 1.905766e-42
30.41710100 14.31930000 438.47900000 -0.02686180 0.71271199 -0.70094299 1.905766e-42
29.28690000 13.28820000 437.53000000 -0.03356180 0.72371697 -0.68927997 1.905766e-42
28.19470000 12.23830000 436.55801000 -0.02355530 0.75486100 -0.65546203 1.905766e-42
26.46470100 12.00950000 436.11700000 -0.00166975 0.77415401 -0.63299400 1.905766e-42
25.27599900 11.24770000 435.00000000 0.02821950 0.79670399 -0.60371000 1.905766e-42
24.72890100 10.19470000 433.64700000 0.04953270 0.80194098 -0.59534597 1.905766e-42
23.17600100 9.73670960 432.85999000 0.06245670 0.79202700 -0.60728300 1.905766e-42
21.85110100 9.01058960 431.88199000 0.06906810 0.78300601 -0.61816800 1.905766e-42
20.53990000 8.28662970 430.88300000 0.07178440 0.77842498 -0.62361997 1.905766e-42
19.22460000 7.62260010 429.85001000 0.08022390 0.78333998 -0.61639500 1.905766e-42
17.65130000 7.22153000 429.07199000 0.10453600 0.78884500 -0.60563600 1.905766e-42
16.18540000 6.76059010 428.13501000 0.13397300 0.79155999 -0.59622401 1.905766e-42
14.80000000 6.27662990 427.09299000 0.16597100 0.79195601 -0.58758801 1.905766e-42
13.57750000 5.63998990 425.93500000 0.17879599 0.78091300 -0.59850502 1.905766e-42
12.28940000 5.03572990 424.83200000 0.19641200 0.76298702 -0.61585200 1.905766e-42
10.66640000 4.89489980 424.06699000 0.22363500 0.74817997 -0.62467098 1.905766e-42
9.01947980 4.80536990 423.34601000 0.25241801 0.73338699 -0.63121200 1.905766e-42
7.43889000 4.61368990 422.50699000 0.27375999 0.71645600 -0.64167500 1.905766e-42
5.74290990 4.76630020 421.92300000 0.29148799 0.70879400 -0.64237499 1.905766e-42
4.40599010 4.30953980 420.80801000 0.31551301 0.68818903 -0.65333599 1.905766e-42
2.78950000 4.35730980 420.01700000 0.34910399 0.68532401 -0.63910699 1.905766e-42
1.27014010 4.29718020 419.05399000 0.37278900 0.67891300 -0.63253999 1.905766e-42
-0.80909801 4.79516980 418.31900000 0.39635399 0.66757101 -0.63027900 1.905766e-42
-2.39187000 5.64929010 418.39200000 0.38936099 0.69003803 -0.61011899 1.905766e-42
-2.39817000 6.82182980 419.75800000 0.37799501 0.71953100 -0.58257598 1.905766e-42
-2.30598000 7.96210000 421.14700000 0.36562800 0.74873400 -0.55291402 1.905766e-42
-2.08832000 8.92101000 422.65500000 0.36141399 0.76257998 -0.53651798 1.905766e-42
-2.35453010 9.95228000 424.10599000 0.35805801 0.76075703 -0.54133499 1.905766e-42
-1.74962000 10.80750000 425.57001000 0.35806099 0.74767298 -0.55926502 1.905766e-42
-1.91477000 11.96450000 426.93900000 0.33964500 0.75721800 -0.55790800 1.905766e-42
-2.06498000 13.07240000 428.35001000 0.32396999 0.77667898 -0.54019701 1.905766e-42
-2.51988010 14.04710000 429.79300000 0.34103799 0.76378399 -0.54802102 1.905766e-42
-2.38193990 15.17030000 431.19299000 0.35991001 0.73839802 -0.57029301 1.905766e-42
-1.68570010 15.94620000 432.66000000 0.37790999 0.70616299 -0.59876400 1.905766e-42
-1.66249000 17.17849900 433.97198000 0.37069699 0.68075001 -0.63179398 1.905766e-42
-1.58009000 18.40360100 435.28799000 0.34988901 0.69423300 -0.62898099 1.905766e-42
-1.89255000 19.66080100 436.53799000 0.32838300 0.72046101 -0.61081898 1.905766e-42
-2.28729010 20.89410000 437.78799000 0.34717599 0.70234102 -0.62143898 1.905766e-42
-2.37447000 22.11590000 439.10699000 0.37100199 0.66454899 -0.64863902 1.905766e-42
-2.36233000 23.39049900 440.37799000 0.38938800 0.61287200 -0.68757898 1.905766e-42
-2.00113010 24.66130100 441.60001000 0.38272500 0.58870602 -0.71200103 1.905766e-42
-2.28225990 26.10059900 442.64401000 0.37951699 0.58868402 -0.71373498 1.905766e-42
-2.11935000 27.44080000 443.83499000 0.38183600 0.60336101 -0.70011199 1.905766e-42
-0.48327601 27.23970000 444.55801000 0.36355701 0.61590499 -0.69891900 1.905766e-42
1.12286000 27.21660000 445.37000000 0.33868501 0.63310099 -0.69604301 1.905766e-42
2.81830000 27.00939900 445.93799000 0.31740600 0.64665502 -0.69360697 1.905766e-42
4.52987000 26.59009900 446.30499000 0.29746601 0.65424800 -0.69532198 1.905766e-42
6.24032020 26.37459900 446.82300000 0.27416101 0.67071801 -0.68918300 1.905766e-42
7.70995000 26.38789900 447.86200000 0.24638700 0.69625998 -0.67417699 1.905766e-42
9.25121970 25.67510000 447.26501000 0.22434500 0.66572100 -0.71167803 1.905766e-42
10.91340000 25.85630000 447.93100000 0.19260500 0.67876500 -0.70864701 1.905766e-42
12.66330000 25.43770000 447.98199000 0.16853100 0.67067498 -0.72235203 1.905766e-42
14.12620000 24.52870000 447.45901000 0.15878101 0.64397299 -0.74839002 1.905766e-42
15.84410000 24.00550100 447.33600000 0.14852799 0.62834400 -0.76362503 1.905766e-42
17.57390000 23.98920100 447.83301000 0.12892300 0.63073403 -0.76521403 1.905766e-42
18.62900000 22.86840100 446.89999000 0.10106600 0.63118201 -0.76902199 1.905766e-42
20.37660000 22.47909900 446.71500000 0.08485410 0.64320201 -0.76098102 1.905766e-42
22.12470100 22.39270000 447.13501000 0.07525120 0.64708799 -0.75869203 1.905766e-42
23.70229900 21.85000000 446.45901000 0.04780220 0.66578400 -0.74461198 1.905766e-42
25.13320000 21.01020100 445.76099000 0.02041040 0.68667603 -0.72667700 1.905766e-42
26.91770000 20.82220100 445.61899000 -0.00963381 0.69402701 -0.71988499 1.905766e-42
28.71690000 20.87109900 445.59500000 -0.03442790 0.69922101 -0.71407598 1.905766e-42
30.51020100 20.82210000 445.44901000 -0.04467190 0.70910197 -0.70368999 1.905766e-42
32.30770100 20.79840100 445.35599000 -0.05683980 0.71474302 -0.69707400 1.905766e-42
34.01820000 20.56040000 444.84900000 -0.08167730 0.72647601 -0.68232101 1.905766e-42
35.81440000 20.66690100 444.80099000 -0.10452900 0.73380899 -0.67126501 1.905766e-42
