# .PCD v0.7 - Point Cloud Data file format
# 3 60 0
# 1 22 0
# 23 37 1
# 38 60 0
VERSION 0.7
FIELDS x y z normal_x normal_y normal_z curvature
SIZE 4 4 4 4 4 4 4
TYPE F F F F F F F
COUNT 1 1 1 1 1 1 1
WIDTH 60
HEIGHT 1
VIEWPOINT 0 0 0 1 0 0 0
POINTS 60
DATA ascii
17.332701 10.4342 480.27399 0.0088181403 -0.75598699 0.65452701 1.9057659e-42
15.1521 10.3625 480.272 -0.0205647 -0.73355502 0.67931902 1.9057659e-42
13.3993 10.0925 479.965 -0.0554641 -0.72515303 0.68634999 1.9057659e-42
11.6255 10.0271 479.66599 -0.080740698 -0.73181099 0.67670798 1.9057659e-42
9.9703102 9.5325804 479.16 -0.092338003 -0.75065702 0.654208 1.9057659e-42
8.2153101 9.8640203 478.936 -0.118205 -0.73175299 0.671242 1.9057659e-42
6.48208 9.6286402 478.51099 -0.137263 -0.72858 0.671067 1.9057659e-42
4.7354298 9.7924995 478.108 -0.162026 -0.72546202 0.66891903 1.9057659e-42
3.05551 9.5241299 477.51999 -0.18573 -0.73510897 0.65201199 1.9057659e-42
1.30081 9.59443 477.125 -0.219831 -0.723239 0.65467501 1.9057659e-42
-0.40150899 9.63904 476.54199 -0.257296 -0.709768 0.655765 1.9057659e-42
-2.08127 9.7068005 475.89899 -0.287229 -0.69746 0.65654302 1.9057659e-42
-3.74037 10.2709 475.487 -0.303682 -0.68155903 0.66577399 1.9057659e-42
-5.29561 9.9651299 474.634 -0.32766601 -0.68900299 0.64645898 1.9057659e-42
-6.7743502 9.6359997 473.66199 -0.35330099 -0.69393897 0.627397 1.9057659e-42
-8.3300104 10.0212 472.84299 -0.39414099 -0.67250103 0.626414 1.9057659e-42
-9.8261404 9.8032198 471.866 -0.42004901 -0.66676003 0.61562097 1.9057659e-42
-11.2845 10.3595 470.97 -0.45048201 -0.64804202 0.61409003 1.9057659e-42
-12.8227 10.1957 470.04901 -0.439796 -0.636033 0.63406801 1.9057659e-42
-13.8501 9.427 468.78699 -0.40245801 -0.60521901 0.68683201 1.9057659e-42
-14.9519 8.6711502 467.58099 -0.32686701 -0.51103699 0.79498398 1.9057659e-42
-16.532499 8.2551899 466.827 -0.24298599 -0.36875799 0.89720398 1.9057659e-42
-17.693001 7.04599 466.17001 -0.43863899 -0.14147 0.88745803 1.9057659e-42
-17.49 5.32655 465.67801 -0.071878001 -0.287305 0.95513898 1.9057659e-42
-16.5989 3.83077 465.22101 -0.0371783 -0.32234401 0.94589198 1.9057659e-42
-15.8604 2.29568 464.64001 0.0273686 -0.40251601 0.91500401 1.9057659e-42
-14.5825 1.23743 463.94199 0.0720466 -0.46818501 0.88068801 1.9057659e-42
-13.032 0.454261 463.47 0.1148 -0.52216703 0.84508198 1.9057659e-42
-11.9254 -0.55673802 462.47299 0.16252901 -0.58707899 0.793046 1.9057659e-42
-10.8736 -1.49222 461.35101 0.222638 -0.64769 0.72864902 1.9057659e-42
-9.6822901 -2.1951799 460.19901 0.276171 -0.682154 0.67704898 1.9057659e-42
-8.5652399 -2.96697 459.01801 0.318986 -0.70809901 0.62995499 1.9057659e-42
-7.7343602 -3.61783 457.56 0.375599 -0.740327 0.55753201 1.9057659e-42
-6.3572602 -4.0442901 456.48199 0.44870901 -0.75674701 0.475389 1.9057659e-42
-5.79598 -4.5246501 454.84 0.488298 -0.76682401 0.41658801 1.9057659e-42
-5.3117099 -4.8443098 453.13599 0.53792101 -0.77049798 0.34201401 1.9057659e-42
-4.12498 -4.7476702 451.78601 0.57505703 -0.77240402 0.26963201 1.9057659e-42
-2.63134 -3.87377 451.29099 0.56349099 -0.79861099 0.211419 1.9057659e-42
-1.17922 -2.81794 451.42001 0.50832701 -0.83083099 0.226547 1.9057659e-42
0.259215 -1.9108 452.01001 0.40017101 -0.881648 0.25012001 1.9057659e-42
1.8927 -1.15476 452.022 0.260149 -0.94177997 0.213011 1.9057659e-42
2.29491 -0.94452399 453.76401 0.165372 -0.96933699 0.18176299 1.9057659e-42
3.24595 -0.59695703 455.25201 0.073022202 -0.98932999 0.126073 1.9057659e-42
3.61287 -0.240931 456.978 0.0590741 -0.98526299 0.160524 1.9057659e-42
3.7393301 0.0422666 458.75101 0.0221004 -0.97432601 0.224052 1.9057659e-42
4.6719999 0.46848801 460.23001 0.0228869 -0.96940798 0.244385 1.9057659e-42
5.8712902 0.84068698 461.51999 0.043795701 -0.96706998 0.25071499 1.9057659e-42
7.3144498 1.27911 462.50201 0.081238002 -0.96507901 0.249046 1.9057659e-42
8.7732296 1.74701 463.44699 0.111912 -0.96231401 0.24784601 1.9057659e-42
9.5700302 2.21889 464.991 0.0968799 -0.95592898 0.27715501 1.9057659e-42
9.9226303 2.62286 466.70901 0.066369697 -0.94599402 0.31731799 1.9057659e-42
11.2095 3.2288499 467.81201 0.085332498 -0.94332898 0.320701 1.9057659e-42
12.3543 3.79213 469.082 0.102393 -0.93573099 0.33752501 1.9057659e-42
13.7269 4.2256398 470.16299 0.123909 -0.92777902 0.35195699 1.9057659e-42
14.1578 5.0033002 471.728 0.103165 -0.90915698 0.403474 1.9057659e-42
14.5722 5.8770399 473.246 0.082129002 -0.89038801 0.447732 1.9057659e-42
15.4316 6.5278702 474.68701 0.086470097 -0.880023 0.466993 1.9057659e-42
16.185699 7.3584199 476.095 0.081374399 -0.87635797 0.47473699 1.9057659e-42
16.6714 8.2122402 477.603 0.0574665 -0.85544902 0.51468801 1.9057659e-42
17.3326 9.2712698 478.89999 0.035452899 -0.81976599 0.57160002 1.9057659e-42
