# .PCD v0.7 - Point Cloud Data file format
# 3 133 -2
# 1 35 0
# 36 77 0
# 78 133 0
VERSION 0.7
FIELDS x y z normal_x normal_y normal_z curvature
SIZE 4 4 4 4 4 4 4
TYPE F F F F F F F
COUNT 1 1 1 1 1 1 1
WIDTH 133
HEIGHT 1
VIEWPOINT 0 0 0 1 0 0 0
POINTS 133
DATA ascii
36.27249900 -18.49360100 483.06299000 0.14447001 0.67253500 -0.72582698 1.905766e-42
34.70949900 -19.07920100 482.38901000 0.14239800 0.67066699 -0.72796202 1.905766e-42
32.96900200 -18.62060000 482.37701000 0.14201599 0.66584700 -0.73244703 1.905766e-42
31.19829900 -18.31710100 482.26401000 0.13940801 0.66208601 -0.73634702 1.905766e-42
29.41750000 -18.07670000 482.16000000 0.13708000 0.65809900 -0.74034703 1.905766e-42
27.73840000 -17.47090000 482.39099000 0.14482699 0.65340900 -0.74302202 1.905766e-42
25.98170100 -17.07980000 482.36200000 0.15142600 0.64918798 -0.74540299 1.905766e-42
24.19619900 -16.98990100 482.15201000 0.15673700 0.64544201 -0.74755400 1.905766e-42
22.56160000 -17.48950000 481.58801000 0.15945099 0.64267498 -0.74936199 1.905766e-42
20.93030000 -16.72870100 481.59900000 0.16868600 0.63880801 -0.75064600 1.905766e-42
19.15740000 -16.41740000 481.59698000 0.17696200 0.63615298 -0.75099599 1.905766e-42
17.46120100 -15.81530000 481.59000000 0.18446399 0.63430399 -0.75075400 1.905766e-42
15.74210000 -15.28180000 481.57300000 0.19123700 0.63335598 -0.74985898 1.905766e-42
14.23590000 -15.78690000 480.72699000 0.19556101 0.63491899 -0.74741799 1.905766e-42
12.65670000 -16.24410100 479.99399000 0.19696000 0.63651699 -0.74568999 1.905766e-42
10.95250000 -15.66480000 479.99200000 0.19800800 0.63592798 -0.74591500 1.905766e-42
9.21428970 -15.19840000 479.95801000 0.19943400 0.63492101 -0.74639201 1.905766e-42
7.46539020 -15.03330000 479.56601000 0.20088699 0.63424301 -0.74658000 1.905766e-42
5.70689010 -14.71670000 479.34799000 0.20844500 0.63209701 -0.74632698 1.905766e-42
3.95602010 -14.32970000 479.19101000 0.21637900 0.62940103 -0.74634802 1.905766e-42
2.27094010 -13.69690000 479.19199000 0.22463500 0.62582898 -0.74691200 1.905766e-42
0.51200300 -13.62490000 478.81699000 0.23261300 0.62332398 -0.74656498 1.905766e-42
-1.18005000 -13.70170000 478.20801000 0.23833799 0.62167901 -0.74612999 1.905766e-42
-2.91278000 -13.62090000 477.72699000 0.24381500 0.62042397 -0.74540502 1.905766e-42
-4.61917020 -13.62530000 477.15399000 0.24949500 0.62016898 -0.74373603 1.905766e-42
-6.34802010 -13.54290000 476.66000000 0.25555700 0.62055999 -0.74134701 1.905766e-42
-8.07551960 -13.13230000 476.36499000 0.25669500 0.62229502 -0.73949802 1.905766e-42
-9.79905990 -13.02160000 475.85800000 0.25369999 0.62531298 -0.73798400 1.905766e-42
-11.47400000 -13.12360000 475.20599000 0.25107601 0.62844998 -0.73621500 1.905766e-42
-13.09300000 -12.35410000 475.37000000 0.24605300 0.63149703 -0.73530197 1.905766e-42
-14.24440000 -11.11720000 475.98999000 0.23784900 0.63407099 -0.73578602 1.905766e-42
-15.96290000 -10.58330000 475.94699000 0.22452299 0.63777798 -0.73676902 1.905766e-42
-17.70389900 -10.42350000 475.51901000 0.21416201 0.64061600 -0.73739100 1.905766e-42
-17.86540000 -9.91551970 475.92001000 0.21278501 0.64094102 -0.73750699 1.905766e-42
-19.56209900 -9.31723980 475.97699000 0.20429400 0.64301002 -0.73810703 1.905766e-42
-21.10600100 -8.45392040 476.31000000 0.19773000 0.64431399 -0.73875701 1.905766e-42
-21.50589900 -7.12315990 477.45499000 0.19675800 0.64546102 -0.73801500 1.905766e-42
-20.70030000 -5.98090980 478.58899000 0.19927500 0.64611202 -0.73676902 1.905766e-42
-20.38019900 -4.67398020 479.78400000 0.19953600 0.64540601 -0.73731703 1.905766e-42
-20.48430100 -3.30834010 480.95200000 0.19837099 0.64495999 -0.73802102 1.905766e-42
-20.60770000 -1.95132990 482.12900000 0.19700700 0.64459097 -0.73870802 1.905766e-42
-20.69070100 -0.57855898 483.29001000 0.19558200 0.64425600 -0.73937899 1.905766e-42
-20.73250000 0.73474699 484.51999000 0.19443800 0.64277703 -0.74096698 1.905766e-42
-19.74469900 1.77733000 485.60501000 0.19490699 0.63994199 -0.74329299 1.905766e-42
-19.85630000 3.10103990 486.82001000 0.19485199 0.63712901 -0.74572098 1.905766e-42
-19.70140100 4.44267990 488.01001000 0.19550000 0.63443202 -0.74784797 1.905766e-42
-19.40959900 5.78762010 489.17001000 0.19667301 0.63198102 -0.74961299 1.905766e-42
-19.11020100 7.14926000 490.30899000 0.19834501 0.62972897 -0.75106603 1.905766e-42
-19.03319900 8.51031020 491.48401000 0.20064799 0.62598199 -0.75358200 1.905766e-42
-19.09820000 9.89334010 492.63400000 0.20321199 0.62125999 -0.75679702 1.905766e-42
-18.94800000 11.25320000 493.80399000 0.20602800 0.61680901 -0.75967097 1.905766e-42
-17.91589900 12.29890000 494.84399000 0.20900901 0.61434102 -0.76085502 1.905766e-42
-17.41500100 13.55930000 496.02701000 0.21240801 0.61067301 -0.76286399 1.905766e-42
-16.86190000 14.78290000 497.22601000 0.21610500 0.60721701 -0.76458198 1.905766e-42
-15.97900000 15.90680000 498.32001000 0.21943900 0.60225898 -0.76754898 1.905766e-42
-15.86450000 17.28540000 499.47198000 0.22283401 0.59413099 -0.77288598 1.905766e-42
-15.71470000 18.68110100 500.59900000 0.22650400 0.58575398 -0.77819598 1.905766e-42
-15.87290000 20.15740000 501.61600000 0.23141900 0.57621098 -0.78385299 1.905766e-42
-15.62900000 21.56600000 502.70999000 0.23570000 0.56735802 -0.78901899 1.905766e-42
-15.44210000 23.02260000 503.75101000 0.24066000 0.55767602 -0.79440600 1.905766e-42
-14.85890000 24.34480100 504.82401000 0.24398001 0.54859501 -0.79969800 1.905766e-42
-15.14100000 25.83449900 505.79401000 0.24894300 0.53633398 -0.80645698 1.905766e-42
-14.95130000 27.33729900 506.76599000 0.25234300 0.52474898 -0.81299502 1.905766e-42
-14.31530000 28.66000000 507.80899000 0.25489399 0.51437998 -0.81880599 1.905766e-42
-14.08160000 30.10680000 508.85400000 0.25830200 0.50212300 -0.82532001 1.905766e-42
-13.26740000 31.35829900 509.85901000 0.26230001 0.48903799 -0.83188897 1.905766e-42
-12.90700000 32.85269900 510.79501000 0.26643601 0.47184199 -0.84046298 1.905766e-42
-12.78080000 34.34380000 511.79599000 0.26974401 0.45268500 -0.84989101 1.905766e-42
-12.15620000 35.80870100 512.63501000 0.27407399 0.43357000 -0.85842901 1.905766e-42
-11.61550000 37.22499800 513.60498000 0.27846399 0.41269499 -0.86725998 1.905766e-42
-10.76240000 38.59299900 514.40601000 0.28346401 0.39598000 -0.87341201 1.905766e-42
-9.99981020 39.92670100 515.34399000 0.28669399 0.38298401 -0.87813997 1.905766e-42
-8.54463010 40.71170000 516.05499000 0.28968501 0.37302899 -0.88143700 1.905766e-42
-7.54898980 41.91230000 516.95398000 0.28705499 0.36014101 -0.88763601 1.905766e-42
-6.26036980 42.92710100 517.69501000 0.28537399 0.34776101 -0.89309800 1.905766e-42
-5.59529020 44.42279800 518.44397000 0.28239501 0.33234799 -0.89988798 1.905766e-42
-4.62020020 45.73000000 519.20599000 0.28065601 0.31697100 -0.90595901 1.905766e-42
-3.44089010 46.78300100 520.06598000 0.28168800 0.30210999 -0.91070402 1.905766e-42
-1.78410010 46.12570200 520.31702000 0.28680801 0.30425999 -0.90838701 1.905766e-42
-0.10296700 45.57140000 520.64398000 0.28413501 0.31097201 -0.90695298 1.905766e-42
1.58106990 45.55979900 521.27899000 0.28195599 0.31521100 -0.90616900 1.905766e-42
3.21012000 44.79550200 521.32501000 0.27472299 0.33166599 -0.90250999 1.905766e-42
4.85212990 44.65840100 522.04901000 0.27074000 0.34210399 -0.89981401 1.905766e-42
5.95643000 43.31420100 521.58698000 0.25954899 0.36307299 -0.89488101 1.905766e-42
7.44495010 42.30210100 521.59198000 0.25080901 0.38149399 -0.88969499 1.905766e-42
9.02367970 41.43809900 521.62598000 0.24252100 0.39828199 -0.88462102 1.905766e-42
10.67460000 40.72909900 521.73401000 0.23473500 0.41338801 -0.87977803 1.905766e-42
12.42810000 40.54159900 522.09497000 0.22995500 0.42440999 -0.87578398 1.905766e-42
14.02640000 39.71509900 522.14301000 0.22181500 0.43865901 -0.87084800 1.905766e-42
15.59800000 38.83800100 522.16901000 0.21415199 0.45167500 -0.86610001 1.905766e-42
17.16169900 37.95719900 522.03101000 0.20672800 0.46366999 -0.86155301 1.905766e-42
18.46170000 36.77349900 521.64502000 0.19869100 0.47524500 -0.85712498 1.905766e-42
20.20260000 36.62839900 522.07898000 0.19760200 0.48181799 -0.85370100 1.905766e-42
21.81170100 35.82970000 522.19299000 0.19530100 0.49073201 -0.84914100 1.905766e-42
23.29880000 34.95140100 521.68500000 0.19118200 0.50008500 -0.84460902 1.905766e-42
24.66910000 33.82040000 521.39697000 0.18607400 0.51189399 -0.83865398 1.905766e-42
25.61400000 32.36920200 520.90601000 0.17880100 0.52578503 -0.83161300 1.905766e-42
25.98030100 30.96470100 519.84100000 0.17190100 0.53757799 -0.82550597 1.905766e-42
27.09989900 29.68240000 519.25598000 0.17911100 0.54782099 -0.81719702 1.905766e-42
28.30760000 28.47489900 518.68799000 0.19163001 0.55559099 -0.80907202 1.905766e-42
29.66620100 27.36479900 518.28497000 0.20259300 0.56126302 -0.80245900 1.905766e-42
30.34210000 25.95179900 517.39899000 0.20502700 0.56810200 -0.79700899 1.905766e-42
30.63240100 24.47950000 516.40503000 0.20420200 0.57966202 -0.78885603 1.905766e-42
30.38570000 23.07799900 515.30200000 0.19978300 0.59046501 -0.78194499 1.905766e-42
30.28319900 21.58910000 514.29602000 0.19646101 0.60095799 -0.77476001 1.905766e-42
31.15280000 20.06880000 513.88098000 0.19967400 0.60964203 -0.76711601 1.905766e-42
31.02280000 18.90730100 512.51202000 0.19612500 0.61902499 -0.76048899 1.905766e-42
31.22139900 17.55010000 511.34601000 0.19548000 0.62120199 -0.75887799 1.905766e-42
31.37130000 16.20850000 510.15601000 0.19456699 0.62197101 -0.75848198 1.905766e-42
31.21150000 14.88860000 508.94199000 0.19180100 0.62270403 -0.75858599 1.905766e-42
31.50460100 13.46990000 507.87399000 0.19156501 0.62349600 -0.75799400 1.905766e-42
31.97540100 12.09550000 506.81100000 0.19227600 0.62432897 -0.75712800 1.905766e-42
31.94470000 10.71430000 505.65701000 0.19026600 0.62205702 -0.75950301 1.905766e-42
32.00450100 9.30928040 504.53400000 0.18896800 0.61549002 -0.76515502 1.905766e-42
31.98000000 7.88401990 503.43500000 0.18678901 0.60882598 -0.77100003 1.905766e-42
31.76260000 6.50091980 502.30301000 0.18302201 0.60201102 -0.77723002 1.905766e-42
32.16740000 5.09014990 501.26099000 0.18247400 0.59559202 -0.78228801 1.905766e-42
32.75880100 3.66718010 500.33099000 0.18145099 0.58998603 -0.78676099 1.905766e-42
32.64210100 2.20950010 499.28101000 0.17640799 0.59145600 -0.78680402 1.905766e-42
33.36119800 0.82584900 498.38199000 0.17355900 0.59579903 -0.78415602 1.905766e-42
33.58000200 -0.64926100 497.37399000 0.16923900 0.59932500 -0.78241098 1.905766e-42
34.04980100 -2.08591010 496.39700000 0.16539399 0.60305399 -0.78036600 1.905766e-42
34.36759900 -3.55767010 495.41000000 0.16179100 0.60632199 -0.77858698 1.905766e-42
34.33850100 -4.91999010 494.23401000 0.15885399 0.60916400 -0.77697200 1.905766e-42
34.60590000 -6.32979010 493.14801000 0.15660000 0.61345500 -0.77404702 1.905766e-42
35.16659900 -7.76421020 492.21600000 0.15489399 0.61792600 -0.77082700 1.905766e-42
35.16799900 -9.07938000 490.98700000 0.15357900 0.62242198 -0.76746702 1.905766e-42
35.13999900 -10.48370000 489.86099000 0.15266100 0.62733698 -0.76363802 1.905766e-42
35.45510100 -11.88320000 488.77399000 0.15202200 0.63272399 -0.75930899 1.905766e-42
36.03200100 -13.25090000 487.75601000 0.15203901 0.64078701 -0.75251400 1.905766e-42
36.57199900 -14.65390000 486.76599000 0.15264601 0.64814001 -0.74606502 1.905766e-42
36.79530000 -16.03440100 485.63300000 0.15321600 0.65561497 -0.73938799 1.905766e-42
36.61259800 -17.24000000 484.30899000 0.15164100 0.66385698 -0.73232400 1.905766e-42
