# .PCD v0.7 - Point Cloud Data file format
# 2 95 0
# 1 52 0
# 53 95 0
VERSION 0.7
FIELDS x y z normal_x normal_y normal_z curvature
SIZE 4 4 4 4 4 4 4
TYPE F F F F F F F
COUNT 1 1 1 1 1 1 1
WIDTH 95
HEIGHT 1
VIEWPOINT 0 0 0 1 0 0 0
POINTS 95
DATA ascii
15.79290000 22.75989900 384.03299000 0.28355801 -0.84828001 -0.44723099 1.905766e-42
17.53560100 23.20660000 383.97501000 0.25441799 -0.85468501 -0.45253199 1.905766e-42
19.30050100 23.55979900 383.98700000 0.21066201 -0.86531597 -0.45480701 1.905766e-42
21.07020000 23.88909900 383.99200000 0.17758401 -0.87400401 -0.45230600 1.905766e-42
22.83639900 24.23600000 383.98999000 0.14888200 -0.88114202 -0.44880101 1.905766e-42
24.54170000 24.76829900 383.76999000 0.12169000 -0.88625902 -0.44692001 1.905766e-42
26.33510000 24.79480000 383.92200000 0.09772330 -0.89328098 -0.43874699 1.905766e-42
28.13190100 24.88940000 383.97400000 0.06659600 -0.89901799 -0.43281701 1.905766e-42
29.93009900 24.96750100 383.99301000 0.03211150 -0.90409499 -0.42612401 1.905766e-42
31.59750000 25.52269900 383.60400000 -0.00212397 -0.90694499 -0.42124400 1.905766e-42
33.31520100 25.10090100 383.93799000 -0.03286290 -0.91124803 -0.41054600 1.905766e-42
34.39120100 25.03910100 383.97601000 -0.05406000 -0.91219097 -0.40618500 1.905766e-42
35.53469800 24.31119900 385.16000000 -0.07523140 -0.91286898 -0.40126100 1.905766e-42
37.02150000 23.80500000 386.04001000 -0.06816060 -0.91665500 -0.39382499 1.905766e-42
38.30780000 23.22419900 387.15701000 -0.05227050 -0.91867697 -0.39153600 1.905766e-42
38.96200200 22.48780100 388.66299000 -0.04659620 -0.91624302 -0.39790300 1.905766e-42
38.94559900 21.69710000 390.28000000 -0.05413560 -0.91072601 -0.40944701 1.905766e-42
39.71749900 21.00910000 391.75400000 -0.06786500 -0.89903003 -0.43259600 1.905766e-42
40.87540100 20.47710000 393.02499000 -0.07754870 -0.88215399 -0.46453199 1.905766e-42
41.37780000 19.54719900 394.48199000 -0.10042300 -0.87194699 -0.47919101 1.905766e-42
41.49300000 18.64760000 396.03699000 -0.12415200 -0.86572200 -0.48488399 1.905766e-42
42.24739800 17.93450000 397.50699000 -0.09327200 -0.86582100 -0.49158400 1.905766e-42
42.26670100 16.82500100 398.92499000 -0.07267140 -0.86911601 -0.48923999 1.905766e-42
42.98519900 16.00260000 400.35599000 0.01669200 -0.87422401 -0.48523599 1.905766e-42
42.54800000 15.08680000 401.84201000 -0.01196480 -0.86426002 -0.50290197 1.905766e-42
42.39749900 14.27690000 403.44299000 -0.01461580 -0.85459298 -0.51909298 1.905766e-42
41.83169900 13.40710000 404.91299000 -0.05405990 -0.84266800 -0.53571200 1.905766e-42
41.74380100 12.44270000 406.43100000 -0.05386130 -0.83229399 -0.55171198 1.905766e-42
42.24840200 11.56860000 407.92099000 -0.02804400 -0.81043398 -0.58515900 1.905766e-42
43.01639900 10.61410000 409.23999000 -0.01277260 -0.78072000 -0.62475002 1.905766e-42
43.97980100 9.62631990 410.39600000 -0.00916236 -0.74544698 -0.66650200 1.905766e-42
43.28870000 8.27962970 411.37000000 -0.05136620 -0.72486401 -0.68697399 1.905766e-42
43.18600100 6.98574020 412.61700000 -0.08059010 -0.69499302 -0.71448600 1.905766e-42
42.53099800 5.91775990 413.91000000 -0.11301900 -0.70506001 -0.70008397 1.905766e-42
41.57580200 4.97770980 415.11099000 -0.13281700 -0.71558601 -0.68578202 1.905766e-42
40.82400100 4.00403980 416.42499000 -0.13699700 -0.72391200 -0.67615300 1.905766e-42
39.81340000 3.07564000 417.59000000 -0.12347900 -0.72945702 -0.67278898 1.905766e-42
38.74539900 2.13065000 418.68799000 -0.08650960 -0.72923702 -0.67877102 1.905766e-42
37.45819900 1.28047000 419.61600000 -0.01996530 -0.71764803 -0.69612002 1.905766e-42
36.01990100 0.51544100 420.38101000 0.00111432 -0.69610798 -0.71793598 1.905766e-42
35.28850200 -0.65615898 421.53601000 0.02843380 -0.69039202 -0.72287601 1.905766e-42
34.14260100 -1.72754000 422.41800000 0.03780640 -0.67718399 -0.73484200 1.905766e-42
33.08599900 -2.81932000 423.38300000 0.04894690 -0.66446400 -0.74571502 1.905766e-42
32.55509900 -3.99335000 424.64001000 0.08013660 -0.67827702 -0.73042297 1.905766e-42
31.53290000 -5.19755980 425.50299000 0.10285100 -0.67961502 -0.72632301 1.905766e-42
30.37859900 -6.32814980 426.29700000 0.14012700 -0.67510903 -0.72428697 1.905766e-42
29.25970100 -7.48599000 427.10199000 0.18456000 -0.66564500 -0.72308701 1.905766e-42
28.15790000 -8.67253970 427.88800000 0.24213500 -0.64607000 -0.72385401 1.905766e-42
27.25090000 -10.04970000 428.60901000 0.32283601 -0.62197000 -0.71339297 1.905766e-42
26.46450000 -11.36040000 429.56000000 0.42229399 -0.58959299 -0.68851101 1.905766e-42
26.39360000 -12.48380000 430.96500000 0.53469402 -0.59444898 -0.60061002 1.905766e-42
25.99910000 -13.91130000 431.98801000 0.64543903 -0.55912298 -0.52037501 1.905766e-42
25.09280000 -15.44210000 432.26199000 0.69162798 -0.48901600 -0.53152001 1.905766e-42
24.03500000 -16.68269900 431.49899000 0.62111801 -0.42501101 -0.65846598 1.905766e-42
22.50180100 -17.23430100 430.73401000 0.51595998 -0.36940801 -0.77286702 1.905766e-42
20.96730000 -17.10040100 429.80301000 0.47499001 -0.33112800 -0.81531501 1.905766e-42
19.37630100 -17.23430100 428.97198000 0.46871901 -0.30289099 -0.82979500 1.905766e-42
17.81240100 -17.46530000 428.11099000 0.47288600 -0.28810501 -0.83269101 1.905766e-42
16.34600100 -17.20410000 427.10001000 0.48142499 -0.28793001 -0.82784498 1.905766e-42
14.79600000 -17.13410000 426.18799000 0.49725500 -0.29003200 -0.81769103 1.905766e-42
13.47910000 -16.50090000 425.13699000 0.47216800 -0.30653301 -0.82649601 1.905766e-42
12.08480000 -15.97820000 424.12500000 0.42737001 -0.32434601 -0.84389299 1.905766e-42
10.70800000 -15.14260000 423.32199000 0.37942401 -0.34561199 -0.85824800 1.905766e-42
10.94320000 -13.43450000 422.80499000 0.39938000 -0.35419500 -0.84560102 1.905766e-42
11.64420000 -11.85850000 422.29001000 0.42016000 -0.36788401 -0.82953399 1.905766e-42
11.89970000 -10.21000000 421.61401000 0.42018199 -0.39900601 -0.81501001 1.905766e-42
11.96740000 -8.54570960 420.93201000 0.41442999 -0.43138501 -0.80134600 1.905766e-42
11.84120000 -7.01161000 419.99899000 0.40505299 -0.46131599 -0.78937900 1.905766e-42
11.88520000 -5.47346020 419.06500000 0.39622200 -0.48987800 -0.77654898 1.905766e-42
11.85020000 -3.95547010 418.09799000 0.38615701 -0.51612300 -0.76452601 1.905766e-42
11.80400000 -2.47636010 417.07300000 0.37819701 -0.54091901 -0.75124800 1.905766e-42
11.85140000 -0.95014101 416.12000000 0.37292001 -0.56566298 -0.73549801 1.905766e-42
12.30290000 0.42172199 415.04599000 0.36757100 -0.58998400 -0.71889502 1.905766e-42
12.55260000 1.81215000 413.92999000 0.36370701 -0.61377001 -0.70071602 1.905766e-42
12.69890000 3.17799000 412.76700000 0.36151901 -0.63952202 -0.67846501 1.905766e-42
12.72370000 4.55910020 411.61301000 0.36220801 -0.66500598 -0.65312499 1.905766e-42
12.99780000 5.77593990 410.31500000 0.36134800 -0.68945599 -0.62775701 1.905766e-42
12.74980000 6.84701010 408.89001000 0.37086701 -0.71069098 -0.59780997 1.905766e-42
12.73930000 7.97278020 407.48599000 0.37588799 -0.73135000 -0.56906497 1.905766e-42
13.79230000 9.18249030 406.66800000 0.36148801 -0.74560899 -0.55981499 1.905766e-42
14.84860000 10.31460000 405.75000000 0.34529200 -0.76202202 -0.54781002 1.905766e-42
14.99470000 11.53760000 404.43799000 0.34079799 -0.77864802 -0.52684301 1.905766e-42
15.08440000 12.42310000 402.87299000 0.33479601 -0.79427302 -0.50699300 1.905766e-42
14.50330000 13.03410000 401.28299000 0.33570299 -0.80248499 -0.49327701 1.905766e-42
14.43840000 14.00280000 399.76700000 0.32731199 -0.81056601 -0.48564300 1.905766e-42
15.05290000 15.01780000 398.41400000 0.31285301 -0.82184899 -0.47611701 1.905766e-42
15.10510000 16.04789900 396.93799000 0.30770001 -0.83005399 -0.46511400 1.905766e-42
15.13390000 16.81959900 395.31299000 0.30831701 -0.83760101 -0.45096001 1.905766e-42
14.34270000 17.42420000 393.81299000 0.31806901 -0.84314102 -0.43352699 1.905766e-42
13.67240000 17.95179900 392.22800000 0.32370001 -0.84914398 -0.41733900 1.905766e-42
13.21300000 18.62990000 390.62500000 0.32538199 -0.85517299 -0.40349099 1.905766e-42
13.28050000 19.28089900 388.94800000 0.32124999 -0.86218399 -0.39171201 1.905766e-42
12.90720000 19.93310000 387.31299000 0.31632200 -0.86687601 -0.38531399 1.905766e-42
13.46130000 20.67060100 385.76700000 0.30559501 -0.86294502 -0.40241501 1.905766e-42
14.76280000 21.57570100 384.91501000 0.29590699 -0.85565901 -0.42460200 1.905766e-42
