# .PCD v0.7 - Point Cloud Data file format
# 6 170 -2
# 1 16 0
# 17 32 0
# 33 53 0
# 54 74 0
# 75 100 0
# 101 170 0
VERSION 0.7
FIELDS x y z normal_x normal_y normal_z curvature
SIZE 4 4 4 4 4 4 4
TYPE F F F F F F F
COUNT 1 1 1 1 1 1 1
WIDTH 170
HEIGHT 1
VIEWPOINT 0 0 0 1 0 0 0
POINTS 170
DATA ascii
52.41529800 4.38177010 453.11200000 -0.92973399 0.36309099 0.06132350 1.905766e-42
52.17240100 3.16069010 454.41199000 -0.93172801 0.35799301 0.06102360 1.905766e-42
51.87189900 1.57646000 455.21100000 -0.93359202 0.35282701 0.06260550 1.905766e-42
51.22180200 0.75108701 456.67300000 -0.93768901 0.34358701 0.05183830 1.905766e-42
50.70850000 -0.68515903 457.62900000 -0.93542397 0.35136300 0.03906110 1.905766e-42
50.32830000 -2.32811000 458.25800000 -0.92828399 0.37081200 0.02804460 1.905766e-42
49.76860000 -3.63719010 459.35999000 -0.92022699 0.39112300 0.01431690 1.905766e-42
49.07320000 -5.06029990 460.21500000 -0.90950400 0.41565701 0.00558602 1.905766e-42
48.37130000 -6.60613010 460.81299000 -0.89833403 0.43931201 -0.00065250 1.905766e-42
47.59840000 -7.94426010 461.73599000 -0.89315999 0.44971699 -0.00438919 1.905766e-42
47.08540000 -9.56042000 462.34000000 -0.88855600 0.45860201 -0.01231350 1.905766e-42
46.24409900 -11.07500000 463.39301000 -0.88432199 0.46612501 -0.02649140 1.905766e-42
45.46550000 -12.49750000 464.17401000 -0.88114202 0.47063500 -0.04573200 1.905766e-42
44.59109900 -13.71730000 465.16800000 -0.85420102 0.51297402 -0.08484830 1.905766e-42
43.66420000 -14.83760000 466.22900000 -0.81609899 0.56027597 -0.14168100 1.905766e-42
42.64600000 -15.80360000 467.35599000 -0.74748898 0.62235200 -0.23224500 1.905766e-42
41.37049900 -16.51610000 468.40701000 -0.61337000 0.70381302 -0.35836300 1.905766e-42
39.96490100 -17.00140000 469.42200000 -0.42280501 0.76927203 -0.47901601 1.905766e-42
38.63040200 -16.86280100 470.62201000 -0.25139201 0.80496103 -0.53743798 1.905766e-42
36.97290000 -17.00849900 471.30801000 -0.10585800 0.81693900 -0.56692499 1.905766e-42
35.25619900 -16.82040000 471.81601000 -0.00490279 0.82320797 -0.56771898 1.905766e-42
33.46130000 -16.72489900 471.91101000 0.06207500 0.82912397 -0.55560702 1.905766e-42
31.67779900 -16.49469900 471.99100000 0.09589420 0.83987498 -0.53424102 1.905766e-42
29.88290000 -16.35940000 471.99399000 0.08751180 0.85168600 -0.51669300 1.905766e-42
28.50090000 -15.51700000 472.78101000 0.03295630 0.86203200 -0.50578201 1.905766e-42
26.70649900 -15.38360000 472.83200000 -0.01819780 0.85700703 -0.51498401 1.905766e-42
24.92799900 -15.21320000 473.05099000 -0.04472070 0.84688598 -0.52989101 1.905766e-42
23.13030100 -15.23750000 473.13699000 -0.06716880 0.83893502 -0.54007101 1.905766e-42
21.46590000 -14.98880000 473.77600000 -0.08199230 0.83136100 -0.54965001 1.905766e-42
19.74320000 -14.91110000 474.29199000 -0.09812840 0.82530999 -0.55608797 1.905766e-42
18.40730100 -14.48650000 475.42200000 -0.10940800 0.81899399 -0.56327403 1.905766e-42
16.74640100 -14.46230000 476.11499000 -0.12662400 0.81427699 -0.56649703 1.905766e-42
15.23460000 -14.35510000 477.08600000 -0.13063499 0.80689901 -0.57606399 1.905766e-42
15.26640000 -13.18680000 478.45499000 -0.12439200 0.80101103 -0.58558398 1.905766e-42
15.36550000 -11.91860000 479.72800000 -0.11935400 0.79579800 -0.59368402 1.905766e-42
14.90780000 -10.80340000 481.06500000 -0.11642100 0.79046899 -0.60133600 1.905766e-42
14.89290000 -9.53559020 482.34299000 -0.11367700 0.78633797 -0.60724801 1.905766e-42
15.02700000 -8.37141040 483.70901000 -0.11200800 0.78289801 -0.61198401 1.905766e-42
15.84120000 -7.40403990 484.98999000 -0.11175900 0.78029698 -0.61534297 1.905766e-42
15.92300000 -6.41445020 486.49200000 -0.11274400 0.77786499 -0.61823499 1.905766e-42
16.53920000 -5.41565990 487.85599000 -0.11534800 0.77577603 -0.62037599 1.905766e-42
17.94930100 -4.90207000 488.85001000 -0.11773300 0.77280998 -0.62362099 1.905766e-42
18.49910000 -3.86227010 490.21301000 -0.12194700 0.77114701 -0.62486899 1.905766e-42
18.72190100 -2.67755010 491.54999000 -0.12873299 0.76992399 -0.62501502 1.905766e-42
18.54700100 -1.50748000 492.90601000 -0.13925301 0.76919597 -0.62365597 1.905766e-42
18.38520100 -0.33897999 494.26599000 -0.14274999 0.76375401 -0.62952501 1.905766e-42
18.24710100 1.04778000 495.40500000 -0.12539400 0.74582899 -0.65422899 1.905766e-42
17.57729900 2.12491990 496.68201000 -0.09818900 0.72264200 -0.68421298 1.905766e-42
17.45019900 3.30595990 498.03500000 -0.08260300 0.69530702 -0.71394998 1.905766e-42
17.31690000 4.52216010 499.35501000 -0.06842330 0.66325599 -0.74525797 1.905766e-42
17.04859900 5.84115980 500.54999000 -0.05246040 0.62670499 -0.77748901 1.905766e-42
16.76709900 7.17549990 501.72501000 -0.03686450 0.58689702 -0.80882198 1.905766e-42
15.85480000 8.21803000 502.87399000 -0.00386817 0.54943299 -0.83552903 1.905766e-42
14.96050000 9.59589000 503.60999000 0.03138170 0.51010799 -0.85953802 1.905766e-42
13.41320000 10.40470000 504.04800000 0.05966210 0.49993700 -0.86400402 1.905766e-42
11.95530000 11.39840000 504.40399000 0.08016440 0.48822001 -0.86903101 1.905766e-42
10.18970000 11.74130000 504.47501000 0.10291500 0.48588401 -0.86794299 1.905766e-42
8.59605980 10.98010000 504.12701000 0.12002100 0.49949500 -0.85796201 1.905766e-42
6.96227980 11.04410000 503.37399000 0.13239200 0.50494701 -0.85293698 1.905766e-42
5.28069020 11.12270000 502.73700000 0.14006899 0.50860101 -0.84953302 1.905766e-42
3.66501000 10.74060000 502.04099000 0.13948400 0.51656002 -0.84481400 1.905766e-42
1.95441000 10.55580000 501.51300000 0.13375400 0.51499701 -0.84669203 1.905766e-42
0.30886501 11.28100000 501.59201000 0.13637599 0.49823600 -0.85624897 1.905766e-42
-1.43257000 11.73280000 501.64999000 0.14359801 0.48144999 -0.86462998 1.905766e-42
-2.99267010 12.19620000 502.41901000 0.15853800 0.45819101 -0.87460101 1.905766e-42
-4.19829990 13.46080000 502.85101000 0.17795500 0.42873001 -0.88573301 1.905766e-42
-5.88677980 13.87200000 502.38199000 0.19600999 0.41254500 -0.88959903 1.905766e-42
-7.58631990 13.62990000 501.84100000 0.21216001 0.40380400 -0.88990498 1.905766e-42
-9.32522960 13.70440000 501.38199000 0.23514700 0.38797101 -0.89117002 1.905766e-42
-11.03970000 14.17970000 501.10901000 0.26666901 0.36465201 -0.89214098 1.905766e-42
-12.64520000 13.91160000 500.34100000 0.29374400 0.34937900 -0.88974702 1.905766e-42
-14.13710000 14.84630000 499.96600000 0.34108001 0.31811899 -0.88457000 1.905766e-42
-15.40150000 16.11759900 499.80801000 0.37489200 0.30114901 -0.87679303 1.905766e-42
-16.29490100 17.65010100 500.11401000 0.39843601 0.27799001 -0.87405401 1.905766e-42
-17.94220000 18.36529900 499.99200000 0.42044601 0.25304800 -0.87131602 1.905766e-42
-18.59709900 20.04120100 499.94199000 0.43803200 0.20294499 -0.87575197 1.905766e-42
-19.14570000 21.74460000 499.74899000 0.45950100 0.12820099 -0.87887597 1.905766e-42
-19.23530000 23.53910100 499.85800000 0.48908699 0.03258590 -0.87162602 1.905766e-42
-20.03760000 25.10829900 499.49200000 0.52098000 -0.08583650 -0.84924197 1.905766e-42
-21.02689900 26.43600100 498.78601000 0.54826701 -0.19336900 -0.81364101 1.905766e-42
-21.23880000 28.06699900 498.05499000 0.55674100 -0.29730099 -0.77566200 1.905766e-42
-20.88400100 29.64780000 497.26999000 0.54405999 -0.40026501 -0.73741901 1.905766e-42
-20.78300100 31.20630100 496.37500000 0.54389697 -0.46122599 -0.70103300 1.905766e-42
-20.97500000 32.59230000 495.24301000 0.54951400 -0.49115700 -0.67587000 1.905766e-42
-21.37360000 33.93849900 494.11700000 0.55659598 -0.50675702 -0.65833002 1.905766e-42
-21.40300000 35.44400000 493.13101000 0.56456602 -0.51085597 -0.64829898 1.905766e-42
-20.85730000 36.86570000 492.17099000 0.56906599 -0.50758302 -0.64693302 1.905766e-42
-20.64020000 38.39350100 491.24399000 0.57027298 -0.50557399 -0.64744401 1.905766e-42
-20.07990100 39.89540100 490.42499000 0.56663400 -0.51043499 -0.64682502 1.905766e-42
-20.14170100 41.34870100 489.36499000 0.56871802 -0.51750398 -0.63933498 1.905766e-42
-20.71690000 42.60080000 488.20700000 0.57285899 -0.52772999 -0.62716299 1.905766e-42
-20.87130000 44.02550100 487.11801000 0.57446897 -0.54351801 -0.61202401 1.905766e-42
-20.57200100 45.18470000 485.77399000 0.57586700 -0.56295502 -0.59284002 1.905766e-42
-20.25890000 46.46419900 484.54700000 0.57481498 -0.58587599 -0.57125998 1.905766e-42
-20.74070000 47.24580000 482.99899000 0.57775599 -0.60152900 -0.55168903 1.905766e-42
-20.34370000 48.63370100 481.92401000 0.57814801 -0.61402500 -0.53732502 1.905766e-42
-20.43000000 49.89080000 480.63800000 0.58102697 -0.62189198 -0.52503198 1.905766e-42
-19.74920100 51.27690100 479.71301000 0.57705098 -0.62816298 -0.52194202 1.905766e-42
-19.72660100 52.38489900 478.29501000 0.57617903 -0.63072503 -0.51981097 1.905766e-42
-19.09000000 53.68489800 477.22501000 0.56632698 -0.63708502 -0.52287298 1.905766e-42
-18.86340000 54.94960000 475.96399000 0.55708897 -0.64187002 -0.52692902 1.905766e-42
-17.51639900 56.13810000 475.85001000 0.54508197 -0.64617503 -0.53417498 1.905766e-42
-16.08750000 56.95990000 476.57300000 0.53254700 -0.64952701 -0.54268599 1.905766e-42
-14.53940000 57.70500200 477.10999000 0.51077402 -0.65594500 -0.55574000 1.905766e-42
-13.04420000 58.53839900 477.66599000 0.48644099 -0.66218501 -0.56998801 1.905766e-42
-11.54690000 59.47119900 478.02399000 0.45951101 -0.66810000 -0.58522803 1.905766e-42
-9.92724040 60.00669900 478.59900000 0.42760399 -0.67768198 -0.59824902 1.905766e-42
-8.25146010 60.09629800 479.24899000 0.39351401 -0.68970400 -0.60782802 1.905766e-42
-6.69083020 60.27439900 480.12799000 0.35778299 -0.70221698 -0.61553401 1.905766e-42
-5.05510000 60.40290100 480.86899000 0.32042199 -0.71403700 -0.62247998 1.905766e-42
-3.33263990 60.86650100 481.10999000 0.28063700 -0.72360402 -0.63058698 1.905766e-42
-1.64063000 60.99779900 481.70999000 0.24271899 -0.73319203 -0.63523000 1.905766e-42
0.02662960 60.94929900 482.38599000 0.20737100 -0.74104899 -0.63862699 1.905766e-42
1.79839000 61.24620100 482.49899000 0.17180000 -0.74599898 -0.64340502 1.905766e-42
3.45907000 61.07930000 483.17300000 0.13924900 -0.75071198 -0.64578801 1.905766e-42
5.24758010 61.14250200 483.36600000 0.10500300 -0.75363898 -0.64884698 1.905766e-42
6.91206980 60.86949900 483.99500000 0.07189530 -0.75533402 -0.65138400 1.905766e-42
8.71012970 60.95230100 483.98401000 0.03096580 -0.75451797 -0.65554899 1.905766e-42
10.47500000 61.29970200 484.04999000 0.01687730 -0.72816598 -0.68519300 1.905766e-42
11.75430000 60.27339900 484.79199000 -0.02061290 -0.73047900 -0.68262398 1.905766e-42
13.50080000 59.91140000 485.03400000 -0.04963960 -0.71549898 -0.69684899 1.905766e-42
15.11550000 59.33369800 485.58099000 -0.08379600 -0.70754403 -0.70168400 1.905766e-42
16.85950100 58.90819900 485.71399000 -0.11589600 -0.69494498 -0.70966202 1.905766e-42
18.28770100 58.04240000 486.38501000 -0.14982700 -0.69158000 -0.70659000 1.905766e-42
20.02750000 57.58070000 486.38000000 -0.18329000 -0.67988199 -0.71004599 1.905766e-42
21.76670100 57.11700100 486.39700000 -0.22191800 -0.66801202 -0.71029001 1.905766e-42
23.52459900 56.73000000 486.40500000 -0.26164401 -0.65645099 -0.70754099 1.905766e-42
24.54970000 55.34149900 486.91599000 -0.29144400 -0.65200502 -0.69996399 1.905766e-42
26.02750000 54.34310200 487.16000000 -0.32702699 -0.64167100 -0.69376600 1.905766e-42
27.58540000 53.44170000 487.17700000 -0.36243099 -0.62930799 -0.68747002 1.905766e-42
29.09880100 52.46720100 487.17001000 -0.39560801 -0.61598498 -0.68121701 1.905766e-42
30.56500100 51.42300000 487.16199000 -0.42928299 -0.59968299 -0.67534900 1.905766e-42
32.01890200 50.36190000 487.16000000 -0.46535999 -0.58014297 -0.66848701 1.905766e-42
33.47810000 49.31300000 487.05600000 -0.50066698 -0.55984700 -0.66022998 1.905766e-42
34.99919900 48.57939900 486.43301000 -0.53597701 -0.54119903 -0.64794397 1.905766e-42
36.49560200 47.85279800 485.74500000 -0.56950903 -0.52259099 -0.63447499 1.905766e-42
37.94580100 47.05090000 485.04300000 -0.60097700 -0.50353199 -0.62071103 1.905766e-42
39.35129900 46.13480000 484.39001000 -0.63013500 -0.48363301 -0.60747701 1.905766e-42
40.69419900 45.42120000 483.42700000 -0.65804499 -0.46487001 -0.59234601 1.905766e-42
42.04639800 44.65549900 482.51901000 -0.68552297 -0.44409099 -0.57692498 1.905766e-42
43.36380000 44.07669800 481.43799000 -0.71082300 -0.42478099 -0.56061703 1.905766e-42
44.47190100 42.86299900 480.70300000 -0.73599303 -0.39896399 -0.54693902 1.905766e-42
45.62540100 41.78540000 479.83801000 -0.75999898 -0.37317801 -0.53210801 1.905766e-42
46.69350100 40.57140000 479.04700000 -0.78268802 -0.34549701 -0.51771802 1.905766e-42
47.75080100 39.40930200 478.16901000 -0.80399102 -0.31770599 -0.50265300 1.905766e-42
48.67940100 37.98609900 477.57599000 -0.82200599 -0.28974900 -0.49025699 1.905766e-42
49.67050200 36.96540100 476.47299000 -0.83860499 -0.26253900 -0.47729999 1.905766e-42
50.49580000 35.53039900 475.76599000 -0.85565197 -0.22792800 -0.46465901 1.905766e-42
51.32130100 34.08200100 475.08701000 -0.87229103 -0.19047000 -0.45036501 1.905766e-42
52.06269800 32.66339900 474.26401000 -0.88801599 -0.15189999 -0.43399799 1.905766e-42
52.53609800 30.96040000 473.92401000 -0.90268999 -0.11690100 -0.41410801 1.905766e-42
53.13859900 29.54330100 472.99200000 -0.91603303 -0.08310450 -0.39239901 1.905766e-42
53.73000000 28.15850100 472.00601000 -0.92785102 -0.05260040 -0.36922300 1.905766e-42
53.74490000 26.38190100 471.71600000 -0.93971598 -0.03781500 -0.33985901 1.905766e-42
53.97890100 24.70210100 471.11301000 -0.95150501 -0.02492680 -0.30662099 1.905766e-42
54.25680200 23.09870000 470.34399000 -0.96261603 -0.01672760 -0.27035400 1.905766e-42
54.55479800 21.79770100 469.13599000 -0.97171098 -0.00283988 -0.23615600 1.905766e-42
54.87839900 20.47010000 467.96500000 -0.97888303 0.01272490 -0.20402400 1.905766e-42
54.90240100 18.85780000 467.16501000 -0.98128301 0.04745490 -0.18663201 1.905766e-42
55.02600100 17.37299900 466.15500000 -0.98313600 0.07855550 -0.16514400 1.905766e-42
55.14839900 16.27710000 464.73199000 -0.98519897 0.10767600 -0.13337600 1.905766e-42
55.09030200 14.73100000 463.81201000 -0.98382998 0.14093301 -0.11052500 1.905766e-42
54.90319800 13.06960000 463.14499000 -0.98056602 0.17351100 -0.09156360 1.905766e-42
55.40079900 12.55480000 461.49399000 -0.97933400 0.19045800 -0.06804440 1.905766e-42
54.72679900 11.07300000 460.72601000 -0.97406101 0.22067501 -0.05006880 1.905766e-42
54.42839800 9.65944960 459.65201000 -0.96784502 0.24979700 -0.02962750 1.905766e-42
54.25330000 9.07711980 457.95801000 -0.96269900 0.27037400 -0.01043110 1.905766e-42
53.86640200 8.04216960 456.53699000 -0.95501697 0.29643500 0.00835029 1.905766e-42
53.40800100 7.26117990 454.98099000 -0.94692498 0.32047299 0.02509740 1.905766e-42
52.93069800 5.93437000 453.86200000 -0.93731898 0.34578499 0.04319580 1.905766e-42
