# .PCD v0.7 - Point Cloud Data file format
# 5 147 0
# 1 13 0
# 14 84 0
# 85 105 0
# 106 136 0
# 137 147 0
VERSION 0.7
FIELDS x y z normal_x normal_y normal_z curvature
SIZE 4 4 4 4 4 4 4
TYPE F F F F F F F
COUNT 1 1 1 1 1 1 1
WIDTH 147
HEIGHT 1
VIEWPOINT 0 0 0 1 0 0 0
POINTS 147
DATA ascii
16.96710000 0.91107702 436.91800000 0.32200801 0.93775201 -0.13012300 1.905766e-42
15.28740000 1.50353000 436.65799000 0.34671199 0.92975301 -0.12389500 1.905766e-42
13.66930000 2.27285000 436.48499000 0.37464601 0.91955203 -0.11859300 1.905766e-42
12.10320000 3.11840010 436.21600000 0.40507299 0.90731502 -0.11267600 1.905766e-42
10.47520000 3.56797000 435.59399000 0.43640801 0.89356101 -0.10533800 1.905766e-42
10.24250000 3.89010000 435.19000000 0.44097999 0.89132899 -0.10520900 1.905766e-42
8.82719990 4.67056990 435.98199000 0.45149800 0.88617301 -0.10414800 1.905766e-42
7.15181020 5.32778980 435.94800000 0.46241799 0.88047099 -0.10460200 1.905766e-42
5.59887980 6.23718980 435.98599000 0.47521400 0.87350100 -0.10567600 1.905766e-42
4.02787020 7.11108020 436.07700000 0.49237400 0.86348301 -0.10938500 1.905766e-42
2.79555990 7.99381020 437.04700000 0.52239299 0.84341699 -0.12551001 1.905766e-42
1.38805000 9.03549960 437.46399000 0.55561399 0.81901997 -0.14317399 1.905766e-42
-0.08592450 10.06060000 437.59299000 0.58895600 0.79268903 -0.15739800 1.905766e-42
-1.51622000 11.04320000 438.07101000 0.62319100 0.76384997 -0.16782799 1.905766e-42
-2.01389000 11.99740000 439.51401000 0.64581001 0.74403602 -0.17128500 1.905766e-42
-2.82332990 13.01350000 440.76001000 0.67472899 0.71398503 -0.18699200 1.905766e-42
-3.30688000 13.82990000 442.28900000 0.69560701 0.68757200 -0.20826700 1.905766e-42
-3.75688000 14.81890000 443.72501000 0.71276098 0.66277200 -0.22957499 1.905766e-42
-3.99799990 15.77470000 445.23099000 0.72290099 0.64288002 -0.25321901 1.905766e-42
-5.00414990 16.98370000 446.10599000 0.73827797 0.61762297 -0.27108401 1.905766e-42
-5.53122000 18.18770000 447.33600000 0.75488901 0.57218099 -0.32054901 1.905766e-42
-5.57760000 19.45800000 448.60999000 0.76680303 0.52543402 -0.36869001 1.905766e-42
-6.07641980 20.94350100 449.49600000 0.78190702 0.47253200 -0.40661299 1.905766e-42
-6.67707010 22.26890000 450.55499000 0.79445100 0.41984701 -0.43883401 1.905766e-42
-6.30237010 23.49640100 451.81699000 0.80019701 0.38462499 -0.46016201 1.905766e-42
-6.44568010 24.82630000 453.02200000 0.80726099 0.35702601 -0.46996099 1.905766e-42
-5.85099980 26.01530100 454.23499000 0.80884999 0.33489200 -0.48333099 1.905766e-42
-5.67142010 27.41140000 455.35699000 0.81203902 0.30467799 -0.49775901 1.905766e-42
-5.22621010 28.52450000 456.70001000 0.81048298 0.27813900 -0.51551503 1.905766e-42
-5.10625980 29.73840000 458.02399000 0.80915999 0.25462699 -0.52955198 1.905766e-42
-4.10203980 30.31559900 459.40100000 0.79964399 0.24279299 -0.54920101 1.905766e-42
-3.33465000 31.09720000 460.82999000 0.78917003 0.22181199 -0.57272202 1.905766e-42
-2.45346000 31.52059900 462.34100000 0.77672499 0.20416000 -0.59583300 1.905766e-42
-1.46582000 32.21369900 463.67700000 0.76612198 0.18134500 -0.61658001 1.905766e-42
-1.25693000 33.79530000 464.51099000 0.76397300 0.14774400 -0.62810600 1.905766e-42
-0.55416101 34.72650100 465.88101000 0.76954901 0.17469400 -0.61422902 1.905766e-42
0.73491001 34.43019900 467.10199000 0.77121699 0.19100100 -0.60724199 1.905766e-42
1.86726000 34.61589800 468.48901000 0.75976503 0.21847101 -0.61239499 1.905766e-42
3.03706000 34.76820000 469.84900000 0.73629701 0.24175800 -0.63199598 1.905766e-42
4.17248010 35.02270100 471.22198000 0.70845801 0.25682899 -0.65736300 1.905766e-42
5.47412010 35.01919900 472.46500000 0.67379397 0.26435101 -0.69001502 1.905766e-42
6.18638990 36.06720000 473.74399000 0.64327699 0.25617099 -0.72150600 1.905766e-42
7.26199010 36.98450100 474.85800000 0.59965700 0.23720700 -0.76429302 1.905766e-42
8.29207040 37.96419900 475.96201000 0.54960102 0.22334900 -0.80501801 1.905766e-42
9.44814010 38.87519800 476.99799000 0.50962299 0.22175100 -0.83133101 1.905766e-42
10.75250000 39.69810100 477.92599000 0.49745801 0.22528000 -0.83772600 1.905766e-42
12.29460000 39.70069900 478.85501000 0.48938400 0.22583100 -0.84232098 1.905766e-42
13.88590000 39.67979800 479.69601000 0.48241699 0.22896500 -0.84548700 1.905766e-42
15.40700000 39.97440000 480.61200000 0.47693500 0.23720101 -0.84632701 1.905766e-42
16.92320100 40.27159900 481.53601000 0.47236699 0.24543400 -0.84654099 1.905766e-42
18.29000100 40.86780200 482.54401000 0.46579000 0.25323001 -0.84788799 1.905766e-42
19.70400000 41.50130100 483.45999000 0.43173099 0.25550500 -0.86505800 1.905766e-42
21.36310000 41.18590200 484.08301000 0.39506099 0.25364700 -0.88294399 1.905766e-42
22.94960000 41.34349800 484.91800000 0.35682201 0.24948500 -0.90024197 1.905766e-42
24.62400100 41.52389900 485.55399000 0.31820801 0.24316400 -0.91630501 1.905766e-42
26.07810000 42.22020000 486.35400000 0.28120801 0.23088300 -0.93145901 1.905766e-42
27.79250000 42.34940000 486.88699000 0.24339899 0.22122300 -0.94436097 1.905766e-42
29.42210000 41.59109900 486.98401000 0.21040800 0.22496600 -0.95137697 1.905766e-42
31.03290000 42.27000000 487.41400000 0.17070200 0.21231300 -0.96217698 1.905766e-42
31.78920000 43.83509800 487.88101000 0.15086000 0.18939200 -0.97024298 1.905766e-42
33.44720100 44.46329900 488.19101000 0.11401300 0.18158600 -0.97674298 1.905766e-42
35.23099900 44.65100100 488.34201000 0.07292150 0.18477599 -0.98007202 1.905766e-42
36.85200100 45.34289900 488.70801000 0.03673200 0.18618800 -0.98182702 1.905766e-42
38.64939900 45.42520100 488.65399000 -0.00730012 0.20088901 -0.97958702 1.905766e-42
40.44300100 45.57550000 488.67099000 -0.04005300 0.21758699 -0.97521901 1.905766e-42
42.07730100 44.87850200 488.38199000 -0.07953330 0.23553100 -0.96860701 1.905766e-42
43.86539800 44.79399900 488.19400000 -0.11731300 0.24857999 -0.96148098 1.905766e-42
45.64429900 44.78620100 487.91901000 -0.15548301 0.25863400 -0.95337999 1.905766e-42
47.40420200 44.78920000 487.54099000 -0.19390699 0.26583800 -0.94431400 1.905766e-42
49.04420100 44.25059900 487.03101000 -0.23106000 0.27114001 -0.93439502 1.905766e-42
50.75130100 43.97900000 486.52899000 -0.27334899 0.27271900 -0.92244500 1.905766e-42
52.41949800 43.69360000 485.91599000 -0.31762600 0.27288800 -0.90810001 1.905766e-42
54.00970100 43.23580200 485.20801000 -0.36175701 0.27179101 -0.89177400 1.905766e-42
55.67390100 43.79869800 484.81601000 -0.40651801 0.26846400 -0.87331003 1.905766e-42
57.26720000 43.91009900 483.98599000 -0.45333901 0.26434201 -0.85123801 1.905766e-42
58.80559900 43.95080200 483.05200000 -0.49815801 0.25823799 -0.82773900 1.905766e-42
60.10960000 43.28640000 482.00500000 -0.52705902 0.24715000 -0.81309599 1.905766e-42
61.59619900 43.15060000 480.99899000 -0.52199000 0.24952801 -0.81563598 1.905766e-42
63.16190000 43.17369800 480.11099000 -0.50680202 0.25045300 -0.82487899 1.905766e-42
64.67579700 43.17779900 479.13699000 -0.49094099 0.24563600 -0.83584702 1.905766e-42
66.17170000 43.03640000 478.14600000 -0.47530901 0.23602100 -0.84757000 1.905766e-42
67.76190200 43.05910100 477.30301000 -0.46242800 0.22606800 -0.85735202 1.905766e-42
69.17949700 42.94160100 476.20001000 -0.46886000 0.24893899 -0.84746701 1.905766e-42
70.87300100 42.56650200 475.71899000 -0.48787099 0.28754100 -0.82419801 1.905766e-42
72.58960000 42.39279900 475.20599000 -0.50832301 0.32172200 -0.79881299 1.905766e-42
73.59459700 41.47660100 474.02701000 -0.54113501 0.36982900 -0.75524801 1.905766e-42
74.28730000 40.34220100 472.81299000 -0.57349801 0.41303799 -0.70745999 1.905766e-42
74.86669900 39.18909800 471.55801000 -0.59906203 0.43810999 -0.67021197 1.905766e-42
74.46240200 37.67739900 470.66901000 -0.60543799 0.43103400 -0.66907001 1.905766e-42
74.92379800 36.56950000 469.32700000 -0.61947602 0.42607999 -0.65932202 1.905766e-42
75.02600100 35.24060100 468.11700000 -0.62974501 0.41974199 -0.65363401 1.905766e-42
75.32389800 34.02600100 466.82300000 -0.64149201 0.41335300 -0.64624101 1.905766e-42
75.86090100 32.82310100 465.59601000 -0.65546298 0.41177601 -0.63309503 1.905766e-42
76.35839800 31.47010000 464.51801000 -0.66517103 0.41567501 -0.62029201 1.905766e-42
76.20310200 30.01050000 463.47601000 -0.66574401 0.42561200 -0.61289400 1.905766e-42
76.59110300 28.83470000 462.17001000 -0.66869098 0.43616500 -0.60217297 1.905766e-42
76.68160200 27.44380000 461.03101000 -0.66456902 0.45406801 -0.59343898 1.905766e-42
76.84629800 26.13640000 459.80499000 -0.65823197 0.47426701 -0.58463800 1.905766e-42
77.14140300 24.92320100 458.50800000 -0.65073597 0.49524999 -0.57555997 1.905766e-42
77.35859700 23.79840100 457.12000000 -0.64104903 0.51850897 -0.56586599 1.905766e-42
77.98560300 22.89580000 455.69400000 -0.63106698 0.53830600 -0.55855203 1.905766e-42
78.07990300 21.84900100 454.23300000 -0.61613500 0.56550300 -0.54825401 1.905766e-42
78.37439700 20.77129900 452.82199000 -0.59771401 0.59006703 -0.54273301 1.905766e-42
79.33999600 19.82830000 451.63101000 -0.57611299 0.60785300 -0.54645002 1.905766e-42
80.11109900 19.04640000 450.20401000 -0.54436499 0.62771899 -0.55645001 1.905766e-42
79.99539900 17.84800000 448.86600000 -0.50783801 0.66243899 -0.55070299 1.905766e-42
78.73700000 16.90410000 447.99100000 -0.50002903 0.69176298 -0.52099502 1.905766e-42
77.52770200 15.77390000 447.28400000 -0.49811900 0.70658302 -0.50261199 1.905766e-42
76.04440300 14.75730000 447.20401000 -0.51212800 0.71268201 -0.47938499 1.905766e-42
74.69239800 13.56920000 447.18500000 -0.52588803 0.71492898 -0.46078101 1.905766e-42
73.36460100 12.36810000 447.00000000 -0.53851098 0.71475601 -0.44624001 1.905766e-42
72.28479800 11.06090000 446.39499000 -0.54468697 0.71521801 -0.43792701 1.905766e-42
70.77950300 10.07410000 446.39099000 -0.54560298 0.72515899 -0.42007300 1.905766e-42
69.67759700 8.79662990 445.76300000 -0.51069200 0.75401098 -0.41311100 1.905766e-42
68.17440000 7.82282020 445.58499000 -0.47902101 0.78237402 -0.39803201 1.905766e-42
66.61070300 6.93144990 445.56201000 -0.45056799 0.80693901 -0.38188800 1.905766e-42
65.26010100 5.89579010 444.97601000 -0.42140800 0.82988399 -0.36566100 1.905766e-42
63.71400100 4.99712990 444.77100000 -0.39709699 0.84816402 -0.35061699 1.905766e-42
62.13900000 4.13054990 444.67999000 -0.37465400 0.86315203 -0.33853200 1.905766e-42
60.49940100 3.38993000 444.62201000 -0.35067600 0.87788397 -0.32610700 1.905766e-42
58.79550200 2.82607010 444.75800000 -0.32893699 0.89026302 -0.31501001 1.905766e-42
57.13620000 2.41949010 445.32501000 -0.31131500 0.89830399 -0.31005499 1.905766e-42
55.36550100 2.17138000 445.53299000 -0.29142001 0.90710598 -0.30370000 1.905766e-42
53.92380100 1.27467000 444.93500000 -0.26964700 0.91938502 -0.28639400 1.905766e-42
52.16210200 0.90589398 444.91599000 -0.24942499 0.92716599 -0.27955499 1.905766e-42
50.43479900 0.41482699 444.79300000 -0.22369000 0.93589401 -0.27215001 1.905766e-42
48.72420100 0.02698850 444.38800000 -0.19808400 0.94425303 -0.26296100 1.905766e-42
47.00360100 -0.44263101 444.14600000 -0.17192900 0.95068800 -0.25813401 1.905766e-42
45.23070100 -0.74879599 444.20300000 -0.14430600 0.95469099 -0.26027000 1.905766e-42
43.52450200 -0.96591699 444.73300000 -0.11623200 0.95595598 -0.26951501 1.905766e-42
41.89670200 -0.91349298 445.50000000 -0.08987940 0.95546103 -0.28109699 1.905766e-42
40.29760000 -0.83812201 446.32300000 -0.06357450 0.95491701 -0.28998500 1.905766e-42
38.63740200 -0.83267802 447.01801000 -0.03258310 0.95577902 -0.29227400 1.905766e-42
37.07300200 -0.41107699 447.80301000 -0.00675951 0.95571798 -0.29420701 1.905766e-42
35.45640200 -0.11742800 448.53799000 0.01917450 0.95613599 -0.29229400 1.905766e-42
33.67670100 0.01586880 448.77200000 0.05166270 0.95810699 -0.28171399 1.905766e-42
31.94220000 -0.03949590 448.29300000 0.08878190 0.96040899 -0.26406801 1.905766e-42
30.36930100 -0.01067670 447.41901000 0.12514700 0.96122098 -0.24575000 1.905766e-42
29.17429900 -0.19351000 446.08499000 0.15277800 0.96136099 -0.22900601 1.905766e-42
27.84359900 -0.32312199 444.88000000 0.17324300 0.96104300 -0.21536601 1.905766e-42
26.48220100 -0.44723499 443.70901000 0.19314100 0.95993501 -0.20303100 1.905766e-42
24.99390000 -0.16751900 442.73599000 0.21341600 0.95795399 -0.19177400 1.905766e-42
24.08300000 -0.19283301 441.18399000 0.22976901 0.95622599 -0.18121301 1.905766e-42
23.49700000 -0.34433201 439.48801000 0.24339999 0.95453602 -0.17209500 1.905766e-42
21.86850000 -0.11385500 438.75699000 0.26336399 0.95114601 -0.16112100 1.905766e-42
20.17180100 0.41540700 438.47198000 0.28169599 0.94758302 -0.15077400 1.905766e-42
18.56180000 0.73724002 437.73499000 0.30092499 0.94338500 -0.13952900 1.905766e-42
