# .PCD v0.7 - Point Cloud Data file format
# 4 106 0
# 1 28 0
# 29 54 0
# 55 92 0
# 93 106 0
VERSION 0.7
FIELDS x y z normal_x normal_y normal_z curvature
SIZE 4 4 4 4 4 4 4
TYPE F F F F F F F
COUNT 1 1 1 1 1 1 1
WIDTH 106
HEIGHT 1
VIEWPOINT 0 0 0 1 0 0 0
POINTS 106
DATA ascii
-9.52484990 -3.98526000 462.38300000 -0.37053499 -0.77933198 0.50531697 1.905766e-42
-7.50612020 -4.48448990 463.50299000 -0.34146500 -0.78670698 0.51428902 1.905766e-42
-6.13193990 -4.30608990 464.65201000 -0.31712699 -0.79004198 0.52465600 1.905766e-42
-4.93587020 -4.02874990 465.96799000 -0.29194099 -0.79205501 0.53611499 1.905766e-42
-3.69036010 -3.62775990 467.20401000 -0.26445201 -0.79237902 0.54972798 1.905766e-42
-2.11652990 -3.35528990 468.03400000 -0.22561400 -0.79653698 0.56091702 1.905766e-42
-0.72294700 -2.93740010 469.09399000 -0.19107600 -0.79304200 0.57842499 1.905766e-42
0.69256198 -2.51584010 470.12299000 -0.15963501 -0.79222500 0.58898002 1.905766e-42
2.05835010 -2.00720000 471.17899000 -0.13059500 -0.79223597 0.59607702 1.905766e-42
3.35630010 -1.45330000 472.29700000 -0.10311800 -0.79152298 0.60237700 1.905766e-42
4.46365020 -0.67492503 473.48300000 -0.08069140 -0.78963602 0.60824698 1.905766e-42
6.02323010 -0.18994600 474.23999000 -0.04659240 -0.79067200 0.61046398 1.905766e-42
7.34462020 0.51888603 475.23599000 -0.01955160 -0.78996301 0.61284298 1.905766e-42
9.04687980 1.02016000 475.53699000 0.01321470 -0.78901201 0.61423600 1.905766e-42
10.20010000 1.68823000 476.74701000 0.03651910 -0.78743398 0.61531597 1.905766e-42
11.45590000 2.52775000 477.72601000 0.06194470 -0.78551400 0.61573601 1.905766e-42
12.77910000 3.42959000 478.54800000 0.08868130 -0.78301501 0.61564797 1.905766e-42
14.48590000 3.99693990 478.47900000 0.11920100 -0.77742100 0.61758202 1.905766e-42
15.95070000 4.74475000 479.20999000 0.14761899 -0.77182901 0.61845702 1.905766e-42
17.21089900 5.51037980 480.24301000 0.17462300 -0.76595402 0.61872500 1.905766e-42
18.68429900 6.30214980 480.90799000 0.20445099 -0.75817400 0.61917001 1.905766e-42
20.13200000 7.21553990 481.46399000 0.23449899 -0.74976200 0.61876303 1.905766e-42
21.81740000 7.83734990 481.57700000 0.26516199 -0.73764199 0.62094599 1.905766e-42
23.25219900 8.79977040 482.08200000 0.29478499 -0.72701597 0.62012100 1.905766e-42
24.86599900 9.57808020 482.25601000 0.32519099 -0.71254700 0.62171400 1.905766e-42
26.46270000 10.40870000 482.27802000 0.35785499 -0.69686002 0.62155098 1.905766e-42
27.99570100 11.34480000 482.39499000 0.39284801 -0.68135399 0.61759800 1.905766e-42
29.50670100 12.32300000 482.39999000 0.42883700 -0.66437101 0.61213499 1.905766e-42
30.79700100 13.55780000 482.62500000 0.46363801 -0.65040100 0.60167903 1.905766e-42
31.11030000 14.89430000 483.78900000 0.48104501 -0.65107298 0.58711100 1.905766e-42
31.23880000 16.09070000 485.12799000 0.48870701 -0.65714800 0.57386500 1.905766e-42
31.38920000 17.34450000 486.41000000 0.49446300 -0.66254503 0.56261897 1.905766e-42
31.24570100 18.41000000 487.85400000 0.49483100 -0.66763002 0.55624801 1.905766e-42
30.48340000 19.05069900 489.35400000 0.48785800 -0.67540002 0.55301899 1.905766e-42
30.60269900 20.26479900 490.67700000 0.49689499 -0.67429501 0.54628003 1.905766e-42
31.01490000 21.64310100 491.75900000 0.51069802 -0.66854799 0.54058301 1.905766e-42
30.86870000 22.64170100 493.25000000 0.51858801 -0.66800600 0.53369898 1.905766e-42
30.67569900 23.60689900 494.75699000 0.52630699 -0.66816902 0.52588099 1.905766e-42
30.39500000 24.55040000 496.26401000 0.52674598 -0.68166697 0.50780702 1.905766e-42
30.19179900 25.61790100 497.69800000 0.53054702 -0.69646603 0.48317099 1.905766e-42
29.87599900 26.27400000 499.34500000 0.53065199 -0.71208400 0.45972300 1.905766e-42
28.84740100 26.40620000 500.81601000 0.51709801 -0.72862399 0.44912899 1.905766e-42
28.80970000 27.31080100 502.37201000 0.52027899 -0.73807400 0.42960101 1.905766e-42
28.79940000 28.21130000 503.92999000 0.52495003 -0.74493998 0.41169301 1.905766e-42
28.79270000 29.06090000 505.51700000 0.52778101 -0.75002301 0.39863899 1.905766e-42
28.74980000 29.87690000 507.12100000 0.53132701 -0.75413603 0.38596699 1.905766e-42
28.63839900 30.57880000 508.77499000 0.53500998 -0.75851202 0.37205300 1.905766e-42
28.68600100 31.37179900 510.39001000 0.54080200 -0.76189601 0.35643801 1.905766e-42
28.61100000 32.06959900 512.04700000 0.54403597 -0.76560998 0.34331501 1.905766e-42
28.77479900 32.91420000 513.62799000 0.55038798 -0.76649302 0.33100000 1.905766e-42
28.82620000 33.65930200 515.26599000 0.55587000 -0.76782799 0.31851199 1.905766e-42
28.79649900 34.30680100 516.94501000 0.55280900 -0.77086002 0.31650800 1.905766e-42
28.83650000 35.09740100 518.56201000 0.54230499 -0.77481699 0.32490399 1.905766e-42
28.52750000 35.76829900 520.20300000 0.52676702 -0.78290403 0.33102500 1.905766e-42
27.21340000 35.07180000 521.21698000 0.48955700 -0.79979300 0.34736899 1.905766e-42
25.92560000 34.01929900 520.52899000 0.46912500 -0.80507499 0.36300999 1.905766e-42
24.79210100 33.08070000 519.49200000 0.45385700 -0.80860400 0.37439799 1.905766e-42
24.10920000 31.89690000 518.32098000 0.44206601 -0.81135100 0.38247600 1.905766e-42
22.72220000 31.06900000 517.52698000 0.42162400 -0.82005602 0.38696399 1.905766e-42
21.91449900 29.94829900 516.37299000 0.40485901 -0.82840401 0.38708699 1.905766e-42
20.65099900 29.03310000 515.47498000 0.38109100 -0.83985400 0.38654199 1.905766e-42
19.44590000 28.11410000 514.50403000 0.36019999 -0.84738600 0.39011800 1.905766e-42
18.60290000 27.03330000 513.33698000 0.34525701 -0.85209799 0.39335299 1.905766e-42
17.46340000 26.07099900 512.33002000 0.32414100 -0.85744500 0.39965001 1.905766e-42
16.48580000 25.18020100 511.10901000 0.30678901 -0.86073798 0.40621501 1.905766e-42
14.92430000 24.52459900 510.49899000 0.27616900 -0.86758900 0.41354501 1.905766e-42
13.97700000 23.53160100 509.33401000 0.25496101 -0.87156200 0.41877800 1.905766e-42
12.83730000 22.68650100 508.22601000 0.22941500 -0.87588400 0.42449501 1.905766e-42
11.70470000 21.83560000 507.11600000 0.20297900 -0.87956297 0.43031299 1.905766e-42
10.14600000 21.39240100 506.33200000 0.17113100 -0.88556600 0.43184200 1.905766e-42
9.05595970 20.53270000 505.18600000 0.14336100 -0.88753301 0.43787301 1.905766e-42
7.79167990 19.79960100 504.13599000 0.11907500 -0.88813102 0.44389600 1.905766e-42
6.69988010 18.99519900 502.95200000 0.09512680 -0.88564903 0.45450699 1.905766e-42
5.43143990 18.27829900 501.89499000 0.07080890 -0.88434702 0.46143001 1.905766e-42
4.40750980 17.52879900 500.61899000 0.04588490 -0.87941003 0.47384799 1.905766e-42
2.97009990 16.99370000 499.67599000 0.02048180 -0.87873203 0.47687599 1.905766e-42
1.46412000 16.62560100 498.76199000 -0.00759532 -0.87835902 0.47793999 1.905766e-42
0.45170200 15.79090000 497.53000000 -0.03654180 -0.87294900 0.48644000 1.905766e-42
-1.03840010 15.54410000 496.55099000 -0.06819110 -0.87206602 0.48461401 1.905766e-42
-2.15001010 14.77940000 495.35901000 -0.09736940 -0.86628503 0.48997000 1.905766e-42
-3.48452000 14.31770000 494.24301000 -0.12906601 -0.86150998 0.49106300 1.905766e-42
-4.97836020 14.12940000 493.25699000 -0.16372700 -0.85687000 0.48884299 1.905766e-42
-6.06428000 13.48050000 491.97601000 -0.19428700 -0.84924001 0.49096301 1.905766e-42
-7.66653010 13.53920000 491.15799000 -0.23438600 -0.84433699 0.48182800 1.905766e-42
-9.00055030 13.38220000 489.95999000 -0.27009201 -0.83689803 0.47608000 1.905766e-42
-10.02580000 12.73610000 488.62900000 -0.29757801 -0.82912898 0.47327900 1.905766e-42
-10.85160000 12.20320000 487.12100000 -0.32097599 -0.82244301 0.46963999 1.905766e-42
-12.17140000 12.03960000 485.90799000 -0.35151699 -0.81488103 0.46087301 1.905766e-42
-13.80000000 12.71890000 485.55200000 -0.37987900 -0.80821598 0.44997600 1.905766e-42
-15.03150000 12.55820000 484.24899000 -0.39973199 -0.79962301 0.44812700 1.905766e-42
-16.13810000 12.26790000 482.85999000 -0.41677901 -0.79215902 0.44584700 1.905766e-42
-17.05150000 11.90830000 481.35101000 -0.43105200 -0.78631002 0.44261700 1.905766e-42
-17.94380000 11.65790000 479.80801000 -0.44455200 -0.78203398 0.43680301 1.905766e-42
-17.12870000 10.49710000 478.70001000 -0.44153899 -0.78207803 0.43976900 1.905766e-42
-16.51530100 9.39470010 477.41599000 -0.44142601 -0.78075498 0.44222701 1.905766e-42
-15.95230000 8.32312010 476.08301000 -0.43752301 -0.77788103 0.45108101 1.905766e-42
-15.66540000 7.33350990 474.60800000 -0.43389201 -0.77361602 0.46179599 1.905766e-42
-15.06680000 6.24863000 473.30200000 -0.42981100 -0.76846403 0.47405201 1.905766e-42
-14.57470000 5.23718020 471.89700000 -0.42789400 -0.76147801 0.48688501 1.905766e-42
-13.87420000 3.94663000 470.85599000 -0.42218101 -0.75628603 0.49979401 1.905766e-42
-13.17620000 2.73492000 469.72198000 -0.41889000 -0.74862498 0.51389802 1.905766e-42
-12.56970000 1.55313000 468.50699000 -0.41628999 -0.74112600 0.52672201 1.905766e-42
-11.88650000 0.38313600 467.32199000 -0.41215000 -0.73722303 0.53538197 1.905766e-42
-11.41730000 -0.76713699 466.01999000 -0.41058701 -0.73592597 0.53836000 1.905766e-42
-10.45580000 -2.03373000 465.17599000 -0.39502501 -0.74809003 0.53321302 1.905766e-42
-9.81050970 -3.22121000 463.98801000 -0.37919900 -0.76500201 0.52055699 1.905766e-42
