# .PCD v0.7 - Point Cloud Data file format
# 5 138 0
# 1 51 0
# 52 68 0
# 69 103 0
# 104 117 0
# 118 138 0
VERSION 0.7
FIELDS x y z normal_x normal_y normal_z curvature
SIZE 4 4 4 4 4 4 4
TYPE F F F F F F F
COUNT 1 1 1 1 1 1 1
WIDTH 138
HEIGHT 1
VIEWPOINT 0 0 0 1 0 0 0
POINTS 138
DATA ascii
37.14970000 33.21279900 498.42401000 0.27825600 -0.48659500 0.82813001 1.905766e-42
35.45060000 33.33100100 499.00699000 0.26586699 -0.48311299 0.83421600 1.905766e-42
33.71870000 32.86790100 499.16800000 0.25290799 -0.48400801 0.83771902 1.905766e-42
32.29589800 31.76530100 499.17801000 0.24021700 -0.49173501 0.83695400 1.905766e-42
30.54500000 31.47290000 499.47601000 0.21908800 -0.49770600 0.83921999 1.905766e-42
28.92180100 30.69540000 499.45001000 0.19536600 -0.50594598 0.84014899 1.905766e-42
27.16280000 30.31870100 499.51401000 0.17261600 -0.51014501 0.84258902 1.905766e-42
25.57210000 29.80680100 499.57599000 0.15343601 -0.51407701 0.84390903 1.905766e-42
23.95570000 29.02860100 499.42801000 0.13543600 -0.52016997 0.84325600 1.905766e-42
22.28260000 28.38290000 499.27399000 0.11797200 -0.52604198 0.84223700 1.905766e-42
20.48910000 28.51709900 499.20001000 0.10058600 -0.52758700 0.84352499 1.905766e-42
18.73100100 28.19430000 499.41199000 0.08128680 -0.53111100 0.84339398 1.905766e-42
16.99000000 27.73950000 499.45700000 0.06198130 -0.53614098 0.84184998 1.905766e-42
15.19440000 27.61800000 499.42401000 0.04252200 -0.53966999 0.84080201 1.905766e-42
13.49380000 27.07420000 499.19601000 0.02323380 -0.54683298 0.83692002 1.905766e-42
11.72220000 27.33890000 499.37399000 0.00519144 -0.54803503 0.83643901 1.905766e-42
9.92780970 27.37200000 499.23599000 -0.01344490 -0.55283302 0.83318299 1.905766e-42
8.12845040 27.34950100 499.19400000 -0.03379900 -0.55844897 0.82884997 1.905766e-42
6.33877990 27.18680000 499.09100000 -0.05552070 -0.56492901 0.82326901 1.905766e-42
4.55100010 27.17840000 498.88101000 -0.07741990 -0.57069099 0.81750703 1.905766e-42
2.76455000 27.20360000 498.66199000 -0.09966100 -0.57576501 0.81151801 1.905766e-42
0.98005903 27.34050000 498.47101000 -0.12201200 -0.57958400 0.80572599 1.905766e-42
-0.78991997 27.14430000 498.20801000 -0.14532501 -0.58331198 0.79914200 1.905766e-42
-2.57585000 27.18390100 497.98700000 -0.16740200 -0.58490801 0.79363698 1.905766e-42
-4.31344990 27.29369900 497.53101000 -0.18719900 -0.58612400 0.78829902 1.905766e-42
-6.04153010 27.45920000 497.05499000 -0.20752800 -0.58691901 0.78259701 1.905766e-42
-7.74591020 27.26680000 496.50900000 -0.22834200 -0.58808702 0.77589500 1.905766e-42
-9.48293970 27.40379900 496.05701000 -0.24970500 -0.58788800 0.76943803 1.905766e-42
-11.02070000 26.90090000 495.26801000 -0.26983300 -0.58891302 0.76182097 1.905766e-42
-12.68770000 27.20450000 494.66101000 -0.29171300 -0.58732802 0.75494999 1.905766e-42
-14.35060000 26.97010000 494.01300000 -0.30915201 -0.58778101 0.74762201 1.905766e-42
-15.89680000 26.67079900 493.14099000 -0.32805601 -0.58985299 0.73786998 1.905766e-42
-17.42919900 26.39360000 492.23901000 -0.34844100 -0.59223300 0.72653198 1.905766e-42
-18.98640100 26.42310000 491.33600000 -0.36988300 -0.59406799 0.71433198 1.905766e-42
-20.29200000 25.83470000 490.24600000 -0.39064500 -0.59479100 0.70258099 1.905766e-42
-21.71260100 25.49430100 489.19400000 -0.41212401 -0.59326798 0.69151002 1.905766e-42
-23.29460000 25.99440000 488.49600000 -0.43012899 -0.59270400 0.68094897 1.905766e-42
-24.69380000 25.62529900 487.42599000 -0.44721001 -0.58806700 0.67392898 1.905766e-42
-26.15449900 25.57690000 486.37500000 -0.46548399 -0.58220601 0.66660398 1.905766e-42
-27.41460000 25.20410000 485.14499000 -0.48295701 -0.57327503 0.66189802 1.905766e-42
-28.89550000 25.34009900 484.13101000 -0.50182003 -0.57128000 0.64947301 1.905766e-42
-30.04400100 24.88579900 482.82101000 -0.51690203 -0.57541800 0.63380301 1.905766e-42
-31.38419900 24.80250000 481.62201000 -0.53471202 -0.57460201 0.61960900 1.905766e-42
-32.81480000 25.09429900 480.57001000 -0.55361700 -0.56974697 0.60736799 1.905766e-42
-34.13090100 25.34590000 479.36801000 -0.57007402 -0.56735301 0.59424400 1.905766e-42
-35.35409900 25.17900100 478.05801000 -0.58423603 -0.56825697 0.57944202 1.905766e-42
-36.62839900 25.11319900 476.78799000 -0.59838003 -0.56835198 0.56472802 1.905766e-42
-37.69649900 24.80160000 475.37299000 -0.61127299 -0.56939399 0.54966903 1.905766e-42
-38.89090000 24.77619900 474.02701000 -0.62477899 -0.56962198 0.53402501 1.905766e-42
-40.06900000 25.21349900 472.73801000 -0.63809901 -0.56881398 0.51892197 1.905766e-42
-41.27920200 25.17690100 471.40601000 -0.65046602 -0.56830901 0.50390399 1.905766e-42
-41.56219900 24.13950000 469.96301000 -0.65468800 -0.57075399 0.49560401 1.905766e-42
-40.95430000 22.77860100 468.95401000 -0.64784801 -0.58015501 0.49367300 1.905766e-42
-40.17490000 21.33770000 468.20801000 -0.63632798 -0.59524399 0.49068499 1.905766e-42
-39.38579900 19.88250000 467.50101000 -0.62273997 -0.61762500 0.48034799 1.905766e-42
-38.38190100 18.42090000 467.19101000 -0.60801101 -0.63871300 0.47156000 1.905766e-42
-37.38760000 17.08230000 466.51300000 -0.59469402 -0.65890199 0.46063900 1.905766e-42
-36.48600000 15.73530000 465.73099000 -0.58290100 -0.67742199 0.44869399 1.905766e-42
-35.57490200 14.44620000 464.86600000 -0.57476801 -0.68622798 0.44579399 1.905766e-42
-34.98230000 13.26150000 463.64700000 -0.57013100 -0.68935901 0.44691700 1.905766e-42
-34.12870000 12.04680000 462.62900000 -0.56392503 -0.69381499 0.44789401 1.905766e-42
-33.13660000 10.67210000 462.02399000 -0.55588001 -0.70000702 0.44831601 1.905766e-42
-32.23099900 9.38012030 461.15799000 -0.54573399 -0.71131802 0.44294599 1.905766e-42
-31.43350000 8.15713980 460.10501000 -0.53352600 -0.72768700 0.43107000 1.905766e-42
-30.36960000 6.91118000 459.35901000 -0.51944000 -0.74449599 0.41941500 1.905766e-42
-29.31590100 5.73050020 458.50201000 -0.50492698 -0.76126099 0.40685400 1.905766e-42
-28.39090000 4.59105010 457.45999000 -0.49361601 -0.77066803 0.40300599 1.905766e-42
-27.17880100 3.43780990 456.79599000 -0.48484799 -0.77297598 0.40918401 1.905766e-42
-26.41780100 2.42217990 455.51901000 -0.48040900 -0.77122498 0.41763499 1.905766e-42
-24.97430000 1.36990000 455.29800000 -0.47179300 -0.77313602 0.42387700 1.905766e-42
-23.46159900 0.39786100 455.21500000 -0.46276599 -0.77554297 0.42939600 1.905766e-42
-21.87970000 -0.23201400 455.79901000 -0.45293701 -0.78068799 0.43055201 1.905766e-42
-20.28710000 -1.05128000 455.97900000 -0.44310299 -0.78325701 0.43608299 1.905766e-42
-18.70430000 -1.63304000 456.60800000 -0.43289500 -0.78946900 0.43513301 1.905766e-42
-17.08729900 -2.40234990 456.79099000 -0.42193401 -0.79321897 0.43906099 1.905766e-42
-15.54220000 -3.32578990 456.79199000 -0.40456000 -0.79917598 0.44457600 1.905766e-42
-13.88500000 -3.95832990 457.09799000 -0.37993500 -0.80944401 0.44771600 1.905766e-42
-12.15950000 -4.33692980 457.44299000 -0.35585701 -0.81941998 0.44935200 1.905766e-42
-10.54840000 -4.28739980 458.24399000 -0.33474001 -0.82850498 0.44891900 1.905766e-42
-8.79469010 -4.66536000 458.39099000 -0.31123599 -0.83597201 0.45197600 1.905766e-42
-7.28902010 -5.61159990 458.67001000 -0.28928900 -0.84242803 0.45456299 1.905766e-42
-5.59186980 -6.17178010 458.45599000 -0.26685399 -0.84875202 0.45651901 1.905766e-42
-3.90214990 -6.45486020 459.00800000 -0.23607001 -0.85524398 0.46133301 1.905766e-42
-2.28378010 -6.52175000 459.79300000 -0.20744000 -0.85968298 0.46681201 1.905766e-42
-0.51954502 -6.86624000 459.88699000 -0.17732900 -0.86518800 0.46904600 1.905766e-42
1.24805000 -7.16270020 460.05301000 -0.14788300 -0.86976898 0.47077900 1.905766e-42
2.97991990 -7.20410010 460.54199000 -0.12020600 -0.87219501 0.47415900 1.905766e-42
4.74963000 -7.22283980 460.87000000 -0.09295000 -0.87420702 0.47657400 1.905766e-42
6.52739000 -7.49500990 460.79599000 -0.07421840 -0.87749302 0.47381201 1.905766e-42
8.32627010 -7.43170020 460.79800000 -0.05742140 -0.88030100 0.47092700 1.905766e-42
10.12440000 -7.51375010 460.79501000 -0.03955400 -0.88370901 0.46636301 1.905766e-42
11.92240000 -7.59114980 460.76099000 -0.02079340 -0.88751799 0.46030399 1.905766e-42
13.72170000 -7.63306000 460.79099000 -0.00162884 -0.89132702 0.45335901 1.905766e-42
15.52140000 -7.60104990 460.78299000 0.01806740 -0.89533103 0.44503501 1.905766e-42
17.31880000 -7.50514980 460.79199000 0.03762420 -0.89925301 0.43580699 1.905766e-42
19.10990000 -7.32642980 460.79199000 0.05589350 -0.90212798 0.42783299 1.905766e-42
20.90730100 -7.22965000 460.79501000 0.07349530 -0.90375698 0.42168999 1.905766e-42
22.58379900 -6.95204020 461.38901000 0.08824010 -0.90061402 0.42556801 1.905766e-42
24.36400000 -6.74467990 461.55600000 0.10529700 -0.89804697 0.42711201 1.905766e-42
25.99250000 -6.72841980 460.78900000 0.11963900 -0.89992601 0.41930899 1.905766e-42
27.77920000 -6.51031020 460.79901000 0.13538601 -0.89534098 0.42430499 1.905766e-42
29.55330100 -6.20781990 460.76999000 0.15108800 -0.88909698 0.43206400 1.905766e-42
31.33250000 -5.93552020 460.78799000 0.16820601 -0.88063699 0.44292700 1.905766e-42
33.09230000 -5.55692010 460.78601000 0.18725100 -0.86961901 0.45683700 1.905766e-42
34.55469900 -4.85087010 461.56299000 0.21396400 -0.85413897 0.47398999 1.905766e-42
35.04900000 -3.81401990 462.94901000 0.23526800 -0.84265000 0.48434499 1.905766e-42
35.75799900 -2.85800000 464.29901000 0.25471500 -0.83200598 0.49283499 1.905766e-42
36.68820200 -1.85845010 465.47198000 0.27355599 -0.82311702 0.49764001 1.905766e-42
37.21690000 -0.95098299 466.93399000 0.27876699 -0.81905901 0.50142902 1.905766e-42
37.90029900 0.09233180 468.23099000 0.28025800 -0.80782801 0.51852697 1.905766e-42
38.79970200 1.17796000 469.35101000 0.28847599 -0.79340100 0.53600001 1.905766e-42
39.91949800 2.25038000 470.26501000 0.30173999 -0.77864200 0.55015397 1.905766e-42
41.04859900 3.34419990 471.14200000 0.31560299 -0.76336998 0.56361401 1.905766e-42
42.25650000 4.43548010 471.91000000 0.33032399 -0.74866498 0.57479298 1.905766e-42
43.80979900 5.31709000 472.13300000 0.34798300 -0.73677897 0.57971102 1.905766e-42
45.43989900 6.06869980 471.99899000 0.36505601 -0.72722101 0.58127803 1.905766e-42
46.92200100 7.09015990 471.99600000 0.38045001 -0.71485502 0.58671999 1.905766e-42
47.62789900 8.23906040 473.18799000 0.38918501 -0.69744903 0.60174698 1.905766e-42
47.31800100 9.28172970 474.62299000 0.38783500 -0.68488801 0.61685699 1.905766e-42
46.85960000 10.30260000 476.03201000 0.38280299 -0.67458200 0.63119000 1.905766e-42
46.66650000 11.47500000 477.38501000 0.37932700 -0.66277897 0.64562798 1.905766e-42
46.41899900 12.72720000 478.65399000 0.37664801 -0.65063202 0.65940499 1.905766e-42
45.66910200 13.62950000 480.01901000 0.36942101 -0.64140803 0.67240202 1.905766e-42
45.31430100 14.81190000 481.32901000 0.36728001 -0.62985700 0.68438703 1.905766e-42
44.96780000 16.05069900 482.58801000 0.36589101 -0.62165099 0.69258398 1.905766e-42
44.55799900 17.29299900 483.82401000 0.36279899 -0.61389500 0.70107800 1.905766e-42
43.64300200 18.10640000 485.14401000 0.35348299 -0.60853601 0.71044701 1.905766e-42
43.42030000 19.46610100 486.30200000 0.35014501 -0.59996599 0.71933299 1.905766e-42
43.11200000 20.80400100 487.46600000 0.34446001 -0.58836901 0.73155302 1.905766e-42
42.58089800 21.97200000 488.72900000 0.33650601 -0.57675302 0.74439198 1.905766e-42
41.82519900 23.01950100 489.98199000 0.32722101 -0.56535703 0.75716400 1.905766e-42
41.64120100 24.52389900 490.95300000 0.32353401 -0.55272198 0.76800001 1.905766e-42
41.02930100 25.72410000 492.14700000 0.31779799 -0.54608101 0.77511299 1.905766e-42
40.20909900 26.82630000 493.31000000 0.31049100 -0.53886300 0.78308499 1.905766e-42
39.56470100 28.07580000 494.43399000 0.30420601 -0.52976000 0.79171503 1.905766e-42
39.23329900 29.49020000 495.49701000 0.29941300 -0.51579899 0.80268502 1.905766e-42
38.95769900 31.03260000 496.38300000 0.29544300 -0.50129700 0.81327403 1.905766e-42
38.41949800 32.35170000 497.48300000 0.28954101 -0.49096999 0.82165402 1.905766e-42
