# .PCD v0.7 - Point Cloud Data file format
# 5 166 0
# 1 18 0
# 19 38 0
# 39 85 0
# 86 124 0
# 125 166 0
VERSION 0.7
FIELDS x y z normal_x normal_y normal_z curvature
SIZE 4 4 4 4 4 4 4
TYPE F F F F F F F
COUNT 1 1 1 1 1 1 1
WIDTH 166
HEIGHT 1
VIEWPOINT 0 0 0 1 0 0 0
POINTS 166
DATA ascii
6.28259990 -4.21173000 467.17700000 -0.47434399 0.81316602 -0.33728001 1.905766e-42
4.65925980 -4.96345000 466.97800000 -0.49402401 0.79950398 -0.34166399 1.905766e-42
4.17799000 -5.65760990 466.39700000 -0.50391501 0.79222101 -0.34417301 1.905766e-42
2.69627000 -6.34049990 467.15701000 -0.51999903 0.77983397 -0.34851101 1.905766e-42
1.23093000 -7.13709020 467.83401000 -0.53489602 0.76644701 -0.35558999 1.905766e-42
-0.21503399 -7.91950990 468.56699000 -0.54349798 0.75651598 -0.36372200 1.905766e-42
-1.65725990 -8.68387990 469.32599000 -0.52036601 0.77702701 -0.35418499 1.905766e-42
-3.16192010 -9.17358020 470.18399000 -0.49555001 0.79214001 -0.35629201 1.905766e-42
-4.61497020 -9.59877010 471.15701000 -0.46309701 0.80132800 -0.37869999 1.905766e-42
-5.94843010 -9.64352990 472.36600000 -0.43323800 0.80182999 -0.41154999 1.905766e-42
-7.48790980 -9.92940040 473.25400000 -0.39900401 0.80694097 -0.43547899 1.905766e-42
-9.09900000 -10.30550000 473.96301000 -0.36480299 0.81244600 -0.45480701 1.905766e-42
-10.53910000 -10.32530000 475.04199000 -0.33475101 0.80941600 -0.48247999 1.905766e-42
-12.21280000 -10.97280000 475.18100000 -0.30532801 0.81810403 -0.48732001 1.905766e-42
-13.84570000 -11.00660000 475.93799000 -0.27775100 0.81551898 -0.50772297 1.905766e-42
-15.53340000 -11.20880000 476.53000000 -0.24962001 0.81380099 -0.52480203 1.905766e-42
-17.23550000 -11.75050000 476.75299000 -0.22321600 0.81573403 -0.53362298 1.905766e-42
-18.88719900 -11.74620000 477.46799000 -0.19433001 0.80869597 -0.55519998 1.905766e-42
-20.50560000 -11.66740000 478.25201000 -0.16470200 0.79958498 -0.57752597 1.905766e-42
-21.30920000 -10.70790000 479.54599000 -0.14280400 0.78141302 -0.60745502 1.905766e-42
-22.66340100 -10.19680000 480.61600000 -0.11126100 0.76399499 -0.63555598 1.905766e-42
-23.53260000 -9.20744040 481.84299000 -0.08508430 0.74137002 -0.66568100 1.905766e-42
-24.23720000 -8.08395960 483.06000000 -0.06215060 0.71750998 -0.69376999 1.905766e-42
-24.97200000 -6.93346020 484.23300000 -0.03979420 0.69312400 -0.71971899 1.905766e-42
-25.48570100 -5.63551000 485.37000000 -0.02169700 0.66806901 -0.74378300 1.905766e-42
-25.87260100 -4.31575010 486.53101000 -0.00699164 0.64284402 -0.76596600 1.905766e-42
-26.57560000 -3.12231990 487.67999000 0.01161320 0.61613399 -0.78755599 1.905766e-42
-27.37120100 -1.72516000 488.48999000 0.03046510 0.58806098 -0.80824202 1.905766e-42
-28.58250000 -0.55999601 489.13400000 0.05100490 0.56115901 -0.82613498 1.905766e-42
-30.05579900 0.31827700 489.67999000 0.06831310 0.53707302 -0.84076500 1.905766e-42
-31.12570000 1.63241000 490.28699000 0.08793960 0.50019199 -0.86143798 1.905766e-42
-32.11240000 3.00298000 490.91000000 0.10710900 0.46217901 -0.88029402 1.905766e-42
-33.74449900 3.70922990 491.18799000 0.12232400 0.43367100 -0.89273000 1.905766e-42
-34.81900000 5.05136010 491.72101000 0.13951699 0.39546099 -0.90782499 1.905766e-42
-35.63750100 6.53958990 492.31699000 0.15696099 0.35720399 -0.92074299 1.905766e-42
-36.65110000 8.00420000 492.57700000 0.16722400 0.32792100 -0.92978698 1.905766e-42
-37.84009900 9.34772970 492.72299000 0.17737900 0.29672399 -0.93834502 1.905766e-42
-38.27759900 11.07220000 492.99600000 0.19542500 0.26288700 -0.94482797 1.905766e-42
-38.91199900 12.73560000 493.26199000 0.21817800 0.22471100 -0.94968599 1.905766e-42
-37.89339800 14.05400000 493.94299000 0.23675700 0.21562700 -0.94733900 1.905766e-42
-36.77080200 15.27720000 494.63800000 0.25359401 0.21235800 -0.94371301 1.905766e-42
-35.54169800 16.32880000 495.42801000 0.26809400 0.21569800 -0.93893498 1.905766e-42
-33.80690000 16.67690100 495.75900000 0.27028599 0.23705000 -0.93314099 1.905766e-42
-32.62340200 17.88200000 496.38101000 0.28798801 0.24168900 -0.92663300 1.905766e-42
-31.20520000 18.78620000 497.02200000 0.30188400 0.25664499 -0.91815001 1.905766e-42
-29.88830000 19.81780100 497.68701000 0.31919801 0.27238601 -0.90770000 1.905766e-42
-28.77650100 21.02389900 498.42801000 0.33807901 0.28266400 -0.89766598 1.905766e-42
-27.59320100 22.09810100 499.25601000 0.35350099 0.29504400 -0.88768601 1.905766e-42
-26.55820100 23.23609900 500.19101000 0.36943701 0.30405101 -0.87810498 1.905766e-42
-25.47100100 24.33029900 501.11801000 0.38431099 0.31184500 -0.86894101 1.905766e-42
-24.21380000 25.18740100 502.07999000 0.39660400 0.32103500 -0.86002398 1.905766e-42
-23.12579900 26.29789900 502.98700000 0.41040000 0.32564399 -0.85177898 1.905766e-42
-22.16690100 27.47270000 503.95700000 0.42667300 0.32956100 -0.84222299 1.905766e-42
-20.66220100 28.06889900 504.74500000 0.43878800 0.34112501 -0.83132303 1.905766e-42
-19.29760000 28.72640000 505.71701000 0.45171201 0.35174000 -0.81989902 1.905766e-42
-18.50910000 29.93700000 506.79099000 0.46860501 0.35434899 -0.80922598 1.905766e-42
-17.23880000 30.67860000 507.82800000 0.48230600 0.36267301 -0.79740101 1.905766e-42
-16.17470000 31.56300000 508.98001000 0.49720001 0.36746100 -0.78597999 1.905766e-42
-14.95780000 32.26530100 510.10501000 0.50861597 0.37220499 -0.77638501 1.905766e-42
-13.84290000 33.08129900 511.25800000 0.51757801 0.37405899 -0.76954103 1.905766e-42
-12.47040000 33.45640200 512.36102000 0.52299601 0.38232499 -0.76177597 1.905766e-42
-11.50060000 34.36869800 513.57202000 0.53346401 0.38399601 -0.75363398 1.905766e-42
-10.01470000 34.28739900 514.58502000 0.53390300 0.39956900 -0.74517900 1.905766e-42
-8.88049980 35.04710000 515.75800000 0.54281402 0.40665299 -0.73483801 1.905766e-42
-8.00732990 36.08400000 516.94202000 0.55546099 0.41126600 -0.72271901 1.905766e-42
-6.72629020 36.67580000 518.06000000 0.56121898 0.42430800 -0.71063101 1.905766e-42
-5.80156990 37.41529800 519.41602000 0.56944901 0.43311000 -0.69867301 1.905766e-42
-4.95280980 38.24580000 520.76801000 0.57819003 0.43999800 -0.68709397 1.905766e-42
-3.62105990 38.27940000 521.97900000 0.57768101 0.45487100 -0.67777300 1.905766e-42
-2.47130990 38.75090000 523.28101000 0.58165199 0.46435100 -0.66787601 1.905766e-42
-0.97213602 38.38579900 524.20801000 0.57691300 0.48047301 -0.66054201 1.905766e-42
0.25232801 38.76950100 525.46997000 0.58013302 0.48834100 -0.65189600 1.905766e-42
1.51218000 38.75600100 526.75598000 0.58173698 0.49867401 -0.64257801 1.905766e-42
2.91896010 38.35920000 527.80603000 0.57954800 0.51294398 -0.63325602 1.905766e-42
4.18345020 38.41820100 529.08600000 0.58205098 0.52276897 -0.62283999 1.905766e-42
5.50304990 38.37960100 530.31000000 0.58355302 0.53369802 -0.61207199 1.905766e-42
6.93291000 38.32730100 531.40198000 0.58416098 0.54548901 -0.60099697 1.905766e-42
8.22669980 38.52430000 532.63800000 0.58773601 0.55426401 -0.58937103 1.905766e-42
9.46918960 38.52690100 533.94000000 0.58849800 0.56386602 -0.57941800 1.905766e-42
10.65260000 38.42890200 535.29303000 0.58205998 0.57262200 -0.57732999 1.905766e-42
11.95860000 38.17340100 536.50500000 0.57396400 0.58311200 -0.57493103 1.905766e-42
13.04010000 38.26800200 537.94098000 0.57016402 0.58903199 -0.57267201 1.905766e-42
14.48370000 38.19360000 539.01300000 0.56306499 0.59837198 -0.57000798 1.905766e-42
15.99600000 37.89970000 539.94397000 0.55472302 0.60858899 -0.56736398 1.905766e-42
17.19910000 38.08079900 541.27100000 0.55172700 0.61488700 -0.56348097 1.905766e-42
18.65160000 37.74369800 542.27899000 0.55019301 0.62428802 -0.55457401 1.905766e-42
19.62450000 36.35450000 541.67603000 0.54077899 0.63291502 -0.55405599 1.905766e-42
20.61400000 34.99969900 541.02399000 0.53108799 0.64495498 -0.54952598 1.905766e-42
21.51260000 33.65070000 540.24103000 0.52052802 0.66061199 -0.54096401 1.905766e-42
22.32930000 32.32210200 539.34198000 0.50884998 0.68056703 -0.52716202 1.905766e-42
23.37719900 31.05990000 538.60199000 0.49779701 0.70058000 -0.51125997 1.905766e-42
24.20940000 29.77850000 537.65002000 0.48690799 0.71962702 -0.49503401 1.905766e-42
25.34730000 28.55480000 536.98102000 0.47711101 0.73632199 -0.47978699 1.905766e-42
26.16750000 27.40580000 535.86401000 0.46881601 0.75301600 -0.46171299 1.905766e-42
26.36879900 26.31710100 534.44501000 0.44993800 0.77215397 -0.44870299 1.905766e-42
27.60920000 25.23609900 533.71503000 0.43580100 0.79181403 -0.42791200 1.905766e-42
28.89119900 24.20389900 532.98602000 0.42036599 0.81082100 -0.40726101 1.905766e-42
30.04600000 23.17090000 532.07001000 0.40147099 0.82942301 -0.38843101 1.905766e-42
31.28750000 22.07679900 531.36200000 0.38095599 0.84688300 -0.37102801 1.905766e-42
32.25759900 21.21710000 530.11298000 0.36086500 0.86229497 -0.35527900 1.905766e-42
33.52209900 20.38170100 529.14203000 0.33632699 0.87732100 -0.34233299 1.905766e-42
35.11190000 19.61640000 528.78601000 0.29982200 0.89103901 -0.34081700 1.905766e-42
36.57379900 18.90730100 528.01099000 0.26701000 0.90430498 -0.33307299 1.905766e-42
37.66410100 18.17799900 526.77802000 0.24345800 0.91514999 -0.32129100 1.905766e-42
39.34030200 17.66570100 526.36798000 0.21137600 0.92325503 -0.32081300 1.905766e-42
41.06790200 17.16029900 526.36298000 0.18120800 0.92929900 -0.32181701 1.905766e-42
42.35060100 16.61870000 525.22302000 0.16121300 0.93598503 -0.31295899 1.905766e-42
43.12459900 16.00060100 523.71997000 0.15010400 0.94228703 -0.29927099 1.905766e-42
44.21839900 15.40420000 522.41998000 0.13459000 0.94887203 -0.28552899 1.905766e-42
45.55600000 14.91860000 521.31799000 0.11209400 0.95692003 -0.26784199 1.905766e-42
47.12260100 14.45720000 520.56097000 0.09020380 0.96276700 -0.25483999 1.905766e-42
48.41659900 14.11410000 519.35797000 0.07556920 0.96880603 -0.23601900 1.905766e-42
49.95510100 13.79220000 518.48102000 0.06308960 0.97303498 -0.22186100 1.905766e-42
51.57320000 13.49450000 517.75098000 0.05599310 0.97606200 -0.21016300 1.905766e-42
53.05920000 13.15520000 516.79303000 0.04897080 0.98074502 -0.18905300 1.905766e-42
54.70150000 12.91710000 516.09601000 0.04286910 0.98440301 -0.17062700 1.905766e-42
56.47950000 12.65690000 515.99103000 0.03924260 0.98620802 -0.16079099 1.905766e-42
58.10290100 12.52410000 515.22498000 0.03186130 0.99026400 -0.13550299 1.905766e-42
59.72930100 12.39200000 514.46503000 0.01850140 0.99433303 -0.10469100 1.905766e-42
60.69680000 12.28830000 512.95001000 0.02745100 0.99518502 -0.09408760 1.905766e-42
60.80070100 12.20130000 511.15601000 0.03503570 0.99566603 -0.08615330 1.905766e-42
60.75360100 12.13760000 509.35699000 0.04274940 0.99587297 -0.08005410 1.905766e-42
60.87279900 12.10920000 507.56100000 0.05197850 0.99577200 -0.07574230 1.905766e-42
61.50070200 11.85110000 505.89401000 0.06354940 0.99516797 -0.07484880 1.905766e-42
61.49420200 11.74650000 504.09698000 0.07517700 0.99476999 -0.06914820 1.905766e-42
60.31399900 11.57840000 502.74899000 0.07726820 0.99539000 -0.05681180 1.905766e-42
58.90779900 11.41160000 501.63800000 0.07903100 0.99590999 -0.04378710 1.905766e-42
57.13740200 11.73380000 501.59601000 0.07473350 0.99666297 -0.03281610 1.905766e-42
55.67179900 11.94850000 500.57300000 0.07845710 0.99675399 -0.01804510 1.905766e-42
54.15950000 11.88890000 499.59900000 0.04999590 0.99831700 -0.02937800 1.905766e-42
52.43159900 12.29480000 499.29901000 0.02289000 0.99902302 -0.03779760 1.905766e-42
50.74470100 12.31970000 498.67200000 -0.00301673 0.99892598 -0.04623310 1.905766e-42
49.17240100 12.13630000 497.81500000 -0.02664270 0.99815202 -0.05461190 1.905766e-42
47.57720200 11.82410000 497.04099000 -0.04932930 0.99685800 -0.06196970 1.905766e-42
45.79779800 11.65930000 496.82599000 -0.07244420 0.99520200 -0.06576430 1.905766e-42
44.00780100 11.47360000 496.78601000 -0.09352800 0.99341398 -0.06619550 1.905766e-42
42.82130100 11.22400000 495.45599000 -0.10106200 0.99235499 -0.07084160 1.905766e-42
41.20280100 11.20360000 494.66901000 -0.11194100 0.99106097 -0.07257470 1.905766e-42
39.43149900 11.07040000 494.37799000 -0.12362500 0.98975199 -0.07147300 1.905766e-42
37.81919900 10.67910000 493.67899000 -0.12524401 0.98866600 -0.08278070 1.905766e-42
36.21519900 10.30450000 492.95401000 -0.12742600 0.98740900 -0.09373180 1.905766e-42
34.43880100 10.05900000 492.79901000 -0.12385200 0.98615402 -0.11028100 1.905766e-42
32.81610100 9.90466980 492.03500000 -0.12990101 0.98392898 -0.12250900 1.905766e-42
31.22139900 9.69336990 491.22699000 -0.14148000 0.98035902 -0.13740601 1.905766e-42
29.44230100 9.43221000 491.14801000 -0.14459400 0.97674400 -0.15831600 1.905766e-42
27.83770000 8.93072030 490.50400000 -0.15457900 0.97255403 -0.17390700 1.905766e-42
26.35400000 8.45211980 489.60501000 -0.16713201 0.96814001 -0.18647000 1.905766e-42
24.81870100 7.91625980 488.83301000 -0.17801701 0.96341801 -0.20033699 1.905766e-42
23.16300000 7.52391000 488.24600000 -0.18599500 0.95840502 -0.21648400 1.905766e-42
21.40860000 7.18569990 488.02701000 -0.18928599 0.95315897 -0.23592199 1.905766e-42
20.13120100 6.42801000 487.01001000 -0.20396200 0.94787699 -0.24480200 1.905766e-42
18.40270000 6.19287010 486.56601000 -0.21135500 0.94160903 -0.26210999 1.905766e-42
16.91500100 5.59405990 485.74899000 -0.22495900 0.93515098 -0.27365401 1.905766e-42
15.57020000 4.91827010 484.76199000 -0.24149500 0.92879200 -0.28111601 1.905766e-42
14.43920000 4.13273000 483.60300000 -0.26094699 0.92304999 -0.28264099 1.905766e-42
13.02320000 3.66458010 482.59500000 -0.27872100 0.91623998 -0.28778201 1.905766e-42
11.98130000 2.85496000 481.37000000 -0.30246899 0.90936500 -0.28560001 1.905766e-42
11.52380000 2.14578010 479.78000000 -0.32929501 0.90496099 -0.26946399 1.905766e-42
10.57300000 1.39937000 478.44699000 -0.35464799 0.89715397 -0.26332200 1.905766e-42
10.31310000 0.85194403 476.75201000 -0.38224199 0.89190900 -0.24163800 1.905766e-42
10.38860000 0.37789899 475.01700000 -0.40890101 0.88700497 -0.21452500 1.905766e-42
10.14330000 -0.15004200 473.31400000 -0.41207200 0.87687999 -0.24754401 1.905766e-42
9.42136000 -0.78180999 471.79099000 -0.42320400 0.86248600 -0.27751800 1.905766e-42
8.85783960 -1.53834000 470.25800000 -0.43533301 0.84757400 -0.30348599 1.905766e-42
8.58547970 -2.65120010 468.86899000 -0.44356400 0.83677202 -0.32103601 1.905766e-42
7.97691010 -3.80644010 467.63000000 -0.45599899 0.82543200 -0.33275601 1.905766e-42
