# .PCD v0.7 - Point Cloud Data file format
# 4 79 0
# 1 3 0
# 4 28 0
# 29 52 0
# 53 79 0
VERSION 0.7
FIELDS x y z normal_x normal_y normal_z curvature
SIZE 4 4 4 4 4 4 4
TYPE F F F F F F F
COUNT 1 1 1 1 1 1 1
WIDTH 79
HEIGHT 1
VIEWPOINT 0 0 0 1 0 0 0
POINTS 79
DATA ascii
21.67770000 -2.17820000 416.59900000 0.36493200 0.57196701 -0.73462802 1.905766e-42
19.96649900 -1.62761000 416.50500000 0.28332999 0.57553297 -0.76712799 1.905766e-42
19.19640000 0.83366901 417.63501000 0.20086400 0.58708799 -0.78420699 1.905766e-42
18.01079900 -0.24637499 416.81799000 0.22880200 0.60303199 -0.76420099 1.905766e-42
16.29350100 0.27895400 416.93900000 0.21268900 0.62085998 -0.75451702 1.905766e-42
15.49070000 1.69013000 417.71600000 0.20181000 0.63912702 -0.74215198 1.905766e-42
13.96660000 2.49037000 418.24200000 0.14638600 0.67162502 -0.72628599 1.905766e-42
12.74600000 3.54433990 419.04199000 0.09211820 0.71027899 -0.69786698 1.905766e-42
11.82500000 4.76001980 419.99799000 0.05091510 0.74554098 -0.66451198 1.905766e-42
10.64080000 5.66063980 421.01099000 0.04544610 0.76200300 -0.64597601 1.905766e-42
9.16580960 6.39267020 421.73801000 0.04586940 0.76265401 -0.64517802 1.905766e-42
8.04380040 7.20656010 422.88599000 0.05106740 0.76947701 -0.63663000 1.905766e-42
7.68554020 8.42978000 424.15701000 0.06526980 0.78630197 -0.61438501 1.905766e-42
7.89790010 9.60725020 425.50201000 0.08114860 0.80585003 -0.58653301 1.905766e-42
6.92730000 10.48040000 426.74100000 0.10317600 0.81405902 -0.57154399 1.905766e-42
6.73720980 11.56980000 428.16199000 0.11202200 0.80503100 -0.58256000 1.905766e-42
6.30037020 12.51150000 429.63199000 0.12121900 0.78536803 -0.60704499 1.905766e-42
6.34074020 13.62710000 431.04401000 0.12378400 0.76585299 -0.63098902 1.905766e-42
5.38592000 14.73440000 432.09399000 0.13541000 0.75008702 -0.64732802 1.905766e-42
4.71119020 15.92700000 433.26099000 0.14288799 0.76148599 -0.63223499 1.905766e-42
4.22732020 17.11829900 434.52100000 0.15442701 0.77554601 -0.61211097 1.905766e-42
3.12569000 18.13069900 435.52200000 0.16479400 0.77670002 -0.60793102 1.905766e-42
2.29900000 19.20159900 436.70901000 0.18597101 0.76880401 -0.61184603 1.905766e-42
1.71266000 20.32670000 437.98599000 0.21359900 0.73987001 -0.63793999 1.905766e-42
1.07375000 21.43740100 439.25000000 0.20724200 0.70748299 -0.67566103 1.905766e-42
-0.00109520 22.45140100 440.27802000 0.18302900 0.70523101 -0.68494499 1.905766e-42
-0.01767780 23.85960000 441.39899000 0.13756099 0.71740001 -0.68294501 1.905766e-42
-0.39434701 25.06110000 442.68500000 0.07662840 0.81078500 -0.58030701 1.905766e-42
-0.59229499 26.25340100 444.01901000 0.00942864 0.92745101 -0.37382600 1.905766e-42
0.95163101 26.32200100 444.94199000 -0.00918235 0.94724000 -0.32039300 1.905766e-42
2.20851990 26.46850000 446.22198000 -0.05093260 0.96394700 -0.26117501 1.905766e-42
3.94207000 26.61860100 445.76099000 0.03964670 0.91974300 -0.39051399 1.905766e-42
5.59897990 26.91200100 446.39999000 0.09137530 0.86511499 -0.49318001 1.905766e-42
7.39233020 26.75779900 446.41000000 0.11605300 0.80442899 -0.58260298 1.905766e-42
9.17022040 26.48310100 446.47101000 0.12760200 0.76894403 -0.62645298 1.905766e-42
10.80380000 26.60750000 447.21600000 0.12481500 0.76618898 -0.63037699 1.905766e-42
12.59570000 26.43899900 447.24701000 0.12487500 0.75742501 -0.64086998 1.905766e-42
14.21180000 26.68350000 448.00101000 0.12544499 0.76187301 -0.63546300 1.905766e-42
16.00910000 26.58460000 448.00800000 0.12556800 0.76007098 -0.63759297 1.905766e-42
17.79280100 26.42530100 448.19000000 0.11321800 0.76325297 -0.63610297 1.905766e-42
19.42390100 26.67740100 448.90799000 0.10304000 0.76905298 -0.63082498 1.905766e-42
21.08930000 26.71150000 449.59000000 0.08872230 0.76906902 -0.63297802 1.905766e-42
22.88789900 26.78200000 449.58701000 0.06447430 0.76483202 -0.64099503 1.905766e-42
24.68759900 26.81180000 449.59500000 0.03790290 0.75943500 -0.64947802 1.905766e-42
26.48749900 26.79070100 449.59500000 0.00988618 0.75470698 -0.65598702 1.905766e-42
28.28360000 26.84359900 449.70099000 -0.01585760 0.75244302 -0.65846699 1.905766e-42
29.95270000 27.23170100 450.25201000 -0.03041410 0.75420499 -0.65593499 1.905766e-42
31.63789900 26.99150100 449.66599000 -0.03264200 0.76132601 -0.64754802 1.905766e-42
33.40300000 27.22440000 449.93100000 0.00620352 0.77732098 -0.62907302 1.905766e-42
35.16479900 27.31240100 450.29001000 0.10528600 0.80328202 -0.58621901 1.905766e-42
36.89540100 26.84440000 450.12900000 0.16810399 0.85291398 -0.49424601 1.905766e-42
37.52759900 25.85050000 448.76801000 0.09875240 0.86208302 -0.49705201 1.905766e-42
39.05600000 25.26880100 448.01599000 0.14628901 0.89098102 -0.42982700 1.905766e-42
39.17050200 24.68800000 446.31601000 0.01849570 0.83541298 -0.54931098 1.905766e-42
38.82220100 23.42210000 445.08401000 -0.06910810 0.75263202 -0.65480500 1.905766e-42
38.24110000 22.27980000 443.82101000 -0.08794500 0.77180201 -0.62975198 1.905766e-42
37.24910000 21.35670100 442.63599000 -0.08250020 0.79099602 -0.60623401 1.905766e-42
36.69300100 20.24290100 441.33600000 -0.06572820 0.80981702 -0.58298898 1.905766e-42
36.33779900 19.21250000 439.90302000 -0.05138790 0.80883002 -0.58579201 1.905766e-42
35.57630200 18.28210100 438.56400000 -0.04176930 0.80872297 -0.58670503 1.905766e-42
35.05670200 17.21760000 437.20801000 -0.03737540 0.80755299 -0.58860999 1.905766e-42
34.14550000 16.38100100 435.90100000 -0.03755730 0.80725998 -0.58899897 1.905766e-42
33.84899900 15.21570000 434.56100000 -0.02869760 0.80598801 -0.59123600 1.905766e-42
33.00050000 14.24260000 433.30701000 -0.01954460 0.80762702 -0.58937001 1.905766e-42
32.35599900 13.27930000 431.92999000 -0.00462539 0.80695701 -0.59059203 1.905766e-42
31.21489900 12.54740000 430.74600000 -0.00781544 0.80954301 -0.58700800 1.905766e-42
30.51689900 11.48580000 429.47101000 0.01736460 0.80567801 -0.59209800 1.905766e-42
29.30890100 10.64830000 428.43201000 0.00685785 0.82280099 -0.56828803 1.905766e-42
28.60350000 9.80255990 427.00800000 0.05138930 0.80482602 -0.59128201 1.905766e-42
27.98560000 8.81480030 425.63599000 0.12831500 0.75750703 -0.64009303 1.905766e-42
26.84250100 8.23711010 424.37100000 0.15365300 0.75624901 -0.63598698 1.905766e-42
25.90800100 7.28384020 423.16400000 0.18700500 0.73478299 -0.65201497 1.905766e-42
25.33799900 6.13208010 421.90302000 0.26560199 0.57386601 -0.77468300 1.905766e-42
24.43310000 5.08465000 420.75299000 0.25340399 0.44386300 -0.85951799 1.905766e-42
24.29859900 3.29628990 420.59900000 0.45386899 0.09044880 -0.88646603 1.905766e-42
24.64570000 1.73576000 421.42599000 0.54375398 0.10980900 -0.83203000 1.905766e-42
24.38999900 0.33004701 420.33099000 0.54353899 0.32590899 -0.77353001 1.905766e-42
23.91650000 -0.76206201 418.98099000 0.53998202 0.45159301 -0.71026999 1.905766e-42
22.96500000 -1.66199990 417.74600000 0.47517300 0.52718902 -0.70447302 1.905766e-42
