# .PCD v0.7 - Point Cloud Data file format
# 4 160 0
# 1 48 0
# 49 73 0
# 74 133 0
# 134 160 0
VERSION 0.7
FIELDS x y z normal_x normal_y normal_z curvature
SIZE 4 4 4 4 4 4 4
TYPE F F F F F F F
COUNT 1 1 1 1 1 1 1
WIDTH 160
HEIGHT 1
VIEWPOINT 0 0 0 1 0 0 0
POINTS 160
DATA ascii
-8.10151960 34.85509900 424.78000000 -0.28323001 -0.52204198 -0.80452001 1.905766e-42
-6.51106020 34.01279800 424.74701000 -0.27182400 -0.50869101 -0.81691200 1.905766e-42
-4.79422000 33.72079800 424.29199000 -0.24754199 -0.50692898 -0.82567900 1.905766e-42
-3.72569990 32.73009900 424.64801000 -0.23032300 -0.50826800 -0.82982898 1.905766e-42
-2.08079000 31.99980000 424.67999000 -0.19212700 -0.51356000 -0.83626699 1.905766e-42
-0.47438499 31.20760000 424.85901000 -0.15694100 -0.51855701 -0.84051597 1.905766e-42
1.28048000 30.81209900 424.79501000 -0.11881000 -0.52081501 -0.84536099 1.905766e-42
3.07607010 30.75510000 424.90799000 -0.08039560 -0.52068698 -0.84995401 1.905766e-42
4.34956980 29.53870000 425.28000000 -0.05475640 -0.53059900 -0.84585202 1.905766e-42
5.88448000 28.70960000 425.72299000 -0.02331630 -0.54031003 -0.84114301 1.905766e-42
7.40412000 27.89850000 426.24600000 0.00765243 -0.55353600 -0.83279002 1.905766e-42
9.12961010 27.49710100 426.56400000 0.04246910 -0.55108100 -0.83336997 1.905766e-42
10.86130000 27.14279900 426.90399000 0.07383810 -0.54773498 -0.83338702 1.905766e-42
12.62630000 26.94829900 427.20001000 0.10673600 -0.54332399 -0.83271098 1.905766e-42
14.24940000 26.42350000 427.77399000 0.13654700 -0.53957403 -0.83079201 1.905766e-42
16.01180100 26.41350000 428.14001000 0.17123200 -0.53329402 -0.82841802 1.905766e-42
17.78160100 26.43210000 428.46799000 0.20689100 -0.52546901 -0.82527500 1.905766e-42
19.51510000 26.51020100 428.94601000 0.24303800 -0.51656199 -0.82103300 1.905766e-42
21.20680000 26.89830000 429.42300000 0.28032801 -0.50408697 -0.81689203 1.905766e-42
22.79520000 26.53249900 430.18701000 0.30755001 -0.50059801 -0.80920601 1.905766e-42
24.18000000 25.75900100 431.03799000 0.32963699 -0.50418502 -0.79820901 1.905766e-42
25.79910100 26.50510000 431.28601000 0.36199301 -0.48783401 -0.79434198 1.905766e-42
27.28860100 27.21629900 432.00400000 0.39347801 -0.47375000 -0.78786802 1.905766e-42
28.88640000 27.25519900 432.83200000 0.42282400 -0.46773899 -0.77617002 1.905766e-42
30.44680000 27.10940000 433.71799000 0.45034301 -0.46485201 -0.76230198 1.905766e-42
31.97769900 27.08029900 434.66400000 0.47785100 -0.46106899 -0.74771202 1.905766e-42
33.54420100 26.91610000 435.53500000 0.50349402 -0.45884201 -0.73209202 1.905766e-42
35.04840100 26.95789900 436.52301000 0.52985501 -0.45510799 -0.71563298 1.905766e-42
36.54209900 27.32920100 437.45599000 0.55688697 -0.44740301 -0.69979101 1.905766e-42
37.98339800 27.40440000 438.53201000 0.58229703 -0.44418600 -0.68090302 1.905766e-42
39.40210000 28.15259900 439.34900000 0.60772300 -0.43261799 -0.66596800 1.905766e-42
40.78900100 28.94529900 440.17801000 0.63189203 -0.42148200 -0.65043402 1.905766e-42
42.06639900 29.98090000 440.91000000 0.65380502 -0.40905300 -0.63656503 1.905766e-42
43.37049900 30.80069900 441.84201000 0.68032402 -0.39832899 -0.61521798 1.905766e-42
44.78659800 31.34190000 442.81201000 0.70601702 -0.38952899 -0.59144503 1.905766e-42
46.03210100 32.22040200 443.76999000 0.72959399 -0.37863001 -0.56950200 1.905766e-42
47.25140000 33.02740100 444.82001000 0.75203902 -0.36847001 -0.54650599 1.905766e-42
48.37659800 34.14950200 445.66501000 0.77172798 -0.35737601 -0.52604002 1.905766e-42
49.17639900 35.52730200 446.50299000 0.78871900 -0.34726301 -0.50727803 1.905766e-42
50.38719900 36.36800000 447.53601000 0.80731797 -0.33826700 -0.48354301 1.905766e-42
51.31430100 37.63290000 448.41901000 0.82521099 -0.32289001 -0.46343201 1.905766e-42
52.33409900 38.86280100 449.24799000 0.84445202 -0.29928100 -0.44422099 1.905766e-42
53.16120100 40.15010100 450.19601000 0.86239499 -0.27818301 -0.42295399 1.905766e-42
53.83380100 41.57690000 451.06299000 0.87789601 -0.25916600 -0.40265599 1.905766e-42
54.88370100 42.61180100 452.09601000 0.89345199 -0.24622899 -0.37565199 1.905766e-42
55.52880100 44.08910000 452.89700000 0.90475601 -0.23660800 -0.35416600 1.905766e-42
56.28260000 45.35020100 453.93701000 0.91552001 -0.23470099 -0.32670799 1.905766e-42
56.96450000 46.50429900 455.13800000 0.92381698 -0.24262100 -0.29613701 1.905766e-42
57.53010200 46.73249800 456.83200000 0.92852098 -0.25215200 -0.27252001 1.905766e-42
57.66880000 45.95700100 458.45001000 0.93638700 -0.23871100 -0.25728801 1.905766e-42
57.72720000 44.48030100 459.47800000 0.94243503 -0.21866700 -0.25298300 1.905766e-42
57.86930100 43.45710000 460.95200000 0.94618398 -0.20520400 -0.25025401 1.905766e-42
57.90119900 42.02100000 462.03699000 0.94748902 -0.19270900 -0.25520301 1.905766e-42
58.03329800 40.97530000 463.49600000 0.94934303 -0.18251701 -0.25580499 1.905766e-42
58.10520200 39.56309900 464.60999000 0.95023400 -0.17397600 -0.25843301 1.905766e-42
58.34660000 38.61560100 466.12100000 0.95281202 -0.16459900 -0.25506201 1.905766e-42
58.49179800 37.51409900 467.53699000 0.95495701 -0.15957101 -0.25018799 1.905766e-42
58.54010000 36.04499800 468.57599000 0.95559001 -0.15746801 -0.24910000 1.905766e-42
58.69070100 34.83129900 469.89700000 0.95710802 -0.15353900 -0.24570499 1.905766e-42
58.88299900 33.73709900 471.31299000 0.95888299 -0.14833900 -0.24195001 1.905766e-42
59.00610000 32.30130000 472.39200000 0.95934802 -0.12809201 -0.25148401 1.905766e-42
59.14279900 30.97090000 473.59601000 0.95928800 -0.10470500 -0.26230499 1.905766e-42
59.35100200 29.82329900 474.96701000 0.95886999 -0.07989390 -0.27236801 1.905766e-42
59.56600200 28.63820100 476.30499000 0.95706701 -0.05397410 -0.28479600 1.905766e-42
59.91500100 27.13520100 477.23199000 0.95266002 -0.02869780 -0.30268100 1.905766e-42
60.27840000 25.80550000 478.38901000 0.94825602 -0.00153063 -0.31750199 1.905766e-42
60.73149900 24.36440100 479.36801000 0.94263798 0.02480440 -0.33289501 1.905766e-42
61.18289900 23.03920000 480.50000000 0.93712199 0.05169700 -0.34515199 1.905766e-42
61.56090200 21.58440000 481.48999000 0.94038498 0.03143530 -0.33865499 1.905766e-42
62.01800200 20.31360100 482.67999000 0.94660002 0.00737380 -0.32232499 1.905766e-42
62.34830100 19.03520000 483.90302000 0.95458198 -0.02231780 -0.29710999 1.905766e-42
62.64260100 17.80020000 485.17899000 0.96395499 -0.05849250 -0.25955400 1.905766e-42
62.60839800 16.48550000 486.40799000 0.96903801 -0.16672200 -0.18212400 1.905766e-42
62.50260200 14.83000000 487.10699000 0.94375300 -0.32021299 -0.08242270 1.905766e-42
61.63930100 13.34660000 486.56500000 0.89555502 -0.44486299 -0.00886535 1.905766e-42
61.12049900 12.21580000 485.26401000 0.87536699 -0.48346001 0.00054943 1.905766e-42
60.55120100 11.09780000 483.97299000 0.85570699 -0.51739699 0.00813057 1.905766e-42
59.67820000 9.82083990 483.05301000 0.80400097 -0.59186101 0.05730220 1.905766e-42
58.67319900 8.51305010 482.33200000 0.74168098 -0.66162503 0.11028300 1.905766e-42
57.88270200 7.43483020 481.12601000 0.71730900 -0.68675399 0.11762600 1.905766e-42
57.06800100 6.34857990 479.94501000 0.69362497 -0.70972300 0.12319500 1.905766e-42
56.10179900 5.24169020 478.90500000 0.66239297 -0.73679399 0.13553600 1.905766e-42
55.50849900 4.46015980 477.39600000 0.66838998 -0.73611498 0.10672400 1.905766e-42
54.91429900 3.75010990 475.85199000 0.67959201 -0.73072100 0.06481710 1.905766e-42
53.93840000 2.76917000 474.70099000 0.65433902 -0.75415802 0.05554840 1.905766e-42
53.07939900 1.93636000 473.35599000 0.64496303 -0.76376599 0.02614640 1.905766e-42
51.88399900 0.94097197 472.45099000 0.60605299 -0.79456300 0.03700960 1.905766e-42
50.69910000 -0.06326750 471.54099000 0.57192701 -0.81912202 0.04403620 1.905766e-42
49.66270100 -0.87699002 470.31500000 0.55975002 -0.82829797 0.02455910 1.905766e-42
48.60319900 -1.54446010 469.02200000 0.55490601 -0.83190799 -0.00288966 1.905766e-42
47.39160200 -2.37557010 467.98199000 0.53791600 -0.84293097 -0.01065940 1.905766e-42
46.05670200 -3.22373010 467.12201000 0.51249897 -0.85865301 -0.00769882 1.905766e-42
44.95050000 -3.77746010 465.81500000 0.51046300 -0.85875702 -0.04431800 1.905766e-42
43.66939900 -4.44275000 464.73999000 0.49590501 -0.86613101 -0.06241730 1.905766e-42
42.30820100 -5.10022020 463.76199000 0.47757900 -0.87544000 -0.07431700 1.905766e-42
40.84170200 -5.86891980 463.05600000 0.44970199 -0.89070100 -0.06648000 1.905766e-42
39.43529900 -6.46151020 462.10199000 0.43415901 -0.89719200 -0.08094820 1.905766e-42
38.29990000 -6.82982020 460.75500000 0.43828601 -0.88845003 -0.13624500 1.905766e-42
36.82180000 -7.33734990 459.86200000 0.42172399 -0.89371502 -0.15304300 1.905766e-42
35.30559900 -7.93194010 459.09500000 0.40023500 -0.90223801 -0.16055600 1.905766e-42
33.82059900 -8.35865020 458.17200000 0.38500801 -0.90370601 -0.18730800 1.905766e-42
32.23460000 -8.90322970 457.51700000 0.36068100 -0.91278201 -0.19167200 1.905766e-42
30.69370100 -9.28528020 456.66901000 0.34303400 -0.91359198 -0.21835200 1.905766e-42
29.12170000 -9.64494040 455.86899000 0.32420599 -0.91400301 -0.24390200 1.905766e-42
27.53120000 -9.95825960 455.08701000 0.30638999 -0.91281199 -0.27000001 1.905766e-42
26.02470000 -10.16150000 454.12299000 0.29308301 -0.90237600 -0.31594199 1.905766e-42
24.35920000 -10.42810000 453.49399000 0.27059400 -0.90362400 -0.33202800 1.905766e-42
22.72540100 -10.66310000 452.77701000 0.24994101 -0.90001500 -0.35707501 1.905766e-42
20.97780000 -11.09400000 452.75400000 0.21766400 -0.91952598 -0.32725301 1.905766e-42
19.35240000 -11.17090000 451.98499000 0.19826099 -0.91291797 -0.35675400 1.905766e-42
17.58569900 -11.49360000 451.86301000 0.16879600 -0.92365998 -0.34403700 1.905766e-42
15.91710000 -11.50410000 451.18900000 0.14426300 -0.91967100 -0.36522999 1.905766e-42
14.13700000 -11.76900000 451.15601000 0.11294900 -0.92993498 -0.34994701 1.905766e-42
12.53930000 -11.61180000 450.34201000 0.09282690 -0.91851300 -0.38433999 1.905766e-42
10.74770000 -11.75030000 450.23700000 0.06225350 -0.92821598 -0.36679599 1.905766e-42
9.07427980 -11.58290000 449.59601000 0.04314270 -0.91665000 -0.39735499 1.905766e-42
7.27532010 -11.64420000 449.59399000 0.01424060 -0.92774498 -0.37294400 1.905766e-42
5.47561980 -11.63230000 449.56400000 -0.01211480 -0.93556499 -0.35294601 1.905766e-42
3.67788000 -11.57300000 449.49600000 -0.03802540 -0.93983001 -0.33952001 1.905766e-42
1.88718000 -11.44280000 449.36801000 -0.06425980 -0.94010699 -0.33476600 1.905766e-42
0.17834200 -11.10420000 448.91501000 -0.08730060 -0.92753798 -0.36338899 1.905766e-42
-1.56792000 -11.12110000 449.35101000 -0.12049900 -0.94175398 -0.31397399 1.905766e-42
-3.21573000 -10.64410000 448.80600000 -0.14379200 -0.92332602 -0.35607901 1.905766e-42
-4.99259000 -10.35770000 448.83301000 -0.17479500 -0.92179000 -0.34604800 1.905766e-42
-6.69379000 -10.27160000 449.41400000 -0.20095800 -0.93647897 -0.28744099 1.905766e-42
-8.45359990 -9.93089010 449.57901000 -0.22069800 -0.93542200 -0.27618599 1.905766e-42
-10.18730000 -9.44931030 449.53000000 -0.23936000 -0.92620498 -0.29129100 1.905766e-42
-11.86490000 -8.83117010 449.32101000 -0.25851500 -0.90675002 -0.33312899 1.905766e-42
-13.48620000 -8.12971020 448.97601000 -0.27997401 -0.87030399 -0.40519801 1.905766e-42
-15.17330000 -7.79469010 449.50601000 -0.29388499 -0.87632900 -0.38167900 1.905766e-42
-16.51450000 -6.90321020 448.70200000 -0.32179299 -0.78361499 -0.53140998 1.905766e-42
-18.19230100 -6.25828980 448.79700000 -0.34323499 -0.73726302 -0.58192098 1.905766e-42
-19.81450100 -5.47836020 448.79001000 -0.36370099 -0.66414303 -0.65317398 1.905766e-42
-21.18950100 -4.34152980 448.55099000 -0.37030599 -0.52675301 -0.76511800 1.905766e-42
-20.74500100 -2.95676990 447.48999000 -0.34349301 -0.38764399 -0.85542101 1.905766e-42
-20.72930000 -1.29366000 446.80200000 -0.33577001 -0.30632401 -0.89074397 1.905766e-42
-20.33210000 0.39330500 446.31601000 -0.33414799 -0.24742199 -0.90946603 1.905766e-42
-19.34820000 1.68261000 445.53500000 -0.32998899 -0.23625700 -0.91394198 1.905766e-42
-19.06769900 3.36223010 444.95200000 -0.33602300 -0.25875700 -0.90561199 1.905766e-42
-18.37800000 4.83592990 444.18201000 -0.33417401 -0.28099400 -0.89964998 1.905766e-42
-18.09100000 6.47724010 443.50101000 -0.33559999 -0.30163899 -0.89240497 1.905766e-42
-17.56790000 8.05580040 442.81201000 -0.33340201 -0.32344201 -0.88556701 1.905766e-42
-17.28350100 9.74051000 442.24600000 -0.33636001 -0.34783101 -0.87514299 1.905766e-42
-16.31740000 10.88550000 441.24799000 -0.33183700 -0.37305301 -0.86643797 1.905766e-42
-15.76840000 12.38260000 440.41299000 -0.33505300 -0.40013900 -0.85301101 1.905766e-42
-15.04040000 13.72650000 439.46201000 -0.33633101 -0.42228100 -0.84175998 1.905766e-42
-15.10490000 15.33400000 438.65500000 -0.34462601 -0.42831701 -0.83533102 1.905766e-42
-14.32360000 16.59289900 437.63300000 -0.34068501 -0.43750799 -0.83217800 1.905766e-42
-14.09290000 18.14990000 436.75900000 -0.34150901 -0.44395900 -0.82841498 1.905766e-42
-13.58370000 19.57449900 435.78400000 -0.33702701 -0.44775701 -0.82820702 1.905766e-42
-13.12530000 21.02940000 434.82800000 -0.33266601 -0.44771701 -0.82999003 1.905766e-42
-12.46650000 22.36090100 433.81201000 -0.32596800 -0.44813401 -0.83241802 1.905766e-42
-11.83620000 23.73640100 432.83701000 -0.31991401 -0.44841599 -0.83461201 1.905766e-42
-11.38510000 25.19940000 431.89001000 -0.31653401 -0.45562899 -0.83199102 1.905766e-42
-10.76560000 26.55730100 430.88400000 -0.31237099 -0.46816301 -0.82658798 1.905766e-42
-10.12890000 27.87850000 429.84100000 -0.30874601 -0.48207399 -0.81992799 1.905766e-42
-9.57349010 29.25600100 428.82401000 -0.30666301 -0.49693200 -0.81179798 1.905766e-42
-9.55033020 30.81390000 427.92200000 -0.30967399 -0.49645200 -0.81094801 1.905766e-42
-9.21284010 32.29010000 426.94901000 -0.30707300 -0.49981901 -0.80986899 1.905766e-42
-8.89126010 33.77529900 425.98499000 -0.30073899 -0.50840998 -0.80689198 1.905766e-42
