# .PCD v0.7 - Point Cloud Data file format
# 4 54 0
# 1 18 0
# 19 26 0
# 27 45 0
# 46 54 0
VERSION 0.7
FIELDS x y z normal_x normal_y normal_z curvature
SIZE 4 4 4 4 4 4 4
TYPE F F F F F F F
COUNT 1 1 1 1 1 1 1
WIDTH 54
HEIGHT 1
VIEWPOINT 0 0 0 1 0 0 0
POINTS 54
DATA ascii
21.6336 14.3494 466.75 -0.104259 -0.45804799 0.882792 1.9057659e-42
20.1266 15.3056 467.01901 -0.1202 -0.356345 0.92659098 1.9057659e-42
18.370501 15.6499 466.82599 -0.132101 -0.28151199 0.95042098 1.9057659e-42
16.630501 15.2548 466.58801 -0.110595 -0.27259099 0.95575303 1.9057659e-42
14.991 15.9796 466.42499 -0.121882 -0.165142 0.97871 1.9057659e-42
13.2514 15.5419 466.276 -0.10352 -0.196217 0.97508103 1.9057659e-42
11.4849 15.8398 466.10001 -0.095394403 -0.15136001 0.98386502 1.9057659e-42
9.7070999 15.646 465.896 -0.109336 -0.17402101 0.97865301 1.9057659e-42
7.9183998 15.6298 465.69501 -0.12778001 -0.17989001 0.97535199 1.9057659e-42
6.1708202 15.9655 465.42499 -0.139787 -0.147149 0.97918701 1.9057659e-42
4.4099002 15.6591 465.21201 -0.15131199 -0.207877 0.96638101 1.9057659e-42
2.6645 16.0156 464.95401 -0.15709101 -0.19476999 0.96818697 1.9057659e-42
0.88744903 16.009899 464.668 -0.168222 -0.23374601 0.95763499 1.9057659e-42
-0.88025802 15.9784 464.32999 -0.181926 -0.27590001 0.94381303 1.9057659e-42
-2.64063 15.9643 463.95401 -0.200186 -0.31468299 0.92784703 1.9057659e-42
-4.4010801 16.1154 463.61099 -0.22257499 -0.33419099 0.91584802 1.9057659e-42
-6.08005 16.6507 463.24399 -0.246306 -0.32518101 0.91301203 1.9057659e-42
-7.7267599 16.232201 462.64999 -0.26023999 -0.40455201 0.876706 1.9057659e-42
-8.8023901 15.1222 461.72699 -0.29107001 -0.59494001 0.74921697 1.9057659e-42
-8.6846704 13.8691 460.44 -0.278759 -0.70346898 0.653777 1.9057659e-42
-8.3921299 12.6469 459.15201 -0.28435799 -0.723418 0.62913197 1.9057659e-42
-8.2309303 11.4447 457.82199 -0.30019301 -0.76201802 0.573771 1.9057659e-42
-8.0151396 10.2977 456.452 -0.299826 -0.82412601 0.480542 1.9057659e-42
-8.0903101 9.54984 454.81601 -0.299586 -0.83851999 0.455118 1.9057659e-42
-7.9813499 8.6916304 453.237 -0.286928 -0.86984402 0.40130299 1.9057659e-42
-7.6735702 7.8983302 451.651 -0.26089999 -0.91625202 0.30399701 1.9057659e-42
-7.4446998 7.5012898 449.91101 -0.195637 -0.97916001 0.0545149 1.9057659e-42
-6.2672901 7.4268899 448.55099 -0.077803597 -0.97878498 -0.189541 1.9057659e-42
-4.5334802 7.5274701 448.078 -0.044506699 -0.957865 -0.28375 1.9057659e-42
-2.8710799 7.1624398 448.664 -0.0226824 -0.95140898 -0.30709299 1.9057659e-42
-1.09009 7.0407901 448.89499 -0.013292 -0.935076 -0.354197 1.9057659e-42
0.508973 6.7188201 449.65601 -0.022930101 -0.94665301 -0.321437 1.9057659e-42
2.29181 6.6117702 449.879 -0.00617975 -0.94368798 -0.33077899 1.9057659e-42
4.0022998 6.44561 450.41501 0.00110935 -0.95433599 -0.298733 1.9057659e-42
5.8004298 6.4186802 450.492 0.0112874 -0.94715101 -0.32058999 1.9057659e-42
7.5960202 6.5380201 450.53299 0.019808 -0.93775201 -0.34674099 1.9057659e-42
9.32757 6.3535199 450.98801 0.020821899 -0.94799298 -0.31760901 1.9057659e-42
11.1103 6.30865 451.233 0.0259871 -0.95016301 -0.31066701 1.9057659e-42
12.9077 6.3982701 451.26999 0.0325098 -0.94568998 -0.323439 1.9057659e-42
14.6608 6.3264399 451.672 0.031491101 -0.95555699 -0.29312 1.9057659e-42
16.3988 6.2097802 452.125 0.0296137 -0.96655899 -0.25472701 1.9057659e-42
18.195 6.25038 452.23499 0.0305396 -0.96577501 -0.257579 1.9057659e-42
19.902599 6.1100101 452.78699 0.025661301 -0.974455 -0.22311001 1.9057659e-42
21.625 6.4061298 452.35599 0.038091201 -0.95342797 -0.29920399 1.9057659e-42
23.4037 6.4000101 452.63199 0.033020101 -0.94864398 -0.314619 1.9057659e-42
24.6607 6.28053 453.91501 0.0091409702 -0.98587 -0.16726001 1.9057659e-42
24.447399 6.25173 455.702 -0.042667601 -0.96898699 0.24339899 1.9057659e-42
24.1271 6.70399 457.41501 -0.074489698 -0.91514599 0.39617899 1.9057659e-42
23.978201 7.4724598 459.03601 -0.076031901 -0.894032 0.44150501 1.9057659e-42
23.633699 8.4235001 460.52499 -0.068666197 -0.86061001 0.504614 1.9057659e-42
22.998899 9.3015404 461.96201 -0.069838896 -0.80853701 0.58428699 1.9057659e-42
22.673401 10.4048 463.34601 -0.082989201 -0.72698998 0.681615 1.9057659e-42
22.4349 11.7294 464.54199 -0.082376003 -0.71711397 0.69207102 1.9057659e-42
21.7033 12.8711 465.72501 -0.085146502 -0.67141402 0.736175 1.9057659e-42
