# .PCD v0.7 - Point Cloud Data file format
# 4 176 0
# 1 62 0
# 63 121 0
# 122 156 0
# 157 176 0
VERSION 0.7
FIELDS x y z normal_x normal_y normal_z curvature
SIZE 4 4 4 4 4 4 4
TYPE F F F F F F F
COUNT 1 1 1 1 1 1 1
WIDTH 176
HEIGHT 1
VIEWPOINT 0 0 0 1 0 0 0
POINTS 176
DATA ascii
46.70159900 -3.23077010 488.61401000 -0.19241500 0.90177202 -0.38701901 1.905766e-42
44.91050000 -3.35117010 488.74701000 -0.18930700 0.90529102 -0.38027701 1.905766e-42
43.43349800 -4.05565020 487.99701000 -0.18115500 0.91205102 -0.36789399 1.905766e-42
41.64510000 -4.25701000 487.96799000 -0.17117199 0.91700202 -0.36028799 1.905766e-42
39.89680100 -4.61731000 487.73599000 -0.15837400 0.92250502 -0.35199600 1.905766e-42
38.24779900 -5.06633000 487.17099000 -0.14358200 0.92822999 -0.34318000 1.905766e-42
36.48300200 -5.41788010 487.12799000 -0.12859701 0.93268901 -0.33697799 1.905766e-42
34.74819900 -5.75577020 486.78601000 -0.11198400 0.93728203 -0.33009300 1.905766e-42
33.07469900 -6.20360990 486.29800000 -0.09451320 0.94157702 -0.32326400 1.905766e-42
31.29560100 -6.44101000 486.16199000 -0.07716300 0.94528401 -0.31699100 1.905766e-42
29.65519900 -6.78361990 485.50500000 -0.06139550 0.94818503 -0.31173000 1.905766e-42
27.86490100 -6.90441990 485.36301000 -0.04641980 0.95095402 -0.30582899 1.905766e-42
26.30839900 -7.26782990 484.53500000 -0.02990900 0.95336401 -0.30033800 1.905766e-42
24.63260100 -7.63410000 483.98901000 -0.01258680 0.95570397 -0.29406101 1.905766e-42
22.88629900 -7.22806980 484.14801000 0.00206009 0.95821899 -0.28602701 1.905766e-42
21.09480100 -7.29928020 483.98700000 0.02013630 0.96050400 -0.27753800 1.905766e-42
19.30040000 -7.24178980 484.11700000 0.03766370 0.96274602 -0.26777101 1.905766e-42
17.57329900 -7.38246010 483.63000000 0.05824690 0.96392101 -0.25973901 1.905766e-42
15.83490000 -7.50070000 483.17801000 0.07686610 0.96455503 -0.25244001 1.905766e-42
14.04210000 -7.34065010 483.16501000 0.09302530 0.96571600 -0.24236000 1.905766e-42
12.29840000 -7.17311000 482.75101000 0.11019600 0.96627802 -0.23273000 1.905766e-42
10.56200000 -6.87378980 482.38300000 0.12786900 0.96601599 -0.22463800 1.905766e-42
8.80828950 -6.47053000 482.33899000 0.14848299 0.96318400 -0.22412100 1.905766e-42
7.03911020 -6.30661010 482.05099000 0.16802700 0.96074897 -0.22074300 1.905766e-42
5.29078010 -6.03244020 482.38000000 0.18597201 0.95721501 -0.22170900 1.905766e-42
3.50664000 -5.80046990 482.32501000 0.20256700 0.95410001 -0.22059000 1.905766e-42
1.93839000 -5.68050000 481.44901000 0.21776000 0.95221400 -0.21417201 1.905766e-42
0.22719000 -5.47387980 480.93100000 0.23531801 0.94898802 -0.20987301 1.905766e-42
-1.48901000 -4.95939020 480.75800000 0.25428301 0.94463199 -0.20739099 1.905766e-42
-3.18690990 -4.36550000 480.69101000 0.27390799 0.93968898 -0.20484100 1.905766e-42
-4.91429000 -4.05922990 480.28799000 0.29432300 0.93467098 -0.19940700 1.905766e-42
-6.53980020 -3.37472010 480.64700000 0.31338200 0.92880100 -0.19779000 1.905766e-42
-8.18204980 -3.04396010 479.98901000 0.33428100 0.92319500 -0.18964800 1.905766e-42
-8.73106960 -2.84913990 479.99500000 0.33740699 0.92171103 -0.19132701 1.905766e-42
-10.43260000 -2.26287010 480.02701000 0.34041500 0.91963899 -0.19591300 1.905766e-42
-12.11260000 -1.62750010 480.14499000 0.33869299 0.92070901 -0.19385999 1.905766e-42
-13.58590000 -0.79783601 480.76199000 0.33614999 0.92283303 -0.18810201 1.905766e-42
-15.27030000 -0.16739801 480.83401000 0.33447900 0.92415297 -0.18456601 1.905766e-42
-16.96699900 0.42446399 480.93799000 0.33432800 0.92507303 -0.18018100 1.905766e-42
-18.48979900 1.12392000 481.59500000 0.33500901 0.92629200 -0.17248701 1.905766e-42
-20.17219900 1.76396000 481.60001000 0.34026200 0.92531699 -0.16736101 1.905766e-42
-21.79190100 2.46016000 481.96301000 0.34834701 0.92364401 -0.15980200 1.905766e-42
-23.32410000 3.25380990 482.47501000 0.38666001 0.90399599 -0.18244401 1.905766e-42
-24.93070000 3.99280000 482.81100000 0.43051100 0.87829000 -0.20800801 1.905766e-42
-26.49790000 4.70384980 483.33899000 0.47423199 0.84911299 -0.23262000 1.905766e-42
-27.43820000 5.72391990 484.48499000 0.51262099 0.81880301 -0.25841901 1.905766e-42
-28.86240000 6.68217990 485.02701000 0.54989201 0.78690201 -0.28000700 1.905766e-42
-29.84219900 7.84597020 485.98901000 0.58082902 0.75534201 -0.30347201 1.905766e-42
-30.70520000 9.07242010 486.98499000 0.60239297 0.73063099 -0.32140601 1.905766e-42
-31.77039900 10.27370000 487.79901000 0.61111099 0.72293299 -0.32235199 1.905766e-42
-32.37920000 11.49350000 488.97400000 0.61675203 0.71695900 -0.32494199 1.905766e-42
-33.51990100 12.69890000 489.67099000 0.62478697 0.70956397 -0.32582200 1.905766e-42
-34.32350200 13.94650000 490.69000000 0.63084197 0.70321500 -0.32791299 1.905766e-42
-35.10200100 15.08250000 491.84900000 0.63592601 0.69737798 -0.33054799 1.905766e-42
-35.67890200 16.29480000 493.04800000 0.63983202 0.69207501 -0.33413500 1.905766e-42
-36.08950000 17.39030100 494.41599000 0.64916700 0.67516899 -0.35032800 1.905766e-42
-37.06449900 18.72180000 495.13400000 0.66434699 0.65279901 -0.36400101 1.905766e-42
-37.73860200 19.98250000 496.22800000 0.67759198 0.62877101 -0.38146600 1.905766e-42
-38.47250000 21.22330100 497.30600000 0.69148499 0.60213000 -0.39910799 1.905766e-42
-38.71130000 22.51619900 498.53500000 0.70285499 0.57518601 -0.41851699 1.905766e-42
-38.85789900 23.82830000 499.75900000 0.71438700 0.54654801 -0.43696201 1.905766e-42
-38.81710100 25.08070000 501.05099000 0.72617400 0.51056302 -0.46043000 1.905766e-42
-39.03260000 26.56080100 502.05200000 0.73920000 0.46334299 -0.48877001 1.905766e-42
-38.50149900 27.15840000 503.66501000 0.74188298 0.43028501 -0.51426101 1.905766e-42
-37.32239900 27.05670000 505.02100000 0.73694903 0.42405400 -0.52638799 1.905766e-42
-36.70069900 27.81259900 506.53201000 0.74074101 0.38670701 -0.54932702 1.905766e-42
-35.87659800 28.39670000 508.02200000 0.74249399 0.35722399 -0.56665200 1.905766e-42
-35.29570000 29.41850100 509.38501000 0.74922001 0.31375799 -0.58328903 1.905766e-42
-34.50420000 30.16910000 510.81699000 0.75414401 0.28374901 -0.59224403 1.905766e-42
-33.76900100 31.10440100 512.16803000 0.75970697 0.25210401 -0.59940797 1.905766e-42
-32.93080100 31.79750100 513.60199000 0.75121301 0.24736699 -0.61195397 1.905766e-42
-31.78930100 31.83659900 514.99298000 0.73402703 0.26699001 -0.62443697 1.905766e-42
-30.60220000 31.65500100 516.33398000 0.71585399 0.28261599 -0.63849902 1.905766e-42
-29.39940100 31.60490000 517.67200000 0.69712299 0.30352199 -0.64953399 1.905766e-42
-28.50219900 31.80629900 519.21899000 0.68061101 0.33031100 -0.65395898 1.905766e-42
-26.96680100 31.16390000 519.90503000 0.65536100 0.34951600 -0.66958201 1.905766e-42
-25.67700000 31.19039900 521.15997000 0.63335699 0.37588099 -0.67644101 1.905766e-42
-24.53770100 31.72540100 522.44702000 0.61178899 0.39688399 -0.68424898 1.905766e-42
-23.21200000 31.86640000 523.65698000 0.58290797 0.41457200 -0.69881898 1.905766e-42
-21.86160100 32.00050000 524.83899000 0.55374998 0.42713401 -0.71478498 1.905766e-42
-20.70319900 32.61349900 526.07300000 0.53015703 0.42968100 -0.73096299 1.905766e-42
-19.27580100 32.78770100 527.15601000 0.50086302 0.43327799 -0.74927098 1.905766e-42
-17.88340000 33.05120100 528.26599000 0.47259000 0.43251401 -0.76784801 1.905766e-42
-16.60100000 33.68989900 529.35498000 0.44907901 0.42563099 -0.78560001 1.905766e-42
-15.36110000 34.42070000 530.43597000 0.43345499 0.41909999 -0.79779202 1.905766e-42
-13.94000000 34.86029800 531.45001000 0.41539499 0.41518000 -0.80936599 1.905766e-42
-12.48650000 35.33229800 532.40100000 0.39743099 0.41056699 -0.82066000 1.905766e-42
-11.11440000 35.98350100 533.36700000 0.38039199 0.40411901 -0.83185899 1.905766e-42
-9.76552010 36.71620200 534.30701000 0.36362299 0.39709699 -0.84267002 1.905766e-42
-8.49195960 37.55339800 535.26501000 0.34732801 0.38960499 -0.85297698 1.905766e-42
-6.91937020 37.98529800 536.02600000 0.32950601 0.38416600 -0.86246300 1.905766e-42
-5.84036020 39.06980100 536.97498000 0.31430900 0.37664899 -0.87140399 1.905766e-42
-4.33561990 39.71970000 537.71899000 0.29601300 0.37113500 -0.88013399 1.905766e-42
-2.84952000 40.39519900 538.47699000 0.27724901 0.36583301 -0.88842499 1.905766e-42
-1.41635000 41.18009900 539.23199000 0.25832900 0.36076200 -0.89616799 1.905766e-42
-0.19779700 42.20000100 540.07800000 0.24044999 0.35620800 -0.90293998 1.905766e-42
1.18106000 43.09529900 540.81097000 0.22121000 0.35216701 -0.90942001 1.905766e-42
2.86690000 43.55849800 541.23901000 0.20009901 0.34824100 -0.91579902 1.905766e-42
4.14731980 44.65539900 541.86902000 0.18717401 0.34736499 -0.91886002 1.905766e-42
5.60276990 45.52259800 542.47699000 0.17402001 0.34749901 -0.92139101 1.905766e-42
7.02586980 46.35749800 543.19702000 0.16078800 0.34834900 -0.92347199 1.905766e-42
8.08090020 47.53810100 544.05298000 0.15054099 0.35006201 -0.92455101 1.905766e-42
9.44256970 48.39820100 544.85699000 0.13774300 0.35162401 -0.92595202 1.905766e-42
10.69220000 49.63539900 545.24103000 0.12661400 0.35321400 -0.92693502 1.905766e-42
12.08760000 50.70570000 545.62500000 0.11404700 0.35445699 -0.92809099 1.905766e-42
13.58010000 51.61489900 546.05603000 0.10737800 0.35790700 -0.92756301 1.905766e-42
14.67130000 52.83520100 546.80499000 0.12211100 0.37036499 -0.92082500 1.905766e-42
16.14440000 53.79420100 547.19202000 0.13740800 0.39545399 -0.90814900 1.905766e-42
17.28840100 54.92070000 548.00598000 0.16493499 0.43368801 -0.88583899 1.905766e-42
18.85250100 55.57809800 548.60699000 0.18432900 0.49545801 -0.84884900 1.905766e-42
20.08340100 56.46780000 549.57300000 0.22756700 0.58680201 -0.77709502 1.905766e-42
21.56430100 56.77790100 550.54901000 0.24973100 0.70556301 -0.66318500 1.905766e-42
23.25790000 56.64759800 551.14398000 0.15856799 0.78864801 -0.59404600 1.905766e-42
24.91190000 55.95740100 550.97699000 0.04648460 0.78877002 -0.61292797 1.905766e-42
26.55800100 55.58280200 550.35303000 -0.03493420 0.76727301 -0.64036798 1.905766e-42
28.34330000 55.42540000 550.18597000 -0.08993630 0.76772797 -0.63443297 1.905766e-42
30.03459900 55.31039800 549.58099000 -0.13125400 0.74765903 -0.65098202 1.905766e-42
31.81720000 55.55920000 549.56299000 -0.15995200 0.76046401 -0.62937200 1.905766e-42
33.56349900 55.98659900 549.47601000 -0.18547399 0.77438200 -0.60492402 1.905766e-42
35.28480100 56.44940200 549.22498000 -0.21284100 0.78213102 -0.58563697 1.905766e-42
36.89400100 56.97290000 548.61102000 -0.24715100 0.77776998 -0.57791901 1.905766e-42
38.54610100 56.81620000 547.91400000 -0.29679400 0.75353801 -0.58659500 1.905766e-42
38.58179900 55.49079900 546.69598000 -0.31072500 0.66948199 -0.67471802 1.905766e-42
37.94480100 54.26030000 545.54700000 -0.29942000 0.60329002 -0.73918098 1.905766e-42
38.28030000 52.67210000 544.77002000 -0.30299500 0.55056602 -0.77786303 1.905766e-42
38.06549800 51.21429800 543.73602000 -0.29998201 0.51147401 -0.80523598 1.905766e-42
38.36550100 49.79690200 542.66803000 -0.30318299 0.48167801 -0.82223302 1.905766e-42
38.08750200 48.25260200 541.78601000 -0.30004901 0.46021900 -0.83556497 1.905766e-42
38.98070100 47.08470200 540.74701000 -0.30654001 0.44434401 -0.84177899 1.905766e-42
39.24409900 45.57980000 539.79498000 -0.30836201 0.43321800 -0.84689701 1.905766e-42
38.91949800 44.02700000 538.94501000 -0.30658999 0.42640001 -0.85099101 1.905766e-42
39.50510000 42.54110000 538.11499000 -0.30941901 0.42151901 -0.85239798 1.905766e-42
40.06700100 41.04950000 537.27802000 -0.31069201 0.41887701 -0.85323602 1.905766e-42
40.91600000 39.68429900 536.46899000 -0.31186500 0.41771901 -0.85337597 1.905766e-42
41.17310000 38.18109900 535.51300000 -0.30906999 0.42028901 -0.85313100 1.905766e-42
41.89670200 36.80009800 534.61298000 -0.30661300 0.42370301 -0.85232902 1.905766e-42
42.42720000 35.37410000 533.65100000 -0.30818701 0.43684199 -0.84509802 1.905766e-42
42.78490100 33.94160100 532.62201000 -0.30922100 0.45238400 -0.83649999 1.905766e-42
43.38830200 32.55479800 531.64600000 -0.31130701 0.46664399 -0.82784700 1.905766e-42
44.04200000 31.18100000 530.68402000 -0.31357700 0.48007801 -0.81926501 1.905766e-42
44.56250000 29.75680000 529.71399000 -0.31434101 0.49379700 -0.81077403 1.905766e-42
45.54349900 28.63730000 528.70203000 -0.32105201 0.50253600 -0.80273497 1.905766e-42
46.47079800 27.60250100 527.55701000 -0.33012301 0.51300001 -0.79237002 1.905766e-42
47.19879900 26.54420100 526.29700000 -0.34100401 0.52969098 -0.77662301 1.905766e-42
48.07600000 25.48720000 525.13300000 -0.35294700 0.54596400 -0.75983697 1.905766e-42
49.02159900 24.36260000 524.09302000 -0.36465600 0.56231499 -0.74217802 1.905766e-42
50.33160000 23.61680000 523.10999000 -0.37922600 0.57454300 -0.72531903 1.905766e-42
51.41170100 22.83130100 521.90302000 -0.39134699 0.58943200 -0.70669502 1.905766e-42
52.18880100 21.97279900 520.52502000 -0.40094501 0.60663199 -0.68646902 1.905766e-42
53.26240200 21.43180100 519.18500000 -0.40311399 0.61048198 -0.68177003 1.905766e-42
54.50210200 21.01110100 517.95001000 -0.40485701 0.61369503 -0.67784202 1.905766e-42
55.41750000 20.17960000 516.64203000 -0.40423900 0.62027001 -0.67220199 1.905766e-42
56.95679900 19.93359900 515.74200000 -0.40528199 0.62196898 -0.67000097 1.905766e-42
58.43080100 19.71690000 514.73199000 -0.40552300 0.62446100 -0.66753203 1.905766e-42
59.68989900 19.28300100 513.52100000 -0.40510499 0.62915701 -0.66336298 1.905766e-42
61.04119900 19.07749900 512.34900000 -0.40651101 0.63419700 -0.65767998 1.905766e-42
61.99119900 18.54579900 510.91599000 -0.40858200 0.64475697 -0.64602602 1.905766e-42
61.23640100 17.13550000 510.09100000 -0.40802300 0.65784800 -0.63305098 1.905766e-42
60.42480100 15.78330000 509.22299000 -0.40697300 0.67160600 -0.61912698 1.905766e-42
59.70859900 14.44870000 508.25000000 -0.40554801 0.68637300 -0.60367399 1.905766e-42
58.84980000 13.13460000 507.37000000 -0.40277201 0.70076197 -0.58881903 1.905766e-42
58.26810100 11.80710000 506.30200000 -0.39996299 0.71602702 -0.57213300 1.905766e-42
57.19419900 10.63410000 505.45901000 -0.39079800 0.73074198 -0.55972600 1.905766e-42
56.12580100 9.43857000 504.64099000 -0.37358201 0.74893099 -0.54730099 1.905766e-42
55.30880000 8.23766040 503.57800000 -0.35950199 0.76593798 -0.53300703 1.905766e-42
54.92030000 7.01417020 502.31601000 -0.34443501 0.77698803 -0.52692801 1.905766e-42
53.49630000 6.13521000 501.65302000 -0.32518199 0.79074502 -0.51863199 1.905766e-42
52.57379900 5.03404000 500.56799000 -0.30708399 0.80270100 -0.51124400 1.905766e-42
52.83160000 3.92198990 499.17700000 -0.29514599 0.80950803 -0.50752801 1.905766e-42
51.69960000 3.10170010 498.04300000 -0.27888900 0.82235998 -0.49592799 1.905766e-42
51.09170200 2.04258990 496.72000000 -0.26393801 0.83423501 -0.48413700 1.905766e-42
49.97259900 1.16831990 495.61401000 -0.25023100 0.84669602 -0.46956399 1.905766e-42
49.09289900 0.28739399 494.31400000 -0.23695700 0.85906500 -0.45371601 1.905766e-42
48.25890000 -0.60516202 492.99200000 -0.22435801 0.87114900 -0.43676499 1.905766e-42
47.84669900 -1.52338000 491.50000000 -0.21262801 0.88218898 -0.42015699 1.905766e-42
47.53960000 -2.55359010 490.05600000 -0.20190001 0.89228898 -0.40380299 1.905766e-42
