# .PCD v0.7 - Point Cloud Data file format
# 3 169 1
# 1 75 0
# 76 96 0
# 97 169 1
VERSION 0.7
FIELDS x y z normal_x normal_y normal_z curvature
SIZE 4 4 4 4 4 4 4
TYPE F F F F F F F
COUNT 1 1 1 1 1 1 1
WIDTH 169
HEIGHT 1
VIEWPOINT 0 0 0 1 0 0 0
POINTS 169
DATA ascii
-29.27280000 88.62690000 360.19901000 0.29057500 -0.78947699 -0.54064000 1.905766e-42
-27.94700100 87.96740000 361.22198000 0.30631500 -0.78732198 -0.53506601 1.905766e-42
-26.84180100 87.49800100 362.56299000 0.30664700 -0.78312999 -0.54099399 1.905766e-42
-25.52269900 87.19229900 363.74899000 0.29286501 -0.77828002 -0.55543703 1.905766e-42
-24.08970100 87.09149900 364.83401000 0.27289999 -0.77086103 -0.57558501 1.905766e-42
-23.06180000 86.29180100 366.07700000 0.24705400 -0.75997198 -0.60117102 1.905766e-42
-21.80600000 85.77960200 367.26001000 0.21394700 -0.74730903 -0.62909102 1.905766e-42
-20.32970000 85.78520200 368.29001000 0.19909400 -0.73261398 -0.65087497 1.905766e-42
-19.59339900 84.52649700 369.34500000 0.18517099 -0.72190499 -0.66675699 1.905766e-42
-18.14590100 84.00440200 370.27899000 0.18020900 -0.70923001 -0.68155599 1.905766e-42
-17.16600000 83.03140300 371.43399000 0.17034400 -0.69940698 -0.69412798 1.905766e-42
-15.74930000 82.59429900 372.45401000 0.16544101 -0.68804401 -0.70655900 1.905766e-42
-14.76610000 81.51090200 373.50299000 0.14553399 -0.67927200 -0.71931201 1.905766e-42
-13.29180000 81.12760200 374.46201000 0.11481300 -0.66755402 -0.73565602 1.905766e-42
-12.67080000 79.75399800 375.44501000 0.08752660 -0.66039199 -0.74580300 1.905766e-42
-11.60150000 78.70919800 376.44800000 0.05449520 -0.64904100 -0.75879902 1.905766e-42
-10.65150000 77.56179800 377.45801000 0.02149260 -0.63353598 -0.77341503 1.905766e-42
-9.73917010 76.38140100 378.46600000 -0.01067630 -0.60926199 -0.79289699 1.905766e-42
-8.78419970 75.14800300 379.36401000 -0.03982920 -0.58376998 -0.81094098 1.905766e-42
-7.92124990 73.82379900 380.22501000 -0.06354690 -0.55813599 -0.82731301 1.905766e-42
-6.80838010 72.63710000 380.99500000 -0.08546080 -0.53176498 -0.84256899 1.905766e-42
-6.19998980 71.18689700 381.87100000 -0.10739100 -0.50755203 -0.85490298 1.905766e-42
-6.23914000 69.57250200 382.66599000 -0.12670900 -0.48899099 -0.86303699 1.905766e-42
-5.42569020 68.14189900 383.39499000 -0.14730000 -0.46509400 -0.87292099 1.905766e-42
-5.07552000 66.57129700 384.20200000 -0.16602400 -0.44492301 -0.88004500 1.905766e-42
-4.93505000 64.93370100 384.93600000 -0.18261400 -0.42898300 -0.88466102 1.905766e-42
-5.15553000 63.29980100 385.65799000 -0.19552700 -0.41770601 -0.88729399 1.905766e-42
-4.93233010 61.67359900 386.39700000 -0.20858400 -0.40386400 -0.89072198 1.905766e-42
-5.37341020 60.06810000 387.08099000 -0.21645799 -0.39457601 -0.89300400 1.905766e-42
-5.22907020 58.39530200 387.72900000 -0.22504500 -0.38230601 -0.89621300 1.905766e-42
-4.63658000 56.79650100 388.30600000 -0.23177800 -0.37056801 -0.89942098 1.905766e-42
-4.79142000 55.19800200 389.11899000 -0.23431900 -0.36147901 -0.90245700 1.905766e-42
-4.58757020 53.52349900 389.74701000 -0.23461699 -0.35285899 -0.90578401 1.905766e-42
-4.28234000 51.84619900 390.32501000 -0.23248000 -0.35053799 -0.90723598 1.905766e-42
-4.56921010 50.21149800 391.02100000 -0.23221201 -0.34878999 -0.90797800 1.905766e-42
-3.68708990 48.69800200 391.43500000 -0.22912499 -0.34749800 -0.90925598 1.905766e-42
-3.70018010 47.01010100 392.06000000 -0.22990701 -0.34507799 -0.90998000 1.905766e-42
-3.01061010 45.51730000 392.79300000 -0.22975899 -0.34178901 -0.91125798 1.905766e-42
-3.98659990 44.04850000 393.15302000 -0.23567000 -0.34072900 -0.91014498 1.905766e-42
-3.95812990 43.04890100 393.48999000 -0.23818800 -0.33898199 -0.91014099 1.905766e-42
-4.08333020 41.35680000 394.09100000 -0.24406400 -0.33632001 -0.90957201 1.905766e-42
-4.71162990 39.88090100 394.90799000 -0.25066301 -0.33600801 -0.90789098 1.905766e-42
-4.63384010 38.16070200 395.43201000 -0.25729001 -0.32956299 -0.90840000 1.905766e-42
-3.95731000 36.54050100 395.82901000 -0.26412401 -0.32110301 -0.90946800 1.905766e-42
-3.93129990 34.83649800 396.40799000 -0.26841301 -0.31500700 -0.91034299 1.905766e-42
-3.83490990 33.13439900 396.98599000 -0.27081901 -0.30931199 -0.91158301 1.905766e-42
-4.06516980 31.48180000 397.66101000 -0.26949999 -0.30412701 -0.91371602 1.905766e-42
-4.52070000 29.88670000 398.35999000 -0.26527399 -0.29840800 -0.91683298 1.905766e-42
-4.02580020 28.20710000 398.77701000 -0.26253700 -0.29459101 -0.91885298 1.905766e-42
-4.08972980 26.49150100 399.31799000 -0.25526300 -0.28972200 -0.92244297 1.905766e-42
-4.75280000 24.91960000 399.89200000 -0.24675800 -0.28217900 -0.92708403 1.905766e-42
-4.04071000 23.30150000 400.23001000 -0.23832300 -0.28125599 -0.92956799 1.905766e-42
-4.55618000 21.67079900 400.79199000 -0.23349100 -0.27432400 -0.93286002 1.905766e-42
-4.80074980 19.98740000 401.38000000 -0.23063700 -0.26855701 -0.93524498 1.905766e-42
-4.87886000 18.27700000 401.93600000 -0.22927900 -0.26308501 -0.93713301 1.905766e-42
-5.09670020 16.56040000 402.43100000 -0.23078200 -0.25754300 -0.93830198 1.905766e-42
-5.02169990 14.82570000 402.90601000 -0.23280500 -0.25167900 -0.93939298 1.905766e-42
-5.55775020 13.20390000 403.47400000 -0.23942301 -0.24730401 -0.93889201 1.905766e-42
-5.51881980 11.45890000 403.91400000 -0.24533100 -0.24141100 -0.93889999 1.905766e-42
-5.63934990 9.72980980 404.39899000 -0.25137401 -0.23687500 -0.93845701 1.905766e-42
-5.79172990 8.00876050 404.90399000 -0.25450999 -0.23193499 -0.93884599 1.905766e-42
-6.36343000 6.35927010 405.34299000 -0.25274700 -0.22664200 -0.94061297 1.905766e-42
-6.31942990 4.61011980 405.76501000 -0.25068599 -0.22030500 -0.94266802 1.905766e-42
-6.28946020 2.85124990 406.14600000 -0.24637599 -0.21380900 -0.94529599 1.905766e-42
-6.50974990 1.13184000 406.63101000 -0.23671000 -0.20606500 -0.94947702 1.905766e-42
-6.90716980 -0.52930802 407.19901000 -0.22113501 -0.19624600 -0.95529401 1.905766e-42
-8.02962970 -1.84922000 407.68701000 -0.19455600 -0.17021000 -0.96601099 1.905766e-42
-8.51385970 -3.55320000 408.00601000 -0.17471200 -0.13610999 -0.97516602 1.905766e-42
-9.54986950 -4.97791000 408.37601000 -0.13969800 -0.10731200 -0.98436201 1.905766e-42
-9.16590980 -6.71701000 408.63699000 -0.14140500 -0.08405180 -0.98637700 1.905766e-42
-10.30280000 -8.11061950 408.70999000 -0.09966760 -0.06183800 -0.99309701 1.905766e-42
-10.52140000 -9.89542960 408.79199000 -0.08541290 -0.04081230 -0.99550903 1.905766e-42
-11.25930000 -11.53480000 408.88000000 -0.05101390 -0.02241290 -0.99844599 1.905766e-42
-11.96430000 -13.19100000 408.89401000 -0.01812650 -0.00676783 -0.99981302 1.905766e-42
-11.95840000 -14.99040000 408.94299000 -0.01808620 0.00799201 -0.99980402 1.905766e-42
-12.20430000 -16.77330000 408.92001000 -0.01212550 0.01987920 -0.99972898 1.905766e-42
-13.99870000 -16.82780100 408.78900000 0.04179320 0.02569660 -0.99879599 1.905766e-42
-15.79860000 -16.80979900 408.78400000 0.08160050 0.03867910 -0.99591398 1.905766e-42
-17.52100000 -16.30090000 408.66400000 0.10779800 0.05238660 -0.99279201 1.905766e-42
-19.30290000 -16.28210100 408.41101000 0.12901101 0.07142890 -0.98906702 1.905766e-42
-21.01870000 -16.71290000 408.07800000 0.14725000 0.08790430 -0.98518503 1.905766e-42
-22.79420100 -16.62660000 407.79501000 0.16150500 0.09357960 -0.98242497 1.905766e-42
-24.53179900 -16.21839900 407.56201000 0.17659301 0.09058750 -0.98010701 1.905766e-42
-26.20990000 -16.72620000 407.15500000 0.19366001 0.09050230 -0.97688502 1.905766e-42
-27.95529900 -16.41670000 406.84201000 0.21378900 0.08703980 -0.97299403 1.905766e-42
-29.54630100 -17.11130000 406.36700000 0.23236500 0.09271410 -0.96820003 1.905766e-42
-31.31710100 -16.81769900 406.23199000 0.25014701 0.09485850 -0.96354997 1.905766e-42
-32.83250000 -17.50680000 405.54800000 0.27722400 0.10681000 -0.95485002 1.905766e-42
-34.56930200 -17.53660000 405.07599000 0.31892401 0.11693800 -0.94053900 1.905766e-42
-36.23400100 -17.43219900 404.39899000 0.35875699 0.12704000 -0.92474598 1.905766e-42
-37.92160000 -17.58830100 403.79300000 0.39841899 0.13985400 -0.90647799 1.905766e-42
-39.49750100 -17.24860000 402.99200000 0.42308000 0.14851201 -0.89383799 1.905766e-42
-41.10829900 -16.88040000 402.27802000 0.41056201 0.15000300 -0.89941001 1.905766e-42
-42.69870000 -17.34779900 401.57700000 0.39933100 0.14854400 -0.90469301 1.905766e-42
-44.38800000 -17.55460000 400.99100000 0.38768801 0.13320599 -0.91211498 1.905766e-42
-45.99770000 -17.81290100 400.22800000 0.37300199 0.10564500 -0.92179698 1.905766e-42
-47.61700100 -18.11350100 399.50101000 0.34857100 0.07332990 -0.93440902 1.905766e-42
-49.27590200 -17.49180000 399.18301000 0.32905099 0.04203110 -0.94337600 1.905766e-42
-49.46989800 -15.71310000 398.98599000 0.35295999 0.03803390 -0.93486500 1.905766e-42
-49.44260000 -13.91420000 398.92999000 0.37962800 0.03775530 -0.92436898 1.905766e-42
-50.45430000 -12.44970000 398.66199000 0.37710300 0.02207510 -0.92590803 1.905766e-42
-51.66960100 -11.16290000 398.33401000 0.36402699 0.00316412 -0.93138301 1.905766e-42
-52.20240000 -9.45250990 398.15900000 0.37532899 -0.00461379 -0.92688000 1.905766e-42
-52.36650100 -7.67983010 397.89301000 0.39402801 -0.00781458 -0.91906500 1.905766e-42
-53.58980200 -6.39478020 397.59000000 0.35251400 -0.02920580 -0.93535101 1.905766e-42
-52.83630000 -4.76037980 397.56000000 0.41330701 -0.01741690 -0.91042501 1.905766e-42
-53.70890000 -3.22831010 397.19800000 0.38966399 -0.03510760 -0.92028701 1.905766e-42
-55.11600100 -2.19532990 396.75800000 0.33727700 -0.06332320 -0.93927300 1.905766e-42
-54.58380100 -0.48158801 396.61700000 0.38094601 -0.06476100 -0.92232603 1.905766e-42
-55.45850000 1.04004000 396.21799000 0.35935900 -0.08548090 -0.92927599 1.905766e-42
-56.30120100 2.58102010 395.82401000 0.34157300 -0.10459600 -0.93401700 1.905766e-42
-57.02290000 4.20296000 395.52600000 0.33212000 -0.12116200 -0.93542302 1.905766e-42
-57.47129800 5.90425010 395.14600000 0.33316001 -0.13451301 -0.93322599 1.905766e-42
-57.13629900 7.63011980 394.76001000 0.35992599 -0.13851100 -0.92264199 1.905766e-42
-58.27450200 8.99005030 394.45200000 0.33726299 -0.15740700 -0.92815799 1.905766e-42
-58.23130000 10.72460000 393.97299000 0.35404801 -0.16670600 -0.92025000 1.905766e-42
-58.25650000 12.46420000 393.51099000 0.36849299 -0.17903100 -0.91222799 1.905766e-42
-57.98270000 14.21140000 393.17599000 0.39096600 -0.18726701 -0.90115303 1.905766e-42
-58.80300100 15.71640000 392.62601000 0.38106900 -0.20598300 -0.90130901 1.905766e-42
-59.03419900 17.45750000 392.23199000 0.38927999 -0.21836101 -0.89486301 1.905766e-42
-58.94030000 19.18969900 391.75201000 0.40297699 -0.22768299 -0.88643700 1.905766e-42
-58.47330100 20.88419900 391.36401000 0.42347199 -0.23334500 -0.87534100 1.905766e-42
-58.51630000 22.61700100 390.87799000 0.43103001 -0.24357700 -0.86883998 1.905766e-42
-59.10100200 24.19780000 390.24701000 0.42467001 -0.25756100 -0.86793900 1.905766e-42
-58.84790000 25.92890000 389.82300000 0.43589899 -0.26753601 -0.85931200 1.905766e-42
-59.69120000 27.42000000 389.27100000 0.42322201 -0.28178599 -0.86109197 1.905766e-42
-59.54729800 29.13850000 388.75500000 0.42840701 -0.29218400 -0.85504103 1.905766e-42
-59.26950100 30.83020000 388.20599000 0.43371600 -0.30253801 -0.84874099 1.905766e-42
-58.70890000 32.44829900 387.65201000 0.44198999 -0.31262800 -0.84077901 1.905766e-42
-59.10730000 34.08300000 387.01199000 0.43127000 -0.32468399 -0.84177601 1.905766e-42
-58.48790000 35.69900100 386.51700000 0.43797699 -0.33586499 -0.83388901 1.905766e-42
-58.69780000 37.36209900 385.86099000 0.42731500 -0.34805399 -0.83442199 1.905766e-42
-58.19609800 38.99620100 385.29800000 0.42857599 -0.35909000 -0.82908201 1.905766e-42
-57.89780000 40.67380100 384.71701000 0.42394599 -0.37072200 -0.82633901 1.905766e-42
-58.15829800 42.30180000 383.99500000 0.40505901 -0.38104001 -0.83110499 1.905766e-42
-57.96400100 43.97560100 383.36200000 0.39309999 -0.39384699 -0.83087701 1.905766e-42
-57.56129800 45.60030000 382.70001000 0.38331300 -0.40850499 -0.82836902 1.905766e-42
-57.60990100 47.26419800 382.01501000 0.36114600 -0.42114899 -0.83199000 1.905766e-42
-57.29380000 48.90819900 381.35400000 0.34546900 -0.43688700 -0.83052999 1.905766e-42
-56.59849900 50.38560100 380.59601000 0.33850899 -0.45554999 -0.82333797 1.905766e-42
-56.22860000 52.01359900 379.92300000 0.32331100 -0.46994299 -0.82135397 1.905766e-42
-55.79859900 53.62020100 379.23499000 0.31217000 -0.48068300 -0.81944698 1.905766e-42
-55.32580200 55.21519900 378.54800000 0.30470499 -0.49104601 -0.81610602 1.905766e-42
-54.67079900 56.71270000 377.79401000 0.30558500 -0.50176299 -0.80922902 1.905766e-42
-54.15539900 58.27249900 377.05801000 0.30253100 -0.51152498 -0.80425000 1.905766e-42
-53.75190000 59.89360000 376.38800000 0.29612201 -0.52076298 -0.80069798 1.905766e-42
-52.93870200 61.31549800 375.64099000 0.30871400 -0.53203398 -0.78843898 1.905766e-42
-51.76860000 62.48130000 374.92599000 0.34489200 -0.54468900 -0.76443702 1.905766e-42
-51.28319900 64.03420300 374.15601000 0.34067500 -0.55709797 -0.75735199 1.905766e-42
-50.16619900 65.28730000 373.50601000 0.36625400 -0.57404703 -0.73234397 1.905766e-42
-49.17260000 66.65470100 372.88800000 0.36483699 -0.59141499 -0.71911198 1.905766e-42
-49.31890100 68.12059800 371.85300000 0.33255300 -0.60021299 -0.72742897 1.905766e-42
-48.45169800 69.49559800 371.07999000 0.33226401 -0.61487198 -0.71521503 1.905766e-42
-47.75780100 70.93550100 370.25299000 0.32801500 -0.62796801 -0.70573503 1.905766e-42
-46.72020000 72.19149800 369.48700000 0.33618101 -0.64144599 -0.68958598 1.905766e-42
-45.50849900 73.35849800 368.84698000 0.35034001 -0.65494698 -0.66955698 1.905766e-42
-45.05590100 74.80619800 367.87799000 0.33677399 -0.66758901 -0.66400999 1.905766e-42
-43.72840100 75.87319900 367.29501000 0.34996900 -0.68056101 -0.64370698 1.905766e-42
-43.04919800 77.26049800 366.37100000 0.33928299 -0.68396699 -0.64581400 1.905766e-42
-42.19409900 78.59269700 365.51401000 0.33213201 -0.68914598 -0.64402401 1.905766e-42
-41.21160100 79.86579900 364.70599000 0.32436901 -0.69562399 -0.64100802 1.905766e-42
-39.77339900 80.80049900 364.16000000 0.33029500 -0.70392698 -0.62880301 1.905766e-42
-39.06539900 82.11730200 363.15701000 0.31991401 -0.70784497 -0.62976998 1.905766e-42
-38.13219800 83.35420200 362.24100000 0.31354001 -0.71366602 -0.62639701 1.905766e-42
-37.07619900 84.55220000 361.41101000 0.30824399 -0.72142798 -0.62010300 1.905766e-42
-35.61970100 85.41269700 360.79599000 0.30835399 -0.73324299 -0.60602999 1.905766e-42
-33.94089900 86.06169900 360.77600000 0.30650499 -0.74984598 -0.58633298 1.905766e-42
-32.32560000 86.85520200 360.74200000 0.29648000 -0.76601398 -0.57037002 1.905766e-42
-30.70400000 87.63060000 360.64499000 0.29248399 -0.77894402 -0.55470699 1.905766e-42
