# .PCD v0.7 - Point Cloud Data file format
# 3 59 0
# 1 11 0
# 12 33 1
# 34 59 0
VERSION 0.7
FIELDS x y z normal_x normal_y normal_z curvature
SIZE 4 4 4 4 4 4 4
TYPE F F F F F F F
COUNT 1 1 1 1 1 1 1
WIDTH 59
HEIGHT 1
VIEWPOINT 0 0 0 1 0 0 0
POINTS 59
DATA ascii
31.7694 16.5033 472.37601 -0.74259698 0.66973501 -0.0021437299 1.9057659e-42
30.9706 15.2908 471.31201 -0.78215802 0.54317898 -0.305262 1.9057659e-42
30.4939 13.8417 470.35699 -0.73280299 0.435568 -0.522762 1.9057659e-42
30.440001 12.3429 469.36099 -0.65680498 0.34820399 -0.66885 1.9057659e-42
30.409 10.6853 468.66 -0.587502 0.27340201 -0.76163799 1.9057659e-42
31.082701 9.1177702 468.08701 -0.559852 0.285335 -0.77791297 1.9057659e-42
31.151199 7.5086398 467.28299 -0.559807 0.347096 -0.75242299 1.9057659e-42
30.580299 5.9632602 466.55801 -0.56723499 0.42752099 -0.703897 1.9057659e-42
30.347601 4.4060001 465.686 -0.57820398 0.47211301 -0.66542399 1.9057659e-42
29.8029 2.8314099 465.004 -0.56625497 0.49423599 -0.65960997 1.9057659e-42
29.777901 1.41133 463.99899 -0.53021902 0.442101 -0.72347403 1.9057659e-42
29.6996 -0.37218699 463.76901 -0.39425001 0.0100675 -0.91894799 1.9057659e-42
28.282301 -1.35817 464.27802 -0.37522501 0.0390631 -0.92611003 1.9057659e-42
26.657301 -1.87132 464.85699 -0.375855 0.15629201 -0.91340297 1.9057659e-42
24.9821 -2.2168901 465.418 -0.33899599 0.26576301 -0.90246999 1.9057659e-42
23.4142 -1.6518101 466.09799 -0.34065199 0.389961 -0.85550302 1.9057659e-42
21.737 -1.635 466.75101 -0.30232999 0.45817399 -0.83586699 1.9057659e-42
20.011299 -1.95351 467.15201 -0.245414 0.48314601 -0.840442 1.9057659e-42
18.2633 -2.2211299 467.48801 -0.19368801 0.49053499 -0.84962398 1.9057659e-42
16.6117 -1.7799799 468.052 -0.141122 0.50703198 -0.85029602 1.9057659e-42
14.844 -1.64362 468.362 -0.085949697 0.496216 -0.86393398 1.9057659e-42
13.0519 -1.6067801 468.52701 -0.0372307 0.468804 -0.88251698 1.9057659e-42
11.3093 -1.2191 468.758 0.0138595 0.44786 -0.893996 1.9057659e-42
9.8593502 -0.233036 469.164 0.0796175 0.45891801 -0.88490403 1.9057659e-42
8.2844296 0.60640299 469.39801 0.141948 0.465747 -0.87345898 1.9057659e-42
6.7332201 1.502 469.57599 0.201893 0.45384699 -0.86790699 1.9057659e-42
5.1528101 2.3633399 469.59601 0.251885 0.42790499 -0.868016 1.9057659e-42
3.50284 3.0604999 469.41901 0.29147699 0.38300601 -0.87655401 1.9057659e-42
2.15292 4.2509699 469.396 0.35491201 0.33269 -0.87370199 1.9057659e-42
0.86948299 5.5117798 469.34 0.36193201 0.25903499 -0.89549202 1.9057659e-42
-0.794716 6.0837202 468.96201 0.318012 0.21740299 -0.92282403 1.9057659e-42
-1.67456 7.6473398 468.81699 0.331368 0.35303801 -0.87496197 1.9057659e-42
-1.55964 9.1130896 469.85501 0.284426 0.49465999 -0.821226 1.9057659e-42
-2.3634801 10.0955 471.13101 0.20403799 0.49872899 -0.84240001 1.9057659e-42
-0.67193002 10.7087 471.18301 0.24691901 0.44887301 -0.85880399 1.9057659e-42
0.75410801 11.5214 471.922 0.28075001 0.34973201 -0.893794 1.9057659e-42
1.9726501 12.5504 472.75699 0.30127001 0.25400299 -0.91908598 1.9057659e-42
3.4688301 13.3124 473.405 0.29149801 0.22932599 -0.92867601 1.9057659e-42
4.87851 14.2222 474.05701 0.32234499 0.248623 -0.91338998 1.9057659e-42
6.02671 15.2585 474.978 0.40950501 0.324397 -0.85268497 1.9057659e-42
7.0969601 16.3204 475.961 0.53721499 0.42065501 -0.73106098 1.9057659e-42
7.58989 17.4666 477.259 0.66419399 0.54452997 -0.51218498 1.9057659e-42
8.4958696 17.4519 478.814 0.748263 0.57236397 -0.335412 1.9057659e-42
9.7046604 16.565901 479.811 0.69501799 0.679757 -0.234265 1.9057659e-42
10.9339 15.5734 480.673 0.639543 0.75381601 -0.15081599 1.9057659e-42
12.4021 14.5397 480.79999 0.54685003 0.82963198 -0.112541 1.9057659e-42
13.9784 13.6708 480.798 0.438719 0.89449102 -0.086085998 1.9057659e-42
15.6289 12.9525 480.797 0.35433301 0.93323398 -0.0593592 1.9057659e-42
17.345301 12.4102 480.79599 0.25136599 0.96746802 -0.028649099 1.9057659e-42
18.9251 11.9797 481.54401 0.162948 0.98660803 0.0073000402 1.9057659e-42
20.3013 11.9357 480.384 0.068521403 0.99763203 0.00587714 1.9057659e-42
22.0714 11.9174 480.05801 -0.037735201 0.99907899 0.020411599 1.9057659e-42
23.8645 12.0638 479.99899 -0.141607 0.98894799 0.043932799 1.9057659e-42
25.461599 12.3955 479.237 -0.239953 0.96937102 0.0523661 1.9057659e-42
27.075701 12.9747 478.69101 -0.340312 0.93738902 0.074091204 1.9057659e-42
28.439199 13.6825 477.75299 -0.446603 0.88959199 0.095764004 1.9057659e-42
29.620399 14.4487 476.63101 -0.533961 0.83743399 0.116577 1.9057659e-42
30.3969 15.1916 475.18701 -0.59800798 0.79467499 0.104296 1.9057659e-42
31.3615 16.2666 474.11301 -0.66898 0.73516399 0.109541 1.9057659e-42
