# .PCD v0.7 - Point Cloud Data file format
# 5 156 0
# 1 27 0
# 28 64 0
# 65 100 0
# 101 131 0
# 132 156 0
VERSION 0.7
FIELDS x y z normal_x normal_y normal_z curvature
SIZE 4 4 4 4 4 4 4
TYPE F F F F F F F
COUNT 1 1 1 1 1 1 1
WIDTH 156
HEIGHT 1
VIEWPOINT 0 0 0 1 0 0 0
POINTS 156
DATA ascii
39.77899900 1.93403010 402.09698000 0.91486901 -0.03623150 -0.40212300 1.905766e-42
39.64320000 3.69783000 401.76501000 0.91336501 -0.02628340 -0.40629300 1.905766e-42
39.44260000 5.47938010 401.60400000 0.91419899 -0.02065610 -0.40473899 1.905766e-42
39.83750200 7.22864010 401.75900000 0.92076600 -0.01878900 -0.38966200 1.905766e-42
39.96320000 9.02316000 401.82199000 0.92655498 -0.01560460 -0.37583601 1.905766e-42
39.97980100 10.81720000 401.96799000 0.93241203 -0.00993793 -0.36125901 1.905766e-42
39.96670200 12.61710000 401.97299000 0.93761897 -0.00380395 -0.34764299 1.905766e-42
40.20360200 14.04990000 402.38901000 0.94365197 0.00580178 -0.33089000 1.905766e-42
40.00519900 15.82170000 402.63699000 0.94935203 0.01494070 -0.31385800 1.905766e-42
40.16619900 17.60479900 402.45200000 0.95370799 0.02171120 -0.29995099 1.905766e-42
40.33480100 19.35080000 402.85599000 0.96072698 0.03301400 -0.27552599 1.905766e-42
40.40959900 21.12730000 403.13599000 0.96766102 0.04250170 -0.24864900 1.905766e-42
40.32189900 22.92480100 403.17200000 0.97237498 0.04574710 -0.22889601 1.905766e-42
40.38539900 24.62540100 403.75800000 0.97775501 0.05486630 -0.20244500 1.905766e-42
39.98370000 26.37410000 403.61499000 0.98106301 0.05482070 -0.18577000 1.905766e-42
39.82780100 28.05810000 404.23099000 0.98521000 0.06328390 -0.15923800 1.905766e-42
39.87239800 29.80629900 404.65799000 0.98848802 0.06942180 -0.13443001 1.905766e-42
40.04690200 31.59440000 404.76901000 0.99099302 0.07144420 -0.11326600 1.905766e-42
39.75289900 33.37020100 404.77100000 0.99311799 0.07051820 -0.09351030 1.905766e-42
39.85910000 35.00659900 405.51300000 0.99490398 0.07618850 -0.06604570 1.905766e-42
39.67969900 36.79729800 405.54401000 0.99631500 0.07397710 -0.04339380 1.905766e-42
39.46320000 38.58380100 405.58401000 0.99695402 0.07554650 -0.01939330 1.905766e-42
39.42910000 40.25920100 406.24200000 0.99623698 0.08615690 0.00943216 1.905766e-42
39.21569800 42.04650100 406.24701000 0.99550098 0.08921710 0.03190750 1.905766e-42
39.04650100 43.83269900 406.39001000 0.99403799 0.09405180 0.05516580 1.905766e-42
38.67850100 45.59470000 406.38800000 0.99237901 0.09694590 0.07606630 1.905766e-42
38.67509800 47.31499900 406.91800000 0.98937899 0.10446200 0.10107600 1.905766e-42
38.32980000 48.84370000 407.80301000 0.98514098 0.11453800 0.12797900 1.905766e-42
38.08350000 48.80080000 409.58499000 0.97903597 0.13680200 0.15091200 1.905766e-42
37.70280100 48.62789900 411.33600000 0.97235000 0.15975399 0.17033499 1.905766e-42
37.65179800 48.06510200 413.04501000 0.96672398 0.18112200 0.18066400 1.905766e-42
37.38769900 47.75680200 414.79901000 0.95949399 0.20470200 0.19356599 1.905766e-42
36.89350100 47.51580000 416.51300000 0.95120800 0.22943600 0.20630600 1.905766e-42
36.85929900 46.85879900 418.18799000 0.94454598 0.25373599 0.20845000 1.905766e-42
36.53720100 46.47160000 419.91599000 0.93566698 0.27983999 0.21498001 1.905766e-42
36.32669800 46.09909800 421.66501000 0.92739397 0.29711500 0.22729599 1.905766e-42
35.90440000 45.86439900 423.39899000 0.91774899 0.31523499 0.24158500 1.905766e-42
35.29639800 45.84170200 425.09299000 0.90698701 0.33348700 0.25721699 1.905766e-42
35.13980100 45.48000000 426.84900000 0.89815998 0.34883100 0.26763099 1.905766e-42
34.48659900 45.46279900 428.52600000 0.88595903 0.36715901 0.28332099 1.905766e-42
34.02660000 45.18820200 430.24500000 0.87489301 0.38381600 0.29537699 1.905766e-42
33.56919900 44.84230000 431.95099000 0.86398101 0.39995900 0.30588999 1.905766e-42
32.94599900 44.77150000 433.63800000 0.85065901 0.41822800 0.31853500 1.905766e-42
32.21460000 44.80960100 435.28201000 0.83600301 0.43733099 0.33142000 1.905766e-42
31.66690100 44.96690000 436.98999000 0.82093900 0.45578900 0.34397200 1.905766e-42
30.62490100 45.47129800 438.36801000 0.80234998 0.47523299 0.36109301 1.905766e-42
29.77829900 45.91070200 439.89499000 0.78411502 0.49307299 0.37688601 1.905766e-42
29.03720100 45.99350000 441.53299000 0.76791501 0.50814599 0.38999301 1.905766e-42
27.92090000 46.19770100 442.92999000 0.74983197 0.52326399 0.40490299 1.905766e-42
27.57690000 45.69200100 444.62299000 0.73954302 0.53165197 0.41282201 1.905766e-42
26.39310100 46.17580000 445.89001000 0.72048599 0.54528397 0.42844501 1.905766e-42
25.10330000 46.81420100 446.97101000 0.70077503 0.55863899 0.44366401 1.905766e-42
23.72650000 47.37939800 447.98300000 0.68047500 0.57177502 0.45828599 1.905766e-42
22.83560000 47.68320100 449.51700000 0.66246903 0.58220798 0.47134700 1.905766e-42
21.39510000 48.45769900 450.26901000 0.64092600 0.59557199 0.48425999 1.905766e-42
20.00340100 49.13610100 451.18701000 0.61884099 0.60871297 0.49649200 1.905766e-42
18.60240000 49.96640000 451.95401000 0.59590799 0.62239200 0.50746697 1.905766e-42
17.21400100 50.77380000 452.76700000 0.56829101 0.63792300 0.51971102 1.905766e-42
15.69680000 51.39600000 453.50900000 0.53474599 0.65421999 0.53483099 1.905766e-42
14.26440000 51.71760200 454.55099000 0.50655597 0.66499299 0.54880399 1.905766e-42
12.64380000 52.28630100 455.08899000 0.48200601 0.67185903 0.56238401 1.905766e-42
11.46040000 53.51139800 454.50699000 0.47525799 0.66840100 0.57216299 1.905766e-42
10.18250000 54.77840000 454.54901000 0.47253701 0.65618098 0.58833301 1.905766e-42
8.86684990 56.00659900 454.52802000 0.48041999 0.63037997 0.60976899 1.905766e-42
7.30956980 56.84500100 454.86301000 0.48744401 0.59977299 0.63456303 1.905766e-42
6.58462000 55.71300100 456.06000000 0.45708001 0.62037098 0.63735300 1.905766e-42
6.36933990 54.49200100 457.36499000 0.42825401 0.64718598 0.63067299 1.905766e-42
6.41110990 53.23170100 458.64899000 0.40663499 0.66993099 0.62115997 1.905766e-42
6.76093010 52.06620000 459.97601000 0.39294899 0.68772101 0.61043501 1.905766e-42
7.10696980 50.84650000 461.25299000 0.38619500 0.70145601 0.59900999 1.905766e-42
7.59750990 49.55530200 462.40799000 0.39157501 0.69125599 0.60731697 1.905766e-42
8.09405040 48.24140200 463.53299000 0.39865801 0.67690998 0.61876100 1.905766e-42
8.64997960 46.89619800 464.59201000 0.40693101 0.66260803 0.62877500 1.905766e-42
9.39167020 45.54719900 465.52499000 0.41803500 0.64824098 0.63642001 1.905766e-42
9.51894000 44.19599900 466.70700000 0.41985899 0.63583499 0.64763600 1.905766e-42
10.32270000 42.85609800 467.60101000 0.43000099 0.62734300 0.64926100 1.905766e-42
10.43370000 41.48960100 468.76700000 0.42823601 0.63074398 0.64713001 1.905766e-42
10.92630000 40.16650000 469.88400000 0.43123600 0.63314402 0.64277899 1.905766e-42
11.31610000 38.60419800 470.68799000 0.43526900 0.63531703 0.63789701 1.905766e-42
12.84160000 37.65119900 470.62201000 0.45602101 0.63192999 0.62666601 1.905766e-42
14.07810000 36.35549900 470.80200000 0.47367400 0.62976998 0.61564898 1.905766e-42
15.42810000 35.18510100 471.01999000 0.49323100 0.62670398 0.60329598 1.905766e-42
16.87910100 34.12910100 471.16000000 0.51623702 0.62115002 0.58963698 1.905766e-42
17.95240000 32.74359900 471.57001000 0.53560901 0.61552399 0.57814699 1.905766e-42
19.18490000 31.44730000 471.77100000 0.56079900 0.60663801 0.56346601 1.905766e-42
20.52510100 30.26050000 471.95999000 0.58939600 0.59538603 0.54601198 1.905766e-42
21.68490000 28.90110000 472.17599000 0.61804998 0.58335602 0.52698302 1.905766e-42
22.55500000 27.43450000 472.75201000 0.63929898 0.57437402 0.51126498 1.905766e-42
23.12590000 25.81020000 473.27802000 0.64979100 0.56994599 0.50292498 1.905766e-42
24.36430000 24.51870000 473.47400000 0.65970802 0.57282901 0.48646900 1.905766e-42
25.31780100 23.06209900 473.93100000 0.66587001 0.58102399 0.46800399 1.905766e-42
26.42260000 21.67280000 474.23001000 0.67192799 0.58858800 0.44952899 1.905766e-42
27.68420000 20.38960100 474.27399000 0.67855197 0.59401202 0.43210801 1.905766e-42
28.44890000 18.86940000 474.86099000 0.68049902 0.60673201 0.41084799 1.905766e-42
29.58799900 17.49729900 475.10501000 0.68499702 0.61496001 0.39064500 1.905766e-42
30.61479900 16.07860000 475.52100000 0.69036299 0.61865902 0.37504700 1.905766e-42
31.78680000 14.73440000 475.76501000 0.70104802 0.61056501 0.36843199 1.905766e-42
32.71730000 13.27380000 476.25601000 0.71394300 0.59969503 0.36145800 1.905766e-42
33.41310100 11.72480000 476.85300000 0.72946101 0.58601302 0.35280901 1.905766e-42
34.57329900 10.38180000 477.15302000 0.75113600 0.56348002 0.34392500 1.905766e-42
35.52759900 8.89688970 477.50601000 0.77303201 0.53898501 0.33453900 1.905766e-42
36.63470100 7.65716980 476.81500000 0.79123503 0.51279300 0.33315200 1.905766e-42
37.60329800 6.48233990 475.85501000 0.80494797 0.49193200 0.33175501 1.905766e-42
38.39989900 5.13628010 474.96399000 0.81574202 0.47571701 0.32902700 1.905766e-42
39.52159900 4.69962980 473.62500000 0.82235497 0.47037700 0.32012099 1.905766e-42
40.48070100 3.80082990 472.39600000 0.83088797 0.46524900 0.30523601 1.905766e-42
41.34299900 2.67971990 471.28201000 0.84719002 0.45050400 0.28162801 1.905766e-42
42.21360000 1.71304000 470.03799000 0.86340600 0.43287101 0.25913900 1.905766e-42
43.14820100 0.92730898 468.71600000 0.87857199 0.41339499 0.23919700 1.905766e-42
44.00630200 0.23918401 467.29099000 0.89216298 0.39319599 0.22235700 1.905766e-42
44.71369900 -0.96253300 466.15302000 0.90757197 0.36385399 0.20958100 1.905766e-42
45.42330200 -1.94813000 464.82401000 0.92024100 0.33613801 0.20042101 1.905766e-42
46.10409900 -2.76261000 463.37100000 0.92877501 0.31575599 0.19410001 1.905766e-42
46.66289900 -3.97918010 462.16699000 0.93847799 0.28978199 0.18784700 1.905766e-42
47.14749900 -5.30611990 461.05200000 0.94739503 0.26342601 0.18179400 1.905766e-42
47.59059900 -6.54393010 459.82199000 0.95480198 0.24094599 0.17406300 1.905766e-42
48.03020100 -7.73277000 458.54401000 0.96114099 0.22153600 0.16470900 1.905766e-42
48.61850000 -8.54063030 457.04700000 0.96641803 0.20996000 0.14816700 1.905766e-42
48.80429800 -9.95534990 455.95001000 0.97418600 0.18179500 0.13383900 1.905766e-42
49.14230000 -11.07120000 454.57901000 0.98083597 0.15663999 0.11586300 1.905766e-42
49.68569900 -11.74770000 453.00201000 0.98547798 0.14009701 0.09595250 1.905766e-42
50.04950000 -12.66630000 451.49701000 0.98996001 0.11690700 0.07945120 1.905766e-42
50.16949800 -13.93540000 450.22601000 0.99431902 0.08132820 0.06866470 1.905766e-42
50.34009900 -15.07010000 448.83899000 0.99699998 0.04868030 0.06018460 1.905766e-42
50.51179900 -16.12910100 447.39401000 0.99782401 0.02848160 0.05946320 1.905766e-42
50.42129900 -17.49320000 446.22299000 0.99815500 -0.00121711 0.06071350 1.905766e-42
50.46569800 -18.62350100 444.82300000 0.99840498 -0.01867180 0.05327600 1.905766e-42
50.58050200 -19.50070000 443.25500000 0.99907899 -0.02440120 0.03530180 1.905766e-42
50.57020200 -20.57070000 441.80801000 0.99923998 -0.03477430 0.01760540 1.905766e-42
50.54859900 -21.64300000 440.36200000 0.99876899 -0.04880850 -0.00886965 1.905766e-42
50.64350100 -22.43190000 438.74701000 0.99770802 -0.05223090 -0.04302350 1.905766e-42
50.67860000 -22.57570100 436.95300000 0.99580699 -0.03465160 -0.08466810 1.905766e-42
50.63539900 -21.68849900 435.38800000 0.99104899 0.00733333 -0.13329799 1.905766e-42
50.21200200 -20.47890100 434.12399000 0.98122102 0.06090150 -0.18301800 1.905766e-42
49.81250000 -19.21250000 432.90900000 0.96445900 0.12077900 -0.23501401 1.905766e-42
49.33800100 -17.87100000 431.80600000 0.93997997 0.18406600 -0.28732800 1.905766e-42
48.80189900 -16.78200000 430.47699000 0.95073700 0.15208399 -0.27012900 1.905766e-42
48.16989900 -15.72140000 429.16699000 0.95945001 0.12190500 -0.25415599 1.905766e-42
47.65230200 -14.52810000 427.92300000 0.96666998 0.09316200 -0.23847499 1.905766e-42
47.33129900 -13.28710000 426.65900000 0.97227198 0.06534700 -0.22453900 1.905766e-42
46.91180000 -12.00610000 425.46600000 0.97644299 0.03821860 -0.21236201 1.905766e-42
46.62850200 -10.67040000 424.29300000 0.97553802 0.02995980 -0.21777999 1.905766e-42
46.37860100 -9.48791980 422.95999000 0.97367299 0.02280800 -0.22680700 1.905766e-42
46.13869900 -8.04232980 421.91400000 0.97293299 0.01841100 -0.23035300 1.905766e-42
45.69770100 -7.39409020 420.29401000 0.96924198 0.00848370 -0.24596301 1.905766e-42
45.38250000 -6.25759980 418.93399000 0.96705103 0.00170733 -0.25457600 1.905766e-42
45.06549800 -4.98945000 417.69699000 0.96533799 -0.00293422 -0.26098800 1.905766e-42
44.60070000 -4.17993020 416.15799000 0.96170902 -0.01032920 -0.27387699 1.905766e-42
44.15280200 -3.53861000 414.53699000 0.95766503 -0.01864460 -0.28728199 1.905766e-42
43.74029900 -2.46806000 413.14999000 0.95534599 -0.02366460 -0.29454100 1.905766e-42
43.27040100 -1.69249000 411.59500000 0.95219100 -0.03078590 -0.30394900 1.905766e-42
42.73580200 -1.12954000 409.97101000 0.94868201 -0.03926860 -0.31378499 1.905766e-42
42.24950000 -0.50202900 408.35501000 0.94457102 -0.04306510 -0.32547101 1.905766e-42
41.67990100 -0.05150210 406.70801000 0.93830401 -0.04352650 -0.34305999 1.905766e-42
41.18230100 0.61115998 405.10999000 0.93159997 -0.04158730 -0.36109900 1.905766e-42
40.65570100 1.36398010 403.56201000 0.92405599 -0.03852120 -0.38031200 1.905766e-42
