# .PCD v0.7 - Point Cloud Data file format
# 3 42 0
# 1 14 0
# 15 31 0
# 32 42 0
VERSION 0.7
FIELDS x y z normal_x normal_y normal_z curvature
SIZE 4 4 4 4 4 4 4
TYPE F F F F F F F
COUNT 1 1 1 1 1 1 1
WIDTH 42
HEIGHT 1
VIEWPOINT 0 0 0 1 0 0 0
POINTS 42
DATA ascii
20.81559900 14.39280000 467.74600000 -0.13338900 -0.45236900 0.88179898 1.905766e-42
20.03990000 15.16920000 467.80600000 -0.22810499 -0.39913899 0.88806301 1.905766e-42
18.37879900 14.92710000 467.15601000 -0.30341199 -0.24610800 0.92052799 1.905766e-42
16.81660100 14.29440000 466.52399000 -0.31503701 -0.21675700 0.92399597 1.905766e-42
15.18890000 13.96510000 465.82999000 -0.35790700 -0.20577200 0.91080201 1.905766e-42
13.62210000 13.48790000 465.08301000 -0.38948801 -0.22631100 0.89279503 1.905766e-42
12.00700000 13.26240000 464.32101000 -0.41804799 -0.22757700 0.87945700 1.905766e-42
10.37000000 13.19060000 463.57599000 -0.44659901 -0.21751700 0.86789101 1.905766e-42
8.96329020 12.68230000 462.57501000 -0.47058800 -0.22479901 0.85323697 1.905766e-42
7.40930990 12.59030000 461.67099000 -0.48381299 -0.20964800 0.84969002 1.905766e-42
5.86410000 12.47730000 460.75500000 -0.49814901 -0.21353100 0.84038800 1.905766e-42
4.37339020 12.22090000 459.77899000 -0.51173502 -0.28505701 0.81047499 1.905766e-42
2.89219000 11.96520000 458.78900000 -0.53634298 -0.36067000 0.76305503 1.905766e-42
1.50739000 11.81880000 457.64801000 -0.55553401 -0.43901801 0.70614803 1.905766e-42
0.93376100 10.73440000 456.33099000 -0.55159700 -0.58760798 0.59199399 1.905766e-42
1.36067000 9.42545030 455.17200000 -0.48537999 -0.73536903 0.47290501 1.905766e-42
2.82576990 8.43574050 454.83401000 -0.43045101 -0.80022001 0.41756499 1.905766e-42
3.70973990 7.59095000 453.51300000 -0.39719599 -0.83555800 0.37957701 1.905766e-42
5.08725980 6.51083990 453.09399000 -0.38138700 -0.85123402 0.36047700 1.905766e-42
6.35227010 5.66101980 452.13599000 -0.31997401 -0.89393002 0.31385601 1.905766e-42
7.64742990 4.87271980 451.16599000 -0.27476600 -0.92688501 0.25570899 1.905766e-42
9.11098960 4.24768020 450.32501000 -0.27699199 -0.92131001 0.27288100 1.905766e-42
10.49280000 3.57238010 449.38901000 -0.23483799 -0.94350398 0.23377500 1.905766e-42
11.98070000 3.21909000 448.44000000 -0.07345430 -0.99309403 0.09147830 1.905766e-42
13.50340000 3.25877000 447.48099000 0.11270200 -0.99260497 -0.04509260 1.905766e-42
15.18210000 3.41493010 448.11200000 0.17226700 -0.97565198 -0.13574401 1.905766e-42
16.82290100 3.62960000 448.82001000 0.21967401 -0.95693600 -0.18978301 1.905766e-42
18.39920000 3.76157000 449.67899000 0.24489000 -0.94822103 -0.20225000 1.905766e-42
20.01450000 4.04278990 450.42200000 0.27600500 -0.93815702 -0.20900500 1.905766e-42
21.59779900 4.36367990 451.21600000 0.30019900 -0.93535000 -0.18708301 1.905766e-42
23.21960100 4.92252020 451.76099000 0.33018500 -0.92783898 -0.17347400 1.905766e-42
24.65119900 5.18796010 452.81900000 0.34692001 -0.93478000 -0.07637700 1.905766e-42
25.53000100 5.64601990 454.32199000 0.30586800 -0.93864602 0.15933900 1.905766e-42
25.49379900 6.11294980 456.06000000 0.24115901 -0.89560097 0.37382099 1.905766e-42
24.76660000 6.55729010 457.64499000 0.20493200 -0.87845498 0.43164799 1.905766e-42
24.77210000 7.45599990 459.20499000 0.20784999 -0.85727501 0.47103900 1.905766e-42
25.03780000 8.39229010 460.71899000 0.22395501 -0.82853800 0.51319402 1.905766e-42
24.77140000 9.32388970 462.23599000 0.21493401 -0.78104502 0.58632100 1.905766e-42
24.79070100 10.43570000 463.65201000 0.19962400 -0.76200998 0.61602902 1.905766e-42
23.57950000 11.27340000 464.68701000 0.15817800 -0.76947302 0.61878198 1.905766e-42
22.24309900 11.76750000 465.78699000 0.08900750 -0.73209202 0.67536598 1.905766e-42
21.62579900 12.99940000 466.94501000 -0.00343274 -0.56471902 0.82527602 1.905766e-42
