# .PCD v0.7 - Point Cloud Data file format
# 3 60 0
# 1 17 0
# 18 39 0
# 40 60 0
VERSION 0.7
FIELDS x y z normal_x normal_y normal_z curvature
SIZE 4 4 4 4 4 4 4
TYPE F F F F F F F
COUNT 1 1 1 1 1 1 1
WIDTH 60
HEIGHT 1
VIEWPOINT 0 0 0 1 0 0 0
POINTS 60
DATA ascii
14.36 5.7408199 435.995 0.33659601 0.85339999 -0.398009 1.9057659e-42
13.3983 6.4795399 437.43201 0.308222 0.86316198 -0.399939 1.9057659e-42
12.0025 7.1601501 438.34299 0.30542001 0.86295998 -0.40251699 1.9057659e-42
11.5733 8.3021002 439.66599 0.30416399 0.84472001 -0.440377 1.9057659e-42
10.8623 9.3318996 440.95999 0.31278101 0.82671899 -0.46765801 1.9057659e-42
10.3225 10.3357 442.353 0.32335299 0.81411999 -0.48233899 1.9057659e-42
9.3690701 11.3827 443.46399 0.333785 0.805071 -0.490356 1.9057659e-42
9.1215096 12.361 444.95499 0.34372401 0.79579997 -0.49855399 1.9057659e-42
7.9352899 13.2825 445.94699 0.35418001 0.78180403 -0.51316601 1.9057659e-42
7.7362099 14.5344 447.22501 0.37059 0.76634699 -0.52476197 1.9057659e-42
7.2274799 15.6301 448.55899 0.38379601 0.75668198 -0.529275 1.9057659e-42
6.2487898 16.699499 449.62601 0.390553 0.74729502 -0.53760499 1.9057659e-42
6.3260002 17.9027 450.96201 0.400621 0.73632503 -0.54527801 1.9057659e-42
5.6215 19.133699 452.07101 0.40487599 0.72659898 -0.555094 1.9057659e-42
5.3691602 20.3113 453.409 0.40852299 0.70941103 -0.57432199 1.9057659e-42
4.55163 21.562599 454.41101 0.411874 0.69035202 -0.59478801 1.9057659e-42
4.3071299 22.853701 455.642 0.41152999 0.66844398 -0.619537 1.9057659e-42
4.8400798 23.8493 457.043 0.40772799 0.65886301 -0.63218403 1.9057659e-42
6.4850702 23.393801 457.61499 0.38826901 0.66383702 -0.639193 1.9057659e-42
8.1673498 22.8927 458.013 0.35253 0.671749 -0.651519 1.9057659e-42
9.8528795 22.3944 458.401 0.32890099 0.67787302 -0.65750498 1.9057659e-42
11.518 21.723101 458.53 0.308667 0.68690002 -0.65794599 1.9057659e-42
13.1993 21.3197 459.03101 0.29365399 0.69812202 -0.65298802 1.9057659e-42
14.8273 20.592501 458.785 0.28115401 0.70528501 -0.65078902 1.9057659e-42
16.493401 19.9116 458.76001 0.27123699 0.71082097 -0.64897197 1.9057659e-42
18.2206 19.6553 459.19699 0.249898 0.717834 -0.64981902 1.9057659e-42
19.9405 19.1245 459.18301 0.21693601 0.72605699 -0.65251797 1.9057659e-42
21.665899 18.611799 459.17099 0.183862 0.73211098 -0.65590203 1.9057659e-42
23.4114 18.175699 459.11801 0.139498 0.73670298 -0.66167098 1.9057659e-42
25.157101 17.742201 459.05099 0.087836899 0.74307501 -0.66341901 1.9057659e-42
26.8843 17.2728 458.85901 0.033457901 0.74839902 -0.662404 1.9057659e-42
28.367701 16.757999 457.979 0.0126976 0.743527 -0.668585 1.9057659e-42
30.165501 16.673599 457.953 -0.00061446801 0.75716501 -0.65322298 1.9057659e-42
31.872801 16.236 457.58801 -0.0216789 0.762326 -0.64683002 1.9057659e-42
33.6455 15.9242 457.57001 -0.0276329 0.77917302 -0.62620002 1.9057659e-42
35.259201 15.838 456.77701 -0.040694602 0.77829498 -0.62657797 1.9057659e-42
37.048801 15.7429 456.60901 -0.040778801 0.79048997 -0.61111599 1.9057659e-42
38.7075 15.4014 455.99899 -0.0388471 0.787247 -0.61541301 1.9057659e-42
40.505501 15.4854 455.98999 -0.031696901 0.79394799 -0.60715902 1.9057659e-42
42.303699 15.5527 455.94699 -0.0277307 0.79476398 -0.60628402 1.9057659e-42
41.057899 14.6843 454.98099 -0.033525601 0.77032602 -0.63676798 1.9057659e-42
39.588501 13.9862 454.211 -0.049607102 0.741916 -0.66865498 1.9057659e-42
38.126801 13.2297 453.48199 -0.075548403 0.71329802 -0.69677699 1.9057659e-42
36.8736 12.2308 452.66199 -0.093900703 0.71339101 -0.69444698 1.9057659e-42
35.157799 11.779 452.35901 -0.0719558 0.72798502 -0.68180698 1.9057659e-42
33.499401 11.2108 451.95099 -0.044283502 0.754592 -0.65469801 1.9057659e-42
32.157799 10.375 451.09 -0.0048325802 0.79184401 -0.610704 1.9057659e-42
31.4203 9.4463997 449.73599 0.039156999 0.81720603 -0.57501298 1.9057659e-42
29.852301 9.03123 448.95499 0.074736796 0.82823598 -0.55537301 1.9057659e-42
28.801201 8.2323198 447.73199 0.091035903 0.83379197 -0.54452097 1.9057659e-42
27.24 8.0262699 446.85999 0.109186 0.83231097 -0.54344898 1.9057659e-42
25.798201 7.5801101 445.879 0.131143 0.83660901 -0.53187001 1.9057659e-42
24.6287 6.9812698 444.64899 0.162035 0.84809202 -0.50446397 1.9057659e-42
23.385599 6.5050702 443.43701 0.203959 0.85473001 -0.477323 1.9057659e-42
22.222401 6.03192 442.147 0.24682 0.85113698 -0.46329799 1.9057659e-42
20.8027 6.0365901 441.04099 0.26532301 0.85102499 -0.45316699 1.9057659e-42
19.506599 5.8171401 439.811 0.27445799 0.84816402 -0.45309001 1.9057659e-42
18.135099 5.55936 438.67401 0.286708 0.83871502 -0.46298501 1.9057659e-42
16.6779 5.4966798 437.62 0.30181101 0.84015399 -0.45061201 1.9057659e-42
15.9002 4.8211098 436.14401 0.333525 0.835733 -0.43624699 1.9057659e-42
