# .PCD v0.7 - Point Cloud Data file format
# 3 99 0
# 1 31 0
# 32 54 0
# 55 99 0
VERSION 0.7
FIELDS x y z normal_x normal_y normal_z curvature
SIZE 4 4 4 4 4 4 4
TYPE F F F F F F F
COUNT 1 1 1 1 1 1 1
WIDTH 99
HEIGHT 1
VIEWPOINT 0 0 0 1 0 0 0
POINTS 99
DATA ascii
30.50149900 28.58359900 510.26901000 -0.01685180 -0.48805001 0.87265301 1.905766e-42
28.83790000 29.15010100 510.65799000 -0.00518604 -0.47204599 0.88155901 1.905766e-42
27.06670000 29.41659900 510.83600000 -0.01092320 -0.46021101 0.88774300 1.905766e-42
25.27210000 29.53380000 510.91000000 -0.02348250 -0.45335099 0.89102298 1.905766e-42
23.47699900 29.57180000 511.03799000 -0.03890850 -0.44847000 0.89295101 1.905766e-42
21.83700000 30.31370000 511.04599000 -0.05313970 -0.42839000 0.90202999 1.905766e-42
20.72610100 30.33970100 511.10400000 -0.06112770 -0.42626601 0.90253001 1.905766e-42
18.92639900 30.36980100 511.10199000 -0.07094550 -0.42540699 0.90221697 1.905766e-42
17.25169900 31.02940000 511.08499000 -0.07357880 -0.40474799 0.91146302 1.905766e-42
15.45620000 31.13390000 511.01199000 -0.06652780 -0.40377101 0.91243798 1.905766e-42
13.65950000 31.02630000 510.99399000 -0.07524040 -0.40717399 0.91024601 1.905766e-42
11.90190000 31.39979900 510.88699000 -0.10530100 -0.37924999 0.91928297 1.905766e-42
10.12670000 31.66860000 510.75900000 -0.14009400 -0.35291299 0.92510903 1.905766e-42
8.33794020 31.78879900 510.59799000 -0.16840400 -0.33140901 0.92833602 1.905766e-42
6.90580990 32.74910000 510.08200000 -0.17652100 -0.27454001 0.94523400 1.905766e-42
5.19720980 32.19010200 510.17200000 -0.15496100 -0.30670601 0.93910497 1.905766e-42
3.40802000 32.05630100 510.02802000 -0.12862700 -0.31343701 0.94085699 1.905766e-42
1.75798000 32.69960000 509.70599000 -0.13109399 -0.29355901 0.94690901 1.905766e-42
-0.01609380 32.65010100 509.40601000 -0.15649900 -0.31196699 0.93711501 1.905766e-42
-1.78646000 32.79119900 509.11301000 -0.18401100 -0.31614900 0.93069297 1.905766e-42
-3.54756000 32.58400000 508.80301000 -0.20001800 -0.34402701 0.91740799 1.905766e-42
-5.28780980 32.47919800 508.35599000 -0.21108800 -0.36402401 0.90715402 1.905766e-42
-6.77365020 33.43259800 508.00400000 -0.21725100 -0.32880500 0.91907001 1.905766e-42
-8.48890020 32.99770000 507.67401000 -0.22360700 -0.35224599 0.90880299 1.905766e-42
-10.21250000 33.20890000 507.20099000 -0.23638099 -0.34769499 0.90732098 1.905766e-42
-11.87680000 32.67219900 506.77399000 -0.24623300 -0.37801799 0.89245301 1.905766e-42
-13.61320000 32.73809800 506.30399000 -0.25466800 -0.38748699 0.88600099 1.905766e-42
-15.33190000 32.71989800 505.76999000 -0.26565701 -0.39811900 0.87802500 1.905766e-42
-17.04910100 32.67160000 505.23199000 -0.27605599 -0.40755001 0.87045699 1.905766e-42
-18.74810000 32.75899900 504.64401000 -0.28521201 -0.41348699 0.86468601 1.905766e-42
-20.41860000 32.46120100 504.04401000 -0.29147500 -0.43043101 0.85426700 1.905766e-42
-22.04390000 32.41159800 503.27200000 -0.28737500 -0.44628000 0.84749597 1.905766e-42
-21.69680000 30.74420000 502.68900000 -0.29542300 -0.49392000 0.81778198 1.905766e-42
-21.66799900 29.21349900 501.74200000 -0.30304000 -0.53869200 0.78611499 1.905766e-42
-21.54100000 27.97890100 500.43900000 -0.30255201 -0.56694400 0.76618302 1.905766e-42
-20.84730000 26.38209900 499.98099000 -0.30162701 -0.58165503 0.75544602 1.905766e-42
-20.70130000 25.06419900 498.76401000 -0.29908299 -0.59053499 0.74954498 1.905766e-42
-20.25799900 23.58210000 497.84399000 -0.28398100 -0.60982400 0.73991197 1.905766e-42
-19.81469900 22.12150000 496.89001000 -0.27128300 -0.63058501 0.72716397 1.905766e-42
-18.98539900 20.78720100 496.01099000 -0.25676501 -0.65119803 0.71415198 1.905766e-42
-18.51860000 19.51160000 494.82999000 -0.24912800 -0.66805398 0.70117003 1.905766e-42
-17.83639900 18.12389900 493.90900000 -0.24665999 -0.67743802 0.69299102 1.905766e-42
-17.35680000 16.78960000 492.79999000 -0.24463201 -0.68629402 0.68494999 1.905766e-42
-16.81069900 15.51660000 491.64999000 -0.24232200 -0.69481999 0.67712998 1.905766e-42
-16.39769900 14.22550000 490.46600000 -0.23884600 -0.70651102 0.66618001 1.905766e-42
-16.27630000 13.03540000 489.12100000 -0.23278400 -0.72283500 0.65063101 1.905766e-42
-16.09770000 11.78190000 487.84201000 -0.22602500 -0.73870802 0.63499802 1.905766e-42
-16.44490100 10.69930000 486.44601000 -0.22552399 -0.75006598 0.62172300 1.905766e-42
-16.84009900 9.65633960 485.03299000 -0.22756501 -0.75745898 0.61194003 1.905766e-42
-17.67310000 8.89505960 483.63101000 -0.23354200 -0.75677502 0.61053199 1.905766e-42
-18.36109900 8.06517980 482.19000000 -0.23232800 -0.75439602 0.61392999 1.905766e-42
-18.37100000 6.85350990 480.85901000 -0.22989300 -0.75413299 0.61516899 1.905766e-42
-18.93250100 5.93797020 479.41400000 -0.22834601 -0.75656599 0.61275399 1.905766e-42
-19.19330000 4.85189010 478.00299000 -0.22317301 -0.76506400 0.60404599 1.905766e-42
-18.65280000 3.66893010 476.75800000 -0.21766400 -0.78088999 0.58552003 1.905766e-42
-17.20620000 2.77827000 476.16299000 -0.22186500 -0.79438603 0.56544399 1.905766e-42
-15.68560000 2.10955000 475.47000000 -0.22105400 -0.81120902 0.54136401 1.905766e-42
-13.98970000 1.66923000 475.88199000 -0.20949601 -0.81840903 0.53508699 1.905766e-42
-12.42170000 0.94565201 475.37399000 -0.18466100 -0.83679098 0.51544303 1.905766e-42
-10.68540000 0.49398801 475.22800000 -0.15680300 -0.85088700 0.50140297 1.905766e-42
-9.05576040 0.19269800 474.52600000 -0.19727300 -0.82657599 0.52711999 1.905766e-42
-7.34382010 -0.10587500 474.99500000 -0.23362800 -0.79712498 0.55678499 1.905766e-42
-5.71267990 -0.69512397 474.51300000 -0.28981099 -0.74303401 0.60325003 1.905766e-42
-4.06179000 -1.40027000 474.38101000 -0.33988300 -0.66575098 0.66427100 1.905766e-42
-2.59557010 -2.10062000 475.15601000 -0.34428999 -0.60518903 0.71778101 1.905766e-42
-1.08737000 -3.08264990 475.18701000 -0.34342301 -0.51039797 0.78838700 1.905766e-42
0.49020100 -3.56234000 475.90900000 -0.25847000 -0.45041299 0.85458899 1.905766e-42
2.23011990 -3.96466990 475.68399000 -0.20444199 -0.41621301 0.88598502 1.905766e-42
3.06430010 -2.82320000 476.79800000 -0.18347999 -0.55107802 0.81403202 1.905766e-42
4.54305980 -1.85729000 477.14401000 -0.14221300 -0.61497802 0.77561402 1.905766e-42
5.84685990 -1.07412000 478.10699000 -0.10300500 -0.67440301 0.73114300 1.905766e-42
7.23577020 -0.42707300 479.05200000 -0.06699110 -0.72126597 0.68941098 1.905766e-42
8.57816030 0.23035200 480.05499000 -0.04977610 -0.75980800 0.64823902 1.905766e-42
9.78468040 0.91210800 481.20300000 -0.05017860 -0.78727603 0.61455601 1.905766e-42
10.95890000 1.66326000 482.34201000 -0.06352390 -0.80392098 0.59133399 1.905766e-42
11.95260000 2.45603990 483.61700000 -0.08661400 -0.80896503 0.58144099 1.905766e-42
12.81830000 3.27252010 484.96701000 -0.08869730 -0.79730600 0.59702301 1.905766e-42
14.16270000 4.08900020 485.84201000 -0.08654660 -0.79046500 0.60636199 1.905766e-42
15.14500000 4.87572000 487.12900000 -0.08411640 -0.78225601 0.61725199 1.905766e-42
16.15609900 5.73792980 488.34299000 -0.07973690 -0.77581900 0.62589699 1.905766e-42
17.05530000 6.65154980 489.60699000 -0.07527680 -0.77115297 0.63218403 1.905766e-42
18.07539900 7.49663020 490.82599000 -0.07148230 -0.76754302 0.63699901 1.905766e-42
19.29929900 8.29699040 491.87500000 -0.06735110 -0.76378101 0.64195198 1.905766e-42
20.28590000 9.19573020 493.08301000 -0.06504210 -0.75821698 0.64874899 1.905766e-42
21.27689900 10.10270000 494.28101000 -0.06329640 -0.75162500 0.65654701 1.905766e-42
22.23630000 11.09010000 495.44101000 -0.05946630 -0.74189001 0.66788000 1.905766e-42
23.34770000 12.01030000 496.51700000 -0.05382220 -0.73183501 0.67935300 1.905766e-42
24.33600000 13.04430000 497.60901000 -0.04791920 -0.72101998 0.69125599 1.905766e-42
25.34760100 14.11010000 498.64899000 -0.04087080 -0.71042401 0.70258701 1.905766e-42
26.06090000 15.16450000 499.92200000 -0.03541600 -0.70014399 0.71312302 1.905766e-42
26.92340100 16.27669900 501.04401000 -0.03029030 -0.68999797 0.72317702 1.905766e-42
27.56370000 17.45700100 502.24301000 -0.02556390 -0.67744100 0.73513299 1.905766e-42
28.46010000 18.66530000 503.23099000 -0.01897400 -0.66378599 0.74768198 1.905766e-42
29.05080000 19.88990000 504.41000000 -0.01235990 -0.64772499 0.76177400 1.905766e-42
29.34970100 21.23530000 505.56799000 -0.00884021 -0.63089198 0.77582002 1.905766e-42
29.93110100 22.60310000 506.58401000 -0.00904386 -0.61229497 0.79057801 1.905766e-42
30.29660000 23.99029900 507.67099000 -0.01248630 -0.58915198 0.80792600 1.905766e-42
30.67410100 25.43770000 508.67200000 -0.01767300 -0.56111699 0.82754803 1.905766e-42
30.92670100 26.99040000 509.54700000 -0.02232070 -0.52669299 0.84976202 1.905766e-42
