# .PCD v0.7 - Point Cloud Data file format
# 3 81 1
# 1 32 0
# 33 59 0
# 60 81 1
VERSION 0.7
FIELDS x y z normal_x normal_y normal_z curvature
SIZE 4 4 4 4 4 4 4
TYPE F F F F F F F
COUNT 1 1 1 1 1 1 1
WIDTH 81
HEIGHT 1
VIEWPOINT 0 0 0 1 0 0 0
POINTS 81
DATA ascii
-16.23770000 25.09320100 509.24701000 0.20338900 -0.71774799 0.66593599 1.905766e-42
-16.99519900 23.73660100 508.33801000 0.19147199 -0.75586897 0.62609899 1.905766e-42
-16.55050100 22.76779900 506.88800000 0.16529401 -0.77740902 0.60688800 1.905766e-42
-16.58440000 21.72810000 505.41901000 0.14297700 -0.79083002 0.59510201 1.905766e-42
-16.01210000 20.76660000 504.00900000 0.13162100 -0.78563499 0.60452801 1.905766e-42
-15.96780000 19.76040100 502.51700000 0.12202000 -0.76438701 0.63310599 1.905766e-42
-15.68610000 18.50560000 501.25800000 0.12727500 -0.74478400 0.65505600 1.905766e-42
-15.22020000 17.33610000 499.97101000 0.12656900 -0.73349899 0.66780198 1.905766e-42
-14.57800000 16.22570000 498.70801000 0.12355900 -0.72649997 0.67596698 1.905766e-42
-13.28170000 15.51280000 497.68301000 0.12681399 -0.71719497 0.68523699 1.905766e-42
-12.80820000 14.39120000 496.35699000 0.11357000 -0.71423000 0.69063598 1.905766e-42
-12.77510000 13.20260000 495.00601000 0.09721110 -0.71662700 0.69064802 1.905766e-42
-13.05180000 11.86290000 493.83600000 0.08260620 -0.72147000 0.68750101 1.905766e-42
-12.21450000 10.85230000 492.60400000 0.07077120 -0.71714997 0.69331598 1.905766e-42
-10.71260000 10.16160000 491.89200000 0.06128760 -0.70391601 0.70763397 1.905766e-42
-9.17020990 9.70946980 491.08099000 0.05478480 -0.69192600 0.71988702 1.905766e-42
-7.72702980 8.91788010 490.35300000 0.04795880 -0.68094897 0.73075902 1.905766e-42
-7.06817010 7.69497010 489.20801000 0.03732750 -0.66365302 0.74710900 1.905766e-42
-6.26883980 6.45348980 488.17899000 0.01708160 -0.63566202 0.77177799 1.905766e-42
-5.85275980 5.11718990 487.04700000 -0.00227207 -0.60897303 0.79318702 1.905766e-42
-4.33732990 4.29005000 486.53799000 -0.03263260 -0.58521700 0.81022000 1.905766e-42
-3.30574990 3.10050990 485.66501000 -0.06252710 -0.56166101 0.82500201 1.905766e-42
-2.67613010 1.73482000 484.67599000 -0.08570200 -0.54488403 0.83411998 1.905766e-42
-1.57074000 0.52151299 483.93701000 -0.11376600 -0.52548200 0.84316403 1.905766e-42
-0.73075098 -0.97901201 483.40500000 -0.13993099 -0.50584298 0.85119998 1.905766e-42
0.04066230 -2.47992990 482.77899000 -0.15880200 -0.49342000 0.85517198 1.905766e-42
1.14849000 -3.78305010 482.21799000 -0.17553601 -0.48369199 0.85745502 1.905766e-42
2.10237000 -5.17737010 481.59698000 -0.19490100 -0.47309101 0.85918498 1.905766e-42
3.45035000 -6.74111990 481.09399000 -0.22189599 -0.45237401 0.86378199 1.905766e-42
4.69163990 -7.99742980 480.74600000 -0.24101201 -0.43510199 0.86752498 1.905766e-42
5.66886000 -9.40408990 480.19299000 -0.25649399 -0.42492300 0.86813098 1.905766e-42
7.13589000 -10.40800000 480.47601000 -0.25984800 -0.41171500 0.87348098 1.905766e-42
8.84755040 -10.95520000 480.37299000 -0.25845799 -0.40192199 0.87844098 1.905766e-42
10.15620000 -9.91932960 481.04700000 -0.27089700 -0.40577000 0.87290698 1.905766e-42
10.77140000 -8.69116970 482.20999000 -0.29129699 -0.41086400 0.86390799 1.905766e-42
12.39200000 -8.19927980 482.82001000 -0.31927499 -0.40938699 0.85467303 1.905766e-42
13.52340000 -7.17465020 483.77301000 -0.33608401 -0.40765700 0.84903699 1.905766e-42
14.35330000 -6.02820010 484.88599000 -0.35202500 -0.41203400 0.84042001 1.905766e-42
15.86600000 -5.42952010 485.65601000 -0.37171400 -0.42190000 0.82693899 1.905766e-42
17.41220100 -4.98973990 486.46600000 -0.39107299 -0.43740600 0.80977601 1.905766e-42
17.83219900 -3.73394990 487.68500000 -0.41215000 -0.45147201 0.79139501 1.905766e-42
19.19829900 -3.16742990 488.71100000 -0.43200901 -0.47058499 0.76936197 1.905766e-42
20.36809900 -2.40537000 489.84698000 -0.43090001 -0.48214099 0.76280099 1.905766e-42
20.88670000 -1.10438000 490.97800000 -0.43924600 -0.48722899 0.75476599 1.905766e-42
21.45200000 0.10561300 492.18500000 -0.44974601 -0.49455500 0.74373603 1.905766e-42
22.52230100 1.12337010 493.21399000 -0.43461001 -0.50587499 0.74512100 1.905766e-42
23.05610100 2.18747000 494.56400000 -0.41685200 -0.51919198 0.74610603 1.905766e-42
23.08820000 3.74218010 495.47000000 -0.40913999 -0.53080100 0.74219602 1.905766e-42
22.96279900 5.27156020 496.41101000 -0.40637201 -0.54282200 0.73498702 1.905766e-42
22.43700000 6.70162010 497.37000000 -0.41702700 -0.55643398 0.71865797 1.905766e-42
23.00180100 7.84703020 498.63800000 -0.42026001 -0.57457501 0.70231497 1.905766e-42
23.27050000 9.00107960 499.99301000 -0.42191201 -0.59072101 0.68777901 1.905766e-42
23.87570000 10.20090000 501.19101000 -0.42198300 -0.60502100 0.67518902 1.905766e-42
23.75120000 11.55720000 502.36700000 -0.42067200 -0.61984003 0.66244501 1.905766e-42
24.17359900 12.80780000 503.59100000 -0.41463801 -0.63398701 0.65279102 1.905766e-42
23.85510100 14.06700000 504.83701000 -0.41035599 -0.64644802 0.64320499 1.905766e-42
23.73200000 15.34390000 506.10001000 -0.40639901 -0.64835000 0.64380199 1.905766e-42
23.78780000 16.75440000 507.21701000 -0.40115300 -0.64069098 0.65466899 1.905766e-42
22.72880000 17.93650100 508.06601000 -0.39144501 -0.63287801 0.66800898 1.905766e-42
21.47740000 19.18779900 508.39499000 -0.37268800 -0.63182300 0.67963499 1.905766e-42
19.88450100 20.02490000 508.35300000 -0.35035500 -0.64352000 0.68053901 1.905766e-42
18.27370100 20.82790000 508.32700000 -0.32714799 -0.65534800 0.68080300 1.905766e-42
16.66640100 21.63789900 508.34299000 -0.30240601 -0.66647601 0.68144000 1.905766e-42
15.03450000 22.39570000 508.39700000 -0.27568001 -0.67750001 0.68190402 1.905766e-42
13.28850000 22.51619900 507.97699000 -0.25310901 -0.69727999 0.67062402 1.905766e-42
11.66550000 23.27599900 508.14600000 -0.22796001 -0.70236802 0.67432398 1.905766e-42
10.05070000 24.04690000 508.34100000 -0.20467600 -0.70583600 0.67816198 1.905766e-42
8.41450020 24.78039900 508.49899000 -0.18043301 -0.70914900 0.68158001 1.905766e-42
6.62275980 24.88649900 508.36301000 -0.15406400 -0.72067600 0.67593700 1.905766e-42
4.83285000 25.00620100 508.21500000 -0.12334500 -0.73122698 0.67088997 1.905766e-42
3.14751010 25.58230000 508.47601000 -0.09191410 -0.73035002 0.67686099 1.905766e-42
1.35229000 25.59370000 508.34500000 -0.06167980 -0.73634499 0.67378902 1.905766e-42
-0.44412199 25.60100000 508.23199000 -0.03849030 -0.74237800 0.66887498 1.905766e-42
-2.24337010 25.60759900 508.17999000 -0.01673440 -0.74662298 0.66503698 1.905766e-42
-4.04294010 25.63610100 508.20700000 0.00790205 -0.74995601 0.66144001 1.905766e-42
-5.65110020 26.19350100 508.79300000 0.03527910 -0.73667300 0.67532802 1.905766e-42
-7.44742010 26.07869900 508.79999000 0.06601540 -0.73079002 0.67940199 1.905766e-42
-9.23546030 25.87200000 508.81299000 0.09826820 -0.72468001 0.68204302 1.905766e-42
-11.01980000 25.64069900 508.86600000 0.13214700 -0.71732301 0.68409401 1.905766e-42
-12.74350000 25.91980000 509.30301000 0.15244500 -0.70783299 0.68973398 1.905766e-42
-14.46150000 25.38330100 509.27499000 0.17344899 -0.71449298 0.67780203 1.905766e-42
