# .PCD v0.7 - Point Cloud Data file format
# 4 169 0
# 1 34 0
# 35 96 0
# 97 147 0
# 148 169 0
VERSION 0.7
FIELDS x y z normal_x normal_y normal_z curvature
SIZE 4 4 4 4 4 4 4
TYPE F F F F F F F
COUNT 1 1 1 1 1 1 1
WIDTH 169
HEIGHT 1
VIEWPOINT 0 0 0 1 0 0 0
POINTS 169
DATA ascii
-37.32930000 14.23320000 469.85300000 -0.33512801 0.85095102 -0.40443999 1.905766e-42
-37.15340000 15.00580000 471.46899000 -0.38503000 0.78811002 -0.48024401 1.905766e-42
-36.43380000 16.01880100 472.77100000 -0.39650401 0.74196398 -0.54062402 1.905766e-42
-34.93420000 16.98210000 472.51901000 -0.36961499 0.74214500 -0.55911201 1.905766e-42
-33.95620000 18.19960000 473.41400000 -0.34313300 0.72656500 -0.59528399 1.905766e-42
-33.23600000 19.47010000 474.46600000 -0.31480700 0.70996398 -0.62995899 1.905766e-42
-32.42359900 20.74550100 475.44299000 -0.29031801 0.69429499 -0.65853602 1.905766e-42
-31.37260100 21.98119900 476.22198000 -0.27094400 0.68047202 -0.68084300 1.905766e-42
-30.28820000 23.18700000 477.00299000 -0.25916699 0.66361898 -0.70174199 1.905766e-42
-29.15870100 24.38640000 477.72900000 -0.25395900 0.64457500 -0.72113001 1.905766e-42
-27.96810000 25.55470100 478.40500000 -0.24114200 0.66518199 -0.70666999 1.905766e-42
-27.38530000 26.54390000 479.25201000 -0.23210700 0.68198103 -0.69356197 1.905766e-42
-26.45710000 27.69249900 480.28101000 -0.22083300 0.70234001 -0.67672098 1.905766e-42
-25.25449900 28.82589900 480.99500000 -0.20975000 0.72091901 -0.66051501 1.905766e-42
-24.07379900 29.92790000 481.78900000 -0.19812199 0.73924297 -0.64363599 1.905766e-42
-23.25659900 31.05640000 482.92899000 -0.18607999 0.75714803 -0.62617999 1.905766e-42
-22.18380000 32.10220000 483.92700000 -0.17347801 0.77382499 -0.60917997 1.905766e-42
-21.11440100 33.11449800 484.96201000 -0.16071600 0.79024100 -0.59134603 1.905766e-42
-19.71810000 33.97760000 485.70001000 -0.14835601 0.80459398 -0.57499498 1.905766e-42
-18.99889900 34.63060000 487.21600000 -0.13778999 0.82008302 -0.55540800 1.905766e-42
-17.82589900 35.69030000 488.07700000 -0.13038900 0.82869399 -0.54430199 1.905766e-42
-16.52549900 36.62350100 488.89999000 -0.12639800 0.83155400 -0.54087102 1.905766e-42
-15.51650000 37.59100000 490.03400000 -0.12277400 0.83482897 -0.53664398 1.905766e-42
-14.51340000 38.48529800 491.23099000 -0.11857700 0.83835799 -0.53206700 1.905766e-42
-13.25780000 39.34370000 492.19400000 -0.11300900 0.84216398 -0.52724600 1.905766e-42
-12.63800000 40.15510200 493.67700000 -0.10152500 0.85718298 -0.50490499 1.905766e-42
-11.44170000 40.99810000 494.72501000 -0.08486220 0.87886298 -0.46946600 1.905766e-42
-10.30730000 41.64180000 495.96500000 -0.06508210 0.89937502 -0.43230599 1.905766e-42
-9.22348020 42.27750000 497.25400000 -0.04575600 0.91832900 -0.39316401 1.905766e-42
-8.42877010 42.92279800 498.73401000 -0.03053090 0.93651801 -0.34928900 1.905766e-42
-7.67325020 43.51919900 500.25500000 -0.02041110 0.94642597 -0.32227501 1.905766e-42
-7.32541990 44.01979800 501.94901000 -0.01430610 0.95353597 -0.30093801 1.905766e-42
-7.05916020 44.39339800 503.69000000 -0.00753001 0.95882303 -0.28390500 1.905766e-42
-7.14349990 44.77750000 505.44601000 -0.00317189 0.96216798 -0.27243999 1.905766e-42
-5.77121020 45.32740000 506.47299000 0.02138150 0.96511501 -0.26095301 1.905766e-42
-4.00203990 45.33330200 506.80499000 0.04621820 0.96725202 -0.24957401 1.905766e-42
-2.25942990 45.17879900 506.38101000 0.06450430 0.96756601 -0.24424601 1.905766e-42
-0.46955100 44.98949800 506.35901000 0.08321950 0.96768802 -0.23802100 1.905766e-42
1.07838000 44.70920200 505.48401000 0.09590310 0.96535403 -0.24268100 1.905766e-42
2.85719990 44.44900100 505.39499000 0.11154400 0.96392500 -0.24167299 1.905766e-42
4.34635020 43.99029900 504.49301000 0.12365900 0.96009803 -0.25084001 1.905766e-42
6.02648020 43.66930000 503.93301000 0.14177400 0.95590401 -0.25718999 1.905766e-42
7.58265020 43.19509900 503.16299000 0.15887500 0.95096099 -0.26539001 1.905766e-42
8.98029990 42.69450000 502.14499000 0.17412999 0.94541401 -0.27544799 1.905766e-42
10.61920000 42.20309800 501.58600000 0.19187200 0.94036102 -0.28090301 1.905766e-42
12.16250000 41.54950000 500.92899000 0.20880200 0.93481898 -0.28725299 1.905766e-42
13.46680000 41.03049900 499.80200000 0.22245900 0.92863297 -0.29690599 1.905766e-42
14.95940000 40.39759800 499.02100000 0.23837200 0.92263502 -0.30318800 1.905766e-42
16.54130000 39.76810100 498.43600000 0.25529599 0.91680998 -0.30705699 1.905766e-42
17.82460000 39.05920000 497.39200000 0.27067700 0.90985501 -0.31447899 1.905766e-42
19.35530100 38.36410100 496.74899000 0.29062501 0.90250498 -0.31783801 1.905766e-42
21.03179900 37.71410000 496.66699000 0.31315401 0.89533001 -0.31673199 1.905766e-42
22.62949900 36.92100100 496.42499000 0.33482200 0.88737500 -0.31695399 1.905766e-42
23.72530000 36.27209900 495.15302000 0.34813899 0.88057101 -0.32154900 1.905766e-42
25.38850000 35.58810000 495.07800000 0.37023699 0.87258399 -0.31862500 1.905766e-42
26.80699900 34.71609900 494.39401000 0.38858601 0.86535001 -0.31649700 1.905766e-42
28.41239900 33.90250000 494.36700000 0.40995401 0.85725498 -0.31153199 1.905766e-42
29.91840000 32.92160000 494.26700000 0.43015400 0.84944803 -0.30562299 1.905766e-42
31.38100100 32.13980100 493.56799000 0.44606099 0.83890599 -0.31187600 1.905766e-42
32.89899800 31.19500000 493.35999000 0.46578699 0.82811302 -0.31188500 1.905766e-42
34.27500200 30.18709900 492.78500000 0.48306099 0.81553102 -0.31868699 1.905766e-42
35.73759800 29.13900000 492.73499000 0.50391799 0.80342901 -0.31712499 1.905766e-42
37.13219800 28.01199900 492.57800000 0.52419800 0.79020202 -0.31748700 1.905766e-42
38.52130100 27.05970000 491.94299000 0.54150599 0.77604002 -0.32331699 1.905766e-42
39.87889900 25.87809900 491.91299000 0.56224400 0.76239002 -0.32038000 1.905766e-42
41.22209900 24.68910000 491.76401000 0.58104700 0.74906403 -0.31825501 1.905766e-42
42.56290100 23.71470100 491.06201000 0.59608102 0.73581600 -0.32134399 1.905766e-42
43.85609800 22.46570000 491.14999000 0.61565900 0.72156900 -0.31670600 1.905766e-42
45.03070100 21.10520000 491.05399000 0.63430703 0.70636201 -0.31417501 1.905766e-42
46.29499800 20.03630100 490.34698000 0.64999002 0.69180399 -0.31451601 1.905766e-42
47.56160000 18.75750000 490.32999000 0.66916299 0.67547101 -0.30977401 1.905766e-42
48.71600000 17.38890100 490.14499000 0.68723798 0.65915197 -0.30532300 1.905766e-42
49.88690200 16.14110000 489.58600000 0.70305502 0.64443398 -0.30069801 1.905766e-42
51.04550200 14.76420000 489.54501000 0.71749902 0.63045198 -0.29618400 1.905766e-42
52.11340000 13.31790000 489.45599000 0.72874302 0.61600298 -0.29912201 1.905766e-42
53.12480200 11.83900000 489.28299000 0.74013102 0.60015100 -0.30335599 1.905766e-42
54.19340100 10.48550000 488.76700000 0.75086200 0.58304900 -0.31025800 1.905766e-42
55.17530100 8.99872020 488.51099000 0.76267999 0.56531203 -0.31423199 1.905766e-42
56.12979900 7.57272010 487.96799000 0.77361101 0.54712200 -0.31966200 1.905766e-42
57.02880100 6.01880980 487.83701000 0.78583902 0.52857000 -0.32104599 1.905766e-42
57.85229900 4.43574000 487.60101000 0.79757297 0.50983202 -0.32241201 1.905766e-42
58.71089900 2.98647000 486.96701000 0.80761600 0.49219701 -0.32480401 1.905766e-42
59.46690000 1.45957990 486.38599000 0.81711501 0.47374001 -0.32847199 1.905766e-42
60.28179900 -0.14521600 486.35999000 0.82562101 0.45559999 -0.33283600 1.905766e-42
60.97760000 -1.79150000 486.14700000 0.83284599 0.43664700 -0.34015700 1.905766e-42
61.61959800 -3.29679990 485.39700000 0.83866900 0.41668600 -0.35072300 1.905766e-42
62.29169800 -4.96521000 485.46500000 0.84610498 0.39737901 -0.35524100 1.905766e-42
62.84730100 -6.53050990 484.77100000 0.85205001 0.37658700 -0.36358401 1.905766e-42
63.45340000 -8.22535990 484.78201000 0.85905802 0.35594901 -0.36785701 1.905766e-42
63.84230000 -9.96273990 484.51700000 0.86549199 0.33434001 -0.37301600 1.905766e-42
64.21880300 -11.45160000 483.57800000 0.87004203 0.31213200 -0.38157699 1.905766e-42
64.59709900 -13.17830000 483.23901000 0.87521499 0.28828701 -0.38844499 1.905766e-42
65.00949900 -14.92930000 483.30200000 0.88069302 0.26673201 -0.39144999 1.905766e-42
65.30400100 -16.44680000 482.38000000 0.88362998 0.25038600 -0.39560699 1.905766e-42
65.43450200 -18.23770000 482.25500000 0.88813800 0.23807400 -0.39310601 1.905766e-42
65.52400200 -19.83149900 481.42300000 0.89024401 0.23733699 -0.38876301 1.905766e-42
65.30249800 -21.10140000 480.16699000 0.88800901 0.24950600 -0.38624799 1.905766e-42
64.61070300 -20.13579900 478.81400000 0.87893599 0.25601399 -0.40240401 1.905766e-42
63.65179800 -19.16540000 477.64001000 0.86892301 0.26111799 -0.42046499 1.905766e-42
63.15510200 -17.59320100 476.91800000 0.86095101 0.26184699 -0.43611801 1.905766e-42
62.37009800 -16.13859900 476.20499000 0.85197699 0.26653099 -0.45066300 1.905766e-42
61.43890000 -15.06000000 475.10501000 0.84044701 0.27316999 -0.46800399 1.905766e-42
60.42860000 -13.95490000 474.10599000 0.82832700 0.28067699 -0.48486599 1.905766e-42
59.48880000 -12.60710000 473.37100000 0.81684101 0.29133701 -0.49789000 1.905766e-42
58.26060100 -11.75900000 472.36499000 0.80234700 0.30003300 -0.51596397 1.905766e-42
57.48180000 -10.29420000 471.66699000 0.78954500 0.31648099 -0.52579302 1.905766e-42
56.48410000 -8.93330000 471.04001000 0.77465701 0.33620000 -0.53560799 1.905766e-42
55.31620000 -7.95980980 470.07700000 0.75591600 0.35277799 -0.55148798 1.905766e-42
54.27180100 -6.63588000 469.44699000 0.73838699 0.37446699 -0.56085497 1.905766e-42
53.04600100 -5.72584010 468.49301000 0.71756798 0.38948601 -0.57740498 1.905766e-42
51.74010100 -5.03136010 467.46799000 0.69502002 0.40156499 -0.59640002 1.905766e-42
50.36200000 -4.54642010 466.41599000 0.67129803 0.41097301 -0.61681402 1.905766e-42
49.10559800 -3.58323000 465.56000000 0.64687699 0.42772299 -0.63134998 1.905766e-42
47.84930000 -2.48703000 464.88101000 0.62222898 0.44723901 -0.64250100 1.905766e-42
46.38980100 -1.96126000 463.96799000 0.59641802 0.45902601 -0.65846902 1.905766e-42
45.11660000 -0.71979201 463.68900000 0.57209402 0.48275000 -0.66306901 1.905766e-42
43.61949900 -0.35839200 462.75699000 0.54698098 0.49340999 -0.67628300 1.905766e-42
42.06570100 0.23932800 462.07300000 0.52517003 0.50519001 -0.68482101 1.905766e-42
40.42779900 0.42568001 461.35001000 0.50201702 0.51193601 -0.69706500 1.905766e-42
39.09780100 1.49433990 460.77701000 0.47643599 0.52657902 -0.70407599 1.905766e-42
37.57400100 2.40524010 460.47900000 0.44877601 0.54008698 -0.71197301 1.905766e-42
35.95230100 2.77300000 459.79001000 0.41462499 0.54153502 -0.73131800 1.905766e-42
34.33129900 3.44539000 459.39001000 0.37997800 0.54815400 -0.74507999 1.905766e-42
32.67680000 3.99965000 458.94800000 0.34231800 0.55166399 -0.76058197 1.905766e-42
30.99880000 4.20012000 458.32800000 0.30099800 0.54895103 -0.77977800 1.905766e-42
29.31880000 4.80870010 458.11099000 0.27322999 0.54899001 -0.78990799 1.905766e-42
27.60470000 4.91521980 457.57199000 0.24558599 0.54214501 -0.80359602 1.905766e-42
25.98070000 5.69142010 457.55499000 0.22584599 0.54777801 -0.80556399 1.905766e-42
24.28940000 6.30721000 457.54999000 0.20656200 0.55330199 -0.80696303 1.905766e-42
22.52120000 6.39396000 457.22501000 0.18775401 0.55192000 -0.81248599 1.905766e-42
20.74099900 6.44447990 456.96301000 0.17202000 0.55175501 -0.81607300 1.905766e-42
18.95490100 6.53853990 456.76001000 0.15891799 0.55364698 -0.81744701 1.905766e-42
17.18960000 6.88932990 456.78500000 0.14757501 0.56176800 -0.81402600 1.905766e-42
15.40290000 7.10026980 456.72900000 0.12161600 0.57334602 -0.81023699 1.905766e-42
13.62610000 7.17363980 456.45001000 0.09373130 0.57970101 -0.80941999 1.905766e-42
11.88470000 7.12334010 455.99799000 0.06419130 0.58206701 -0.81060302 1.905766e-42
10.08660000 7.19945000 456.03000000 0.03005820 0.58837599 -0.80802900 1.905766e-42
8.28721050 7.19666000 455.98300000 -0.00621168 0.59174901 -0.80609798 1.905766e-42
6.48788980 7.18019010 456.02899000 -0.04721840 0.58610702 -0.80885702 1.905766e-42
4.70252990 6.95398000 455.99301000 -0.08774840 0.57677001 -0.81217998 1.905766e-42
2.92643000 6.66248990 455.97101000 -0.12410200 0.57255697 -0.81041801 1.905766e-42
1.19760000 6.18283990 455.82599000 -0.12542500 0.56547499 -0.81517297 1.905766e-42
-0.49884501 5.59154990 455.71399000 -0.10097500 0.56040198 -0.82204199 1.905766e-42
-2.28159000 5.57001020 455.96201000 -0.07083860 0.56558698 -0.82164001 1.905766e-42
-4.05249020 5.25533010 455.89200000 -0.03669150 0.57035202 -0.82058102 1.905766e-42
-5.64713000 4.53944020 455.46201000 -0.00063994 0.57280999 -0.81968802 1.905766e-42
-7.37304020 4.11347010 455.17999000 0.03674550 0.57789099 -0.81528598 1.905766e-42
-9.17202000 4.17189980 455.16400000 0.07038060 0.58449799 -0.80833697 1.905766e-42
-10.61010000 5.23292020 455.37799000 0.09302240 0.59153599 -0.80089498 1.905766e-42
-11.18700000 6.80143020 456.04700000 0.10044200 0.60099697 -0.79291499 1.905766e-42
-11.31340000 8.10247040 457.28400000 0.09029450 0.61720097 -0.78160697 1.905766e-42
-12.00960000 9.44192030 458.26501000 0.07156080 0.64489901 -0.76090997 1.905766e-42
-12.62990000 10.73720000 459.35001000 0.05238350 0.67817998 -0.73302698 1.905766e-42
-13.57020000 11.90420000 460.34698000 0.03750700 0.71691602 -0.69615000 1.905766e-42
-14.73250000 13.00440000 461.17001000 0.02042740 0.73886299 -0.67354602 1.905766e-42
-15.36450000 13.93690000 462.57401000 -0.00796692 0.74173898 -0.67064202 1.905766e-42
-16.56530000 14.85710000 463.54999000 -0.02263440 0.75082803 -0.66011000 1.905766e-42
-17.54089900 15.70640000 464.80099000 -0.03986900 0.75528997 -0.65417701 1.905766e-42
-19.28529900 16.13660000 464.91000000 -0.03285050 0.77147597 -0.63541001 1.905766e-42
-20.84120000 16.64760000 465.65701000 -0.03545650 0.78258502 -0.62153298 1.905766e-42
-22.39800100 17.10470000 466.43701000 -0.05750490 0.79448402 -0.60455602 1.905766e-42
-24.01180100 17.29229900 467.21201000 -0.11339600 0.80443001 -0.58312398 1.905766e-42
-25.58620100 17.44010000 468.07199000 -0.16222100 0.80737299 -0.56730402 1.905766e-42
-27.23360100 17.43260000 468.79700000 -0.20607901 0.80543000 -0.55571002 1.905766e-42
-29.01600100 17.19120000 468.86499000 -0.24597500 0.80214900 -0.54410797 1.905766e-42
-30.68190000 16.91210000 469.48700000 -0.28381801 0.79460502 -0.53670198 1.905766e-42
-32.39049900 16.35580100 469.59299000 -0.31601301 0.79226601 -0.52196801 1.905766e-42
-34.08290100 15.74270000 469.59698000 -0.33894399 0.79793501 -0.49841401 1.905766e-42
-35.73440200 15.02690000 469.59500000 -0.34638500 0.81797498 -0.45927599 1.905766e-42
