# .PCD v0.7 - Point Cloud Data file format
# 3 33 1
# 1 8 0
# 9 21 0
# 22 33 1
VERSION 0.7
FIELDS x y z normal_x normal_y normal_z curvature
SIZE 4 4 4 4 4 4 4
TYPE F F F F F F F
COUNT 1 1 1 1 1 1 1
WIDTH 33
HEIGHT 1
VIEWPOINT 0 0 0 1 0 0 0
POINTS 33
DATA ascii
7.08617020 8.79113010 462.34100000 0.08297700 0.34119299 -0.93632400 1.905766e-42
5.39412020 11.32500000 463.92200000 0.01420670 0.63768101 -0.77016997 1.905766e-42
5.55064010 12.71100000 465.06000000 0.00233582 0.65898597 -0.75215203 1.905766e-42
6.29773000 13.95430000 466.12601000 -0.01210430 0.67390800 -0.73871601 1.905766e-42
6.40741010 15.24970000 467.37100000 -0.00907932 0.69887000 -0.71519202 1.905766e-42
6.30475000 16.48920100 468.67200000 -0.00014312 0.72617000 -0.68751502 1.905766e-42
6.28072020 17.73170100 469.97400000 0.00653136 0.75150502 -0.65969503 1.905766e-42
6.23192980 18.90749900 471.33600000 0.01976930 0.75447297 -0.65603399 1.905766e-42
7.34808020 19.80330100 472.42801000 0.04481620 0.79042202 -0.61092103 1.905766e-42
8.90225980 19.19020100 471.75800000 0.04178370 0.76687098 -0.64043897 1.905766e-42
10.68580000 19.21410000 472.00000000 0.09667900 0.80352801 -0.58736300 1.905766e-42
12.29730000 19.37490100 472.78601000 0.16477901 0.83290100 -0.52832198 1.905766e-42
14.04830000 18.96010000 472.74200000 0.21846101 0.83732402 -0.50116199 1.905766e-42
15.73940000 18.36479900 472.58099000 0.26254901 0.83252001 -0.48782900 1.905766e-42
16.22920000 17.45750000 471.10599000 0.25590900 0.80542499 -0.53460401 1.905766e-42
17.81310100 16.60810100 471.00601000 0.30298501 0.80595899 -0.50855702 1.905766e-42
19.08630000 15.67610000 470.14001000 0.32128799 0.77055001 -0.55047798 1.905766e-42
20.41400000 14.62680000 469.52600000 0.33728400 0.70008999 -0.62937599 1.905766e-42
21.37220000 13.32200000 468.73901000 0.32971999 0.65171403 -0.68304700 1.905766e-42
22.85720100 12.32020000 468.56299000 0.34892699 0.66161799 -0.66371101 1.905766e-42
24.10269900 11.15130000 467.99600000 0.36539200 0.60006303 -0.71162701 1.905766e-42
25.38800000 9.89186950 467.95099000 0.39005700 0.45291600 -0.80170000 1.905766e-42
25.01810100 8.29220010 467.21301000 0.40418500 0.03226170 -0.91410798 1.905766e-42
23.65800100 7.19643020 466.77802000 0.36982700 -0.23065101 -0.90001601 1.905766e-42
21.99270100 7.22767020 466.09500000 0.35007700 -0.27041399 -0.89683998 1.905766e-42
20.31080100 7.29748010 465.45801000 0.31258500 -0.26049399 -0.91347301 1.905766e-42
18.67470000 7.63749980 464.78900000 0.28931499 -0.22053701 -0.93148297 1.905766e-42
16.97460000 7.15806010 464.44299000 0.28819001 -0.23837100 -0.92742997 1.905766e-42
15.26130000 7.18158010 463.89099000 0.28778601 -0.20801599 -0.93483102 1.905766e-42
13.53610000 7.21388010 463.37900000 0.24302700 -0.16523699 -0.95584202 1.905766e-42
11.88450000 7.82351020 463.00400000 0.19797701 -0.03049530 -0.97973198 1.905766e-42
10.39560000 8.78193000 462.67999000 0.13330100 0.20899300 -0.96878898 1.905766e-42
8.75131990 8.10935020 462.39099000 0.13016400 0.14990599 -0.98009503 1.905766e-42
