# .PCD v0.7 - Point Cloud Data file format
# 2 218 0
# 1 95 0
# 96 218 0
VERSION 0.7
FIELDS x y z normal_x normal_y normal_z curvature
SIZE 4 4 4 4 4 4 4
TYPE F F F F F F F
COUNT 1 1 1 1 1 1 1
WIDTH 218
HEIGHT 1
VIEWPOINT 0 0 0 1 0 0 0
POINTS 218
DATA ascii
74.76850100 -19.33610000 393.89700000 -0.18585201 0.80403101 -0.56479502 1.905766e-42
74.17990100 -20.87529900 391.95401000 -0.18010201 0.80739099 -0.56185699 1.905766e-42
72.44539600 -21.35640000 391.96701000 -0.16995600 0.81029701 -0.56083202 1.905766e-42
70.67179900 -21.62570000 392.11401000 -0.15749200 0.81405997 -0.55901998 1.905766e-42
68.91290300 -22.00200100 392.04700000 -0.14230800 0.81850898 -0.55658901 1.905766e-42
67.13829800 -22.29870000 391.99200000 -0.12518001 0.82357597 -0.55321997 1.905766e-42
65.34549700 -22.43540000 392.07599000 -0.10719900 0.82918400 -0.54860097 1.905766e-42
63.55460000 -22.40930000 392.25500000 -0.09015060 0.83437198 -0.54378003 1.905766e-42
61.76110100 -22.40830000 392.40799000 -0.07541140 0.83742100 -0.54133099 1.905766e-42
60.00109900 -22.24869900 392.75000000 -0.06264700 0.83939201 -0.53990400 1.905766e-42
58.39580200 -21.89600000 393.48401000 -0.05120870 0.84144002 -0.53791797 1.905766e-42
56.70299900 -21.67610000 394.05499000 -0.03911100 0.84246498 -0.53732997 1.905766e-42
54.93190000 -21.54530000 394.34799000 -0.02682680 0.84210002 -0.53865403 1.905766e-42
53.28500000 -21.22820100 395.00201000 -0.01425270 0.84240597 -0.53865403 1.905766e-42
51.61119800 -20.92240000 395.58899000 -0.00092463 0.84208900 -0.53933799 1.905766e-42
49.85670100 -20.92670100 395.99100000 0.00994981 0.84181499 -0.53967500 1.905766e-42
48.37220000 -20.26199900 396.76199000 0.01922530 0.84499502 -0.53442901 1.905766e-42
46.97639800 -19.58260000 397.67300000 0.02817510 0.84885502 -0.52787501 1.905766e-42
45.56840100 -18.89629900 398.56000000 0.03717490 0.85268003 -0.52110898 1.905766e-42
43.97129800 -18.29890100 399.13699000 0.04708240 0.85510099 -0.51631898 1.905766e-42
42.39709900 -17.76409900 399.82700000 0.05701140 0.85784698 -0.51073301 1.905766e-42
41.10630000 -17.06850100 400.87100000 0.06529410 0.86224902 -0.50225800 1.905766e-42
39.45130200 -16.72110000 401.48700000 0.07583180 0.86438501 -0.49707901 1.905766e-42
38.03459900 -16.14480000 402.43701000 0.08479740 0.86809897 -0.48909500 1.905766e-42
36.81269800 -15.43270000 403.54999000 0.09209590 0.87239897 -0.48003900 1.905766e-42
35.25130100 -15.01800000 404.34399000 0.11040400 0.87195897 -0.47696799 1.905766e-42
34.12630100 -14.07240000 405.38300000 0.12613299 0.87186098 -0.47323200 1.905766e-42
32.72209900 -13.36410000 406.25900000 0.14430000 0.87015498 -0.47117701 1.905766e-42
31.03330000 -12.92410000 406.70001000 0.16491500 0.86700201 -0.47022399 1.905766e-42
29.56710100 -12.06430000 407.29199000 0.18351200 0.86396402 -0.46892399 1.905766e-42
27.77050000 -12.03700000 407.18399000 0.20434600 0.86009198 -0.46742401 1.905766e-42
26.31340000 -11.14190000 407.74600000 0.22206400 0.85643101 -0.46606201 1.905766e-42
24.80769900 -10.43910000 408.43799000 0.23907401 0.85224903 -0.46531200 1.905766e-42
23.40620000 -9.70464990 409.29599000 0.25409400 0.84759098 -0.46586099 1.905766e-42
22.62140100 -8.66798020 410.54099000 0.26271901 0.84264100 -0.47003800 1.905766e-42
21.08160000 -7.90196990 411.07199000 0.27831000 0.83669198 -0.47168899 1.905766e-42
19.37500000 -7.33696990 411.16299000 0.28865200 0.83486599 -0.46869901 1.905766e-42
17.78140100 -6.53318980 411.39600000 0.29873699 0.83272600 -0.46617901 1.905766e-42
16.13480000 -5.81904980 411.53299000 0.30987000 0.83073801 -0.46244401 1.905766e-42
14.43460000 -5.22983980 411.48599000 0.32228801 0.82889301 -0.45723900 1.905766e-42
12.87320000 -4.42478990 411.87799000 0.33270800 0.82663202 -0.45385599 1.905766e-42
11.14600000 -4.06931020 411.51700000 0.34665000 0.82484102 -0.44662100 1.905766e-42
9.56546970 -3.26821990 411.20001000 0.35989401 0.82264501 -0.44014901 1.905766e-42
8.08467010 -3.24863000 410.17700000 0.37382200 0.82089603 -0.43172500 1.905766e-42
6.53780980 -2.34930990 410.37299000 0.38483301 0.81828600 -0.42697999 1.905766e-42
5.15317010 -1.37762000 410.98801000 0.39317799 0.81589103 -0.42394999 1.905766e-42
3.83066010 -0.44891399 411.78101000 0.40023801 0.81368500 -0.42157501 1.905766e-42
2.26650000 0.42193401 411.96799000 0.41017699 0.81132799 -0.41653499 1.905766e-42
0.81233102 1.35046010 412.48099000 0.41698200 0.80937499 -0.41356701 1.905766e-42
0.00611931 2.62083010 413.46899000 0.41960299 0.80709797 -0.41536301 1.905766e-42
-0.78064698 3.71199010 414.66501000 0.42199099 0.80386102 -0.41920301 1.905766e-42
-1.79576000 4.71086980 415.76599000 0.42595801 0.79951298 -0.42348501 1.905766e-42
-3.02918000 5.68177990 416.64700000 0.43132100 0.79431599 -0.42781401 1.905766e-42
-4.39452980 6.54159020 417.44501000 0.43702099 0.78851402 -0.43273300 1.905766e-42
-5.10697980 7.81860020 418.49500000 0.44144201 0.78132701 -0.44119900 1.905766e-42
-5.96151020 9.02418990 419.52200000 0.44671199 0.77307701 -0.45033401 1.905766e-42
-7.00208000 10.11460000 420.50601000 0.45267299 0.76394701 -0.45986000 1.905766e-42
-8.16125970 11.24170000 421.29700000 0.45902801 0.75421500 -0.46952400 1.905766e-42
-8.80387020 12.53180000 422.37601000 0.46519500 0.74307400 -0.48107699 1.905766e-42
-10.00220000 13.66780000 423.09201000 0.46868700 0.73559600 -0.48911199 1.905766e-42
-11.11540000 14.79300000 423.94901000 0.47245699 0.72874302 -0.49569899 1.905766e-42
-12.24400000 16.04460000 424.58200000 0.47660601 0.72309202 -0.49998400 1.905766e-42
-12.86620000 17.47909900 425.47299000 0.48056000 0.71901798 -0.50207102 1.905766e-42
-13.94410000 18.79630100 426.05899000 0.48556501 0.71608400 -0.50144702 1.905766e-42
-15.28320000 19.89629900 426.54599000 0.49144799 0.71373498 -0.49906099 1.905766e-42
-16.51870000 20.94360000 427.33099000 0.49771699 0.71336401 -0.49334601 1.905766e-42
-17.51790000 22.13330100 428.23999000 0.50210500 0.71460998 -0.48705599 1.905766e-42
-18.76750000 23.31730100 428.76599000 0.50864398 0.71543998 -0.47898600 1.905766e-42
-19.11910100 24.72080000 429.83701000 0.50811201 0.72084802 -0.47138101 1.905766e-42
-20.34480100 25.96550000 430.27100000 0.51504397 0.72350699 -0.45963800 1.905766e-42
-20.82379900 27.14530000 431.54300000 0.51937699 0.72567302 -0.45127201 1.905766e-42
-22.05900000 28.31230000 432.13699000 0.53364998 0.72043598 -0.44293299 1.905766e-42
-23.33519900 29.40280000 432.78699000 0.54744399 0.71371597 -0.43693799 1.905766e-42
-24.39870100 30.60990000 433.59399000 0.55975199 0.70590901 -0.43401599 1.905766e-42
-25.49250000 31.84400000 434.31601000 0.57271099 0.69519299 -0.43440601 1.905766e-42
-26.24740000 33.26050200 435.13000000 0.58480000 0.68182701 -0.43945500 1.905766e-42
-27.62400100 34.41890000 435.18500000 0.59852898 0.66618502 -0.44492799 1.905766e-42
-28.76870000 35.68159900 435.76401000 0.61126697 0.64602500 -0.45716900 1.905766e-42
-29.98870100 36.98870100 435.97198000 0.62309700 0.62398601 -0.47158399 1.905766e-42
-31.24609900 38.25849900 435.75601000 0.63260698 0.60391098 -0.48487100 1.905766e-42
-32.66400100 39.20050000 435.17099000 0.63924402 0.59182101 -0.49103400 1.905766e-42
-33.77870200 40.61370100 435.15701000 0.67561001 0.53272301 -0.50966400 1.905766e-42
-34.93830100 41.98949800 435.10599000 0.71698803 0.46203899 -0.52196598 1.905766e-42
-36.09769800 43.27710000 434.61899000 0.74990898 0.40796399 -0.52077103 1.905766e-42
-36.89720200 44.87590000 434.40701000 0.77276802 0.35048199 -0.52914298 1.905766e-42
-38.02119800 45.89730100 433.44101000 0.79572898 0.32416600 -0.51159799 1.905766e-42
-38.95900000 47.33850100 432.90900000 0.81103098 0.28596699 -0.51034403 1.905766e-42
-39.73809800 48.92120000 432.55099000 0.81957299 0.24634300 -0.51731497 1.905766e-42
-40.74649800 50.14289900 431.69601000 0.82891601 0.22662100 -0.51141101 1.905766e-42
-41.42470200 51.72880200 431.18100000 0.83015001 0.19526000 -0.52223003 1.905766e-42
-42.13520100 53.21460000 430.45499000 0.82842398 0.17140201 -0.53323102 1.905766e-42
-42.74670000 54.75420000 429.75101000 0.82128102 0.14672200 -0.55133498 1.905766e-42
-43.45520000 56.22760000 428.99799000 0.80764401 0.12510701 -0.57624602 1.905766e-42
-43.59590100 58.00569900 428.75500000 0.79536003 0.08780380 -0.59974402 1.905766e-42
-44.03820000 59.75050000 428.76001000 0.78310400 0.05296250 -0.61963201 1.905766e-42
-44.05040000 61.48460000 429.24200000 0.78375900 0.02297590 -0.62063998 1.905766e-42
-42.97129800 62.08630000 430.55099000 0.79048800 -0.00274433 -0.61247200 1.905766e-42
-41.86850000 62.26380200 431.96301000 0.79169500 -0.01268270 -0.61078501 1.905766e-42
-40.80810200 62.70520000 433.34799000 0.78740102 -0.02110930 -0.61607897 1.905766e-42
-39.66220100 62.98160200 434.70901000 0.78671700 -0.01931600 -0.61701202 1.905766e-42
-38.62139900 63.75339900 435.95801000 0.78743702 -0.01682930 -0.61616498 1.905766e-42
-37.70029800 64.35350000 437.38400000 0.78607702 -0.00921410 -0.61805898 1.905766e-42
-36.46649900 64.50530200 438.68500000 0.77990401 0.00281461 -0.62589300 1.905766e-42
-35.24340100 64.73090400 439.98599000 0.77053303 0.01579940 -0.63720399 1.905766e-42
-34.21730000 65.43129700 441.28900000 0.76544797 0.03254520 -0.64267403 1.905766e-42
-32.94960000 65.32510400 442.56299000 0.75474000 0.05119440 -0.65402400 1.905766e-42
-31.77470000 65.65419800 443.88599000 0.74351501 0.07036330 -0.66500700 1.905766e-42
-30.63540100 64.89189900 445.05200000 0.72455901 0.08046420 -0.68449998 1.905766e-42
-29.46640000 63.98780100 446.07999000 0.70495898 0.08717870 -0.70386899 1.905766e-42
-28.18180100 63.96970000 447.34100000 0.68611097 0.09810700 -0.72085100 1.905766e-42
-26.85990000 63.97300000 448.56299000 0.66623300 0.10685700 -0.73804802 1.905766e-42
-25.53210100 64.37879900 449.70801000 0.64949900 0.11685100 -0.75133002 1.905766e-42
-24.18289900 64.68810300 450.85901000 0.63428599 0.12503600 -0.76292002 1.905766e-42
-22.85710000 64.08709700 451.91800000 0.61989599 0.12555000 -0.77457500 1.905766e-42
-21.49810000 64.01870000 453.09601000 0.60700899 0.12885100 -0.78417897 1.905766e-42
-20.15800100 63.41590100 454.13501000 0.59537798 0.12716800 -0.79331797 1.905766e-42
-18.80940100 62.60990100 455.01401000 0.58505201 0.12289200 -0.80163002 1.905766e-42
-17.48850100 62.22850000 456.17599000 0.57406801 0.12083900 -0.80984199 1.905766e-42
-16.05620000 61.44929900 456.93799000 0.56598800 0.11577900 -0.81624299 1.905766e-42
-14.71000000 61.37810100 458.13101000 0.55775201 0.11635400 -0.82181197 1.905766e-42
-13.16030000 60.82490200 458.86099000 0.55007797 0.11175500 -0.82760203 1.905766e-42
-11.71950000 60.61920200 459.92001000 0.54137498 0.11003400 -0.83354998 1.905766e-42
-10.16280000 60.04900000 460.62100000 0.53251898 0.10367600 -0.84004402 1.905766e-42
-8.68974020 59.28970000 461.32300000 0.52307397 0.09418730 -0.84706700 1.905766e-42
-7.18220000 59.12390100 462.29300000 0.50407702 0.10098000 -0.85773498 1.905766e-42
-5.67394020 58.35139800 462.89999000 0.47931799 0.10899800 -0.87084699 1.905766e-42
-4.18460990 57.63240100 463.60999000 0.45392901 0.11479500 -0.88361198 1.905766e-42
-2.69839000 56.88760000 464.30099000 0.43050501 0.11943700 -0.89465100 1.905766e-42
-1.12047990 56.73040000 465.15201000 0.40754500 0.12106800 -0.90512401 1.905766e-42
0.34721601 55.83850100 465.69101000 0.38914001 0.12318700 -0.91290498 1.905766e-42
1.94653000 55.28229900 466.30200000 0.37103900 0.12260600 -0.92048800 1.905766e-42
3.56331990 54.97700100 467.03201000 0.35357001 0.11867600 -0.92784899 1.905766e-42
5.12278990 54.46590000 467.77100000 0.33888701 0.11380800 -0.93391800 1.905766e-42
6.73481990 53.72700100 468.07999000 0.32826301 0.10939100 -0.93823099 1.905766e-42
8.30650040 52.89199800 468.35001000 0.32772100 0.11132000 -0.93819398 1.905766e-42
9.90046020 52.14450100 468.72400000 0.35160401 0.13465200 -0.92641401 1.905766e-42
11.54610000 51.85920000 469.39499000 0.37414899 0.16038001 -0.91339499 1.905766e-42
13.07670000 50.92630000 469.56000000 0.37170899 0.16855900 -0.91291898 1.905766e-42
14.54770000 49.91709900 469.79999000 0.33792099 0.20822100 -0.91785300 1.905766e-42
15.92810000 48.76850100 469.92401000 0.29782000 0.24623500 -0.92231899 1.905766e-42
17.55480000 48.08829900 470.28601000 0.25937200 0.28411901 -0.92303997 1.905766e-42
19.03019900 47.06060000 470.37000000 0.21452200 0.32100201 -0.92246300 1.905766e-42
20.38080000 45.87110100 470.34299000 0.16944399 0.35867500 -0.91795498 1.905766e-42
22.05850000 45.21979900 470.37601000 0.12617999 0.39185601 -0.91133302 1.905766e-42
23.48000000 44.11550100 470.37799000 0.08421110 0.42861700 -0.89955300 1.905766e-42
24.78739900 42.92559800 470.04001000 0.04524390 0.46934801 -0.88185400 1.905766e-42
26.35600100 42.10490000 469.71399000 0.00869598 0.50576800 -0.86262602 1.905766e-42
27.64690000 41.05379900 469.02899000 -0.01944330 0.54617399 -0.83744597 1.905766e-42
29.35660000 40.55749900 468.76401000 -0.02399530 0.55548900 -0.83117801 1.905766e-42
30.73860000 39.71810200 467.97299000 -0.02874620 0.57280803 -0.81918502 1.905766e-42
32.27059900 39.02660000 467.32901000 -0.03545980 0.58470702 -0.81046897 1.905766e-42
33.75249900 38.25519900 466.65900000 -0.04291240 0.59582901 -0.80196398 1.905766e-42
35.23700000 37.55709800 465.91800000 -0.05146280 0.60475802 -0.79474503 1.905766e-42
36.45430000 36.68159900 464.92200000 -0.05788460 0.61537999 -0.78610200 1.905766e-42
38.01310000 36.22520100 464.14600000 -0.06943890 0.61853600 -0.78268200 1.905766e-42
39.76369900 36.04209900 463.76999000 -0.08536780 0.61646098 -0.78274399 1.905766e-42
41.22129800 35.30630100 463.01199000 -0.09742870 0.61891901 -0.77938902 1.905766e-42
42.68890000 34.44800200 462.42099000 -0.11014600 0.61946201 -0.77726102 1.905766e-42
44.10220000 33.65060000 461.64200000 -0.12142900 0.61800599 -0.77673900 1.905766e-42
45.89569900 33.60760100 461.49500000 -0.13939700 0.61126101 -0.77905601 1.905766e-42
47.52090100 33.16619900 460.85901000 -0.15313800 0.60714501 -0.77969497 1.905766e-42
49.29349900 32.89149900 460.70901000 -0.16914999 0.60160398 -0.78068000 1.905766e-42
50.94350100 32.55799900 460.07199000 -0.18330200 0.59716201 -0.78089601 1.905766e-42
52.40869900 32.11840100 459.12299000 -0.19523200 0.59375203 -0.78060400 1.905766e-42
54.08350000 32.00059900 458.47400000 -0.21049801 0.58842200 -0.78067303 1.905766e-42
55.79100000 32.00009900 457.90500000 -0.22661801 0.58240700 -0.78066999 1.905766e-42
57.47530000 31.99679900 457.26999000 -0.24263600 0.57620901 -0.78045499 1.905766e-42
59.05490100 31.71530000 456.45401000 -0.25664699 0.57084000 -0.77991903 1.905766e-42
60.38359800 31.34709900 455.29700000 -0.26790300 0.56671298 -0.77914298 1.905766e-42
61.70830200 30.90830000 454.16000000 -0.27878001 0.56281900 -0.77814901 1.905766e-42
63.19290200 30.00770000 453.68600000 -0.28889099 0.56050098 -0.77613199 1.905766e-42
64.89659900 29.62840100 453.24500000 -0.30189601 0.55643100 -0.77410799 1.905766e-42
66.40699800 29.28319900 452.32901000 -0.31225801 0.55535698 -0.77076203 1.905766e-42
67.76380200 28.75779900 451.26999000 -0.32009101 0.55802798 -0.76560199 1.905766e-42
69.34330000 28.54560100 450.43301000 -0.32854700 0.55944902 -0.76096898 1.905766e-42
69.84649700 27.26899900 449.26801000 -0.33058900 0.57208198 -0.75062102 1.905766e-42
69.99060100 25.95310000 448.04800000 -0.33213899 0.58596802 -0.73913801 1.905766e-42
71.03920000 25.15870100 446.82001000 -0.33956900 0.59619802 -0.72749001 1.905766e-42
72.27410100 24.39990000 445.75201000 -0.34802499 0.60585898 -0.71541101 1.905766e-42
73.26030000 23.43779900 444.59399000 -0.35645601 0.61664099 -0.70192099 1.905766e-42
74.01200100 22.43700000 443.29999000 -0.36298001 0.62604302 -0.69015598 1.905766e-42
74.78450000 21.47730100 441.98801000 -0.36188799 0.63120300 -0.68601698 1.905766e-42
75.38060000 20.46170000 440.62701000 -0.36170799 0.63436699 -0.68318701 1.905766e-42
76.02500200 19.38019900 439.34000000 -0.36230999 0.63556898 -0.68175000 1.905766e-42
76.51509900 18.21820100 438.05600000 -0.36383399 0.63481897 -0.68163800 1.905766e-42
77.32579800 17.17960000 436.82901000 -0.36628199 0.63287401 -0.68213499 1.905766e-42
77.97200000 16.16270100 435.49200000 -0.36540800 0.63606697 -0.67962903 1.905766e-42
78.12290200 15.07510000 434.06601000 -0.36386201 0.64007401 -0.67668998 1.905766e-42
78.47290000 13.90020000 432.74799000 -0.36345699 0.64342803 -0.67372000 1.905766e-42
79.53730000 13.10570000 431.53299000 -0.36600500 0.64510298 -0.67073298 1.905766e-42
80.23889900 12.14550000 430.18201000 -0.36803401 0.64772600 -0.66708499 1.905766e-42
80.59130100 11.02330000 428.81900000 -0.36983100 0.65073401 -0.66315198 1.905766e-42
81.37789900 10.05780000 427.51999000 -0.37324899 0.65341997 -0.65858001 1.905766e-42
81.62460300 8.90474030 426.16000000 -0.37612501 0.65643603 -0.65392798 1.905766e-42
80.97090100 7.51355980 425.22299000 -0.37013000 0.66754001 -0.64605999 1.905766e-42
80.18499800 6.12645010 424.38699000 -0.36190799 0.68180799 -0.63573700 1.905766e-42
79.08689900 4.95274020 423.57700000 -0.35435399 0.69537199 -0.62521303 1.905766e-42
78.30180400 3.70910000 422.53900000 -0.34667900 0.70893699 -0.61418402 1.905766e-42
77.62580100 2.46810010 421.42401000 -0.33791301 0.72187400 -0.60391402 1.905766e-42
76.82930000 1.26613000 420.34698000 -0.32967100 0.73401302 -0.59375203 1.905766e-42
76.75679800 -0.08747620 419.16299000 -0.31974301 0.74318999 -0.58773500 1.905766e-42
76.13400300 -1.25187000 417.94000000 -0.31026599 0.75252801 -0.58089203 1.905766e-42
75.70649700 -2.44153000 416.65799000 -0.30004901 0.76038301 -0.57601100 1.905766e-42
75.24970200 -3.61941000 415.37601000 -0.28965801 0.76727003 -0.57218403 1.905766e-42
74.97080200 -4.72301010 413.98199000 -0.27912799 0.77243799 -0.57046199 1.905766e-42
74.51429700 -5.70033980 412.54099000 -0.26951301 0.77607298 -0.57015198 1.905766e-42
74.36200000 -6.77962020 411.10800000 -0.26060301 0.77757198 -0.57224798 1.905766e-42
74.12960100 -7.84130000 409.67300000 -0.25175899 0.77896398 -0.57431000 1.905766e-42
74.31980100 -9.07489970 408.37601000 -0.24401499 0.77901900 -0.57756901 1.905766e-42
74.26059700 -10.21270000 406.98300000 -0.23615500 0.77974701 -0.57984900 1.905766e-42
74.32790400 -11.32570000 405.57001000 -0.22912800 0.78028500 -0.58194000 1.905766e-42
73.77249900 -12.30140000 404.16299000 -0.22106300 0.78308600 -0.58129799 1.905766e-42
74.16929600 -13.30000000 402.71899000 -0.21540000 0.78446698 -0.58156198 1.905766e-42
73.96690400 -14.27000000 401.21600000 -0.20820700 0.78789300 -0.57954597 1.905766e-42
73.78330200 -15.25000000 399.71701000 -0.20146599 0.79148698 -0.57702702 1.905766e-42
74.13670300 -16.16840000 398.20999000 -0.19732100 0.79389799 -0.57514298 1.905766e-42
74.24350000 -17.17729900 396.72299000 -0.19252400 0.79734302 -0.57199502 1.905766e-42
74.56469700 -18.19109900 395.27100000 -0.18904300 0.80059302 -0.56860602 1.905766e-42
