# .PCD v0.7 - Point Cloud Data file format
# 4 128 0
# 1 45 0
# 46 83 0
# 84 104 0
# 105 128 0
VERSION 0.7
FIELDS x y z normal_x normal_y normal_z curvature
SIZE 4 4 4 4 4 4 4
TYPE F F F F F F F
COUNT 1 1 1 1 1 1 1
WIDTH 128
HEIGHT 1
VIEWPOINT 0 0 0 1 0 0 0
POINTS 128
DATA ascii
23.89979900 6.06505010 441.84601000 -0.18943200 0.90134901 -0.38946801 1.905766e-42
22.38520100 5.37268020 441.16299000 -0.16538200 0.91129398 -0.37708500 1.905766e-42
20.74510000 4.86896990 440.61801000 -0.13979200 0.91865402 -0.36950299 1.905766e-42
19.06950000 4.47962000 440.08801000 -0.11303500 0.92421901 -0.36475000 1.905766e-42
17.27080000 4.45997000 440.02499000 -0.08409540 0.92741001 -0.36446899 1.905766e-42
15.58610000 4.05906010 439.53400000 -0.05973700 0.92960203 -0.36369300 1.905766e-42
13.82760000 3.77942990 439.26999000 -0.03827920 0.92980897 -0.36604699 1.905766e-42
12.03580000 3.62248990 439.20001000 -0.01576400 0.92970401 -0.36796901 1.905766e-42
10.38710000 3.44322990 438.50101000 0.00477550 0.92932701 -0.36922801 1.905766e-42
8.68749050 3.27449010 437.93201000 0.02647590 0.92844599 -0.37052301 1.905766e-42
6.92033000 3.40523000 437.61600000 0.04917680 0.92759502 -0.37033799 1.905766e-42
5.12060020 3.43228010 437.60101000 0.06825670 0.92669702 -0.36956000 1.905766e-42
3.53052000 2.94476010 436.91199000 0.07256520 0.92303300 -0.37781399 1.905766e-42
1.74475000 3.13757990 436.79501000 0.07690550 0.92198801 -0.37950400 1.905766e-42
-0.00198823 3.19821000 436.36401000 0.07892950 0.92071301 -0.38217399 1.905766e-42
-1.75292000 3.45926000 436.03799000 0.07937440 0.92067599 -0.38217199 1.905766e-42
-3.54626990 3.60911990 436.00000000 0.07797770 0.92225599 -0.37863299 1.905766e-42
-5.10371020 3.19882990 435.19699000 0.07849820 0.91983998 -0.38435999 1.905766e-42
-6.90303990 3.15280010 435.17899000 0.08602610 0.92321098 -0.37454101 1.905766e-42
-8.66958050 3.06838010 434.84399000 0.09824390 0.92349100 -0.37082601 1.905766e-42
-10.36360000 3.61631990 435.10901000 0.11619900 0.91848999 -0.37798700 1.905766e-42
-12.11640000 3.97849990 434.91800000 0.13282201 0.91506302 -0.38081199 1.905766e-42
-13.82830000 4.05670020 434.36801000 0.14759199 0.91328698 -0.37963501 1.905766e-42
-15.60890000 4.31981990 434.35699000 0.16240600 0.91057599 -0.38010001 1.905766e-42
-18.20360000 4.64283990 434.39301000 0.16077600 0.90644199 -0.39052999 1.905766e-42
-19.99519900 4.78902010 434.29901000 0.15379199 0.90334600 -0.40039301 1.905766e-42
-21.78060000 5.00756980 434.36600000 0.15053800 0.89980298 -0.40950400 1.905766e-42
-23.43320100 5.56569000 434.81000000 0.15450700 0.89640200 -0.41544101 1.905766e-42
-24.81620000 6.29138990 435.70499000 0.17431000 0.88471001 -0.43232301 1.905766e-42
-26.51230000 6.85137990 435.92801000 0.19468901 0.87175500 -0.44960001 1.905766e-42
-28.21400100 7.43487980 435.98901000 0.21827000 0.85803002 -0.46491101 1.905766e-42
-29.70700100 8.24553010 436.58401000 0.24778099 0.84299600 -0.47745299 1.905766e-42
-31.34950100 8.95837970 436.76901000 0.26807001 0.82700402 -0.49416801 1.905766e-42
-32.80699900 9.82310960 437.37500000 0.28303999 0.81267703 -0.50935602 1.905766e-42
-34.49779900 10.41930000 437.53601000 0.28493100 0.80289000 -0.52362400 1.905766e-42
-35.83459900 11.34880000 438.30301000 0.29079601 0.79551297 -0.53159797 1.905766e-42
-37.20349900 12.25260000 439.04401000 0.29370099 0.78894198 -0.53973103 1.905766e-42
-38.60440100 13.16910000 439.70599000 0.29446599 0.78309500 -0.54777002 1.905766e-42
-40.23510000 13.89890000 439.92499000 0.29124299 0.77788597 -0.55684000 1.905766e-42
-41.47209900 14.94410000 440.71100000 0.30022901 0.76326698 -0.57209003 1.905766e-42
-42.75289900 16.01520000 441.38300000 0.31208199 0.74452299 -0.59016103 1.905766e-42
-44.37300100 16.78290000 441.54401000 0.32062301 0.72697097 -0.60721803 1.905766e-42
-45.74810000 17.81390000 442.07901000 0.33592901 0.70504898 -0.62454599 1.905766e-42
-46.68840000 19.09140000 442.92999000 0.35627100 0.68064398 -0.64015198 1.905766e-42
-47.72610100 20.34810100 443.69400000 0.36977801 0.66980100 -0.64391798 1.905766e-42
-48.58649800 21.64679900 444.59601000 0.38177299 0.66390300 -0.64302599 1.905766e-42
-47.35390100 22.29290000 445.73700000 0.38199601 0.66828603 -0.63833600 1.905766e-42
-46.36999900 23.01339900 447.06100000 0.38293201 0.66893899 -0.63709003 1.905766e-42
-45.15580000 23.59630000 448.25601000 0.38171801 0.66780198 -0.63900799 1.905766e-42
-43.91529800 24.13520100 449.44299000 0.37977701 0.66342700 -0.64469701 1.905766e-42
-42.95579900 24.67440000 450.86700000 0.37662801 0.65430802 -0.65576798 1.905766e-42
-41.52140000 24.81489900 451.94601000 0.37386900 0.64322001 -0.66819900 1.905766e-42
-40.34809900 25.35800000 453.19800000 0.37271401 0.62474298 -0.68613398 1.905766e-42
-39.11140100 25.96940000 454.35400000 0.37560999 0.60836798 -0.69914597 1.905766e-42
-37.67129900 26.32329900 455.37500000 0.37935400 0.59918499 -0.70503002 1.905766e-42
-36.77190000 27.29820100 456.59100000 0.37886301 0.59568697 -0.70825201 1.905766e-42
-35.50700000 27.93730000 457.70099000 0.38214800 0.59301001 -0.70873302 1.905766e-42
-34.65630000 28.62700100 459.13000000 0.38541499 0.59147400 -0.70824701 1.905766e-42
-32.94240200 28.78620000 459.65601000 0.38474500 0.59147298 -0.70861202 1.905766e-42
-31.82920100 29.32740000 460.96301000 0.37720901 0.58848602 -0.71512097 1.905766e-42
-31.07040000 30.17790000 462.35599000 0.37156400 0.58167100 -0.72360200 1.905766e-42
-29.49169900 30.32970000 463.20801000 0.36344799 0.57866699 -0.73010302 1.905766e-42
-28.21349900 31.12000100 464.19800000 0.35700601 0.57111597 -0.73917103 1.905766e-42
-27.28019900 32.14540100 465.34601000 0.35219800 0.56028700 -0.74969000 1.905766e-42
-25.82329900 32.71600000 466.23599000 0.34708300 0.55362201 -0.75699198 1.905766e-42
-24.55170100 33.23109800 467.40100000 0.35148099 0.54724997 -0.75959098 1.905766e-42
-23.29560100 33.75120200 468.58099000 0.35598499 0.54131001 -0.76174700 1.905766e-42
-21.94669900 34.27539800 469.65100000 0.36038899 0.53658402 -0.76301801 1.905766e-42
-21.00620100 35.34640100 470.75101000 0.36634800 0.52704901 -0.76681799 1.905766e-42
-19.43040100 35.81969800 471.48001000 0.36917499 0.52793902 -0.76484603 1.905766e-42
-18.79430000 36.93069800 472.74600000 0.36808601 0.53241301 -0.76226598 1.905766e-42
-17.63830000 37.65029900 473.92300000 0.35633600 0.52762902 -0.77112401 1.905766e-42
-16.23930000 38.22269800 474.89999000 0.33667600 0.51865500 -0.78590500 1.905766e-42
-14.60990000 38.32740000 475.65799000 0.31753999 0.51013303 -0.79933298 1.905766e-42
-14.15300000 39.70010000 476.72900000 0.30267000 0.49725100 -0.81310099 1.905766e-42
-12.74530000 40.50529900 477.51001000 0.28299499 0.48303300 -0.82860899 1.905766e-42
-11.55450000 41.39009900 478.53000000 0.26361901 0.46673399 -0.84419399 1.905766e-42
-9.89278030 41.56819900 479.19800000 0.24563700 0.45578900 -0.85552198 1.905766e-42
-8.73081020 42.61340000 480.09100000 0.23459201 0.44006801 -0.86677998 1.905766e-42
-7.31604000 43.46189900 480.81100000 0.22388799 0.42786801 -0.87567300 1.905766e-42
-6.02263020 44.49490000 481.51801000 0.21504700 0.41655400 -0.88331002 1.905766e-42
-4.79033990 45.57059900 482.26999000 0.20864899 0.40807399 -0.88878602 1.905766e-42
-3.75660990 46.73970000 483.16599000 0.20715900 0.40302101 -0.89143699 1.905766e-42
-2.37069990 47.54410200 483.98599000 0.20523299 0.40948299 -0.88893402 1.905766e-42
-1.02512000 46.39350100 483.66101000 0.18284699 0.42320001 -0.88739401 1.905766e-42
0.27281600 45.19089900 483.33099000 0.15847000 0.43633899 -0.88571799 1.905766e-42
1.86628000 44.36299900 483.20700000 0.13152200 0.44990599 -0.88333797 1.905766e-42
3.22412990 43.26789900 482.76300000 0.10409700 0.46211401 -0.88068998 1.905766e-42
4.89043000 42.64569900 482.48700000 0.07341570 0.47365800 -0.87764299 1.905766e-42
6.47177980 41.87130000 482.11301000 0.04131270 0.48464999 -0.87373197 1.905766e-42
8.04582980 41.10670100 481.69101000 0.00917217 0.49214500 -0.87046498 1.905766e-42
9.61478040 40.33960000 481.25500000 -0.02049020 0.49544400 -0.86839801 1.905766e-42
11.16830000 39.55920000 480.78900000 -0.04570810 0.49535900 -0.86748499 1.905766e-42
12.48170000 38.51990100 480.13000000 -0.05994400 0.49541801 -0.86658400 1.905766e-42
14.23600000 38.13639800 480.00601000 -0.03383490 0.51123703 -0.85877299 1.905766e-42
15.45130000 37.04769900 479.24600000 -0.03203850 0.52367002 -0.85131800 1.905766e-42
16.84199900 36.10390100 478.60199000 -0.03650340 0.54570699 -0.83718097 1.905766e-42
18.60210000 35.78290200 478.40399000 -0.03731780 0.56736302 -0.82262200 1.905766e-42
20.34420000 35.33070000 478.38000000 -0.04773480 0.58848602 -0.80709702 1.905766e-42
21.94380000 34.88999900 477.68201000 -0.07165180 0.60806698 -0.79064602 1.905766e-42
23.48090000 34.36159900 476.90799000 -0.10453900 0.62560999 -0.77310002 1.905766e-42
24.71279900 33.57560000 475.85699000 -0.13381299 0.62697899 -0.76745802 1.905766e-42
26.43160100 33.36169800 475.36801000 -0.15319400 0.62905401 -0.76211703 1.905766e-42
27.90070000 32.87730000 474.44699000 -0.16201000 0.62199003 -0.76608199 1.905766e-42
29.47050100 32.50500100 473.64899000 -0.15803000 0.61154002 -0.77527100 1.905766e-42
29.86240000 30.96019900 472.81201000 -0.14051200 0.60793197 -0.78145701 1.905766e-42
29.19759900 29.60899900 471.82599000 -0.13244200 0.62257701 -0.77126998 1.905766e-42
28.84740100 28.16670000 470.80801000 -0.13019501 0.64727199 -0.75105900 1.905766e-42
28.53350100 26.74980000 469.74301000 -0.13052399 0.67009199 -0.73071200 1.905766e-42
28.43660000 25.35960000 468.60400000 -0.13192400 0.69145900 -0.71026802 1.905766e-42
28.04410000 24.13929900 467.34000000 -0.13939700 0.70987803 -0.69039202 1.905766e-42
27.60829900 22.96870000 466.04401000 -0.15145200 0.72531998 -0.67154503 1.905766e-42
27.48840000 21.72830000 464.74500000 -0.15914400 0.73305500 -0.66128898 1.905766e-42
27.07959900 20.59620100 463.40701000 -0.17085899 0.73161697 -0.65995699 1.905766e-42
26.94630100 19.41490000 462.05499000 -0.18044300 0.73125702 -0.65780199 1.905766e-42
27.21310000 18.14410000 460.80899000 -0.18055300 0.73528200 -0.65326899 1.905766e-42
26.20420100 17.16060100 459.68799000 -0.18884400 0.74546301 -0.63923597 1.905766e-42
26.29210100 15.93530000 458.37299000 -0.17130101 0.76591998 -0.61969501 1.905766e-42
26.06209900 14.81770000 456.98099000 -0.16406500 0.79409897 -0.58522499 1.905766e-42
25.69850000 13.73810000 455.58701000 -0.16107100 0.81712800 -0.55349600 1.905766e-42
25.62299900 12.71460000 454.10800000 -0.16299000 0.83609301 -0.52381599 1.905766e-42
25.62240000 11.69450000 452.62500000 -0.16933399 0.85148102 -0.49629200 1.905766e-42
25.60540000 10.82190000 451.05099000 -0.17975800 0.86361998 -0.47100699 1.905766e-42
25.54509900 10.00430000 449.44901000 -0.18695600 0.86963701 -0.45692199 1.905766e-42
25.55030100 9.17506980 447.85101000 -0.19390599 0.87453598 -0.44450700 1.905766e-42
25.54010000 8.50010970 446.18201000 -0.20020100 0.87902403 -0.43270701 1.905766e-42
25.33140000 7.74311020 444.56299000 -0.20641100 0.88315499 -0.42122701 1.905766e-42
24.97680100 6.94371990 442.98901000 -0.21118400 0.88797700 -0.40853101 1.905766e-42
