# .PCD v0.7 - Point Cloud Data file format
# 3 163 -2
# 1 58 0
# 59 93 0
# 94 163 0
VERSION 0.7
FIELDS x y z normal_x normal_y normal_z curvature
SIZE 4 4 4 4 4 4 4
TYPE F F F F F F F
COUNT 1 1 1 1 1 1 1
WIDTH 163
HEIGHT 1
VIEWPOINT 0 0 0 1 0 0 0
POINTS 163
DATA ascii
60.06140100 -23.02459900 484.83401000 -0.92734599 -0.23005100 0.29513699 1.905766e-42
59.97670000 -21.40609900 485.61700000 -0.93019199 -0.21464901 0.29777199 1.905766e-42
59.99160000 -19.79150000 486.41299000 -0.92958897 -0.20420900 0.30686000 1.905766e-42
59.58570100 -18.06360100 486.71201000 -0.92430902 -0.21069400 0.31821501 1.905766e-42
59.08300000 -16.33760100 486.80301000 -0.91701400 -0.22798300 0.32727399 1.905766e-42
58.91289900 -14.65380000 487.41599000 -0.91074997 -0.24865399 0.32970399 1.905766e-42
58.26890200 -12.97490000 487.33499000 -0.90023297 -0.27557600 0.33710399 1.905766e-42
58.16080100 -11.35010000 488.10199000 -0.89100599 -0.29372999 0.34616700 1.905766e-42
57.94110100 -9.62701030 488.57401000 -0.87930298 -0.31960499 0.35309899 1.905766e-42
57.25299800 -7.97491980 488.76700000 -0.86530900 -0.35108101 0.35774601 1.905766e-42
56.64820100 -6.29823020 489.01801000 -0.85025603 -0.38365501 0.36038101 1.905766e-42
55.88340000 -4.67191980 489.11899000 -0.83360702 -0.41717800 0.36202499 1.905766e-42
55.13819900 -3.04562000 489.31799000 -0.81613600 -0.44967601 0.36292401 1.905766e-42
54.88340000 -1.49959000 490.20401000 -0.80371100 -0.47329199 0.36061701 1.905766e-42
54.10990100 0.05771390 490.66901000 -0.78780502 -0.49896801 0.36110201 1.905766e-42
52.88119900 1.35511000 490.45200000 -0.76913798 -0.52256501 0.36790201 1.905766e-42
52.41989900 2.87514000 491.29901000 -0.76032698 -0.53908002 0.36234799 1.905766e-42
51.61560100 4.41516020 491.76901000 -0.74773598 -0.55847299 0.35916400 1.905766e-42
50.55130000 5.84876010 491.99799000 -0.73290998 -0.57894200 0.35730699 1.905766e-42
49.37699900 7.18939020 492.25000000 -0.71725398 -0.59398001 0.36432600 1.905766e-42
47.74380100 9.02579020 492.36099000 -0.69375199 -0.61649698 0.37234399 1.905766e-42
46.67789800 10.40340000 492.81500000 -0.67642897 -0.63293499 0.37661201 1.905766e-42
45.51470200 11.77260000 492.92599000 -0.65706998 -0.65201402 0.37833500 1.905766e-42
44.40620000 13.14850000 493.26999000 -0.63687301 -0.67210102 0.37772101 1.905766e-42
43.17450000 14.43410000 493.53500000 -0.61506301 -0.69403398 0.37418500 1.905766e-42
41.85710100 15.65240000 493.67700000 -0.59643197 -0.71403301 0.36664200 1.905766e-42
40.94170000 17.03210100 494.38300000 -0.57942200 -0.73213798 0.35811099 1.905766e-42
39.81129800 18.37039900 494.79599000 -0.56402397 -0.74599999 0.35406399 1.905766e-42
38.16280000 19.08560000 494.69199000 -0.55176401 -0.75745600 0.34902301 1.905766e-42
36.93690100 20.29210100 495.22299000 -0.53880799 -0.76808500 0.34602201 1.905766e-42
35.39799900 21.21640000 495.35501000 -0.52721697 -0.77777600 0.34220800 1.905766e-42
34.08229800 22.31530000 495.90399000 -0.51589501 -0.78732598 0.33759400 1.905766e-42
32.64609900 23.35820000 496.20300000 -0.50509202 -0.79682702 0.33158600 1.905766e-42
31.26199900 24.42660000 496.63101000 -0.48513001 -0.81163698 0.32541499 1.905766e-42
29.74259900 25.36560100 496.85400000 -0.45947400 -0.82814902 0.32101801 1.905766e-42
28.17090000 26.22530000 497.02899000 -0.43486699 -0.84275401 0.31726399 1.905766e-42
26.79960100 27.23870100 497.60599000 -0.41343099 -0.85671401 0.30840901 1.905766e-42
25.27540000 28.11420100 497.99301000 -0.39233699 -0.86737603 0.30615401 1.905766e-42
23.74959900 28.96200000 498.43301000 -0.37233800 -0.87321103 0.31443000 1.905766e-42
22.13159900 29.68689900 498.74399000 -0.35295901 -0.87968397 0.31871000 1.905766e-42
20.56399900 30.43790100 499.21100000 -0.33506399 -0.88571501 0.32131100 1.905766e-42
19.08720000 31.20649900 499.89600000 -0.31252199 -0.89389300 0.32137999 1.905766e-42
17.59380000 31.98220100 500.53500000 -0.28950900 -0.90267998 0.31836101 1.905766e-42
16.34300000 32.83079900 501.51199000 -0.26955900 -0.91137999 0.31100500 1.905766e-42
14.60600000 33.22829800 501.76599000 -0.24671900 -0.91914499 0.30708599 1.905766e-42
13.11330000 33.93790100 502.47900000 -0.22666299 -0.92710602 0.29849201 1.905766e-42
11.53590000 34.44089900 503.18600000 -0.20775300 -0.93424797 0.28986201 1.905766e-42
9.78470040 34.83309900 503.32501000 -0.18785700 -0.93859202 0.28940600 1.905766e-42
8.19330020 35.32650000 504.00699000 -0.17214601 -0.94372803 0.28239000 1.905766e-42
6.42472980 35.65190100 504.08600000 -0.14876600 -0.94616300 0.28748101 1.905766e-42
4.83810000 36.11220200 504.80099000 -0.13084000 -0.95055598 0.28164500 1.905766e-42
3.05701990 36.37149800 504.82300000 -0.10598500 -0.95051801 0.29203299 1.905766e-42
1.34070000 36.83330200 505.10699000 -0.08337290 -0.95067602 0.29877099 1.905766e-42
-0.44655600 36.91190000 504.90900000 -0.05338850 -0.94618702 0.31918499 1.905766e-42
-2.23004010 37.12649900 504.79401000 -0.02268220 -0.94058502 0.33879799 1.905766e-42
-3.97005010 36.99959900 505.23700000 0.00378146 -0.93579799 0.35251600 1.905766e-42
-5.69057990 37.12770100 505.75000000 0.01240520 -0.92991102 0.36757401 1.905766e-42
-7.34628010 37.39749900 506.40302000 0.01665730 -0.92378300 0.38255301 1.905766e-42
-9.14430050 37.31470100 506.41901000 0.03233010 -0.91331702 0.40596399 1.905766e-42
-10.20030000 36.59310200 505.15201000 0.05928620 -0.90314198 0.42522800 1.905766e-42
-10.14760000 35.87839900 503.50101000 0.07668870 -0.89577401 0.43784499 1.905766e-42
-10.92380000 35.16370000 502.04300000 0.09445560 -0.88333398 0.45912901 1.905766e-42
-11.55190000 34.22129800 500.64401000 0.10797100 -0.86899197 0.48290399 1.905766e-42
-12.41480000 33.31570100 499.34900000 0.11892400 -0.85578501 0.50347799 1.905766e-42
-13.22460000 32.42039900 498.01401000 0.12777400 -0.84633303 0.51710302 1.905766e-42
-14.12820000 31.53420100 496.73401000 0.13640200 -0.83727300 0.52949798 1.905766e-42
-15.34140000 30.74490000 495.66400000 0.14594600 -0.82920802 0.53955001 1.905766e-42
-16.23160000 29.78109900 494.43201000 0.15310900 -0.82101399 0.54999501 1.905766e-42
-16.86479900 28.68210000 493.15500000 0.15392700 -0.82869899 0.53811198 1.905766e-42
-18.23770000 27.90220100 492.29001000 0.16013101 -0.83458602 0.52709001 1.905766e-42
-19.38990000 27.11640000 491.15201000 0.16548000 -0.84098500 0.51513201 1.905766e-42
-20.61440100 26.36770100 490.06601000 0.16865601 -0.84644198 0.50506502 1.905766e-42
-21.34770000 25.21719900 488.89200000 0.17199400 -0.84637702 0.50404799 1.905766e-42
-22.72310100 24.44540000 488.02499000 0.18360300 -0.82308197 0.53742498 1.905766e-42
-23.52800000 23.32440000 486.86899000 0.19935900 -0.79461700 0.57344502 1.905766e-42
-24.61630100 22.32609900 485.84000000 0.21455500 -0.76625401 0.60565698 1.905766e-42
-25.87830000 21.33589900 485.02301000 0.22894099 -0.73900002 0.63361198 1.905766e-42
-26.95200000 20.24530000 484.07599000 0.24183100 -0.71647602 0.65435398 1.905766e-42
-27.89810000 19.04320000 483.12701000 0.25009099 -0.71261400 0.65546602 1.905766e-42
-29.04620000 17.94350100 482.28299000 0.25972101 -0.70794100 0.65678298 1.905766e-42
-29.70660000 16.56520100 481.33200000 0.27060801 -0.70377302 0.65686703 1.905766e-42
-30.80780000 15.46080000 480.43301000 0.28626499 -0.69624197 0.65825498 1.905766e-42
-31.55430000 14.18020000 479.41199000 0.30197200 -0.70735198 0.63911301 1.905766e-42
-32.00500100 12.90860000 478.22101000 0.31736800 -0.75699002 0.57117701 1.905766e-42
-33.02539800 11.77210000 477.26801000 0.35457700 -0.77841699 0.51801699 1.905766e-42
-33.55360000 10.70310000 475.92001000 0.39993799 -0.79798299 0.45085800 1.905766e-42
-34.31890100 9.66625020 474.66299000 0.46252999 -0.79502499 0.39243001 1.905766e-42
-35.56480000 8.67444990 473.82401000 0.53922701 -0.75939900 0.36407101 1.905766e-42
-36.28730000 7.65361980 472.52899000 0.60405099 -0.73795903 0.30089599 1.905766e-42
-36.77650100 6.56875990 471.17899000 0.65278101 -0.72558600 0.21771900 1.905766e-42
-37.39659900 5.54463010 469.83499000 0.68579298 -0.71753103 0.12180700 1.905766e-42
-38.27290000 4.51929000 468.64301000 0.70674700 -0.70672703 0.03232950 1.905766e-42
-38.15650200 3.73892000 467.02499000 0.75846303 -0.62744498 0.17620200 1.905766e-42
-38.53519800 2.78681990 465.54501000 0.75424600 -0.57124501 0.32371500 1.905766e-42
-37.67610200 4.09067010 464.64999000 0.75147599 -0.57292402 0.32717299 1.905766e-42
-36.73650000 5.58128020 464.28201000 0.73043102 -0.60341501 0.31994000 1.905766e-42
-35.66389800 6.93827010 464.78000000 0.69005799 -0.69169402 0.21302600 1.905766e-42
-34.38819900 8.20812030 464.77499000 0.61872500 -0.77663702 0.11838000 1.905766e-42
-32.89970000 9.22017960 464.78101000 0.50873601 -0.86092103 -0.00159065 1.905766e-42
-31.25670100 9.95413020 464.73700000 0.36293700 -0.92283201 -0.12906700 1.905766e-42
-29.80730100 10.64140000 463.92099000 0.27322701 -0.95762300 -0.09113820 1.905766e-42
-28.23950000 11.10930000 463.17001000 0.14590600 -0.98897099 -0.02543420 1.905766e-42
-26.44790100 10.93800000 463.14001000 -0.05562670 -0.99646002 -0.06302880 1.905766e-42
-24.73399900 10.47680000 462.84000000 -0.28178900 -0.95885903 0.03441650 1.905766e-42
-23.13080000 10.01170000 462.16599000 -0.43656901 -0.86939198 0.23144101 1.905766e-42
-21.63740000 9.22908020 461.53601000 -0.44103700 -0.81508201 0.37566799 1.905766e-42
-20.27420000 8.12127020 461.14301000 -0.43597400 -0.76801997 0.46911901 1.905766e-42
-19.33000000 7.07639980 460.02200000 -0.42976299 -0.70375597 0.56571198 1.905766e-42
-18.56100100 5.85627990 458.94501000 -0.41997200 -0.65616000 0.62695903 1.905766e-42
-17.82020000 4.40973000 458.17099000 -0.41298100 -0.62498999 0.66244602 1.905766e-42
-17.42600100 2.96071000 457.17899000 -0.40311500 -0.60006499 0.69095701 1.905766e-42
-16.16340100 1.86167000 457.84100000 -0.42467400 -0.59642798 0.68112099 1.905766e-42
-14.64770000 1.18828000 458.54001000 -0.43998399 -0.58894098 0.67790997 1.905766e-42
-13.02330000 0.85894197 459.24200000 -0.44110200 -0.57735598 0.68708801 1.905766e-42
-11.58590000 0.92452699 460.32401000 -0.37612900 -0.58921498 0.71508998 1.905766e-42
-9.87471960 0.76134598 460.85800000 -0.28971201 -0.59103900 0.75282103 1.905766e-42
-8.13018990 0.79102403 461.29999000 -0.19781800 -0.58467299 0.78678203 1.905766e-42
-6.34287020 0.80520099 461.51300000 -0.10950400 -0.57167500 0.81313998 1.905766e-42
-4.55053000 0.94721401 461.59900000 -0.02865120 -0.55834103 0.82911700 1.905766e-42
-2.76692010 1.18416000 461.64999000 0.04160180 -0.54992998 0.83417398 1.905766e-42
-1.01596000 1.59316000 461.73300000 0.09856600 -0.55292702 0.82737899 1.905766e-42
0.77510399 1.64676000 461.56201000 0.14843801 -0.55944198 0.81546998 1.905766e-42
2.55093000 1.61112000 461.26999000 0.11114700 -0.55697101 0.82306099 1.905766e-42
4.32358980 1.86060000 461.45801000 0.06353760 -0.57964402 0.81238902 1.905766e-42
6.10144000 1.65465000 461.26599000 0.01688890 -0.57600403 0.81727302 1.905766e-42
7.84780980 1.90016000 461.62601000 -0.03625860 -0.61782402 0.78548002 1.905766e-42
9.63984970 1.96696000 461.78201000 -0.08296340 -0.62257701 0.77814800 1.905766e-42
11.31160000 2.17621990 462.41501000 -0.11973300 -0.61804301 0.77697301 1.905766e-42
13.09650000 1.98608990 462.54999000 -0.15796500 -0.60377997 0.78134298 1.905766e-42
14.73220000 2.39335990 463.18100000 -0.18168300 -0.59476602 0.78310001 1.905766e-42
16.52339900 2.21761990 463.21201000 -0.17881601 -0.58416301 0.79169399 1.905766e-42
18.31730100 2.09822990 463.29800000 -0.17614999 -0.57580501 0.79838502 1.905766e-42
20.00709900 2.35507990 463.86301000 -0.17247000 -0.57536799 0.79950398 1.905766e-42
21.78840100 2.13346000 463.99600000 -0.17295000 -0.57053602 0.80285603 1.905766e-42
23.54260100 1.73210000 464.03799000 -0.17463399 -0.56582201 0.80582201 1.905766e-42
25.29430000 1.47651000 464.36401000 -0.17757900 -0.56699097 0.80435503 1.905766e-42
27.04019900 1.34920000 464.78299000 -0.18327600 -0.57361400 0.79835898 1.905766e-42
28.76339900 0.83936900 464.88599000 -0.22339800 -0.56687498 0.79293501 1.905766e-42
30.47960100 0.63274801 465.38800000 -0.28624600 -0.56261200 0.77558398 1.905766e-42
31.94080000 -0.36842701 465.06699000 -0.33321801 -0.53808302 0.77423000 1.905766e-42
33.56790200 -1.12361000 465.21600000 -0.38568100 -0.52085900 0.76154798 1.905766e-42
35.11769900 -1.75424000 465.88000000 -0.43801799 -0.51033199 0.74006897 1.905766e-42
36.67699800 -2.49848010 466.38400000 -0.48541200 -0.49605900 0.71993101 1.905766e-42
38.22420100 -2.99976990 467.15601000 -0.53040898 -0.48691800 0.69395697 1.905766e-42
39.54579900 -4.21614980 467.27200000 -0.56258500 -0.46419600 0.68412000 1.905766e-42
41.01910000 -4.99525980 467.95300000 -0.58371198 -0.46056801 0.66869801 1.905766e-42
42.41640100 -5.74393990 468.80499000 -0.60486698 -0.45719099 0.65200597 1.905766e-42
43.85770000 -6.69776010 469.30801000 -0.62336498 -0.44913501 0.64007401 1.905766e-42
45.16330000 -7.34382010 470.36499000 -0.64370900 -0.44564101 0.62212801 1.905766e-42
46.53010200 -8.50487040 470.51999000 -0.65859097 -0.43343800 0.61513299 1.905766e-42
47.91540100 -9.36923030 471.27802000 -0.67671299 -0.42523500 0.60102898 1.905766e-42
48.93880100 -9.96440980 472.63400000 -0.69452399 -0.42129999 0.58321702 1.905766e-42
50.10100200 -11.03800000 473.49200000 -0.71081799 -0.41074800 0.57098502 1.905766e-42
51.25400200 -12.11410000 474.35999000 -0.74768198 -0.37621301 0.54720700 1.905766e-42
52.43840000 -13.13620000 475.25000000 -0.78311801 -0.34046000 0.52039701 1.905766e-42
53.61819800 -14.21180000 476.08099000 -0.81121802 -0.31045499 0.49552301 1.905766e-42
54.71089900 -15.30840000 477.00000000 -0.83429098 -0.28653300 0.47101700 1.905766e-42
55.60590000 -16.52319900 477.98099000 -0.85342097 -0.26737800 0.44741699 1.905766e-42
56.49219900 -17.83960000 478.82999000 -0.86889499 -0.25287700 0.42552799 1.905766e-42
57.19229900 -19.10619900 479.90100000 -0.88286698 -0.24362200 0.40148899 1.905766e-42
57.91310100 -20.33149900 481.00500000 -0.89536202 -0.23833200 0.37619799 1.905766e-42
58.65610100 -21.60140000 482.04199000 -0.90597802 -0.23711801 0.35068300 1.905766e-42
59.31560100 -22.80040000 483.21100000 -0.91585398 -0.23824100 0.32319099 1.905766e-42
