# .PCD v0.7 - Point Cloud Data file format
# 3 76 0
# 1 23 0
# 24 45 0
# 46 76 0
VERSION 0.7
FIELDS x y z normal_x normal_y normal_z curvature
SIZE 4 4 4 4 4 4 4
TYPE F F F F F F F
COUNT 1 1 1 1 1 1 1
WIDTH 76
HEIGHT 1
VIEWPOINT 0 0 0 1 0 0 0
POINTS 76
DATA ascii
37.92219900 14.90610000 446.64001000 0.12795199 -0.73542303 0.66541803 1.905766e-42
36.67750200 15.67540000 447.68799000 0.09057190 -0.69364500 0.71460003 1.905766e-42
35.04710000 16.14450100 448.29001000 0.07196640 -0.67989701 0.72976702 1.905766e-42
33.33770000 16.45050000 448.76401000 0.05358570 -0.67079198 0.73970699 1.905766e-42
31.54430000 16.29900000 448.79001000 0.03678880 -0.66986901 0.74156702 1.905766e-42
29.88190100 16.76840000 449.29599000 0.01903880 -0.66573501 0.74594498 1.905766e-42
28.16620100 17.18610000 449.64600000 0.00175978 -0.66378301 0.74792302 1.905766e-42
26.43910000 17.60619900 449.92899000 -0.01897610 -0.65705901 0.75360000 1.905766e-42
24.84720000 18.42140000 450.13300000 -0.03967910 -0.64719701 0.76128900 1.905766e-42
23.07309900 18.40110000 450.43600000 -0.06204720 -0.64498699 0.76166999 1.905766e-42
21.37260100 18.95310000 450.64499000 -0.08698260 -0.63098598 0.77090299 1.905766e-42
19.58330000 19.13180000 450.72501000 -0.10941200 -0.62244701 0.77497602 1.905766e-42
15.99090000 20.43740100 451.04501000 -0.14106500 -0.58837098 0.79619098 1.905766e-42
14.25090000 20.89390000 450.98199000 -0.16750699 -0.57774502 0.79884398 1.905766e-42
12.52560000 21.40259900 450.91299000 -0.19451800 -0.56419897 0.80239803 1.905766e-42
10.74640000 21.61179900 450.73901000 -0.21570700 -0.56259900 0.79809302 1.905766e-42
9.04833980 22.17720000 450.54599000 -0.23321301 -0.55185503 0.80066699 1.905766e-42
7.28901000 22.38439900 450.22699000 -0.25313100 -0.54659802 0.79821998 1.905766e-42
5.61265990 22.93040100 449.86401000 -0.28158301 -0.52829897 0.80100602 1.905766e-42
3.85555010 23.06570100 449.49799000 -0.30212399 -0.53184801 0.79111201 1.905766e-42
2.20638990 23.65130000 449.07700000 -0.30171099 -0.55712301 0.77368200 1.905766e-42
0.47005501 23.89629900 448.67099000 -0.30328599 -0.57654601 0.75869101 1.905766e-42
-1.27430000 24.25090000 448.40302000 -0.30286101 -0.59450698 0.74487400 1.905766e-42
-2.97386000 24.58390000 447.91299000 -0.30372101 -0.61338800 0.72904700 1.905766e-42
-3.70373010 23.54210100 446.63901000 -0.32429099 -0.63112497 0.70463997 1.905766e-42
-3.97097990 22.26050000 445.40399000 -0.35009599 -0.63752598 0.68628901 1.905766e-42
-4.03445010 20.90850100 444.21701000 -0.37681800 -0.62703401 0.68178898 1.905766e-42
-4.55518010 19.79420100 442.90302000 -0.38672200 -0.62040901 0.68230402 1.905766e-42
-4.70358990 18.52330000 441.63699000 -0.38576701 -0.62745798 0.67637300 1.905766e-42
-4.80342010 17.24609900 440.37201000 -0.38640401 -0.63243598 0.67135501 1.905766e-42
-4.82854990 15.94630000 439.12799000 -0.38825101 -0.63557100 0.66731602 1.905766e-42
-4.86539980 14.65240000 437.87701000 -0.39150000 -0.63793999 0.66314399 1.905766e-42
-5.05197000 13.39510000 436.60199000 -0.39684501 -0.63995302 0.65800798 1.905766e-42
-4.82749990 12.06530000 435.41000000 -0.39739501 -0.64226401 0.65541899 1.905766e-42
-5.26079990 10.95980000 434.05701000 -0.39886901 -0.64213997 0.65464503 1.905766e-42
-5.55249980 9.82872960 432.68799000 -0.40093800 -0.64088601 0.65460902 1.905766e-42
-5.48121020 8.52346040 431.45001000 -0.40361899 -0.63666099 0.65708101 1.905766e-42
-5.65018990 7.23554990 430.20401000 -0.40926400 -0.63070798 0.65932602 1.905766e-42
-5.52048020 5.89282990 429.01199000 -0.41543600 -0.62458402 0.66129303 1.905766e-42
-6.02286010 4.80002020 427.67300000 -0.42221901 -0.62808502 0.65363598 1.905766e-42
-6.29894020 3.62514000 426.33801000 -0.42508799 -0.62997103 0.64995199 1.905766e-42
-6.42898990 2.37068010 425.05399000 -0.42790300 -0.62954998 0.64850998 1.905766e-42
-6.98854020 1.42316000 423.62900000 -0.43189600 -0.63067800 0.64475602 1.905766e-42
-7.17230990 0.19000000 422.33099000 -0.43221501 -0.63676500 0.63853002 1.905766e-42
-7.21227980 -1.06196000 421.03799000 -0.43137500 -0.64732599 0.62839901 1.905766e-42
-6.27745010 -2.23717000 420.04599000 -0.40919399 -0.69321901 0.59330201 1.905766e-42
-4.75519990 -2.34018990 421.00101000 -0.40276101 -0.68818802 0.60347402 1.905766e-42
-3.34116010 -2.39576010 422.11301000 -0.39299500 -0.68232602 0.61643100 1.905766e-42
-1.83029000 -2.39909010 423.09100000 -0.37739101 -0.67813599 0.63063997 1.905766e-42
-0.28972200 -2.35180000 424.02100000 -0.35392100 -0.67105597 0.65147799 1.905766e-42
1.24741010 -2.24806000 424.95200000 -0.33060199 -0.66408497 0.67059201 1.905766e-42
2.77123000 -2.04931000 425.88901000 -0.30919501 -0.66181099 0.68293899 1.905766e-42
4.19706010 -1.64836000 426.91199000 -0.28950399 -0.66218102 0.69116098 1.905766e-42
5.80139020 -1.47621000 427.70999000 -0.26678300 -0.66533601 0.69724798 1.905766e-42
7.08865020 -0.82859099 428.78900000 -0.24602801 -0.66979498 0.70060301 1.905766e-42
8.78909970 -0.80287099 429.37799000 -0.21428300 -0.67871499 0.70244497 1.905766e-42
10.31130000 -0.30208099 430.19800000 -0.18578900 -0.68869501 0.70084399 1.905766e-42
11.76650000 0.19908901 431.13199000 -0.15880100 -0.69929302 0.69697303 1.905766e-42
13.30510000 0.75721699 431.88101000 -0.13016500 -0.71061999 0.69142997 1.905766e-42
14.76350000 1.33574000 432.76300000 -0.10466700 -0.72078502 0.68520999 1.905766e-42
16.12480000 2.01196000 433.72699000 -0.08395820 -0.72874498 0.67961901 1.905766e-42
17.47190100 2.68464990 434.71399000 -0.06299320 -0.73489302 0.67525101 1.905766e-42
18.74040000 3.48209000 435.71100000 -0.04378810 -0.73973399 0.67147398 1.905766e-42
20.16180000 4.18005990 436.56699000 -0.01774530 -0.74747503 0.66405302 1.905766e-42
21.59260000 4.92667010 437.36401000 0.00947247 -0.75573301 0.65481198 1.905766e-42
23.18650100 5.54449990 437.92700000 0.04518560 -0.76804501 0.63880002 1.905766e-42
24.66150100 6.30650000 438.62299000 0.07129750 -0.77547300 0.62734199 1.905766e-42
26.07560000 7.01056000 439.48599000 0.09279670 -0.77853799 0.62069899 1.905766e-42
27.17390100 7.90053990 440.60001000 0.09825420 -0.77271700 0.62709999 1.905766e-42
28.69899900 8.71994020 441.09299000 0.11947300 -0.78054500 0.61357599 1.905766e-42
29.92009900 9.59762000 442.08200000 0.11918400 -0.77806801 0.61677003 1.905766e-42
31.52820000 10.34380000 442.39401000 0.14213900 -0.78640902 0.60113102 1.905766e-42
32.69170000 11.26660000 443.41101000 0.14066000 -0.77763897 0.61277401 1.905766e-42
33.89070100 12.14500000 444.42599000 0.13920400 -0.76587898 0.62773502 1.905766e-42
35.23849900 13.01950000 445.23801000 0.13927799 -0.75729799 0.63804501 1.905766e-42
36.44100200 14.02120000 446.12701000 0.12872501 -0.74062300 0.65947503 1.905766e-42
