# .PCD v0.7 - Point Cloud Data file format
# 2 162 0
# 1 72 1
# 73 162 1
VERSION 0.7
FIELDS x y z normal_x normal_y normal_z curvature
SIZE 4 4 4 4 4 4 4
TYPE F F F F F F F
COUNT 1 1 1 1 1 1 1
WIDTH 162
HEIGHT 1
VIEWPOINT 0 0 0 1 0 0 0
POINTS 162
DATA ascii
6.0331101 48.4198 456.63199 -0.48647299 0.258742 0.83450401 1.9057659e-42
4.5630202 48.353298 455.595 -0.59247398 0.26516101 0.76069999 1.9057659e-42
3.1747301 48.107498 454.47601 -0.68234801 0.256942 0.68438399 1.9057659e-42
1.89809 47.7271 453.26599 -0.72010702 0.245859 0.64884502 1.9057659e-42
0.64124799 47.086498 452.14801 -0.74673402 0.238701 0.62081403 1.9057659e-42
-0.45518899 46.589901 450.80899 -0.77361399 0.23409501 0.58882898 1.9057659e-42
-1.58251 45.826199 449.63199 -0.826572 0.20026401 0.52599698 1.9057659e-42
-2.54159 45.015301 448.34299 -0.86534798 0.16875701 0.47190401 1.9057659e-42
-3.3668499 44.2239 446.952 -0.88175303 0.145781 0.44861901 1.9057659e-42
-4.0823302 43.500301 445.46799 -0.89791501 0.106692 0.42704299 1.9057659e-42
-4.8285098 42.4781 444.18799 -0.91673702 0.047469299 0.39666101 1.9057659e-42
-5.2891102 41.893398 442.54901 -0.92662001 -0.0072702901 0.37592801 1.9057659e-42
-5.7353201 41.059502 441.017 -0.93532902 -0.079212397 0.344796 1.9057659e-42
-6.0418801 39.728298 439.845 -0.94682902 -0.14883099 0.285245 1.9057659e-42
-6.2600999 39.0653 438.186 -0.95429498 -0.197446 0.22435699 1.9057659e-42
-6.3517199 38.035099 436.71301 -0.96103001 -0.225482 0.159936 1.9057659e-42
-6.36235 36.715801 435.48801 -0.964091 -0.250505 0.088184498 1.9057659e-42
-6.2344499 35.9464 433.866 -0.96223098 -0.271992 0.0114809 1.9057659e-42
-5.94067 34.750401 432.55301 -0.95728397 -0.284904 -0.049357399 1.9057659e-42
-5.5724902 33.919701 430.99899 -0.95292002 -0.28862399 -0.092949599 1.9057659e-42
-5.08636 32.948601 429.564 -0.94159198 -0.30712101 -0.138137 1.9057659e-42
-4.5269699 31.9494 428.17499 -0.92198998 -0.33803201 -0.18886299 1.9057659e-42
-3.73961 31.248699 426.716 -0.89862198 -0.36916301 -0.237058 1.9057659e-42
-2.9500201 30.117201 425.56 -0.86944801 -0.407269 -0.27962801 1.9057659e-42
-2.11148 28.867201 424.573 -0.83624399 -0.44727799 -0.31723401 1.9057659e-42
-1.1180201 28.0382 423.32199 -0.80753702 -0.47471899 -0.350036 1.9057659e-42
-0.029318299 26.9244 422.41901 -0.77231401 -0.50386798 -0.38684401 1.9057659e-42
1.16426 25.785601 421.69901 -0.71358699 -0.54001802 -0.446289 1.9057659e-42
2.42507 24.885 420.78299 -0.65418297 -0.56618899 -0.501472 1.9057659e-42
3.8082299 24.195101 419.86099 -0.60541302 -0.58144403 -0.54350501 1.9057659e-42
5.2237501 23.266899 419.24899 -0.55008501 -0.610946 -0.56934398 1.9057659e-42
6.7388501 22.6373 418.508 -0.49557701 -0.63628697 -0.59122097 1.9057659e-42
8.3148499 22.1049 417.82101 -0.45529199 -0.65975797 -0.597853 1.9057659e-42
9.8628998 21.190399 417.73499 -0.42223799 -0.696742 -0.57988399 1.9057659e-42
11.519 20.9154 417.08499 -0.38657701 -0.72744298 -0.566908 1.9057659e-42
13.204 20.3328 416.83801 -0.313676 -0.765549 -0.56173098 1.9057659e-42
14.9602 20.087999 416.52802 -0.223882 -0.78836501 -0.57302397 1.9057659e-42
16.4533 19.3123 416.79401 -0.153442 -0.79321998 -0.58928603 1.9057659e-42
18.2393 19.215 416.59201 -0.073539101 -0.78520399 -0.61485398 1.9057659e-42
20.0152 18.960899 416.73999 -0.0052534798 -0.77317101 -0.634175 1.9057659e-42
21.718599 18.560699 417.16199 0.047731198 -0.76276302 -0.64491498 1.9057659e-42
23.4834 18.4266 417.48999 0.088939197 -0.750238 -0.655159 1.9057659e-42
25.259199 18.707701 417.578 0.12585799 -0.73979902 -0.66095197 1.9057659e-42
26.9139 18.446199 418.23599 0.18123201 -0.74778301 -0.63872898 1.9057659e-42
28.587299 18.417999 418.89899 0.260427 -0.75297898 -0.60431898 1.9057659e-42
30.213499 18.403799 419.67001 0.325147 -0.75610298 -0.56796801 1.9057659e-42
31.844299 18.676901 420.38101 0.376333 -0.75158501 -0.54175103 1.9057659e-42
33.4165 19.0263 421.185 0.428381 -0.73963797 -0.51906198 1.9057659e-42
34.866199 19.132999 422.24701 0.47843099 -0.72645301 -0.493325 1.9057659e-42
36.3255 19.8438 423.02499 0.54357803 -0.70676303 -0.45278001 1.9057659e-42
37.660801 20.146999 424.19299 0.58698702 -0.69977999 -0.40713 1.9057659e-42
38.946999 20.5543 425.384 0.62699401 -0.68670398 -0.36785299 1.9057659e-42
40.148602 21.2052 426.556 0.66772097 -0.66518098 -0.33419001 1.9057659e-42
41.277802 22.0116 427.703 0.727283 -0.62910801 -0.274378 1.9057659e-42
42.2626 22.3612 429.168 0.77086002 -0.59913898 -0.216351 1.9057659e-42
43.168499 23.486401 430.242 0.80373198 -0.56661803 -0.181546 1.9057659e-42
43.974201 23.9328 431.789 0.82045799 -0.55425698 -0.140174 1.9057659e-42
44.5746 25.127899 432.99301 0.840877 -0.53199798 -0.099525899 1.9057659e-42
45.2584 25.847099 434.495 0.85659599 -0.51380002 -0.047467999 1.9057659e-42
45.7934 26.6189 436.03101 0.86911899 -0.49454799 0.0073863398 1.9057659e-42
46.1847 27.495899 437.55301 0.88176298 -0.465599 0.0755779 1.9057659e-42
46.487 28.562901 438.97101 0.89191598 -0.42728001 0.148045 1.9057659e-42
46.620499 29.496599 440.504 0.89983702 -0.377343 0.218872 1.9057659e-42
46.666901 30.266899 442.13 0.90295601 -0.348959 0.25079501 1.9057659e-42
46.491699 31.057301 443.73801 0.89668101 -0.33076599 0.29420501 1.9057659e-42
46.409698 32.571301 444.70801 0.88921201 -0.30502599 0.34097001 1.9057659e-42
46.064499 33.604599 446.14099 0.85834002 -0.25829199 0.443326 1.9057659e-42
45.684898 34.4729 447.67099 0.80175 -0.18437999 0.56850803 1.9057659e-42
44.667301 35.314899 448.89401 0.73371601 -0.10101 0.67190599 1.9057659e-42
43.671799 36.446999 449.87799 0.68781298 -0.0526856 0.72397399 1.9057659e-42
42.626598 36.9683 451.24701 0.670838 -0.055470198 0.73952699 1.9057659e-42
41.866901 38.507099 451.79001 0.66571701 -0.062453002 0.743586 1.9057659e-42
40.568501 39.2845 452.76501 0.65471298 -0.063860603 0.75317502 1.9057659e-42
40.424301 37.543098 453.19699 0.652803 -0.063071199 0.75489801 1.9057659e-42
40.1063 35.8139 453.58301 0.649611 -0.0631212 0.75764102 1.9057659e-42
39.127899 34.408901 454.138 0.64520597 -0.064808503 0.76125503 1.9057659e-42
38.225899 32.965801 454.72501 0.64318103 -0.067783497 0.76270801 1.9057659e-42
37.263901 31.5399 455.255 0.64556098 -0.0810747 0.75939298 1.9057659e-42
36.315201 30.105301 455.78601 0.65216398 -0.108515 0.75027102 1.9057659e-42
35.4869 28.599701 456.32199 0.65929002 -0.143866 0.737997 1.9057659e-42
34.9282 26.9419 456.745 0.66472298 -0.19337501 0.72162998 1.9057659e-42
35.8344 25.8281 455.66 0.66337699 -0.246255 0.70660502 1.9057659e-42
36.577599 24.775 454.40302 0.66059202 -0.303671 0.68658698 1.9057659e-42
36.463402 23.0322 454.83899 0.65446103 -0.37029901 0.65921098 1.9057659e-42
35.2449 23.116699 456.16101 0.65424699 -0.35058701 0.67011201 1.9057659e-42
33.552799 23.1387 456.77399 0.65237302 -0.35296601 0.67069 1.9057659e-42
34.817402 24.0404 457.68399 0.66168201 -0.29290599 0.69020498 1.9057659e-42
34.108002 23.169201 456.27802 0.65268302 -0.35472199 0.66946101 1.9057659e-42
33.710201 22.081301 454.89999 0.63645703 -0.43595701 0.636289 1.9057659e-42
33.626202 20.916901 453.53 0.61978698 -0.53126001 0.57760501 1.9057659e-42
33.549702 19.8491 452.08301 0.598225 -0.64184898 0.47974601 1.9057659e-42
33.503502 19.1373 450.42999 0.56543303 -0.74230099 0.359548 1.9057659e-42
33.540401 18.3556 448.80899 0.54702199 -0.76466203 0.340675 1.9057659e-42
33.4076 17.5341 447.21301 0.54522502 -0.75636101 0.361453 1.9057659e-42
33.315399 16.4865 445.75201 0.55455202 -0.74205202 0.37660399 1.9057659e-42
32.770401 15.3104 444.50299 0.568564 -0.72902501 0.38112801 1.9057659e-42
32.0075 14.3156 443.21201 0.55696201 -0.78956503 0.25764301 1.9057659e-42
31.0737 13.5569 441.87299 0.54141802 -0.82703501 0.15125901 1.9057659e-42
30.414499 12.804 440.37701 0.53772098 -0.84078997 0.062667601 1.9057659e-42
29.270599 12.0653 439.20001 0.54294401 -0.83965302 0.013903 1.9057659e-42
27.748199 11.282 438.64401 0.53500903 -0.84443998 -0.026208499 1.9057659e-42
26.5541 10.2119 437.82599 0.46340901 -0.87609702 -0.13306101 1.9057659e-42
25.600599 9.0278702 436.862 0.35171399 -0.89473701 -0.27521399 1.9057659e-42
26.626801 8.7957697 435.40201 0.32378399 -0.88866502 -0.32471299 1.9057659e-42
28.2237 9.0975103 434.62799 0.37146899 -0.88351297 -0.285335 1.9057659e-42
27.936899 10.5687 433.63101 0.303462 -0.887474 -0.346843 1.9057659e-42
27.325001 11.7355 432.405 0.23366299 -0.89791 -0.373041 1.9057659e-42
25.8673 11.9845 431.37799 0.164845 -0.90590602 -0.39007699 1.9057659e-42
24.1779 11.365 431.33301 0.111992 -0.90846997 -0.402666 1.9057659e-42
22.5984 11.663 430.52301 0.061363999 -0.91897601 -0.38950899 1.9057659e-42
21.000799 11.9653 429.75101 0.0223772 -0.92736101 -0.37349799 1.9057659e-42
19.2087 11.8869 429.60199 0.00125785 -0.92462701 -0.380871 1.9057659e-42
17.4116 11.9892 429.595 -0.0259781 -0.91475803 -0.40316501 1.9057659e-42
15.6158 12.0047 429.71701 -0.051656201 -0.895316 -0.44242501 1.9057659e-42
13.9664 12.6851 429.479 -0.16528 -0.86236501 -0.47854999 1.9057659e-42
12.2603 13.2519 429.569 -0.304142 -0.81862003 -0.48719499 1.9057659e-42
10.9912 12.2781 430.39499 -0.37422001 -0.781115 -0.49981901 1.9057659e-42
11.1112 10.6519 431.15701 -0.32584 -0.78252703 -0.53054601 1.9057659e-42
12.584 9.8656902 430.48401 -0.194941 -0.828848 -0.524414 1.9057659e-42
13.7009 9.1508503 431.70099 -0.064414002 -0.84714001 -0.52745098 1.9057659e-42
13.4345 8.8120699 433.44901 -0.0495154 -0.831577 -0.55319703 1.9057659e-42
12.0404 9.6705904 434.19699 -0.20796099 -0.78989398 -0.57690603 1.9057659e-42
10.7124 10.6542 434.91 -0.36356699 -0.72691602 -0.58258998 1.9057659e-42
9.05509 11.3134 435.15302 -0.494297 -0.65111399 -0.57595301 1.9057659e-42
7.5007 12.0561 435.67401 -0.54529601 -0.60407799 -0.581155 1.9057659e-42
6.1287198 12.8148 436.55899 -0.53328001 -0.59492898 -0.60139197 1.9057659e-42
4.7333498 13.4403 437.508 -0.53136998 -0.57509202 -0.62202501 1.9057659e-42
3.11777 13.9379 438.12701 -0.60609102 -0.54357702 -0.58067 1.9057659e-42
1.58608 14.5347 438.85999 -0.75352597 -0.437648 -0.490574 1.9057659e-42
0.265203 15.0428 439.97198 -0.909477 -0.218687 -0.35359201 1.9057659e-42
-1.2474999 15.7266 440.668 -0.95777601 -0.135607 -0.253526 1.9057659e-42
-2.0599599 16.7638 439.44199 -0.95477903 -0.205835 -0.214543 1.9057659e-42
-1.86471 17.277599 437.728 -0.92483002 -0.298336 -0.23597699 1.9057659e-42
-0.84551901 18.674601 437.228 -0.91867298 -0.33581099 -0.20801701 1.9057659e-42
-0.52562398 20.414 437.56299 -0.93311501 -0.33353201 -0.134361 1.9057659e-42
-1.06323 21.700199 438.70099 -0.94761002 -0.31590301 -0.047335599 1.9057659e-42
-1.61515 22.6215 440.146 -0.948493 -0.31651399 -0.0134151 1.9057659e-42
-2.01263 23.803699 441.444 -0.94368201 -0.33084801 0.0021405199 1.9057659e-42
-2.4409599 24.0364 443.17599 -0.95367301 -0.300809 -0.0046253302 1.9057659e-42
-2.3829701 25.518999 444.19501 -0.96019697 -0.27868599 0.018869 1.9057659e-42
-2.3245399 26.586901 445.64301 -0.97936499 -0.182353 0.087124698 1.9057659e-42
-2.13346 27.7416 447.01099 -0.97513998 -0.0913307 0.201893 1.9057659e-42
-2.7395999 27.169201 448.60599 -0.95619297 -0.033081099 0.29086301 1.9057659e-42
-3.7769001 25.7635 449.04001 -0.96743798 -0.059268899 0.24607199 1.9057659e-42
-3.2235 24.208799 449.759 -0.96353799 -0.059849001 0.26079199 1.9057659e-42
-2.9440999 22.526501 450.33499 -0.96333098 -0.066311002 0.259994 1.9057659e-42
-1.68335 23.625799 451 -0.87230903 0.0225656 0.48843399 1.9057659e-42
-0.49387401 24.5602 451.97501 -0.57063401 0.16311499 0.804842 1.9057659e-42
0.67679203 25.864 452.38699 -0.63335901 0.038141102 0.77291697 1.9057659e-42
2.0857899 26.8318 452.95099 -0.651797 -0.053348701 0.75651503 1.9057659e-42
2.96751 28.3276 453.42599 -0.67378402 -0.122431 0.728715 1.9057659e-42
2.37833 29.952801 453.927 -0.704916 -0.15469401 0.69221598 1.9057659e-42
2.3717699 31.560499 454.737 -0.69852298 -0.1575 0.69804001 1.9057659e-42
2.8053 33.255699 455.159 -0.67268503 -0.12861601 0.72866499 1.9057659e-42
3.12149 34.910099 455.79401 -0.64650398 -0.095553398 0.75690299 1.9057659e-42
3.4316299 36.492802 456.59299 -0.61875403 -0.063082702 0.78304797 1.9057659e-42
3.71731 38.1376 457.26599 -0.59884799 -0.0308196 0.80026901 1.9057659e-42
4.6753702 39.635399 457.547 -0.51716799 0.045763001 0.85465997 1.9057659e-42
4.9212799 41.410999 457.70999 -0.48723 0.109849 0.866337 1.9057659e-42
5.19209 43.173 457.45999 -0.480744 0.159197 0.86228901 1.9057659e-42
5.4565401 44.9375 457.22299 -0.48001501 0.198985 0.85439497 1.9057659e-42
5.5543699 46.7047 456.89499 -0.49324501 0.23318 0.83805501 1.9057659e-42
