# .PCD v0.7 - Point Cloud Data file format
# 4 133 0
# 1 54 0
# 55 74 0
# 75 120 0
# 121 133 0
VERSION 0.7
FIELDS x y z normal_x normal_y normal_z curvature
SIZE 4 4 4 4 4 4 4
TYPE F F F F F F F
COUNT 1 1 1 1 1 1 1
WIDTH 133
HEIGHT 1
VIEWPOINT 0 0 0 1 0 0 0
POINTS 133
DATA ascii
71.94999700 28.76980000 469.35800000 -0.51924902 0.46458301 -0.71731699 1.905766e-42
72.12690000 27.60290000 467.99899000 -0.52630299 0.49419400 -0.69193798 1.905766e-42
72.65959900 26.52070000 466.66299000 -0.54232502 0.53135300 -0.65080601 1.905766e-42
72.75810200 25.23210000 465.41000000 -0.55399197 0.56850702 -0.60818797 1.905766e-42
72.72059600 23.95330000 464.14401000 -0.56450099 0.60214299 -0.56459099 1.905766e-42
72.71640000 22.67160000 462.88000000 -0.57475501 0.62809300 -0.52455300 1.905766e-42
72.47080200 21.26129900 461.78900000 -0.57275599 0.63782501 -0.51490802 1.905766e-42
71.89199800 20.01740100 460.62399000 -0.56671298 0.65520900 -0.49953699 1.905766e-42
70.88469700 18.67960000 459.96399000 -0.55538100 0.67704999 -0.48286101 1.905766e-42
69.58480100 17.46330100 459.69699000 -0.54174501 0.69741601 -0.46917200 1.905766e-42
68.33910400 16.23810000 459.26501000 -0.52830303 0.71979600 -0.45032099 1.905766e-42
67.12290200 14.97690000 458.85199000 -0.51449603 0.74184400 -0.43007100 1.905766e-42
66.71810200 13.86260000 457.49799000 -0.50776201 0.75524199 -0.41447201 1.905766e-42
66.25420400 12.90070000 456.04901000 -0.50205398 0.76137203 -0.41018900 1.905766e-42
66.27800000 12.23110000 454.37799000 -0.50131601 0.76475000 -0.40477201 1.905766e-42
66.20400200 11.37320000 452.79700000 -0.49921799 0.76906902 -0.39914101 1.905766e-42
64.77200300 10.30070000 452.60001000 -0.48283601 0.77966601 -0.39873600 1.905766e-42
63.51639900 9.10363960 452.12000000 -0.45517600 0.78330398 -0.42337900 1.905766e-42
61.99850100 8.14807990 451.96899000 -0.43163899 0.79579902 -0.42472601 1.905766e-42
60.39730100 7.33222010 451.86600000 -0.41008100 0.80971199 -0.41976100 1.905766e-42
59.04560100 6.23043010 451.42001000 -0.38490599 0.81834501 -0.42680100 1.905766e-42
57.31190100 5.74667980 451.43600000 -0.36792299 0.83384401 -0.41150600 1.905766e-42
55.74520100 4.92513990 451.10400000 -0.34107801 0.84731698 -0.40708700 1.905766e-42
54.25320100 4.11349010 450.50800000 -0.31078100 0.85943002 -0.40595001 1.905766e-42
53.32030100 3.19998000 449.26901000 -0.27872899 0.86556202 -0.41606799 1.905766e-42
52.60260000 2.31250000 447.87701000 -0.24693200 0.87223297 -0.42217800 1.905766e-42
50.91460000 1.72492000 447.66400000 -0.22295099 0.88783401 -0.40254700 1.905766e-42
49.34750000 1.06392000 447.07501000 -0.19598700 0.90195101 -0.38480300 1.905766e-42
47.97000100 0.15221800 446.35999000 -0.16635400 0.91579902 -0.36556599 1.905766e-42
46.30580100 -0.08352020 445.71600000 -0.13254000 0.93230098 -0.33652401 1.905766e-42
44.55270000 -0.25490201 445.34500000 -0.10378600 0.94756103 -0.30225101 1.905766e-42
43.24309900 -0.88236803 444.28201000 -0.06493230 0.96330100 -0.26045299 1.905766e-42
41.51910000 -1.11031000 443.81699000 -0.03829030 0.97587001 -0.21497101 1.905766e-42
39.75109900 -1.24141000 443.50601000 -0.01836920 0.98528701 -0.16991700 1.905766e-42
38.26229900 -1.56538000 442.54700000 0.01107300 0.99357802 -0.11260500 1.905766e-42
36.74240100 -1.46436000 441.58801000 0.03572470 0.99765700 -0.05835210 1.905766e-42
34.95660000 -1.25908010 441.49399000 0.04788690 0.99839401 -0.03027260 1.905766e-42
33.30149800 -1.17961000 440.79099000 0.06955180 0.99757499 0.00246986 1.905766e-42
31.60860100 -0.95759398 440.22101000 0.09227820 0.99544400 0.02401220 1.905766e-42
30.01420000 -0.78230602 439.40399000 0.11683700 0.99229300 0.04128010 1.905766e-42
28.28140100 -0.53935701 438.98099000 0.14662400 0.98811102 0.04624090 1.905766e-42
26.70690000 -0.30549800 438.14099000 0.16202199 0.98571301 0.04603010 1.905766e-42
25.08550100 -0.06419140 437.39801000 0.17777400 0.98330897 0.03871650 1.905766e-42
23.43289900 0.22356200 436.74500000 0.19865200 0.97970700 0.02668890 1.905766e-42
21.92790000 0.53512400 435.80801000 0.21922900 0.97562599 0.00961754 1.905766e-42
20.32189900 0.99386400 435.13699000 0.24875399 0.96850199 -0.01123790 1.905766e-42
18.71500000 1.30909000 434.38901000 0.28175101 0.95879298 -0.03650090 1.905766e-42
17.03510100 1.95394000 434.34601000 0.32416800 0.94460702 -0.05131270 1.905766e-42
15.39630000 2.68499990 434.20499000 0.35957900 0.93100899 -0.06265270 1.905766e-42
13.75450000 2.96985010 433.52499000 0.38731301 0.91811800 -0.08395270 1.905766e-42
12.09290000 3.65191010 433.40701000 0.41745999 0.90445000 -0.08773480 1.905766e-42
10.54380000 4.49429990 433.04501000 0.44564900 0.89008999 -0.09559210 1.905766e-42
9.12318990 4.83055020 431.99200000 0.46850300 0.87414497 -0.12796500 1.905766e-42
8.47325990 5.72495990 432.72699000 0.48433399 0.86930001 -0.09867830 1.905766e-42
6.88600020 6.53420020 432.98300000 0.50143200 0.86081398 -0.08697530 1.905766e-42
6.13100000 7.28599020 434.43399000 0.50859398 0.86029500 -0.03498260 1.905766e-42
4.73077010 8.08446980 435.23499000 0.51337302 0.85803598 -0.01494060 1.905766e-42
3.24746990 8.67813970 436.06400000 0.51020902 0.86000800 0.00851193 1.905766e-42
2.10659000 9.50778010 437.18201000 0.50379503 0.86301398 0.03738080 1.905766e-42
1.05363000 10.30990000 438.40201000 0.49837899 0.86443901 0.06605420 1.905766e-42
-0.44371101 11.06480000 439.05600000 0.54363602 0.83898300 0.02382770 1.905766e-42
-1.49876000 11.82380000 440.30200000 0.58585799 0.81017202 -0.01979150 1.905766e-42
-2.23682000 12.55330000 441.77200000 0.61741197 0.78404802 -0.06380470 1.905766e-42
-3.50693990 13.63820000 442.44299000 0.64451700 0.75880897 -0.09384570 1.905766e-42
-4.10362010 14.33080000 443.99301000 0.66393697 0.73275298 -0.14920001 1.905766e-42
-5.32926990 15.56820000 444.44800000 0.68875498 0.70149702 -0.18307900 1.905766e-42
-6.17996980 16.71929900 445.54001000 0.70870602 0.66588598 -0.23309100 1.905766e-42
-7.08050010 17.93940000 446.50900000 0.72528899 0.62979102 -0.27806401 1.905766e-42
-8.02921010 19.22610100 447.33701000 0.73760498 0.59816700 -0.31326401 1.905766e-42
-8.80171970 20.69540000 448.03201000 0.74633998 0.57397097 -0.33694699 1.905766e-42
-9.27248950 22.22180000 448.86200000 0.75380802 0.54558700 -0.36620799 1.905766e-42
-10.01220000 23.56690000 449.80200000 0.76154798 0.51356697 -0.39534101 1.905766e-42
-10.30080000 25.08190000 450.73001000 0.76733398 0.47838700 -0.42701900 1.905766e-42
-10.81770000 26.58480100 451.57501000 0.76523900 0.48543400 -0.42280400 1.905766e-42
-10.28470000 27.39749900 453.09000000 0.75045502 0.49348101 -0.43965101 1.905766e-42
-9.99193000 28.10400000 454.72000000 0.73405802 0.49763101 -0.46208400 1.905766e-42
-9.13271050 28.40550000 456.27301000 0.71831602 0.49295101 -0.49093899 1.905766e-42
-8.18715950 28.66169900 457.78299000 0.70415598 0.48438099 -0.51917100 1.905766e-42
-7.54055020 29.36650100 459.30701000 0.69047999 0.48195899 -0.53939998 1.905766e-42
-6.40620990 29.39080000 460.70499000 0.68143600 0.47631699 -0.55566698 1.905766e-42
-5.29739000 29.63760000 462.10101000 0.67318702 0.47190499 -0.56932002 1.905766e-42
-4.34325980 29.89419900 463.60599000 0.66601402 0.46641299 -0.58213800 1.905766e-42
-3.59565000 30.45859900 465.14301000 0.65886801 0.45755601 -0.59710699 1.905766e-42
-2.39053990 30.79890100 466.43600000 0.63867199 0.45078099 -0.62361401 1.905766e-42
-0.90897101 30.45389900 467.39801000 0.61484802 0.44857800 -0.64864397 1.905766e-42
0.38660699 30.42569900 468.64700000 0.59008801 0.44015700 -0.67679900 1.905766e-42
1.62137000 30.67520000 469.93301000 0.56491399 0.43307099 -0.70236802 1.905766e-42
2.72510000 30.86310000 471.34201000 0.53983098 0.43138200 -0.72283697 1.905766e-42
4.25446990 30.95100000 472.28799000 0.51598603 0.42636400 -0.74294800 1.905766e-42
5.75367020 31.30360000 473.21899000 0.49377200 0.42050901 -0.76115799 1.905766e-42
6.98229980 31.90710100 474.38800000 0.47340700 0.41299000 -0.77802598 1.905766e-42
8.24991040 32.46180000 475.54001000 0.45447299 0.40377301 -0.79399103 1.905766e-42
9.37267020 33.32519900 476.64999000 0.43771800 0.39202499 -0.80914700 1.905766e-42
10.39910000 34.34830100 477.71799000 0.42293900 0.37783900 -0.82362598 1.905766e-42
11.94990000 34.89400100 478.45099000 0.40970999 0.36580801 -0.83565700 1.905766e-42
13.59480000 34.34429900 478.93301000 0.39819500 0.36644799 -0.84092599 1.905766e-42
15.23440000 34.29550200 479.67401000 0.36833099 0.36210099 -0.85628003 1.905766e-42
16.88330100 34.39960100 480.38800000 0.33855101 0.35550001 -0.87120801 1.905766e-42
18.36249900 34.99150100 481.22601000 0.31061101 0.34105301 -0.88724500 1.905766e-42
20.00970100 35.19310000 481.92300000 0.28180099 0.33308500 -0.89980102 1.905766e-42
21.44360000 35.96440100 482.69101000 0.25630501 0.31814900 -0.91273701 1.905766e-42
23.16900100 35.91840000 483.20099000 0.22843599 0.31629801 -0.92074603 1.905766e-42
24.78750000 35.13620000 483.29401000 0.21182500 0.32650200 -0.92115498 1.905766e-42
26.42720000 34.39500000 483.25000000 0.19267800 0.33756301 -0.92137200 1.905766e-42
28.20640000 34.44409900 483.51801000 0.16991700 0.34072199 -0.92468202 1.905766e-42
29.79369900 35.13510100 484.01099000 0.15060900 0.34020099 -0.92821401 1.905766e-42
31.57880000 35.09709900 484.23901000 0.12349100 0.35060599 -0.92834502 1.905766e-42
33.36579900 34.94250100 484.39001000 0.09196160 0.36436099 -0.92670602 1.905766e-42
35.04390000 34.29539900 484.31900000 0.05804730 0.38207200 -0.92230803 1.905766e-42
36.83140200 34.33680000 484.52701000 0.03139810 0.40121701 -0.91544503 1.905766e-42
38.42300000 33.54880100 484.23499000 -0.00765684 0.42015499 -0.90741998 1.905766e-42
40.22140100 33.59690100 484.17401000 -0.04298110 0.44162899 -0.89616799 1.905766e-42
42.01110100 33.59830100 483.98199000 -0.08231850 0.46335700 -0.88234001 1.905766e-42
43.71580100 34.17639900 483.98599000 -0.11248500 0.49179000 -0.86341703 1.905766e-42
45.50040100 34.40819900 483.94901000 -0.13980100 0.52365899 -0.84037900 1.905766e-42
47.16450100 35.09339900 483.98499000 -0.12693100 0.57468599 -0.80847001 1.905766e-42
48.87310000 35.16289900 483.42300000 -0.13822600 0.61071599 -0.77969199 1.905766e-42
50.61500200 34.97620000 483.00900000 -0.16144000 0.65138799 -0.74137098 1.905766e-42
52.34650000 34.55799900 482.75000000 -0.18593700 0.65533501 -0.73209602 1.905766e-42
54.04079800 34.97069900 483.19601000 -0.17233901 0.75155801 -0.63675702 1.905766e-42
55.71429800 35.13690200 483.83801000 -0.17449901 0.83564800 -0.52081001 1.905766e-42
57.03620100 34.98370000 482.62601000 -0.27516699 0.75479001 -0.59546202 1.905766e-42
57.72290000 34.47610100 481.04099000 -0.32091901 0.62125701 -0.71487802 1.905766e-42
59.07569900 34.38970200 479.85699000 -0.36645401 0.54836100 -0.75167203 1.905766e-42
60.71989800 34.35279800 479.12601000 -0.40287101 0.50176799 -0.76545697 1.905766e-42
62.19630100 34.16750000 478.11301000 -0.43423301 0.45419499 -0.77791297 1.905766e-42
63.42670100 33.38000100 477.06100000 -0.46927601 0.44035101 -0.76542199 1.905766e-42
64.55500000 32.49350000 475.97400000 -0.48870900 0.42729700 -0.76064497 1.905766e-42
65.86990400 31.93199900 474.88101000 -0.49830401 0.41461000 -0.76144099 1.905766e-42
67.37180300 31.63390000 473.93500000 -0.49911201 0.39757100 -0.76995099 1.905766e-42
68.49690200 31.05270000 472.65500000 -0.49936900 0.40642101 -0.76514900 1.905766e-42
69.90260300 30.70109900 471.58701000 -0.50556302 0.41848299 -0.75450498 1.905766e-42
70.90380100 29.82200100 470.37701000 -0.51132900 0.44175601 -0.73715299 1.905766e-42
