# .PCD v0.7 - Point Cloud Data file format
# 2 184 0
# 1 96 0
# 97 184 0
VERSION 0.7
FIELDS x y z normal_x normal_y normal_z curvature
SIZE 4 4 4 4 4 4 4
TYPE F F F F F F F
COUNT 1 1 1 1 1 1 1
WIDTH 184
HEIGHT 1
VIEWPOINT 0 0 0 1 0 0 0
POINTS 184
DATA ascii
-45.05569800 29.25429900 499.64899000 -0.77569300 -0.62743902 0.06798130 1.905766e-42
-44.98049900 28.55740000 497.99100000 -0.78744203 -0.61353898 0.05919660 1.905766e-42
-44.45309800 27.58429900 496.57199000 -0.79344898 -0.60724598 0.04112070 1.905766e-42
-43.85800200 26.75070000 495.09100000 -0.79300398 -0.60905600 0.01394640 1.905766e-42
-42.95959900 25.52599900 494.12601000 -0.79058498 -0.61233997 -0.00398401 1.905766e-42
-41.98479800 24.37190100 493.14700000 -0.78551501 -0.61857897 -0.01805740 1.905766e-42
-41.17580000 23.42590000 491.84698000 -0.77919400 -0.62578499 -0.03533830 1.905766e-42
-40.23120100 22.31180000 490.79501000 -0.77010000 -0.63603997 -0.04897980 1.905766e-42
-39.27100000 21.38520100 489.58701000 -0.76529801 -0.64137697 -0.05435720 1.905766e-42
-38.40169900 19.80999900 489.53201000 -0.75584799 -0.65267700 -0.05202430 1.905766e-42
-37.34330000 18.68030000 488.61401000 -0.74668700 -0.66272700 -0.05702470 1.905766e-42
-36.29169800 17.72760000 487.50601000 -0.73703003 -0.67277700 -0.06447750 1.905766e-42
-35.16610000 16.48539900 486.85101000 -0.72445202 -0.68581003 -0.06952960 1.905766e-42
-34.25890000 15.77000000 485.47000000 -0.71443498 -0.69501799 -0.08081790 1.905766e-42
-32.97309900 14.74060000 484.74500000 -0.69946498 -0.70908499 -0.08914930 1.905766e-42
-31.77020100 13.66880000 483.94199000 -0.68234301 -0.72416198 -0.09999220 1.905766e-42
-30.48020000 12.42900000 483.74500000 -0.66339803 -0.74049300 -0.10757500 1.905766e-42
-29.11960000 11.41110000 483.15100000 -0.64274001 -0.75661302 -0.12009400 1.905766e-42
-27.81390000 10.50450000 482.30600000 -0.62109798 -0.77181602 -0.13615200 1.905766e-42
-26.45430000 9.62442970 481.52100000 -0.59869099 -0.78622699 -0.15302700 1.905766e-42
-25.04830000 8.50945000 481.37900000 -0.58664399 -0.79559797 -0.15123500 1.905766e-42
-23.63410000 7.62209990 480.70599000 -0.57664299 -0.80277503 -0.15177500 1.905766e-42
-22.16220100 6.60133980 480.52899000 -0.56585801 -0.81059903 -0.15077700 1.905766e-42
-20.69490100 5.56273980 480.62000000 -0.55482000 -0.81859499 -0.14858600 1.905766e-42
-19.19319900 4.57099010 480.65500000 -0.54149598 -0.82795399 -0.14585599 1.905766e-42
-17.71620000 3.79430010 479.98001000 -0.52511698 -0.83796299 -0.14856100 1.905766e-42
-16.19700100 2.82893990 479.98999000 -0.50488400 -0.85064000 -0.14663801 1.905766e-42
-14.63710000 1.93122010 479.96701000 -0.48351800 -0.86303103 -0.14624199 1.905766e-42
-13.06490000 1.05498000 479.98901000 -0.46851799 -0.87316698 -0.13442799 1.905766e-42
-11.48540000 0.19166701 479.98901000 -0.45224601 -0.88313597 -0.12467700 1.905766e-42
-9.87234020 -0.60703301 479.99399000 -0.43496200 -0.89283401 -0.11685800 1.905766e-42
-7.97516010 -1.38663010 479.99600000 -0.41446799 -0.90337300 -0.11015000 1.905766e-42
-6.34321020 -2.14594010 480.01099000 -0.39597201 -0.91212398 -0.10600300 1.905766e-42
-4.66809990 -2.80339000 480.05200000 -0.37737301 -0.92027700 -0.10333900 1.905766e-42
-3.21138000 -3.56152010 480.78900000 -0.36044601 -0.92752498 -0.09887490 1.905766e-42
-1.51821990 -4.17239000 480.79501000 -0.33622199 -0.93685502 -0.09622120 1.905766e-42
0.18536501 -4.75354000 480.78699000 -0.31040701 -0.94586200 -0.09482680 1.905766e-42
1.90681000 -5.24602990 480.97198000 -0.28447899 -0.95415097 -0.09309810 1.905766e-42
3.38430000 -5.81572010 481.82700000 -0.26225999 -0.96115798 -0.08599550 1.905766e-42
5.00683020 -6.31050010 482.42999000 -0.23928601 -0.96763498 -0.08015030 1.905766e-42
6.75379990 -6.73701000 482.50800000 -0.21634699 -0.97312802 -0.07884320 1.905766e-42
8.49094010 -7.12868020 482.77100000 -0.19550200 -0.97782600 -0.07507110 1.905766e-42
10.09310000 -7.53794000 483.48199000 -0.17761301 -0.98194498 -0.06509340 1.905766e-42
11.75520000 -7.84724000 484.10001000 -0.16101700 -0.98544699 -0.05448710 1.905766e-42
13.49950000 -8.13796040 484.43600000 -0.14237399 -0.98878002 -0.04519940 1.905766e-42
14.86570000 -8.36758040 485.58499000 -0.12470700 -0.99187899 -0.02497340 1.905766e-42
16.35950100 -8.58701990 486.56500000 -0.10587900 -0.99436301 -0.00555404 1.905766e-42
18.08890000 -8.71228030 487.04901000 -0.08630070 -0.99623501 0.00818749 1.905766e-42
19.58390000 -8.82575990 488.04501000 -0.06689740 -0.99731803 0.02969010 1.905766e-42
21.21520000 -8.87800030 488.80399000 -0.04683680 -0.99770200 0.04895560 1.905766e-42
22.99399900 -8.67401980 488.98901000 -0.02800940 -0.99775499 0.06082350 1.905766e-42
24.10810100 -8.84710980 490.39200000 -0.00944855 -0.99599302 0.08893090 1.905766e-42
25.89810000 -8.78615000 490.57101000 0.00959854 -0.99476600 0.10172600 1.905766e-42
26.97839900 -8.62611960 492.00101000 0.02750080 -0.99101597 0.13088800 1.905766e-42
28.75960000 -8.50531960 492.23099000 0.03729760 -0.98888201 0.14394601 1.905766e-42
29.85300100 -8.24440000 493.63699000 0.05138150 -0.98344898 0.17374800 1.905766e-42
31.62830000 -8.05815030 493.86899000 0.06224890 -0.97975999 0.19025099 1.905766e-42
33.20010000 -7.73221020 494.68301000 0.07724440 -0.97318101 0.21668600 1.905766e-42
34.73640100 -7.37725020 495.55099000 0.09395110 -0.96500802 0.24481000 1.905766e-42
35.89099900 -6.94601010 496.86301000 0.11437200 -0.95432502 0.27601099 1.905766e-42
37.58670000 -6.54726980 497.31601000 0.13104500 -0.94472098 0.30055001 1.905766e-42
39.04340000 -6.04122020 498.24500000 0.15271100 -0.93206102 0.32854500 1.905766e-42
40.39370000 -5.46896980 499.28799000 0.17643000 -0.91828901 0.35442600 1.905766e-42
41.67200100 -4.81257010 500.37201000 0.19409800 -0.90649801 0.37495100 1.905766e-42
43.15190100 -4.18662980 501.18399000 0.20667000 -0.89675498 0.39130300 1.905766e-42
44.51839800 -3.45448990 502.09799000 0.22093800 -0.88806403 0.40314901 1.905766e-42
45.67419800 -2.64774990 503.21799000 0.23721001 -0.88186198 0.40749201 1.905766e-42
47.33820000 -1.99445000 503.42801000 0.24761100 -0.87357599 0.41899201 1.905766e-42
48.52050000 -1.15762000 504.49701000 0.26492199 -0.86936402 0.41716099 1.905766e-42
49.54940000 -0.22845900 505.64499000 0.26904199 -0.84746802 0.45761901 1.905766e-42
50.99620100 0.65813100 506.24500000 0.27817100 -0.83139402 0.48104599 1.905766e-42
52.11370100 1.65111990 507.24799000 0.28326699 -0.80769998 0.51708901 1.905766e-42
53.31340000 2.68400000 508.10501000 0.28913701 -0.78489399 0.54803401 1.905766e-42
54.51580000 3.72229000 508.95099000 0.29172301 -0.76295102 0.57689202 1.905766e-42
55.65959900 4.82332990 509.79901000 0.29352000 -0.74024898 0.60487801 1.905766e-42
56.92660100 5.93311020 510.43399000 0.29711899 -0.72061002 0.62645203 1.905766e-42
57.71020100 7.13594010 511.51999000 0.29576799 -0.69368798 0.65674800 1.905766e-42
59.02159900 8.23857020 512.07202000 0.30044100 -0.67612499 0.67274803 1.905766e-42
59.88050100 9.49370960 513.03400000 0.30405101 -0.65926999 0.68768901 1.905766e-42
60.97349900 10.74810000 513.72101000 0.31325501 -0.65147400 0.69098002 1.905766e-42
62.17530100 11.93740000 514.33899000 0.32286200 -0.64413702 0.69343102 1.905766e-42
62.97160000 13.30160000 515.20203000 0.33082899 -0.63791102 0.69542903 1.905766e-42
64.24140200 14.48730000 515.67297000 0.34074700 -0.63186401 0.69616002 1.905766e-42
65.44899700 15.71950000 516.18597000 0.35043401 -0.62662399 0.69608802 1.905766e-42
66.60230300 16.98200000 516.74799000 0.35965699 -0.62242597 0.69515002 1.905766e-42
67.77710000 18.27500000 517.18201000 0.36662999 -0.61949402 0.69412500 1.905766e-42
68.77800000 19.62970000 517.81598000 0.37326199 -0.61690801 0.69289303 1.905766e-42
70.19059800 20.72769900 517.61902000 0.38073599 -0.61255199 0.69269001 1.905766e-42
71.19100200 21.84680000 518.61200000 0.38769501 -0.60963303 0.69140500 1.905766e-42
72.23600000 23.19800000 519.17999000 0.39178401 -0.59796101 0.69924802 1.905766e-42
73.67209600 24.28100000 519.10901000 0.39858800 -0.59037697 0.70184201 1.905766e-42
74.91819800 25.57600000 519.21002000 0.40437201 -0.58040100 0.70683599 1.905766e-42
76.14230300 26.85850000 519.52100000 0.41010699 -0.56997699 0.71199602 1.905766e-42
77.15270200 28.09250100 520.35602000 0.41496101 -0.55973202 0.71729201 1.905766e-42
78.28140300 29.44230100 520.73499000 0.42118299 -0.55206501 0.71960300 1.905766e-42
79.54280100 30.71390000 520.91400000 0.42834100 -0.54666197 0.71950299 1.905766e-42
80.47540300 32.15729900 521.44897000 0.43427101 -0.54452002 0.71756899 1.905766e-42
79.12789900 32.70790100 522.50800000 0.42450401 -0.54724199 0.72133398 1.905766e-42
77.50640100 32.58670000 523.28003000 0.41035500 -0.54662502 0.72993797 1.905766e-42
75.98390200 32.50439800 524.23700000 0.39392301 -0.54365200 0.74112600 1.905766e-42
74.34719800 32.58359900 524.98199000 0.37621799 -0.53855902 0.75393200 1.905766e-42
72.65599800 32.53929900 525.59601000 0.35879600 -0.53276199 0.76643997 1.905766e-42
71.04019900 31.97060000 526.15002000 0.34385300 -0.52783602 0.77662998 1.905766e-42
69.55529800 32.45700100 527.04303000 0.32531399 -0.51977402 0.78994000 1.905766e-42
67.88559700 32.35200100 527.70697000 0.30886701 -0.51281202 0.80101502 1.905766e-42
66.20369700 32.19760100 528.33002000 0.29354501 -0.50623798 0.81089801 1.905766e-42
64.52819800 32.25000000 528.98499000 0.27873799 -0.49899900 0.82055199 1.905766e-42
62.79270200 32.02439900 529.40601000 0.26658601 -0.49452099 0.82727301 1.905766e-42
61.08680000 32.12200200 529.97198000 0.25540099 -0.48867100 0.83424902 1.905766e-42
59.36690100 32.22000100 530.49402000 0.24982300 -0.48754299 0.83659399 1.905766e-42
57.64960100 31.93569900 530.95203000 0.24862599 -0.49766499 0.83097202 1.905766e-42
55.89720200 31.86200000 531.35699000 0.24819501 -0.50989902 0.82365203 1.905766e-42
54.17110100 32.01020100 531.84497000 0.24893400 -0.52528900 0.81369698 1.905766e-42
52.42150100 32.00650000 532.26898000 0.24826901 -0.53824401 0.80539203 1.905766e-42
50.79180100 31.33260000 532.62903000 0.24391399 -0.54167598 0.80442101 1.905766e-42
49.24549900 31.82850100 533.40601000 0.24613900 -0.56265301 0.78920102 1.905766e-42
47.51190200 31.70369900 533.87299000 0.24367400 -0.57362598 0.78203303 1.905766e-42
45.78030000 31.29460000 534.14600000 0.23904601 -0.57867301 0.77973998 1.905766e-42
44.08169900 31.50799900 534.70203000 0.23700100 -0.59342599 0.76920497 1.905766e-42
42.46400100 32.00080100 535.31897000 0.23462400 -0.61138302 0.75575298 1.905766e-42
40.75700000 31.82080100 535.85999000 0.22720701 -0.62022698 0.75079697 1.905766e-42
39.12390100 31.15259900 536.21600000 0.21730199 -0.61964202 0.75420398 1.905766e-42
37.40729900 31.19770100 536.75598000 0.20174700 -0.61434102 0.76281202 1.905766e-42
35.71690000 31.49799900 537.29700000 0.18454599 -0.60902601 0.77138197 1.905766e-42
33.96889900 31.37570000 537.70801000 0.16782001 -0.60329199 0.77966303 1.905766e-42
32.29779800 31.83779900 538.19202000 0.14883500 -0.59817600 0.78742200 1.905766e-42
30.57640100 32.06259900 538.66699000 0.12965800 -0.59283102 0.79482102 1.905766e-42
28.88069900 32.07619900 539.27100000 0.11062100 -0.58751100 0.80162001 1.905766e-42
27.17079900 32.38530000 539.74103000 0.09088540 -0.58280599 0.80751300 1.905766e-42
25.52409900 32.96950100 540.17401000 0.07211090 -0.57902300 0.81211603 1.905766e-42
23.89850000 33.47320200 540.76001000 0.06628440 -0.57313800 0.81677401 1.905766e-42
22.31040000 34.14849900 541.27100000 0.06097430 -0.56301600 0.82419401 1.905766e-42
20.59170000 34.56580000 541.60602000 0.06054900 -0.55394202 0.83035100 1.905766e-42
18.97380100 35.24319800 542.01001000 0.06126800 -0.54712999 0.83480299 1.905766e-42
17.19780000 35.41770200 542.24597000 0.06537850 -0.54240900 0.83756697 1.905766e-42
15.44160000 35.74330100 542.46802000 0.06954260 -0.53851700 0.83973998 1.905766e-42
13.66520000 35.88180200 542.72400000 0.07402830 -0.53516102 0.84149998 1.905766e-42
11.89340000 36.01490000 543.01202000 0.07799090 -0.53183597 0.84324801 1.905766e-42
10.14080000 36.29589800 543.31097000 0.08071450 -0.52822298 0.84526098 1.905766e-42
8.40408040 36.55860100 543.70502000 0.08197560 -0.52402401 0.84774899 1.905766e-42
6.64159010 36.75450100 544.01300000 0.07494050 -0.52095801 0.85028702 1.905766e-42
4.84818980 36.69440100 544.15503000 0.06076750 -0.52061200 0.85162801 1.905766e-42
3.07349990 36.46760200 543.95801000 0.04783060 -0.52190298 0.85166299 1.905766e-42
2.05086990 35.08729900 543.41998000 0.03879760 -0.52668202 0.84917700 1.905766e-42
0.51243597 34.28970000 542.93298000 0.02571550 -0.53214401 0.84626299 1.905766e-42
-1.09717000 33.71720100 542.36603000 0.01179900 -0.53858298 0.84249002 1.905766e-42
-2.52722000 32.73889900 541.87903000 -0.00271811 -0.54636800 0.83754098 1.905766e-42
-3.84838010 31.64080000 541.34100000 -0.01804090 -0.55454302 0.83196002 1.905766e-42
-5.27063990 30.71839900 540.73602000 -0.03470190 -0.56284201 0.82583600 1.905766e-42
-6.88952020 30.21460000 540.13098000 -0.05206860 -0.57130003 0.81908798 1.905766e-42
-8.23645970 29.39410000 539.26398000 -0.06754500 -0.57846200 0.81290799 1.905766e-42
-9.83417990 28.77949900 538.70801000 -0.08368560 -0.58608902 0.80591297 1.905766e-42
-11.27580000 27.96220000 538.00500000 -0.10139400 -0.59277499 0.79895997 1.905766e-42
-12.89500000 27.57620000 537.32001000 -0.11929800 -0.60075998 0.79047799 1.905766e-42
-14.34040000 26.70700100 536.69098000 -0.13928001 -0.60731399 0.78215802 1.905766e-42
-15.81970000 26.03039900 535.91998000 -0.16051801 -0.61441600 0.77248102 1.905766e-42
-17.15800100 25.21610100 535.03400000 -0.18351901 -0.62049401 0.76243502 1.905766e-42
-18.55629900 24.70529900 534.02197000 -0.20755400 -0.62796903 0.75005102 1.905766e-42
-19.32939900 23.53230100 532.89697000 -0.23148599 -0.63391799 0.73794502 1.905766e-42
-20.63920000 22.86850000 531.85602000 -0.26742300 -0.64878798 0.71243203 1.905766e-42
-21.91320000 22.34079900 530.69897000 -0.31295201 -0.66137499 0.68164802 1.905766e-42
-23.26090000 21.98979900 529.55798000 -0.35992000 -0.67079598 0.64845198 1.905766e-42
-24.17429900 21.22640000 528.20801000 -0.39889199 -0.68044698 0.61471701 1.905766e-42
-24.87830000 20.46590000 526.73700000 -0.43299401 -0.68851000 0.58178198 1.905766e-42
-26.11179900 20.18180100 525.45697000 -0.47465599 -0.68998200 0.54646701 1.905766e-42
-26.56950000 19.17919900 524.03400000 -0.49718699 -0.69571000 0.51845199 1.905766e-42
-27.79820100 19.12999900 522.71899000 -0.53461599 -0.69132102 0.48606700 1.905766e-42
-28.77080000 18.90589900 521.22101000 -0.56553602 -0.68743902 0.45562699 1.905766e-42
-29.72209900 18.80530000 519.69598000 -0.59372997 -0.68313700 0.42521599 1.905766e-42
-30.38040000 18.24550100 518.11700000 -0.61165500 -0.68411499 0.39732099 1.905766e-42
-31.44920000 18.34930000 516.67297000 -0.63709903 -0.67595398 0.37039399 1.905766e-42
-32.38230100 18.97069900 515.26501000 -0.66343600 -0.66350698 0.34584799 1.905766e-42
-33.38499800 19.13760000 513.77899000 -0.68378299 -0.65582299 0.31990001 1.905766e-42
-34.39370000 19.63920000 512.37500000 -0.70278102 -0.64703500 0.29571000 1.905766e-42
-35.38069900 20.31110000 511.02802000 -0.71928298 -0.63891500 0.27280000 1.905766e-42
-36.35870000 20.27440100 509.51700000 -0.73148698 -0.63511300 0.24811000 1.905766e-42
-37.28699900 20.88360000 508.10101000 -0.74393398 -0.62914002 0.22526699 1.905766e-42
-38.20349900 21.53210100 506.69400000 -0.75477499 -0.62384301 0.20281500 1.905766e-42
-39.21379900 22.41620100 505.49500000 -0.76386201 -0.61906302 0.18241601 1.905766e-42
-40.19889800 23.65980000 504.64401000 -0.76981801 -0.61644399 0.16546200 1.905766e-42
-41.13130200 24.93810100 503.78601000 -0.77350199 -0.61633998 0.14771500 1.905766e-42
-42.13740200 25.89410000 502.64001000 -0.77705997 -0.61658102 0.12651300 1.905766e-42
-43.27259800 26.80279900 501.57901000 -0.77875298 -0.61839801 0.10549200 1.905766e-42
-44.21110200 28.06469900 500.70300000 -0.77713501 -0.62354499 0.08516490 1.905766e-42
