# .PCD v0.7 - Point Cloud Data file format
# 3 45 0
# 1 15 0
# 16 28 0
# 29 45 0
VERSION 0.7
FIELDS x y z normal_x normal_y normal_z curvature
SIZE 4 4 4 4 4 4 4
TYPE F F F F F F F
COUNT 1 1 1 1 1 1 1
WIDTH 45
HEIGHT 1
VIEWPOINT 0 0 0 1 0 0 0
POINTS 45
DATA ascii
17.70430000 4.86385010 447.91501000 0.44882900 -0.36039400 -0.81772202 1.905766e-42
16.12039900 4.82040020 447.06100000 0.47831801 -0.35185799 -0.80461597 1.905766e-42
15.37920000 6.08351990 446.01501000 0.50674301 -0.22225800 -0.83295399 1.905766e-42
14.01120000 6.55074980 444.94199000 0.53060800 -0.09609240 -0.84215301 1.905766e-42
14.37580000 7.94313000 445.22501000 0.48287600 0.15582700 -0.86171299 1.905766e-42
13.60830000 9.55920030 445.42300000 0.39234999 0.49367300 -0.77611101 1.905766e-42
12.76050000 10.92180000 446.23801000 0.32527700 0.68700802 -0.64977998 1.905766e-42
11.68570000 11.98550000 447.21500000 0.26611999 0.80879998 -0.52442598 1.905766e-42
10.42050000 12.94890000 448.05801000 0.29745001 0.82637203 -0.47815499 1.905766e-42
9.00142000 13.85550000 448.69400000 0.30749100 0.85240901 -0.42290401 1.905766e-42
7.49503990 14.62320000 449.31100000 0.31092799 0.87998903 -0.35908699 1.905766e-42
6.08547020 15.49480000 450.01401000 0.33022499 0.88849300 -0.31864101 1.905766e-42
4.45218990 16.16449900 450.36600000 0.32822800 0.90182501 -0.28103200 1.905766e-42
2.93675990 16.86890000 451.03500000 0.26308200 0.94657701 -0.18649399 1.905766e-42
2.15612010 17.15930000 452.63000000 0.07531020 0.99607098 0.04660260 1.905766e-42
0.61919200 17.16099900 453.56699000 0.25285301 0.92046601 0.29800400 1.905766e-42
0.66650099 16.39040000 455.19299000 -0.06246550 0.93550003 0.34776101 1.905766e-42
2.00117990 16.08260000 456.36099000 -0.13364400 0.90203500 0.41045299 1.905766e-42
3.49202990 16.02910000 457.36801000 -0.21074800 0.89594501 0.39098299 1.905766e-42
5.01619010 15.97200000 458.32401000 -0.24158999 0.89529002 0.37428701 1.905766e-42
6.49842980 15.99860000 459.34500000 -0.26682600 0.89121902 0.36678699 1.905766e-42
8.00749970 16.07840000 460.32300000 -0.28540900 0.88236398 0.37413299 1.905766e-42
9.45615010 16.01210000 461.38901000 -0.31729800 0.86190701 0.39552400 1.905766e-42
10.98250000 16.18040100 462.32800000 -0.35791901 0.84246099 0.40268299 1.905766e-42
12.62480000 16.74329900 462.80399000 -0.36175099 0.86093098 0.35767901 1.905766e-42
14.27980000 17.33510000 463.19199000 -0.34141400 0.89647102 0.28244701 1.905766e-42
15.80940000 17.57780100 464.10901000 -0.36714199 0.88381499 0.28996199 1.905766e-42
17.42300000 18.04649900 464.75500000 -0.34874499 0.89221901 0.28691801 1.905766e-42
18.98550000 18.52570000 465.50900000 -0.31893599 0.90233999 0.28993499 1.905766e-42
19.62089900 18.75110100 463.84000000 -0.21636900 0.97433197 0.06214500 1.905766e-42
19.68289900 18.59280000 462.04800000 -0.10036400 0.96885902 -0.22636101 1.905766e-42
19.88690000 18.32250000 460.28000000 -0.10162900 0.93028301 -0.35248500 1.905766e-42
20.56539900 17.67160000 458.74500000 -0.10220300 0.89583302 -0.43247801 1.905766e-42
21.28590000 17.03690000 457.22299000 -0.06922850 0.86533099 -0.49639800 1.905766e-42
21.93549900 16.06850100 455.85199000 -0.02797230 0.83970302 -0.54232502 1.905766e-42
22.55120100 15.22450000 454.38599000 -0.00655625 0.81271303 -0.58262700 1.905766e-42
23.06609900 14.16610000 453.02399000 0.02670070 0.76886702 -0.63885099 1.905766e-42
23.16309900 12.93360000 451.71600000 0.08084240 0.69291300 -0.71647501 1.905766e-42
24.28800000 11.69280000 451.05600000 0.19370200 0.51716298 -0.83367902 1.905766e-42
25.54270000 10.44240000 450.73599000 0.13741100 0.33795699 -0.93107599 1.905766e-42
24.60730000 8.99928000 450.20499000 0.22968400 0.12520000 -0.96517903 1.905766e-42
24.02759900 7.29524990 450.19000000 0.24465500 -0.08826260 -0.96558499 1.905766e-42
22.47460000 6.58288000 449.62299000 0.34468901 -0.18099500 -0.92110300 1.905766e-42
20.87509900 6.24857000 448.86899000 0.41178101 -0.22153400 -0.88394499 1.905766e-42
19.27280000 5.65983010 448.29800000 0.44102499 -0.28371000 -0.85147297 1.905766e-42
