# .PCD v0.7 - Point Cloud Data file format
# 2 128 0
# 1 60 0
# 61 128 0
VERSION 0.7
FIELDS x y z normal_x normal_y normal_z curvature
SIZE 4 4 4 4 4 4 4
TYPE F F F F F F F
COUNT 1 1 1 1 1 1 1
WIDTH 128
HEIGHT 1
VIEWPOINT 0 0 0 1 0 0 0
POINTS 128
DATA ascii
63.30780000 22.53599900 499.52301000 0.24777800 -0.43135601 0.86748999 1.905766e-42
62.42499900 23.84160000 500.39200000 0.23964500 -0.38398799 0.89169699 1.905766e-42
60.99330100 24.63030100 501.14600000 0.23031700 -0.37450999 0.89816302 1.905766e-42
59.39730100 25.21900000 501.73401000 0.22038600 -0.37322399 0.90118498 1.905766e-42
57.67530100 24.78710000 502.03101000 0.20833001 -0.37565300 0.90304101 1.905766e-42
55.96860100 25.24020000 502.38101000 0.19565700 -0.37465900 0.90628302 1.905766e-42
54.38999900 24.38040000 502.47501000 0.18128601 -0.38181499 0.90628499 1.905766e-42
52.63050100 24.12940000 502.75900000 0.16367400 -0.38643900 0.90767598 1.905766e-42
50.85430100 24.25280000 503.02399000 0.14392000 -0.38635501 0.91105300 1.905766e-42
49.08670000 24.27249900 503.36301000 0.12403300 -0.38413501 0.91490799 1.905766e-42
47.31940100 24.00079900 503.57001000 0.10545700 -0.38501599 0.91686499 1.905766e-42
45.59090000 24.43339900 503.82599000 0.08669520 -0.37253100 0.92396098 1.905766e-42
43.79830200 24.32230000 503.94501000 0.06945330 -0.36858699 0.92699498 1.905766e-42
42.07820100 24.76630000 504.23499000 0.05154800 -0.35201800 0.93457299 1.905766e-42
40.28239800 24.77800000 504.35699000 0.03299010 -0.34394100 0.93841201 1.905766e-42
38.56160000 25.26610000 504.55899000 0.01256530 -0.32541999 0.94548601 1.905766e-42
36.79069900 25.55110000 504.70999000 -0.00662283 -0.31180200 0.95012403 1.905766e-42
35.19749800 26.38649900 504.77100000 -0.02430320 -0.28888300 0.95705599 1.905766e-42
34.68999900 26.41029900 504.87000000 -0.02895190 -0.28655699 0.95762599 1.905766e-42
32.91680100 26.71670000 504.91501000 -0.04457800 -0.27735901 0.95973200 1.905766e-42
31.18520000 27.20630100 504.87100000 -0.05808850 -0.26826599 0.96159202 1.905766e-42
29.41070000 27.50149900 504.81100000 -0.07564700 -0.26568300 0.96108800 1.905766e-42
27.61260000 27.57609900 504.77100000 -0.09794460 -0.26593700 0.95900202 1.905766e-42
25.82970000 27.78430000 504.63800000 -0.12004400 -0.26281101 0.95735002 1.905766e-42
24.04509900 27.94730000 504.46799000 -0.14200801 -0.25917500 0.95533299 1.905766e-42
22.27860100 28.20910100 504.24301000 -0.16364200 -0.25254399 0.95364702 1.905766e-42
20.52850000 28.54439900 503.98801000 -0.18492800 -0.24326700 0.95216697 1.905766e-42
18.76870000 28.72090000 503.65399000 -0.20536800 -0.23565300 0.94989002 1.905766e-42
17.00560000 28.75589900 503.29300000 -0.22518700 -0.22990100 0.94680297 1.905766e-42
15.26570000 29.02479900 502.91800000 -0.24581701 -0.21994200 0.94403398 1.905766e-42
13.58690000 29.40650000 502.39301000 -0.26666501 -0.20847400 0.94097197 1.905766e-42
11.83580000 29.39069900 501.97601000 -0.28663799 -0.20325500 0.93623000 1.905766e-42
10.11360000 29.50709900 501.46600000 -0.30698001 -0.19574000 0.93136901 1.905766e-42
8.45921040 29.79000100 500.81601000 -0.32756901 -0.18544801 0.92644900 1.905766e-42
6.74260000 29.76540000 500.27499000 -0.34498301 -0.18038400 0.92111301 1.905766e-42
5.04555990 29.72310100 499.67599000 -0.36220801 -0.17830200 0.91488498 1.905766e-42
3.38136010 29.60600100 499.00000000 -0.38125199 -0.17950501 0.90687603 1.905766e-42
1.74109010 29.46089900 498.27301000 -0.40166399 -0.18201301 0.89751703 1.905766e-42
0.12068100 29.75090000 497.54501000 -0.42308000 -0.17774899 0.88848698 1.905766e-42
-1.46339000 29.51960000 496.72198000 -0.44400999 -0.18023500 0.87770802 1.905766e-42
-3.06996010 29.51260000 495.91101000 -0.46359101 -0.17755300 0.86807698 1.905766e-42
-4.64633990 29.53780000 495.04199000 -0.48018599 -0.17373100 0.85979003 1.905766e-42
-6.21236990 29.56690000 494.15500000 -0.49774101 -0.16833299 0.85083401 1.905766e-42
-7.74754000 29.51250100 493.21701000 -0.51566499 -0.16140400 0.84144998 1.905766e-42
-9.25230980 29.60500000 492.23300000 -0.53466201 -0.15157700 0.83136100 1.905766e-42
-10.76360000 29.61500000 491.25601000 -0.55351001 -0.13908300 0.82114702 1.905766e-42
-12.18880000 29.62800000 490.15601000 -0.57475001 -0.13739100 0.80671299 1.905766e-42
-13.66330000 29.35220000 489.16199000 -0.59299397 -0.14062899 0.79283100 1.905766e-42
-15.06400000 29.50029900 488.04099000 -0.60912299 -0.13747901 0.78106898 1.905766e-42
-16.47780000 29.39310100 486.93201000 -0.62297302 -0.13814200 0.76994902 1.905766e-42
-17.73970000 29.50880100 485.65399000 -0.63572103 -0.13664600 0.75972801 1.905766e-42
-19.07259900 28.84050000 484.64499000 -0.64592701 -0.13982500 0.75048500 1.905766e-42
-20.29530000 28.22890100 483.47400000 -0.65553802 -0.14023900 0.74202597 1.905766e-42
-20.91410100 26.77570000 482.61099000 -0.66289198 -0.16731299 0.72978097 1.905766e-42
-21.33250000 25.20590000 481.83600000 -0.66538602 -0.19318099 0.72106999 1.905766e-42
-21.58370000 23.54220000 481.19699000 -0.66224402 -0.21820800 0.71681100 1.905766e-42
-22.03470000 22.04789900 480.29999000 -0.66015399 -0.24703600 0.70934498 1.905766e-42
-22.33370000 20.51110100 479.41199000 -0.65680802 -0.28072301 0.69985503 1.905766e-42
-22.38850000 18.85570000 478.70700000 -0.65009201 -0.31655899 0.69077498 1.905766e-42
-23.11000100 17.75330000 477.48099000 -0.65059203 -0.33592001 0.68109298 1.905766e-42
-24.21270000 17.24920100 476.14999000 -0.65253401 -0.32741699 0.68337202 1.905766e-42
-23.23030100 15.74770000 476.00800000 -0.63412398 -0.35118899 0.68887800 1.905766e-42
-22.03820000 14.65890000 476.80399000 -0.61858702 -0.37860301 0.68848401 1.905766e-42
-20.94389900 13.22980000 476.79501000 -0.59794199 -0.40991700 0.68879098 1.905766e-42
-19.71559900 11.91410000 476.78699000 -0.57633197 -0.44378799 0.68621701 1.905766e-42
-18.46159900 10.87540000 477.55399000 -0.55821401 -0.47333100 0.68143600 1.905766e-42
-17.11070100 9.74450970 477.92300000 -0.53652102 -0.50403798 0.67682397 1.905766e-42
-15.79590000 8.51599030 477.97000000 -0.51305300 -0.53297001 0.67284399 1.905766e-42
-14.50990000 7.25742010 477.92499000 -0.48940101 -0.55998200 0.66851097 1.905766e-42
-13.19180000 6.06065990 477.65900000 -0.46618199 -0.58480400 0.66383702 1.905766e-42
-11.69260000 5.09281020 477.89499000 -0.43869600 -0.60601699 0.66354299 1.905766e-42
-10.09830000 4.37053010 478.31500000 -0.41104001 -0.62527001 0.66338801 1.905766e-42
-8.85709000 3.17325000 477.79999000 -0.38249600 -0.64910400 0.65754199 1.905766e-42
-7.36505990 2.17844010 477.64401000 -0.34998900 -0.67856199 0.64580297 1.905766e-42
-5.77726980 1.33150990 477.60400000 -0.31652200 -0.70640600 0.63309199 1.905766e-42
-4.13788990 0.58825898 477.60001000 -0.28321901 -0.73227102 0.61932701 1.905766e-42
-2.44949010 -0.03567160 477.59500000 -0.25084299 -0.75559902 0.60510200 1.905766e-42
-1.26033000 -1.12181000 476.79199000 -0.22447100 -0.78125203 0.58245897 1.905766e-42
0.28942001 -1.88469990 476.28500000 -0.20495200 -0.79946399 0.56467003 1.905766e-42
1.96519990 -2.47039010 475.98700000 -0.19149999 -0.81021899 0.55396098 1.905766e-42
3.41312000 -3.20899010 475.21399000 -0.18297000 -0.80384398 0.56600100 1.905766e-42
5.16679000 -3.61412000 475.19199000 -0.17551300 -0.80577397 0.56561702 1.905766e-42
6.65909000 -4.32356020 474.47800000 -0.16610400 -0.80835998 0.56476802 1.905766e-42
8.35159970 -4.93094020 474.39700000 -0.15752900 -0.81783998 0.55346501 1.905766e-42
9.91215990 -5.54454990 473.74301000 -0.12818600 -0.83439702 0.53605098 1.905766e-42
11.67880000 -5.87564990 473.64499000 -0.09758530 -0.84989202 0.51784301 1.905766e-42
13.32200000 -6.25856020 473.01801000 -0.06658290 -0.86748302 0.49298999 1.905766e-42
15.09710000 -6.51361990 472.86401000 -0.04222290 -0.87868100 0.47553799 1.905766e-42
16.88890100 -6.67371990 472.80301000 -0.02174370 -0.88508099 0.46493000 1.905766e-42
18.68650100 -6.76700020 472.79599000 -0.00381894 -0.88705403 0.46165100 1.905766e-42
20.48570100 -6.71393010 472.79001000 0.01096370 -0.88504303 0.46538100 1.905766e-42
22.28540000 -6.74826000 472.79300000 0.01838680 -0.88264602 0.46967900 1.905766e-42
24.08429900 -6.68748000 472.79599000 0.02625110 -0.88042903 0.47345001 1.905766e-42
25.88060000 -6.57571980 472.76401000 0.03438420 -0.87878102 0.47598499 1.905766e-42
27.67470000 -6.43209980 472.78201000 0.04279880 -0.87769002 0.47731501 1.905766e-42
29.35190000 -6.13630010 473.36499000 0.05053730 -0.87717098 0.47751099 1.905766e-42
31.13019900 -5.94388010 473.56601000 0.05862880 -0.87731200 0.47632501 1.905766e-42
32.90800100 -5.66308020 473.59000000 0.06560150 -0.87742603 0.47520599 1.905766e-42
34.55329900 -5.30636980 474.22699000 0.07236190 -0.87662899 0.47569400 1.905766e-42
36.30390200 -4.90272000 474.33801000 0.08031260 -0.87551397 0.47647101 1.905766e-42
37.89390200 -4.51928000 475.09000000 0.08832480 -0.87411702 0.47761700 1.905766e-42
39.48059800 -3.98775010 475.75299000 0.09657570 -0.87315601 0.47777799 1.905766e-42
41.23280000 -3.64204000 475.97699000 0.10561900 -0.87261897 0.47684500 1.905766e-42
42.82519900 -3.13201000 476.64401000 0.11124200 -0.87410700 0.47282401 1.905766e-42
44.33120000 -2.50406000 477.40399000 0.11395400 -0.87702101 0.46674201 1.905766e-42
46.06660100 -2.03922010 477.51501000 0.11868400 -0.87541503 0.46857500 1.905766e-42
47.68410100 -1.45683000 478.04800000 0.12325700 -0.86873299 0.47969899 1.905766e-42
49.08169900 -0.88304102 479.02701000 0.12826601 -0.85727900 0.49861899 1.905766e-42
50.60409900 -0.25404000 479.75299000 0.13525900 -0.84666502 0.51464897 1.905766e-42
51.84970100 0.55405003 480.76999000 0.14271900 -0.83221197 0.53577501 1.905766e-42
53.52859900 1.20304000 480.77802000 0.14885600 -0.82590902 0.54379803 1.905766e-42
54.69030000 1.88577000 481.97198000 0.15052800 -0.81325001 0.56210798 1.905766e-42
55.80090000 2.79136990 483.06100000 0.15088101 -0.81095803 0.56531602 1.905766e-42
57.03450000 3.72330000 483.98300000 0.15021600 -0.80994201 0.56694800 1.905766e-42
58.30320000 4.63796000 484.87399000 0.15021101 -0.80933899 0.56780899 1.905766e-42
59.41320000 5.59091000 485.92200000 0.15209100 -0.80831897 0.56875998 1.905766e-42
60.44520200 6.56438020 487.03000000 0.15794501 -0.79006797 0.59232199 1.905766e-42
61.38880200 7.60434010 488.15601000 0.16790700 -0.76739001 0.61880499 1.905766e-42
62.35670100 8.70989040 489.19601000 0.18130100 -0.74199098 0.64543003 1.905766e-42
63.40300000 9.86112020 490.10199000 0.19746000 -0.71409202 0.67162597 1.905766e-42
64.04149600 11.13410000 491.20200000 0.21470501 -0.67848700 0.70253700 1.905766e-42
64.07959700 12.43680000 492.44400000 0.22707599 -0.64527202 0.72942501 1.905766e-42
64.24630000 13.83750000 493.56201000 0.23580401 -0.61307800 0.75401002 1.905766e-42
64.38780200 15.27470000 494.63699000 0.23980400 -0.58506697 0.77472001 1.905766e-42
64.53510300 16.78179900 495.60999000 0.24373600 -0.55928898 0.79233098 1.905766e-42
63.99720000 18.04789900 496.77100000 0.24388801 -0.53487498 0.80896699 1.905766e-42
64.14289900 19.57760000 497.70801000 0.24994899 -0.50496399 0.82615799 1.905766e-42
63.51789900 20.96540100 498.66901000 0.24930499 -0.47424400 0.84435701 1.905766e-42
