# .PCD v0.7 - Point Cloud Data file format
# 3 80 0
# 1 30 0
# 31 57 0
# 58 80 0
VERSION 0.7
FIELDS x y z normal_x normal_y normal_z curvature
SIZE 4 4 4 4 4 4 4
TYPE F F F F F F F
COUNT 1 1 1 1 1 1 1
WIDTH 80
HEIGHT 1
VIEWPOINT 0 0 0 1 0 0 0
POINTS 80
DATA ascii
9.82240010 12.08300000 420.57101000 0.28840199 0.76625299 -0.57417798 1.905766e-42
8.07752990 12.09710000 419.99600000 0.24359199 0.71241200 -0.65812802 1.905766e-42
8.56070040 13.25050000 421.29099000 0.30128601 0.77587700 -0.55429399 1.905766e-42
8.76605030 14.24160000 422.77899000 0.30173001 0.79228699 -0.53032100 1.905766e-42
8.69493960 15.22360000 424.28601000 0.29313701 0.80761701 -0.51168901 1.905766e-42
7.90517000 16.25420000 425.53299000 0.27501699 0.82810599 -0.48847300 1.905766e-42
7.89441010 17.11850000 427.11200000 0.26418200 0.82411599 -0.50103998 1.905766e-42
7.83837990 18.01630000 428.67099000 0.25027999 0.81924701 -0.51594001 1.905766e-42
7.85098980 19.02739900 430.16000000 0.23563600 0.81381899 -0.53119999 1.905766e-42
7.67165990 20.10730000 431.58899000 0.21617100 0.81839103 -0.53245401 1.905766e-42
7.63060000 21.19240000 433.02399000 0.19689000 0.82322299 -0.53248298 1.905766e-42
7.29623990 22.00029900 434.59799000 0.17565300 0.82913703 -0.53073299 1.905766e-42
7.21503020 23.01650000 436.08099000 0.14908300 0.84010702 -0.52153099 1.905766e-42
7.05441000 23.95949900 437.60599000 0.11569700 0.86654699 -0.48550099 1.905766e-42
6.33042000 24.77490000 439.03799000 0.08818090 0.89349103 -0.44033799 1.905766e-42
6.56967020 25.61050000 440.61401000 0.06385810 0.91377997 -0.40116000 1.905766e-42
6.33988000 26.24370000 442.28299000 0.07034240 0.89763999 -0.43507901 1.905766e-42
5.57648990 27.02879900 443.71201000 0.08580840 0.86291999 -0.49800199 1.905766e-42
5.55161000 28.11780000 445.14499000 0.08385920 0.81779402 -0.56936902 1.905766e-42
5.01407000 29.06530000 446.57800000 0.06846750 0.78552097 -0.61503601 1.905766e-42
4.89022020 30.16630000 447.99701000 0.02755430 0.80259699 -0.59588498 1.905766e-42
4.78647990 31.26829900 449.41599000 -0.00301304 0.82243901 -0.56884497 1.905766e-42
4.15928980 32.19699900 450.82501000 -0.03303880 0.84544802 -0.53303498 1.905766e-42
3.94912000 33.15539900 452.33401000 -0.05611690 0.86890900 -0.49178100 1.905766e-42
4.15857980 34.01050200 453.90399000 -0.07504200 0.89065301 -0.44844899 1.905766e-42
4.01335000 34.67509800 455.57001000 -0.10659300 0.91264600 -0.39460701 1.905766e-42
4.32115980 35.34989900 457.20999000 -0.12463600 0.92044699 -0.37046301 1.905766e-42
4.67950010 36.17960000 458.76700000 -0.12435500 0.91450799 -0.38498101 1.905766e-42
4.71381000 37.04320100 460.34601000 -0.12144500 0.91222799 -0.39126799 1.905766e-42
4.72982980 37.59880100 462.05801000 -0.11744500 0.91189599 -0.39325899 1.905766e-42
5.79850010 38.14989900 463.39700000 -0.12855200 0.90749103 -0.39991900 1.905766e-42
7.57455020 38.40039800 463.54901000 -0.12549500 0.89787602 -0.42198300 1.905766e-42
8.95919990 38.35139800 462.39899000 -0.10051400 0.89671999 -0.43103400 1.905766e-42
10.30870000 37.81460200 461.33600000 -0.08610640 0.89633298 -0.43494001 1.905766e-42
12.06200000 37.78799800 460.92999000 -0.08838640 0.88759500 -0.45206600 1.905766e-42
13.80870000 37.53789900 460.57401000 -0.08748680 0.87723899 -0.47201499 1.905766e-42
15.31920000 37.45080200 459.59900000 -0.02869790 0.87712502 -0.47940400 1.905766e-42
16.68470000 37.24399900 458.44501000 0.03239900 0.87792701 -0.47769800 1.905766e-42
18.13410000 36.39889900 457.79300000 0.09697010 0.87526000 -0.47383299 1.905766e-42
19.41160000 35.61109900 456.79901000 0.15897501 0.87059700 -0.46560401 1.905766e-42
20.67370000 34.54119900 456.09000000 0.22986300 0.85939699 -0.45672700 1.905766e-42
21.46430000 33.88480000 454.61200000 0.26061100 0.86674500 -0.42524600 1.905766e-42
22.87200000 33.17929800 453.73999000 0.23632200 0.88012803 -0.41173601 1.905766e-42
24.31290100 32.31810000 453.09100000 0.16872400 0.90235001 -0.39660701 1.905766e-42
25.53000100 31.69560100 451.92001000 0.11120500 0.92762297 -0.35657901 1.905766e-42
26.72030100 30.97930000 450.77499000 0.08394020 0.90363801 -0.41999000 1.905766e-42
27.90679900 30.30170100 449.60300000 0.07076220 0.86459500 -0.49746200 1.905766e-42
29.42420000 29.69070100 448.85199000 0.06062370 0.83417201 -0.54816198 1.905766e-42
30.92939900 29.14279900 448.03101000 0.06726920 0.80567300 -0.58852899 1.905766e-42
32.08280200 28.34070000 446.90601000 0.06800080 0.77700400 -0.62581199 1.905766e-42
33.71070100 27.68040100 446.51300000 0.07739660 0.76874501 -0.63485599 1.905766e-42
35.19070100 26.87190100 445.88400000 0.07655140 0.75704598 -0.64886099 1.905766e-42
36.60120000 26.11310000 445.06299000 0.05734740 0.74916500 -0.65989703 1.905766e-42
37.92369800 25.39819900 444.07300000 0.00859887 0.75345403 -0.65744501 1.905766e-42
39.10960000 24.55610100 443.01199000 -0.03036390 0.76453602 -0.64386600 1.905766e-42
40.79890100 24.15040000 442.54199000 -0.05373100 0.77973902 -0.62379402 1.905766e-42
42.28319900 23.62780000 441.66800000 -0.08850260 0.79145902 -0.60478097 1.905766e-42
43.02679800 22.78470000 440.26199000 -0.13925500 0.79771698 -0.58673298 1.905766e-42
41.57090000 21.98259900 439.57101000 -0.12641899 0.78611499 -0.60501301 1.905766e-42
39.90499900 21.41640100 439.19101000 -0.10075100 0.77876300 -0.61917502 1.905766e-42
38.17720000 20.98270000 438.93301000 -0.06717430 0.77840501 -0.62415898 1.905766e-42
36.48930000 20.50790000 438.52600000 -0.04080000 0.78320998 -0.62041700 1.905766e-42
35.12780000 19.72260100 437.64899000 -0.02315100 0.79132801 -0.61095297 1.905766e-42
33.42720000 19.37710000 437.17099000 -0.00319654 0.79387099 -0.60807800 1.905766e-42
31.65860000 19.22090000 436.87500000 0.01820070 0.79143298 -0.61098403 1.905766e-42
30.45200000 18.44540000 435.78699000 0.02610130 0.79741699 -0.60286403 1.905766e-42
28.78949900 18.08460000 435.19901000 0.04869490 0.79499799 -0.60465503 1.905766e-42
27.25169900 17.62310000 434.38501000 0.07492490 0.79798901 -0.59799701 1.905766e-42
25.63929900 17.27890000 433.66299000 0.10280000 0.79902202 -0.59244901 1.905766e-42
24.41550100 16.62910100 432.51401000 0.11829000 0.80590498 -0.58010799 1.905766e-42
22.67350000 16.53879900 432.07001000 0.14928301 0.79904097 -0.58245099 1.905766e-42
21.78940000 15.75470000 430.71201000 0.15701100 0.80244100 -0.57570499 1.905766e-42
20.57819900 15.16020000 429.51999000 0.17169701 0.79877698 -0.57660598 1.905766e-42
19.05290000 14.86560000 428.61099000 0.19555300 0.79501200 -0.57420701 1.905766e-42
17.81010100 14.38380000 427.40201000 0.21607900 0.79761499 -0.56313401 1.905766e-42
16.61630100 13.82070000 426.17801000 0.23908600 0.79937500 -0.55121499 1.905766e-42
15.20190000 13.45470000 425.12601000 0.25816900 0.79807001 -0.54445601 1.905766e-42
13.75940000 13.23680000 424.07199000 0.28088099 0.79465598 -0.53816998 1.905766e-42
12.45930000 12.90500000 422.87201000 0.30068499 0.78913599 -0.53558600 1.905766e-42
11.14790000 12.58210000 421.68201000 0.29937199 0.78238201 -0.54612702 1.905766e-42
