# .PCD v0.7 - Point Cloud Data file format
# 3 99 0
# 1 29 0
# 30 67 0
# 68 99 0
VERSION 0.7
FIELDS x y z normal_x normal_y normal_z curvature
SIZE 4 4 4 4 4 4 4
TYPE F F F F F F F
COUNT 1 1 1 1 1 1 1
WIDTH 99
HEIGHT 1
VIEWPOINT 0 0 0 1 0 0 0
POINTS 99
DATA ascii
25.97950000 22.35190000 498.47299000 0.04678790 0.74279702 -0.66788000 1.905766e-42
26.20019900 21.09219900 497.20700000 0.06791190 0.70759201 -0.70335001 1.905766e-42
26.24490000 19.69319900 496.07501000 0.08046990 0.67901498 -0.72970098 1.905766e-42
26.16580000 18.37060000 494.85699000 0.08131960 0.65513498 -0.75112301 1.905766e-42
25.98840000 17.09380000 493.60001000 0.06860960 0.63490498 -0.76953697 1.905766e-42
25.85640000 15.76930000 492.38901000 0.08170540 0.65812403 -0.74846298 1.905766e-42
25.61570000 14.47610000 491.16000000 0.09106620 0.68090898 -0.72668397 1.905766e-42
25.59079900 13.10320000 489.99600000 0.09751000 0.70223498 -0.70523602 1.905766e-42
25.18160100 11.98250000 488.64801000 0.10075400 0.72189897 -0.68462402 1.905766e-42
25.23440000 10.67410000 487.41299000 0.10303300 0.73991501 -0.66476297 1.905766e-42
24.73000000 9.63708020 486.03101000 0.10333200 0.75775599 -0.64430499 1.905766e-42
24.66090000 8.54837040 484.59900000 0.10404900 0.77596498 -0.62213600 1.905766e-42
24.71570000 7.34455010 483.26199000 0.10494500 0.79195201 -0.60149598 1.905766e-42
24.05660100 6.47114990 481.83301000 0.10275000 0.80533499 -0.58384699 1.905766e-42
24.21110000 5.40575980 480.39001000 0.10771500 0.81693602 -0.56658000 1.905766e-42
24.23950000 4.42838000 478.87900000 0.11214700 0.82759100 -0.55001497 1.905766e-42
24.26950100 3.40516000 477.39899000 0.11421600 0.83419400 -0.53951401 1.905766e-42
23.97430000 2.51862000 475.85999000 0.11309600 0.83980000 -0.53098500 1.905766e-42
24.23510000 1.45391000 474.43201000 0.11521300 0.84517902 -0.52191699 1.905766e-42
23.98830000 0.63031799 472.85101000 0.11332000 0.85140002 -0.51212901 1.905766e-42
23.64390000 -0.23554499 471.31100000 0.11113000 0.85863900 -0.50038803 1.905766e-42
22.84030000 -0.92293698 469.85400000 0.10740200 0.86523801 -0.48972201 1.905766e-42
22.42910000 -1.73930000 468.30399000 0.10591100 0.87175202 -0.47836399 1.905766e-42
22.39710000 -2.63886000 466.74500000 0.10596600 0.87781298 -0.46713600 1.905766e-42
21.73730100 -3.34636000 465.22699000 0.10200100 0.88112998 -0.46174300 1.905766e-42
21.44140100 -4.10153010 463.62000000 0.09994140 0.88402200 -0.45663601 1.905766e-42
21.59670100 -5.02053020 462.07999000 0.09974560 0.88620198 -0.45243400 1.905766e-42
20.97530000 -5.67923020 460.52499000 0.09786710 0.88490999 -0.45536500 1.905766e-42
20.79649900 -6.40367980 459.09900000 0.09556020 0.88050503 -0.46430501 1.905766e-42
19.67880100 -6.96992020 457.80701000 0.09541990 0.87423497 -0.47603399 1.905766e-42
17.88950000 -6.87865020 457.63300000 0.08977300 0.87678403 -0.47243100 1.905766e-42
16.20719900 -7.07628010 457.02399000 0.08382640 0.87654698 -0.47396001 1.905766e-42
14.42540000 -6.97593020 456.78900000 0.07508420 0.87680602 -0.47494701 1.905766e-42
14.27450000 -6.11819980 458.36499000 0.07574070 0.87879002 -0.47115999 1.905766e-42
13.61460000 -5.38316010 459.87000000 0.07421300 0.88065302 -0.46791199 1.905766e-42
12.90870000 -4.46805000 461.24899000 0.08122260 0.88081300 -0.46644601 1.905766e-42
11.22720000 -4.14457990 461.80399000 0.08475680 0.87827599 -0.47058299 1.905766e-42
9.59772970 -3.58576010 462.32700000 0.08789030 0.87588400 -0.47444999 1.905766e-42
7.94417000 -3.10844990 462.85400000 0.09027930 0.87339002 -0.47858000 1.905766e-42
6.17650990 -2.88780000 463.11200000 0.09244530 0.87012100 -0.48409000 1.905766e-42
4.51189990 -2.49569990 463.67300000 0.09669590 0.86733598 -0.48824000 1.905766e-42
3.19636010 -1.64159000 464.55701000 0.10244600 0.86563802 -0.49007800 1.905766e-42
1.40456000 -1.65002000 464.38501000 0.10408100 0.86229801 -0.49559000 1.905766e-42
-0.30177999 -1.16120000 464.68399000 0.10843500 0.85950297 -0.49949500 1.905766e-42
-1.84045000 -0.53180403 465.37399000 0.11457300 0.85676700 -0.50281501 1.905766e-42
-3.59548000 -0.18127599 465.56699000 0.11890700 0.85330701 -0.50766897 1.905766e-42
-5.38567020 0.00394028 465.59799000 0.12227200 0.84979999 -0.51272702 1.905766e-42
-6.90433980 0.71147001 466.25601000 0.12778500 0.84639698 -0.51699400 1.905766e-42
-8.31414990 1.45437000 467.09299000 0.13691799 0.84161597 -0.52243203 1.905766e-42
-9.83553030 2.12947990 467.77802000 0.14620000 0.83568698 -0.52938998 1.905766e-42
-11.35510000 2.81750010 468.45401000 0.15571401 0.82884902 -0.53736502 1.905766e-42
-13.05270000 3.33943010 468.74701000 0.16327301 0.82130599 -0.54662400 1.905766e-42
-14.77400000 3.81480000 468.97299000 0.16642600 0.81439900 -0.55592901 1.905766e-42
-16.34470000 4.54684020 469.45999000 0.16940400 0.80710399 -0.56558400 1.905766e-42
-17.75550100 5.37114000 470.21500000 0.17365301 0.79879802 -0.57599097 1.905766e-42
-19.08830100 6.16949990 471.12399000 0.17806301 0.78910601 -0.58788198 1.905766e-42
-19.92569900 7.09702010 472.42001000 0.19159900 0.77465701 -0.60265702 1.905766e-42
-20.41620100 8.38523010 473.57700000 0.20817401 0.75643098 -0.62006098 1.905766e-42
-21.07770000 9.60620020 474.72299000 0.22458699 0.73990101 -0.63411999 1.905766e-42
-21.31410000 10.88300000 475.96899000 0.23903000 0.72671801 -0.64400703 1.905766e-42
-21.95599900 12.12470000 477.10300000 0.25340900 0.71264303 -0.65415901 1.905766e-42
-22.36459900 13.39840000 478.30801000 0.26715600 0.69919801 -0.66313601 1.905766e-42
-23.52420000 14.54700000 479.06699000 0.27662399 0.68534100 -0.67363697 1.905766e-42
-24.29700100 15.76840000 480.13901000 0.27595401 0.67686200 -0.68242699 1.905766e-42
-24.66060100 17.14780000 481.23700000 0.27101099 0.67500502 -0.68623698 1.905766e-42
-25.17939900 18.50910000 482.29401000 0.26180500 0.68234801 -0.68253899 1.905766e-42
-25.39180000 19.81270000 483.51700000 0.24531101 0.69828898 -0.67246997 1.905766e-42
-26.53560100 20.93219900 484.34100000 0.23610400 0.72754800 -0.64415002 1.905766e-42
-25.83060100 21.79260100 485.75601000 0.21877401 0.75954300 -0.61256200 1.905766e-42
-24.74430100 22.33639900 487.08401000 0.20719500 0.78146398 -0.58854502 1.905766e-42
-22.98530000 22.37290000 487.46399000 0.20831101 0.77775502 -0.59304601 1.905766e-42
-21.43810100 22.60899900 488.35300000 0.20236400 0.78485203 -0.58570898 1.905766e-42
-20.00400000 22.90460000 489.39999000 0.18778400 0.79161501 -0.58144897 1.905766e-42
-18.34380000 23.05010000 490.07999000 0.17724200 0.79217398 -0.58398998 1.905766e-42
-16.85930100 23.20840100 491.08600000 0.16213000 0.80249703 -0.57420498 1.905766e-42
-15.06310000 23.27290000 491.18500000 0.17203200 0.78825200 -0.59081602 1.905766e-42
-13.36110000 23.34860000 491.76501000 0.17511100 0.78623998 -0.59258997 1.905766e-42
-11.81280000 23.52689900 492.66599000 0.16688199 0.79175800 -0.58759600 1.905766e-42
-10.15420000 23.66650000 493.35101000 0.15968300 0.79304397 -0.58786303 1.905766e-42
-8.36340050 23.68260000 493.53201000 0.15662000 0.78477401 -0.59966701 1.905766e-42
-6.66485020 23.78720100 494.11801000 0.15270101 0.78818297 -0.59619701 1.905766e-42
-5.18788000 23.96719900 495.13101000 0.15011600 0.80436498 -0.57485902 1.905766e-42
-3.52510000 23.97710000 495.82101000 0.14842001 0.80896801 -0.56880802 1.905766e-42
-1.73629000 23.98030100 495.62000000 0.14801200 0.79125798 -0.59329897 1.905766e-42
-0.24541600 24.08200100 496.62399000 0.13350999 0.80141801 -0.58301300 1.905766e-42
1.51874010 23.97240100 496.28299000 0.13104101 0.78340900 -0.60753399 1.905766e-42
3.24597000 23.98010100 496.79001000 0.12779699 0.78654498 -0.60416502 1.905766e-42
4.99570990 23.98030100 497.21201000 0.12817501 0.79014802 -0.59936398 1.905766e-42
6.67355010 23.99200100 497.86401000 0.12629201 0.80029303 -0.58615798 1.905766e-42
8.46053980 23.98609900 498.07999000 0.12020000 0.80000001 -0.58783698 1.905766e-42
10.23820000 23.93400000 498.35800000 0.10662600 0.79929602 -0.59140301 1.905766e-42
12.03010000 23.76470000 498.37900000 0.10109300 0.79173899 -0.60243702 1.905766e-42
13.82710000 23.66130100 498.38501000 0.09924090 0.78757900 -0.60816902 1.905766e-42
15.50140000 23.70870000 499.04501000 0.09842460 0.79984701 -0.59208000 1.905766e-42
17.29520000 23.64710000 499.18100000 0.09795610 0.80010599 -0.59180701 1.905766e-42
19.08770000 23.48340000 499.17599000 0.09579710 0.79637700 -0.59716600 1.905766e-42
20.88180000 23.33790000 499.18301000 0.09175790 0.79239500 -0.60306799 1.905766e-42
22.67690100 23.20579900 499.19000000 0.08159640 0.78681803 -0.61176801 1.905766e-42
24.46960100 23.04570000 499.16501000 0.05920870 0.77650702 -0.62731999 1.905766e-42
