# .PCD v0.7 - Point Cloud Data file format
# 3 126 0
# 1 51 1
# 52 92 1
# 93 126 0
VERSION 0.7
FIELDS x y z normal_x normal_y normal_z curvature
SIZE 4 4 4 4 4 4 4
TYPE F F F F F F F
COUNT 1 1 1 1 1 1 1
WIDTH 126
HEIGHT 1
VIEWPOINT 0 0 0 1 0 0 0
POINTS 126
DATA ascii
-5.8375802 80.921799 467.47699 0.78949702 0.331761 -0.51636201 1.9057659e-42
-4.8499398 81.486397 468.87201 0.79179102 0.306683 -0.52821702 1.9057659e-42
-3.9238999 81.764297 470.39001 0.80215001 0.31308001 -0.50846499 1.9057659e-42
-3.22294 82.329201 471.94901 0.814592 0.325941 -0.47979301 1.9057659e-42
-2.7915599 81.936996 473.65201 0.85534799 0.28972799 -0.429461 1.9057659e-42
-1.62301 80.762497 474.35599 0.908521 0.203724 -0.36480999 1.9057659e-42
-1.45697 80.323502 476.09299 0.94517499 0.1583 -0.28562999 1.9057659e-42
-0.869277 79.462196 477.561 0.97449702 0.098955803 -0.20140199 1.9057659e-42
-0.61109102 78.691803 479.16699 0.99166501 0.049318999 -0.119027 1.9057659e-42
-0.55164099 77.996696 480.82599 0.99911201 0.0074037998 -0.0414652 1.9057659e-42
-0.61212599 77.330597 482.49701 0.99840999 -0.035396501 0.043868098 1.9057659e-42
-0.75052899 76.656502 484.16 0.98750001 -0.081452899 0.134942 1.9057659e-42
-0.883241 75.949898 485.811 0.96583003 -0.129409 0.224557 1.9057659e-42
-1.56214 75.522499 487.422 0.93547899 -0.18037599 0.303882 1.9057659e-42
-2.36726 75.189102 488.99701 0.91170102 -0.211679 0.35212699 1.9057659e-42
-3.1454799 74.784798 490.569 0.88053101 -0.24287499 0.40703499 1.9057659e-42
-3.96802 74.240196 492.07401 0.83626097 -0.271837 0.47620699 1.9057659e-42
-4.25244 72.690498 492.94501 0.80088401 -0.25480801 0.54190201 1.9057659e-42
-5.35144 71.466103 493.67499 0.75011301 -0.230167 0.61996198 1.9057659e-42
-6.2979102 69.950302 493.89099 0.73073798 -0.14498501 0.66708398 1.9057659e-42
-6.00734 68.195099 493.617 0.74816501 -0.0148585 0.66334701 1.9057659e-42
-5.9882202 66.403702 493.79099 0.73387998 0.122611 0.66812199 1.9057659e-42
-6.0693598 64.667999 494.26001 0.700638 0.23285501 0.67445201 1.9057659e-42
-5.60396 62.992699 494.72601 0.66802102 0.315653 0.67387801 1.9057659e-42
-5.1279898 61.311298 495.15799 0.64002597 0.36280799 0.67730099 1.9057659e-42
-4.5503402 59.647099 495.52802 0.62339401 0.375606 0.68578398 1.9057659e-42
-3.91747 57.991501 495.841 0.63682199 0.34500501 0.68951303 1.9057659e-42
-3.75137 56.250599 496.26801 0.64072102 0.317536 0.69903302 1.9057659e-42
-3.1456201 54.560799 496.401 0.64941299 0.29410899 0.701258 1.9057659e-42
-2.34987 52.9487 496.31299 0.66012198 0.27632701 0.69848502 1.9057659e-42
-1.48478 51.380798 496.13 0.670834 0.26329401 0.693295 1.9057659e-42
-1.2439899 49.672401 496.64401 0.66446501 0.24806499 0.70494699 1.9057659e-42
-0.79502898 47.935902 496.79501 0.66843998 0.234263 0.70591003 1.9057659e-42
0.178569 46.089901 496.50299 0.69130099 0.220221 0.68818998 1.9057659e-42
0.82034802 44.4105 496.414 0.70640999 0.204748 0.67754197 1.9057659e-42
1.13652 42.6394 496.35699 0.71728402 0.18708301 0.67119598 1.9057659e-42
1.71618 40.938599 496.25101 0.73020703 0.167466 0.66238397 1.9057659e-42
2.4929099 39.3531 495.901 0.74277502 0.151558 0.65216202 1.9057659e-42
3.2081699 37.757301 495.474 0.75193202 0.139458 0.64432102 1.9057659e-42
3.2330501 35.9697 495.68301 0.75010699 0.12545399 0.64930803 1.9057659e-42
3.4461501 34.183399 495.61899 0.75105602 0.112664 0.65055501 1.9057659e-42
3.88764 32.440102 495.543 0.753537 0.102446 0.64937401 1.9057659e-42
4.5492101 30.813 495.14899 0.75976902 0.0937488 0.643399 1.9057659e-42
4.8627601 29.0445 495.03101 0.76451802 0.075274102 0.64019299 1.9057659e-42
5.4863701 27.4786 494.39899 0.77387202 0.0545597 0.63098699 1.9057659e-42
5.5376601 25.679399 494.41599 0.775244 0.0269405 0.63108802 1.9057659e-42
5.2108698 23.922899 494.634 0.77403301 -0.0033513701 0.63313597 1.9057659e-42
5.9154902 22.4659 493.84601 0.78089601 -0.032706901 0.62380397 1.9057659e-42
6.4087801 20.890699 493.12799 0.786807 -0.068997599 0.61333102 1.9057659e-42
6.39572 19.103001 492.918 0.78694701 -0.109024 0.60731202 1.9057659e-42
6.1036401 17.3274 492.875 0.78331399 -0.143161 0.60491699 1.9057659e-42
6.6181698 15.949 491.83801 0.79078901 -0.161228 0.59047198 1.9057659e-42
7.59128 16.1243 490.33401 0.81042302 -0.160653 0.56338698 1.9057659e-42
8.7563496 16.673599 489.077 0.830378 -0.158338 0.53422999 1.9057659e-42
9.7362204 16.790701 487.57101 0.84771103 -0.15389299 0.507644 1.9057659e-42
10.58 17.012199 485.99701 0.86375302 -0.149756 0.481148 1.9057659e-42
11.4279 17.404699 484.45801 0.87873298 -0.14391001 0.455102 1.9057659e-42
12.3066 17.777901 482.93201 0.892914 -0.13744301 0.42873499 1.9057659e-42
13.1035 18.3027 481.40601 0.90795898 -0.12518001 0.39992499 1.9057659e-42
13.8078 19.042299 479.92401 0.92255801 -0.109497 0.36999601 1.9057659e-42
14.4435 19.1833 478.246 0.93595201 -0.109586 0.33464101 1.9057659e-42
15.0729 19.632601 476.62 0.94785398 -0.104846 0.30096501 1.9057659e-42
15.5407 19.856001 474.896 0.95764399 -0.105278 0.26801899 1.9057659e-42
16.125999 20.548401 473.34201 0.965069 -0.086696997 0.247234 1.9057659e-42
16.591 21.2337 471.74301 0.97213501 -0.069799297 0.22378799 1.9057659e-42
16.8692 21.6528 470.01501 0.978383 -0.056504901 0.198934 1.9057659e-42
17.168301 22.204901 468.328 0.98405898 -0.044616599 0.172153 1.9057659e-42
17.6101 23.107 466.83401 0.98873401 -0.032163799 0.146184 1.9057659e-42
17.6856 23.4333 465.06601 0.993155 -0.023067201 0.114506 1.9057659e-42
17.9692 24.200199 463.46201 0.99649 -0.0112665 0.082952403 1.9057659e-42
18.1042 24.9426 461.828 0.99864697 -0.00133052 0.051985499 1.9057659e-42
18.130301 25.7227 460.20599 0.99972099 0.0075365701 0.0223944 1.9057659e-42
18.201799 26.5672 458.61801 0.99985403 0.016163699 -0.0055117598 1.9057659e-42
18.1248 27.194901 456.93301 0.99904102 0.0226402 -0.037463401 1.9057659e-42
17.858101 27.4746 455.17499 0.99719501 0.023038801 -0.071216702 1.9057659e-42
17.632401 28.1917 453.539 0.99455601 0.029312801 -0.099996701 1.9057659e-42
17.5432 29.010201 451.939 0.99146402 0.037605599 -0.124842 1.9057659e-42
17.454599 30.2118 450.60199 0.98806602 0.056931298 -0.143124 1.9057659e-42
16.9748 30.606701 448.91199 0.982337 0.065367296 -0.17533 1.9057659e-42
16.663401 31.488199 447.37399 0.97544098 0.084455498 -0.20342401 1.9057659e-42
16.2363 32.381699 445.871 0.96746802 0.104111 -0.230581 1.9057659e-42
15.9104 33.628799 444.61499 0.95874399 0.13160799 -0.25196999 1.9057659e-42
15.376 34.358501 443.05801 0.94957 0.14589 -0.277547 1.9057659e-42
14.7951 35.180401 441.56601 0.94110698 0.16045301 -0.29761299 1.9057659e-42
14.007 35.730999 440.04401 0.93162698 0.17282499 -0.319691 1.9057659e-42
13.2797 36.6465 438.67599 0.91968602 0.19606499 -0.34020099 1.9057659e-42
12.7334 37.788601 437.396 0.90496701 0.22532301 -0.36092201 1.9057659e-42
11.9459 38.841702 436.16699 0.88615799 0.256284 -0.38606101 1.9057659e-42
11.1386 39.990299 435.04001 0.869039 0.282772 -0.40597001 1.9057659e-42
10.1836 40.304699 433.547 0.855106 0.29051599 -0.42941099 1.9057659e-42
9.1577301 41.050701 432.26999 0.83713597 0.29276201 -0.462053 1.9057659e-42
7.9723201 41.6744 431.06799 0.80427003 0.253934 -0.53727698 1.9057659e-42
7.6368299 43.425598 430.82199 0.82441199 0.29020599 -0.485928 1.9057659e-42
8.1381798 44.262001 432.33499 0.83736902 0.33339 -0.43320099 1.9057659e-42
8.6354599 44.8391 433.965 0.84144503 0.352714 -0.40934399 1.9057659e-42
9.0306101 45.737301 435.474 0.84268999 0.375139 -0.38619301 1.9057659e-42
8.9091396 46.937599 436.81 0.84040302 0.40439799 -0.36081201 1.9057659e-42
9.4533796 47.5965 438.39401 0.84328902 0.41743499 -0.33854201 1.9057659e-42
9.6429005 48.445702 439.97 0.84517699 0.429791 -0.31773499 1.9057659e-42
9.7542 49.3694 441.51099 0.84692103 0.44026399 -0.29814699 1.9057659e-42
9.8069401 50.242298 443.08401 0.84953499 0.448102 -0.27838099 1.9057659e-42
9.9459105 50.926899 444.74301 0.85540199 0.45070601 -0.25524899 1.9057659e-42
9.5676003 52.184601 445.974 0.85218 0.463902 -0.24203999 1.9057659e-42
9.2796402 53.294701 447.362 0.85094398 0.474399 -0.22547799 1.9057659e-42
9.0742102 54.331902 448.81799 0.85163403 0.481635 -0.206756 1.9057659e-42
9.1558399 55.135899 450.427 0.85567302 0.48284301 -0.186242 1.9057659e-42
8.5193195 56.468899 451.45499 0.84608102 0.50055099 -0.18328901 1.9057659e-42
7.9026599 57.695301 452.62 0.837722 0.51591301 -0.179041 1.9057659e-42
7.9822001 58.366402 454.28799 0.84098899 0.516366 -0.16156401 1.9057659e-42
8.0353098 58.926102 455.99799 0.84536803 0.51541102 -0.14037199 1.9057659e-42
8.0408096 59.241798 457.76999 0.85166901 0.51141101 -0.114541 1.9057659e-42
7.5254302 60.3283 459.10901 0.847184 0.52190602 -0.099467501 1.9057659e-42
6.7955699 61.656502 460.07999 0.83937103 0.53543198 -0.093641497 1.9057659e-42
6.0998402 63.013802 461.03601 0.833381 0.545367 -0.089725196 1.9057659e-42
5.2291498 64.447899 461.68799 0.82455403 0.55826497 -0.091927297 1.9057659e-42
4.37993 65.814499 462.495 0.81730902 0.56906003 -0.090426102 1.9057659e-42
3.4742 67.165398 463.267 0.80974501 0.57990199 -0.089591198 1.9057659e-42
2.53297 68.528999 463.97 0.80012101 0.59319401 -0.0890323 1.9057659e-42
1.43325 69.948303 463.84299 0.78154099 0.61460102 -0.107046 1.9057659e-42
0.331368 71.244797 463.255 0.75792903 0.63871503 -0.132612 1.9057659e-42
-0.79857701 72.591301 463.64301 0.73618603 0.661461 -0.14317399 1.9057659e-42
-1.83729 73.832199 464.431 0.71924198 0.67984301 -0.143194 1.9057659e-42
-2.8124399 75.2145 465.04599 0.71589702 0.67879802 -0.16347601 1.9057659e-42
-3.83797 76.578903 465.617 0.75583202 0.60172302 -0.25816301 1.9057659e-42
-5.0269198 77.927597 465.70401 0.77408898 0.534446 -0.339342 1.9057659e-42
-5.6470199 79.3853 466.55899 0.790555 0.43453899 -0.431508 1.9057659e-42
