# .PCD v0.7 - Point Cloud Data file format
# 3 101 -2
# 1 40 0
# 41 75 0
# 76 101 0
VERSION 0.7
FIELDS x y z normal_x normal_y normal_z curvature
SIZE 4 4 4 4 4 4 4
TYPE F F F F F F F
COUNT 1 1 1 1 1 1 1
WIDTH 101
HEIGHT 1
VIEWPOINT 0 0 0 1 0 0 0
POINTS 101
DATA ascii
17.17630000 -14.36490000 469.00601000 -0.15475400 -0.61704999 0.77155697 1.905766e-42
16.70900000 -12.87520000 469.90201000 -0.15428799 -0.59900701 0.78573900 1.905766e-42
15.79930000 -11.62330000 470.82101000 -0.15434100 -0.58571100 0.79569000 1.905766e-42
14.99070000 -10.21000000 471.58899000 -0.15226901 -0.57693899 0.80246902 1.905766e-42
14.43570000 -8.76502990 472.50699000 -0.14957200 -0.58300698 0.79857999 1.905766e-42
13.61230000 -7.43505000 473.39801000 -0.14275099 -0.59239000 0.79290402 1.905766e-42
13.61870000 -5.91804980 474.36700000 -0.13781600 -0.59856701 0.78912902 1.905766e-42
13.55810000 -4.37246990 475.28799000 -0.13419500 -0.60425198 0.78541201 1.905766e-42
12.80610000 -3.23665000 476.46399000 -0.13817900 -0.61150998 0.77907801 1.905766e-42
12.50740000 -1.77253000 477.46799000 -0.14042801 -0.62169802 0.77056599 1.905766e-42
11.92450000 -0.42400199 478.50800000 -0.14500600 -0.63050699 0.76251799 1.905766e-42
11.59720000 0.90883797 479.67200000 -0.14652599 -0.63978702 0.75445598 1.905766e-42
11.56930000 2.31939010 480.79001000 -0.14475399 -0.64958501 0.74638200 1.905766e-42
11.19460000 3.78446010 481.76599000 -0.14500400 -0.66379702 0.73372102 1.905766e-42
10.48700000 4.88683990 483.00101000 -0.15224899 -0.67748398 0.71960801 1.905766e-42
10.19810000 6.23366020 484.16000000 -0.15878800 -0.69114101 0.70506001 1.905766e-42
9.47105030 7.45102980 485.26801000 -0.16900200 -0.70156997 0.69226998 1.905766e-42
9.36878010 8.70693020 486.55399000 -0.17466800 -0.71445101 0.67753297 1.905766e-42
9.06820960 10.02060000 487.74701000 -0.18094800 -0.72667700 0.66272098 1.905766e-42
8.82499980 11.27990000 489.01001000 -0.18492299 -0.73990601 0.64679402 1.905766e-42
8.42424010 12.39440000 490.36600000 -0.18725000 -0.75347000 0.63025397 1.905766e-42
8.38179970 13.65070000 491.65399000 -0.18672100 -0.76783502 0.61283302 1.905766e-42
7.92783020 14.66570000 493.06900000 -0.18683900 -0.78149402 0.59528100 1.905766e-42
7.45705990 15.75340000 494.42401000 -0.18975601 -0.79555398 0.57540101 1.905766e-42
7.25401020 16.90560000 495.79199000 -0.19270501 -0.80985200 0.55408001 1.905766e-42
7.14779000 17.93490000 497.26501000 -0.19605300 -0.82418698 0.53129900 1.905766e-42
6.95765020 18.97559900 498.72101000 -0.20039301 -0.83803999 0.50747597 1.905766e-42
7.06733990 20.01800000 500.18500000 -0.19638000 -0.84021997 0.50543499 1.905766e-42
7.52533010 20.71629900 501.77899000 -0.18975900 -0.82944798 0.52536500 1.905766e-42
7.60335020 21.48399900 503.40500000 -0.19426200 -0.81817299 0.54116100 1.905766e-42
8.74332050 22.11479900 504.64700000 -0.20256400 -0.81376803 0.54474801 1.905766e-42
8.74071980 23.18989900 506.09100000 -0.22141100 -0.80093402 0.55631101 1.905766e-42
5.80455020 24.16460000 506.13699000 -0.22920699 -0.77275902 0.59186703 1.905766e-42
4.13567020 24.83589900 506.20099000 -0.21574700 -0.76122701 0.61154401 1.905766e-42
2.35714010 25.03990000 506.01300000 -0.20124599 -0.75792801 0.62052101 1.905766e-42
0.65024298 25.61130000 506.01599000 -0.19249301 -0.75193799 0.63050503 1.905766e-42
-1.13153000 25.70010000 505.77701000 -0.18204600 -0.75443500 0.63062501 1.905766e-42
-2.79884000 26.37820100 505.75900000 -0.17288899 -0.75099099 0.63727701 1.905766e-42
-4.57243010 26.31240100 505.45901000 -0.16475800 -0.75681800 0.63252002 1.905766e-42
-6.33485980 26.64460000 505.30600000 -0.18507300 -0.75077999 0.63409501 1.905766e-42
-8.09819980 26.96810000 505.14499000 -0.21131700 -0.74390000 0.63400197 1.905766e-42
-8.78847030 25.79229900 503.96899000 -0.21681400 -0.76048303 0.61209297 1.905766e-42
-8.92142960 24.70019900 502.54501000 -0.20818000 -0.78856099 0.57864702 1.905766e-42
-8.71833040 23.76989900 501.01700000 -0.19245100 -0.82678801 0.52856803 1.905766e-42
-8.33471970 22.78610000 499.56000000 -0.18009301 -0.85205400 0.49149799 1.905766e-42
-7.76031020 21.76050000 498.19601000 -0.17598701 -0.84219497 0.50964302 1.905766e-42
-7.22098020 20.78820000 496.78101000 -0.17676400 -0.83012003 0.52882499 1.905766e-42
-7.20736980 19.88279900 495.22501000 -0.18034500 -0.81673700 0.54810297 1.905766e-42
-7.12037990 18.81020000 493.78201000 -0.18402299 -0.80311900 0.56668901 1.905766e-42
-6.94652990 17.75690100 492.33301000 -0.18666200 -0.78961998 0.58451498 1.905766e-42
-6.70140980 16.57189900 491.00000000 -0.18730600 -0.77626401 0.60193902 1.905766e-42
-6.47946980 15.47960000 489.58701000 -0.18706501 -0.76256299 0.61927700 1.905766e-42
-6.42877010 14.37680000 488.16501000 -0.18695700 -0.74803901 0.63677698 1.905766e-42
-6.29324010 13.24560000 486.77200000 -0.18633901 -0.73213297 0.65517902 1.905766e-42
-5.76558020 11.87280000 485.73401000 -0.18373901 -0.71686000 0.67257100 1.905766e-42
-6.38002010 10.84390000 484.39099000 -0.18265399 -0.70070201 0.68967700 1.905766e-42
-7.50777010 10.06160000 483.22601000 -0.18138599 -0.68594700 0.70468098 1.905766e-42
-8.65787030 9.15165040 482.18301000 -0.17877001 -0.67032403 0.72021300 1.905766e-42
-9.75290970 8.33738990 481.00900000 -0.17673200 -0.65979499 0.73036802 1.905766e-42
-10.88900000 7.53626010 479.86499000 -0.17540900 -0.65153801 0.73805797 1.905766e-42
-11.33410000 6.11643980 478.85300000 -0.17187500 -0.64295501 0.74637002 1.905766e-42
-11.96050000 4.85685010 477.73001000 -0.16782300 -0.63420200 0.75473398 1.905766e-42
-13.18060000 4.03731010 476.69000000 -0.16323400 -0.62677503 0.76191097 1.905766e-42
-14.60260000 3.46211000 475.74899000 -0.16181400 -0.62241203 0.76578099 1.905766e-42
-15.44210000 2.19057010 474.79001000 -0.16173600 -0.61592400 0.77102500 1.905766e-42
-16.57480000 1.25493000 473.75000000 -0.16210701 -0.60985303 0.77575803 1.905766e-42
-17.86820000 0.49552700 472.75500000 -0.16215301 -0.60366201 0.78057599 1.905766e-42
-19.23560000 -0.32402301 471.91901000 -0.16058700 -0.59636497 0.78648603 1.905766e-42
-20.73990100 -0.88764602 471.10699000 -0.16096100 -0.59178102 0.78986502 1.905766e-42
-21.73070000 -2.02042010 470.12000000 -0.16239700 -0.58870798 0.79186499 1.905766e-42
-22.48690000 -3.27897000 469.07800000 -0.16400699 -0.58508998 0.79421198 1.905766e-42
-23.65600000 -4.26543000 468.13000000 -0.16764300 -0.58076501 0.79662299 1.905766e-42
-25.05890100 -5.02995010 467.30099000 -0.17150401 -0.57513899 0.79987597 1.905766e-42
-26.05320000 -6.07761000 466.22699000 -0.17373700 -0.57977700 0.79603702 1.905766e-42
-26.31469900 -7.55670980 465.23499000 -0.16865399 -0.58322603 0.79460901 1.905766e-42
-25.58230000 -8.95728970 464.37299000 -0.15507200 -0.58716899 0.79447198 1.905766e-42
-24.45270000 -10.14360000 463.62701000 -0.15115300 -0.59766299 0.78737003 1.905766e-42
-23.60290000 -11.44350000 462.71701000 -0.14140300 -0.60680199 0.78217399 1.905766e-42
-21.98530000 -12.19830000 462.48599000 -0.12646900 -0.61841899 0.77560598 1.905766e-42
-20.25799900 -11.94950000 462.92700000 -0.13320000 -0.62046999 0.77283603 1.905766e-42
-18.48230000 -11.87700000 463.21301000 -0.13898100 -0.62235302 0.77029902 1.905766e-42
-16.68580100 -11.98680000 463.23199000 -0.14362700 -0.62503099 0.76727301 1.905766e-42
-15.25060000 -11.62170000 464.25601000 -0.15030301 -0.62142903 0.76891798 1.905766e-42
-13.60150000 -11.21370000 464.85001000 -0.15452000 -0.61796099 0.77087402 1.905766e-42
-11.82780000 -11.44870000 465.04800000 -0.15759499 -0.61708802 0.77095199 1.905766e-42
-10.13670000 -11.21990000 465.62000000 -0.15870400 -0.61313802 0.77386999 1.905766e-42
-8.36077980 -11.16770000 465.90900000 -0.15882400 -0.61068600 0.77578199 1.905766e-42
-6.64786010 -10.96020000 466.42200000 -0.15847100 -0.60649800 0.77913201 1.905766e-42
-4.88285020 -11.29080000 466.54599000 -0.15869500 -0.60627598 0.77925998 1.905766e-42
-3.16827010 -11.83330000 466.46899000 -0.16096500 -0.60768002 0.77769899 1.905766e-42
-1.66675000 -11.23100000 467.25800000 -0.16362600 -0.60494000 0.77927798 1.905766e-42
0.10247100 -11.23380000 467.59000000 -0.16683300 -0.60507601 0.77849197 1.905766e-42
1.84164000 -11.65200000 467.38901000 -0.16919900 -0.60688502 0.77657098 1.905766e-42
3.51823000 -11.69820000 468.04199000 -0.17152099 -0.60611802 0.77666098 1.905766e-42
5.29157020 -11.94300000 468.23001000 -0.17343800 -0.60634100 0.77605999 1.905766e-42
7.06625990 -12.08710000 468.49399000 -0.17548300 -0.60583699 0.77599400 1.905766e-42
8.83539960 -12.25570000 468.78000000 -0.17770100 -0.60471702 0.77636302 1.905766e-42
10.51280000 -12.90350000 468.69800000 -0.18042900 -0.60546499 0.77515000 1.905766e-42
12.13150000 -13.63300000 468.40201000 -0.17382701 -0.61313099 0.77061999 1.905766e-42
13.89030000 -13.73450000 468.77200000 -0.16505300 -0.61381698 0.77200103 1.905766e-42
15.50670000 -14.39470000 468.33401000 -0.15974399 -0.62307203 0.76567799 1.905766e-42
