# .PCD v0.7 - Point Cloud Data file format
# 3 78 0
# 1 29 0
# 30 49 0
# 50 78 0
VERSION 0.7
FIELDS x y z normal_x normal_y normal_z curvature
SIZE 4 4 4 4 4 4 4
TYPE F F F F F F F
COUNT 1 1 1 1 1 1 1
WIDTH 78
HEIGHT 1
VIEWPOINT 0 0 0 1 0 0 0
POINTS 78
DATA ascii
-3.85823990 -7.74100020 414.29199000 0.00339257 0.41064200 0.91179001 1.905766e-42
-2.25522990 -7.09789990 413.78500000 -0.00081805 0.41211101 0.91113299 1.905766e-42
-1.03062000 -5.82924990 413.42401000 -0.00899554 0.42196700 0.90656602 1.905766e-42
0.31791601 -4.72104980 412.98401000 -0.01164970 0.43338701 0.90113300 1.905766e-42
1.66074000 -3.65116000 412.44299000 0.01309130 0.45194301 0.89195102 1.905766e-42
3.26211000 -2.96094990 411.99701000 0.04317610 0.46811301 0.88261300 1.905766e-42
4.67643980 -0.76522201 410.70599000 0.05334300 0.49083301 0.86961901 1.905766e-42
5.28876020 0.69423097 409.84900000 0.04550060 0.49794599 0.86601400 1.905766e-42
5.88365980 2.12893010 408.93900000 0.03908250 0.50614202 0.86156398 1.905766e-42
6.44093990 3.56677010 408.01099000 0.03591480 0.51641202 0.85558701 1.905766e-42
6.44436980 5.15730000 407.16800000 0.03533460 0.52834302 0.84829599 1.905766e-42
6.58842990 6.66348980 406.19299000 0.03635610 0.54356003 0.83858299 1.905766e-42
7.21051980 8.03882030 405.21201000 0.03796070 0.56415302 0.82479697 1.905766e-42
7.28537990 9.52212050 404.19501000 0.03602430 0.58509201 0.81016701 1.905766e-42
7.38263990 10.96110000 403.11801000 0.03421400 0.60402399 0.79623097 1.905766e-42
7.47958990 12.36300000 401.99399000 0.03337420 0.62023401 0.78370702 1.905766e-42
8.00049970 13.64960000 400.84799000 0.04032020 0.63423198 0.77209002 1.905766e-42
8.01068970 15.07460000 399.74799000 0.04025610 0.64790601 0.76065600 1.905766e-42
7.97760010 16.46150000 398.60101000 0.03677070 0.65986902 0.75048101 1.905766e-42
7.89460990 17.78720100 397.38599000 0.03225180 0.67828000 0.73409498 1.905766e-42
8.31523990 18.99090000 396.11600000 0.03621180 0.69665098 0.71649599 1.905766e-42
8.13475990 20.29859900 394.89200000 0.03446240 0.71557403 0.69768602 1.905766e-42
8.63061050 21.41729900 393.57199000 0.04135520 0.73292100 0.67905498 1.905766e-42
8.50737950 22.64080000 392.25800000 0.04144300 0.74929601 0.66093701 1.905766e-42
8.37294010 23.85650100 390.93701000 0.04050580 0.76488101 0.64289701 1.905766e-42
8.21286960 25.02879900 389.57999000 0.03769060 0.77951699 0.62524599 1.905766e-42
7.99823000 26.11770100 388.16299000 0.03283670 0.79084003 0.61114103 1.905766e-42
7.81027980 27.19199900 386.73099000 0.02361100 0.80033201 0.59909201 1.905766e-42
7.43993000 28.26120000 385.33099000 0.00508415 0.80824298 0.58882803 1.905766e-42
6.72047000 29.23110000 383.99701000 -0.01854060 0.81322902 0.58164799 1.905766e-42
4.92150020 29.17060100 383.99200000 -0.01449960 0.82377702 0.56672901 1.905766e-42
3.12173010 29.14160000 383.99500000 -0.01032380 0.82831401 0.56016898 1.905766e-42
1.32175000 29.13340000 383.99399000 -0.01182320 0.82834101 0.56010002 1.905766e-42
-0.47798499 29.16410100 383.99301000 -0.02268470 0.82798100 0.56029701 1.905766e-42
-2.27343010 29.03630100 383.98700000 -0.03287570 0.82848603 0.55904299 1.905766e-42
-4.05728010 28.79630100 384.00400000 -0.04427710 0.82654601 0.56112498 1.905766e-42
-5.60050010 28.35440100 384.81900000 -0.05508550 0.81787199 0.57275701 1.905766e-42
-7.35049010 28.01359900 385.06699000 -0.05148380 0.81097502 0.58281100 1.905766e-42
-9.12856960 28.13970000 384.81699000 -0.03693580 0.80986398 0.58545399 1.905766e-42
-10.91460000 27.93530100 384.90701000 -0.02565980 0.80737501 0.58947998 1.905766e-42
-12.71230000 27.87240000 384.84000000 -0.02855480 0.80574000 0.59158099 1.905766e-42
-14.27880000 27.35530100 385.56000000 -0.03363540 0.80080903 0.59797400 1.905766e-42
-16.07640100 27.31320000 385.47699000 -0.04352310 0.80180597 0.59599698 1.905766e-42
-17.74340100 27.20120000 384.80701000 -0.05367400 0.80185199 0.59510702 1.905766e-42
-19.36720100 27.07280000 385.57401000 -0.06298790 0.79040903 0.60933298 1.905766e-42
-21.13999900 26.79480000 385.71399000 -0.05879860 0.77817398 0.62529099 1.905766e-42
-22.86520000 26.40020000 386.04300000 -0.04365990 0.77028000 0.63621002 1.905766e-42
-24.66350000 26.39889900 385.96301000 -0.03026540 0.76921803 0.63827002 1.905766e-42
-26.35899900 25.97330100 386.39200000 -0.07682090 0.75917500 0.64633697 1.905766e-42
-28.03890000 25.96699900 385.74600000 -0.16973400 0.76235503 0.62450403 1.905766e-42
-28.43980000 24.87669900 387.12100000 -0.13804100 0.76313901 0.63131899 1.905766e-42
-28.23840000 23.67869900 388.44901000 -0.09897180 0.75360000 0.64984000 1.905766e-42
-27.27389900 22.90200000 389.75500000 -0.07774220 0.74245602 0.66536802 1.905766e-42
-26.70210100 21.74810000 391.01300000 -0.06235230 0.72714901 0.68364203 1.905766e-42
-25.85300100 20.74259900 392.24100000 -0.05771580 0.71156299 0.70024800 1.905766e-42
-25.30139900 19.53370100 393.45499000 -0.06252840 0.69755101 0.71380198 1.905766e-42
-24.48340000 18.39279900 394.58200000 -0.07426890 0.68677902 0.72306198 1.905766e-42
-23.81049900 17.20599900 395.75601000 -0.08690670 0.67570603 0.73202997 1.905766e-42
-23.17370000 15.96240000 396.89099000 -0.09776230 0.66415799 0.74117202 1.905766e-42
-22.63839900 14.68930000 398.04501000 -0.10643900 0.65193599 0.75076598 1.905766e-42
-21.87520000 13.57090000 399.23099000 -0.11205600 0.64182401 0.75862098 1.905766e-42
-21.28879900 12.28540000 400.34698000 -0.11586800 0.63103598 0.76705199 1.905766e-42
-20.67260000 11.01600000 401.46399000 -0.11786800 0.62064499 0.77518201 1.905766e-42
-19.81629900 9.86660960 402.55301000 -0.11530100 0.61160100 0.78272003 1.905766e-42
-19.09059900 8.62353040 403.63400000 -0.11067800 0.59376001 0.79699397 1.905766e-42
-18.20170000 7.42988010 404.64600000 -0.10382400 0.57636797 0.81056798 1.905766e-42
-17.45019900 6.13082980 405.64001000 -0.10326300 0.55544198 0.82511902 1.905766e-42
-16.76440000 4.75525000 406.57700000 -0.10845700 0.53619999 0.83709401 1.905766e-42
-15.98130000 3.38518000 407.44299000 -0.10821900 0.52019298 0.84716499 1.905766e-42
-15.02150000 2.13201000 408.30801000 -0.10040700 0.50536901 0.85704201 1.905766e-42
-13.93860000 0.96531802 409.14801000 -0.08752830 0.49231499 0.86600500 1.905766e-42
-12.77170000 -0.12283100 409.98099000 -0.07557280 0.48495099 0.87127000 1.905766e-42
-11.66650000 -1.35487000 410.68900000 -0.06942030 0.47595301 0.87672597 1.905766e-42
-10.40350000 -2.41868000 411.40500000 -0.06937800 0.46854401 0.88071197 1.905766e-42
-9.37440970 -3.76100990 412.02100000 -0.07884960 0.45365199 0.88768399 1.905766e-42
-7.99035980 -4.68481020 412.70700000 -0.06774210 0.44479799 0.89306599 1.905766e-42
-6.73069000 -5.80999990 413.32901000 -0.04604180 0.43301600 0.90020901 1.905766e-42
-5.24652000 -6.68090010 413.85699000 -0.01866830 0.42238301 0.90622503 1.905766e-42
