# .PCD v0.7 - Point Cloud Data file format
# 5 256 0
# 1 25 0
# 26 91 0
# 92 117 0
# 118 188 0
# 189 256 0
VERSION 0.7
FIELDS x y z normal_x normal_y normal_z curvature
SIZE 4 4 4 4 4 4 4
TYPE F F F F F F F
COUNT 1 1 1 1 1 1 1
WIDTH 256
HEIGHT 1
VIEWPOINT 0 0 0 1 0 0 0
POINTS 256
DATA ascii
68.79039800 -7.68182990 385.78500000 -0.93812799 0.26671100 -0.22086500 1.905766e-42
68.33200100 -9.37940030 385.39999000 -0.94002599 0.24505500 -0.23727401 1.905766e-42
68.37349700 -11.02000000 384.66101000 -0.94303399 0.21993400 -0.24963200 1.905766e-42
68.05549600 -12.76910000 384.37900000 -0.94382298 0.19691999 -0.26536801 1.905766e-42
68.09809900 -14.46990000 383.79099000 -0.94494599 0.17334400 -0.27754000 1.905766e-42
67.60829900 -15.92610000 383.98499000 -0.94014698 0.17350000 -0.29329300 1.905766e-42
67.28600300 -17.69700100 383.99301000 -0.93511802 0.17086300 -0.31041899 1.905766e-42
66.88950300 -19.43530100 384.24100000 -0.92881298 0.17047900 -0.32900199 1.905766e-42
66.43250300 -21.11800000 384.68701000 -0.92126501 0.17202701 -0.34882301 1.905766e-42
65.81300400 -22.54900000 385.58701000 -0.91150397 0.17873700 -0.37042299 1.905766e-42
65.57810200 -24.32860000 385.72000000 -0.90433103 0.17615101 -0.38878801 1.905766e-42
64.96209700 -25.89119900 386.36700000 -0.89381498 0.17999700 -0.41072601 1.905766e-42
64.68380000 -27.66239900 386.52701000 -0.88538802 0.17728400 -0.42971900 1.905766e-42
63.97020000 -29.19570000 387.14301000 -0.87329799 0.18103400 -0.45230201 1.905766e-42
63.61980100 -30.95140100 387.32901000 -0.86337203 0.17838500 -0.47198299 1.905766e-42
62.69640000 -32.22390000 388.20499000 -0.84822500 0.18619201 -0.49583000 1.905766e-42
61.93349800 -33.71550000 388.86301000 -0.83305800 0.19044399 -0.51937097 1.905766e-42
61.10260000 -35.15679900 389.55099000 -0.81652898 0.19538900 -0.54323500 1.905766e-42
60.49259900 -36.83359900 389.78799000 -0.80237502 0.19408800 -0.56437898 1.905766e-42
59.58380100 -38.22710000 390.47501000 -0.78369898 0.19938000 -0.58827198 1.905766e-42
58.74179800 -39.75410100 390.92200000 -0.76558298 0.20151301 -0.61096299 1.905766e-42
57.61060000 -40.86690100 391.77200000 -0.74342501 0.21033500 -0.63488400 1.905766e-42
56.53789900 -42.13950000 392.45700000 -0.72510099 0.20898700 -0.65616500 1.905766e-42
55.27920200 -42.65710100 393.63501000 -0.70371699 0.21759200 -0.67634100 1.905766e-42
54.06869900 -43.68579900 394.48199000 -0.68231499 0.21934800 -0.69737500 1.905766e-42
52.91140000 -44.69929900 395.41599000 -0.65984702 0.22139899 -0.71804202 1.905766e-42
51.50389900 -44.90869900 396.51801000 -0.63557500 0.23180901 -0.73641598 1.905766e-42
50.11080200 -45.21900200 397.61499000 -0.60975897 0.24099299 -0.75506097 1.905766e-42
48.56489900 -45.22779800 398.53699000 -0.58327800 0.25195301 -0.77220899 1.905766e-42
47.23400100 -44.92330200 399.70999000 -0.55716401 0.26574001 -0.78673398 1.905766e-42
45.90750100 -44.43870200 400.82599000 -0.53103203 0.28029701 -0.79964900 1.905766e-42
44.59669900 -43.96099900 401.96399000 -0.50384903 0.29444000 -0.81206000 1.905766e-42
43.49200100 -43.01689900 403.02600000 -0.48121601 0.31068999 -0.81969702 1.905766e-42
42.21910100 -42.30149800 404.07800000 -0.45469001 0.32508400 -0.82920301 1.905766e-42
40.83929800 -41.75280000 405.09601000 -0.42584500 0.33783999 -0.83935702 1.905766e-42
39.50949900 -41.07600000 406.10300000 -0.39907801 0.35181800 -0.84673500 1.905766e-42
38.18320100 -40.38430000 407.10400000 -0.37271199 0.36640501 -0.85254502 1.905766e-42
37.19030000 -39.20940000 408.03900000 -0.35369399 0.38310999 -0.85330403 1.905766e-42
35.70069900 -38.63230100 408.86801000 -0.32439300 0.39593399 -0.85907203 1.905766e-42
34.32210200 -37.84400200 409.71500000 -0.29718500 0.40978301 -0.86241502 1.905766e-42
33.00090000 -36.95890000 410.55899000 -0.27098900 0.42383200 -0.86425197 1.905766e-42
31.56570100 -36.21849800 411.35400000 -0.24232300 0.43636101 -0.86652702 1.905766e-42
30.35199900 -35.15959900 412.15701000 -0.21819800 0.45054099 -0.86567998 1.905766e-42
28.98850100 -34.30580100 412.96500000 -0.19070099 0.46295300 -0.86562598 1.905766e-42
27.43619900 -33.69170000 413.63800000 -0.15971500 0.47258100 -0.86669397 1.905766e-42
25.72489900 -33.38209900 414.10199000 -0.12697101 0.47780600 -0.86924100 1.905766e-42
25.32700000 -31.90860000 415.05600000 -0.11696600 0.49350601 -0.86184102 1.905766e-42
23.86220000 -31.07410000 415.68701000 -0.08698040 0.50177199 -0.86061502 1.905766e-42
22.11260000 -30.79159900 416.00201000 -0.05200720 0.50348902 -0.86243498 1.905766e-42
20.55060000 -30.05699900 416.51199000 -0.01922380 0.50867498 -0.86074400 1.905766e-42
18.93120000 -29.38019900 416.91199000 0.01493340 0.51190001 -0.85891497 1.905766e-42
17.41280000 -28.50589900 417.32401000 0.04797740 0.51580602 -0.85536098 1.905766e-42
15.77440000 -27.81480000 417.60300000 0.08307630 0.51648200 -0.85225898 1.905766e-42
14.84000000 -26.40690000 418.22299000 0.10692400 0.52494502 -0.84439301 1.905766e-42
13.40360000 -25.39690000 418.61899000 0.13948600 0.52703601 -0.83831799 1.905766e-42
12.22340000 -24.17260000 419.20901000 0.16785400 0.53149498 -0.83026397 1.905766e-42
10.70220000 -23.26980000 419.54199000 0.20113499 0.53028202 -0.82361698 1.905766e-42
9.54360960 -22.02450000 420.13101000 0.22865900 0.53318101 -0.81451398 1.905766e-42
8.46835990 -20.72400100 420.75800000 0.25268000 0.54037303 -0.80258900 1.905766e-42
6.91140990 -19.82360100 420.82901000 0.28133300 0.54247898 -0.79156101 1.905766e-42
5.60443020 -18.61720100 421.10599000 0.30586600 0.54922199 -0.77768999 1.905766e-42
4.35998010 -17.34660000 421.38300000 0.32918400 0.55613601 -0.76311898 1.905766e-42
3.02906990 -16.15110000 421.58200000 0.35325101 0.56079102 -0.74881703 1.905766e-42
1.85735000 -14.84310000 421.97699000 0.37463701 0.56787300 -0.73291701 1.905766e-42
0.62232703 -13.57690000 422.31100000 0.39671901 0.57314903 -0.71701699 1.905766e-42
-0.72467703 -12.39840000 422.50299000 0.42009699 0.57532400 -0.70179802 1.905766e-42
-1.78544000 -11.03630000 423.01199000 0.43952599 0.58202302 -0.68415397 1.905766e-42
-3.10935000 -9.83483980 423.22101000 0.46247599 0.58286899 -0.66811597 1.905766e-42
-4.39849000 -8.60925960 423.49701000 0.48490301 0.58370900 -0.65127099 1.905766e-42
-5.54688980 -7.30635020 423.97000000 0.50550097 0.58672398 -0.63263202 1.905766e-42
-6.89207980 -6.11041020 423.98401000 0.52929097 0.58271497 -0.61668003 1.905766e-42
-8.11925980 -4.79614020 424.06601000 0.55162299 0.58062899 -0.59881699 1.905766e-42
-8.97471050 -3.28221010 424.53101000 0.56912398 0.58525902 -0.57755500 1.905766e-42
-10.00920000 -1.82295000 424.73199000 0.58853400 0.58540303 -0.55761200 1.905766e-42
-11.23360000 -0.50488800 424.79300000 0.60886502 0.58212501 -0.53890002 1.905766e-42
-12.44700000 0.82459599 424.79700000 0.62865001 0.57807702 -0.52021700 1.905766e-42
-13.21900000 2.24757000 425.58401000 0.64084399 0.58459598 -0.49756101 1.905766e-42
-14.66040000 3.27010010 425.24200000 0.66099000 0.57457501 -0.48265600 1.905766e-42
-15.52830000 4.81227020 425.57101000 0.67558402 0.57552397 -0.46082300 1.905766e-42
-16.70700100 6.17250010 425.54999000 0.69254500 0.57050800 -0.44147700 1.905766e-42
-17.78190000 7.58069990 425.86899000 0.70662302 0.56943500 -0.42003199 1.905766e-42
-18.70870000 9.07520010 426.25299000 0.71905100 0.56964201 -0.39808699 1.905766e-42
-19.82550000 10.48230000 426.36600000 0.73288298 0.56586498 -0.37773001 1.905766e-42
-20.85720100 11.95300000 426.47900000 0.74569601 0.56242901 -0.35722801 1.905766e-42
-21.63159900 13.52410000 426.89301000 0.75588799 0.56114799 -0.33726299 1.905766e-42
-22.80789900 14.88200000 426.78101000 0.76894701 0.55326903 -0.32033399 1.905766e-42
-23.72050100 16.41680000 427.00800000 0.77870798 0.55000597 -0.30183899 1.905766e-42
-24.87579900 17.61829900 426.32800000 0.79136699 0.53889000 -0.28867900 1.905766e-42
-25.82729900 19.14600000 426.30399000 0.80026001 0.53486103 -0.27112201 1.905766e-42
-26.89340000 20.54950000 425.93799000 0.80959600 0.52846998 -0.25548899 1.905766e-42
-27.93000000 21.95739900 425.51001000 0.81801897 0.52263302 -0.24020800 1.905766e-42
-29.02010000 23.30590100 425.02701000 0.82461399 0.51855898 -0.22607100 1.905766e-42
-29.70669900 24.69479900 425.94299000 0.82493800 0.52579701 -0.20740101 1.905766e-42
-29.33160000 24.82110000 427.69901000 0.81620002 0.54044998 -0.20428100 1.905766e-42
-29.66239900 25.51770000 429.32501000 0.80976403 0.55299503 -0.19616000 1.905766e-42
-29.39640000 25.79630100 431.08401000 0.80083102 0.56574798 -0.19646700 1.905766e-42
-29.42460100 26.32029900 432.80499000 0.79270399 0.57722598 -0.19603799 1.905766e-42
-29.02969900 26.78540000 434.49899000 0.78365600 0.58800900 -0.20032100 1.905766e-42
-29.35960000 27.46880000 436.13101000 0.77777201 0.59461498 -0.20372599 1.905766e-42
-28.96279900 27.91560000 437.82901000 0.77150297 0.59811503 -0.21688899 1.905766e-42
-29.36360000 28.77529900 439.35901000 0.76948500 0.59753299 -0.22549300 1.905766e-42
-29.34810100 29.36280100 441.06000000 0.76458102 0.59896898 -0.23801599 1.905766e-42
-30.02770000 30.34660000 442.40601000 0.76478201 0.59606498 -0.24457300 1.905766e-42
-29.73530000 31.09300000 444.01700000 0.75968099 0.59704399 -0.25772601 1.905766e-42
-30.02870000 32.00460100 445.54099000 0.75770003 0.59514701 -0.26775101 1.905766e-42
-29.88349900 32.81580000 447.14200000 0.75332397 0.59489202 -0.28036800 1.905766e-42
-30.33980000 33.95430000 448.45901000 0.75398600 0.59052801 -0.28771701 1.905766e-42
-30.61039900 34.92030000 449.95300000 0.75274801 0.58732301 -0.29735801 1.905766e-42
-30.46579900 35.76419800 451.53699000 0.74899501 0.58601803 -0.30917600 1.905766e-42
-30.91160000 37.01509900 452.75201000 0.75070399 0.58134198 -0.31382301 1.905766e-42
-31.07889900 38.04819900 454.21600000 0.74860698 0.58099598 -0.31942400 1.905766e-42
-31.39510000 39.12820100 455.62100000 0.74787998 0.57990700 -0.32308599 1.905766e-42
-31.74150100 40.26409900 456.97400000 0.74799699 0.57839900 -0.32550800 1.905766e-42
-32.06560100 41.49900100 458.24301000 0.74899101 0.57639802 -0.32676899 1.905766e-42
-32.62929900 42.85129900 459.28900000 0.75253999 0.57249302 -0.32547799 1.905766e-42
-32.78369900 44.11119800 460.56500000 0.75342298 0.57086098 -0.32629901 1.905766e-42
-33.28929900 45.32350200 461.79599000 0.75606501 0.56788200 -0.32538700 1.905766e-42
-33.42269900 46.30369900 463.29901000 0.75602603 0.56756300 -0.32603201 1.905766e-42
-32.52130100 46.04079800 464.83499000 0.74311602 0.57839298 -0.33651000 1.905766e-42
-31.68829900 45.61150000 466.37201000 0.72714603 0.59042698 -0.35021999 1.905766e-42
-30.45980100 44.74060100 467.35800000 0.71001202 0.60269499 -0.36420000 1.905766e-42
-29.57220100 44.56729900 468.91400000 0.69573802 0.61240602 -0.37537599 1.905766e-42
-28.25910000 43.89300200 469.94400000 0.67949098 0.62308800 -0.38736701 1.905766e-42
-27.08490000 43.37160100 471.20499000 0.66395998 0.63312000 -0.39789000 1.905766e-42
-25.81279900 42.77130100 472.32800000 0.64831299 0.64303303 -0.40767300 1.905766e-42
-24.60110100 42.37120100 473.59799000 0.63341498 0.65273601 -0.41559699 1.905766e-42
-23.27220000 41.74940100 474.64001000 0.61790299 0.66254002 -0.42336401 1.905766e-42
-22.77829900 42.18349800 476.31601000 0.60913497 0.67036700 -0.42374799 1.905766e-42
-21.55820100 42.00059900 477.62701000 0.59159303 0.68052500 -0.43232399 1.905766e-42
-20.03820000 41.56530000 478.48700000 0.57296997 0.68915302 -0.44359201 1.905766e-42
-18.79120100 41.43220100 479.77802000 0.55506402 0.69714701 -0.45375001 1.905766e-42
-17.60630000 41.43759900 481.13300000 0.53736502 0.70410699 -0.46419001 1.905766e-42
-16.43380000 41.46070100 482.49899000 0.51943803 0.70999902 -0.47548500 1.905766e-42
-15.48610000 41.59619900 484.02301000 0.50231600 0.71472198 -0.48667300 1.905766e-42
-13.98770000 41.53670100 485.01901000 0.48353201 0.71823901 -0.50032997 1.905766e-42
-12.89870000 41.63050100 486.44901000 0.46554300 0.72072500 -0.51363897 1.905766e-42
-11.32980000 41.54850000 487.32700000 0.44697499 0.72219998 -0.52786398 1.905766e-42
-10.39890000 41.84700000 488.83899000 0.43750700 0.72296298 -0.53470701 1.905766e-42
-8.94324970 41.78179900 489.89600000 0.42838100 0.72479999 -0.53958797 1.905766e-42
-7.71174000 41.89640000 491.20300000 0.41962400 0.72706997 -0.54340100 1.905766e-42
-6.09472990 41.72129800 491.97400000 0.40862399 0.73069203 -0.54691398 1.905766e-42
-4.54482980 41.47520100 492.85599000 0.39651501 0.73509598 -0.54991800 1.905766e-42
-3.08697010 41.43069800 493.91101000 0.38424799 0.73999500 -0.55205101 1.905766e-42
-1.66662000 41.48960100 495.01501000 0.37166101 0.74542201 -0.55336601 1.905766e-42
-0.12615700 41.39799900 495.94199000 0.35692701 0.75165600 -0.55463201 1.905766e-42
1.32936000 41.36180100 497.00000000 0.34198299 0.75821900 -0.55511397 1.905766e-42
2.96331000 41.12210100 497.71600000 0.32499599 0.76528102 -0.55562699 1.905766e-42
4.59793000 40.79679900 498.39600000 0.30887201 0.77263600 -0.55464602 1.905766e-42
6.37041000 40.48490100 498.36401000 0.29034099 0.77911901 -0.55558598 1.905766e-42
8.10653970 40.02719900 498.49200000 0.27042601 0.78560603 -0.55650002 1.905766e-42
9.78707980 39.93769800 499.13000000 0.25125501 0.79293901 -0.55508500 1.905766e-42
11.54060000 39.55600000 499.27100000 0.22935000 0.79897398 -0.55591398 1.905766e-42
13.29900000 39.21720100 499.45300000 0.20667399 0.80466598 -0.55659503 1.905766e-42
15.00560000 39.13539900 500.01901000 0.18454500 0.81091201 -0.55530602 1.905766e-42
16.76720000 39.02090100 500.37100000 0.16099501 0.81620699 -0.55487603 1.905766e-42
18.48630000 39.06919900 500.90201000 0.13773100 0.82153600 -0.55327100 1.905766e-42
20.00680000 39.24309900 501.85001000 0.11831200 0.82769603 -0.54856300 1.905766e-42
21.72640000 39.30960100 502.37799000 0.09665650 0.83250201 -0.54552603 1.905766e-42
23.47909900 39.53089900 502.72198000 0.07468430 0.83655399 -0.54277098 1.905766e-42
25.16600000 39.70629900 503.32501000 0.05342180 0.84082299 -0.53866798 1.905766e-42
26.84190000 39.92720000 503.94400000 0.03226950 0.84483403 -0.53405398 1.905766e-42
28.59420000 40.33869900 503.95200000 0.00997945 0.84667099 -0.53202200 1.905766e-42
30.39110000 40.43629800 503.98801000 -0.01306480 0.84732699 -0.53091002 1.905766e-42
32.01940200 39.95560100 503.39001000 -0.03384530 0.84351498 -0.53603899 1.905766e-42
33.18389900 39.14849900 502.28000000 -0.04809200 0.83638901 -0.54602301 1.905766e-42
34.94889800 38.93529900 501.99799000 -0.06967690 0.83305103 -0.54878998 1.905766e-42
36.63439900 38.48960100 501.54999000 -0.08786830 0.82840800 -0.55318999 1.905766e-42
38.41740000 38.53099800 501.30701000 -0.10579100 0.82591498 -0.55378097 1.905766e-42
40.11729800 38.74720000 500.75601000 -0.12280500 0.82198399 -0.55611300 1.905766e-42
41.90449900 38.95920200 500.72501000 -0.14023900 0.82010800 -0.55475700 1.905766e-42
43.69179900 39.16809800 500.68100000 -0.15752301 0.81777102 -0.55356801 1.905766e-42
45.47629900 39.35780000 500.54099000 -0.17615999 0.81631899 -0.55008203 1.905766e-42
47.15620000 39.65630000 499.96799000 -0.19603100 0.81521499 -0.54497403 1.905766e-42
48.93970100 39.89939900 499.97699000 -0.21479499 0.81470698 -0.53862399 1.905766e-42
50.70620000 40.14490100 499.73401000 -0.23393901 0.81329602 -0.53274900 1.905766e-42
52.26010100 40.48580200 498.89200000 -0.25275800 0.81050903 -0.52838302 1.905766e-42
53.96110200 40.60440100 498.31601000 -0.27077901 0.80820298 -0.52296001 1.905766e-42
55.71540100 41.00529900 498.35800000 -0.28397599 0.80960202 -0.51371402 1.905766e-42
57.30210100 41.32310100 497.56900000 -0.29954001 0.80810702 -0.50718802 1.905766e-42
58.98799900 41.67200100 497.04401000 -0.31457999 0.80739897 -0.49914601 1.905766e-42
60.70510100 42.04750100 496.65601000 -0.32916701 0.80709201 -0.49015501 1.905766e-42
62.32930000 42.34949900 495.94101000 -0.34482300 0.80507803 -0.48264500 1.905766e-42
64.04460100 42.88270200 495.82599000 -0.35803401 0.80589598 -0.47153300 1.905766e-42
65.64520300 43.40490000 495.19000000 -0.37331399 0.80416298 -0.46255699 1.905766e-42
67.34030200 44.00460100 495.10599000 -0.38626200 0.80498898 -0.45032701 1.905766e-42
68.86869800 44.53290200 494.31500000 -0.40206599 0.80176997 -0.44216201 1.905766e-42
70.55880000 45.13489900 494.17001000 -0.41535401 0.80173302 -0.42977500 1.905766e-42
72.03790300 45.72880200 493.33401000 -0.43106800 0.79753399 -0.42204201 1.905766e-42
73.58000200 46.43389900 492.73001000 -0.44584501 0.79443800 -0.41242000 1.905766e-42
74.05740400 45.60250100 491.20599000 -0.45619801 0.78360498 -0.42171800 1.905766e-42
74.53240200 44.77249900 489.68100000 -0.46822700 0.77615798 -0.42230600 1.905766e-42
75.09660300 43.88290000 488.22198000 -0.47956300 0.76972401 -0.42136100 1.905766e-42
74.61949900 43.17160000 486.63901000 -0.48423401 0.76507401 -0.42447600 1.905766e-42
74.70610000 42.29670000 485.06799000 -0.49195299 0.76041698 -0.42396599 1.905766e-42
74.33029900 41.48049900 483.50800000 -0.49640000 0.75701100 -0.42487800 1.905766e-42
74.10489700 40.55649900 481.98001000 -0.50127202 0.75392699 -0.42464101 1.905766e-42
74.18329600 39.67960000 480.41000000 -0.50808001 0.75071198 -0.42223901 1.905766e-42
74.23190300 38.73049900 478.88199000 -0.51420099 0.74786800 -0.41986901 1.905766e-42
74.05180400 37.69290200 477.42200000 -0.51837498 0.74566901 -0.41864699 1.905766e-42
74.11329700 36.74639900 475.89200000 -0.52434301 0.74307698 -0.41581401 1.905766e-42
74.30770100 35.78540000 474.38199000 -0.53088498 0.74032497 -0.41240901 1.905766e-42
74.06890100 34.86949900 472.85101000 -0.53585100 0.73862302 -0.40902200 1.905766e-42
73.33799700 33.95890000 471.48099000 -0.53713101 0.73789603 -0.40865600 1.905766e-42
73.22429700 33.11180100 469.89700000 -0.54327297 0.73585099 -0.40420100 1.905766e-42
73.09739700 32.20570000 468.34698000 -0.54902703 0.73382998 -0.40007901 1.905766e-42
73.40480000 31.39510000 466.76999000 -0.55761802 0.73090202 -0.39350200 1.905766e-42
73.03749800 30.44370100 465.28601000 -0.56080198 0.72984898 -0.39092401 1.905766e-42
72.70580300 29.34100000 463.90302000 -0.56153399 0.73073798 -0.38820201 1.905766e-42
72.65319800 28.42590000 462.35400000 -0.56550199 0.73034501 -0.38314900 1.905766e-42
72.51699800 27.49210000 460.82101000 -0.56861001 0.73035598 -0.37849900 1.905766e-42
72.29589800 26.48800100 459.34399000 -0.57052201 0.73093599 -0.37448299 1.905766e-42
71.77670300 25.46810000 457.95401000 -0.56982702 0.73270601 -0.37207299 1.905766e-42
71.76960000 24.61380000 456.37000000 -0.57390600 0.73243201 -0.36629999 1.905766e-42
71.75560000 23.77120000 454.77899000 -0.57837301 0.73260403 -0.35885301 1.905766e-42
71.47969800 22.91290100 453.22101000 -0.58244199 0.73483503 -0.34753200 1.905766e-42
70.98239900 22.06259900 451.71500000 -0.58459502 0.73770499 -0.33769801 1.905766e-42
71.11380000 21.38439900 450.05301000 -0.59233302 0.73807400 -0.32309201 1.905766e-42
70.99720000 20.48959900 448.49500000 -0.59706700 0.73944497 -0.31101599 1.905766e-42
70.98670200 19.71400100 446.87100000 -0.60320097 0.73979503 -0.29807901 1.905766e-42
70.74500300 18.99930000 445.23700000 -0.60817403 0.74020201 -0.28674999 1.905766e-42
70.62690000 18.34810100 443.56299000 -0.61450201 0.73942399 -0.27502799 1.905766e-42
70.96389800 17.74780100 441.89999000 -0.62378699 0.73650301 -0.26163700 1.905766e-42
70.87650300 17.10540000 440.22000000 -0.63081002 0.73404998 -0.25149301 1.905766e-42
70.42520100 16.38960100 438.63199000 -0.63504702 0.73250198 -0.24526700 1.905766e-42
70.66079700 15.78760000 436.95200000 -0.64428401 0.72765100 -0.23542000 1.905766e-42
70.35749800 15.08300000 435.32401000 -0.65028000 0.72382200 -0.23069000 1.905766e-42
70.32930000 14.40160000 433.65799000 -0.65823799 0.71826500 -0.22542900 1.905766e-42
69.97110000 13.64420000 432.06500000 -0.66424602 0.71342498 -0.22316401 1.905766e-42
70.02430000 13.15490000 430.33301000 -0.67426598 0.70589799 -0.21696500 1.905766e-42
69.99590300 12.60160000 428.62100000 -0.68405801 0.69787198 -0.21222501 1.905766e-42
69.63629900 11.88400000 427.00900000 -0.69210398 0.69000000 -0.21187700 1.905766e-42
69.97209900 11.33880000 425.32700000 -0.70428300 0.67923999 -0.20644300 1.905766e-42
68.80059800 10.43130000 424.30499000 -0.70641601 0.67345202 -0.21780400 1.905766e-42
69.21779600 10.09240000 422.58801000 -0.72075802 0.65987003 -0.21231800 1.905766e-42
69.38439900 9.49814030 420.89700000 -0.73431402 0.64484602 -0.21203101 1.905766e-42
69.23280300 8.76451020 419.26001000 -0.74726099 0.62794501 -0.21745200 1.905766e-42
68.84750400 7.98463010 417.68399000 -0.76000202 0.60872698 -0.22770400 1.905766e-42
68.68280000 7.22381020 416.06100000 -0.77450699 0.58594900 -0.23833400 1.905766e-42
68.61299900 6.38707020 414.46899000 -0.78985399 0.56010300 -0.24982999 1.905766e-42
68.48709900 5.52052020 412.89600000 -0.80418998 0.53523701 -0.25845799 1.905766e-42
68.42759700 4.68788000 411.30200000 -0.81188798 0.52280200 -0.25984001 1.905766e-42
68.51599900 3.99975990 409.64099000 -0.82104897 0.51029599 -0.25588399 1.905766e-42
68.41809800 3.11885000 408.07401000 -0.82777399 0.50072801 -0.25310400 1.905766e-42
68.21669800 2.15444990 406.56799000 -0.83361101 0.49239099 -0.25028700 1.905766e-42
68.37400100 1.54393990 404.88199000 -0.84324801 0.48102501 -0.23989099 1.905766e-42
68.51709700 0.86409903 403.22101000 -0.85238701 0.46994701 -0.22931400 1.905766e-42
68.40480000 0.04767940 401.62100000 -0.86028701 0.45936599 -0.22111000 1.905766e-42
68.03659800 -0.94384098 400.16400000 -0.86692798 0.44883701 -0.21675099 1.905766e-42
68.33570100 -1.56032000 398.50000000 -0.87711698 0.43508399 -0.20339000 1.905766e-42
68.45839700 -2.34524010 396.88501000 -0.88660198 0.42040801 -0.19285899 1.905766e-42
68.39009900 -3.28889990 395.35300000 -0.89456201 0.40138099 -0.19660100 1.905766e-42
68.53540000 -3.98516990 393.70001000 -0.90297300 0.37959900 -0.20135801 1.905766e-42
68.74559800 -4.42414000 391.96701000 -0.91141802 0.35822400 -0.20246799 1.905766e-42
68.61049700 -5.20709990 390.35199000 -0.91884100 0.33515701 -0.20833001 1.905766e-42
68.92970300 -5.62391000 388.63000000 -0.92636299 0.31422800 -0.20763500 1.905766e-42
68.73049900 -6.35125020 386.99600000 -0.93292499 0.29130501 -0.21164399 1.905766e-42
