# .PCD v0.7 - Point Cloud Data file format
# 3 178 0
# 1 60 0
# 61 104 0
# 105 178 0
VERSION 0.7
FIELDS x y z normal_x normal_y normal_z curvature
SIZE 4 4 4 4 4 4 4
TYPE F F F F F F F
COUNT 1 1 1 1 1 1 1
WIDTH 178
HEIGHT 1
VIEWPOINT 0 0 0 1 0 0 0
POINTS 178
DATA ascii
82.41030100 4.71762990 441.31601000 -0.15575400 0.95954698 -0.23454200 1.905766e-42
81.32039600 4.51183990 439.89899000 -0.16076000 0.97546399 -0.15041700 1.905766e-42
79.84249900 4.31270980 438.89001000 -0.19052801 0.97705799 -0.09516480 1.905766e-42
78.08309900 4.19756980 438.52802000 -0.22719499 0.97137803 -0.06933340 1.905766e-42
76.29560100 4.02981000 438.39899000 -0.26053300 0.96392697 -0.05447710 1.905766e-42
74.69080400 3.55751990 437.73499000 -0.28508800 0.95825303 -0.02181420 1.905766e-42
72.91790000 3.28032990 437.59299000 -0.30916399 0.95095402 -0.01019840 1.905766e-42
71.42459900 2.52372000 436.93201000 -0.32631499 0.94512099 0.01624710 1.905766e-42
69.82579800 1.71054010 436.78201000 -0.34251899 0.93919599 0.02432320 1.905766e-42
68.27970100 0.78874499 436.77701000 -0.36128199 0.93228000 0.01815220 1.905766e-42
66.85289800 -0.14402600 436.19901000 -0.38283500 0.92372698 0.01286380 1.905766e-42
65.22450300 -0.88816601 436.01300000 -0.39561200 0.91841501 0.00247247 1.905766e-42
63.52460100 -1.47818990 435.96600000 -0.40055600 0.91623199 -0.00864912 1.905766e-42
61.95800000 -2.12831000 435.36401000 -0.40201500 0.91553903 -0.01314520 1.905766e-42
60.22020000 -2.58111000 435.24200000 -0.39344800 0.91904199 -0.02367320 1.905766e-42
58.52320100 -3.17917990 435.19199000 -0.37739000 0.92539299 -0.03499340 1.905766e-42
56.92459900 -4.00658990 435.19299000 -0.35770199 0.93274897 -0.04504840 1.905766e-42
55.49269900 -4.86521010 434.51999000 -0.34008500 0.93914902 -0.04839240 1.905766e-42
53.77579900 -5.39581010 434.41800000 -0.31868899 0.94597501 -0.05972900 1.905766e-42
52.06520100 -5.95407010 434.37000000 -0.30032900 0.95090699 -0.07469040 1.905766e-42
50.44680000 -6.38296990 433.70999000 -0.28954700 0.95313603 -0.08771600 1.905766e-42
48.68090100 -6.71901990 433.61600000 -0.27404401 0.95615900 -0.10324800 1.905766e-42
46.92670100 -7.11379000 433.53299000 -0.25939599 0.95838600 -0.11920400 1.905766e-42
45.34590100 -7.78747990 432.99701000 -0.25069901 0.95882601 -0.13342500 1.905766e-42
43.63119900 -8.29671000 432.79599000 -0.23869701 0.95952201 -0.14947100 1.905766e-42
41.89429900 -8.76068020 432.70700000 -0.22574200 0.95993602 -0.16602001 1.905766e-42
40.16230000 -9.24458030 432.78601000 -0.21116500 0.96019500 -0.18285200 1.905766e-42
38.73170100 -10.05900000 432.05801000 -0.19663800 0.96324700 -0.18299900 1.905766e-42
36.93590200 -10.17610000 432.01901000 -0.17328000 0.96725100 -0.18547300 1.905766e-42
35.17879900 -10.42750000 431.72000000 -0.14915100 0.97146398 -0.18442000 1.905766e-42
33.39030100 -10.42390000 431.92401000 -0.12371700 0.97435701 -0.18794399 1.905766e-42
31.59840000 -10.59120000 431.95801000 -0.09788900 0.97709697 -0.18894300 1.905766e-42
29.95330000 -10.97380000 431.33600000 -0.07431160 0.98037398 -0.18260799 1.905766e-42
28.16090000 -11.01450000 431.17599000 -0.04960990 0.98225302 -0.18088201 1.905766e-42
26.36150000 -11.05650000 431.19501000 -0.02602790 0.98320901 -0.18061499 1.905766e-42
24.56180000 -11.05640000 431.16299000 -0.00403470 0.98370302 -0.17975301 1.905766e-42
22.81310100 -11.20150000 430.76199000 0.01562280 0.98451900 -0.17458200 1.905766e-42
21.07070000 -11.50190000 430.42499000 0.01851930 0.98036200 -0.19633301 1.905766e-42
18.34250100 -11.24530000 430.38300000 0.03431380 0.96866202 -0.24600001 1.905766e-42
16.54480000 -11.20790000 430.46500000 0.04918550 0.96089298 -0.27251801 1.905766e-42
14.90460000 -10.87540000 431.12799000 0.07329540 0.95542699 -0.28598499 1.905766e-42
13.11710000 -10.66520000 431.15601000 0.08997810 0.94715297 -0.30790299 1.905766e-42
11.32580000 -10.48940000 431.14200000 0.10715100 0.93854702 -0.32809600 1.905766e-42
9.74343010 -9.98777960 431.83801000 0.13189700 0.93268698 -0.33570600 1.905766e-42
7.97169020 -9.68301010 431.92700000 0.15149701 0.92411500 -0.35079899 1.905766e-42
6.19845010 -9.38210960 431.99799000 0.17177500 0.91526198 -0.36440200 1.905766e-42
4.44759990 -8.96442030 431.98999000 0.19443899 0.90532601 -0.37759501 1.905766e-42
2.70139000 -8.52773000 431.98499000 0.21891700 0.89476502 -0.38919199 1.905766e-42
0.94898999 -8.11692050 431.96701000 0.24496900 0.88343197 -0.39942101 1.905766e-42
-0.77366400 -7.59519000 431.98300000 0.27324200 0.87152302 -0.40716800 1.905766e-42
-2.46365000 -6.97560980 431.99200000 0.30335900 0.85887301 -0.41268599 1.905766e-42
-4.18403010 -6.44619990 431.99100000 0.33488601 0.84514701 -0.41662699 1.905766e-42
-5.54700990 -5.48060990 432.66101000 0.36647999 0.83513802 -0.41016701 1.905766e-42
-7.20169020 -4.78219990 432.78101000 0.40030599 0.82058197 -0.40792200 1.905766e-42
-8.56029030 -3.76850010 433.38599000 0.42709801 0.81288099 -0.39599401 1.905766e-42
-9.92512040 -2.78257990 434.02301000 0.45020300 0.80661303 -0.38300499 1.905766e-42
-11.26070000 -1.72937000 434.61200000 0.47302800 0.79903603 -0.37119499 1.905766e-42
-12.81940000 -0.85632300 434.83099000 0.49836999 0.78796202 -0.36158401 1.905766e-42
-14.04630000 0.31651601 435.43100000 0.51939797 0.77881801 -0.35166499 1.905766e-42
-15.26970000 1.43428000 436.13400000 0.53904098 0.76893902 -0.34375501 1.905766e-42
-16.47550000 2.65166000 436.68500000 0.55910099 0.75725901 -0.33758700 1.905766e-42
-16.61689900 3.55661010 438.23401000 0.56178302 0.75411999 -0.34015200 1.905766e-42
-15.95750000 4.01188990 439.84601000 0.55055797 0.75927198 -0.34697601 1.905766e-42
-15.83250000 4.65197990 441.52399000 0.54184699 0.76291800 -0.35264400 1.905766e-42
-15.24150000 5.01402000 443.18500000 0.53128099 0.76542503 -0.36313301 1.905766e-42
-15.09300000 5.58289000 444.88599000 0.52280098 0.76619601 -0.37366101 1.905766e-42
-14.98090000 6.03768010 446.62399000 0.51408398 0.76558399 -0.38677999 1.905766e-42
-14.49050000 6.59134010 448.26501000 0.50391102 0.76355797 -0.40379900 1.905766e-42
-13.90370000 7.27681020 449.82300000 0.50362301 0.76316297 -0.40490299 1.905766e-42
-13.68470000 7.97690010 451.46701000 0.50449997 0.76290900 -0.40428901 1.905766e-42
-12.64800000 8.40021040 452.87601000 0.50398999 0.76375002 -0.40333700 1.905766e-42
-12.14920000 8.92024990 454.52499000 0.50435603 0.76403701 -0.40233299 1.905766e-42
-12.08000000 9.47095010 456.23801000 0.50598001 0.76335901 -0.40158099 1.905766e-42
-11.98150000 9.98884010 457.95901000 0.50813699 0.76213300 -0.40118599 1.905766e-42
-11.49010000 10.49760000 459.61401000 0.50969201 0.76104701 -0.40127599 1.905766e-42
-10.24130000 10.67640000 460.89801000 0.50365901 0.76102501 -0.40886301 1.905766e-42
-8.91897960 10.83210000 462.10901000 0.49705601 0.76156098 -0.41588399 1.905766e-42
-9.11371040 11.58800000 463.73099000 0.49945900 0.75452697 -0.42570999 1.905766e-42
-8.78814980 12.30690000 465.34900000 0.49993500 0.74803698 -0.43647000 1.905766e-42
-8.97441960 13.30180000 466.83701000 0.50419497 0.73822898 -0.44811299 1.905766e-42
-8.85149960 14.24130000 468.36801000 0.50722498 0.72860497 -0.46028000 1.905766e-42
-8.84731960 15.26060000 469.85101000 0.51130003 0.71766299 -0.47279200 1.905766e-42
-9.09605030 16.30390000 471.29700000 0.51363897 0.70363700 -0.49098900 1.905766e-42
-9.05331040 17.37879900 472.73999000 0.51150501 0.68792701 -0.51489699 1.905766e-42
-9.49981020 18.34300000 474.19299000 0.51192099 0.67107099 -0.53628403 1.905766e-42
-9.30062010 19.50700000 475.55099000 0.50541598 0.65775001 -0.55849701 1.905766e-42
-8.71292020 20.57280000 476.87799000 0.49733201 0.64447600 -0.58078498 1.905766e-42
-8.10667040 21.57970000 478.24100000 0.48921800 0.63044202 -0.60266799 1.905766e-42
-8.40878010 22.80369900 479.52600000 0.48373401 0.61638099 -0.62135100 1.905766e-42
-8.22181990 23.94759900 480.90302000 0.47674900 0.60093898 -0.64154702 1.905766e-42
-7.80867000 24.95830000 482.33401000 0.47478101 0.58925301 -0.65373099 1.905766e-42
-7.95416020 26.20060000 483.62799000 0.47512901 0.57807600 -0.66338497 1.905766e-42
-7.45580010 27.52870000 484.73599000 0.47560701 0.56697398 -0.67256099 1.905766e-42
-7.18805980 28.89250000 485.88000000 0.47651699 0.55479002 -0.68201101 1.905766e-42
-6.46093990 30.06510000 487.03601000 0.47775599 0.54313099 -0.69047701 1.905766e-42
-6.33002000 31.45140100 488.17700000 0.47964400 0.52873600 -0.70027101 1.905766e-42
-6.33608010 32.71270000 489.46100000 0.48194399 0.51294500 -0.71036398 1.905766e-42
-6.16094020 34.04309800 490.66101000 0.48480001 0.49544799 -0.72076398 1.905766e-42
-5.79745010 35.37970000 491.81000000 0.47790599 0.46967000 -0.74230498 1.905766e-42
-5.23379990 36.71009800 492.88400000 0.47021899 0.44436401 -0.76251900 1.905766e-42
-4.82477000 38.16780100 493.85699000 0.46330899 0.41938299 -0.78068000 1.905766e-42
-4.28836010 39.57310100 494.84601000 0.45580700 0.39611000 -0.79707998 1.905766e-42
-4.16926000 41.19049800 495.62701000 0.45134300 0.37378401 -0.81029302 1.905766e-42
-4.52756980 42.79999900 496.34900000 0.45054999 0.35401601 -0.81955898 1.905766e-42
-3.35726000 43.87120100 497.19901000 0.43967801 0.34119800 -0.83082300 1.905766e-42
-1.81015000 43.92599900 498.11700000 0.42195299 0.33852801 -0.84104401 1.905766e-42
-0.21421801 43.98989900 498.94699000 0.40042499 0.33652699 -0.85229599 1.905766e-42
1.21982000 44.51350000 499.90100000 0.37506500 0.33047801 -0.86608899 1.905766e-42
2.90291000 44.04010000 500.32901000 0.34662899 0.32940599 -0.87826002 1.905766e-42
4.63556000 43.89519900 500.79501000 0.31384301 0.32400000 -0.89248300 1.905766e-42
6.26621010 44.09859800 501.52899000 0.27726001 0.31329700 -0.90828001 1.905766e-42
8.01801010 44.01720000 501.93500000 0.24109100 0.30217600 -0.92226100 1.905766e-42
9.76926040 43.98529800 502.35001000 0.20496400 0.28810000 -0.93540800 1.905766e-42
11.50540000 43.91330000 502.81900000 0.17934300 0.28157300 -0.94263101 1.905766e-42
13.18610000 43.27010000 502.77600000 0.16914301 0.28700501 -0.94287801 1.905766e-42
14.94340000 43.35620100 503.15601000 0.16426700 0.29688901 -0.94067699 1.905766e-42
16.72110000 43.23799900 503.41299000 0.15793300 0.30414799 -0.93944198 1.905766e-42
18.46550000 43.22110000 503.85699000 0.14644200 0.31419501 -0.93799597 1.905766e-42
20.14200000 42.57849900 503.72900000 0.12396300 0.32577899 -0.93728399 1.905766e-42
21.88929900 42.19490100 503.92801000 0.10169300 0.33613101 -0.93630898 1.905766e-42
23.60070000 41.65090200 503.80499000 0.07822960 0.34431401 -0.93559003 1.905766e-42
25.19790100 40.87680100 503.50500000 0.05536400 0.35066599 -0.93486297 1.905766e-42
26.82270100 40.10649900 503.42401000 0.03300690 0.35602799 -0.93389201 1.905766e-42
28.34100000 39.17639900 503.16000000 0.01246120 0.36058900 -0.93264103 1.905766e-42
29.97390000 38.45230100 502.93799000 -0.00808790 0.36426800 -0.93125898 1.905766e-42
31.46060000 37.54340000 502.48700000 -0.03015910 0.36983800 -0.92860699 1.905766e-42
32.81969800 36.50630200 501.92401000 -0.05110170 0.37597999 -0.92521799 1.905766e-42
34.31919900 35.62459900 501.46100000 -0.07339370 0.38120899 -0.92157102 1.905766e-42
35.81359900 34.71600000 501.03500000 -0.09498730 0.38628399 -0.91747600 1.905766e-42
37.57939900 34.52310200 500.74399000 -0.12036900 0.38627100 -0.91449702 1.905766e-42
39.34579800 34.41140000 500.41599000 -0.14555800 0.38482001 -0.91144198 1.905766e-42
41.09719800 34.37850200 500.00201000 -0.17012300 0.38216501 -0.90829903 1.905766e-42
42.83869900 34.35350000 499.54800000 -0.19360401 0.37877700 -0.90501100 1.905766e-42
44.49630000 35.04029800 499.40399000 -0.21809500 0.36979201 -0.90315503 1.905766e-42
46.12060200 34.54539900 498.80600000 -0.23890799 0.37016901 -0.89771801 1.905766e-42
47.84859800 34.24079900 498.40500000 -0.25975099 0.36855900 -0.89257699 1.905766e-42
48.83689900 32.99840200 497.55701000 -0.26937199 0.37908801 -0.88528597 1.905766e-42
50.14720200 32.02890000 496.79300000 -0.28279200 0.38747501 -0.87743503 1.905766e-42
51.03830000 30.74390000 495.90100000 -0.29104501 0.40187001 -0.86821300 1.905766e-42
52.05360000 29.57370000 494.98499000 -0.30087799 0.41617399 -0.85806298 1.905766e-42
53.41890000 28.81290100 494.09201000 -0.31485599 0.42595801 -0.84818900 1.905766e-42
54.46379900 27.74959900 493.08401000 -0.32393101 0.44078800 -0.83712298 1.905766e-42
55.78580100 26.98160000 492.13400000 -0.33362499 0.45229301 -0.82711899 1.905766e-42
56.65520100 25.80530000 491.08499000 -0.34033701 0.47195601 -0.81328303 1.905766e-42
57.66140000 24.78450000 489.99600000 -0.34931201 0.49135900 -0.79783899 1.905766e-42
58.80450100 23.92610000 488.90201000 -0.36024401 0.50993001 -0.78114998 1.905766e-42
59.69660200 22.85479900 487.76300000 -0.37039900 0.53220803 -0.76128799 1.905766e-42
60.56969800 21.77570000 486.61700000 -0.38131499 0.55457997 -0.73962200 1.905766e-42
61.94060100 21.18450000 485.61200000 -0.39590800 0.57013398 -0.71986401 1.905766e-42
62.97720000 20.41530000 484.35699000 -0.40951300 0.58876503 -0.69688898 1.905766e-42
63.86710000 19.50519900 483.08401000 -0.41857600 0.60609102 -0.67634898 1.905766e-42
65.09059900 18.84450000 481.94101000 -0.42929900 0.61923701 -0.65745598 1.905766e-42
66.00299800 18.19120000 480.53400000 -0.43993101 0.63274503 -0.63725501 1.905766e-42
67.13659700 17.79870000 479.19199000 -0.45157099 0.64364201 -0.61790699 1.905766e-42
68.32700300 17.29439900 477.94000000 -0.46335399 0.65401602 -0.59796798 1.905766e-42
69.24700200 16.77409900 476.48300000 -0.47529101 0.66426301 -0.57693398 1.905766e-42
69.96479800 16.23320000 474.92300000 -0.48744199 0.67363501 -0.55553299 1.905766e-42
70.72139700 15.59610000 473.41901000 -0.49366501 0.69147903 -0.52740097 1.905766e-42
72.05410000 15.45210000 472.21799000 -0.49750200 0.69997001 -0.51238000 1.905766e-42
72.44500000 14.65800000 470.64999000 -0.49625301 0.71862900 -0.48714000 1.905766e-42
73.37290200 14.38830000 469.13199000 -0.49883699 0.72968102 -0.46768400 1.905766e-42
74.21730000 14.02330000 467.58499000 -0.50131500 0.74026400 -0.44798800 1.905766e-42
75.21029700 13.66850000 466.12601000 -0.50492001 0.74820602 -0.43040001 1.905766e-42
75.72779800 13.14620000 464.48300000 -0.50693101 0.75706297 -0.41216099 1.905766e-42
76.65149700 12.73330000 462.99399000 -0.51141500 0.76181698 -0.39760500 1.905766e-42
77.23500100 12.09660000 461.41501000 -0.51454401 0.76642001 -0.38450500 1.905766e-42
77.87500000 11.49510000 459.84399000 -0.51850200 0.76872897 -0.37444800 1.905766e-42
78.69840200 11.13180000 458.28500000 -0.49194700 0.77561003 -0.39549601 1.905766e-42
78.88780200 10.68420000 456.55200000 -0.47015601 0.77973598 -0.41347900 1.905766e-42
79.64949800 10.82440000 454.92700000 -0.44645700 0.78020900 -0.43812200 1.905766e-42
80.31140100 10.62220000 453.26501000 -0.42494899 0.77892101 -0.46119499 1.905766e-42
80.36889600 9.87944980 451.62701000 -0.39208800 0.79668200 -0.45996201 1.905766e-42
81.55049900 9.50467970 450.32199000 -0.36563501 0.80009598 -0.47556001 1.905766e-42
81.98739600 8.65445040 448.79599000 -0.32994300 0.81938303 -0.46877399 1.905766e-42
82.57109800 8.04705050 447.20599000 -0.29321200 0.83886200 -0.45862401 1.905766e-42
83.51590000 7.03107020 446.05899000 -0.25784200 0.85640299 -0.44731501 1.905766e-42
83.17910000 6.37587020 444.41599000 -0.21880300 0.89235002 -0.39476201 1.905766e-42
82.75240300 5.54589990 442.87701000 -0.18522500 0.92822498 -0.32262999 1.905766e-42
