# .PCD v0.7 - Point Cloud Data file format
# 4 131 0
# 1 20 0
# 21 62 0
# 63 95 0
# 96 131 0
VERSION 0.7
FIELDS x y z normal_x normal_y normal_z curvature
SIZE 4 4 4 4 4 4 4
TYPE F F F F F F F
COUNT 1 1 1 1 1 1 1
WIDTH 131
HEIGHT 1
VIEWPOINT 0 0 0 1 0 0 0
POINTS 131
DATA ascii
-11.4472 36.793499 522.92102 -0.147358 0.97997898 -0.133889 1.9057659e-42
-9.6921597 37.139099 523.12097 -0.12549999 0.98248702 -0.13772801 1.9057659e-42
-8.39149 37.453701 524.32501 -0.118088 0.98438501 -0.13054 1.9057659e-42
-6.7860098 37.718399 525.09497 -0.103604 0.98578101 -0.132293 1.9057659e-42
-3.9737 37.8722 526.19897 -0.072580099 0.98776102 -0.13805801 1.9057659e-42
-2.6709199 37.994202 524.96301 -0.050852198 0.98701102 -0.152394 1.9057659e-42
-0.87925702 38.0807 524.81299 -0.0305642 0.98672599 -0.159493 1.9057659e-42
0.92059398 38.097301 524.797 -0.0114308 0.98643798 -0.163737 1.9057659e-42
2.6261101 38.142799 525.37097 0.00621517 0.98681903 -0.16171101 1.9057659e-42
4.3896999 38.111801 525.01202 0.024958201 0.98615003 -0.163966 1.9057659e-42
6.1097798 38.1646 525.539 0.041435599 0.98628199 -0.159784 1.9057659e-42
7.7725501 38.022301 524.86499 0.0524185 0.98552698 -0.161208 1.9057659e-42
9.5673304 37.897701 524.80798 0.063827701 0.98558098 -0.156707 1.9057659e-42
11.2671 37.682201 525.35901 0.077473201 0.98611897 -0.14685901 1.9057659e-42
13.0602 37.640598 525.51099 0.0912003 0.98657298 -0.135489 1.9057659e-42
14.7202 37.445 524.84399 0.094770901 0.987225 -0.12808 1.9057659e-42
16.503799 37.2062 524.79999 0.117096 0.98317701 -0.140183 1.9057659e-42
18.2854 36.959999 524.87201 0.14457799 0.97769099 -0.152375 1.9057659e-42
20.039499 36.5737 524.75299 0.176897 0.970213 -0.165509 1.9057659e-42
21.775999 36.202301 524.45898 0.209741 0.96189898 -0.175382 1.9057659e-42
23.248501 35.613899 523.60699 0.23553699 0.95415002 -0.184717 1.9057659e-42
23.906 35.172199 521.98999 0.243348 0.94804901 -0.204904 1.9057659e-42
23.384001 35.019199 520.27502 0.234226 0.94321001 -0.23557 1.9057659e-42
23.052999 34.539299 518.57202 0.225712 0.93489498 -0.27390701 1.9057659e-42
22.5961 34.1035 516.88599 0.211605 0.92473102 -0.31637999 1.9057659e-42
22.4601 33.4547 515.21301 0.19817699 0.91168201 -0.359947 1.9057659e-42
22.386 32.766899 513.55103 0.181852 0.897066 -0.40274301 1.9057659e-42
22.3876 32.012901 511.91599 0.171069 0.88247102 -0.43815601 1.9057659e-42
22.6334 31.1064 510.38101 0.173316 0.86907601 -0.46332401 1.9057659e-42
22.5732 30.367399 508.741 0.172048 0.85717303 -0.48544201 1.9057659e-42
22.6908 29.508699 507.16299 0.16686 0.85257798 -0.49524501 1.9057659e-42
23.1092 28.5944 505.67001 0.163488 0.84919602 -0.50213301 1.9057659e-42
23.538401 27.7209 504.15601 0.159456 0.84507799 -0.51030999 1.9057659e-42
23.9387 26.7386 502.702 0.154246 0.83998901 -0.520217 1.9057659e-42
24.8487 25.6366 501.60699 0.152569 0.83603197 -0.52704197 1.9057659e-42
25.4214 24.7314 500.16101 0.14520299 0.82966399 -0.53904903 1.9057659e-42
26.1873 23.711599 498.89001 0.140366 0.82214803 -0.55169702 1.9057659e-42
27.0355 22.7812 497.604 0.13793901 0.81487399 -0.562985 1.9057659e-42
27.824499 21.7896 496.32599 0.13642401 0.80754697 -0.57380801 1.9057659e-42
28.768 20.7719 495.17899 0.138868 0.80125701 -0.581981 1.9057659e-42
29.643801 19.750401 493.98401 0.142106 0.79477102 -0.590038 1.9057659e-42
30.736401 18.742701 492.96799 0.14963201 0.78981102 -0.594818 1.9057659e-42
31.8008 17.760401 491.89999 0.153551 0.78793198 -0.59630901 1.9057659e-42
32.515202 16.7017 490.63101 0.153019 0.78495401 -0.60035998 1.9057659e-42
33.819599 15.7858 489.79501 0.1591 0.78383899 -0.600236 1.9057659e-42
34.757599 14.7627 488.64899 0.16081101 0.781407 -0.60294503 1.9057659e-42
36.1157 13.7152 488.103 0.16904899 0.78065997 -0.60165799 1.9057659e-42
37.112202 12.7874 486.92499 0.173978 0.77734798 -0.60453498 1.9057659e-42
38.271099 11.7745 485.992 0.184095 0.77346498 -0.606516 1.9057659e-42
39.4814 10.816 485.06699 0.19735 0.76926601 -0.60768598 1.9057659e-42
39.190399 9.7625198 483.63599 0.18643101 0.76358497 -0.61820799 1.9057659e-42
38.6096 8.7110395 482.29599 0.171352 0.75752598 -0.62991601 1.9057659e-42
37.737099 7.8116002 481.004 0.15275501 0.75105298 -0.64232802 1.9057659e-42
37.540401 6.6682801 479.62701 0.142652 0.74403501 -0.65273398 1.9057659e-42
37.157501 5.5441699 478.27499 0.141504 0.72714198 -0.671745 1.9057659e-42
36.1134 4.8274102 476.996 0.19887701 0.72646201 -0.65780002 1.9057659e-42
35.829399 3.69314 475.62701 0.245747 0.71230102 -0.65744603 1.9057659e-42
35.325001 2.6350701 474.26099 0.293134 0.70254999 -0.64845598 1.9057659e-42
35.102299 1.37187 472.99799 0.33053401 0.69013101 -0.64379102 1.9057659e-42
34.458801 0.38590699 471.63699 0.37347299 0.68170202 -0.62912703 1.9057659e-42
33.986198 -0.64246899 470.237 0.41711599 0.671345 -0.612625 1.9057659e-42
33.457298 -1.6325099 468.82999 0.46118501 0.65994698 -0.59311002 1.9057659e-42
32.560299 -2.2780299 467.409 0.50902599 0.64786601 -0.56671202 1.9057659e-42
31.74 -0.74072999 467.86099 0.52208 0.65629601 -0.54470903 1.9057659e-42
31.462601 0.55463201 469.07901 0.50647497 0.67185003 -0.54046398 1.9057659e-42
31.1758 1.81912 470.328 0.48751301 0.68951398 -0.535631 1.9057659e-42
30.860001 2.93485 471.70499 0.46279201 0.70991999 -0.53088301 1.9057659e-42
30.0777 4.2586002 472.64001 0.45741999 0.73202699 -0.50488001 1.9057659e-42
29.6754 5.2737498 474.07101 0.42514601 0.76044297 -0.49089399 1.9057659e-42
28.723801 6.4333901 475.06601 0.41467199 0.782812 -0.46395299 1.9057659e-42
27.7479 7.4728298 476.16501 0.39379001 0.804555 -0.44454601 1.9057659e-42
26.457001 8.6090403 476.69601 0.38681901 0.82719201 -0.40758401 1.9057659e-42
25.178699 9.6051397 477.48001 0.362905 0.85152102 -0.37843299 1.9057659e-42
23.7768 10.5049 478.16199 0.33425701 0.87747198 -0.34396899 1.9057659e-42
22.409599 11.2291 479.082 0.292743 0.89838803 -0.32741401 1.9057659e-42
20.9032 11.8748 479.82599 0.27260801 0.902897 -0.33235899 1.9057659e-42
19.220501 12.5025 479.94501 0.26497501 0.915299 -0.303341 1.9057659e-42
17.510099 13.0624 479.979 0.200381 0.92737103 -0.315961 1.9057659e-42
15.7707 13.5255 479.98999 0.145622 0.93367702 -0.32717201 1.9057659e-42
14.0806 13.6579 480.595 0.106182 0.93287998 -0.34417999 1.9057659e-42
12.2975 13.8444 480.755 0.072609402 0.934421 -0.34869 1.9057659e-42
10.6626 13.9407 480.008 0.049343001 0.939722 -0.338359 1.9057659e-42
8.8663597 13.8318 479.96799 0.0036538499 0.93643397 -0.350824 1.9057659e-42
7.0769501 13.6389 479.99701 -0.045009602 0.92993498 -0.364959 1.9057659e-42
5.4175901 13.3199 479.37701 -0.089104898 0.92005998 -0.381511 1.9057659e-42
3.85238 13.0004 478.547 -0.126681 0.90564698 -0.404668 1.9057659e-42
2.2950301 12.3682 477.90302 -0.151538 0.88986701 -0.43031701 1.9057659e-42
0.63410699 11.715 477.66901 -0.15877999 0.87826598 -0.45104101 1.9057659e-42
-0.42802599 11.1817 476.31699 -0.17567199 0.85961097 -0.47979999 1.9057659e-42
-1.7475899 10.2659 475.505 -0.19075499 0.83768803 -0.51175302 1.9057659e-42
-2.96945 9.3466702 474.55499 -0.20846599 0.81139302 -0.54606199 1.9057659e-42
-4.1173902 8.2925596 473.655 -0.21976499 0.792202 -0.569314 1.9057659e-42
-4.88697 7.21808 472.43301 -0.233669 0.78165901 -0.57827997 1.9057659e-42
-5.3938799 6.1943402 471.04199 -0.249359 0.77873898 -0.57566202 1.9057659e-42
-6.16571 4.9479499 469.99701 -0.261244 0.77810901 -0.57122397 1.9057659e-42
-7.75283 4.1852498 470.37 -0.25057 0.76898402 -0.58811402 1.9057659e-42
-7.9626098 5.2893901 471.776 -0.22908799 0.76340199 -0.60393399 1.9057659e-42
-8.5181303 6.1753898 473.241 -0.205576 0.75906998 -0.61769801 1.9057659e-42
-8.5290203 7.4604101 474.50201 -0.184205 0.76209301 -0.62071198 1.9057659e-42
-8.5774403 8.6848402 475.82001 -0.157059 0.76318598 -0.62680101 1.9057659e-42
-8.5508299 9.8549404 477.18799 -0.127003 0.762851 -0.63397902 1.9057659e-42
-9.0809097 10.9684 478.49899 -0.095706299 0.75395 -0.64992303 1.9057659e-42
-9.6386805 12.0274 479.84399 -0.066179 0.74186498 -0.66727602 1.9057659e-42
-10.0618 13.0623 481.254 -0.036961101 0.72901797 -0.683496 1.9057659e-42
-10.283 14.3038 482.539 -0.0100148 0.72186297 -0.69196302 1.9057659e-42
-10.4335 15.5498 483.82901 -0.00050499901 0.73743302 -0.67541999 1.9057659e-42
-10.9874 16.4916 485.259 -0.0014159899 0.75042999 -0.66094798 1.9057659e-42
-10.7651 17.767099 486.51001 0.0127311 0.764893 -0.644032 1.9057659e-42
-11.2131 18.931801 487.80701 0.0034149 0.77395803 -0.633228 1.9057659e-42
-11.5063 20.001699 489.224 -0.0048101 0.78247601 -0.62266201 1.9057659e-42
-11.7272 21.140499 490.60101 -0.0123719 0.79053998 -0.61228502 1.9057659e-42
-12.1305 22.1991 492 -0.023355501 0.800129 -0.59937298 1.9057659e-42
-12.3341 23.307699 493.40302 -0.030717 0.81046897 -0.584975 1.9057659e-42
-12.9222 24.228201 494.83401 -0.043051898 0.82102001 -0.56927299 1.9057659e-42
-13.3684 25.216999 496.26999 -0.053346999 0.83165002 -0.55273199 1.9057659e-42
-13.53 26.1856 497.77899 -0.0601248 0.84195399 -0.53618801 1.9057659e-42
-13.9984 26.988701 499.32001 -0.071109198 0.85067803 -0.52085602 1.9057659e-42
-14.2775 27.931499 500.828 -0.075607903 0.85619497 -0.51109099 1.9057659e-42
-14.6495 28.8505 502.32999 -0.081808902 0.86204499 -0.50018501 1.9057659e-42
-15.1043 29.727699 503.83499 -0.089060999 0.86843902 -0.48773101 1.9057659e-42
-15.5305 30.508301 505.39999 -0.096061103 0.87560397 -0.47338101 1.9057659e-42
-15.7326 31.4168 506.94 -0.100443 0.88398898 -0.45659 1.9057659e-42
-15.5228 32.143398 508.57401 -0.107285 0.89625198 -0.430374 1.9057659e-42
-15.354 32.700802 510.27701 -0.12778801 0.91346502 -0.38633099 1.9057659e-42
-15.8847 32.9944 511.97198 -0.15121201 0.92758101 -0.341656 1.9057659e-42
-15.6072 33.8857 513.51099 -0.15937801 0.93856299 -0.30610001 1.9057659e-42
-14.9924 34.573601 515.05603 -0.163378 0.94737798 -0.27528501 1.9057659e-42
-14.6425 35.137699 516.729 -0.170256 0.95501 -0.242835 1.9057659e-42
-13.8604 35.658901 518.26398 -0.16624901 0.96261603 -0.21384899 1.9057659e-42
-13.2418 36.188801 519.87 -0.160991 0.96996599 -0.18234199 1.9057659e-42
-12.452 36.529598 521.45099 -0.154892 0.97571599 -0.154879 1.9057659e-42
