# .PCD v0.7 - Point Cloud Data file format
# 5 172 0
# 1 41 0
# 42 85 0
# 86 129 0
# 130 159 0
# 160 172 0
VERSION 0.7
FIELDS x y z normal_x normal_y normal_z curvature
SIZE 4 4 4 4 4 4 4
TYPE F F F F F F F
COUNT 1 1 1 1 1 1 1
WIDTH 172
HEIGHT 1
VIEWPOINT 0 0 0 1 0 0 0
POINTS 172
DATA ascii
7.17153980 -12.61370000 469.58200000 0.44626400 -0.87282699 0.19753700 1.905766e-42
8.13043020 -12.32680000 469.42200000 0.44577900 -0.87503201 0.18867700 1.905766e-42
9.32477000 -11.54040000 470.51501000 0.43614501 -0.87952000 0.19031900 1.905766e-42
10.62740000 -10.67500000 471.40601000 0.42904401 -0.88298798 0.19040200 1.905766e-42
11.70590000 -9.88749030 472.61301000 0.41435701 -0.88962901 0.19201100 1.905766e-42
12.68740000 -9.07186990 473.88300000 0.39502400 -0.89858299 0.19106300 1.905766e-42
13.30500000 -8.31206990 475.39301000 0.37473300 -0.90684003 0.19291601 1.905766e-42
13.90730000 -7.80529020 477.01199000 0.35320300 -0.91502398 0.19487999 1.905766e-42
14.25530000 -7.56721020 478.76199000 0.33108500 -0.92206198 0.20046200 1.905766e-42
15.12940000 -6.88167000 480.17801000 0.30744201 -0.93109900 0.19630000 1.905766e-42
15.88690000 -6.12793020 481.62701000 0.28300500 -0.93941802 0.19339301 1.905766e-42
16.59320100 -5.85678010 483.26001000 0.25717601 -0.94659197 0.19448200 1.905766e-42
17.58869900 -5.22651000 484.62100000 0.23243099 -0.95385599 0.19009100 1.905766e-42
18.59630000 -4.79691980 486.04901000 0.20766200 -0.96017599 0.18691701 1.905766e-42
19.53319900 -4.17713020 487.45599000 0.18933401 -0.96389800 0.18722600 1.905766e-42
21.11350100 -3.76239990 488.21100000 0.18226500 -0.96752298 0.17515500 1.905766e-42
22.72180000 -3.52900000 488.98499000 0.17515400 -0.97076601 0.16411400 1.905766e-42
24.38299900 -3.18574000 489.58701000 0.16959800 -0.97377098 0.15167999 1.905766e-42
25.78930100 -2.75903010 490.62601000 0.15871900 -0.97617400 0.14796300 1.905766e-42
27.45620000 -2.40438010 491.20599000 0.15290900 -0.97865701 0.13729601 1.905766e-42
29.17110100 -1.89937000 491.41599000 0.15014300 -0.98104101 0.12253600 1.905766e-42
30.78739900 -1.45395000 492.07101000 0.14779000 -0.98207098 0.11702500 1.905766e-42
32.34040100 -1.38178000 492.97800000 0.15140200 -0.98130900 0.11879000 1.905766e-42
33.88999900 -1.03933000 493.82700000 0.15547299 -0.98049998 0.12020300 1.905766e-42
35.56050100 -0.70825398 494.41000000 0.16216800 -0.97978002 0.11718600 1.905766e-42
37.32049900 -0.39437601 494.62000000 0.17189699 -0.97912800 0.10844000 1.905766e-42
39.00059900 0.01444940 495.12000000 0.17914900 -0.97825199 0.10453800 1.905766e-42
40.53960000 0.30264601 496.00800000 0.18296100 -0.97727501 0.10704600 1.905766e-42
42.06670000 0.73848802 496.85501000 0.18482900 -0.97679502 0.10821400 1.905766e-42
43.80839900 1.15469000 497.03799000 0.18353400 -0.97831899 0.09595270 1.905766e-42
45.46620200 1.52420000 497.63400000 0.17879100 -0.97983199 0.08923370 1.905766e-42
47.06160000 1.82947000 498.40900000 0.17252500 -0.98136002 0.08465990 1.905766e-42
48.73490100 2.45582010 498.62799000 0.17073700 -0.98263901 0.07258820 1.905766e-42
50.34030200 2.52361010 499.43900000 0.16420799 -0.98411101 0.06753830 1.905766e-42
51.98970000 2.85270000 500.07999000 0.15891699 -0.98549002 0.05962050 1.905766e-42
53.68780100 3.23967000 500.53500000 0.15680900 -0.98639101 0.04943180 1.905766e-42
55.14049900 3.39286990 501.58701000 0.15226001 -0.98711401 0.04922080 1.905766e-42
56.91859800 3.65269990 501.69000000 0.15468800 -0.98722899 0.03807990 1.905766e-42
58.54539900 3.90257000 502.41901000 0.15198199 -0.98773098 0.03590080 1.905766e-42
60.20489900 4.31408980 502.98199000 0.14966100 -0.98819000 0.03287970 1.905766e-42
61.77019900 4.68451980 503.79001000 0.14541000 -0.98877198 0.03442400 1.905766e-42
62.25199900 4.73748020 505.52301000 0.13784100 -0.98906702 0.05239930 1.905766e-42
62.25330000 4.78619000 507.32300000 0.13142000 -0.98870498 0.07204790 1.905766e-42
62.31560100 4.92588000 509.11600000 0.12602800 -0.98791403 0.09023610 1.905766e-42
62.37350100 5.17111020 510.89801000 0.12153900 -0.98677999 0.10721000 1.905766e-42
62.21189900 5.33203980 512.68402000 0.11685100 -0.98533398 0.12434900 1.905766e-42
61.95040100 5.51650000 514.45502000 0.11045200 -0.98371100 0.14182299 1.905766e-42
60.39220000 5.41836980 515.35101000 0.10040100 -0.98264199 0.15599300 1.905766e-42
58.94680000 5.59495020 516.40900000 0.08768990 -0.98105198 0.17276400 1.905766e-42
57.42179900 5.59181020 517.36499000 0.07318680 -0.97906500 0.18993300 1.905766e-42
55.81639900 5.60798980 518.17902000 0.05752270 -0.97659498 0.20725299 1.905766e-42
54.35010100 5.75102000 519.21301000 0.04013490 -0.97314000 0.22668700 1.905766e-42
52.68009900 5.92715980 519.86200000 0.02308460 -0.96940100 0.24439301 1.905766e-42
51.45159900 6.38165000 521.09601000 0.00681703 -0.96571702 0.25950801 1.905766e-42
49.75619900 6.32657000 521.69800000 -0.00851828 -0.96199697 0.27292699 1.905766e-42
48.17200100 6.63909010 522.49402000 -0.02491350 -0.95741200 0.28764701 1.905766e-42
46.56549800 6.83536010 523.28198000 -0.04126540 -0.95230901 0.30233201 1.905766e-42
45.27360200 7.36588000 524.41699000 -0.05822800 -0.94625300 0.31814301 1.905766e-42
44.13579900 7.98351000 525.66803000 -0.07518250 -0.93958402 0.33395901 1.905766e-42
42.44720100 8.20538040 526.25000000 -0.08817070 -0.93284601 0.34931901 1.905766e-42
40.88589900 8.69694040 526.99902000 -0.09981030 -0.92509198 0.36639199 1.905766e-42
39.63980100 9.36308960 528.11401000 -0.11423900 -0.91665798 0.38299799 1.905766e-42
38.08179900 9.72758010 528.93903000 -0.12648199 -0.90779102 0.39989701 1.905766e-42
36.93970100 10.38610000 530.16400000 -0.14193800 -0.89805901 0.41634601 1.905766e-42
35.67940100 11.34960000 531.01501000 -0.15646000 -0.88765901 0.43310699 1.905766e-42
34.31969800 11.94490000 532.03302000 -0.17135800 -0.87639499 0.45007601 1.905766e-42
33.25360100 12.77410000 533.22302000 -0.18752900 -0.86466998 0.46602401 1.905766e-42
32.42359900 13.79640000 534.45001000 -0.20297700 -0.85444301 0.47825599 1.905766e-42
31.02350000 14.38460000 535.41602000 -0.21727000 -0.84314197 0.49183899 1.905766e-42
29.80530000 15.34920000 536.32501000 -0.23261200 -0.83115202 0.50505197 1.905766e-42
28.34709900 16.20360000 536.94397000 -0.24693000 -0.81873101 0.51836801 1.905766e-42
26.97279900 17.08799900 537.69897000 -0.26206401 -0.80568600 0.53121799 1.905766e-42
26.19170000 18.32630000 538.74597000 -0.27809399 -0.79297000 0.54209101 1.905766e-42
24.55050100 18.91410100 539.19397000 -0.29109299 -0.78014803 0.55374497 1.905766e-42
23.25720000 19.93280000 539.92200000 -0.30676901 -0.76568800 0.56534499 1.905766e-42
22.21450000 21.06250000 540.85797000 -0.32320201 -0.75062698 0.57628101 1.905766e-42
21.09790000 22.25379900 541.61603000 -0.33947599 -0.73464900 0.58740699 1.905766e-42
19.75390100 23.29870000 542.20001000 -0.35496899 -0.71810001 0.59860700 1.905766e-42
18.69190000 24.54229900 542.95300000 -0.37094200 -0.70089400 0.60922098 1.905766e-42
17.72360000 25.82200100 543.76801000 -0.38667801 -0.68431598 0.61821699 1.905766e-42
16.40399900 26.93910000 544.26801000 -0.40246099 -0.66801602 0.62592298 1.905766e-42
15.57270000 28.27960000 545.13599000 -0.41940001 -0.65333998 0.63027799 1.905766e-42
14.62600000 29.65480000 545.80798000 -0.43732101 -0.63839900 0.63340098 1.905766e-42
13.58850000 30.95450000 546.49701000 -0.45603600 -0.62333798 0.63520098 1.905766e-42
12.43210000 32.28580100 546.85797000 -0.47493601 -0.60676801 0.63739198 1.905766e-42
11.24980000 33.60800200 547.16498000 -0.49385500 -0.58952999 0.63918900 1.905766e-42
9.74872020 33.79700100 546.18903000 -0.49887300 -0.57421702 0.64915299 1.905766e-42
8.28707030 33.94630100 545.14899000 -0.50295901 -0.56040400 0.65801197 1.905766e-42
7.07117990 33.42409900 543.92902000 -0.50023699 -0.55421901 0.66528499 1.905766e-42
5.61287020 33.47140100 542.87500000 -0.50387800 -0.54323602 0.67156601 1.905766e-42
4.27013020 33.38349900 541.67999000 -0.50688499 -0.53471398 0.67612797 1.905766e-42
2.93265010 33.09470000 540.51001000 -0.50903797 -0.52746099 0.68019402 1.905766e-42
1.41157000 33.47950000 539.62799000 -0.51731700 -0.51352000 0.68460298 1.905766e-42
0.01043690 33.42810100 538.49902000 -0.52103603 -0.50353700 0.68918198 1.905766e-42
-1.36849000 33.33879900 537.34601000 -0.52406299 -0.49386701 0.69386899 1.905766e-42
-2.49436000 32.68270100 536.10400000 -0.52132201 -0.49060100 0.69823599 1.905766e-42
-3.86181000 32.40910000 534.96600000 -0.52250701 -0.48256600 0.70293498 1.905766e-42
-5.36386010 32.69530100 534.01599000 -0.52869803 -0.46876201 0.70762998 1.905766e-42
-6.81314990 32.69609800 532.94897000 -0.53385800 -0.45819601 0.71066999 1.905766e-42
-8.18902020 32.70380000 531.78802000 -0.53930300 -0.44914001 0.71233797 1.905766e-42
-9.60359000 32.87170000 530.68799000 -0.54647899 -0.43934399 0.71297801 1.905766e-42
-10.99220000 33.04850000 529.55603000 -0.55392402 -0.43048000 0.71263999 1.905766e-42
-12.16750000 32.15549900 528.52600000 -0.55502403 -0.43153799 0.71114302 1.905766e-42
-12.94710000 31.08519900 527.30701000 -0.55364799 -0.43634301 0.70928001 1.905766e-42
-13.86320000 30.23480000 526.01099000 -0.55440301 -0.43833801 0.70745802 1.905766e-42
-15.16990000 30.19249900 524.77399000 -0.56284899 -0.43031099 0.70571500 1.905766e-42
-16.16160000 29.26260000 523.59399000 -0.55483103 -0.43069300 0.71180499 1.905766e-42
-17.24729900 28.63150000 522.30499000 -0.54749602 -0.42702499 0.71965098 1.905766e-42
-18.41810000 28.06530000 521.06000000 -0.54056400 -0.42545700 0.72579402 1.905766e-42
-19.29859900 26.99740000 519.90900000 -0.53009099 -0.43128899 0.73006397 1.905766e-42
-20.60450000 26.95859900 518.67102000 -0.52836001 -0.42239901 0.73648798 1.905766e-42
-21.73020000 26.39819900 517.38300000 -0.52255398 -0.41949001 0.74226999 1.905766e-42
-22.79530000 25.33919900 516.39099000 -0.51386303 -0.41990799 0.74807900 1.905766e-42
-23.98520100 24.71419900 515.19397000 -0.50834501 -0.41343001 0.75542098 1.905766e-42
-25.04579900 23.76639900 514.09100000 -0.49447000 -0.40809399 0.76743603 1.905766e-42
-26.30979900 23.16790000 512.95801000 -0.48195100 -0.39675701 0.78122199 1.905766e-42
-27.42799900 22.25530100 511.88199000 -0.46719000 -0.38612401 0.79538798 1.905766e-42
-28.51569900 21.27310000 510.83701000 -0.45207599 -0.37396699 0.80980003 1.905766e-42
-29.71080000 20.44030000 509.78000000 -0.43841100 -0.35898599 0.82396901 1.905766e-42
-30.81200000 19.43090100 508.77600000 -0.42396599 -0.34393901 0.83783001 1.905766e-42
-32.20520000 19.14170100 507.67300000 -0.41560501 -0.32631901 0.84899300 1.905766e-42
-33.43949900 18.05419900 506.94199000 -0.40024701 -0.32229701 0.85786200 1.905766e-42
-34.77730200 17.28010000 506.01999000 -0.39570600 -0.31750399 0.86174703 1.905766e-42
-36.24359900 16.69249900 505.15701000 -0.39508599 -0.31013000 0.86471200 1.905766e-42
-37.48090000 15.77360000 504.22699000 -0.39060301 -0.30942899 0.86699599 1.905766e-42
-39.02420000 15.35810000 503.39899000 -0.39260301 -0.30005601 0.86938399 1.905766e-42
-40.43429900 14.73610000 502.46899000 -0.39221200 -0.29414701 0.87157798 1.905766e-42
-41.89370000 14.18040000 501.57401000 -0.39282900 -0.28672901 0.87376899 1.905766e-42
-43.44310000 13.81260000 500.73499000 -0.39553300 -0.27651700 0.87583798 1.905766e-42
-44.73650000 12.79490000 500.00601000 -0.39206201 -0.27300400 0.87849599 1.905766e-42
-44.34120200 11.08260000 499.61700000 -0.37491700 -0.28791100 0.88121802 1.905766e-42
-43.35810100 9.58364960 499.45300000 -0.35529700 -0.30723101 0.88282102 1.905766e-42
-42.18930100 8.21603010 499.51099000 -0.33512801 -0.32805201 0.88321602 1.905766e-42
-41.28670100 6.69136000 499.19400000 -0.31274000 -0.34889600 0.88344002 1.905766e-42
-40.10279800 5.33782010 499.11499000 -0.28887701 -0.37753001 0.87978500 1.905766e-42
-39.19739900 3.83660010 498.70599000 -0.26332399 -0.40452999 0.87579399 1.905766e-42
-38.38579900 2.31282000 498.19699000 -0.23710300 -0.43052700 0.87087798 1.905766e-42
-37.48149900 0.87524998 497.60101000 -0.21046101 -0.45660400 0.86441803 1.905766e-42
-36.95690200 -0.62946397 496.76401000 -0.18394899 -0.47863299 0.85852897 1.905766e-42
-35.46620200 -1.63829000 496.77399000 -0.16176400 -0.50547397 0.84754199 1.905766e-42
-33.76979800 -2.23545000 496.70099000 -0.14343099 -0.53061497 0.83538902 1.905766e-42
-32.80659900 -3.56066990 495.95499000 -0.11835300 -0.55184799 0.82550400 1.905766e-42
-31.73830000 -4.73089980 495.10101000 -0.09372430 -0.57353002 0.81380600 1.905766e-42
-30.31699900 -5.75540020 494.68900000 -0.07226770 -0.59674299 0.79917198 1.905766e-42
-29.24550100 -6.92849020 493.84299000 -0.04801140 -0.61854398 0.78428203 1.905766e-42
-28.20630100 -8.09333040 492.94601000 -0.02368230 -0.64022499 0.76782298 1.905766e-42
-26.95730000 -9.07155990 492.09601000 -0.00141507 -0.66290301 0.74870402 1.905766e-42
-25.78490100 -10.04030000 491.13300000 0.01924120 -0.68227798 0.73084003 1.905766e-42
-24.02619900 -10.33270000 490.88599000 0.02600540 -0.70005101 0.71362001 1.905766e-42
-22.51880100 -10.92950000 490.10400000 0.04804470 -0.71545100 0.69700801 1.905766e-42
-21.31150100 -11.79220000 489.08499000 0.07203440 -0.73003000 0.67960799 1.905766e-42
-20.31230000 -12.82010000 487.99600000 0.09644040 -0.74318200 0.66210198 1.905766e-42
-19.39990000 -13.79380000 486.78799000 0.12105200 -0.75520903 0.64420998 1.905766e-42
-18.98000000 -14.76100000 485.32901000 0.14402300 -0.76444298 0.62839901 1.905766e-42
-18.16449900 -15.70820000 484.03400000 0.16956601 -0.77587998 0.60766602 1.905766e-42
-17.62970000 -16.44960000 482.48300000 0.19400799 -0.78542298 0.58776897 1.905766e-42
-16.92110100 -17.16670000 480.99200000 0.21911700 -0.79488701 0.56581002 1.905766e-42
-15.82840000 -17.88270000 479.75400000 0.24418400 -0.80455899 0.54134798 1.905766e-42
-14.50340000 -18.51960000 478.71500000 0.26758599 -0.81360298 0.51618600 1.905766e-42
-13.16840000 -18.81200000 477.54401000 0.29033500 -0.82240301 0.48924300 1.905766e-42
-11.60370000 -18.36510100 476.77399000 0.30722901 -0.82951099 0.46639201 1.905766e-42
-9.83302020 -18.04140100 476.78299000 0.31799999 -0.83515102 0.44877401 1.905766e-42
-8.27233980 -17.76149900 475.93100000 0.33640599 -0.84037000 0.42498201 1.905766e-42
-6.57102010 -17.21509900 475.71399000 0.34877801 -0.84483701 0.40571499 1.905766e-42
-4.97438000 -16.87750100 474.95499000 0.36671400 -0.84829903 0.38198099 1.905766e-42
-3.38427000 -16.54110000 474.18100000 0.38491201 -0.85071403 0.35794899 1.905766e-42
-1.79248000 -16.05909900 473.49301000 0.40178499 -0.85261601 0.33408701 1.905766e-42
-0.14493400 -15.39330000 473.20599000 0.40819401 -0.85829800 0.31097001 1.905766e-42
1.13666000 -15.26220000 471.94901000 0.42542201 -0.85912800 0.28445700 1.905766e-42
2.75811000 -14.62400000 471.49799000 0.43171099 -0.86347401 0.26084000 1.905766e-42
4.12098980 -14.26850000 470.37701000 0.44377199 -0.86462599 0.23555700 1.905766e-42
5.69802000 -13.41180000 470.23901000 0.44334400 -0.86959398 0.21737300 1.905766e-42
