# .PCD v0.7 - Point Cloud Data file format
# 3 90 0
# 1 36 0
# 37 52 0
# 53 90 0
VERSION 0.7
FIELDS x y z normal_x normal_y normal_z curvature
SIZE 4 4 4 4 4 4 4
TYPE F F F F F F F
COUNT 1 1 1 1 1 1 1
WIDTH 90
HEIGHT 1
VIEWPOINT 0 0 0 1 0 0 0
POINTS 90
DATA ascii
-3.39009000 15.15240000 420.79501000 0.57508302 0.68716598 -0.44393900 1.905766e-42
-3.74253990 15.61570000 420.79300000 0.57194698 0.69782501 -0.43118000 1.905766e-42
-3.81836010 16.49399900 422.36200000 0.52877301 0.73665798 -0.42158499 1.905766e-42
-2.63052010 16.46279900 423.71399000 0.50559902 0.74604303 -0.43334699 1.905766e-42
-1.53019000 16.55430000 425.13599000 0.48031399 0.76490700 -0.42920300 1.905766e-42
-0.53623801 16.67219900 426.63199000 0.45131999 0.78531402 -0.42378399 1.905766e-42
0.76321000 16.80550000 427.87000000 0.43181500 0.77693897 -0.45815000 1.905766e-42
2.32187010 16.42670100 428.68701000 0.42234501 0.75985199 -0.49421600 1.905766e-42
3.89719010 16.04710000 429.47101000 0.41220400 0.74189001 -0.52885401 1.905766e-42
5.13940000 16.29030000 430.75101000 0.38796300 0.74997503 -0.53574502 1.905766e-42
6.65517000 16.17300000 431.71399000 0.37458301 0.74572098 -0.55098802 1.905766e-42
8.16755960 16.15440000 432.69000000 0.35850200 0.73891401 -0.57051098 1.905766e-42
9.65062050 16.06710100 433.70700000 0.34157699 0.71949297 -0.60469401 1.905766e-42
11.34290000 15.96060000 434.31100000 0.32831100 0.69799298 -0.63641000 1.905766e-42
13.00950000 15.88050000 434.98599000 0.31162199 0.68193299 -0.66171002 1.905766e-42
14.72930000 15.37970000 435.16299000 0.30345601 0.66607499 -0.68136501 1.905766e-42
16.34569900 15.46370000 435.95099000 0.28747401 0.66149497 -0.69266403 1.905766e-42
17.83680000 15.83490000 436.88800000 0.27355400 0.65945703 -0.70020401 1.905766e-42
19.48329900 15.93420000 437.60901000 0.25887799 0.65472198 -0.71015602 1.905766e-42
21.16960000 15.98390000 438.23700000 0.22906300 0.65145397 -0.72328299 1.905766e-42
22.77160100 16.29150000 438.99701000 0.19944599 0.65770602 -0.72639102 1.905766e-42
24.35540000 16.69580100 439.75101000 0.17045200 0.66341603 -0.72857797 1.905766e-42
26.09250100 16.78450000 440.21399000 0.14276600 0.66213900 -0.73565602 1.905766e-42
27.47629900 17.40660100 441.18301000 0.11589700 0.66909200 -0.73408699 1.905766e-42
29.22190100 17.66869900 441.53500000 0.09675620 0.66331601 -0.74205798 1.905766e-42
30.82410000 18.07099900 442.25000000 0.07402320 0.65847301 -0.74895501 1.905766e-42
32.48640100 18.35110100 442.88101000 0.05089260 0.64958602 -0.75858200 1.905766e-42
34.26010100 18.39530000 442.57800000 0.03570560 0.63186902 -0.77425200 1.905766e-42
35.96550000 18.76790000 443.01700000 0.01125650 0.62116802 -0.78359699 1.905766e-42
37.74259900 19.01330000 443.16400000 -0.00128649 0.60677999 -0.79486901 1.905766e-42
39.53459900 19.16160000 443.24600000 -0.01141630 0.59319901 -0.80497497 1.905766e-42
41.33369800 19.19430000 443.19901000 -0.01969060 0.57950503 -0.81473100 1.905766e-42
43.13219800 19.26919900 443.19699000 -0.02848530 0.56745303 -0.82291299 1.905766e-42
44.83850100 19.76499900 443.48401000 -0.04416830 0.55665702 -0.82956803 1.905766e-42
46.63000100 19.93720100 443.51199000 -0.05968180 0.54308701 -0.83755302 1.905766e-42
48.42599900 19.99350000 443.40601000 -0.07383190 0.53187400 -0.84359902 1.905766e-42
50.21460000 20.02129900 443.20499000 -0.08702300 0.52568799 -0.84621400 1.905766e-42
51.14790000 18.70529900 442.40701000 -0.09074980 0.52726901 -0.84483898 1.905766e-42
51.54489900 17.25120000 441.42300000 -0.08208260 0.53373998 -0.84165603 1.905766e-42
52.67869900 16.05250000 440.70401000 -0.07182930 0.52921802 -0.84543997 1.905766e-42
53.28609800 14.67900000 439.71201000 -0.06061080 0.52648902 -0.84801799 1.905766e-42
53.94609800 13.32570000 438.72501000 -0.05595520 0.55401099 -0.83062702 1.905766e-42
54.31460200 11.93250000 437.64700000 -0.06250710 0.59709299 -0.79973298 1.905766e-42
55.25109900 10.75460000 436.65900000 -0.07218990 0.62221998 -0.77950698 1.905766e-42
56.08070000 9.50304030 435.66599000 -0.07193780 0.63045597 -0.77288401 1.905766e-42
56.55090000 8.20355990 434.51300000 -0.06507370 0.62909198 -0.77460301 1.905766e-42
56.83039900 6.79656980 433.42599000 -0.05892530 0.60948199 -0.79060698 1.905766e-42
57.77230100 5.59728000 432.46899000 -0.05880070 0.59690303 -0.80015600 1.905766e-42
58.32479900 4.33271980 431.31400000 -0.07549230 0.63654202 -0.76753801 1.905766e-42
59.26919900 3.23916010 430.23999000 -0.10989400 0.69075602 -0.71468800 1.905766e-42
59.84849900 2.13860990 428.93900000 -0.16457801 0.73839903 -0.65397298 1.905766e-42
60.25989900 1.07075000 427.54901000 -0.21446100 0.76872897 -0.60254598 1.905766e-42
59.29069900 -0.03444250 426.51099000 -0.22328900 0.75489199 -0.61666799 1.905766e-42
57.59180100 -0.61747003 426.39301000 -0.19895600 0.73689300 -0.64606899 1.905766e-42
55.83950000 -1.02921000 426.38800000 -0.16417100 0.72342098 -0.67060399 1.905766e-42
54.07310100 -1.37510000 426.39499000 -0.12133600 0.71238399 -0.69122100 1.905766e-42
52.29119900 -1.63022010 426.39200000 -0.06794400 0.70010000 -0.71080500 1.905766e-42
50.79990000 -2.48773000 425.86301000 -0.02733670 0.68722600 -0.72592902 1.905766e-42
49.02159900 -2.58921000 425.60300000 0.01365830 0.67785197 -0.73507202 1.905766e-42
47.22280100 -2.52283000 425.59500000 0.04869720 0.67563403 -0.73562700 1.905766e-42
45.42670100 -2.40564990 425.59799000 0.07684310 0.67814100 -0.73090398 1.905766e-42
43.64339800 -2.16055990 425.59299000 0.09886140 0.68443203 -0.72234303 1.905766e-42
41.86780200 -1.86520000 425.59601000 0.10178600 0.69388503 -0.71285599 1.905766e-42
40.36290000 -1.07552000 426.18900000 0.09784060 0.71211499 -0.69521201 1.905766e-42
38.57759900 -0.86073399 426.10699000 0.10201000 0.72150701 -0.68485099 1.905766e-42
36.84389900 -0.45379400 426.36899000 0.10558300 0.73189801 -0.67318398 1.905766e-42
35.26839800 0.23566300 426.90100000 0.11475400 0.73882300 -0.66405702 1.905766e-42
33.58029900 0.78809297 427.19299000 0.14893401 0.72668701 -0.67062998 1.905766e-42
31.83359900 0.79546702 426.75800000 0.17770600 0.72011501 -0.67071301 1.905766e-42
30.06900000 1.01206990 426.47699000 0.20834500 0.71397698 -0.66845202 1.905766e-42
28.34800000 1.53432000 426.40302000 0.23690701 0.70866197 -0.66458499 1.905766e-42
26.65620000 2.14887000 426.39899000 0.25652799 0.71003401 -0.65577799 1.905766e-42
24.97410000 2.78977990 426.39499000 0.26327801 0.71545702 -0.64715201 1.905766e-42
23.23690000 3.11061000 426.04999000 0.27376100 0.71841198 -0.63948399 1.905766e-42
21.64049900 3.89519000 426.32501000 0.28292701 0.72137302 -0.63211799 1.905766e-42
19.91330000 3.99572990 425.82901000 0.29510701 0.71653003 -0.63205701 1.905766e-42
18.25400000 4.65561010 425.60199000 0.31498599 0.70854700 -0.63146299 1.905766e-42
16.74659900 5.59659000 425.88901000 0.33926800 0.69838703 -0.63020098 1.905766e-42
15.09550000 6.26948980 425.64099000 0.36231899 0.69064200 -0.62589002 1.905766e-42
13.45460000 6.90365980 425.26001000 0.38383600 0.68834001 -0.61551499 1.905766e-42
11.79850000 7.53154990 424.93900000 0.40320000 0.69254398 -0.59817398 1.905766e-42
10.19550000 8.33940030 424.80701000 0.41506299 0.70429301 -0.57592899 1.905766e-42
8.63790990 9.24158950 424.79599000 0.42717400 0.70920098 -0.56085300 1.905766e-42
7.00029990 9.59628010 424.13800000 0.44996399 0.71185201 -0.53925800 1.905766e-42
5.50712010 10.59690000 424.04199000 0.47048399 0.70125198 -0.53562200 1.905766e-42
3.91529010 11.21300000 423.47101000 0.49695799 0.69181901 -0.52385002 1.905766e-42
2.44156000 12.22960000 423.28500000 0.52342200 0.67581701 -0.51894200 1.905766e-42
0.91444302 12.73800000 422.47900000 0.54446399 0.67319298 -0.50037003 1.905766e-42
-0.47081801 13.88480000 422.40302000 0.55332702 0.67277801 -0.49112001 1.905766e-42
-1.94672000 14.69680000 421.76901000 0.56227100 0.68252498 -0.46691599 1.905766e-42
