# .PCD v0.7 - Point Cloud Data file format
# 5 131 1
# 1 36 0
# 37 77 0
# 78 96 0
# 97 121 1
# 122 131 0
VERSION 0.7
FIELDS x y z normal_x normal_y normal_z curvature
SIZE 4 4 4 4 4 4 4
TYPE F F F F F F F
COUNT 1 1 1 1 1 1 1
WIDTH 131
HEIGHT 1
VIEWPOINT 0 0 0 1 0 0 0
POINTS 131
DATA ascii
6.38656 28.0005 502.121 0.29474801 -0.90155798 -0.316728 1.9057659e-42
9.5357103 27.879601 503.97601 0.17693 -0.85794801 -0.482308 1.9057659e-42
11.313 28.1647 503.97198 0.123626 -0.85105002 -0.51032501 1.9057659e-42
13.0901 28.4405 503.896 0.071978398 -0.84296501 -0.53313202 1.9057659e-42
14.8269 28.8055 503.59601 0.054765999 -0.84014702 -0.53958601 1.9057659e-42
16.5762 28.6049 503.96899 0.0185881 -0.80273801 -0.59604198 1.9057659e-42
18.3547 28.824301 503.79999 -0.0032377201 -0.79460502 -0.60711801 1.9057659e-42
19.9032 29.5093 503.189 -0.0123226 -0.818268 -0.574705 1.9057659e-42
21.681 29.228901 503.16599 -0.0412894 -0.79707402 -0.60246801 1.9057659e-42
23.466 29.214001 502.935 -0.066221297 -0.79206198 -0.60683799 1.9057659e-42
25.1658 29.382 502.367 -0.0930098 -0.80764103 -0.58229297 1.9057659e-42
26.9561 29.2216 502.27301 -0.12581301 -0.79773003 -0.58974397 1.9057659e-42
28.6178 29.3587 501.595 -0.154034 -0.81984401 -0.55147898 1.9057659e-42
30.3848 29.0159 501.58801 -0.185441 -0.80646002 -0.56145602 1.9057659e-42
31.990499 29.1259 500.78101 -0.21475901 -0.83472198 -0.50706798 1.9057659e-42
33.752602 28.803499 500.60599 -0.24396899 -0.83253002 -0.49736601 1.9057659e-42
35.426601 28.638201 499.965 -0.27546099 -0.84600198 -0.45651099 1.9057659e-42
37.115601 28.022699 499.87299 -0.30600199 -0.83583301 -0.45579299 1.9057659e-42
38.7985 27.6192 499.37799 -0.34034601 -0.838337 -0.42585799 1.9057659e-42
40.468601 26.972099 499.19901 -0.37263301 -0.831523 -0.41196299 1.9057659e-42
41.618599 25.995001 500.17999 -0.375714 -0.80676401 -0.456038 1.9057659e-42
42.789501 24.9275 501.034 -0.367751 -0.789285 -0.49171901 1.9057659e-42
44.192902 23.9494 501.595 -0.36592799 -0.77232599 -0.51924002 1.9057659e-42
45.774399 23.097601 501.70901 -0.38390499 -0.760943 -0.52305102 1.9057659e-42
47.100201 21.9963 502.228 -0.39448601 -0.73082 -0.55703098 1.9057659e-42
48.574902 20.978399 502.39999 -0.412148 -0.71266901 -0.56765902 1.9057659e-42
50.072899 20.0576 502.785 -0.423269 -0.69591498 -0.58012599 1.9057659e-42
51.0107 18.630699 503.354 -0.412817 -0.67337 -0.61331499 1.9057659e-42
52.387798 17.5077 503.64099 -0.40881801 -0.67037201 -0.61925 1.9057659e-42
53.376099 16.2743 504.50299 -0.38814101 -0.64855099 -0.65477401 1.9057659e-42
54.337101 14.953 505.258 -0.36675301 -0.62645 -0.68778801 1.9057659e-42
54.507401 13.5928 506.42401 -0.33221701 -0.58405101 -0.740619 1.9057659e-42
55.534 12.3672 507.25201 -0.307239 -0.56722599 -0.76410699 1.9057659e-42
55.773499 10.7463 507.99701 -0.27854401 -0.54449397 -0.79116303 1.9057659e-42
56.805302 9.4771996 508.74799 -0.26345 -0.52585298 -0.80874801 1.9057659e-42
56.861698 7.8197699 509.448 -0.260609 -0.48860601 -0.83267403 1.9057659e-42
56.646099 6.2957101 510.38101 -0.27184999 -0.45469701 -0.84814399 1.9057659e-42
55.123901 5.7761002 511.189 -0.27013001 -0.466032 -0.84252203 1.9057659e-42
54.0574 4.6880202 512.14801 -0.269005 -0.47071099 -0.84027803 1.9057659e-42
52.7071 3.86835 513.01099 -0.26199299 -0.47109401 -0.84227699 1.9057659e-42
51.249901 3.2035601 513.83197 -0.251127 -0.46760899 -0.84751201 1.9057659e-42
49.769299 2.5509801 514.62097 -0.23667599 -0.46070999 -0.85541201 1.9057659e-42
48.2897 1.89074 515.40503 -0.21780901 -0.45068499 -0.86570299 1.9057659e-42
46.8055 1.17171 516.12598 -0.198466 -0.43754101 -0.87702298 1.9057659e-42
45.308498 0.54917902 516.90802 -0.18598101 -0.42526299 -0.885755 1.9057659e-42
43.8979 -0.34172499 517.58398 -0.175675 -0.42165601 -0.889575 1.9057659e-42
42.304199 -1.0025001 518.09698 -0.16880099 -0.42312601 -0.89020801 1.9057659e-42
40.902302 -1.8484 518.84497 -0.16411699 -0.429479 -0.88803899 1.9057659e-42
39.565601 -2.54742 519.82703 -0.16158199 -0.43649 -0.88508099 1.9057659e-42
38.081699 -3.5074899 520.16803 -0.160693 -0.44286099 -0.88207197 1.9057659e-42
36.827301 -4.5717902 520.89801 -0.162021 -0.44853401 -0.87895697 1.9057659e-42
35.054001 -4.7527599 521.14899 -0.16475999 -0.44729301 -0.87908101 1.9057659e-42
33.311798 -4.69349 521.59698 -0.16769201 -0.44523701 -0.87957001 1.9057659e-42
31.5674 -4.2495198 521.61298 -0.17111599 -0.443385 -0.87984598 1.9057659e-42
29.836599 -3.77069 521.73499 -0.174292 -0.44303101 -0.87940103 1.9057659e-42
28.1001 -3.3222499 521.888 -0.17361701 -0.44392401 -0.87908399 1.9057659e-42
26.437901 -2.63146 521.89203 -0.15835799 -0.44738099 -0.88021201 1.9057659e-42
24.989201 -1.5949301 521.633 -0.145064 -0.45413899 -0.87904102 1.9057659e-42
23.200701 -1.61265 521.836 -0.129465 -0.454669 -0.88120103 1.9057659e-42
21.405899 -1.6531399 521.96698 -0.114302 -0.45449099 -0.88338703 1.9057659e-42
19.742399 -2.1505401 522.44202 -0.100056 -0.44979 -0.88751203 1.9057659e-42
18.511299 -3.3090401 523.06 -0.088911101 -0.44066301 -0.89325899 1.9057659e-42
16.940701 -4.0037298 523.599 -0.080369502 -0.43486699 -0.89690101 1.9057659e-42
15.3286 -4.62637 524.10199 -0.072497502 -0.429398 -0.90020102 1.9057659e-42
13.5699 -4.8614898 524.40503 -0.063863799 -0.425843 -0.90254003 1.9057659e-42
11.9699 -5.5850801 524.80103 -0.054813299 -0.41907799 -0.90629399 1.9057659e-42
10.1908 -5.7416501 525.02502 -0.045446601 -0.41450301 -0.908912 1.9057659e-42
8.6402302 -6.4946799 525.54303 -0.035056099 -0.40594599 -0.91322398 1.9057659e-42
7.2520599 -7.4872098 526.11603 -0.024532599 -0.39642799 -0.91773802 1.9057659e-42
6.4566498 -9.0075703 526.65997 -0.017502701 -0.38777 -0.92158997 1.9057659e-42
5.2795801 -10.2555 527.20502 -0.00957835 -0.38711399 -0.92198199 1.9057659e-42
3.7981701 -11.1974 527.60303 -0.0016308 -0.38422599 -0.92323798 1.9057659e-42
2.2184999 -12.0198 527.86401 0.0065007298 -0.379264 -0.92526603 1.9057659e-42
1.01934 -13.2831 528.31799 0.016542999 -0.371712 -0.92820102 1.9057659e-42
-0.159881 -14.5551 528.79901 0.0305881 -0.359368 -0.93269402 1.9057659e-42
-1.66589 -15.4961 529.09302 0.075762503 -0.33717701 -0.93838799 1.9057659e-42
-2.4642601 -17.033899 529.58099 0.122925 -0.316502 -0.940593 1.9057659e-42
-4.2579699 -17.159901 529.49902 0.19026899 -0.304463 -0.93332702 1.9057659e-42
-5.1406002 -15.8985 528.56598 0.23507801 -0.30588499 -0.92259002 1.9057659e-42
-6.53193 -15.0065 527.85303 0.31524301 -0.29865301 -0.90079302 1.9057659e-42
-8.0593996 -14.4303 527.09497 0.41261101 -0.278781 -0.86719799 1.9057659e-42
-9.4187202 -13.5778 526.27899 0.491817 -0.244743 -0.835594 1.9057659e-42
-10.521 -12.7222 525.14203 0.53787202 -0.207811 -0.81701201 1.9057659e-42
-11.8749 -12.1528 524.10199 0.58472699 -0.171791 -0.79283202 1.9057659e-42
-12.983 -11.1222 523.12701 0.62678403 -0.177241 -0.75876701 1.9057659e-42
-14.244 -10.6833 521.91998 0.683079 -0.174383 -0.70921999 1.9057659e-42
-15.5223 -10.4511 520.67401 0.73600602 -0.173905 -0.65425599 1.9057659e-42
-16.3437 -9.8373098 519.19501 0.779028 -0.177056 -0.60147101 1.9057659e-42
-17.3346 -9.4302197 517.74799 0.81743002 -0.18046901 -0.54702699 1.9057659e-42
-18.2409 -9.1714001 516.21399 0.84857601 -0.185893 -0.49534199 1.9057659e-42
-18.8543 -8.3654699 514.72699 0.86972898 -0.190359 -0.45534 1.9057659e-42
-19.6178 -7.7434101 513.21997 0.88689703 -0.191737 -0.42029899 1.9057659e-42
-20.2078 -7.0501199 511.66699 0.899818 -0.192212 -0.39164099 1.9057659e-42
-20.8025 -6.5539799 510.04199 0.912076 -0.200626 -0.35758501 1.9057659e-42
-21.269199 -6.0834298 508.36899 0.92247999 -0.214794 -0.32077 1.9057659e-42
-21.7404 -6.6677999 506.733 0.93182099 -0.21532901 -0.292137 1.9057659e-42
-22.278799 -7.12432 505.077 0.93747699 -0.220057 -0.26965001 1.9057659e-42
-22.464001 -5.83887 503.82999 0.94110298 -0.23787799 -0.240289 1.9057659e-42
-22.4505 -4.3116002 502.87799 0.94168299 -0.25685701 -0.21738701 1.9057659e-42
-22.301001 -2.7372701 502.01801 0.93946201 -0.274113 -0.205605 1.9057659e-42
-21.805901 -1.13011 501.37601 0.93403 -0.29855099 -0.19610099 1.9057659e-42
-21.4104 0.46987501 500.65302 0.926368 -0.32920599 -0.18293799 1.9057659e-42
-21.531 1.8358001 499.487 0.91879803 -0.35971299 -0.162534 1.9057659e-42
-20.926001 3.3527901 498.73001 0.90634298 -0.39633399 -0.146497 1.9057659e-42
-20.193501 4.8509598 498.052 0.89255202 -0.430343 -0.13474099 1.9057659e-42
-19.526699 6.32515 497.26401 0.87654799 -0.466663 -0.117849 1.9057659e-42
-18.6672 7.7589502 496.59601 0.858271 -0.50372899 -0.098118603 1.9057659e-42
-17.8666 9.1757002 495.827 0.83908999 -0.53888202 -0.074385703 1.9057659e-42
-17.248501 10.5708 494.87201 0.82468998 -0.56254202 -0.0585864 1.9057659e-42
-16.409901 11.9438 494.065 0.813757 -0.57915503 -0.048771799 1.9057659e-42
-15.4043 13.267 493.37399 0.80302799 -0.59482801 -0.036407702 1.9057659e-42
-14.3301 14.5539 492.71799 0.78832197 -0.61490202 -0.0210921 1.9057659e-42
-13.1915 15.8055 492.104 0.75707 -0.65330702 -0.0058658398 1.9057659e-42
-12.2728 17.0425 491.173 0.72730303 -0.686248 0.0096843196 1.9057659e-42
-11.1767 18.2369 490.39099 0.70093298 -0.71307498 0.0147756 1.9057659e-42
-10.1084 19.409401 489.54001 0.67574602 -0.73680103 0.022182999 1.9057659e-42
-8.5544004 20.300301 489.36301 0.650958 -0.75855398 0.0291567 1.9057659e-42
-7.2910199 21.351801 488.63 0.62758601 -0.77749503 0.040464699 1.9057659e-42
-5.9640999 22.363199 487.95401 0.60474497 -0.79462099 0.053492799 1.9057659e-42
-4.7781401 23.3932 487.07501 0.57846701 -0.81292498 0.067290798 1.9057659e-42
-3.3910899 24.4004 486.526 0.55910403 -0.82569802 0.075005502 1.9057659e-42
-1.87383 25.246201 486.99799 0.54622102 -0.83495802 0.066989399 1.9057659e-42
-0.69827998 25.784401 488.25 0.53304899 -0.84470499 0.048291199 1.9057659e-42
0.193269 26.4266 489.67599 0.51615399 -0.85611397 0.0255781 1.9057659e-42
0.77403402 26.875401 491.319 0.496755 -0.86789 0.00111721 1.9057659e-42
1.64214 27.313101 492.83401 0.472518 -0.88090301 -0.0271341 1.9057659e-42
2.59448 27.629299 494.328 0.44448501 -0.89386302 -0.0586631 1.9057659e-42
3.69543 28.063101 495.685 0.41484499 -0.90512198 -0.093048297 1.9057659e-42
4.4526401 28.2535 497.30701 0.38531899 -0.91352898 -0.130358 1.9057659e-42
5.5065298 28.4674 498.75 0.35068801 -0.92044997 -0.172598 1.9057659e-42
6.26267 28.4541 500.384 0.31723601 -0.92162102 -0.223552 1.9057659e-42
