# .PCD v0.7 - Point Cloud Data file format
# 3 121 0
# 1 43 0
# 44 96 0
# 97 121 0
VERSION 0.7
FIELDS x y z normal_x normal_y normal_z curvature
SIZE 4 4 4 4 4 4 4
TYPE F F F F F F F
COUNT 1 1 1 1 1 1 1
WIDTH 121
HEIGHT 1
VIEWPOINT 0 0 0 1 0 0 0
POINTS 121
DATA ascii
26.33289900 3.00287010 430.47800000 -0.01864300 0.95167297 -0.30654600 1.905766e-42
25.25149900 2.71250010 429.58499000 -0.02485450 0.95530701 -0.29457000 1.905766e-42
23.76370000 3.07637000 430.53101000 -0.00901815 0.93978602 -0.34164301 1.905766e-42
22.28770100 3.47543000 431.48001000 -0.00454178 0.92357600 -0.38338900 1.905766e-42
20.91440000 3.90063000 432.56400000 -0.00684219 0.91149700 -0.41125000 1.905766e-42
19.24320000 3.96673990 433.22900000 -0.01869390 0.90288401 -0.42947799 1.905766e-42
17.96760000 4.51501990 434.37399000 -0.02193890 0.89568001 -0.44415700 1.905766e-42
16.96120100 5.26755000 435.66299000 -0.02235080 0.88994402 -0.45552200 1.905766e-42
15.38100000 5.57242010 436.46899000 -0.03284130 0.88348001 -0.46731699 1.905766e-42
14.09940000 6.22242020 437.55301000 -0.02537410 0.87482798 -0.48376900 1.905766e-42
12.57450000 6.67531010 438.39600000 -0.01425120 0.86372399 -0.50376302 1.905766e-42
11.34480000 7.30974010 439.54700000 -0.00111544 0.84882098 -0.52868003 1.905766e-42
9.95831970 7.88364980 440.54099000 0.01118630 0.83343202 -0.55250800 1.905766e-42
8.40987010 8.35021970 441.33099000 0.02226000 0.81911403 -0.57319897 1.905766e-42
7.02447990 9.11614990 442.18799000 0.03502990 0.80458099 -0.59280902 1.905766e-42
5.45011000 9.61178020 442.90601000 0.04552420 0.79276901 -0.60781902 1.905766e-42
4.27761980 10.67850000 443.75900000 0.05512260 0.78304702 -0.61951500 1.905766e-42
2.96052000 11.60650000 444.56201000 0.06438660 0.77556401 -0.62797701 1.905766e-42
1.37190000 12.21160000 445.15302000 0.07268420 0.76889497 -0.63523102 1.905766e-42
0.06791990 13.08360000 446.03601000 0.08319680 0.76399499 -0.63983601 1.905766e-42
-1.43852000 13.72820000 446.78101000 0.09318100 0.75861198 -0.64484501 1.905766e-42
-2.98009990 14.31430000 447.50201000 0.10193600 0.75050497 -0.65295500 1.905766e-42
-4.24913980 15.20330000 448.41800000 0.10624500 0.73869801 -0.66561103 1.905766e-42
-5.98173000 15.54050000 448.77100000 0.10723300 0.73117697 -0.67370701 1.905766e-42
-7.29095980 16.62940000 449.35400000 0.11076900 0.71725798 -0.68794698 1.905766e-42
-8.89029980 17.42050000 449.59201000 0.11259800 0.70534301 -0.69986600 1.905766e-42
-10.21220000 18.40080100 450.32101000 0.11758400 0.68890899 -0.71524698 1.905766e-42
-11.51900000 19.36910100 451.09201000 0.12335700 0.67207199 -0.73013800 1.905766e-42
-13.18180000 19.70400000 451.69400000 0.11770300 0.66097897 -0.74111599 1.905766e-42
-14.40700000 20.83830100 452.36700000 0.10682400 0.65024000 -0.75218099 1.905766e-42
-15.99480000 21.58950000 452.76001000 0.08953740 0.64474899 -0.75913203 1.905766e-42
-17.24600000 22.70960000 453.40799000 0.07677860 0.64185101 -0.76297599 1.905766e-42
-18.91920100 23.35300100 453.57001000 0.05798350 0.64199603 -0.76451302 1.905766e-42
-19.77630000 24.72180000 454.36499000 0.04240390 0.63098198 -0.77463800 1.905766e-42
-21.34289900 25.43400000 454.89301000 0.02043170 0.62430102 -0.78091699 1.905766e-42
-22.74040000 26.17020000 455.75601000 -0.07604640 0.61467999 -0.78510201 1.905766e-42
-24.45280100 26.33750000 456.28500000 -0.18018200 0.61627698 -0.76664001 1.905766e-42
-26.01350000 26.71340000 457.09900000 -0.26392701 0.61040401 -0.74682701 1.905766e-42
-27.60860100 26.97270000 457.89200000 -0.32987699 0.61257398 -0.71828598 1.905766e-42
-28.91519900 27.47860000 459.02200000 -0.38743401 0.60650498 -0.69429499 1.905766e-42
-29.39870100 28.39430000 460.49399000 -0.44389600 0.57748097 -0.68518102 1.905766e-42
-29.50670100 29.79270000 461.62201000 -0.49528599 0.53910601 -0.68121701 1.905766e-42
-29.80170100 31.04390000 462.88199000 -0.56155503 0.47416499 -0.67810303 1.905766e-42
-29.52039900 32.55699900 463.81601000 -0.60222298 0.34766999 -0.71864599 1.905766e-42
-28.19599900 33.33739900 462.87900000 -0.52463502 0.33074701 -0.78445202 1.905766e-42
-26.93059900 34.52610000 462.40399000 -0.42098001 0.30542600 -0.85410202 1.905766e-42
-25.73530000 35.82989900 462.07001000 -0.28336501 0.33114100 -0.90002799 1.905766e-42
-24.13649900 36.65689800 462.06201000 -0.14733800 0.38721699 -0.91013998 1.905766e-42
-22.71430000 37.72560100 462.33600000 -0.04319850 0.41525701 -0.90867800 1.905766e-42
-21.04660000 38.31000100 462.67899000 0.03543710 0.43825901 -0.89815003 1.905766e-42
-19.85250100 39.40060000 463.46899000 0.07651980 0.42102501 -0.90381598 1.905766e-42
-18.61420100 40.44260000 464.25699000 0.09994700 0.39416301 -0.91359001 1.905766e-42
-17.13139900 41.35660200 464.71100000 0.11556600 0.36784399 -0.92267799 1.905766e-42
-15.34860000 41.50519900 464.91000000 0.13506700 0.36137399 -0.92258602 1.905766e-42
-13.67020000 40.86479900 464.79599000 0.14947499 0.36600801 -0.91852897 1.905766e-42
-12.04730000 40.08610200 464.79800000 0.14699499 0.37947500 -0.91345000 1.905766e-42
-10.49830000 39.17559800 464.90500000 0.14585599 0.39520699 -0.90693802 1.905766e-42
-8.88549040 38.37690000 464.93600000 0.14486700 0.40765399 -0.90157199 1.905766e-42
-7.28338000 37.58720000 464.71301000 0.14399400 0.42000499 -0.89602602 1.905766e-42
-6.14810990 36.33229800 464.10001000 0.14464100 0.44016701 -0.88619000 1.905766e-42
-4.37809990 36.02030200 464.00101000 0.14045100 0.44361100 -0.88514602 1.905766e-42
-2.75511000 35.25709900 463.84799000 0.13498899 0.45516300 -0.88011599 1.905766e-42
-1.13092990 34.48609900 463.93500000 0.12982801 0.46605200 -0.87518001 1.905766e-42
0.13933100 33.25759900 463.59299000 0.12475000 0.48577499 -0.86513603 1.905766e-42
1.67126000 32.33430100 463.39099000 0.11930800 0.50174201 -0.85675001 1.905766e-42
3.25549010 31.49980000 463.20700000 0.11399800 0.51746899 -0.84807402 1.905766e-42
4.50247000 30.40060000 462.51599000 0.10907700 0.53855199 -0.83550203 1.905766e-42
6.04718020 29.60870000 462.04001000 0.10879300 0.55247903 -0.82639599 1.905766e-42
7.66512010 28.93549900 461.62900000 0.10870300 0.56306303 -0.81923401 1.905766e-42
9.40968040 28.49329900 461.59698000 0.10825300 0.56768101 -0.81610000 1.905766e-42
11.05960000 27.84520000 461.28500000 0.10708600 0.57430297 -0.81160903 1.905766e-42
12.84340000 27.74000000 461.50101000 0.10298100 0.57097000 -0.81448603 1.905766e-42
14.57940000 27.27020100 461.42499000 0.09567780 0.57149100 -0.81501198 1.905766e-42
16.34849900 26.95420100 461.52701000 0.07654450 0.57295901 -0.81600201 1.905766e-42
18.12529900 26.67200100 461.58600000 0.05945340 0.57561702 -0.81555498 1.905766e-42
19.67210000 25.87229900 461.13101000 0.04562290 0.59120899 -0.80522698 1.905766e-42
21.41379900 26.16370000 461.47900000 0.03571760 0.58854198 -0.80767697 1.905766e-42
23.11240000 25.84070000 460.97900000 0.02653700 0.60492301 -0.79584199 1.905766e-42
24.90410000 25.76140000 460.82501000 0.02390130 0.61978400 -0.78440899 1.905766e-42
26.68860100 25.52730000 460.80301000 0.03982380 0.63830799 -0.76875103 1.905766e-42
28.41340100 25.07790000 460.55200000 0.05190610 0.65180302 -0.75660998 1.905766e-42
30.19290000 24.81329900 460.61200000 0.06379450 0.66061699 -0.74800801 1.905766e-42
31.72110000 24.05209900 460.04199000 0.06813900 0.66988701 -0.73932999 1.905766e-42
33.48510000 23.69540000 460.00601000 0.07451390 0.67421299 -0.73476797 1.905766e-42
35.22689800 23.29719900 459.78799000 0.07804260 0.67698097 -0.73185098 1.905766e-42
37.02280000 23.19580100 459.72000000 0.07401680 0.68022501 -0.72925699 1.905766e-42
38.80469900 23.10460100 459.95801000 0.06634030 0.68610901 -0.72446799 1.905766e-42
40.59090000 22.88220000 459.96301000 0.05883520 0.69436300 -0.71721601 1.905766e-42
42.35549900 22.55760000 459.81900000 0.05138690 0.70485997 -0.70748299 1.905766e-42
43.94940200 21.99630000 459.19901000 0.04075660 0.71903098 -0.69378197 1.905766e-42
45.74720000 21.91169900 459.16599000 0.03684080 0.73158097 -0.68075800 1.905766e-42
47.49990100 21.64600000 458.85400000 0.03978710 0.74331498 -0.66775799 1.905766e-42
49.27450200 21.53510100 459.13400000 0.05656980 0.74710900 -0.66228998 1.905766e-42
50.86510100 21.03590000 458.45499000 0.06648320 0.75397003 -0.65353602 1.905766e-42
52.63850000 20.73200000 458.40201000 0.08102920 0.75923699 -0.64575100 1.905766e-42
54.40800100 20.40230000 458.39600000 0.10092000 0.76577002 -0.63514698 1.905766e-42
56.04779800 19.91939900 457.83301000 0.15092100 0.78882301 -0.59580302 1.905766e-42
55.43960200 18.86020100 456.51001000 0.09280060 0.78336400 -0.61459601 1.905766e-42
55.03680000 17.66830100 455.22299000 0.07382000 0.79669702 -0.59985399 1.905766e-42
53.88100100 17.00639900 454.01199000 0.04786020 0.80485898 -0.59153301 1.905766e-42
52.73759800 16.29670000 452.81699000 0.02205680 0.80401498 -0.59419900 1.905766e-42
51.19409900 15.83370000 452.01501000 0.00722712 0.80164301 -0.59776002 1.905766e-42
49.67540000 15.23650000 451.25500000 -0.00110916 0.80257797 -0.59654599 1.905766e-42
49.14479800 14.09320000 449.97000000 -0.00393977 0.81627798 -0.57764602 1.905766e-42
47.97990000 13.28190000 448.86401000 -0.00486465 0.82669401 -0.56263101 1.905766e-42
46.45570000 12.82550000 448.02200000 -0.00249857 0.83371001 -0.55219698 1.905766e-42
45.62049900 11.96270000 446.68100000 -0.00364570 0.84004903 -0.54249799 1.905766e-42
44.17340100 11.48840000 445.72101000 -0.00047029 0.84072900 -0.54145598 1.905766e-42
42.98550000 10.73450000 444.59900000 0.00500772 0.84255701 -0.53858501 1.905766e-42
41.68830100 10.06490000 443.54501000 0.02536760 0.85489303 -0.51818401 1.905766e-42
40.55130000 9.23174950 442.42599000 0.04641530 0.88121903 -0.47042400 1.905766e-42
39.17890200 8.78613000 441.35001000 0.04568470 0.89950597 -0.43451300 1.905766e-42
37.88040200 8.28341010 440.20901000 0.00594881 0.91272300 -0.40853599 1.905766e-42
36.29660000 7.97018000 439.41299000 -0.04756630 0.89551502 -0.44248199 1.905766e-42
35.34650000 7.22347020 438.07901000 -0.09269560 0.88426000 -0.45770401 1.905766e-42
34.11740100 6.68237020 436.88101000 -0.12291300 0.87057501 -0.47643700 1.905766e-42
32.81639900 5.93080000 435.89001000 -0.12308200 0.87862998 -0.46136701 1.905766e-42
31.59790000 5.07921980 434.87500000 -0.10852500 0.89238101 -0.43803900 1.905766e-42
30.12610100 4.55882980 433.97800000 -0.07753860 0.90627998 -0.41550601 1.905766e-42
28.78879900 3.98033000 432.92200000 -0.04189700 0.92850602 -0.36894599 1.905766e-42
27.56860000 3.46826000 431.70099000 -0.02296590 0.94304103 -0.33188400 1.905766e-42
