# .PCD v0.7 - Point Cloud Data file format
# 4 161 0
# 1 60 0
# 61 74 0
# 75 135 0
# 136 161 0
VERSION 0.7
FIELDS x y z normal_x normal_y normal_z curvature
SIZE 4 4 4 4 4 4 4
TYPE F F F F F F F
COUNT 1 1 1 1 1 1 1
WIDTH 161
HEIGHT 1
VIEWPOINT 0 0 0 1 0 0 0
POINTS 161
DATA ascii
5.35872980 -17.43429900 386.29401000 0.38261300 0.56249499 -0.73294401 1.905766e-42
4.66108990 -16.03730000 387.18900000 0.38192901 0.54994500 -0.74275899 1.905766e-42
4.78105020 -15.48950000 387.74799000 0.37870499 0.54250997 -0.74984401 1.905766e-42
4.70693020 -14.08600000 388.87299000 0.37340099 0.52210200 -0.76679897 1.905766e-42
4.19790980 -12.56130000 389.68301000 0.37170699 0.51551902 -0.77205801 1.905766e-42
3.31115010 -11.20220000 390.46100000 0.37203699 0.51951802 -0.76921302 1.905766e-42
3.95756010 -9.65015980 391.10400000 0.37823901 0.52453101 -0.76275998 1.905766e-42
3.80357000 -8.10569000 392.01599000 0.38592800 0.52827698 -0.75629598 1.905766e-42
3.49278000 -6.63607980 393.00800000 0.39579499 0.53041899 -0.74966800 1.905766e-42
3.81013990 -5.32472990 394.19901000 0.41089499 0.53553599 -0.73781198 1.905766e-42
3.02053000 -3.84760000 394.85800000 0.42267701 0.53115398 -0.73431599 1.905766e-42
2.84990000 -2.40266990 395.91800000 0.44153899 0.52955502 -0.72430301 1.905766e-42
2.27037000 -0.95196098 396.81201000 0.46115801 0.51487499 -0.72266001 1.905766e-42
2.13823010 0.56392699 397.77399000 0.48031801 0.50418597 -0.71769798 1.905766e-42
2.06950000 2.11167000 398.69000000 0.49785399 0.49399099 -0.71282101 1.905766e-42
2.35640000 3.56810000 399.70801000 0.51174802 0.48769599 -0.70729500 1.905766e-42
2.29557990 5.04101990 400.74100000 0.52557701 0.47857001 -0.70337701 1.905766e-42
1.90462990 6.57110020 401.60501000 0.53986502 0.46680599 -0.70045501 1.905766e-42
1.75965000 8.06904030 402.59299000 0.55141401 0.45773599 -0.69743800 1.905766e-42
0.88023299 9.50716970 403.22400000 0.56471902 0.44480401 -0.69515598 1.905766e-42
1.28615000 11.08950000 403.98001000 0.57258803 0.43990001 -0.69183201 1.905766e-42
1.39823000 12.67160000 404.83099000 0.58258599 0.43318900 -0.68770599 1.905766e-42
0.99181801 14.23400000 405.62701000 0.59553701 0.42258599 -0.68319499 1.905766e-42
0.69621199 15.79330000 406.47601000 0.60856301 0.41238099 -0.67793298 1.905766e-42
0.61122102 17.35860100 407.36099000 0.62124699 0.40342599 -0.67178798 1.905766e-42
0.10468400 18.92520000 408.08801000 0.63625002 0.39029101 -0.66547602 1.905766e-42
0.16391800 20.56860000 408.82001000 0.64977199 0.38070801 -0.65792000 1.905766e-42
0.06145480 22.21299900 409.54501000 0.66435701 0.36943799 -0.64972699 1.905766e-42
0.22779100 23.73280000 410.49500000 0.67591703 0.36681700 -0.63920301 1.905766e-42
1.08624990 24.52500000 411.86499000 0.67592102 0.37488899 -0.63449901 1.905766e-42
1.59265010 25.60080000 413.21600000 0.67764598 0.37724599 -0.63125300 1.905766e-42
1.84948000 26.86669900 414.47000000 0.68050301 0.37565899 -0.62912297 1.905766e-42
2.71450000 27.78200000 415.75601000 0.67664999 0.37853399 -0.63155198 1.905766e-42
3.27371000 28.95490100 417.00101000 0.67541599 0.37721300 -0.63365901 1.905766e-42
4.15272000 29.86109900 418.28400000 0.67044300 0.37859100 -0.63810199 1.905766e-42
4.83507010 30.87030000 419.60901000 0.66748101 0.37788200 -0.64161801 1.905766e-42
5.15750980 32.20570000 420.77301000 0.67028898 0.37686399 -0.63928503 1.905766e-42
5.76527020 33.26229900 422.09698000 0.67201400 0.39476901 -0.62654197 1.905766e-42
6.21195980 34.37440100 423.44000000 0.67764699 0.41200599 -0.60913402 1.905766e-42
6.91997000 35.26279800 424.83600000 0.68436700 0.43038201 -0.58856899 1.905766e-42
7.21232990 36.50920100 426.10199000 0.69588202 0.44527400 -0.56345302 1.905766e-42
8.02245040 37.12699900 427.58499000 0.70648199 0.46333501 -0.53498000 1.905766e-42
8.11915970 38.43090100 428.82300000 0.72119898 0.47448599 -0.50471300 1.905766e-42
8.20012000 39.49679900 430.27100000 0.73639601 0.48571599 -0.47095799 1.905766e-42
8.55632020 40.45800000 431.75000000 0.74861300 0.49923700 -0.43628201 1.905766e-42
8.99435040 41.33850100 433.25800000 0.75345403 0.51170403 -0.41287401 1.905766e-42
8.89655970 42.39650000 434.71100000 0.76343900 0.51536798 -0.38930199 1.905766e-42
8.99740980 43.22710000 436.30499000 0.76807803 0.52389097 -0.36822999 1.905766e-42
9.35247990 43.88900000 437.94000000 0.76876998 0.53536302 -0.34982699 1.905766e-42
9.20856000 45.00630200 439.34399000 0.77629203 0.53700697 -0.33014199 1.905766e-42
9.12123970 45.98560000 440.85199000 0.78110898 0.54086000 -0.31199199 1.905766e-42
9.13926030 46.86899900 442.42001000 0.78390300 0.54613501 -0.29535100 1.905766e-42
8.75063040 48.06449900 443.70901000 0.78965199 0.54630202 -0.27928999 1.905766e-42
8.71448990 49.20399900 445.10199000 0.79685098 0.53960800 -0.27175701 1.905766e-42
8.32234000 50.35010100 446.43301000 0.80520397 0.53055799 -0.26486799 1.905766e-42
8.00559040 51.31740200 447.91800000 0.81176502 0.52378303 -0.25824299 1.905766e-42
7.57740020 52.42660100 449.26901000 0.81910998 0.51522398 -0.25219700 1.905766e-42
7.72558020 53.29169800 450.84000000 0.82278800 0.51209599 -0.24653199 1.905766e-42
7.16292000 54.75230000 451.72900000 0.83172899 0.49983799 -0.24163599 1.905766e-42
6.72345020 55.87620200 453.06500000 0.83800602 0.49176699 -0.23645499 1.905766e-42
6.72030020 56.73510000 454.64700000 0.84102303 0.48866501 -0.23213600 1.905766e-42
7.43853000 55.96550000 456.10699000 0.83440799 0.49994200 -0.23199201 1.905766e-42
8.48964020 54.71970000 456.87100000 0.82297701 0.51669502 -0.23608100 1.905766e-42
9.56451990 53.48230000 457.61499000 0.79773301 0.54755503 -0.25259700 1.905766e-42
10.73330000 52.13299900 457.84601000 0.77302098 0.57539600 -0.26713100 1.905766e-42
11.87790000 50.91540100 458.51401000 0.74799401 0.60121500 -0.28115001 1.905766e-42
13.00260000 49.83269900 459.41101000 0.72404599 0.62371403 -0.29451299 1.905766e-42
14.30940000 48.74689900 460.00500000 0.69572300 0.64768499 -0.31060201 1.905766e-42
15.62080000 47.99940100 460.98499000 0.66549897 0.66937703 -0.33022100 1.905766e-42
16.93380000 47.12400100 461.85101000 0.63177699 0.69048899 -0.35225499 1.905766e-42
18.37109900 46.18600100 462.39401000 0.59784901 0.70938998 -0.37328500 1.905766e-42
19.79430000 45.53570200 463.28400000 0.57634300 0.71864098 -0.38908100 1.905766e-42
21.25939900 44.95930100 464.15601000 0.55054402 0.72961801 -0.40565801 1.905766e-42
22.72890100 44.28440100 464.94699000 0.51959801 0.74262202 -0.42252901 1.905766e-42
24.29530000 43.57730100 465.48199000 0.47019899 0.76320601 -0.44320399 1.905766e-42
25.07200100 42.38200000 464.38300000 0.44330999 0.78209800 -0.43794900 1.905766e-42
25.37260100 41.34120200 462.94501000 0.43584400 0.79510403 -0.42172199 1.905766e-42
26.23790000 40.25180100 461.80301000 0.40601599 0.81537998 -0.41268301 1.905766e-42
26.98950000 39.23170100 460.52499000 0.38338301 0.83380401 -0.39722601 1.905766e-42
27.48060000 38.38380100 459.01501000 0.37573600 0.84958202 -0.37017900 1.905766e-42
28.11060000 37.55550000 457.54599000 0.36554101 0.86707801 -0.33846101 1.905766e-42
29.10129900 36.45240000 456.52499000 0.34243101 0.87217200 -0.34936699 1.905766e-42
29.53490100 35.72380100 454.93799000 0.34009099 0.87162697 -0.35299399 1.905766e-42
30.34390100 34.99319800 453.50500000 0.32716200 0.87409002 -0.35906899 1.905766e-42
31.49950000 34.26480100 452.33301000 0.30599499 0.87908900 -0.36547101 1.905766e-42
32.38480000 33.49119900 450.97000000 0.27017099 0.88616002 -0.37646899 1.905766e-42
33.05130000 32.57669800 449.57001000 0.24209200 0.89112097 -0.38378900 1.905766e-42
33.78410000 31.61450000 448.23700000 0.21104500 0.89614701 -0.39035901 1.905766e-42
34.70090100 30.64139900 447.03201000 0.17513300 0.90127498 -0.39627299 1.905766e-42
35.13769900 30.02720100 445.39700000 0.16738801 0.89612198 -0.41103101 1.905766e-42
36.00859800 29.17790000 444.07001000 0.14491899 0.89058900 -0.43110299 1.905766e-42
36.70690200 28.27689900 442.67700000 0.13154200 0.88331902 -0.44993901 1.905766e-42
36.97710000 27.58600000 441.03699000 0.12957400 0.87425500 -0.46785501 1.905766e-42
37.58630000 26.80209900 439.53601000 0.11982300 0.86596102 -0.48554599 1.905766e-42
38.40729900 25.96340000 438.17099000 0.10800000 0.85832298 -0.50161397 1.905766e-42
38.80339800 25.10430000 436.64001000 0.10183500 0.84910899 -0.51830798 1.905766e-42
39.16759900 24.07600000 435.20801000 0.09462050 0.83913100 -0.53563601 1.905766e-42
39.43880100 23.08589900 433.73001000 0.08827950 0.82331699 -0.56067401 1.905766e-42
39.83420200 22.03669900 432.32101000 0.08004560 0.80766201 -0.58418697 1.905766e-42
40.13439900 20.93499900 430.92999000 0.07041410 0.79131103 -0.60734600 1.905766e-42
40.18539800 19.78400000 429.54700000 0.05882840 0.77336502 -0.63122499 1.905766e-42
40.93349800 18.73020000 428.29401000 0.04719020 0.76007003 -0.64812601 1.905766e-42
41.45010000 17.60880100 426.98401000 0.03281070 0.74511999 -0.66612202 1.905766e-42
41.55670200 16.40830000 425.64700000 0.01629980 0.72701597 -0.68642700 1.905766e-42
42.27209900 15.14940000 424.57800000 -0.00385643 0.71863401 -0.69537699 1.905766e-42
42.28419900 13.99750000 423.19501000 -0.02446950 0.71346098 -0.70026702 1.905766e-42
43.05619800 12.71960000 422.18900000 -0.04641230 0.71391702 -0.69869000 1.905766e-42
43.32830000 11.48580000 420.90701000 -0.06458890 0.71004599 -0.70118701 1.905766e-42
43.87279900 10.21670000 419.75299000 -0.08236250 0.70749199 -0.70190501 1.905766e-42
44.11940000 9.08304020 418.37701000 -0.09587950 0.70334399 -0.70435399 1.905766e-42
44.01340100 7.96688990 416.96799000 -0.10379700 0.69856602 -0.70797700 1.905766e-42
44.48059800 6.85496000 415.63199000 -0.11445900 0.69558901 -0.70926303 1.905766e-42
43.92100100 5.59270000 414.47800000 -0.11320400 0.69230199 -0.71267301 1.905766e-42
44.80080000 4.32043980 413.55701000 -0.12453300 0.69224000 -0.71084100 1.905766e-42
44.75099900 3.08358000 412.25000000 -0.12839200 0.69127101 -0.71109700 1.905766e-42
45.53530100 1.92873000 411.11401000 -0.13964100 0.69109201 -0.70914900 1.905766e-42
45.83140200 0.75162601 409.78500000 -0.14725100 0.69033402 -0.70834702 1.905766e-42
46.44179900 -0.31278601 408.46799000 -0.15788600 0.68991202 -0.70646501 1.905766e-42
46.85360000 -1.49916010 407.17801000 -0.16709000 0.68914902 -0.70509201 1.905766e-42
47.14049900 -2.81879000 405.98801000 -0.17524999 0.68810302 -0.70413202 1.905766e-42
47.05960100 -4.10444020 404.73099000 -0.18019301 0.68664497 -0.70430702 1.905766e-42
47.86759900 -5.24395990 403.59601000 -0.19295000 0.68745703 -0.70012403 1.905766e-42
47.75560000 -6.43003990 402.24600000 -0.19648001 0.68795103 -0.69865501 1.905766e-42
48.57080100 -7.47598980 401.02899000 -0.20790499 0.68869197 -0.69460702 1.905766e-42
48.74549900 -8.66049960 399.68500000 -0.21240000 0.68979502 -0.69214797 1.905766e-42
48.79340000 -9.89505960 398.37601000 -0.21457200 0.69147599 -0.68979698 1.905766e-42
48.81940100 -11.20700000 397.14401000 -0.21541101 0.69374597 -0.68725199 1.905766e-42
49.47549800 -12.30370000 395.87701000 -0.22111499 0.69530499 -0.68385601 1.905766e-42
49.38380100 -13.55750000 394.58801000 -0.21967600 0.69048297 -0.68918502 1.905766e-42
49.59230000 -14.77380000 393.27802000 -0.22312200 0.67624700 -0.70207298 1.905766e-42
49.87060200 -16.00219900 391.99200000 -0.22966100 0.66220498 -0.71325999 1.905766e-42
50.30889900 -17.25860000 390.78000000 -0.24083900 0.64893597 -0.72171903 1.905766e-42
50.20790100 -18.64399900 389.63501000 -0.24833100 0.63505101 -0.73146498 1.905766e-42
50.38840100 -20.10080000 388.59299000 -0.26223999 0.61977297 -0.73966902 1.905766e-42
49.66460000 -21.36520000 387.53601000 -0.25329700 0.60979801 -0.75099099 1.905766e-42
49.23109800 -22.67330000 386.37799000 -0.24340300 0.60274100 -0.75990701 1.905766e-42
47.90090200 -23.88570000 386.35001000 -0.21641301 0.59806800 -0.77167302 1.905766e-42
46.25930000 -23.20540000 386.63699000 -0.20096999 0.60254300 -0.77236801 1.905766e-42
44.54579900 -23.16570100 387.18600000 -0.18799900 0.60125202 -0.77662897 1.905766e-42
42.78799800 -23.55190100 387.22299000 -0.18639500 0.58771199 -0.78730601 1.905766e-42
41.22240100 -23.11800000 387.99799000 -0.16979700 0.58384001 -0.79391497 1.905766e-42
39.47219800 -23.03060000 388.40900000 -0.15236200 0.57195902 -0.80600798 1.905766e-42
37.77059900 -22.75980000 388.92999000 -0.12504999 0.56325001 -0.81676900 1.905766e-42
36.09249900 -22.42930000 389.49100000 -0.09196170 0.55821103 -0.82458699 1.905766e-42
34.30849800 -22.37540100 389.72501000 -0.06270640 0.54771203 -0.83431399 1.905766e-42
32.81840100 -21.59560000 390.36600000 -0.03160340 0.55322897 -0.83242899 1.905766e-42
31.01840000 -21.60260000 390.36301000 -0.00089625 0.54216099 -0.84027398 1.905766e-42
29.22090000 -21.51339900 390.39099000 0.03390270 0.53638601 -0.84329200 1.905766e-42
27.42350000 -21.42660000 390.43399000 0.06529540 0.53399003 -0.84296501 1.905766e-42
25.68320100 -20.98450100 390.56000000 0.09270530 0.53926599 -0.83701700 1.905766e-42
23.92330000 -21.23310100 390.27600000 0.12329200 0.53521901 -0.83566701 1.905766e-42
22.19590000 -20.76770000 390.07700000 0.15284200 0.54133600 -0.82679802 1.905766e-42
20.45019900 -20.33110000 390.03400000 0.18122301 0.54879099 -0.81607997 1.905766e-42
18.72540100 -20.34350000 389.51901000 0.20914701 0.55134898 -0.80763298 1.905766e-42
16.97050100 -20.01860000 389.28500000 0.22991200 0.55723900 -0.79788798 1.905766e-42
15.27500000 -20.01870000 388.68100000 0.25348401 0.55995297 -0.78879601 1.905766e-42
13.54570000 -19.74440000 388.26300000 0.27633700 0.56427997 -0.77796203 1.905766e-42
11.84320000 -19.19500000 388.06400000 0.29726601 0.56678402 -0.76836699 1.905766e-42
10.16580000 -18.95870000 387.45499000 0.32410800 0.56710100 -0.75719899 1.905766e-42
8.47222040 -18.49760100 387.05600000 0.35375401 0.56452698 -0.74576700 1.905766e-42
6.80881980 -18.49810000 386.36899000 0.37268201 0.56663698 -0.73486799 1.905766e-42
