# .PCD v0.7 - Point Cloud Data file format
# 5 123 -2
# 1 20 0
# 21 35 0
# 36 54 0
# 55 77 0
# 78 123 0
VERSION 0.7
FIELDS x y z normal_x normal_y normal_z curvature
SIZE 4 4 4 4 4 4 4
TYPE F F F F F F F
COUNT 1 1 1 1 1 1 1
WIDTH 123
HEIGHT 1
VIEWPOINT 0 0 0 1 0 0 0
POINTS 123
DATA ascii
8.85577010 -12.72770000 462.44199000 0.55169803 0.82782203 -0.10168000 1.905766e-42
8.18618970 -12.45700000 460.78201000 0.58012998 0.81168199 -0.06797580 1.905766e-42
6.75042010 -11.45470000 461.19901000 0.59508997 0.80213499 -0.04946940 1.905766e-42
5.23993020 -10.53130000 461.52399000 0.60585302 0.79466498 -0.03807710 1.905766e-42
4.10874990 -9.39657970 462.34500000 0.61023903 0.79117203 -0.04069070 1.905766e-42
2.92734000 -8.26027970 463.08801000 0.61432499 0.78759903 -0.04788850 1.905766e-42
1.53095000 -7.25048020 463.60800000 0.61696899 0.78466600 -0.06041090 1.905766e-42
0.34277001 -6.23958020 464.50601000 0.62511498 0.77752399 -0.06846390 1.905766e-42
-1.05820000 -5.13232990 464.73300000 0.63701200 0.76810598 -0.06502890 1.905766e-42
-2.24066000 -4.00400020 465.48700000 0.64841402 0.75933999 -0.05442480 1.905766e-42
-3.36051010 -2.87312010 466.32800000 0.65755397 0.75246203 -0.03772520 1.905766e-42
-4.56362010 -1.79403000 467.12000000 0.66614801 0.74568897 -0.01394210 1.905766e-42
-5.38951020 -0.92303699 468.46100000 0.65546900 0.75519300 -0.00661211 1.905766e-42
-6.56969020 -0.01265900 469.47101000 0.64955300 0.76030803 0.00355002 1.905766e-42
-7.85379980 0.86700302 470.37500000 0.64808100 0.76156002 0.00419914 1.905766e-42
-8.61149020 1.65303000 471.80600000 0.65032899 0.75946802 -0.01674660 1.905766e-42
-9.65812970 2.60813000 472.91599000 0.66578001 0.74472499 -0.04604810 1.905766e-42
-10.58170000 3.58071990 474.11600000 0.69748300 0.70988399 -0.09788370 1.905766e-42
-11.54670000 4.85029980 474.95099000 0.74872702 0.63676602 -0.18421800 1.905766e-42
-12.69600000 6.11009980 475.52701000 0.81698900 0.48768100 -0.30772799 1.905766e-42
-13.09290000 7.79336020 476.02600000 0.85505599 0.25374001 -0.45221099 1.905766e-42
-12.84130000 9.57514950 476.07001000 0.82494599 -0.00378478 -0.56519902 1.905766e-42
-13.00330000 11.32020000 476.48001000 0.75729400 -0.19652601 -0.62280297 1.905766e-42
-12.60650000 13.07250000 476.37201000 0.71151900 -0.28283501 -0.64323002 1.905766e-42
-11.50000000 14.45630000 476.05399000 0.67601103 -0.29242599 -0.67638499 1.905766e-42
-10.55030000 15.98420000 475.99600000 0.64403301 -0.29776499 -0.70466799 1.905766e-42
-10.46150000 17.76730000 475.76700000 0.60173702 -0.27449501 -0.75004297 1.905766e-42
-9.81217000 19.43470000 475.96201000 0.56956202 -0.27511299 -0.77454001 1.905766e-42
-9.71809010 21.16910000 475.48999000 0.51732397 -0.24934199 -0.81866002 1.905766e-42
-9.03604030 22.80870100 475.19601000 0.47325200 -0.25149000 -0.84426600 1.905766e-42
-8.25265030 24.40350000 474.90799000 0.43641999 -0.26664600 -0.85932398 1.905766e-42
-8.68743990 26.11280100 474.54800000 0.39796600 -0.24575301 -0.88387102 1.905766e-42
-8.01389030 27.77829900 474.43701000 0.42580900 -0.21377100 -0.87919801 1.905766e-42
-7.13471980 29.34800000 474.38300000 0.45899501 -0.17723300 -0.87058097 1.905766e-42
-6.49630020 30.98300000 473.98300000 0.47557101 -0.13903500 -0.86861998 1.905766e-42
-5.82754990 32.65399900 474.00500000 0.49504700 -0.10477900 -0.86252499 1.905766e-42
-4.67821980 33.99490000 474.35300000 0.52683300 -0.08412150 -0.84579599 1.905766e-42
-3.58720990 35.26969900 475.00500000 0.55701798 -0.07556680 -0.82705498 1.905766e-42
-2.39714000 36.40660100 475.73401000 0.54742998 -0.10226900 -0.83057898 1.905766e-42
-1.28148000 37.37469900 476.76199000 0.54061300 -0.12894399 -0.83133101 1.905766e-42
-0.06600970 37.42419800 478.08899000 0.54902297 -0.16523300 -0.81931198 1.905766e-42
0.67070901 36.83649800 479.62299000 0.56806898 -0.20713200 -0.79648900 1.905766e-42
1.59315000 35.33210000 479.26801000 0.59543002 -0.24002600 -0.76671398 1.905766e-42
2.79318000 34.75529900 480.47900000 0.61364001 -0.30412900 -0.72866398 1.905766e-42
4.05421020 35.70560100 481.34299000 0.59626901 -0.33172801 -0.73104000 1.905766e-42
5.49656010 35.92729900 482.39700000 0.59916902 -0.38277701 -0.70319200 1.905766e-42
6.93697980 36.68629800 483.16400000 0.59015101 -0.40951899 -0.69571298 1.905766e-42
8.35884950 37.47280100 483.93900000 0.57919598 -0.43494400 -0.68946099 1.905766e-42
9.88090040 38.10739900 484.66000000 0.56844300 -0.46510500 -0.67863899 1.905766e-42
11.37530000 38.91949800 485.25000000 0.55230099 -0.48290101 -0.67953700 1.905766e-42
12.87220000 39.70140100 485.87299000 0.54368597 -0.48690400 -0.68361503 1.905766e-42
14.37190000 40.41859800 486.56299000 0.54328197 -0.48219800 -0.68726301 1.905766e-42
15.84880000 41.31359900 487.07001000 0.54259402 -0.47393700 -0.69352400 1.905766e-42
16.97909900 42.58169900 487.66599000 0.54287797 -0.45957801 -0.70290297 1.905766e-42
18.28800000 43.52679800 488.46201000 0.54020298 -0.44471899 -0.71442699 1.905766e-42
19.83390000 43.13850000 489.29800000 0.52633202 -0.45127901 -0.72064000 1.905766e-42
20.99749900 42.46369900 490.49399000 0.51002902 -0.46878499 -0.72118700 1.905766e-42
22.39990000 42.38209900 491.61899000 0.49487999 -0.47851300 -0.72534001 1.905766e-42
23.56380100 41.84660000 492.88400000 0.48171800 -0.49469399 -0.72334301 1.905766e-42
24.99799900 41.56950000 493.93600000 0.46680000 -0.50637197 -0.72504199 1.905766e-42
26.12830000 40.73479800 495.06100000 0.44670200 -0.50424200 -0.73905200 1.905766e-42
27.46209900 40.23080100 496.15900000 0.42653900 -0.50066799 -0.75325602 1.905766e-42
28.56510000 39.36669900 497.28900000 0.40991700 -0.49852499 -0.76383299 1.905766e-42
30.08099900 39.08840200 498.21899000 0.39123699 -0.49912700 -0.77317899 1.905766e-42
31.36780000 38.61259800 499.38400000 0.40236101 -0.48861101 -0.77418703 1.905766e-42
32.57759900 37.96410000 500.54901000 0.41602200 -0.48419300 -0.76972902 1.905766e-42
33.78900100 37.26010100 501.67899000 0.42969200 -0.48239899 -0.76331902 1.905766e-42
34.89670200 36.30479800 502.72800000 0.44073200 -0.48321101 -0.75647998 1.905766e-42
35.91790000 35.25970100 503.77899000 0.44980600 -0.48541000 -0.74970102 1.905766e-42
37.18349800 34.62459900 504.89001000 0.45744601 -0.48524299 -0.74517202 1.905766e-42
38.25140000 33.76120000 506.05399000 0.44316000 -0.45795399 -0.77064002 1.905766e-42
39.54460100 33.23360100 507.18900000 0.41015700 -0.42309800 -0.80793500 1.905766e-42
40.69660200 32.34190000 508.24600000 0.34175000 -0.37895101 -0.86000198 1.905766e-42
42.00220100 31.35660000 508.99799000 0.22090600 -0.32251799 -0.92042500 1.905766e-42
43.32379900 30.21060000 509.42200000 -0.01280550 -0.18517099 -0.98262298 1.905766e-42
43.92079900 28.52190000 509.60199000 -0.22287200 -0.04160670 -0.97395903 1.905766e-42
45.51599900 27.90990100 509.03500000 -0.39798701 0.09321490 -0.91264302 1.905766e-42
46.73860200 26.93110100 508.14801000 -0.50144202 0.18857899 -0.84438998 1.905766e-42
46.50939900 25.16290100 507.90201000 -0.50484997 0.20930400 -0.83744800 1.905766e-42
45.79660000 23.51079900 507.95401000 -0.49000499 0.22670700 -0.84172398 1.905766e-42
44.99060100 21.90140000 507.94199000 -0.47701699 0.25474301 -0.84116602 1.905766e-42
44.86880100 20.15970000 507.50400000 -0.47945899 0.29906401 -0.82503301 1.905766e-42
44.13629900 18.53850000 507.23001000 -0.47406799 0.34572601 -0.80977398 1.905766e-42
43.31990100 16.95290000 506.98599000 -0.46768701 0.39207199 -0.79217899 1.905766e-42
43.88579900 15.42310000 506.22501000 -0.46108699 0.41292599 -0.78542399 1.905766e-42
43.27370100 13.82850000 505.65701000 -0.42532900 0.41783199 -0.80281502 1.905766e-42
42.39379900 12.35810000 505.10599000 -0.38539299 0.44202900 -0.80998898 1.905766e-42
41.33980200 10.96360000 504.67700000 -0.35067999 0.47011301 -0.80994898 1.905766e-42
40.27240000 9.57034020 504.27701000 -0.31940699 0.49627700 -0.80727202 1.905766e-42
39.11690100 8.23219010 503.93900000 -0.29197100 0.52049500 -0.80239499 1.905766e-42
37.67499900 7.17828990 503.71500000 -0.26800701 0.54680699 -0.79320502 1.905766e-42
37.08570100 5.65071010 502.96701000 -0.23571999 0.56801897 -0.78853703 1.905766e-42
36.09849900 4.33479980 502.23700000 -0.20523500 0.59529799 -0.77685201 1.905766e-42
35.27520000 2.99481010 501.36099000 -0.17511700 0.62129599 -0.76375800 1.905766e-42
34.51910000 1.69235000 500.37500000 -0.14601199 0.64580500 -0.74941099 1.905766e-42
34.25470000 0.30900100 499.25400000 -0.11905800 0.66501302 -0.73728102 1.905766e-42
33.78850200 -1.03325000 498.14899000 -0.09232630 0.68708700 -0.72068501 1.905766e-42
32.97399900 -2.15460990 497.00101000 -0.06736820 0.71116900 -0.69978601 1.905766e-42
32.34030200 -3.35861990 495.82199000 -0.04495960 0.73390698 -0.67776000 1.905766e-42
31.96850000 -4.57959990 494.55301000 -0.02565900 0.75504202 -0.65517402 1.905766e-42
31.23030100 -5.57424020 493.24701000 -0.00904349 0.77636802 -0.63021600 1.905766e-42
30.43790100 -6.61587000 492.01099000 0.00342647 0.79457599 -0.60715503 1.905766e-42
29.81880000 -7.61705020 490.64999000 0.01511470 0.81126201 -0.58448797 1.905766e-42
29.05330100 -8.55241970 489.31601000 0.02695850 0.82637298 -0.56247699 1.905766e-42
28.03850000 -9.34490970 488.05801000 0.04056460 0.83951002 -0.54182798 1.905766e-42
27.29760000 -10.19670000 486.65601000 0.05400580 0.85172999 -0.52118999 1.905766e-42
26.51790000 -11.04720000 485.27399000 0.06545080 0.86037099 -0.50544697 1.905766e-42
25.49210000 -11.76490000 483.98099000 0.08178770 0.86483401 -0.49535099 1.905766e-42
24.31970000 -12.42060000 482.78299000 0.11042800 0.86858100 -0.48308599 1.905766e-42
23.24430100 -12.92070000 481.42899000 0.14793800 0.87170202 -0.46717200 1.905766e-42
22.43380000 -13.61910000 479.98099000 0.18769000 0.87342697 -0.44933000 1.905766e-42
21.39440000 -14.11030000 478.59601000 0.23660700 0.87354600 -0.42536399 1.905766e-42
20.17320100 -14.24590000 477.28101000 0.28123400 0.87212098 -0.40039000 1.905766e-42
19.23250000 -14.69690000 475.81400000 0.31719601 0.87009001 -0.37726599 1.905766e-42
18.37730000 -14.98590000 474.25699000 0.34951600 0.86794603 -0.35285801 1.905766e-42
17.74910000 -15.20210000 472.58401000 0.37896499 0.86498600 -0.32891500 1.905766e-42
17.39870100 -15.76450000 470.91000000 0.40700200 0.85972297 -0.30858701 1.905766e-42
16.07600000 -15.33710000 469.76700000 0.42803100 0.86124802 -0.27393800 1.905766e-42
14.73690000 -14.99730000 468.61301000 0.44384700 0.86262202 -0.24265601 1.905766e-42
13.56390000 -14.76760000 467.26700000 0.47212699 0.85547298 -0.21274900 1.905766e-42
12.37090000 -14.35590000 465.98401000 0.49623799 0.84828299 -0.18483400 1.905766e-42
11.41840000 -14.22840000 464.46201000 0.51739299 0.84079403 -0.15927801 1.905766e-42
10.18500000 -13.53430000 463.34900000 0.53480101 0.83468699 -0.13147300 1.905766e-42
