# .PCD v0.7 - Point Cloud Data file format
# 3 56 0
# 1 16 0
# 17 34 0
# 35 56 0
VERSION 0.7
FIELDS x y z normal_x normal_y normal_z curvature
SIZE 4 4 4 4 4 4 4
TYPE F F F F F F F
COUNT 1 1 1 1 1 1 1
WIDTH 56
HEIGHT 1
VIEWPOINT 0 0 0 1 0 0 0
POINTS 56
DATA ascii
23.895 6.00844 434.39899 0.145859 0.79684299 -0.58631498 1.9057659e-42
22.6318 5.9412899 435.51001 0.080434702 0.78489202 -0.61439002 1.9057659e-42
21.203199 6.1134801 434.42899 0.066194199 0.769328 -0.63541502 1.9057659e-42
19.432699 6.3803201 434.61401 0.083276302 0.76299798 -0.64101398 1.9057659e-42
18.0758 7.3125401 435.341 0.088657498 0.75829101 -0.645859 1.9057659e-42
16.5767 8.0255604 436.03699 0.0627174 0.75735903 -0.64998001 1.9057659e-42
15.1147 8.7519102 436.79599 0.0200317 0.76592398 -0.64261901 1.9057659e-42
13.3154 8.79634 436.82001 -0.035325799 0.76780301 -0.63971198 1.9057659e-42
11.5187 8.7183104 436.896 -0.0531119 0.77938998 -0.62428302 1.9057659e-42
9.7618399 8.85569 437.263 -0.053112999 0.79035401 -0.61034399 1.9057659e-42
8.0139704 9.0747805 437.633 -0.036495101 0.79052597 -0.61133999 1.9057659e-42
6.2403898 9.2135496 437.90701 -0.023384901 0.78622299 -0.61750001 1.9057659e-42
4.57479 9.5964098 438.47198 -0.0097779501 0.78224099 -0.622899 1.9057659e-42
2.7749901 9.6033201 438.44601 0.0229143 0.78386998 -0.620502 1.9057659e-42
0.97600001 9.6571503 438.41901 0.056802001 0.78277898 -0.61970198 1.9057659e-42
-0.811517 9.8519201 438.50201 0.0217824 0.76398897 -0.64486098 1.9057659e-42
-2.36151 10.4896 439.15799 -0.0032164301 0.75967401 -0.65029597 1.9057659e-42
-3.11708 11.4942 440.44699 -0.0130666 0.75797498 -0.652152 1.9057659e-42
-2.8650899 12.6667 441.789 0.00132269 0.75703597 -0.65337199 1.9057659e-42
-2.5430601 13.8442 443.112 0.0244343 0.75527102 -0.65495598 1.9057659e-42
-2.1235399 14.9568 444.46301 0.044367999 0.75046998 -0.65941298 1.9057659e-42
-1.51823 16.067101 445.74399 0.0461923 0.74413401 -0.66643202 1.9057659e-42
-0.64511698 17.098301 446.93301 0.052185301 0.741207 -0.669245 1.9057659e-42
-0.18078101 18.2591 448.228 0.046307702 0.73772597 -0.67351002 1.9057659e-42
0.76580697 19.222401 449.418 0.036207099 0.72951299 -0.68300802 1.9057659e-42
1.74121 20.2799 450.5 0.020852201 0.71520901 -0.69859999 1.9057659e-42
2.1803501 21.520901 451.728 -0.0149788 0.69635803 -0.71753901 1.9057659e-42
2.96295 22.6998 452.84 -0.0528186 0.68153697 -0.72987503 1.9057659e-42
4.0783601 23.807699 453.71701 -0.054271799 0.68484801 -0.72666198 1.9057659e-42
4.9274001 24.915501 454.853 -0.0123102 0.705401 -0.70870101 1.9057659e-42
5.94877 25.9072 455.95499 0.0294652 0.72102398 -0.69228399 1.9057659e-42
7.0328302 26.930599 456.96399 0.051332299 0.72652298 -0.68522203 1.9057659e-42
7.9944601 27.9445 458.09799 0.070949502 0.73086601 -0.67882299 1.9057659e-42
8.8891096 28.9221 459.31601 0.086100101 0.73517603 -0.67238599 1.9057659e-42
10.0345 29.760099 460.423 0.112764 0.74367499 -0.65896201 1.9057659e-42
11.2141 28.755501 459.50699 0.114687 0.74481899 -0.65733701 1.9057659e-42
12.1315 27.6674 458.405 0.111571 0.744672 -0.65803897 1.9057659e-42
12.7139 26.500099 457.16501 0.10084 0.74422699 -0.66026998 1.9057659e-42
14.0818 25.6243 456.38901 0.100129 0.75402999 -0.64916301 1.9057659e-42
15.2799 24.6576 455.45599 0.098289199 0.76147002 -0.64070398 1.9057659e-42
16.3379 23.661301 454.39401 0.099621899 0.76410902 -0.63734901 1.9057659e-42
17.557699 22.696501 453.48801 0.109245 0.764947 -0.63476098 1.9057659e-42
18.1854 21.588301 452.216 0.114546 0.76505297 -0.63369799 1.9057659e-42
19.2787 20.575899 451.20599 0.132164 0.76084799 -0.63532901 1.9057659e-42
20.243299 19.526501 450.10699 0.14752699 0.75683701 -0.63673699 1.9057659e-42
20.7756 18.226601 448.98199 0.156137 0.75358599 -0.63853699 1.9057659e-42
21.0452 17.155199 447.56 0.162617 0.75352502 -0.63699001 1.9057659e-42
21.7733 16.0058 446.38199 0.18605199 0.75331002 -0.63080001 1.9057659e-42
22.3897 14.8108 445.185 0.21832 0.74937499 -0.62511802 1.9057659e-42
22.6796 13.6179 443.86899 0.250705 0.747805 -0.61476398 1.9057659e-42
22.507299 12.569 442.41599 0.24352799 0.75776201 -0.60538399 1.9057659e-42
23.1446 11.3935 441.211 0.30258301 0.75503302 -0.58169502 1.9057659e-42
23.094999 10.3109 439.77399 0.24771 0.765953 -0.59325898 1.9057659e-42
23.8057 9.1988201 438.54999 0.33880299 0.75645 -0.55945998 1.9057659e-42
24.249201 7.9563398 437.32599 0.39446601 0.74761701 -0.53429002 1.9057659e-42
24.408501 7.0195599 435.797 0.29151699 0.76959699 -0.56810099 1.9057659e-42
