# .PCD v0.7 - Point Cloud Data file format
# 5 183 0
# 1 8 0
# 9 69 0
# 70 100 0
# 101 154 0
# 155 183 0
VERSION 0.7
FIELDS x y z normal_x normal_y normal_z curvature
SIZE 4 4 4 4 4 4 4
TYPE F F F F F F F
COUNT 1 1 1 1 1 1 1
WIDTH 183
HEIGHT 1
VIEWPOINT 0 0 0 1 0 0 0
POINTS 183
DATA ascii
60.29140100 34.25899900 539.21198000 0.04362940 -0.15302500 0.98725897 1.905766e-42
58.77690100 35.22829800 539.29498000 0.06613130 -0.15850399 0.98514098 1.905766e-42
57.04769900 35.60319900 539.62500000 0.08139760 -0.17162400 0.98179400 1.905766e-42
55.41159800 36.29169800 539.92401000 0.09313980 -0.17821699 0.97957301 1.905766e-42
53.86759900 37.18360100 540.16998000 0.09914990 -0.17844100 0.97894198 1.905766e-42
52.23989900 37.88060000 540.49402000 0.09792970 -0.17794000 0.97915602 1.905766e-42
51.01919900 39.20130200 540.56897000 0.09939370 -0.17329200 0.97984201 1.905766e-42
51.50059900 37.28329800 540.41400000 0.09263380 -0.18716700 0.97795099 1.905766e-42
49.85699800 37.95560100 540.70898000 0.08671540 -0.18553901 0.97880298 1.905766e-42
48.24340100 37.16050000 540.64398000 0.07719100 -0.20319900 0.97609001 1.905766e-42
46.63460200 36.37749900 540.44702000 0.06597140 -0.22156601 0.97291100 1.905766e-42
45.29330100 35.17729900 540.43500000 0.04967000 -0.23943999 0.96964002 1.905766e-42
43.57199900 34.87720100 540.00201000 0.03853590 -0.25937000 0.96500897 1.905766e-42
42.76020100 33.27650100 540.13898000 0.01675970 -0.27504000 0.96128702 1.905766e-42
41.12360000 32.60530100 539.80603000 0.00664471 -0.29147699 0.95655501 1.905766e-42
39.54769900 31.79420100 539.49200000 -0.00195211 -0.30613899 0.95198500 1.905766e-42
38.02930100 30.88419900 539.16498000 -0.01065680 -0.32079601 0.94708800 1.905766e-42
36.71390200 29.68870000 538.88202000 -0.02050630 -0.33553600 0.94180399 1.905766e-42
35.16050000 28.87260100 538.48102000 -0.02702530 -0.35130900 0.93586898 1.905766e-42
33.74879800 27.85940000 538.01099000 -0.03410290 -0.36820999 0.92911702 1.905766e-42
32.13280100 27.19710000 537.57501000 -0.03783050 -0.38437301 0.92240202 1.905766e-42
30.68320100 26.23060000 537.12299000 -0.04232750 -0.40296099 0.91423798 1.905766e-42
29.16260000 25.37999900 536.67102000 -0.04587680 -0.42196301 0.90545201 1.905766e-42
27.74029900 24.39460000 536.17499000 -0.05145920 -0.44325101 0.89491898 1.905766e-42
26.25309900 23.49300000 535.71100000 -0.05702970 -0.46340400 0.88431001 1.905766e-42
24.79509900 22.57230000 535.19501000 -0.06278240 -0.48427501 0.87265998 1.905766e-42
23.24539900 21.89749900 534.57599000 -0.06902960 -0.50202000 0.86209702 1.905766e-42
21.74440000 21.09359900 533.99200000 -0.07525230 -0.52165699 0.84982997 1.905766e-42
20.26470000 20.24090000 533.42297000 -0.08126180 -0.54224300 0.83628303 1.905766e-42
18.75200100 19.54660000 532.73798000 -0.08749150 -0.56145102 0.82287198 1.905766e-42
17.30680100 18.72100100 532.05298000 -0.09280650 -0.58378100 0.80658901 1.905766e-42
15.72670000 18.11270000 531.44202000 -0.09340930 -0.59850299 0.79565603 1.905766e-42
14.16460000 17.53470000 530.75897000 -0.09275420 -0.61264002 0.78490102 1.905766e-42
12.76930000 16.69949900 529.98700000 -0.09058750 -0.63304198 0.76879799 1.905766e-42
11.16010000 16.28850000 529.29401000 -0.09177350 -0.64291799 0.76041698 1.905766e-42
9.74516960 15.49130000 528.51703000 -0.09031980 -0.66150600 0.74448103 1.905766e-42
8.18105980 14.90720000 527.84497000 -0.09134620 -0.67339802 0.73361498 1.905766e-42
6.72125010 14.25390000 527.01898000 -0.09105460 -0.68893802 0.71907800 1.905766e-42
5.28883980 13.55020000 526.18597000 -0.09034740 -0.70517403 0.70325500 1.905766e-42
3.62378000 13.21020000 525.59302000 -0.09493580 -0.70984298 0.69793302 1.905766e-42
2.08357000 12.65090000 524.84802000 -0.09722980 -0.72122699 0.68584198 1.905766e-42
0.64530098 11.99000000 523.99103000 -0.09795840 -0.73614198 0.66970098 1.905766e-42
-1.04284000 11.77880000 523.40302000 -0.10383100 -0.73930502 0.66531700 1.905766e-42
-2.50346990 11.16740000 522.54700000 -0.10538400 -0.75285798 0.64969099 1.905766e-42
-4.14523980 10.95820000 521.84003000 -0.11029900 -0.75840998 0.64237702 1.905766e-42
-5.74815990 10.64000000 521.08502000 -0.11426900 -0.76632899 0.63220501 1.905766e-42
-7.33845000 10.23170000 520.34698000 -0.11791600 -0.77511901 0.62071401 1.905766e-42
-8.92053030 9.81077000 519.59900000 -0.12147000 -0.78414601 0.60857302 1.905766e-42
-10.48430000 9.48653980 518.76898000 -0.12349000 -0.79263097 0.59706402 1.905766e-42
-11.71570000 8.76323990 517.67297000 -0.12223100 -0.80796701 0.57641101 1.905766e-42
-13.38420000 8.56715010 517.02698000 -0.12521200 -0.81237000 0.56954098 1.905766e-42
-14.65890000 7.97393990 515.90302000 -0.12469000 -0.82571799 0.55013001 1.905766e-42
-16.37430000 7.89222000 515.36298000 -0.12851900 -0.82793897 0.54589403 1.905766e-42
-17.93950100 7.59202000 514.52698000 -0.13072100 -0.83497298 0.53453898 1.905766e-42
-19.39160000 7.16743990 513.55103000 -0.13232701 -0.84388298 0.51995301 1.905766e-42
-21.12990000 7.15644980 513.08502000 -0.13688999 -0.84511900 0.51675397 1.905766e-42
-22.84460100 7.18451020 512.53802000 -0.14160199 -0.84709698 0.51222700 1.905766e-42
-24.49440000 7.10782000 511.82199000 -0.14625500 -0.85140097 0.50371301 1.905766e-42
-26.02599900 6.76317980 510.94101000 -0.15022500 -0.85854000 0.49024600 1.905766e-42
-27.66890000 6.74949980 510.20599000 -0.15496001 -0.86315000 0.48058301 1.905766e-42
-29.16970100 6.38626000 509.28101000 -0.15947400 -0.87072498 0.46519500 1.905766e-42
-30.82480000 6.34947010 508.57401000 -0.16488300 -0.87553900 0.45414200 1.905766e-42
-32.43750000 6.24009990 507.78201000 -0.17103399 -0.88124001 0.44064000 1.905766e-42
-33.99250000 6.10400010 506.88599000 -0.17872500 -0.88730800 0.42513800 1.905766e-42
-35.61489900 6.09430980 506.10599000 -0.18736300 -0.89189303 0.41160801 1.905766e-42
-37.17419800 6.05786990 505.20801000 -0.19328900 -0.89632797 0.39904299 1.905766e-42
-38.78699900 6.18985990 504.42001000 -0.19780900 -0.90031701 0.38768601 1.905766e-42
-39.88480000 5.69224980 503.08301000 -0.20406500 -0.90520197 0.37278199 1.905766e-42
-41.61610000 6.13149020 502.85999000 -0.20180000 -0.90946400 0.36352599 1.905766e-42
-43.13320200 6.01805020 501.89801000 -0.19769800 -0.92265201 0.33110100 1.905766e-42
-42.50280000 5.27147010 500.38599000 -0.21615399 -0.91279799 0.34652099 1.905766e-42
-41.61439900 4.50943990 499.01901000 -0.21728501 -0.91571897 0.33800399 1.905766e-42
-40.91370000 3.83824990 497.50299000 -0.21436700 -0.92216098 0.32197100 1.905766e-42
-40.03640000 3.15089010 496.08899000 -0.20697001 -0.93125600 0.29987600 1.905766e-42
-38.87979900 2.50637010 494.87000000 -0.20099200 -0.93780798 0.28305200 1.905766e-42
-38.60220000 1.96898000 493.17499000 -0.19877300 -0.94393897 0.26357001 1.905766e-42
-37.72549800 1.37913000 491.71701000 -0.19496500 -0.94904798 0.24758200 1.905766e-42
-36.95700100 0.88322097 490.16699000 -0.19050901 -0.95438898 0.22988901 1.905766e-42
-36.16239900 0.38803601 488.63000000 -0.18337101 -0.96051800 0.20923799 1.905766e-42
-35.30120100 -0.11881000 487.13300000 -0.17583600 -0.96599001 0.18959200 1.905766e-42
-34.47610100 -0.51969701 485.58401000 -0.16830800 -0.97087097 0.17053400 1.905766e-42
-33.69329800 -0.87633902 484.00299000 -0.16039599 -0.97530401 0.15183900 1.905766e-42
-32.88600200 -1.23976000 482.43500000 -0.15181500 -0.97949803 0.13242100 1.905766e-42
-32.00550100 -1.63069000 480.91501000 -0.14364301 -0.98311502 0.11336000 1.905766e-42
-31.58790000 -1.77503000 479.17001000 -0.13760500 -0.98607302 0.09341190 1.905766e-42
-31.03270000 -1.94874000 477.46701000 -0.13154200 -0.98859298 0.07334980 1.905766e-42
-29.90110000 -2.31986000 476.11700000 -0.12168000 -0.99128002 0.05057260 1.905766e-42
-29.50309900 -2.35471010 474.36200000 -0.11360500 -0.99324399 0.02365550 1.905766e-42
-28.78220000 -2.43174000 472.71399000 -0.10601600 -0.99435598 -0.00402114 1.905766e-42
-28.00659900 -2.56409000 471.09500000 -0.09978920 -0.99449301 -0.03201270 1.905766e-42
-27.33970100 -2.56539990 469.42300000 -0.09604630 -0.99360698 -0.05933090 1.905766e-42
-26.70550000 -2.26688000 467.76599000 -0.09621490 -0.99205798 -0.08101920 1.905766e-42
-25.10450000 -2.36487010 466.94901000 -0.09564030 -0.99115998 -0.09194860 1.905766e-42
-23.62109900 -2.42494990 465.93100000 -0.09265620 -0.99009597 -0.10547400 1.905766e-42
-22.51630000 -2.21419000 464.52600000 -0.08826680 -0.98846602 -0.12305700 1.905766e-42
-21.48230000 -1.95984010 463.07401000 -0.08689820 -0.98690200 -0.13591400 1.905766e-42
-20.48609900 -1.95433000 461.57501000 -0.08504540 -0.98558497 -0.14624900 1.905766e-42
-18.95920000 -2.32075000 460.69501000 -0.07893770 -0.98504102 -0.15317400 1.905766e-42
-17.39760000 -2.38799000 459.80200000 -0.06975940 -0.98433501 -0.16192199 1.905766e-42
-15.83320000 -2.25869010 458.92200000 -0.05675600 -0.98315299 -0.17375000 1.905766e-42
-14.09740000 -2.18424010 458.45099000 -0.04538670 -0.98190701 -0.18384600 1.905766e-42
-12.31120000 -1.99077000 458.56000000 -0.03884340 -0.98120397 -0.18902300 1.905766e-42
-11.07710000 -2.51424000 459.76099000 -0.03862490 -0.98196298 -0.18508400 1.905766e-42
-9.67928980 -2.73465990 460.87399000 -0.03796640 -0.98268700 -0.18133900 1.905766e-42
-9.01467990 -3.26916000 462.45901000 -0.04084420 -0.98451900 -0.17045499 1.905766e-42
-7.55580000 -3.46879010 463.49399000 -0.04058080 -0.98542398 -0.16520600 1.905766e-42
-6.21048020 -3.60599990 464.68201000 -0.04166650 -0.98668998 -0.15718301 1.905766e-42
-5.10013010 -3.91871000 466.06400000 -0.04330840 -0.98861098 -0.14412899 1.905766e-42
-3.47471000 -3.96209000 466.83600000 -0.04214860 -0.98924798 -0.14004400 1.905766e-42
-2.13641000 -4.22295000 468.01099000 -0.04335080 -0.99056101 -0.13003901 1.905766e-42
-0.89156002 -4.46716980 469.28799000 -0.04560720 -0.99193799 -0.11823500 1.905766e-42
0.28238299 -4.76337000 470.62000000 -0.04885130 -0.99328899 -0.10483900 1.905766e-42
1.80442000 -4.81964020 471.57901000 -0.05041430 -0.99391401 -0.09794690 1.905766e-42
2.98326990 -5.14137980 472.90100000 -0.05475460 -0.99497700 -0.08379920 1.905766e-42
4.10645010 -5.25264980 474.30301000 -0.06025280 -0.99590403 -0.06741190 1.905766e-42
5.31486990 -5.41668990 475.62701000 -0.06860340 -0.99621803 -0.05332600 1.905766e-42
6.48985000 -5.58189010 476.98001000 -0.07842200 -0.99618000 -0.03839970 1.905766e-42
8.16032030 -5.47567990 477.64200000 -0.08238240 -0.99581200 -0.03963910 1.905766e-42
9.28594020 -5.78547000 479.01300000 -0.09231350 -0.99544102 -0.02399060 1.905766e-42
10.36060000 -6.09403990 480.42300000 -0.10344300 -0.99461699 -0.00598161 1.905766e-42
11.72180000 -6.21172000 481.59500000 -0.11208100 -0.99368602 0.00513260 1.905766e-42
12.96090000 -6.35199020 482.89301000 -0.12277200 -0.99221301 0.02096150 1.905766e-42
14.47720000 -6.44074010 483.85901000 -0.12871300 -0.99134302 0.02593930 1.905766e-42
15.63570000 -6.64158010 485.22198000 -0.14118300 -0.98893797 0.04547700 1.905766e-42
16.90449900 -6.74589010 486.49399000 -0.14381500 -0.98727399 0.06787270 1.905766e-42
18.54260100 -6.89637990 487.22501000 -0.13599800 -0.98828697 0.06924050 1.905766e-42
19.97960100 -6.94990020 488.30801000 -0.13476300 -0.98731202 0.08398420 1.905766e-42
21.08760100 -7.10717010 489.71799000 -0.14088300 -0.98359799 0.11264100 1.905766e-42
22.70850000 -7.20739980 490.49399000 -0.13423300 -0.98417002 0.11571700 1.905766e-42
24.29350100 -7.20617010 491.34698000 -0.13022400 -0.98381299 0.12310000 1.905766e-42
25.79670000 -7.21498010 492.33701000 -0.12923300 -0.98223603 0.13605601 1.905766e-42
27.07679900 -7.38946010 493.59000000 -0.13245299 -0.97848803 0.15816900 1.905766e-42
28.68320100 -7.43492980 494.40100000 -0.13173801 -0.97730601 0.16588899 1.905766e-42
30.40239900 -7.20233010 494.88101000 -0.13300300 -0.97698599 0.16675900 1.905766e-42
31.62050100 -7.52774000 496.16599000 -0.14037400 -0.97180402 0.18945301 1.905766e-42
33.21889900 -7.62193010 496.98801000 -0.14621399 -0.96865302 0.20083199 1.905766e-42
34.86080200 -7.74590020 497.71500000 -0.15336800 -0.96534097 0.21117599 1.905766e-42
36.60590000 -7.87773990 498.13599000 -0.16213000 -0.96286303 0.21588901 1.905766e-42
38.24409900 -8.08633040 498.85199000 -0.17279001 -0.95808399 0.22851600 1.905766e-42
39.97720000 -8.23869990 499.31400000 -0.18526100 -0.95370400 0.23691200 1.905766e-42
41.71300100 -8.41065030 499.75800000 -0.19920500 -0.94861901 0.24584500 1.905766e-42
43.14310100 -8.48441980 500.84900000 -0.21295500 -0.93957198 0.26805699 1.905766e-42
44.66989900 -8.27138040 501.77802000 -0.23187700 -0.93000400 0.28517601 1.905766e-42
45.62960100 -8.26006030 503.30099000 -0.24555901 -0.91718698 0.31379899 1.905766e-42
46.93199900 -8.18352030 504.54099000 -0.26250601 -0.90431201 0.33661601 1.905766e-42
48.21680100 -8.15495970 505.80099000 -0.27918899 -0.89052099 0.35920200 1.905766e-42
49.86309800 -8.07217030 506.52399000 -0.29886699 -0.87907201 0.37136400 1.905766e-42
51.34489800 -7.99795010 507.54401000 -0.31651801 -0.86516500 0.38898000 1.905766e-42
52.67940100 -8.04870030 508.75101000 -0.33256799 -0.85001999 0.40849000 1.905766e-42
54.09700000 -8.11839960 509.85800000 -0.34866399 -0.83524501 0.42520499 1.905766e-42
55.24630000 -8.22430990 511.23901000 -0.35852101 -0.81829298 0.44928801 1.905766e-42
56.77520000 -8.43544960 512.16498000 -0.37281200 -0.80361700 0.46390900 1.905766e-42
58.27619900 -8.55348970 513.15100000 -0.38733199 -0.78701597 0.48018700 1.905766e-42
59.85620100 -8.68618010 514.00403000 -0.40396801 -0.76996303 0.49393001 1.905766e-42
61.47020000 -8.68290040 514.79999000 -0.42176101 -0.75086999 0.50824398 1.905766e-42
61.08449900 -7.79718020 516.31897000 -0.40955201 -0.73569202 0.53946799 1.905766e-42
60.60039900 -6.72054000 517.67798000 -0.39766100 -0.71978402 0.56901401 1.905766e-42
60.51789900 -5.47657010 518.97699000 -0.39118001 -0.69828999 0.59947401 1.905766e-42
60.36190000 -4.20784000 520.24402000 -0.38661799 -0.67275298 0.63081700 1.905766e-42
59.91130100 -2.84519000 521.33002000 -0.37365901 -0.65565699 0.65611899 1.905766e-42
59.87440100 -1.57195000 522.60199000 -0.36195001 -0.63720900 0.68040901 1.905766e-42
59.49549900 -0.13862100 523.62299000 -0.34523800 -0.62082201 0.70384002 1.905766e-42
59.00899900 1.28815000 524.60602000 -0.32681000 -0.60365701 0.72718197 1.905766e-42
58.70389900 2.72480010 525.64697000 -0.30635700 -0.58840799 0.74827898 1.905766e-42
58.73140000 4.34372000 526.43298000 -0.28758100 -0.57223803 0.76801097 1.905766e-42
58.22510100 5.63547990 527.58002000 -0.26513699 -0.55947298 0.78529799 1.905766e-42
57.79349900 7.09927990 528.53497000 -0.24285600 -0.54528099 0.80230302 1.905766e-42
57.70349900 8.61857990 529.49597000 -0.22401400 -0.52562398 0.82069302 1.905766e-42
57.99259900 10.12700000 530.43402000 -0.20964400 -0.50160301 0.83931100 1.905766e-42
58.14970000 11.61530000 531.43500000 -0.19369200 -0.47828099 0.85658097 1.905766e-42
58.35290100 13.23700000 532.18903000 -0.17748401 -0.45453799 0.87286597 1.905766e-42
58.36980100 14.84220000 533.00299000 -0.15903901 -0.43153399 0.88796699 1.905766e-42
58.44189800 16.45529900 533.79901000 -0.14086600 -0.40696999 0.90251398 1.905766e-42
58.37139900 18.08060100 534.56897000 -0.12063600 -0.38353699 0.91561300 1.905766e-42
58.58380100 19.74770000 535.21301000 -0.10281900 -0.35776100 0.92813498 1.905766e-42
59.11349900 21.43149900 535.56598000 -0.08860590 -0.33025101 0.93972498 1.905766e-42
59.16930000 23.06609900 536.31799000 -0.06835910 -0.30728301 0.94915998 1.905766e-42
59.24480100 24.70439900 537.06000000 -0.04801500 -0.28538299 0.95721000 1.905766e-42
59.26540000 26.42670100 537.58197000 -0.02653790 -0.26539400 0.96377498 1.905766e-42
60.03300100 28.00470000 537.98297000 -0.01765220 -0.23552901 0.97170699 1.905766e-42
60.87979900 29.59250100 538.02502000 -0.01045900 -0.20614199 0.97846597 1.905766e-42
61.64009900 31.17480100 538.42297000 -0.00206480 -0.17710800 0.98418897 1.905766e-42
61.41799900 32.87739900 538.96399000 0.01803250 -0.15730600 0.98738497 1.905766e-42
