# .PCD v0.7 - Point Cloud Data file format
# 3 128 0
# 1 56 0
# 57 100 0
# 101 128 0
VERSION 0.7
FIELDS x y z normal_x normal_y normal_z curvature
SIZE 4 4 4 4 4 4 4
TYPE F F F F F F F
COUNT 1 1 1 1 1 1 1
WIDTH 128
HEIGHT 1
VIEWPOINT 0 0 0 1 0 0 0
POINTS 128
DATA ascii
58.81100100 13.44890000 462.73801000 -0.06302700 -0.76369500 0.64249301 1.905766e-42
57.45489900 14.27580000 463.58499000 -0.05920940 -0.76029497 0.64687401 1.905766e-42
55.73440200 14.62420000 463.98300000 -0.03327190 -0.73740703 0.67462897 1.905766e-42
54.00999800 15.02480000 464.30801000 -0.02496470 -0.72561598 0.68764699 1.905766e-42
52.43180100 15.73770000 464.79901000 -0.02220430 -0.71116501 0.70267397 1.905766e-42
50.65860000 15.92150000 465.04800000 -0.01674360 -0.70089000 0.71307302 1.905766e-42
48.98659900 16.50550100 465.37000000 -0.01412560 -0.68555701 0.72788203 1.905766e-42
47.19300100 16.48880000 465.52100000 -0.00917268 -0.67727399 0.73567402 1.905766e-42
45.44179900 16.77450000 465.82401000 -0.00749522 -0.66588598 0.74601603 1.905766e-42
43.74269900 17.27190000 466.14801000 -0.00731030 -0.65336400 0.75700802 1.905766e-42
41.96210100 17.46470100 466.32800000 -0.00717364 -0.64680803 0.76261902 1.905766e-42
40.17250100 17.57379900 466.48700000 -0.00821253 -0.64278698 0.76600099 1.905766e-42
38.52380000 18.17779900 466.88400000 -0.00998594 -0.63154298 0.77527702 1.905766e-42
36.74330100 18.37299900 467.06201000 -0.01477720 -0.62745798 0.77850997 1.905766e-42
35.09840000 18.95750000 467.50101000 -0.02082790 -0.61570299 0.78770298 1.905766e-42
33.40779900 19.50000000 467.79700000 -0.02767320 -0.60663903 0.79449600 1.905766e-42
31.67000000 19.89080000 468.05600000 -0.03554740 -0.60064203 0.79872698 1.905766e-42
29.95130000 20.38550000 468.26001000 -0.04386900 -0.59429401 0.80304998 1.905766e-42
28.19520000 20.72069900 468.46899000 -0.05322460 -0.59062600 0.80518800 1.905766e-42
26.48200000 21.23500100 468.67001000 -0.06139450 -0.58504403 0.80867398 1.905766e-42
24.70719900 21.48700000 468.83301000 -0.06795350 -0.58476698 0.80835003 1.905766e-42
22.99049900 21.98440000 469.04599000 -0.07279870 -0.57958198 0.81165600 1.905766e-42
21.21460000 22.27590000 469.08301000 -0.07698770 -0.57747298 0.81277102 1.905766e-42
19.59339900 23.00910000 469.35501000 -0.07955060 -0.56629401 0.82035500 1.905766e-42
17.97370000 23.77459900 469.52899000 -0.08187070 -0.55520397 0.82767498 1.905766e-42
16.19220000 23.96600000 469.70200000 -0.08350460 -0.55006999 0.83093297 1.905766e-42
14.39510000 23.98480000 469.60101000 -0.08287580 -0.54994601 0.83107799 1.905766e-42
13.01190000 25.01540000 470.11600000 -0.08286570 -0.53480399 0.84090298 1.905766e-42
11.30860000 25.56920100 470.29501000 -0.08297480 -0.52750498 0.84548998 1.905766e-42
9.82273960 26.58219900 470.37299000 -0.08319820 -0.51593900 0.85257602 1.905766e-42
8.18070980 27.07040000 470.92499000 -0.08370990 -0.50729400 0.85769802 1.905766e-42
6.74863000 28.13550000 471.15900000 -0.08403770 -0.49431601 0.86521101 1.905766e-42
5.04946990 28.65500100 471.44699000 -0.08898090 -0.48624501 0.86927998 1.905766e-42
3.79390000 29.87830000 471.85599000 -0.09548300 -0.46891201 0.87806898 1.905766e-42
2.28265000 30.79240000 472.20300000 -0.10348400 -0.45671001 0.88357598 1.905766e-42
0.65865201 31.52300100 472.46600000 -0.11287400 -0.44818899 0.88678402 1.905766e-42
-1.08776000 31.95509900 472.52301000 -0.12456300 -0.44511801 0.88676602 1.905766e-42
-2.55570010 32.96649900 472.77301000 -0.13377699 -0.43511099 0.89038301 1.905766e-42
-4.02070000 33.99539900 472.95999000 -0.14387400 -0.42571300 0.89334702 1.905766e-42
-5.71731000 34.59650000 472.97400000 -0.15860200 -0.42162001 0.89279401 1.905766e-42
-7.26277020 35.50239900 473.14999000 -0.17178901 -0.41300699 0.89437902 1.905766e-42
-8.61909010 36.67350000 473.32001000 -0.18558300 -0.40514901 0.89521700 1.905766e-42
-10.23230000 37.46559900 473.42001000 -0.20104100 -0.39764100 0.89524502 1.905766e-42
-11.99320000 37.55400100 473.05801000 -0.21640600 -0.39311001 0.89366299 1.905766e-42
-13.31800000 38.76530100 473.19000000 -0.22552399 -0.38471699 0.89506000 1.905766e-42
-14.93560000 39.53580100 473.01801000 -0.23047601 -0.38603500 0.89322901 1.905766e-42
-15.26440000 39.99549900 473.23401000 -0.23096500 -0.38709900 0.89264202 1.905766e-42
-17.02319900 39.96060200 472.85300000 -0.23703200 -0.38823900 0.89055401 1.905766e-42
-18.61450000 39.65969800 472.06699000 -0.24300200 -0.38837299 0.88888502 1.905766e-42
-20.15560000 38.98560000 471.42599000 -0.24895599 -0.38764501 0.88755399 1.905766e-42
-21.63089900 38.17950100 470.78299000 -0.25585499 -0.38640001 0.88613403 1.905766e-42
-23.15710100 37.59450100 470.02899000 -0.27213299 -0.39546701 0.87723899 1.905766e-42
-24.58190000 36.86389900 469.20700000 -0.28906301 -0.40475699 0.86753398 1.905766e-42
-25.92340100 36.04290000 468.33099000 -0.30404001 -0.41263899 0.85865498 1.905766e-42
-27.18380000 35.31840100 467.26999000 -0.31747600 -0.42041001 0.84997898 1.905766e-42
-28.35960000 34.24969900 466.42401000 -0.33009300 -0.43280300 0.83888000 1.905766e-42
-29.35110100 33.05379900 465.51501000 -0.33928099 -0.44635201 0.82804501 1.905766e-42
-29.58849900 31.50280000 464.63300000 -0.34046000 -0.46469399 0.81740201 1.905766e-42
-29.60540000 29.98590100 463.66400000 -0.33656001 -0.48129299 0.80937302 1.905766e-42
-29.59170000 28.49749900 462.65201000 -0.33114299 -0.50050300 0.79990101 1.905766e-42
-29.57500100 26.92930000 461.76901000 -0.32475799 -0.52195901 0.78872800 1.905766e-42
-28.24970100 25.72820100 461.56601000 -0.31769899 -0.54001200 0.77939397 1.905766e-42
-27.31310100 24.34650000 460.89301000 -0.31092399 -0.56100798 0.76719999 1.905766e-42
-25.85840000 23.29229900 460.78101000 -0.30160600 -0.57481498 0.76067102 1.905766e-42
-24.64030100 22.05579900 460.30399000 -0.29236299 -0.59178603 0.75120801 1.905766e-42
-23.45940000 20.98810000 459.46399000 -0.28375399 -0.60985702 0.73997200 1.905766e-42
-21.92320100 20.09700000 459.75601000 -0.26689500 -0.61562300 0.74146801 1.905766e-42
-20.60440100 18.97680100 459.26099000 -0.25803801 -0.63049197 0.73204899 1.905766e-42
-19.12990000 18.00340100 458.91599000 -0.24744800 -0.64241302 0.72531003 1.905766e-42
-17.73630000 16.96740000 458.44199000 -0.23880500 -0.65638000 0.71563798 1.905766e-42
-16.21229900 16.07410000 458.09698000 -0.22856501 -0.66680503 0.70931602 1.905766e-42
-14.99720000 15.05600000 457.24399000 -0.22396000 -0.68373001 0.69451803 1.905766e-42
-13.30460000 14.48550000 457.46701000 -0.20937400 -0.68360001 0.69918102 1.905766e-42
-11.99770000 13.41960000 456.83801000 -0.20279200 -0.69713402 0.68766201 1.905766e-42
-10.86460000 12.34280000 455.94501000 -0.19865499 -0.71228898 0.67318702 1.905766e-42
-9.43945030 11.35840000 455.45499000 -0.18971901 -0.72131598 0.66611600 1.905766e-42
-8.27941990 10.41550000 454.45300000 -0.18525399 -0.73317999 0.65431499 1.905766e-42
-6.66492990 9.64295010 454.26099000 -0.17234699 -0.73606700 0.65460002 1.905766e-42
-5.12530990 8.85410980 453.76401000 -0.16132200 -0.74040598 0.65251398 1.905766e-42
-3.88819000 7.86329980 452.91101000 -0.14717300 -0.74950200 0.64543599 1.905766e-42
-2.61195990 6.92578980 452.05499000 -0.13211501 -0.76033401 0.63595402 1.905766e-42
-1.17066000 6.10539010 451.35501000 -0.11552900 -0.77100497 0.62626201 1.905766e-42
0.15469299 5.23239990 450.50601000 -0.10088000 -0.78354502 0.61308998 1.905766e-42
1.56612000 4.44987010 449.70901000 -0.08588890 -0.79545099 0.59990102 1.905766e-42
2.90402010 3.63528990 448.82199000 -0.07208320 -0.80791199 0.58487803 1.905766e-42
4.43054010 3.00205990 448.10901000 -0.05991400 -0.81730700 0.57307798 1.905766e-42
5.57922980 2.22689010 446.95999000 -0.05360200 -0.82926100 0.55628502 1.905766e-42
6.75994010 1.47936000 445.82501000 -0.04685600 -0.84040302 0.53993201 1.905766e-42
8.12843040 0.78313798 444.88599000 -0.03891230 -0.84954500 0.52607799 1.905766e-42
9.67860030 0.18966700 444.19000000 -0.02988630 -0.85640103 0.51544601 1.905766e-42
10.96560000 -0.49441800 443.13300000 -0.02059490 -0.86335999 0.50416797 1.905766e-42
11.99330000 -0.96011400 441.73099000 -0.00974207 -0.86881900 0.49503300 1.905766e-42
13.43650000 -1.55699000 440.83600000 -0.00045555 -0.87543201 0.48334199 1.905766e-42
14.96690000 -2.13095000 440.08200000 0.00755152 -0.88251400 0.47022501 1.905766e-42
16.53179900 -2.57110000 439.30899000 0.01522900 -0.89020199 0.45531100 1.905766e-42
17.83060100 -3.09339000 438.17801000 0.02467110 -0.89991099 0.43537501 1.905766e-42
19.00120000 -3.63236000 436.92099000 0.03596230 -0.91129398 0.41018400 1.905766e-42
20.31990100 -4.09121990 435.78500000 0.04781200 -0.92392999 0.37956300 1.905766e-42
21.46800000 -4.48725990 434.45599000 0.06201440 -0.93841499 0.33989799 1.905766e-42
22.93190000 -4.75581980 433.44400000 0.06676590 -0.95166802 0.29978400 1.905766e-42
24.29240000 -4.79537010 432.26599000 0.07291270 -0.96430200 0.25456899 1.905766e-42
25.77220000 -4.35871980 433.19299000 0.05970940 -0.96077400 0.27082700 1.905766e-42
26.97640000 -3.95409990 434.46799000 0.05260670 -0.95110202 0.30436301 1.905766e-42
27.96159900 -3.64685010 435.94299000 0.05248860 -0.93473399 0.35144901 1.905766e-42
29.35020100 -3.05146000 436.92099000 0.05951150 -0.91856301 0.39076999 1.905766e-42
30.50939900 -2.56419990 438.20901000 0.05247060 -0.91516101 0.39965799 1.905766e-42
31.92650000 -1.96396990 439.14301000 0.04708120 -0.91403198 0.40290001 1.905766e-42
33.14709900 -1.45426000 440.36401000 0.03983860 -0.91190100 0.40847301 1.905766e-42
34.44450000 -0.92824399 441.49500000 0.03689210 -0.90667999 0.42020300 1.905766e-42
35.85170000 -0.21914700 442.36499000 0.03681770 -0.90121400 0.43180901 1.905766e-42
36.56169900 0.32224801 443.92801000 0.03491620 -0.89152098 0.45163199 1.905766e-42
38.06079900 1.00543000 444.65302000 0.03709450 -0.88682699 0.46061099 1.905766e-42
39.31580000 1.54249000 445.82700000 0.03862210 -0.88025498 0.47292599 1.905766e-42
40.65240100 2.18647000 446.84601000 0.04100900 -0.87427998 0.48368600 1.905766e-42
41.99150100 2.82024000 447.86801000 0.04339490 -0.86841297 0.49393901 1.905766e-42
42.86600100 3.54203010 449.26599000 0.04358130 -0.86060297 0.50740898 1.905766e-42
44.30490100 4.18983980 450.13199000 0.04457830 -0.85591698 0.51518798 1.905766e-42
45.70520000 5.02166990 450.89801000 0.04401520 -0.85141098 0.52264798 1.905766e-42
46.78889800 5.57102010 452.22601000 0.04088900 -0.84493703 0.53329998 1.905766e-42
48.01839800 6.35689020 453.28000000 0.03816270 -0.83762002 0.54491800 1.905766e-42
49.45019900 7.07972000 454.09698000 0.03500230 -0.83216900 0.55341601 1.905766e-42
50.78599900 7.79340980 455.07001000 0.03012180 -0.82572800 0.56326401 1.905766e-42
51.74250000 8.58555980 456.37299000 0.02267450 -0.81647402 0.57693702 1.905766e-42
53.11190000 9.27616980 457.31500000 0.01374980 -0.81166798 0.58395702 1.905766e-42
54.35749800 10.04720000 458.36099000 0.00347569 -0.80433899 0.59416002 1.905766e-42
55.48659900 10.88620000 459.48401000 -0.00716666 -0.79352200 0.60849899 1.905766e-42
56.47499800 11.80480000 460.67599000 -0.01440650 -0.77590603 0.63068402 1.905766e-42
57.90549900 12.57360000 461.45200000 -0.02611260 -0.76962900 0.63795799 1.905766e-42
