# .PCD v0.7 - Point Cloud Data file format
# 3 92 0
# 1 33 0
# 34 65 0
# 66 92 0
VERSION 0.7
FIELDS x y z normal_x normal_y normal_z curvature
SIZE 4 4 4 4 4 4 4
TYPE F F F F F F F
COUNT 1 1 1 1 1 1 1
WIDTH 92
HEIGHT 1
VIEWPOINT 0 0 0 1 0 0 0
POINTS 92
DATA ascii
-9.30852030 12.40750000 469.59601000 0.54768097 0.78821498 -0.28064799 1.905766e-42
-11.09780000 14.01090000 472.03699000 0.54168397 0.78853399 -0.29119101 1.905766e-42
-11.26630000 15.13520000 473.43301000 0.52947098 0.78735799 -0.31579900 1.905766e-42
-11.67090000 16.17090000 474.84799000 0.51580501 0.78363198 -0.34621799 1.905766e-42
-10.71130000 16.51250100 476.33200000 0.49977100 0.77415299 -0.38847899 1.905766e-42
-10.27870000 17.00690100 478.00800000 0.47483999 0.76662999 -0.43220901 1.905766e-42
-9.87784960 17.63500000 479.64700000 0.44048700 0.76098198 -0.47631699 1.905766e-42
-9.24707980 18.31600000 481.18900000 0.42317900 0.75563401 -0.49993700 1.905766e-42
-8.49133970 18.89270000 482.71701000 0.43732700 0.74942499 -0.49710000 1.905766e-42
-7.69420000 19.41980000 484.24301000 0.45120099 0.74204302 -0.49577099 1.905766e-42
-6.84249020 19.90020000 485.75400000 0.46558201 0.73219597 -0.49711400 1.905766e-42
-5.63362980 20.10330000 487.07199000 0.46873301 0.72016102 -0.51152402 1.905766e-42
-5.04224010 20.76639900 488.63800000 0.45561901 0.70910501 -0.53812802 1.905766e-42
-4.19230990 21.43989900 490.07401000 0.43793800 0.70396602 -0.55914402 1.905766e-42
-3.34886000 22.10540000 491.51801000 0.42173100 0.69728398 -0.57960200 1.905766e-42
-2.92285990 23.03480000 493.00000000 0.40473899 0.69141197 -0.59844398 1.905766e-42
-2.29498000 23.90180000 494.44699000 0.39066699 0.68163699 -0.61866802 1.905766e-42
-1.71198000 24.78300100 495.90399000 0.37874201 0.67049903 -0.63795400 1.905766e-42
-0.80610502 25.70030000 497.16000000 0.36935699 0.65820903 -0.65600002 1.905766e-42
0.32507601 26.40340000 498.37100000 0.35587400 0.64457500 -0.67666602 1.905766e-42
1.41111000 26.98170100 499.68500000 0.33485800 0.62950999 -0.70113301 1.905766e-42
2.61309000 27.64510000 500.84900000 0.31373301 0.61688799 -0.72181797 1.905766e-42
4.18135020 28.05229900 501.63300000 0.28896099 0.61054200 -0.73738801 1.905766e-42
5.63329980 28.54320000 502.57700000 0.25141501 0.60380799 -0.75644302 1.905766e-42
7.04572010 29.18339900 503.49100000 0.20355900 0.59586400 -0.77685899 1.905766e-42
8.46232030 29.82749900 504.39600000 0.15211800 0.58862400 -0.79396600 1.905766e-42
10.08700000 30.35820000 504.95999000 0.09404150 0.58144498 -0.80813199 1.905766e-42
11.80720000 30.73930000 505.32800000 0.04789140 0.57785201 -0.81473500 1.905766e-42
13.36800000 31.44370100 505.88300000 0.00847131 0.57268298 -0.81973302 1.905766e-42
14.57850000 32.57220100 506.59100000 -0.02639810 0.56431401 -0.82513797 1.905766e-42
15.96910000 33.50960200 507.24500000 -0.06975290 0.54949403 -0.83258098 1.905766e-42
17.18129900 34.69340100 507.85300000 -0.13353799 0.52337497 -0.84157401 1.905766e-42
18.47430000 35.85269900 508.32599000 -0.18636900 0.50850600 -0.84064698 1.905766e-42
19.80620000 36.99850100 508.71701000 -0.22868900 0.51883101 -0.82372099 1.905766e-42
21.50910000 37.09590100 508.14200000 -0.27561101 0.49977499 -0.82113498 1.905766e-42
22.71110000 36.16000000 507.18301000 -0.30573899 0.47933099 -0.82265800 1.905766e-42
23.92520000 35.27190000 506.19501000 -0.34733400 0.47461399 -0.80876499 1.905766e-42
24.48110000 33.91859800 505.14600000 -0.37307799 0.47126901 -0.79919899 1.905766e-42
25.55110000 32.94649900 504.07401000 -0.40410700 0.46083099 -0.79014701 1.905766e-42
26.67390100 32.02640200 503.01001000 -0.42916301 0.45225301 -0.78184801 1.905766e-42
27.31990100 30.77840000 501.88501000 -0.43742901 0.45239100 -0.77717298 1.905766e-42
28.05139900 29.56380100 500.77600000 -0.44200400 0.45312601 -0.77415001 1.905766e-42
28.98520100 28.54420100 499.62299000 -0.44929400 0.45515901 -0.76874298 1.905766e-42
29.80579900 27.43149900 498.47101000 -0.45313901 0.46263301 -0.76199502 1.905766e-42
30.90160000 26.58490000 497.32101000 -0.45778599 0.46812701 -0.75583702 1.905766e-42
31.54579900 25.36300100 496.16699000 -0.45564499 0.47828501 -0.75075400 1.905766e-42
32.71880000 24.43910000 495.16101000 -0.45647699 0.48505899 -0.74588698 1.905766e-42
32.95800000 23.25860000 493.82401000 -0.45564499 0.49667200 -0.73871797 1.905766e-42
33.67290100 22.10339900 492.64301000 -0.45506200 0.50413001 -0.73401099 1.905766e-42
34.36040100 20.90519900 491.48901000 -0.45484400 0.50936198 -0.73052597 1.905766e-42
34.78329800 19.66270100 490.25699000 -0.45717999 0.51313102 -0.72641802 1.905766e-42
35.36389900 18.48240100 489.02802000 -0.46042401 0.51667899 -0.72183901 1.905766e-42
35.84690100 17.23130000 487.82800000 -0.45725599 0.51177698 -0.72732502 1.905766e-42
36.65440000 16.08740000 486.69699000 -0.44881499 0.51190400 -0.73247498 1.905766e-42
36.90459800 14.82550000 485.43799000 -0.44571900 0.51491100 -0.73225701 1.905766e-42
37.82350200 13.81690000 484.26401000 -0.42817301 0.53726298 -0.72664702 1.905766e-42
38.34339900 12.51070000 483.14001000 -0.41080901 0.57529402 -0.70729899 1.905766e-42
37.48090000 11.20660000 482.24799000 -0.38158599 0.62336200 -0.68250501 1.905766e-42
36.71659900 9.85684970 481.33499000 -0.35095000 0.66647398 -0.65775901 1.905766e-42
36.52999900 8.52544020 480.13800000 -0.32780200 0.70064002 -0.63375801 1.905766e-42
36.53640000 7.26367000 478.85400000 -0.30573100 0.72720701 -0.61457199 1.905766e-42
35.93479900 6.15387010 477.57101000 -0.27635700 0.75475299 -0.59495801 1.905766e-42
35.95399900 5.09333990 476.11700000 -0.25320801 0.77596098 -0.57772899 1.905766e-42
35.74770000 4.00316000 474.69901000 -0.22888499 0.79806697 -0.55740601 1.905766e-42
35.55460000 2.94888000 473.25299000 -0.20676200 0.81723601 -0.53793502 1.905766e-42
34.96320000 1.81864000 471.98300000 -0.18350799 0.83462298 -0.51935399 1.905766e-42
33.17810100 1.58785000 471.98700000 -0.14488600 0.85289401 -0.50157702 1.905766e-42
31.38730000 1.40613000 471.97800000 -0.09464890 0.87110502 -0.48188901 1.905766e-42
29.59020000 1.30527000 471.96899000 -0.03900450 0.88741398 -0.45932099 1.905766e-42
27.79130000 1.25703000 471.92899000 0.01748310 0.90138203 -0.43267101 1.905766e-42
26.14460000 0.94267398 471.27301000 0.05406110 0.90403199 -0.42403299 1.905766e-42
24.54929900 1.35617010 471.99701000 0.06669140 0.91316599 -0.40209499 1.905766e-42
22.95540000 1.15886000 471.18399000 0.09476580 0.91508299 -0.39197299 1.905766e-42
21.18079900 1.44754000 471.26999000 0.12769599 0.91515201 -0.38234800 1.905766e-42
19.67790000 2.04903010 472.05701000 0.15641201 0.91232502 -0.37841600 1.905766e-42
17.93370100 2.46996000 472.20099000 0.19021100 0.90907001 -0.37069100 1.905766e-42
16.36640000 3.00858000 472.90302000 0.20941199 0.90476501 -0.37087300 1.905766e-42
14.61340000 3.38352990 473.06601000 0.22886799 0.89904898 -0.37326899 1.905766e-42
13.12600000 4.11139010 473.77200000 0.24713100 0.89270800 -0.37682700 1.905766e-42
11.62440000 4.89425990 474.38199000 0.26491001 0.88648301 -0.37943399 1.905766e-42
9.91001990 5.44284010 474.39099000 0.28630501 0.88063997 -0.37749499 1.905766e-42
8.20485020 6.01838020 474.35699000 0.31276700 0.87290198 -0.37445799 1.905766e-42
6.49846980 6.56899980 474.19901000 0.34149101 0.86370999 -0.37066001 1.905766e-42
4.90056990 6.79861020 473.40201000 0.35652900 0.85636401 -0.37353399 1.905766e-42
3.24270010 7.12473010 472.78201000 0.36830601 0.85064501 -0.37517199 1.905766e-42
1.70524000 8.05926990 472.72900000 0.37635601 0.84631801 -0.37696299 1.905766e-42
0.10438100 8.39192960 471.97601000 0.37818500 0.84559399 -0.37675899 1.905766e-42
-1.57180000 9.00226970 471.73499000 0.38820800 0.84556198 -0.36649600 1.905766e-42
-3.22168990 9.45145030 471.17300000 0.42341900 0.83838803 -0.34325099 1.905766e-42
-4.80801010 10.30190000 471.15601000 0.45728400 0.82520598 -0.33155000 1.905766e-42
-6.34966990 11.22670000 471.06601000 0.49073300 0.81111699 -0.31823000 1.905766e-42
-7.89072990 12.05790000 470.64801000 0.52186602 0.79818600 -0.30092400 1.905766e-42
