# .PCD v0.7 - Point Cloud Data file format
# 3 78 0
# 1 17 0
# 18 47 0
# 48 78 0
VERSION 0.7
FIELDS x y z normal_x normal_y normal_z curvature
SIZE 4 4 4 4 4 4 4
TYPE F F F F F F F
COUNT 1 1 1 1 1 1 1
WIDTH 78
HEIGHT 1
VIEWPOINT 0 0 0 1 0 0 0
POINTS 78
DATA ascii
11.9815 2.9124801 435.991 -0.31640601 0.638466 -0.70160502 1.9057659e-42
10.9242 2.4542 435.92001 -0.337161 0.62920398 -0.70030302 1.9057659e-42
9.4643002 2.7698901 436.92499 -0.35263699 0.61331499 -0.706747 1.9057659e-42
8.5142698 3.64113 438.181 -0.34896499 0.59736699 -0.72206402 1.9057659e-42
7.93467 4.8267002 439.405 -0.307881 0.58064502 -0.75369799 1.9057659e-42
6.6592898 5.4991102 440.483 -0.274501 0.55731899 -0.78360999 1.9057659e-42
5.59023 6.40167 441.61499 -0.226934 0.54595298 -0.80649698 1.9057659e-42
5.2404599 7.9137602 442.52701 -0.181786 0.56306601 -0.806171 1.9057659e-42
4.0040102 8.8385 443.452 -0.144152 0.55936301 -0.816293 1.9057659e-42
2.9109099 9.9266701 444.38 -0.104405 0.55860102 -0.82283902 1.9057659e-42
1.86384 11.0989 445.258 -0.067127198 0.55523503 -0.82898003 1.9057659e-42
1.1255 12.4828 446.14001 -0.028369799 0.550744 -0.83419198 1.9057659e-42
0.0227155 13.6768 446.914 0.0133045 0.530967 -0.84728801 1.9057659e-42
-1.27618 14.7369 447.569 0.049366899 0.50948399 -0.85906303 1.9057659e-42
-2.1377399 16.134399 448.30701 0.079984397 0.50005102 -0.86229402 1.9057659e-42
-3.34864 17.347401 448.85699 0.112458 0.48166099 -0.86911201 1.9057659e-42
-4.8796 18.2509 449.13901 0.12747701 0.46476999 -0.87620699 1.9057659e-42
-6.01823 19.5662 449.60199 0.192056 0.44750401 -0.87341601 1.9057659e-42
-4.2684798 19.151199 449.67999 0.14047401 0.473683 -0.86941999 1.9057659e-42
-2.5524199 19.4377 450.142 0.156534 0.49982899 -0.85186201 1.9057659e-42
-0.95924699 19.9958 450.767 0.141386 0.51457399 -0.84570903 1.9057659e-42
0.81752002 20.036699 451.052 0.097889803 0.526972 -0.84422702 1.9057659e-42
2.60904 20.129101 451.20001 0.064899102 0.52947199 -0.84584099 1.9057659e-42
4.4011598 20.139 451.36801 0.036481101 0.52856201 -0.84811097 1.9057659e-42
6.0704198 20.5625 451.892 0.0417579 0.55766201 -0.82901698 1.9057659e-42
7.8325 20.2789 451.65799 0.034524199 0.57805598 -0.81526601 1.9057659e-42
9.3677797 20.958099 452.30701 0.053446401 0.61404002 -0.78746301 1.9057659e-42
11.0188 21.431601 452.84601 0.0705382 0.64678502 -0.75940299 1.9057659e-42
12.8059 21.6189 452.95099 0.080593102 0.66977698 -0.73817599 1.9057659e-42
14.4223 22.0273 453.63 0.0889192 0.69111598 -0.71725303 1.9057659e-42
16.209801 21.9263 453.81601 0.087157004 0.70819002 -0.70062101 1.9057659e-42
17.464701 22.6971 454.85101 0.100845 0.72778398 -0.67835099 1.9057659e-42
18.866899 23.3258 455.78799 0.110192 0.746952 -0.65568298 1.9057659e-42
20.467899 23.7819 456.47198 0.113852 0.758187 -0.64201999 1.9057659e-42
21.618299 24.530701 457.63699 0.121342 0.77111799 -0.62502301 1.9057659e-42
23.168501 24.9967 458.42401 0.13303 0.778144 -0.61383599 1.9057659e-42
24.3279 25.691299 459.61301 0.14843901 0.79215598 -0.59199202 1.9057659e-42
25.519699 26.3083 460.81201 0.17034499 0.810803 -0.55998302 1.9057659e-42
26.7726 26.784401 462.01401 0.191947 0.82579201 -0.53030503 1.9057659e-42
28.0331 27.2465 463.21301 0.211815 0.83876598 -0.50160301 1.9057659e-42
29.190399 27.707001 464.51199 0.212534 0.840801 -0.497879 1.9057659e-42
30.452299 28.148199 465.71799 0.209143 0.83584303 -0.50756902 1.9057659e-42
31.530899 28.6472 467.07001 0.200792 0.83324403 -0.51515698 1.9057659e-42
32.482498 29.204599 468.492 0.190865 0.83646399 -0.51371098 1.9057659e-42
33.697899 29.7735 469.69199 0.195466 0.84943002 -0.490165 1.9057659e-42
34.894001 30.2624 470.94501 0.198332 0.85704499 -0.475539 1.9057659e-42
36.148399 30.594999 472.19199 0.203189 0.86014998 -0.46781999 1.9057659e-42
37.784901 30.5182 472.93799 0.213339 0.85627002 -0.470413 1.9057659e-42
38.3652 29.559299 471.53 0.224976 0.83706301 -0.49871001 1.9057659e-42
38.053699 28.7271 469.96399 0.229936 0.824929 -0.51635402 1.9057659e-42
37.309601 28.0452 468.474 0.231841 0.81824797 -0.52604198 1.9057659e-42
36.3321 27.3748 467.11899 0.227304 0.817168 -0.529688 1.9057659e-42
35.705101 26.555 465.64499 0.219491 0.82675701 -0.51797301 1.9057659e-42
35.128601 25.7288 464.15302 0.206341 0.84246898 -0.497664 1.9057659e-42
34.286598 25.270201 462.629 0.20219301 0.85041302 -0.48571199 1.9057659e-42
34.192902 24.3571 461.08099 0.18851499 0.86233002 -0.46994501 1.9057659e-42
33.512402 23.694401 459.552 0.18437 0.86585498 -0.46508399 1.9057659e-42
33.617298 22.7269 458.03799 0.169166 0.85978198 -0.48182699 1.9057659e-42
32.3396 22.319901 456.83701 0.13799401 0.85109597 -0.50655103 1.9057659e-42
30.8571 22.055 455.85101 0.10142 0.84393299 -0.52677298 1.9057659e-42
29.836 21.303499 454.573 0.074319802 0.83043498 -0.552136 1.9057659e-42
28.605101 20.660299 453.42801 0.059231199 0.82350397 -0.56421 1.9057659e-42
27.4419 19.899599 452.284 0.045296099 0.816127 -0.57609499 1.9057659e-42
26.266001 19.1537 451.14401 0.0310646 0.80898798 -0.58700401 1.9057659e-42
25.3209 18.1667 449.97198 0.0186936 0.79834998 -0.60190398 1.9057659e-42
24.562401 17.063801 448.76901 0.0038508 0.78255397 -0.62257099 1.9057659e-42
23.4284 16.361601 447.56 -0.019718001 0.76841301 -0.639651 1.9057659e-42
22.3617 15.5259 446.375 -0.042142801 0.75275201 -0.65695399 1.9057659e-42
21.482201 14.3356 445.35101 -0.065882698 0.73394299 -0.67600799 1.9057659e-42
20.186199 13.3919 444.53201 -0.105545 0.717327 -0.68869603 1.9057659e-42
19.661501 12.1175 443.375 -0.12768 0.70606601 -0.69654101 1.9057659e-42
19.031601 10.8034 442.31799 -0.164023 0.70947701 -0.68537498 1.9057659e-42
17.5592 10.0823 441.57501 -0.187902 0.71435899 -0.67408001 1.9057659e-42
16.5509 8.8738604 440.702 -0.186425 0.73423398 -0.65279901 1.9057659e-42
15.5366 7.75775 439.71899 -0.17707799 0.74507302 -0.64304698 1.9057659e-42
14.9612 6.5615802 438.50299 -0.166272 0.74254799 -0.648826 1.9057659e-42
13.9697 5.4682698 437.47299 -0.232354 0.69195598 -0.68352699 1.9057659e-42
13.1845 4.1088901 436.59201 -0.27914 0.65884799 -0.69857001 1.9057659e-42
