# .PCD v0.7 - Point Cloud Data file format
# 3 143 0
# 1 63 0
# 64 118 0
# 119 143 0
VERSION 0.7
FIELDS x y z normal_x normal_y normal_z curvature
SIZE 4 4 4 4 4 4 4
TYPE F F F F F F F
COUNT 1 1 1 1 1 1 1
WIDTH 143
HEIGHT 1
VIEWPOINT 0 0 0 1 0 0 0
POINTS 143
DATA ascii
25.59040100 -11.63120000 485.79099000 0.26328999 -0.76637900 0.58595401 1.905766e-42
26.08260000 -10.50820000 487.10901000 0.26581100 -0.77186698 0.57755202 1.905766e-42
26.81670000 -9.36548040 488.29001000 0.27005601 -0.77666497 0.56908798 1.905766e-42
27.40250000 -8.22323990 489.55200000 0.27275199 -0.78156298 0.56103998 1.905766e-42
28.21950000 -7.08304020 490.67999000 0.27832499 -0.78525603 0.55308902 1.905766e-42
28.38509900 -6.09562020 492.17599000 0.27898899 -0.78881299 0.54766703 1.905766e-42
28.91260000 -4.97449020 493.48199000 0.28377900 -0.78658199 0.54841501 1.905766e-42
29.31720000 -3.87722990 494.85001000 0.28742701 -0.78464103 0.54929399 1.905766e-42
29.90169900 -2.74764990 496.12399000 0.29327300 -0.78232002 0.54951400 1.905766e-42
30.77520000 -1.61635990 497.21799000 0.30257300 -0.77933401 0.54871500 1.905766e-42
31.26610000 -0.50568002 498.54599000 0.30741599 -0.77740997 0.54875201 1.905766e-42
31.86700100 0.59674400 499.83600000 0.31333500 -0.77537602 0.54828203 1.905766e-42
32.53770100 1.74542000 501.04901000 0.31997100 -0.77518702 0.54470402 1.905766e-42
33.15300000 2.94153000 502.24500000 0.32610899 -0.77535498 0.54081202 1.905766e-42
33.66740000 4.06049010 503.55801000 0.33056900 -0.77605098 0.53709197 1.905766e-42
33.86640200 5.08351990 505.02499000 0.33064601 -0.77790999 0.53434902 1.905766e-42
34.60200100 6.25602010 506.17599000 0.33781901 -0.77810198 0.52956200 1.905766e-42
35.28150200 7.36464020 507.42099000 0.34373701 -0.77875698 0.52476901 1.905766e-42
35.70800000 8.53458980 508.72101000 0.34637901 -0.78177798 0.51850301 1.905766e-42
36.03210100 9.53232000 510.18301000 0.34588400 -0.79158401 0.50374597 1.905766e-42
36.06850100 10.44190000 511.73599000 0.34089801 -0.80239302 0.48985100 1.905766e-42
36.17030000 11.42750000 513.23901000 0.33657399 -0.81299901 0.47513300 1.905766e-42
36.10670100 12.34060000 514.78900000 0.32922500 -0.82401800 0.46109101 1.905766e-42
36.18610000 13.47430000 516.18500000 0.32464200 -0.83426499 0.44565600 1.905766e-42
35.75920100 14.15910000 517.79401000 0.31077799 -0.84556699 0.43408900 1.905766e-42
34.74589900 14.10560000 519.28003000 0.28724799 -0.85573000 0.43036500 1.905766e-42
34.54370100 14.99860000 520.83002000 0.27730501 -0.86692899 0.41417000 1.905766e-42
33.59280000 15.20770000 522.34399000 0.25441200 -0.87836701 0.40465501 1.905766e-42
32.65340000 15.62870000 523.82098000 0.23108800 -0.89014900 0.39272600 1.905766e-42
32.43220100 16.32110000 525.46698000 0.22039901 -0.90140897 0.37267399 1.905766e-42
31.79150000 16.91160000 527.04199000 0.20086300 -0.91298503 0.35512400 1.905766e-42
31.59070000 17.46999900 528.74200000 0.18943299 -0.92357498 0.33335301 1.905766e-42
31.43790100 18.04960100 530.43903000 0.18008301 -0.93078899 0.31812200 1.905766e-42
31.56209900 18.48570100 532.18103000 0.17982000 -0.93030602 0.31968099 1.905766e-42
32.28799800 19.15920100 533.68402000 0.19567700 -0.92729902 0.31910300 1.905766e-42
31.18510100 19.49740000 535.06598000 0.16597000 -0.93155903 0.32350001 1.905766e-42
30.16770000 19.92630000 536.48798000 0.13499700 -0.93533301 0.32699800 1.905766e-42
28.85090100 20.04990000 537.70898000 0.08745280 -0.94014502 0.32936099 1.905766e-42
27.71929900 20.68330000 538.95697000 0.04327750 -0.94325399 0.32923901 1.905766e-42
26.31609900 20.89069900 540.06500000 0.01420010 -0.94386500 0.33002499 1.905766e-42
25.02680000 21.34870000 541.23499000 -0.01383320 -0.94371498 0.33047101 1.905766e-42
23.72120100 21.73370000 542.41199000 -0.04313440 -0.94166702 0.33377099 1.905766e-42
22.38250000 22.28430000 543.48199000 -0.07449400 -0.93769801 0.33937100 1.905766e-42
20.71940000 22.51750000 544.13000000 -0.11017100 -0.93141598 0.34688199 1.905766e-42
19.62929900 23.33040000 545.31000000 -0.14154200 -0.92507499 0.35242301 1.905766e-42
17.99570100 23.75820000 545.93298000 -0.17935801 -0.91600299 0.35884401 1.905766e-42
16.32250000 24.12949900 546.48297000 -0.21559200 -0.90605301 0.36412501 1.905766e-42
14.93490000 24.96550000 547.26703000 -0.24760000 -0.89626199 0.36797801 1.905766e-42
13.54530000 25.83760100 548.00800000 -0.27764601 -0.88612300 0.37107801 1.905766e-42
11.87400000 26.38610100 548.39001000 -0.31361601 -0.87292898 0.37368399 1.905766e-42
10.38420000 27.17590000 549.02002000 -0.34733301 -0.85872197 0.37677100 1.905766e-42
8.91154000 28.16270100 549.33197000 -0.38091400 -0.84276700 0.38032699 1.905766e-42
7.23485990 28.81550000 549.38397000 -0.41321400 -0.82555503 0.38433400 1.905766e-42
5.59854980 29.49110000 549.05798000 -0.44308200 -0.80787098 0.38861701 1.905766e-42
3.00715990 31.05360000 548.80103000 -0.49542099 -0.77227998 0.39767101 1.905766e-42
1.41520000 31.72440000 548.29498000 -0.52228200 -0.75114501 0.40373701 1.905766e-42
-0.10090000 32.51900100 547.73798000 -0.54782498 -0.72911102 0.41022500 1.905766e-42
-1.52745000 33.44820000 547.15399000 -0.57077700 -0.70728600 0.41708401 1.905766e-42
-2.97599010 34.19390100 546.38800000 -0.58923697 -0.68955600 0.42108399 1.905766e-42
-4.32378010 35.38670000 546.36603000 -0.61027902 -0.66946101 0.42353600 1.905766e-42
-5.71827980 36.52420000 546.40503000 -0.62822300 -0.65305001 0.42291999 1.905766e-42
-7.01558020 37.70690200 546.00702000 -0.64395899 -0.64106500 0.41755599 1.905766e-42
-8.39025020 38.46149800 545.12299000 -0.66820103 -0.62511402 0.40340999 1.905766e-42
-9.67416950 39.39170100 544.27100000 -0.70430398 -0.59819102 0.38225999 1.905766e-42
-10.87420000 40.03749800 543.09497000 -0.74212301 -0.56536901 0.36001599 1.905766e-42
-11.74200000 40.29959900 541.53998000 -0.77485901 -0.53052300 0.34371299 1.905766e-42
-12.25290000 39.86640200 539.87000000 -0.79051101 -0.50784302 0.34232700 1.905766e-42
-12.67320000 39.29470100 538.21503000 -0.79922599 -0.49014601 0.34784299 1.905766e-42
-12.96420000 38.84690100 536.49597000 -0.80563498 -0.47222000 0.35771501 1.905766e-42
-13.33040000 38.18539800 534.86298000 -0.80466002 -0.46002001 0.37537199 1.905766e-42
-13.66630000 37.33720000 533.31097000 -0.79194599 -0.45858800 0.40313700 1.905766e-42
-14.12750000 36.48510000 531.79401000 -0.77095598 -0.46093300 0.43950900 1.905766e-42
-14.63830000 35.85260000 530.18799000 -0.75053197 -0.46429300 0.47024801 1.905766e-42
-15.06420000 35.04359800 528.63800000 -0.73120499 -0.46746701 0.49680299 1.905766e-42
-15.72470000 34.82289900 526.97803000 -0.72090399 -0.45681101 0.52117199 1.905766e-42
-16.39189900 34.13340000 525.45502000 -0.70841599 -0.45093399 0.54295897 1.905766e-42
-16.93689900 32.76060100 524.42603000 -0.69054103 -0.45562699 0.56174499 1.905766e-42
-17.95360000 32.53279900 522.95801000 -0.68842697 -0.43762100 0.57840800 1.905766e-42
-18.89510000 32.05730100 521.50000000 -0.68448502 -0.42445701 0.59271997 1.905766e-42
-19.66740000 31.66939900 519.92102000 -0.68204600 -0.41421500 0.60269397 1.905766e-42
-20.02630000 30.27669900 518.83801000 -0.66755301 -0.42166799 0.61365199 1.905766e-42
-20.73360100 29.53260000 517.35999000 -0.66183001 -0.41574901 0.62380600 1.905766e-42
-21.36560100 28.57410000 515.97400000 -0.65305698 -0.41323701 0.63462698 1.905766e-42
-21.73970000 27.17510000 514.90503000 -0.63758302 -0.41973001 0.64599901 1.905766e-42
-22.06209900 25.74790000 513.85602000 -0.62070799 -0.42710599 0.65749699 1.905766e-42
-22.49420000 24.46990000 512.66498000 -0.60728598 -0.43734199 0.66327602 1.905766e-42
-22.85330000 23.26260000 511.37900000 -0.59540200 -0.44934100 0.66602403 1.905766e-42
-23.11360000 21.90670000 510.22400000 -0.58284003 -0.46372801 0.66727298 1.905766e-42
-23.22559900 20.46920000 509.14600000 -0.57025701 -0.47930700 0.66713703 1.905766e-42
-23.24760100 19.02150000 508.07700000 -0.55872101 -0.49425399 0.66599101 1.905766e-42
-23.45130000 17.71410000 506.85699000 -0.55127198 -0.50532597 0.66388601 1.905766e-42
-23.25880100 16.17620100 505.94101000 -0.54113603 -0.51909798 0.66159600 1.905766e-42
-23.40500100 14.86460000 504.71701000 -0.53464401 -0.52446502 0.66264099 1.905766e-42
-23.21530000 13.36170000 503.74500000 -0.52321500 -0.53419799 0.66398698 1.905766e-42
-23.19100000 12.00450000 502.56299000 -0.51303601 -0.54254502 0.66516101 1.905766e-42
-23.10440100 10.57530000 501.47198000 -0.50102198 -0.55250698 0.66611803 1.905766e-42
-23.10430000 9.24038980 500.26401000 -0.48937801 -0.56175202 0.66704100 1.905766e-42
-22.48819900 7.71928980 499.52499000 -0.47224301 -0.57731599 0.66610301 1.905766e-42
-22.72260100 6.62007000 498.11899000 -0.46237800 -0.58283699 0.66821200 1.905766e-42
-22.41150100 5.05269000 497.29001000 -0.44650599 -0.58926100 0.67335302 1.905766e-42
-22.06810000 3.62972000 496.24301000 -0.43194899 -0.59368402 0.67894000 1.905766e-42
-21.81530000 2.21429990 495.16000000 -0.41866300 -0.59642100 0.68483800 1.905766e-42
-21.59940000 0.80428100 494.06201000 -0.40611801 -0.59814799 0.69085997 1.905766e-42
-21.55960100 -0.56468499 492.89401000 -0.39534599 -0.59796602 0.69723600 1.905766e-42
-21.39800100 -1.90845000 491.70801000 -0.38395801 -0.59811199 0.70344698 1.905766e-42
-20.83750000 -3.39886000 490.86801000 -0.36897501 -0.60570699 0.70496500 1.905766e-42
-20.55540100 -4.82050990 489.80099000 -0.35641399 -0.61301601 0.70511001 1.905766e-42
-20.09350000 -6.25833990 488.82101000 -0.34113601 -0.62151498 0.70522702 1.905766e-42
-20.02409900 -7.61133000 487.63599000 -0.33071500 -0.62686503 0.70545602 1.905766e-42
-19.94800000 -8.97309020 486.46201000 -0.32019100 -0.63211799 0.70562398 1.905766e-42
-19.33449900 -10.35620000 485.48700000 -0.30109701 -0.64112598 0.70590198 1.905766e-42
-19.27459900 -11.71950000 484.31299000 -0.29061699 -0.64570302 0.70612299 1.905766e-42
-19.27630000 -13.01800000 483.06601000 -0.28199801 -0.64897001 0.70662200 1.905766e-42
-18.81430100 -14.39560000 482.00400000 -0.26598299 -0.65506601 0.70720702 1.905766e-42
-18.73580000 -15.71280000 480.77899000 -0.25647700 -0.65814799 0.70785600 1.905766e-42
-18.34250100 -17.02549900 479.61200000 -0.24310800 -0.66297901 0.70806599 1.905766e-42
-17.71279900 -18.37770100 478.60501000 -0.22608700 -0.66971099 0.70736998 1.905766e-42
-17.32350000 -19.74140000 477.49600000 -0.20965999 -0.67556202 0.70686603 1.905766e-42
-16.24720000 -20.91850100 476.66199000 -0.18794399 -0.68638098 0.70253801 1.905766e-42
-14.49150000 -21.21999900 476.92001000 -0.17379600 -0.69880599 0.69387698 1.905766e-42
-12.84880000 -20.90049900 477.58301000 -0.16718400 -0.70701897 0.68714899 1.905766e-42
-11.36540000 -20.33309900 478.42999000 -0.15713300 -0.71313697 0.68318701 1.905766e-42
-9.58607010 -20.24200100 478.68701000 -0.13873900 -0.72193402 0.67791098 1.905766e-42
-8.15639020 -19.79980100 479.68701000 -0.12796900 -0.72565001 0.67605901 1.905766e-42
-6.49404000 -19.49029900 480.30399000 -0.11256600 -0.73057801 0.67348701 1.905766e-42
-4.90055990 -19.07659900 481.03201000 -0.09809660 -0.73392999 0.67210400 1.905766e-42
-3.26996990 -18.65640100 481.66800000 -0.08116420 -0.73692101 0.67108899 1.905766e-42
-1.55139990 -18.41010100 482.14301000 -0.06179450 -0.74017203 0.66957301 1.905766e-42
0.18133000 -18.05590100 482.47800000 -0.04215120 -0.74283898 0.66814101 1.905766e-42
1.89567010 -17.64119900 482.83701000 -0.02296960 -0.74471301 0.66698998 1.905766e-42
3.51721000 -17.22480000 483.49799000 -0.00561897 -0.74523097 0.66678298 1.905766e-42
5.10016010 -16.71960100 484.19101000 0.01141120 -0.74512601 0.66682601 1.905766e-42
6.87932010 -16.44829900 484.22198000 0.03340870 -0.74759197 0.66331702 1.905766e-42
8.48120980 -15.98060000 484.89600000 0.05151070 -0.74758703 0.66216302 1.905766e-42
10.25450000 -15.67180000 484.88800000 0.07453640 -0.75017703 0.65702301 1.905766e-42
11.86420000 -15.13450000 485.48901000 0.09283160 -0.75469398 0.64947599 1.905766e-42
13.58010000 -14.81690000 485.04700000 0.11745600 -0.75686097 0.64293498 1.905766e-42
15.25440000 -14.49950000 485.62701000 0.13789301 -0.76052701 0.63449502 1.905766e-42
17.01180100 -14.12020000 485.71399000 0.16158800 -0.76276600 0.62616003 1.905766e-42
18.72930000 -13.60690000 485.87799000 0.18387100 -0.76507801 0.61712801 1.905766e-42
20.48910000 -13.35250000 485.59799000 0.20400099 -0.76549602 0.61024499 1.905766e-42
22.23880000 -12.92990000 485.59698000 0.22370601 -0.76607901 0.60255998 1.905766e-42
23.91880000 -12.28790000 485.67099000 0.24324501 -0.76652801 0.59436202 1.905766e-42
