# .PCD v0.7 - Point Cloud Data file format
# 3 199 0
# 1 101 0
# 102 157 0
# 158 199 0
VERSION 0.7
FIELDS x y z normal_x normal_y normal_z curvature
SIZE 4 4 4 4 4 4 4
TYPE F F F F F F F
COUNT 1 1 1 1 1 1 1
WIDTH 199
HEIGHT 1
VIEWPOINT 0 0 0 1 0 0 0
POINTS 199
DATA ascii
-51.71989800 9.82145980 500.30600000 -0.35376400 -0.93466997 -0.03527010 1.905766e-42
-50.32780100 9.35027030 499.26700000 -0.34024200 -0.93807101 -0.06525270 1.905766e-42
-48.87130000 8.78454020 498.37399000 -0.32592499 -0.94115800 -0.08941420 1.905766e-42
-47.27999900 8.29728980 497.68799000 -0.30945700 -0.94479197 -0.10771800 1.905766e-42
-45.77249900 7.99880980 496.75101000 -0.29018399 -0.94863099 -0.12606800 1.905766e-42
-44.12429800 7.55881980 496.17599000 -0.27735499 -0.95150900 -0.13305999 1.905766e-42
-42.87429800 7.40641020 494.89001000 -0.26832399 -0.95259500 -0.14340700 1.905766e-42
-41.59090000 7.36830000 493.52499000 -0.25750101 -0.95425600 -0.15194900 1.905766e-42
-39.84840000 6.91978980 493.57700000 -0.23657800 -0.95998400 -0.14986800 1.905766e-42
-38.08110000 6.57898000 493.59299000 -0.21159700 -0.96597302 -0.14873700 1.905766e-42
-36.53530100 6.03951980 494.34100000 -0.18626399 -0.97176200 -0.14486100 1.905766e-42
-35.23189900 5.59531020 495.50101000 -0.16450600 -0.97646898 -0.13945100 1.905766e-42
-33.71500000 5.17591000 496.37399000 -0.14028300 -0.98079801 -0.13548400 1.905766e-42
-32.23510000 4.86070010 497.34900000 -0.12557900 -0.98393601 -0.12688300 1.905766e-42
-30.46019900 4.63575980 497.54700000 -0.11170100 -0.98636103 -0.12089500 1.905766e-42
-29.34240000 4.31525990 498.92099000 -0.09985630 -0.98867202 -0.11205400 1.905766e-42
-27.62850000 4.13770010 499.44101000 -0.08599910 -0.99064302 -0.10597600 1.905766e-42
-25.92540000 4.02521990 500.01300000 -0.07183070 -0.99236202 -0.10029400 1.905766e-42
-24.47180000 3.77404000 501.04401000 -0.05864200 -0.99397397 -0.09260850 1.905766e-42
-23.07180000 3.64333010 502.16800000 -0.04574000 -0.99540597 -0.08411070 1.905766e-42
-21.42630000 3.45021010 502.87201000 -0.03022090 -0.99647897 -0.07820430 1.905766e-42
-19.93930100 3.39619990 503.88501000 -0.01321260 -0.99766099 -0.06706560 1.905766e-42
-18.34420000 3.33780000 504.71701000 0.00761812 -0.99839300 -0.05615970 1.905766e-42
-16.76549900 3.20682000 505.57101000 0.02993560 -0.99851698 -0.04546310 1.905766e-42
-15.11630000 3.24794010 506.29099000 0.04597750 -0.99847502 -0.03056570 1.905766e-42
-14.35220000 3.28465010 507.92099000 0.06417530 -0.99778402 -0.01757150 1.905766e-42
-12.67130000 3.36981010 508.55899000 0.07515630 -0.99717098 0.00094077 1.905766e-42
-11.07870000 3.47553990 509.39099000 0.09088760 -0.99570400 0.01767110 1.905766e-42
-9.47054000 3.63557000 510.18399000 0.10891800 -0.99350399 0.03297840 1.905766e-42
-7.76698020 3.98739000 510.64600000 0.12806299 -0.99065900 0.04684210 1.905766e-42
-6.30598020 4.14896010 511.68500000 0.15029401 -0.98688698 0.05886630 1.905766e-42
-4.82531980 4.42479990 512.67102000 0.17399000 -0.98222798 0.07039250 1.905766e-42
-3.20804000 4.86022000 513.33002000 0.19947600 -0.97652203 0.08132720 1.905766e-42
-1.87569000 5.18474010 514.49597000 0.22334200 -0.97046298 0.09121390 1.905766e-42
-0.25534901 5.69473980 515.09198000 0.24885900 -0.96339500 0.09969200 1.905766e-42
1.29182000 6.24964000 515.82501000 0.27337900 -0.95590198 0.10731300 1.905766e-42
2.72072010 6.74492980 516.80200000 0.29544500 -0.94845802 0.11462900 1.905766e-42
3.99356010 7.28195000 517.95599000 0.31443900 -0.94138902 0.12212900 1.905766e-42
5.56245990 8.03532980 518.41498000 0.33515200 -0.93362403 0.12657200 1.905766e-42
6.97494980 8.65721990 519.34100000 0.35223001 -0.92648399 0.13252100 1.905766e-42
8.48886010 9.44917010 519.90802000 0.36997700 -0.91887099 0.13708600 1.905766e-42
9.88290020 10.10550000 520.83801000 0.38689300 -0.91076499 0.14429200 1.905766e-42
11.20990000 10.77910000 521.85101000 0.40268499 -0.90268201 0.15169300 1.905766e-42
12.53340000 11.50210000 522.83301000 0.41797999 -0.89448297 0.15872499 1.905766e-42
13.88740000 12.26600000 523.74103000 0.43300399 -0.88614303 0.16510300 1.905766e-42
15.18790000 13.06200000 524.69702000 0.44685200 -0.87795901 0.17178901 1.905766e-42
16.55830000 14.03380000 525.34399000 0.46139199 -0.86950201 0.17630400 1.905766e-42
17.62369900 14.75720000 526.60101000 0.47117001 -0.86232698 0.18545000 1.905766e-42
18.79830000 15.60460000 527.66998000 0.48168999 -0.85472101 0.19346200 1.905766e-42
20.00090000 16.51420000 528.65302000 0.49217901 -0.84689999 0.20129700 1.905766e-42
21.01800000 17.41830100 529.83099000 0.50328398 -0.83727801 0.21370700 1.905766e-42
21.94199900 18.30610100 531.09497000 0.51339501 -0.82745600 0.22746800 1.905766e-42
23.24609900 19.40480000 531.67200000 0.52696902 -0.81659800 0.23552200 1.905766e-42
24.34090000 20.46019900 532.63501000 0.53849500 -0.80540597 0.24767800 1.905766e-42
25.12360000 21.35759900 533.98499000 0.54708201 -0.79448700 0.26361200 1.905766e-42
25.92420000 22.34190000 535.26099000 0.55601501 -0.78280199 0.27940601 1.905766e-42
26.98020000 23.60610000 535.98700000 0.56760001 -0.77020198 0.29089299 1.905766e-42
27.74399900 24.53599900 537.32599000 0.57574803 -0.75763202 0.30742100 1.905766e-42
28.44700100 25.58540000 538.60797000 0.58390403 -0.74446201 0.32377899 1.905766e-42
29.24830100 26.70360000 539.76898000 0.59193999 -0.73154700 0.33829901 1.905766e-42
29.82690000 27.73220100 541.12799000 0.59761900 -0.71924698 0.35430899 1.905766e-42
30.65460000 28.97820100 542.12903000 0.60549903 -0.70550698 0.36828101 1.905766e-42
31.31500100 30.22460000 543.24701000 0.61246401 -0.69107199 0.38380599 1.905766e-42
32.04280100 31.46710000 544.32703000 0.61968398 -0.67585200 0.39901900 1.905766e-42
32.92639900 32.82120100 545.11798000 0.62801099 -0.66014701 0.41207701 1.905766e-42
33.89650000 34.27190000 545.55902000 0.63695502 -0.64470500 0.42266300 1.905766e-42
34.48220100 35.44900100 546.78900000 0.64320701 -0.62824899 0.43770799 1.905766e-42
35.30640000 36.86119800 547.54102000 0.65129298 -0.61140198 0.44944900 1.905766e-42
36.04719900 38.32109800 548.28998000 0.65871799 -0.59537399 0.46002200 1.905766e-42
36.99070000 39.78889800 548.73199000 0.66533899 -0.58192301 0.46764299 1.905766e-42
37.84849900 41.22370100 549.39899000 0.67152900 -0.56726301 0.47671899 1.905766e-42
38.55920000 42.69039900 550.16302000 0.67759001 -0.55158901 0.48643801 1.905766e-42
39.12289800 44.17459900 551.01099000 0.68367499 -0.53508800 0.49625599 1.905766e-42
39.75500100 45.69660200 551.73499000 0.69012898 -0.51791698 0.50545299 1.905766e-42
40.74449900 47.18840000 551.92297000 0.69634998 -0.50146300 0.51345098 1.905766e-42
41.35110100 48.74990100 552.58197000 0.70300400 -0.48304600 0.52196902 1.905766e-42
41.68740100 50.27050000 553.48401000 0.71007597 -0.46465501 0.52904397 1.905766e-42
42.34550100 51.85889800 554.01703000 0.71719497 -0.44579199 0.53563100 1.905766e-42
42.52220200 53.32360100 555.04797000 0.72338700 -0.43197700 0.53861600 1.905766e-42
42.48749900 54.73759800 556.16199000 0.72980601 -0.41991499 0.53949499 1.905766e-42
42.44150200 56.14790000 557.27899000 0.72679502 -0.40485901 0.55484903 1.905766e-42
42.38100100 57.61380000 558.32202000 0.72309703 -0.38927901 0.57060701 1.905766e-42
42.19319900 59.01689900 559.43402000 0.71870703 -0.37385601 0.58625299 1.905766e-42
41.96460000 60.42490000 560.53198000 0.71445298 -0.35857099 0.60082000 1.905766e-42
41.72829800 61.81950000 561.64502000 0.71044701 -0.34360701 0.61416602 1.905766e-42
41.44250100 63.22610100 562.73102000 0.70683599 -0.32912901 0.62614501 1.905766e-42
40.94699900 64.45680200 563.94800000 0.70278102 -0.31631199 0.63721699 1.905766e-42
40.35300100 65.64240300 565.16498000 0.69802397 -0.30423701 0.64823103 1.905766e-42
39.84040100 66.98729700 566.24597000 0.69036901 -0.28943500 0.66303700 1.905766e-42
38.96730000 67.92479700 567.51001000 0.68049002 -0.27712500 0.67833298 1.905766e-42
38.32329900 69.23560300 568.56201000 0.67275000 -0.26288101 0.69159400 1.905766e-42
37.17359900 69.53600300 569.91400000 0.66188902 -0.25634599 0.70440799 1.905766e-42
36.53749800 70.84660300 570.97198000 0.65502203 -0.24325100 0.71538502 1.905766e-42
35.60730000 71.60410300 572.31403000 0.64610797 -0.23489000 0.72620302 1.905766e-42
34.66650000 72.52549700 573.54102000 0.63328898 -0.22342899 0.74096203 1.905766e-42
33.53570200 73.25229600 574.73798000 0.61732000 -0.21246600 0.75747901 1.905766e-42
32.48149900 74.22229800 575.82800000 0.60214603 -0.19975300 0.77299398 1.905766e-42
31.07959900 74.99140200 576.65399000 0.58531302 -0.19047000 0.78811800 1.905766e-42
29.68460100 74.70999900 577.75598000 0.56800699 -0.18846700 0.80115402 1.905766e-42
28.21419900 74.87500000 578.78101000 0.54923499 -0.18405201 0.81514800 1.905766e-42
26.92450000 75.66059900 579.76099000 0.53318298 -0.17517599 0.82766497 1.905766e-42
25.49430100 76.21970400 580.70001000 0.52148300 -0.17464000 0.83519900 1.905766e-42
24.01930000 75.91069800 581.68402000 0.50365400 -0.18220800 0.84447199 1.905766e-42
22.47120100 76.16439800 582.56702000 0.48380700 -0.18804801 0.85473299 1.905766e-42
20.92009900 75.97720300 583.46100000 0.45771500 -0.19702600 0.86699402 1.905766e-42
19.33880000 75.38649700 584.08600000 0.42650300 -0.20686300 0.88051301 1.905766e-42
17.69630100 75.18830100 584.79498000 0.39067301 -0.21525601 0.89500803 1.905766e-42
16.01510000 75.20939600 585.43799000 0.35190001 -0.22330600 0.90901101 1.905766e-42
14.50950000 74.30320000 585.82800000 0.31645200 -0.23226701 0.91973400 1.905766e-42
12.75860000 74.23259700 586.23901000 0.27906299 -0.24180400 0.92932999 1.905766e-42
11.02930000 73.83039900 586.53497000 0.23907800 -0.24958400 0.93837601 1.905766e-42
9.68233970 72.64350100 586.66498000 0.20412600 -0.25397801 0.94542497 1.905766e-42
8.06460000 71.88469700 586.88202000 0.16379400 -0.25889999 0.95191503 1.905766e-42
6.35270020 71.34059900 586.99799000 0.12109900 -0.26288399 0.95719701 1.905766e-42
4.69621990 70.63680300 586.97198000 0.07866500 -0.26587999 0.96079099 1.905766e-42
3.24440000 69.58370200 586.82001000 0.04046290 -0.26892900 0.96231002 1.905766e-42
1.53898000 69.03450000 586.64600000 -0.00536692 -0.27093300 0.96258301 1.905766e-42
-0.10335700 68.34819800 586.37903000 -0.05158130 -0.27332500 0.96053803 1.905766e-42
-1.83896990 67.93750000 586.13599000 -0.10376900 -0.27588499 0.95557302 1.905766e-42
-3.54467010 67.48519900 585.78101000 -0.15269899 -0.27758801 0.94848698 1.905766e-42
-5.24187990 67.04799700 585.37097000 -0.19778401 -0.27844599 0.93986702 1.905766e-42
-6.94739010 66.72720300 584.89301000 -0.23914200 -0.27802601 0.93032902 1.905766e-42
-8.64198020 66.52290300 584.32098000 -0.27622801 -0.27656201 0.92044097 1.905766e-42
-10.29640000 66.21420300 583.68298000 -0.30785999 -0.27600801 0.91051799 1.905766e-42
-11.97210000 66.14859800 583.02899000 -0.33577099 -0.27361500 0.90132803 1.905766e-42
-13.61900000 66.07299800 582.30603000 -0.35894901 -0.27177599 0.89291298 1.905766e-42
-15.24440000 65.88810000 581.55499000 -0.37744200 -0.27161101 0.88530499 1.905766e-42
-16.87719900 65.83339700 580.79999000 -0.39221600 -0.27093101 0.87906897 1.905766e-42
-18.47710000 65.60510300 580.00702000 -0.40268600 -0.27244100 0.87385303 1.905766e-42
-20.15730100 65.56600200 579.36298000 -0.41414601 -0.27060100 0.86905599 1.905766e-42
-21.80369900 65.66000400 578.64099000 -0.43098301 -0.26400900 0.86287498 1.905766e-42
-23.32650000 65.64630100 577.68201000 -0.44838601 -0.25983301 0.85524100 1.905766e-42
-24.91850100 65.29760000 576.91699000 -0.46503800 -0.25834900 0.84675598 1.905766e-42
-26.37570000 65.39109800 575.86499000 -0.48277301 -0.25412801 0.83806300 1.905766e-42
-27.88710000 64.98560300 574.97498000 -0.49816900 -0.25386900 0.82908303 1.905766e-42
-29.37700100 64.79609700 573.98297000 -0.51315999 -0.25278699 0.82022297 1.905766e-42
-30.89240100 64.81250000 573.01202000 -0.52682900 -0.25130501 0.81197101 1.905766e-42
-32.41400100 64.67520100 572.06000000 -0.53807002 -0.25190300 0.80437899 1.905766e-42
-33.81969800 64.42700200 570.96399000 -0.54555500 -0.25349900 0.79881603 1.905766e-42
-35.16780100 64.02719900 569.84003000 -0.54874301 -0.25541300 0.79601800 1.905766e-42
-36.41270100 63.27629900 568.77899000 -0.55017799 -0.26014301 0.79349202 1.905766e-42
-37.78210100 63.07410000 567.62799000 -0.55004799 -0.26379299 0.79237700 1.905766e-42
-39.08319900 62.44310000 566.55603000 -0.54865402 -0.27044499 0.79109901 1.905766e-42
-40.31440000 61.74300000 565.44501000 -0.54621899 -0.27856901 0.78996497 1.905766e-42
-41.57609900 60.98260100 564.41101000 -0.54278100 -0.28791600 0.78898197 1.905766e-42
-42.61410100 59.90240100 563.41302000 -0.54030198 -0.29877001 0.78664500 1.905766e-42
-43.94020100 59.45370100 562.28198000 -0.53322202 -0.30965599 0.78726602 1.905766e-42
-45.10969900 58.62120100 561.19598000 -0.52769500 -0.32287899 0.78567600 1.905766e-42
-46.47150000 58.24079900 560.08197000 -0.52289999 -0.33985999 0.78171003 1.905766e-42
-47.88919800 57.57799900 559.19299000 -0.52045101 -0.35683900 0.77575600 1.905766e-42
-48.97280100 57.47040200 557.75897000 -0.51667702 -0.37318000 0.77057201 1.905766e-42
-50.01590000 57.71279900 556.31299000 -0.51170301 -0.38903001 0.76603901 1.905766e-42
-51.34380000 56.59059900 555.84601000 -0.51623499 -0.40217999 0.75614399 1.905766e-42
-52.96839900 56.00790000 555.33502000 -0.51712400 -0.41697100 0.74747401 1.905766e-42
-54.51839800 55.92810100 554.42401000 -0.51762199 -0.43334299 0.73775399 1.905766e-42
-55.02560000 55.19480100 552.85999000 -0.52960002 -0.44133499 0.72439498 1.905766e-42
-55.18299900 53.91400100 551.60498000 -0.54542798 -0.44075599 0.71291101 1.905766e-42
-55.53080000 53.01279800 550.08600000 -0.55780202 -0.43949500 0.70406002 1.905766e-42
-55.33649800 51.28870000 549.60699000 -0.56683999 -0.42511699 0.70566899 1.905766e-42
-54.94940200 49.67380100 548.91302000 -0.57684600 -0.41114101 0.70584100 1.905766e-42
-54.56460200 47.94640000 548.58398000 -0.58815801 -0.39668801 0.70477599 1.905766e-42
-54.41180000 46.34909800 547.76801000 -0.59931302 -0.38562301 0.70151198 1.905766e-42
-53.69699900 44.69710200 547.75598000 -0.61364901 -0.36886901 0.69811898 1.905766e-42
-53.38150000 42.97740200 547.32800000 -0.62870002 -0.35489899 0.69194198 1.905766e-42
-52.71089900 41.31219900 547.19598000 -0.64644903 -0.33614099 0.68491799 1.905766e-42
-52.20760000 39.69889800 546.57703000 -0.64842898 -0.34556800 0.67832297 1.905766e-42
-51.44710200 38.07600000 546.40997000 -0.63499397 -0.37536001 0.67519498 1.905766e-42
-50.99100100 36.41470000 545.88800000 -0.62340701 -0.40475401 0.66898298 1.905766e-42
-50.55659900 34.85760100 545.09601000 -0.61285198 -0.43283099 0.66111201 1.905766e-42
-50.35760100 33.42419800 544.02600000 -0.60523403 -0.45774099 0.65127897 1.905766e-42
-49.85250100 31.73530000 543.66199000 -0.59161198 -0.48379800 0.64493001 1.905766e-42
-49.93000000 30.27210000 542.61700000 -0.58600199 -0.50347501 0.63491303 1.905766e-42
-49.64640000 28.80830000 541.60797000 -0.57744199 -0.52265000 0.62721503 1.905766e-42
-49.47380100 27.64850000 540.24200000 -0.57435501 -0.53476399 0.61979401 1.905766e-42
-49.30830000 26.15770000 539.24701000 -0.56999099 -0.54530102 0.61461902 1.905766e-42
-49.33960000 24.97720000 537.88898000 -0.56825101 -0.55663502 0.60601002 1.905766e-42
-48.84579800 23.31130000 537.41901000 -0.55875701 -0.57396102 0.59863102 1.905766e-42
-49.00330000 22.15780100 536.04602000 -0.55699801 -0.58998698 0.58452499 1.905766e-42
-49.00640100 20.87870000 534.78003000 -0.55293000 -0.60948801 0.56814897 1.905766e-42
-48.88029900 19.51720000 533.60901000 -0.54711998 -0.63128603 0.54966998 1.905766e-42
-49.08120000 18.54850000 532.10498000 -0.54462498 -0.65098500 0.52877402 1.905766e-42
-49.25529900 17.58820000 530.59302000 -0.54142100 -0.67133498 0.50613499 1.905766e-42
-49.55320000 16.79159900 529.00598000 -0.53917700 -0.69017297 0.48264799 1.905766e-42
-49.75270100 15.93130000 527.43799000 -0.53128302 -0.71410102 0.45584899 1.905766e-42
-49.96950100 15.12110000 525.84497000 -0.52258998 -0.73733097 0.42806801 1.905766e-42
-50.13520100 14.44340000 524.18597000 -0.51425999 -0.75857598 0.40012401 1.905766e-42
-50.31240100 13.76470000 522.52802000 -0.50569999 -0.77844501 0.37187499 1.905766e-42
-50.41149900 12.91560000 520.94397000 -0.49488401 -0.79880798 0.34204599 1.905766e-42
-50.42250100 12.10720000 519.33600000 -0.48354200 -0.81811702 0.31124100 1.905766e-42
-50.81140100 11.89060000 517.59198000 -0.47733599 -0.83149302 0.28420001 1.905766e-42
-50.89799900 11.29880000 515.89398000 -0.46683601 -0.84741002 0.25290501 1.905766e-42
-51.07180000 11.04890000 514.12000000 -0.45762700 -0.86076999 0.22282700 1.905766e-42
-51.30300100 10.81400000 512.34998000 -0.44813699 -0.87296498 0.19262600 1.905766e-42
-51.47259900 10.78810000 510.55899000 -0.43826300 -0.88404399 0.16245601 1.905766e-42
-51.42319900 10.08310000 508.90302000 -0.42745200 -0.89477599 0.12908000 1.905766e-42
-51.80889900 10.28330000 507.15601000 -0.41751799 -0.90301102 0.10124200 1.905766e-42
-51.77650100 9.89834020 505.39801000 -0.40040299 -0.91408801 0.06418900 1.905766e-42
-51.97110000 9.83691020 503.60999000 -0.38431200 -0.92270499 0.03031770 1.905766e-42
-52.48360100 10.12300000 501.90799000 -0.37051001 -0.92882401 0.00297146 1.905766e-42
