# .PCD v0.7 - Point Cloud Data file format
# 3 177 0
# 1 11 0
# 12 99 0
# 100 177 0
VERSION 0.7
FIELDS x y z normal_x normal_y normal_z curvature
SIZE 4 4 4 4 4 4 4
TYPE F F F F F F F
COUNT 1 1 1 1 1 1 1
WIDTH 177
HEIGHT 1
VIEWPOINT 0 0 0 1 0 0 0
POINTS 177
DATA ascii
57.06340000 4.56452990 489.87601000 0.34033999 -0.16406301 0.92587900 1.905766e-42
56.84529900 4.05072020 490.11801000 0.24841300 -0.21467400 0.94456601 1.905766e-42
58.20019900 3.27310990 489.22400000 0.47453001 -0.12837701 0.87082702 1.905766e-42
59.44940200 3.22052000 487.92899000 0.73386401 0.01671910 0.67909002 1.905766e-42
60.35170000 2.37383010 486.62201000 0.83649600 0.07255600 0.54314798 1.905766e-42
61.38610100 2.30784010 485.14999000 0.90711498 0.12641899 0.40144801 1.905766e-42
61.98280000 1.55947010 483.62601000 0.93620098 0.13566700 0.32422400 1.905766e-42
62.53360000 1.03269000 481.99500000 0.95488602 0.13505600 0.26448399 1.905766e-42
62.91700000 -0.12381300 480.67001000 0.96677399 0.11715600 0.22720701 1.905766e-42
63.19160100 -1.56375000 479.62500000 0.97713900 0.09166400 0.19182600 1.905766e-42
63.35139800 -3.04537010 478.61600000 0.98933202 0.04722080 0.13781400 1.905766e-42
63.31539900 -4.37044000 477.39801000 0.91973501 -0.38364401 -0.08309260 1.905766e-42
63.41640100 -4.10781000 475.62000000 0.91973501 -0.38364401 -0.08309260 1.905766e-42
63.75780100 -2.73476000 474.50699000 0.98577702 -0.05931960 0.15723900 1.905766e-42
63.93489800 -1.42891000 473.28101000 0.98141003 0.00836138 0.19174001 1.905766e-42
64.07420300 -0.11685200 472.05701000 0.97608399 0.06052940 0.20879699 1.905766e-42
63.95600100 0.98552197 470.63901000 0.97045100 0.14358200 0.19393000 1.905766e-42
63.98090000 2.50707010 469.67801000 0.96385002 0.20569099 0.16936500 1.905766e-42
63.93920100 4.13325020 468.90701000 0.95713198 0.25254399 0.14184400 1.905766e-42
63.60120000 4.99527980 467.36301000 0.94462597 0.31698400 0.08487540 1.905766e-42
63.21749900 6.23051980 466.11200000 0.92817199 0.37142599 0.02322850 1.905766e-42
62.80279900 7.59353020 465.01199000 0.91072297 0.41158101 -0.03441650 1.905766e-42
62.19400000 8.71875950 463.74500000 0.89034599 0.44561300 -0.09334240 1.905766e-42
61.48960100 9.62372020 462.35800000 0.86975503 0.47092301 -0.14750899 1.905766e-42
60.84790000 10.92140000 461.28799000 0.85075903 0.48779801 -0.19560900 1.905766e-42
59.96060200 11.87740000 460.04800000 0.82781702 0.50386500 -0.24665301 1.905766e-42
58.93569900 12.17550000 458.59799000 0.79607302 0.52070802 -0.30843401 1.905766e-42
57.97760000 13.28410000 457.55301000 0.76769900 0.53480798 -0.35301399 1.905766e-42
56.88620000 14.03160000 456.33200000 0.74471998 0.54100102 -0.39078000 1.905766e-42
55.87300100 15.25250000 455.48199000 0.73576802 0.54563802 -0.40115499 1.905766e-42
54.63470100 15.75720000 454.27701000 0.70903301 0.55781198 -0.43141299 1.905766e-42
53.33829900 16.37620000 453.19199000 0.66083801 0.58203501 -0.47384399 1.905766e-42
52.11560100 17.43639900 452.40399000 0.60621202 0.60904902 -0.51143599 1.905766e-42
50.73529800 17.37030000 451.25101000 0.57843298 0.61659598 -0.53406399 1.905766e-42
49.29230100 18.00830100 450.38501000 0.53730798 0.62968498 -0.56106800 1.905766e-42
47.77520000 18.37900000 449.48999000 0.49124601 0.63511902 -0.59607100 1.905766e-42
46.24110000 18.88850000 448.69800000 0.45025501 0.63466501 -0.62806898 1.905766e-42
44.74800100 19.70520000 448.11099000 0.44330001 0.63728100 -0.63036299 1.905766e-42
43.12760200 19.84520000 447.34000000 0.40902001 0.64439303 -0.64611101 1.905766e-42
41.50750000 19.79850000 446.55701000 0.34623301 0.65007401 -0.67640603 1.905766e-42
39.83229800 19.89170100 445.90500000 0.27574900 0.65187299 -0.70641702 1.905766e-42
38.13539900 19.89110000 445.30499000 0.21394500 0.64832002 -0.73069000 1.905766e-42
36.41470000 19.96060000 444.78101000 0.16771500 0.64540499 -0.74520099 1.905766e-42
34.67890200 19.96299900 444.30499000 0.13614900 0.64481300 -0.75211602 1.905766e-42
32.91529800 19.95879900 443.94400000 0.11050900 0.64822298 -0.75338900 1.905766e-42
31.34350000 19.20900000 443.48901000 0.08245940 0.64609897 -0.75878602 1.905766e-42
29.55660100 19.18930100 443.27301000 0.04179920 0.64919299 -0.75947398 1.905766e-42
27.95840100 18.39620000 443.03500000 -0.00100002 0.65170097 -0.75847501 1.905766e-42
26.15970000 18.39489900 442.96799000 -0.51838303 0.82611299 0.22094700 1.905766e-42
24.35969900 18.38800000 442.96201000 -0.40748000 0.86265802 -0.29963601 1.905766e-42
22.63620000 17.86940000 442.93799000 -0.15859900 0.63734198 -0.75408298 1.905766e-42
20.85960000 17.58659900 442.99899000 -0.22844400 0.61705798 -0.75302899 1.905766e-42
19.59070000 16.31010100 442.98001000 -0.28835899 0.59257603 -0.75213301 1.905766e-42
17.82550000 16.00379900 443.15399000 -0.34774700 0.56031799 -0.75174201 1.905766e-42
16.22400100 15.20280000 443.33801000 -0.40035999 0.52240300 -0.75286603 1.905766e-42
15.28970000 13.66870000 443.45401000 -0.43893000 0.48552799 -0.75604397 1.905766e-42
14.03380000 12.43540000 443.83099000 -0.48031199 0.43535301 -0.76142502 1.905766e-42
12.29050000 12.13600000 444.16501000 -0.52079499 0.37783000 -0.76551700 1.905766e-42
10.91930000 11.04710000 444.58099000 -0.56242502 0.30241901 -0.76955903 1.905766e-42
9.50131030 10.05420000 445.07501000 -0.59263599 0.21669100 -0.77577603 1.905766e-42
8.09451010 9.05554010 445.58801000 -0.58840400 0.14893700 -0.79473197 1.905766e-42
6.94797990 7.81738000 446.21500000 -0.53901100 0.10950400 -0.83515000 1.905766e-42
5.71180010 6.65878010 446.82300000 -0.47665599 0.11996300 -0.87086600 1.905766e-42
4.99208020 5.16855000 447.53101000 -0.45784101 0.09309060 -0.88414699 1.905766e-42
3.57223010 4.28592010 448.19800000 0.48096400 -0.61189300 0.62790197 1.905766e-42
2.36280990 3.17595010 448.93600000 0.82994699 -0.07490720 0.55279100 1.905766e-42
1.66101000 1.73678000 449.75900000 0.46581101 0.87865299 -0.10482800 1.905766e-42
0.22002199 0.96526200 450.51199000 0.59767401 0.79743099 -0.08300280 1.905766e-42
-0.91262800 -0.10780000 451.41000000 -0.70518303 -0.56773502 -0.42472699 1.905766e-42
-1.52487000 -1.55114000 452.29401000 -0.72495198 -0.20997199 0.65601599 1.905766e-42
-2.23928000 -2.91571000 453.22601000 0.29216501 0.03583800 0.95569599 1.905766e-42
-3.17922000 -4.07368990 454.23300000 0.55136001 0.11567100 0.82620901 1.905766e-42
-3.60872010 -5.53278020 455.19601000 0.56407201 0.19803500 0.80162603 1.905766e-42
-4.54107000 -6.68041990 456.22299000 0.62232500 0.21534100 0.75255501 1.905766e-42
-5.45051000 -7.83312990 457.26401000 0.67862701 0.22323801 0.69973600 1.905766e-42
-5.54487990 -9.34062960 458.24301000 0.69567502 0.20361800 0.68889499 1.905766e-42
-6.11843010 -10.68560000 459.29300000 0.73486298 0.17743500 0.65459400 1.905766e-42
-7.05275010 -11.82890000 460.32199000 0.77063400 0.16042601 0.61675501 1.905766e-42
-7.31931020 -13.28780000 461.34201000 0.91973501 -0.38364401 -0.08309260 1.905766e-42
-8.23058030 -14.45160000 462.36899000 0.78921598 0.15884200 0.59321803 1.905766e-42
-8.67265990 -15.88740000 463.36099000 0.77998799 0.16864800 0.60264200 1.905766e-42
-9.66576960 -16.91080100 464.45901000 0.76446599 0.13493501 0.63038498 1.905766e-42
-10.72280000 -17.81500100 465.60199000 0.72900599 0.06946090 0.68097401 1.905766e-42
-11.28030000 -19.17869900 466.63599000 0.72665697 0.03555300 0.68607998 1.905766e-42
-11.87920000 -20.50330000 467.69699000 0.78838199 0.04093810 0.61382300 1.905766e-42
-12.14820000 -21.99889900 468.66199000 0.82175201 0.04934880 0.56770402 1.905766e-42
-12.57410000 -23.40950000 469.69601000 0.84432799 0.04428960 0.53399402 1.905766e-42
-13.60100000 -24.39500000 470.79800000 0.86234403 0.03015870 0.50542301 1.905766e-42
-14.43070000 -25.55349900 471.89801000 0.86297798 0.00664350 0.50519800 1.905766e-42
-15.01270000 -26.94599900 472.87900000 0.84156400 -0.03815130 0.53880799 1.905766e-42
-16.25149900 -27.65280000 473.97699000 0.79688400 -0.13536000 0.58877301 1.905766e-42
-17.44829900 -27.33300000 475.28299000 0.91973501 -0.38364401 -0.08309260 1.905766e-42
-18.41110000 -26.46789900 476.53299000 0.91973501 -0.38364401 -0.08309260 1.905766e-42
-19.08180000 -25.28680000 477.71500000 0.91973501 -0.38364401 -0.08309260 1.905766e-42
-19.65010100 -24.09079900 478.93399000 0.91973501 -0.38364401 -0.08309260 1.905766e-42
-19.93100000 -22.66140000 479.99100000 0.91973501 -0.38364401 -0.08309260 1.905766e-42
-20.02660000 -21.44829900 481.31799000 0.91973501 -0.38364401 -0.08309260 1.905766e-42
-20.08230000 -20.73280000 482.96799000 0.91973501 -0.38364401 -0.08309260 1.905766e-42
-20.05820100 -19.43630000 484.21701000 0.91973501 -0.38364401 -0.08309260 1.905766e-42
-19.78400000 -18.28949900 485.57700000 0.91973501 -0.38364401 -0.08309260 1.905766e-42
-18.99239900 -16.85409900 484.83301000 0.91973501 -0.38364401 -0.08309260 1.905766e-42
-18.22489900 -15.41890000 484.06400000 0.91973501 -0.38364401 -0.08309260 1.905766e-42
-17.75550100 -14.16760000 482.85800000 0.91973501 -0.38364401 -0.08309260 1.905766e-42
-17.19380000 -12.78340000 481.85400000 0.91973501 -0.38364401 -0.08309260 1.905766e-42
-16.81230000 -11.61130000 480.54199000 0.91973501 -0.38364401 -0.08309260 1.905766e-42
-16.11300100 -10.15930000 479.74100000 0.91973501 -0.38364401 -0.08309260 1.905766e-42
-15.69340000 -8.80237010 478.63501000 0.91973501 -0.38364401 -0.08309260 1.905766e-42
-15.04530000 -7.43094020 477.66599000 0.96685898 -0.15863600 0.20004600 1.905766e-42
-14.59550000 -6.11432980 476.52399000 0.96436101 -0.16081500 0.21010900 1.905766e-42
-13.93290000 -4.69100000 475.64301000 0.95428002 -0.18555000 0.23435400 1.905766e-42
-13.42900000 -3.36045000 474.54099000 0.93797100 -0.21722600 0.27022800 1.905766e-42
-12.78330000 -1.94451000 473.63599000 0.92637599 -0.24192500 0.28861800 1.905766e-42
-12.36530000 -0.68810099 472.41699000 0.12778500 -0.75763899 0.64004201 1.905766e-42
-11.88930000 0.56542200 471.21600000 0.90485501 -0.30756301 0.29435199 1.905766e-42
-11.11420000 1.97677000 470.41101000 0.89569801 -0.34771699 0.27716100 1.905766e-42
-10.32830000 3.38405990 469.60999000 0.91427702 -0.32319099 0.24422300 1.905766e-42
-9.73071000 4.58815000 468.41299000 0.92172199 -0.31189200 0.23054600 1.905766e-42
-8.62078000 5.96434020 468.07501000 0.94548202 -0.23529500 0.22516800 1.905766e-42
-8.03983020 7.17831990 466.88000000 -0.28161001 0.60355598 -0.74593198 1.905766e-42
-7.32508990 8.46277050 465.84100000 -0.42560601 0.55927801 -0.71138501 1.905766e-42
-6.52152010 9.78190990 464.91699000 -0.53688699 0.53362602 -0.65344900 1.905766e-42
-5.63321020 11.11600000 464.09799000 -0.58576798 0.54602098 -0.59894598 1.905766e-42
-4.58595990 12.45320000 463.50201000 -0.90307200 0.39385900 -0.17127600 1.905766e-42
-3.57850000 13.70790000 462.69501000 0.41623899 0.84198302 -0.34323400 1.905766e-42
-2.59791990 14.94390000 461.82901000 0.41623899 0.84198302 -0.34323400 1.905766e-42
-1.41707000 16.16970100 461.24301000 0.41623899 0.84198302 -0.34323400 1.905766e-42
-0.12166400 17.34429900 460.81601000 0.41623899 0.84198302 -0.34323400 1.905766e-42
1.32836000 18.41010100 460.77701000 0.50701898 0.81640202 -0.27644199 1.905766e-42
2.56303000 19.52420000 460.08801000 0.56740803 -0.75862098 0.32022199 1.905766e-42
3.81323000 20.56760000 459.32101000 -0.56639600 0.81140900 -0.14425699 1.905766e-42
5.07882980 21.61759900 458.58899000 -0.54970801 0.82975900 -0.09654950 1.905766e-42
6.61927990 22.53570000 458.43399000 -0.52598399 0.85042799 -0.01065860 1.905766e-42
7.86807010 23.55250000 457.63000000 -0.55328000 0.82890600 0.08243480 1.905766e-42
9.47329040 24.36619900 457.59500000 -0.55648398 0.80553299 0.20357300 1.905766e-42
11.10120000 25.13380100 457.56699000 -0.54718500 0.81029397 0.20979100 1.905766e-42
12.76630000 25.81720000 457.58200000 -0.51194102 0.84606701 0.14861600 1.905766e-42
14.45010000 26.45360000 457.58499000 -0.46695101 0.87989801 0.08795450 1.905766e-42
15.91940000 27.31060000 456.99600000 -0.72703302 0.55699801 -0.40146801 1.905766e-42
17.55170100 28.01250100 456.70801000 -0.34462199 0.91848099 -0.19398201 1.905766e-42
19.25830100 28.33340100 457.18201000 -0.57865399 0.78112602 -0.23452300 1.905766e-42
20.97240100 28.72100100 457.57101000 -0.66353101 0.26035500 0.70138502 1.905766e-42
22.69459900 29.24440000 457.58099000 -0.17313001 0.98070502 -0.09079670 1.905766e-42
24.42020000 29.75659900 457.58200000 -0.08949720 0.99180502 -0.09117640 1.905766e-42
26.17280000 30.16710100 457.58499000 -0.01508940 0.99625498 -0.08513460 1.905766e-42
27.80480000 30.30690000 458.33099000 0.01458970 0.99898899 -0.04251930 1.905766e-42
29.50340100 30.42600100 458.91501000 0.01228350 0.99318999 -0.11585900 1.905766e-42
31.28830000 30.53949900 459.11700000 0.01835550 0.98281199 -0.18369500 1.905766e-42
32.96670200 30.49329900 459.76599000 0.00560836 0.97379702 -0.22734800 1.905766e-42
34.75600100 30.56180000 459.94901000 0.06943880 0.96376401 -0.25756100 1.905766e-42
36.39099900 30.37410000 460.67801000 0.13854100 0.95792502 -0.25136700 1.905766e-42
38.18510100 30.27160100 460.78299000 0.22373600 0.94190001 -0.25053200 1.905766e-42
39.67530100 29.95299900 461.74100000 0.29134899 0.93197799 -0.21571299 1.905766e-42
41.08700200 29.60770000 462.80301000 0.33758301 0.92327899 -0.18328400 1.905766e-42
42.83309900 29.31580000 463.12799000 0.37075400 0.90898401 -0.19049799 1.905766e-42
44.29159900 28.86300100 464.08099000 0.38332501 0.90718699 -0.17341600 1.905766e-42
45.61180100 28.26849900 465.15100000 0.38580900 0.91091001 -0.14626600 1.905766e-42
47.09579800 27.69730000 465.99399000 0.45080799 0.88526702 -0.11434700 1.905766e-42
48.46390200 27.04229900 466.96301000 0.51960802 0.85174400 -0.06736950 1.905766e-42
49.89770100 26.34860000 467.80200000 0.55338800 0.82861203 -0.08463820 1.905766e-42
51.04700100 25.56940100 468.94699000 0.58245802 0.80757999 -0.09249980 1.905766e-42
51.86169800 24.83320000 470.37299000 0.61530298 0.78449398 -0.07727130 1.905766e-42
53.23360100 23.95970000 471.14499000 0.67715102 0.73340398 -0.05986890 1.905766e-42
54.07669800 23.03700100 472.44000000 0.72639501 0.68683398 -0.02470390 1.905766e-42
55.07519900 21.97180000 473.49301000 0.77038401 0.63755202 0.00599635 1.905766e-42
55.59830100 20.95130000 474.88000000 0.80067998 0.59729397 0.04638740 1.905766e-42
56.18520000 19.81230000 476.14401000 0.82890999 0.55220002 0.08934590 1.905766e-42
56.75700000 18.60680000 477.35300000 0.85221702 0.50595498 0.13317500 1.905766e-42
57.37910100 17.33130100 478.45999000 0.86968797 0.46217999 0.17330000 1.905766e-42
57.58330200 16.11380000 479.76999000 0.87931800 0.42374599 0.21734500 1.905766e-42
58.31100100 14.74190000 480.67999000 0.88940400 0.38411999 0.24781500 1.905766e-42
58.64989900 13.33280000 481.74799000 0.91973501 -0.38364401 -0.08309260 1.905766e-42
58.47320200 12.14440000 483.08801000 0.88965601 0.34597501 0.29801399 1.905766e-42
58.53500000 10.77440000 484.25400000 0.88626599 0.33147201 0.32351100 1.905766e-42
58.46569800 9.39752010 485.41101000 0.87803102 0.31980899 0.35606700 1.905766e-42
58.39709900 7.99799010 486.54099000 0.86288899 0.27148801 0.42628300 1.905766e-42
58.06480000 6.69846010 487.74100000 0.79578102 0.15869400 0.58442199 1.905766e-42
58.26559800 5.17901990 488.68500000 0.67311001 0.02564620 0.73909801 1.905766e-42
