# .PCD v0.7 - Point Cloud Data file format
# 3 103 0
# 1 38 0
# 39 69 0
# 70 103 0
VERSION 0.7
FIELDS x y z normal_x normal_y normal_z curvature
SIZE 4 4 4 4 4 4 4
TYPE F F F F F F F
COUNT 1 1 1 1 1 1 1
WIDTH 103
HEIGHT 1
VIEWPOINT 0 0 0 1 0 0 0
POINTS 103
DATA ascii
21.51140000 35.29970200 513.84900000 0.20149100 -0.48831299 0.84908903 1.905766e-42
20.81220100 35.94210100 514.37201000 0.18215500 -0.50253397 0.84514999 1.905766e-42
19.23200000 35.20850000 513.91901000 0.15548500 -0.48790899 0.85893500 1.905766e-42
18.03890000 33.89059800 513.63702000 0.12185100 -0.49299800 0.86145502 1.905766e-42
16.64559900 32.84280000 513.18903000 0.07658880 -0.50374597 0.86045003 1.905766e-42
15.27110000 31.81240100 512.65198000 0.03622140 -0.51160502 0.85845703 1.905766e-42
14.37710000 30.41309900 511.95700000 0.01304660 -0.52070802 0.85363501 1.905766e-42
12.84830000 29.60470000 511.45700000 -0.02352640 -0.52590501 0.85021800 1.905766e-42
11.33090000 28.83580000 510.86899000 -0.05859970 -0.53150302 0.84502703 1.905766e-42
9.84825990 28.03790100 510.23300000 -0.09463110 -0.53972000 0.83650899 1.905766e-42
8.34644990 27.33379900 509.53299000 -0.13134600 -0.54944700 0.82514000 1.905766e-42
6.79566000 26.83359900 508.76901000 -0.16912700 -0.55976599 0.81120801 1.905766e-42
5.41964010 25.98720000 507.97501000 -0.20237400 -0.57430500 0.79323298 1.905766e-42
4.03292990 25.28240000 507.06900000 -0.22826900 -0.58743101 0.77641302 1.905766e-42
2.55494000 24.72909900 506.20300000 -0.25507399 -0.59937799 0.75873798 1.905766e-42
1.16954000 24.14040000 505.21600000 -0.28140101 -0.61169797 0.73935097 1.905766e-42
-0.29088700 23.80260100 504.22000000 -0.30785099 -0.62243599 0.71958399 1.905766e-42
-1.49854000 23.09289900 503.08899000 -0.33116099 -0.63265800 0.70005399 1.905766e-42
-2.83203010 22.55810000 502.00500000 -0.35603699 -0.64168602 0.67932099 1.905766e-42
-4.23259020 22.31780100 500.89999000 -0.38090399 -0.65116501 0.65642703 1.905766e-42
-4.67554000 21.19249900 499.56699000 -0.40283501 -0.65902400 0.63514602 1.905766e-42
-5.38866000 20.31780100 498.16501000 -0.42427200 -0.66876101 0.61053401 1.905766e-42
-6.50515990 19.84059900 496.83600000 -0.44405201 -0.67536497 0.58881199 1.905766e-42
-7.69229980 19.50620100 495.52499000 -0.46437001 -0.68077302 0.56648803 1.905766e-42
-8.57833000 18.89900000 494.08099000 -0.48519000 -0.68396300 0.54477900 1.905766e-42
-9.39241030 18.31970000 492.58301000 -0.50652403 -0.68567300 0.52276802 1.905766e-42
-9.85023020 17.48469900 491.05600000 -0.52038699 -0.68535399 0.50939900 1.905766e-42
-10.44430000 16.78720100 489.50699000 -0.53049803 -0.68574500 0.49832299 1.905766e-42
-11.53660000 16.73030100 488.07700000 -0.53668600 -0.69071800 0.48464099 1.905766e-42
-12.45480000 16.64600000 486.53101000 -0.54324102 -0.69524997 0.47065601 1.905766e-42
-12.86410000 15.73980000 485.03101000 -0.55005699 -0.69999599 0.45545799 1.905766e-42
-13.51660000 15.21030000 483.43900000 -0.56089801 -0.70534497 0.43345299 1.905766e-42
-14.36890000 14.87110000 481.89001000 -0.57578897 -0.71121597 0.40328601 1.905766e-42
-15.03550000 14.73990000 480.22299000 -0.58644903 -0.71939099 0.37222800 1.905766e-42
-15.05960000 13.93710000 478.61200000 -0.59673899 -0.72644502 0.34085301 1.905766e-42
-15.56390000 13.52730000 476.93399000 -0.60197097 -0.73826998 0.30428499 1.905766e-42
-15.52460000 12.83280000 475.27399000 -0.60579598 -0.74738598 0.27281001 1.905766e-42
-15.98310000 12.56910000 473.55301000 -0.61071700 -0.75196701 0.24813400 1.905766e-42
-15.49500000 11.69680000 472.05600000 -0.61134201 -0.75518399 0.23655400 1.905766e-42
-14.28160000 10.69870000 471.17801000 -0.60088801 -0.76380402 0.23566400 1.905766e-42
-12.92200000 9.76474000 471.89801000 -0.58416802 -0.77609998 0.23752300 1.905766e-42
-11.52000000 8.91376970 472.64001000 -0.56677598 -0.78824103 0.23966800 1.905766e-42
-10.15980000 8.12314990 473.51401000 -0.54994100 -0.79861701 0.24449100 1.905766e-42
-8.58561040 7.25162980 473.56299000 -0.53109002 -0.81212902 0.24164000 1.905766e-42
-7.08925010 6.39386990 474.07800000 -0.51502001 -0.82136899 0.24516600 1.905766e-42
-5.51553010 5.57057000 474.37000000 -0.49244601 -0.83143002 0.25733399 1.905766e-42
-3.86965990 4.84209010 474.39099000 -0.47000301 -0.84120500 0.26734200 1.905766e-42
-2.28528000 4.01345010 474.59900000 -0.44527599 -0.85127199 0.27760601 1.905766e-42
-0.74010700 3.24528000 475.11099000 -0.41734701 -0.86045301 0.29230499 1.905766e-42
0.82047600 2.66758990 475.79700000 -0.38889599 -0.86757398 0.30996001 1.905766e-42
2.54981990 2.18950010 475.94199000 -0.35825801 -0.88063103 0.31006601 1.905766e-42
4.11819980 1.69260000 476.67200000 -0.32873401 -0.88692302 0.32450101 1.905766e-42
5.83972980 1.17882000 476.78299000 -0.29805601 -0.89873999 0.32160500 1.905766e-42
7.57752990 0.70974499 476.77701000 -0.27450299 -0.90767300 0.31745601 1.905766e-42
9.29008010 0.15581299 476.79401000 -0.26352900 -0.91122103 0.31658801 1.905766e-42
10.98210000 -0.45816201 476.79300000 -0.25763199 -0.90656900 0.33430299 1.905766e-42
12.71190000 -0.95606899 476.79501000 -0.23575300 -0.90525597 0.35345700 1.905766e-42
14.37730000 -1.35590990 476.24100000 -0.21124201 -0.91039199 0.35575899 1.905766e-42
16.09750000 -1.86569000 476.09601000 -0.17570800 -0.91470999 0.36391199 1.905766e-42
17.82320000 -2.37106990 476.01501000 -0.13855100 -0.91843599 0.37051100 1.905766e-42
19.51149900 -2.76631000 475.53201000 -0.10720800 -0.92383897 0.36746299 1.905766e-42
21.24469900 -3.14012000 475.22101000 -0.07874860 -0.92401999 0.37414601 1.905766e-42
22.85810100 -3.17059990 474.42401000 -0.05431480 -0.92484999 0.37643400 1.905766e-42
24.64440000 -3.38945010 474.38901000 -0.02074970 -0.92204100 0.38653499 1.905766e-42
26.44339900 -3.45180010 474.39099000 0.01264520 -0.91815901 0.39601099 1.905766e-42
28.24320000 -3.47294000 474.39499000 0.04476090 -0.91354001 0.40427899 1.905766e-42
30.04220000 -3.41175010 474.39801000 0.08463810 -0.90473002 0.41749299 1.905766e-42
31.82749900 -3.18683000 474.35400000 0.12051000 -0.89383203 0.43190500 1.905766e-42
33.58359900 -2.79273010 474.38400000 0.15064500 -0.87948799 0.45144901 1.905766e-42
35.26070000 -2.43918990 474.93399000 0.17531700 -0.85774100 0.48326400 1.905766e-42
36.42599900 -1.37106000 475.79501000 0.19327000 -0.83154202 0.52075398 1.905766e-42
36.39699900 -0.52112699 477.38199000 0.22130799 -0.80900002 0.54455602 1.905766e-42
36.43420000 0.50902998 478.85699000 0.24703901 -0.78817201 0.56369901 1.905766e-42
36.17639900 1.47252000 480.35599000 0.26510701 -0.77413499 0.57483399 1.905766e-42
36.66890000 2.70831990 481.56799000 0.29123500 -0.75653601 0.58552200 1.905766e-42
36.85509900 3.82734990 482.96600000 0.30458999 -0.74064398 0.59889197 1.905766e-42
37.53540000 5.16186000 483.96399000 0.32645500 -0.71904498 0.61351597 1.905766e-42
37.60749800 6.18209980 485.44501000 0.33378601 -0.69977701 0.63158500 1.905766e-42
38.37390100 7.52852010 486.36200000 0.35539800 -0.67343402 0.64821202 1.905766e-42
38.90000200 8.84755990 487.46799000 0.37320200 -0.64480001 0.66704798 1.905766e-42
39.89289900 10.27270000 487.94000000 0.39276600 -0.61296099 0.68557602 1.905766e-42
39.89390200 11.53190000 489.22601000 0.40974399 -0.58465302 0.70020700 1.905766e-42
39.29340000 12.60390000 490.54099000 0.42008400 -0.56653601 0.70891899 1.905766e-42
39.09500100 13.99280000 491.66901000 0.43425199 -0.54412401 0.71788198 1.905766e-42
38.50420000 15.11130000 492.95001000 0.44024500 -0.53203499 0.72327298 1.905766e-42
38.19250100 16.41869900 494.14700000 0.45032501 -0.51681900 0.72808301 1.905766e-42
37.49509800 17.59900100 495.31299000 0.45457301 -0.50771898 0.73183697 1.905766e-42
36.93989900 18.94570000 496.37100000 0.46188301 -0.49614900 0.73518699 1.905766e-42
36.09629800 19.82160000 497.69800000 0.45939201 -0.49301100 0.73885000 1.905766e-42
35.32720200 20.89880000 498.91800000 0.45697701 -0.48505300 0.74558401 1.905766e-42
34.54470100 22.02260000 500.08600000 0.45361400 -0.47786599 0.75224900 1.905766e-42
33.66650000 23.06749900 501.25900000 0.44645700 -0.47358999 0.75920200 1.905766e-42
32.79779800 24.11510100 502.43799000 0.43815601 -0.47061601 0.76585901 1.905766e-42
32.06100100 25.32060100 503.55301000 0.43371299 -0.46978801 0.76889002 1.905766e-42
31.15740000 26.34950100 504.72101000 0.42135799 -0.47351301 0.77346098 1.905766e-42
30.15780100 27.34900100 505.83600000 0.40400001 -0.47894701 0.77935499 1.905766e-42
28.84460100 27.96649900 506.89999000 0.37464100 -0.48755500 0.78862798 1.905766e-42
27.83580000 28.98360100 507.98999000 0.35161299 -0.48989001 0.79773098 1.905766e-42
26.83169900 30.03280100 509.05399000 0.32817799 -0.49093401 0.80702102 1.905766e-42
25.74939900 31.03920000 510.08099000 0.30200300 -0.49105200 0.81710601 1.905766e-42
25.05810000 32.43240000 510.98801000 0.28146300 -0.48391199 0.82861799 1.905766e-42
23.84720000 33.28780000 512.00800000 0.25116599 -0.47881800 0.84121901 1.905766e-42
22.60070000 34.18980000 512.94202000 0.22511300 -0.47945800 0.84820098 1.905766e-42
