# .PCD v0.7 - Point Cloud Data file format
# 4 184 0
# 1 61 0
# 62 126 0
# 127 147 0
# 148 184 0
VERSION 0.7
FIELDS x y z normal_x normal_y normal_z curvature
SIZE 4 4 4 4 4 4 4
TYPE F F F F F F F
COUNT 1 1 1 1 1 1 1
WIDTH 184
HEIGHT 1
VIEWPOINT 0 0 0 1 0 0 0
POINTS 184
DATA ascii
38.61190000 56.57049900 549.25598000 0.26741400 -0.21127000 0.94013602 1.905766e-42
36.94210100 56.13890100 549.77197000 0.25691500 -0.21214700 0.94286197 1.905766e-42
35.23440200 55.79859900 550.22803000 0.24243200 -0.21376599 0.94632500 1.905766e-42
33.55680100 55.23289900 550.55200000 0.22690800 -0.21732700 0.94935900 1.905766e-42
31.78840100 55.10530100 550.86298000 0.20880499 -0.21723700 0.95352399 1.905766e-42
29.99889900 55.19910000 551.03302000 0.18902300 -0.21562400 0.95800698 1.905766e-42
28.28010000 54.98970000 551.52502000 0.16775800 -0.21592000 0.96189201 1.905766e-42
26.50320100 54.98920100 551.81201000 0.14461599 -0.21496899 0.96585399 1.905766e-42
24.88390000 55.71360000 552.11700000 0.12196300 -0.20827100 0.97043699 1.905766e-42
22.43700000 56.66210200 552.64001000 0.08570590 -0.19938900 0.97616500 1.905766e-42
20.74280000 56.05400100 552.63397000 0.05731200 -0.20467500 0.97715098 1.905766e-42
19.21970000 55.10620100 552.48602000 0.02979920 -0.21199501 0.97681600 1.905766e-42
17.55929900 54.56560100 552.04901000 0.00161002 -0.21421400 0.97678500 1.905766e-42
16.30830000 53.27240000 552.00000000 -0.01602680 -0.22153600 0.97501999 1.905766e-42
15.20270000 51.87480200 551.74597000 -0.02915510 -0.23053800 0.97262597 1.905766e-42
13.71390000 50.88719900 551.52698000 -0.04788000 -0.23488200 0.97084397 1.905766e-42
12.36150000 49.75420000 551.16998000 -0.06274790 -0.24144600 0.96838301 1.905766e-42
10.97980000 48.66320000 550.79498000 -0.07874500 -0.24842800 0.96544403 1.905766e-42
9.80245970 47.39049900 550.31097000 -0.09554550 -0.25985000 0.96091002 1.905766e-42
8.20009040 46.73910100 549.81299000 -0.12050200 -0.26460600 0.95679802 1.905766e-42
6.99697020 45.48749900 549.33698000 -0.13790300 -0.27678201 0.95098603 1.905766e-42
5.74007990 44.29510100 548.84900000 -0.15639600 -0.28871000 0.94455600 1.905766e-42
4.32118990 43.33309900 548.29999000 -0.17797901 -0.29842699 0.93769097 1.905766e-42
2.81112000 42.65599800 547.59198000 -0.20172200 -0.30580500 0.93047899 1.905766e-42
1.52694000 41.54219800 547.00098000 -0.22130300 -0.31776699 0.92198098 1.905766e-42
0.04606850 40.72190100 546.38898000 -0.24309200 -0.32624599 0.91349298 1.905766e-42
-1.33606000 39.82730100 545.66101000 -0.26111501 -0.33484599 0.90537101 1.905766e-42
-2.74552990 39.03419900 544.87097000 -0.27984399 -0.34218299 0.89699399 1.905766e-42
-3.85241010 37.78450000 544.19800000 -0.29374400 -0.35282001 0.88838798 1.905766e-42
-5.34657000 37.23580200 543.35699000 -0.31389901 -0.35690600 0.87982202 1.905766e-42
-6.63380000 36.24929800 542.57599000 -0.33040899 -0.36386001 0.87088197 1.905766e-42
-8.08426950 35.64930000 541.69501000 -0.34961900 -0.36723500 0.86191899 1.905766e-42
-9.45013050 34.91180000 540.78400000 -0.36736599 -0.37101999 0.85286999 1.905766e-42
-10.85310000 34.25009900 539.87097000 -0.38717401 -0.37396899 0.84276003 1.905766e-42
-12.24940000 33.61759900 538.92700000 -0.40839899 -0.37650800 0.83153600 1.905766e-42
-13.62270000 33.12749900 537.87201000 -0.43052399 -0.37785199 0.81968099 1.905766e-42
-14.99350000 32.58369800 536.84003000 -0.45268601 -0.37853301 0.80733401 1.905766e-42
-16.29190100 31.74169900 535.92102000 -0.47286499 -0.37888300 0.79551601 1.905766e-42
-17.69969900 31.38310100 534.85797000 -0.49625000 -0.37635401 0.78236401 1.905766e-42
-18.98670000 31.26450000 533.60498000 -0.51999402 -0.37255499 0.76864100 1.905766e-42
-20.33090000 30.68030000 532.56000000 -0.54037797 -0.36685300 0.75723898 1.905766e-42
-21.64830000 30.20439900 531.42999000 -0.55784899 -0.35948199 0.74804902 1.905766e-42
-22.90239900 29.58729900 530.29498000 -0.57463402 -0.35040301 0.73960400 1.905766e-42
-24.13480000 28.93289900 529.15802000 -0.59065300 -0.34185499 0.73093402 1.905766e-42
-25.45910100 28.72940100 527.95599000 -0.60727298 -0.33970499 0.71820599 1.905766e-42
-26.73240100 28.59800000 526.69098000 -0.62362701 -0.33757299 0.70507699 1.905766e-42
-28.04330100 28.56920100 525.45801000 -0.64020300 -0.33375701 0.69191498 1.905766e-42
-29.34790000 28.37920000 524.23199000 -0.65480500 -0.33345601 0.67826003 1.905766e-42
-30.58359900 28.11780000 522.95001000 -0.66509497 -0.33595100 0.66692197 1.905766e-42
-31.71870000 27.91610000 521.56702000 -0.67574602 -0.33934000 0.65438199 1.905766e-42
-32.83079900 28.00589900 520.15503000 -0.68816900 -0.33820999 0.64190102 1.905766e-42
-33.91109800 27.74790000 518.73798000 -0.69884402 -0.34474400 0.62671298 1.905766e-42
-35.04940000 27.44120000 517.37799000 -0.70967299 -0.35194200 0.61032897 1.905766e-42
-36.15980100 26.83830100 516.09601000 -0.71881098 -0.36395499 0.59232402 1.905766e-42
-37.12979900 27.10750000 514.60400000 -0.73226500 -0.36207601 0.57679099 1.905766e-42
-37.96080000 26.21920000 513.27698000 -0.73645997 -0.37897599 0.56036001 1.905766e-42
-38.94340100 26.04999900 511.77899000 -0.74202901 -0.38513401 0.54869300 1.905766e-42
-39.72510100 25.67120000 510.20200000 -0.74602097 -0.39537901 0.53584301 1.905766e-42
-40.49050100 24.78260000 508.83701000 -0.74814898 -0.40989000 0.52178800 1.905766e-42
-41.28950100 24.37030000 507.27701000 -0.75229001 -0.41887701 0.50853002 1.905766e-42
-42.14810200 24.41600000 505.69601000 -0.75758302 -0.42356899 0.49664599 1.905766e-42
-43.04840100 24.03910100 504.18301000 -0.76197797 -0.43151999 0.48288700 1.905766e-42
-42.84769800 22.52039900 503.23801000 -0.76128399 -0.44535699 0.47127900 1.905766e-42
-42.95109900 21.39740000 501.83499000 -0.75852299 -0.47265500 0.44859901 1.905766e-42
-42.95119900 20.22110000 500.47299000 -0.75442398 -0.50125599 0.42377701 1.905766e-42
-42.64899800 18.76549900 499.45801000 -0.74689901 -0.53028399 0.40117401 1.905766e-42
-42.42540000 17.48210000 498.21600000 -0.74035299 -0.55590099 0.37795699 1.905766e-42
-42.19430200 16.30130000 496.87701000 -0.73407298 -0.57855600 0.35554200 1.905766e-42
-41.63280100 14.96800000 495.80600000 -0.72418803 -0.60129303 0.33763599 1.905766e-42
-41.24150100 13.75550000 494.53500000 -0.71393800 -0.62445903 0.31677201 1.905766e-42
-40.60649900 12.56160000 493.34698000 -0.69980198 -0.65031499 0.29558101 1.905766e-42
-40.09510000 11.42870000 492.04501000 -0.68607700 -0.67400599 0.27388701 1.905766e-42
-39.11679800 10.16380000 491.21799000 -0.66621500 -0.69980901 0.25773099 1.905766e-42
-38.09009900 8.94009020 490.38901000 -0.64504999 -0.72478497 0.24206699 1.905766e-42
-37.32529800 7.88476990 489.14700000 -0.62675297 -0.74658197 0.22314900 1.905766e-42
-36.48360100 6.80509000 487.97800000 -0.60724002 -0.76730198 0.20617400 1.905766e-42
-35.23120100 5.69877000 487.30899000 -0.58964801 -0.78180498 0.20272000 1.905766e-42
-34.02740100 4.62436010 486.51199000 -0.57177299 -0.79625398 0.19762300 1.905766e-42
-33.07920100 3.70470000 485.28900000 -0.55646503 -0.80899698 0.18939400 1.905766e-42
-31.98979900 2.75641990 484.21500000 -0.53834999 -0.82295799 0.18143600 1.905766e-42
-30.68790100 1.79037000 483.43201000 -0.51720703 -0.83801699 0.17385100 1.905766e-42
-29.18520000 0.82473099 483.20999000 -0.49452499 -0.85282397 0.16773801 1.905766e-42
-27.71530000 -0.06974630 482.68201000 -0.47438601 -0.86537701 0.16149500 1.905766e-42
-26.22190100 -0.87278998 482.07700000 -0.46280399 -0.87110698 0.16427200 1.905766e-42
-24.70330000 -1.75614000 481.68600000 -0.45080599 -0.87696600 0.16644700 1.905766e-42
-23.13500000 -2.63174010 481.56799000 -0.43852401 -0.88288403 0.16796701 1.905766e-42
-21.54690000 -3.47859000 481.59500000 -0.42631301 -0.88868397 0.16881301 1.905766e-42
-19.92400000 -4.25717020 481.59100000 -0.41410601 -0.89442599 0.16887601 1.905766e-42
-18.26660000 -4.95909020 481.57800000 -0.40164500 -0.90022802 0.16813900 1.905766e-42
-16.61319900 -5.67061000 481.58701000 -0.38867599 -0.90618598 0.16660801 1.905766e-42
-14.97370000 -6.41356990 481.58499000 -0.37486401 -0.91242200 0.16420200 1.905766e-42
-13.28250000 -7.03004980 481.59299000 -0.35972100 -0.91769302 0.16863900 1.905766e-42
-11.54290000 -7.49217990 481.59799000 -0.34124500 -0.92330003 0.17626500 1.905766e-42
-10.04850000 -8.13498970 482.36801000 -0.32251400 -0.92816597 0.18572000 1.905766e-42
-8.34862040 -8.72673990 482.38000000 -0.30576101 -0.93259102 0.19179100 1.905766e-42
-6.59752990 -9.14344980 482.38501000 -0.28963599 -0.93663001 0.19706701 1.905766e-42
-5.01548000 -9.60729030 483.10800000 -0.27368000 -0.93974799 0.20487300 1.905766e-42
-3.28790000 -10.10910000 483.16800000 -0.25883701 -0.94312203 0.20862401 1.905766e-42
-1.54615000 -10.56320000 483.15799000 -0.24446400 -0.94643098 0.21096601 1.905766e-42
0.22192700 -10.89970000 483.18500000 -0.22994401 -0.94965601 0.21278700 1.905766e-42
1.98640000 -11.25540000 483.19199000 -0.21188200 -0.95317000 0.21580601 1.905766e-42
3.67071010 -11.58310000 483.73599000 -0.19364700 -0.95558798 0.22215199 1.905766e-42
5.43663980 -11.90710000 483.86401000 -0.17549101 -0.95845503 0.22487099 1.905766e-42
7.22713990 -12.08240000 483.92200000 -0.15993901 -0.95991200 0.23019300 1.905766e-42
9.02211000 -12.20800000 483.97000000 -0.14849600 -0.95905000 0.24118701 1.905766e-42
10.68600000 -12.56090000 484.55899000 -0.13502300 -0.95863998 0.25055501 1.905766e-42
12.46240000 -12.77060000 484.76001000 -0.12303400 -0.95795798 0.25918901 1.905766e-42
14.25720000 -12.78470000 484.89600000 -0.10987800 -0.95729703 0.26741099 1.905766e-42
15.98230000 -12.95520000 485.38101000 -0.09305140 -0.95641398 0.27679300 1.905766e-42
17.77750000 -13.01710000 485.49600000 -0.07741650 -0.95557398 0.28440201 1.905766e-42
19.57189900 -12.90170000 485.57999000 -0.06209100 -0.95465100 0.29118100 1.905766e-42
21.18160100 -13.13970000 486.35001000 -0.04681580 -0.95306098 0.29913700 1.905766e-42
22.98130000 -13.15020000 486.38300000 -0.03292080 -0.95196801 0.30442300 1.905766e-42
24.75210000 -12.82880000 486.35599000 -0.01987850 -0.95075601 0.30930299 1.905766e-42
26.39830000 -12.93070000 487.07700000 -0.00704436 -0.94856900 0.31649300 1.905766e-42
28.11920000 -12.82960000 487.59500000 0.00785924 -0.94580197 0.32464799 1.905766e-42
29.88579900 -12.65900000 487.89499000 0.02392740 -0.94269001 0.33281100 1.905766e-42
31.66400000 -12.38700000 487.95999000 0.03904390 -0.93962902 0.33995900 1.905766e-42
33.29679900 -12.24540000 488.70401000 0.05465360 -0.93473601 0.35111400 1.905766e-42
35.08050200 -12.03060000 488.81500000 0.06850180 -0.93071401 0.35927600 1.905766e-42
36.69940200 -11.72330000 489.54001000 0.08300260 -0.92446101 0.37213200 1.905766e-42
38.48640100 -11.50770000 489.54800000 0.09426570 -0.91975403 0.38100800 1.905766e-42
40.06029900 -11.05470000 490.29401000 0.10726700 -0.91185498 0.39625099 1.905766e-42
41.83850100 -10.78530000 490.36899000 0.11213700 -0.90712500 0.40564701 1.905766e-42
43.61080200 -10.47660000 490.42700000 0.11654500 -0.90182698 0.41608301 1.905766e-42
45.34769800 -10.00520000 490.39200000 0.12060400 -0.89599299 0.42737699 1.905766e-42
46.86460100 -9.40229990 491.15100000 0.12984200 -0.88645703 0.44422299 1.905766e-42
47.13950000 -8.70769980 492.78799000 0.14302400 -0.87684101 0.45901501 1.905766e-42
48.26710100 -7.98581980 493.99200000 0.15620400 -0.86573201 0.47550800 1.905766e-42
49.40919900 -7.14769980 495.10199000 0.17000499 -0.85435700 0.49109301 1.905766e-42
50.49890100 -6.23616980 496.20700000 0.18330000 -0.84329802 0.50522298 1.905766e-42
51.28970000 -5.27643010 497.50900000 0.19520900 -0.83313698 0.51747102 1.905766e-42
52.13259900 -4.32996990 498.78699000 0.20774500 -0.82244098 0.52956003 1.905766e-42
53.13079800 -3.34042000 499.91101000 0.22071899 -0.81104100 0.54175198 1.905766e-42
53.95669900 -2.28714990 501.11499000 0.23454399 -0.79951698 0.55295801 1.905766e-42
54.96569800 -1.26297000 502.19800000 0.24879000 -0.78732699 0.56410998 1.905766e-42
55.90499900 -0.10828900 503.20999000 0.26365399 -0.77492601 0.57443601 1.905766e-42
56.54110000 1.06116000 504.42200000 0.27861100 -0.76337498 0.58278102 1.905766e-42
57.37659800 2.28196000 505.44699000 0.29492500 -0.75072300 0.59112900 1.905766e-42
58.13850000 3.46004010 506.57501000 0.31316599 -0.73619902 0.59994799 1.905766e-42
58.76250100 4.65281010 507.76999000 0.32729101 -0.72021598 0.61169398 1.905766e-42
59.80199800 5.91435000 508.52301000 0.34212601 -0.70340002 0.62303901 1.905766e-42
60.58950000 7.22824000 509.46899000 0.35505199 -0.68650198 0.63454998 1.905766e-42
60.91790000 8.39939020 510.79501000 0.36560699 -0.67106003 0.64498800 1.905766e-42
61.80939900 9.74707030 511.58899000 0.37756199 -0.65432203 0.65521699 1.905766e-42
63.01779900 10.99310000 512.06500000 0.38853800 -0.63851601 0.66433001 1.905766e-42
63.81129800 12.42880000 512.80603000 0.39913499 -0.62302297 0.67270601 1.905766e-42
64.34210200 13.75020000 513.90698000 0.40891299 -0.60958499 0.67911398 1.905766e-42
63.96020100 15.10550000 515.02802000 0.41516200 -0.60142601 0.68258899 1.905766e-42
62.51940200 15.10900000 516.10699000 0.41061100 -0.60418302 0.68290597 1.905766e-42
61.05910100 15.11930000 517.15997000 0.40520400 -0.60676700 0.68384498 1.905766e-42
59.83229800 15.96560000 518.16901000 0.40320599 -0.60436702 0.68714303 1.905766e-42
58.45389900 15.87210000 519.32300000 0.39684999 -0.60682499 0.68867499 1.905766e-42
57.17820000 16.33729900 520.50403000 0.39240101 -0.60609400 0.69186097 1.905766e-42
56.05640000 17.07200100 521.70502000 0.38909599 -0.60361701 0.69588101 1.905766e-42
54.96369900 17.96570000 522.82202000 0.38591701 -0.60070598 0.70015699 1.905766e-42
53.72860000 18.35590000 524.07202000 0.37804601 -0.59727901 0.70734698 1.905766e-42
52.47280100 18.91850100 525.23199000 0.36904499 -0.59117699 0.71715802 1.905766e-42
51.49430100 19.75289900 526.49200000 0.36194301 -0.58256298 0.72774798 1.905766e-42
50.35269900 20.55130000 527.63202000 0.35378599 -0.57499498 0.73771101 1.905766e-42
49.70050000 21.89259900 528.63898000 0.34967399 -0.56403100 0.74806201 1.905766e-42
48.79589800 22.92980000 529.79901000 0.34296301 -0.55486202 0.75796002 1.905766e-42
47.90760000 23.87980100 531.04401000 0.33586299 -0.54606301 0.76747102 1.905766e-42
46.79959900 24.62599900 532.25000000 0.32707101 -0.53887302 0.77629900 1.905766e-42
46.43399800 26.12750100 533.17297000 0.32481101 -0.52688700 0.78542203 1.905766e-42
45.76710100 27.41250000 534.24298000 0.32012299 -0.51559901 0.79478198 1.905766e-42
45.02840000 28.50499900 535.46802000 0.31468099 -0.50465101 0.80392998 1.905766e-42
44.49800100 29.90810000 536.46301000 0.31130099 -0.49192601 0.81308103 1.905766e-42
43.82030100 31.16690100 537.55701000 0.30689299 -0.47957301 0.82208598 1.905766e-42
43.37229900 32.59209800 538.56097000 0.30414701 -0.46590999 0.83091599 1.905766e-42
42.67670100 33.92229800 539.55402000 0.30041099 -0.45343599 0.83913600 1.905766e-42
42.47440000 35.48700000 540.41998000 0.29947400 -0.43918300 0.84701401 1.905766e-42
42.02710000 36.98350100 541.31500000 0.29730800 -0.42523801 0.85485703 1.905766e-42
41.60689900 38.48580200 542.21301000 0.29545099 -0.41083500 0.86251003 1.905766e-42
41.38290000 40.08340100 543.01202000 0.29486901 -0.39533800 0.86992002 1.905766e-42
41.06029900 41.63530000 543.86499000 0.29411301 -0.37939900 0.87724298 1.905766e-42
40.84529900 43.26350000 544.60101000 0.29434800 -0.36221400 0.88439798 1.905766e-42
40.69419900 44.90399900 545.32599000 0.29422301 -0.34369600 0.89179897 1.905766e-42
40.21580100 46.47900000 546.05499000 0.29184800 -0.32578501 0.89927101 1.905766e-42
40.19640000 48.19879900 546.58600000 0.29115000 -0.30667600 0.90619099 1.905766e-42
40.06589900 49.91780100 547.10400000 0.28908801 -0.28721300 0.91320097 1.905766e-42
39.60340100 51.50600100 547.81299000 0.28357100 -0.26746500 0.92089599 1.905766e-42
39.39469900 53.19609800 548.39600000 0.27841401 -0.24593399 0.92844099 1.905766e-42
39.23289900 54.93310200 548.84003000 0.27345899 -0.22404200 0.93542802 1.905766e-42
