# .PCD v0.7 - Point Cloud Data file format
# 4 179 0
# 1 62 0
# 63 107 0
# 108 155 0
# 156 179 0
VERSION 0.7
FIELDS x y z normal_x normal_y normal_z curvature
SIZE 4 4 4 4 4 4 4
TYPE F F F F F F F
COUNT 1 1 1 1 1 1 1
WIDTH 179
HEIGHT 1
VIEWPOINT 0 0 0 1 0 0 0
POINTS 179
DATA ascii
-36.87879900 -3.09214000 474.37900000 -0.55580503 0.47268400 0.68384999 1.905766e-42
-35.43000000 -3.09109000 475.44699000 -0.53839701 0.42375499 0.72839499 1.905766e-42
-33.89899800 -2.95338990 476.38400000 -0.51861501 0.38697800 0.76242101 1.905766e-42
-32.41600000 -3.42875000 477.28601000 -0.49642500 0.31232399 0.80994898 1.905766e-42
-30.96870000 -2.68637990 478.05701000 -0.48264301 0.33305499 0.81001800 1.905766e-42
-29.37879900 -2.68941000 478.90100000 -0.46275401 0.30454999 0.83253098 1.905766e-42
-27.80180000 -2.96135000 479.72501000 -0.43573499 0.25076401 0.86443800 1.905766e-42
-26.16600000 -2.88388990 480.47198000 -0.40795100 0.21585201 0.88712102 1.905766e-42
-24.52479900 -2.87036990 481.21100000 -0.37693799 0.17285600 0.90996599 1.905766e-42
-22.85829900 -2.66090990 481.85901000 -0.34890199 0.14701401 0.92555600 1.905766e-42
-21.24760100 -2.04172990 482.37100000 -0.32933900 0.16709900 0.92930800 1.905766e-42
-19.55920000 -2.24708010 482.95999000 -0.29524001 0.11050800 0.94901103 1.905766e-42
-17.82860000 -2.26675010 483.45401000 -0.26492900 0.07834090 0.96108001 1.905766e-42
-16.29340000 -1.40073000 483.81900000 -0.24894100 0.14956100 0.95690101 1.905766e-42
-14.59650000 -0.97937900 484.24701000 -0.22519501 0.17526500 0.95841998 1.905766e-42
-12.90990000 -1.47036000 484.64001000 -0.19775601 0.10207000 0.97492301 1.905766e-42
-11.14620000 -1.47320000 485.00000000 -0.17602600 0.08959860 0.98029900 1.905766e-42
-9.43871020 -0.99493003 485.30899000 -0.15795900 0.13725600 0.97785997 1.905766e-42
-7.66188000 -0.92546803 485.58801000 -0.14074200 0.14596701 0.97922701 1.905766e-42
-5.88105010 -0.84001303 485.83600000 -0.12507300 0.16438299 0.97843498 1.905766e-42
-4.10240980 -0.66176802 486.04700000 -0.09592170 0.20255800 0.97456098 1.905766e-42
-2.35365010 -1.05199000 486.21899000 -0.07402190 0.18586101 0.97978401 1.905766e-42
-0.57527602 -0.78870398 486.30899000 -0.03974050 0.23584899 0.97097701 1.905766e-42
1.22290000 -0.75465697 486.38300000 -0.00666203 0.26231501 0.96495903 1.905766e-42
2.80457000 -1.61392000 486.38101000 0.01559340 0.19780700 0.98011702 1.905766e-42
3.27933000 -1.46611000 486.45200000 0.02621360 0.21330500 0.97663403 1.905766e-42
5.00063990 -1.98920000 486.39301000 0.05798820 0.17986400 0.98198098 1.905766e-42
6.78467990 -2.21589990 486.31699000 0.09263200 0.17041400 0.98100901 1.905766e-42
8.57386020 -2.35420990 486.17700000 0.12484000 0.16922900 0.97763801 1.905766e-42
10.32540000 -2.73891000 486.02200000 0.15410900 0.14763600 0.97696102 1.905766e-42
12.02110000 -3.29145000 485.77802000 0.17989101 0.11479800 0.97696501 1.905766e-42
13.21390000 -4.62944980 485.61401000 0.18990900 0.02457300 0.98149401 1.905766e-42
14.78890000 -5.45900010 485.34698000 0.20685899 -0.01700350 0.97822303 1.905766e-42
16.53790100 -5.25128980 484.97501000 0.23250601 0.01167670 0.97252500 1.905766e-42
18.23620000 -5.67547990 484.55600000 0.25187799 0.00299294 0.96775401 1.905766e-42
19.66330000 -6.69572020 484.15302000 0.26515600 -0.04655500 0.96308100 1.905766e-42
21.39830000 -6.62248990 483.67899000 0.29674199 -0.01801050 0.95478803 1.905766e-42
22.73780100 -7.72633980 483.20300000 0.30432999 -0.06969940 0.95001298 1.905766e-42
24.24420000 -8.52970030 482.63199000 0.31746200 -0.09425240 0.94357502 1.905766e-42
25.92000000 -8.77797990 482.02399000 0.34215501 -0.07782290 0.93641502 1.905766e-42
27.48840000 -9.40149970 481.39801000 0.35772699 -0.08080410 0.93032402 1.905766e-42
29.14940100 -9.59354020 480.73199000 0.38583100 -0.04789260 0.92132598 1.905766e-42
30.46400100 -10.60800000 480.03699000 0.39641500 -0.07343560 0.91513002 1.905766e-42
31.99099900 -11.18940000 479.28201000 0.42531699 -0.06237950 0.90289199 1.905766e-42
33.55170100 -11.62530000 478.49799000 0.46126401 -0.03729810 0.88647902 1.905766e-42
35.01630000 -12.27930000 477.68100000 0.49050799 -0.02496730 0.87107903 1.905766e-42
36.29679900 -13.21690000 476.83200000 0.50831598 -0.03178520 0.86058402 1.905766e-42
37.80379900 -13.63510000 475.94101000 0.54897302 0.00264776 0.83583599 1.905766e-42
39.15350000 -14.37900000 475.01099000 0.57738799 0.01569520 0.81631899 1.905766e-42
40.54760000 -14.93270000 474.01599000 0.61114901 0.04435900 0.79027200 1.905766e-42
41.82569900 -15.72250000 473.02499000 0.63511300 0.06014240 0.77007401 1.905766e-42
42.75960200 -16.94000100 472.08401000 0.64707798 0.05760520 0.76024401 1.905766e-42
44.04900000 -17.59070000 471.00900000 0.67743599 0.08377030 0.73079598 1.905766e-42
45.34500100 -18.16970100 469.90302000 0.71172202 0.11554200 0.69289303 1.905766e-42
46.38930100 -19.17790000 468.83801000 0.73789102 0.13436300 0.66140997 1.905766e-42
47.61529900 -19.72349900 467.63901000 0.77069300 0.16226999 0.61619902 1.905766e-42
48.82529800 -20.18590000 466.38901000 0.80508101 0.19162400 0.56136000 1.905766e-42
49.53369900 -21.48049900 465.35800000 0.82370800 0.19159700 0.53366297 1.905766e-42
50.74679900 -21.53310000 464.02899000 0.85322601 0.21779799 0.47388700 1.905766e-42
51.70970200 -22.24220100 462.68399000 0.87157100 0.23318800 0.43126300 1.905766e-42
52.51950100 -23.13180000 461.34500000 0.88360202 0.25136501 0.39504901 1.905766e-42
53.34460100 -23.94450000 459.96701000 0.89007801 0.28506699 0.35566601 1.905766e-42
54.12920000 -24.58330000 458.47800000 0.88681602 0.34629899 0.30599800 1.905766e-42
54.08760100 -23.44339900 457.08600000 0.91324800 0.29093701 0.28519201 1.905766e-42
54.19720100 -22.62820100 455.48499000 0.91633397 0.32095301 0.23941700 1.905766e-42
54.08490000 -21.35670100 454.21600000 0.90874797 0.37213799 0.18891899 1.905766e-42
53.91650000 -20.22310100 452.82800000 0.89314902 0.42901301 0.13503000 1.905766e-42
53.54190100 -18.86590000 451.70599000 0.89252800 0.42827800 0.14132001 1.905766e-42
53.15230200 -17.58900100 450.49899000 0.89645600 0.41382501 0.15848100 1.905766e-42
52.76240200 -16.19210100 449.43301000 0.89933598 0.40075800 0.17489199 1.905766e-42
52.30199800 -14.98110000 448.18301000 0.90287000 0.38656199 0.18813600 1.905766e-42
52.03340100 -13.67450000 446.97501000 0.90659398 0.37148499 0.20021699 1.905766e-42
51.81370200 -12.32640000 445.80200000 0.91099900 0.35097301 0.21656100 1.905766e-42
51.53469800 -10.80530000 444.88101000 0.91358799 0.33218300 0.23454399 1.905766e-42
51.54650100 -9.67994020 443.47601000 0.91868299 0.30970100 0.24516800 1.905766e-42
51.47790100 -8.68058970 441.98099000 0.92393100 0.28712201 0.25281000 1.905766e-42
51.47670000 -7.42330980 440.69299000 0.92794102 0.26614600 0.26094499 1.905766e-42
51.49770000 -6.04744010 439.53201000 0.93036097 0.25984699 0.25866500 1.905766e-42
51.45920200 -4.64625980 438.40302000 0.93200701 0.25412199 0.25842899 1.905766e-42
51.51390100 -3.52011990 437.00000000 0.93487298 0.24620400 0.25572699 1.905766e-42
51.51200100 -2.55539990 435.48001000 0.93787903 0.23696500 0.25343701 1.905766e-42
51.59899900 -1.20530000 434.29300000 0.93833101 0.23041900 0.25776201 1.905766e-42
51.60870000 -0.12000500 432.85699000 0.93962097 0.22481200 0.25801399 1.905766e-42
51.63340000 1.49102000 432.05399000 0.93765998 0.22598401 0.26405400 1.905766e-42
51.72610100 2.72283010 430.74500000 0.93844098 0.22224601 0.26445401 1.905766e-42
51.85670100 3.63638000 429.20001000 0.94080299 0.21597600 0.26123700 1.905766e-42
51.91930000 5.04371980 428.07901000 0.94065201 0.21431901 0.26313600 1.905766e-42
51.92070000 5.84040020 426.46500000 0.94275200 0.20434500 0.26355499 1.905766e-42
52.07249800 7.47305010 425.72299000 0.94093198 0.19411699 0.27742600 1.905766e-42
51.61930100 9.12919040 426.26300000 0.93434000 0.19967000 0.29519501 1.905766e-42
51.04859900 10.61370000 427.10599000 0.92626899 0.21074200 0.31243101 1.905766e-42
49.61629900 11.46140000 426.42001000 0.92236000 0.21025001 0.32411101 1.905766e-42
50.24430100 13.01150000 427.08600000 0.91537201 0.21733201 0.33891100 1.905766e-42
49.99129900 14.79110000 427.18100000 0.90645301 0.22383501 0.35810700 1.905766e-42
49.85089900 16.02580100 425.87900000 0.90313703 0.21613400 0.37098399 1.905766e-42
49.61460100 17.78310000 425.56799000 0.89435399 0.24314700 0.37551299 1.905766e-42
49.23510000 19.54250000 425.58401000 0.88349402 0.27296200 0.38069600 1.905766e-42
49.04760000 20.94590000 424.47299000 0.87643498 0.29464900 0.38084701 1.905766e-42
48.79110000 22.67890000 424.05899000 0.86498499 0.32444301 0.38280299 1.905766e-42
48.29259900 24.40740000 423.99899000 0.85236800 0.35620201 0.38286901 1.905766e-42
47.99700200 25.98290100 423.18100000 0.84372300 0.36334801 0.39510599 1.905766e-42
47.46649900 27.70290000 423.19199000 0.83941799 0.36459899 0.40304500 1.905766e-42
46.79999900 29.37490100 423.17700000 0.83965302 0.36020899 0.40648800 1.905766e-42
46.23120100 30.90060000 422.41000000 0.84764701 0.35988200 0.38984600 1.905766e-42
45.26720000 32.33200100 422.92200000 0.85307199 0.34545001 0.39106500 1.905766e-42
44.08779900 33.67210000 423.15201000 0.86176503 0.32623100 0.38850299 1.905766e-42
43.58240100 35.30440100 423.71799000 0.87250799 0.29792100 0.38726300 1.905766e-42
43.35630000 36.77970100 424.72400000 0.87876803 0.25814000 0.40141201 1.905766e-42
42.56610100 37.69490100 426.05801000 0.87743998 0.21222800 0.43018299 1.905766e-42
41.50199900 38.39320000 427.32999000 0.84786201 0.18754600 0.49594101 1.905766e-42
40.46979900 38.44269900 428.80399000 0.78464103 0.21290500 0.58224601 1.905766e-42
39.24879800 38.62070100 430.11499000 0.73020703 0.24062601 0.63945103 1.905766e-42
37.96580100 38.54399900 431.37500000 0.68459201 0.27348000 0.67567903 1.905766e-42
36.63909900 38.47570000 432.59000000 0.64360201 0.30653501 0.70129400 1.905766e-42
35.26900100 38.47090100 433.75699000 0.60485500 0.33894700 0.72060102 1.905766e-42
33.87939800 38.46640000 434.90100000 0.56815398 0.37117699 0.73445803 1.905766e-42
32.43270100 38.60580100 435.96301000 0.53589100 0.39926299 0.74391598 1.905766e-42
31.02080000 38.51490000 437.07599000 0.51706398 0.42552301 0.74268103 1.905766e-42
29.56360100 38.53860100 438.13199000 0.49596500 0.45095599 0.74206299 1.905766e-42
28.07099900 38.49060100 439.13699000 0.47388399 0.47711599 0.74013102 1.905766e-42
26.53370100 38.53150200 440.07300000 0.44919601 0.50132197 0.73952597 1.905766e-42
25.05110000 38.42480100 441.08801000 0.42449400 0.52755100 0.73586297 1.905766e-42
23.44990000 38.43270100 441.91000000 0.39627901 0.54928797 0.73569399 1.905766e-42
21.96279900 38.18610000 442.89401000 0.36899799 0.57507598 0.73015600 1.905766e-42
20.49399900 37.86320100 443.88300000 0.33931801 0.60089999 0.72372800 1.905766e-42
18.86700100 37.76850100 444.64700000 0.30727699 0.61193001 0.72878098 1.905766e-42
17.33560000 37.43510100 445.53201000 0.27820501 0.62147099 0.73237699 1.905766e-42
15.61190000 37.60100200 446.02301000 0.24347800 0.63203102 0.73570102 1.905766e-42
14.06190000 37.19480100 446.84299000 0.21501400 0.64009601 0.73759502 1.905766e-42
12.43710000 36.88040200 447.55099000 0.18507500 0.64791501 0.73888600 1.905766e-42
11.01250000 36.23659900 448.44400000 0.16088399 0.65332198 0.73978901 1.905766e-42
9.23336030 36.33050200 448.70001000 0.12622499 0.66116601 0.73954499 1.905766e-42
7.52235980 36.08829900 449.20401000 0.09343300 0.66684800 0.73931301 1.905766e-42
5.74177980 35.90160000 449.39001000 0.05899070 0.67214298 0.73806798 1.905766e-42
4.05450010 35.53239800 449.89700000 0.02762830 0.67541301 0.73692203 1.905766e-42
2.29770990 35.25780100 450.17599000 -0.00515278 0.67846602 0.73461401 1.905766e-42
0.52554202 34.99969900 450.35800000 -0.03779200 0.68092400 0.73137802 1.905766e-42
-1.11062000 34.46200200 450.88101000 -0.06585230 0.68160599 0.72874999 1.905766e-42
-2.85616990 34.22340000 450.51199000 -0.09852870 0.68351400 0.72325701 1.905766e-42
-4.51809980 33.72819900 450.99399000 -0.13184699 0.68213898 0.71923798 1.905766e-42
-6.29938980 33.66970100 450.74200000 -0.16857600 0.68144399 0.71219099 1.905766e-42
-8.05494980 33.38679900 450.46301000 -0.20363501 0.67981702 0.70454401 1.905766e-42
-9.79214000 32.91880000 450.40701000 -0.23612601 0.67751497 0.69657600 1.905766e-42
-11.49910000 32.65980100 449.89801000 -0.26866201 0.67515099 0.68701702 1.905766e-42
-13.25280000 32.32109800 449.67499000 -0.29924700 0.67246503 0.67693597 1.905766e-42
-14.84080000 32.00239900 448.89001000 -0.32915899 0.66948700 0.66591400 1.905766e-42
-16.56380100 31.48660100 448.81699000 -0.35686401 0.66667801 0.65436101 1.905766e-42
-18.20019900 31.11930100 448.16400000 -0.39056799 0.66062099 0.64112097 1.905766e-42
-19.87750100 30.48730100 447.99899000 -0.42137200 0.65402400 0.62825000 1.905766e-42
-21.49430100 29.82110000 447.57300000 -0.45199600 0.64600903 0.61511898 1.905766e-42
-23.06780100 28.99210000 447.29501000 -0.48063701 0.63767302 0.60196400 1.905766e-42
-24.59840000 28.37690000 446.57501000 -0.50933701 0.62738699 0.58903497 1.905766e-42
-26.12109900 27.70200000 445.89200000 -0.53669900 0.61640602 0.57619202 1.905766e-42
-27.55950000 27.07360100 445.01099000 -0.56265801 0.60417002 0.56426501 1.905766e-42
-29.00729900 26.31979900 444.25201000 -0.58745599 0.59166098 0.55211699 1.905766e-42
-30.42180100 25.23189900 444.01700000 -0.59327400 0.58964998 0.54803097 1.905766e-42
-31.21450000 23.79430000 444.75500000 -0.59626198 0.59559798 0.53827000 1.905766e-42
-31.55870100 22.43320100 445.88199000 -0.59724802 0.60461301 0.52700800 1.905766e-42
-31.78420100 21.11549900 447.08701000 -0.59649903 0.61479700 0.51595902 1.905766e-42
-31.93580100 19.86380000 448.37201000 -0.59428698 0.62601101 0.50490803 1.905766e-42
-32.10829900 18.50239900 449.53601000 -0.59172201 0.63333499 0.49875101 1.905766e-42
-32.05810200 17.64600000 451.11899000 -0.58487898 0.62925702 0.51181298 1.905766e-42
-32.17530100 16.44969900 452.45901000 -0.58007997 0.62553900 0.52173501 1.905766e-42
-32.42800100 14.95480000 453.42899000 -0.57799500 0.62251902 0.52762902 1.905766e-42
-32.51160000 13.69550000 454.71201000 -0.57268500 0.62129098 0.53481698 1.905766e-42
-32.55860100 12.67790000 456.19601000 -0.56547201 0.62590700 0.53710598 1.905766e-42
-32.61669900 11.40150000 457.46399000 -0.55954301 0.64148098 0.52479798 1.905766e-42
-32.63819900 10.47960000 459.01001000 -0.55044103 0.65832502 0.51344198 1.905766e-42
-32.88299900 8.97194000 459.96201000 -0.54511702 0.67536598 0.49671799 1.905766e-42
-32.88550200 8.25749970 461.61401000 -0.53284597 0.69398898 0.48420501 1.905766e-42
-32.97620000 7.29830980 463.13501000 -0.52056402 0.71420002 0.46790099 1.905766e-42
-33.51340100 6.12173990 464.38699000 -0.51353002 0.73232299 0.44720200 1.905766e-42
-33.73799900 5.19989010 465.91599000 -0.50544298 0.74676102 0.43229201 1.905766e-42
-34.44820000 4.02870990 467.08401000 -0.50601900 0.75430298 0.41829699 1.905766e-42
-35.22610100 2.75985000 468.09698000 -0.51137501 0.75549400 0.40954199 1.905766e-42
-35.85329800 1.60060000 469.32199000 -0.51927298 0.75137299 0.40717801 1.905766e-42
-36.18619900 0.73917401 470.86700000 -0.52944398 0.73502898 0.42358100 1.905766e-42
-36.92660100 -0.51064199 471.92999000 -0.54694498 0.67432803 0.49611801 1.905766e-42
-37.17520100 -1.81302000 473.14801000 -0.55851698 0.58636200 0.58671802 1.905766e-42
