# .PCD v0.7 - Point Cloud Data file format
# 3 120 1
# 1 49 1
# 50 75 0
# 76 120 0
VERSION 0.7
FIELDS x y z normal_x normal_y normal_z curvature
SIZE 4 4 4 4 4 4 4
TYPE F F F F F F F
COUNT 1 1 1 1 1 1 1
WIDTH 120
HEIGHT 1
VIEWPOINT 0 0 0 1 0 0 0
POINTS 120
DATA ascii
58.47560100 16.13439900 502.04099000 0.06050800 -0.60651898 0.79276299 1.905766e-42
57.60450000 17.35490000 503.03699000 0.05519620 -0.59812498 0.79949999 1.905766e-42
56.57379900 18.53370100 503.92401000 0.04537690 -0.58043301 0.81304199 1.905766e-42
55.84930000 19.89100100 504.85901000 0.04275340 -0.56167799 0.82625097 1.905766e-42
54.92549900 21.14010000 505.76801000 0.04388630 -0.54449499 0.83761501 1.905766e-42
54.07260100 22.48740000 506.60300000 0.04193490 -0.51932001 0.85355002 1.905766e-42
52.47409800 23.23539900 506.95700000 0.03265920 -0.50386900 0.86316198 1.905766e-42
50.75569900 23.70179900 507.22000000 0.02168690 -0.49134299 0.87069601 1.905766e-42
48.99929800 24.03700100 507.42700000 0.01151130 -0.48091301 0.87669301 1.905766e-42
47.21120100 24.14510000 507.60300000 0.00447079 -0.47757000 0.87858200 1.905766e-42
45.47790100 24.61529900 507.72501000 0.00264759 -0.47499901 0.87998199 1.905766e-42
43.72950000 24.24480100 507.93799000 -0.00171751 -0.48442999 0.87482798 1.905766e-42
42.01670100 24.79800000 507.95200000 -0.01125670 -0.47872600 0.87789202 1.905766e-42
40.22449900 24.82840000 508.11801000 -0.02561810 -0.47892499 0.87748200 1.905766e-42
38.46289800 25.19360000 508.17599000 -0.04002500 -0.47122499 0.88110399 1.905766e-42
36.69710200 25.53809900 508.23300000 -0.05277650 -0.46348000 0.88453400 1.905766e-42
34.80789900 25.59820000 508.20099000 -0.06256190 -0.46555299 0.88280600 1.905766e-42
33.01620100 25.75330000 508.12399000 -0.06972350 -0.46536800 0.88236701 1.905766e-42
31.34650000 26.42030000 508.04001000 -0.07900910 -0.44900501 0.89002901 1.905766e-42
29.54800000 26.45260000 507.97299000 -0.09144980 -0.44517499 0.89076197 1.905766e-42
27.75280000 26.40140000 507.85300000 -0.10386800 -0.44278100 0.89059299 1.905766e-42
25.96040000 26.39220000 507.68799000 -0.11531400 -0.43971300 0.89070499 1.905766e-42
24.16580000 26.44129900 507.55701000 -0.12471700 -0.43564299 0.89143801 1.905766e-42
22.38439900 26.55120100 507.32300000 -0.13189600 -0.43411899 0.89114797 1.905766e-42
20.68630000 27.08840000 507.06299000 -0.13985200 -0.42336699 0.89509898 1.905766e-42
18.93280000 26.73090000 506.86899000 -0.14827199 -0.43867901 0.88632703 1.905766e-42
17.15620000 26.74650000 506.57999000 -0.15820099 -0.44047201 0.88371801 1.905766e-42
15.44550000 27.19479900 506.24500000 -0.17071199 -0.42761701 0.88769400 1.905766e-42
13.69390000 26.89760000 505.95599000 -0.18189600 -0.43240300 0.88314301 1.905766e-42
11.93560000 26.83720000 505.57599000 -0.19435500 -0.42982101 0.88174802 1.905766e-42
10.19480000 27.06170100 505.17599000 -0.20971300 -0.41751799 0.88413799 1.905766e-42
8.46090980 26.83429900 504.75000000 -0.22270900 -0.41758201 0.88092297 1.905766e-42
6.72477010 26.96520000 504.29300000 -0.23798800 -0.40737000 0.88170898 1.905766e-42
4.98788020 26.91670000 503.82300000 -0.25121200 -0.40310699 0.87999803 1.905766e-42
3.26604010 26.82840000 503.30600000 -0.26238000 -0.40196201 0.87725902 1.905766e-42
1.58240000 27.10269900 502.73099000 -0.27248800 -0.39246199 0.87847799 1.905766e-42
-0.10389200 27.22930000 502.11499000 -0.28095600 -0.38880199 0.87743801 1.905766e-42
-1.78556000 26.93910000 501.54199000 -0.28724501 -0.39711499 0.87165898 1.905766e-42
-3.40141010 26.38030100 500.97900000 -0.29224399 -0.41346401 0.86234599 1.905766e-42
-5.09199000 26.37080000 500.36099000 -0.29881099 -0.41678399 0.85848898 1.905766e-42
-6.75833990 26.41790000 499.68201000 -0.30429900 -0.42068699 0.85464901 1.905766e-42
-8.39706990 26.41540000 498.93799000 -0.30949000 -0.42787001 0.84920198 1.905766e-42
-10.04170000 26.19680000 498.23901000 -0.31573001 -0.44015801 0.84057999 1.905766e-42
-11.56960000 25.50980000 497.58099000 -0.32343200 -0.45978600 0.82703602 1.905766e-42
-13.17210000 25.22030100 496.81400000 -0.33396101 -0.47084901 0.81656098 1.905766e-42
-14.74320000 25.50169900 495.98199000 -0.34446999 -0.47261199 0.81115901 1.905766e-42
-16.33620100 25.33400000 495.16101000 -0.35137400 -0.47907999 0.80437398 1.905766e-42
-17.88069900 24.82040000 494.39200000 -0.35648599 -0.48804501 0.79669899 1.905766e-42
-19.43680000 24.69899900 493.49600000 -0.35824999 -0.50111097 0.78774703 1.905766e-42
-20.80859900 23.89380100 492.65302000 -0.35198399 -0.51603103 0.78090900 1.905766e-42
-20.08900100 22.38069900 491.99500000 -0.36001399 -0.52513802 0.77111602 1.905766e-42
-18.94879900 21.05990000 491.55301000 -0.35239899 -0.54887700 0.75799000 1.905766e-42
-18.22610100 19.59440000 490.79800000 -0.34073201 -0.58296603 0.73759902 1.905766e-42
-17.57099900 18.15850100 489.93301000 -0.33298099 -0.60197502 0.72577500 1.905766e-42
-16.95610000 16.77330000 488.96201000 -0.32693800 -0.61469799 0.71781403 1.905766e-42
-16.27660000 15.49380000 487.89301000 -0.32025501 -0.62575603 0.71124297 1.905766e-42
-15.13330000 14.14030000 487.57599000 -0.30994299 -0.63699198 0.70581597 1.905766e-42
-14.55650000 12.79040000 486.53400000 -0.30194899 -0.65032601 0.69706798 1.905766e-42
-13.50700000 11.49920000 485.84698000 -0.29255500 -0.66308898 0.68900299 1.905766e-42
-13.24240000 10.22010000 484.60901000 -0.28686300 -0.67544901 0.67932200 1.905766e-42
-12.41800000 8.92494960 483.66901000 -0.27784199 -0.69050902 0.66783297 1.905766e-42
-11.79160000 7.65120980 482.56201000 -0.26982799 -0.70563501 0.65518898 1.905766e-42
-10.88950000 6.46727990 481.54999000 -0.26152000 -0.72007197 0.64273101 1.905766e-42
-9.91008000 5.22949980 480.68500000 -0.25456801 -0.73180097 0.63218898 1.905766e-42
-9.47902010 4.05674980 479.38901000 -0.25141099 -0.73949802 0.62444800 1.905766e-42
-8.66788960 2.84179000 478.33801000 -0.24553099 -0.74700201 0.61782098 1.905766e-42
-8.11124040 1.67659000 477.08401000 -0.23947699 -0.75421500 0.61140102 1.905766e-42
-7.60001990 0.55844200 475.76901000 -0.24002700 -0.75142199 0.61461598 1.905766e-42
-7.02548980 -0.67932898 474.59500000 -0.24381000 -0.74574101 0.62002200 1.905766e-42
-6.51869010 -1.90513000 473.37799000 -0.24915200 -0.74053001 0.62413001 1.905766e-42
-6.19329020 -3.13412000 472.10400000 -0.25343701 -0.73979402 0.62327802 1.905766e-42
-5.78456020 -4.33331010 470.82501000 -0.24431500 -0.75727302 0.60567898 1.905766e-42
-5.36685990 -5.54604010 469.56299000 -0.23268600 -0.77661800 0.58542502 1.905766e-42
-4.84532020 -6.63846020 468.23001000 -0.21811301 -0.79885602 0.56058502 1.905766e-42
-4.79092980 -7.74812980 466.81400000 -0.28143299 -0.72157300 0.63255602 1.905766e-42
-4.21174000 -8.96570010 465.62201000 -0.36545199 -0.64615500 0.67002100 1.905766e-42
-2.61502000 -9.77614970 465.80499000 -0.41555500 -0.58016002 0.70051998 1.905766e-42
-1.01943000 -10.17710000 466.53500000 -0.39461100 -0.48679900 0.77929997 1.905766e-42
0.58778900 -10.08840000 467.34100000 -0.35573599 -0.47670701 0.80386698 1.905766e-42
2.10415010 -11.05400000 467.25000000 -0.32835099 -0.41965401 0.84621298 1.905766e-42
3.27989010 -10.43810000 468.46600000 -0.28738701 -0.47826701 0.82986099 1.905766e-42
4.93278980 -9.95252990 468.98801000 -0.23832300 -0.51775301 0.82166600 1.905766e-42
6.37876990 -9.28374000 469.82501000 -0.22878200 -0.56820899 0.79044098 1.905766e-42
7.60500000 -8.39871030 470.80200000 -0.22260900 -0.61799598 0.75400698 1.905766e-42
9.09583000 -7.88695000 471.67099000 -0.21127100 -0.65184498 0.72832900 1.905766e-42
10.37740000 -7.22403000 472.74701000 -0.20274100 -0.68589902 0.69888401 1.905766e-42
11.89340000 -6.75861980 473.59900000 -0.19238600 -0.70850199 0.67897898 1.905766e-42
13.45710000 -6.28820990 474.35599000 -0.18113001 -0.72561699 0.66383201 1.905766e-42
14.89950000 -5.75555990 475.29199000 -0.17140500 -0.73946100 0.65101302 1.905766e-42
16.08090000 -5.17453000 476.51901000 -0.16313501 -0.75001699 0.64098400 1.905766e-42
17.25230000 -4.51685000 477.71701000 -0.15465000 -0.75520402 0.63698500 1.905766e-42
18.57840000 -3.96690990 478.80301000 -0.14681000 -0.75442398 0.63975799 1.905766e-42
19.65740000 -3.11743000 479.96701000 -0.13969000 -0.74848700 0.64827102 1.905766e-42
21.28700100 -2.76469990 480.64499000 -0.13543600 -0.74260902 0.65588802 1.905766e-42
22.42000000 -1.91617000 481.75699000 -0.12893499 -0.73995602 0.66018200 1.905766e-42
23.85190000 -1.34916000 482.68900000 -0.12301500 -0.73916799 0.66219199 1.905766e-42
25.24000000 -0.74161398 483.66000000 -0.11693600 -0.74041301 0.66190201 1.905766e-42
26.83740000 -0.28606400 484.35400000 -0.11050500 -0.74194402 0.66129202 1.905766e-42
28.17660000 0.39631000 485.34399000 -0.10549900 -0.74566001 0.65792102 1.905766e-42
29.36090100 1.19252000 486.44101000 -0.10118600 -0.74904799 0.65474302 1.905766e-42
30.73280000 1.82068000 487.42300000 -0.09644020 -0.75037402 0.65394002 1.905766e-42
32.15290100 2.47123000 488.31699000 -0.09174990 -0.74997097 0.65507698 1.905766e-42
33.37780000 3.18949010 489.42300000 -0.08678170 -0.74798799 0.65801400 1.905766e-42
34.53720100 4.03034020 490.51401000 -0.08134620 -0.74345499 0.66382003 1.905766e-42
36.07280000 4.57163000 491.28101000 -0.07096540 -0.73594701 0.67330903 1.905766e-42
37.50960200 5.23158980 492.14099000 -0.06029990 -0.72785503 0.68307501 1.905766e-42
38.73580200 6.10168980 493.13101000 -0.05112910 -0.71746701 0.69471401 1.905766e-42
39.80379900 7.09082980 494.19000000 -0.04404650 -0.70549798 0.70734203 1.905766e-42
40.81110000 8.11396030 495.27499000 -0.03787950 -0.69392401 0.71905100 1.905766e-42
42.37630100 8.72906020 495.91699000 -0.02948750 -0.68803501 0.72507799 1.905766e-42
43.48070100 9.75983050 496.89600000 -0.02619800 -0.67809302 0.73450899 1.905766e-42
44.97280100 10.48730000 497.59201000 -0.02051740 -0.67112499 0.74106097 1.905766e-42
46.45529900 11.20470000 498.31799000 -0.01467070 -0.66341799 0.74810499 1.905766e-42
48.23989900 11.32870000 498.11899000 -0.00665522 -0.66470402 0.74707699 1.905766e-42
49.50949900 12.10710000 499.13000000 -0.00168512 -0.65371299 0.75674099 1.905766e-42
51.29510100 12.31530000 499.22101000 0.01400920 -0.65148902 0.75852901 1.905766e-42
53.00830100 12.79570000 499.49399000 0.02857540 -0.64595503 0.76283997 1.905766e-42
54.55320000 13.49540000 500.09698000 0.03885180 -0.63613498 0.77059901 1.905766e-42
56.01160000 14.27940000 500.80301000 0.04706000 -0.62515998 0.77907598 1.905766e-42
57.69469800 14.88330000 501.00900000 0.05384360 -0.61741197 0.78479499 1.905766e-42
