# .PCD v0.7 - Point Cloud Data file format
# 3 96 1
# 1 33 0
# 34 59 0
# 60 96 1
VERSION 0.7
FIELDS x y z normal_x normal_y normal_z curvature
SIZE 4 4 4 4 4 4 4
TYPE F F F F F F F
COUNT 1 1 1 1 1 1 1
WIDTH 96
HEIGHT 1
VIEWPOINT 0 0 0 1 0 0 0
POINTS 96
DATA ascii
33.55180000 0.19769800 381.66400000 0.01660280 0.98917699 -0.14578401 1.905766e-42
31.82480000 0.03082000 382.14301000 -0.04487440 0.98769403 -0.14982100 1.905766e-42
30.38270000 0.32876599 383.17801000 -0.07361840 0.98540598 -0.15347600 1.905766e-42
28.66300000 0.05474140 383.63400000 -0.08866860 0.98418897 -0.15332600 1.905766e-42
27.24519900 0.31321701 384.71201000 -0.08821730 0.98352301 -0.15779600 1.905766e-42
25.64979900 0.27959499 385.54501000 -0.07459870 0.98360300 -0.16419400 1.905766e-42
24.69030000 -0.12752400 387.01199000 -0.05142500 0.98309797 -0.17570800 1.905766e-42
23.99070000 0.60875100 388.49899000 -0.02824360 0.97934401 -0.20022000 1.905766e-42
22.39800100 0.63611799 389.33701000 0.00358330 0.97596300 -0.21790799 1.905766e-42
20.68639900 0.79098201 389.87201000 0.01800060 0.97158301 -0.23601200 1.905766e-42
19.39469900 1.32761000 391.00500000 0.02474750 0.96605903 -0.25713301 1.905766e-42
18.31010100 1.74432000 392.38000000 0.02743390 0.96154499 -0.27327499 1.905766e-42
16.78220000 2.02163000 393.29001000 0.02320390 0.95894402 -0.28264299 1.905766e-42
15.54050000 2.39142990 394.54001000 0.02344150 0.95625901 -0.29158199 1.905766e-42
14.15950000 2.76381990 395.63199000 0.02674540 0.95390999 -0.29889801 1.905766e-42
13.08590000 3.23723010 396.99701000 0.03435510 0.95101899 -0.30721799 1.905766e-42
11.98960000 3.74380990 398.33200000 0.05728980 0.93883097 -0.33958000 1.905766e-42
10.25060000 3.92234990 398.76099000 0.08987940 0.93026501 -0.35570800 1.905766e-42
8.80953030 4.51418020 399.66299000 0.12025200 0.91696399 -0.38041601 1.905766e-42
7.31137990 5.10292010 400.46799000 0.14117700 0.90258300 -0.40671000 1.905766e-42
5.73140000 5.56328010 401.19800000 0.15778700 0.88941598 -0.42900100 1.905766e-42
4.15289020 6.19565010 401.78799000 0.17109400 0.87794697 -0.44714200 1.905766e-42
2.67439010 7.02689980 402.39001000 0.18402000 0.86589497 -0.46514800 1.905766e-42
1.09035000 7.62361000 403.00299000 0.19623600 0.85401398 -0.48182100 1.905766e-42
-0.28763700 8.24728970 403.97800000 0.20958100 0.84055102 -0.49954900 1.905766e-42
-0.61152202 9.38597010 405.33401000 0.22318500 0.82349002 -0.52158701 1.905766e-42
-1.90079000 10.31580000 406.17899000 0.24064700 0.80478901 -0.54258901 1.905766e-42
-4.15391020 11.18300000 406.39600000 0.27546000 0.78426099 -0.55592901 1.905766e-42
-5.89481020 11.64040000 406.39099000 0.30105901 0.76846802 -0.56464201 1.905766e-42
-7.01479010 12.85260000 407.10901000 0.32665899 0.74530500 -0.58121800 1.905766e-42
-8.21269990 14.01610000 407.78101000 0.34946901 0.72450203 -0.59411103 1.905766e-42
-9.75586030 14.84220000 408.20099000 0.36919099 0.70583099 -0.60456699 1.905766e-42
-10.82660000 16.18230100 408.74600000 0.38357800 0.68639600 -0.61784202 1.905766e-42
-11.92490000 17.45579900 409.38800000 0.38446501 0.67822099 -0.62626201 1.905766e-42
-10.49620000 17.58919900 410.47501000 0.38230401 0.67243999 -0.63377303 1.905766e-42
-9.67490010 18.42310000 411.84299000 0.37331200 0.67255801 -0.63898700 1.905766e-42
-8.27647020 18.79070100 412.91501000 0.36309099 0.66941798 -0.64810801 1.905766e-42
-7.12866020 19.21270000 414.23599000 0.34469900 0.66663003 -0.66089898 1.905766e-42
-5.51539990 19.28330000 415.03101000 0.32841101 0.66055697 -0.67513698 1.905766e-42
-4.26289990 19.88620000 416.17401000 0.31356600 0.65323198 -0.68917698 1.905766e-42
-3.21578000 20.60100000 417.45200000 0.29796001 0.64278400 -0.70572501 1.905766e-42
-1.70423000 21.11130000 418.28601000 0.27387199 0.62825900 -0.72820598 1.905766e-42
-0.45319501 21.81430100 419.37201000 0.24939200 0.61021000 -0.75196302 1.905766e-42
1.11567000 22.24720000 420.14099000 0.22635800 0.59240502 -0.77318698 1.905766e-42
2.36330010 23.08680000 421.13000000 0.20597500 0.57236397 -0.79370898 1.905766e-42
3.73199010 23.84610000 422.01901000 0.18700500 0.55413699 -0.81114799 1.905766e-42
5.46696000 23.95459900 422.48599000 0.16946000 0.54453099 -0.82144397 1.905766e-42
6.52450990 25.06720000 423.42599000 0.16124800 0.52998400 -0.83253598 1.905766e-42
7.44423010 26.28440100 424.38199000 0.15969200 0.51789898 -0.84040397 1.905766e-42
8.99569990 26.95970000 424.99600000 0.15676400 0.51320797 -0.84382600 1.905766e-42
10.20430000 27.76440000 426.05899000 0.15556900 0.50752902 -0.84747398 1.905766e-42
11.91870000 28.20260000 426.38901000 0.13315199 0.50330597 -0.85378802 1.905766e-42
13.50940000 28.82080100 426.96100000 0.11053100 0.49519700 -0.86172098 1.905766e-42
15.05260000 29.50670100 427.58401000 0.08857650 0.48477599 -0.87014198 1.905766e-42
16.70470000 30.11800000 427.95401000 0.06888650 0.47572300 -0.87689400 1.905766e-42
18.21780000 30.92000000 428.50900000 0.04940280 0.46516901 -0.88384199 1.905766e-42
19.58709900 31.94610000 429.06699000 0.02779450 0.45329699 -0.89092600 1.905766e-42
20.90270000 33.03730000 429.63199000 0.02169300 0.44768301 -0.89392900 1.905766e-42
22.21699900 34.11700100 430.22101000 0.04105500 0.44968799 -0.89224201 1.905766e-42
23.83350000 34.77930100 430.65500000 0.05860250 0.45226601 -0.88995600 1.905766e-42
25.49869900 34.12450000 430.45901000 0.06564840 0.46997201 -0.88023698 1.905766e-42
26.52590000 32.79169800 429.82001000 0.05333910 0.48480800 -0.87299299 1.905766e-42
27.08910000 31.29990000 428.98499000 0.03854100 0.49879101 -0.86586499 1.905766e-42
27.93370100 29.92910000 428.17999000 0.02463410 0.51781201 -0.85513902 1.905766e-42
28.89760000 28.58200100 427.47601000 0.01451900 0.53908402 -0.84212703 1.905766e-42
29.71750100 27.21470100 426.64001000 0.00777948 0.55875999 -0.82929301 1.905766e-42
30.26520000 25.81010100 425.65701000 0.00205508 0.57778800 -0.81618398 1.905766e-42
30.34569900 24.42130100 424.51401000 -0.00592390 0.59573603 -0.80315900 1.905766e-42
31.22030100 23.14629900 423.59299000 -0.00498048 0.61428303 -0.78907001 1.905766e-42
31.81460000 21.83530000 422.51199000 -0.00562085 0.63398302 -0.77332598 1.905766e-42
32.47060000 20.52300100 421.46899000 -0.00434221 0.65501302 -0.75560498 1.905766e-42
32.78070100 19.24760100 420.23700000 -0.00845743 0.67710000 -0.73584199 1.905766e-42
33.32429900 18.00239900 419.05701000 -0.00806531 0.70001501 -0.71408302 1.905766e-42
34.10170000 16.78930100 417.97800000 -0.00036086 0.72094703 -0.69299001 1.905766e-42
34.30030100 15.63580000 416.60999000 -0.00712889 0.74065399 -0.67184901 1.905766e-42
34.50180100 14.47270000 415.25101000 -0.01582050 0.75948203 -0.65033501 1.905766e-42
34.85500000 13.34080000 413.89700000 -0.02124040 0.77838397 -0.62742901 1.905766e-42
35.08240100 12.23670000 412.49399000 -0.02998130 0.79299200 -0.60849398 1.905766e-42
35.13040200 11.19130000 411.02899000 -0.04846860 0.80578202 -0.59022498 1.905766e-42
35.81460200 10.15910000 409.72299000 -0.03146570 0.82453197 -0.56493902 1.905766e-42
35.83079900 9.20627020 408.19601000 -0.02852370 0.84408897 -0.53544301 1.905766e-42
35.98099900 8.24936960 406.67899000 -0.02312180 0.86049199 -0.50893998 1.905766e-42
36.04930100 7.38638020 405.10101000 -0.02047070 0.87434900 -0.48486599 1.905766e-42
36.05559900 6.56155010 403.50101000 -0.01903260 0.88757098 -0.46027800 1.905766e-42
36.10229900 5.76421020 401.88800000 -0.01396660 0.90120500 -0.43316901 1.905766e-42
35.82389800 5.03596020 400.26501000 -0.01347360 0.91621000 -0.40047199 1.905766e-42
36.18700000 4.29545020 398.66501000 0.00992158 0.92795599 -0.37255901 1.905766e-42
36.28379800 3.55240010 397.02899000 0.02563300 0.93832201 -0.34481099 1.905766e-42
35.88309900 3.10146000 395.33301000 0.01770770 0.94665903 -0.32175100 1.905766e-42
35.80899800 2.50671010 393.63599000 0.02261700 0.95390600 -0.29925299 1.905766e-42
35.68140000 1.95146000 391.92801000 0.03021620 0.96168202 -0.27249700 1.905766e-42
35.31190100 1.59164000 390.20401000 0.03612850 0.96962798 -0.24190199 1.905766e-42
35.20249900 1.17407000 388.45599000 0.05523880 0.97549099 -0.21299100 1.905766e-42
34.61220200 0.90741903 386.77701000 0.05044930 0.98123598 -0.18609400 1.905766e-42
34.64419900 0.41552901 385.04599000 0.05784530 0.98361599 -0.17074400 1.905766e-42
34.34019900 0.22106600 383.28201000 0.04769130 0.98639798 -0.15730099 1.905766e-42
