# .PCD v0.7 - Point Cloud Data file format
# 3 78 0
# 1 25 0
# 26 51 0
# 52 78 0
VERSION 0.7
FIELDS x y z normal_x normal_y normal_z curvature
SIZE 4 4 4 4 4 4 4
TYPE F F F F F F F
COUNT 1 1 1 1 1 1 1
WIDTH 78
HEIGHT 1
VIEWPOINT 0 0 0 1 0 0 0
POINTS 78
DATA ascii
38.89780000 11.37680000 431.15201000 0.48880601 0.57650399 -0.65476102 1.905766e-42
37.41130100 12.27830000 430.68500000 0.42763799 0.66562700 -0.61161000 1.905766e-42
35.77560000 12.81860000 430.16400000 0.37188101 0.69987798 -0.60981601 1.905766e-42
34.04449800 13.10160000 429.75900000 0.30022600 0.72236699 -0.62293702 1.905766e-42
32.32640100 13.61000000 429.58701000 0.25266001 0.73694098 -0.62696201 1.905766e-42
30.62859900 14.20790000 429.59399000 0.22842900 0.74161601 -0.63073403 1.905766e-42
28.90770000 14.73540000 429.59201000 0.21115500 0.74111497 -0.63730901 1.905766e-42
27.16610000 15.18990000 429.57199000 0.19835199 0.73944598 -0.64333099 1.905766e-42
25.37649900 15.25370000 429.24100000 0.18327101 0.73772502 -0.64974898 1.905766e-42
23.80699900 16.05909900 429.59900000 0.16950200 0.74373698 -0.64662498 1.905766e-42
22.04170000 16.41090000 429.59799000 0.15694200 0.74735999 -0.64561802 1.905766e-42
20.29100000 16.82939900 429.59698000 0.14605300 0.75020701 -0.64487100 1.905766e-42
18.52059900 17.15410000 429.60599000 0.13554400 0.75191802 -0.64517301 1.905766e-42
16.74860000 17.46579900 429.65799000 0.11852000 0.75377703 -0.64635402 1.905766e-42
14.98850000 17.81310100 429.80600000 0.09786150 0.75609201 -0.64710802 1.905766e-42
13.33580000 18.39150000 430.22299000 0.07810440 0.75899500 -0.64639401 1.905766e-42
11.54160000 18.40390000 430.07901000 0.05124930 0.75873798 -0.64937699 1.905766e-42
9.74234010 18.43989900 430.04300000 0.02166090 0.76016700 -0.64936602 1.905766e-42
8.02847960 18.83020000 430.42999000 -0.00780428 0.76254702 -0.64688498 1.905766e-42
6.23114010 18.85580100 430.52499000 -0.02780940 0.76504499 -0.64337599 1.905766e-42
4.52649020 19.18499900 431.00000000 -0.04331110 0.76591301 -0.64148402 1.905766e-42
2.72882010 19.13470100 431.07599000 -0.06084520 0.76538098 -0.64069402 1.905766e-42
1.13592000 18.51040100 430.51700000 -0.06888960 0.76874900 -0.63582897 1.905766e-42
-0.45785400 18.95400000 431.22601000 -0.07496180 0.76795000 -0.63610798 1.905766e-42
-2.25060010 18.80620000 431.29099000 -0.07673720 0.77322602 -0.62946999 1.905766e-42
-3.37670990 19.62770100 432.42999000 -0.08522350 0.77705997 -0.62362999 1.905766e-42
-2.45199990 20.65980000 433.57901000 -0.08562720 0.78683197 -0.61119801 1.905766e-42
-1.48803000 21.65390000 434.72900000 -0.08259820 0.79937398 -0.59512901 1.905766e-42
-0.90876800 22.49850100 436.20901000 -0.07941200 0.81274003 -0.57718903 1.905766e-42
0.44705701 23.43040100 436.93900000 -0.07467810 0.82188600 -0.56473500 1.905766e-42
0.76591402 24.29789900 438.48401000 -0.07289780 0.83476198 -0.54576498 1.905766e-42
2.06090000 25.13680100 439.41101000 -0.06031330 0.84465498 -0.53190303 1.905766e-42
2.82019000 25.99609900 440.79800000 -0.04810200 0.85269898 -0.52018303 1.905766e-42
3.63916990 26.77660000 442.19800000 -0.03576070 0.85927200 -0.51026797 1.905766e-42
4.81912990 27.60530100 443.27600000 -0.02092160 0.86449701 -0.50220197 1.905766e-42
5.73337980 28.41020000 444.60101000 -0.01212830 0.86894602 -0.49475801 1.905766e-42
6.53968000 29.20410000 446.00101000 -0.00709063 0.86933398 -0.49417400 1.905766e-42
7.38671020 30.00690100 447.37100000 -0.00395849 0.86943501 -0.49403101 1.905766e-42
8.62213990 30.63299900 448.52100000 0.00372680 0.86917597 -0.49448901 1.905766e-42
9.27052970 31.43219900 449.99799000 0.00559086 0.87401301 -0.48587099 1.905766e-42
10.21370000 32.10010100 451.37799000 0.00991688 0.88558799 -0.46436501 1.905766e-42
11.55640000 32.69300100 452.42001000 0.01961730 0.89368498 -0.44826600 1.905766e-42
12.64370000 33.32109800 453.70901000 0.02636540 0.90327501 -0.42825201 1.905766e-42
13.36560000 33.98070100 455.22101000 0.02681760 0.91216099 -0.40895501 1.905766e-42
14.41850000 34.55709800 456.56201000 0.03036120 0.91450799 -0.40342700 1.905766e-42
15.22230000 35.19179900 458.04199000 0.02960150 0.91840398 -0.39453399 1.905766e-42
16.22590100 35.70589800 459.44501000 0.02865680 0.92241699 -0.38512999 1.905766e-42
17.52980000 36.18880100 460.58801000 0.03094060 0.92560601 -0.37722099 1.905766e-42
18.60630000 36.66149900 461.95099000 0.04813760 0.93071699 -0.36255899 1.905766e-42
19.78920000 37.06290100 463.24701000 0.07420080 0.93685699 -0.34175000 1.905766e-42
20.90130000 37.49079900 464.59601000 0.10671300 0.94316602 -0.31472301 1.905766e-42
21.62179900 37.64930000 466.23801000 0.14300901 0.94780999 -0.28496301 1.905766e-42
22.87949900 37.32099900 464.99301000 0.16209599 0.94412798 -0.28696299 1.905766e-42
23.69949900 36.64870100 463.53799000 0.18632400 0.93374097 -0.30563200 1.905766e-42
24.86820000 35.92530100 462.37601000 0.23726900 0.91536802 -0.32527700 1.905766e-42
25.05999900 35.35020100 460.68100000 0.24022000 0.89571500 -0.37415001 1.905766e-42
26.05080000 34.37390100 459.53900000 0.28457999 0.87924802 -0.38201699 1.905766e-42
26.59720000 33.52629900 458.04800000 0.29338300 0.87138897 -0.39320201 1.905766e-42
27.20960000 32.62780000 456.61401000 0.29277900 0.86856198 -0.39985201 1.905766e-42
27.68680000 31.72839900 455.12900000 0.26885900 0.86883402 -0.41574299 1.905766e-42
28.14760000 31.13890100 453.49200000 0.25062299 0.86545002 -0.43380201 1.905766e-42
29.33060100 30.10250100 452.61700000 0.25427800 0.86283302 -0.43687800 1.905766e-42
29.68370100 29.37599900 451.00800000 0.24804200 0.85509098 -0.45529601 1.905766e-42
30.16810000 28.43829900 449.54999000 0.25022101 0.84564698 -0.47145599 1.905766e-42
31.30240100 27.45649900 448.55499000 0.27120399 0.83425897 -0.48006201 1.905766e-42
32.10390100 26.42160000 447.32001000 0.28548700 0.82209098 -0.49260899 1.905766e-42
32.74259900 25.33449900 446.03500000 0.29463401 0.81488103 -0.49915901 1.905766e-42
32.78860100 24.45750000 444.46399000 0.28800601 0.81107903 -0.50911999 1.905766e-42
33.49259900 23.50449900 443.10901000 0.29016700 0.80769300 -0.51325899 1.905766e-42
33.97370100 22.38680100 441.78201000 0.28604600 0.79874200 -0.52932799 1.905766e-42
34.88900000 21.28140100 440.69601000 0.29429200 0.78459799 -0.54570901 1.905766e-42
35.32759900 20.13290000 439.38101000 0.29844600 0.76709402 -0.56788802 1.905766e-42
35.81670000 18.97670000 438.09100000 0.30603799 0.75412101 -0.58107001 1.905766e-42
36.25130100 17.83960000 436.76501000 0.31870100 0.75104302 -0.57824200 1.905766e-42
36.82609900 16.66080100 435.53201000 0.33859700 0.74190700 -0.57872802 1.905766e-42
37.57510000 15.41190000 434.47400000 0.36652401 0.72058302 -0.58857501 1.905766e-42
38.09650000 14.15660000 433.29501000 0.39315999 0.69458300 -0.60247803 1.905766e-42
38.51549900 12.76300000 432.23499000 0.42367199 0.66505402 -0.61498398 1.905766e-42
