# .PCD v0.7 - Point Cloud Data file format
# 4 131 0
# 1 16 0
# 17 48 0
# 49 76 0
# 77 131 0
VERSION 0.7
FIELDS x y z normal_x normal_y normal_z curvature
SIZE 4 4 4 4 4 4 4
TYPE F F F F F F F
COUNT 1 1 1 1 1 1 1
WIDTH 131
HEIGHT 1
VIEWPOINT 0 0 0 1 0 0 0
POINTS 131
DATA ascii
23.55649900 2.21667000 528.02698000 -0.42999899 -0.84863102 0.30809999 1.905766e-42
22.27910000 2.38044000 527.89203000 -0.41889200 -0.85197300 0.31411999 1.905766e-42
21.64349900 1.84847000 526.29401000 -0.40546900 -0.86482501 0.29609600 1.905766e-42
20.63240100 1.87574010 524.80499000 -0.38619399 -0.87642801 0.28762600 1.905766e-42
19.79200000 1.81727000 523.21503000 -0.36545500 -0.88813299 0.27867901 1.905766e-42
18.40320000 2.33014010 522.19098000 -0.33871499 -0.89655501 0.28541401 1.905766e-42
17.08400000 2.36541010 520.96698000 -0.29898900 -0.90695298 0.29671800 1.905766e-42
15.63450000 2.37844990 519.90002000 -0.23010500 -0.91593403 0.32881001 1.905766e-42
14.05480000 2.39275000 519.03699000 -0.15166900 -0.92139500 0.35780999 1.905766e-42
12.38610000 2.35869000 518.36298000 -0.06641100 -0.92080802 0.38432100 1.905766e-42
10.71710000 2.07208990 517.75299000 0.02227970 -0.91398603 0.40513301 1.905766e-42
9.06809040 1.61799000 517.19202000 0.09540540 -0.90728599 0.40954900 1.905766e-42
7.27147010 1.59050000 517.29901000 0.14626400 -0.89507598 0.42124400 1.905766e-42
5.57439990 1.00293000 517.17700000 0.19059899 -0.88638097 0.42190099 1.905766e-42
3.81990000 0.79908001 517.52399000 0.22301000 -0.87333900 0.43306601 1.905766e-42
2.13270000 0.45937300 518.05103000 0.24636900 -0.86158103 0.44382399 1.905766e-42
0.56806099 -0.36895201 517.72601000 0.26507601 -0.85862601 0.43874401 1.905766e-42
0.00605200 -1.54305990 516.48297000 0.26616701 -0.87197000 0.41088000 1.905766e-42
-0.64549601 -1.94219010 514.85303000 0.25918400 -0.88998199 0.37517300 1.905766e-42
-0.98707801 -2.39137010 513.14398000 0.25413400 -0.90705502 0.33566001 1.905766e-42
-0.83351201 -3.11107990 511.50101000 0.25323901 -0.92159700 0.29415599 1.905766e-42
-0.48027200 -3.79511000 509.87399000 0.25665599 -0.93302202 0.25218600 1.905766e-42
-1.11485000 -3.92582010 508.19400000 0.25591400 -0.94251102 0.21489701 1.905766e-42
-0.68315798 -4.50745010 506.54700000 0.26747701 -0.94773799 0.17392001 1.905766e-42
-1.23599000 -5.03856990 504.91800000 0.28516299 -0.94612801 0.15337600 1.905766e-42
-1.86686000 -5.44527010 503.28201000 0.30757001 -0.94106698 0.14069200 1.905766e-42
-2.47176000 -5.81367020 501.62701000 0.32630101 -0.93487698 0.13975701 1.905766e-42
-3.52273990 -6.31057980 500.25299000 0.33003199 -0.92957598 0.16421799 1.905766e-42
-4.39299010 -7.01744990 498.84500000 0.33206299 -0.92271900 0.19576401 1.905766e-42
-5.45290990 -7.64684010 497.53299000 0.34455800 -0.90850002 0.23645000 1.905766e-42
-6.35718010 -8.30922990 496.12500000 0.35795400 -0.88992703 0.28266400 1.905766e-42
-6.06399010 -9.07180980 494.52100000 0.36222199 -0.87081701 0.33237401 1.905766e-42
-6.61628010 -9.52851960 492.87000000 0.37217000 -0.84672999 0.38018200 1.905766e-42
-7.15575980 -10.61140000 491.53699000 0.38377100 -0.81950498 0.42559499 1.905766e-42
-7.47657010 -11.77280000 490.20001000 0.38601199 -0.79702598 0.46448299 1.905766e-42
-8.04992960 -12.74840000 488.79999000 0.38122499 -0.78033203 0.49573100 1.905766e-42
-8.56865980 -13.85420000 487.47800000 0.37700099 -0.76183301 0.52676499 1.905766e-42
-8.70349980 -15.01970000 486.11301000 0.37334201 -0.73979801 0.55974501 1.905766e-42
-9.57925990 -16.17420000 485.04501000 0.36978799 -0.71964800 0.58767700 1.905766e-42
-9.75121020 -17.44370100 483.78000000 0.36690399 -0.69285798 0.62074900 1.905766e-42
-9.41485020 -18.58820000 482.43201000 0.36588100 -0.66499799 0.65108198 1.905766e-42
-9.57242010 -19.94650100 481.26199000 0.36526501 -0.63606501 0.67970800 1.905766e-42
-9.92269040 -21.26800000 480.09100000 0.36495599 -0.60553300 0.70720398 1.905766e-42
-10.21010000 -22.40580000 478.72601000 0.36593601 -0.57290101 0.73339999 1.905766e-42
-9.47587970 -23.83830100 477.92099000 0.37158799 -0.54020000 0.75505400 1.905766e-42
-8.71689990 -25.08230000 476.86401000 0.37883100 -0.50616503 0.77477998 1.905766e-42
-8.95794960 -26.51100000 475.79599000 0.38219199 -0.46605501 0.79794902 1.905766e-42
-8.22595980 -27.88999900 474.89999000 0.38905701 -0.43756399 0.81066197 1.905766e-42
-7.64183000 -29.19750000 473.81000000 0.39561999 -0.41879201 0.81737298 1.905766e-42
-6.39859010 -30.00840000 472.79099000 0.39115399 -0.41874599 0.81954300 1.905766e-42
-4.80526020 -29.38719900 472.23001000 0.36667600 -0.43160799 0.82417399 1.905766e-42
-3.06858990 -29.06629900 471.88199000 0.33669201 -0.44139400 0.83175099 1.905766e-42
-1.66500000 -29.56760000 470.87201000 0.30482501 -0.44005200 0.84465200 1.905766e-42
0.09456260 -29.64340000 470.50101000 0.26592699 -0.43843400 0.85852098 1.905766e-42
1.71879990 -29.93890000 469.78299000 0.22669300 -0.43139601 0.87321699 1.905766e-42
3.41485000 -30.24010100 469.26099000 0.18672100 -0.42147601 0.88740802 1.905766e-42
5.14853000 -30.48780100 468.84500000 0.14704600 -0.40849000 0.90083998 1.905766e-42
6.54568000 -31.30740000 468.06000000 0.10773000 -0.38970301 0.91461802 1.905766e-42
8.26916030 -31.72150000 467.74701000 0.08555990 -0.38366801 0.91949898 1.905766e-42
10.04890000 -31.98150100 467.67700000 0.07421660 -0.37837499 0.92267197 1.905766e-42
11.68400000 -32.64580200 467.32300000 0.05908180 -0.37741601 0.92415702 1.905766e-42
13.21740000 -33.49620100 466.91599000 0.04291650 -0.37679601 0.92530203 1.905766e-42
14.87410000 -34.13900000 466.63000000 0.02416040 -0.37758899 0.92565799 1.905766e-42
16.65469900 -34.31810000 466.43600000 0.00278121 -0.38091299 0.92460698 1.905766e-42
18.45400000 -34.29560100 466.38901000 -0.02681550 -0.37612301 0.92618197 1.905766e-42
20.24430100 -34.48149900 466.39700000 -0.05813920 -0.36660799 0.92855698 1.905766e-42
21.92219900 -35.10810100 466.21899000 -0.09056140 -0.34910601 0.93269700 1.905766e-42
23.54180000 -35.89220000 466.26401000 -0.12362200 -0.32865101 0.93632603 1.905766e-42
25.16090000 -36.67850100 466.24799000 -0.15690801 -0.30581900 0.93907100 1.905766e-42
26.76390100 -37.49700200 466.27301000 -0.19134200 -0.28222799 0.94007200 1.905766e-42
28.37879900 -38.28480100 466.38000000 -0.21373700 -0.27703401 0.93678600 1.905766e-42
30.00219900 -39.04750100 466.53101000 -0.22397099 -0.28637299 0.93157202 1.905766e-42
31.57920100 -39.90399900 466.67099000 -0.22864400 -0.29519901 0.92767400 1.905766e-42
33.16460000 -40.73849900 466.84399000 -0.22740000 -0.30395100 0.92514998 1.905766e-42
34.79850000 -41.48770100 466.94000000 -0.21869300 -0.31307200 0.92420697 1.905766e-42
36.53670100 -41.69630100 467.35800000 -0.20393500 -0.32683599 0.92281598 1.905766e-42
37.87749900 -42.83330200 466.97198000 -0.17624301 -0.33051199 0.92720002 1.905766e-42
39.58340100 -42.55110200 467.47198000 -0.18679599 -0.36968499 0.91018701 1.905766e-42
41.08760100 -41.85369900 468.17300000 -0.21709700 -0.41389200 0.88406003 1.905766e-42
42.45209900 -41.07260100 469.04901000 -0.25040200 -0.45212400 0.85608602 1.905766e-42
43.74789800 -40.15840100 469.90100000 -0.28505599 -0.48292500 0.82796502 1.905766e-42
45.08639900 -39.48059800 470.89499000 -0.31713501 -0.50923997 0.80006200 1.905766e-42
46.41090000 -38.77240000 471.88699000 -0.35457900 -0.52743798 0.77206397 1.905766e-42
47.61809900 -37.98149900 472.96301000 -0.39778501 -0.53341001 0.74648601 1.905766e-42
48.64180000 -37.05160100 474.11499000 -0.44217399 -0.52656001 0.72609699 1.905766e-42
49.79740100 -36.46450000 475.36401000 -0.49008301 -0.51528502 0.70306498 1.905766e-42
51.06090200 -36.04230100 476.57501000 -0.53292799 -0.49523601 0.68609703 1.905766e-42
52.26440000 -35.55110200 477.82001000 -0.55467802 -0.47394699 0.68389100 1.905766e-42
53.50870100 -35.30279900 479.09698000 -0.57132101 -0.46393800 0.67701799 1.905766e-42
54.76050200 -34.93590200 480.33701000 -0.58078700 -0.46405801 0.66883200 1.905766e-42
55.13320200 -33.56219900 481.43900000 -0.58919102 -0.47392201 0.65440899 1.905766e-42
55.00199900 -32.08829900 482.46301000 -0.59682000 -0.48353401 0.64031303 1.905766e-42
55.08350000 -30.74720000 483.66101000 -0.59650898 -0.48923099 0.63626200 1.905766e-42
55.08980200 -29.41580000 484.87299000 -0.59750700 -0.49250400 0.63279200 1.905766e-42
55.10710100 -27.98040000 485.95901000 -0.60075802 -0.49429199 0.62830400 1.905766e-42
55.16400100 -26.59260000 487.10300000 -0.60556901 -0.49678600 0.62168300 1.905766e-42
55.23730100 -25.15900000 488.19000000 -0.61363500 -0.50079399 0.61045700 1.905766e-42
55.14090000 -23.74150100 489.29501000 -0.61921698 -0.51847500 0.58970600 1.905766e-42
54.96780000 -22.31609900 490.38000000 -0.60153699 -0.54593498 0.58318800 1.905766e-42
54.48569900 -20.96740000 491.47000000 -0.58678699 -0.57004303 0.57509297 1.905766e-42
54.41830100 -19.66720000 492.71301000 -0.56709999 -0.59277898 0.57184798 1.905766e-42
54.27690100 -18.40480000 493.98901000 -0.55159998 -0.61538899 0.56305802 1.905766e-42
54.40399900 -17.01149900 495.12100000 -0.53792202 -0.63817102 0.55079699 1.905766e-42
53.26269900 -15.80290000 495.81201000 -0.53749299 -0.66243201 0.52180898 1.905766e-42
52.08169900 -14.58580000 496.41501000 -0.52833098 -0.69639099 0.48570201 1.905766e-42
51.26760100 -13.16890000 497.16901000 -0.51425803 -0.73100102 0.44852701 1.905766e-42
49.82970000 -12.16150000 497.56601000 -0.50522500 -0.75644398 0.41537899 1.905766e-42
48.95230100 -10.91520000 498.52399000 -0.48838899 -0.78664702 0.37770700 1.905766e-42
47.62170000 -9.92383000 499.22198000 -0.47306401 -0.81059599 0.34517401 1.905766e-42
46.69889800 -8.87393000 500.35599000 -0.45935699 -0.83239001 0.31002700 1.905766e-42
45.50140000 -8.04277990 501.41199000 -0.44658899 -0.85062498 0.27748200 1.905766e-42
44.98000000 -7.22932000 502.92999000 -0.43753901 -0.86743599 0.23688500 1.905766e-42
43.79340000 -6.49203010 504.06601000 -0.42717099 -0.88076103 0.20441200 1.905766e-42
42.67590000 -5.73109010 505.25400000 -0.41770199 -0.89210999 0.17223500 1.905766e-42
41.37649900 -5.00039010 506.26300000 -0.39583200 -0.90799499 0.13734201 1.905766e-42
40.29600100 -4.32358980 507.53299000 -0.36451599 -0.92669499 0.09146210 1.905766e-42
39.05189900 -3.69169000 508.67001000 -0.32747000 -0.94350600 0.05058900 1.905766e-42
37.85580100 -3.11778000 509.88699000 -0.28742099 -0.95774102 0.01104990 1.905766e-42
36.49710100 -2.54399990 510.91901000 -0.24108700 -0.97024298 -0.02249330 1.905766e-42
34.88710000 -2.43372990 511.71600000 -0.18985800 -0.98047298 -0.05125590 1.905766e-42
33.67530100 -2.28889990 513.03900000 -0.19591200 -0.97939998 -0.04893290 1.905766e-42
32.35329800 -2.28276990 514.26099000 -0.19890399 -0.97907400 -0.04301820 1.905766e-42
31.36210100 -2.10100010 515.75201000 -0.20245300 -0.97864401 -0.03561620 1.905766e-42
30.08060100 -1.91318000 517.00201000 -0.20117800 -0.97925800 -0.02409870 1.905766e-42
28.76499900 -1.57407000 518.18298000 -0.19627599 -0.98049700 -0.01007940 1.905766e-42
27.49560000 -1.32225000 519.43402000 -0.20664901 -0.97825301 0.01778930 1.905766e-42
27.31329900 -1.23835000 521.22302000 -0.24223100 -0.96889901 0.05057660 1.905766e-42
27.01670100 -1.07306000 522.98999000 -0.28086501 -0.95576900 0.08728910 1.905766e-42
26.08060100 -0.82630301 524.50800000 -0.32514301 -0.93569398 0.13696501 1.905766e-42
25.63480000 0.33920500 525.80499000 -0.37041500 -0.90925097 0.18988501 1.905766e-42
24.75330000 1.28449000 527.05798000 -0.42385799 -0.86587399 0.26572001 1.905766e-42
