# .PCD v0.7 - Point Cloud Data file format
# 3 174 0
# 1 76 0
# 77 108 0
# 109 174 0
VERSION 0.7
FIELDS x y z normal_x normal_y normal_z curvature
SIZE 4 4 4 4 4 4 4
TYPE F F F F F F F
COUNT 1 1 1 1 1 1 1
WIDTH 174
HEIGHT 1
VIEWPOINT 0 0 0 1 0 0 0
POINTS 174
DATA ascii
72.60340100 9.53248020 495.54700000 -0.04893570 -0.70821297 0.70430100 1.905766e-42
71.38150000 10.52790000 496.41599000 -0.05819100 -0.70200402 0.70979100 1.905766e-42
69.79360200 11.21890000 496.90701000 -0.07072010 -0.69485801 0.71566099 1.905766e-42
68.03720100 11.55520000 497.11200000 -0.08377510 -0.68806899 0.72079301 1.905766e-42
66.54630300 12.38070000 497.69101000 -0.09703220 -0.67642897 0.73008800 1.905766e-42
64.92450000 13.07970000 498.04001000 -0.11045600 -0.66568297 0.73801398 1.905766e-42
63.41859800 13.96120000 498.48099000 -0.12341800 -0.65297300 0.74725801 1.905766e-42
61.74000200 14.52050000 498.81299000 -0.13625500 -0.64274901 0.75386202 1.905766e-42
60.14550000 15.29980000 499.11301000 -0.14857900 -0.63138402 0.76110297 1.905766e-42
58.55899800 16.09569900 499.41199000 -0.16037001 -0.62019497 0.76788002 1.905766e-42
56.80619800 16.50449900 499.43799000 -0.17288700 -0.61484098 0.76946801 1.905766e-42
55.51070000 17.66970100 499.88901000 -0.18012400 -0.60042000 0.77913499 1.905766e-42
53.84590100 18.29770100 500.16101000 -0.18203500 -0.59263200 0.78463399 1.905766e-42
52.21450000 19.03949900 500.32999000 -0.18393600 -0.58463699 0.79016900 1.905766e-42
51.05419900 20.33160000 500.80301000 -0.18592399 -0.56977701 0.80049199 1.905766e-42
49.36650100 20.89390000 501.07800000 -0.18764301 -0.56165999 0.80580902 1.905766e-42
47.74229800 21.64410000 501.27499000 -0.18926699 -0.55213201 0.81199002 1.905766e-42
46.17770000 22.52540000 501.39999000 -0.19071500 -0.54163700 0.81869203 1.905766e-42
44.50569900 23.19190000 501.41400000 -0.19184400 -0.53389800 0.82349801 1.905766e-42
42.88050100 23.68100000 501.41299000 -0.19269399 -0.52824700 0.82693601 1.905766e-42
41.22919800 24.39640000 501.37601000 -0.19342500 -0.52065700 0.83156699 1.905766e-42
39.49219900 24.86440100 501.31601000 -0.19745700 -0.51597202 0.83353698 1.905766e-42
37.81140100 25.50650000 501.26501000 -0.20342000 -0.50901902 0.83637297 1.905766e-42
36.10699800 26.07799900 501.17300000 -0.20963500 -0.50263101 0.83869898 1.905766e-42
34.33420200 26.29110000 500.94601000 -0.21593700 -0.50036103 0.83845699 1.905766e-42
32.77159900 27.18070000 501.02899000 -0.22214700 -0.48775101 0.84424502 1.905766e-42
31.20920000 28.07449900 501.01999000 -0.22885500 -0.47404301 0.85023999 1.905766e-42
29.46810000 28.50270100 500.86099000 -0.23550200 -0.46636701 0.85266697 1.905766e-42
27.71310000 28.82270100 500.62100000 -0.24189401 -0.46018299 0.85423601 1.905766e-42
26.11700100 29.65140000 500.54501000 -0.24884900 -0.44648299 0.85949302 1.905766e-42
24.40189900 30.18090100 500.41000000 -0.25178200 -0.43709600 0.86345398 1.905766e-42
22.65940100 30.53080000 500.12601000 -0.25404000 -0.43093899 0.86588401 1.905766e-42
21.11420100 31.45380000 500.10199000 -0.25720599 -0.41677999 0.87186003 1.905766e-42
19.57029900 32.36980100 499.97101000 -0.26008400 -0.40381500 0.87709099 1.905766e-42
17.85570000 32.82500100 499.66599000 -0.26198301 -0.39704499 0.87961400 1.905766e-42
16.11070100 33.04370100 499.28299000 -0.26340899 -0.39367601 0.88070101 1.905766e-42
14.50400000 33.83729900 499.11301000 -0.26550701 -0.38304201 0.88475102 1.905766e-42
12.95760000 34.74359900 498.94800000 -0.26745099 -0.37164399 0.88901699 1.905766e-42
11.25100000 35.25650000 498.69400000 -0.26876900 -0.36528400 0.89125198 1.905766e-42
9.56488040 35.80429800 498.38300000 -0.26750600 -0.35907799 0.89415002 1.905766e-42
7.81439020 36.00120200 498.01300000 -0.26586401 -0.35657400 0.89564002 1.905766e-42
6.23617980 36.85200100 497.85300000 -0.26540500 -0.34560800 0.90006399 1.905766e-42
4.80018000 37.89910100 497.56799000 -0.26554200 -0.33280900 0.90483499 1.905766e-42
3.03767990 38.25299800 497.47601000 -0.26463899 -0.32616401 0.90751499 1.905766e-42
1.51129000 39.19940200 497.35699000 -0.26511100 -0.31308201 0.91197401 1.905766e-42
-0.09728940 39.98650000 497.17499000 -0.26531801 -0.30156800 0.91578603 1.905766e-42
-1.78276000 40.23289900 496.59299000 -0.26395300 -0.29687500 0.91771102 1.905766e-42
-3.51676010 39.98260100 496.17999000 -0.26153600 -0.29714999 0.91831398 1.905766e-42
-5.22873020 39.91220100 495.62900000 -0.25469500 -0.29599899 0.92060602 1.905766e-42
-6.93180990 39.77489900 495.06201000 -0.24534500 -0.29524001 0.92338401 1.905766e-42
-8.58199980 39.21020100 494.61700000 -0.23477000 -0.29923499 0.92484599 1.905766e-42
-10.32030000 39.32799900 494.16501000 -0.22533900 -0.29379001 0.92892897 1.905766e-42
-12.03570000 39.18389900 493.63901000 -0.21474200 -0.29172301 0.93208599 1.905766e-42
-13.76710000 39.20200000 493.14801000 -0.20447101 -0.28689799 0.93588501 1.905766e-42
-15.47790000 39.14870100 492.59000000 -0.19373000 -0.28311899 0.93931502 1.905766e-42
-17.08989900 38.40219900 492.29999000 -0.18126200 -0.28900301 0.94001102 1.905766e-42
-18.85030000 38.45270200 491.92801000 -0.17080300 -0.28266400 0.94388902 1.905766e-42
-20.55349900 37.96200200 491.61499000 -0.15201201 -0.28506199 0.94637799 1.905766e-42
-22.30780000 37.79690200 491.24701000 -0.13283899 -0.28186601 0.95021302 1.905766e-42
-24.02249900 37.33260000 490.95700000 -0.11207200 -0.28311500 0.95251602 1.905766e-42
-25.68350000 36.71360000 490.64401000 -0.09018860 -0.28740299 0.95355397 1.905766e-42
-27.45660000 36.53970000 490.38699000 -0.06857380 -0.28297499 0.95667303 1.905766e-42
-29.09930000 35.83729900 490.16800000 -0.04515420 -0.28869599 0.95635498 1.905766e-42
-30.85460100 35.49639900 489.96100000 -0.02154620 -0.28734300 0.95758498 1.905766e-42
-32.53170000 34.86890000 489.77802000 0.00313556 -0.29207200 0.95639098 1.905766e-42
-34.22330100 34.28799800 489.57501000 0.02763070 -0.29636100 0.95467597 1.905766e-42
-35.82849900 33.49219900 489.40201000 0.05025390 -0.30517200 0.95096999 1.905766e-42
-37.44540000 32.72090100 489.22699000 0.07151220 -0.31340700 0.94692302 1.905766e-42
-39.02500200 31.87210100 489.07001000 0.09179830 -0.32308701 0.94190598 1.905766e-42
-40.70830200 31.23940100 488.99200000 0.11050400 -0.32592699 0.93891400 1.905766e-42
-42.26750200 30.36310000 488.78900000 0.12945400 -0.33476400 0.93336803 1.905766e-42
-43.72010000 29.30020000 488.77600000 0.14856599 -0.34687600 0.92606997 1.905766e-42
-45.18140000 28.25620100 488.65500000 0.16736799 -0.35889801 0.91824800 1.905766e-42
-46.63410200 27.20100000 488.52802000 0.18577500 -0.37060300 0.91002202 1.905766e-42
-48.14600000 26.23189900 488.40500000 0.20342800 -0.37941301 0.90258700 1.905766e-42
-49.68600100 25.30229900 488.34100000 0.22035600 -0.38617301 0.89572001 1.905766e-42
-50.38639800 23.70340000 487.90201000 0.23636000 -0.41291100 0.87956703 1.905766e-42
-50.10160100 22.29360000 486.82001000 0.24320000 -0.44323400 0.86278498 1.905766e-42
-49.15620000 21.02030000 485.96799000 0.24366100 -0.47407299 0.84609902 1.905766e-42
-48.19380200 19.77870000 485.08899000 0.24241801 -0.50852603 0.82621700 1.905766e-42
-47.37189900 18.56650000 484.04300000 0.24019000 -0.54102403 0.80597901 1.905766e-42
-46.60850100 17.32930000 482.98099000 0.23721801 -0.57177597 0.78536600 1.905766e-42
-45.91370000 16.09930000 481.86600000 0.23400199 -0.60113198 0.76412302 1.905766e-42
-44.99689900 15.04220000 480.73401000 0.22865000 -0.62891501 0.74309200 1.905766e-42
-44.09199900 14.05180000 479.53400000 0.22300300 -0.65891099 0.71840501 1.905766e-42
-43.13209900 13.05310000 478.38400000 0.21601100 -0.68660098 0.69420302 1.905766e-42
-42.15950000 12.15470000 477.16501000 0.20783199 -0.71211100 0.67060000 1.905766e-42
-41.40409900 11.24630000 475.80701000 0.20017301 -0.73748600 0.64501500 1.905766e-42
-40.23510000 10.48300000 474.67099000 0.18928100 -0.75738800 0.62492901 1.905766e-42
-39.75270100 9.55103970 473.20801000 0.18223700 -0.77950001 0.59930801 1.905766e-42
-38.89899800 8.80103970 471.81201000 0.17311500 -0.79900801 0.57586199 1.905766e-42
-38.19039900 8.05404000 470.33600000 0.16501600 -0.81892502 0.54966497 1.905766e-42
-37.07440200 7.30249980 469.14001000 0.15491800 -0.83543497 0.52730399 1.905766e-42
-36.01330200 6.64112000 467.84500000 0.14490999 -0.85171199 0.50357598 1.905766e-42
-35.51480100 5.99660020 466.23999000 0.13801000 -0.86850899 0.47607201 1.905766e-42
-34.67070000 5.32690000 464.79800000 0.13024800 -0.88301599 0.45090801 1.905766e-42
-33.66770200 4.68235020 463.45001000 0.12245700 -0.89614397 0.42653200 1.905766e-42
-33.08140200 4.16093020 461.82999000 0.11755400 -0.90992498 0.39776599 1.905766e-42
-32.08309900 3.59836010 460.44199000 0.11067000 -0.92146599 0.37236100 1.905766e-42
-31.21980100 3.09819010 458.94299000 0.10459100 -0.93212998 0.34669101 1.905766e-42
-30.18670100 2.71692990 457.51999000 0.09399050 -0.94221503 0.32155499 1.905766e-42
-29.14650000 2.31571010 456.10699000 0.08311820 -0.95183599 0.29512700 1.905766e-42
-28.45010000 2.05591010 454.46701000 0.07574820 -0.96149600 0.26417500 1.905766e-42
-27.51110100 1.66992000 452.98099000 0.06512270 -0.97003901 0.23405699 1.905766e-42
-27.07620000 1.43986000 451.24899000 0.05935600 -0.97897100 0.19517200 1.905766e-42
-26.73990100 1.25835000 449.48999000 0.05303160 -0.98607200 0.15763600 1.905766e-42
-26.08149900 0.78041202 447.88501000 0.04200880 -0.99093401 0.12761100 1.905766e-42
-25.56530000 0.56901199 446.17300000 0.03133550 -0.99452698 0.09967370 1.905766e-42
-24.80419900 0.50701600 444.54300000 0.01716120 -0.99690598 0.07670460 1.905766e-42
-23.09720000 0.33727100 443.99799000 -0.00414016 -0.99719697 0.07470300 1.905766e-42
-21.30559900 0.46928200 444.11099000 -0.02318440 -0.99631703 0.08255620 1.905766e-42
-19.66680000 0.36638600 444.84799000 -0.03837620 -0.99453300 0.09711630 1.905766e-42
-18.04480000 0.40393999 445.62799000 -0.05338350 -0.99237001 0.11114100 1.905766e-42
-16.25400000 0.30471000 445.78000000 -0.07116340 -0.99072599 0.11575200 1.905766e-42
-14.55890000 0.24246299 446.38199000 -0.08701650 -0.98836499 0.12475200 1.905766e-42
-12.76560000 0.08825160 446.38400000 -0.10210500 -0.98690099 0.12490200 1.905766e-42
-10.97710000 -0.11543700 446.38501000 -0.11507500 -0.98545998 0.12500300 1.905766e-42
-9.18278030 -0.25688601 446.40302000 -0.12781000 -0.98385799 0.12525301 1.905766e-42
-7.39487980 -0.45720899 446.45999000 -0.14028101 -0.98210001 0.12570301 1.905766e-42
-5.77795980 -0.74364603 447.19699000 -0.15153100 -0.97929502 0.13423599 1.905766e-42
-3.99917010 -1.01917000 447.19699000 -0.16349700 -0.97750598 0.13323399 1.905766e-42
-2.22921990 -1.34666000 447.19299000 -0.17504500 -0.97571200 0.13170300 1.905766e-42
-0.45064500 -1.62108000 447.23001000 -0.18614200 -0.97384202 0.13031600 1.905766e-42
1.14172010 -1.88737000 448.02600000 -0.19653900 -0.97071803 0.13812500 1.905766e-42
2.90719010 -2.23032000 448.10001000 -0.19756700 -0.97053802 0.13792500 1.905766e-42
4.54386000 -2.44913010 448.81601000 -0.19780600 -0.96920103 0.14670500 1.905766e-42
6.30506990 -2.79463010 448.95401000 -0.19806600 -0.96898901 0.14775001 1.905766e-42
7.96515990 -3.02140000 449.61099000 -0.19836199 -0.96761000 0.15615100 1.905766e-42
9.72119050 -3.40615010 449.70300000 -0.19880199 -0.96741402 0.15680300 1.905766e-42
11.36880000 -3.64203000 450.38800000 -0.19913700 -0.96584201 0.16581200 1.905766e-42
13.13700000 -3.97823000 450.36600000 -0.19979900 -0.96577102 0.16543099 1.905766e-42
14.92970000 -4.10052010 450.47198000 -0.20052899 -0.96526301 0.16750000 1.905766e-42
16.47720000 -4.52655980 451.28699000 -0.20080800 -0.96334898 0.17786300 1.905766e-42
18.24410100 -4.74982020 451.54800000 -0.20223200 -0.96225399 0.18212301 1.905766e-42
19.94230100 -5.06468010 452.05499000 -0.20359500 -0.96046299 0.18989700 1.905766e-42
21.55590100 -5.23080020 452.83499000 -0.20430200 -0.95792300 0.20160399 1.905766e-42
23.32510000 -5.40304990 453.11899000 -0.20625401 -0.95604199 0.20842899 1.905766e-42
24.24770000 -5.42823980 454.66400000 -0.20378301 -0.95216697 0.22770900 1.905766e-42
25.45710000 -5.33046010 455.99301000 -0.20198500 -0.94817698 0.24528000 1.905766e-42
26.70450000 -5.21034000 457.28601000 -0.20020901 -0.94400501 0.26224101 1.905766e-42
28.00910000 -5.16401000 458.52499000 -0.19860201 -0.93979001 0.27812201 1.905766e-42
28.82780100 -4.88620000 460.10400000 -0.19637799 -0.93440199 0.29720199 1.905766e-42
30.37529900 -4.83032990 461.02100000 -0.19512901 -0.93081897 0.30903101 1.905766e-42
31.16330000 -4.50982000 462.60800000 -0.19161400 -0.92485702 0.32851699 1.905766e-42
32.50640100 -4.34242010 463.79401000 -0.18719400 -0.92016101 0.34389201 1.905766e-42
33.87509900 -4.13683990 464.94501000 -0.18258400 -0.91505200 0.35964301 1.905766e-42
34.86629900 -3.82202010 466.41400000 -0.17863099 -0.90790403 0.37921199 1.905766e-42
36.17699800 -3.50509000 467.60699000 -0.17353800 -0.90215999 0.39495799 1.905766e-42
37.43830100 -3.24473000 468.86401000 -0.16841300 -0.89634103 0.41013300 1.905766e-42
38.70399900 -2.74253990 470.04099000 -0.16345701 -0.89063603 0.42432299 1.905766e-42
39.75140000 -2.24634000 471.41901000 -0.15960000 -0.88435000 0.43869400 1.905766e-42
40.73560000 -1.87023000 472.87799000 -0.15656599 -0.87849200 0.45137399 1.905766e-42
42.26380200 -1.68808000 473.81100000 -0.15162300 -0.87528402 0.45922700 1.905766e-42
43.66400100 -1.35511000 474.89301000 -0.14970499 -0.86918700 0.47127801 1.905766e-42
44.93019900 -0.90538597 476.09000000 -0.15305699 -0.86090600 0.48519501 1.905766e-42
46.47259900 -0.55160701 476.94800000 -0.15516700 -0.85540402 0.49417299 1.905766e-42
47.93429900 -0.10468100 477.89899000 -0.15718600 -0.84861499 0.50511998 1.905766e-42
49.13309900 0.23794200 479.19699000 -0.15921700 -0.83960700 0.51933497 1.905766e-42
50.17480100 0.75746602 480.57001000 -0.16104899 -0.82929403 0.53510201 1.905766e-42
51.40990100 1.30444000 481.76001000 -0.16218100 -0.82031298 0.54843801 1.905766e-42
52.92760100 1.64478000 482.66599000 -0.16249201 -0.81366998 0.55815601 1.905766e-42
54.31909900 2.11997010 483.70401000 -0.16289400 -0.80443799 0.57126600 1.905766e-42
55.72349900 2.58027010 484.73099000 -0.16293500 -0.79540902 0.58376002 1.905766e-42
57.10080000 3.07926010 485.77701000 -0.16280600 -0.78618801 0.59615701 1.905766e-42
58.69120000 3.40865990 486.55301000 -0.15397801 -0.78100902 0.60523999 1.905766e-42
59.91709900 4.00587990 487.72800000 -0.14357901 -0.77159703 0.61969501 1.905766e-42
61.05320000 4.82483010 488.85901000 -0.13423599 -0.76120901 0.63446200 1.905766e-42
62.79230100 5.09446000 489.23599000 -0.12082000 -0.75841999 0.64046901 1.905766e-42
64.00659900 5.74435000 490.39600000 -0.11098000 -0.74871403 0.65353799 1.905766e-42
65.19190200 6.49877980 491.52100000 -0.10128200 -0.73903298 0.66601199 1.905766e-42
66.77539800 6.96945000 492.23499000 -0.08949370 -0.73270500 0.67463601 1.905766e-42
68.28530100 7.56156020 493.01599000 -0.07836500 -0.72553998 0.68370301 1.905766e-42
69.64040400 8.27933980 493.95901000 -0.06833240 -0.71775800 0.69293201 1.905766e-42
71.04060400 8.94979000 494.87000000 -0.05868650 -0.71157199 0.70015800 1.905766e-42
