# .PCD v0.7 - Point Cloud Data file format
# 4 137 0
# 1 42 0
# 43 77 0
# 78 109 0
# 110 137 0
VERSION 0.7
FIELDS x y z normal_x normal_y normal_z curvature
SIZE 4 4 4 4 4 4 4
TYPE F F F F F F F
COUNT 1 1 1 1 1 1 1
WIDTH 137
HEIGHT 1
VIEWPOINT 0 0 0 1 0 0 0
POINTS 137
DATA ascii
40.57440200 28.39209900 480.30899000 0.30849901 -0.86141199 0.40348199 1.905766e-42
39.11270100 27.38960100 479.99600000 0.28599000 -0.86504000 0.41220701 1.905766e-42
37.57350200 27.38649900 480.92899000 0.25664601 -0.87075299 0.41943100 1.905766e-42
35.85160100 27.17810100 481.41000000 0.22464100 -0.87571299 0.42739201 1.905766e-42
34.13830200 27.18790100 481.96201000 0.19250201 -0.87997699 0.43426201 1.905766e-42
32.40720000 27.15660100 482.45499000 0.15664600 -0.88209099 0.44427201 1.905766e-42
30.65150100 27.12859900 482.85001000 0.12131100 -0.88227898 0.45482799 1.905766e-42
29.03100000 26.45000100 482.45901000 0.09579730 -0.87976700 0.46565300 1.905766e-42
27.46019900 27.03660000 483.11301000 0.06456000 -0.87739497 0.47540599 1.905766e-42
25.69339900 26.71250000 483.22900000 0.03510080 -0.87357497 0.48542300 1.905766e-42
23.90250000 26.73700000 483.40799000 0.00248923 -0.86976898 0.49345300 1.905766e-42
22.21229900 27.17280000 483.84799000 -0.03081150 -0.86536700 0.50019097 1.905766e-42
20.41860000 27.16560000 483.99799000 -0.06415790 -0.86066002 0.50512201 1.905766e-42
18.65959900 27.46250000 484.23901000 -0.09774380 -0.85534698 0.50875098 1.905766e-42
17.04350100 28.08379900 484.73099000 -0.13075700 -0.84898603 0.51198101 1.905766e-42
15.30510000 28.50330000 484.93600000 -0.16553700 -0.84180403 0.51377398 1.905766e-42
13.65370000 29.09190000 485.34399000 -0.19914800 -0.83338398 0.51556802 1.905766e-42
11.94630000 29.60430000 485.59399000 -0.23264401 -0.82400501 0.51661599 1.905766e-42
10.34020000 30.37760000 485.84299000 -0.26440299 -0.81345701 0.51805300 1.905766e-42
8.85707000 31.37940000 486.03500000 -0.29423401 -0.80182600 0.52009797 1.905766e-42
7.16605000 31.99609900 486.04800000 -0.32573301 -0.78854799 0.52162302 1.905766e-42
5.40186020 32.07429900 485.69901000 -0.35499999 -0.77647001 0.52064300 1.905766e-42
4.15546990 33.18100000 486.37799000 -0.38242099 -0.76253402 0.52182001 1.905766e-42
2.89214990 34.40399900 486.76401000 -0.41069999 -0.74802703 0.52132702 1.905766e-42
1.15808000 34.85900100 486.60199000 -0.44189700 -0.73370600 0.51614201 1.905766e-42
-0.06775520 36.00700000 487.25000000 -0.46658799 -0.71945101 0.51447701 1.905766e-42
-1.47565000 37.12820100 487.27802000 -0.49499699 -0.70395201 0.50934201 1.905766e-42
-2.58829000 38.48790000 487.67001000 -0.51990902 -0.68805701 0.50623298 1.905766e-42
-3.90091990 39.68240000 487.97000000 -0.54595798 -0.67129099 0.50129598 1.905766e-42
-5.06073000 41.02719900 488.26401000 -0.57021999 -0.65464097 0.49628100 1.905766e-42
-6.39007000 42.22309900 488.47101000 -0.59475100 -0.63731700 0.48999801 1.905766e-42
-7.61502980 43.51129900 488.75400000 -0.61713898 -0.62011701 0.48434901 1.905766e-42
-8.86038970 44.79460100 488.95901000 -0.63874501 -0.60244697 0.47860399 1.905766e-42
-9.76908970 46.34439800 489.07001000 -0.66348702 -0.57927102 0.47352901 1.905766e-42
-11.17530000 47.53710200 488.89801000 -0.69007403 -0.55606699 0.46323600 1.905766e-42
-12.48110000 48.48910100 488.10501000 -0.71661901 -0.53465003 0.44789100 1.905766e-42
-13.62680000 49.78459900 487.60599000 -0.74197000 -0.51588601 0.42818499 1.905766e-42
-14.84280000 50.89790000 486.88300000 -0.76702100 -0.49594700 0.40708199 1.905766e-42
-15.97380000 52.10630000 486.17599000 -0.79044902 -0.47686300 0.38443699 1.905766e-42
-16.96660000 53.46519900 485.53699000 -0.81169897 -0.46016899 0.35970899 1.905766e-42
-18.04450000 54.54470100 484.58200000 -0.83174098 -0.43807200 0.34102699 1.905766e-42
-18.94010000 55.58980200 483.42200000 -0.84917200 -0.41421899 0.32761100 1.905766e-42
-19.84730000 56.45959900 482.13300000 -0.86324900 -0.39018199 0.32024899 1.905766e-42
-20.01610000 55.81880200 480.45999000 -0.86519802 -0.37907100 0.32823300 1.905766e-42
-19.63240100 54.14960100 479.90601000 -0.85589701 -0.39054999 0.33898401 1.905766e-42
-19.14710000 52.64870100 479.03900000 -0.84453702 -0.39901799 0.35713100 1.905766e-42
-18.80360000 51.04810000 478.29099000 -0.83290201 -0.41067499 0.37097201 1.905766e-42
-18.28720100 49.47449900 477.58499000 -0.82046998 -0.42522299 0.38211900 1.905766e-42
-17.70900000 47.97440000 476.77600000 -0.80764002 -0.44044799 0.39207599 1.905766e-42
-17.20850000 46.46229900 475.93701000 -0.79411697 -0.45636001 0.40139100 1.905766e-42
-16.86039900 44.72950000 475.59698000 -0.77657598 -0.47735599 0.41117001 1.905766e-42
-16.09440000 43.15679900 475.17300000 -0.75780803 -0.49719599 0.42252001 1.905766e-42
-15.84010000 41.80590100 474.01001000 -0.74841303 -0.50313199 0.43212900 1.905766e-42
-15.26660000 40.29010000 473.22699000 -0.72903699 -0.51011902 0.45638099 1.905766e-42
-14.85790000 38.87469900 472.19299000 -0.71119100 -0.51101798 0.48277199 1.905766e-42
-14.57880000 37.61050000 470.94199000 -0.69545603 -0.50643098 0.50977403 1.905766e-42
-14.19300000 36.02800000 470.17599000 -0.67650503 -0.50750601 0.53364700 1.905766e-42
-13.76510000 34.54610100 469.24899000 -0.65844399 -0.50571603 0.55740702 1.905766e-42
-13.39960000 33.00000000 468.40201000 -0.64077199 -0.50322300 0.57980901 1.905766e-42
-13.09530000 31.51810100 467.42700000 -0.62464601 -0.49888101 0.60077798 1.905766e-42
-12.67560000 29.94199900 466.66599000 -0.60684103 -0.50304198 0.61537999 1.905766e-42
-12.01930000 28.38089900 466.05499000 -0.58644402 -0.51048201 0.62888098 1.905766e-42
-12.03650000 26.99959900 464.90100000 -0.57495600 -0.50697601 0.64218497 1.905766e-42
-12.25730000 25.75000000 463.62500000 -0.56737298 -0.49967101 0.65453601 1.905766e-42
-11.94480000 24.20870000 462.74899000 -0.55163097 -0.49908200 0.66829699 1.905766e-42
-11.98480000 22.89469900 461.51999000 -0.54308802 -0.49071899 0.68135899 1.905766e-42
-11.81150000 21.30680100 460.69000000 -0.52714199 -0.48288801 0.69924301 1.905766e-42
-11.61720000 19.70100000 459.89999000 -0.51137799 -0.47364700 0.71704298 1.905766e-42
-11.22150000 18.10260000 459.17300000 -0.49480501 -0.46546200 0.73383498 1.905766e-42
-11.30690000 16.59770000 458.18900000 -0.48144200 -0.45485899 0.74921101 1.905766e-42
-11.26620000 15.04490000 457.28000000 -0.46377900 -0.44991201 0.76320899 1.905766e-42
-11.73700000 13.92870000 455.94901000 -0.45752701 -0.43725699 0.77425802 1.905766e-42
-11.22230000 12.22580000 455.67401000 -0.43361801 -0.44298199 0.78469300 1.905766e-42
-11.46100000 10.77600000 454.63400000 -0.42354500 -0.43727601 0.79334700 1.905766e-42
-11.97000000 9.51778030 453.45200000 -0.42001200 -0.42930600 0.79955399 1.905766e-42
-12.02840000 7.81840990 452.86099000 -0.40810099 -0.42774501 0.80652797 1.905766e-42
-12.03340000 6.20110990 452.07101000 -0.39800501 -0.42458701 0.81321502 1.905766e-42
-12.08340000 4.64004990 451.17599000 -0.39036599 -0.41924801 0.81966197 1.905766e-42
-10.60200000 3.61970000 451.24200000 -0.36489499 -0.42684400 0.82743901 1.905766e-42
-9.05206970 2.71420000 451.37601000 -0.33831701 -0.43384799 0.83505499 1.905766e-42
-7.32933000 2.36341000 451.76199000 -0.31044999 -0.44471100 0.84015000 1.905766e-42
-5.67944000 2.35330010 452.48099000 -0.28386101 -0.45879501 0.84197998 1.905766e-42
-3.98136000 2.39246010 453.07700000 -0.25681099 -0.47333500 0.84261698 1.905766e-42
-2.25633000 2.33942010 453.58801000 -0.22910100 -0.48770300 0.84241301 1.905766e-42
-0.50531799 2.38746000 454.00299000 -0.20281699 -0.50273800 0.84030902 1.905766e-42
1.23626010 2.37055990 454.45700000 -0.17761400 -0.51784497 0.83683300 1.905766e-42
2.99166990 2.41234990 454.85300000 -0.15218399 -0.53234100 0.83273900 1.905766e-42
4.75151010 2.52993990 455.21301000 -0.12671299 -0.54623502 0.82799202 1.905766e-42
6.53421020 2.28776000 455.26999000 -0.09884140 -0.55628401 0.82509297 1.905766e-42
8.29633050 1.92934000 455.19000000 -0.07024500 -0.56420898 0.82263798 1.905766e-42
10.09580000 1.88396000 455.18900000 -0.04208130 -0.57340503 0.81818998 1.905766e-42
11.89420000 1.80935000 455.19101000 -0.01316870 -0.58190203 0.81315202 1.905766e-42
13.69260000 1.88487990 455.19400000 0.01595500 -0.58974499 0.80743200 1.905766e-42
15.49260000 1.89413000 455.18799000 0.04650930 -0.59582698 0.80176502 1.905766e-42
17.29060000 1.97903000 455.18500000 0.07734370 -0.60074699 0.79568899 1.905766e-42
19.07430100 2.22010990 455.19699000 0.10790000 -0.60463399 0.78916103 1.905766e-42
20.58480100 1.58237000 454.45401000 0.13504800 -0.60132301 0.78750998 1.905766e-42
22.32469900 1.51522990 453.99701000 0.16453300 -0.59888202 0.78375399 1.905766e-42
24.04500000 1.31905000 453.50601000 0.19457100 -0.59489799 0.77989602 1.905766e-42
25.76090000 1.22590990 452.97000000 0.22539601 -0.59009397 0.77523297 1.905766e-42
27.13139900 0.64251298 451.95901000 0.25109500 -0.58259797 0.77300102 1.905766e-42
28.64240100 0.21319100 451.07999000 0.27896500 -0.57511801 0.76903701 1.905766e-42
30.29680100 -0.00596532 450.40601000 0.30865899 -0.56778997 0.76311499 1.905766e-42
31.97660100 -0.05542130 449.76099000 0.34091800 -0.56144398 0.75402701 1.905766e-42
33.57650000 -0.14923400 448.94101000 0.37119099 -0.55268598 0.74616098 1.905766e-42
35.05690000 -0.44205400 447.95999000 0.39775401 -0.54141903 0.74071401 1.905766e-42
36.48510000 -0.78451300 446.92001000 0.42235801 -0.52726197 0.73729801 1.905766e-42
38.04169800 -0.69860399 446.01999000 0.44806501 -0.51557302 0.73035699 1.905766e-42
39.46419900 -0.95351303 444.94699000 0.47050399 -0.49889600 0.72782499 1.905766e-42
40.59289900 -1.50598000 443.65799000 0.48857701 -0.47596601 0.73126501 1.905766e-42
41.93500100 -0.30934501 443.57501000 0.50722897 -0.48481899 0.71250898 1.905766e-42
41.65000200 0.91851097 444.85999000 0.50138497 -0.50690502 0.70118499 1.905766e-42
42.02460100 2.48167990 445.67001000 0.50606602 -0.51944703 0.68852901 1.905766e-42
42.30229900 3.99107000 446.61099000 0.50957501 -0.52780902 0.67952299 1.905766e-42
42.17990100 5.34786990 447.78699000 0.50822401 -0.53593302 0.67415398 1.905766e-42
42.16910200 6.74089000 448.92700000 0.50382102 -0.55190998 0.66450000 1.905766e-42
42.38980100 8.16442970 450.00601000 0.50274998 -0.56632799 0.65308100 1.905766e-42
42.34870100 9.50401970 451.20801000 0.50003701 -0.58097202 0.64221001 1.905766e-42
42.27870200 10.79380000 452.46100000 0.49802601 -0.59587300 0.63000399 1.905766e-42
42.25610000 12.05910000 453.74200000 0.49781400 -0.61122203 0.61529499 1.905766e-42
42.39799900 13.56870000 454.71201000 0.49676201 -0.63406599 0.59261101 1.905766e-42
42.23410000 14.52250000 456.22900000 0.48796901 -0.65809798 0.57340503 1.905766e-42
41.62540100 15.28750000 457.74100000 0.46790200 -0.67705703 0.56803203 1.905766e-42
41.64970000 16.45389900 459.11099000 0.45747399 -0.69438100 0.55547500 1.905766e-42
41.61999900 17.59480100 460.50299000 0.44720700 -0.70944601 0.54469502 1.905766e-42
41.54610100 18.69610000 461.92499000 0.43729100 -0.72317302 0.53459901 1.905766e-42
41.34650000 19.67300000 463.42401000 0.42158800 -0.74258298 0.52041698 1.905766e-42
40.74760100 20.28010000 465.00900000 0.40299499 -0.76031899 0.50942099 1.905766e-42
40.80550000 21.24630000 466.52701000 0.39066601 -0.78072399 0.48769900 1.905766e-42
40.88740200 22.19380000 468.05499000 0.37901500 -0.80076700 0.46381000 1.905766e-42
41.00030100 23.15910000 469.57001000 0.36811900 -0.82008702 0.43811601 1.905766e-42
40.89009900 23.88789900 471.21201000 0.35792899 -0.83622700 0.41546500 1.905766e-42
41.07420000 24.74760100 472.78299000 0.35516801 -0.84444100 0.40096700 1.905766e-42
41.28189800 25.61319900 474.34698000 0.34765401 -0.84969300 0.39643300 1.905766e-42
41.68560000 26.48340000 475.87000000 0.34359500 -0.85255498 0.39381701 1.905766e-42
41.85430100 27.29780000 477.46701000 0.33689299 -0.85478902 0.39476499 1.905766e-42
41.85920000 28.07930000 479.08801000 0.32964399 -0.85671699 0.39670101 1.905766e-42
