# .PCD v0.7 - Point Cloud Data file format
# 4 151 1
# 1 59 1
# 60 85 0
# 86 118 0
# 119 151 0
VERSION 0.7
FIELDS x y z normal_x normal_y normal_z curvature
SIZE 4 4 4 4 4 4 4
TYPE F F F F F F F
COUNT 1 1 1 1 1 1 1
WIDTH 151
HEIGHT 1
VIEWPOINT 0 0 0 1 0 0 0
POINTS 151
DATA ascii
31.73920100 69.55750300 358.10501000 0.17738999 0.19807000 -0.96400303 1.905766e-42
32.70439900 68.04149600 358.20599000 0.17566800 0.18755101 -0.96641898 1.905766e-42
33.00840000 66.36889600 357.61401000 0.17721701 0.17243899 -0.96894699 1.905766e-42
33.41989900 64.63530000 357.35800000 0.18189400 0.15641500 -0.97079802 1.905766e-42
34.38280100 63.12030000 357.49200000 0.19489500 0.14063101 -0.97069001 1.905766e-42
34.89939900 61.40919900 357.28000000 0.20658900 0.12360800 -0.97058898 1.905766e-42
35.10760100 59.64580200 356.98401000 0.21374699 0.10741800 -0.97096503 1.905766e-42
35.79869800 57.98389800 356.96399000 0.21471600 0.09345890 -0.97219503 1.905766e-42
36.57310100 56.36230100 357.06699000 0.21568801 0.08081250 -0.97311300 1.905766e-42
37.37699900 54.76929900 357.30399000 0.21747200 0.06874700 -0.97364199 1.905766e-42
37.54180100 52.99829900 357.02701000 0.21596900 0.05159910 -0.97503603 1.905766e-42
38.27399800 51.36880100 357.24701000 0.21918000 0.03526880 -0.97504699 1.905766e-42
38.39099900 49.58210000 357.06201000 0.21864800 0.01702040 -0.97565502 1.905766e-42
39.17310000 47.98979900 357.36700000 0.22608399 0.00168028 -0.97410601 1.905766e-42
39.68190000 46.26990100 357.51801000 0.23238000 -0.01451860 -0.97251701 1.905766e-42
40.05020100 44.50899900 357.57700000 0.23798800 -0.03023860 -0.97079700 1.905766e-42
40.61940000 42.83290100 357.90399000 0.23975299 -0.04408430 -0.96983302 1.905766e-42
40.75730100 41.03839900 357.87900000 0.23388900 -0.05758220 -0.97055697 1.905766e-42
41.34909800 39.38489900 358.27301000 0.21994200 -0.07301210 -0.97277701 1.905766e-42
41.63340000 37.61140100 358.39099000 0.21485800 -0.09017860 -0.97247303 1.905766e-42
41.24919900 35.85290100 358.39499000 0.21856600 -0.10712900 -0.96992397 1.905766e-42
42.01440000 34.27470000 358.79901000 0.21040200 -0.12226600 -0.96993899 1.905766e-42
42.55170100 32.59700000 359.16901000 0.20719901 -0.13844199 -0.96845400 1.905766e-42
42.39419900 30.80780000 359.28699000 0.20918600 -0.15436400 -0.96561497 1.905766e-42
43.04639800 29.21950000 359.82700000 0.20815800 -0.16939400 -0.96331501 1.905766e-42
43.18220100 27.44920000 360.12299000 0.21001700 -0.18745600 -0.95955902 1.905766e-42
43.57230000 25.76840000 360.63501000 0.21275599 -0.20560899 -0.95522797 1.905766e-42
43.84270100 21.50860000 361.59799000 0.22262400 -0.24738599 -0.94299400 1.905766e-42
44.18180100 19.85759900 362.23001000 0.22878399 -0.26381099 -0.93704897 1.905766e-42
44.01480100 18.10070000 362.58401000 0.23247799 -0.27856299 -0.93185699 1.905766e-42
44.41989900 16.52050000 363.34500000 0.24065401 -0.29400501 -0.92501199 1.905766e-42
44.48040000 14.79530000 363.85501000 0.24632400 -0.30991399 -0.91830099 1.905766e-42
44.68800000 13.14430000 364.54099000 0.25337899 -0.32562900 -0.91091400 1.905766e-42
44.77270100 11.45490000 365.15701000 0.25855100 -0.34063399 -0.90394700 1.905766e-42
44.76290100 9.76183990 365.76801000 0.26157501 -0.35504201 -0.89750999 1.905766e-42
44.79530000 8.11295990 366.48901000 0.26395601 -0.36898199 -0.89116699 1.905766e-42
44.65150100 6.42183020 367.08801000 0.26195601 -0.38273400 -0.88594198 1.905766e-42
44.69979900 4.81778000 367.90399000 0.26111001 -0.39584601 -0.88041300 1.905766e-42
44.56240100 3.15612010 368.58200000 0.25553599 -0.41073501 -0.87521303 1.905766e-42
44.30759800 1.49880000 369.23599000 0.24754000 -0.42662001 -0.86989599 1.905766e-42
44.06720000 -0.13722500 369.94800000 0.23938900 -0.44298899 -0.86397499 1.905766e-42
44.34700000 -1.56092000 371.01300000 0.23825499 -0.45718101 -0.85686600 1.905766e-42
44.04140100 -3.19829990 371.69501000 0.22895201 -0.47471800 -0.84983701 1.905766e-42
43.76219900 -4.79680010 372.47400000 0.22087499 -0.49242201 -0.84186399 1.905766e-42
43.78950100 -6.28499980 373.48599000 0.21696900 -0.50943899 -0.83270502 1.905766e-42
43.18059900 -7.86183980 374.10501000 0.20856901 -0.52140200 -0.82742900 1.905766e-42
43.12720100 -9.34337040 375.12601000 0.20467000 -0.53296602 -0.82100999 1.905766e-42
42.32280000 -10.76490000 375.88199000 0.19593000 -0.54622602 -0.81440097 1.905766e-42
40.68859900 -11.51290000 375.98300000 0.18429200 -0.55456501 -0.81147701 1.905766e-42
39.31010100 -12.56620000 376.46201000 0.17432800 -0.56511801 -0.80638099 1.905766e-42
39.09289900 -14.01470000 377.50900000 0.17236000 -0.57953697 -0.79651099 1.905766e-42
38.35670100 -15.43850000 378.32800000 0.16815600 -0.59349102 -0.78707802 1.905766e-42
38.21960100 -16.84180100 379.44699000 0.16858000 -0.60936397 -0.77476197 1.905766e-42
37.61539800 -18.27170000 380.35800000 0.16687100 -0.62395698 -0.76343501 1.905766e-42
37.54530000 -19.62730000 381.54001000 0.16771500 -0.63756400 -0.75191998 1.905766e-42
36.97280100 -21.00330000 382.54901000 0.16610500 -0.64895099 -0.74247700 1.905766e-42
36.77650100 -22.36610000 383.70901000 0.16570400 -0.65958703 -0.73313498 1.905766e-42
36.49319800 -23.69409900 384.89001000 0.16442400 -0.66910899 -0.72474700 1.905766e-42
36.01229900 -25.01009900 386.01999000 0.16159999 -0.67778802 -0.71727800 1.905766e-42
35.17610200 -26.25280000 387.01901000 0.15563600 -0.68603700 -0.71072501 1.905766e-42
33.50270100 -26.89410000 387.18701000 0.10973600 -0.69353402 -0.71201700 1.905766e-42
31.82510000 -26.51330000 386.65799000 0.06564260 -0.69239098 -0.71853000 1.905766e-42
30.03900000 -26.41710100 386.45599000 0.02597360 -0.68972701 -0.72360402 1.905766e-42
28.45480000 -25.78319900 385.88300000 -0.00725315 -0.68087602 -0.73236299 1.905766e-42
26.67270100 -25.63320000 385.67899000 -0.03941700 -0.67274803 -0.73882103 1.905766e-42
24.90049900 -25.32630000 385.60699000 -0.07093570 -0.66459799 -0.74382597 1.905766e-42
23.15550000 -24.91720000 385.44101000 -0.10167500 -0.65587997 -0.74798697 1.905766e-42
21.37669900 -24.65770000 385.53201000 -0.13126500 -0.64842898 -0.74987298 1.905766e-42
19.67660000 -24.10220000 385.32901000 -0.14941300 -0.64019799 -0.75353998 1.905766e-42
18.04660000 -23.36850000 385.11801000 -0.15584500 -0.63337898 -0.75798702 1.905766e-42
16.46010000 -22.57980000 384.79999000 -0.16146500 -0.62715799 -0.76197302 1.905766e-42
14.68000000 -22.40630000 385.00299000 -0.16603500 -0.62517798 -0.76261699 1.905766e-42
12.91130000 -22.33639900 385.32901000 -0.17050500 -0.62465698 -0.76205701 1.905766e-42
11.29120000 -21.59230000 385.07999000 -0.19586200 -0.61758602 -0.76172501 1.905766e-42
9.58959010 -21.00650000 385.11499000 -0.22552900 -0.60986900 -0.75973397 1.905766e-42
8.11388970 -20.01899900 384.82001000 -0.25314501 -0.59912401 -0.75958401 1.905766e-42
6.39840980 -19.99399900 385.36401000 -0.28294700 -0.59239399 -0.75432801 1.905766e-42
4.73724990 -19.99539900 386.05801000 -0.31191501 -0.58515298 -0.74853599 1.905766e-42
3.05850010 -19.38649900 386.28400000 -0.34347901 -0.57264698 -0.74437702 1.905766e-42
1.39435990 -18.83060100 386.68600000 -0.37524900 -0.55952603 -0.73899901 1.905766e-42
-0.13975500 -18.97090000 387.61700000 -0.40207201 -0.55106300 -0.73120999 1.905766e-42
-1.75460000 -18.76230000 388.38400000 -0.43184000 -0.53912902 -0.72308600 1.905766e-42
-3.35089990 -18.45690000 389.15799000 -0.45658201 -0.52750701 -0.71642798 1.905766e-42
-4.65062000 -18.47130000 390.40302000 -0.47729701 -0.51861697 -0.70938200 1.905766e-42
-6.31106000 -17.99539900 390.90900000 -0.50428897 -0.50196600 -0.70265400 1.905766e-42
-7.90322020 -17.55180000 391.62201000 -0.53072399 -0.48405501 -0.69571698 1.905766e-42
-8.53557970 -15.89650000 391.30499000 -0.53767401 -0.47300401 -0.69797897 1.905766e-42
-8.71247960 -14.49460000 390.19000000 -0.54425001 -0.46501800 -0.69824803 1.905766e-42
-9.34899040 -12.90800000 389.62701000 -0.54643703 -0.45644099 -0.70218801 1.905766e-42
-9.44979000 -11.34740000 388.73599000 -0.54937702 -0.44776300 -0.70547402 1.905766e-42
-9.57252980 -9.76016040 387.89600000 -0.55075097 -0.43802300 -0.71049899 1.905766e-42
-10.05170000 -8.11229040 387.35300000 -0.55024701 -0.42901200 -0.71636301 1.905766e-42
-9.67078020 -6.79005000 386.19199000 -0.55214500 -0.42079201 -0.71977103 1.905766e-42
-10.22760000 -5.18490980 385.59799000 -0.55222797 -0.41315499 -0.72411799 1.905766e-42
-10.50200000 -3.55056000 384.89499000 -0.55305600 -0.40550199 -0.72780299 1.905766e-42
-10.39620000 -1.99788000 383.99100000 -0.55412602 -0.39837199 -0.73092002 1.905766e-42
-10.36960000 -0.45317501 383.06699000 -0.55492902 -0.39167500 -0.73392397 1.905766e-42
-10.34830000 1.13396000 382.21799000 -0.55551600 -0.38538399 -0.73680502 1.905766e-42
-9.86460970 2.51812010 381.17401000 -0.55513799 -0.37603101 -0.74190402 1.905766e-42
-9.69209000 4.08754010 380.31000000 -0.55514503 -0.36572301 -0.74703503 1.905766e-42
-9.83798030 5.76848980 379.68301000 -0.55586499 -0.35513899 -0.75159198 1.905766e-42
-10.21310000 7.47506000 379.25000000 -0.55675101 -0.34491399 -0.75568700 1.905766e-42
-10.26570000 9.08942990 378.45599000 -0.55639398 -0.33485001 -0.76046097 1.905766e-42
-9.84243970 10.53520000 377.47101000 -0.55532199 -0.32526001 -0.76539099 1.905766e-42
-10.13930000 12.23180000 376.94800000 -0.55384499 -0.31624901 -0.77022201 1.905766e-42
-9.63391020 13.70520000 376.04599000 -0.55266798 -0.30788100 -0.77444601 1.905766e-42
-10.07370000 15.45040000 376.01700000 -0.54909599 -0.30243900 -0.77911800 1.905766e-42
-10.23400000 17.08770000 375.28699000 -0.54606998 -0.29536900 -0.78394198 1.905766e-42
-10.22150000 18.70319900 374.49301000 -0.54357398 -0.28784800 -0.78846103 1.905766e-42
-10.27920000 20.39130000 373.87100000 -0.54044002 -0.28070199 -0.79317802 1.905766e-42
-10.37900000 22.10920000 373.34299000 -0.53683102 -0.27378500 -0.79803097 1.905766e-42
-10.39780000 23.82379900 372.79501000 -0.53365803 -0.26652899 -0.80260301 1.905766e-42
-10.81970000 25.57360100 372.79700000 -0.52727801 -0.26261500 -0.80809098 1.905766e-42
-10.86610000 27.26420000 372.17999000 -0.52494699 -0.25730199 -0.81131202 1.905766e-42
-11.07800000 28.97860000 371.67401000 -0.52238101 -0.25139901 -0.81481099 1.905766e-42
-11.32360000 30.71349900 371.26199000 -0.52069700 -0.24404199 -0.81811899 1.905766e-42
-11.68660000 32.45399900 370.98199000 -0.51993197 -0.23460200 -0.82135999 1.905766e-42
-11.92930000 34.20290000 370.63199000 -0.52243900 -0.22217301 -0.82322299 1.905766e-42
-11.98230000 35.93940000 370.16101000 -0.52895498 -0.20734100 -0.82293200 1.905766e-42
-10.88820000 37.11809900 369.35199000 -0.53974497 -0.20192400 -0.81725299 1.905766e-42
-9.82061960 38.10780000 368.29401000 -0.54709500 -0.19883300 -0.81311297 1.905766e-42
-8.63313960 39.03010200 367.30399000 -0.54931200 -0.19265500 -0.81310499 1.905766e-42
-7.38473990 39.86330000 366.31000000 -0.54701000 -0.18332399 -0.81680602 1.905766e-42
-6.18830010 40.69760100 365.25601000 -0.54073799 -0.17051300 -0.82372802 1.905766e-42
-4.99373010 41.55670200 364.21899000 -0.53094703 -0.15484600 -0.83313799 1.905766e-42
-4.01344010 42.81079900 363.37799000 -0.51770502 -0.13598099 -0.84468400 1.905766e-42
-3.04434990 44.16280000 362.69101000 -0.48722500 -0.12055100 -0.86491603 1.905766e-42
-2.04373000 45.50140000 362.02200000 -0.45164299 -0.10476800 -0.88602602 1.905766e-42
-0.69438499 46.38620000 361.22501000 -0.40472600 -0.09232220 -0.90976602 1.905766e-42
0.51238000 47.56380100 360.59399000 -0.36286700 -0.07869080 -0.92851198 1.905766e-42
1.55432000 48.96590000 360.16000000 -0.32708901 -0.06337540 -0.94286603 1.905766e-42
2.98084000 49.92200100 359.62100000 -0.28290701 -0.05019770 -0.95783299 1.905766e-42
4.07983020 51.31760000 359.32999000 -0.24952200 -0.03465280 -0.96774900 1.905766e-42
5.43802020 52.45069900 358.99701000 -0.22483900 -0.01884350 -0.97421402 1.905766e-42
6.70593020 53.66759900 358.60699000 -0.20684700 -0.00384548 -0.97836602 1.905766e-42
7.86258980 55.01929900 358.33301000 -0.19448499 0.01032010 -0.98085099 1.905766e-42
9.43428040 55.86719900 358.10800000 -0.18467601 0.01777880 -0.98263901 1.905766e-42
10.77870000 57.04480000 357.89301000 -0.18173000 0.02524710 -0.98302400 1.905766e-42
12.04580000 58.31359900 357.73599000 -0.18420200 0.02041310 -0.98267603 1.905766e-42
13.59600000 59.17580000 357.43100000 -0.18278299 0.01587350 -0.98302501 1.905766e-42
15.20400000 59.89690000 357.06400000 -0.17658401 0.01742970 -0.98413098 1.905766e-42
16.71800000 60.83440000 356.80200000 -0.16639100 0.02477180 -0.98574901 1.905766e-42
17.76600100 62.29779800 356.78601000 -0.15110900 0.03510050 -0.98789400 1.905766e-42
19.41910000 62.95140100 356.50299000 -0.13199700 0.05162690 -0.98990500 1.905766e-42
21.01650000 63.77489900 356.40201000 -0.10210900 0.07223410 -0.99214703 1.905766e-42
22.50690100 64.78320300 356.44501000 -0.04671150 0.09226800 -0.99463803 1.905766e-42
24.19500000 65.40799700 356.44199000 0.01102920 0.11346800 -0.99348003 1.905766e-42
25.54840100 66.58039900 356.62601000 0.06242500 0.13458200 -0.98893398 1.905766e-42
26.87570000 67.75720200 356.93201000 0.10922900 0.15474600 -0.98189801 1.905766e-42
28.45770100 68.53739900 357.29099000 0.15190400 0.17237200 -0.97324902 1.905766e-42
30.01499900 69.37750200 357.62000000 0.17466100 0.18816701 -0.96648198 1.905766e-42
