# .PCD v0.7 - Point Cloud Data file format
# 5 125 0
# 1 16 0
# 17 48 0
# 49 66 0
# 67 88 0
# 89 125 0
VERSION 0.7
FIELDS x y z normal_x normal_y normal_z curvature
SIZE 4 4 4 4 4 4 4
TYPE F F F F F F F
COUNT 1 1 1 1 1 1 1
WIDTH 125
HEIGHT 1
VIEWPOINT 0 0 0 1 0 0 0
POINTS 125
DATA ascii
58.56729900 -2.39039990 439.04300000 0.31725699 -0.64617097 0.69412601 1.905766e-42
59.11930100 -2.16751000 438.39899000 0.31678700 -0.61748302 0.71997303 1.905766e-42
59.66149900 -0.92199302 439.57999000 0.40128899 -0.61969900 0.67449301 1.905766e-42
59.40729900 0.19747700 440.96600000 0.45146301 -0.73244101 0.50961900 1.905766e-42
59.21789900 0.96993202 442.58099000 0.45837399 -0.82986200 0.31815401 1.905766e-42
59.70309800 1.58115010 444.20300000 0.43922800 -0.88412797 0.15936100 1.905766e-42
60.61980100 2.30387000 445.57300000 0.42458299 -0.90180397 0.08048570 1.905766e-42
60.69329800 2.45949010 447.36499000 0.44660899 -0.88646400 0.12133600 1.905766e-42
60.76630000 2.79654000 449.13199000 0.46413201 -0.86758500 0.17854500 1.905766e-42
60.80090000 3.15391990 450.89600000 0.47606900 -0.84334499 0.24925400 1.905766e-42
61.31930200 3.99679990 452.39899000 0.47778001 -0.82448900 0.30322301 1.905766e-42
61.45740100 4.78899000 454.01001000 0.47193000 -0.81372899 0.33930400 1.905766e-42
61.51250100 5.56717010 455.63199000 0.46953300 -0.80045599 0.37256899 1.905766e-42
61.42540000 6.32213020 457.26300000 0.47092399 -0.78220999 0.40789399 1.905766e-42
61.92829900 7.43646000 458.58499000 0.48295599 -0.74438697 0.46113101 1.905766e-42
62.26630000 8.52147960 459.98001000 0.48676699 -0.70383102 0.51737797 1.905766e-42
61.65580000 9.36481000 461.44901000 0.47754899 -0.67123097 0.56691802 1.905766e-42
60.18259800 8.99456980 462.41400000 0.46938401 -0.65421402 0.59302801 1.905766e-42
58.80569800 9.16528990 463.56100000 0.44497201 -0.66007799 0.60522503 1.905766e-42
57.25730100 8.82335000 464.41299000 0.42370000 -0.64992499 0.63093197 1.905766e-42
55.66960100 8.68715000 465.25000000 0.39315799 -0.64707798 0.65323597 1.905766e-42
54.25260200 8.96897030 466.32401000 0.35824701 -0.65816802 0.66217399 1.905766e-42
52.61109900 8.86444000 467.05499000 0.32991001 -0.65315801 0.68157399 1.905766e-42
50.95410200 8.80461030 467.75500000 0.30153400 -0.64898598 0.69849497 1.905766e-42
49.32329900 8.77495000 468.51700000 0.27265501 -0.64723301 0.71186203 1.905766e-42
47.60120000 8.73989010 469.03900000 0.24495301 -0.64318597 0.72547197 1.905766e-42
45.89580200 8.75961020 469.61499000 0.22143801 -0.64322501 0.73295701 1.905766e-42
44.15029900 8.77826980 470.05399000 0.19687700 -0.64791697 0.73582900 1.905766e-42
42.55369900 9.33145050 470.67401000 0.17625000 -0.64501399 0.74356800 1.905766e-42
40.84149900 9.09817980 471.17801000 0.15096000 -0.64927298 0.74542302 1.905766e-42
39.17900100 9.44439980 471.77499000 0.12785600 -0.64744300 0.75131297 1.905766e-42
37.63420100 10.02730000 472.49200000 0.10684200 -0.64204800 0.75918299 1.905766e-42
35.94220000 10.39560000 472.98300000 0.07567210 -0.63810003 0.76622599 1.905766e-42
34.52450200 11.14380000 473.80200000 0.04687160 -0.62962300 0.77548599 1.905766e-42
32.95340000 11.80300000 474.38300000 0.01673580 -0.62061000 0.78394097 1.905766e-42
31.45789900 12.64030000 474.93301000 -0.01180630 -0.60998601 0.79232502 1.905766e-42
29.66530000 12.74220000 475.06000000 -0.04206140 -0.60419601 0.79572499 1.905766e-42
27.98850100 13.31950000 475.36801000 -0.07123630 -0.59498203 0.80057597 1.905766e-42
26.25120000 13.76780000 475.51300000 -0.09680220 -0.58850199 0.80268002 1.905766e-42
24.50650000 14.20390000 475.58899000 -0.12231300 -0.58299702 0.80321503 1.905766e-42
22.90749900 14.99880000 475.81601000 -0.14699300 -0.57503903 0.80481303 1.905766e-42
21.40980000 15.89280000 476.26001000 -0.17047299 -0.56615603 0.80647802 1.905766e-42
20.61660000 17.39399900 476.85800000 -0.18402600 -0.55547398 0.81091499 1.905766e-42
20.16099900 18.98630000 477.56299000 -0.19290800 -0.54593301 0.81531799 1.905766e-42
19.02160100 20.15660100 478.31900000 -0.21120501 -0.53686500 0.81680399 1.905766e-42
17.82840000 21.35000000 478.94501000 -0.22754800 -0.52930701 0.81734699 1.905766e-42
16.56270000 22.56870100 479.33600000 -0.24550000 -0.52287799 0.81628901 1.905766e-42
15.33160000 23.82760000 479.70999000 -0.26366800 -0.51788098 0.81380498 1.905766e-42
13.91780000 24.92590000 479.89600000 -0.28612500 -0.51475698 0.80818200 1.905766e-42
12.21150000 25.28930100 479.45300000 -0.31619900 -0.51018101 0.79983401 1.905766e-42
10.49390000 25.41400000 478.92899000 -0.34502700 -0.50159901 0.79331899 1.905766e-42
8.81636050 25.45010000 478.27701000 -0.36110699 -0.49418399 0.79081202 1.905766e-42
7.14014010 25.79180000 477.71799000 -0.37508300 -0.48533401 0.78978699 1.905766e-42
5.47392990 25.83149900 477.03799000 -0.38653401 -0.47066799 0.79313499 1.905766e-42
3.81874990 26.21030000 476.44000000 -0.40050101 -0.45445901 0.79565501 1.905766e-42
2.45134000 27.18149900 475.78699000 -0.41974500 -0.44261199 0.79240698 1.905766e-42
1.00260000 26.46060000 474.99899000 -0.44929099 -0.45565599 0.76844901 1.905766e-42
-0.58912098 26.84230000 474.25000000 -0.48506999 -0.45912299 0.74425298 1.905766e-42
-2.11660000 27.33110000 473.43201000 -0.52223700 -0.45713800 0.71992600 1.905766e-42
-3.59243010 28.27710000 473.02399000 -0.55127603 -0.44475600 0.70589399 1.905766e-42
-4.97310020 29.26740100 472.42999000 -0.57619202 -0.43471700 0.69211501 1.905766e-42
-6.35704990 30.21740000 471.78000000 -0.59768498 -0.42615101 0.67909402 1.905766e-42
-7.65999980 31.33589900 471.23999000 -0.61459899 -0.41562700 0.67046398 1.905766e-42
-9.05175020 32.25890000 470.56900000 -0.62966800 -0.40704200 0.66169101 1.905766e-42
-10.41220000 32.33750200 469.39301000 -0.64239901 -0.40873501 0.64827400 1.905766e-42
-11.70440000 32.39270000 468.14099000 -0.65476698 -0.41196400 0.63369298 1.905766e-42
-12.50640000 31.52879900 466.78000000 -0.66260898 -0.42298600 0.61808699 1.905766e-42
-13.18590000 30.67560000 465.34799000 -0.66863501 -0.43227500 0.60503399 1.905766e-42
-13.80450000 29.62229900 464.02600000 -0.67106098 -0.44244701 0.59491003 1.905766e-42
-13.62930000 28.15370000 463.00101000 -0.66907603 -0.45846000 0.58493698 1.905766e-42
-12.99390000 26.56500100 462.44199000 -0.66484803 -0.47518000 0.57635099 1.905766e-42
-12.84840000 25.10570000 461.39801000 -0.66272599 -0.49130899 0.56516302 1.905766e-42
-12.22530000 23.55240100 460.73499000 -0.65745503 -0.50642598 0.55792999 1.905766e-42
-11.85770000 22.14860000 459.67001000 -0.65377802 -0.52190500 0.54789501 1.905766e-42
-11.32160000 20.75840000 458.66101000 -0.64996201 -0.53785998 0.53689402 1.905766e-42
-10.64150000 19.12290000 458.34000000 -0.64458299 -0.55247903 0.52846903 1.905766e-42
-9.88893990 17.62669900 457.68100000 -0.63966298 -0.56659698 0.51942098 1.905766e-42
-9.16182990 16.17030000 456.91199000 -0.63472003 -0.57928097 0.51143301 1.905766e-42
-8.23437020 14.72610000 456.37000000 -0.62443101 -0.59582502 0.50505197 1.905766e-42
-8.14875030 13.54700000 455.01300000 -0.62228698 -0.61165202 0.48850900 1.905766e-42
-8.00485040 12.30860000 453.71399000 -0.61815298 -0.62995398 0.47015399 1.905766e-42
-7.86095000 11.29850000 452.23099000 -0.61627102 -0.65087003 0.44337100 1.905766e-42
-7.82501980 10.20440000 450.80200000 -0.61563098 -0.67115998 0.41296801 1.905766e-42
-7.74836020 9.24215030 449.28299000 -0.61685801 -0.68956298 0.37945899 1.905766e-42
-7.32751990 8.21368980 447.86700000 -0.61173397 -0.70066702 0.36721399 1.905766e-42
-6.80660010 7.03709980 446.60800000 -0.60129499 -0.71194202 0.36274299 1.905766e-42
-5.73114010 5.87117000 445.75800000 -0.59266597 -0.72649097 0.34779000 1.905766e-42
-4.49537990 4.57048990 445.61200000 -0.58902800 -0.73851699 0.32808301 1.905766e-42
-3.34834000 3.43656990 444.81299000 -0.57279301 -0.76300901 0.29954001 1.905766e-42
-2.15962000 2.28064990 444.11301000 -0.54720199 -0.79355103 0.26617101 1.905766e-42
-0.85398000 1.24925990 443.42599000 -0.52345800 -0.81971598 0.23250300 1.905766e-42
0.43877301 0.44561601 442.46500000 -0.50251299 -0.84170198 0.19753000 1.905766e-42
1.85318990 -0.48246300 443.07999000 -0.48550901 -0.85061097 0.20184501 1.905766e-42
3.36307000 -1.45715000 443.18100000 -0.46328801 -0.86329103 0.20023300 1.905766e-42
5.05522010 -2.07079010 443.18900000 -0.43189999 -0.87914300 0.20141900 1.905766e-42
6.67814020 -2.84929990 443.19601000 -0.39355901 -0.89714497 0.20060700 1.905766e-42
8.30346010 -3.62234000 443.16800000 -0.35580999 -0.91325998 0.19838300 1.905766e-42
9.99026970 -4.25013020 443.19101000 -0.31883299 -0.92705899 0.19724700 1.905766e-42
11.56050000 -4.85231020 442.54999000 -0.28548601 -0.94097602 0.18183000 1.905766e-42
13.28660000 -5.34187980 442.40601000 -0.25097200 -0.95173299 0.17668200 1.905766e-42
15.02410000 -5.81199980 442.39200000 -0.21840800 -0.96007597 0.17479099 1.905766e-42
16.63800000 -6.09446000 441.64700000 -0.18813300 -0.96910000 0.15953200 1.905766e-42
18.35750000 -6.62392000 441.59299000 -0.15187401 -0.97557497 0.15870599 1.905766e-42
20.05769900 -6.78450010 441.02399000 -0.11503700 -0.98192400 0.15030500 1.905766e-42
21.82729900 -7.05515000 440.83600000 -0.07337700 -0.98623902 0.14815100 1.905766e-42
23.57099900 -7.16383980 440.40302000 -0.03033010 -0.98929900 0.14271800 1.905766e-42
25.34730000 -7.29860020 440.14499000 0.00172727 -0.98987103 0.14195800 1.905766e-42
27.14259900 -7.25089980 440.02301000 0.02628560 -0.98938298 0.14293100 1.905766e-42
28.94030000 -7.16490980 439.99100000 0.05219980 -0.98882902 0.13961300 1.905766e-42
30.73259900 -6.99869010 439.99799000 0.07846720 -0.98844302 0.12970200 1.905766e-42
32.38679900 -6.74615000 439.33499000 0.10853600 -0.98449200 0.13782699 1.905766e-42
34.16780100 -6.52513980 439.19601000 0.13793799 -0.98242903 0.12572300 1.905766e-42
35.95650100 -6.32399990 439.18701000 0.12208400 -0.98577499 0.11551200 1.905766e-42
37.72779800 -6.37297010 439.50299000 0.08762000 -0.99216300 0.08907710 1.905766e-42
39.47800100 -6.33129980 439.92099000 0.08382580 -0.98784202 0.13092600 1.905766e-42
41.26990100 -6.16546010 439.96201000 0.08062040 -0.98054898 0.17895301 1.905766e-42
43.06470100 -6.02998020 439.94800000 0.08778910 -0.96732402 0.23785900 1.905766e-42
44.86190000 -5.93413020 439.97900000 0.11123300 -0.94411701 0.31027600 1.905766e-42
46.58570100 -5.41588020 439.98001000 0.15922700 -0.90455002 0.39552099 1.905766e-42
48.37710200 -5.23989010 439.97101000 0.20223400 -0.84541303 0.49434701 1.905766e-42
50.10940200 -4.75119020 439.98401000 0.24766400 -0.77614802 0.57987702 1.905766e-42
51.77220200 -4.12298010 440.26801000 0.26729301 -0.78005201 0.56575102 1.905766e-42
53.51030000 -4.00759980 439.81400000 0.26469901 -0.74024600 0.61803699 1.905766e-42
55.18880100 -3.35776000 439.80701000 0.28088900 -0.73035800 0.62263799 1.905766e-42
56.88240100 -2.93331000 439.36899000 0.29257900 -0.69124800 0.66073698 1.905766e-42
