# .PCD v0.7 - Point Cloud Data file format
# 3 105 0
# 1 41 0
# 42 62 0
# 63 105 0
VERSION 0.7
FIELDS x y z normal_x normal_y normal_z curvature
SIZE 4 4 4 4 4 4 4
TYPE F F F F F F F
COUNT 1 1 1 1 1 1 1
WIDTH 105
HEIGHT 1
VIEWPOINT 0 0 0 1 0 0 0
POINTS 105
DATA ascii
7.05536990 33.02579900 515.91400000 -0.06270630 -0.57178199 0.81800598 1.905766e-42
5.41275980 32.59400200 515.31799000 -0.09040020 -0.59152800 0.80120099 1.905766e-42
4.79849000 31.22470100 514.32397000 -0.12215500 -0.60853499 0.78406799 1.905766e-42
3.70214010 30.24490000 513.28601000 -0.16042900 -0.62738299 0.76200598 1.905766e-42
3.10131000 28.98270000 512.15198000 -0.19468699 -0.64041299 0.74294502 1.905766e-42
3.05209990 27.61960000 510.97699000 -0.21550500 -0.64924902 0.72940600 1.905766e-42
1.82142000 26.92030000 509.86499000 -0.23286000 -0.66139197 0.71297699 1.905766e-42
1.57232000 25.60339900 508.66400000 -0.24260201 -0.67021000 0.70140100 1.905766e-42
1.06131990 24.46670000 507.36499000 -0.25071701 -0.67913699 0.68986499 1.905766e-42
0.26299199 23.51260000 506.06400000 -0.25941300 -0.68669301 0.67908603 1.905766e-42
0.03079830 22.30290000 504.75201000 -0.26634300 -0.69267702 0.67026800 1.905766e-42
-0.94766402 21.54210100 503.44601000 -0.27762201 -0.69758999 0.66052598 1.905766e-42
-1.43837000 20.42009900 502.12701000 -0.28690499 -0.70440602 0.64922899 1.905766e-42
-1.72294000 19.27689900 500.76599000 -0.29464501 -0.71626198 0.63257700 1.905766e-42
-2.37903000 18.32250000 499.38800000 -0.29143399 -0.72972900 0.61851603 1.905766e-42
-2.93159010 17.38050100 497.95700000 -0.28987801 -0.74236399 0.60404199 1.905766e-42
-3.59864000 16.60290000 496.47699000 -0.28869900 -0.75398803 0.59004700 1.905766e-42
-3.92774010 15.56320000 495.04501000 -0.29103899 -0.76344299 0.57658601 1.905766e-42
-3.95688010 14.46680000 493.61801000 -0.29503101 -0.77095801 0.56443000 1.905766e-42
-4.43416020 13.57350000 492.13000000 -0.29773799 -0.77865201 0.55231702 1.905766e-42
-4.43574000 12.52090000 490.67001000 -0.30309799 -0.78480399 0.54056901 1.905766e-42
-5.19334980 11.83140000 489.19000000 -0.30974001 -0.79156500 0.52677000 1.905766e-42
-5.35079000 10.88980000 487.66400000 -0.31892800 -0.79945600 0.50907302 1.905766e-42
-5.31371020 9.92978000 486.14200000 -0.32718000 -0.80838001 0.48936099 1.905766e-42
-5.24133010 8.97949980 484.61499000 -0.33393100 -0.81679499 0.47046399 1.905766e-42
-5.35764980 8.20438960 482.99399000 -0.34054500 -0.82460898 0.45171800 1.905766e-42
-4.91831020 7.19810010 481.60300000 -0.33889201 -0.83311403 0.43711901 1.905766e-42
-4.90041020 6.40070010 479.98901000 -0.33939299 -0.84002000 0.42329600 1.905766e-42
-4.03094010 5.41186000 478.76199000 -0.33025801 -0.84880501 0.41286701 1.905766e-42
-3.42445990 4.50175000 477.33200000 -0.32312500 -0.85772002 0.39988199 1.905766e-42
-3.23461010 3.71387000 475.72501000 -0.31964099 -0.86588699 0.38479799 1.905766e-42
-2.37266990 2.83737990 474.41000000 -0.31082499 -0.87484300 0.37153399 1.905766e-42
-1.67004000 1.99126990 472.98499000 -0.30492401 -0.88003200 0.36409500 1.905766e-42
-0.87768102 1.11991000 471.62399000 -0.29884300 -0.88550001 0.35578501 1.905766e-42
-0.23102801 0.31137899 470.15201000 -0.29517201 -0.89084399 0.34535599 1.905766e-42
0.47336900 -0.38333300 468.64801000 -0.29321599 -0.89609998 0.33320901 1.905766e-42
1.64852000 -1.21032000 467.56400000 -0.29067999 -0.89961702 0.32587501 1.905766e-42
2.35533000 -1.99299000 466.10501000 -0.28993601 -0.90321302 0.31645501 1.905766e-42
3.17705010 -2.74527000 464.69101000 -0.28599900 -0.90735602 0.30807501 1.905766e-42
3.61771010 -3.41979000 463.08200000 -0.27819201 -0.91206002 0.30125800 1.905766e-42
4.48865990 -4.11747980 461.67001000 -0.25885001 -0.91981697 0.29484400 1.905766e-42
5.98374990 -4.70949980 460.86099000 -0.22181100 -0.93226999 0.28578499 1.905766e-42
7.60889010 -5.04372980 461.55899000 -0.19677199 -0.93939197 0.28075400 1.905766e-42
9.26212980 -5.03880980 462.27100000 -0.17597701 -0.94383299 0.27966300 1.905766e-42
11.05320000 -4.90958020 462.39401000 -0.15746400 -0.94770098 0.27761301 1.905766e-42
11.53250000 -4.74078990 464.12100000 -0.15306900 -0.94427502 0.29140201 1.905766e-42
12.66590000 -4.35461000 465.46500000 -0.13977900 -0.94228297 0.30424401 1.905766e-42
13.48310000 -4.16752000 467.05801000 -0.12986800 -0.93852502 0.31985101 1.905766e-42
15.10340000 -4.02440020 467.82901000 -0.11489800 -0.93848097 0.32565701 1.905766e-42
16.61540000 -3.79187990 468.77701000 -0.10748700 -0.93684500 0.33281800 1.905766e-42
18.23230000 -3.84647990 469.56601000 -0.09775050 -0.93567401 0.33905700 1.905766e-42
19.91070000 -3.61940000 470.17599000 -0.08693950 -0.93379599 0.34708300 1.905766e-42
21.68899900 -3.85085010 470.32999000 -0.06424920 -0.93361300 0.35247600 1.905766e-42
23.36920000 -3.76676010 470.97000000 -0.03951260 -0.93104601 0.36275700 1.905766e-42
25.16500100 -3.78937010 471.09100000 -0.01342260 -0.93004203 0.36720899 1.905766e-42
26.96320000 -3.76347990 471.16699000 0.00946299 -0.92855400 0.37107599 1.905766e-42
28.76240000 -3.71168990 471.18500000 0.02780420 -0.92584902 0.37686801 1.905766e-42
30.43720100 -3.90887000 470.55600000 0.04042220 -0.92455101 0.37890801 1.905766e-42
32.13670000 -4.01135020 469.97198000 0.05374590 -0.92298901 0.38105401 1.905766e-42
33.90340000 -3.97624990 469.62900000 0.11439100 -0.91496497 0.38698101 1.905766e-42
35.69730000 -3.83303000 469.59000000 0.19278400 -0.90039200 0.39003700 1.905766e-42
37.32930000 -3.64008000 468.85599000 0.28523499 -0.87907201 0.38193300 1.905766e-42
38.71770100 -2.70333000 469.51501000 0.33457500 -0.86326897 0.37792301 1.905766e-42
39.29940000 -1.51593010 470.73599000 0.34988299 -0.85728103 0.37769300 1.905766e-42
39.33969900 -0.97328502 472.45200000 0.33919200 -0.85859698 0.38439700 1.905766e-42
39.98740000 -0.32920399 474.00299000 0.33816499 -0.85759199 0.38753000 1.905766e-42
40.28480100 0.43847600 475.60400000 0.32301399 -0.84886599 0.41843599 1.905766e-42
40.81679900 1.45481000 476.99100000 0.32120100 -0.83777797 0.44154099 1.905766e-42
40.83470200 2.26082990 478.60001000 0.31023300 -0.82671499 0.46935901 1.905766e-42
41.10969900 3.29011990 480.05099000 0.30816299 -0.81492102 0.49085599 1.905766e-42
41.03490100 4.20671990 481.59900000 0.30150500 -0.80532700 0.51043499 1.905766e-42
41.35440100 5.30497980 482.98801000 0.30228499 -0.79478198 0.52625602 1.905766e-42
41.06029900 6.15729000 484.54599000 0.29507101 -0.78561997 0.54381502 1.905766e-42
41.25479900 7.27285000 485.94601000 0.29473901 -0.77542597 0.55843002 1.905766e-42
40.89870100 8.19730000 487.44800000 0.28821301 -0.76717597 0.57303900 1.905766e-42
40.82569900 9.25181010 488.90500000 0.28410801 -0.75992602 0.58463198 1.905766e-42
40.59890000 10.32450000 490.33301000 0.27781400 -0.75298601 0.59651703 1.905766e-42
40.05749900 11.25350000 491.77600000 0.26867801 -0.74619699 0.60909897 1.905766e-42
39.93170200 12.36980000 493.18301000 0.26225600 -0.73904699 0.62050903 1.905766e-42
39.42490000 13.38820000 494.57800000 0.25336701 -0.73117501 0.63339400 1.905766e-42
38.79079800 14.36010000 495.95401000 0.24451999 -0.72198802 0.64725798 1.905766e-42
38.36010000 15.47870000 497.29700000 0.23748000 -0.71181202 0.66100401 1.905766e-42
37.73930000 16.54630100 498.60599000 0.23060900 -0.70088798 0.67496300 1.905766e-42
36.93700000 17.52269900 499.88800000 0.22440401 -0.68949199 0.68865401 1.905766e-42
36.50849900 18.73240100 501.14999000 0.22014201 -0.67881799 0.70053101 1.905766e-42
35.63200000 19.65850100 502.42099000 0.21420100 -0.66884601 0.71187299 1.905766e-42
34.70880100 20.71240000 503.55099000 0.20726199 -0.65760702 0.72429001 1.905766e-42
33.58900100 21.55820100 504.67801000 0.19986600 -0.64532697 0.73729700 1.905766e-42
32.26459900 22.26269900 505.67300000 0.19296201 -0.63213998 0.75044298 1.905766e-42
30.88890100 22.95550000 506.60400000 0.18140700 -0.62059599 0.76285797 1.905766e-42
29.90300000 24.02870000 507.66101000 0.17339200 -0.60724002 0.77536702 1.905766e-42
28.45070100 24.65770000 508.51801000 0.16915600 -0.59618700 0.78482300 1.905766e-42
27.35030000 25.74609900 509.43701000 0.16791600 -0.58183497 0.79578400 1.905766e-42
25.87089900 26.34620100 510.26801000 0.17096500 -0.57129502 0.80274099 1.905766e-42
24.94759900 27.64170100 511.11099000 0.16459100 -0.55712599 0.81395400 1.905766e-42
23.68300100 28.61030000 511.94901000 0.14518400 -0.55514401 0.81898499 1.905766e-42
22.03879900 28.90940100 512.61700000 0.11653900 -0.55786502 0.82170898 1.905766e-42
20.26320100 28.79579900 512.89001000 0.08693140 -0.56221700 0.82240802 1.905766e-42
18.74150100 29.52400000 513.51801000 0.06711000 -0.55920899 0.82630599 1.905766e-42
17.25970100 30.32950000 514.14697000 0.05140190 -0.55500102 0.83025998 1.905766e-42
15.61500000 31.03599900 514.33698000 0.03659410 -0.55318099 0.83225697 1.905766e-42
13.92170000 31.48410000 514.75098000 0.02470620 -0.55270398 0.83301097 1.905766e-42
12.24600000 32.00790000 515.14801000 0.00658680 -0.55373001 0.83266997 1.905766e-42
10.47490000 31.99620100 515.46899000 -0.02001440 -0.56008899 0.82819098 1.905766e-42
8.76924040 32.50439800 515.73901000 -0.04263520 -0.56450599 0.82432699 1.905766e-42
