# .PCD v0.7 - Point Cloud Data file format
# 3 153 0
# 1 66 0
# 67 126 0
# 127 153 0
VERSION 0.7
FIELDS x y z normal_x normal_y normal_z curvature
SIZE 4 4 4 4 4 4 4
TYPE F F F F F F F
COUNT 1 1 1 1 1 1 1
WIDTH 153
HEIGHT 1
VIEWPOINT 0 0 0 1 0 0 0
POINTS 153
DATA ascii
1.0961601 -16.6381 461.56699 -0.624681 -0.77328402 0.108655 1.9057659e-42
2.9345601 -18.108299 462.60101 -0.598351 -0.79226798 0.119532 1.9057659e-42
3.88537 -18.5987 464.04901 -0.58169103 -0.802984 0.129814 1.9057659e-42
4.6505098 -18.7136 465.67401 -0.567316 -0.811032 0.142758 1.9057659e-42
6.0377998 -19.216299 466.70499 -0.55082202 -0.81923801 0.15951499 1.9057659e-42
6.8688102 -19.965599 468.11499 -0.53490502 -0.82568598 0.17922001 1.9057659e-42
8.3095198 -20.4119 469.09698 -0.51866502 -0.83105302 0.20084301 1.9057659e-42
9.3892899 -20.889099 470.45599 -0.50081903 -0.83524501 0.227038 1.9057659e-42
10.6447 -21.1628 471.71701 -0.481861 -0.83774799 0.256883 1.9057659e-42
11.4792 -21.1863 473.311 -0.46160701 -0.83696997 0.29393899 1.9057659e-42
12.7428 -21.386801 474.578 -0.437904 -0.83593202 0.330843 1.9057659e-42
14.221 -21.6686 475.565 -0.409996 -0.83622497 0.36418599 1.9057659e-42
15.6747 -21.6856 476.62701 -0.37594599 -0.83758003 0.39638901 1.9057659e-42
16.6126 -21.7027 478.16299 -0.340101 -0.84029001 0.42219001 1.9057659e-42
17.845501 -21.543501 479.465 -0.30134401 -0.843081 0.445429 1.9057659e-42
18.9021 -21.1861 480.87701 -0.26484001 -0.84552199 0.46362901 1.9057659e-42
20.3486 -21.0002 481.93201 -0.22708499 -0.84762299 0.47955 1.9057659e-42
21.581699 -20.339899 483.065 -0.19848099 -0.85051501 0.48706201 1.9057659e-42
22.398399 -19.9529 484.62201 -0.175666 -0.85202599 0.493146 1.9057659e-42
23.754801 -19.361 485.647 -0.14688601 -0.85264897 0.50141197 1.9057659e-42
24.6731 -18.601801 486.996 -0.12589 -0.85122102 0.50948501 1.9057659e-42
25.965599 -17.926701 488.05099 -0.100742 -0.848867 0.51891798 1.9057659e-42
25.9475 -17.1474 489.67401 -0.096721902 -0.84284902 0.529387 1.9057659e-42
27.282499 -16.7617 490.81799 -0.071845397 -0.83700901 0.54245198 1.9057659e-42
28.195 -16.032499 492.18701 -0.0495192 -0.82474798 0.56332701 1.9057659e-42
29.0187 -15.0936 493.483 -0.028919499 -0.80988199 0.58587998 1.9057659e-42
30.3778 -14.3725 494.418 -0.0021448701 -0.79552501 0.60591698 1.9057659e-42
31.2521 -13.371 495.63101 0.019274401 -0.77757502 0.62849498 1.9057659e-42
31.915701 -12.3115 496.92599 0.039319001 -0.75914598 0.64973098 1.9057659e-42
32.9338 -11.2893 498.00299 0.064128503 -0.74086797 0.66858202 1.9057659e-42
33.881302 -10.1868 499.064 0.088773802 -0.72368199 0.68440002 1.9057659e-42
34.815899 -8.9623499 499.995 0.114047 -0.70750099 0.69744903 1.9057659e-42
35.461399 -7.8471699 501.25201 0.1406 -0.69435 0.70576799 1.9057659e-42
35.954498 -6.5043702 502.345 0.170917 -0.68498403 0.70822603 1.9057659e-42
37.062099 -5.3502898 503.17001 0.20304 -0.66920799 0.71479702 1.9057659e-42
38.141998 -4.0830202 503.854 0.23548301 -0.65284598 0.71995801 1.9057659e-42
38.793201 -2.8071799 504.944 0.27009001 -0.64375401 0.71598297 1.9057659e-42
39.808998 -1.52039 505.68701 0.297822 -0.627671 0.719257 1.9057659e-42
40.6339 -0.097639397 506.41901 0.319594 -0.61187798 0.72350901 1.9057659e-42
41.028702 1.29052 507.495 0.33180499 -0.596017 0.73121101 1.9057659e-42
41.690601 2.73599 508.33899 0.34851801 -0.577546 0.73822498 1.9057659e-42
42.5317 4.1600699 509.04901 0.36719 -0.55800498 0.74417901 1.9057659e-42
43.466599 5.5897102 509.617 0.386612 -0.53817201 0.74893397 1.9057659e-42
44.8372 6.7530398 509.70599 0.41035101 -0.51986301 0.74923599 1.9057659e-42
45.374699 8.2933502 510.46701 0.424023 -0.50005502 0.75508201 1.9057659e-42
45.750702 9.8694696 511.25 0.43891001 -0.478255 0.76067799 1.9057659e-42
46.175598 11.4508 511.99799 0.45514899 -0.456343 0.76458502 1.9057659e-42
47.2967 12.8569 512.07501 0.4795 -0.43146601 0.76414502 1.9057659e-42
47.517101 14.4812 512.81897 0.494643 -0.411587 0.76545697 1.9057659e-42
48.117802 16.105801 513.30902 0.51477098 -0.38945401 0.76376498 1.9057659e-42
48.828098 17.7304 513.61798 0.53653598 -0.367008 0.75989097 1.9057659e-42
49.520401 19.366501 513.90802 0.55845797 -0.345599 0.75411302 1.9057659e-42
49.804001 21.042601 514.5 0.58581603 -0.33527899 0.73784 1.9057659e-42
50.744099 22.575399 514.41803 0.59695297 -0.324967 0.73351502 1.9057659e-42
51.365299 24.256901 514.58099 0.61061901 -0.32144099 0.723755 1.9057659e-42
51.834499 25.967199 514.88898 0.62567198 -0.32095599 0.71100003 1.9057659e-42
51.146599 27.131201 516.07703 0.65106797 -0.33666599 0.680269 1.9057659e-42
50.7052 28.6457 516.94397 0.67295301 -0.346313 0.65360701 1.9057659e-42
50.268902 29.721201 518.32001 0.69410801 -0.35818899 0.62443101 1.9057659e-42
49.556198 30.680201 519.66602 0.70338202 -0.36313799 0.61105198 1.9057659e-42
49.038799 31.8493 520.93298 0.710724 -0.35901999 0.60496002 1.9057659e-42
48.695 33.4091 521.763 0.71757501 -0.345281 0.60487002 1.9057659e-42
48.7243 34.766102 522.94501 0.72237402 -0.32548401 0.61011201 1.9057659e-42
48.299301 35.917198 524.26202 0.71969402 -0.29756999 0.627289 1.9057659e-42
47.1894 36.529598 525.53998 0.66271597 -0.24301501 0.70834398 1.9057659e-42
46.601898 38.032398 526.33801 0.59864801 -0.173943 0.78189802 1.9057659e-42
46.022301 39.519001 527.17102 0.517196 -0.099293098 0.85008699 1.9057659e-42
44.595402 38.751499 527.95502 0.446181 -0.068575896 0.89231199 1.9057659e-42
43.284698 37.605999 528.41302 0.399712 -0.058192 0.914792 1.9057659e-42
42.072498 36.343601 528.83398 0.360571 -0.054374199 0.93114501 1.9057659e-42
40.3764 35.809898 529.11401 0.255218 -0.00339059 0.966878 1.9057659e-42
38.756599 35.077999 529.39801 0.144371 0.0471224 0.988401 1.9057659e-42
37.114601 34.3769 529.62598 0.0226206 0.104811 0.99423498 1.9057659e-42
36.583199 32.6693 529.83099 0.0635226 0.065050803 0.99585801 1.9057659e-42
35.266102 31.4529 529.99103 0.0089900801 0.0841043 0.99641597 1.9057659e-42
33.9189 30.270399 530.15399 -0.042714499 0.104484 0.99360901 1.9057659e-42
32.776199 28.883801 530.26202 -0.055261601 0.097774103 0.99367303 1.9057659e-42
31.1644 28.083799 530.30902 -0.13189 0.15053301 0.97976798 1.9057659e-42
29.8251 26.882099 530.35498 -0.13417 0.137208 0.98141402 1.9057659e-42
28.480499 25.6856 530.33502 -0.129988 0.106033 0.98583001 1.9057659e-42
27.111 24.5193 530.26898 -0.130309 0.0774341 0.98844498 1.9057659e-42
26.1586 22.9951 530.17102 -0.116055 0.021150799 0.99301797 1.9057659e-42
24.615 22.083 530.01202 -0.131419 0.0119069 0.99125499 1.9057659e-42
23.333 20.841299 529.77802 -0.134115 -0.0210224 0.99074298 1.9057659e-42
21.996599 19.6604 529.534 -0.14181501 -0.047838699 0.98873699 1.9057659e-42
20.478201 18.731199 529.26801 -0.171252 -0.047410399 0.98408598 1.9057659e-42
19.4396 17.308201 528.89801 -0.157984 -0.106448 0.98168701 1.9057659e-42
17.8843 16.4855 528.51801 -0.202411 -0.093151398 0.97486001 1.9057659e-42
16.333401 15.677 528.09302 -0.248467 -0.076957203 0.96557802 1.9057659e-42
14.8531 14.7743 527.60999 -0.28261101 -0.073728099 0.956397 1.9057659e-42
13.245 14.1483 527.09802 -0.33216599 -0.039700501 0.94238502 1.9057659e-42
12.09 12.8866 526.53699 -0.32027999 -0.098599501 0.94217801 1.9057659e-42
10.7258 11.8813 525.92999 -0.327178 -0.130152 0.93595701 1.9057659e-42
9.3767099 10.8736 525.29401 -0.32960099 -0.172621 0.92820501 1.9057659e-42
7.7982998 10.3248 524.625 -0.36091 -0.153065 0.919954 1.9057659e-42
6.2639198 9.7079201 523.914 -0.377437 -0.152694 0.91335899 1.9057659e-42
4.7607498 9.0757904 523.15198 -0.38314301 -0.165527 0.908737 1.9057659e-42
3.4150901 8.1844797 522.35602 -0.36567101 -0.23117401 0.90157801 1.9057659e-42
2.28719 7.0307398 521.55798 -0.32658899 -0.35111099 0.87753099 1.9057659e-42
1.28971 5.7532101 520.77502 -0.289765 -0.48929399 0.82257402 1.9057659e-42
-0.165673 5.21662 519.862 -0.293699 -0.53084397 0.79495001 1.9057659e-42
-1.57533 4.64326 518.90002 -0.29631701 -0.57924098 0.75939202 1.9057659e-42
-3.03827 4.2220898 517.94 -0.30576599 -0.61433399 0.72739297 1.9057659e-42
-4.4983702 3.89537 516.93903 -0.32801601 -0.63466299 0.69972003 1.9057659e-42
-5.9483399 3.6184299 515.909 -0.37136799 -0.63249201 0.679735 1.9057659e-42
-7.31705 3.1863599 514.823 -0.40003601 -0.64798999 0.64813602 1.9057659e-42
-8.6819496 2.8722601 513.69202 -0.42995301 -0.65016001 0.626445 1.9057659e-42
-9.9027901 2.2999499 512.5 -0.431512 -0.68726403 0.58434999 1.9057659e-42
-11.3474 2.3816099 511.42899 -0.48817301 -0.64547497 0.58740902 1.9057659e-42
-12.7316 2.8471501 510.37701 -0.55949801 -0.56607997 0.60540497 1.9057659e-42
-14.0201 3.79444 509.55099 -0.642506 -0.42443401 0.63799798 1.9057659e-42
-15.1832 3.461 508.21799 -0.648422 -0.45595899 0.609631 1.9057659e-42
-16.4489 4.1224699 507.12201 -0.697245 -0.361577 0.61896002 1.9057659e-42
-17.6136 5.19807 506.26999 -0.74072498 -0.23004501 0.631194 1.9057659e-42
-18.6978 4.88588 504.867 -0.74661499 -0.26854801 0.60864401 1.9057659e-42
-19.9009 5.4614902 503.659 -0.76584601 -0.214251 0.60628098 1.9057659e-42
-21.084999 5.6285701 502.31299 -0.77468801 -0.217033 0.59393197 1.9057659e-42
-22.216 5.8097301 500.92499 -0.78066301 -0.23140199 0.58053303 1.9057659e-42
-23.374701 6.3187599 499.64499 -0.78427303 -0.221865 0.57938898 1.9057659e-42
-24.4734 6.6686001 498.263 -0.782673 -0.248402 0.57071799 1.9057659e-42
-25.5131 7.0638599 496.84698 -0.77654999 -0.29265401 0.55796498 1.9057659e-42
-26.4965 7.1839299 495.345 -0.78828001 -0.37524101 0.48765701 1.9057659e-42
-27.424601 7.47229 493.82901 -0.78646898 -0.45631799 0.41622201 1.9057659e-42
-28.1602 7.1516199 492.21799 -0.773821 -0.54098397 0.32945001 1.9057659e-42
-28.809601 6.7397599 490.591 -0.755274 -0.61006099 0.239553 1.9057659e-42
-29.5502 6.9573398 488.965 -0.72181302 -0.66861802 0.178709 1.9057659e-42
-30.388399 7.8844199 487.66901 -0.38162199 -0.92246902 0.058447301 1.9057659e-42
-29.884199 6.9869399 486.19299 -0.69542402 -0.71453798 0.076291896 1.9057659e-42
-28.6436 6.0338302 485.302 -0.66495502 -0.74675101 0.0140863 1.9057659e-42
-27.440701 4.9405499 484.52899 -0.57871503 -0.81367099 -0.055033799 1.9057659e-42
-26.090799 3.9653001 483.84601 -0.54127097 -0.83745801 -0.075433902 1.9057659e-42
-24.7663 3.18663 482.90799 -0.53974998 -0.83856797 -0.073983997 1.9057659e-42
-23.514299 2.6417501 481.73599 -0.53990102 -0.83844799 -0.074247502 1.9057659e-42
-22.2246 1.96813 480.67599 -0.53939903 -0.83895898 -0.072086602 1.9057659e-42
-20.9037 1.0071501 479.92001 -0.545995 -0.83567798 -0.059433799 1.9057659e-42
-19.6 0.106219 479.06601 -0.55317199 -0.831707 -0.0475768 1.9057659e-42
-18.2001 -0.73590201 478.31 -0.55931401 -0.82822001 -0.034928001 1.9057659e-42
-17.137899 -1.30428 476.97299 -0.57088202 -0.82051998 -0.0289931 1.9057659e-42
-15.9714 -1.99459 475.789 -0.587161 -0.80927998 -0.017514501 1.9057659e-42
-14.7615 -3.05358 474.979 -0.600649 -0.79950798 -0.00293062 1.9057659e-42
-13.8604 -3.7109399 473.56699 -0.61773098 -0.78639001 0.00042559599 1.9057659e-42
-12.6617 -4.64502 472.60199 -0.630454 -0.77618599 0.0079196999 1.9057659e-42
-11.595 -5.6290102 471.53699 -0.63321799 -0.77395201 0.0058191102 1.9057659e-42
-10.5918 -6.4477701 470.28699 -0.63737297 -0.77055198 0.0021673699 1.9057659e-42
-9.3511105 -7.3488102 469.34399 -0.63909799 -0.769108 0.0051138601 1.9057659e-42
-8.2097101 -8.3425503 468.37 -0.64112902 -0.76737201 0.0096589504 1.9057659e-42
-6.9760499 -9.4411201 467.655 -0.64188099 -0.76654202 0.020051099 1.9057659e-42
-5.7553701 -10.476 466.83099 -0.64321798 -0.76508403 0.0302883 1.9057659e-42
-4.5720501 -11.4111 465.84799 -0.64585 -0.76242602 0.039806601 1.9057659e-42
-3.3452799 -12.6667 465.45001 -0.64200097 -0.76467299 0.0557721 1.9057659e-42
-2.07723 -13.75 464.77301 -0.63931 -0.765791 0.069619097 1.9057659e-42
-1.10703 -14.6235 463.534 -0.64416301 -0.76063597 0.080539897 1.9057659e-42
-0.086239196 -15.5467 462.37399 -0.649728 -0.75370598 0.0989011 1.9057659e-42
