# .PCD v0.7 - Point Cloud Data file format
# 2 232 0
# 1 133 0
# 134 232 0
VERSION 0.7
FIELDS x y z normal_x normal_y normal_z curvature
SIZE 4 4 4 4 4 4 4
TYPE F F F F F F F
COUNT 1 1 1 1 1 1 1
WIDTH 232
HEIGHT 1
VIEWPOINT 0 0 0 1 0 0 0
POINTS 232
DATA ascii
76.64320400 -26.94249900 395.96201000 0.20164700 -0.82679898 0.52511197 1.905766e-42
76.92269900 -25.95100000 397.43799000 0.20632701 -0.82737100 0.52238601 1.905766e-42
77.26149700 -24.88320000 398.84698000 0.21579900 -0.82286298 0.52566898 1.905766e-42
76.83129900 -24.05760000 400.38800000 0.21900401 -0.82124001 0.52688003 1.905766e-42
76.62359600 -23.13159900 401.91699000 0.22388600 -0.81873202 0.52872699 1.905766e-42
76.66190300 -22.15430100 403.42801000 0.23033001 -0.81535000 0.53118098 1.905766e-42
76.86380000 -21.12529900 404.89099000 0.23764101 -0.81137800 0.53403401 1.905766e-42
76.78610200 -20.16790000 406.41400000 0.24293301 -0.80822402 0.53643101 1.905766e-42
76.55229900 -19.19790100 407.91199000 0.24718300 -0.80544698 0.53866202 1.905766e-42
76.71869700 -18.20550000 409.40399000 0.25369400 -0.80146003 0.54157299 1.905766e-42
76.52230100 -17.23469900 410.90701000 0.25797799 -0.79852402 0.54388100 1.905766e-42
76.89070100 -16.17040100 412.31100000 0.26545700 -0.79379803 0.54719001 1.905766e-42
77.15010100 -15.05030000 413.69601000 0.27224201 -0.78924298 0.55043697 1.905766e-42
77.54720300 -13.98050000 415.08801000 0.27938601 -0.78429502 0.55391800 1.905766e-42
77.61810300 -12.92620000 416.54599000 0.28452399 -0.78010899 0.55720401 1.905766e-42
78.08370200 -11.74790000 417.82401000 0.29368299 -0.77226299 0.56334698 1.905766e-42
78.25879700 -10.68290000 419.26501000 0.30236000 -0.76357698 0.57055002 1.905766e-42
78.88860300 -9.50599000 420.47198000 0.31433600 -0.75281203 0.57833201 1.905766e-42
79.12830400 -8.46521000 421.92099000 0.32395899 -0.74339998 0.58515501 1.905766e-42
80.08480100 -7.32326980 422.93201000 0.33872399 -0.73098999 0.59238499 1.905766e-42
79.98889900 -6.15173010 424.29501000 0.34742299 -0.72286302 0.59729898 1.905766e-42
80.52839700 -4.86272000 425.42999000 0.36252201 -0.71018600 0.60350102 1.905766e-42
80.85800200 -3.47883010 426.53201000 0.37854001 -0.69611597 0.61002499 1.905766e-42
80.99479700 -2.11343000 427.69699000 0.39405501 -0.68307000 0.61492699 1.905766e-42
81.64530200 -0.44438201 427.87399000 0.41354099 -0.66554999 0.62131101 1.905766e-42
82.05059800 0.71358001 429.19101000 0.43233001 -0.65061802 0.62432897 1.905766e-42
81.98390200 1.31947000 430.88400000 0.44134399 -0.64410597 0.62477499 1.905766e-42
82.25129700 2.73623990 431.96201000 0.45478401 -0.63208300 0.62740999 1.905766e-42
82.83480100 4.43100020 432.12701000 0.46553800 -0.63318902 0.61834103 1.905766e-42
83.40969800 6.06407020 432.62000000 0.47270501 -0.63491201 0.61109400 1.905766e-42
83.28040300 6.92620990 434.19400000 0.46470100 -0.63862801 0.61335802 1.905766e-42
82.96340200 7.76583000 435.75500000 0.45531499 -0.64027500 0.61865699 1.905766e-42
82.34690100 8.01902010 437.42700000 0.44258299 -0.64100999 0.62707800 1.905766e-42
82.16529800 9.05307010 438.88901000 0.43650699 -0.63836199 0.63400000 1.905766e-42
81.64890300 9.92094040 440.37900000 0.42804000 -0.63490200 0.64318001 1.905766e-42
81.15170300 10.95140000 441.76901000 0.42045599 -0.63113201 0.65183502 1.905766e-42
80.31670400 11.84670000 443.08801000 0.41039100 -0.62873399 0.66051000 1.905766e-42
79.36360200 12.66190000 444.37900000 0.40050200 -0.62585300 0.66925800 1.905766e-42
79.26239800 13.91430000 445.66800000 0.39754999 -0.61992800 0.67649400 1.905766e-42
78.38819900 14.84930000 446.93399000 0.39043400 -0.61474502 0.68531001 1.905766e-42
77.65020000 15.86300000 448.22501000 0.38518101 -0.60821700 0.69405198 1.905766e-42
76.84140000 16.83729900 449.50400000 0.38051900 -0.60119301 0.70268899 1.905766e-42
75.71250200 17.53400000 450.72101000 0.37440601 -0.59609199 0.71027797 1.905766e-42
75.22760000 18.82889900 451.87399000 0.37235600 -0.58470601 0.72074199 1.905766e-42
74.65550200 19.86270000 453.23099000 0.36862200 -0.57282698 0.73211199 1.905766e-42
73.79630300 21.04990000 454.27701000 0.36456701 -0.56121999 0.74304998 1.905766e-42
72.94290200 22.24570100 455.31699000 0.36138001 -0.54949498 0.75329900 1.905766e-42
71.48660300 22.17100000 456.37201000 0.35019201 -0.55059898 0.75776398 1.905766e-42
70.05899800 22.67660000 457.34500000 0.34055600 -0.54862398 0.76356697 1.905766e-42
68.72029900 23.26800000 458.39301000 0.33151999 -0.54669499 0.76890802 1.905766e-42
67.27390300 24.05180000 459.12299000 0.32213801 -0.54632002 0.77315003 1.905766e-42
65.77380400 23.91110000 460.10800000 0.30668399 -0.55266398 0.77492398 1.905766e-42
64.47200000 24.58210000 461.15399000 0.29675400 -0.55397201 0.77785099 1.905766e-42
62.92540000 24.96540100 461.99200000 0.28208899 -0.55957401 0.77929598 1.905766e-42
61.66270100 25.91280000 462.85699000 0.27178201 -0.56208199 0.78115201 1.905766e-42
60.15039800 26.23749900 463.77701000 0.25230101 -0.56621301 0.78469503 1.905766e-42
58.79230100 26.96719900 464.70599000 0.23658100 -0.56757498 0.78859901 1.905766e-42
57.10469800 27.25400000 465.26300000 0.21649800 -0.57077301 0.79205197 1.905766e-42
55.40890100 27.20249900 465.86401000 0.19652601 -0.57394499 0.79496199 1.905766e-42
53.86010000 27.73840000 466.60901000 0.18017501 -0.57391500 0.79884797 1.905766e-42
52.29480000 28.31049900 467.28900000 0.16439900 -0.57314301 0.80279499 1.905766e-42
50.70109900 28.78920000 467.97501000 0.14886600 -0.57200199 0.80663103 1.905766e-42
49.09540200 29.31720000 468.59399000 0.13400900 -0.57025099 0.81046599 1.905766e-42
47.37749900 29.53980100 469.08301000 0.11862600 -0.56967098 0.81326699 1.905766e-42
45.82220100 30.16510000 469.73901000 0.10547900 -0.56654799 0.81725001 1.905766e-42
44.34209800 31.01260000 470.31400000 0.09365160 -0.56216502 0.82170498 1.905766e-42
42.61479900 31.17070000 470.79501000 0.07820940 -0.56057400 0.82440299 1.905766e-42
41.02349900 31.79450000 471.35999000 0.06254050 -0.55502898 0.82947701 1.905766e-42
39.50709900 32.60490000 471.89200000 0.04744790 -0.54794598 0.83516699 1.905766e-42
38.00019800 33.40980100 472.45901000 0.03225870 -0.54013598 0.84096003 1.905766e-42
36.23329900 33.57830000 472.75900000 0.01461360 -0.53738499 0.84320998 1.905766e-42
34.99610100 34.72000100 473.39600000 0.00187128 -0.52570200 0.85066700 1.905766e-42
33.28879900 35.16569900 473.75101000 -0.01508060 -0.51965201 0.85424501 1.905766e-42
31.86270000 36.15330100 474.23199000 -0.02959260 -0.50828499 0.86067998 1.905766e-42
30.64780000 37.31810000 474.87000000 -0.04255570 -0.49428299 0.86825901 1.905766e-42
29.20980100 38.31950000 475.28201000 -0.05735990 -0.48163301 0.87449402 1.905766e-42
27.87389900 39.45830200 475.67999000 -0.07161110 -0.46738499 0.88114899 1.905766e-42
26.34740100 40.31679900 476.09500000 -0.08673220 -0.45402399 0.88675803 1.905766e-42
24.58370000 40.66840000 476.17200000 -0.10360300 -0.44368500 0.89017397 1.905766e-42
23.55380100 42.08869900 476.57401000 -0.12005500 -0.42660499 0.89643502 1.905766e-42
22.11380000 43.11679800 476.90500000 -0.13993300 -0.41171199 0.90050697 1.905766e-42
20.64160000 44.14519900 477.02701000 -0.16133501 -0.39719000 0.90344399 1.905766e-42
19.09210000 45.05250200 477.15399000 -0.18398800 -0.38253099 0.90543801 1.905766e-42
17.49630000 45.88520100 477.15500000 -0.20729800 -0.36720499 0.90674597 1.905766e-42
16.08720000 47.00410100 477.20401000 -0.23161601 -0.35171700 0.90700001 1.905766e-42
14.46610000 47.78089900 477.11200000 -0.25524199 -0.33434600 0.90722901 1.905766e-42
12.72280000 48.76020100 476.97501000 -0.28139099 -0.31364301 0.90688902 1.905766e-42
11.41520000 49.98709900 476.81699000 -0.30617800 -0.29630300 0.90468800 1.905766e-42
9.86468980 50.87730000 476.60901000 -0.32393101 -0.27959099 0.90382397 1.905766e-42
8.30179980 51.73659900 476.36600000 -0.33459201 -0.26688799 0.90378100 1.905766e-42
6.83440020 52.71870000 476.01599000 -0.34487000 -0.25362301 0.90373701 1.905766e-42
5.16559980 53.28680000 475.65201000 -0.34725600 -0.23236100 0.90852702 1.905766e-42
3.78323010 54.32289900 475.14700000 -0.35436600 -0.21534599 0.90997303 1.905766e-42
2.04047990 54.18420000 474.71799000 -0.34982800 -0.19181301 0.91696697 1.905766e-42
0.80078202 55.45589800 474.42499000 -0.36544800 -0.18173601 0.91291797 1.905766e-42
-0.77437103 56.17820000 473.93799000 -0.38473400 -0.17438900 0.90640402 1.905766e-42
-2.34559990 56.84510000 473.36700000 -0.40373099 -0.16626801 0.89964199 1.905766e-42
-3.97840000 57.28540000 472.75000000 -0.42198500 -0.15820800 0.89269203 1.905766e-42
-5.36023000 58.21469900 472.06699000 -0.43922901 -0.14702900 0.88626200 1.905766e-42
-6.93971010 58.72819900 471.37299000 -0.45568201 -0.13677201 0.87957299 1.905766e-42
-8.38428970 59.37310000 470.51401000 -0.47111499 -0.12531701 0.87312502 1.905766e-42
-9.93630030 59.82500100 469.72198000 -0.48445600 -0.11520300 0.86719698 1.905766e-42
-11.60870000 60.05979900 469.10001000 -0.49050501 -0.11583400 0.86370599 1.905766e-42
-13.21470000 60.35179900 468.34100000 -0.49931899 -0.11822500 0.85831398 1.905766e-42
-14.69700000 60.88240100 467.46899000 -0.50994903 -0.12148500 0.85158300 1.905766e-42
-16.24460000 61.17720000 466.59799000 -0.52128798 -0.12400500 0.84432298 1.905766e-42
-17.69700100 61.64490100 465.64301000 -0.53225398 -0.12545900 0.83723700 1.905766e-42
-19.20840100 61.73569900 464.67001000 -0.54390001 -0.12638900 0.82957703 1.905766e-42
-20.76860000 61.91190000 463.78900000 -0.55554199 -0.12639099 0.82182598 1.905766e-42
-22.26020100 62.08829900 462.79800000 -0.56751800 -0.12556300 0.81373101 1.905766e-42
-23.72559900 62.08639900 461.75201000 -0.58165503 -0.12552500 0.80369198 1.905766e-42
-25.06670000 62.49240100 460.62201000 -0.59732699 -0.12531000 0.79214799 1.905766e-42
-26.53150000 62.31209900 459.59201000 -0.61281198 -0.12543400 0.78021002 1.905766e-42
-27.77350000 61.52650100 458.55200000 -0.62559301 -0.12683199 0.76977098 1.905766e-42
-29.15169900 61.55450100 457.39499000 -0.63972598 -0.12488300 0.75838900 1.905766e-42
-30.32650000 62.15259900 456.16901000 -0.65337002 -0.12030600 0.74741799 1.905766e-42
-31.71890100 61.60450000 455.16901000 -0.66487402 -0.11887400 0.73743600 1.905766e-42
-32.85120000 61.98680100 453.82300000 -0.67887902 -0.11416600 0.72531998 1.905766e-42
-34.22950000 61.70360200 452.70099000 -0.69196999 -0.11165600 0.71323901 1.905766e-42
-35.36410100 62.42340100 451.50299000 -0.70562500 -0.10430600 0.70086598 1.905766e-42
-36.74679900 63.02750000 450.52100000 -0.71879900 -0.09663860 0.68846798 1.905766e-42
-37.95080200 63.46749900 449.25800000 -0.73118800 -0.08889480 0.67636001 1.905766e-42
-39.21960100 63.66339900 447.99600000 -0.74197602 -0.08141120 0.66546500 1.905766e-42
-40.34880100 63.17710100 446.68100000 -0.74905002 -0.07745360 0.65797102 1.905766e-42
-41.49010100 62.83589900 445.33200000 -0.75688303 -0.07483630 0.64925098 1.905766e-42
-42.59380000 62.45190000 443.96301000 -0.76394600 -0.07509930 0.64089602 1.905766e-42
-43.72959900 62.31160000 442.57300000 -0.76955301 -0.07497180 0.63416702 1.905766e-42
-44.85310000 62.05450100 441.19101000 -0.77321899 -0.07819730 0.62929899 1.905766e-42
-45.86769900 61.88950000 439.71301000 -0.77541000 -0.08315510 0.62595803 1.905766e-42
-46.97380100 61.48280000 438.35300000 -0.77676100 -0.09401290 0.62273902 1.905766e-42
-48.04010000 61.06119900 436.96500000 -0.78121698 -0.11098500 0.61431497 1.905766e-42
-48.90790200 60.24679900 435.61499000 -0.78546202 -0.13475600 0.60406202 1.905766e-42
-49.84600100 59.76480100 434.15601000 -0.78638899 -0.15807199 0.59716398 1.905766e-42
-50.82040000 59.33599900 432.70499000 -0.78375202 -0.18641400 0.59243798 1.905766e-42
-50.83800100 57.66840000 432.02701000 -0.77837199 -0.20726000 0.59260499 1.905766e-42
-50.11159900 56.15129900 432.66800000 -0.78901798 -0.22348300 0.57228100 1.905766e-42
-49.46550000 54.47440000 432.77100000 -0.79490101 -0.24700500 0.55418497 1.905766e-42
-48.76940200 53.02859900 433.58701000 -0.80082101 -0.26009399 0.53947902 1.905766e-42
-47.90990100 51.56020000 434.17401000 -0.80355400 -0.27534699 0.52771699 1.905766e-42
-47.00389900 50.23230000 434.98401000 -0.80323499 -0.28686100 0.52203900 1.905766e-42
-46.05950200 48.90710100 435.75299000 -0.80020100 -0.29953900 0.51957202 1.905766e-42
-45.14419900 47.41180000 436.16101000 -0.79600197 -0.31865501 0.51462698 1.905766e-42
-44.09640100 45.95660000 436.00500000 -0.79170799 -0.34259200 0.50579500 1.905766e-42
-43.23949800 44.83869900 437.12601000 -0.78122699 -0.35304400 0.51482499 1.905766e-42
-42.17290100 43.41700000 437.41101000 -0.77072197 -0.37614399 0.51429802 1.905766e-42
-41.03509900 42.13430000 437.95901000 -0.75637197 -0.39779100 0.51929200 1.905766e-42
-39.79980100 40.84790000 438.20200000 -0.74013299 -0.42424700 0.52174503 1.905766e-42
-38.75159800 39.54079800 438.85999000 -0.71990597 -0.45056000 0.52794898 1.905766e-42
-37.74449900 38.39310100 439.81299000 -0.69753897 -0.47482800 0.53663599 1.905766e-42
-36.70029800 36.93349800 439.95099000 -0.68024999 -0.50313902 0.53302097 1.905766e-42
-35.56079900 35.54029800 439.97501000 -0.67120498 -0.52048802 0.52780300 1.905766e-42
-34.50019800 34.08610200 439.99399000 -0.66163403 -0.53760999 0.52270103 1.905766e-42
-33.40440000 32.65980100 440.06500000 -0.65122998 -0.55369300 0.51896298 1.905766e-42
-32.22069900 31.30380100 440.05499000 -0.64016801 -0.56929803 0.51583397 1.905766e-42
-31.27560000 29.99469900 439.25900000 -0.63179600 -0.58566803 0.50776702 1.905766e-42
-30.19199900 28.55859900 439.20099000 -0.61992002 -0.59995502 0.50572002 1.905766e-42
-29.37999900 27.15780100 438.41501000 -0.61131299 -0.61374998 0.49960700 1.905766e-42
-28.27599900 25.77000000 438.10599000 -0.59933400 -0.62643099 0.49838001 1.905766e-42
-27.70360000 24.49790000 436.96899000 -0.59379399 -0.63640898 0.49233401 1.905766e-42
-26.87430000 23.12900000 436.14499000 -0.58526301 -0.64610499 0.48991501 1.905766e-42
-26.00400000 21.86590000 435.20300000 -0.57737100 -0.65434599 0.48833799 1.905766e-42
-24.99320000 20.49760100 434.61499000 -0.56731701 -0.66178501 0.49009401 1.905766e-42
-23.91960000 19.10700000 434.22299000 -0.55743498 -0.66803098 0.49295199 1.905766e-42
-23.03500000 17.83880000 433.30200000 -0.55026799 -0.67339700 0.49370199 1.905766e-42
-21.99420000 16.45910100 432.79800000 -0.53977400 -0.67989701 0.49637100 1.905766e-42
-21.00970100 15.13500000 432.07901000 -0.53027898 -0.68684101 0.49704501 1.905766e-42
-20.00000000 13.84990000 431.32501000 -0.52114397 -0.69469899 0.49578500 1.905766e-42
-19.02809900 12.60880000 430.45599000 -0.51266199 -0.70319098 0.49264601 1.905766e-42
-18.03389900 11.27580000 429.76700000 -0.50392801 -0.71236098 0.48846501 1.905766e-42
-17.00020000 10.02200000 428.99301000 -0.49549499 -0.72188097 0.48308599 1.905766e-42
-16.12350100 8.69987960 428.14200000 -0.48780501 -0.73161602 0.47621900 1.905766e-42
-14.93380000 7.60888000 427.34601000 -0.47945499 -0.74131900 0.46964800 1.905766e-42
-13.84260000 6.47445010 426.47198000 -0.47160301 -0.75105798 0.46206301 1.905766e-42
-12.74040000 5.27113010 425.71301000 -0.46575201 -0.75868100 0.45549801 1.905766e-42
-11.41630000 4.09186980 425.40302000 -0.45899999 -0.76488400 0.45196399 1.905766e-42
-10.77820000 3.08338000 424.05499000 -0.45646200 -0.77201700 0.44230399 1.905766e-42
-9.56283000 1.98764000 423.30600000 -0.45106801 -0.77842599 0.43656701 1.905766e-42
-8.36526970 0.91784900 422.49200000 -0.44599301 -0.78459501 0.43069899 1.905766e-42
-7.13879010 -0.21361600 421.81699000 -0.44061401 -0.79027700 0.42581999 1.905766e-42
-6.04512980 -1.32661000 420.92001000 -0.43633601 -0.79594398 0.41962299 1.905766e-42
-5.04254010 -2.43638990 419.91800000 -0.43286699 -0.80138701 0.41280100 1.905766e-42
-3.72793010 -3.51554990 419.32901000 -0.42736501 -0.80592400 0.40968901 1.905766e-42
-2.58367990 -4.59718990 418.45700000 -0.42336699 -0.81054699 0.40468901 1.905766e-42
-1.47796000 -5.55126000 417.40500000 -0.42035401 -0.81495303 0.39894101 1.905766e-42
-0.07096690 -6.55251980 416.89700000 -0.41412199 -0.81862199 0.39794499 1.905766e-42
1.29151000 -7.34099010 416.02399000 -0.40844899 -0.82305199 0.39465800 1.905766e-42
2.73304010 -8.05898000 415.22000000 -0.40204999 -0.82724899 0.39244801 1.905766e-42
4.14893010 -9.17020990 415.20001000 -0.39228100 -0.83052999 0.39539200 1.905766e-42
5.63840010 -10.17760000 415.11801000 -0.38185301 -0.83379799 0.39870900 1.905766e-42
7.18441010 -10.91000000 414.55801000 -0.37275401 -0.83750099 0.39955699 1.905766e-42
8.77987960 -11.72100000 414.36600000 -0.36127901 -0.84069502 0.40337199 1.905766e-42
10.38950000 -12.46300000 414.67999000 -0.34716100 -0.84289098 0.41111299 1.905766e-42
11.97020000 -13.28890000 414.43600000 -0.33513200 -0.84603697 0.41461900 1.905766e-42
13.46030000 -13.85350000 413.59900000 -0.32628801 -0.84974200 0.41409400 1.905766e-42
14.95360000 -14.85710000 413.54700000 -0.31349000 -0.85258102 0.41812700 1.905766e-42
16.42820000 -15.66800000 412.90799000 -0.30325100 -0.85612798 0.41843000 1.905766e-42
17.94500000 -16.48280000 412.38300000 -0.29107600 -0.85988998 0.41936001 1.905766e-42
19.26050000 -17.29030000 411.45801000 -0.28069100 -0.86410099 0.41778299 1.905766e-42
20.77039900 -17.91750000 410.70499000 -0.26730099 -0.86778998 0.41891500 1.905766e-42
22.34330000 -18.74270100 410.41299000 -0.25051400 -0.87107402 0.42245999 1.905766e-42
24.07430100 -19.23600000 410.39499000 -0.23090400 -0.87395900 0.42764300 1.905766e-42
25.49920100 -20.00400000 409.60800000 -0.21614701 -0.87704003 0.42904699 1.905766e-42
27.25099900 -20.41690100 409.58701000 -0.19553100 -0.87968498 0.43349999 1.905766e-42
28.84250100 -21.04610100 409.02899000 -0.17759199 -0.88237000 0.43575701 1.905766e-42
30.41010100 -21.67009900 408.40201000 -0.15978301 -0.88480902 0.43770000 1.905766e-42
31.95540000 -22.10640000 407.58899000 -0.14247800 -0.88694203 0.43935600 1.905766e-42
33.61439900 -22.69199900 407.20801000 -0.12308000 -0.88905501 0.44094500 1.905766e-42
35.21490100 -23.20780000 406.56601000 -0.10792500 -0.88973802 0.44352999 1.905766e-42
36.80009800 -23.70570000 405.87399000 -0.09768190 -0.88855702 0.44824499 1.905766e-42
38.19580100 -24.01120000 404.77899000 -0.08920320 -0.88685399 0.45335701 1.905766e-42
39.74290100 -24.58670000 404.06100000 -0.07882900 -0.88534099 0.45820999 1.905766e-42
41.26350000 -25.17289900 403.29700000 -0.06848590 -0.88360399 0.46319899 1.905766e-42
42.79069900 -25.68400000 402.49301000 -0.05790490 -0.88170999 0.46822399 1.905766e-42
44.50700000 -26.21349900 402.37500000 -0.04562190 -0.88128603 0.47037601 1.905766e-42
46.10010100 -26.72769900 401.71399000 -0.03422850 -0.87956601 0.47454399 1.905766e-42
47.75640100 -27.09499900 401.11200000 -0.02223270 -0.87808901 0.47798100 1.905766e-42
49.18100000 -27.58760100 400.12799000 -0.01150490 -0.87520897 0.48360899 1.905766e-42
50.90100100 -28.02389900 399.82700000 0.00130948 -0.87420398 0.48555601 1.905766e-42
52.58480100 -28.13480000 399.20001000 0.01428850 -0.87290001 0.48768899 1.905766e-42
54.14450100 -28.48990100 398.37500000 0.02577880 -0.87053502 0.49143100 1.905766e-42
55.89189900 -28.81640100 398.09100000 0.03772670 -0.86923701 0.49295500 1.905766e-42
57.52370100 -28.79940000 397.33200000 0.04871170 -0.86690199 0.49609300 1.905766e-42
59.27249900 -28.91060100 396.92001000 0.06051700 -0.86459303 0.49881500 1.905766e-42
61.06069900 -29.04430000 396.76501000 0.07344350 -0.86185801 0.50180298 1.905766e-42
62.84709900 -28.86109900 396.88901000 0.08937130 -0.85818899 0.50549400 1.905766e-42
64.53130300 -28.87760000 396.25400000 0.10326500 -0.85274398 0.51201999 1.905766e-42
66.32099900 -28.84720000 396.06500000 0.11877000 -0.84808201 0.51638198 1.905766e-42
68.11049700 -28.67700000 395.97000000 0.13448700 -0.84371299 0.51967400 1.905766e-42
69.89160200 -28.41710100 395.97000000 0.15002300 -0.83968902 0.52193499 1.905766e-42
71.64779700 -28.02960000 396.04599000 0.16503200 -0.83609003 0.52318001 1.905766e-42
73.41600000 -27.69780000 395.98999000 0.17893900 -0.83240801 0.52447897 1.905766e-42
75.02770200 -27.33779900 395.27399000 0.19044501 -0.82822198 0.52704799 1.905766e-42
