# .PCD v0.7 - Point Cloud Data file format
# 2 84 0
# 1 43 0
# 44 84 0
VERSION 0.7
FIELDS x y z normal_x normal_y normal_z curvature
SIZE 4 4 4 4 4 4 4
TYPE F F F F F F F
COUNT 1 1 1 1 1 1 1
WIDTH 84
HEIGHT 1
VIEWPOINT 0 0 0 1 0 0 0
POINTS 84
DATA ascii
61.49980200 -2.70486000 433.05801000 -0.00118035 -0.77415198 0.63299900 1.905766e-42
61.29470100 -1.50341000 434.38199000 -0.00360212 -0.75436503 0.65644503 1.905766e-42
60.70190000 -0.36450499 435.64401000 0.00155205 -0.73381299 0.67935002 1.905766e-42
59.72549800 0.62355298 436.78900000 0.01200980 -0.70321703 0.71087402 1.905766e-42
58.85310000 1.84748010 437.77899000 0.04170490 -0.61931700 0.78403300 1.905766e-42
57.88819900 3.03856990 438.72198000 0.07640430 -0.54146802 0.83724201 1.905766e-42
56.69319900 4.14425990 439.48999000 0.08447290 -0.57347900 0.81485301 1.905766e-42
55.52090100 5.16098020 440.40201000 0.10744700 -0.60191101 0.79130101 1.905766e-42
53.83940100 5.53293990 440.92599000 0.04771570 -0.63376600 0.77205199 1.905766e-42
52.99679900 6.86084990 441.80200000 0.06294430 -0.58171201 0.81095600 1.905766e-42
51.65720000 7.71940990 442.64301000 0.04808470 -0.53902000 0.84091902 1.905766e-42
51.37369900 9.42591000 443.14099000 0.10758000 -0.44387800 0.88960600 1.905766e-42
49.75280000 9.22078040 443.89600000 0.04337060 -0.50590903 0.86149597 1.905766e-42
48.24219900 10.05410000 444.41000000 0.01360680 -0.54333800 0.83940399 1.905766e-42
46.47840100 10.37420000 444.57199000 -0.05173310 -0.58396000 0.81013203 1.905766e-42
44.78150200 10.96030000 444.70200000 -0.09299050 -0.60095298 0.79385698 1.905766e-42
43.03630100 11.38560000 444.81799000 -0.12564200 -0.60622400 0.78530598 1.905766e-42
41.31520100 11.90980000 444.87500000 -0.14656200 -0.60342097 0.78383899 1.905766e-42
39.55080000 12.26460000 444.90201000 -0.15337600 -0.60110801 0.78431201 1.905766e-42
35.82870100 13.04650000 444.79199000 -0.16044500 -0.58933401 0.79179698 1.905766e-42
34.10490000 13.56480000 444.79099000 -0.16204400 -0.58041400 0.79803598 1.905766e-42
32.37049900 14.04570000 444.81201000 -0.16036600 -0.57174700 0.80460399 1.905766e-42
30.59860000 14.33360000 444.67899000 -0.15654300 -0.56618798 0.80927497 1.905766e-42
29.00289900 15.16430000 444.73901000 -0.15477100 -0.55512601 0.81724000 1.905766e-42
27.20870000 15.18440000 444.59601000 -0.15083300 -0.55270600 0.81961298 1.905766e-42
25.50420000 15.76000000 444.65302000 -0.14840400 -0.54343301 0.82623100 1.905766e-42
23.72130000 15.92130000 444.46500000 -0.14789900 -0.54088700 0.82799000 1.905766e-42
22.03990000 16.56180000 444.51801000 -0.14925499 -0.53091300 0.83417898 1.905766e-42
20.25510000 16.76490000 444.40399000 -0.15175299 -0.52997500 0.83432400 1.905766e-42
18.65029900 17.56620000 444.55301000 -0.15391900 -0.51784700 0.84151298 1.905766e-42
16.89740000 17.97230000 444.50201000 -0.15569100 -0.51478601 0.84306401 1.905766e-42
15.21640000 18.61500000 444.53299000 -0.15493700 -0.50912899 0.84662998 1.905766e-42
13.49910000 19.15329900 444.49799000 -0.15449500 -0.50505298 0.84914798 1.905766e-42
11.72800000 19.42919900 444.33301000 -0.15411900 -0.50379503 0.84996402 1.905766e-42
10.21270000 18.69330000 443.69901000 -0.15707999 -0.52676898 0.83536798 1.905766e-42
8.75072000 17.94930100 442.95801000 -0.15887900 -0.54712999 0.82183099 1.905766e-42
7.10411980 17.74600000 442.26001000 -0.15822400 -0.54627299 0.82252699 1.905766e-42
5.53334000 17.09359900 441.67099000 -0.15206400 -0.54463702 0.82477099 1.905766e-42
3.92880990 16.76170000 440.92599000 -0.14659600 -0.54522401 0.82537299 1.905766e-42
2.46719000 15.90880000 440.31201000 -0.14204000 -0.56120700 0.81539601 1.905766e-42
0.95968801 15.23230000 439.59799000 -0.13250500 -0.57019103 0.81075603 1.905766e-42
-0.24102999 14.21560000 438.72400000 -0.12076600 -0.59120399 0.79742903 1.905766e-42
-1.64375000 13.40840000 437.93600000 -0.10876100 -0.60908401 0.78561300 1.905766e-42
-2.30007000 12.13800000 436.84299000 -0.10194700 -0.64088702 0.76083601 1.905766e-42
-1.02804990 11.10020000 436.10501000 -0.11002500 -0.66347700 0.74006301 1.905766e-42
0.61873001 10.46200000 435.75699000 -0.11677700 -0.67068398 0.73249298 1.905766e-42
2.15612010 9.66063980 435.27301000 -0.12589800 -0.68365997 0.71885997 1.905766e-42
3.37918000 8.71387000 434.35199000 -0.13943200 -0.70887399 0.69141603 1.905766e-42
5.07602980 8.11513040 434.30499000 -0.14807101 -0.70765197 0.69087201 1.905766e-42
6.51827000 7.20300010 433.73199000 -0.15586600 -0.72079903 0.67539299 1.905766e-42
7.97231010 6.32879020 433.13101000 -0.16063100 -0.73195398 0.66214800 1.905766e-42
9.62261010 5.68607000 432.81000000 -0.16186400 -0.73774201 0.65539002 1.905766e-42
11.27630000 5.05387020 432.48499000 -0.16422699 -0.74640602 0.64490801 1.905766e-42
12.58890000 4.09635020 431.70999000 -0.17816700 -0.78231102 0.59686399 1.905766e-42
14.18800000 3.44128990 431.20599000 -0.18385801 -0.79687500 0.57548898 1.905766e-42
15.89940000 2.88354990 431.19601000 -0.18380401 -0.79577899 0.57701999 1.905766e-42
17.41560000 2.27648000 430.44000000 -0.19151200 -0.81588501 0.54557699 1.905766e-42
19.14640000 1.81013000 430.60300000 -0.18909200 -0.80879098 0.55686802 1.905766e-42
20.65630000 1.12342000 429.90399000 -0.19489700 -0.82770097 0.52623802 1.905766e-42
22.30590100 0.46746901 429.60599000 -0.19539200 -0.83426702 0.51557797 1.905766e-42
24.03389900 -0.03625710 429.60101000 -0.19197699 -0.83155203 0.52121598 1.905766e-42
25.62229900 -0.59602499 428.96600000 -0.19534101 -0.84169900 0.50337398 1.905766e-42
27.30410000 -1.22437000 428.83701000 -0.19359800 -0.84102201 0.50517601 1.905766e-42
29.06730100 -1.51965000 429.04700000 -0.18471400 -0.83077699 0.52506202 1.905766e-42
30.77059900 -2.06034990 428.83200000 -0.18200700 -0.83149600 0.52486902 1.905766e-42
32.35409900 -2.59407000 428.16299000 -0.18362001 -0.84037399 0.50995499 1.905766e-42
34.07519900 -3.12119010 428.16800000 -0.17881300 -0.83793598 0.51564503 1.905766e-42
35.79570000 -3.62313010 428.00101000 -0.17519701 -0.83851498 0.51594502 1.905766e-42
37.54840100 -4.03189990 427.97101000 -0.16766800 -0.83681399 0.52118099 1.905766e-42
39.32389800 -4.32702020 427.99301000 -0.15895399 -0.83323699 0.52957600 1.905766e-42
40.93940000 -4.85802980 427.40302000 -0.15560099 -0.84091502 0.51831502 1.905766e-42
42.66249800 -5.34910010 427.23099000 -0.14839500 -0.84192997 0.51878101 1.905766e-42
44.43769800 -5.57380010 427.42599000 -0.13775200 -0.83653998 0.53030699 1.905766e-42
46.17060100 -6.01127000 427.21201000 -0.12873700 -0.83655500 0.53254402 1.905766e-42
47.79169800 -6.57827000 426.67300000 -0.12235400 -0.83756101 0.53246599 1.905766e-42
49.32920100 -7.20629980 425.97900000 -0.11916100 -0.83219099 0.54153401 1.905766e-42
51.01620100 -7.70569990 425.59900000 -0.10415500 -0.81829500 0.56528199 1.905766e-42
52.60689900 -7.37609000 426.37399000 -0.07786180 -0.81839502 0.56935602 1.905766e-42
54.07389800 -6.62862010 427.10199000 -0.06229340 -0.81840700 0.57125300 1.905766e-42
54.99959900 -5.97500990 428.50000000 -0.05202360 -0.80975002 0.58446401 1.905766e-42
56.43190000 -5.36942010 429.40701000 -0.03808990 -0.80102903 0.59741300 1.905766e-42
57.24000200 -4.46587990 430.73700000 -0.02716460 -0.79021198 0.61223102 1.905766e-42
58.97990000 -4.23868990 431.13901000 -0.01275420 -0.78608501 0.61798698 1.905766e-42
60.50439800 -3.64038990 431.88599000 -0.00272025 -0.78100502 0.62451899 1.905766e-42
