# .PCD v0.7 - Point Cloud Data file format
# 3 91 0
# 1 32 0
# 33 57 0
# 58 91 0
VERSION 0.7
FIELDS x y z normal_x normal_y normal_z curvature
SIZE 4 4 4 4 4 4 4
TYPE F F F F F F F
COUNT 1 1 1 1 1 1 1
WIDTH 91
HEIGHT 1
VIEWPOINT 0 0 0 1 0 0 0
POINTS 91
DATA ascii
7.87830020 1.48093000 437.58801000 -0.04965100 0.86158401 -0.50518101 1.905766e-42
6.37814000 1.40606000 437.82700000 -0.02755570 0.86215001 -0.50590402 1.905766e-42
4.85058020 1.96785000 438.59500000 -0.01217790 0.86853802 -0.49547201 1.905766e-42
3.21216990 2.36944010 439.22299000 0.00399737 0.87489903 -0.48428899 1.905766e-42
1.71620000 2.90317990 440.07001000 0.01592320 0.87879002 -0.47694299 1.905766e-42
0.03960620 3.20353010 440.65201000 0.01634980 0.88369399 -0.46777999 1.905766e-42
0.42637700 4.02914000 442.20401000 0.00595601 0.87407500 -0.48575500 1.905766e-42
0.17062099 4.81797980 443.80200000 0.00049316 0.86011600 -0.51009899 1.905766e-42
-0.70329398 5.68331000 445.11600000 0.00154596 0.83919799 -0.54382402 1.905766e-42
-1.90955000 6.45002990 446.20999000 0.00427164 0.81111002 -0.58487803 1.905766e-42
-2.88738990 7.35251000 447.42300000 0.01253160 0.77778202 -0.62840903 1.905766e-42
-4.13586000 8.17539020 448.42499000 0.02323380 0.76521498 -0.64335603 1.905766e-42
-5.14092020 9.04765030 449.63699000 0.03508100 0.75952601 -0.64952999 1.905766e-42
-5.46506980 10.26550000 450.92200000 0.05321200 0.76005799 -0.64767301 1.905766e-42
-6.15101000 11.39970000 452.14001000 0.06993490 0.75465602 -0.65238202 1.905766e-42
-7.55790000 12.16700000 452.95901000 0.07916260 0.73796499 -0.67018002 1.905766e-42
-8.06112960 13.42220000 454.14700000 0.10423700 0.72272700 -0.68322802 1.905766e-42
-8.71833990 14.60180000 455.33801000 0.12962200 0.70254600 -0.69973397 1.905766e-42
-9.34926030 15.83270000 456.48999000 0.15475300 0.68847799 -0.70855403 1.905766e-42
-9.30601020 17.15490000 457.70999000 0.16963100 0.69178498 -0.70189703 1.905766e-42
-10.30510000 18.29719900 458.67801000 0.15800600 0.69717902 -0.69926703 1.905766e-42
-10.64140000 19.66550100 459.79800000 0.16328400 0.70712602 -0.68797600 1.905766e-42
-10.71160000 21.06410000 460.92899000 0.15982699 0.69498998 -0.70103103 1.905766e-42
-10.52710000 22.42670100 462.09100000 0.15043700 0.66131300 -0.73487002 1.905766e-42
-11.51140000 23.61039900 463.02301000 0.13828500 0.63452798 -0.76042902 1.905766e-42
-12.09620000 24.87150000 464.16699000 0.12118400 0.60258800 -0.78879797 1.905766e-42
-12.09450000 26.36820000 465.16699000 0.11368800 0.56473702 -0.81740302 1.905766e-42
-12.54390000 27.81090000 466.14499000 0.11470100 0.54765099 -0.82880801 1.905766e-42
-12.91360000 29.28550000 467.10901000 0.12769100 0.53437001 -0.83555001 1.905766e-42
-13.23480000 30.79430000 468.03601000 0.14648700 0.50973600 -0.84776801 1.905766e-42
-13.47260000 32.35530100 468.89999000 0.17371801 0.46913400 -0.86587298 1.905766e-42
-13.13200000 33.93890000 469.68500000 0.22643000 0.42470801 -0.87655699 1.905766e-42
-12.37750000 35.31909900 470.56000000 0.29101700 0.41225299 -0.86334002 1.905766e-42
-10.93110000 35.90890100 471.45499000 0.32679501 0.43215701 -0.84050298 1.905766e-42
-9.27851960 35.52360200 472.05499000 0.31905100 0.46145701 -0.82780701 1.905766e-42
-7.57131000 35.17300000 472.50500000 0.28756699 0.47987899 -0.82886702 1.905766e-42
-5.81460000 35.08449900 472.88800000 0.22445500 0.48257899 -0.84660298 1.905766e-42
-4.05210020 35.19910000 473.23499000 0.17580600 0.46596500 -0.86716098 1.905766e-42
-2.26744010 35.17590000 473.46799000 0.15562400 0.46340501 -0.87237400 1.905766e-42
-0.50355601 35.19570200 473.82599000 0.16779600 0.48699301 -0.85713601 1.905766e-42
1.20052000 35.17879900 474.40601000 0.21511300 0.49994099 -0.83891898 1.905766e-42
2.91563010 35.06179800 474.93900000 0.26480499 0.50555599 -0.82115197 1.905766e-42
4.64122010 34.72359800 475.32401000 0.31107599 0.50520200 -0.80498600 1.905766e-42
6.30802010 34.82970000 475.99500000 0.28235301 0.51271498 -0.81080198 1.905766e-42
8.05016990 34.37739900 475.97699000 0.20022400 0.54899400 -0.81149000 1.905766e-42
9.83049010 34.43660000 476.23599000 0.11290400 0.55612099 -0.82339698 1.905766e-42
11.52830000 34.77439900 476.72900000 0.05647840 0.54296100 -0.83785599 1.905766e-42
13.28000000 34.38750100 476.58099000 0.06389240 0.54857898 -0.83365399 1.905766e-42
15.05810000 34.40760000 476.85999000 0.09035170 0.55423898 -0.82743901 1.905766e-42
16.61510100 34.91230000 477.60901000 0.15587200 0.57063502 -0.80627501 1.905766e-42
18.39220000 34.63940000 477.69601000 0.17237499 0.60634601 -0.77629298 1.905766e-42
19.99350000 34.99470100 478.43701000 0.18230000 0.61760598 -0.76506799 1.905766e-42
21.78550000 34.87049900 478.55399000 0.16569400 0.63360900 -0.75570202 1.905766e-42
23.45630100 35.04980100 479.19901000 0.14090399 0.63690501 -0.75795698 1.905766e-42
25.24939900 35.04050100 479.35599000 0.09542270 0.64259100 -0.76024503 1.905766e-42
26.99110000 35.22200000 479.77301000 0.02841820 0.64229703 -0.76592898 1.905766e-42
28.73910000 35.19419900 479.34399000 -0.05200960 0.63359499 -0.77191502 1.905766e-42
30.52529900 34.98960100 479.25699000 -0.09098180 0.60271102 -0.79275602 1.905766e-42
31.63909900 33.90860000 478.34500000 -0.11024600 0.58305103 -0.80492097 1.905766e-42
31.88349900 32.57049900 477.16599000 -0.04845740 0.61437601 -0.78752398 1.905766e-42
32.13930100 31.18759900 476.04300000 -0.01679000 0.65141100 -0.75853997 1.905766e-42
31.64060000 29.78850000 475.02600000 0.01238360 0.69635397 -0.71759200 1.905766e-42
31.05270000 28.56510000 473.84399000 0.04500630 0.73225898 -0.67953700 1.905766e-42
30.08449900 27.74200100 472.56900000 0.05926570 0.74567902 -0.66366500 1.905766e-42
29.43919900 26.69540000 471.25500000 0.05819170 0.75755900 -0.65016800 1.905766e-42
29.08950000 25.51919900 469.93799000 0.04872030 0.77075201 -0.63527000 1.905766e-42
28.48119900 24.44080000 468.63101000 0.02808370 0.76818699 -0.63960999 1.905766e-42
27.68530100 23.46150000 467.34799000 -0.00024749 0.75681299 -0.65363097 1.905766e-42
27.09900100 22.33790000 466.06900000 -0.02883710 0.74635202 -0.66492599 1.905766e-42
26.76030000 21.02910000 464.88101000 -0.05809560 0.73815298 -0.67212701 1.905766e-42
26.17130100 19.86430000 463.64200000 -0.08298450 0.74563497 -0.66116703 1.905766e-42
25.16040000 18.99080100 462.43500000 -0.07693550 0.77438003 -0.62802601 1.905766e-42
24.74210000 17.80410000 461.14801000 -0.06234410 0.80520499 -0.58971101 1.905766e-42
24.60350000 16.57670000 459.83899000 -0.04025340 0.82890999 -0.55793202 1.905766e-42
23.98300000 15.72240000 458.38101000 0.00114333 0.85051697 -0.52594697 1.905766e-42
23.01440000 15.10290000 456.99600000 0.00644079 0.83844900 -0.54494101 1.905766e-42
22.52930100 14.16220000 455.54001000 -0.00705783 0.82371902 -0.56695402 1.905766e-42
21.54920000 13.41730000 454.22699000 -0.04559690 0.80681300 -0.58904499 1.905766e-42
20.75960000 12.32720000 453.03201000 -0.09454090 0.78596300 -0.61100298 1.905766e-42
19.89880000 11.16500000 451.95999000 -0.11791200 0.79886502 -0.58983999 1.905766e-42
19.64550000 10.03930000 450.57901000 -0.11754200 0.82642102 -0.55064702 1.905766e-42
18.75350000 9.19223020 449.26501000 -0.10311900 0.85053700 -0.51570702 1.905766e-42
18.20859900 8.30099010 447.79901000 -0.08103900 0.87408501 -0.47896501 1.905766e-42
17.22550000 7.56362010 446.48401000 -0.07335230 0.87229598 -0.48344499 1.905766e-42
16.11290000 6.77697990 445.30701000 -0.07868680 0.86188799 -0.50095701 1.905766e-42
15.03770000 5.87418990 444.18100000 -0.08616280 0.84949702 -0.52050900 1.905766e-42
13.96170000 5.02038000 443.01801000 -0.08871150 0.83506602 -0.54295099 1.905766e-42
12.82420000 4.28481010 441.83200000 -0.07806570 0.84488797 -0.52921700 1.905766e-42
11.62920000 3.65116000 440.64499000 -0.06822020 0.85433298 -0.51522899 1.905766e-42
10.45030000 2.84454990 439.54999000 -0.06351560 0.85974598 -0.50675601 1.905766e-42
9.43597030 1.98709000 438.33499000 -0.06407620 0.86327600 -0.50064802 1.905766e-42
