# .PCD v0.7 - Point Cloud Data file format
# 4 151 1
# 1 47 1
# 48 77 0
# 78 133 0
# 134 151 0
VERSION 0.7
FIELDS x y z normal_x normal_y normal_z curvature
SIZE 4 4 4 4 4 4 4
TYPE F F F F F F F
COUNT 1 1 1 1 1 1 1
WIDTH 151
HEIGHT 1
VIEWPOINT 0 0 0 1 0 0 0
POINTS 151
DATA ascii
3.75897000 87.93820200 351.50900000 -0.15726700 -0.69255799 -0.70401001 1.905766e-42
4.65377000 86.75260200 352.52600000 -0.14971501 -0.68518102 -0.71281999 1.905766e-42
5.43152000 85.49079900 353.54700000 -0.14525300 -0.67699599 -0.72151101 1.905766e-42
6.32730010 84.30280300 354.56000000 -0.13612400 -0.66567498 -0.73372102 1.905766e-42
7.17395020 83.07430300 355.56699000 -0.12927400 -0.65185398 -0.74724501 1.905766e-42
7.51916980 81.57379900 356.49899000 -0.14417700 -0.64077801 -0.75406700 1.905766e-42
8.27233980 80.26689900 357.48099000 -0.14138900 -0.62557900 -0.76724201 1.905766e-42
9.22235010 79.08540300 358.45200000 -0.12632500 -0.60866898 -0.78330302 1.905766e-42
9.59640980 77.57949800 359.36401000 -0.13861901 -0.59569800 -0.79115599 1.905766e-42
10.10630000 76.13549800 360.31000000 -0.14460400 -0.58128399 -0.80074900 1.905766e-42
10.61460000 74.68620300 361.24899000 -0.14971600 -0.56806397 -0.80925202 1.905766e-42
11.30290000 73.31410200 362.18900000 -0.14467099 -0.55785698 -0.81723100 1.905766e-42
11.73800000 71.85070000 363.14200000 -0.14922699 -0.54991698 -0.82178098 1.905766e-42
11.35730000 70.26989700 363.91400000 -0.18503000 -0.54696798 -0.81644899 1.905766e-42
11.83540000 68.76429700 364.77701000 -0.18480401 -0.53879100 -0.82191998 1.905766e-42
12.45730000 67.28459900 365.59201000 -0.17898600 -0.52985102 -0.82898903 1.905766e-42
12.12910000 66.23390200 366.35901000 -0.20718400 -0.52762502 -0.82382399 1.905766e-42
12.98170000 64.80670200 367.04901000 -0.19323000 -0.51382297 -0.83585203 1.905766e-42
14.15040000 63.65630000 367.79099000 -0.17172500 -0.49601600 -0.85116303 1.905766e-42
14.39950000 62.08079900 368.62500000 -0.18407200 -0.48232299 -0.85643500 1.905766e-42
14.44760000 60.44850200 369.38199000 -0.20067300 -0.47026700 -0.85940599 1.905766e-42
14.75770000 58.86940000 370.18900000 -0.20898700 -0.45743099 -0.86433899 1.905766e-42
15.04570000 57.29819900 371.01901000 -0.21719100 -0.44549200 -0.86854202 1.905766e-42
14.46700000 55.74599800 371.72299000 -0.24428201 -0.43805501 -0.86512101 1.905766e-42
14.15280000 54.18500100 372.56201000 -0.26385599 -0.42647099 -0.86515999 1.905766e-42
14.54100000 52.57580200 373.26901000 -0.26454800 -0.41138801 -0.87222397 1.905766e-42
14.60680000 50.93740100 374.01199000 -0.27179500 -0.39705500 -0.87662703 1.905766e-42
14.80130000 49.30519900 374.74500000 -0.27466500 -0.38294300 -0.88199401 1.905766e-42
15.90900000 47.99399900 375.28699000 -0.25679600 -0.37184399 -0.89206898 1.905766e-42
14.47460000 47.00630200 375.74200000 -0.28741801 -0.36358500 -0.88611299 1.905766e-42
14.68530000 45.33179900 376.36801000 -0.28468299 -0.35018200 -0.89237201 1.905766e-42
15.44680000 43.77570000 376.85599000 -0.26934800 -0.34022900 -0.90094203 1.905766e-42
14.44820000 42.43380000 377.52100000 -0.28731999 -0.32805201 -0.89990503 1.905766e-42
14.40810000 40.74959900 378.15500000 -0.28466001 -0.31632999 -0.90493298 1.905766e-42
14.47100000 39.04309800 378.72400000 -0.27826500 -0.30495000 -0.91080999 1.905766e-42
14.48330000 37.33110000 379.28000000 -0.27152899 -0.29315701 -0.91669601 1.905766e-42
14.41490000 35.61579900 379.82101000 -0.26524600 -0.28065500 -0.92242998 1.905766e-42
14.26430000 33.90760000 380.36899000 -0.25988001 -0.26728699 -0.92791200 1.905766e-42
13.85400000 32.24729900 380.92999000 -0.25995800 -0.25323901 -0.93182200 1.905766e-42
13.84940000 30.51330000 381.41299000 -0.24994899 -0.24241900 -0.93742102 1.905766e-42
14.41610000 28.84380000 381.77600000 -0.22637400 -0.23615600 -0.94497901 1.905766e-42
14.16580000 27.14040000 382.30099000 -0.21987300 -0.22224499 -0.94987500 1.905766e-42
13.76290000 25.45310000 382.78101000 -0.21644901 -0.20617300 -0.95427603 1.905766e-42
12.96400000 23.88859900 383.17401000 -0.22383399 -0.18653101 -0.95661098 1.905766e-42
13.25030000 22.15230000 383.55200000 -0.20221700 -0.17690000 -0.96323103 1.905766e-42
13.21290000 20.41720000 384.03000000 -0.18945900 -0.17044100 -0.96698302 1.905766e-42
12.33260000 18.86470000 384.26401000 -0.20141999 -0.15983900 -0.96637601 1.905766e-42
11.09970000 17.59350000 384.58701000 -0.22895300 -0.14799000 -0.96212202 1.905766e-42
9.45384030 17.10619900 385.12799000 -0.28167000 -0.13285500 -0.95026898 1.905766e-42
7.75577020 17.26910000 385.70300000 -0.33581099 -0.11678400 -0.93466198 1.905766e-42
6.06355000 17.06480000 386.28101000 -0.33256799 -0.10871800 -0.93679202 1.905766e-42
4.38169000 17.28680000 386.88300000 -0.33024701 -0.10394300 -0.93815398 1.905766e-42
2.74309990 16.80010000 387.44699000 -0.32679501 -0.09961950 -0.93983001 1.905766e-42
1.04138000 16.93390100 388.01801000 -0.30823401 -0.09869080 -0.94617802 1.905766e-42
-0.65937299 16.98180000 388.60599000 -0.26655701 -0.09921190 -0.95869899 1.905766e-42
-2.38816000 16.81160000 389.07700000 -0.22550800 -0.09976680 -0.96912003 1.905766e-42
-4.13819980 16.95730000 389.47198000 -0.18483400 -0.10365700 -0.97728801 1.905766e-42
-5.89964010 17.11190000 389.80899000 -0.15964700 -0.10943000 -0.98109001 1.905766e-42
-7.66095020 16.80999900 390.02499000 -0.15392400 -0.11130900 -0.98179299 1.905766e-42
-9.44604970 16.82220100 390.25601000 -0.14658099 -0.11222600 -0.98281199 1.905766e-42
-11.22340000 16.83690100 390.54001000 -0.13851300 -0.11030800 -0.98419797 1.905766e-42
-13.01500000 16.72839900 390.67599000 -0.11929800 -0.10528100 -0.98726100 1.905766e-42
-14.62680000 15.99290000 390.99399000 -0.08502440 -0.09854440 -0.99149400 1.905766e-42
-16.42050000 15.94310000 391.13599000 -0.04969090 -0.09856230 -0.99388897 1.905766e-42
-18.19590000 15.67560000 391.26401000 -0.01597710 -0.10122600 -0.99473500 1.905766e-42
-19.92600100 15.19130000 391.37399000 0.01301940 -0.10667000 -0.99420899 1.905766e-42
-21.71780000 15.06370000 391.26001000 0.03789470 -0.11509600 -0.99263102 1.905766e-42
-23.38960100 14.39940000 391.32199000 0.05985910 -0.11772200 -0.99124098 1.905766e-42
-25.18020100 14.39270000 391.13800000 0.08699420 -0.12181700 -0.98873299 1.905766e-42
-26.80920000 13.62920000 391.07999000 0.11159000 -0.11784800 -0.98674202 1.905766e-42
-28.59260000 13.66750000 390.83801000 0.13896500 -0.11909200 -0.98311001 1.905766e-42
-30.16460000 12.80450000 390.68399000 0.16127500 -0.11903100 -0.97970498 1.905766e-42
-31.93300100 12.66220000 390.38000000 0.19257100 -0.13203301 -0.97236001 1.905766e-42
-33.67240100 12.32380000 390.06299000 0.22628801 -0.15026700 -0.96240002 1.905766e-42
-35.21250200 11.61320000 389.46100000 0.28542799 -0.16719700 -0.94370401 1.905766e-42
-36.96440100 11.29390000 389.19800000 0.33604100 -0.18519400 -0.92346102 1.905766e-42
-38.65679900 11.24280000 388.58701000 0.37360001 -0.20618001 -0.90438497 1.905766e-42
-40.25170100 11.53120000 387.80399000 0.39782801 -0.24463800 -0.88424301 1.905766e-42
-41.14880000 12.91140000 387.07599000 0.42918399 -0.22840001 -0.87386203 1.905766e-42
-40.70029800 14.64240000 386.87000000 0.43454701 -0.22759600 -0.87141800 1.905766e-42
-39.88250000 16.24460000 386.80600000 0.43263900 -0.23383901 -0.87071401 1.905766e-42
-39.05989800 17.84420000 386.73901000 0.43085599 -0.24273200 -0.86916298 1.905766e-42
-38.73289900 19.58070000 386.39600000 0.43670499 -0.25838500 -0.86170000 1.905766e-42
-37.82440200 21.13460000 386.40500000 0.43444699 -0.27050501 -0.85911798 1.905766e-42
-36.77119800 22.59250100 386.47900000 0.43014401 -0.28177300 -0.85766000 1.905766e-42
-36.11930100 24.25200100 386.23300000 0.43076101 -0.28051499 -0.85776198 1.905766e-42
-36.42490000 25.91309900 385.60999000 0.44171900 -0.28317100 -0.85129201 1.905766e-42
-35.29460100 27.31049900 385.70901000 0.43847701 -0.28002301 -0.85400599 1.905766e-42
-35.21239900 29.04240000 385.22601000 0.44632599 -0.28222501 -0.84920102 1.905766e-42
-35.03020100 30.77230100 384.76300000 0.45256501 -0.28438401 -0.84516901 1.905766e-42
-34.47470100 32.46099900 384.48099000 0.45739600 -0.28547099 -0.84219599 1.905766e-42
-34.45629900 34.18190000 383.95300000 0.46239999 -0.28908199 -0.83822298 1.905766e-42
-33.79740100 35.83969900 383.71399000 0.46318600 -0.28997999 -0.83747900 1.905766e-42
-34.27410100 37.45850000 383.08701000 0.46973699 -0.29285499 -0.83281702 1.905766e-42
-33.72909900 39.10329800 382.60001000 0.46816799 -0.29516900 -0.83288300 1.905766e-42
-34.13930100 40.76910000 382.05499000 0.47578701 -0.29737899 -0.82776397 1.905766e-42
-33.60829900 42.41949800 381.57101000 0.46788901 -0.30129901 -0.83084202 1.905766e-42
-32.82420000 44.00510000 381.23700000 0.44780600 -0.30737901 -0.83963603 1.905766e-42
-32.81370200 45.70570000 380.64801000 0.44764701 -0.31113800 -0.83833498 1.905766e-42
-32.88489900 47.38629900 380.00699000 0.44880301 -0.31536499 -0.83613503 1.905766e-42
-32.84600100 49.07600000 379.38800000 0.44521701 -0.32048199 -0.83610600 1.905766e-42
-32.86579900 50.73519900 378.69000000 0.44223699 -0.32530901 -0.83582300 1.905766e-42
-32.98680100 52.38830200 377.98801000 0.43995801 -0.32954800 -0.83536500 1.905766e-42
-33.70769900 53.83240100 377.19199000 0.45268399 -0.32749301 -0.82935202 1.905766e-42
-33.94430200 55.42120000 376.37900000 0.45112899 -0.32948300 -0.82941097 1.905766e-42
-33.77270100 57.08319900 375.70999000 0.43634099 -0.33811101 -0.83383900 1.905766e-42
-34.41840000 58.50809900 374.82001000 0.42512399 -0.34358901 -0.83738601 1.905766e-42
-35.18820200 59.87170000 373.93201000 0.40965101 -0.34867701 -0.84297699 1.905766e-42
-35.29079800 61.48979900 373.14999000 0.39737299 -0.35851100 -0.84472799 1.905766e-42
-35.45629900 63.09790000 372.35800000 0.38426599 -0.36812100 -0.84665602 1.905766e-42
-35.83990100 64.63590200 371.50500000 0.37091899 -0.37583199 -0.84921700 1.905766e-42
-36.63050100 65.99630000 370.63101000 0.35950500 -0.37922901 -0.85260898 1.905766e-42
-36.48410000 67.60410300 369.83499000 0.34491101 -0.39384699 -0.85201001 1.905766e-42
-36.20209900 69.25759900 369.18201000 0.32826999 -0.41445300 -0.84880400 1.905766e-42
-36.04000100 70.89759800 368.45801000 0.31075299 -0.43450901 -0.84536099 1.905766e-42
-36.10829900 72.48470300 367.61200000 0.29413000 -0.45239300 -0.84191900 1.905766e-42
-36.05260100 74.06359900 366.74899000 0.27635899 -0.47157800 -0.83740097 1.905766e-42
-35.99729900 75.63289600 365.87000000 0.25842699 -0.49080300 -0.83206302 1.905766e-42
-35.83110000 77.17659800 364.95901000 0.24001700 -0.51071900 -0.82556498 1.905766e-42
-35.36679800 78.71199800 364.14200000 0.22044900 -0.53115702 -0.81809199 1.905766e-42
-36.00880100 80.06479600 363.14301000 0.20645200 -0.54106700 -0.81524497 1.905766e-42
-35.88999900 81.66519900 362.32800000 0.18686500 -0.55972201 -0.80733699 1.905766e-42
-35.01960000 82.88600200 361.33200000 0.16794799 -0.58278799 -0.79507899 1.905766e-42
-34.70100000 84.36250300 360.35300000 0.14834701 -0.60332400 -0.78357702 1.905766e-42
-33.98030100 85.68930100 359.37299000 0.12924100 -0.62615901 -0.76890999 1.905766e-42
-33.55630100 87.08219900 358.31500000 0.10851800 -0.65053099 -0.75168699 1.905766e-42
-32.66260100 88.30590100 357.34299000 0.07927760 -0.67466199 -0.73385698 1.905766e-42
-32.05830000 89.62400100 356.27701000 0.05347230 -0.69486499 -0.71714902 1.905766e-42
-30.81510000 90.48490100 355.29999000 0.02367500 -0.71400601 -0.69973898 1.905766e-42
-30.29640000 91.67070000 354.04901000 0.00207002 -0.72940397 -0.68408000 1.905766e-42
-29.96279900 92.82260100 352.70700000 -0.01605540 -0.74226898 -0.66990900 1.905766e-42
-28.57550000 93.59670300 351.86099000 -0.03489450 -0.75461298 -0.65524203 1.905766e-42
-27.96509900 94.69110100 350.56900000 -0.04540120 -0.76481903 -0.64264297 1.905766e-42
-26.63390000 95.41280400 349.59601000 -0.04795300 -0.77154499 -0.63436502 1.905766e-42
-24.83460000 95.36689800 349.61801000 -0.04379110 -0.77144599 -0.63478601 1.905766e-42
-23.06300000 95.05930300 349.70099000 -0.04082110 -0.76960999 -0.63720798 1.905766e-42
-21.53700100 94.43630200 350.42401000 -0.04058080 -0.76428801 -0.64359701 1.905766e-42
-19.73850100 94.37449600 350.38501000 -0.05166430 -0.76171702 -0.64584702 1.905766e-42
-17.94290000 94.24900100 350.38901000 -0.07952520 -0.76041198 -0.64455402 1.905766e-42
-16.15449900 94.04630300 350.40799000 -0.10414800 -0.76101601 -0.64031899 1.905766e-42
-14.40500000 93.62799800 350.47601000 -0.12439100 -0.76273799 -0.63463199 1.905766e-42
-12.66930000 93.19229900 350.66901000 -0.14194199 -0.76528299 -0.62784898 1.905766e-42
-11.09170000 92.48680100 351.17200000 -0.16324399 -0.76217902 -0.62644601 1.905766e-42
-9.35672000 92.00740100 351.16000000 -0.19499999 -0.75779903 -0.62266803 1.905766e-42
-7.61061000 91.58229800 351.05801000 -0.23081601 -0.74979103 -0.62011099 1.905766e-42
-5.87680010 91.11640200 350.92801000 -0.26817799 -0.73820198 -0.61898202 1.905766e-42
-4.18312980 90.52169800 351.06201000 -0.25543001 -0.73395002 -0.62934297 1.905766e-42
-2.48544000 90.50190000 350.46399000 -0.23576200 -0.73006499 -0.64142197 1.905766e-42
-0.99280298 89.58129900 350.87000000 -0.22779700 -0.72259998 -0.65265399 1.905766e-42
0.74686199 89.45580300 350.42499000 -0.20537800 -0.71233702 -0.67111599 1.905766e-42
2.40511990 88.81749700 350.71301000 -0.17799500 -0.70148897 -0.69009501 1.905766e-42
