# .PCD v0.7 - Point Cloud Data file format
# 5 131 -2
# 1 15 0
# 16 35 0
# 36 77 0
# 78 101 0
# 102 131 0
VERSION 0.7
FIELDS x y z normal_x normal_y normal_z curvature
SIZE 4 4 4 4 4 4 4
TYPE F F F F F F F
COUNT 1 1 1 1 1 1 1
WIDTH 131
HEIGHT 1
VIEWPOINT 0 0 0 1 0 0 0
POINTS 131
DATA ascii
20.50930000 27.27440100 491.86499000 -0.21737900 0.83316898 -0.50850397 1.905766e-42
22.16190000 28.29100000 492.78000000 -0.23811001 0.83230001 -0.50058001 1.905766e-42
23.60180100 27.96719900 491.75000000 -0.24318300 0.81882501 -0.51998901 1.905766e-42
25.29150000 28.26090000 491.20300000 -0.25282300 0.80533302 -0.53620797 1.905766e-42
26.57830000 27.87840100 490.00400000 -0.24565600 0.78383398 -0.57031298 1.905766e-42
28.10610000 27.62389900 489.08701000 -0.23630100 0.75635803 -0.60998702 1.905766e-42
29.38349900 27.02529900 487.96899000 -0.20566200 0.72061700 -0.66212898 1.905766e-42
31.04060000 26.81040000 487.29901000 -0.17770500 0.66891599 -0.72178400 1.905766e-42
32.74570100 26.44020100 486.85800000 -0.14302900 0.66354698 -0.73433501 1.905766e-42
33.81090200 25.63050100 485.65302000 -0.14032701 0.68897098 -0.71107501 1.905766e-42
35.31079900 24.94440100 484.93301000 -0.12891699 0.71613300 -0.68595397 1.905766e-42
36.86850000 24.42289900 484.19699000 -0.13295700 0.73771799 -0.66188800 1.905766e-42
38.56880200 24.24360100 483.63400000 -0.15480100 0.75374103 -0.63867998 1.905766e-42
40.09550100 24.11660000 482.68900000 -0.24604601 0.77848703 -0.57742399 1.905766e-42
41.69229900 24.34849900 481.89099000 -0.39831001 0.78543198 -0.47375801 1.905766e-42
43.18650100 24.92310000 481.06799000 -0.56999302 0.74627900 -0.34376600 1.905766e-42
44.53990200 25.84680000 480.32300000 -0.71490800 0.66569102 -0.21392301 1.905766e-42
45.65710100 26.87060000 479.35199000 -0.81303698 0.57084501 -0.11448400 1.905766e-42
46.56200000 28.24449900 478.62100000 -0.87336600 0.48508999 -0.04380860 1.905766e-42
47.20769900 29.49049900 477.49399000 -0.90892297 0.41687301 0.00872645 1.905766e-42
47.75310100 30.74589900 476.32501000 -0.92762703 0.36998799 0.05115320 1.905766e-42
48.39690000 32.10739900 475.33899000 -0.93142599 0.36115101 0.04489690 1.905766e-42
48.73490100 33.36830100 474.10001000 -0.93039697 0.36489499 0.03483800 1.905766e-42
49.34420000 34.64390200 472.98499000 -0.92870200 0.36989701 0.02623580 1.905766e-42
49.45869800 35.61970100 471.47699000 -0.92373401 0.38190299 0.02943280 1.905766e-42
49.87690000 36.75630200 470.14600000 -0.92281002 0.38240501 0.04677880 1.905766e-42
50.32149900 37.91930000 468.84601000 -0.92352998 0.37800801 0.06482640 1.905766e-42
50.93989900 39.00920100 467.55399000 -0.92498899 0.37162799 0.07929900 1.905766e-42
51.11230100 40.05820100 466.10101000 -0.92614800 0.36563399 0.09252530 1.905766e-42
51.57220100 41.34629800 464.93100000 -0.92935199 0.35544699 0.09981490 1.905766e-42
51.39040000 42.19210100 463.35199000 -0.92955899 0.35045701 0.11445700 1.905766e-42
51.74309900 43.32429900 461.99799000 -0.93161201 0.34003600 0.12835400 1.905766e-42
52.25650000 44.60469800 460.84201000 -0.93473202 0.32521901 0.14320600 1.905766e-42
52.17760100 45.75350200 459.45801000 -0.93623197 0.30487901 0.17469500 1.905766e-42
52.58300000 47.20050000 458.46701000 -0.93921298 0.28200400 0.19583800 1.905766e-42
52.45660000 48.34120200 457.08099000 -0.93820202 0.26762301 0.21944401 1.905766e-42
51.98540100 48.03830000 455.37000000 -0.93252403 0.26734200 0.24275100 1.905766e-42
51.39510000 46.98080100 454.03900000 -0.92624801 0.27856100 0.25390500 1.905766e-42
50.76179900 45.76369900 452.87299000 -0.91885501 0.30019099 0.25610700 1.905766e-42
49.89699900 44.36710000 452.13699000 -0.90917999 0.33043101 0.25339001 1.905766e-42
49.04489900 42.98350100 451.36301000 -0.89360601 0.36972499 0.25450099 1.905766e-42
48.15840100 41.67079900 450.50800000 -0.87057102 0.41211399 0.26882699 1.905766e-42
47.22580000 40.35020100 449.71701000 -0.84715497 0.44852000 0.28488299 1.905766e-42
46.25859800 39.12749900 448.81699000 -0.82377499 0.48142901 0.29936799 1.905766e-42
45.28599900 38.09009900 447.71399000 -0.80087698 0.51328802 0.30843300 1.905766e-42
44.28419900 37.07630200 446.61401000 -0.77782798 0.54438603 0.31404999 1.905766e-42
43.12979900 36.07289900 445.66501000 -0.74938500 0.57529998 0.32779801 1.905766e-42
41.88589900 35.08610200 444.81699000 -0.71866602 0.60222101 0.34763399 1.905766e-42
40.58689900 33.98429900 444.23499000 -0.68760097 0.62167698 0.37513000 1.905766e-42
39.27240000 32.93159900 443.60001000 -0.65530401 0.63816398 0.40413201 1.905766e-42
38.04959900 32.34249900 442.41800000 -0.61851400 0.66074198 0.42527601 1.905766e-42
36.73780100 31.67810100 441.37900000 -0.58304399 0.67724401 0.44877601 1.905766e-42
35.16590100 30.96839900 440.86401000 -0.55337000 0.68414497 0.47510800 1.905766e-42
33.68980000 30.48530000 439.95499000 -0.51938701 0.69544703 0.49657801 1.905766e-42
32.14300200 29.93009900 439.22000000 -0.48541099 0.70196801 0.52116901 1.905766e-42
30.55780000 29.33480100 438.60999000 -0.45206401 0.70415097 0.54754800 1.905766e-42
29.11290000 29.29789900 437.53699000 -0.41497800 0.71357000 0.56445599 1.905766e-42
27.79019900 29.38480000 436.31900000 -0.38018200 0.72315001 0.57664198 1.905766e-42
26.19630100 29.43009900 435.48401000 -0.34609199 0.72665399 0.59345901 1.905766e-42
24.65740000 29.64100100 434.57401000 -0.31134000 0.73071498 0.60755599 1.905766e-42
23.06650000 29.67000000 433.73300000 -0.27739501 0.73118198 0.62323803 1.905766e-42
21.51770000 29.89189900 432.84299000 -0.24253500 0.73213601 0.63651699 1.905766e-42
19.91430100 30.00440000 432.03299000 -0.20093800 0.72953999 0.65375400 1.905766e-42
18.20369900 30.03410000 431.47299000 -0.16235501 0.72103602 0.67360801 1.905766e-42
16.41790000 29.93700000 431.26999000 -0.13081200 0.70698500 0.69502598 1.905766e-42
14.76250000 30.15160000 430.59601000 -0.09684750 0.69382900 0.71359801 1.905766e-42
12.97640000 30.26219900 430.40201000 -0.07135220 0.67644501 0.73302901 1.905766e-42
11.19810000 30.39530000 430.15701000 -0.04538730 0.66044903 0.74949801 1.905766e-42
9.55523010 30.87850000 429.60300000 -0.01207220 0.64544898 0.76370800 1.905766e-42
8.06291010 31.60230100 428.90399000 0.02281610 0.62852299 0.77745599 1.905766e-42
6.29526000 31.94080000 428.93301000 0.05870100 0.61484498 0.78646100 1.905766e-42
4.65990020 32.62099800 428.61200000 0.09689860 0.59577203 0.79728699 1.905766e-42
3.07090000 33.38790100 428.25601000 0.13671900 0.57391202 0.80742300 1.905766e-42
1.48229000 34.17979800 427.95700000 0.17096999 0.55691898 0.81278002 1.905766e-42
-0.24551500 34.68330000 427.99200000 0.20265999 0.54854399 0.81119001 1.905766e-42
-1.73630000 35.64590100 427.69101000 0.22608000 0.53725803 0.81255198 1.905766e-42
-3.31400990 36.50519900 427.57901000 0.24844700 0.53118497 0.81001002 1.905766e-42
-4.88969990 37.37110100 427.49301000 0.26914001 0.52934903 0.80458301 1.905766e-42
-6.45046000 36.97860000 428.29901000 0.28941399 0.53033501 0.79685903 1.905766e-42
-7.13328980 35.82389800 429.49899000 0.30116200 0.54702401 0.78106803 1.905766e-42
-7.71019980 34.44580100 430.50299000 0.30985600 0.56431699 0.76520300 1.905766e-42
-7.75149010 33.04719900 431.63599000 0.31450301 0.57677501 0.75393498 1.905766e-42
-7.84141020 31.55559900 432.63901000 0.31894499 0.58517897 0.74554598 1.905766e-42
-8.26385970 30.34190000 433.89999000 0.33168200 0.59033298 0.73586202 1.905766e-42
-8.49357030 29.14349900 435.22299000 0.34501100 0.60383898 0.71857202 1.905766e-42
-9.18867970 28.04740000 436.47000000 0.35792699 0.61849803 0.69953400 1.905766e-42
-9.68723960 26.81110000 437.67999000 0.35920399 0.63804799 0.68107802 1.905766e-42
-10.11700000 25.71209900 439.03900000 0.35272500 0.66149998 0.66181701 1.905766e-42
-10.89160000 24.65360100 440.27200000 0.35160500 0.68127501 0.64205801 1.905766e-42
-10.68580000 23.61150000 441.72501000 0.35218000 0.69968200 0.62162203 1.905766e-42
-11.22970000 22.44010000 442.97900000 0.36728200 0.70985299 0.60101002 1.905766e-42
-10.99830000 21.40990100 444.43600000 0.37908700 0.71364498 0.58907002 1.905766e-42
-11.37350000 20.28940000 445.79401000 0.38478699 0.69946003 0.60224098 1.905766e-42
-11.16700000 19.09900100 447.12799000 0.37769601 0.69133598 0.61595500 1.905766e-42
-11.61340000 17.94640000 448.43701000 0.37203100 0.68455601 0.62687802 1.905766e-42
-11.59780000 16.86440100 449.87500000 0.35824499 0.68592900 0.63337398 1.905766e-42
-11.64870000 15.78900000 451.31799000 0.36653799 0.72514200 0.58293998 1.905766e-42
-11.91160000 14.79450000 452.79501000 0.36973101 0.77557999 0.51164001 1.905766e-42
-11.97390000 13.86430000 454.33499000 0.36363900 0.83269203 0.41760200 1.905766e-42
-11.84910000 13.16720000 455.98999000 0.35053900 0.88885498 0.29505900 1.905766e-42
-11.87290000 12.79520000 457.75101000 0.34701300 0.93175900 0.10680500 1.905766e-42
-11.92410000 12.78300000 459.54999000 0.33458999 0.93805599 -0.09000020 1.905766e-42
-11.66560000 13.09740000 461.30301000 0.31025001 0.91041797 -0.27365100 1.905766e-42
-11.82310000 13.62160000 463.01801000 0.27963501 0.86153197 -0.42375401 1.905766e-42
-12.04940000 14.52140000 464.56000000 0.22716001 0.83148199 -0.50698698 1.905766e-42
-11.39490000 15.37820000 466.00201000 0.17495100 0.80687100 -0.56422597 1.905766e-42
-11.34910000 16.51390100 467.39700000 0.13845700 0.79803699 -0.58648700 1.905766e-42
-11.51360000 17.65460000 468.78000000 0.11590200 0.79691201 -0.59287298 1.905766e-42
-9.79137990 17.75639900 469.29300000 0.08391350 0.78792202 -0.61003101 1.905766e-42
-8.00757030 17.88509900 469.49701000 0.05146960 0.77656800 -0.62792802 1.905766e-42
-6.49309020 18.32840000 470.36301000 0.01325170 0.77252603 -0.63484502 1.905766e-42
-4.71128990 18.37850000 470.61301000 0.06853040 0.78475899 -0.61600000 1.905766e-42
-3.42487000 18.94059900 471.73999000 0.11581300 0.81386399 -0.56939602 1.905766e-42
-2.50579000 19.68709900 473.09601000 0.15533800 0.84569502 -0.51055902 1.905766e-42
-2.22150990 20.20599900 474.79599000 0.18385001 0.87335497 -0.45105401 1.905766e-42
-0.80552697 20.77129900 475.75201000 0.22975899 0.88728499 -0.39992100 1.905766e-42
0.77568299 21.01330000 476.57800000 0.22781201 0.89419198 -0.38538501 1.905766e-42
2.43629000 20.97839900 477.27100000 0.18762000 0.89861703 -0.39659199 1.905766e-42
3.70371010 20.96699900 478.54901000 0.14903601 0.90577102 -0.39669600 1.905766e-42
5.24463990 21.06710100 479.47400000 0.10732100 0.91025198 -0.39990401 1.905766e-42
6.96313000 21.24490000 479.98001000 0.06292370 0.91204703 -0.40522900 1.905766e-42
8.64342980 21.32460000 480.62000000 0.03399880 0.91591603 -0.39992699 1.905766e-42
10.12340000 21.50659900 481.62799000 0.02948380 0.92245299 -0.38498300 1.905766e-42
11.60950000 21.89810000 482.56500000 0.02916230 0.92624700 -0.37578800 1.905766e-42
12.91370000 22.18020100 483.77399000 0.03129860 0.92759699 -0.37226999 1.905766e-42
14.42050000 22.74080100 484.58301000 0.03758850 0.92532903 -0.37729600 1.905766e-42
15.85450000 23.17230000 485.58200000 0.02196060 0.91602999 -0.40050900 1.905766e-42
17.05740000 23.78120000 486.77399000 -0.02666960 0.89958298 -0.43593499 1.905766e-42
18.25480100 24.39889900 487.96799000 -0.07761680 0.88043302 -0.46777499 1.905766e-42
19.32440000 25.23290100 489.15100000 -0.12954400 0.86028802 -0.49307501 1.905766e-42
19.94440100 26.19020100 490.54401000 -0.17540200 0.84489399 -0.50535899 1.905766e-42
