# .PCD v0.7 - Point Cloud Data file format
# 4 184 0
# 1 67 0
# 68 113 0
# 114 164 0
# 165 184 0
VERSION 0.7
FIELDS x y z normal_x normal_y normal_z curvature
SIZE 4 4 4 4 4 4 4
TYPE F F F F F F F
COUNT 1 1 1 1 1 1 1
WIDTH 184
HEIGHT 1
VIEWPOINT 0 0 0 1 0 0 0
POINTS 184
DATA ascii
70.09619900 22.89290000 435.16599000 -0.78309399 0.39442700 -0.48082399 1.905766e-42
68.96099900 21.49620100 435.14899000 -0.77131999 0.42041001 -0.47782901 1.905766e-42
68.07409700 19.93110100 435.08401000 -0.75850803 0.44647700 -0.47468400 1.905766e-42
67.78620100 18.31580000 434.34399000 -0.74467498 0.46960899 -0.47426400 1.905766e-42
66.96900200 16.73030100 434.10300000 -0.73161799 0.49482599 -0.46891600 1.905766e-42
66.33589900 15.09350000 433.70200000 -0.71841300 0.51910800 -0.46304399 1.905766e-42
65.26580000 13.65640000 433.53101000 -0.70682502 0.54215503 -0.45438501 1.905766e-42
64.44950100 12.24870000 432.76099000 -0.69418502 0.56490898 -0.44607601 1.905766e-42
63.25910200 10.90770000 432.60400000 -0.68426698 0.58540601 -0.43483201 1.905766e-42
62.44020100 9.41911030 432.00900000 -0.67340899 0.60359299 -0.42684400 1.905766e-42
61.28920000 8.03612040 431.95999000 -0.66590798 0.61802900 -0.41786000 1.905766e-42
60.44200100 6.54136990 431.42300000 -0.65724099 0.63259298 -0.40970701 1.905766e-42
59.60189800 5.09455010 430.75900000 -0.64870399 0.64701200 -0.40069699 1.905766e-42
58.38919800 3.82726000 430.35501000 -0.64256799 0.66032499 -0.38868701 1.905766e-42
57.12429800 2.59910010 429.99200000 -0.63745701 0.67321002 -0.37474900 1.905766e-42
55.91140000 1.33515000 429.57800000 -0.63243997 0.68653899 -0.35872599 1.905766e-42
54.57009900 0.13540301 429.54099000 -0.60953200 0.70939898 -0.35387000 1.905766e-42
53.63060000 -1.16170000 428.71899000 -0.58341497 0.73386502 -0.34795001 1.905766e-42
52.29430000 -2.33315990 428.43301000 -0.55117399 0.75909001 -0.34639499 1.905766e-42
51.14619800 -3.57198000 427.81000000 -0.51956302 0.78285599 -0.34233099 1.905766e-42
49.88050100 -4.67604020 427.16299000 -0.48634699 0.80622900 -0.33683899 1.905766e-42
48.27790100 -5.47634980 426.98700000 -0.45020700 0.82881898 -0.33222300 1.905766e-42
46.90359900 -6.38992980 426.26801000 -0.41562399 0.84989297 -0.32394299 1.905766e-42
45.51580000 -7.35902020 425.65601000 -0.38053000 0.86956501 -0.31472901 1.905766e-42
43.92820000 -8.12959000 425.30099000 -0.34468800 0.88727802 -0.30647701 1.905766e-42
42.44630100 -9.01136020 424.78500000 -0.31303501 0.90250099 -0.29580501 1.905766e-42
40.93220100 -9.78969960 424.20001000 -0.29004100 0.91328698 -0.28597799 1.905766e-42
39.20270200 -10.22140000 423.95001000 -0.26891801 0.91788101 -0.29185301 1.905766e-42
37.47330100 -10.67420000 423.73999000 -0.24778099 0.92324299 -0.29364401 1.905766e-42
35.87970000 -11.23360000 423.11801000 -0.22578000 0.92685503 -0.29993701 1.905766e-42
34.16859800 -11.74440000 422.89200000 -0.20432900 0.93338001 -0.29504499 1.905766e-42
32.54560100 -12.27020000 422.31799000 -0.18125400 0.93942398 -0.29091099 1.905766e-42
31.10899900 -12.90460000 421.43799000 -0.15567900 0.94565099 -0.28549799 1.905766e-42
29.35810100 -13.11650000 421.07800000 -0.10538700 0.95665300 -0.27149200 1.905766e-42
27.85940000 -13.61620000 420.21600000 -0.04882370 0.96477503 -0.25850701 1.905766e-42
26.08680000 -13.46260000 419.94299000 0.00606145 0.97070003 -0.24021700 1.905766e-42
24.44160100 -13.62340000 419.23001000 0.06021030 0.97316998 -0.22207101 1.905766e-42
22.88100100 -13.69840000 418.33600000 0.10992000 0.97276402 -0.20407601 1.905766e-42
21.38570000 -13.74880000 417.33600000 0.15425700 0.97015601 -0.18708999 1.905766e-42
19.67860000 -13.59460000 416.78601000 0.19523001 0.96544099 -0.17265400 1.905766e-42
18.01409900 -13.54920000 416.10300000 0.22578700 0.96068603 -0.16156000 1.905766e-42
16.28610000 -13.08870000 415.89700000 0.23476800 0.95982301 -0.15369900 1.905766e-42
14.64220000 -13.04910000 415.16501000 0.24473700 0.95883602 -0.14400600 1.905766e-42
12.93680000 -12.69050000 414.71500000 0.25343499 0.95790100 -0.13489300 1.905766e-42
11.25780000 -12.12960000 414.38800000 0.26101601 0.95706499 -0.12608200 1.905766e-42
9.61660960 -11.39110000 414.35699000 0.26673999 0.95640701 -0.11889600 1.905766e-42
7.90780020 -10.87290000 414.13000000 0.27284101 0.95568001 -0.11060600 1.905766e-42
6.20893000 -10.46480000 413.69800000 0.27907401 0.95494998 -0.10094100 1.905766e-42
4.51970010 -9.85142990 413.59601000 0.29992399 0.94924998 -0.09470610 1.905766e-42
2.80459000 -9.30564020 413.57401000 0.32765600 0.94034803 -0.09157860 1.905766e-42
1.08033000 -8.82310960 413.39001000 0.35574299 0.93033600 -0.08900340 1.905766e-42
-0.57359898 -8.44997020 412.78500000 0.38179299 0.92041701 -0.08406160 1.905766e-42
-2.24262000 -7.79264020 412.63599000 0.40984100 0.90811300 -0.08580210 1.905766e-42
-3.88507010 -7.07377000 412.47601000 0.43799600 0.89456397 -0.08896990 1.905766e-42
-5.46099000 -6.38802000 411.94101000 0.46386799 0.88123399 -0.09084800 1.905766e-42
-7.00655980 -5.49006990 411.72900000 0.48763701 0.86773300 -0.09617390 1.905766e-42
-8.51562980 -4.73072000 411.10800000 0.45117101 0.88681000 -0.10006200 1.905766e-42
-10.04550000 -3.81608010 410.85699000 0.40972999 0.90549302 -0.11046900 1.905766e-42
-11.64920000 -3.14441990 410.39099000 0.36189899 0.92341298 -0.12781900 1.905766e-42
-13.25550000 -2.33241010 410.37500000 0.31271201 0.93704098 -0.15545399 1.905766e-42
-14.97030000 -1.79020000 410.29999000 0.25691000 0.94632697 -0.19611800 1.905766e-42
-16.64150000 -1.58662000 409.66299000 0.17629100 0.95224500 -0.24930000 1.905766e-42
-18.42079900 -1.46695010 409.41901000 0.08880120 0.94183099 -0.32414401 1.905766e-42
-20.17300000 -1.08922000 409.58301000 0.03107840 0.91886002 -0.39335901 1.905766e-42
-20.78470000 -1.09969000 409.63699000 0.00727242 0.91031802 -0.41384500 1.905766e-42
-22.46229900 -1.64005010 409.27200000 -0.08446680 0.88029099 -0.46685401 1.905766e-42
-24.14469900 -1.74571000 409.90302000 -0.14382900 0.84460598 -0.51570702 1.905766e-42
-25.71430000 -2.03348990 410.73599000 -0.20173199 0.79904002 -0.56642699 1.905766e-42
-25.61470000 -0.92217499 412.14801000 -0.12091100 0.82389897 -0.55368799 1.905766e-42
-25.66530000 0.17084900 413.57700000 -0.05882960 0.82612598 -0.56040603 1.905766e-42
-25.25610000 1.28387000 414.93201000 0.01686560 0.82650000 -0.56268299 1.905766e-42
-25.14780000 2.35870000 416.37100000 0.08663600 0.80861801 -0.58192098 1.905766e-42
-24.96089900 3.41189000 417.81900000 0.16511400 0.79006398 -0.59036899 1.905766e-42
-24.40049900 4.35027980 419.24899000 0.24939500 0.82603401 -0.50544000 1.905766e-42
-24.74780100 5.25854020 420.76401000 0.29669899 0.84320903 -0.44829401 1.905766e-42
-24.55920000 6.12727020 422.32901000 0.35257500 0.85756999 -0.37451801 1.905766e-42
-24.76820000 6.93004990 423.92700000 0.39294600 0.86369902 -0.31562099 1.905766e-42
-24.82589900 7.63922020 425.57999000 0.43301100 0.86428797 -0.25594601 1.905766e-42
-24.55229900 8.29261020 427.23499000 0.47723401 0.84621501 -0.23699699 1.905766e-42
-25.04210100 8.98534010 428.82199000 0.51511002 0.81763798 -0.25715801 1.905766e-42
-25.54740000 9.59832950 430.43799000 0.54711199 0.79152799 -0.27230901 1.905766e-42
-26.23990100 10.19060000 431.98999000 0.57193702 0.76930100 -0.28471699 1.905766e-42
-26.06920100 10.88560000 433.64099000 0.58569098 0.75747699 -0.28843400 1.905766e-42
-27.09950100 11.54330000 434.96301000 0.59602797 0.74780297 -0.29247400 1.905766e-42
-26.97120100 12.39720000 436.54199000 0.59770697 0.73946899 -0.30972999 1.905766e-42
-27.75840000 13.34640000 437.85300000 0.60453200 0.72610599 -0.32758299 1.905766e-42
-27.71660000 14.35450000 439.34399000 0.60584998 0.71550101 -0.34785700 1.905766e-42
-27.91090000 15.37350000 440.81500000 0.60689902 0.70496601 -0.36701199 1.905766e-42
-28.36860100 16.36240000 442.24799000 0.60723400 0.69551897 -0.38408199 1.905766e-42
-27.73760000 17.05470100 443.78500000 0.59954602 0.69015700 -0.40525100 1.905766e-42
-27.70739900 17.89720000 445.37500000 0.59359199 0.69013399 -0.41396099 1.905766e-42
-27.74040000 18.65819900 447.00601000 0.58874601 0.69006801 -0.42093301 1.905766e-42
-27.32029900 19.39300000 448.59500000 0.58402503 0.68920100 -0.42885500 1.905766e-42
-27.71120100 20.22710000 450.14099000 0.58357197 0.68589097 -0.43473801 1.905766e-42
-27.36809900 21.32729900 451.52399000 0.58324599 0.68197101 -0.44129300 1.905766e-42
-28.06990100 22.52179900 452.67300000 0.58816803 0.67406303 -0.44687501 1.905766e-42
-28.36070100 23.63670000 454.05600000 0.59231502 0.65728199 -0.46598601 1.905766e-42
-27.96349900 24.71340000 455.44299000 0.59306002 0.64218003 -0.48567900 1.905766e-42
-28.26210000 25.97440000 456.69199000 0.59617001 0.62470800 -0.50430202 1.905766e-42
-28.54360000 27.19899900 457.98099000 0.59842199 0.60742599 -0.52242202 1.905766e-42
-28.31010100 28.24910000 459.42401000 0.59653699 0.59216201 -0.54174501 1.905766e-42
-28.77179900 29.49840000 460.63501000 0.59816498 0.57351202 -0.55971700 1.905766e-42
-28.01530100 30.44980000 461.96201000 0.58761501 0.54669797 -0.59651500 1.905766e-42
-28.03879900 31.79180000 463.16199000 0.58002299 0.51253301 -0.63315302 1.905766e-42
-28.30509900 33.29830200 464.10999000 0.57327300 0.47674799 -0.66638601 1.905766e-42
-27.94890000 34.69400000 465.19000000 0.55739897 0.43731201 -0.70573699 1.905766e-42
-27.72480000 36.20570000 466.14099000 0.53996599 0.39480200 -0.74334902 1.905766e-42
-27.51810100 37.74689900 467.04700000 0.52246201 0.35695300 -0.77434999 1.905766e-42
-27.12590000 39.21569800 468.01099000 0.50592399 0.32795200 -0.79780197 1.905766e-42
-26.95870000 40.79190100 468.86401000 0.49451199 0.30261299 -0.81479001 1.905766e-42
-26.86680000 42.39550000 469.67599000 0.48695800 0.27698001 -0.82834399 1.905766e-42
-26.00320100 43.78020100 470.43600000 0.47903901 0.24814101 -0.84199101 1.905766e-42
-24.83560000 44.86990000 471.26599000 0.48503101 0.20472699 -0.85019499 1.905766e-42
-23.67610000 45.96110200 472.10599000 0.49026799 0.19082800 -0.85042399 1.905766e-42
-22.18260000 45.13470100 472.67700000 0.45589900 0.24186000 -0.85653901 1.905766e-42
-21.00519900 43.79740100 472.93301000 0.43767300 0.26380700 -0.85956299 1.905766e-42
-19.64279900 42.67179900 473.27499000 0.42222399 0.27702299 -0.86312503 1.905766e-42
-18.35020100 41.44459900 473.52600000 0.40720400 0.28916800 -0.86635298 1.905766e-42
-17.09210000 40.17810100 473.75699000 0.39152199 0.30127701 -0.86944997 1.905766e-42
-15.72830000 39.08689900 474.19199000 0.37188900 0.31310800 -0.87387800 1.905766e-42
-14.63800000 37.69879900 473.83899000 0.35539901 0.32596299 -0.87603599 1.905766e-42
-13.29990000 36.49639900 473.90100000 0.33633801 0.33734000 -0.87924898 1.905766e-42
-11.76890000 35.57840000 474.13101000 0.31588700 0.34623200 -0.88336802 1.905766e-42
-10.77200000 34.10310000 473.86700000 0.30306500 0.35962600 -0.88250798 1.905766e-42
-9.23054030 33.19640000 474.07101000 0.28347501 0.36842000 -0.88538599 1.905766e-42
-7.63677980 32.38810000 474.28699000 0.26350999 0.37646401 -0.88816500 1.905766e-42
-6.11458020 31.42760100 474.30399000 0.24483401 0.38686401 -0.88903999 1.905766e-42
-4.73701000 30.28610000 474.10501000 0.22813900 0.40075701 -0.88732600 1.905766e-42
-3.16530990 29.40920100 474.07700000 0.20729600 0.41215301 -0.88721901 1.905766e-42
-1.80559000 28.25499900 473.83401000 0.18935800 0.42863500 -0.88341200 1.905766e-42
-0.35026300 27.21489900 473.63400000 0.17063500 0.44460401 -0.87932402 1.905766e-42
1.38559000 26.79859900 473.86499000 0.14637400 0.44716501 -0.88239300 1.905766e-42
2.90049000 25.89410000 473.50800000 0.12779699 0.45999700 -0.87867498 1.905766e-42
4.05018000 24.62560100 472.95200000 0.11577800 0.47397700 -0.87289298 1.905766e-42
5.70270010 23.93030000 472.79199000 0.09498990 0.47865701 -0.87284797 1.905766e-42
7.43129010 23.42910000 472.76401000 0.07254150 0.48003301 -0.87424600 1.905766e-42
8.76772980 22.37310000 472.18201000 0.05630000 0.49233201 -0.86858499 1.905766e-42
10.55950000 22.31419900 472.34399000 0.02426470 0.48759499 -0.87273300 1.905766e-42
12.34520000 22.17670100 472.52301000 -0.00696374 0.48315200 -0.87550902 1.905766e-42
13.91370000 21.55290000 471.89801000 -0.03137420 0.49042299 -0.87091899 1.905766e-42
15.70620000 21.39119900 471.92499000 -0.06121100 0.48639300 -0.87159300 1.905766e-42
17.26520000 20.75799900 471.28500000 -0.08420950 0.49296001 -0.86596698 1.905766e-42
19.05660100 20.70380000 471.11801000 -0.11260900 0.48747399 -0.86584598 1.905766e-42
20.54240000 19.97979900 470.40500000 -0.13200100 0.49404901 -0.85935497 1.905766e-42
22.30030100 19.95210100 470.01901000 -0.16127600 0.48791400 -0.85786301 1.905766e-42
24.04680100 19.91869900 469.58499000 -0.19110499 0.48229200 -0.85491198 1.905766e-42
25.79190100 20.31259900 469.38599000 -0.22223800 0.47097400 -0.85369402 1.905766e-42
27.45140100 20.13610100 468.71201000 -0.25000399 0.46900001 -0.84707499 1.905766e-42
29.13200000 20.75250100 468.52301000 -0.27976999 0.45654801 -0.84456700 1.905766e-42
30.84770000 20.80530000 467.98199000 -0.30825201 0.45188400 -0.83712697 1.905766e-42
32.53379800 21.41750000 467.83200000 -0.33604300 0.44060099 -0.83243299 1.905766e-42
34.19590000 21.54120100 467.15201000 -0.36156699 0.43691701 -0.82363403 1.905766e-42
35.82400100 22.23880000 466.83200000 -0.38389501 0.42691299 -0.81876099 1.905766e-42
37.48680100 22.76610000 466.38800000 -0.40556699 0.41894701 -0.81240302 1.905766e-42
39.07920100 23.03960000 465.59399000 -0.42612201 0.41458100 -0.80407900 1.905766e-42
40.38779800 24.26230000 465.41400000 -0.44320899 0.40037999 -0.80203599 1.905766e-42
41.65309900 25.49230000 465.05899000 -0.45995200 0.38669500 -0.79931903 1.905766e-42
42.90850100 26.77969900 464.97800000 -0.47515100 0.37152800 -0.79762000 1.905766e-42
44.19269900 28.04100000 464.97400000 -0.48978099 0.35596699 -0.79586601 1.905766e-42
45.52109900 29.25560000 464.98499000 -0.50419199 0.34013799 -0.79378599 1.905766e-42
46.89720200 30.36700100 464.65100000 -0.51866400 0.32582799 -0.79045802 1.905766e-42
48.21289800 31.37229900 463.94601000 -0.53326499 0.31425500 -0.78541201 1.905766e-42
49.12950100 32.92039900 463.88901000 -0.54315799 0.29699701 -0.78534800 1.905766e-42
50.27450200 34.10559800 463.16501000 -0.55628401 0.28537101 -0.78045601 1.905766e-42
51.72660100 34.22959900 462.10901000 -0.57217300 0.28531399 -0.76890397 1.905766e-42
53.19810100 34.19540000 461.07300000 -0.58878702 0.28677601 -0.75570500 1.905766e-42
54.61080200 33.97119900 459.98001000 -0.60557598 0.28971300 -0.74117798 1.905766e-42
56.00840000 33.77170200 458.86301000 -0.62248099 0.29170200 -0.72624201 1.905766e-42
57.33680000 33.48389800 457.68301000 -0.63866901 0.29346001 -0.71132499 1.905766e-42
58.61539800 33.23350100 456.44101000 -0.65233803 0.29548299 -0.69795698 1.905766e-42
59.51549900 32.29830200 455.19400000 -0.66298997 0.30166399 -0.68515903 1.905766e-42
60.14070100 31.07729900 454.02899000 -0.67153502 0.30879301 -0.67356300 1.905766e-42
61.08670000 30.33040000 452.69199000 -0.68575698 0.31827801 -0.65455103 1.905766e-42
61.88690200 29.44450000 451.34500000 -0.69946003 0.32968000 -0.63408703 1.905766e-42
62.65560200 28.55710000 449.98001000 -0.71259099 0.33983800 -0.61377901 1.905766e-42
63.45500200 27.77120000 448.57199000 -0.72555202 0.34784901 -0.59377998 1.905766e-42
64.25509600 27.03680000 447.13599000 -0.73779398 0.35405001 -0.57472497 1.905766e-42
65.29519700 26.71010000 445.70401000 -0.75126600 0.35540000 -0.55613798 1.905766e-42
65.89399700 25.91680000 444.20300000 -0.76148099 0.36527300 -0.53546500 1.905766e-42
66.65770000 25.31060000 442.69000000 -0.77191502 0.37523699 -0.51317000 1.905766e-42
67.39650000 24.70840100 441.16299000 -0.77988201 0.38335600 -0.49479499 1.905766e-42
68.42649800 24.52990000 439.69800000 -0.78776401 0.38383600 -0.48176500 1.905766e-42
68.94429800 23.96040000 438.07101000 -0.78952903 0.38900301 -0.47467899 1.905766e-42
70.04609700 23.91309900 436.64801000 -0.79224902 0.38346699 -0.47465301 1.905766e-42
