# .PCD v0.7 - Point Cloud Data file format
# 4 102 -2
# 1 22 0
# 23 51 0
# 52 68 0
# 69 102 0
VERSION 0.7
FIELDS x y z normal_x normal_y normal_z curvature
SIZE 4 4 4 4 4 4 4
TYPE F F F F F F F
COUNT 1 1 1 1 1 1 1
WIDTH 102
HEIGHT 1
VIEWPOINT 0 0 0 1 0 0 0
POINTS 102
DATA ascii
36.05350100 -9.41959000 431.98801000 -0.87836099 0.42147601 -0.22547799 1.905766e-42
35.37450000 -9.96825030 433.08099000 -0.79594302 0.52140099 -0.30759600 1.905766e-42
34.32600000 -10.56620000 434.41599000 -0.62387401 0.66127402 -0.41653100 1.905766e-42
33.02780200 -10.63720000 435.66101000 -0.41730201 0.76617301 -0.48871100 1.905766e-42
31.71929900 -10.48720000 436.88800000 -0.26513100 0.80042398 -0.53761297 1.905766e-42
30.03410000 -10.44810000 437.51901000 -0.18758400 0.78304201 -0.59300703 1.905766e-42
28.25650000 -10.53720000 437.78799000 -0.15790600 0.75698900 -0.63406098 1.905766e-42
26.59070000 -10.27340000 438.41599000 -0.14642100 0.73808599 -0.65862799 1.905766e-42
25.00359900 -9.94375990 439.19901000 -0.15583000 0.73512799 -0.65977502 1.905766e-42
23.23970000 -10.20020000 439.45001000 -0.15994801 0.73074299 -0.66365099 1.905766e-42
21.56810000 -10.10150000 440.10999000 -0.15621100 0.73379099 -0.66117197 1.905766e-42
20.13240100 -9.44285010 440.97299000 -0.15282799 0.74039400 -0.65456802 1.905766e-42
18.47680100 -9.18111990 441.62900000 -0.15046000 0.74454498 -0.65039599 1.905766e-42
16.69949900 -9.43202970 441.76401000 -0.15003300 0.74550301 -0.64939600 1.905766e-42
15.13350000 -9.01828000 442.54901000 -0.13720299 0.74177700 -0.65646100 1.905766e-42
13.47400000 -8.79078010 443.20801000 -0.11899700 0.73786801 -0.66437203 1.905766e-42
11.71740000 -8.70997050 443.59299000 -0.10201200 0.73385203 -0.67160702 1.905766e-42
9.99125960 -8.48316000 444.04999000 -0.09160990 0.72917497 -0.67816800 1.905766e-42
8.20016960 -8.62590030 444.15799000 -0.08428240 0.73245198 -0.67558098 1.905766e-42
6.62419990 -8.10217950 444.85199000 -0.06326990 0.73857599 -0.67119497 1.905766e-42
4.83661990 -8.31243990 444.83401000 -0.00528472 0.75082999 -0.66047502 1.905766e-42
3.06186010 -8.05150030 444.98300000 0.05750520 0.75584799 -0.65221697 1.905766e-42
1.52908000 -7.34618000 445.60999000 0.10609300 0.75972003 -0.64153701 1.905766e-42
0.01183320 -6.58246990 446.20499000 0.14546300 0.76344800 -0.62927598 1.905766e-42
-1.10441990 -5.58003000 447.20001000 0.15688400 0.76230299 -0.62791800 1.905766e-42
-1.76575990 -4.41997000 448.40701000 0.14200500 0.75711799 -0.63765699 1.905766e-42
-2.39421010 -3.24134990 449.61301000 0.12068700 0.74771702 -0.65295798 1.905766e-42
-3.13680010 -2.09220000 450.78299000 0.09932560 0.73487097 -0.67089403 1.905766e-42
-3.98189000 -0.98014897 451.91800000 0.07734090 0.71967298 -0.68999201 1.905766e-42
-4.70709990 0.18035400 453.08801000 0.05432840 0.69928300 -0.71277702 1.905766e-42
-4.98614980 1.55743000 454.21301000 0.03882270 0.67460799 -0.73715502 1.905766e-42
-5.26760010 2.89278010 455.38599000 0.03266170 0.65236598 -0.75720000 1.905766e-42
-6.51651000 3.85218000 456.25800000 0.00453313 0.63297099 -0.77416301 1.905766e-42
-7.40095000 5.08650020 457.22501000 -0.02070190 0.60612202 -0.79510200 1.905766e-42
-8.22984030 6.35683010 458.19400000 -0.05490490 0.58250099 -0.81097400 1.905766e-42
-8.71969030 7.76361990 459.20401000 -0.06802770 0.57367998 -0.81625003 1.905766e-42
-9.76395990 8.93714050 460.08301000 -0.11997100 0.56172198 -0.81858099 1.905766e-42
-10.89400000 9.68768020 461.26599000 -0.19091500 0.54453802 -0.81671900 1.905766e-42
-11.88690000 10.53760000 462.50400000 -0.25380599 0.52863503 -0.81001699 1.905766e-42
-11.42300000 12.21590000 462.95999000 -0.15811101 0.57299501 -0.80416298 1.905766e-42
-10.93020000 13.88550000 463.41800000 -0.12146200 0.58363599 -0.80287898 1.905766e-42
-9.85639000 14.94720000 464.39700000 -0.09081960 0.58527601 -0.80573201 1.905766e-42
-9.09138010 16.18129900 465.46100000 -0.07558560 0.58329803 -0.80873400 1.905766e-42
-8.16261960 17.41040000 466.39200000 -0.06589380 0.57632703 -0.81455803 1.905766e-42
-7.25334980 18.96220000 466.46500000 -0.05713450 0.57147598 -0.81862801 1.905766e-42
-6.22499990 20.07799900 467.43301000 -0.05041520 0.56932199 -0.82056701 1.905766e-42
-6.00210000 21.44080000 468.58801000 -0.04220220 0.57903498 -0.81421000 1.905766e-42
-5.62171980 22.78500000 469.72299000 -0.03859650 0.56641400 -0.82321602 1.905766e-42
-4.42550990 23.92630000 470.43500000 -0.01335810 0.51401103 -0.85768002 1.905766e-42
-2.96117000 24.84510000 470.93600000 0.00896759 0.40775800 -0.91304600 1.905766e-42
-2.32655000 26.38310100 471.62299000 -0.05165900 0.22646600 -0.97264802 1.905766e-42
-0.81508702 27.35829900 471.55701000 -0.06806470 0.10753200 -0.99186897 1.905766e-42
0.89911801 27.80890100 471.24301000 -0.08765070 0.04410910 -0.99517399 1.905766e-42
2.65405990 27.43120000 471.10999000 -0.11088100 0.03364820 -0.99326402 1.905766e-42
4.43773980 27.67219900 471.09000000 -0.17479201 -0.02556020 -0.98427403 1.905766e-42
5.81073000 28.64580000 471.72800000 -0.24777400 -0.10490600 -0.96312100 1.905766e-42
7.08862020 28.11220000 470.57800000 -0.29198700 -0.13597500 -0.94670701 1.905766e-42
8.62528990 28.49589900 469.72299000 -0.34638900 -0.21116200 -0.91401601 1.905766e-42
10.11420000 29.14110000 468.94400000 -0.39761201 -0.29803401 -0.86780202 1.905766e-42
11.56270000 29.56940100 467.96500000 -0.43344700 -0.38214499 -0.81614298 1.905766e-42
13.13890000 29.53970000 467.09601000 -0.45383099 -0.43978700 -0.77499902 1.905766e-42
14.68710000 28.96500000 466.38000000 -0.49307799 -0.43793201 -0.75172502 1.905766e-42
15.99250000 29.49930000 465.26199000 -0.52755600 -0.45740199 -0.71586800 1.905766e-42
17.12929900 30.34140000 464.14899000 -0.55595499 -0.47034600 -0.68533897 1.905766e-42
18.44380000 30.36780000 462.92001000 -0.58438599 -0.47654200 -0.65681100 1.905766e-42
19.68390100 30.69560100 461.65701000 -0.60991502 -0.48322600 -0.62808901 1.905766e-42
20.91210000 30.76030000 460.34299000 -0.63505799 -0.48779699 -0.59896201 1.905766e-42
21.90360100 30.18240000 458.95599000 -0.66029900 -0.48611099 -0.57245201 1.905766e-42
23.10450000 30.40920100 457.63501000 -0.67335099 -0.48503199 -0.55798101 1.905766e-42
23.96439900 28.83560000 457.79001000 -0.68010300 -0.47825199 -0.55563903 1.905766e-42
24.70920000 27.28710000 458.32700000 -0.68347299 -0.46309599 -0.56427503 1.905766e-42
25.87500000 25.92510000 458.16599000 -0.68611097 -0.44652101 -0.57434398 1.905766e-42
26.72710000 24.35570000 458.39200000 -0.69398701 -0.41326299 -0.58957303 1.905766e-42
27.56139900 22.76149900 458.34299000 -0.70331103 -0.37128100 -0.60622102 1.905766e-42
28.26560000 21.10510100 458.32501000 -0.71169198 -0.31636900 -0.62722099 1.905766e-42
28.94820000 19.43989900 458.35999000 -0.71865398 -0.24488100 -0.65082198 1.905766e-42
29.92460100 18.16230000 457.55099000 -0.71364999 -0.18539800 -0.67552203 1.905766e-42
30.52739900 16.49860000 457.22101000 -0.70614600 -0.08940040 -0.70240003 1.905766e-42
31.05050100 14.85070000 456.72101000 -0.67207301 -0.00186718 -0.74048197 1.905766e-42
31.79730000 13.40390000 455.95300000 -0.62126797 0.08527320 -0.77894503 1.905766e-42
32.69660200 12.14590000 455.03201000 -0.54331100 0.18041500 -0.81991702 1.905766e-42
33.07500100 10.55170000 454.28699000 -0.52313501 0.27656001 -0.80612898 1.905766e-42
33.65850100 9.16116050 453.30399000 -0.48273101 0.35776001 -0.79936099 1.905766e-42
34.03720100 7.54877000 452.59900000 -0.51392698 0.36089101 -0.77822697 1.905766e-42
34.80469900 6.30429980 451.54901000 -0.45691401 0.41026500 -0.78924799 1.905766e-42
36.59880100 6.17524000 451.48099000 -0.05383970 0.56513798 -0.82323802 1.905766e-42
38.37469900 6.21468020 451.77200000 0.24046800 0.59436297 -0.76740402 1.905766e-42
38.97470100 4.99628020 450.59100000 0.25882700 0.61775303 -0.74255598 1.905766e-42
39.33610200 3.76796010 449.32599000 0.23055699 0.68083400 -0.69520402 1.905766e-42
39.92779900 2.66256000 448.03400000 0.23670401 0.74404901 -0.62478900 1.905766e-42
39.92319900 1.34914990 446.80301000 0.22519000 0.79922497 -0.55725199 1.905766e-42
39.71229900 0.10688700 445.51801000 0.22216100 0.84052998 -0.49412000 1.905766e-42
38.05289800 -0.36415100 445.00400000 -0.15819700 0.81278402 -0.56067502 1.905766e-42
36.40449900 -0.71284598 444.37000000 -0.48995501 0.65067101 -0.58014703 1.905766e-42
36.39490100 -1.86678000 442.98901000 -0.60926700 0.58028698 -0.54042602 1.905766e-42
36.61729800 -2.86624000 441.50800000 -0.62521601 0.61764401 -0.47709599 1.905766e-42
37.33800100 -3.37185000 439.93799000 -0.67454797 0.63887602 -0.36989599 1.905766e-42
37.37289800 -4.14658020 438.31400000 -0.71957803 0.63088202 -0.29016399 1.905766e-42
37.36980100 -4.91206980 436.68500000 -0.76821703 0.59945297 -0.22472100 1.905766e-42
37.37879900 -5.58502010 435.01501000 -0.81590301 0.55294502 -0.16898200 1.905766e-42
37.24399900 -6.34458020 433.38901000 -0.86847103 0.47832501 -0.13024101 1.905766e-42
36.51660200 -7.79565000 432.61099000 -0.90196902 0.40251100 -0.15632200 1.905766e-42
