# .PCD v0.7 - Point Cloud Data file format
# 4 62 0
# 1 8 0
# 9 20 0
# 21 39 1
# 40 62 1
VERSION 0.7
FIELDS x y z normal_x normal_y normal_z curvature
SIZE 4 4 4 4 4 4 4
TYPE F F F F F F F
COUNT 1 1 1 1 1 1 1
WIDTH 62
HEIGHT 1
VIEWPOINT 0 0 0 1 0 0 0
POINTS 62
DATA ascii
31.7463 -0.093630701 464.79501 0.56171501 -0.684973 0.463992 1.9057659e-42
32.121601 1.99106 466.888 0.57861602 -0.64133698 0.50387502 1.9057659e-42
32.433201 3.25281 468.133 0.58752102 -0.65433598 0.47609201 1.9057659e-42
32.792099 4.5052099 469.375 0.58826202 -0.67896497 0.439266 1.9057659e-42
33.242599 5.7836199 470.55899 0.63998598 -0.49192601 0.59027702 1.9057659e-42
33.788399 7.36133 471.23199 0.61772901 -0.36149299 0.69837999 1.9057659e-42
34.1194 9.1114302 471.492 0.685969 -0.221449 0.69311398 1.9057659e-42
34.164101 10.6487 472.42801 0.74527401 -0.48836899 0.45394099 1.9057659e-42
33.811501 11.6305 473.89499 0.80834198 -0.27336499 0.52139699 1.9057659e-42
33.021301 11.978 475.474 0.77833903 -0.080351301 0.62268102 1.9057659e-42
31.582399 12.3116 476.50299 0.72564298 0.0173296 0.68785298 1.9057659e-42
30.6182 11.1165 477.44199 0.63980901 -0.22276101 0.735542 1.9057659e-42
30.005699 9.4595404 477.09601 0.48693901 -0.71443897 0.50246102 1.9057659e-42
28.951599 8.1676197 476.418 0.42362401 -0.75292099 0.50363898 1.9057659e-42
27.793301 7.1264501 475.51599 0.42204401 -0.61014301 0.67052603 1.9057659e-42
26.1709 6.5948601 476.086 0.39428899 -0.55151498 0.73509699 1.9057659e-42
24.519199 6.3821201 476.76901 0.345586 -0.54804099 0.76172298 1.9057659e-42
22.8699 6.3516502 477.48999 0.27421999 -0.56824398 0.77582401 1.9057659e-42
21.099701 6.18683 477.771 0.20020799 -0.547584 0.812446 1.9057659e-42
19.422199 6.4179401 478.38101 0.121682 -0.57494998 0.80909002 1.9057659e-42
17.6255 6.4593601 478.48199 0.053151999 -0.54681802 0.835563 1.9057659e-42
15.8844 6.85782 478.70499 -0.0175585 -0.53350902 0.84561199 1.9057659e-42
14.3424 7.6175799 479.23901 -0.0998668 -0.57891899 0.80924702 1.9057659e-42
12.6017 8.0756903 479.255 -0.163693 -0.551696 0.81782401 1.9057659e-42
11.004 8.8864298 479.42801 -0.23225801 -0.58427697 0.77761 1.9057659e-42
9.4301395 9.7598305 479.44199 -0.29852101 -0.58685499 0.752653 1.9057659e-42
8.4719296 11.1374 480.09299 -0.44297701 -0.62863898 0.63920599 1.9057659e-42
7.8516102 12.5983 480.94199 -0.60636097 -0.47566801 0.63723302 1.9057659e-42
7.7233 14.0158 482.04401 -0.64523602 -0.032639802 0.76328498 1.9057659e-42
7.1473298 15.4332 481.09601 -0.60934401 0.177944 0.772681 1.9057659e-42
6.3882298 16.5179 479.87601 -0.60418499 0.27243599 0.74882501 1.9057659e-42
5.3362198 15.1872 479.27399 -0.58694899 0.162718 0.79310399 1.9057659e-42
3.6761 15.0814 478.586 -0.51805401 0.129925 0.84542298 1.9057659e-42
2.28757 14.3121 477.73801 -0.57252598 -0.091341898 0.81478298 1.9057659e-42
1.21733 13.3873 476.625 -0.638174 -0.19941001 0.74361998 1.9057659e-42
0.231601 12.6159 475.33099 -0.709427 -0.24313299 0.66151297 1.9057659e-42
-0.482043 11.5107 474.103 -0.74939102 -0.212677 0.62704098 1.9057659e-42
-1.1460201 10.2622 472.98901 -0.76114899 -0.17473499 0.624596 1.9057659e-42
-1.89255 9.2531996 471.69901 -0.76519603 -0.160345 0.62351 1.9057659e-42
-2.6956699 8.3096399 470.39301 -0.73695099 -0.132364 0.66285998 1.9057659e-42
-2.38096 6.5373702 470.397 -0.65387797 -0.235162 0.71912599 1.9057659e-42
-1.56198 4.9345398 470.41 -0.58459002 -0.417869 0.69544297 1.9057659e-42
-0.24534599 3.7077899 470.45001 -0.53458601 -0.529944 0.65831399 1.9057659e-42
1.10826 2.52317 470.51599 -0.485522 -0.57526702 0.658283 1.9057659e-42
2.5739701 1.50404 470.74701 -0.426229 -0.60007501 0.676934 1.9057659e-42
4.16116 0.69190198 470.99399 -0.37252799 -0.63419002 0.67751497 1.9057659e-42
5.7612801 -0.13210399 470.96899 -0.32096699 -0.67819601 0.66108298 1.9057659e-42
7.1518102 -1.15545 470.45999 -0.26803499 -0.73505902 0.62277299 1.9057659e-42
8.8059902 -1.85597 470.34698 -0.21942499 -0.76519901 0.60524702 1.9057659e-42
10.2844 -2.5581901 469.59799 -0.176595 -0.793899 0.58183998 1.9057659e-42
12.0209 -3.0320201 469.616 -0.120834 -0.79883701 0.58928698 1.9057659e-42
13.8067 -3.2407899 469.70099 -0.058862701 -0.791978 0.60770601 1.9057659e-42
15.5974 -3.38641 469.591 0.0134313 -0.786879 0.616961 1.9057659e-42
17.1255 -3.84342 468.75699 0.073084503 -0.79523498 0.60188001 1.9057659e-42
18.914301 -3.77407 468.569 0.13863599 -0.79311901 0.59307897 1.9057659e-42
20.619499 -3.8429501 467.996 0.199883 -0.792867 0.57568097 1.9057659e-42
22.3671 -3.4145601 467.94699 0.262164 -0.78165901 0.56593198 1.9057659e-42
24.0007 -3.33517 467.19501 0.315373 -0.77964199 0.54101598 1.9057659e-42
25.5658 -3.0614901 466.349 0.37772501 -0.77390498 0.50832498 1.9057659e-42
27.2321 -2.4016399 466.18201 0.450066 -0.75432903 0.47794199 1.9057659e-42
28.825001 -1.82845 465.57001 0.50128198 -0.74123102 0.44642201 1.9057659e-42
30.321199 -1.19326 464.797 0.52999502 -0.73545301 0.42215401 1.9057659e-42
