# .PCD v0.7 - Point Cloud Data file format
# 3 125 -2
# 1 36 0
# 37 93 0
# 94 125 0
VERSION 0.7
FIELDS x y z normal_x normal_y normal_z curvature
SIZE 4 4 4 4 4 4 4
TYPE F F F F F F F
COUNT 1 1 1 1 1 1 1
WIDTH 125
HEIGHT 1
VIEWPOINT 0 0 0 1 0 0 0
POINTS 125
DATA ascii
29.12060000 -8.21140960 410.24701000 0.04495990 0.95023799 -0.30826300 1.905766e-42
28.57950000 -8.14523980 410.39899000 0.04475070 0.94976801 -0.30973801 1.905766e-42
27.44070100 -7.68146990 411.71399000 0.04908580 0.94858998 -0.31267801 1.905766e-42
26.27039900 -7.39484980 413.05099000 0.05492150 0.94725698 -0.31573400 1.905766e-42
25.56160000 -6.69725990 414.55099000 0.06190160 0.94660801 -0.31638700 1.905766e-42
24.60050000 -6.08513020 415.94501000 0.06820690 0.94593400 -0.31710601 1.905766e-42
23.28669900 -5.61181020 417.07999000 0.07209170 0.94550699 -0.31752101 1.905766e-42
21.53900000 -5.36474990 417.43301000 0.06852860 0.94487399 -0.32018301 1.905766e-42
20.03669900 -4.83564000 418.27100000 0.06665560 0.94475299 -0.32093301 1.905766e-42
18.27430000 -5.19036010 418.36200000 0.06207720 0.94369203 -0.32494801 1.905766e-42
16.52949900 -4.90429020 418.70001000 0.05857610 0.94260901 -0.32871899 1.905766e-42
14.84250000 -4.38115980 419.04599000 0.05588710 0.94106400 -0.33357999 1.905766e-42
13.08650000 -4.13717990 419.35800000 0.06031280 0.93854100 -0.33985701 1.905766e-42
11.40550000 -3.73922990 419.86401000 0.08809450 0.93465501 -0.34446999 1.905766e-42
9.74291990 -3.39679000 420.46201000 0.11558900 0.92997903 -0.34896699 1.905766e-42
7.96924020 -3.38270000 420.76901000 0.14240700 0.92559499 -0.35070500 1.905766e-42
6.32707020 -2.71293000 421.07700000 0.16689700 0.92228699 -0.34861499 1.905766e-42
4.68421980 -2.11791990 421.50900000 0.18728501 0.92147201 -0.34031400 1.905766e-42
2.92038010 -1.76618000 421.58099000 0.20707700 0.92241299 -0.32599601 1.905766e-42
1.36227000 -1.14303000 422.23199000 0.22395700 0.92425102 -0.30919901 1.905766e-42
-0.39591900 -0.90574598 421.92801000 0.25454199 0.91704798 -0.30697101 1.905766e-42
-2.08414010 -0.36064500 422.23199000 0.29624799 0.90315300 -0.31072700 1.905766e-42
-3.72439000 0.31224900 422.54300000 0.36523899 0.85902297 -0.35872000 1.905766e-42
-5.23406980 1.26977000 422.75299000 0.45825699 0.78581202 -0.41533101 1.905766e-42
-6.49844980 2.51503990 423.05399000 0.56450599 0.67825300 -0.47043100 1.905766e-42
-7.82036020 3.73674010 423.05701000 0.64450002 0.56772202 -0.51216400 1.905766e-42
-8.84294030 5.21385000 423.16800000 0.70276397 0.45768401 -0.54465401 1.905766e-42
-9.95880030 6.49911020 422.58301000 0.73565203 0.37460700 -0.56434602 1.905766e-42
-10.70690000 8.13057990 422.44601000 0.76533502 0.30230001 -0.56822199 1.905766e-42
-11.36750000 9.80461980 422.41000000 0.78981698 0.24739400 -0.56123501 1.905766e-42
-12.20990000 11.27480000 421.80301000 0.80547702 0.19668999 -0.55903399 1.905766e-42
-12.79120000 12.96380000 421.58099000 0.82254601 0.15034001 -0.54846603 1.905766e-42
-13.65020000 14.44860000 421.03500000 0.83364499 0.10490300 -0.54224598 1.905766e-42
-13.83540000 16.22920000 420.84900000 0.84889197 0.06540050 -0.52450502 1.905766e-42
-14.32010000 17.68479900 419.90701000 0.85580802 0.02218910 -0.51681697 1.905766e-42
-14.68770000 19.20280100 419.01199000 0.86533898 -0.00826292 -0.50111800 1.905766e-42
-14.99650000 20.91020000 418.53299000 0.87855399 -0.00786227 -0.47757801 1.905766e-42
-14.47430000 21.99880000 419.86801000 0.88970602 0.00171339 -0.45653000 1.905766e-42
-13.66120000 22.36190000 421.43301000 0.88375998 0.01190650 -0.46778899 1.905766e-42
-12.99580000 23.00070000 422.97800000 0.86850601 0.00588941 -0.49564400 1.905766e-42
-12.04410000 23.32290100 424.47198000 0.84770602 0.00012493 -0.53046602 1.905766e-42
-11.03850000 23.60770000 425.93701000 0.82340300 -0.00773585 -0.56740397 1.905766e-42
-9.96521000 23.79700100 427.37000000 0.79653901 -0.01948880 -0.60427302 1.905766e-42
-9.06962970 24.40180000 428.80899000 0.76910102 -0.03413230 -0.63821501 1.905766e-42
-7.92667010 24.73270000 430.16000000 0.74448901 -0.05031330 -0.66573602 1.905766e-42
-6.65350010 24.78840100 431.43100000 0.73798501 -0.04025580 -0.67361599 1.905766e-42
-5.45356990 25.15449900 432.72198000 0.78445798 0.09503490 -0.61285698 1.905766e-42
-4.65623000 25.57530000 434.28000000 0.82119799 0.24048600 -0.51749498 1.905766e-42
-3.76386000 26.00359900 435.78299000 0.81906301 0.38193700 -0.42808899 1.905766e-42
-2.65936990 25.98640100 437.20401000 0.77952600 0.48234200 -0.39960799 1.905766e-42
-1.47083000 25.20760000 438.30899000 0.73096102 0.51723999 -0.44514999 1.905766e-42
-0.26420799 24.72069900 439.55301000 0.66741902 0.56511003 -0.48497701 1.905766e-42
0.70627803 24.78910100 441.06799000 0.57679403 0.63852799 -0.50950003 1.905766e-42
2.08188010 24.57950000 442.20901000 0.45728001 0.63490301 -0.62273097 1.905766e-42
3.53906010 24.09030000 443.14600000 0.32233700 0.57982397 -0.74826699 1.905766e-42
4.97740980 24.63870000 444.07901000 0.25862101 0.52852601 -0.80856401 1.905766e-42
6.51349020 25.35650100 444.68301000 0.22398400 0.51317298 -0.82854402 1.905766e-42
8.29057980 25.54380000 444.89999000 0.21077000 0.49901500 -0.84057099 1.905766e-42
9.57262040 26.60080000 445.59201000 0.19559300 0.52489102 -0.82839203 1.905766e-42
11.26060000 26.37550000 446.17499000 0.18941499 0.52103603 -0.83225203 1.905766e-42
12.89880000 25.75040100 446.58200000 0.18607500 0.50200999 -0.84460700 1.905766e-42
14.61720000 25.72419900 447.11700000 0.15588500 0.50256300 -0.85036999 1.905766e-42
16.39250000 25.58930000 446.85199000 0.12228300 0.47455299 -0.87169200 1.905766e-42
18.18140000 25.55859900 447.04999000 0.07989920 0.44778600 -0.89056402 1.905766e-42
19.83309900 25.56270000 447.76501000 0.02928890 0.42105800 -0.90656102 1.905766e-42
21.46970000 26.24280000 448.07999000 -0.04322280 0.39619100 -0.91715002 1.905766e-42
23.08799900 27.03089900 448.08600000 -0.12771200 0.34818801 -0.92868400 1.905766e-42
24.70719900 27.14020000 447.30701000 -0.15765700 0.25816900 -0.95314902 1.905766e-42
26.47979900 27.16540000 446.99500000 -0.17526700 0.17074500 -0.96960199 1.905766e-42
28.09410100 26.43790100 446.67099000 -0.15566000 0.09160290 -0.98355401 1.905766e-42
29.86410000 26.39160000 446.34799000 -0.16413800 0.02650590 -0.98608100 1.905766e-42
31.65840000 26.38400100 446.20401000 -0.17118500 -0.02676940 -0.98487502 1.905766e-42
33.45489900 26.39600000 446.09299000 -0.17709100 -0.06884100 -0.98178399 1.905766e-42
35.04760000 25.67100000 445.67099000 -0.18129900 -0.09032480 -0.97927099 1.905766e-42
36.81650200 25.58070000 445.35101000 -0.20742100 -0.10795000 -0.97227699 1.905766e-42
38.53319900 25.23140000 444.93799000 -0.23637000 -0.11245500 -0.96513402 1.905766e-42
40.29499800 25.56590100 444.78101000 -0.27001199 -0.12153200 -0.95515603 1.905766e-42
41.82300200 24.87439900 444.12799000 -0.30433199 -0.10823200 -0.94639701 1.905766e-42
43.55780000 24.79530000 443.65500000 -0.34240901 -0.10424600 -0.93374997 1.905766e-42
45.30540100 24.84930000 443.22699000 -0.37417901 -0.10292900 -0.92162699 1.905766e-42
46.89630100 24.47020000 442.47501000 -0.40714401 -0.09543530 -0.90836400 1.905766e-42
48.31029900 23.77240000 441.60699000 -0.43934900 -0.08561430 -0.89422703 1.905766e-42
49.95510100 23.68660000 440.88101000 -0.47598600 -0.08066510 -0.87574601 1.905766e-42
51.46049900 23.23950000 440.00101000 -0.51505703 -0.06368130 -0.85478699 1.905766e-42
52.86859900 22.67450000 439.03299000 -0.55200398 -0.04732090 -0.83249801 1.905766e-42
54.35870000 22.35619900 438.07401000 -0.57779098 -0.03923750 -0.81524098 1.905766e-42
55.89339800 22.20249900 437.14600000 -0.59865397 -0.03433500 -0.80027097 1.905766e-42
57.20130200 21.59700000 436.06799000 -0.61843199 -0.02500110 -0.78544098 1.905766e-42
58.45380000 20.97209900 434.93600000 -0.63900000 -0.01664160 -0.76902598 1.905766e-42
59.84040100 20.79500000 433.80200000 -0.66466498 -0.00185049 -0.74713898 1.905766e-42
61.05080000 20.25169900 432.58600000 -0.69447601 0.02790690 -0.71897501 1.905766e-42
62.29760000 19.94790100 431.32401000 -0.71947402 0.04710730 -0.69292003 1.905766e-42
63.45340000 19.48070000 430.02499000 -0.73817903 0.05813550 -0.67209601 1.905766e-42
64.74700200 19.39080000 428.77701000 -0.74685198 0.05633980 -0.66259998 1.905766e-42
64.29070300 17.64950000 428.78400000 -0.73724300 0.06093440 -0.67287397 1.905766e-42
63.63420100 16.11160100 429.45001000 -0.72720802 0.09117760 -0.68033499 1.905766e-42
63.36069900 14.33810000 429.59000000 -0.71996403 0.13510300 -0.68073398 1.905766e-42
62.91780100 12.59340000 429.58801000 -0.71228802 0.17938800 -0.67857599 1.905766e-42
62.33070000 10.89190000 429.59201000 -0.70340902 0.22262800 -0.67501998 1.905766e-42
61.69609800 9.20761970 429.56799000 -0.69331801 0.26464999 -0.67027700 1.905766e-42
61.01240200 7.54258010 429.58301000 -0.67957598 0.30302599 -0.66809601 1.905766e-42
60.70040100 5.83620980 429.10199000 -0.66252899 0.34786800 -0.66335797 1.905766e-42
60.08509800 4.16876980 428.81699000 -0.63232303 0.40853599 -0.65823001 1.905766e-42
59.60900100 2.57765010 428.12299000 -0.58850199 0.48317501 -0.64823401 1.905766e-42
58.43180100 1.22095000 428.00699000 -0.52491701 0.58158201 -0.62146997 1.905766e-42
57.59840000 -0.16075100 427.20901000 -0.43866000 0.68399799 -0.58285898 1.905766e-42
56.40990100 -1.37367000 426.61200000 -0.33849600 0.78044200 -0.52567202 1.905766e-42
54.78099800 -2.11721990 426.42801000 -0.23917700 0.84876001 -0.47159401 1.905766e-42
53.00939900 -2.43100000 426.37500000 -0.13439400 0.88917899 -0.43737701 1.905766e-42
51.21830000 -2.61029010 426.37799000 -0.08345150 0.90874201 -0.40893000 1.905766e-42
49.85210000 -3.10403990 425.31601000 -0.06154540 0.92204303 -0.38216299 1.905766e-42
48.13670000 -3.36507010 424.83701000 -0.05324550 0.92638999 -0.37278301 1.905766e-42
47.22420100 -3.97754000 423.41101000 -0.04550700 0.92772102 -0.37049001 1.905766e-42
46.03730000 -4.60327010 422.21100000 -0.03739360 0.93036997 -0.36471000 1.905766e-42
44.52420000 -5.06625990 421.35300000 -0.03077450 0.93468499 -0.35414299 1.905766e-42
43.09289900 -5.60019020 420.40100000 -0.02271200 0.94028401 -0.33963299 1.905766e-42
41.54650100 -5.80271010 419.50299000 -0.00646502 0.94682401 -0.32168600 1.905766e-42
40.32170100 -6.27660990 418.27200000 0.01194920 0.95231903 -0.30487001 1.905766e-42
39.11439900 -6.57514000 416.97000000 0.02736070 0.95193899 -0.30506200 1.905766e-42
37.93679800 -6.93312980 415.65701000 0.03830700 0.95135099 -0.30571899 1.905766e-42
36.98759800 -7.36613990 414.19000000 0.04631240 0.95034599 -0.30772999 1.905766e-42
35.53139900 -7.60867980 413.16000000 0.04998710 0.95069999 -0.30605799 1.905766e-42
34.07180000 -7.88630010 412.14401000 0.05164230 0.95093501 -0.30504900 1.905766e-42
32.44969900 -8.04693980 411.38101000 0.05078790 0.95127702 -0.30412599 1.905766e-42
30.66449900 -8.01677040 411.15201000 0.04865270 0.95112997 -0.30493400 1.905766e-42
