# .PCD v0.7 - Point Cloud Data file format
# 4 104 1
# 1 37 1
# 38 61 0
# 62 90 0
# 91 104 0
VERSION 0.7
FIELDS x y z normal_x normal_y normal_z curvature
SIZE 4 4 4 4 4 4 4
TYPE F F F F F F F
COUNT 1 1 1 1 1 1 1
WIDTH 104
HEIGHT 1
VIEWPOINT 0 0 0 1 0 0 0
POINTS 104
DATA ascii
-23.84970100 42.58440000 315.79700000 0.87153202 0.22092099 -0.43775100 1.905766e-42
-23.23710100 43.01580000 317.43301000 0.87413901 0.23707600 -0.42388201 1.905766e-42
-22.40049900 42.80970000 319.01401000 0.87911201 0.24492000 -0.40887201 1.905766e-42
-21.64819900 42.73889900 320.64700000 0.88349599 0.26016900 -0.38954699 1.905766e-42
-20.79610100 42.42179900 322.20099000 0.88885403 0.26579201 -0.37322000 1.905766e-42
-20.08930000 42.31610100 323.85300000 0.89297003 0.27936900 -0.35292599 1.905766e-42
-19.53330000 42.30559900 325.56500000 0.89639199 0.29610401 -0.32985401 1.905766e-42
-18.66780100 41.54499800 326.94800000 0.90748000 0.27101699 -0.32098100 1.905766e-42
-18.08510000 41.52600100 328.65100000 0.91010702 0.28389499 -0.30184299 1.905766e-42
-17.57580000 41.53250100 330.37701000 0.91423899 0.28089601 -0.29200000 1.905766e-42
-16.80839900 40.86159900 331.86099000 0.92107803 0.26732901 -0.28310901 1.905766e-42
-16.36850000 40.80260100 333.60501000 0.92597097 0.26966301 -0.26431000 1.905766e-42
-15.67120000 39.99079900 335.05200000 0.93428802 0.25360399 -0.25058001 1.905766e-42
-15.23320000 39.96250200 336.79800000 0.93741697 0.26349100 -0.22764400 1.905766e-42
-14.71700000 39.44689900 338.44400000 0.94249099 0.26065499 -0.20921201 1.905766e-42
-14.35390000 39.29970200 340.20099000 0.94449103 0.27088901 -0.18589200 1.905766e-42
-13.81880000 38.60660200 341.77301000 0.94914502 0.26502499 -0.16995500 1.905766e-42
-13.42250000 38.25669900 343.49399000 0.95078301 0.27225301 -0.14795500 1.905766e-42
-13.01840000 37.71460000 345.16199000 0.95294398 0.27432001 -0.12901901 1.905766e-42
-12.81450000 37.61579900 346.94800000 0.95096701 0.29165101 -0.10296000 1.905766e-42
-12.52220000 37.21880000 348.67899000 0.95082402 0.29913399 -0.08032980 1.905766e-42
-12.13800000 36.47800100 350.27399000 0.95337200 0.29489899 -0.06415720 1.905766e-42
-11.87050000 35.93709900 351.97000000 0.95383197 0.29699799 -0.04469440 1.905766e-42
-11.53690000 35.05149800 353.50101000 0.95779198 0.28560200 -0.03264690 1.905766e-42
-11.29280000 34.39870100 355.16000000 0.95952600 0.28111100 -0.01695340 1.905766e-42
-11.22520000 33.98339800 356.91000000 0.95853698 0.28494599 0.00354844 1.905766e-42
-10.95330000 33.13990000 358.47699000 0.96183997 0.27306101 0.01739240 1.905766e-42
-10.68980000 32.18780100 359.98199000 0.96565402 0.25814399 0.02956090 1.905766e-42
-10.54650000 31.45389900 361.61899000 0.96630400 0.25309601 0.04688990 1.905766e-42
-10.57740000 31.08550100 363.38101000 0.96237099 0.26235801 0.07078310 1.905766e-42
-10.58960000 30.46430000 365.07001000 0.96002400 0.26494899 0.09030770 1.905766e-42
-10.41840000 29.14489900 367.19800000 0.96079302 0.25401101 0.11115700 1.905766e-42
-10.64310000 28.84129900 368.95801000 0.95293802 0.26779100 0.14211400 1.905766e-42
-10.85150000 28.46870000 370.70700000 0.94417000 0.27949300 0.17443500 1.905766e-42
-10.97440000 27.70690000 372.33301000 0.93940997 0.28171900 0.19530100 1.905766e-42
-10.69400000 26.35680000 373.48999000 0.94530499 0.25901499 0.19826500 1.905766e-42
-10.94830000 25.77599900 375.17401000 0.93702799 0.26871201 0.22309700 1.905766e-42
-11.10960000 24.97060000 376.77600000 0.92363697 0.28353101 0.25788501 1.905766e-42
-10.68280000 23.22200000 376.79001000 0.95868701 0.19891100 0.20335400 1.905766e-42
-10.26310000 21.60899900 376.10999000 0.98158699 0.10501200 0.15956201 1.905766e-42
-10.03710000 20.22510000 374.98199000 0.99312103 0.03114290 0.11287700 1.905766e-42
-9.89074040 18.72800100 373.99301000 0.99492699 0.02693630 0.09692750 1.905766e-42
-9.75218010 17.39620000 372.79001000 0.99575597 0.02419650 0.08879830 1.905766e-42
-9.68002030 15.69150000 372.21701000 0.99576801 0.01575240 0.09053780 1.905766e-42
-9.62913040 14.09240000 371.39200000 0.99598801 0.00226194 0.08945290 1.905766e-42
-9.44079970 12.73510000 370.22501000 0.99638802 -0.00777394 0.08456140 1.905766e-42
-9.27987960 11.61650000 368.82401000 0.99702603 -0.01581250 0.07543250 1.905766e-42
-9.30130960 9.95592020 368.12900000 0.99623501 -0.07023330 0.05082810 1.905766e-42
-9.53283020 8.40236000 367.25000000 0.99234301 -0.12222000 0.01780920 1.905766e-42
-9.95563980 6.78473000 366.58401000 0.98494798 -0.17194000 -0.01775380 1.905766e-42
-10.07090000 5.48933980 365.33899000 0.98453200 -0.17193501 -0.03368070 1.905766e-42
-10.29230000 4.12166980 364.19000000 0.98546702 -0.16513699 -0.03979530 1.905766e-42
-10.58480000 2.69147990 363.13699000 0.98674101 -0.15726499 -0.04012810 1.905766e-42
-10.88540000 1.21133010 362.15799000 0.98111701 -0.18536100 -0.05523410 1.905766e-42
-11.15800000 -0.08566020 360.94000000 0.97129601 -0.22425900 -0.07932400 1.905766e-42
-11.72720000 -1.63852000 360.22900000 0.95862502 -0.26503801 -0.10389000 1.905766e-42
-12.20030000 -2.91318990 359.04999000 0.96175700 -0.25276801 -0.10550300 1.905766e-42
-12.67880000 -4.49031020 358.32599000 0.97184199 -0.21577699 -0.09467440 1.905766e-42
-12.95740000 -5.82045980 357.14600000 0.98129100 -0.17542700 -0.07933050 1.905766e-42
-13.36760000 -7.15554000 356.01001000 0.97240800 -0.21427600 -0.09223750 1.905766e-42
-13.82720000 -8.55459980 354.97501000 0.96532100 -0.23716600 -0.10912200 1.905766e-42
-14.23690000 -9.77293970 353.71500000 0.95935798 -0.25005600 -0.13078400 1.905766e-42
-14.44410000 -9.58290960 351.93701000 0.95045900 -0.27123901 -0.15184499 1.905766e-42
-14.31390000 -8.30852030 350.67300000 0.94851202 -0.27339599 -0.15993699 1.905766e-42
-14.17160000 -7.01563980 349.42801000 0.94988000 -0.26218599 -0.17025200 1.905766e-42
-13.99660000 -5.60890010 348.31900000 0.95465600 -0.23830900 -0.17844000 1.905766e-42
-13.91230000 -4.30985020 347.07599000 0.95964700 -0.20889600 -0.18825600 1.905766e-42
-13.94890000 -3.17073990 345.68301000 0.96269602 -0.18224400 -0.20001100 1.905766e-42
-14.34000000 -2.36505010 344.12100000 0.96004599 -0.17506200 -0.21832301 1.905766e-42
-14.35070000 -1.14593010 342.79700000 0.96281898 -0.15121301 -0.22386301 1.905766e-42
-14.36600000 0.15464500 341.55301000 0.96477598 -0.13566500 -0.22539601 1.905766e-42
-14.54210000 1.19105010 340.09201000 0.95716000 -0.15639500 -0.24369100 1.905766e-42
-14.67590000 2.25295000 338.64499000 0.94926900 -0.17349900 -0.26227099 1.905766e-42
-14.93880000 3.20078990 337.13699000 0.94126201 -0.18620101 -0.28170100 1.905766e-42
-15.11460000 4.36474990 335.77499000 0.93497902 -0.19513200 -0.29620501 1.905766e-42
-15.37880000 5.44109010 334.35699000 0.92886502 -0.20075200 -0.31130099 1.905766e-42
-16.12130000 5.67705010 332.73401000 0.91748703 -0.21434399 -0.33507401 1.905766e-42
-16.25009900 6.76142980 331.30301000 0.91409099 -0.21570900 -0.34337699 1.905766e-42
-16.72360000 7.44954010 329.70901000 0.90726000 -0.22077100 -0.35796601 1.905766e-42
-17.31819900 8.03668020 328.11499000 0.89980298 -0.22624899 -0.37305000 1.905766e-42
-17.81020000 8.76401040 326.54300000 0.89473802 -0.22574200 -0.38533801 1.905766e-42
-18.16740000 9.74719050 325.07901000 0.89171797 -0.21166299 -0.40004799 1.905766e-42
-18.58569900 10.65580000 323.58200000 0.88757300 -0.19668201 -0.41657099 1.905766e-42
-19.05760000 11.62900000 322.14301000 0.88406700 -0.17766900 -0.43227199 1.905766e-42
-19.38229900 12.85370000 320.86499000 0.88361597 -0.14790399 -0.44423801 1.905766e-42
-20.23180000 13.28160000 319.33701000 0.87390202 -0.14623000 -0.46358600 1.905766e-42
-20.68210000 14.32590000 317.94101000 0.87144399 -0.12499600 -0.47430101 1.905766e-42
-21.08330000 15.75060000 316.91699000 0.87170500 -0.09572390 -0.48058999 1.905766e-42
-21.85070000 16.52759900 315.48599000 0.86458898 -0.08681980 -0.49492300 1.905766e-42
-22.72620000 16.68709900 313.92200000 0.85475099 -0.08876850 -0.51139200 1.905766e-42
-23.22839900 18.08869900 312.91000000 0.85756201 -0.07137810 -0.50940400 1.905766e-42
-22.72570000 19.69529900 313.54700000 0.86293399 -0.04743050 -0.50308502 1.905766e-42
-22.49160000 21.45890000 313.82101000 0.86777103 -0.02444230 -0.49636200 1.905766e-42
-22.42260000 23.25670100 313.87701000 0.86894202 0.00151440 -0.49491200 1.905766e-42
-22.40560000 25.05620000 313.91501000 0.86799502 0.03088240 -0.49561101 1.905766e-42
-22.41270100 26.83160000 314.21100000 0.87103701 0.08104180 -0.48448601 1.905766e-42
-22.52879900 28.62039900 314.37399000 0.87408000 0.12183100 -0.47025701 1.905766e-42
-22.84820000 30.39180000 314.37799000 0.87783098 0.15020600 -0.45480800 1.905766e-42
-23.11459900 32.17200100 314.38101000 0.88035101 0.13367499 -0.45509699 1.905766e-42
-23.35689900 33.95560100 314.39200000 0.88111001 0.10538600 -0.46101999 1.905766e-42
-23.51569900 35.74860000 314.38400000 0.87992901 0.08062070 -0.46821499 1.905766e-42
-23.38170100 37.46780000 314.89999000 0.87982202 0.08206690 -0.46816501 1.905766e-42
-23.45859900 39.25379900 315.11099000 0.88070101 0.12275400 -0.45749000 1.905766e-42
-23.86920000 40.99850100 314.94501000 0.87692302 0.17152700 -0.44898099 1.905766e-42
