# .PCD v0.7 - Point Cloud Data file format
# 3 157 0
# 1 42 0
# 43 92 0
# 93 157 0
VERSION 0.7
FIELDS x y z normal_x normal_y normal_z curvature
SIZE 4 4 4 4 4 4 4
TYPE F F F F F F F
COUNT 1 1 1 1 1 1 1
WIDTH 157
HEIGHT 1
VIEWPOINT 0 0 0 1 0 0 0
POINTS 157
DATA ascii
55.42409900 17.70190000 519.71698000 0.46849400 -0.65057999 0.59771103 1.905766e-42
55.20719900 18.82630000 521.10602000 0.46768701 -0.64008600 0.60955602 1.905766e-42
54.38909900 19.60010000 522.51001000 0.46089399 -0.63204998 0.62296802 1.905766e-42
53.15000200 19.90320000 523.78003000 0.44928700 -0.62673002 0.63667202 1.905766e-42
52.22489900 20.65600000 525.12799000 0.43849501 -0.61798698 0.65254498 1.905766e-42
51.64099900 21.71069900 526.46503000 0.43469399 -0.61003500 0.66249400 1.905766e-42
50.86370100 22.63780000 527.79797000 0.43048501 -0.60494602 0.66986799 1.905766e-42
50.46880000 23.85180100 529.06702000 0.42977700 -0.59999102 0.67476100 1.905766e-42
49.81349900 24.91150100 530.36603000 0.42748901 -0.59878200 0.67728400 1.905766e-42
49.20570000 25.92779900 531.72101000 0.41648600 -0.59334201 0.68882799 1.905766e-42
48.46979900 26.93170000 533.02197000 0.39201400 -0.57404798 0.71888399 1.905766e-42
47.30509900 27.54460000 534.25000000 0.36616999 -0.55077702 0.75004297 1.905766e-42
46.57939900 28.98000000 535.05798000 0.34681699 -0.51752102 0.78223401 1.905766e-42
45.08900100 29.08680000 536.06097000 0.32952401 -0.49583799 0.80346602 1.905766e-42
43.40790200 28.97310100 536.69397000 0.32692900 -0.49203500 0.80685699 1.905766e-42
41.71419900 28.73650000 537.25598000 0.32237101 -0.49723601 0.80550200 1.905766e-42
40.03440100 28.73830000 537.90302000 0.30809399 -0.49951601 0.80966800 1.905766e-42
38.33340100 28.76689900 538.49103000 0.28463799 -0.50130701 0.81711298 1.905766e-42
36.61869800 28.88050100 539.02600000 0.25408399 -0.50129199 0.82713199 1.905766e-42
34.89770100 28.72400100 539.53003000 0.21876900 -0.50079501 0.83746302 1.905766e-42
33.13250000 28.80750100 539.87201000 0.18466800 -0.49839899 0.84705102 1.905766e-42
31.38670000 28.62750100 540.27197000 0.15379000 -0.49580899 0.85470599 1.905766e-42
29.61560100 28.67670100 540.58899000 0.12553000 -0.49039200 0.86241400 1.905766e-42
27.86210100 29.00499900 540.82898000 0.10015700 -0.48137599 0.87077302 1.905766e-42
26.08370000 28.87190100 541.07300000 0.07972920 -0.47494501 0.87639701 1.905766e-42
24.30120100 28.80120100 541.31403000 0.06367990 -0.46676800 0.88208401 1.905766e-42
22.52870000 29.00530100 541.55103000 0.04233900 -0.45455801 0.88971001 1.905766e-42
20.88010000 29.63769900 541.90100000 0.01529200 -0.43673399 0.89946097 1.905766e-42
19.22390000 30.27080000 542.21100000 -0.01486300 -0.41923401 0.90775597 1.905766e-42
17.68100000 31.16640100 542.45099000 -0.04604550 -0.39912900 0.91573799 1.905766e-42
16.09390100 32.00080100 542.60797000 -0.07877330 -0.38003901 0.92161000 1.905766e-42
14.42590000 32.66700000 542.72601000 -0.11325200 -0.36143100 0.92549503 1.905766e-42
11.37510000 33.95470000 542.90198000 -0.17664100 -0.32283401 0.92982602 1.905766e-42
9.64350030 34.36840100 542.63702000 -0.20915800 -0.30524400 0.92901999 1.905766e-42
7.99565980 35.08000200 542.50098000 -0.24029900 -0.28246999 0.92869103 1.905766e-42
6.68524980 36.31250000 542.44098000 -0.27065799 -0.24993201 0.92966598 1.905766e-42
5.14792010 37.20240000 542.15002000 -0.30119401 -0.22252700 0.92723501 1.905766e-42
3.68586990 38.16260100 541.72498000 -0.33006501 -0.19741100 0.92308497 1.905766e-42
1.97779000 38.61850000 541.38599000 -0.35669699 -0.17770199 0.91716403 1.905766e-42
0.45903900 39.42020000 540.84698000 -0.38365600 -0.15577701 0.91024202 1.905766e-42
-1.19756000 39.73650000 540.21802000 -0.40824801 -0.13845900 0.90231001 1.905766e-42
-2.81920000 40.01680000 539.48901000 -0.42809999 -0.12215600 0.89543802 1.905766e-42
-4.44446990 40.13499800 538.72400000 -0.44136000 -0.10933300 0.89064401 1.905766e-42
-5.69650980 39.16389800 537.87000000 -0.44333500 -0.11612900 0.88880199 1.905766e-42
-6.30061010 37.51139800 537.48999000 -0.44036299 -0.13955601 0.88690698 1.905766e-42
-7.04816010 36.04510100 536.76202000 -0.44023901 -0.16285101 0.88298899 1.905766e-42
-7.72135020 34.52990000 536.06097000 -0.44046399 -0.18919900 0.87760800 1.905766e-42
-8.02966020 32.80690000 535.64099000 -0.43842000 -0.22053200 0.87129402 1.905766e-42
-8.97929000 31.81090000 534.48102000 -0.44280201 -0.24023500 0.86383700 1.905766e-42
-9.49042030 30.18890000 533.89099000 -0.44247699 -0.27040899 0.85504001 1.905766e-42
-9.66057970 28.45140100 533.45300000 -0.43814600 -0.30375001 0.84602797 1.905766e-42
-10.42050000 27.12140100 532.50800000 -0.44021699 -0.32974300 0.83515197 1.905766e-42
-10.93500000 25.62540100 531.64899000 -0.43859500 -0.36011299 0.82337898 1.905766e-42
-11.60730000 24.29640000 530.63800000 -0.43896100 -0.38756999 0.81061900 1.905766e-42
-11.96200000 22.76940000 529.75299000 -0.43634099 -0.41657200 0.79754198 1.905766e-42
-12.79670000 21.60590000 528.66302000 -0.44085699 -0.43798301 0.78346401 1.905766e-42
-13.32660000 20.28660000 527.55902000 -0.44128999 -0.46368000 0.76828599 1.905766e-42
-13.91530000 19.04740000 526.39398000 -0.44213599 -0.48754901 0.75286901 1.905766e-42
-14.37190000 17.72810000 525.25702000 -0.44062001 -0.51265299 0.73691201 1.905766e-42
-14.99190000 16.58750000 524.01099000 -0.44240400 -0.53427899 0.72029400 1.905766e-42
-15.57490000 15.47260000 522.72302000 -0.44447100 -0.55536097 0.70286602 1.905766e-42
-15.87040000 14.11820000 521.57501000 -0.44195500 -0.57929599 0.68490303 1.905766e-42
-16.66690100 13.40550000 520.12701000 -0.45020700 -0.59279901 0.66776001 1.905766e-42
-16.90399900 12.00380000 519.02301000 -0.44584399 -0.61632699 0.64912599 1.905766e-42
-17.59580000 11.12250000 517.61401000 -0.45072001 -0.63263798 0.62977803 1.905766e-42
-18.30050100 10.37410000 516.13599000 -0.45665401 -0.64747298 0.61011899 1.905766e-42
-18.39209900 9.03092960 514.94098000 -0.44866699 -0.67211401 0.58903402 1.905766e-42
-19.00760100 8.21794990 513.45801000 -0.45196900 -0.68821502 0.56752402 1.905766e-42
-19.38769900 7.23839000 511.99701000 -0.45072201 -0.70747602 0.54435903 1.905766e-42
-20.06130000 6.61647990 510.44800000 -0.45635399 -0.72025597 0.52246702 1.905766e-42
-20.39950000 5.64691020 508.96899000 -0.45475200 -0.73727298 0.49962899 1.905766e-42
-21.08670000 5.40078020 507.32401000 -0.46404701 -0.74423599 0.48038900 1.905766e-42
-21.58610000 4.60966010 505.78601000 -0.46627599 -0.75574899 0.45981601 1.905766e-42
-22.08429900 3.94035010 504.19101000 -0.46883100 -0.76617700 0.43951100 1.905766e-42
-22.68280000 3.57268000 502.53400000 -0.47462600 -0.77328700 0.42042401 1.905766e-42
-23.34280000 3.20965000 500.89899000 -0.47988799 -0.77978301 0.40205300 1.905766e-42
-23.88500000 2.57839990 499.30301000 -0.48113400 -0.78947002 0.38111299 1.905766e-42
-24.52070000 2.18086000 497.66699000 -0.48534799 -0.79674798 0.36004099 1.905766e-42
-24.92560000 1.46949990 496.06299000 -0.48447299 -0.80725300 0.33708799 1.905766e-42
-25.79600000 1.43863000 494.48801000 -0.49425101 -0.80905402 0.31803599 1.905766e-42
-26.61739900 1.42504000 492.88699000 -0.50351602 -0.81071299 0.29869199 1.905766e-42
-27.19840000 1.00809000 491.23499000 -0.50747001 -0.81573999 0.27756399 1.905766e-42
-27.80670000 0.84681797 489.54800000 -0.51393503 -0.81806600 0.25814301 1.905766e-42
-28.73670000 1.04911990 488.02100000 -0.52680802 -0.81489903 0.24168800 1.905766e-42
-29.48049900 1.05247000 486.38101000 -0.53576499 -0.81437600 0.22304299 1.905766e-42
-30.28179900 1.36967000 484.80099000 -0.54439998 -0.81326902 0.20548201 1.905766e-42
-30.98420000 1.46217000 483.14600000 -0.54878700 -0.81507498 0.18570600 1.905766e-42
-31.43359900 1.22263000 481.42001000 -0.54895800 -0.81984198 0.16280399 1.905766e-42
-32.19680000 1.43411000 479.80399000 -0.55124301 -0.82211101 0.14235000 1.905766e-42
-32.73849900 1.42211000 478.08701000 -0.55089998 -0.82604003 0.11902100 1.905766e-42
-33.51480100 1.85364000 476.52100000 -0.55077201 -0.82878703 0.09880310 1.905766e-42
-34.18220100 2.22244000 474.89099000 -0.54887998 -0.83235699 0.07689500 1.905766e-42
-34.73009900 2.31012990 473.17899000 -0.54685003 -0.83553702 0.05322930 1.905766e-42
-33.55130000 1.38822000 472.17801000 -0.55050600 -0.83382100 0.04105760 1.905766e-42
-32.22740200 0.50183499 471.34100000 -0.54983503 -0.83451498 0.03557100 1.905766e-42
-30.94640000 -0.39015001 470.44400000 -0.54650700 -0.83672899 0.03485950 1.905766e-42
-29.54750100 -1.22660010 469.68100000 -0.54028302 -0.84055501 0.03951430 1.905766e-42
-28.02120000 -2.17428990 469.56900000 -0.52695799 -0.84849203 0.04873990 1.905766e-42
-26.81160000 -2.89932990 470.68701000 -0.50939202 -0.85866702 0.05666350 1.905766e-42
-25.46559900 -3.57101990 471.67599000 -0.49070099 -0.86894202 0.06444730 1.905766e-42
-24.17560000 -4.29252000 472.70300000 -0.47172001 -0.87880599 0.07197980 1.905766e-42
-22.87520000 -4.87382980 473.80399000 -0.45318499 -0.88783300 0.07985170 1.905766e-42
-21.64069900 -5.38650990 475.00900000 -0.43583301 -0.89562201 0.08894400 1.905766e-42
-20.18380000 -5.99200010 475.87601000 -0.41902199 -0.90257502 0.09888490 1.905766e-42
-18.67600100 -6.53747990 476.69400000 -0.40420201 -0.90796602 0.11053500 1.905766e-42
-17.55620000 -6.88203000 478.06000000 -0.39015499 -0.91216898 0.12540700 1.905766e-42
-16.18530100 -7.31173990 479.14499000 -0.37512800 -0.91626501 0.14049099 1.905766e-42
-14.59730000 -7.82902000 479.81601000 -0.35936999 -0.92077798 0.15172701 1.905766e-42
-13.10980000 -8.22544000 480.74899000 -0.34248599 -0.92505902 0.16422400 1.905766e-42
-11.66290000 -8.53238010 481.77399000 -0.32492799 -0.92907602 0.17674699 1.905766e-42
-10.15470000 -8.83506970 482.70901000 -0.30635199 -0.93312299 0.18822999 1.905766e-42
-8.63259030 -9.13508990 483.62201000 -0.28707099 -0.93702000 0.19895700 1.905766e-42
-7.21019980 -9.32962990 484.70801000 -0.26830700 -0.94015098 0.21006300 1.905766e-42
-5.80058000 -9.49295040 485.81500000 -0.24965701 -0.94283700 0.22074901 1.905766e-42
-4.51271010 -9.49147990 487.07300000 -0.23273100 -0.94444501 0.23207800 1.905766e-42
-2.94944000 -9.68422990 487.94400000 -0.21224600 -0.94710898 0.24070100 1.905766e-42
-1.31495000 -9.74390030 488.69501000 -0.19092999 -0.94965398 0.24840100 1.905766e-42
0.19701500 -9.75835990 489.67200000 -0.17279699 -0.95018703 0.25939500 1.905766e-42
1.54361000 -9.73404980 490.86600000 -0.15849900 -0.94867599 0.27366501 1.905766e-42
3.17479990 -9.58469960 491.61301000 -0.14905199 -0.94476300 0.29190201 1.905766e-42
4.35704990 -9.60599040 492.97000000 -0.13247700 -0.94375902 0.30293301 1.905766e-42
6.03594020 -9.43614010 493.59601000 -0.12158500 -0.93997300 0.31885299 1.905766e-42
7.06446980 -9.20160960 495.05499000 -0.10389200 -0.93858600 0.32903200 1.905766e-42
8.71259020 -9.09360980 495.76999000 -0.08764080 -0.93476599 0.34428301 1.905766e-42
10.30370000 -8.85367970 496.57700000 -0.06882220 -0.93136501 0.35752299 1.905766e-42
11.50160000 -8.46623040 497.86301000 -0.04960350 -0.92826098 0.36860701 1.905766e-42
12.88300000 -8.11248020 498.96201000 -0.03021040 -0.92459601 0.37974900 1.905766e-42
14.38070000 -7.74407010 499.89001000 -0.01052740 -0.92069697 0.39013600 1.905766e-42
16.03440100 -7.44546990 500.53500000 0.00968081 -0.91687602 0.39905500 1.905766e-42
17.53050000 -7.05975010 501.45801000 0.02919260 -0.91261202 0.40778199 1.905766e-42
19.08659900 -6.59460020 502.23401000 0.04908250 -0.90815097 0.41575599 1.905766e-42
20.13139900 -5.96262980 503.55701000 0.06476410 -0.90286499 0.42501801 1.905766e-42
21.63060000 -5.45136980 504.41199000 0.08432340 -0.89757699 0.43271899 1.905766e-42
23.11070100 -4.85357000 505.24399000 0.10369400 -0.89190400 0.44017500 1.905766e-42
24.47730100 -4.18968010 506.20901000 0.12169100 -0.88559300 0.44823700 1.905766e-42
25.95490100 -3.56241010 507.02301000 0.14035000 -0.87916601 0.45537800 1.905766e-42
27.45100000 -2.89609000 507.76999000 0.15868500 -0.87247902 0.46216801 1.905766e-42
29.01320100 -2.20981000 508.34299000 0.17770800 -0.86547601 0.46836999 1.905766e-42
30.45179900 -1.49951000 509.15900000 0.19683300 -0.85632300 0.47746000 1.905766e-42
31.90110000 -0.75989699 509.92899000 0.21564300 -0.84687299 0.48611200 1.905766e-42
33.47790100 -0.01741580 510.37900000 0.23539400 -0.83803397 0.49222800 1.905766e-42
34.98310100 0.72925800 511.02499000 0.25381801 -0.82831901 0.49946401 1.905766e-42
36.50000000 1.68593000 511.17899000 0.27273101 -0.81962001 0.50382501 1.905766e-42
37.99440000 2.37582990 511.90701000 0.28977099 -0.80934900 0.51086903 1.905766e-42
39.36360200 3.24303010 512.69000000 0.30547300 -0.79838401 0.51891202 1.905766e-42
40.61190000 4.25383000 513.50299000 0.31952900 -0.78717202 0.52750498 1.905766e-42
42.20050000 5.09929990 513.54199000 0.33619699 -0.77912199 0.52909303 1.905766e-42
43.60950100 6.04675010 514.14001000 0.35065001 -0.76793498 0.53602302 1.905766e-42
44.89300200 7.10435010 514.82800000 0.36451301 -0.75509799 0.54493701 1.905766e-42
46.36790100 8.11013980 515.05798000 0.38095000 -0.74303299 0.55025297 1.905766e-42
47.57070200 9.23145960 515.79102000 0.39587101 -0.72763902 0.56020302 1.905766e-42
48.99169900 10.32720000 515.93298000 0.41478100 -0.71307701 0.56522399 1.905766e-42
50.01400000 11.52010000 516.81097000 0.43131199 -0.69547099 0.57470900 1.905766e-42
51.33430100 12.74340000 516.79199000 0.44841900 -0.68519199 0.57396197 1.905766e-42
52.58129900 13.92380000 517.33197000 0.45726901 -0.67813098 0.57536399 1.905766e-42
53.53910100 15.07150000 518.33502000 0.46164200 -0.66917098 0.58231997 1.905766e-42
54.77100000 16.30050100 518.79498000 0.46715400 -0.66098201 0.58725601 1.905766e-42
