# .PCD v0.7 - Point Cloud Data file format
# 5 343 0
# 1 29 0
# 30 107 0
# 108 154 0
# 155 306 0
# 307 343 0
VERSION 0.7
FIELDS x y z normal_x normal_y normal_z curvature
SIZE 4 4 4 4 4 4 4
TYPE F F F F F F F
COUNT 1 1 1 1 1 1 1
WIDTH 343
HEIGHT 1
VIEWPOINT 0 0 0 1 0 0 0
POINTS 343
DATA ascii
-12.7286 23.732401 441.599 -0.186161 -0.45210201 -0.87232298 1.9057659e-42
-11.2167 24.268 440.78201 -0.15671299 -0.459921 -0.87402201 1.9057659e-42
-9.4247599 24.127001 440.686 -0.122967 -0.46711001 -0.87560701 1.9057659e-42
-7.6632299 24.3759 440.41199 -0.094080001 -0.472864 -0.87609798 1.9057659e-42
-6.0136199 24.9286 439.95099 -0.068145901 -0.477846 -0.87579602 1.9057659e-42
-4.2136502 24.925301 439.95999 -0.0373003 -0.482582 -0.87505603 1.9057659e-42
-2.5836401 25.6112 439.625 -0.0107217 -0.48709401 -0.87328398 1.9057659e-42
-1.2419 26.684799 439.08899 0.00995088 -0.49109 -0.87105203 1.9057659e-42
0.49549901 27.1457 438.99399 0.0403102 -0.495426 -0.86771399 1.9057659e-42
2.2790999 26.933901 438.87601 0.073471598 -0.499248 -0.86333901 1.9057659e-42
3.70911 27.896 438.35699 0.096376702 -0.50319999 -0.85877901 1.9057659e-42
5.3498201 28.6359 438.383 0.125202 -0.50731897 -0.852615 1.9057659e-42
7.1430898 28.7913 438.39001 0.147562 -0.51052499 -0.84710699 1.9057659e-42
8.6742201 29.7171 438.194 0.15768699 -0.51350099 -0.843476 1.9057659e-42
9.9730902 30.9214 437.87299 0.168008 -0.51677001 -0.839477 1.9057659e-42
11.6554 31.488001 437.57501 0.18676899 -0.51985699 -0.83358598 1.9057659e-42
13.3176 32.1786 437.56601 0.211119 -0.52305102 -0.82573998 1.9057659e-42
14.8978 33.040501 437.573 0.239044 -0.52651203 -0.81586897 1.9057659e-42
16.6234 33.552601 437.582 0.27545899 -0.52951699 -0.80233097 1.9057659e-42
18.177 34.460899 437.547 0.31145599 -0.53303599 -0.78668201 1.9057659e-42
19.7736 35.292 437.535 0.35166299 -0.53631699 -0.76726598 1.9057659e-42
21.3349 36.186901 437.57501 0.36791199 -0.54091603 -0.75634003 1.9057659e-42
22.8731 37.121601 437.59201 0.35730001 -0.547885 -0.75641102 1.9057659e-42
24.444401 37.999699 437.59799 0.34568 -0.55600899 -0.75588399 1.9057659e-42
25.490999 38.510201 437.69101 0.33785799 -0.561786 -0.75514901 1.9057659e-42
26.951401 39.5555 437.569 0.366016 -0.55839002 -0.74446797 1.9057659e-42
28.4855 40.496101 437.60699 0.42574501 -0.54299498 -0.72380698 1.9057659e-42
29.9223 41.577 437.69299 0.48253301 -0.526806 -0.69974101 1.9057659e-42
31.4937 42.0751 438.41599 0.54476702 -0.50577301 -0.66889697 1.9057659e-42
32.929501 43.148399 438.57999 0.59750903 -0.48710701 -0.63695401 1.9057659e-42
34.294102 43.640598 439.64499 0.65413702 -0.46371201 -0.59755898 1.9057659e-42
35.252499 43.66 441.16901 0.70213199 -0.44125 -0.558846 1.9057659e-42
36.0387 42.8965 442.59698 0.71550697 -0.429647 -0.55086499 1.9057659e-42
36.851601 42.975899 444.20099 0.726143 -0.418228 -0.54571199 1.9057659e-42
37.6768 42.506199 445.73001 0.73124701 -0.41006801 -0.54508901 1.9057659e-42
38.4622 41.6665 447.11499 0.73333699 -0.40412 -0.54672003 1.9057659e-42
39.442001 42.043598 448.577 0.73818398 -0.397277 -0.54521102 1.9057659e-42
40.347599 41.705002 450.095 0.74036998 -0.39205399 -0.54602802 1.9057659e-42
41.2598 41.172298 451.55301 0.74236798 -0.38747299 -0.54658401 1.9057659e-42
41.984901 40.716499 453.13599 0.74518198 -0.38304099 -0.54587799 1.9057659e-42
42.818401 40.495399 454.716 0.75002301 -0.3784 -0.54247397 1.9057659e-42
43.598701 40.288399 456.32501 0.75697702 -0.37342399 -0.53622699 1.9057659e-42
44.430599 40.272598 457.92099 0.767115 -0.36783299 -0.52557898 1.9057659e-42
44.993599 39.7104 459.535 0.77944499 -0.35996401 -0.51272899 1.9057659e-42
45.859798 39.933899 461.09698 0.81702399 -0.33149201 -0.471789 1.9057659e-42
46.529499 40.155899 462.75299 0.844639 -0.307035 -0.438537 1.9057659e-42
47.351299 39.806599 464.31601 0.862903 -0.28809401 -0.41521201 1.9057659e-42
47.995701 39.933399 465.992 0.88025397 -0.26876599 -0.391047 1.9057659e-42
48.807899 39.918098 467.599 0.89417201 -0.251569 -0.370363 1.9057659e-42
49.515499 39.892899 469.25299 0.90580899 -0.23589601 -0.35194299 1.9057659e-42
50.188202 39.503899 470.87701 0.91435498 -0.223087 -0.337915 1.9057659e-42
50.824799 40.058399 472.46701 0.92482603 -0.207783 -0.31862599 1.9057659e-42
51.472301 40.142799 474.14401 0.933052 -0.194437 -0.30266801 1.9057659e-42
51.945301 40.433498 475.85599 0.94083399 -0.181254 -0.28631699 1.9057659e-42
52.1534 40.927502 477.57501 0.94802099 -0.168484 -0.269943 1.9057659e-42
52.993198 40.6646 479.14499 0.953237 -0.158209 -0.257505 1.9057659e-42
53.465698 41.2029 480.79599 0.96169001 -0.141488 -0.234805 1.9057659e-42
53.916698 41.657001 482.479 0.96975398 -0.12378 -0.21036901 1.9057659e-42
54.114899 42.440601 484.08701 0.97697002 -0.105868 -0.18526199 1.9057659e-42
54.618 42.5299 485.81299 0.98229098 -0.090475701 -0.16407 1.9057659e-42
54.739201 43.218899 487.47198 0.987391 -0.073228903 -0.14034501 1.9057659e-42
54.823399 44.057301 489.06201 0.99162602 -0.055516999 -0.116597 1.9057659e-42
55.1931 44.043301 490.82401 0.99436402 -0.04115 -0.097709402 1.9057659e-42
55.368599 44.308102 492.595 0.99670798 -0.025047701 -0.077111498 1.9057659e-42
55.4706 44.961498 494.26999 0.99849498 -0.0066276998 -0.0544472 1.9057659e-42
55.5252 45.525799 495.978 0.99941599 0.0122955 -0.031885501 1.9057659e-42
55.555302 45.959599 497.72501 0.99945903 0.0314654 -0.0096034501 1.9057659e-42
55.4613 46.543301 499.42499 0.99883097 0.0477608 0.0074607399 1.9057659e-42
55.48 46.688099 501.21899 0.99779701 0.062257901 0.022917001 1.9057659e-42
55.254002 47.4786 502.82001 0.99578601 0.081062898 0.042894799 1.9057659e-42
54.9123 48.0755 504.483 0.99298501 0.099935599 0.063199103 1.9057659e-42
54.726101 48.6227 506.18799 0.989254 0.119396 0.0843824 1.9057659e-42
54.663399 49.1852 507.897 0.98449302 0.13943399 0.106452 1.9057659e-42
54.394199 49.774601 509.57599 0.97848397 0.160375 0.129806 1.9057659e-42
54.041401 50.6978 511.08099 0.97073501 0.183102 0.155393 1.9057659e-42
53.662201 51.512001 512.64099 0.96176398 0.20542599 0.181135 1.9057659e-42
53.152599 52.6647 513.92603 0.951325 0.22786701 0.20750301 1.9057659e-42
52.7047 53.712299 515.31897 0.942146 0.245893 0.227809 1.9057659e-42
52.068699 54.8498 516.56097 0.93450302 0.260517 0.24256 1.9057659e-42
51.4165 55.9189 517.854 0.92578298 0.27568799 0.258692 1.9057659e-42
50.555599 57.0923 518.91302 0.91609001 0.29093701 0.27592599 1.9057659e-42
49.829899 58.219002 520.11499 0.90532398 0.306252 0.29427701 1.9057659e-42
49.0327 59.506001 521.08801 0.89401001 0.320678 0.31290799 1.9057659e-42
48.157501 60.928501 521.76001 0.88294399 0.33327299 0.33066401 1.9057659e-42
47.375301 62.125401 522.85303 0.870538 0.34606999 0.34985599 1.9057659e-42
46.4132 63.2421 523.88599 0.8513 0.36789599 0.37408799 1.9057659e-42
45.347198 64.689102 523.98499 0.83041799 0.39126799 0.39662901 1.9057659e-42
44.479599 65.916199 524.97601 0.80269498 0.41864899 0.424752 1.9057659e-42
43.5028 67.217903 525.745 0.77340698 0.44471699 0.45174 1.9057659e-42
42.3466 68.405899 526.44598 0.74303102 0.46901399 0.47742099 1.9057659e-42
41.280899 69.641602 527.20599 0.72613198 0.48547 0.48688 1.9057659e-42
40.150902 71.037804 527.323 0.712928 0.49887601 0.49280399 1.9057659e-42
38.887798 72.243797 527.758 0.69971699 0.511917 0.49833301 1.9057659e-42
37.737999 73.516602 528.30499 0.68695998 0.523857 0.50364602 1.9057659e-42
36.569698 74.802597 528.77502 0.67456102 0.53483599 0.50884002 1.9057659e-42
35.3414 76.118301 528.77802 0.66004199 0.54676902 0.51515901 1.9057659e-42
34.137402 77.456001 528.745 0.64453101 0.55862999 0.52202702 1.9057659e-42
32.947701 78.806702 528.745 0.62806797 0.57039303 0.52932298 1.9057659e-42
31.7759 80.172401 528.78998 0.610852 0.58190799 0.536883 1.9057659e-42
30.649599 81.576202 528.76501 0.59370297 0.59274799 0.54421198 1.9057659e-42
29.3822 82.853996 528.79498 0.57548201 0.60348898 0.551925 1.9057659e-42
28.1453 84.121399 529.11798 0.55624402 0.61391801 0.56008703 1.9057659e-42
26.9426 85.417503 528.78101 0.54010099 0.622666 0.56619602 1.9057659e-42
25.708401 86.7024 528.52399 0.52086997 0.63271999 0.57302701 1.9057659e-42
24.6012 88.003799 527.95801 0.500462 0.64360499 0.57906002 1.9057659e-42
23.344299 89.286797 527.84003 0.475427 0.65568799 0.58655202 1.9057659e-42
22.4946 90.6101 526.96399 0.459364 0.664473 0.58945698 1.9057659e-42
21.3934 91.9189 526.40399 0.437913 0.67501801 0.593786 1.9057659e-42
19.7775 92.019798 527.19 0.40968499 0.68483299 0.60262901 1.9057659e-42
18.980301 91.352402 528.65997 0.395262 0.68727601 0.60944301 1.9057659e-42
17.8393 90.603996 529.83398 0.37711701 0.69088799 0.61681098 1.9057659e-42
16.6574 89.982597 531.04102 0.35761401 0.69455397 0.62426502 1.9057659e-42
15.5782 89.281303 532.29901 0.33999401 0.69701201 0.63133103 1.9057659e-42
14.5206 88.5606 533.565 0.32295501 0.69884503 0.63821298 1.9057659e-42
13.4097 87.8405 534.784 0.30555901 0.700414 0.64502299 1.9057659e-42
11.9916 87.261902 535.72998 0.28985801 0.70126402 0.65131497 1.9057659e-42
10.7126 86.606102 536.81299 0.275686 0.70105898 0.65765798 1.9057659e-42
9.9871597 86.043098 538.362 0.265733 0.69925803 0.66364503 1.9057659e-42
8.4728603 85.563004 539.20801 0.25231799 0.70411003 0.66375101 1.9057659e-42
7.4433799 84.873703 540.51398 0.242569 0.70878398 0.66240901 1.9057659e-42
5.9295702 84.440804 541.38599 0.228053 0.71315402 0.662875 1.9057659e-42
4.61342 83.967499 542.51898 0.214762 0.71728301 0.66285998 1.9057659e-42
3.0666201 83.5653 543.34698 0.19973899 0.72063899 0.66391498 1.9057659e-42
1.64379 83.087402 544.341 0.185735 0.72372901 0.66461903 1.9057659e-42
0.105471 82.718597 545.20001 0.171362 0.72587299 0.66614002 1.9057659e-42
-1.47873 82.309898 545.95001 0.13956 0.73065001 0.66833699 1.9057659e-42
-3.1207299 81.9431 546.59003 0.104042 0.73526102 0.66975099 1.9057659e-42
-4.42032 81.443703 547.73102 0.075670503 0.73991901 0.66842598 1.9057659e-42
-5.9347701 80.826202 548.48297 0.0435073 0.74400598 0.66675502 1.9057659e-42
-7.4100399 80.182999 549.289 0.0121316 0.747796 0.663818 1.9057659e-42
-8.9069405 79.537399 550.052 -0.0199409 0.75116199 0.65981698 1.9057659e-42
-10.0623 78.768303 551.198 -0.0436446 0.75477898 0.65452498 1.9057659e-42
-11.7089 78.067802 551.39301 -0.0812442 0.756598 0.64881301 1.9057659e-42
-12.7264 77.100998 552.52002 -0.101713 0.75983202 0.64211398 1.9057659e-42
-13.8813 76.329201 553.664 -0.1248 0.76254302 0.63478601 1.9057659e-42
-15.2258 75.351196 554.354 -0.14622299 0.76503801 0.62716502 1.9057659e-42
-16.363701 74.385498 555.36102 -0.161275 0.76792198 0.61990798 1.9057659e-42
-17.5201 73.403 556.32898 -0.175836 0.77071899 0.61243302 1.9057659e-42
-18.352501 72.383301 557.55603 -0.183042 0.77382803 0.606372 1.9057659e-42
-19.448601 71.350502 558.54199 -0.195136 0.77661502 0.59899098 1.9057659e-42
-20.1873 70.2789 559.78601 -0.19956601 0.77966702 0.59354198 1.9057659e-42
-21.229 69.043999 560.57898 -0.21088199 0.78237402 0.58602101 1.9057659e-42
-21.884701 68.0597 561.93597 -0.21236999 0.78539902 0.58141798 1.9057659e-42
-22.618299 66.872704 563.073 -0.21591 0.78839201 0.576038 1.9057659e-42
-23.4314 65.678001 564.146 -0.22065701 0.79139799 0.57008803 1.9057659e-42
-24.121599 64.422203 565.23602 -0.222937 0.79450101 0.56485999 1.9057659e-42
-24.332899 63.530201 566.78497 -0.214734 0.79749298 0.56382197 1.9057659e-42
-25.0334 62.372299 567.97198 -0.21551199 0.800883 0.55869597 1.9057659e-42
-25.703899 61.171501 569.133 -0.215323 0.804573 0.553442 1.9057659e-42
-26.1985 60.118401 570.50598 -0.21041401 0.80859202 0.54945803 1.9057659e-42
-27.055099 59.094601 571.71399 -0.210685 0.81377298 0.54165101 1.9057659e-42
-27.514999 58.3195 573.27197 -0.201083 0.81997401 0.53591901 1.9057659e-42
-28.106899 57.258999 574.59998 -0.190044 0.83093703 0.52290303 1.9057659e-42
-28.282301 56.321899 576.12701 -0.146127 0.849693 0.506625 1.9057659e-42
-28.8498 55.148201 577.36798 -0.0454197 0.88620597 0.461059 1.9057659e-42
-27.489201 54.571602 578.396 -0.0454197 0.88620597 0.461059 1.9057659e-42
-25.751101 54.683399 578.85101 -0.0454197 0.88620597 0.461059 1.9057659e-42
-24.005699 55.069099 579.06201 -0.099316299 0.82902199 0.55032599 1.9057659e-42
-22.501101 54.418598 579.80603 -0.100453 0.81910402 0.56478101 1.9057659e-42
-20.8311 54.012402 580.34003 -0.094667897 0.81291199 0.57463998 1.9057659e-42
-19.094601 54.451302 580.51898 -0.085213102 0.80873197 0.581972 1.9057659e-42
-17.313499 54.639801 580.69897 -0.071289003 0.80593902 0.58769 1.9057659e-42
-15.5487 54.454601 581.00098 -0.051876601 0.80411899 0.59220099 1.9057659e-42
-13.7743 54.2593 581.23102 -0.0199022 0.802333 0.59654498 1.9057659e-42
-12.0808 53.7239 581.52399 0.0110857 0.80008501 0.59978497 1.9057659e-42
-10.2851 53.680901 581.64001 0.039597102 0.79705697 0.60260397 1.9057659e-42
-8.4984503 53.509499 581.776 0.0656932 0.79395401 0.60441798 1.9057659e-42
-6.79005 52.9786 581.97498 0.089549601 0.79108697 0.60511398 1.9057659e-42
-5.0566902 53.445702 581.84399 0.110657 0.787911 0.60576499 1.9057659e-42
-3.391 52.7771 581.979 0.13618401 0.78448701 0.60500801 1.9057659e-42
-1.60785 52.536701 581.92902 0.163717 0.77990299 0.60410899 1.9057659e-42
0.159936 52.1987 581.90198 0.190623 0.77490002 0.60265398 1.9057659e-42
1.93902 51.9561 581.77502 0.216959 0.76938897 0.60080701 1.9057659e-42
3.64081 51.3755 581.69299 0.242833 0.76362401 0.59825599 1.9057659e-42
5.3813 50.954102 581.51099 0.26863399 0.757276 0.59528798 1.9057659e-42
7.1491699 51.000702 581.17499 0.29319999 0.75050402 0.59226501 1.9057659e-42
8.7941799 50.286301 581.02197 0.296464 0.750754 0.59031898 1.9057659e-42
10.4955 49.771198 580.73901 0.301467 0.751342 0.58702898 1.9057659e-42
12.1501 49.120201 580.45898 0.31158 0.75130498 0.58177203 1.9057659e-42
13.8795 48.827 580.05499 0.32817101 0.74961001 0.57479501 1.9057659e-42
15.5208 48.194199 579.67297 0.35020399 0.74673998 0.56545198 1.9057659e-42
17.1462 47.560501 579.22998 0.378658 0.74160701 0.55374801 1.9057659e-42
18.8284 47.2005 578.70001 0.41394901 0.73299599 0.53978002 1.9057659e-42
20.4457 46.597301 578.19 0.44749799 0.72416103 0.52472502 1.9057659e-42
22.023899 45.882198 577.70203 0.47700301 0.71557999 0.51030803 1.9057659e-42
23.664101 45.674999 576.98999 0.50483102 0.70512599 0.49793899 1.9057659e-42
25.0653 44.628399 576.56403 0.53010303 0.69599098 0.48434201 1.9057659e-42
26.601801 43.9417 575.92603 0.55536997 0.684753 0.47188699 1.9057659e-42
28.104799 43.173 575.30103 0.57935798 0.67297202 0.45984 1.9057659e-42
29.4659 42.172199 574.67999 0.60223198 0.66087502 0.44784001 1.9057659e-42
30.941 41.5 573.89697 0.62140602 0.64918399 0.438651 1.9057659e-42
32.3283 40.632999 573.14697 0.63216698 0.642717 0.43275899 1.9057659e-42
33.7169 39.778 572.38501 0.64181298 0.636338 0.42796001 1.9057659e-42
35.090599 39.0513 571.47601 0.651272 0.62896401 0.424557 1.9057659e-42
36.298302 37.966202 570.69897 0.66170502 0.621638 0.41918099 1.9057659e-42
37.708199 37.407902 569.729 0.67381901 0.61108398 0.41538399 1.9057659e-42
39.025902 36.619701 568.78998 0.689417 0.59815598 0.40855101 1.9057659e-42
40.2117 35.558998 567.948 0.70988202 0.582129 0.39647701 1.9057659e-42
41.506699 34.857899 566.91302 0.742064 0.55963701 0.36898199 1.9057659e-42
42.679401 33.882999 565.95697 0.76365799 0.54439998 0.34706599 1.9057659e-42
43.723499 32.7299 565.05103 0.778835 0.53353399 0.32978401 1.9057659e-42
44.695301 31.498301 564.16901 0.78953898 0.52598 0.31618699 1.9057659e-42
45.929901 30.900999 563.00299 0.79812098 0.51788598 0.30789101 1.9057659e-42
47.0606 30.025801 561.909 0.80496401 0.51189798 0.29998901 1.9057659e-42
48.1292 29.0432 560.84497 0.81133598 0.50643301 0.29199201 1.9057659e-42
49.179199 28.1644 559.677 0.81873298 0.49918401 0.28371 1.9057659e-42
50.148499 27.1598 558.53998 0.82801801 0.48994499 0.272654 1.9057659e-42
51.054501 26.037201 557.46399 0.84015399 0.47738901 0.25737301 1.9057659e-42
51.9636 25.121799 556.20898 0.847372 0.47151899 0.244195 1.9057659e-42
52.8428 24.180599 554.95099 0.855021 0.46505499 0.22948299 1.9057659e-42
53.661301 23.0401 553.82501 0.86352497 0.45776299 0.21160699 1.9057659e-42
54.348499 21.8111 552.703 0.87560397 0.44591901 0.185672 1.9057659e-42
55.110298 20.770901 551.44702 0.88773 0.431512 0.16041499 1.9057659e-42
55.7757 19.5536 550.29999 0.89784199 0.41854599 0.136742 1.9057659e-42
56.519001 18.5471 549.00598 0.907574 0.40357399 0.115923 1.9057659e-42
57.210701 17.6674 547.59601 0.91673398 0.38730001 0.097972803 1.9057659e-42
57.851299 16.6439 546.26202 0.924972 0.371364 0.080723003 1.9057659e-42
58.280201 15.2804 545.16699 0.93204099 0.35683599 0.062992901 1.9057659e-42
58.805099 14.2629 543.77899 0.93929702 0.33958599 0.049021799 1.9057659e-42
59.226398 13.1769 542.40601 0.94596201 0.32224 0.0362841 1.9057659e-42
59.535301 11.9689 541.10797 0.95200503 0.305121 0.0242396 1.9057659e-42
60.0168 11.0526 539.63501 0.959611 0.28128099 0.0051679998 1.9057659e-42
60.353802 10.1017 538.14502 0.96675402 0.25505501 -0.0182538 1.9057659e-42
60.634602 9.1001701 536.67603 0.97211599 0.231227 -0.0390356 1.9057659e-42
60.7826 7.79706 535.44299 0.97581798 0.210472 -0.059002198 1.9057659e-42
60.9958 6.8566799 533.92297 0.97876 0.19094799 -0.074612699 1.9057659e-42
61.041801 5.5499701 532.68597 0.98056197 0.174118 -0.090447702 1.9057659e-42
61.151001 4.5061798 531.22302 0.98193997 0.158317 -0.103582 1.9057659e-42
61.127399 3.3241899 529.86603 0.98268098 0.144254 -0.11631 1.9057659e-42
61.121799 2.24209 528.42798 0.98306 0.131258 -0.127924 1.9057659e-42
61.173199 1.33428 526.87402 0.98317301 0.119128 -0.138486 1.9057659e-42
61.226501 0.42454299 525.32202 0.98234999 0.103577 -0.155756 1.9057659e-42
61.111698 -0.68007201 523.90503 0.98022002 0.085691698 -0.17839999 1.9057659e-42
60.816898 -1.84658 522.56702 0.97723198 0.068425901 -0.200837 1.9057659e-42
60.539501 -2.9123001 521.14301 0.97346097 0.051124301 -0.223069 1.9057659e-42
60.121399 -4.1219001 519.87701 0.96879703 0.034485798 -0.24544699 1.9057659e-42
59.8494 -4.9295702 518.29199 0.96352601 0.017065199 -0.26706901 1.9057659e-42
59.3456 -6.1381502 517.05701 0.957102 0.00046954601 -0.289749 1.9057659e-42
58.892502 -7.1297302 515.62402 0.94976902 -0.0169688 -0.312493 1.9057659e-42
58.453602 -8.177 514.22803 0.941369 -0.034454901 -0.33561599 1.9057659e-42
57.9072 -9.1611605 512.823 0.93189102 -0.052344099 -0.35894099 1.9057659e-42
57.250599 -10.4226 511.72 0.92277801 -0.067221902 -0.37942299 1.9057659e-42
56.793098 -11.1725 510.14801 0.91567999 -0.080056697 -0.39385399 1.9057659e-42
55.9062 -12.3838 509.155 0.90746599 -0.092089102 -0.409908 1.9057659e-42
55.1115 -13.3748 507.88 0.89826602 -0.105687 -0.42655301 1.9057659e-42
54.5742 -14.0162 506.28601 0.888735 -0.120143 -0.44239801 1.9057659e-42
53.693501 -15.0203 505.07999 0.87744802 -0.13480499 -0.46033999 1.9057659e-42
52.800201 -15.9812 503.84698 0.86490798 -0.150261 -0.47891 1.9057659e-42
51.892899 -16.921301 502.60901 0.850954 -0.16647901 -0.49815899 1.9057659e-42
50.9603 -17.7743 501.328 0.83549798 -0.183643 -0.51789898 1.9057659e-42
49.930599 -18.662399 500.14801 0.81812203 -0.20148601 -0.53859103 1.9057659e-42
48.966499 -19.4858 498.87 0.79909199 -0.220075 -0.55948102 1.9057659e-42
47.939201 -20.265699 497.61499 0.79031998 -0.23014501 -0.56782699 1.9057659e-42
46.8899 -21.0868 496.405 0.78325897 -0.239281 -0.57380301 1.9057659e-42
45.729801 -21.974701 495.353 0.77800298 -0.247364 -0.57751399 1.9057659e-42
44.656898 -22.722099 494.116 0.76744199 -0.25610599 -0.58774298 1.9057659e-42
43.481098 -23.4543 492.966 0.75662899 -0.26440799 -0.59799701 1.9057659e-42
42.229 -24.206499 491.91501 0.74548 -0.27248001 -0.60828799 1.9057659e-42
40.8638 -25.0959 491.14999 0.73322701 -0.28026199 -0.619542 1.9057659e-42
39.6964 -25.6315 489.888 0.71855301 -0.289599 -0.63230801 1.9057659e-42
38.401001 -26.2439 488.79901 0.69983798 -0.29988301 -0.64830297 1.9057659e-42
37.058498 -26.9298 487.81601 0.67562902 -0.31144401 -0.66822702 1.9057659e-42
35.6679 -27.594 486.88501 0.64401901 -0.3247 -0.69268298 1.9057659e-42
34.193199 -28.3883 486.22699 0.60388702 -0.33904701 -0.72136497 1.9057659e-42
32.836399 -28.870501 485.146 0.56430697 -0.34993199 -0.74773401 1.9057659e-42
31.615101 -29.136801 483.85101 0.55561101 -0.35060599 -0.75390399 1.9057659e-42
30.0583 -29.855 483.30301 0.55507499 -0.349545 -0.75479102 1.9057659e-42
28.520901 -30.434401 482.56799 0.55193502 -0.34986201 -0.756944 1.9057659e-42
27.043699 -30.924101 481.66299 0.54499298 -0.35157901 -0.76116699 1.9057659e-42
25.6709 -31.291201 480.55801 0.53308803 -0.354882 -0.76803398 1.9057659e-42
24.188 -31.5697 479.577 0.51456702 -0.359671 -0.778368 1.9057659e-42
22.566999 -32.104401 479.005 0.48812601 -0.36523399 -0.79267699 1.9057659e-42
20.9851 -32.4198 478.207 0.45095199 -0.37281701 -0.810956 1.9057659e-42
19.3241 -32.850101 477.66299 0.41189301 -0.38031599 -0.82807302 1.9057659e-42
17.6278 -33.2738 477.23499 0.380431 -0.386825 -0.84002298 1.9057659e-42
15.9479 -33.612999 476.685 0.35164899 -0.39321199 -0.849545 1.9057659e-42
14.4055 -33.670502 475.758 0.325975 -0.399795 -0.856682 1.9057659e-42
12.7271 -33.879398 475.142 0.29988 -0.40617499 -0.86318803 1.9057659e-42
10.9981 -34.3666 475.02701 0.27334499 -0.41185901 -0.86928397 1.9057659e-42
9.3178301 -34.462601 474.38901 0.246277 -0.41848201 -0.87419701 1.9057659e-42
7.5539899 -34.812698 474.31 0.210115 -0.424263 -0.88082498 1.9057659e-42
5.7811899 -35.106201 474.20499 0.160346 -0.428601 -0.88915199 1.9057659e-42
4.0345802 -35.1619 473.77301 0.12469 -0.43243501 -0.89300197 1.9057659e-42
2.28104 -35.139099 473.36801 0.101353 -0.43600899 -0.89421701 1.9057659e-42
0.48973799 -35.169998 473.194 0.088207603 -0.43950301 -0.89389998 1.9057659e-42
-1.2902499 -35.188099 472.927 0.084924102 -0.443266 -0.89235801 1.9057659e-42
-3.0797601 -35.164101 472.73401 0.091105498 -0.44730401 -0.88972998 1.9057659e-42
-4.8768902 -35.152901 472.633 0.098132297 -0.45078701 -0.88722098 1.9057659e-42
-6.6614599 -35.059502 472.41699 0.0568178 -0.44972199 -0.89135998 1.9057659e-42
-8.3844404 -34.802601 471.96399 0.0199646 -0.44830799 -0.89365602 1.9057659e-42
-10.1836 -34.7533 471.98999 -0.0145116 -0.44628301 -0.89477402 1.9057659e-42
-11.9776 -34.606201 471.99399 -0.046321601 -0.44398999 -0.89483398 1.9057659e-42
-13.7666 -34.415798 472.04999 -0.075748101 -0.44144401 -0.894086 1.9057659e-42
-15.501 -34.3694 472.52899 -0.102482 -0.43865001 -0.89279598 1.9057659e-42
-17.1206 -33.808498 471.979 -0.113658 -0.438144 -0.89169002 1.9057659e-42
-18.8901 -33.478901 471.97601 -0.11486 -0.43832701 -0.89144599 1.9057659e-42
-20.6542 -33.121498 471.995 -0.115461 -0.43737999 -0.89183402 1.9057659e-42
-22.415701 -32.751999 471.97699 -0.117264 -0.43473801 -0.89288902 1.9057659e-42
-24.0669 -32.727901 472.69299 -0.120309 -0.43024501 -0.89465898 1.9057659e-42
-25.808399 -32.276901 472.75299 -0.131969 -0.42203701 -0.89692199 1.9057659e-42
-27.5599 -31.9058 472.939 -0.164892 -0.40769199 -0.89810801 1.9057659e-42
-29.243099 -31.636999 473.517 -0.210508 -0.39064801 -0.89614701 1.9057659e-42
-30.932199 -31.018101 473.45599 -0.245021 -0.37573901 -0.89374799 1.9057659e-42
-32.625 -30.421801 473.59399 -0.27079099 -0.36203399 -0.89196599 1.9057659e-42
-34.305099 -29.925501 474.00699 -0.29033101 -0.34851599 -0.891204 1.9057659e-42
-35.938999 -29.212099 474.255 -0.30822 -0.33423001 -0.89066899 1.9057659e-42
-37.029598 -27.8473 473.82101 -0.32823199 -0.323452 -0.887492 1.9057659e-42
-36.7132 -26.3132 472.93399 -0.337975 -0.32524601 -0.883169 1.9057659e-42
-35.9454 -24.858 472.20401 -0.341245 -0.329763 -0.88023198 1.9057659e-42
-35.955502 -23.089399 471.87 -0.35401699 -0.326619 -0.876351 1.9057659e-42
-35.061699 -21.8151 470.966 -0.35257 -0.33211499 -0.87486798 1.9057659e-42
-34.394901 -20.306601 470.245 -0.35485199 -0.33481601 -0.87291402 1.9057659e-42
-34.140701 -18.579201 469.80801 -0.36312699 -0.33353701 -0.869995 1.9057659e-42
-33.417801 -17.1924 468.91699 -0.36296001 -0.33699 -0.868734 1.9057659e-42
-32.617199 -15.9416 467.89899 -0.360553 -0.341364 -0.86802799 1.9057659e-42
-31.837799 -14.6103 466.97198 -0.35885999 -0.345146 -0.86723298 1.9057659e-42
-31.057199 -13.2783 466.047 -0.35695401 -0.348869 -0.86653 1.9057659e-42
-30.2827 -11.9774 465.073 -0.35462201 -0.352667 -0.86594999 1.9057659e-42
-29.816999 -10.4048 464.33099 -0.35784999 -0.35348299 -0.86428797 1.9057659e-42
-29.187599 -8.9355001 463.504 -0.358291 -0.35570899 -0.86319101 1.9057659e-42
-28.470501 -7.6484699 462.47 -0.355993 -0.359263 -0.86267 1.9057659e-42
-27.8633 -6.2098799 461.57401 -0.35615101 -0.36154199 -0.86165202 1.9057659e-42
-27.193701 -4.7957501 460.68399 -0.35533401 -0.36428499 -0.86083299 1.9057659e-42
-26.916599 -3.1693799 459.965 -0.361 -0.363684 -0.85872799 1.9057659e-42
-26.470699 -1.61168 459.17999 -0.364032 -0.36444801 -0.857122 1.9057659e-42
-25.8582 -0.23609599 458.194 -0.36339399 -0.367089 -0.85626501 1.9057659e-42
-25.325899 1.18521 457.22699 -0.36405599 -0.36907899 -0.85512799 1.9057659e-42
-24.825399 2.68045 456.358 -0.36584699 -0.37051001 -0.85374397 1.9057659e-42
-24.3493 4.2185998 455.55399 -0.36840701 -0.37156099 -0.85218501 1.9057659e-42
-23.6908 5.5925598 454.595 -0.36728299 -0.374529 -0.85137099 1.9057659e-42
-23.108999 7.0837898 453.772 -0.36826399 -0.376459 -0.85009402 1.9057659e-42
-22.242399 8.2779102 452.741 -0.355326 -0.38358101 -0.85241401 1.9057659e-42
-21.754299 9.8042202 451.92099 -0.351491 -0.386435 -0.85271502 1.9057659e-42
-21.133101 11.2889 451.11499 -0.34307101 -0.39091399 -0.854101 1.9057659e-42
-20.3736 12.6215 450.173 -0.32788199 -0.39768001 -0.85693902 1.9057659e-42
-19.614401 13.9824 449.272 -0.31369501 -0.40394399 -0.85931599 1.9057659e-42
-18.848301 15.2783 448.285 -0.29859 -0.410357 -0.86165601 1.9057659e-42
-18.1066 16.6772 447.42899 -0.28624901 -0.41574499 -0.86325997 1.9057659e-42
-17.0543 17.604401 446.30099 -0.26078099 -0.42488301 -0.86687303 1.9057659e-42
-16.167 18.831499 445.328 -0.244029 -0.431178 -0.86864001 1.9057659e-42
-14.861 19.6595 444.40701 -0.215637 -0.44023201 -0.87160599 1.9057659e-42
-14.2835 21.024099 443.38501 -0.208501 -0.44354299 -0.87166297 1.9057659e-42
-13.5599 22.420099 442.509 -0.19868401 -0.44752499 -0.871921 1.9057659e-42
