# .PCD v0.7 - Point Cloud Data file format
# 4 40 0
# 1 14 0
# 15 19 0
# 20 31 0
# 32 40 0
VERSION 0.7
FIELDS x y z normal_x normal_y normal_z curvature
SIZE 4 4 4 4 4 4 4
TYPE F F F F F F F
COUNT 1 1 1 1 1 1 1
WIDTH 40
HEIGHT 1
VIEWPOINT 0 0 0 1 0 0 0
POINTS 40
DATA ascii
23.20070100 1.99616000 452.41199000 0.66181302 0.43274099 -0.61215901 1.905766e-42
21.85330000 2.67375990 451.42999000 0.57855999 0.49477199 -0.64843601 1.905766e-42
20.31570100 3.47500990 450.94601000 0.37641799 0.71492600 -0.58922797 1.905766e-42
18.77829900 4.37819000 451.19299000 0.35214600 0.76775801 -0.53529400 1.905766e-42
17.10640000 5.04448990 451.16000000 0.33229101 0.77615100 -0.53588498 1.905766e-42
15.41970000 5.64877990 450.98700000 0.30795699 0.78355098 -0.53963900 1.905766e-42
13.78000000 5.69994020 450.24600000 0.29372999 0.77806097 -0.55528599 1.905766e-42
12.08760000 5.82296990 449.64600000 0.27432799 0.77765000 -0.56568903 1.905766e-42
10.39390000 6.39753010 449.44299000 0.23707600 0.78284001 -0.57528901 1.905766e-42
10.16120000 6.53495980 449.52701000 0.23212101 0.78292900 -0.57718498 1.905766e-42
8.60433010 7.28323980 450.03299000 0.19112401 0.78280699 -0.59218597 1.905766e-42
7.02412990 8.00767990 450.50000000 0.13671499 0.78928602 -0.59861201 1.905766e-42
5.23227980 8.16584010 450.43500000 0.11988600 0.79841399 -0.59005302 1.905766e-42
4.03641990 9.09317020 451.41000000 0.09847790 0.80119997 -0.59023702 1.905766e-42
2.43878010 9.71856980 451.95401000 0.09812330 0.80836898 -0.58044100 1.905766e-42
2.87260010 10.68240000 453.41101000 0.06995580 0.79416502 -0.60366201 1.905766e-42
3.36026000 11.65740000 454.84299000 0.06035110 0.78584099 -0.61547703 1.905766e-42
3.85005000 12.71650000 456.21399000 0.06952700 0.78045100 -0.62133902 1.905766e-42
3.71014000 13.92020000 457.54501000 0.08031810 0.78515798 -0.61406499 1.905766e-42
3.24786000 15.02540000 458.88800000 0.08726610 0.79748601 -0.59699202 1.905766e-42
4.19713020 15.82480000 460.19199000 0.09433830 0.79413599 -0.60037303 1.905766e-42
5.74997000 16.22940100 461.00800000 0.11062200 0.79250997 -0.59974200 1.905766e-42
7.39174990 16.49860000 461.69501000 0.15021800 0.79922700 -0.58195502 1.905766e-42
9.02912040 16.62500000 462.43201000 0.20307000 0.78600001 -0.58392400 1.905766e-42
10.79500000 16.33910000 462.63101000 0.24635801 0.76631200 -0.59335899 1.905766e-42
12.45260000 16.32469900 463.33301000 0.27463800 0.76577997 -0.58151102 1.905766e-42
14.12300000 16.18429900 463.98901000 0.29900900 0.76900703 -0.56499702 1.905766e-42
15.73520000 15.38600000 463.93100000 0.30195901 0.76259601 -0.57207400 1.905766e-42
17.40070000 14.72020000 463.78000000 0.29112601 0.75668597 -0.58538300 1.905766e-42
19.10090100 14.14570000 463.91800000 0.29166400 0.76648802 -0.57221401 1.905766e-42
20.80470100 13.56890000 463.98599000 0.37123099 0.71564698 -0.59163898 1.905766e-42
22.25890000 12.50810000 463.99600000 0.36982399 0.62733102 -0.68533701 1.905766e-42
23.19529900 11.19040000 463.20401000 0.39015299 0.58020300 -0.71494401 1.905766e-42
23.11770100 9.82065960 462.03900000 0.53266197 0.62477601 -0.57089901 1.905766e-42
23.02700000 8.77952000 460.57401000 0.62424600 0.66167498 -0.41533500 1.905766e-42
23.18390100 7.70076990 459.14099000 0.58460599 0.54549301 -0.60056001 1.905766e-42
23.04180000 6.38108020 457.92499000 0.55268002 0.54792798 -0.62794799 1.905766e-42
23.08320000 5.05955980 456.70401000 0.57680398 0.64713401 -0.49851200 1.905766e-42
23.27520000 3.81358000 455.41901000 0.61180103 0.72543597 -0.31534600 1.905766e-42
23.61750000 2.97979000 453.86099000 0.66002101 0.63221401 -0.40580499 1.905766e-42
