# .PCD v0.7 - Point Cloud Data file format
# 7 221 0
# 1 14 0
# 15 38 0
# 39 69 0
# 70 80 0
# 81 93 0
# 94 134 0
# 135 221 0
VERSION 0.7
FIELDS x y z normal_x normal_y normal_z curvature
SIZE 4 4 4 4 4 4 4
TYPE F F F F F F F
COUNT 1 1 1 1 1 1 1
WIDTH 221
HEIGHT 1
VIEWPOINT 0 0 0 1 0 0 0
POINTS 221
DATA ascii
60.24789800 -14.72100000 457.06299000 -0.99396902 0.08436170 -0.07006800 1.905766e-42
60.29769900 -11.10240000 459.12201000 -0.99416697 0.03290540 -0.10270600 1.905766e-42
60.40950000 -9.30595020 459.10599000 -0.99334401 0.02517940 -0.11239900 1.905766e-42
60.51369900 -7.51127000 459.19699000 -0.99250603 0.01555630 -0.12120000 1.905766e-42
60.53960000 -5.71200990 459.15201000 -0.99164099 0.00444542 -0.12894900 1.905766e-42
60.52679800 -3.91214990 459.13400000 -0.99070603 -0.00814726 -0.13577600 1.905766e-42
60.51319900 -2.11236000 459.10999000 -0.98983300 -0.02189040 -0.14054100 1.905766e-42
60.44860100 -0.31449801 459.17001000 -0.98870200 -0.03766340 -0.14508900 1.905766e-42
60.40449900 1.48483000 459.14801000 -0.98717600 -0.05805620 -0.14870501 1.905766e-42
60.40840100 3.18446990 459.74100000 -0.98494703 -0.07964260 -0.15341599 1.905766e-42
60.37810100 4.97528980 459.92001000 -0.98260802 -0.10316700 -0.15439400 1.905766e-42
60.42590000 6.77395010 459.97000000 -0.97985202 -0.12800001 -0.15331601 1.905766e-42
60.31129800 8.44423960 459.30899000 -0.97693998 -0.15514500 -0.14669199 1.905766e-42
60.26279800 10.23950000 459.18799000 -0.97229999 -0.18699899 -0.14022601 1.905766e-42
60.16659900 12.03600000 459.13000000 -0.97281498 -0.19465300 -0.12546200 1.905766e-42
59.57450100 12.79540000 457.60901000 -0.97170401 -0.20704301 -0.11368400 1.905766e-42
59.25289900 13.46760000 455.97101000 -0.97000200 -0.22050400 -0.10234500 1.905766e-42
59.26660200 14.11740000 454.29199000 -0.96798700 -0.23397900 -0.09085330 1.905766e-42
59.37540100 14.59090000 452.55899000 -0.96565998 -0.24729200 -0.07967120 1.905766e-42
59.34170200 15.55680000 451.04001000 -0.96418101 -0.25725701 -0.06460040 1.905766e-42
59.32920100 16.59480100 449.57001000 -0.96271598 -0.26607701 -0.04878750 1.905766e-42
59.21820100 16.88719900 447.79700000 -0.96019101 -0.27715999 -0.03486970 1.905766e-42
59.25630200 17.30530000 446.04700000 -0.95775402 -0.28698301 -0.01865370 1.905766e-42
59.20270200 17.14650000 444.25500000 -0.95499599 -0.29660499 -0.00280992 1.905766e-42
59.06269800 17.69420100 442.54599000 -0.95246297 -0.30410701 0.01826280 1.905766e-42
58.80870100 18.19570000 440.83600000 -0.94956797 -0.31080401 0.04147980 1.905766e-42
58.40800100 19.16390000 439.37201000 -0.94666201 -0.31548899 0.06555760 1.905766e-42
58.08879900 19.72720000 437.69299000 -0.94259101 -0.32069799 0.09313790 1.905766e-42
57.76039900 20.06110000 435.95499000 -0.93741900 -0.32536599 0.12402600 1.905766e-42
57.41040000 20.45350100 434.23300000 -0.93121099 -0.32869899 0.15748700 1.905766e-42
56.98450100 21.31740000 432.71301000 -0.92621100 -0.32964301 0.18294400 1.905766e-42
56.56530000 21.55439900 430.97800000 -0.91923702 -0.33145601 0.21246301 1.905766e-42
56.07820100 21.46839900 429.24799000 -0.91131699 -0.33247700 0.24281900 1.905766e-42
55.58210000 22.16440000 427.66299000 -0.90094602 -0.33827701 0.27177900 1.905766e-42
54.80979900 22.32770000 426.04599000 -0.88917899 -0.34259400 0.30329901 1.905766e-42
54.16770200 22.07889900 424.38300000 -0.87731498 -0.34311000 0.33554900 1.905766e-42
53.70230100 22.15090000 422.64499000 -0.86298800 -0.34553900 0.36858499 1.905766e-42
53.08100100 21.98270000 420.96399000 -0.84767097 -0.34580100 0.40233701 1.905766e-42
52.00980000 22.92260000 419.86499000 -0.82762802 -0.36101100 0.42976999 1.905766e-42
50.87609900 24.05240100 419.04099000 -0.80541402 -0.38189101 0.45328599 1.905766e-42
49.75080100 25.32959900 418.45599000 -0.78139001 -0.40781900 0.47234899 1.905766e-42
48.82840000 26.87319900 418.37500000 -0.75918400 -0.43958399 0.48000601 1.905766e-42
48.05320000 28.47820100 418.12399000 -0.74118602 -0.46802801 0.48124200 1.905766e-42
46.70850000 29.56819900 417.63000000 -0.71687299 -0.49496400 0.49102300 1.905766e-42
45.54250000 30.93510100 417.52100000 -0.68962300 -0.52984399 0.49364501 1.905766e-42
44.81300000 32.53620100 417.89999000 -0.66431397 -0.56770498 0.48620701 1.905766e-42
43.49570100 33.73669800 417.64899000 -0.62859601 -0.60279697 0.49142900 1.905766e-42
42.22180200 35.00659900 417.58099000 -0.59107202 -0.63832802 0.49312401 1.905766e-42
40.99729900 36.30130000 417.83499000 -0.55480599 -0.67166698 0.49097201 1.905766e-42
39.62749900 37.40729900 418.20999000 -0.51725602 -0.70209301 0.48939899 1.905766e-42
38.55619800 38.61080200 419.01199000 -0.48484701 -0.73024303 0.48131999 1.905766e-42
37.09289900 39.59500100 419.37299000 -0.44467199 -0.75720602 0.47844100 1.905766e-42
35.67969900 40.63890100 419.76401000 -0.40678000 -0.78170300 0.47272599 1.905766e-42
34.60160100 41.82320000 420.58600000 -0.37814000 -0.80332398 0.46008801 1.905766e-42
33.08250000 42.75999800 420.82001000 -0.34433901 -0.82294101 0.45188299 1.905766e-42
31.37910100 43.34120200 420.80099000 -0.31137699 -0.83898503 0.44626099 1.905766e-42
29.85810100 44.17300000 421.28601000 -0.28006101 -0.85561103 0.43531001 1.905766e-42
28.39740000 44.95790100 421.98599000 -0.25148201 -0.87052298 0.42302099 1.905766e-42
26.98210000 45.70100000 422.81400000 -0.22591500 -0.88344997 0.41046101 1.905766e-42
25.58239900 46.39020200 423.71100000 -0.20344900 -0.89433497 0.39846399 1.905766e-42
24.02790100 46.99729900 424.38599000 -0.18265800 -0.90269101 0.38959500 1.905766e-42
22.29820100 47.32730100 424.75900000 -0.16354100 -0.90800798 0.38571399 1.905766e-42
20.93630000 47.98370000 425.73599000 -0.16061901 -0.91257799 0.37603500 1.905766e-42
19.15910000 48.23700000 425.60400000 -0.18144500 -0.90857899 0.37624800 1.905766e-42
17.62089900 49.07320000 426.02100000 -0.20386900 -0.90449703 0.37459600 1.905766e-42
15.84260000 49.34240000 425.94901000 -0.22604100 -0.89506900 0.38439199 1.905766e-42
14.17680000 50.01890200 426.03400000 -0.24980000 -0.88339198 0.39650899 1.905766e-42
12.39070000 50.23160200 426.10300000 -0.26983801 -0.86825699 0.41631401 1.905766e-42
10.77660000 50.93320100 426.48001000 -0.29553300 -0.85052198 0.43505600 1.905766e-42
9.13986020 51.65900000 426.66501000 -0.31761000 -0.82841700 0.46135700 1.905766e-42
7.50224020 52.35070000 426.38300000 -0.32626700 -0.80277097 0.49910700 1.905766e-42
6.55675980 52.01400000 424.88800000 -0.27951899 -0.79323602 0.54096699 1.905766e-42
5.35679010 51.96070100 423.54800000 -0.21251200 -0.78202099 0.58590299 1.905766e-42
4.27045010 51.28329800 422.28201000 -0.14961100 -0.77355301 0.61581802 1.905766e-42
2.91629000 50.85950100 421.17499000 -0.09363740 -0.76165903 0.64117700 1.905766e-42
1.81671000 49.89410000 420.12701000 -0.04575820 -0.75562102 0.65340900 1.905766e-42
0.18291500 49.66080100 419.40799000 -0.00452192 -0.74352902 0.66868800 1.905766e-42
-1.32723000 48.93669900 418.74799000 0.03346310 -0.73604101 0.67610902 1.905766e-42
-2.73190000 47.97560100 418.16299000 0.06746510 -0.73147601 0.67852098 1.905766e-42
-4.33785010 47.27399800 417.75201000 0.09999780 -0.72424901 0.68224901 1.905766e-42
-6.13189980 47.12780000 417.74399000 0.12919000 -0.71094900 0.69127601 1.905766e-42
-7.85811000 46.61869800 417.77600000 0.16439199 -0.69667798 0.69829500 1.905766e-42
-9.62460990 46.41750000 418.05701000 0.23067901 -0.67294300 0.70280600 1.905766e-42
-11.36490000 46.27679800 418.49500000 0.29343501 -0.64730197 0.70348799 1.905766e-42
-13.06150000 46.05130000 419.05200000 0.35315600 -0.62158000 0.69922799 1.905766e-42
-14.66920000 45.55810200 419.69400000 0.40990499 -0.59713900 0.68949503 1.905766e-42
-16.23910000 45.14839900 420.47299000 0.46050200 -0.57572299 0.67563403 1.905766e-42
-17.74570100 45.26330200 421.45200000 0.50259101 -0.55920303 0.65931302 1.905766e-42
-19.18359900 44.71009800 422.38300000 0.54378903 -0.54686803 0.63657600 1.905766e-42
-20.49570100 44.71670200 423.61499000 0.58053303 -0.53791499 0.61125201 1.905766e-42
-21.67950100 44.71849800 424.97101000 0.61616498 -0.53118497 0.58153498 1.905766e-42
-22.73210000 45.39479800 426.26501000 0.64301503 -0.52312797 0.55934602 1.905766e-42
-23.60780000 45.14180000 427.81699000 0.66386002 -0.51950502 0.53796399 1.905766e-42
-24.53949900 44.56029900 429.24301000 0.68162900 -0.51809198 0.51668400 1.905766e-42
-25.47390000 43.02330000 429.17401000 0.68050200 -0.53869200 0.49671799 1.905766e-42
-25.90910000 41.53810100 428.25500000 0.66482502 -0.56816602 0.48496899 1.905766e-42
-26.92470000 40.05699900 428.13199000 0.66028798 -0.59259200 0.46136200 1.905766e-42
-28.19470000 38.78360000 428.05701000 0.65876400 -0.61343700 0.43557501 1.905766e-42
-29.54470100 37.60120000 428.19501000 0.66118097 -0.62934899 0.40836200 1.905766e-42
-30.65700000 36.31489900 427.60501000 0.65514398 -0.64971697 0.38555700 1.905766e-42
-31.85440100 35.01139800 427.27701000 0.65432501 -0.66487700 0.36027500 1.905766e-42
-33.19829900 33.82000000 427.39700000 0.66172302 -0.67153400 0.33341399 1.905766e-42
-34.43140000 32.54610100 427.08600000 0.66640103 -0.67868900 0.30869201 1.905766e-42
-35.59429900 31.28440100 426.54199000 0.69139999 -0.65244800 0.31028700 1.905766e-42
-36.43610000 29.90730100 425.74500000 0.71636701 -0.61753201 0.32476601 1.905766e-42
-37.54219800 28.49390000 425.60901000 0.73952299 -0.58687699 0.32966799 1.905766e-42
-38.64230000 27.07000000 425.56000000 0.75549299 -0.56383097 0.33365399 1.905766e-42
-39.07830000 25.71299900 424.46100000 0.75910902 -0.54442900 0.35686299 1.905766e-42
-39.75600100 24.18030000 423.80399000 0.76063502 -0.52857798 0.37688300 1.905766e-42
-40.51330200 22.65840000 423.21201000 0.75712001 -0.51707399 0.39925501 1.905766e-42
-40.66540100 21.35120000 421.98401000 0.75688899 -0.48497701 0.43808299 1.905766e-42
-41.31280100 19.77470000 421.40500000 0.76007801 -0.45163399 0.46723399 1.905766e-42
-41.83639900 18.09470000 421.02600000 0.76542598 -0.41316500 0.49337301 1.905766e-42
-43.06440000 16.77920000 421.06000000 0.77073598 -0.37540701 0.51481599 1.905766e-42
-43.15300000 15.00250000 420.78500000 0.77781999 -0.33064499 0.53448200 1.905766e-42
-43.22990000 13.35080000 420.07300000 0.78565198 -0.28532800 0.54894400 1.905766e-42
-43.76150100 11.64030000 419.89600000 0.79398900 -0.24034700 0.55840403 1.905766e-42
-44.45439900 10.00450000 419.60599000 0.80187100 -0.19995201 0.56304801 1.905766e-42
-44.65660100 8.21819970 419.51501000 0.81022501 -0.15843301 0.56430000 1.905766e-42
-44.77240000 6.42745020 419.65500000 0.81865799 -0.11766700 0.56209803 1.905766e-42
-45.55649900 4.89830020 420.19101000 0.82607102 -0.08283630 0.55744499 1.905766e-42
-45.38740200 3.11097000 420.06100000 0.83463597 -0.04402840 0.54903901 1.905766e-42
-45.46189900 1.32236000 420.24899000 0.84324998 -0.00699134 0.53747702 1.905766e-42
-45.54790100 -0.45824099 420.49799000 0.85186201 0.02694680 0.52307302 1.905766e-42
-45.59489800 -2.25006010 420.66299000 0.85968900 0.05804070 0.50750899 1.905766e-42
-45.91289900 -3.91517000 421.26801000 0.86594200 0.08765930 0.49240199 1.905766e-42
-46.17229800 -5.62655020 421.76199000 0.87124699 0.11829500 0.47637701 1.905766e-42
-46.30260100 -7.35064980 422.26300000 0.87535000 0.14910001 0.45992601 1.905766e-42
-45.91260100 -9.10529990 422.35800000 0.87563801 0.17671899 0.44947600 1.905766e-42
-46.09059900 -10.86070000 422.71399000 0.87675703 0.20538899 0.43487000 1.905766e-42
-45.40350000 -12.46990000 423.13599000 0.87763703 0.22097000 0.42535400 1.905766e-42
-44.98280000 -14.21930000 423.18799000 0.87761199 0.22792000 0.42172199 1.905766e-42
-44.22710000 -15.65640000 422.41101000 0.87096000 0.23868200 0.42948800 1.905766e-42
-43.80569800 -17.39049900 422.64600000 0.86632502 0.26006401 0.42643499 1.905766e-42
-43.48099900 -19.10800000 423.07599000 0.86008400 0.28691700 0.42182299 1.905766e-42
-42.87110100 -20.79970000 423.15399000 0.84861100 0.31960699 0.42155799 1.905766e-42
-42.13760000 -21.54070100 421.68701000 0.83491802 0.33582801 0.43604100 1.905766e-42
-41.38900000 -21.65950000 420.05399000 0.82363302 0.33897501 0.45467001 1.905766e-42
-40.26599900 -22.04380000 418.70099000 0.80875802 0.34947199 0.47305301 1.905766e-42
-39.13050100 -22.54550000 417.39801000 0.79189402 0.36168000 0.49202800 1.905766e-42
-38.45439900 -23.95910100 416.51199000 0.77343303 0.38903299 0.50045401 1.905766e-42
-37.15539900 -24.44070100 415.36301000 0.75505298 0.39629000 0.52235001 1.905766e-42
-35.99929800 -24.34380000 413.98700000 0.73544300 0.39818299 0.54824698 1.905766e-42
-34.73590100 -24.94100000 412.85199000 0.71229601 0.40430301 0.57373703 1.905766e-42
-33.66490200 -26.30780000 412.37799000 0.69384998 0.41038901 0.59173697 1.905766e-42
-32.59109900 -27.71900000 412.06900000 0.67823201 0.41800699 0.60437697 1.905766e-42
-31.40309900 -29.01090000 411.67001000 0.65921700 0.42928299 0.61737299 1.905766e-42
-30.05480000 -29.91010100 410.88599000 0.63459700 0.44160700 0.63424802 1.905766e-42
-28.68569900 -30.22860000 409.76199000 0.60898000 0.44994500 0.65321797 1.905766e-42
-27.32510000 -30.55110000 408.62799000 0.58318102 0.45781499 0.67104697 1.905766e-42
-25.75429900 -31.05470100 407.90799000 0.55666602 0.46909899 0.68561602 1.905766e-42
-24.26370000 -31.45710000 406.98300000 0.53042299 0.47772700 0.70030600 1.905766e-42
-22.73020000 -31.91200100 406.15701000 0.50447100 0.48649499 0.71332401 1.905766e-42
-21.33020000 -33.03329800 406.00699000 0.48167700 0.50429499 0.71671098 1.905766e-42
-19.90620000 -34.12720100 405.88300000 0.45977300 0.52135700 0.71888500 1.905766e-42
-18.39660100 -35.10670100 405.83899000 0.43597099 0.53929800 0.72047698 1.905766e-42
-17.18240000 -36.39759800 406.15399000 0.41278800 0.56313300 0.71588200 1.905766e-42
-15.99510000 -37.72869900 406.39600000 0.38691100 0.58793199 0.71037698 1.905766e-42
-14.66010000 -38.93610000 406.39899000 0.35747200 0.61115402 0.70618999 1.905766e-42
-13.21380000 -38.42699800 405.45599000 0.33595699 0.60909098 0.71842903 1.905766e-42
-11.55600000 -38.95040100 404.98901000 0.30496401 0.62237400 0.72086602 1.905766e-42
-9.91856960 -39.69390100 405.06699000 0.27429599 0.64057702 0.71723300 1.905766e-42
-8.35816960 -40.50840000 405.44299000 0.24581601 0.65962601 0.71025902 1.905766e-42
-6.83956000 -41.42689900 405.74301000 0.21650100 0.67769402 0.70275003 1.905766e-42
-5.14857010 -42.02819800 405.88101000 0.17965500 0.69325799 0.69793802 1.905766e-42
-3.37733010 -42.34740100 405.85300000 0.14138500 0.70467800 0.69529802 1.905766e-42
-1.67889000 -42.94060100 405.91101000 0.10273300 0.71809298 0.68832302 1.905766e-42
0.11105200 -43.10720100 406.00299000 0.06382200 0.72745299 0.68318200 1.905766e-42
1.87263000 -43.39160200 406.23901000 0.02513100 0.73794800 0.67439002 1.905766e-42
3.54784990 -43.83499900 406.72601000 -0.01195880 0.75066000 0.66058099 1.905766e-42
5.27688980 -43.42789800 406.43500000 -0.04435360 0.74826503 0.66191602 1.905766e-42
6.87360000 -43.83219900 407.16101000 -0.07753030 0.76077402 0.64436901 1.905766e-42
8.62535950 -43.95340000 407.55701000 -0.11183200 0.76798499 0.63062799 1.905766e-42
10.21310000 -44.49240100 408.21201000 -0.14472900 0.78104198 0.60747600 1.905766e-42
11.92470000 -44.34400200 408.74899000 -0.17731300 0.78790802 0.58971202 1.905766e-42
13.67290000 -44.03070100 409.04099000 -0.20673899 0.79104102 0.57577097 1.905766e-42
15.40110000 -43.83670000 409.50601000 -0.23475900 0.79690301 0.55662799 1.905766e-42
17.07710100 -43.97670000 410.14700000 -0.26096600 0.80705702 0.52967602 1.905766e-42
18.72100100 -43.25090000 410.25101000 -0.27863500 0.80517501 0.52350301 1.905766e-42
20.38390000 -43.19440100 410.93799000 -0.29643500 0.81480402 0.49821800 1.905766e-42
22.07930000 -42.62500000 411.14200000 -0.30413499 0.81386900 0.49509501 1.905766e-42
23.73810000 -42.28020100 411.75000000 -0.31917000 0.81625497 0.48151600 1.905766e-42
25.42790000 -41.79470100 412.13501000 -0.33936599 0.81283301 0.47342700 1.905766e-42
26.98450100 -41.45420100 412.97299000 -0.36325699 0.81285298 0.45531800 1.905766e-42
28.61940000 -41.34009900 413.71701000 -0.38955799 0.81109297 0.43631700 1.905766e-42
30.21940000 -40.77330000 414.31601000 -0.41817501 0.80390102 0.42293301 1.905766e-42
31.80579900 -40.23510000 414.97501000 -0.44611901 0.79695398 0.40723801 1.905766e-42
33.19879900 -39.91980000 416.07001000 -0.46760699 0.79600298 0.38434601 1.905766e-42
34.78020100 -39.44089900 416.78400000 -0.47683099 0.79302299 0.37913999 1.905766e-42
36.24520100 -39.22930100 417.80801000 -0.48520201 0.79406399 0.36611599 1.905766e-42
37.78550000 -38.41050000 418.25201000 -0.49553701 0.78938699 0.36237001 1.905766e-42
38.98500100 -37.25080100 417.57700000 -0.50239301 0.77757102 0.37813199 1.905766e-42
40.55910100 -36.37770100 417.58499000 -0.53356397 0.74955702 0.39175600 1.905766e-42
42.00450100 -35.30559900 417.54700000 -0.57244802 0.71195400 0.40672499 1.905766e-42
43.46250200 -34.86299900 418.50500000 -0.60476100 0.69392800 0.39080399 1.905766e-42
44.67710100 -34.22150000 419.66800000 -0.63672000 0.67605400 0.37086299 1.905766e-42
45.74219900 -33.96509900 421.09698000 -0.66043901 0.66921002 0.34055701 1.905766e-42
46.66669800 -33.61579900 422.60101000 -0.68151999 0.66332698 0.30907500 1.905766e-42
47.44780000 -33.39540100 424.20801000 -0.69254202 0.66322100 0.28376499 1.905766e-42
48.19929900 -33.44319900 425.84299000 -0.69750398 0.66689402 0.26218399 1.905766e-42
48.97850000 -33.06340000 427.42001000 -0.70766401 0.66283101 0.24467500 1.905766e-42
50.05400100 -32.34130100 428.67001000 -0.72337002 0.64999998 0.23288600 1.905766e-42
51.11890000 -31.60980000 429.92300000 -0.73760498 0.63830698 0.22023299 1.905766e-42
52.11510100 -31.27829900 431.38501000 -0.74727303 0.63278699 0.20288900 1.905766e-42
53.00350200 -30.46980100 432.72601000 -0.75887197 0.62335902 0.18851000 1.905766e-42
53.74440000 -29.72489900 434.18701000 -0.77091402 0.61308199 0.17269100 1.905766e-42
54.60419800 -28.87730000 435.52200000 -0.79636800 0.58352602 0.15904500 1.905766e-42
55.48020200 -28.28510100 436.97900000 -0.81824702 0.55698001 0.14228299 1.905766e-42
56.08940100 -27.34129900 438.38599000 -0.84217900 0.52424300 0.12610900 1.905766e-42
56.72460200 -26.57990100 439.88800000 -0.86229801 0.49460900 0.10864800 1.905766e-42
57.54719900 -25.58799900 441.14499000 -0.88435298 0.45739600 0.09331840 1.905766e-42
58.09719800 -24.82280000 442.67801000 -0.89948899 0.43014401 0.07678450 1.905766e-42
58.73730100 -23.71610100 443.94501000 -0.91602898 0.39614400 0.06293680 1.905766e-42
59.16569900 -22.83960000 445.45801000 -0.92737001 0.37094900 0.04880520 1.905766e-42
59.38060000 -22.06940100 447.07101000 -0.93739700 0.34651399 0.03486390 1.905766e-42
59.84289900 -20.96290000 448.41299000 -0.95353502 0.30064499 0.01957450 1.905766e-42
60.05049900 -20.08250000 449.96899000 -0.96441001 0.26438701 0.00356227 1.905766e-42
60.33039900 -19.17939900 451.50101000 -0.97367102 0.22759700 -0.01280340 1.905766e-42
60.52949900 -18.32630000 453.07300000 -0.98062301 0.19424400 -0.02545510 1.905766e-42
60.38290000 -17.18170000 454.45499000 -0.98676997 0.15719400 -0.03968550 1.905766e-42
60.31660100 -16.05820100 455.85999000 -0.99107498 0.12188600 -0.05399290 1.905766e-42
