# .PCD v0.7 - Point Cloud Data file format
# 6 197 1
# 1 35 0
# 36 81 0
# 82 113 1
# 114 129 0
# 130 167 0
# 168 197 0
VERSION 0.7
FIELDS x y z normal_x normal_y normal_z curvature
SIZE 4 4 4 4 4 4 4
TYPE F F F F F F F
COUNT 1 1 1 1 1 1 1
WIDTH 197
HEIGHT 1
VIEWPOINT 0 0 0 1 0 0 0
POINTS 197
DATA ascii
36.04119900 -25.75580000 443.14401000 0.43019599 0.21065199 -0.87781399 1.905766e-42
34.48770100 -24.99210000 442.65100000 0.41603500 0.20996800 -0.88477600 1.905766e-42
32.91859800 -24.25330000 442.16901000 0.39448601 0.21104699 -0.89433700 1.905766e-42
31.34460100 -23.56550000 441.63101000 0.36876100 0.21294600 -0.90480399 1.905766e-42
29.86030000 -22.60300100 441.29901000 0.34619901 0.21958700 -0.91210097 1.905766e-42
28.28860100 -21.85980000 440.83301000 0.32124001 0.22442800 -0.92001998 1.905766e-42
26.56139900 -21.68350000 440.35800000 0.29368299 0.22327800 -0.92946100 1.905766e-42
24.95710000 -20.93219900 440.03900000 0.26950699 0.22992200 -0.93514800 1.905766e-42
23.21579900 -20.84070000 439.59201000 0.24278399 0.22873700 -0.94272798 1.905766e-42
21.45229900 -20.92830100 439.24200000 0.21841399 0.22661200 -0.94918001 1.905766e-42
20.14419900 -19.69319900 439.18500000 0.19970500 0.24159300 -0.94960600 1.905766e-42
18.39580000 -19.33300000 438.95401000 0.17345600 0.24686299 -0.95340002 1.905766e-42
16.69860100 -19.88929900 438.73099000 0.14839301 0.24238600 -0.95876402 1.905766e-42
15.36840000 -18.67660000 438.73801000 0.12544701 0.25874701 -0.95776498 1.905766e-42
13.59260000 -18.42960000 438.57800000 0.09592700 0.26473701 -0.95953798 1.905766e-42
11.31960000 -18.38120100 438.39001000 0.05856670 0.27000701 -0.96107501 1.905766e-42
9.97910980 -17.20980100 438.65601000 0.03984060 0.28683001 -0.95715302 1.905766e-42
8.20018010 -16.93820000 438.69699000 0.01742470 0.29366899 -0.95574802 1.905766e-42
6.51033020 -16.33160000 438.82501000 -0.00502445 0.30396599 -0.95266998 1.905766e-42
4.96653990 -15.44650000 439.09601000 -0.02614900 0.31758699 -0.94786900 1.905766e-42
3.17263010 -15.31890000 439.17099000 -0.04930210 0.32124001 -0.94571400 1.905766e-42
1.39592000 -15.60660000 439.19400000 -0.07182110 0.31920600 -0.94496000 1.905766e-42
-0.37287599 -15.38000000 439.43900000 -0.09572460 0.32289699 -0.94158101 1.905766e-42
-2.15925000 -15.24230000 439.61200000 -0.12437700 0.32370400 -0.93794799 1.905766e-42
-3.92139010 -15.45050000 439.91501000 -0.15334800 0.31980300 -0.93499202 1.905766e-42
-5.54780010 -16.21740000 439.99600000 -0.18120000 0.30875900 -0.93372101 1.905766e-42
-7.00426010 -15.34800000 440.59799000 -0.20334300 0.31805700 -0.92600799 1.905766e-42
-8.64949040 -16.07259900 440.68900000 -0.23052600 0.30335900 -0.92457098 1.905766e-42
-10.15090000 -17.06119900 440.78101000 -0.25627699 0.28292599 -0.92426997 1.905766e-42
-11.83630000 -17.61529900 441.08499000 -0.28429601 0.26732600 -0.92071301 1.905766e-42
-13.55000000 -17.95430000 441.51901000 -0.31113800 0.25851601 -0.91452903 1.905766e-42
-15.24750000 -18.27459900 442.02499000 -0.33601999 0.25286001 -0.90727699 1.905766e-42
-16.63699900 -19.38579900 442.29800000 -0.35399300 0.23088300 -0.90630102 1.905766e-42
-18.29350100 -19.38369900 443.00201000 -0.37689301 0.23776200 -0.89522099 1.905766e-42
-19.82900000 -19.88240100 443.79800000 -0.39775699 0.23655900 -0.88647002 1.905766e-42
-21.36060000 -20.50729900 444.50800000 -0.41716200 0.23448300 -0.87806201 1.905766e-42
-22.09420000 -18.95480000 445.04800000 -0.43396401 0.26931700 -0.85973501 1.905766e-42
-22.28620000 -17.24539900 445.57800000 -0.44202799 0.30196100 -0.84464800 1.905766e-42
-22.78010000 -15.71950000 446.39499000 -0.45157999 0.33093300 -0.82858902 1.905766e-42
-23.06450100 -14.11910000 447.16901000 -0.45514199 0.35846701 -0.81507498 1.905766e-42
-23.53630100 -12.65160000 448.09799000 -0.45875299 0.38485399 -0.80089498 1.905766e-42
-23.79030000 -11.15540000 449.06601000 -0.46236399 0.41543901 -0.78334498 1.905766e-42
-24.36400000 -9.82143970 450.13000000 -0.47014099 0.44282901 -0.76345998 1.905766e-42
-24.69870000 -8.44380000 451.23901000 -0.47630301 0.47051799 -0.74279797 1.905766e-42
-25.24390000 -7.27636000 452.49600000 -0.48524499 0.49503100 -0.72075099 1.905766e-42
-25.53330000 -5.91419980 453.63599000 -0.49068400 0.52030498 -0.69893599 1.905766e-42
-25.58079900 -4.47346020 454.71399000 -0.49468699 0.54995698 -0.67292798 1.905766e-42
-25.71340000 -3.17186000 455.95001000 -0.50141299 0.58056200 -0.64150900 1.905766e-42
-26.18199900 -2.14205000 457.35001000 -0.51283902 0.60747200 -0.60660899 1.905766e-42
-26.51580000 -1.00804000 458.70801000 -0.52310997 0.63323897 -0.57040697 1.905766e-42
-26.56909900 0.18164000 460.05701000 -0.53116697 0.65695500 -0.53504401 1.905766e-42
-26.33499900 1.39263000 461.36801000 -0.53662401 0.67762202 -0.50285399 1.905766e-42
-26.65049900 2.25246000 462.91800000 -0.54891300 0.69454598 -0.46507999 1.905766e-42
-26.57670000 3.21921990 464.43500000 -0.55433500 0.71359599 -0.42836100 1.905766e-42
-26.59980000 3.90762000 466.09799000 -0.55930698 0.73217899 -0.38870201 1.905766e-42
-26.18569900 4.76123000 467.62701000 -0.55694002 0.75324100 -0.34992301 1.905766e-42
-25.70999900 5.89834020 468.93900000 -0.55029100 0.77473801 -0.31138399 1.905766e-42
-25.33050000 6.91395000 470.37601000 -0.54356301 0.79498798 -0.26931900 1.905766e-42
-25.22909900 7.49713990 472.07599000 -0.54013401 0.80230999 -0.25407499 1.905766e-42
-24.60660000 8.37924960 473.51599000 -0.53086901 0.81114203 -0.24541099 1.905766e-42
-24.60910000 8.83944030 475.25601000 -0.52525401 0.81776601 -0.23530200 1.905766e-42
-24.31699900 9.44143010 476.92700000 -0.51535600 0.82753801 -0.22268800 1.905766e-42
-23.78890000 10.19830000 478.47299000 -0.50208098 0.83973402 -0.20678900 1.905766e-42
-23.80480000 10.49010000 480.24899000 -0.49058899 0.84993798 -0.19216700 1.905766e-42
-23.67540000 10.96170000 481.98099000 -0.47707099 0.85527599 -0.20225100 1.905766e-42
-23.39740000 11.24020000 483.73700000 -0.46364301 0.85896498 -0.21728700 1.905766e-42
-23.01269900 11.92620000 485.35599000 -0.44830200 0.86350501 -0.23105000 1.905766e-42
-22.66320000 12.83950000 486.86801000 -0.43145001 0.86840498 -0.24438600 1.905766e-42
-22.51610000 13.60600000 488.48999000 -0.41332200 0.87239802 -0.26093599 1.905766e-42
-21.62229900 14.30720000 489.88599000 -0.38908800 0.88156098 -0.26732099 1.905766e-42
-20.44220000 14.82160000 491.14401000 -0.35939699 0.89559698 -0.26218200 1.905766e-42
-18.94230100 15.71960000 491.57300000 -0.33801901 0.90904599 -0.24367800 1.905766e-42
-17.41169900 16.59890000 491.92499000 -0.31972700 0.92056000 -0.22437599 1.905766e-42
-16.21139900 17.15060000 493.14801000 -0.29416701 0.93166101 -0.21324700 1.905766e-42
-14.82460000 17.86800000 494.04401000 -0.26981601 0.94273400 -0.19609000 1.905766e-42
-13.51760000 18.46290000 495.12900000 -0.24306200 0.95342898 -0.17858800 1.905766e-42
-12.47130000 18.89480000 496.52802000 -0.21304300 0.96341401 -0.16262101 1.905766e-42
-11.50340000 19.19430000 498.01599000 -0.18093200 0.97278899 -0.14472400 1.905766e-42
-10.30950000 19.72909900 499.25299000 -0.17220099 0.97707599 -0.12518100 1.905766e-42
-9.58753010 19.88460000 500.89401000 -0.15917701 0.98109102 -0.11010100 1.905766e-42
-8.81812950 20.08190000 502.50900000 -0.14501099 0.98525703 -0.09077560 1.905766e-42
-7.06962010 20.49090000 502.38501000 -0.16431101 0.98426199 -0.06503880 1.905766e-42
-5.76823000 20.41970100 501.14401000 -0.19453600 0.97931498 -0.05565190 1.905766e-42
-4.01963000 20.70550000 500.82599000 -0.21560900 0.97592199 -0.03301580 1.905766e-42
-4.42663000 21.03860100 499.10501000 -0.23469999 0.97076201 -0.05037300 1.905766e-42
-5.20796010 20.85010000 497.49399000 -0.24534900 0.96698499 -0.06887110 1.905766e-42
-6.11670020 20.33659900 496.02802000 -0.25088799 0.96431798 -0.08453990 1.905766e-42
-6.65974000 20.11310000 494.32599000 -0.26132599 0.96082699 -0.09230720 1.905766e-42
-6.97906020 19.95739900 492.56201000 -0.27330700 0.95731097 -0.09412110 1.905766e-42
-7.08435010 19.70620000 490.78201000 -0.28598601 0.95393598 -0.09065110 1.905766e-42
-6.40569020 19.98060000 489.13800000 -0.30009100 0.94958299 -0.09076240 1.905766e-42
-5.27034000 20.79700100 488.00500000 -0.30899501 0.94649702 -0.09308640 1.905766e-42
-3.99840000 20.85470000 486.73199000 -0.31365800 0.94413501 -0.10113000 1.905766e-42
-2.52669000 21.15020000 485.73901000 -0.31393799 0.94297498 -0.11063900 1.905766e-42
-1.18226000 21.15379900 484.54199000 -0.30901301 0.94265300 -0.12616199 1.905766e-42
0.29509100 21.35510100 483.53400000 -0.29961500 0.94296998 -0.14504600 1.905766e-42
1.86939000 21.77339900 482.76801000 -0.28681201 0.94324797 -0.16739701 1.905766e-42
3.23149990 21.64200000 481.59799000 -0.26498699 0.94396502 -0.19675300 1.905766e-42
4.86745980 22.07620000 480.98599000 -0.22585700 0.94793099 -0.22453199 1.905766e-42
6.48762990 22.18569900 480.20901000 -0.17994100 0.95015502 -0.25461099 1.905766e-42
8.20973010 22.67380000 480.01901000 -0.13819200 0.95144397 -0.27505699 1.905766e-42
9.79714970 22.63220000 479.17200000 -0.09404570 0.94751000 -0.30558100 1.905766e-42
11.45940000 22.39220000 478.52399000 -0.05367340 0.94482601 -0.32314500 1.905766e-42
13.25520000 22.39609900 478.40100000 -0.01669680 0.94270700 -0.33320400 1.905766e-42
15.04980000 22.39259900 478.26199000 0.01840470 0.94010299 -0.34039399 1.905766e-42
16.74500100 22.02730000 477.77899000 0.05276740 0.93581998 -0.34850600 1.905766e-42
18.53360000 21.93670100 477.59900000 0.08944470 0.93166399 -0.35213900 1.905766e-42
19.86210100 21.01140000 476.81201000 0.11863000 0.92409903 -0.36327401 1.905766e-42
21.65880000 20.90580000 476.78500000 0.15388000 0.91857100 -0.36407200 1.905766e-42
23.17650000 21.44300100 477.59000000 0.18192300 0.91830200 -0.35160401 1.905766e-42
24.88369900 20.87260100 477.57401000 0.21540099 0.91135800 -0.35075399 1.905766e-42
26.31460000 21.09260000 478.64401000 0.24365699 0.91149002 -0.33138600 1.905766e-42
27.50760100 21.33140000 479.97000000 0.26985699 0.91292298 -0.30618399 1.905766e-42
28.39520100 21.54520000 481.52200000 0.29167700 0.91518199 -0.27814800 1.905766e-42
28.81620000 21.76520000 483.25800000 0.30507800 0.91927898 -0.24870400 1.905766e-42
28.72170100 22.14679900 485.01401000 0.30568099 0.92828298 -0.21177600 1.905766e-42
28.26429900 22.74640100 486.64899000 0.29699099 0.93840802 -0.17659800 1.905766e-42
27.62980100 23.16920100 488.27899000 0.28425500 0.94828802 -0.14124300 1.905766e-42
26.59720000 23.51210000 489.71301000 0.26448300 0.95832199 -0.10801900 1.905766e-42
25.51149900 23.82230000 491.11499000 0.24260300 0.96733898 -0.07348270 1.905766e-42
24.32600000 24.10250100 492.44000000 0.21212800 0.97643697 -0.03966000 1.905766e-42
22.77170000 24.54800000 493.23099000 0.16763499 0.98569202 -0.01757440 1.905766e-42
21.35339900 24.78380000 494.31400000 0.12663800 0.99193102 0.00602626 1.905766e-42
19.92550100 24.85560000 495.40799000 0.08568570 0.99590099 0.02897490 1.905766e-42
18.58630000 24.82790000 496.60999000 0.04743680 0.99753100 0.05178520 1.905766e-42
16.90140000 25.00510000 497.21799000 0.00615901 0.99771798 0.06723430 1.905766e-42
15.14980000 25.27610000 497.53201000 -0.03177410 0.99647200 0.07767990 1.905766e-42
13.81120000 24.88040000 498.66901000 -0.06159550 0.99347901 0.09594220 1.905766e-42
12.08700000 24.78310000 499.17599000 -0.09306250 0.99003500 0.10569000 1.905766e-42
11.24190000 24.14040000 500.63000000 -0.10950200 0.98632598 0.12317100 1.905766e-42
12.94930000 24.05170100 501.19199000 -0.08492840 0.98852497 0.12492500 1.905766e-42
14.72060000 24.21159900 501.47000000 -0.05663000 0.99110699 0.12041400 1.905766e-42
16.51059900 24.37680100 501.56299000 -0.02495800 0.99346697 0.11135600 1.905766e-42
18.20540000 24.21480000 502.14700000 0.00341022 0.99465001 0.10324400 1.905766e-42
19.99280000 24.10890000 502.33099000 0.03890000 0.99532199 0.08843760 1.905766e-42
21.77560000 24.05800100 502.57401000 0.07654980 0.99456000 0.07064520 1.905766e-42
23.53319900 23.91560000 502.93600000 0.10920400 0.99280298 0.04916560 1.905766e-42
25.30940100 23.68639900 503.11600000 0.13957299 0.98988903 0.02527770 1.905766e-42
26.96859900 23.45890000 502.45599000 0.17975000 0.98369998 0.00499333 1.905766e-42
28.51330000 23.08580000 501.61099000 0.22016200 0.97539598 -0.01151170 1.905766e-42
29.98550000 22.62500000 500.68301000 0.25931200 0.96548098 -0.02458570 1.905766e-42
31.30610100 22.38760000 499.48300000 0.29439101 0.95513397 -0.03245300 1.905766e-42
32.90980100 21.62170000 499.19800000 0.32962400 0.94314700 -0.04267920 1.905766e-42
34.31320200 21.16010100 498.16901000 0.36116600 0.93140298 -0.04524430 1.905766e-42
35.62049900 20.61340000 497.05899000 0.39260501 0.91873598 -0.04224990 1.905766e-42
37.02130100 19.96050100 496.13699000 0.42878699 0.90191698 -0.05184520 1.905766e-42
38.56169900 19.03730000 496.01501000 0.47062400 0.88028097 -0.06015690 1.905766e-42
40.02850000 18.16589900 495.44101000 0.51092303 0.85664201 -0.07156970 1.905766e-42
41.48199800 17.12590000 495.22699000 0.55082703 0.83113402 -0.07619530 1.905766e-42
42.84759900 16.25939900 494.43701000 0.58419198 0.80730700 -0.08351550 1.905766e-42
44.16320000 15.23910000 493.75299000 0.61468601 0.78400099 -0.08662300 1.905766e-42
45.33890200 14.26710000 492.79800000 0.63747603 0.76516700 -0.09024420 1.905766e-42
46.61370100 13.16080000 492.17200000 0.65740597 0.74823999 -0.08919050 1.905766e-42
47.70600100 12.05910000 491.25900000 0.66227299 0.74167901 -0.10633100 1.905766e-42
48.84240000 10.86420000 490.53799000 0.67032099 0.73154700 -0.12453200 1.905766e-42
50.14110200 9.62475010 490.40701000 0.67907399 0.72120798 -0.13681400 1.905766e-42
51.19020100 8.51200960 489.45801000 0.69103801 0.70652199 -0.15261900 1.905766e-42
52.38299900 7.25625990 488.96701000 0.70391601 0.69100302 -0.16437000 1.905766e-42
53.57059900 5.92027000 488.75601000 0.71779400 0.67427599 -0.17356300 1.905766e-42
54.44319900 4.66248990 487.80899000 0.73211098 0.65594798 -0.18370099 1.905766e-42
55.37149800 3.18129990 487.38000000 0.74933302 0.63229001 -0.19674800 1.905766e-42
56.28360000 1.94175990 486.44601000 0.76700401 0.60448903 -0.21516900 1.905766e-42
57.17599900 0.37922701 486.39999000 0.78498000 0.57688099 -0.22586501 1.905766e-42
58.11119800 -0.94998997 485.62701000 0.80211699 0.54732102 -0.23884800 1.905766e-42
58.93980000 -2.54548000 485.53799000 0.81938398 0.51739901 -0.24679600 1.905766e-42
59.51960000 -3.64365010 484.23499000 0.83152598 0.49236301 -0.25718400 1.905766e-42
60.16059900 -5.08726980 483.37201000 0.84535199 0.46404001 -0.26466399 1.905766e-42
60.69189800 -6.49823000 482.38800000 0.86065203 0.41024700 -0.30162200 1.905766e-42
60.57949800 -7.66493990 481.02200000 0.86954701 0.34677899 -0.35161400 1.905766e-42
59.89839900 -7.46691990 479.36801000 0.86339003 0.33003601 -0.38161999 1.905766e-42
59.10670100 -7.66544010 477.76401000 0.85812598 0.30109301 -0.41588899 1.905766e-42
58.39609900 -7.99090000 476.14200000 0.85251302 0.26712501 -0.44929400 1.905766e-42
57.68339900 -7.61430980 474.53299000 0.84196198 0.26561099 -0.46962801 1.905766e-42
56.40440000 -8.20172980 473.41101000 0.83671600 0.23375800 -0.49524000 1.905766e-42
55.37120100 -9.12141990 472.25900000 0.84054101 0.21489801 -0.49730301 1.905766e-42
54.41410100 -9.84636020 470.91800000 0.84788299 0.24182700 -0.47181901 1.905766e-42
53.77660000 -10.74550000 469.49500000 0.85473901 0.26411399 -0.44683999 1.905766e-42
53.42649800 -12.00420000 468.25699000 0.86347902 0.27793401 -0.42089900 1.905766e-42
53.25400200 -11.49990000 466.53699000 0.84893298 0.31124499 -0.42712900 1.905766e-42
52.87960100 -11.66190000 464.78400000 0.83377397 0.34132800 -0.43395299 1.905766e-42
52.66750000 -12.31530000 463.12000000 0.81801999 0.36483899 -0.44467500 1.905766e-42
52.10459900 -12.86160000 461.50000000 0.78578699 0.38108200 -0.48715001 1.905766e-42
51.58440000 -13.69880000 459.99399000 0.76298201 0.36959600 -0.53033698 1.905766e-42
50.83470200 -14.31780000 458.47900000 0.73605698 0.36024800 -0.57309902 1.905766e-42
49.72430000 -14.78540000 457.14200000 0.70614201 0.35388601 -0.61329299 1.905766e-42
48.58789800 -14.88720000 455.75000000 0.67387700 0.35193500 -0.64964002 1.905766e-42
47.86750000 -15.90850000 454.45401000 0.65321302 0.33142999 -0.68078399 1.905766e-42
46.68800000 -16.49210000 453.22601000 0.62542802 0.31905299 -0.71207100 1.905766e-42
45.74789800 -17.43639900 452.01599000 0.60248101 0.29772899 -0.74052298 1.905766e-42
44.81140100 -18.51059900 450.91599000 0.58175200 0.28813300 -0.76062101 1.905766e-42
43.83440000 -19.56990100 449.83801000 0.56052399 0.27994701 -0.77938598 1.905766e-42
42.91939900 -20.75320100 448.83701000 0.54303199 0.27051201 -0.79494703 1.905766e-42
41.75809900 -21.54940000 447.71500000 0.52375001 0.26276401 -0.81033403 1.905766e-42
40.94200100 -22.87940000 446.81799000 0.50847697 0.25161099 -0.82349402 1.905766e-42
40.11349900 -24.18899900 445.90201000 0.49178299 0.24020199 -0.83692998 1.905766e-42
38.93780100 -25.15270000 444.93799000 0.47105700 0.22912601 -0.85182500 1.905766e-42
37.60469800 -25.93689900 444.01801000 0.44953200 0.21749900 -0.86637998 1.905766e-42
