# .PCD v0.7 - Point Cloud Data file format
# 2 33 0
# 1 20 0
# 21 33 0
VERSION 0.7
FIELDS x y z normal_x normal_y normal_z curvature
SIZE 4 4 4 4 4 4 4
TYPE F F F F F F F
COUNT 1 1 1 1 1 1 1
WIDTH 33
HEIGHT 1
VIEWPOINT 0 0 0 1 0 0 0
POINTS 33
DATA ascii
36.11200000 9.79527000 463.26801000 0.42169601 -0.38863701 0.81922799 1.905766e-42
35.39149900 10.95800000 464.43799000 0.45781401 -0.39729100 0.79534000 1.905766e-42
34.84429900 12.40880000 465.35199000 0.50685900 -0.32023099 0.80034202 1.905766e-42
33.83610200 13.35320000 466.50601000 0.54512399 -0.32688800 0.77200001 1.905766e-42
33.11899900 14.64130000 467.53799000 0.58338100 -0.27513799 0.76417702 1.905766e-42
32.25019800 15.76730000 468.64200000 0.62164301 -0.25272301 0.74141097 1.905766e-42
31.25779900 16.68840000 469.82800000 0.66096503 -0.26454499 0.70223999 1.905766e-42
30.22330100 17.36140100 471.13800000 0.68493199 -0.28795800 0.66928899 1.905766e-42
27.17000000 18.38859900 474.31201000 0.54996598 -0.41783899 0.72315103 1.905766e-42
26.47930000 16.81209900 473.78500000 0.35306501 -0.63911098 0.68328798 1.905766e-42
25.30209900 15.81340000 472.85901000 0.12415700 -0.78541499 0.60639000 1.905766e-42
24.36800000 14.82520000 471.67999000 0.02746030 -0.84318203 0.53692597 1.905766e-42
22.71299900 14.46330000 471.07199000 -0.04884940 -0.88116598 0.47027600 1.905766e-42
22.48650000 13.83300000 469.40100000 -0.10646200 -0.88225400 0.45857701 1.905766e-42
21.79210100 13.02750000 467.94901000 -0.16167399 -0.87388802 0.45845601 1.905766e-42
20.13540100 12.81400000 467.27802000 -0.15182699 -0.88818598 0.43367600 1.905766e-42
18.50260000 12.79900000 466.52100000 -0.19845600 -0.89743799 0.39398000 1.905766e-42
16.76320100 13.24670000 466.40201000 -0.33989400 -0.88679701 0.31315100 1.905766e-42
15.35910000 13.56240000 465.32101000 -0.43582299 -0.88398498 0.16920100 1.905766e-42
15.19020000 13.52540000 463.52899000 -0.54424900 -0.83740699 0.05042020 1.905766e-42
15.85280000 13.00150000 461.93900000 -0.60169500 -0.79830003 0.02608560 1.905766e-42
17.06590100 11.93920000 461.14001000 -0.60447901 -0.79180098 0.08750300 1.905766e-42
18.18219900 10.98040000 460.10300000 -0.57049298 -0.81422502 0.10758600 1.905766e-42
19.76310000 10.23020000 460.52499000 -0.40389201 -0.89640498 0.18256100 1.905766e-42
21.46960100 9.66864970 460.63699000 -0.28183499 -0.93602699 0.21076700 1.905766e-42
23.19160100 9.15532970 460.74399000 -0.24734201 -0.94471800 0.21524100 1.905766e-42
24.84090000 8.73639970 461.33099000 -0.25683501 -0.91910398 0.29880300 1.905766e-42
26.31489900 8.78925040 462.36200000 -0.21507400 -0.86777103 0.44801399 1.905766e-42
27.93600100 8.23657040 461.80899000 -0.21718501 -0.88657099 0.40843800 1.905766e-42
29.65770000 7.92066000 462.22800000 -0.22936800 -0.83711302 0.49662000 1.905766e-42
31.35409900 7.97664020 462.82700000 -0.17750500 -0.77225602 0.61001003 1.905766e-42
33.12889900 7.94632010 463.12601000 -0.02391140 -0.70068699 0.71306801 1.905766e-42
34.77750000 8.59906960 463.43600000 0.26634899 -0.53794599 0.79979497 1.905766e-42
