# .PCD v0.7 - Point Cloud Data file format
# 4 121 0
# 1 33 0
# 34 67 0
# 68 91 0
# 92 121 0
VERSION 0.7
FIELDS x y z normal_x normal_y normal_z curvature
SIZE 4 4 4 4 4 4 4
TYPE F F F F F F F
COUNT 1 1 1 1 1 1 1
WIDTH 121
HEIGHT 1
VIEWPOINT 0 0 0 1 0 0 0
POINTS 121
DATA ascii
21.39870100 -7.21187020 375.94299000 0.24478900 0.89810097 -0.36536700 1.905766e-42
20.61370100 -6.53652000 376.82001000 0.25638700 0.89259601 -0.37086201 1.905766e-42
18.86350100 -6.20073990 377.07300000 0.27977800 0.88481897 -0.37258500 1.905766e-42
17.63100100 -5.15536020 377.86600000 0.29982600 0.87709999 -0.37523299 1.905766e-42
16.13439900 -4.39087010 378.51099000 0.31658801 0.87146902 -0.37458599 1.905766e-42
14.47440000 -3.77250000 378.82999000 0.33207500 0.86775702 -0.36976099 1.905766e-42
13.10040000 -2.77025010 379.42001000 0.34430900 0.86663997 -0.36109000 1.905766e-42
11.60830000 -1.91514000 379.95099000 0.35887599 0.86297297 -0.35564700 1.905766e-42
9.96220020 -1.18773000 379.98700000 0.38041401 0.85451001 -0.35369101 1.905766e-42
8.29773040 -0.50343502 379.95099000 0.40323001 0.84570903 -0.34954500 1.905766e-42
6.64544010 0.20804600 379.89001000 0.41861799 0.83921599 -0.34709600 1.905766e-42
5.06684020 1.06674000 379.99301000 0.42534399 0.83533502 -0.34828001 1.905766e-42
3.44387010 1.84517000 379.98801000 0.43330100 0.83170801 -0.34714800 1.905766e-42
1.87021990 2.71898010 379.99701000 0.44297299 0.82732701 -0.34540701 1.905766e-42
0.26392999 3.52526000 380.09601000 0.45501801 0.82158500 -0.34344700 1.905766e-42
-0.93587703 4.66200020 380.80899000 0.46797001 0.81558198 -0.34033799 1.905766e-42
-2.46506000 5.61061000 380.85101000 0.48204899 0.80697602 -0.34120199 1.905766e-42
-3.68349000 6.65570020 381.66501000 0.48737401 0.79712600 -0.35645100 1.905766e-42
-5.10161020 7.68374010 382.07999000 0.48766300 0.79174501 -0.36786500 1.905766e-42
-5.90960980 8.76589010 383.26999000 0.49016300 0.78623003 -0.37627599 1.905766e-42
-7.01329990 9.89260960 384.13699000 0.49039501 0.78309298 -0.38246399 1.905766e-42
-8.21800040 11.04210000 384.82101000 0.49182701 0.78067899 -0.38554800 1.905766e-42
-9.49141980 12.12540000 385.48801000 0.50211102 0.76097000 -0.41086400 1.905766e-42
-10.12030000 13.35610000 386.64099000 0.51168001 0.73718500 -0.44129601 1.905766e-42
-11.19600000 14.55470000 387.44501000 0.52168399 0.71609402 -0.46374100 1.905766e-42
-12.07280000 15.78860000 388.41901000 0.52859998 0.69599903 -0.48596999 1.905766e-42
-12.89310000 17.05090000 389.40601000 0.53172499 0.67976701 -0.50515902 1.905766e-42
-13.36560000 18.35590000 390.55200000 0.53029001 0.67053998 -0.51881498 1.905766e-42
-14.14100000 19.68140000 391.49100000 0.53201300 0.66015500 -0.53024203 1.905766e-42
-14.34850000 20.90029900 392.79901000 0.53099197 0.64765000 -0.54644001 1.905766e-42
-14.78840000 22.23250000 393.92700000 0.53270102 0.63353401 -0.56112802 1.905766e-42
-14.69840000 23.43960000 395.25900000 0.53118998 0.62976003 -0.56677997 1.905766e-42
-15.10720000 24.53459900 396.62799000 0.52968901 0.63329500 -0.56423998 1.905766e-42
-14.73060000 25.72650000 397.92300000 0.52557498 0.63746798 -0.56338698 1.905766e-42
-14.17310000 26.63170100 399.37601000 0.52003503 0.64156902 -0.56387198 1.905766e-42
-13.36480000 27.35390100 400.81299000 0.51327097 0.64356899 -0.56777799 1.905766e-42
-12.19740000 27.63369900 402.15399000 0.50562799 0.63847899 -0.58024502 1.905766e-42
-11.01530000 27.82430100 403.49799000 0.49656001 0.63193601 -0.59504998 1.905766e-42
-9.52672000 27.44160100 404.43500000 0.48742300 0.62732399 -0.60735798 1.905766e-42
-7.96886010 27.15880000 405.29099000 0.47637200 0.62250000 -0.62093800 1.905766e-42
-6.53165010 27.01289900 406.36499000 0.46168399 0.61611301 -0.63816297 1.905766e-42
-4.98341990 26.67770000 407.22000000 0.44546300 0.61196500 -0.65350002 1.905766e-42
-3.39378000 26.79730000 408.05499000 0.42906600 0.60590398 -0.66991198 1.905766e-42
-2.08761000 27.19160100 409.23001000 0.41347399 0.59692299 -0.68754798 1.905766e-42
-0.74612200 27.63310100 410.34601000 0.39897600 0.58795899 -0.70365000 1.905766e-42
0.71771598 27.88680100 411.36200000 0.38530701 0.58087802 -0.71702099 1.905766e-42
2.21252990 28.13640000 412.33301000 0.37169200 0.57474101 -0.72905302 1.905766e-42
3.45700000 28.79900000 413.45200000 0.35713801 0.57134098 -0.73893201 1.905766e-42
4.87293000 29.24160000 414.47101000 0.33963501 0.57593602 -0.74360299 1.905766e-42
6.50931980 29.12360000 415.21201000 0.32373399 0.57231599 -0.75342602 1.905766e-42
7.93420980 29.58309900 416.21100000 0.30573601 0.57228798 -0.76092798 1.905766e-42
9.61981010 29.60840000 416.84201000 0.28974399 0.56671798 -0.77128398 1.905766e-42
10.99240000 30.36020100 417.73199000 0.27138099 0.56539297 -0.77889901 1.905766e-42
12.62220000 30.67050000 418.42999000 0.25464201 0.55978799 -0.78854001 1.905766e-42
14.24040000 30.92799900 419.17499000 0.23834001 0.55283099 -0.79848099 1.905766e-42
15.80720000 31.19689900 420.01901000 0.22190800 0.54431599 -0.80899698 1.905766e-42
17.57169900 31.19800000 420.37500000 0.20881900 0.53286999 -0.82002699 1.905766e-42
19.25910000 31.39730100 420.96899000 0.19373700 0.51937199 -0.83229703 1.905766e-42
20.83740000 31.96680100 421.62100000 0.15689300 0.50285900 -0.85000998 1.905766e-42
22.61510100 32.09899900 421.87000000 0.12054300 0.48323700 -0.86715102 1.905766e-42
24.23150100 32.79579900 422.24701000 0.07781150 0.45584199 -0.88665301 1.905766e-42
25.99810000 32.84460100 422.58801000 0.04004670 0.42715999 -0.90328902 1.905766e-42
27.76969900 33.04800000 422.83401000 0.00108488 0.39315599 -0.91947103 1.905766e-42
29.34440000 33.84640100 423.18399000 -0.04552430 0.34754601 -0.93655699 1.905766e-42
31.08099900 34.31950000 423.16199000 -0.08340590 0.30442300 -0.94887799 1.905766e-42
32.84429900 34.60400000 422.93900000 -0.11803600 0.26830399 -0.95607603 1.905766e-42
34.55429800 35.15399900 422.82300000 -0.15657000 0.23078001 -0.96032602 1.905766e-42
36.32899900 35.13410200 422.52301000 -0.19019000 0.21173801 -0.95864201 1.905766e-42
37.89720200 34.37429800 422.07199000 -0.21714300 0.21461500 -0.95225501 1.905766e-42
39.21950100 33.28039900 421.52899000 -0.22237900 0.22852200 -0.94779998 1.905766e-42
40.70949900 32.38790100 421.05600000 -0.22280100 0.23676300 -0.94567603 1.905766e-42
41.73590100 31.08770000 420.35199000 -0.21969900 0.25606999 -0.94136101 1.905766e-42
43.35530100 30.49740000 419.83301000 -0.23177300 0.25471699 -0.93882900 1.905766e-42
44.75669900 29.48630000 419.32901000 -0.24222700 0.26251900 -0.93402898 1.905766e-42
46.06179800 28.44050000 418.66400000 -0.25640601 0.28291500 -0.92423803 1.905766e-42
47.41910200 27.48959900 417.96100000 -0.27636600 0.30550200 -0.91120303 1.905766e-42
48.48130000 26.33770000 417.07501000 -0.28816700 0.33271301 -0.89792103 1.905766e-42
49.75540200 25.30439900 416.33401000 -0.27810600 0.35444799 -0.89276201 1.905766e-42
50.97750100 24.23570100 415.55701000 -0.25812599 0.37458000 -0.89053899 1.905766e-42
52.18870200 23.16190000 414.76999000 -0.24288300 0.39531800 -0.88585103 1.905766e-42
53.09320100 21.93919900 413.80701000 -0.23574500 0.42933401 -0.87183499 1.905766e-42
54.20850000 20.80480000 412.96500000 -0.23443700 0.45882800 -0.85703897 1.905766e-42
55.31720000 19.66670000 412.11899000 -0.23601900 0.48714399 -0.84082502 1.905766e-42
56.07289900 18.44190000 411.03799000 -0.23681299 0.51757300 -0.82221502 1.905766e-42
56.98389800 17.25210000 410.04099000 -0.23758000 0.53850698 -0.80843401 1.905766e-42
58.12229900 16.18689900 409.14099000 -0.24368200 0.55704099 -0.79392999 1.905766e-42
59.21670200 15.07440000 408.24399000 -0.25626099 0.57832003 -0.77451700 1.905766e-42
59.95869800 14.01490000 406.99200000 -0.27657199 0.60239702 -0.74874997 1.905766e-42
60.56290100 12.81920000 405.79001000 -0.30612400 0.62577999 -0.71741802 1.905766e-42
61.42839800 11.66480000 404.71399000 -0.33592701 0.62683803 -0.70301300 1.905766e-42
61.51779900 10.46670000 403.37299000 -0.34530401 0.62322599 -0.70167899 1.905766e-42
62.01950100 9.37393000 402.03400000 -0.34625500 0.61786902 -0.70593500 1.905766e-42
61.48849900 8.32423020 400.67099000 -0.31770799 0.62801301 -0.71039498 1.905766e-42
60.68940000 6.91242980 399.89200000 -0.27455100 0.65955800 -0.69971800 1.905766e-42
59.65760000 5.58350990 399.25201000 -0.23248801 0.69668198 -0.67866302 1.905766e-42
59.01950100 4.22839020 398.25299000 -0.19371100 0.72457999 -0.66140801 1.905766e-42
57.51829900 3.51290990 397.56500000 -0.16407900 0.75156200 -0.63893098 1.905766e-42
56.43830100 2.52522990 396.51700000 -0.13657500 0.77179801 -0.62102801 1.905766e-42
55.25310100 1.59418000 395.53299000 -0.11569500 0.78767902 -0.60512501 1.905766e-42
54.11500200 0.61225402 394.54300000 -0.10067500 0.79855001 -0.59344900 1.905766e-42
52.76950100 -0.24172400 393.70599000 -0.09089310 0.80562001 -0.58541799 1.905766e-42
51.53130000 -1.14729000 392.76401000 -0.07887970 0.81265301 -0.57738501 1.905766e-42
49.78900100 -1.30937000 392.34201000 -0.06723260 0.81837398 -0.57073998 1.905766e-42
48.66759900 -2.21090010 391.26001000 -0.05646330 0.82722402 -0.55902803 1.905766e-42
47.44710200 -3.01644990 390.21100000 -0.04598620 0.83666003 -0.54578900 1.905766e-42
45.93719900 -3.59114000 389.41699000 -0.03645420 0.84524101 -0.53314000 1.905766e-42
44.49610100 -4.19360020 388.52301000 -0.02789980 0.85431999 -0.51899803 1.905766e-42
43.33050200 -4.92325020 387.36099000 -0.00948485 0.86296302 -0.50517797 1.905766e-42
41.69210100 -5.27079010 386.70200000 0.01865170 0.86782801 -0.49651399 1.905766e-42
40.53379800 -5.96212010 385.51001000 0.04516410 0.87052298 -0.49005100 1.905766e-42
38.83919900 -6.15623000 384.93500000 0.07071590 0.87613201 -0.47685701 1.905766e-42
37.39680100 -6.56076000 383.93701000 0.09589840 0.88031501 -0.46459499 1.905766e-42
35.97140100 -6.96850010 382.91599000 0.11950000 0.88404602 -0.45186499 1.905766e-42
34.36040100 -7.04309990 382.11700000 0.13527900 0.88775498 -0.43999001 1.905766e-42
32.72980100 -7.14272020 381.36099000 0.14830400 0.89106101 -0.42897099 1.905766e-42
31.10820000 -7.22309020 380.58401000 0.16030000 0.89399898 -0.41841400 1.905766e-42
29.56360100 -7.33700990 379.66699000 0.17150500 0.89685303 -0.40772599 1.905766e-42
27.97940100 -7.44789980 378.81900000 0.18163700 0.89956498 -0.39722899 1.905766e-42
26.37240000 -7.48810010 378.00900000 0.19278300 0.90189999 -0.38653901 1.905766e-42
24.74449900 -7.45277020 377.24200000 0.20986301 0.90258700 -0.37589100 1.905766e-42
23.09219900 -7.36435990 376.53400000 0.22693001 0.90153599 -0.36842301 1.905766e-42
