# .PCD v0.7 - Point Cloud Data file format
# 3 45 0
# 1 13 0
# 14 30 0
# 31 45 0
VERSION 0.7
FIELDS x y z normal_x normal_y normal_z curvature
SIZE 4 4 4 4 4 4 4
TYPE F F F F F F F
COUNT 1 1 1 1 1 1 1
WIDTH 45
HEIGHT 1
VIEWPOINT 0 0 0 1 0 0 0
POINTS 45
DATA ascii
0.83311802 14.38490000 464.10999000 0.09852670 -0.87212300 0.47926301 1.905766e-42
-0.31595001 13.78080000 462.86301000 0.05124640 -0.91877198 0.39144799 1.905766e-42
-0.87436998 13.17420000 461.26300000 0.01973490 -0.93848300 0.34476200 1.905766e-42
-1.62712000 12.63620000 459.71899000 -0.03223830 -0.90222001 0.43007001 1.905766e-42
-1.75787000 11.69090000 458.19299000 -0.02960450 -0.88662899 0.46153200 1.905766e-42
-1.48039000 10.86420000 456.61801000 -0.02437800 -0.88556302 0.46387899 1.905766e-42
-1.47849000 10.05870000 455.00900000 -0.05230350 -0.87045598 0.48946100 1.905766e-42
-1.48850000 9.16067030 453.44901000 -0.07619760 -0.84225798 0.53366202 1.905766e-42
-1.20562990 8.10879040 452.01599000 -0.09563430 -0.80154902 0.59023100 1.905766e-42
-1.03714000 6.91996000 450.67499000 -0.09976840 -0.78315300 0.61377299 1.905766e-42
-1.77125000 6.04998020 449.28000000 -0.09748630 -0.76493001 0.63669300 1.905766e-42
-1.64211000 4.79967020 447.99200000 -0.06519190 -0.67773199 0.73241299 1.905766e-42
1.90316000 5.69699000 449.50000000 -0.06712250 -0.78987998 0.60957599 1.905766e-42
0.24132800 5.36171010 448.89499000 -0.07791350 -0.76754498 0.63624197 1.905766e-42
1.83848000 5.76687000 449.62000000 -0.07069510 -0.78965098 0.60947001 1.905766e-42
3.32967000 6.25970980 450.49899000 -0.07084750 -0.80946898 0.58287197 1.905766e-42
5.03908010 6.45096020 451.03000000 -0.06032800 -0.82862401 0.55654597 1.905766e-42
6.37379980 7.12931010 452.02899000 -0.08329590 -0.82284600 0.56212699 1.905766e-42
8.11203000 7.21390010 452.48901000 -0.08238350 -0.84893698 0.52203399 1.905766e-42
9.83174990 7.37905980 452.99399000 -0.07497720 -0.87587601 0.47667500 1.905766e-42
11.19500000 7.79000000 454.09500000 -0.09327460 -0.87408203 0.47673899 1.905766e-42
12.81180000 8.01371000 454.85400000 -0.08496690 -0.88713598 0.45361799 1.905766e-42
14.07170000 8.59084030 456.00299000 -0.13640200 -0.86823303 0.47703800 1.905766e-42
15.87090000 8.54559990 456.03500000 -0.11411900 -0.91219598 0.39354300 1.905766e-42
17.36389900 8.75761990 457.01801000 -0.15129200 -0.90796500 0.39078099 1.905766e-42
18.68470000 8.79656980 458.24100000 -0.19499600 -0.89398599 0.40344101 1.905766e-42
20.20669900 8.81606960 459.20099000 -0.22647800 -0.88600600 0.40460101 1.905766e-42
21.72500000 8.93760010 460.16000000 -0.25151801 -0.87606400 0.41140199 1.905766e-42
23.14889900 9.05877970 461.25500000 -0.27924100 -0.86497402 0.41694599 1.905766e-42
24.69829900 9.05410960 462.17099000 -0.30417299 -0.84948498 0.43110901 1.905766e-42
26.15040000 9.05996990 463.23499000 -0.32730699 -0.80652797 0.49232301 1.905766e-42
24.51969900 9.76397990 463.52701000 -0.29950401 -0.77863300 0.55138701 1.905766e-42
23.00720000 10.71540000 463.74301000 -0.29680401 -0.63397402 0.71413201 1.905766e-42
21.31290100 11.27820000 463.51401000 -0.27174300 -0.61439902 0.74072301 1.905766e-42
19.59149900 11.78270000 463.66400000 -0.20266099 -0.66779500 0.71622598 1.905766e-42
17.85050000 12.22350000 463.54300000 -0.18317799 -0.69620597 0.69407701 1.905766e-42
16.23460000 12.98340000 463.76999000 -0.19576000 -0.69546002 0.69138497 1.905766e-42
14.53770000 13.58180000 463.81900000 -0.19477899 -0.73057902 0.65445900 1.905766e-42
12.76430000 13.61350000 463.51199000 -0.18635400 -0.79928499 0.57132798 1.905766e-42
11.16060000 14.36050000 463.84399000 -0.11571100 -0.82397598 0.55468398 1.905766e-42
9.36762050 14.38880000 464.00000000 -0.06992190 -0.85772198 0.50933701 1.905766e-42
7.57976010 14.40740000 463.79199000 -0.02524520 -0.88217998 0.47023499 1.905766e-42
5.83216000 14.25800000 463.38800000 0.00988088 -0.89760703 0.44068599 1.905766e-42
4.21373990 14.66600000 464.06201000 0.01853400 -0.84663099 0.53185803 1.905766e-42
2.48280000 15.06090000 464.35800000 0.05766400 -0.83446199 0.54804099 1.905766e-42
