# .PCD v0.7 - Point Cloud Data file format
# 6 186 -2
# 1 19 0
# 20 85 0
# 86 114 0
# 115 145 0
# 146 159 0
# 160 186 0
VERSION 0.7
FIELDS x y z normal_x normal_y normal_z curvature
SIZE 4 4 4 4 4 4 4
TYPE F F F F F F F
COUNT 1 1 1 1 1 1 1
WIDTH 186
HEIGHT 1
VIEWPOINT 0 0 0 1 0 0 0
POINTS 186
DATA ascii
17.66020000 29.54830000 498.37701000 0.17188001 -0.97087502 0.16690899 1.905766e-42
16.61080000 29.58680000 499.83899000 0.17028400 -0.96445602 0.20205800 1.905766e-42
14.81540000 29.53870000 499.95901000 0.13697900 -0.97336000 0.18386801 1.905766e-42
13.18960000 29.16550100 499.28299000 0.10326000 -0.98315603 0.15080400 1.905766e-42
11.39240000 29.18549900 499.18301000 0.11544000 -0.98338598 0.14009000 1.905766e-42
9.63210010 28.80979900 499.18799000 0.14150400 -0.98265302 0.11987200 1.905766e-42
7.85062980 28.55240100 499.17801000 0.17295100 -0.97975701 0.10082200 1.905766e-42
6.12709000 28.03599900 499.12500000 0.20962401 -0.97422802 0.08329420 1.905766e-42
4.37275980 27.63489900 499.16299000 0.25430399 -0.96482700 0.06661530 1.905766e-42
2.67233990 27.19070100 499.55200000 0.31080201 -0.94880801 0.05625420 1.905766e-42
1.00285010 26.61610000 499.90201000 0.36994401 -0.92779201 0.04841070 1.905766e-42
-0.52812099 26.03970000 500.65302000 0.42450199 -0.90451902 0.04054080 1.905766e-42
-2.10540010 25.18170000 500.77899000 0.47739899 -0.87813401 0.03115200 1.905766e-42
-3.56999990 24.28030000 501.31100000 0.52485299 -0.85091901 0.02158400 1.905766e-42
-4.95158000 23.59370000 502.23801000 0.56477702 -0.82512599 0.01392910 1.905766e-42
-6.29235980 22.54439900 502.82199000 0.60088098 -0.79933000 0.00354803 1.905766e-42
-7.68263010 21.40640100 502.71201000 0.62775397 -0.77833301 -0.01104190 1.905766e-42
-8.64445970 20.95470000 503.18900000 0.64140302 -0.76693898 -0.02018310 1.905766e-42
-9.87327000 19.65080100 503.01599000 0.64773399 -0.76078397 -0.04061340 1.905766e-42
-11.03900000 18.57390000 502.16699000 0.64119101 -0.76542699 -0.05473590 1.905766e-42
-10.97120000 18.79220000 500.38199000 0.63140100 -0.77404702 -0.04673850 1.905766e-42
-10.73900000 19.07959900 498.62000000 0.62281603 -0.78192103 -0.02643840 1.905766e-42
-11.21590000 18.73539900 496.91901000 0.61712199 -0.78685403 -0.00449835 1.905766e-42
-11.64970000 18.41880000 495.20099000 0.60852200 -0.79328799 0.01985080 1.905766e-42
-10.97980000 18.82020000 493.57901000 0.60376698 -0.79566503 0.04881370 1.905766e-42
-10.52850000 18.99869900 491.84601000 0.59638399 -0.79890102 0.07799640 1.905766e-42
-10.68920000 18.74040000 490.07199000 0.58778399 -0.80220300 0.10479100 1.905766e-42
-10.40520000 18.70750000 488.29401000 0.58019298 -0.80322200 0.13494800 1.905766e-42
-10.26240000 18.45480000 486.51801000 0.57300502 -0.80265403 0.16556600 1.905766e-42
-9.75049970 18.33210000 484.79700000 0.56597000 -0.80037397 0.19768400 1.905766e-42
-9.25257970 18.23150100 483.07001000 0.55867398 -0.79664701 0.23073000 1.905766e-42
-9.71138000 17.61660000 481.44101000 0.55321300 -0.79247302 0.25679201 1.905766e-42
-9.57983970 16.90970000 479.79099000 0.54594100 -0.78790802 0.28486899 1.905766e-42
-9.53195000 16.17910000 478.14700000 0.53894699 -0.78219098 0.31259301 1.905766e-42
-9.28676030 15.80050000 476.40399000 0.53060901 -0.77543402 0.34228101 1.905766e-42
-8.90851020 15.41890000 474.68600000 0.52153897 -0.76718801 0.37338999 1.905766e-42
-8.17603970 15.04800000 473.08499000 0.51256901 -0.75770003 0.40393499 1.905766e-42
-7.76979020 14.49700000 471.42001000 0.49407300 -0.75968099 0.42281899 1.905766e-42
-6.41238020 14.62250000 470.24399000 0.48624200 -0.75151199 0.44586900 1.905766e-42
-5.63331990 14.11280000 468.70401000 0.46839699 -0.75281698 0.46246201 1.905766e-42
-4.79252000 13.78630000 467.14600000 0.45257401 -0.75174898 0.47963601 1.905766e-42
-4.11485000 13.50710000 465.50201000 0.43725201 -0.75025201 0.49591500 1.905766e-42
-3.37056990 12.88430000 463.98599000 0.42260301 -0.74734300 0.51272303 1.905766e-42
-2.36735010 12.29560000 462.61200000 0.41023299 -0.74041802 0.53243703 1.905766e-42
-0.83012998 12.26260000 461.67700000 0.39727399 -0.73174101 0.55383003 1.905766e-42
-0.49372101 11.48200000 460.09000000 0.38292700 -0.72232699 0.57585597 1.905766e-42
0.40989700 10.68560000 458.75201000 0.36902100 -0.71031100 0.59940201 1.905766e-42
1.19468000 9.90909000 457.33099000 0.35676500 -0.69692701 0.62210202 1.905766e-42
1.95569000 8.84727000 456.09201000 0.34696701 -0.68247902 0.64330101 1.905766e-42
3.10368990 8.39634040 454.78101000 0.33384001 -0.67277902 0.66024202 1.905766e-42
4.53832010 8.00181960 453.76801000 0.31652099 -0.66830999 0.67318398 1.905766e-42
5.72636990 7.26031020 452.63800000 0.29818401 -0.66080302 0.68878597 1.905766e-42
7.02584980 6.74370000 451.50400000 0.27276400 -0.65177399 0.70766503 1.905766e-42
8.65341000 6.74490980 450.73499000 0.24386799 -0.64909798 0.72055501 1.905766e-42
10.32400000 6.48890020 450.11600000 0.21677500 -0.64437300 0.73334301 1.905766e-42
11.42590000 5.56978990 449.02899000 0.19929200 -0.62551302 0.75433099 1.905766e-42
12.25840000 4.41702990 447.92599000 0.18684600 -0.59978300 0.77804101 1.905766e-42
13.09940000 3.20316000 446.89600000 0.17525500 -0.57014698 0.80263197 1.905766e-42
14.00260000 2.02042010 445.88400000 0.16132700 -0.54017901 0.82594198 1.905766e-42
14.96940000 0.84198397 444.92599000 0.14886300 -0.50984699 0.84728700 1.905766e-42
15.15380000 -0.55558097 443.80701000 0.14169399 -0.47674701 0.86754602 1.905766e-42
16.05020000 -1.98247000 443.17401000 0.13221601 -0.44661900 0.88490099 1.905766e-42
15.99810000 -3.56375000 442.31601000 0.12718700 -0.41562200 0.90060103 1.905766e-42
16.40010100 -5.20421980 441.69400000 0.12077300 -0.38609299 0.91452003 1.905766e-42
16.44910000 -6.81453990 440.89099000 0.11574700 -0.35863501 0.92627400 1.905766e-42
17.90140000 -7.81431010 440.52802000 0.10890700 -0.34055799 0.93389499 1.905766e-42
18.81329900 -9.18103030 439.79300000 0.10267200 -0.31865501 0.94229400 1.905766e-42
19.97570000 -10.48280000 439.35300000 0.09565060 -0.30042201 0.94899797 1.905766e-42
21.20100000 -11.73720000 438.94601000 0.07808420 -0.27648601 0.95784098 1.905766e-42
22.07749900 -13.22480000 438.43701000 0.06244530 -0.24677300 0.96705902 1.905766e-42
23.45649900 -14.35570000 438.19299000 0.04793160 -0.22000299 0.97432101 1.905766e-42
24.74320000 -15.57230000 437.87100000 0.03743220 -0.19099000 0.98087800 1.905766e-42
25.37389900 -17.14360000 437.26001000 0.03042030 -0.15513000 0.98742598 1.905766e-42
26.12690000 -18.77520000 437.15601000 0.02561940 -0.11740900 0.99275303 1.905766e-42
26.93180100 -20.37760000 437.00000000 0.02404030 -0.07815810 0.99665099 1.905766e-42
27.27319900 -22.13040000 436.77399000 0.02206990 -0.03461330 0.99915701 1.905766e-42
28.41320000 -23.52199900 436.70999000 0.02820740 0.00360928 0.99959600 1.905766e-42
29.77039900 -24.70389900 436.67700000 0.02275710 0.03822740 0.99901003 1.905766e-42
31.12190100 -25.89119900 436.73599000 0.00474311 0.07092990 0.99747002 1.905766e-42
31.79430000 -27.54960100 436.93100000 -0.01092410 0.11094400 0.99376702 1.905766e-42
31.23240100 -29.25190000 437.09299000 -0.00541623 0.14590700 0.98928303 1.905766e-42
31.89329900 -30.87450000 437.50601000 -0.02138320 0.18020000 0.98339802 1.905766e-42
31.98539900 -32.60770000 437.98300000 -0.02817660 0.21250500 0.97675401 1.905766e-42
32.66019800 -34.20959900 438.45099000 -0.05080620 0.23935400 0.96960199 1.905766e-42
33.55149800 -35.70840100 438.89700000 -0.08257490 0.26431000 0.96089602 1.905766e-42
35.03220000 -36.66820100 439.25201000 -0.11475500 0.27633899 0.95418400 1.905766e-42
36.82160200 -36.79650100 439.39801000 -0.14115600 0.26080200 0.95501697 1.905766e-42
37.58470200 -35.20660000 439.03799000 -0.17065200 0.24513300 0.95435202 1.905766e-42
38.34840000 -33.60350000 438.74301000 -0.20502201 0.22594000 0.95232201 1.905766e-42
39.47190100 -32.19889800 438.81500000 -0.25073200 0.19738500 0.94771999 1.905766e-42
40.85720100 -31.06119900 438.97900000 -0.30827001 0.15846001 0.93800902 1.905766e-42
42.28889800 -29.98609900 439.16299000 -0.37539899 0.11101700 0.92019099 1.905766e-42
43.51990100 -28.75989900 439.63400000 -0.37598401 0.10567300 0.92058098 1.905766e-42
45.12839900 -28.27430000 440.27899000 -0.37252599 0.10039200 0.92257500 1.905766e-42
46.87139900 -28.20389900 440.72299000 -0.36822399 0.09699150 0.92466402 1.905766e-42
48.40079900 -27.58779900 441.44501000 -0.36588600 0.09381060 0.92591900 1.905766e-42
50.03680000 -27.12019900 442.03201000 -0.37797499 0.08545370 0.92186397 1.905766e-42
51.35490000 -26.13500000 442.76199000 -0.40908501 0.06563340 0.91013300 1.905766e-42
53.06750100 -25.77170000 443.17999000 -0.43981200 0.04978850 0.89670902 1.905766e-42
54.27270100 -24.83519900 444.13400000 -0.46968299 0.02992930 0.88232702 1.905766e-42
55.83169900 -24.93450000 445.02899000 -0.49800700 0.02148060 0.86690700 1.905766e-42
57.38810000 -24.88430000 445.93100000 -0.53051299 0.01220080 0.84758902 1.905766e-42
58.58369800 -23.81279900 446.74500000 -0.56053603 -0.00829608 0.82808900 1.905766e-42
60.14530200 -23.64710000 447.62500000 -0.59299898 -0.01530260 0.80505800 1.905766e-42
61.53350100 -23.62000100 448.77100000 -0.62375498 -0.01877610 0.78139400 1.905766e-42
62.80239900 -23.99150100 449.99200000 -0.64954901 -0.01417310 0.76018798 1.905766e-42
64.03450000 -24.70299900 451.09500000 -0.66728300 -0.00107324 0.74480301 1.905766e-42
65.37640400 -24.92160000 452.27399000 -0.68472898 0.00521432 0.72877902 1.905766e-42
66.60790300 -25.29579900 453.53299000 -0.70055598 0.01326120 0.71347398 1.905766e-42
67.62660200 -26.29299900 454.63199000 -0.71268499 0.02902510 0.70088398 1.905766e-42
68.70210300 -27.19269900 455.76001000 -0.72277302 0.04247200 0.68977898 1.905766e-42
69.94770100 -27.48240100 457.02701000 -0.73291999 0.04538110 0.67879999 1.905766e-42
71.08889800 -27.62630100 458.41101000 -0.74482900 0.04196170 0.66593498 1.905766e-42
72.16149900 -27.83410100 459.84201000 -0.75536299 0.02973980 0.65463197 1.905766e-42
73.20809900 -27.57440000 461.28299000 -0.76581001 0.01071970 0.64297801 1.905766e-42
74.29190100 -26.56259900 462.30399000 -0.77408701 -0.01271460 0.63295197 1.905766e-42
74.37159700 -24.78599900 462.58200000 -0.77451599 -0.03528380 0.63156998 1.905766e-42
74.95150000 -23.20459900 463.21701000 -0.76312900 -0.06029750 0.64342803 1.905766e-42
75.11589800 -21.44829900 463.57501000 -0.75674200 -0.08950080 0.64755797 1.905766e-42
75.52510100 -19.70949900 463.79700000 -0.74866098 -0.11957700 0.65208000 1.905766e-42
75.26419800 -17.92849900 463.78400000 -0.75106299 -0.15111800 0.64270401 1.905766e-42
75.03289800 -16.14380100 463.75201000 -0.75265700 -0.18347301 0.63233298 1.905766e-42
74.11750000 -14.65490000 463.32101000 -0.76105797 -0.21013300 0.61370599 1.905766e-42
73.55259700 -12.95320000 463.47900000 -0.75901300 -0.24407201 0.60359699 1.905766e-42
73.34130100 -11.21990000 463.91599000 -0.75270897 -0.28036001 0.59567398 1.905766e-42
73.37640400 -9.54041960 464.56299000 -0.74431503 -0.31719100 0.58769500 1.905766e-42
73.43940000 -7.97544000 465.45001000 -0.73047400 -0.35173500 0.58539701 1.905766e-42
72.97530400 -6.46702000 466.31500000 -0.71556401 -0.38780600 0.58101201 1.905766e-42
72.22429700 -4.85331010 466.58301000 -0.70204401 -0.43007901 0.56759697 1.905766e-42
71.24500300 -3.34401010 466.63800000 -0.68694597 -0.47442099 0.55048102 1.905766e-42
71.05110200 -1.83732000 467.60400000 -0.66556197 -0.51737499 0.53791302 1.905766e-42
70.04180100 -0.37465599 467.89001000 -0.64796799 -0.55930501 0.51702499 1.905766e-42
69.72979700 1.19468000 468.71500000 -0.62731099 -0.59855002 0.49821600 1.905766e-42
69.16400100 2.39944010 469.92599000 -0.60741103 -0.63342702 0.47939700 1.905766e-42
68.65429700 3.59576010 471.17099000 -0.58906800 -0.66300601 0.46197599 1.905766e-42
67.96029700 4.95244980 472.12900000 -0.57169598 -0.68758601 0.44764799 1.905766e-42
66.69960000 6.16093020 472.56500000 -0.55880803 -0.70179099 0.44184101 1.905766e-42
65.39489700 7.38241000 472.77899000 -0.56988800 -0.69067103 0.44519800 1.905766e-42
64.48960100 8.73379040 473.54999000 -0.58241099 -0.68153000 0.44307399 1.905766e-42
63.37300100 10.03010000 474.10901000 -0.59772098 -0.67221099 0.43687701 1.905766e-42
61.95489900 11.12700000 474.26999000 -0.61593002 -0.65933102 0.43117601 1.905766e-42
60.94319900 12.49820000 474.85001000 -0.63494700 -0.64970601 0.41800001 1.905766e-42
59.67810100 13.77280000 474.97198000 -0.65604001 -0.63435000 0.40891600 1.905766e-42
58.72689800 15.25010000 475.36301000 -0.67774701 -0.62151700 0.39290601 1.905766e-42
57.96920000 16.77300100 475.95200000 -0.68130201 -0.63723499 0.36021999 1.905766e-42
56.90050100 18.20800000 476.14899000 -0.67027301 -0.66336697 0.33268499 1.905766e-42
56.07680100 18.36910100 474.55600000 -0.66600603 -0.64908099 0.36759999 1.905766e-42
55.32300200 18.24049900 472.92700000 -0.65822703 -0.63065398 0.41111201 1.905766e-42
54.39619800 18.24650000 471.38400000 -0.64020902 -0.61779302 0.45657900 1.905766e-42
53.26699800 18.28310000 469.98199000 -0.60863602 -0.60924202 0.50831699 1.905766e-42
52.08850100 18.15660100 468.62799000 -0.56816101 -0.59978598 0.56342697 1.905766e-42
50.72449900 18.27010000 467.45901000 -0.52009702 -0.59395200 0.61377501 1.905766e-42
49.25960200 18.22900000 466.41400000 -0.46739000 -0.58416700 0.66354698 1.905766e-42
47.70909900 18.34289900 465.50601000 -0.41313100 -0.57109702 0.70934600 1.905766e-42
46.09489800 18.29220000 464.71201000 -0.35860601 -0.55149800 0.75316101 1.905766e-42
44.52750000 18.90730100 464.07501000 -0.34243301 -0.54546398 0.76498997 1.905766e-42
42.83160000 18.76940000 463.48801000 -0.32619399 -0.54042399 0.77558899 1.905766e-42
41.23350100 19.51680000 463.13101000 -0.31074801 -0.52640700 0.79141098 1.905766e-42
39.50140000 19.91020000 462.83899000 -0.28156501 -0.50867802 0.81361401 1.905766e-42
37.80720100 20.51820000 462.83099000 -0.24304000 -0.48324901 0.84107202 1.905766e-42
36.17750200 21.26759900 462.98001000 -0.16115101 -0.47933999 0.86270702 1.905766e-42
34.53559900 21.89860000 463.36301000 -0.01960350 -0.50993299 0.85999101 1.905766e-42
33.02220200 22.78840100 463.76001000 0.09898670 -0.53751498 0.83742398 1.905766e-42
31.39510000 23.05600000 464.48199000 0.20889100 -0.54607302 0.81127602 1.905766e-42
29.98679900 23.78660000 465.33200000 0.27828699 -0.58129197 0.76462799 1.905766e-42
28.64590100 24.40830000 466.35901000 0.32975900 -0.62608802 0.70659202 1.905766e-42
27.32280000 24.72450100 467.53799000 0.37018800 -0.67035300 0.64310801 1.905766e-42
26.20789900 25.23660100 468.85501000 0.39456201 -0.73162597 0.55591702 1.905766e-42
25.19650100 25.87100000 470.20200000 0.37536401 -0.77998102 0.50073099 1.905766e-42
24.47960100 26.68840000 471.63699000 0.35246599 -0.82280898 0.44581801 1.905766e-42
23.71800000 27.06959900 473.22198000 0.33370900 -0.85251498 0.40231401 1.905766e-42
23.15210000 27.56069900 474.85901000 0.31735301 -0.87786502 0.35866499 1.905766e-42
22.56880000 27.82449900 476.54099000 0.30459401 -0.89676398 0.32099399 1.905766e-42
22.53550000 28.49679900 478.21100000 0.29480699 -0.91354901 0.28020999 1.905766e-42
22.83460000 29.19350100 479.84299000 0.28795701 -0.92623401 0.24325000 1.905766e-42
23.05010000 29.66650000 481.56699000 0.27145001 -0.94227302 0.19605300 1.905766e-42
23.00860000 29.72680100 483.36499000 0.25373101 -0.95616001 0.14621200 1.905766e-42
23.73080100 30.25289900 484.92801000 0.22473100 -0.96959603 0.09684830 1.905766e-42
24.38690000 30.57609900 486.57199000 0.19520999 -0.97929299 0.05365210 1.905766e-42
24.67410100 30.48930000 488.34698000 0.17480899 -0.98441899 0.01902210 1.905766e-42
24.36940000 30.35980000 490.11700000 0.17231500 -0.98503500 -0.00379657 1.905766e-42
22.97050100 29.98570100 491.18600000 0.17768200 -0.98400301 0.01296650 1.905766e-42
21.76330000 29.80320000 492.50800000 0.16901100 -0.98512900 0.03091830 1.905766e-42
20.60269900 29.57020000 493.86401000 0.16174600 -0.98545301 0.05216360 1.905766e-42
19.50280000 29.48480000 495.28699000 0.16261099 -0.98302400 0.08498460 1.905766e-42
18.59849900 29.57010100 496.84100000 0.16897500 -0.97737598 0.12721799 1.905766e-42
