# .PCD v0.7 - Point Cloud Data file format
# 5 131 0
# 1 17 0
# 18 64 0
# 65 84 0
# 85 98 0
# 99 131 0
VERSION 0.7
FIELDS x y z normal_x normal_y normal_z curvature
SIZE 4 4 4 4 4 4 4
TYPE F F F F F F F
COUNT 1 1 1 1 1 1 1
WIDTH 131
HEIGHT 1
VIEWPOINT 0 0 0 1 0 0 0
POINTS 131
DATA ascii
-23.03540000 6.28601980 453.47101000 0.51516700 0.69503200 -0.50153100 1.905766e-42
-24.05640000 7.18441010 453.32101000 0.52516401 0.69924301 -0.48503801 1.905766e-42
-25.11960000 8.39214040 454.12799000 0.52075499 0.72219300 -0.45524901 1.905766e-42
-26.01170000 9.57532020 455.14999000 0.51656002 0.74496400 -0.42213100 1.905766e-42
-26.78520000 10.75970000 456.26300000 0.52126402 0.74053901 -0.42412999 1.905766e-42
-27.56710100 11.97820000 457.33200000 0.52961302 0.72462600 -0.44093999 1.905766e-42
-28.49740000 13.24260000 458.21301000 0.53773099 0.70927799 -0.45581800 1.905766e-42
-29.46600000 14.49710000 459.06601000 0.54568100 0.69459897 -0.46879199 1.905766e-42
-30.39060000 15.79840000 459.89801000 0.55086201 0.69344598 -0.46441701 1.905766e-42
-31.00160000 17.10630000 460.97299000 0.55709600 0.69190001 -0.45925900 1.905766e-42
-32.12770100 18.37450000 461.57599000 0.56746900 0.68545699 -0.45620999 1.905766e-42
-33.27389900 19.56909900 462.28299000 0.58122402 0.67536497 -0.45393899 1.905766e-42
-34.20760000 20.84639900 463.14099000 0.59853798 0.65600801 -0.45978901 1.905766e-42
-35.04470100 22.22290000 463.94400000 0.61420101 0.63816798 -0.46421900 1.905766e-42
-35.82619900 23.65060000 464.71301000 0.62638801 0.62507403 -0.46574700 1.905766e-42
-36.45510100 25.19430000 465.39200000 0.63306499 0.61971003 -0.46388501 1.905766e-42
-37.31219900 26.56130000 466.19000000 0.63032800 0.63706201 -0.44366601 1.905766e-42
-38.10300100 27.88699900 467.11600000 0.61608797 0.66984802 -0.41441399 1.905766e-42
-37.54539900 28.31730100 468.77200000 0.59068900 0.69647902 -0.40743500 1.905766e-42
-36.31380100 28.03830000 470.05499000 0.57766002 0.69604802 -0.42641100 1.905766e-42
-35.04290000 27.82480000 471.31201000 0.56446803 0.69345897 -0.44776100 1.905766e-42
-33.75579800 27.63530000 472.55600000 0.55422300 0.67775601 -0.48320100 1.905766e-42
-32.30699900 27.25309900 473.55301000 0.54743999 0.65886098 -0.51595700 1.905766e-42
-31.20340000 27.48130000 474.95700000 0.53488398 0.62772298 -0.56556398 1.905766e-42
-29.69330000 27.25000000 475.90900000 0.52623397 0.60701501 -0.59549201 1.905766e-42
-28.26359900 27.17760100 477.00000000 0.51491201 0.58308297 -0.62839401 1.905766e-42
-26.92250100 27.42569900 478.17401000 0.50077498 0.55285800 -0.66601300 1.905766e-42
-25.52420000 27.51149900 479.30499000 0.48833501 0.52665502 -0.69581902 1.905766e-42
-24.18030000 27.73940100 480.48001000 0.47742501 0.49677101 -0.72476500 1.905766e-42
-22.81950000 27.92110100 481.64401000 0.46839800 0.46925199 -0.74860197 1.905766e-42
-21.51420000 28.14690000 482.86301000 0.45854700 0.49395099 -0.73874700 1.905766e-42
-20.01590000 28.30020000 483.84900000 0.44636500 0.55911100 -0.69867998 1.905766e-42
-18.84770000 28.54990000 485.19501000 0.41957900 0.64154702 -0.64216101 1.905766e-42
-17.27380000 28.69770100 486.05600000 0.38753900 0.67423302 -0.62866801 1.905766e-42
-15.65250000 28.76289900 486.83499000 0.35766599 0.69233000 -0.62670100 1.905766e-42
-14.24040000 28.86030000 487.94699000 0.32401201 0.72181398 -0.61155498 1.905766e-42
-12.50340000 28.78680000 488.41299000 0.30110300 0.71612400 -0.62968498 1.905766e-42
-11.11630000 29.07620000 489.52301000 0.26717201 0.74412000 -0.61229402 1.905766e-42
-9.43015960 29.16840000 490.14700000 0.24239200 0.74592000 -0.62036198 1.905766e-42
-7.88736010 29.36800000 491.05200000 0.21431001 0.75702101 -0.61724401 1.905766e-42
-6.13154980 28.97880000 491.12799000 0.20433700 0.73026001 -0.65189499 1.905766e-42
-4.47352980 29.21010000 491.78900000 0.17971399 0.73258102 -0.65652698 1.905766e-42
-2.78974010 29.40589900 492.39401000 0.15662199 0.73016399 -0.66507900 1.905766e-42
-1.07129000 29.56010100 492.90701000 0.13564999 0.72257799 -0.67785001 1.905766e-42
0.68025398 29.58340100 493.32199000 0.11575300 0.70833898 -0.69631702 1.905766e-42
2.17568990 29.84219900 494.28900000 0.08268630 0.70545602 -0.70391399 1.905766e-42
3.94663000 29.65320000 494.02802000 0.07477710 0.66983002 -0.73874003 1.905766e-42
5.74519010 29.60260000 494.07901000 0.06067850 0.63730103 -0.76822197 1.905766e-42
7.51858000 29.75830100 494.34601000 0.04068940 0.60656798 -0.79399002 1.905766e-42
9.31706050 29.69890000 494.38901000 0.02978700 0.56914902 -0.82169503 1.905766e-42
11.11520000 29.61720100 494.40100000 0.02122850 0.53157300 -0.84674603 1.905766e-42
12.91450000 29.59300000 494.44400000 0.01166230 0.49788100 -0.86716700 1.905766e-42
14.71430000 29.59720000 494.46799000 -0.00014670 0.46972501 -0.88281298 1.905766e-42
16.51339900 29.58460000 494.41101000 -0.01304850 0.44791999 -0.89397800 1.905766e-42
18.31100100 29.58169900 494.32001000 -0.02787010 0.43228000 -0.90130901 1.905766e-42
20.10700000 29.55680100 494.20200000 -0.04446200 0.42359900 -0.90475798 1.905766e-42
21.82640100 30.06790000 494.35199000 -0.06356250 0.39996400 -0.91432399 1.905766e-42
23.60829900 30.30810000 494.26901000 -0.08207900 0.39106601 -0.91669500 1.905766e-42
25.29240000 30.93450000 494.37500000 -0.10013200 0.37057900 -0.92338699 1.905766e-42
27.01660000 31.45120000 494.39001000 -0.11952700 0.36077401 -0.92496198 1.905766e-42
28.72080000 32.03049900 494.37500000 -0.13888600 0.35523799 -0.92440099 1.905766e-42
30.39559900 32.68999900 494.36801000 -0.15684600 0.35450801 -0.92180401 1.905766e-42
31.69020100 33.85910000 494.81201000 -0.15253299 0.34066901 -0.92772698 1.905766e-42
33.19480100 34.84700000 494.82800000 -0.17032000 0.34898901 -0.92151898 1.905766e-42
34.92710100 35.11090100 494.41699000 -0.20080200 0.37833500 -0.90362698 1.905766e-42
36.11349900 34.00500100 493.63599000 -0.23845699 0.41480699 -0.87810802 1.905766e-42
36.75490200 32.61899900 492.68301000 -0.26539099 0.46908501 -0.84233397 1.905766e-42
36.89540100 31.12710000 491.68600000 -0.28433201 0.55025500 -0.78509498 1.905766e-42
37.74509800 30.02580100 490.54401000 -0.29176500 0.61273903 -0.73445499 1.905766e-42
37.99070000 28.76770000 489.28000000 -0.28105599 0.60032099 -0.74874699 1.905766e-42
38.73840000 27.58680000 488.14600000 -0.26809499 0.58793497 -0.76318902 1.905766e-42
39.48460000 26.32720000 487.09900000 -0.25177801 0.57621002 -0.77755398 1.905766e-42
39.93899900 25.08830100 485.87399000 -0.23815200 0.58787203 -0.77310401 1.905766e-42
40.39339800 23.78760000 484.71600000 -0.22230400 0.60068202 -0.76795900 1.905766e-42
41.40959900 22.46999900 484.03000000 -0.20187899 0.60736901 -0.76834100 1.905766e-42
41.27280000 20.87780000 483.20099000 -0.18633801 0.62110603 -0.76125300 1.905766e-42
42.29859900 20.11870000 481.93201000 -0.16643301 0.62208700 -0.76505399 1.905766e-42
42.68019900 19.06399900 480.52399000 -0.15985300 0.63044298 -0.75959700 1.905766e-42
43.33400000 17.97440000 479.24899000 -0.16520400 0.64116400 -0.74941099 1.905766e-42
43.67800100 16.75830100 477.96701000 -0.18231900 0.64221901 -0.74452299 1.905766e-42
44.15660100 15.47820000 476.79599000 -0.18953800 0.62234598 -0.75944799 1.905766e-42
44.71189900 13.95840000 476.00699000 -0.18172500 0.59867698 -0.78010398 1.905766e-42
45.00630200 12.48820000 475.01099000 -0.15254299 0.57237798 -0.80567598 1.905766e-42
45.90710100 11.25170000 474.06299000 -0.10376800 0.52505600 -0.84471798 1.905766e-42
46.82720200 9.98437980 473.17599000 -0.04298590 0.46209100 -0.88578999 1.905766e-42
46.46500000 8.45296000 472.30200000 0.01195650 0.42121401 -0.90688300 1.905766e-42
45.12110100 7.35509010 471.82401000 0.03371600 0.42212299 -0.90591198 1.905766e-42
43.53900100 6.58259010 471.44901000 0.04138740 0.44070601 -0.89669698 1.905766e-42
42.00619900 5.76381020 470.98001000 0.04656280 0.49030000 -0.87030900 1.905766e-42
40.42599900 5.03453020 470.52100000 0.04832350 0.54821497 -0.83494002 1.905766e-42
39.10979800 3.99186990 469.87201000 0.06075350 0.61135799 -0.78901798 1.905766e-42
38.44220000 2.64414000 468.88300000 0.08723070 0.67458999 -0.73302102 1.905766e-42
36.91610000 2.39961000 467.96100000 0.08431820 0.72091800 -0.68787199 1.905766e-42
35.75379900 1.81320000 466.71799000 0.08423130 0.77202398 -0.62998801 1.905766e-42
34.73650000 1.03572000 465.45200000 0.09501250 0.78294301 -0.61479503 1.905766e-42
34.38560100 -0.22724900 464.21899000 0.14784600 0.73331600 -0.66361803 1.905766e-42
34.28770100 -1.54828000 463.00000000 0.21731600 0.67681497 -0.70334500 1.905766e-42
34.25500100 -2.88944010 461.79999000 0.29912001 0.61452800 -0.72998798 1.905766e-42
32.84190000 -3.30404000 460.76501000 0.27719000 0.65188903 -0.70583701 1.905766e-42
31.34280000 -2.30927990 460.81900000 0.18337800 0.72761399 -0.66102201 1.905766e-42
29.65959900 -1.70464000 460.61600000 0.12400100 0.77447098 -0.62033701 1.905766e-42
28.15589900 -2.37591000 459.88901000 0.11551400 0.79733503 -0.59237897 1.905766e-42
26.39110000 -2.03036000 459.96701000 0.07629330 0.82586801 -0.55867898 1.905766e-42
24.59120000 -2.01442000 459.98199000 0.05271760 0.84457499 -0.53283602 1.905766e-42
22.85619900 -2.36150000 459.65100000 0.04054880 0.85790098 -0.51221299 1.905766e-42
21.09070000 -2.41230990 459.99799000 0.02304310 0.86610299 -0.49933499 1.905766e-42
19.35980000 -2.40118000 459.50400000 0.01411960 0.87304699 -0.48743099 1.905766e-42
17.56119900 -2.40415000 459.43201000 0.00425863 0.87719297 -0.48011899 1.905766e-42
15.76200000 -2.41706990 459.38199000 0.01285680 0.88152802 -0.47195700 1.905766e-42
14.06070000 -2.03007010 459.82401000 0.02305900 0.88352001 -0.46782500 1.905766e-42
12.36800000 -2.32068990 459.28601000 0.03832680 0.88689297 -0.46038201 1.905766e-42
10.57570000 -2.20464990 459.16599000 0.05309630 0.88798797 -0.45679101 1.905766e-42
8.78141020 -2.06272010 459.18201000 0.06863020 0.88744402 -0.45577800 1.905766e-42
6.98846010 -1.90420000 459.19501000 0.08527880 0.88538599 -0.45696801 1.905766e-42
5.20502000 -1.66137000 459.21500000 0.10579200 0.88144898 -0.46027699 1.905766e-42
3.45546010 -1.61601000 458.79401000 0.12862800 0.87812501 -0.46081701 1.905766e-42
1.71273010 -1.63179000 458.34399000 0.15194000 0.87384897 -0.46184599 1.905766e-42
-0.03138830 -1.18844000 458.38199000 0.18001400 0.86409301 -0.47004101 1.905766e-42
-1.78698000 -0.79125100 458.39401000 0.20997199 0.85206002 -0.47948599 1.905766e-42
-3.52279000 -0.69406199 457.92801000 0.23691900 0.84285998 -0.48317400 1.905766e-42
-5.26303010 -0.34091201 457.63300000 0.26589501 0.82960802 -0.49096799 1.905766e-42
-6.94585990 0.29681200 457.59601000 0.29599199 0.81166297 -0.50357902 1.905766e-42
-8.66102980 0.72370398 457.25500000 0.32354701 0.79589701 -0.51172799 1.905766e-42
-10.38130000 1.09809010 456.88000000 0.35042399 0.77985001 -0.51868701 1.905766e-42
-11.98310000 1.91643000 456.81299000 0.38019899 0.75848699 -0.52928901 1.905766e-42
-13.67550000 2.24097990 456.29300000 0.40465301 0.74385297 -0.53191900 1.905766e-42
-15.27410000 3.02109000 456.01700000 0.42812699 0.73331702 -0.52815998 1.905766e-42
-16.82670000 3.92082000 455.87601000 0.44734001 0.72805202 -0.51944798 1.905766e-42
-18.45400000 4.51096010 455.38199000 0.46529400 0.71974599 -0.51523501 1.905766e-42
-20.01280000 5.21222020 454.81799000 0.48260200 0.71259600 -0.50921702 1.905766e-42
-21.50680000 6.12890010 454.40799000 0.49858400 0.71043199 -0.49669001 1.905766e-42
