# .PCD v0.7 - Point Cloud Data file format
# 3 140 0
# 1 38 0
# 39 86 0
# 87 140 0
VERSION 0.7
FIELDS x y z normal_x normal_y normal_z curvature
SIZE 4 4 4 4 4 4 4
TYPE F F F F F F F
COUNT 1 1 1 1 1 1 1
WIDTH 140
HEIGHT 1
VIEWPOINT 0 0 0 1 0 0 0
POINTS 140
DATA ascii
38.30189900 18.62599900 502.26099000 0.05584400 -0.94225299 0.33021301 1.905766e-42
36.77909900 18.87550000 503.18799000 0.04378690 -0.93252403 0.35844299 1.905766e-42
35.08980200 19.10710000 503.76401000 0.04051260 -0.92144102 0.38640001 1.905766e-42
33.35699800 18.82840000 503.36401000 0.03620850 -0.91631299 0.39882299 1.905766e-42
31.56720000 18.71060000 503.21301000 0.01764430 -0.91279501 0.40803599 1.905766e-42
29.87660000 18.97150000 503.77301000 -0.01281100 -0.90681797 0.42132801 1.905766e-42
28.08970100 19.07029900 503.96600000 -0.02592320 -0.90085697 0.43334201 1.905766e-42
26.58370000 19.75779900 504.67300000 -0.03848700 -0.89372098 0.44696900 1.905766e-42
25.00690100 19.87039900 504.99301000 -0.04580870 -0.88997197 0.45370901 1.905766e-42
23.21130000 19.93890000 505.09799000 -0.05125740 -0.88850498 0.45599499 1.905766e-42
21.41270100 19.99589900 505.05499000 -0.07184030 -0.88819599 0.45381400 1.905766e-42
19.62690000 20.01950100 504.83099000 -0.09980010 -0.88671798 0.45141000 1.905766e-42
17.84440000 20.26840000 504.80301000 -0.12752500 -0.88294101 0.45183301 1.905766e-42
16.19269900 20.11590000 504.10400000 -0.15121000 -0.87998003 0.45030099 1.905766e-42
14.52370000 20.69070100 504.45599000 -0.17716400 -0.87377799 0.45290801 1.905766e-42
12.82910000 21.29750100 504.45801000 -0.20098300 -0.86742902 0.45516300 1.905766e-42
11.34360000 20.84059900 503.54999000 -0.21505900 -0.86093199 0.46102700 1.905766e-42
9.61592010 21.34300000 503.49600000 -0.23876099 -0.85057002 0.46853399 1.905766e-42
7.88151980 21.75690100 503.25000000 -0.26139399 -0.83790499 0.47915399 1.905766e-42
6.16832020 22.22340000 502.95401000 -0.28311199 -0.82301700 0.49243400 1.905766e-42
4.44026990 22.38260100 502.47601000 -0.29769301 -0.80737603 0.50943398 1.905766e-42
2.76320000 22.69300100 501.90100000 -0.31097999 -0.79054600 0.52756900 1.905766e-42
1.07690000 23.10430000 501.42401000 -0.32505399 -0.77240300 0.54565001 1.905766e-42
-0.61043203 23.33550100 500.84201000 -0.33526799 -0.75423199 0.56456101 1.905766e-42
-2.26166010 23.95270000 500.47800000 -0.35120499 -0.73419499 0.58104402 1.905766e-42
-3.86769010 23.96830000 499.66501000 -0.35827500 -0.71720803 0.59770501 1.905766e-42
-5.47710990 24.54310000 499.10001000 -0.37286401 -0.69783598 0.61155301 1.905766e-42
-7.11994980 24.81979900 498.41800000 -0.38353699 -0.67996103 0.62494200 1.905766e-42
-8.74672030 24.76380000 497.64999000 -0.39000401 -0.66448802 0.63745803 1.905766e-42
-10.36010000 25.48230000 497.30200000 -0.40540299 -0.64497101 0.64781201 1.905766e-42
-11.93020000 25.51190000 496.42200000 -0.41258401 -0.63002098 0.65791202 1.905766e-42
-13.56370000 26.04700100 495.88800000 -0.42910600 -0.61071801 0.66550100 1.905766e-42
-15.11550000 26.82920100 495.41901000 -0.45017600 -0.58934498 0.67083102 1.905766e-42
-16.77199900 27.17170000 494.80399000 -0.47014701 -0.56763601 0.67583400 1.905766e-42
-18.33379900 27.51499900 493.97800000 -0.47644401 -0.55056298 0.68547899 1.905766e-42
-19.91780100 27.92300000 493.22601000 -0.48441800 -0.53324401 0.69353402 1.905766e-42
-21.40990100 28.75340100 492.65701000 -0.49829501 -0.51196700 0.69970798 1.905766e-42
-22.97460000 29.11160100 491.84201000 -0.51092702 -0.48498300 0.70975000 1.905766e-42
-24.50120000 29.50260000 490.97299000 -0.53284597 -0.43931100 0.72324401 1.905766e-42
-24.19630100 27.90390000 490.20401000 -0.48880500 -0.47751400 0.73010200 1.905766e-42
-24.03860100 26.33470000 489.33600000 -0.46060199 -0.48972401 0.74028099 1.905766e-42
-23.87700100 24.96920000 488.17401000 -0.43254599 -0.49410000 0.75416702 1.905766e-42
-22.88559900 23.47559900 488.01300000 -0.41241100 -0.51353902 0.75245899 1.905766e-42
-22.25379900 21.95369900 487.28900000 -0.38723901 -0.53192902 0.75305802 1.905766e-42
-21.83900100 20.63220000 486.13901000 -0.36071000 -0.54415798 0.75748301 1.905766e-42
-21.03690000 19.11590000 485.59399000 -0.33856699 -0.56186903 0.75476801 1.905766e-42
-20.72440000 17.51140000 484.84000000 -0.31298900 -0.57267398 0.75768203 1.905766e-42
-20.45179900 15.98920000 483.91901000 -0.28707400 -0.58131599 0.76135403 1.905766e-42
-19.44590000 14.66180000 483.23599000 -0.26649600 -0.59686399 0.75679100 1.905766e-42
-19.46180000 13.30770000 482.04999000 -0.24108200 -0.60085303 0.76213902 1.905766e-42
-18.52199900 11.99860000 481.24799000 -0.22036301 -0.61610502 0.75621098 1.905766e-42
-18.21209900 10.62580000 480.12601000 -0.19566900 -0.62437397 0.75622201 1.905766e-42
-17.77710000 9.20036030 479.11700000 -0.17078100 -0.63383502 0.75437802 1.905766e-42
-17.45420100 7.85556980 477.96399000 -0.14457799 -0.64151198 0.75336599 1.905766e-42
-16.76790000 6.49735020 477.00299000 -0.11834200 -0.65324497 0.74784100 1.905766e-42
-15.74850000 5.36718990 476.04199000 -0.09111080 -0.66858798 0.73803103 1.905766e-42
-15.23140000 4.03041980 474.95300000 -0.06197270 -0.67143101 0.73847097 1.905766e-42
-14.96750000 2.67664000 473.79700000 -0.03488630 -0.66833800 0.74303901 1.905766e-42
-14.23480000 1.44900000 472.70300000 -0.01074280 -0.66960001 0.74264401 1.905766e-42
-13.46770000 0.23674899 471.61600000 0.01119640 -0.67000097 0.74227601 1.905766e-42
-12.85990000 -0.99713898 470.45499000 0.03190320 -0.66769302 0.74375302 1.905766e-42
-12.17080000 -2.31772990 469.44400000 0.05074470 -0.66539103 0.74476802 1.905766e-42
-11.54940000 -3.55043010 468.28900000 0.06874040 -0.66768700 0.74126202 1.905766e-42
-10.62830000 -4.57427980 467.13000000 0.08527000 -0.67872798 0.72942197 1.905766e-42
-9.84191990 -5.66171980 465.92999000 0.10235100 -0.68846101 0.71801502 1.905766e-42
-9.45374970 -6.91623020 464.69901000 0.12009200 -0.69522202 0.70869201 1.905766e-42
-9.06357000 -8.13158990 463.42999000 0.13751601 -0.70166099 0.69911498 1.905766e-42
-8.13741020 -9.09315010 462.22299000 0.15337200 -0.71082801 0.68644100 1.905766e-42
-7.54259010 -10.20320000 460.93701000 0.16998801 -0.71802098 0.67494500 1.905766e-42
-6.81669000 -11.16680000 459.60101000 0.18996499 -0.72704500 0.65978700 1.905766e-42
-5.99827000 -12.10330000 458.29999000 0.21762601 -0.73500299 0.64219099 1.905766e-42
-5.06155010 -12.96620000 457.02802000 0.24660800 -0.74275398 0.62249601 1.905766e-42
-4.38361980 -13.82020000 455.59601000 0.27332801 -0.74927002 0.60322899 1.905766e-42
-3.08222010 -14.27920000 454.44000000 0.30278999 -0.75634998 0.57987303 1.905766e-42
-2.19424010 -14.99400000 453.04700000 0.32880899 -0.76191503 0.55800599 1.905766e-42
-1.59157000 -15.71110000 451.51001000 0.35171100 -0.75759202 0.54986602 1.905766e-42
-0.86872900 -16.49099900 450.05701000 0.37336701 -0.74622798 0.55112600 1.905766e-42
-0.76649600 -17.31790000 448.46201000 0.38997701 -0.73164201 0.55912298 1.905766e-42
-0.48188800 -18.30430000 446.98300000 0.40682000 -0.71649897 0.56668001 1.905766e-42
-0.01813570 -19.24210000 445.51901000 0.42413700 -0.70140201 0.57283801 1.905766e-42
0.60330498 -20.28870000 444.19299000 0.44123399 -0.68601203 0.57853198 1.905766e-42
0.81510401 -21.42869900 442.81601000 0.45626399 -0.67330003 0.58179998 1.905766e-42
1.00445000 -22.36130000 441.28799000 0.47256100 -0.66353297 0.58000898 1.905766e-42
1.34086000 -23.32749900 439.80701000 0.49010199 -0.65394402 0.57633102 1.905766e-42
1.96317010 -24.33210000 438.44901000 0.50877202 -0.64524800 0.56991702 1.905766e-42
2.55043010 -25.18630000 436.97800000 0.52787799 -0.63668799 0.56211501 1.905766e-42
3.08433010 -25.98760000 435.45700000 0.54695803 -0.62790102 0.55369502 1.905766e-42
4.51030020 -25.36840100 434.54999000 0.56941903 -0.62713200 0.53147602 1.905766e-42
5.93208980 -24.27050000 434.43500000 0.58341300 -0.63086802 0.51150298 1.905766e-42
7.18698980 -23.16140000 433.77499000 0.60083199 -0.63102698 0.49071899 1.905766e-42
8.50794030 -21.94409900 433.65900000 0.61345798 -0.63293898 0.47228900 1.905766e-42
9.80607030 -20.69860100 433.60001000 0.62539798 -0.63422298 0.45457599 1.905766e-42
11.09940000 -19.44680000 433.59201000 0.62989801 -0.63997602 0.44006801 1.905766e-42
12.41660000 -18.21999900 433.59100000 0.62850797 -0.64968699 0.42765000 1.905766e-42
13.21370000 -17.12080000 434.77301000 0.62015003 -0.66213298 0.42070699 1.905766e-42
13.92580000 -15.84670000 435.82599000 0.61229402 -0.67500597 0.41165900 1.905766e-42
14.69890000 -14.40910000 436.58499000 0.60698599 -0.68716598 0.39921299 1.905766e-42
15.31440000 -13.30660000 437.86801000 0.59877503 -0.70073801 0.38785899 1.905766e-42
15.89410000 -12.23470000 439.19299000 0.59043300 -0.71490097 0.37457401 1.905766e-42
16.37809900 -11.12440000 440.52399000 0.58176601 -0.72444600 0.36976501 1.905766e-42
17.09110100 -9.96284960 441.70001000 0.57722300 -0.73179197 0.36234501 1.905766e-42
17.67939900 -8.89002040 443.01999000 0.57205302 -0.73856002 0.35676900 1.905766e-42
18.34520000 -7.68378020 444.17801000 0.56379098 -0.74752998 0.35119501 1.905766e-42
19.02000000 -6.67091990 445.50500000 0.55182397 -0.75811797 0.34748700 1.905766e-42
19.28970000 -5.86843010 447.09299000 0.54072702 -0.76656300 0.34640300 1.905766e-42
19.60770000 -4.92873000 448.59500000 0.52913898 -0.77526999 0.34491900 1.905766e-42
20.36739900 -3.83939000 449.81000000 0.51712501 -0.78606099 0.33865800 1.905766e-42
20.78050000 -2.91024990 451.29501000 0.50351399 -0.79680300 0.33403400 1.905766e-42
21.33099900 -1.93546000 452.70499000 0.48988500 -0.80829400 0.32661000 1.905766e-42
21.62970000 -1.19256000 454.31699000 0.47432199 -0.81962299 0.32130599 1.905766e-42
22.34760100 -0.23785099 455.66299000 0.46236700 -0.83092302 0.30949000 1.905766e-42
22.92330000 0.58367902 457.15799000 0.44967800 -0.84026098 0.30290499 1.905766e-42
23.51149900 1.42329000 458.63699000 0.43790001 -0.84747398 0.30005199 1.905766e-42
23.76660000 2.05709000 460.30301000 0.42094001 -0.85563898 0.30114901 1.905766e-42
24.25020000 2.87065010 461.83401000 0.40628299 -0.86428303 0.29656199 1.905766e-42
24.66410100 3.59100010 463.43100000 0.38808000 -0.87429798 0.29154301 1.905766e-42
25.10899900 4.42202000 464.96399000 0.36802500 -0.88572901 0.28291601 1.905766e-42
25.43210000 4.98190020 466.64401000 0.33790100 -0.89874899 0.27941701 1.905766e-42
26.05550000 6.05583000 467.94699000 0.31632400 -0.90776300 0.27550900 1.905766e-42
26.36990000 6.43427990 469.67899000 0.29406199 -0.91292500 0.28301099 1.905766e-42
26.66440000 6.90140010 471.39200000 0.27516401 -0.91623998 0.29118401 1.905766e-42
26.93090100 7.50378990 473.06699000 0.25910300 -0.91807801 0.29999900 1.905766e-42
27.39920000 8.16493990 474.67401000 0.24748600 -0.91890699 0.30718100 1.905766e-42
27.77260000 8.74224000 476.33801000 0.23581500 -0.91902500 0.31588501 1.905766e-42
28.04140100 9.40137960 477.99100000 0.22323699 -0.92201298 0.31631801 1.905766e-42
28.57309900 10.10080000 479.56201000 0.21161699 -0.92590600 0.31291401 1.905766e-42
29.22769900 10.83060000 481.07199000 0.20010599 -0.93057102 0.30658600 1.905766e-42
29.75510000 11.43740000 482.68201000 0.18532100 -0.93559498 0.30052900 1.905766e-42
30.17830100 12.01230000 484.33499000 0.16793101 -0.94079298 0.29446101 1.905766e-42
30.13019900 12.52640000 486.05899000 0.14365700 -0.94509399 0.29353100 1.905766e-42
31.26700000 13.11480000 487.32401000 0.13713600 -0.95018101 0.27990901 1.905766e-42
32.18949900 13.67430000 488.76501000 0.12977000 -0.95288098 0.27418500 1.905766e-42
32.94450000 14.15800000 490.32599000 0.12645701 -0.95318598 0.27467200 1.905766e-42
33.47689800 14.68700000 491.96201000 0.11995600 -0.95239800 0.28026399 1.905766e-42
34.54219800 15.18700000 493.32401000 0.12414400 -0.95154202 0.28134599 1.905766e-42
35.03820000 15.78030000 494.94901000 0.11733000 -0.94960898 0.29064900 1.905766e-42
35.78670100 16.32980000 496.49100000 0.11338900 -0.94767702 0.29841501 1.905766e-42
36.38100100 16.95200000 498.07199000 0.10413500 -0.94177300 0.31971800 1.905766e-42
37.55709800 17.54190100 499.30099000 0.10085500 -0.93944800 0.32751399 1.905766e-42
38.66090000 18.23900000 500.54001000 0.09119660 -0.93978101 0.32938501 1.905766e-42
