# .PCD v0.7 - Point Cloud Data file format
# 3 108 0
# 1 42 0
# 43 88 0
# 89 108 0
VERSION 0.7
FIELDS x y z normal_x normal_y normal_z curvature
SIZE 4 4 4 4 4 4 4
TYPE F F F F F F F
COUNT 1 1 1 1 1 1 1
WIDTH 108
HEIGHT 1
VIEWPOINT 0 0 0 1 0 0 0
POINTS 108
DATA ascii
36.61169800 39.45800000 475.20300000 -0.28309801 0.50929600 -0.81269503 1.905766e-42
37.28179900 38.34890000 473.95401000 -0.28846899 0.53820997 -0.79190600 1.905766e-42
36.82030100 36.90589900 472.98199000 -0.24577400 0.59500098 -0.76522499 1.905766e-42
36.18590200 35.42789800 472.17401000 -0.18604299 0.65790600 -0.72975898 1.905766e-42
35.48720200 33.96900200 471.38400000 -0.12202200 0.72328502 -0.67968303 1.905766e-42
34.99910000 33.01260000 469.93900000 -0.07706030 0.73742199 -0.67102200 1.905766e-42
34.68420000 31.94809900 468.52200000 -0.05717270 0.70137399 -0.71049702 1.905766e-42
34.25379900 30.73819900 467.26099000 -0.04856790 0.66848499 -0.74213803 1.905766e-42
33.69500000 29.32490000 466.29700000 -0.05317940 0.63817501 -0.76805198 1.905766e-42
33.09489800 27.89060000 465.39001000 -0.06794170 0.60860598 -0.79055899 1.905766e-42
32.86180100 26.37420100 464.44800000 -0.08302250 0.60788602 -0.78967202 1.905766e-42
32.32849900 25.09610000 463.29800000 -0.09897840 0.61815900 -0.77979702 1.905766e-42
31.65609900 23.77669900 462.27499000 -0.11317300 0.62753201 -0.77032101 1.905766e-42
31.00379900 22.42280000 461.28500000 -0.12506799 0.63727999 -0.76041597 1.905766e-42
31.09919900 20.94459900 460.26199000 -0.12682500 0.64921600 -0.74995601 1.905766e-42
30.26740100 19.75950100 459.19299000 -0.13766800 0.65899301 -0.73944300 1.905766e-42
30.07659900 18.41480100 458.01099000 -0.13750200 0.67243898 -0.72726798 1.905766e-42
30.29800000 17.07390000 456.83099000 -0.12837800 0.68459100 -0.71753299 1.905766e-42
29.68000000 15.89360000 455.62100000 -0.13058300 0.69656199 -0.70551401 1.905766e-42
29.55160000 14.61900000 454.35599000 -0.12378000 0.70798999 -0.69529003 1.905766e-42
29.53660000 13.28300000 453.14999000 -0.11592600 0.71867001 -0.68562001 1.905766e-42
28.62120100 12.26010000 451.98599000 -0.11081800 0.74110103 -0.66218501 1.905766e-42
28.68890000 11.07670000 450.63101000 -0.09371200 0.76270097 -0.63992500 1.905766e-42
28.74080100 9.82425980 449.33899000 -0.07364050 0.78292900 -0.61773700 1.905766e-42
28.21910100 8.84158990 447.92401000 -0.05026100 0.80561399 -0.59030497 1.905766e-42
28.05250000 7.79096980 446.47198000 -0.02058320 0.82484698 -0.56498200 1.905766e-42
27.85530100 6.77464010 445.00000000 0.00985882 0.83500201 -0.55015898 1.905766e-42
27.19420100 5.92340990 443.55801000 0.03014440 0.84370500 -0.53596097 1.905766e-42
26.67149900 5.08046010 442.05600000 0.04790450 0.85120499 -0.52264303 1.905766e-42
25.82679900 4.31663990 440.66199000 0.04955940 0.86140603 -0.50549299 1.905766e-42
25.69010000 3.29784990 439.18399000 0.07062000 0.86587602 -0.49524999 1.905766e-42
24.83090000 2.68327000 437.72699000 0.05821030 0.87761301 -0.47582299 1.905766e-42
24.29170000 1.85513000 436.22299000 0.06008260 0.88801199 -0.45587799 1.905766e-42
23.75729900 1.05351000 434.70200000 0.06375670 0.89874399 -0.43381399 1.905766e-42
23.12089900 0.40862399 433.14700000 0.06197110 0.91110599 -0.40748700 1.905766e-42
22.48080100 -0.20376199 431.57999000 0.06241380 0.92379099 -0.37777701 1.905766e-42
21.71430000 -0.73821002 430.04099000 0.06207590 0.93701100 -0.34373900 1.905766e-42
20.80629900 -1.15847000 428.54501000 0.08437410 0.94389498 -0.31928700 1.905766e-42
21.17499900 -1.91555000 426.95401000 0.11063200 0.94295698 -0.31399399 1.905766e-42
20.83880000 -2.38340000 425.24899000 0.13250500 0.94398898 -0.30220401 1.905766e-42
19.61470000 -2.43266010 423.92999000 0.13008800 0.95032698 -0.28276500 1.905766e-42
19.84690100 -2.65956000 423.18600000 0.14303701 0.94838101 -0.28304401 1.905766e-42
19.65850100 -3.25793000 421.49899000 0.16391601 0.94671601 -0.27723801 1.905766e-42
17.87509900 -3.23876000 421.25601000 0.13722099 0.95627397 -0.25828299 1.905766e-42
16.62319900 -2.68952990 422.42700000 0.12963200 0.95819998 -0.25504699 1.905766e-42
15.40130000 -2.02468990 423.56900000 0.18158799 0.94896698 -0.25785199 1.905766e-42
13.65680000 -1.63335000 423.77802000 0.24634200 0.93630803 -0.25028601 1.905766e-42
12.18030000 -0.90727198 424.50800000 0.29869699 0.92221498 -0.24556200 1.905766e-42
10.70890000 -0.16621999 425.23300000 0.35553300 0.90239102 -0.24348800 1.905766e-42
9.16998960 0.61012298 425.75101000 0.41344699 0.87831903 -0.24003600 1.905766e-42
7.69454000 1.46869000 426.32199000 0.43548000 0.86881500 -0.23562400 1.905766e-42
6.36137010 2.34700990 427.15399000 0.45806500 0.85806799 -0.23215500 1.905766e-42
4.93833020 3.28565000 427.73199000 0.48138800 0.84546900 -0.23118600 1.905766e-42
3.75631000 4.25496010 428.68201000 0.48518199 0.84339100 -0.23084500 1.905766e-42
2.37325000 5.19298980 429.35101000 0.49221399 0.83780199 -0.23624700 1.905766e-42
1.12001000 6.20332000 430.15601000 0.49465701 0.83274901 -0.24868301 1.905766e-42
-0.04325430 7.21541980 431.08499000 0.48817700 0.83101898 -0.26662800 1.905766e-42
-1.03123000 8.17459960 432.24399000 0.48326200 0.82931501 -0.28052700 1.905766e-42
-1.91239000 9.08143040 433.52499000 0.38319901 0.87409103 -0.29853401 1.905766e-42
-2.29471990 9.71251010 435.16699000 0.33821100 0.89023602 -0.30511200 1.905766e-42
-2.21795010 10.38550000 436.83499000 0.34447601 0.88751298 -0.30603400 1.905766e-42
-2.40224000 11.06530000 438.49100000 0.33195499 0.89059699 -0.31087399 1.905766e-42
-2.78388000 11.44130000 440.20999000 0.32026601 0.88697702 -0.33271900 1.905766e-42
-3.01854990 12.02010000 441.89801000 0.32082501 0.87711698 -0.35740301 1.905766e-42
-3.01578000 12.95030000 443.43900000 0.33188200 0.86353600 -0.37968501 1.905766e-42
-2.88678000 13.85100000 444.99200000 0.35085300 0.84708601 -0.39918399 1.905766e-42
-2.40140010 14.54390000 446.58099000 0.38053599 0.82817602 -0.41148099 1.905766e-42
-2.26655010 15.31290000 448.20300000 0.39717001 0.80506998 -0.44058901 1.905766e-42
-2.37431000 16.16330000 449.78500000 0.40640801 0.78040498 -0.47518599 1.905766e-42
-1.75490000 16.76880100 451.36301000 0.41219699 0.75983697 -0.50273502 1.905766e-42
-1.52109000 17.65860000 452.91000000 0.40891701 0.74035400 -0.53353900 1.905766e-42
-1.21317010 18.59690100 454.41501000 0.39850301 0.72372502 -0.56339800 1.905766e-42
-1.28871000 19.74390000 455.79999000 0.38825899 0.70803702 -0.58986199 1.905766e-42
-0.41341901 20.52540000 457.16501000 0.36151800 0.69272798 -0.62404501 1.905766e-42
-0.58980000 21.80390000 458.42001000 0.35270000 0.67269200 -0.65045202 1.905766e-42
-0.36776501 23.01320100 459.73499000 0.33492401 0.65129799 -0.68090898 1.905766e-42
0.15721101 24.16530000 461.01401000 0.30974299 0.62896502 -0.71306503 1.905766e-42
0.61195898 25.36010000 462.28101000 0.28369901 0.60520703 -0.74379998 1.905766e-42
1.07500990 26.61940000 463.48099000 0.26373500 0.59388500 -0.76009500 1.905766e-42
0.81123197 28.06440000 464.52200000 0.25829801 0.58158702 -0.77138698 1.905766e-42
1.42606000 29.37240000 465.59399000 0.24270999 0.56618202 -0.78773701 1.905766e-42
1.60327990 30.82300000 466.64499000 0.23623601 0.54804701 -0.80239499 1.905766e-42
1.52583000 32.32329900 467.63699000 0.23492800 0.52632201 -0.81718600 1.905766e-42
2.07381010 33.72269800 468.62799000 0.23530300 0.51091897 -0.82679802 1.905766e-42
2.10283990 35.24280200 469.59100000 0.23320200 0.49893299 -0.83467501 1.905766e-42
2.48685000 36.71900200 470.54700000 0.22271900 0.48880500 -0.84348398 1.905766e-42
3.09991000 38.11090100 471.51001000 0.20336400 0.47803199 -0.85447502 1.905766e-42
3.16572000 39.66540100 472.41501000 0.18017700 0.47072700 -0.86368501 1.905766e-42
3.24166010 41.19599900 473.35901000 0.15047900 0.45166799 -0.87940401 1.905766e-42
4.53248980 42.31750100 473.92099000 0.12616900 0.42870101 -0.89459300 1.905766e-42
6.22935010 42.74020000 474.34799000 0.10396900 0.41263300 -0.90494400 1.905766e-42
8.02194980 42.58150100 474.38501000 0.05981790 0.40996999 -0.91013497 1.905766e-42
9.79457000 42.26879900 474.39301000 0.05771750 0.40047899 -0.91448599 1.905766e-42
11.58490000 42.36959800 474.54901000 0.06040250 0.39726001 -0.91571599 1.905766e-42
13.35610000 42.38560100 474.86899000 0.05096180 0.40186700 -0.91427898 1.905766e-42
15.09950000 42.77780200 475.08600000 0.03809580 0.40833801 -0.91203499 1.905766e-42
16.84800000 43.15959900 475.27802000 0.03078600 0.41373500 -0.90987599 1.905766e-42
18.64570000 43.21099900 475.20200000 0.05246830 0.41666400 -0.90754497 1.905766e-42
20.43350000 43.16379900 475.40500000 0.07940410 0.42292300 -0.90267998 1.905766e-42
22.01779900 43.79219800 475.98401000 0.12448100 0.42349401 -0.89730501 1.905766e-42
23.78480000 43.95800000 476.28400000 0.18938200 0.42555800 -0.88489199 1.905766e-42
25.52920000 43.75199900 476.67801000 0.25592700 0.43157899 -0.86500901 1.905766e-42
26.89819900 42.61840100 476.39401000 0.24867500 0.46651801 -0.84883600 1.905766e-42
28.61170000 42.20579900 476.76001000 0.23753101 0.49385899 -0.83647001 1.905766e-42
29.99360100 41.07870100 476.51501000 0.20521000 0.52382499 -0.82673800 1.905766e-42
31.77030000 40.85080000 476.69199000 0.10263700 0.54823500 -0.83000201 1.905766e-42
33.36679800 40.17219900 476.21201000 -0.02892490 0.55019200 -0.83453703 1.905766e-42
35.15399900 40.15319800 475.99799000 -0.19697200 0.52120101 -0.83039302 1.905766e-42
