# .PCD v0.7 - Point Cloud Data file format
# 2 90 0
# 1 38 0
# 39 90 0
VERSION 0.7
FIELDS x y z normal_x normal_y normal_z curvature
SIZE 4 4 4 4 4 4 4
TYPE F F F F F F F
COUNT 1 1 1 1 1 1 1
WIDTH 90
HEIGHT 1
VIEWPOINT 0 0 0 1 0 0 0
POINTS 90
DATA ascii
18.94899900 -2.77248000 448.88199000 0.08328960 0.85760301 -0.50752401 1.905766e-42
17.31020000 -2.57470990 448.79401000 0.09129180 0.86405498 -0.49505100 1.905766e-42
15.79990000 -1.91252990 449.51501000 0.07123720 0.85275602 -0.51742798 1.905766e-42
15.91180000 -1.15244000 451.14301000 0.08718970 0.84883499 -0.52141798 1.905766e-42
15.02750000 -0.23440200 452.41400000 0.09841850 0.84759402 -0.52143902 1.905766e-42
14.45340000 0.83214402 453.74600000 0.11792900 0.84896398 -0.51512402 1.905766e-42
13.43480000 1.68952000 454.95700000 0.12189500 0.84745401 -0.51668501 1.905766e-42
13.53440000 2.55714010 456.53101000 0.15373600 0.85085601 -0.50240397 1.905766e-42
13.07940000 3.48452000 458.00500000 0.16476700 0.84569502 -0.50759399 1.905766e-42
12.43380000 4.45319990 459.37799000 0.15188199 0.83420902 -0.53012002 1.905766e-42
11.84360000 5.45540000 460.75201000 0.12328100 0.80861902 -0.57527101 1.905766e-42
11.04710000 6.37887000 462.07599000 0.09267400 0.78017598 -0.61865699 1.905766e-42
10.56780000 7.58628990 463.32199000 0.07966600 0.75271702 -0.65350598 1.905766e-42
9.74088000 8.63276960 464.53000000 0.07342450 0.73232299 -0.67698699 1.905766e-42
9.08782010 9.83858970 465.69601000 0.08170070 0.71606398 -0.69323701 1.905766e-42
8.20769980 10.97260000 466.78201000 0.08695020 0.70485699 -0.70400000 1.905766e-42
6.91872980 11.98950000 467.51999000 0.07220560 0.68735403 -0.72272402 1.905766e-42
6.06654980 13.25970000 468.46899000 0.08627890 0.67853701 -0.72948200 1.905766e-42
5.12752010 14.45950000 469.42801000 0.10293000 0.66959900 -0.73555601 1.905766e-42
4.09657000 15.61710000 470.34299000 0.12653200 0.66125101 -0.73941600 1.905766e-42
3.43694000 16.90819900 471.40900000 0.15794700 0.66402298 -0.73083901 1.905766e-42
3.21945000 18.24780100 472.59201000 0.20204900 0.67393601 -0.71062398 1.905766e-42
2.11737990 19.44210100 473.36600000 0.21702300 0.66453600 -0.71504802 1.905766e-42
1.71928000 20.79500000 474.48401000 0.24692000 0.66573101 -0.70415401 1.905766e-42
0.64509100 21.84630000 475.47501000 0.26663101 0.65484899 -0.70716399 1.905766e-42
0.40609699 23.35010000 476.43500000 0.28727001 0.64424700 -0.70881701 1.905766e-42
-0.66523802 24.60250100 477.15799000 0.30888501 0.62807900 -0.71421802 1.905766e-42
-1.97416000 25.76989900 477.56299000 0.33946300 0.61201900 -0.71428102 1.905766e-42
-2.77968000 27.21299900 478.27600000 0.35886100 0.59688699 -0.71759599 1.905766e-42
-3.87790990 28.52160100 478.84299000 0.33548501 0.57717502 -0.74452603 1.905766e-42
-5.27039000 29.62159900 479.14499000 0.28590599 0.55704099 -0.77971900 1.905766e-42
-6.48403980 30.82000000 479.72000000 0.26065999 0.54140401 -0.79933602 1.905766e-42
-7.07101010 32.38209900 480.39499000 0.26813501 0.53027201 -0.80431098 1.905766e-42
-8.41421990 33.52450200 480.75699000 0.23706999 0.50969702 -0.82704699 1.905766e-42
-8.89132980 35.06570100 481.55499000 0.24804200 0.50183302 -0.82863700 1.905766e-42
-10.29930000 36.13600200 481.88901000 0.20812100 0.48880500 -0.84720403 1.905766e-42
-10.38980000 37.71080000 482.75601000 0.22862200 0.48540899 -0.84386599 1.905766e-42
-9.93482970 39.19070100 483.67499000 0.28460500 0.49003199 -0.82393497 1.905766e-42
-9.62125020 40.63990000 484.69501000 0.35398099 0.49469301 -0.79371101 1.905766e-42
-8.36499980 41.37559900 485.75400000 0.38496801 0.48037300 -0.78806198 1.905766e-42
-6.67953010 41.04190100 486.29001000 0.32502401 0.47525901 -0.81761098 1.905766e-42
-4.97129010 40.81600200 486.81100000 0.28227299 0.47892499 -0.83123600 1.905766e-42
-3.34509990 40.04919800 486.72400000 0.25457001 0.48074499 -0.83909398 1.905766e-42
-1.62831000 39.76800200 487.18600000 0.24259500 0.48552901 -0.83988601 1.905766e-42
0.09701140 39.35129900 487.48599000 0.25496799 0.49390700 -0.83129197 1.905766e-42
1.83169000 39.11420100 487.90399000 0.26127300 0.49826100 -0.82672399 1.905766e-42
3.53467010 38.54180100 488.01401000 0.22118101 0.48979899 -0.84331298 1.905766e-42
5.29974990 38.38639800 488.33099000 0.16898200 0.47861800 -0.86160898 1.905766e-42
6.94147010 37.65630000 488.22299000 0.15658399 0.48349699 -0.86122698 1.905766e-42
8.64741040 37.08319900 488.18600000 0.14828600 0.49234399 -0.85767603 1.905766e-42
10.38100000 36.84370000 488.60800000 0.13667201 0.49884799 -0.85584599 1.905766e-42
11.90110000 36.00659900 488.13000000 0.11770700 0.50160098 -0.85705400 1.905766e-42
13.33610000 35.01559800 487.68399000 0.09786610 0.50280499 -0.85884202 1.905766e-42
15.03380000 34.44049800 487.51999000 0.08033070 0.50764698 -0.85781199 1.905766e-42
16.76969900 34.32000000 487.98099000 0.09183080 0.53174800 -0.84190899 1.905766e-42
17.85090100 33.19440100 487.08401000 0.06958370 0.53272402 -0.84342301 1.905766e-42
19.04130000 32.05460000 486.35999000 0.04625150 0.54139400 -0.83949602 1.905766e-42
19.76199900 30.64959900 485.49600000 0.02528590 0.54479301 -0.83818901 1.905766e-42
20.61400000 29.31049900 484.64700000 0.00876570 0.55087203 -0.83454400 1.905766e-42
22.09380000 28.45719900 484.07999000 -0.00697942 0.55792898 -0.82985902 1.905766e-42
23.17550100 27.21310000 483.35699000 -0.02148300 0.56854099 -0.82237500 1.905766e-42
23.67170000 25.87290000 482.26300000 -0.02759450 0.58226901 -0.81252801 1.905766e-42
24.41939900 24.58250000 481.25500000 -0.03122980 0.59756100 -0.80121499 1.905766e-42
25.06819900 23.25370000 480.22800000 -0.03091900 0.61477500 -0.78809601 1.905766e-42
26.12630100 22.14340000 479.28601000 -0.02717050 0.62849301 -0.77734101 1.905766e-42
27.12019900 20.93429900 478.39700000 -0.01890050 0.64142603 -0.76695198 1.905766e-42
27.69689900 19.69140100 477.23001000 -0.01246050 0.65729201 -0.75353301 1.905766e-42
28.45140100 18.46559900 476.14899000 -0.00486331 0.67258698 -0.74000198 1.905766e-42
28.54040000 17.17160000 474.90100000 -0.00985998 0.68709499 -0.72650099 1.905766e-42
29.49449900 16.06440000 473.85001000 0.00269717 0.69801700 -0.71607602 1.905766e-42
30.01700000 14.83200000 472.64700000 0.00498100 0.70663399 -0.70756203 1.905766e-42
30.22300000 13.59110000 471.35999000 -0.00557593 0.71264303 -0.70150501 1.905766e-42
30.07810000 12.32340000 470.09000000 -0.03788500 0.71320200 -0.69993401 1.905766e-42
30.89489900 11.19880000 468.94601000 -0.02439330 0.72582299 -0.68744898 1.905766e-42
31.05950000 10.00500000 467.60901000 -0.03289350 0.73419398 -0.67814302 1.905766e-42
31.13430000 8.82730960 466.25000000 -0.01217010 0.75227702 -0.65873498 1.905766e-42
31.22540100 7.60587980 464.93100000 0.00516412 0.76705998 -0.64155501 1.905766e-42
31.10890000 6.46724990 463.54199000 0.02054370 0.77984297 -0.62563801 1.905766e-42
31.10520000 5.40212010 462.09100000 0.02247880 0.78622699 -0.61752898 1.905766e-42
30.30489900 4.42995980 460.80399000 -0.01518530 0.78478801 -0.61957902 1.905766e-42
30.19400000 3.20681000 459.48801000 -0.02352180 0.79277098 -0.60906601 1.905766e-42
29.82099900 2.16084000 458.07199000 -0.00590144 0.81136298 -0.58451200 1.905766e-42
29.42939900 1.09844990 456.67300000 0.02793280 0.82783502 -0.56027597 1.905766e-42
28.49539900 0.38267499 455.31000000 0.05411520 0.83415800 -0.54886401 1.905766e-42
27.40320000 -0.36171001 454.08899000 0.01650050 0.82079399 -0.57098502 1.905766e-42
26.63200000 -1.34359000 452.79199000 -0.00878309 0.82275999 -0.56832099 1.905766e-42
25.29130000 -1.90658000 451.73099000 0.03411570 0.86033303 -0.50858998 1.905766e-42
23.93420000 -2.40468000 450.65900000 0.11194100 0.89458799 -0.43264401 1.905766e-42
22.43899900 -2.62753010 449.68201000 0.11381100 0.90036398 -0.41999000 1.905766e-42
20.72990000 -2.79700990 449.14301000 0.08033090 0.87900901 -0.46998900 1.905766e-42
