# .PCD v0.7 - Point Cloud Data file format
# 2 92 0
# 1 53 0
# 54 92 0
VERSION 0.7
FIELDS x y z normal_x normal_y normal_z curvature
SIZE 4 4 4 4 4 4 4
TYPE F F F F F F F
COUNT 1 1 1 1 1 1 1
WIDTH 92
HEIGHT 1
VIEWPOINT 0 0 0 1 0 0 0
POINTS 92
DATA ascii
22.13699900 -11.72610000 404.52899000 0.09345310 0.88478500 -0.45653200 1.905766e-42
22.03570000 -11.21160000 405.59900000 0.10664700 0.87533301 -0.47161201 1.905766e-42
20.84180100 -10.48090000 406.73099000 0.10450200 0.87481701 -0.47304901 1.905766e-42
19.50600100 -9.76996040 407.70599000 0.14402200 0.86350203 -0.48334500 1.905766e-42
18.23049900 -9.00660990 408.72101000 0.17168400 0.85618299 -0.48731500 1.905766e-42
16.81040000 -8.25459000 409.53201000 0.19921599 0.84864599 -0.49001300 1.905766e-42
15.70010000 -7.33641000 410.61099000 0.21864600 0.84375501 -0.49017501 1.905766e-42
14.94020000 -6.33266020 411.89700000 0.22170800 0.84429097 -0.48787099 1.905766e-42
13.64920000 -5.43802980 412.77600000 0.22853200 0.84168297 -0.48922700 1.905766e-42
12.80260000 -4.44305990 414.01401000 0.24511600 0.83237100 -0.49706799 1.905766e-42
12.15510000 -3.48495010 415.39401000 0.26377100 0.81983399 -0.50822997 1.905766e-42
10.57300000 -2.81559990 415.93100000 0.29012099 0.80335599 -0.52004600 1.905766e-42
10.36120000 -1.67990990 417.31201000 0.30355501 0.79059601 -0.53180099 1.905766e-42
8.92422010 -0.87194800 418.03500000 0.33160600 0.77715999 -0.53484601 1.905766e-42
9.08285050 0.31947199 419.37399000 0.30110601 0.78012002 -0.54840499 1.905766e-42
8.93647000 1.53687000 420.69199000 0.26975399 0.78049302 -0.56397098 1.905766e-42
8.64171030 2.64492010 422.07999000 0.24021301 0.77354002 -0.58645803 1.905766e-42
8.20983030 3.59431000 423.54700000 0.23238800 0.74872702 -0.62080902 1.905766e-42
8.47574040 4.73848010 424.91101000 0.23619699 0.71713001 -0.65569502 1.905766e-42
8.68828010 5.88249020 426.28400000 0.23969001 0.70924503 -0.66296297 1.905766e-42
8.76054000 7.05484010 427.64801000 0.24218400 0.72205299 -0.64806402 1.905766e-42
9.25137040 8.24265960 428.90799000 0.24813700 0.73334998 -0.63295102 1.905766e-42
9.54106040 9.29448990 430.34000000 0.25328600 0.74150598 -0.62130100 1.905766e-42
10.14990000 10.33130000 431.67899000 0.27290499 0.74105799 -0.61347902 1.905766e-42
11.02790000 11.06020000 433.07199000 0.28029001 0.71787000 -0.63726002 1.905766e-42
11.60720000 12.04380000 434.46301000 0.27400401 0.69554597 -0.66418201 1.905766e-42
11.82750000 13.13610000 435.87701000 0.26259100 0.67828298 -0.68627799 1.905766e-42
12.74250000 14.23410000 436.97101000 0.24592499 0.66429800 -0.70585400 1.905766e-42
13.81700000 15.25720000 437.98999000 0.22586700 0.65511000 -0.72098202 1.905766e-42
14.95700000 16.06110000 439.12799000 0.21289299 0.65269500 -0.72709399 1.905766e-42
15.71900000 16.95260000 440.49301000 0.19664501 0.65421098 -0.73030001 1.905766e-42
17.16040000 17.54920000 441.39099000 0.19182800 0.64395303 -0.74062598 1.905766e-42
18.24060100 18.55139900 442.42499000 0.17719300 0.64062500 -0.74712902 1.905766e-42
19.74379900 19.12389900 443.23300000 0.17334200 0.62506998 -0.76107800 1.905766e-42
20.82889900 20.18140000 444.20499000 0.15618800 0.62172198 -0.76750702 1.905766e-42
21.86370100 21.17390100 445.29300000 0.14123601 0.61789799 -0.77346897 1.905766e-42
23.28410000 21.91720000 446.11099000 0.13528401 0.60793698 -0.78237498 1.905766e-42
24.58950000 22.72960100 447.04700000 0.12778699 0.60148400 -0.78859901 1.905766e-42
26.04760000 23.46050100 447.80899000 0.12298500 0.59485298 -0.79437101 1.905766e-42
27.53109900 24.13380100 448.57401000 0.11687800 0.58975798 -0.79907697 1.905766e-42
29.15140000 24.65189900 449.16299000 0.10396100 0.58780199 -0.80229700 1.905766e-42
30.63400100 25.40390000 449.85300000 0.09520960 0.58937901 -0.80222702 1.905766e-42
32.12960100 26.15379900 450.51700000 0.10794300 0.59002799 -0.80013502 1.905766e-42
33.75159800 26.71330100 451.06100000 0.15239599 0.59357798 -0.79021502 1.905766e-42
35.26860000 27.29620000 451.83499000 0.21217200 0.59601700 -0.77443302 1.905766e-42
36.71540100 27.66150100 452.84100000 0.24912401 0.59020001 -0.76785499 1.905766e-42
38.28350100 27.98490000 453.66400000 0.26727700 0.58423102 -0.76631403 1.905766e-42
39.78739900 28.68950100 454.35800000 0.25957200 0.58267999 -0.77013397 1.905766e-42
41.41289900 28.85450000 455.11301000 0.18595700 0.61812299 -0.76376897 1.905766e-42
42.87459900 28.78070100 456.16101000 0.12228900 0.64618599 -0.75331903 1.905766e-42
44.36619900 28.35090100 455.25000000 0.09142100 0.67481703 -0.73229998 1.905766e-42
46.11890000 27.94430000 455.19601000 0.18086100 0.65798301 -0.73099101 1.905766e-42
47.68690100 27.06040000 455.19800000 0.27553901 0.64562201 -0.71221602 1.905766e-42
49.06330100 26.08760100 454.56601000 0.32072800 0.62705398 -0.70988500 1.905766e-42
48.80180000 24.83760100 453.29800000 0.34837601 0.59906799 -0.72093803 1.905766e-42
48.56010100 23.44549900 452.18201000 0.37828800 0.57178098 -0.72798699 1.905766e-42
48.00400200 22.21500000 450.99200000 0.38722301 0.56589103 -0.72789103 1.905766e-42
47.25640100 21.16770000 449.73300000 0.37617499 0.57364899 -0.72761202 1.905766e-42
46.92219900 19.76759900 448.65302000 0.37715000 0.58098602 -0.72125798 1.905766e-42
46.49020000 18.32090000 447.67300000 0.37242401 0.58570099 -0.71989900 1.905766e-42
45.78920000 17.79820100 446.09900000 0.33463401 0.60281801 -0.72431397 1.905766e-42
44.98600000 16.78030000 444.85101000 0.30478999 0.61735898 -0.72523898 1.905766e-42
44.54660000 15.52170000 443.64099000 0.30491099 0.61993802 -0.72298402 1.905766e-42
43.95500200 14.30370000 442.45499000 0.29081601 0.62275201 -0.72636497 1.905766e-42
43.34109900 13.08350000 441.28299000 0.27054301 0.62583202 -0.73153299 1.905766e-42
42.90110000 11.77920000 440.12299000 0.25671399 0.62953198 -0.73334002 1.905766e-42
42.06600200 10.84560000 438.83099000 0.21063200 0.64237499 -0.73687798 1.905766e-42
40.85240200 10.11440000 437.72000000 0.13424399 0.65804100 -0.74091899 1.905766e-42
40.72020000 8.87421040 436.42300000 0.13583800 0.68280798 -0.71785903 1.905766e-42
40.19879900 7.68503000 435.17599000 0.11575800 0.70994002 -0.69468403 1.905766e-42
39.41709900 6.50337980 434.06601000 0.08820710 0.73326403 -0.67419797 1.905766e-42
38.54489900 5.35103990 432.99301000 0.06380890 0.75256300 -0.65542197 1.905766e-42
37.77000000 4.31564000 431.74100000 0.04958130 0.76844400 -0.63799298 1.905766e-42
37.34759900 3.29185010 430.32199000 0.04202050 0.77799797 -0.62686002 1.905766e-42
36.61259800 2.47012000 428.89899000 0.03024430 0.78563702 -0.61794800 1.905766e-42
35.58760100 1.61249010 427.69299000 0.02121850 0.79068601 -0.61185402 1.905766e-42
35.31819900 0.46787301 426.32999000 0.01729320 0.79606599 -0.60496300 1.905766e-42
34.07669800 -0.37047899 425.33200000 0.01878630 0.79787999 -0.60252398 1.905766e-42
33.47499800 -1.42973010 424.00699000 0.02687450 0.80527502 -0.59229302 1.905766e-42
32.68820200 -2.36826990 422.68799000 0.03691450 0.81309497 -0.58095998 1.905766e-42
32.09790000 -3.25544000 421.23700000 0.04617890 0.82085198 -0.56927198 1.905766e-42
31.37060000 -4.07365990 419.80899000 0.05557110 0.82880199 -0.55677599 1.905766e-42
30.78970000 -4.98932980 418.37201000 0.06385270 0.83703101 -0.54341602 1.905766e-42
29.79490100 -5.77240990 417.09201000 0.07228840 0.84492499 -0.52997702 1.905766e-42
29.24819900 -6.72979020 415.66901000 0.08373710 0.85240299 -0.51613599 1.905766e-42
28.58849900 -7.57868000 414.22601000 0.09888920 0.85972703 -0.50108999 1.905766e-42
27.92840000 -8.30455970 412.71701000 0.11791300 0.86680698 -0.48450100 1.905766e-42
26.68269900 -8.62545010 411.45801000 0.12902400 0.87144101 -0.47322699 1.905766e-42
25.95890000 -9.34296040 409.97400000 0.13206300 0.86963701 -0.47569999 1.905766e-42
25.40600000 -10.23730000 408.51300000 0.13292301 0.86975902 -0.47523701 1.905766e-42
24.11280100 -10.62860000 407.32401000 0.12254300 0.87291801 -0.47222599 1.905766e-42
23.20520000 -11.21740000 405.88501000 0.10041500 0.88297999 -0.45854500 1.905766e-42
