# .PCD v0.7 - Point Cloud Data file format
# 3 84 -2
# 1 33 0
# 34 52 0
# 53 84 0
VERSION 0.7
FIELDS x y z normal_x normal_y normal_z curvature
SIZE 4 4 4 4 4 4 4
TYPE F F F F F F F
COUNT 1 1 1 1 1 1 1
WIDTH 84
HEIGHT 1
VIEWPOINT 0 0 0 1 0 0 0
POINTS 84
DATA ascii
0.52764302 1.93290000 387.75201000 0.64309800 0.01895800 -0.76554900 1.905766e-42
0.78154898 1.94895010 387.97601000 0.64453697 0.01412400 -0.76444298 1.905766e-42
0.86391902 3.74694990 387.99600000 0.62196499 0.03203940 -0.78238899 1.905766e-42
1.96206000 4.89047000 388.84900000 0.61585301 0.02076220 -0.78758699 1.905766e-42
2.91493010 6.03722000 389.85699000 0.60786700 0.01118110 -0.79395998 1.905766e-42
4.23964020 6.79024980 390.81500000 0.60172999 -0.00489026 -0.79868501 1.905766e-42
5.70337010 6.93784000 391.85199000 0.60512501 -0.02502310 -0.79573703 1.905766e-42
6.72012000 8.25502970 392.53900000 0.61291701 -0.02009780 -0.78989202 1.905766e-42
6.99836020 10.02000000 392.75699000 0.60265303 -0.00319802 -0.79799700 1.905766e-42
7.99872020 11.35940000 393.42401000 0.60708398 -0.00688113 -0.79460800 1.905766e-42
8.78598020 12.87380000 393.99600000 0.60429198 -0.01501680 -0.79662102 1.905766e-42
9.95722960 13.90740000 394.89001000 0.58446199 -0.05035710 -0.80985701 1.905766e-42
11.30260000 14.71550000 395.77200000 0.55158597 -0.08663700 -0.82960600 1.905766e-42
12.55500000 15.83980000 396.41000000 0.51410401 -0.11048700 -0.85058200 1.905766e-42
13.49650000 17.33340100 396.76001000 0.47952199 -0.11144100 -0.87042499 1.905766e-42
14.86690000 18.31310100 397.39401000 0.49331701 -0.08415860 -0.86576903 1.905766e-42
15.35720000 20.03500000 397.58099000 0.46815100 -0.02616430 -0.88326102 1.905766e-42
16.81200000 20.73550000 398.37601000 0.50241601 -0.06009900 -0.86253500 1.905766e-42
17.97270000 21.90420000 399.10199000 0.51908797 -0.10261800 -0.84853798 1.905766e-42
19.52899900 21.99840000 400.00101000 0.47360301 -0.18825699 -0.86038297 1.905766e-42
21.12070100 22.38089900 400.75000000 0.37711099 -0.26956099 -0.88607198 1.905766e-42
22.86570000 22.43560000 401.18799000 0.26310000 -0.32290000 -0.90912801 1.905766e-42
24.51129900 23.16280000 401.24399000 0.13193800 -0.38341200 -0.91410500 1.905766e-42
25.91530000 24.22310100 400.86401000 0.01853240 -0.44398800 -0.89584100 1.905766e-42
27.33120000 25.15760000 400.26199000 -0.09144820 -0.48565799 -0.86935300 1.905766e-42
28.80600000 25.91990100 399.56699000 -0.19617499 -0.50801003 -0.83871400 1.905766e-42
30.02829900 26.86820000 398.64700000 -0.26548499 -0.51701897 -0.81376201 1.905766e-42
31.05240100 27.97990000 397.66901000 -0.29147699 -0.51920700 -0.80340803 1.905766e-42
32.63150000 28.07690000 396.81100000 -0.32931501 -0.52124798 -0.78730702 1.905766e-42
34.01680000 28.78860100 395.90799000 -0.36610901 -0.52780098 -0.76641399 1.905766e-42
35.38959900 29.26100000 394.84399000 -0.40787500 -0.54396802 -0.73330498 1.905766e-42
36.91130100 29.22810000 393.88300000 -0.44917601 -0.55768400 -0.69801801 1.905766e-42
38.33649800 29.28700100 392.78500000 -0.48194599 -0.56754601 -0.66754800 1.905766e-42
39.38719900 30.10190000 391.57199000 -0.51174098 -0.58978200 -0.62472302 1.905766e-42
40.75970100 28.98850100 391.23099000 -0.51569700 -0.58493203 -0.62602901 1.905766e-42
42.27349900 28.05649900 391.51300000 -0.52225697 -0.57502598 -0.62975597 1.905766e-42
42.40100100 26.44580100 392.30701000 -0.52915901 -0.54520202 -0.65018898 1.905766e-42
42.97129800 24.90060000 393.03299000 -0.55355197 -0.49579000 -0.66915900 1.905766e-42
43.83739900 23.40570100 393.53799000 -0.57822001 -0.45690700 -0.67594200 1.905766e-42
44.02600100 21.77440100 394.27499000 -0.58952498 -0.43026400 -0.68361801 1.905766e-42
44.79100000 20.17930000 394.60699000 -0.61002898 -0.40221599 -0.68270600 1.905766e-42
45.38090100 18.54120100 395.06400000 -0.62562799 -0.37288699 -0.68523300 1.905766e-42
45.54840100 16.84950100 395.65601000 -0.63092101 -0.34037000 -0.69719899 1.905766e-42
46.18690100 15.18960000 395.93399000 -0.63798398 -0.30882499 -0.70541000 1.905766e-42
46.36990000 13.46130000 396.40201000 -0.63603699 -0.27999499 -0.71906799 1.905766e-42
46.76530100 11.73200000 396.70700000 -0.63547802 -0.24753200 -0.73136598 1.905766e-42
47.13299900 9.98587040 396.94400000 -0.63699299 -0.19935100 -0.74464703 1.905766e-42
47.22150000 8.20936970 397.22000000 -0.63731599 -0.14706001 -0.75644100 1.905766e-42
47.19010200 6.43155000 397.50000000 -0.63547498 -0.11124700 -0.76406503 1.905766e-42
47.51409900 4.66233020 397.57001000 -0.63530803 -0.08327250 -0.76775599 1.905766e-42
47.89659900 2.90359000 397.59201000 -0.63879699 -0.03805160 -0.76843399 1.905766e-42
47.42649800 1.18039000 397.81500000 -0.64054400 0.00231347 -0.76791799 1.905766e-42
47.21239900 -0.60436100 397.90900000 -0.63953000 0.03277170 -0.76806802 1.905766e-42
45.94739900 -1.43598000 398.88199000 -0.63249302 0.04995860 -0.77295297 1.905766e-42
44.59610000 -1.03245000 400.00101000 -0.59398401 0.05244690 -0.80276501 1.905766e-42
43.12929900 -1.44658990 400.95801000 -0.54903799 0.05898040 -0.83371300 1.905766e-42
41.75210200 -2.25750990 401.78601000 -0.50980997 0.05448270 -0.85856003 1.905766e-42
40.23090000 -2.79185010 402.58701000 -0.46777299 0.03664340 -0.88308901 1.905766e-42
38.64950200 -3.15121010 403.36801000 -0.42247999 0.02520740 -0.90602201 1.905766e-42
36.99760100 -3.39910010 404.03900000 -0.37524799 0.02011240 -0.92670602 1.905766e-42
35.35509900 -2.93478990 404.60999000 -0.32747200 0.02086880 -0.94463003 1.905766e-42
33.66529800 -2.61622000 405.14200000 -0.26627901 0.02849110 -0.96347499 1.905766e-42
31.98940100 -3.13847990 405.54001000 -0.16482700 0.04487060 -0.98530102 1.905766e-42
30.20319900 -3.19006990 405.75699000 -0.04541080 0.05583180 -0.99740702 1.905766e-42
28.47839900 -3.69315000 405.64700000 0.08372930 0.05267960 -0.99509501 1.905766e-42
26.70070100 -3.48446010 405.45599000 0.20604400 0.05162870 -0.97718000 1.905766e-42
25.12789900 -4.25367020 405.03799000 0.30883199 0.02527720 -0.95078099 1.905766e-42
23.47540100 -4.41766980 404.34399000 0.41920599 0.02302890 -0.90759897 1.905766e-42
21.98060000 -5.01472000 403.53799000 0.50634998 0.00167281 -0.86232603 1.905766e-42
20.44640000 -5.19839000 402.61499000 0.52551198 -0.03907220 -0.84988898 1.905766e-42
18.89380100 -5.31273980 401.71100000 0.53292900 -0.06048350 -0.84399599 1.905766e-42
17.43600100 -4.86400990 400.75601000 0.53614801 -0.04430330 -0.84296101 1.905766e-42
16.03039900 -4.20311020 399.84601000 0.53946000 -0.01367770 -0.84189999 1.905766e-42
14.54770000 -4.06931020 398.83401000 0.55664903 -0.00997735 -0.83068800 1.905766e-42
13.12170000 -3.73300000 397.78799000 0.57681501 -0.01289480 -0.81677300 1.905766e-42
11.64900000 -4.13427020 396.83499000 0.58952701 -0.02394680 -0.80739403 1.905766e-42
10.22220000 -3.97650000 395.74899000 0.59880799 -0.01922380 -0.80066198 1.905766e-42
8.97428990 -3.08829000 394.80301000 0.59993899 0.00071565 -0.80004603 1.905766e-42
7.59310010 -2.63436010 393.74200000 0.60924900 -0.00559278 -0.79295897 1.905766e-42
6.19996980 -1.99177000 392.79999000 0.62506002 -0.01709580 -0.78039002 1.905766e-42
4.86493020 -1.57643000 391.66699000 0.64177698 -0.02801280 -0.76637900 1.905766e-42
3.61367010 -1.18753000 390.43301000 0.65611899 -0.03478020 -0.75385600 1.905766e-42
2.39453010 -0.40187499 389.36700000 0.66251498 -0.02530120 -0.74862099 1.905766e-42
1.14549010 0.33328000 388.29901000 0.66126800 -0.00730298 -0.75011498 1.905766e-42
