# .PCD v0.7 - Point Cloud Data file format
# 3 339 0
# 1 148 0
# 149 317 0
# 318 339 0
VERSION 0.7
FIELDS x y z normal_x normal_y normal_z curvature
SIZE 4 4 4 4 4 4 4
TYPE F F F F F F F
COUNT 1 1 1 1 1 1 1
WIDTH 339
HEIGHT 1
VIEWPOINT 0 0 0 1 0 0 0
POINTS 339
DATA ascii
7.20424990 116.14300000 564.75098000 0.83117902 0.50914299 -0.22341600 1.905766e-42
7.65572980 114.79400000 563.64801000 0.82176101 0.52227002 -0.22791199 1.905766e-42
8.13140010 113.43100000 562.57397000 0.81099600 0.53675002 -0.23277700 1.905766e-42
8.28108020 112.37900000 561.12097000 0.80324799 0.54587501 -0.23835500 1.905766e-42
8.87061020 110.97400000 560.16199000 0.78939700 0.56337798 -0.24383900 1.905766e-42
9.47482970 109.54900000 559.24402000 0.77365899 0.58235198 -0.24963599 1.905766e-42
9.85352990 108.44600000 557.87299000 0.76145500 0.59537297 -0.25635499 1.905766e-42
10.37220000 106.86200000 557.19202000 0.74184299 0.61709702 -0.26241300 1.905766e-42
10.88090000 105.94300000 555.73102000 0.72855002 0.62961900 -0.26980400 1.905766e-42
11.46610000 104.80000000 554.46899000 0.71104300 0.64609498 -0.27745101 1.905766e-42
12.32140000 103.44700000 553.64600000 0.68633199 0.66925597 -0.28468299 1.905766e-42
12.91140000 102.30800000 552.38300000 0.66649097 0.68554097 -0.29295599 1.905766e-42
13.68230000 101.05500000 551.34601000 0.64156300 0.70544302 -0.30124399 1.905766e-42
14.50530000 99.71859700 550.46503000 0.61349499 0.72646397 -0.30963501 1.905766e-42
15.14960000 98.97850000 549.59601000 0.59505397 0.73885900 -0.31622401 1.905766e-42
15.86020000 98.02829700 548.24200000 0.57348102 0.75173402 -0.32560000 1.905766e-42
16.63710000 96.87229900 547.10199000 0.54770797 0.76651502 -0.33536699 1.905766e-42
17.37389900 96.03019700 545.69202000 0.52765000 0.77614498 -0.34523100 1.905766e-42
17.89399900 95.12010200 544.22900000 0.51202703 0.78217500 -0.35500699 1.905766e-42
18.59300000 94.07749900 542.93903000 0.49232799 0.78994602 -0.36551100 1.905766e-42
19.47170100 92.96589700 541.82898000 0.47014099 0.79618299 -0.38086799 1.905766e-42
19.90160000 91.99289700 540.37701000 0.46011600 0.79430002 -0.39671201 1.905766e-42
20.48740000 90.93199900 539.04602000 0.44745901 0.79395401 -0.41160399 1.905766e-42
21.12389900 89.86650100 537.74200000 0.43333200 0.79418498 -0.42602199 1.905766e-42
22.15889900 88.73539700 536.79901000 0.41450799 0.79852301 -0.43651301 1.905766e-42
22.77940000 87.80819700 535.38702000 0.39912200 0.79848403 -0.45069399 1.905766e-42
23.56300000 86.81349900 534.10699000 0.38093200 0.80022699 -0.46316999 1.905766e-42
24.07519900 85.82330300 532.69397000 0.36436200 0.79975998 -0.47710001 1.905766e-42
24.58079900 84.77719900 531.31897000 0.34672999 0.79946202 -0.49054900 1.905766e-42
25.41180000 83.58210000 530.26001000 0.32482401 0.80268699 -0.50018299 1.905766e-42
25.61980100 82.58809700 528.77399000 0.30893800 0.79978198 -0.51468998 1.905766e-42
26.05160000 81.40129900 527.49200000 0.28932399 0.79919499 -0.52685702 1.905766e-42
27.03540000 80.30000300 526.46198000 0.26495001 0.80331397 -0.53337401 1.905766e-42
27.94730000 79.02719900 525.57501000 0.24087800 0.80712998 -0.53899902 1.905766e-42
27.95730000 78.39869700 523.88800000 0.22623400 0.80181301 -0.55309600 1.905766e-42
28.74210000 77.36959800 522.63702000 0.20261601 0.80330998 -0.56003499 1.905766e-42
29.17350000 76.39779700 521.18402000 0.18156099 0.80151200 -0.56974900 1.905766e-42
29.43199900 75.36879700 519.72998000 0.16142100 0.79827201 -0.58026302 1.905766e-42
30.11599900 74.24459800 518.50201000 0.13830499 0.79613602 -0.58910000 1.905766e-42
30.62310000 73.08460200 517.22302000 0.11713100 0.79164100 -0.59965402 1.905766e-42
30.81920100 71.92949700 515.85602000 0.09888820 0.78410500 -0.61269897 1.905766e-42
31.38719900 70.78369900 514.58899000 0.07890770 0.77874798 -0.62235498 1.905766e-42
31.77780000 69.70279700 513.20398000 0.06073450 0.77143300 -0.63340598 1.905766e-42
32.15110000 68.57119800 511.85501000 0.04326770 0.76356202 -0.64428401 1.905766e-42
32.90390000 67.25789600 510.88101000 0.02462900 0.75830299 -0.65143698 1.905766e-42
33.02349900 66.29859900 509.36301000 0.01014980 0.74817997 -0.66341799 1.905766e-42
33.57830000 65.16980000 508.07501000 -0.00683494 0.74037099 -0.67216402 1.905766e-42
33.73080100 64.11239600 506.62601000 -0.02077450 0.72992200 -0.68321401 1.905766e-42
33.99160000 62.86930100 505.35101000 -0.03512020 0.71977001 -0.69332403 1.905766e-42
34.20809900 61.61809900 504.07501000 -0.04876560 0.70918101 -0.70333803 1.905766e-42
34.66540100 60.43890000 502.79401000 -0.06386320 0.69975501 -0.71152198 1.905766e-42
35.08670000 59.29719900 501.46799000 -0.07857860 0.68998301 -0.71954799 1.905766e-42
35.78509900 58.04650100 500.37799000 -0.09510440 0.68159401 -0.72552401 1.905766e-42
36.29449800 56.77030200 499.21500000 -0.11044800 0.67180997 -0.73244298 1.905766e-42
36.62480200 55.50310100 497.98099000 -0.12443300 0.66113698 -0.73987401 1.905766e-42
37.15029900 54.26190200 496.78799000 -0.12627800 0.66625702 -0.73495299 1.905766e-42
37.73090000 53.04390000 495.59601000 -0.12200300 0.67256302 -0.72991401 1.905766e-42
38.37390100 51.87160100 494.39099000 -0.11740300 0.67915702 -0.72454202 1.905766e-42
38.90750100 50.72110000 493.11401000 -0.11869000 0.68419403 -0.71957701 1.905766e-42
39.30189900 49.53340100 491.82001000 -0.12549300 0.68752199 -0.71523798 1.905766e-42
39.27840000 48.24390000 490.56400000 -0.14415000 0.68654901 -0.71265000 1.905766e-42
40.08810000 47.20190000 489.34000000 -0.13915101 0.69366598 -0.70672798 1.905766e-42
40.58490000 46.03440100 488.06299000 -0.14440900 0.69742000 -0.70196301 1.905766e-42
41.19699900 44.87289800 486.83200000 -0.14798400 0.70184600 -0.69678801 1.905766e-42
41.92680000 43.72580000 485.65201000 -0.15037300 0.70684600 -0.69120002 1.905766e-42
42.57090000 42.52650100 484.47501000 -0.15551700 0.71076900 -0.68601900 1.905766e-42
42.94340100 41.38539900 483.13300000 -0.16487500 0.71263498 -0.68188500 1.905766e-42
43.34759900 40.26480100 481.78400000 -0.17364000 0.71459597 -0.67764401 1.905766e-42
43.52439900 39.09400200 480.42801000 -0.18485400 0.71493900 -0.67430800 1.905766e-42
44.15990100 37.92890200 479.21201000 -0.19075100 0.71797597 -0.66942102 1.905766e-42
44.54560100 36.69599900 477.95901000 -0.19942200 0.71926397 -0.66549999 1.905766e-42
44.70589800 35.53200100 476.59500000 -0.20947701 0.71935302 -0.66230601 1.905766e-42
44.25920100 34.30160100 475.35999000 -0.22335000 0.71558499 -0.66185600 1.905766e-42
44.83950000 33.21770100 474.04501000 -0.22912000 0.71711898 -0.65821302 1.905766e-42
45.36729800 32.00239900 472.82700000 -0.23619001 0.71797001 -0.65477699 1.905766e-42
45.22300000 31.00040100 471.33801000 -0.24708600 0.71566099 -0.65328199 1.905766e-42
45.23109800 29.81320000 469.98499000 -0.25742301 0.71370602 -0.65142697 1.905766e-42
45.34849900 28.71430000 468.56500000 -0.26693699 0.71232098 -0.64910901 1.905766e-42
45.02080200 27.48490000 467.29099000 -0.27829599 0.70853502 -0.64848298 1.905766e-42
45.73770100 26.62660000 465.88101000 -0.28432900 0.71010798 -0.64412999 1.905766e-42
46.28220000 25.52500000 464.56601000 -0.29229999 0.71023798 -0.64040798 1.905766e-42
46.70869800 24.33429900 463.28500000 -0.30117401 0.70947999 -0.63712800 1.905766e-42
46.89540100 23.16120000 461.93201000 -0.31088001 0.70754302 -0.63461500 1.905766e-42
47.02650100 21.97839900 460.58200000 -0.32068700 0.70521802 -0.63231999 1.905766e-42
47.04079800 20.83550100 459.19101000 -0.33053100 0.70238501 -0.63040000 1.905766e-42
47.40290100 19.77220000 457.78500000 -0.33985800 0.70091999 -0.62706202 1.905766e-42
46.78410000 18.55450100 456.61301000 -0.34887800 0.69559300 -0.62804002 1.905766e-42
46.89260100 17.47900000 455.17300000 -0.35809299 0.69302100 -0.62569302 1.905766e-42
47.86930100 16.89139900 453.78000000 -0.36644700 0.69414997 -0.61957401 1.905766e-42
48.22370100 15.74440000 452.43900000 -0.37621999 0.69183999 -0.61629200 1.905766e-42
48.35459900 14.56820000 451.08301000 -0.38565901 0.69313997 -0.60895300 1.905766e-42
48.62739900 13.39250000 449.74701000 -0.39468300 0.69675303 -0.59896600 1.905766e-42
49.22330100 12.37930000 448.38400000 -0.40367800 0.70099998 -0.58791500 1.905766e-42
49.77090100 11.43940000 446.95001000 -0.41240501 0.70502698 -0.57694000 1.905766e-42
50.40480000 10.48760000 445.56000000 -0.42086199 0.70892799 -0.56594700 1.905766e-42
50.21920000 9.46471020 444.09000000 -0.42747501 0.71158999 -0.55758798 1.905766e-42
51.04470100 8.79016020 442.64001000 -0.43562299 0.71540600 -0.54628599 1.905766e-42
50.49789800 7.54272990 441.46301000 -0.43948701 0.71757501 -0.54031199 1.905766e-42
50.19150200 6.35195020 440.14899000 -0.44339100 0.72076398 -0.53282601 1.905766e-42
49.18989900 5.15875010 439.24701000 -0.44187200 0.72412401 -0.52952302 1.905766e-42
49.25500100 4.06648020 437.81799000 -0.44572800 0.72842801 -0.52030802 1.905766e-42
49.04230100 2.98107000 436.39801000 -0.44740599 0.73327500 -0.51199198 1.905766e-42
48.30390200 1.92730000 435.13901000 -0.44435301 0.73930103 -0.50594902 1.905766e-42
48.21889900 0.99463397 433.60199000 -0.44560301 0.74470299 -0.49684501 1.905766e-42
48.89020200 0.25717601 432.10300000 -0.45231101 0.74755400 -0.48639300 1.905766e-42
49.71270000 -0.35576501 430.62399000 -0.45993000 0.74954098 -0.47607899 1.905766e-42
50.09719800 -0.98360002 428.98199000 -0.46460500 0.75288701 -0.46615800 1.905766e-42
50.34940000 -1.81890000 427.40701000 -0.46735901 0.75700003 -0.45664701 1.905766e-42
51.27500200 -2.49229000 426.01801000 -0.47430399 0.75840002 -0.44706300 1.905766e-42
51.50880100 -3.26120000 424.40701000 -0.47702301 0.76154500 -0.43874601 1.905766e-42
52.49179800 -3.79941010 422.99899000 -0.48453501 0.76177597 -0.43002701 1.905766e-42
52.66370000 -4.17233990 421.24600000 -0.48822600 0.76412600 -0.42160001 1.905766e-42
53.21880000 -4.86017990 419.67801000 -0.49290699 0.76596302 -0.41272801 1.905766e-42
53.36600100 -5.59033010 418.04001000 -0.49530399 0.76894301 -0.40422800 1.905766e-42
53.54349900 -6.39053010 416.43701000 -0.49763301 0.77190202 -0.39563701 1.905766e-42
53.81300000 -7.04842000 414.78299000 -0.50099999 0.77429003 -0.38661999 1.905766e-42
54.18890000 -7.54559990 413.09500000 -0.50548100 0.77602899 -0.37718299 1.905766e-42
54.50750000 -8.15365980 411.43100000 -0.50939101 0.77803200 -0.36767700 1.905766e-42
54.98550000 -8.80846980 409.82401000 -0.51396799 0.77961200 -0.35782999 1.905766e-42
55.53990200 -9.30082990 408.18399000 -0.51936698 0.78070098 -0.34751099 1.905766e-42
55.75579800 -9.53398040 406.41199000 -0.52413303 0.78206903 -0.33712399 1.905766e-42
56.28360000 -9.87001040 404.72400000 -0.52994102 0.78289503 -0.32594299 1.905766e-42
56.88090100 -10.27320000 403.07501000 -0.53585899 0.78364301 -0.31425801 1.905766e-42
56.74100100 -10.80680000 401.36099000 -0.53949797 0.78533399 -0.30363300 1.905766e-42
56.96830000 -11.27430000 399.63800000 -0.54504400 0.78611702 -0.29145601 1.905766e-42
57.28860100 -11.67450000 397.91199000 -0.55150503 0.78637099 -0.27832100 1.905766e-42
57.72250000 -12.07030000 396.21100000 -0.55879903 0.78612399 -0.26410899 1.905766e-42
57.42729900 -12.64890000 394.53201000 -0.56492299 0.78550702 -0.25266600 1.905766e-42
57.35990100 -13.20080000 392.82001000 -0.57200700 0.78297502 -0.24445400 1.905766e-42
58.10240200 -13.22460000 391.18100000 -0.58063799 0.77985400 -0.23385499 1.905766e-42
58.18479900 -13.77840000 389.47000000 -0.58443600 0.77899897 -0.22714600 1.905766e-42
58.04420100 -14.27250000 387.74500000 -0.58478802 0.78037697 -0.22143701 1.905766e-42
58.08980200 -14.73720000 386.00601000 -0.58336300 0.78285199 -0.21640500 1.905766e-42
58.10509900 -15.37970000 384.32501000 -0.57791603 0.78794497 -0.21250200 1.905766e-42
57.94820000 -15.84210000 382.59299000 -0.56844997 0.79552901 -0.20975800 1.905766e-42
58.03509900 -16.09390100 380.81201000 -0.55355901 0.80603701 -0.20946901 1.905766e-42
57.55220000 -16.88520100 379.26901000 -0.53522098 0.81884497 -0.20744200 1.905766e-42
56.88250000 -17.65280000 377.78601000 -0.51751500 0.83264899 -0.19716600 1.905766e-42
56.89630100 -18.14800100 376.05499000 -0.48480701 0.85102600 -0.20178699 1.905766e-42
56.42400000 -18.71530000 374.41299000 -0.45822701 0.86730999 -0.19442500 1.905766e-42
56.81950000 -19.51580000 372.85001000 -0.36750299 0.90250099 -0.22457699 1.905766e-42
56.38309900 -19.98280000 371.16800000 -0.30974200 0.92409199 -0.22386099 1.905766e-42
55.65359900 -20.42450000 369.58301000 -0.33697900 0.92285198 -0.18651800 1.905766e-42
54.59479900 -20.99320000 368.24301000 -0.39208201 0.90910602 -0.14070500 1.905766e-42
53.59410100 -21.44910000 366.81799000 -0.40459800 0.90738797 -0.11378900 1.905766e-42
52.33660100 -21.77840000 365.57199000 -0.40986699 0.90770000 -0.08994300 1.905766e-42
51.66550100 -22.24900100 363.97000000 -0.39721701 0.91476500 -0.07363740 1.905766e-42
50.27410100 -22.39590100 362.83701000 -0.38585499 0.92099798 -0.05364720 1.905766e-42
48.76030000 -22.39279900 361.86401000 -0.37088799 0.92791599 -0.03759770 1.905766e-42
47.00550100 -22.72120100 361.63400000 -0.35173500 0.93588299 -0.02013390 1.905766e-42
45.55889900 -23.71150000 362.04199000 -0.35807800 0.93366998 -0.00632560 1.905766e-42
44.12910100 -24.30050100 362.96301000 -0.36363199 0.93153799 0.00285372 1.905766e-42
42.68949900 -25.04800000 363.74301000 -0.36941901 0.92921698 0.00923380 1.905766e-42
41.32609900 -25.62509900 364.76700000 -0.37579900 0.92664403 0.01027770 1.905766e-42
39.85350000 -26.36260000 365.49301000 -0.38224399 0.92401803 0.00896851 1.905766e-42
38.34149900 -26.94840000 366.27499000 -0.38845199 0.92145902 0.00437578 1.905766e-42
36.82379900 -27.56530000 367.02100000 -0.38213700 0.92410302 -0.00223808 1.905766e-42
35.25550100 -28.11050000 367.71600000 -0.35166499 0.93609703 -0.00740019 1.905766e-42
33.70970200 -28.67130100 368.44800000 -0.32019901 0.94728601 -0.01101960 1.905766e-42
32.00770200 -29.20450000 368.69101000 -0.28301299 0.95908999 -0.00705428 1.905766e-42
30.41250000 -29.56800100 369.44101000 -0.25030601 0.96814501 -0.00643652 1.905766e-42
28.73180000 -30.20210100 369.55600000 -0.21030501 0.97762501 0.00451274 1.905766e-42
27.07020000 -30.67400000 370.06201000 -0.17487399 0.98450202 0.01319390 1.905766e-42
25.47710000 -30.79950000 370.89099000 -0.15792499 0.98729801 0.01741500 1.905766e-42
23.83219900 -31.11809900 371.54800000 -0.14418600 0.98929501 0.02246680 1.905766e-42
22.09370000 -31.43030000 371.89499000 -0.12759300 0.99136102 0.03039190 1.905766e-42
20.39030100 -31.65990100 372.42999000 -0.11313700 0.99301499 0.03347800 1.905766e-42
18.63979900 -31.96050100 372.72101000 -0.09695820 0.99455100 0.03830470 1.905766e-42
16.86200000 -32.24250000 372.72101000 -0.07973990 0.99578100 0.04541550 1.905766e-42
15.08770000 -32.54159900 372.76999000 -0.06451760 0.99666798 0.04990460 1.905766e-42
13.28840000 -32.59180100 372.76700000 -0.08378470 0.99519598 0.05065500 1.905766e-42
11.50470000 -32.75410100 372.58801000 -0.10276400 0.99352401 0.04847900 1.905766e-42
10.02640000 -32.72330100 373.61499000 -0.11119300 0.99337798 0.02890850 1.905766e-42
8.54261020 -32.92210000 374.61401000 -0.11493000 0.99334800 0.00714791 1.905766e-42
7.57670020 -32.94229900 376.13300000 -0.10768100 0.99401897 -0.01817390 1.905766e-42
5.87284990 -33.09249900 376.69400000 -0.10657500 0.99351501 -0.03962090 1.905766e-42
4.47255990 -33.10490000 377.82501000 -0.09528930 0.99325001 -0.06614190 1.905766e-42
3.02213000 -33.14139900 378.89001000 -0.08122870 0.99234599 -0.09301220 1.905766e-42
1.52418010 -33.17800100 379.88699000 -0.06835470 0.99057901 -0.11865900 1.905766e-42
-0.10666200 -33.19400000 380.64899000 -0.05812690 0.98811698 -0.14229000 1.905766e-42
-1.49983000 -33.13190100 381.78699000 -0.04455040 0.98514497 -0.16584700 1.905766e-42
-3.24505000 -32.95130200 382.18900000 -0.03732620 0.98178601 -0.18629000 1.905766e-42
-4.42194990 -32.94990200 383.55099000 -0.02189870 0.97796702 -0.20760900 1.905766e-42
-5.91387990 -32.97940100 384.55701000 -0.00912481 0.97351199 -0.22845501 1.905766e-42
-7.05436990 -32.69590000 385.92099000 0.00701132 0.96871698 -0.24807000 1.905766e-42
-8.53798010 -32.59520000 386.93500000 0.02954030 0.96335000 -0.26661700 1.905766e-42
-9.81917950 -32.15420200 388.12000000 0.05454830 0.95744002 -0.28343299 1.905766e-42
-10.66370000 -31.61319900 389.61499000 0.07519760 0.95148802 -0.29835400 1.905766e-42
-12.03010000 -31.07740000 390.65701000 0.09789520 0.94473398 -0.31288099 1.905766e-42
-13.53820000 -30.59170000 391.51099000 0.12030300 0.93775499 -0.32579699 1.905766e-42
-15.06160000 -30.37719900 392.44501000 0.14179900 0.93063498 -0.33735901 1.905766e-42
-16.39270000 -29.87780000 393.54901000 0.16209300 0.92314202 -0.34861901 1.905766e-42
-17.47360000 -29.28340000 394.85999000 0.17986700 0.91562301 -0.35955900 1.905766e-42
-18.89670000 -28.65900000 395.76901000 0.19812800 0.90800399 -0.36915401 1.905766e-42
-20.21089900 -27.89909900 396.73599000 0.20718700 0.90146703 -0.38004100 1.905766e-42
-21.77310000 -27.40780100 397.48300000 0.21378499 0.89564699 -0.39001700 1.905766e-42
-22.67550100 -26.52330000 398.76501000 0.22101900 0.88884503 -0.40138000 1.905766e-42
-24.10740100 -25.77470000 399.55801000 0.22646400 0.88240898 -0.41239300 1.905766e-42
-25.31769900 -24.86500000 400.53101000 0.23249100 0.87505502 -0.42453200 1.905766e-42
-26.65850100 -24.00120000 401.36600000 0.23813100 0.86757100 -0.43659499 1.905766e-42
-27.82830000 -23.05380100 402.35300000 0.24537800 0.85931301 -0.44874299 1.905766e-42
-29.37830000 -22.47139900 403.05899000 0.25035000 0.85102600 -0.46160600 1.905766e-42
-30.36190000 -21.33239900 404.04599000 0.26012999 0.84163100 -0.47327599 1.905766e-42
-30.53430000 -20.23020000 405.45901000 0.27326700 0.83391201 -0.47949600 1.905766e-42
-31.02930100 -19.38220000 406.96701000 0.28570801 0.82557899 -0.48661199 1.905766e-42
-30.93969900 -18.51250100 408.54099000 0.29644999 0.81940198 -0.49060899 1.905766e-42
-31.52820000 -17.51180100 409.91699000 0.30781400 0.81099898 -0.49752501 1.905766e-42
-32.17879900 -16.70420100 411.38800000 0.31863701 0.80290401 -0.50379997 1.905766e-42
-32.49039800 -16.01370000 413.02100000 0.32755101 0.79628998 -0.50855899 1.905766e-42
-33.25149900 -15.41620000 414.53799000 0.33690199 0.78886598 -0.51399201 1.905766e-42
-33.29240000 -14.48880000 416.08099000 0.34355301 0.78319502 -0.51824498 1.905766e-42
-32.28710200 -13.36740000 417.06601000 0.34426400 0.78144300 -0.52041298 1.905766e-42
-32.20869800 -12.31530000 418.52499000 0.34911999 0.77603000 -0.52525502 1.905766e-42
-32.27909900 -11.24790000 419.97198000 0.35405099 0.77027899 -0.53039402 1.905766e-42
-31.73730100 -10.24980000 421.36899000 0.35530901 0.76654601 -0.53494197 1.905766e-42
-31.62910100 -9.10982990 422.75800000 0.35861301 0.76095003 -0.54069501 1.905766e-42
-31.82790000 -8.07332040 424.21600000 0.36351800 0.75307000 -0.54839897 1.905766e-42
-31.28580100 -7.21185020 425.70001000 0.36427301 0.74778700 -0.55508500 1.905766e-42
-31.17890000 -6.19183020 427.17999000 0.36750299 0.74074298 -0.56235403 1.905766e-42
-30.96410000 -5.09778980 428.59299000 0.37025201 0.73390800 -0.56946701 1.905766e-42
-31.09950100 -3.96374990 429.98401000 0.37482199 0.72592402 -0.57666600 1.905766e-42
-31.30419900 -3.04121990 431.51599000 0.37905601 0.71810502 -0.58364499 1.905766e-42
-30.63450100 -2.14837000 432.92801000 0.37834299 0.71329302 -0.58997500 1.905766e-42
-30.14390000 -1.11000000 434.31400000 0.37872201 0.70748299 -0.59668797 1.905766e-42
-30.30500000 0.14185201 435.59799000 0.38327399 0.69914699 -0.60356802 1.905766e-42
-29.80850000 1.24047010 436.93399000 0.38337901 0.69320297 -0.61031902 1.905766e-42
-29.33750000 2.08731010 438.45099000 0.38246199 0.68770802 -0.61707503 1.905766e-42
-29.65390000 3.18095990 439.84500000 0.38701200 0.67916203 -0.62366700 1.905766e-42
-28.93759900 4.18327000 441.15799000 0.38456601 0.67429000 -0.63042998 1.905766e-42
-28.82819900 5.49367000 442.38699000 0.38680801 0.66652602 -0.63727701 1.905766e-42
-28.66090000 6.76583000 443.64899000 0.38832200 0.65898001 -0.64416802 1.905766e-42
-28.80769900 7.87232020 445.06100000 0.39115700 0.65078598 -0.65074903 1.905766e-42
-28.05489900 8.93869020 446.30099000 0.38740501 0.64589798 -0.65782398 1.905766e-42
-27.99460000 10.24530000 447.53699000 0.38930899 0.63745099 -0.66490197 1.905766e-42
-27.69829900 11.48510000 448.80801000 0.38906500 0.62931299 -0.67275000 1.905766e-42
-27.35430000 12.56790000 450.20401000 0.38742000 0.62178499 -0.68065298 1.905766e-42
-27.02220000 13.71180000 451.55399000 0.38584301 0.61410701 -0.68847501 1.905766e-42
-27.01390100 15.06930000 452.73599000 0.38812301 0.60470003 -0.69548500 1.905766e-42
-27.09090000 16.25470000 454.08801000 0.39022800 0.59545797 -0.70224798 1.905766e-42
-26.04760000 17.24620100 455.16901000 0.38210800 0.59181798 -0.70975000 1.905766e-42
-26.12859900 18.65169900 456.29099000 0.38574600 0.58204001 -0.71584100 1.905766e-42
-26.17900100 20.03920000 457.43600000 0.38907099 0.57242602 -0.72176999 1.905766e-42
-25.73570100 21.31139900 458.63000000 0.38768801 0.56515902 -0.72821200 1.905766e-42
-25.33260000 22.61619900 459.80301000 0.38707200 0.55772901 -0.73424298 1.905766e-42
-25.54400100 24.12999900 460.75299000 0.39309800 0.54737002 -0.73882401 1.905766e-42
-25.24350000 25.55789900 461.80701000 0.39454001 0.53928101 -0.74398500 1.905766e-42
-25.51549900 27.03150000 462.80499000 0.40110701 0.52885902 -0.74794501 1.905766e-42
-25.30520100 28.54490100 463.75601000 0.40430301 0.52026403 -0.75224000 1.905766e-42
-24.60950100 29.86479900 464.76300000 0.40343800 0.51474798 -0.75648701 1.905766e-42
-24.68619900 31.33110000 465.80399000 0.40924999 0.50530601 -0.75972402 1.905766e-42
-24.70850000 32.77460100 466.87900000 0.41481799 0.49627399 -0.76265198 1.905766e-42
-24.25070000 34.07630200 468.03500000 0.41699001 0.49071699 -0.76506001 1.905766e-42
-24.07140000 35.50270100 469.11801000 0.42167601 0.48540601 -0.76587898 1.905766e-42
-24.33880000 37.06259900 469.97601000 0.42954800 0.47759801 -0.76641297 1.905766e-42
-24.50200100 38.63359800 470.83899000 0.43670601 0.47015601 -0.76696903 1.905766e-42
-24.19840000 40.09090000 471.85101000 0.44123101 0.46501499 -0.76751298 1.905766e-42
-24.63610100 41.68119800 472.57199000 0.44942799 0.45631799 -0.76797700 1.905766e-42
-24.39510000 43.21460000 473.48300000 0.45468101 0.45046499 -0.76833999 1.905766e-42
-24.84009900 44.76380200 474.28400000 0.46224999 0.44188300 -0.76880699 1.905766e-42
-24.27780000 46.05759800 475.40201000 0.46598801 0.43809199 -0.76871997 1.905766e-42
-24.19590000 47.57510000 476.36700000 0.47208801 0.43148801 -0.76873398 1.905766e-42
-24.28840100 49.13850000 477.25400000 0.47871000 0.42400399 -0.76880300 1.905766e-42
-24.56970000 50.77710000 477.94400000 0.48561600 0.41553399 -0.76909602 1.905766e-42
-24.68289900 52.40800100 478.69699000 0.49212500 0.40766501 -0.76916999 1.905766e-42
-25.00480100 54.03210100 479.40302000 0.49860099 0.39913401 -0.76947302 1.905766e-42
-24.98140000 55.67910000 480.12900000 0.50478399 0.39160600 -0.76931000 1.905766e-42
-25.26280000 57.26559800 480.93201000 0.51090503 0.38335800 -0.76942402 1.905766e-42
-24.96450000 58.86140100 481.70901000 0.51701999 0.37681699 -0.76857001 1.905766e-42
-24.90329900 60.46839900 482.51801000 0.52330101 0.36945501 -0.76789302 1.905766e-42
-24.98469900 62.06819900 483.33899000 0.52954602 0.36118600 -0.76754498 1.905766e-42
-24.80390000 63.65230200 484.17401000 0.53593802 0.35260400 -0.76709902 1.905766e-42
-24.87369900 65.21289800 485.06799000 0.54179603 0.34329799 -0.76720500 1.905766e-42
-24.81690000 66.77189600 485.96600000 0.54756999 0.33419099 -0.76712698 1.905766e-42
-24.29810000 68.26499900 486.82700000 0.55389100 0.32626200 -0.76600099 1.905766e-42
-24.15259900 69.86540200 487.63800000 0.55931002 0.31679901 -0.76603502 1.905766e-42
-23.42359900 71.24890100 488.52899000 0.56588000 0.30925101 -0.76429302 1.905766e-42
-22.55699900 72.46730000 489.53201000 0.57291901 0.30239201 -0.76178998 1.905766e-42
-21.36319900 73.21489700 490.65201000 0.58070397 0.29828399 -0.75750297 1.905766e-42
-20.60710000 74.47229800 491.69501000 0.58420402 0.29096499 -0.75765699 1.905766e-42
-19.96620000 75.82399700 492.69601000 0.58340400 0.28371900 -0.76101500 1.905766e-42
-19.46980100 77.17649800 493.77499000 0.58412802 0.27589399 -0.76333302 1.905766e-42
-18.82080100 78.50779700 494.79800000 0.58572900 0.26873800 -0.76465702 1.905766e-42
-17.88610100 79.69930300 495.77100000 0.58810699 0.26379600 -0.76455301 1.905766e-42
-16.98580000 80.82440200 496.85001000 0.59260499 0.25985801 -0.76242602 1.905766e-42
-16.24360100 82.09649700 497.88501000 0.60018998 0.25479999 -0.75818801 1.905766e-42
-15.71500000 83.50779700 498.86899000 0.61050600 0.24816699 -0.75212699 1.905766e-42
-14.93880000 84.80040000 499.85199000 0.62308300 0.24442101 -0.74298400 1.905766e-42
-14.03740000 85.86900300 500.98599000 0.63831103 0.24466699 -0.72986102 1.905766e-42
-13.53160000 87.28859700 501.97000000 0.65631700 0.24014901 -0.71524602 1.905766e-42
-13.07500000 88.69580100 502.99600000 0.67678601 0.24027000 -0.69586700 1.905766e-42
-12.37160000 89.97899600 504.04401000 0.69928098 0.24579901 -0.67125899 1.905766e-42
-11.71980000 91.19039900 505.20499000 0.71567500 0.25239101 -0.65123600 1.905766e-42
-11.19630000 92.48760200 506.33801000 0.72072703 0.25912899 -0.64296502 1.905766e-42
-10.58700000 93.69969900 507.52100000 0.72424102 0.26644900 -0.63598800 1.905766e-42
-10.17810000 95.12999700 508.53400000 0.73178399 0.26799500 -0.62663502 1.905766e-42
-9.67249970 96.44000200 509.66000000 0.73761201 0.27113301 -0.61839801 1.905766e-42
-9.46088980 97.94999700 510.61700000 0.74724400 0.26824099 -0.60800701 1.905766e-42
-8.86207960 99.11170200 511.85501000 0.75225103 0.27220100 -0.60002202 1.905766e-42
-8.86382010 100.60600000 512.85797000 0.76286602 0.26654500 -0.58905798 1.905766e-42
-8.22572040 101.88500000 513.95203000 0.77016598 0.26726499 -0.57915002 1.905766e-42
-7.80463980 103.38400000 514.85498000 0.78017402 0.26260400 -0.56777501 1.905766e-42
-7.93478010 104.95300000 515.72699000 0.79153001 0.25281900 -0.55638301 1.905766e-42
-7.41181990 106.08900000 517.02197000 0.80008602 0.25250700 -0.54415298 1.905766e-42
-7.34676980 107.59800000 518.00098000 0.81111401 0.24376100 -0.53167200 1.905766e-42
-7.08352990 109.00400000 519.09399000 0.82189202 0.23690400 -0.51804501 1.905766e-42
-7.04622980 110.61000000 519.90503000 0.83269602 0.22519000 -0.50587201 1.905766e-42
-6.69798990 112.11000000 520.83801000 0.84344703 0.21583800 -0.49194601 1.905766e-42
-6.10334010 113.26000000 522.08801000 0.85459298 0.21106900 -0.47446901 1.905766e-42
-5.90734000 114.79400000 523.01001000 0.86658800 0.21487001 -0.45039499 1.905766e-42
-5.80495020 116.40300000 523.80902000 0.87709898 0.21779700 -0.42809200 1.905766e-42
-5.90693000 118.03900000 524.55402000 0.88597399 0.21940900 -0.40854600 1.905766e-42
-5.64776990 119.43100000 525.66602000 0.89577401 0.22386201 -0.38402501 1.905766e-42
-5.62401010 120.89300000 526.71503000 0.90422899 0.22660901 -0.36196399 1.905766e-42
-5.70234010 122.39900000 527.69702000 0.91150498 0.22838201 -0.34205300 1.905766e-42
-5.70533990 124.00800000 528.50500000 0.91751999 0.22933599 -0.32490301 1.905766e-42
-5.67753980 125.51400000 529.48999000 0.92357898 0.23073401 -0.30621001 1.905766e-42
-5.62676000 127.02100000 530.47198000 0.92903399 0.23186000 -0.28833401 1.905766e-42
-5.71641020 128.53300000 531.44501000 0.93377000 0.23262700 -0.27195400 1.905766e-42
-5.49285980 128.97000000 533.17700000 0.94013298 0.23526600 -0.24657400 1.905766e-42
-5.02797990 128.40700000 534.82202000 0.94504797 0.23819000 -0.22394200 1.905766e-42
-4.60159020 128.00600000 536.52399000 0.94950700 0.24056201 -0.20141000 1.905766e-42
-4.19619990 127.37100000 538.15900000 0.95307499 0.24263901 -0.18103699 1.905766e-42
-3.87121010 126.96800000 539.88300000 0.94981498 0.25679100 -0.17863500 1.905766e-42
-3.68232010 126.97200000 541.67297000 0.94675201 0.26968199 -0.17587900 1.905766e-42
-3.42663000 126.78200000 543.44501000 0.94286001 0.28342500 -0.17517500 1.905766e-42
-2.99587990 126.22100000 545.09998000 0.93752301 0.29908100 -0.17776500 1.905766e-42
-2.35875010 125.58400000 546.65802000 0.93148297 0.31523100 -0.18157300 1.905766e-42
-1.69754000 124.94700000 548.20697000 0.92504400 0.33139399 -0.18566300 1.905766e-42
-1.42661000 124.68500000 549.96698000 0.91999799 0.34446099 -0.18695199 1.905766e-42
-0.74527103 124.03400000 551.50098000 0.91288698 0.36045501 -0.19159999 1.905766e-42
-0.07431780 123.47400000 553.07397000 0.90572703 0.37588900 -0.19587401 1.905766e-42
0.30461001 122.99400000 554.76703000 0.89905399 0.38987300 -0.19925000 1.905766e-42
1.18017010 122.11000000 556.06799000 0.88986897 0.40720901 -0.20570600 1.905766e-42
2.04529000 121.25000000 557.39099000 0.88023001 0.42459899 -0.21192200 1.905766e-42
2.73073010 120.57800000 558.91400000 0.87119901 0.44044799 -0.21683800 1.905766e-42
3.36764000 119.83900000 560.42700000 0.86166000 0.45642200 -0.22185799 1.905766e-42
4.50711010 118.95800000 561.50598000 0.85338598 0.47047701 -0.22446400 1.905766e-42
5.11297990 118.35000000 563.08801000 0.84872901 0.47951701 -0.22298500 1.905766e-42
6.08350990 117.48900000 564.33600000 0.84180701 0.49191701 -0.22221200 1.905766e-42
