# .PCD v0.7 - Point Cloud Data file format
# 11 120 0
# 1 15 0
# 16 27 0
# 28 34 0
# 35 40 0
# 41 64 0
# 65 72 0
# 73 80 0
# 81 94 1
# 95 100 0
# 101 116 0
# 117 120 0
VERSION 0.7
FIELDS x y z normal_x normal_y normal_z curvature
SIZE 4 4 4 4 4 4 4
TYPE F F F F F F F
COUNT 1 1 1 1 1 1 1
WIDTH 120
HEIGHT 1
VIEWPOINT 0 0 0 1 0 0 0
POINTS 120
DATA ascii
14.2148 8.5846996 498.21301 0.25493199 -0.964531 0.068473503 1.9057659e-42
13.0428 7.8975801 497.03201 0.27336699 -0.95621097 0.104551 1.9057659e-42
11.8064 7.30266 495.867 0.28801799 -0.948452 0.132231 1.9057659e-42
10.532 6.6918602 494.75201 0.303206 -0.940741 0.151896 1.9057659e-42
9.3179398 6.0453601 493.591 0.32133099 -0.932217 0.16649 1.9057659e-42
8.5673199 5.7143698 493.06799 0.336808 -0.92518401 0.174914 1.9057659e-42
7.5738702 4.9917302 491.75201 0.36529201 -0.90813798 0.20456401 1.9057659e-42
6.08145 4.4370599 490.91199 0.40560299 -0.88731903 0.219432 1.9057659e-42
5.1841002 3.59814 489.59698 0.43145499 -0.86986101 0.239141 1.9057659e-42
4.2175102 2.79231 488.31 0.45350701 -0.85447699 0.25337899 1.9057659e-42
3.2456601 1.98304 487.02899 0.47125301 -0.84053499 0.26725 1.9057659e-42
2.69648 1.04882 485.59201 0.485789 -0.82068998 0.30079299 1.9057659e-42
1.99071 0.118145 484.22198 0.50907099 -0.794999 0.32988301 1.9057659e-42
1.3493201 -0.84468597 482.84299 0.53401297 -0.76643801 0.35693601 1.9057659e-42
0.90889198 -1.85782 481.422 0.55538601 -0.73848802 0.38233599 1.9057659e-42
46.699699 7.1911702 503.19299 -0.32344201 -0.94406801 -0.064195998 1.9057659e-42
44.928799 7.5085602 503.24799 -0.29359499 -0.95324701 -0.071571998 1.9057659e-42
43.306999 8.1565504 503.68399 -0.26449099 -0.95997101 -0.092197299 1.9057659e-42
41.587799 8.5982599 503.98199 -0.236434 -0.96585399 -0.105953 1.9057659e-42
39.814899 8.9092398 503.97 -0.214114 -0.971277 -0.103812 1.9057659e-42
38.0387 9.2007198 503.98999 -0.19025099 -0.97672099 -0.099103302 1.9057659e-42
36.264599 9.5049 503.99399 -0.164056 -0.98229498 -0.090452299 1.9057659e-42
34.490601 9.8089304 503.97601 -0.13546599 -0.98762703 -0.079004899 1.9057659e-42
32.7057 10.0408 503.95801 -0.105211 -0.99217802 -0.067179799 1.9057659e-42
30.922001 10.2718 503.88599 -0.074930497 -0.99586099 -0.051442999 1.9057659e-42
29.142401 10.3593 503.63101 -0.037271298 -0.99890298 -0.028352 1.9057659e-42
27.4112 10.2942 503.142 0.0070752599 -0.99997503 -0.00030790101 1.9057659e-42
25.620001 10.3642 502.978 0.054301701 -0.99837297 0.017403301 1.9057659e-42
24.031601 10.0452 502.194 0.097245298 -0.99450099 0.038883701 1.9057659e-42
22.4548 9.7346601 501.383 0.115331 -0.991961 0.052074902 1.9057659e-42
20.747299 9.5781803 500.836 0.133609 -0.98964602 0.0524248 1.9057659e-42
19.0149 9.4500504 500.36401 0.156186 -0.98663598 0.046413802 1.9057659e-42
17.364401 9.2259502 499.68201 0.18385699 -0.98228401 0.036271699 1.9057659e-42
15.9427 8.7288198 498.69601 0.221416 -0.974365 0.039857399 1.9057659e-42
0.65350699 -2.9005401 479.97699 0.571468 -0.71525198 0.402293 1.9057659e-42
0.574395 -3.95419 478.51999 0.57821798 -0.69981498 0.41943201 1.9057659e-42
0.31647101 -4.9945898 477.07401 0.58600998 -0.68199199 0.437583 1.9057659e-42
0.51346803 -6.01441 475.604 0.57868397 -0.67070001 0.46399 1.9057659e-42
0.175216 -7.1077499 474.215 0.58511502 -0.65009397 0.48478699 1.9057659e-42
0.0306895 -8.1610403 472.76199 0.58342397 -0.63422799 0.50731802 1.9057659e-42
0.36132601 -9.2228498 471.34698 0.56873202 -0.62304598 0.53698999 1.9057659e-42
0.63992399 -10.2759 469.914 0.55281597 -0.60602999 0.57194602 1.9057659e-42
0.96888798 -11.3483 468.50601 0.53567803 -0.58345097 0.61043799 1.9057659e-42
1.3184299 -12.3965 467.08499 0.519714 -0.55557001 0.64903003 1.9057659e-42
2.47175 -13.2238 465.978 0.49794301 -0.54132098 0.677513 1.9057659e-42
2.92677 -14.3358 464.638 0.49396601 -0.52477002 0.69326299 1.9057659e-42
3.5845201 -15.3968 463.341 0.49427 -0.505602 0.70715201 1.9057659e-42
4.3557801 -16.413799 462.07199 0.49947801 -0.48170599 0.720056 1.9057659e-42
5.3870602 -17.3339 460.91901 0.485111 -0.45848301 0.74462098 1.9057659e-42
6.1925802 -18.380199 459.69501 0.45650601 -0.423347 0.782547 1.9057659e-42
7.4351201 -19.2386 458.716 0.420802 -0.40750301 0.81047302 1.9057659e-42
8.3921299 -20.284401 457.60699 0.39761099 -0.39886299 0.826325 1.9057659e-42
9.5837603 -21.217199 456.63199 0.37519899 -0.38916999 0.84129202 1.9057659e-42
10.7353 -22.207899 455.66599 0.35832 -0.371999 0.85628402 1.9057659e-42
12.1696 -22.9781 454.89801 0.32962 -0.354381 0.87507999 1.9057659e-42
13.4133 -23.9389 454.021 0.301934 -0.32404801 0.89656502 1.9057659e-42
14.8929 -24.701099 453.336 0.274169 -0.30055699 0.913508 1.9057659e-42
16.1472 -25.662701 452.474 0.25612301 -0.27033401 0.928074 1.9057659e-42
17.7173 -26.320601 451.88901 0.237887 -0.25803301 0.936391 1.9057659e-42
19.079399 -27.224001 451.13501 0.21821199 -0.236242 0.94687498 1.9057659e-42
20.764999 -27.7798 450.836 0.18395799 -0.22713999 0.95633 1.9057659e-42
22.3722 -28.4226 450.34201 0.151228 -0.210803 0.96575999 1.9057659e-42
24.046 -28.979799 449.98401 0.117029 -0.19790401 0.97320998 1.9057659e-42
25.711901 -29.5441 449.60199 0.083655402 -0.184443 0.97927701 1.9057659e-42
27.4963 -29.7754 449.64899 0.047917102 -0.188875 0.98083103 1.9057659e-42
29.266199 -30.096701 449.58401 0.0117706 -0.190329 0.98164999 1.9057659e-42
31.045 -30.372101 449.59399 -0.0270494 -0.19456901 0.98051602 1.9057659e-42
32.827599 -30.621901 449.59698 -0.067204699 -0.198829 0.977727 1.9057659e-42
34.603199 -30.916901 449.61301 -0.106572 -0.199154 0.97415602 1.9057659e-42
36.384998 -31.0333 449.84 -0.131832 -0.21065301 0.96863103 1.9057659e-42
38.098301 -30.877701 450.37 -0.162817 -0.233275 0.95868301 1.9057659e-42
39.8792 -31.1117 450.48499 -0.196005 -0.242063 0.95025599 1.9057659e-42
41.662601 -31.246099 450.689 -0.23558301 -0.253167 0.93830001 1.9057659e-42
43.358898 -31.0737 451.26599 -0.280633 -0.26711801 0.92189699 1.9057659e-42
44.765701 -30.4524 452.20099 -0.30211499 -0.28936201 0.90829301 1.9057659e-42
46.5056 -30.4347 452.66299 -0.31680399 -0.29624799 0.901039 1.9057659e-42
48.214298 -30.336901 453.22 -0.33466199 -0.29972601 0.89340103 1.9057659e-42
49.804298 -30.0044 453.995 -0.35831699 -0.30149999 0.88357598 1.9057659e-42
51.498798 -29.8549 454.58401 -0.39517999 -0.30423 0.86676198 1.9057659e-42
52.9016 -29.304001 455.56799 -0.439493 -0.324736 0.83749199 1.9057659e-42
54.356899 -28.8451 456.52301 -0.44711199 -0.35601699 0.820575 1.9057659e-42
55.8409 -28.419399 457.448 -0.45475501 -0.37824899 0.80630398 1.9057659e-42
57.170399 -27.820499 458.504 -0.46796 -0.393473 0.79132301 1.9057659e-42
58.423901 -27.171801 459.621 -0.48749799 -0.402863 0.77462697 1.9057659e-42
59.387299 -26.3489 460.89899 -0.51554102 -0.41286999 0.75083703 1.9057659e-42
60.671398 -25.750299 462.01001 -0.55160099 -0.41948199 0.72095102 1.9057659e-42
61.563801 -24.8825 463.31 -0.58190501 -0.423352 0.69437701 1.9057659e-42
62.423199 -24.004801 464.62601 -0.60792398 -0.42452699 0.67097402 1.9057659e-42
63.046101 -23.056801 466.02301 -0.62507898 -0.427149 0.65331399 1.9057659e-42
63.5266 -21.9741 467.37799 -0.63627499 -0.440025 0.63366598 1.9057659e-42
64.376602 -21.181299 468.75299 -0.65765297 -0.44418201 0.608437 1.9057659e-42
65.165604 -20.3214 470.12299 -0.67441201 -0.44987801 0.585473 1.9057659e-42
65.489998 -19.219601 471.509 -0.67622501 -0.46853501 0.56850201 1.9057659e-42
66.382401 -18.503201 472.89899 -0.69056797 -0.47132799 0.548603 1.9057659e-42
67.127899 -17.6556 474.30099 -0.70097202 -0.48668399 0.52132303 1.9057659e-42
67.023102 -16.5415 475.711 -0.696311 -0.51937598 0.495379 1.9057659e-42
66.980301 -15.4615 477.14999 -0.69475597 -0.54663301 0.46744701 1.9057659e-42
67.154099 -14.4111 478.60101 -0.69972801 -0.56555301 0.43649799 1.9057659e-42
67.053001 -13.309 480.021 -0.70088398 -0.58373499 0.40989599 1.9057659e-42
67.128098 -12.2511 481.47501 -0.70411497 -0.59193599 0.39221701 1.9057659e-42
67.167198 -11.1905 482.92899 -0.701823 -0.60701901 0.37279001 1.9057659e-42
66.695297 -10.0791 484.26401 -0.68681598 -0.635225 0.353232 1.9057659e-42
66.273804 -9.0088701 485.64899 -0.672382 -0.66410702 0.32690099 1.9057659e-42
66.142899 -7.92066 487.07599 -0.662983 -0.688133 0.29483199 1.9057659e-42
65.283699 -6.8733201 488.26199 -0.64738101 -0.70766598 0.28303 1.9057659e-42
64.662003 -5.8136702 489.577 -0.64008999 -0.7209 0.26568201 1.9057659e-42
63.890999 -4.7438698 490.802 -0.63493001 -0.73258799 0.24531201 1.9057659e-42
63.576801 -3.68503 492.224 -0.63441199 -0.74325299 0.21235999 1.9057659e-42
62.390099 -2.72719 493.17999 -0.61234099 -0.76814002 0.18708 1.9057659e-42
61.714199 -1.69807 494.49301 -0.589791 -0.79159099 0.159785 1.9057659e-42
60.6292 -0.735695 495.55899 -0.564125 -0.80989301 0.16073599 1.9057659e-42
59.583199 0.211375 496.677 -0.54384202 -0.82450998 0.156266 1.9057659e-42
58.331299 1.1065201 497.60999 -0.524517 -0.83873802 0.14629 1.9057659e-42
57.114601 2.0242 498.56799 -0.50660998 -0.85268998 0.127536 1.9057659e-42
55.6987 2.8345101 499.32901 -0.47837499 -0.87217498 0.102309 1.9057659e-42
54.319199 3.6584699 500.14001 -0.44901699 -0.89075297 0.070301197 1.9057659e-42
52.959202 4.49154 500.974 -0.42301399 -0.90543902 0.0352116 1.9057659e-42
51.436901 5.19873 501.62399 -0.40098599 -0.91606498 0.00588034 1.9057659e-42
49.769299 5.7708302 501.987 -0.38312301 -0.92363298 -0.0108986 1.9057659e-42
48.1712 6.4283299 502.491 -0.35369301 -0.934789 -0.0327322 1.9057659e-42
