# .PCD v0.7 - Point Cloud Data file format
# 3 133 0
# 1 52 0
# 53 99 0
# 100 133 0
VERSION 0.7
FIELDS x y z normal_x normal_y normal_z curvature
SIZE 4 4 4 4 4 4 4
TYPE F F F F F F F
COUNT 1 1 1 1 1 1 1
WIDTH 133
HEIGHT 1
VIEWPOINT 0 0 0 1 0 0 0
POINTS 133
DATA ascii
33.85540000 25.46100000 496.19601000 -0.38434699 0.62681699 -0.67777401 1.905766e-42
33.63180200 24.27269900 494.86200000 -0.22821100 0.80036598 -0.55437702 1.905766e-42
33.21810200 23.18490000 493.48901000 -0.19277699 0.85179400 -0.48711899 1.905766e-42
32.90940100 22.17240000 492.03299000 -0.17213900 0.88823599 -0.42591599 1.905766e-42
32.05600000 21.53190000 490.58401000 -0.15410200 0.91714001 -0.36757001 1.905766e-42
31.32360100 20.94520000 489.04800000 -0.14331400 0.92588598 -0.34956500 1.905766e-42
30.66810000 20.24220100 487.52600000 -0.14087801 0.92659903 -0.34866500 1.905766e-42
30.38900000 19.41659900 485.95099000 -0.14568999 0.92562503 -0.34927401 1.905766e-42
29.77680000 18.66540000 484.43399000 -0.15282400 0.92320800 -0.35260600 1.905766e-42
29.22860000 17.90580000 482.89700000 -0.16289701 0.91993999 -0.35661700 1.905766e-42
28.34840000 17.31279900 481.44299000 -0.17343999 0.91549200 -0.36303401 1.905766e-42
27.88710000 16.65350000 479.83301000 -0.18625601 0.91658300 -0.35381499 1.905766e-42
27.10500000 16.02969900 478.33701000 -0.19633800 0.92035598 -0.33822501 1.905766e-42
26.69529900 15.36690000 476.71399000 -0.20496599 0.92572898 -0.31782699 1.905766e-42
26.38430000 14.70800000 475.06799000 -0.20932800 0.93181300 -0.29649001 1.905766e-42
26.25639900 13.99820000 473.41901000 -0.21488400 0.93743700 -0.27392900 1.905766e-42
25.65200000 13.53000000 471.78900000 -0.21534100 0.94283003 -0.25436300 1.905766e-42
24.58379900 12.99170000 470.44400000 -0.21183600 0.94611800 -0.24492000 1.905766e-42
24.60820000 12.50880000 468.70999000 -0.22213399 0.94412500 -0.24348301 1.905766e-42
24.34880100 12.03660000 466.99301000 -0.23176099 0.94174898 -0.24371199 1.905766e-42
23.92900100 11.47370000 465.33600000 -0.24273600 0.93855101 -0.24535801 1.905766e-42
23.23060000 10.89720000 463.78000000 -0.25609401 0.93382400 -0.24977900 1.905766e-42
22.99930000 10.19980000 462.13699000 -0.27320099 0.92866403 -0.25088599 1.905766e-42
22.47930000 9.65711020 460.50101000 -0.29381099 0.92134899 -0.25454199 1.905766e-42
21.92989900 9.05556960 458.89600000 -0.31695700 0.91262603 -0.25817099 1.905766e-42
20.93190000 8.38401990 457.55701000 -0.34379900 0.90088803 -0.26495701 1.905766e-42
20.31860000 7.68178990 456.01700000 -0.36918199 0.89059198 -0.26561400 1.905766e-42
19.79670000 6.92917010 454.46799000 -0.39305800 0.88090801 -0.26363900 1.905766e-42
19.03470000 6.16052010 453.03000000 -0.41869700 0.86963397 -0.26159099 1.905766e-42
18.40910000 5.43611000 451.50500000 -0.44009799 0.86056602 -0.25639901 1.905766e-42
17.70039900 4.66588020 450.04099000 -0.45159799 0.84991097 -0.27149701 1.905766e-42
17.49399900 3.83718990 448.45599000 -0.46706700 0.83440399 -0.29260701 1.905766e-42
16.70540000 3.03854990 447.04901000 -0.48129699 0.81784302 -0.31541401 1.905766e-42
15.79280000 2.06802010 445.83899000 -0.49530399 0.80082399 -0.33668199 1.905766e-42
15.25550000 1.01256000 444.48300000 -0.50832301 0.78449798 -0.35520399 1.905766e-42
14.65620000 -0.12360800 443.22198000 -0.51910901 0.76949799 -0.37201899 1.905766e-42
13.92960000 -1.20417000 441.97900000 -0.52749097 0.75832403 -0.38301101 1.905766e-42
13.41810000 -2.18638990 440.56000000 -0.53564298 0.75071299 -0.38667399 1.905766e-42
12.63930000 -3.14998010 439.25500000 -0.54613799 0.74068803 -0.39129901 1.905766e-42
12.03160000 -4.31971980 438.02899000 -0.55891699 0.72838598 -0.39631501 1.905766e-42
11.29460000 -5.55060010 436.94199000 -0.57464403 0.71247798 -0.40268999 1.905766e-42
10.94270000 -6.73142000 435.63000000 -0.59244400 0.69555402 -0.40646499 1.905766e-42
10.35890000 -7.92720990 434.41699000 -0.61374497 0.67350101 -0.41196200 1.905766e-42
9.42027000 -9.27826980 433.68701000 -0.62594199 0.65322000 -0.42602801 1.905766e-42
9.34123040 -10.47620000 432.34601000 -0.63966298 0.63865602 -0.42772701 1.905766e-42
8.59270950 -11.74720000 431.31400000 -0.64257002 0.62925297 -0.43720099 1.905766e-42
7.64732980 -13.11850000 430.63199000 -0.64010000 0.62365001 -0.44870099 1.905766e-42
7.29324010 -14.37670000 429.39401000 -0.64575303 0.61629200 -0.45076200 1.905766e-42
6.58506010 -15.87600000 428.69400000 -0.64467001 0.61202502 -0.45806801 1.905766e-42
5.29886010 -17.13089900 428.79901000 -0.63587302 0.61107999 -0.47143000 1.905766e-42
4.86597010 -17.60610000 428.72900000 -0.63386899 0.61007100 -0.47542000 1.905766e-42
3.44550990 -18.43269900 429.46301000 -0.62112600 0.61013001 -0.49187699 1.905766e-42
2.11563990 -19.64150000 429.56500000 -0.61375999 0.60658401 -0.50532597 1.905766e-42
1.05067000 -19.54190100 431.01199000 -0.59606701 0.61012697 -0.52196699 1.905766e-42
0.29657599 -18.91630000 432.52200000 -0.57847601 0.61545402 -0.53533298 1.905766e-42
-0.66950601 -18.48530000 433.97900000 -0.55886900 0.61983103 -0.55088598 1.905766e-42
-1.45031000 -17.81600000 435.45599000 -0.53910899 0.62492901 -0.56464601 1.905766e-42
-2.20820000 -17.04830000 436.89700000 -0.51860201 0.63006598 -0.57798600 1.905766e-42
-2.98161010 -16.28140100 438.32999000 -0.49680799 0.63495201 -0.59162402 1.905766e-42
-3.58904000 -15.58430000 439.87399000 -0.47452801 0.63989502 -0.60444802 1.905766e-42
-3.84816000 -14.52050000 441.30301000 -0.45499200 0.65015298 -0.60850900 1.905766e-42
-3.83972000 -13.28550000 442.61200000 -0.43783200 0.66318297 -0.60703498 1.905766e-42
-4.01270010 -12.12540000 443.97800000 -0.41691101 0.67542702 -0.60826302 1.905766e-42
-4.71480990 -11.22990000 445.37201000 -0.38937199 0.68391502 -0.61696798 1.905766e-42
-4.75027990 -10.01390000 446.69901000 -0.36836201 0.69588000 -0.61649001 1.905766e-42
-5.41320990 -9.14700980 448.13000000 -0.33974200 0.70281798 -0.62499797 1.905766e-42
-5.62735990 -7.98564000 449.48901000 -0.31577501 0.70896101 -0.63060302 1.905766e-42
-6.34882020 -7.08866980 450.87299000 -0.28768000 0.70863497 -0.64426500 1.905766e-42
-6.79696990 -5.95516010 452.19699000 -0.26146901 0.70932198 -0.65459597 1.905766e-42
-7.22116990 -4.77514980 453.48901000 -0.23462000 0.70909297 -0.66493702 1.905766e-42
-7.18569990 -3.55838990 454.81500000 -0.21075700 0.71118701 -0.67066699 1.905766e-42
-7.79515980 -2.55624010 456.17999000 -0.17939000 0.70661801 -0.68447798 1.905766e-42
-8.03318980 -1.41933000 457.55499000 -0.14882700 0.70669699 -0.69168597 1.905766e-42
-8.55852030 -0.29052699 458.85501000 -0.11486500 0.70690101 -0.69792300 1.905766e-42
-9.18214040 0.86115998 460.09000000 -0.08067720 0.70575100 -0.70385098 1.905766e-42
-9.72725010 2.08922000 461.28799000 -0.04839350 0.70536000 -0.70719498 1.905766e-42
-10.02540000 3.40912010 462.47501000 -0.02030740 0.70745498 -0.70646602 1.905766e-42
-9.94851020 4.71852020 463.70700000 0.00160896 0.71274400 -0.70142198 1.905766e-42
-11.17110000 5.62597990 464.66699000 0.02768120 0.70565999 -0.70801002 1.905766e-42
-11.69290000 6.81391000 465.91501000 0.05371020 0.70620602 -0.70596600 1.905766e-42
-11.95530000 8.17127040 467.06799000 0.08025640 0.70817101 -0.70146501 1.905766e-42
-12.60790000 9.36629010 468.24500000 0.10993100 0.70455199 -0.70108598 1.905766e-42
-13.14340000 10.54950000 469.49100000 0.14018901 0.70092797 -0.69931901 1.905766e-42
-12.91180000 11.74660000 470.81500000 0.16667800 0.70548099 -0.68885100 1.905766e-42
-13.80010000 12.94180000 471.82700000 0.19850500 0.69470298 -0.69136399 1.905766e-42
-14.16190000 14.28880000 472.96500000 0.22962201 0.68768299 -0.68874198 1.905766e-42
-14.97010000 15.55020000 473.96201000 0.25935301 0.67309397 -0.69259000 1.905766e-42
-15.04220000 16.97720000 475.05701000 0.28681600 0.66632003 -0.68829799 1.905766e-42
-15.92850000 18.30940100 475.88199000 0.31433901 0.64987499 -0.69199300 1.905766e-42
-16.01240000 19.62910100 477.10300000 0.34038800 0.64254600 -0.68649203 1.905766e-42
-16.73130000 21.00079900 478.01999000 0.36497900 0.62739801 -0.68786800 1.905766e-42
-17.34149900 22.38060000 479.00201000 0.38931599 0.61234897 -0.68808502 1.905766e-42
-18.22930000 23.66370000 479.89899000 0.41146401 0.59258902 -0.69248497 1.905766e-42
-18.37240000 25.11890000 480.94901000 0.43733001 0.57744700 -0.68941802 1.905766e-42
-19.15730100 26.60829900 481.58600000 0.45877600 0.55415303 -0.69457799 1.905766e-42
-19.88010000 28.11020100 482.26599000 0.48038101 0.53025198 -0.69861799 1.905766e-42
-20.43370100 29.66670000 482.98001000 0.50309598 0.50663400 -0.70015502 1.905766e-42
-21.49659900 31.10380000 483.19199000 0.51803702 0.47802001 -0.70931900 1.905766e-42
-21.46010000 32.59140000 484.20499000 0.54470998 0.46175101 -0.70005399 1.905766e-42
-21.40020000 33.92509800 485.41199000 0.57504898 0.46805501 -0.67100102 1.905766e-42
-19.89030100 33.66650000 486.35800000 0.57701099 0.49697301 -0.64813298 1.905766e-42
-18.40309900 33.07120100 487.17801000 0.57029700 0.52159798 -0.63458401 1.905766e-42
-17.02610000 32.78459900 488.30200000 0.56591201 0.54281598 -0.62055898 1.905766e-42
-15.52890000 32.08910000 489.01901000 0.55334300 0.56220400 -0.61460400 1.905766e-42
-14.08860000 31.79089900 490.05701000 0.54072100 0.58160299 -0.60774899 1.905766e-42
-12.73880000 31.43280000 491.19199000 0.51709199 0.60391998 -0.60654497 1.905766e-42
-11.14070000 30.99900100 491.89801000 0.49136299 0.62385499 -0.60775602 1.905766e-42
-9.50526050 30.49589900 492.45700000 0.46701601 0.64122403 -0.60887498 1.905766e-42
-7.89063980 29.75700000 492.75201000 0.44336000 0.65754998 -0.60914701 1.905766e-42
-6.46418000 29.79100000 493.84900000 0.42534700 0.66879100 -0.60975301 1.905766e-42
-5.06603000 29.72909900 494.98099000 0.40667599 0.67948103 -0.61067200 1.905766e-42
-3.42498990 29.51709900 495.69000000 0.38463399 0.69270998 -0.61008900 1.905766e-42
-1.91087000 28.97660100 496.49899000 0.36351299 0.70689702 -0.60675699 1.905766e-42
-0.16940300 28.57550000 496.71500000 0.33983099 0.72404999 -0.60022199 1.905766e-42
1.57263000 28.12579900 496.76999000 0.31385601 0.74207598 -0.59229797 1.905766e-42
3.20189000 28.03470000 497.53000000 0.29580000 0.75704300 -0.58257103 1.905766e-42
4.89686010 27.42880100 497.52600000 0.26755801 0.77547699 -0.57188201 1.905766e-42
6.32800010 27.41390000 498.61801000 0.26046601 0.78795803 -0.55792397 1.905766e-42
8.06737040 27.27430000 499.06000000 0.25604600 0.80275100 -0.53854603 1.905766e-42
9.84321020 26.99550100 499.15302000 0.24624600 0.81977397 -0.51704299 1.905766e-42
11.51410000 26.67970100 499.74301000 0.24240801 0.83692598 -0.49070701 1.905766e-42
13.27490000 26.37039900 499.95300000 0.22902900 0.85611200 -0.46326900 1.905766e-42
15.04420000 26.04100000 499.98401000 0.17986600 0.87812603 -0.44333100 1.905766e-42
16.69790100 25.67110100 500.59100000 0.13427100 0.89298397 -0.42959401 1.905766e-42
18.43960000 25.53380000 500.15799000 0.08254310 0.89817297 -0.43182501 1.905766e-42
20.23630000 25.54089900 500.04800000 0.03050650 0.89658099 -0.44182900 1.905766e-42
22.03529900 25.50449900 500.00299000 -0.01492490 0.88767898 -0.46022001 1.905766e-42
23.70170000 25.32530000 499.34601000 -0.05401730 0.87496102 -0.48117200 1.905766e-42
25.48800100 25.50650000 499.21899000 -0.11622600 0.85180700 -0.51079899 1.905766e-42
27.28300100 25.59440000 499.11700000 -0.17860700 0.81667900 -0.54875797 1.905766e-42
28.95450000 25.53890000 498.45200000 -0.20293599 0.79388303 -0.57320702 1.905766e-42
30.62490100 25.49169900 497.78299000 -0.23446500 0.77085602 -0.59228897 1.905766e-42
32.22950000 25.45520000 496.96799000 -0.27370700 0.73944902 -0.61506099 1.905766e-42
