# .PCD v0.7 - Point Cloud Data file format
# 3 70 0
# 1 24 0
# 25 52 0
# 53 70 0
VERSION 0.7
FIELDS x y z normal_x normal_y normal_z curvature
SIZE 4 4 4 4 4 4 4
TYPE F F F F F F F
COUNT 1 1 1 1 1 1 1
WIDTH 70
HEIGHT 1
VIEWPOINT 0 0 0 1 0 0 0
POINTS 70
DATA ascii
23.13299900 19.94990000 453.58801000 -0.08987660 -0.56269401 0.82176501 1.905766e-42
20.90169900 18.53480000 452.37201000 -0.12461100 -0.55811298 0.82035500 1.905766e-42
19.47160000 17.80380100 451.56000000 -0.14083500 -0.56665301 0.81183100 1.905766e-42
18.30139900 16.69120000 450.76401000 -0.14748700 -0.58348900 0.79861701 1.905766e-42
17.06139900 15.71660000 449.89700000 -0.15514700 -0.60096800 0.78407103 1.905766e-42
15.72640000 14.96190000 448.95401000 -0.16514701 -0.61687398 0.76954103 1.905766e-42
14.63320000 13.99670000 447.89899000 -0.17420501 -0.63847703 0.74966699 1.905766e-42
13.45300000 13.20770000 446.79300000 -0.18536399 -0.65660399 0.73110300 1.905766e-42
12.73690000 11.97180000 445.69699000 -0.18793400 -0.67967999 0.70902503 1.905766e-42
11.52820000 11.34670000 444.51901000 -0.19900601 -0.68730497 0.69857699 1.905766e-42
10.91090000 10.14750000 443.32700000 -0.19752400 -0.70550501 0.68062299 1.905766e-42
9.99108030 9.25349040 442.06400000 -0.20407300 -0.72006702 0.66321802 1.905766e-42
9.20495030 8.32483010 440.73801000 -0.21040601 -0.73470497 0.64493197 1.905766e-42
8.40131000 7.41049000 439.41199000 -0.21899500 -0.74640799 0.62842298 1.905766e-42
7.96483990 6.35552980 438.01999000 -0.22402900 -0.75982702 0.61030602 1.905766e-42
7.13218020 5.53290990 436.65302000 -0.23667000 -0.77059400 0.59175402 1.905766e-42
6.32567980 4.69868990 435.27701000 -0.24900900 -0.77927202 0.57509100 1.905766e-42
5.51573990 3.93776990 433.86099000 -0.25548100 -0.78429198 0.56534600 1.905766e-42
4.69944000 3.18277000 432.44501000 -0.26280600 -0.78969997 0.55435199 1.905766e-42
3.80528000 2.79229000 430.93301000 -0.27123901 -0.79697800 0.53968102 1.905766e-42
3.74920990 1.60984000 429.57700000 -0.26435500 -0.81269097 0.51927799 1.905766e-42
2.73378990 1.10268000 428.17999000 -0.27933800 -0.82030100 0.49907601 1.905766e-42
2.06551000 0.41838899 426.65500000 -0.28377301 -0.83151001 0.47756100 1.905766e-42
1.48336990 -0.21429300 425.07300000 -0.28764400 -0.84103501 0.45817199 1.905766e-42
1.20062990 -1.00411000 423.48099000 -0.29012501 -0.84839201 0.44278499 1.905766e-42
2.79366990 -1.72250000 423.04901000 -0.27570000 -0.85460198 0.44005001 1.905766e-42
4.52257010 -2.20457010 423.18500000 -0.25223899 -0.86366302 0.43641999 1.905766e-42
6.26707980 -2.64697000 423.15399000 -0.22451800 -0.87430203 0.43033499 1.905766e-42
7.83404020 -2.69277000 424.03900000 -0.20221400 -0.87869102 0.43244901 1.905766e-42
9.45989040 -2.72931000 424.81000000 -0.18103801 -0.87975699 0.43960500 1.905766e-42
11.05070000 -2.52465010 425.62701000 -0.17220201 -0.87758899 0.44741800 1.905766e-42
12.54870000 -2.35059000 426.60999000 -0.16699199 -0.87340200 0.45747399 1.905766e-42
13.54540000 -1.80533000 428.00601000 -0.16522101 -0.86153501 0.48006201 1.905766e-42
15.32050000 -2.08643010 428.10501000 -0.15586500 -0.86292499 0.48069501 1.905766e-42
16.96159900 -1.92959000 428.82800000 -0.14452900 -0.85821003 0.49253100 1.905766e-42
18.74880000 -2.10768010 428.94601000 -0.12916601 -0.86132300 0.49136499 1.905766e-42
20.38670000 -1.91270010 429.66699000 -0.11465300 -0.85791200 0.50084102 1.905766e-42
22.17250100 -1.82930000 429.87701000 -0.09565640 -0.86024302 0.50083101 1.905766e-42
23.79649900 -1.74597000 430.64801000 -0.07963300 -0.85741103 0.50843400 1.905766e-42
25.44000100 -1.47414000 431.32999000 -0.06488990 -0.85436702 0.51560199 1.905766e-42
27.05570000 -1.18517990 432.06900000 -0.05522450 -0.85093701 0.52235699 1.905766e-42
28.64480000 -0.81075501 432.82700000 -0.04759570 -0.84609401 0.53090501 1.905766e-42
30.40110000 -0.51512301 433.08801000 -0.03718010 -0.84728402 0.52983701 1.905766e-42
32.05419900 -0.15107700 433.70001000 -0.02681340 -0.84296900 0.53729397 1.905766e-42
33.66220100 0.16360100 434.44601000 -0.01674570 -0.83704603 0.54687703 1.905766e-42
35.24560200 0.49944800 435.23300000 -0.00818665 -0.83008802 0.55757302 1.905766e-42
36.87229900 0.94916397 435.85901000 -0.00023662 -0.82316601 0.56779999 1.905766e-42
38.54069900 1.52497990 436.21201000 0.00678618 -0.81628299 0.57761198 1.905766e-42
39.42490000 2.22770000 437.61401000 0.00900076 -0.79227901 0.61009300 1.905766e-42
41.20500200 2.41441010 437.80499000 0.01317230 -0.78578699 0.61835700 1.905766e-42
42.74610100 3.07444000 438.45999000 0.01945590 -0.76496601 0.64377701 1.905766e-42
44.48960100 3.31143000 438.83899000 0.01507630 -0.75376201 0.65697402 1.905766e-42
46.14030100 3.88289000 439.27399000 -0.02937240 -0.72769397 0.68527299 1.905766e-42
45.50410100 5.00896980 440.52600000 0.02071200 -0.72637397 0.68698698 1.905766e-42
44.21350100 5.82300000 441.48099000 0.02203160 -0.71420401 0.69959098 1.905766e-42
43.08570100 6.88302990 442.39999000 0.02192250 -0.70244998 0.71139503 1.905766e-42
41.56420100 7.39864020 443.21100000 0.02973540 -0.69984603 0.71367502 1.905766e-42
40.49459800 8.41981030 444.23801000 0.03844190 -0.68849099 0.72422498 1.905766e-42
39.37509900 9.45203970 445.19699000 0.04828200 -0.67636400 0.73498303 1.905766e-42
38.21920000 10.44580000 446.15500000 0.05552560 -0.66294599 0.74660498 1.905766e-42
36.86600100 11.25650000 447.02200000 0.05260390 -0.65208298 0.75632000 1.905766e-42
35.96009800 12.56760000 447.85901000 0.05029590 -0.63680702 0.76938099 1.905766e-42
34.36780200 12.93910000 448.61099000 0.03608190 -0.63399899 0.77249199 1.905766e-42
33.06470100 13.88320000 449.41800000 0.02658010 -0.62372601 0.78119099 1.905766e-42
31.60860100 14.71370000 450.07401000 0.01277880 -0.61286300 0.79008597 1.905766e-42
30.52520000 15.97710000 450.75900000 0.00400156 -0.59420598 0.80430299 1.905766e-42
29.09370000 16.72540100 451.55301000 0.00713729 -0.59809202 0.80139601 1.905766e-42
27.72349900 17.67630000 452.23001000 0.01378020 -0.60561198 0.79564101 1.905766e-42
26.39670000 18.66190000 452.94299000 -0.01005690 -0.58051598 0.81418699 1.905766e-42
24.82360100 19.33840000 453.49799000 -0.04397430 -0.56912798 0.82107198 1.905766e-42
