# .PCD v0.7 - Point Cloud Data file format
# 5 137 0
# 1 12 0
# 13 30 0
# 31 71 0
# 72 99 0
# 100 137 0
VERSION 0.7
FIELDS x y z normal_x normal_y normal_z curvature
SIZE 4 4 4 4 4 4 4
TYPE F F F F F F F
COUNT 1 1 1 1 1 1 1
WIDTH 137
HEIGHT 1
VIEWPOINT 0 0 0 1 0 0 0
POINTS 137
DATA ascii
19.265699 -29.5268 491.97299 -0.090879701 -0.85528302 0.51012897 1.9057659e-42
20.3766 -29.0137 493.293 -0.066319399 -0.82455599 0.56187999 1.9057659e-42
21.8867 -28.2771 493.93799 -0.045028102 -0.80227101 0.59525901 1.9057659e-42
23.040501 -27.425301 495.026 -0.0308067 -0.77464199 0.63164997 1.9057659e-42
23.8465 -26.590799 496.40201 -0.0284258 -0.750135 0.66067398 1.9057659e-42
25.0814 -25.8246 497.46399 -0.0261179 -0.73452401 0.67808002 1.9057659e-42
26.2355 -24.921801 498.51001 -0.023535 -0.71816701 0.69547302 1.9057659e-42
28.1406 -24.131201 499.17499 -0.0182862 -0.70673501 0.70724201 1.9057659e-42
29.1299 -23.0979 500.26801 -0.016582601 -0.69003701 0.72358501 1.9057659e-42
30.4403 -22.2346 501.14899 -0.0117519 -0.67662603 0.736233 1.9057659e-42
31.8731 -21.445999 501.901 -0.0033755901 -0.66403198 0.747697 1.9057659e-42
33.337898 -20.6178 502.54001 0.0087178601 -0.651205 0.75885201 1.9057659e-42
34.744202 -19.687799 503.17099 0.0232435 -0.63899201 0.76886201 1.9057659e-42
33.737499 -18.473301 504.03699 0.0187723 -0.63240802 0.77440798 1.9057659e-42
33.556 -17.204201 505.30099 0.019977201 -0.62041903 0.78401601 1.9057659e-42
33.625702 -15.6914 506.27399 0.022466101 -0.60545498 0.79556298 1.9057659e-42
33.326 -14.3947 507.48599 0.022285501 -0.58880901 0.80796498 1.9057659e-42
33.600399 -12.9577 508.535 0.0257427 -0.56963301 0.82149601 1.9057659e-42
33.272099 -11.5227 509.57001 0.0210134 -0.55721599 0.83010203 1.9057659e-42
33.5868 -10.0428 510.54501 0.019820999 -0.54930103 0.83538902 1.9057659e-42
33.986301 -8.5687504 511.49799 0.0209153 -0.54392397 0.83887398 1.9057659e-42
34.422001 -7.0662398 512.388 0.024386801 -0.54097497 0.84068501 1.9057659e-42
34.480099 -5.5514998 513.35901 0.026471701 -0.53928798 0.84170502 1.9057659e-42
35.2383 -4.0471101 513.99298 0.034953099 -0.53386199 0.84484899 1.9057659e-42
34.849998 -2.7024601 515.125 0.030912399 -0.52345502 0.851493 1.9057659e-42
35.702702 -1.31617 515.89398 0.033103 -0.509736 0.859694 1.9057659e-42
36.8783 -0.094575197 516.49902 0.031297199 -0.50352001 0.86341703 1.9057659e-42
37.836399 1.1536601 517.37299 0.0462978 -0.50884598 0.85961199 1.9057659e-42
37.909801 2.6527901 518.36603 0.056946099 -0.53224701 0.84467202 1.9057659e-42
38.289902 4.2105799 519.18402 0.107123 -0.577788 0.80912697 1.9057659e-42
37.7924 5.5342202 520.29797 0.120159 -0.66150802 0.74024898 1.9057659e-42
37.0625 6.32512 521.74103 0.104505 -0.74816799 0.65522802 1.9057659e-42
35.2644 6.3731399 521.80798 0.0304862 -0.76742703 0.64041102 1.9057659e-42
33.4771 6.3899398 522.021 -0.0143783 -0.78036201 0.62516302 1.9057659e-42
31.680201 6.39889 521.91602 -0.043122198 -0.77655703 0.62857002 1.9057659e-42
29.8869 6.3947601 521.76099 -0.0613367 -0.76596099 0.63995498 1.9057659e-42
28.1115 6.3923101 521.46399 -0.065798402 -0.74506199 0.66374201 1.9057659e-42
26.327101 6.6089001 521.55902 -0.064203203 -0.74347901 0.66566998 1.9057659e-42
24.5366 6.7923498 521.58197 -0.059019499 -0.73493898 0.67556 1.9057659e-42
22.753099 7.0324702 521.54303 -0.057164501 -0.72475499 0.68663102 1.9057659e-42
20.992599 7.4072199 521.55701 -0.072317697 -0.73282099 0.67656702 1.9057659e-42
19.5109 7.8586502 522.474 -0.091582 -0.79071498 0.605295 1.9057659e-42
17.788099 8.3709297 522.375 -0.13288 -0.79508299 0.59176499 1.9057659e-42
16.177099 8.92906 522.95203 -0.180223 -0.81754601 0.54693598 1.9057659e-42
14.4422 9.37428 523.13098 -0.215445 -0.813676 0.53992099 1.9057659e-42
12.7148 9.87889 523.16803 -0.23903701 -0.801916 0.54753298 1.9057659e-42
11.1359 10.6 523.64398 -0.26735401 -0.81235498 0.51826799 1.9057659e-42
9.4904699 11.3242 523.73401 -0.282592 -0.80398101 0.52321702 1.9057659e-42
7.90906 12.1511 523.96899 -0.303253 -0.80014402 0.517501 1.9057659e-42
6.2920198 12.3305 523.19897 -0.27961901 -0.73903698 0.61289299 1.9057659e-42
4.9461298 13.2716 523.93597 -0.317747 -0.75854802 0.568896 1.9057659e-42
3.5397899 14.237 524.51099 -0.34980199 -0.76586801 0.53952199 1.9057659e-42
1.89236 14.9393 524.33002 -0.345631 -0.733311 0.58548701 1.9057659e-42
0.433754 15.9017 524.76202 -0.36915699 -0.72948301 0.57582802 1.9057659e-42
-1.09076 16.8585 524.78101 -0.37251601 -0.70739198 0.60069001 1.9057659e-42
-2.15553 18.0089 525.66602 -0.41688201 -0.72694999 0.54566801 1.9057659e-42
-3.7099199 18.9125 525.57898 -0.408517 -0.69935501 0.58652902 1.9057659e-42
-4.82968 20.1441 526.26398 -0.44506499 -0.70437503 0.55296701 1.9057659e-42
-6.2579999 21.2351 526.362 -0.44830799 -0.681593 0.57831699 1.9057659e-42
-7.44771 22.4454 526.96198 -0.47891799 -0.67227602 0.56452 1.9057659e-42
-8.9093304 23.4832 526.79901 -0.462771 -0.63701999 0.61648101 1.9057659e-42
-10.2915 24.636299 526.79602 -0.44203201 -0.61398298 0.65393603 1.9057659e-42
-11.1044 25.9793 527.677 -0.48184299 -0.61346102 0.62569398 1.9057659e-42
-12.0516 27.346701 528.36499 -0.50269598 -0.587758 0.63390601 1.9057659e-42
-12.8353 28.7059 529.24701 -0.52825201 -0.56133699 0.63706398 1.9057659e-42
-14.0895 29.997 529.242 -0.52220201 -0.52973402 0.66834599 1.9057659e-42
-15.1935 31.3934 529.508 -0.52612698 -0.502698 0.68591899 1.9057659e-42
-16.282 32.825901 529.565 -0.497159 -0.511801 0.70063698 1.9057659e-42
-17.392599 34.097801 528.94202 -0.45574999 -0.51231402 0.72789198 1.9057659e-42
-19.030899 34.5121 528.32202 -0.39074001 -0.484644 0.78258699 1.9057659e-42
-20.773899 34.518398 527.87201 -0.30768001 -0.42400101 0.85179502 1.9057659e-42
-22.524401 34.7327 527.51202 -0.22551499 -0.346816 0.91041797 1.9057659e-42
-24.242201 34.479599 527.03802 -0.205276 -0.34675199 0.91521901 1.9057659e-42
-25.9072 34.157398 526.435 -0.21403299 -0.3691 0.90440899 1.9057659e-42
-27.094 33.0611 525.64099 -0.23280799 -0.39221999 0.88992298 1.9057659e-42
-27.3304 31.4354 524.90503 -0.245822 -0.40725699 0.87961 1.9057659e-42
-27.9221 29.969999 524.04401 -0.25414801 -0.40922201 0.87632602 1.9057659e-42
-28.5287 28.4995 523.20099 -0.258084 -0.40732399 0.876059 1.9057659e-42
-28.7027 26.874599 522.44702 -0.25902 -0.407435 0.87573099 1.9057659e-42
-29.511101 25.622499 521.43799 -0.26236099 -0.40886301 0.87406999 1.9057659e-42
-29.867399 24.006399 520.729 -0.263942 -0.41493401 0.87072599 1.9057659e-42
-30.375799 22.5028 519.88098 -0.26835099 -0.42353401 0.86522102 1.9057659e-42
-31.038 21.176001 518.85999 -0.27396601 -0.430682 0.85991597 1.9057659e-42
-31.1751 19.525101 518.15601 -0.27609101 -0.43712401 0.855977 1.9057659e-42
-31.831499 18.119301 517.24298 -0.28219 -0.44184199 0.85155398 1.9057659e-42
-32.6852 16.9858 516.13599 -0.295084 -0.45299101 0.841263 1.9057659e-42
-33.242298 15.574 515.16803 -0.305525 -0.46529701 0.830755 1.9057659e-42
-33.608299 14.0745 514.242 -0.31452399 -0.478306 0.819938 1.9057659e-42
-34.4142 12.8718 513.17297 -0.326074 -0.49173999 0.807383 1.9057659e-42
-35.2346 11.7478 512.03101 -0.33421499 -0.500893 0.79837698 1.9057659e-42
-35.869499 10.4996 510.89999 -0.34072399 -0.509462 0.79016203 1.9057659e-42
-36.045898 8.8952999 510.103 -0.344603 -0.51828498 0.78270602 1.9057659e-42
-36.799801 7.80867 508.88199 -0.352256 -0.52661997 0.77368402 1.9057659e-42
-37.498901 6.7118702 507.638 -0.36217901 -0.53808802 0.76111001 1.9057659e-42
-37.9828 5.32479 506.59799 -0.37244299 -0.55209702 0.74597299 1.9057659e-42
-38.453499 4.0040998 505.46899 -0.383919 -0.56671703 0.72899801 1.9057659e-42
-38.985901 2.87198 504.17499 -0.39769399 -0.58165598 0.70958799 1.9057659e-42
-39.748501 1.90605 502.86099 -0.42314801 -0.60685802 0.67280698 1.9057659e-42
-40.326801 0.948349 501.45099 -0.44390601 -0.62892997 0.63827503 1.9057659e-42
-39.941399 -0.357627 500.27399 -0.45464301 -0.64429599 0.61496502 1.9057659e-42
-38.770599 -1.68871 499.96201 -0.45385501 -0.65198803 0.60739398 1.9057659e-42
-37.584599 -2.8529799 499.26999 -0.451204 -0.66448402 0.59571499 1.9057659e-42
-36.245899 -4.0513802 499.16199 -0.44434601 -0.67145902 0.59304202 1.9057659e-42
-34.978401 -5.2067199 498.616 -0.44152999 -0.68114603 0.58402997 1.9057659e-42
-33.621799 -6.3618398 498.35999 -0.43637201 -0.687159 0.580854 1.9057659e-42
-32.2957 -7.4611301 497.83701 -0.43397 -0.69399798 0.57448798 1.9057659e-42
-30.8493 -8.5202503 497.99899 -0.419736 -0.69786 0.580356 1.9057659e-42
-29.432899 -9.5984802 497.73199 -0.409711 -0.70623797 0.57737702 1.9057659e-42
-27.9825 -10.6566 497.60199 -0.39889199 -0.713296 0.57627702 1.9057659e-42
-26.6416 -11.6636 496.948 -0.39371201 -0.72574598 0.56416702 1.9057659e-42
-25.1817 -12.6753 496.65601 -0.38517299 -0.73441601 0.558815 1.9057659e-42
-23.756201 -13.6245 496.10199 -0.379489 -0.74544799 0.54799199 1.9057659e-42
-22.249399 -14.6062 496.02701 -0.37019801 -0.75055599 0.54737598 1.9057659e-42
-20.7344 -15.5539 495.811 -0.36177501 -0.75659102 0.54469103 1.9057659e-42
-19.252399 -16.447599 495.31601 -0.35578299 -0.76505202 0.536762 1.9057659e-42
-17.689899 -17.3344 495.20599 -0.34580401 -0.76872599 0.53803402 1.9057659e-42
-16.101999 -18.181999 495.19501 -0.334589 -0.77074301 0.54222399 1.9057659e-42
-14.6038 -18.937401 494.543 -0.32840601 -0.779598 0.53326899 1.9057659e-42
-13.0055 -19.755501 494.41699 -0.31470701 -0.78515798 0.533373 1.9057659e-42
-11.3907 -20.550301 494.392 -0.30142099 -0.78983098 0.53414601 1.9057659e-42
-9.7510099 -21.292999 494.39301 -0.28907901 -0.79406202 0.53469503 1.9057659e-42
-8.0816002 -21.966 494.38901 -0.27772701 -0.79789901 0.53500003 1.9057659e-42
-6.5356398 -22.6516 493.772 -0.271254 -0.81041002 0.51928502 1.9057659e-42
-4.8887 -23.3519 493.57901 -0.26321 -0.81726098 0.51264501 1.9057659e-42
-3.1893699 -23.944599 493.547 -0.25380501 -0.82023197 0.51264203 1.9057659e-42
-1.49448 -24.549101 493.59 -0.24233299 -0.82197899 0.51538903 1.9057659e-42
0.217319 -25.1056 493.58701 -0.229753 -0.823704 0.51838702 1.9057659e-42
1.81981 -25.667999 492.98999 -0.221411 -0.83434898 0.50481498 1.9057659e-42
3.53953 -26.178499 492.84201 -0.208841 -0.837915 0.50426501 1.9057659e-42
5.2769899 -26.646799 492.798 -0.196317 -0.83902103 0.50744802 1.9057659e-42
7.0090098 -27.136499 492.78299 -0.182845 -0.83978301 0.511208 1.9057659e-42
8.7619896 -27.5453 492.78201 -0.167827 -0.83983898 0.51624 1.9057659e-42
10.4199 -27.923 492.19199 -0.156616 -0.850474 0.50216001 1.9057659e-42
12.1697 -28.314501 492.034 -0.141927 -0.855151 0.49857199 1.9057659e-42
13.9436 -28.616501 491.98999 -0.128371 -0.85847998 0.496521 1.9057659e-42
15.7137 -28.943399 491.995 -0.118609 -0.85979301 0.496676 1.9057659e-42
17.485901 -29.2582 491.98599 -0.107567 -0.85995603 0.49890399 1.9057659e-42
