# .PCD v0.7 - Point Cloud Data file format
# 2 39 0
# 1 21 0
# 22 39 0
VERSION 0.7
FIELDS x y z normal_x normal_y normal_z curvature
SIZE 4 4 4 4 4 4 4
TYPE F F F F F F F
COUNT 1 1 1 1 1 1 1
WIDTH 39
HEIGHT 1
VIEWPOINT 0 0 0 1 0 0 0
POINTS 39
DATA ascii
33.63240100 13.75820000 420.23599000 0.02340670 -0.76105601 0.64826399 1.905766e-42
32.76290100 14.24280000 420.79800000 -0.01766290 -0.74067199 0.67163497 1.905766e-42
30.96670000 14.35840000 420.82001000 -0.04573400 -0.70623398 0.70649999 1.905766e-42
29.17219900 14.37630000 420.68100000 -0.06578600 -0.69024402 0.72057998 1.905766e-42
27.37809900 14.39540000 420.53601000 -0.07053040 -0.68436003 0.72572500 1.905766e-42
25.58600000 14.39480000 420.36801000 -0.06830600 -0.68090802 0.72917700 1.905766e-42
23.79310000 14.39310000 420.20901000 -0.07237830 -0.68198401 0.72777700 1.905766e-42
22.41160000 13.62230000 419.35001000 -0.07412450 -0.70316797 0.70714903 1.905766e-42
20.61780000 13.71760000 419.23401000 -0.08017140 -0.69417202 0.71533102 1.905766e-42
18.91650000 14.23380000 419.51501000 -0.08757880 -0.67823201 0.72961003 1.905766e-42
17.12380000 14.36040000 419.41400000 -0.09311560 -0.67008001 0.73642498 1.905766e-42
15.33670000 14.39590000 419.20099000 -0.09579080 -0.66526699 0.74043500 1.905766e-42
13.66240000 14.00600000 418.66800000 -0.09505020 -0.67749500 0.72935998 1.905766e-42
11.87380000 14.07240000 418.47699000 -0.09385180 -0.67898601 0.72812700 1.905766e-42
10.08210000 14.23600000 418.42099000 -0.09045180 -0.69499499 0.71330202 1.905766e-42
8.29763980 14.47100000 418.39899000 -0.10029500 -0.70636302 0.70070797 1.905766e-42
6.52649020 14.41140000 418.08401000 -0.10730500 -0.71493399 0.69090903 1.905766e-42
5.75052980 13.41160000 416.80399000 -0.12344600 -0.70246899 0.70092702 1.905766e-42
6.34889980 12.09880000 415.72800000 -0.12893400 -0.70218498 0.70022303 1.905766e-42
5.60415980 11.18230000 414.36899000 -0.13558701 -0.74914098 0.64838600 1.905766e-42
5.59924980 9.78297040 413.23700000 -0.14448801 -0.68109101 0.71780097 1.905766e-42
4.80144980 8.81225010 411.94800000 -0.12352700 -0.67740399 0.72516501 1.905766e-42
6.56364010 8.44767000 411.98999000 -0.09319530 -0.73159599 0.67533797 1.905766e-42
8.35105990 8.23526950 411.99500000 -0.07251120 -0.76411003 0.64099801 1.905766e-42
10.15050000 8.19157030 411.99600000 -0.05796330 -0.79870200 0.59892797 1.905766e-42
11.75840000 8.45271020 412.76199000 -0.07658640 -0.80233598 0.59193897 1.905766e-42
13.55820000 8.46063040 412.78699000 -0.05930140 -0.83446699 0.54785800 1.905766e-42
15.15230000 8.81192020 413.54599000 -0.06330880 -0.80779499 0.58605498 1.905766e-42
16.82189900 9.13113020 414.13800000 -0.06755780 -0.77104998 0.63318098 1.905766e-42
18.61510100 9.10626980 414.29300000 -0.04743890 -0.80671799 0.58902901 1.905766e-42
20.40940100 9.21951010 414.38000000 -0.03633530 -0.82533401 0.56347400 1.905766e-42
22.01280000 9.52719020 415.13800000 -0.04680970 -0.79414600 0.60592198 1.905766e-42
23.60250100 9.99193000 415.84299000 -0.05949930 -0.74634302 0.66289598 1.905766e-42
25.39600000 9.94966030 415.98901000 -0.04118220 -0.77944201 0.62511998 1.905766e-42
27.06250000 10.35830000 416.53299000 -0.03707860 -0.76899803 0.63817501 1.905766e-42
28.84079900 10.56460000 416.72000000 0.00541848 -0.80352199 0.59525102 1.905766e-42
30.33670000 11.10900000 417.56100000 0.01273290 -0.74855399 0.66295099 1.905766e-42
31.96200000 11.71720000 418.03900000 0.03568750 -0.71554703 0.69765198 1.905766e-42
33.26979800 12.57950000 418.92499000 0.05169830 -0.74401897 0.66615498 1.905766e-42
