# .PCD v0.7 - Point Cloud Data file format
# 2 45 0
# 1 24 0
# 25 45 0
VERSION 0.7
FIELDS x y z normal_x normal_y normal_z curvature
SIZE 4 4 4 4 4 4 4
TYPE F F F F F F F
COUNT 1 1 1 1 1 1 1
WIDTH 45
HEIGHT 1
VIEWPOINT 0 0 0 1 0 0 0
POINTS 45
DATA ascii
7.38728000 14.98960000 406.45401000 0.32005799 -0.17796201 -0.93053401 1.905766e-42
7.60902980 15.78000000 406.39401000 0.51601100 0.23693299 -0.82316202 1.905766e-42
7.49244020 16.96430000 407.74500000 0.56139398 0.66263002 -0.49574000 1.905766e-42
7.73364020 17.88960100 409.26999000 0.43524399 0.79987502 -0.41323501 1.905766e-42
7.97666980 18.02949900 411.04800000 0.08099100 0.99107200 0.10590900 1.905766e-42
7.95534990 17.62610100 412.80200000 -0.05278620 0.92347300 0.38001400 1.905766e-42
9.42028050 17.28780000 413.79099000 -0.11959100 0.91152298 0.39347699 1.905766e-42
11.08370000 17.66630000 413.21701000 -0.11669400 0.96588302 0.23119900 1.905766e-42
12.85700000 17.63410000 412.91000000 0.11729800 0.87372297 -0.47206900 1.905766e-42
14.38040000 18.12630100 413.73300000 -0.09010410 0.97165000 -0.21858200 1.905766e-42
16.14349900 18.33639900 414.02802000 -0.01817590 0.90721101 -0.42028299 1.905766e-42
17.90410000 18.52170000 414.35400000 0.02754900 0.83909899 -0.54328102 1.905766e-42
19.69280100 18.41630000 414.52499000 0.10970700 0.73442900 -0.66975999 1.905766e-42
21.42280000 17.93420000 414.40399000 0.16034301 0.68850899 -0.70727998 1.905766e-42
23.04990000 18.18260000 415.13300000 0.20237100 0.68630499 -0.69859201 1.905766e-42
24.79520000 17.74500100 415.18301000 0.23281901 0.67559499 -0.69954699 1.905766e-42
26.52380000 17.52479900 415.63400000 0.25873300 0.66505402 -0.70054299 1.905766e-42
28.26800000 17.20500000 415.94400000 0.25462899 0.66307300 -0.70391703 1.905766e-42
30.02350000 16.86340000 416.14700000 0.23050299 0.68359601 -0.69250602 1.905766e-42
31.75099900 16.80200000 416.64899000 0.20890900 0.68046701 -0.70236802 1.905766e-42
33.50780100 16.43510100 416.78699000 0.18161500 0.74566698 -0.64108998 1.905766e-42
35.11579900 16.62550000 417.57401000 0.19005100 0.71346998 -0.67441899 1.905766e-42
36.88670000 16.30369900 417.58499000 0.17116700 0.79829901 -0.57742602 1.905766e-42
38.64630100 15.92450000 417.59100000 0.19996400 0.75997299 -0.61843002 1.905766e-42
40.36119800 15.37740000 417.59698000 0.21657500 0.70816302 -0.67201298 1.905766e-42
38.63420100 15.46960000 417.09799000 0.20863700 0.68774199 -0.69532800 1.905766e-42
36.86769900 15.67880000 416.82300000 0.17322700 0.70839399 -0.68422902 1.905766e-42
35.32609900 15.21610000 416.01700000 0.18100600 0.67829198 -0.71214902 1.905766e-42
33.61460100 15.15180000 415.46399000 0.19024000 0.69256902 -0.69581401 1.905766e-42
32.16289900 14.66860000 414.51501000 0.19958600 0.71057600 -0.67472100 1.905766e-42
30.56180000 14.41350000 413.73300000 0.23413099 0.69562602 -0.67918098 1.905766e-42
29.08110000 13.93050000 412.83099000 0.27125400 0.62553698 -0.73152202 1.905766e-42
27.46730000 13.69980000 412.06799000 0.30402300 0.53733200 -0.78666598 1.905766e-42
25.82490000 13.78650000 411.33701000 0.26572001 0.50501102 -0.82119203 1.905766e-42
24.08589900 14.23430000 411.21201000 0.20890500 0.60704702 -0.76671499 1.905766e-42
22.30960100 14.34170000 410.94101000 0.15218499 0.64640301 -0.74766499 1.905766e-42
20.56430100 14.18320000 410.53101000 0.10463000 0.64361501 -0.75816399 1.905766e-42
18.77459900 14.35570000 410.44501000 0.08527690 0.70674098 -0.70231402 1.905766e-42
16.98670000 14.38340000 410.23901000 0.10404600 0.74842203 -0.65500998 1.905766e-42
15.31610000 14.05500000 409.65399000 0.15203200 0.74312901 -0.65164900 1.905766e-42
13.83220000 13.65680000 408.71701000 0.26723900 0.55169898 -0.79007000 1.905766e-42
12.27370000 12.94600000 408.16400000 0.23700200 -0.07963380 -0.96824002 1.905766e-42
10.66830000 12.14550000 408.01599000 0.13750800 -0.29778001 -0.94467902 1.905766e-42
8.88539030 12.01340000 407.80701000 0.07077200 -0.42610601 -0.90190101 1.905766e-42
8.06188960 13.46050000 407.12299000 0.16286600 -0.34312001 -0.92506403 1.905766e-42
