# .PCD v0.7 - Point Cloud Data file format
# 4 95 0
# 1 39 0
# 40 57 0
# 58 80 0
# 81 95 0
VERSION 0.7
FIELDS x y z normal_x normal_y normal_z curvature
SIZE 4 4 4 4 4 4 4
TYPE F F F F F F F
COUNT 1 1 1 1 1 1 1
WIDTH 95
HEIGHT 1
VIEWPOINT 0 0 0 1 0 0 0
POINTS 95
DATA ascii
13.59640000 1.58387990 458.04401000 0.24460900 0.92970401 -0.27534699 1.905766e-42
12.69950000 1.17543010 456.80200000 0.22618800 0.93182403 -0.28380200 1.905766e-42
11.50570000 2.02852990 457.84500000 0.22414599 0.92962599 -0.29249799 1.905766e-42
10.03850000 2.48520990 458.78201000 0.22453500 0.92622697 -0.30279899 1.905766e-42
9.26554010 3.25570990 460.21399000 0.23225001 0.92319399 -0.30622199 1.905766e-42
8.61791040 4.00790980 461.71500000 0.24062100 0.92017800 -0.30882701 1.905766e-42
7.62988000 4.70023010 463.05099000 0.24300601 0.91719002 -0.31577000 1.905766e-42
6.97754000 5.44096990 464.55600000 0.24929300 0.91201597 -0.32569799 1.905766e-42
5.84490010 6.17642020 465.74600000 0.24604300 0.90620297 -0.34388801 1.905766e-42
4.88836000 6.90040020 467.08801000 0.26385999 0.89682198 -0.35508901 1.905766e-42
3.90502000 7.59631010 468.42599000 0.28091699 0.88732499 -0.36570501 1.905766e-42
3.66154000 8.52540020 469.94800000 0.29207000 0.88009101 -0.37434700 1.905766e-42
2.28592990 9.22745990 470.87299000 0.30947700 0.87062597 -0.38240501 1.905766e-42
2.03185010 10.23250000 472.34399000 0.31806600 0.86465698 -0.38884699 1.905766e-42
1.27707000 11.11980000 473.71600000 0.32593700 0.85877597 -0.39530900 1.905766e-42
0.16196500 11.99410000 474.82700000 0.32990301 0.85532200 -0.39948601 1.905766e-42
-0.26348600 12.87980000 476.33499000 0.32767501 0.85042602 -0.41158700 1.905766e-42
-0.93666297 13.75430000 477.75699000 0.32348201 0.84213001 -0.43148100 1.905766e-42
-1.56545000 14.53270000 479.25299000 0.31561899 0.83476102 -0.45117500 1.905766e-42
-1.34732000 15.63030000 480.66299000 0.31139499 0.82454503 -0.47239599 1.905766e-42
-1.61342000 16.57029900 482.17401000 0.30296600 0.81580901 -0.49261200 1.905766e-42
-1.24695000 17.38680100 483.73599000 0.30774900 0.81278503 -0.49464101 1.905766e-42
-1.41066000 18.36949900 485.23499000 0.30860201 0.81251001 -0.49456301 1.905766e-42
-1.40535000 19.29530000 486.77899000 0.31748000 0.81109899 -0.49124900 1.905766e-42
-1.22998000 20.21130000 488.31900000 0.32967401 0.80979598 -0.48532999 1.905766e-42
-0.86802000 20.96900000 489.91101000 0.33828300 0.80394900 -0.48911199 1.905766e-42
-0.39496201 21.81300000 491.42899000 0.33207399 0.79262102 -0.51134998 1.905766e-42
0.00263528 22.56710100 493.01401000 0.31197801 0.78038597 -0.54191202 1.905766e-42
0.50477302 23.50540000 494.46600000 0.28163800 0.76692098 -0.57663900 1.905766e-42
1.08946000 24.37380000 495.92999000 0.24355400 0.75401902 -0.61003000 1.905766e-42
1.34784000 25.41890000 497.37201000 0.21035300 0.76307601 -0.61111897 1.905766e-42
2.14842010 26.44339900 498.61700000 0.22605200 0.76341498 -0.60505998 1.905766e-42
2.85837010 27.31570100 500.02301000 0.24438600 0.76494497 -0.59593201 1.905766e-42
3.46536990 28.05110000 501.54901000 0.24972799 0.76637697 -0.59186298 1.905766e-42
4.37329010 28.85170000 502.88101000 0.24828500 0.75013900 -0.61290002 1.905766e-42
4.85167980 29.79010000 504.34100000 0.22160000 0.72499901 -0.65212703 1.905766e-42
5.56576010 30.78130000 505.66299000 0.19211100 0.70221901 -0.68555301 1.905766e-42
6.56995010 31.81390000 506.74301000 0.18022101 0.68167597 -0.70911098 1.905766e-42
7.45372010 32.88270200 507.89001000 0.17165200 0.66655201 -0.72542602 1.905766e-42
8.35408970 33.90549900 509.06601000 0.16555899 0.65219003 -0.73975599 1.905766e-42
10.07190000 34.03970000 509.58701000 0.17753500 0.63252401 -0.75392002 1.905766e-42
11.74850000 33.38710000 509.53299000 0.18259600 0.62277198 -0.76079798 1.905766e-42
13.45710000 32.82099900 509.55701000 0.18223400 0.61816698 -0.76463097 1.905766e-42
15.19500000 32.36140100 509.46500000 0.16207500 0.62005800 -0.76763201 1.905766e-42
16.79350100 31.69150000 508.98001000 0.09323520 0.63664502 -0.76550001 1.905766e-42
18.45739900 31.11410000 508.60800000 0.01042100 0.65311402 -0.75718802 1.905766e-42
19.98630000 30.36240000 508.02701000 -0.06759580 0.66511798 -0.74367201 1.905766e-42
21.49390000 29.54859900 507.47501000 -0.01864520 0.67549700 -0.73712701 1.905766e-42
22.62830000 28.66300000 506.39401000 0.04072490 0.67195499 -0.73947102 1.905766e-42
24.39790000 28.33359900 506.39301000 0.12398200 0.64462101 -0.75438201 1.905766e-42
25.99449900 27.50420000 506.33701000 0.19017200 0.61133200 -0.76818401 1.905766e-42
27.62770100 26.77420000 506.13800000 0.22773500 0.60771000 -0.76080501 1.905766e-42
29.01730000 25.95000100 505.34500000 0.25403300 0.63628000 -0.72843301 1.905766e-42
30.33880000 24.87070100 504.77100000 0.26866701 0.67497098 -0.68719101 1.905766e-42
31.87890100 23.95310000 504.60901000 0.40579599 0.69604498 -0.59232700 1.905766e-42
33.03089900 22.66330000 504.10999000 0.43432900 0.75339401 -0.49371600 1.905766e-42
33.78210100 21.44080000 503.02301000 0.35264000 0.83916199 -0.41406801 1.905766e-42
35.15390000 20.54700100 502.27499000 0.24828900 0.92901802 -0.27436700 1.905766e-42
36.10670100 19.99270100 500.85199000 0.06079360 0.97248101 -0.22491001 1.905766e-42
36.23690000 20.08550100 499.06000000 -0.09404040 0.96196002 -0.25649399 1.905766e-42
36.42850100 19.37960100 497.41501000 -0.21176200 0.93813801 -0.27395999 1.905766e-42
35.62329900 18.79050100 495.91699000 -0.23020200 0.91943902 -0.31880799 1.905766e-42
35.66579800 17.92079900 494.34100000 -0.27118900 0.88861001 -0.36990300 1.905766e-42
36.38299900 17.51810100 492.73999000 -0.33839199 0.85189998 -0.39969599 1.905766e-42
36.72370100 17.04320000 491.03799000 -0.36839500 0.81976801 -0.43848100 1.905766e-42
36.71320000 16.33440000 489.38300000 -0.36539400 0.79853702 -0.47835800 1.905766e-42
37.42680000 15.58460000 487.91101000 -0.37659100 0.77674198 -0.50482798 1.905766e-42
37.43399800 14.65860000 486.36700000 -0.35692799 0.78419101 -0.50758898 1.905766e-42
37.80749900 13.57620000 484.97800000 -0.33757901 0.79047501 -0.51106697 1.905766e-42
38.31150100 12.47970000 483.64301000 -0.31093499 0.79770100 -0.51671398 1.905766e-42
38.26160000 11.58090000 482.08401000 -0.27369499 0.81274801 -0.51432699 1.905766e-42
37.71830000 11.22460000 480.40500000 -0.24672900 0.82643998 -0.50608498 1.905766e-42
38.23989900 10.24810000 478.98599000 -0.21575700 0.83009201 -0.51419502 1.905766e-42
38.03580100 9.24602990 477.50500000 -0.20776200 0.83096200 -0.51607901 1.905766e-42
38.25420000 8.16975980 476.07901000 -0.19759300 0.82884800 -0.52341902 1.905766e-42
38.33720000 7.05237010 474.67001000 -0.19830699 0.82802898 -0.52444398 1.905766e-42
38.21730000 6.04024980 473.18600000 -0.20433700 0.83451498 -0.51169503 1.905766e-42
37.57960100 5.39499000 471.63199000 -0.22160700 0.83988202 -0.49546799 1.905766e-42
37.54959900 4.45490980 470.09698000 -0.21490601 0.85086399 -0.47942200 1.905766e-42
37.46279900 3.43389010 468.61700000 -0.20405500 0.86128402 -0.46535000 1.905766e-42
36.70520000 2.69024990 467.16299000 -0.21226400 0.86550498 -0.45370099 1.905766e-42
35.20309800 1.89166000 466.57501000 -0.24006601 0.87334597 -0.42383301 1.905766e-42
33.47349900 1.60057000 466.98001000 -0.12255200 0.91007602 -0.39590800 1.905766e-42
31.67980000 1.69680000 467.09399000 -0.00720485 0.92836601 -0.37159801 1.905766e-42
29.89450100 1.90366010 467.19400000 0.05309290 0.93241000 -0.35748199 1.905766e-42
28.09620100 1.82385000 467.19101000 0.06738850 0.93519902 -0.34764999 1.905766e-42
26.29810000 1.89648000 467.15302000 0.08049980 0.93914998 -0.33394101 1.905766e-42
24.50510000 2.02740000 467.06400000 0.10424000 0.94137102 -0.32086599 1.905766e-42
22.91160000 2.06697990 466.22800000 0.13201500 0.94008499 -0.31434399 1.905766e-42
21.53630100 1.92460000 465.07599000 0.15140601 0.93651700 -0.31624600 1.905766e-42
20.16360100 1.72098990 463.92899000 0.17140500 0.93368399 -0.31441101 1.905766e-42
18.49449900 1.84860000 463.26700000 0.20333099 0.93052101 -0.30460900 1.905766e-42
17.33970100 1.60432990 461.90900000 0.23332401 0.92857999 -0.28861499 1.905766e-42
15.97620000 1.69060000 460.73700000 0.26250699 0.92538798 -0.27339801 1.905766e-42
14.85080000 1.59765990 459.33499000 0.25803301 0.92750299 -0.27047601 1.905766e-42
