# .PCD v0.7 - Point Cloud Data file format
# 3 60 0
# 1 16 0
# 17 39 0
# 40 60 0
VERSION 0.7
FIELDS x y z normal_x normal_y normal_z curvature
SIZE 4 4 4 4 4 4 4
TYPE F F F F F F F
COUNT 1 1 1 1 1 1 1
WIDTH 60
HEIGHT 1
VIEWPOINT 0 0 0 1 0 0 0
POINTS 60
DATA ascii
16.17970100 1.21264000 448.60800000 0.12317600 0.62071002 -0.77430397 1.905766e-42
15.14560000 0.01317640 447.19699000 0.10902900 0.62033302 -0.77672398 1.905766e-42
13.53230000 0.78446901 447.40302000 0.09731370 0.62102002 -0.77772999 1.905766e-42
12.04970000 1.63004000 447.97501000 0.06238620 0.64037198 -0.76552701 1.905766e-42
10.62730000 2.54545000 448.59000000 0.05751360 0.64190203 -0.76462698 1.905766e-42
9.22095010 3.44759010 449.26001000 0.05845030 0.64056802 -0.76567400 1.905766e-42
7.53141020 3.98812010 449.56500000 0.05478200 0.63985002 -0.76654500 1.905766e-42
6.07945010 4.85427000 450.18301000 0.04926290 0.64127600 -0.76572698 1.905766e-42
4.83538010 5.88318010 450.97900000 0.04062530 0.64768100 -0.76082802 1.905766e-42
3.41999010 6.75052980 451.67499000 0.03576360 0.65246898 -0.75697100 1.905766e-42
1.68259000 7.14038990 451.93900000 0.03315780 0.65226400 -0.75726599 1.905766e-42
0.35078201 8.10128970 452.67499000 0.02958260 0.65472502 -0.75528800 1.905766e-42
-0.97997701 9.02892970 453.45499000 0.02339230 0.65809900 -0.75256801 1.905766e-42
-2.47296000 9.80309960 454.09698000 0.01473470 0.66122800 -0.75004101 1.905766e-42
-3.90327000 10.63910000 454.80099000 0.00520524 0.66677999 -0.74523598 1.905766e-42
-5.06851010 11.62520000 455.75500000 -0.01401080 0.68251401 -0.73073798 1.905766e-42
-6.23991010 12.64440000 456.66501000 0.00681860 0.69382399 -0.72011298 1.905766e-42
-5.03262000 13.59950000 457.59799000 -0.01553840 0.70514399 -0.70889401 1.905766e-42
-3.78026010 14.48050000 458.54401000 -0.00538127 0.72329497 -0.69051802 1.905766e-42
-2.22756000 15.12710000 459.18500000 0.00699136 0.73627400 -0.67664701 1.905766e-42
-1.10330000 15.86770000 460.38000000 0.01348750 0.75014198 -0.66114002 1.905766e-42
0.35763001 16.57490000 461.15799000 0.02150150 0.75941598 -0.65025002 1.905766e-42
2.08222010 16.97360000 461.48499000 0.03618700 0.76353198 -0.64475501 1.905766e-42
3.47567010 17.72349900 462.34299000 0.05007410 0.77557200 -0.62926900 1.905766e-42
5.08588980 18.10250100 463.05301000 0.07520590 0.78010303 -0.62111503 1.905766e-42
6.31761980 18.74880000 464.19501000 0.08815750 0.79062998 -0.60591501 1.905766e-42
7.63793990 19.25359900 465.31000000 0.10294600 0.79911602 -0.59229702 1.905766e-42
9.39148040 19.53960000 465.59799000 0.12751999 0.79507202 -0.59295702 1.905766e-42
10.91790000 19.92779900 466.47000000 0.14439000 0.80141002 -0.58042598 1.905766e-42
12.44500000 20.25280000 467.36499000 0.15773600 0.80883199 -0.56648898 1.905766e-42
13.36810000 20.94840000 468.74500000 0.15992101 0.82884502 -0.53613502 1.905766e-42
14.97580000 21.15080100 469.52899000 0.17870300 0.83168000 -0.52571303 1.905766e-42
16.58930000 21.28470000 470.31601000 0.19981100 0.83288699 -0.51611501 1.905766e-42
17.50639900 21.57659900 471.83701000 0.20344201 0.84981900 -0.48622900 1.905766e-42
19.29940000 21.63730000 471.98300000 0.21774399 0.84027201 -0.49651900 1.905766e-42
20.41300000 22.07140000 473.32901000 0.21845500 0.85017997 -0.47903201 1.905766e-42
21.84079900 22.29710000 474.40201000 0.23245500 0.85311902 -0.46706799 1.905766e-42
22.90150100 22.71999900 475.79300000 0.25100899 0.85585803 -0.45221901 1.905766e-42
24.44190000 22.75370000 476.72400000 0.28672299 0.84475702 -0.45185700 1.905766e-42
26.14629900 22.44269900 477.21201000 0.32279199 0.82965100 -0.45550501 1.905766e-42
26.10310000 21.52770000 475.66199000 0.33446401 0.81687599 -0.46994400 1.905766e-42
25.62879900 20.83200100 474.07101000 0.33759901 0.80593300 -0.48631099 1.905766e-42
24.96299900 20.14810000 472.54501000 0.32979599 0.79519701 -0.50881797 1.905766e-42
24.67960000 19.18639900 471.04999000 0.33292100 0.77937400 -0.53079200 1.905766e-42
23.94780000 18.52199900 469.54599000 0.32116601 0.77382201 -0.54594100 1.905766e-42
23.15670000 17.83900100 468.07999000 0.30440900 0.77155000 -0.55861098 1.905766e-42
22.98530000 16.85630000 466.58200000 0.29742101 0.76807499 -0.56709898 1.905766e-42
22.46579900 15.98280000 465.09601000 0.28074399 0.76811898 -0.57547802 1.905766e-42
22.22240100 14.86480000 463.70700000 0.27118799 0.76409900 -0.58532798 1.905766e-42
21.70940000 13.94160000 462.24899000 0.25068200 0.75602603 -0.60463500 1.905766e-42
21.36479900 12.89830000 460.82401000 0.23614800 0.74595702 -0.62272203 1.905766e-42
20.65000000 11.96020000 459.46399000 0.21351799 0.73881298 -0.63919097 1.905766e-42
20.13089900 10.90400000 458.10199000 0.20086899 0.72926801 -0.65407997 1.905766e-42
19.69300100 9.74754050 456.79401000 0.19168900 0.71680498 -0.67040801 1.905766e-42
19.23160000 8.66847040 455.42899000 0.18177199 0.70353103 -0.68702501 1.905766e-42
18.76639900 7.47448020 454.16501000 0.17216000 0.69025099 -0.70279002 1.905766e-42
18.34070000 6.22894000 452.93701000 0.16637801 0.67562902 -0.71822202 1.905766e-42
17.74500100 5.01735020 451.74701000 0.15845200 0.65975302 -0.73458803 1.905766e-42
16.81460000 4.07677980 450.52600000 0.14149700 0.64563102 -0.75042599 1.905766e-42
16.17289900 2.83079000 449.39700000 0.12654500 0.62905103 -0.76699501 1.905766e-42
