# .PCD v0.7 - Point Cloud Data file format
# 5 231 0
# 1 23 0
# 24 73 0
# 74 137 0
# 138 156 0
# 157 231 0
VERSION 0.7
FIELDS x y z normal_x normal_y normal_z curvature
SIZE 4 4 4 4 4 4 4
TYPE F F F F F F F
COUNT 1 1 1 1 1 1 1
WIDTH 231
HEIGHT 1
VIEWPOINT 0 0 0 1 0 0 0
POINTS 231
DATA ascii
31.21340000 -52.81079900 429.53299000 0.56593603 0.27524400 -0.77714700 1.905766e-42
29.93849900 -53.39320000 428.40399000 0.55042201 0.26819000 -0.79063898 1.905766e-42
28.56740000 -52.35739900 427.86801000 0.54074901 0.26450399 -0.79851598 1.905766e-42
27.23410000 -51.23180000 427.42599000 0.53086603 0.26664901 -0.80441201 1.905766e-42
25.64530000 -50.63660000 426.82501000 0.51758599 0.26878500 -0.81231701 1.905766e-42
24.44050000 -49.39279900 426.33301000 0.50685000 0.27738899 -0.81618500 1.905766e-42
23.45789900 -47.93240000 425.95700000 0.49688599 0.28948399 -0.81810999 1.905766e-42
22.08589900 -46.84809900 425.53000000 0.48044500 0.30194500 -0.82340801 1.905766e-42
20.75680000 -45.67470200 425.22000000 0.46288201 0.31554499 -0.82835501 1.905766e-42
19.10400000 -45.42639900 424.55099000 0.44371200 0.32196400 -0.83633697 1.905766e-42
18.00280000 -44.00420000 424.48300000 0.42832300 0.33671901 -0.83854598 1.905766e-42
16.29369900 -43.97639800 423.91901000 0.40963399 0.34150699 -0.84591502 1.905766e-42
14.81860000 -42.97259900 423.68100000 0.39121899 0.35349900 -0.84969801 1.905766e-42
13.58060000 -41.71720100 423.31799000 0.37496099 0.36581299 -0.85181302 1.905766e-42
11.99050000 -40.96279900 422.94101000 0.35847101 0.37512600 -0.85485601 1.905766e-42
10.05740000 -40.49070000 422.38800000 0.33924401 0.38361001 -0.85892802 1.905766e-42
8.67576980 -39.33770000 422.34900000 0.32314101 0.39594099 -0.85954100 1.905766e-42
7.20257000 -38.30490100 422.29401000 0.30619499 0.40759701 -0.86029601 1.905766e-42
5.47798010 -38.29079800 421.77802000 0.28964901 0.41306600 -0.86341202 1.905766e-42
3.72445990 -37.95809900 421.54501000 0.27436101 0.42086700 -0.86463702 1.905766e-42
2.39450000 -36.74700200 421.47800000 0.26153100 0.43215501 -0.86304301 1.905766e-42
0.82352501 -35.87110100 421.40900000 0.24759400 0.44306099 -0.86162299 1.905766e-42
-0.89717901 -35.35010100 421.32101000 0.23386499 0.45357099 -0.85998899 1.905766e-42
-2.57336000 -35.72720000 420.78400000 0.22639400 0.46028000 -0.85842198 1.905766e-42
-3.29536010 -34.18410100 421.36499000 0.21214800 0.47197399 -0.85570598 1.905766e-42
-3.23481010 -32.58800100 422.19501000 0.20238000 0.47943601 -0.85392201 1.905766e-42
-3.40700010 -30.97810000 422.98199000 0.19179100 0.48813200 -0.85143602 1.905766e-42
-3.44825010 -29.39950000 423.84601000 0.18329801 0.49612200 -0.84868401 1.905766e-42
-3.65119000 -27.87669900 424.78400000 0.17453900 0.50475103 -0.84543699 1.905766e-42
-4.29068990 -26.47260100 425.71100000 0.16250101 0.51437300 -0.84202999 1.905766e-42
-3.26882000 -25.17230000 426.42099000 0.17068499 0.51819301 -0.83805901 1.905766e-42
-3.62854000 -23.65920100 427.32800000 0.16394299 0.52787203 -0.83335102 1.905766e-42
-4.15245010 -22.20389900 428.24799000 0.15722400 0.54130203 -0.82599801 1.905766e-42
-4.12913990 -20.74140000 429.29700000 0.15761000 0.55504400 -0.81675297 1.905766e-42
-3.60306000 -19.35570000 430.31799000 0.16484000 0.56715000 -0.80694997 1.905766e-42
-3.53704000 -17.89679900 431.37100000 0.16548701 0.58011103 -0.79754901 1.905766e-42
-3.92266990 -16.44160100 432.35699000 0.15902799 0.59326202 -0.78914499 1.905766e-42
-4.17614980 -14.98050000 433.37799000 0.15411700 0.60609299 -0.78031999 1.905766e-42
-4.43961000 -13.54040000 434.42499000 0.14880601 0.61862099 -0.77146900 1.905766e-42
-4.92371990 -12.20500000 435.53101000 0.14001600 0.63092703 -0.76310301 1.905766e-42
-4.59490010 -10.82320000 436.63599000 0.14403100 0.64151698 -0.75346601 1.905766e-42
-5.11474990 -9.44480990 437.67099000 0.13427401 0.65312803 -0.74524802 1.905766e-42
-5.21639010 -8.07767960 438.83701000 0.13130599 0.66319197 -0.73684102 1.905766e-42
-4.96604010 -6.76016000 440.03799000 0.13318799 0.66756499 -0.73254198 1.905766e-42
-5.33725020 -5.43505000 441.19800000 0.12499600 0.67326498 -0.72875899 1.905766e-42
-6.35679010 -4.28005980 442.12900000 0.10653500 0.67943102 -0.72596401 1.905766e-42
-6.73828980 -2.97417000 443.30701000 0.09841760 0.68476200 -0.72209102 1.905766e-42
-7.28745990 -1.75100000 444.50800000 0.08795920 0.69005603 -0.71839100 1.905766e-42
-7.62838980 -0.46717200 445.72299000 0.08107390 0.69493097 -0.71449101 1.905766e-42
-7.76086000 0.84721100 446.94601000 0.07778940 0.69942302 -0.71046197 1.905766e-42
-8.96107960 1.80323990 447.88699000 0.05838540 0.70377100 -0.70802402 1.905766e-42
-9.51171020 3.08409000 449.02499000 0.04959500 0.70793003 -0.70453900 1.905766e-42
-10.19810000 4.27093980 450.19199000 0.03947940 0.71170801 -0.70136499 1.905766e-42
-11.18430000 5.33260010 451.25900000 0.02566680 0.71472502 -0.69893402 1.905766e-42
-11.95780000 6.43967010 452.44901000 0.01598880 0.71753800 -0.69633597 1.905766e-42
-13.08450000 7.42554000 453.44901000 0.00299925 0.71976101 -0.69421500 1.905766e-42
-14.19660000 8.37856960 454.49500000 -0.00898369 0.72258300 -0.69122601 1.905766e-42
-14.91560000 9.59002020 455.61600000 -0.01775970 0.72636902 -0.68707502 1.905766e-42
-15.94010000 10.58040000 456.71500000 -0.03115930 0.73014498 -0.68258101 1.905766e-42
-16.70890000 11.66000000 457.93301000 -0.04266240 0.73435998 -0.67741901 1.905766e-42
-17.99799900 12.44750000 458.91199000 -0.06084370 0.73820502 -0.67182702 1.905766e-42
-19.11510100 13.34060000 460.00500000 -0.07789250 0.74238902 -0.66542500 1.905766e-42
-20.75869900 13.65640000 460.66800000 -0.10045800 0.74541098 -0.65899199 1.905766e-42
-21.88250000 14.54360000 461.75800000 -0.11854400 0.74956203 -0.65123302 1.905766e-42
-23.09540000 15.27190000 462.87100000 -0.13808700 0.75345999 -0.64283001 1.905766e-42
-24.17880100 16.09160000 464.05200000 -0.15849300 0.75702602 -0.63387001 1.905766e-42
-25.86270000 16.14270000 464.68600000 -0.18238300 0.75916898 -0.62481898 1.905766e-42
-27.19560100 16.72629900 465.74600000 -0.20173900 0.76251799 -0.61470997 1.905766e-42
-28.65819900 17.03370100 466.74899000 -0.22019599 0.76572400 -0.60430098 1.905766e-42
-29.85670100 17.65609900 467.93900000 -0.23639999 0.76901001 -0.59391803 1.905766e-42
-31.14370000 18.06749900 469.12799000 -0.25217900 0.77209902 -0.58332503 1.905766e-42
-32.34510000 18.61920000 470.35001000 -0.26715800 0.77373803 -0.57441902 1.905766e-42
-33.70240000 18.85710000 471.50800000 -0.28168300 0.77486902 -0.56589103 1.905766e-42
-34.42509800 19.67410100 472.94000000 -0.29383001 0.77385497 -0.56108201 1.905766e-42
-34.27399800 20.82970000 474.31100000 -0.29975000 0.77166700 -0.56096399 1.905766e-42
-33.21730000 21.95789900 475.23401000 -0.29678899 0.77028102 -0.56443202 1.905766e-42
-32.16799900 23.07449900 476.17801000 -0.29264200 0.76999998 -0.56697398 1.905766e-42
-31.20990000 24.19470000 477.21100000 -0.28846499 0.77052999 -0.56839401 1.905766e-42
-29.94549900 25.22110000 477.97800000 -0.28062001 0.77176601 -0.57063901 1.905766e-42
-28.98970000 26.32049900 479.03500000 -0.27556199 0.77329099 -0.57104099 1.905766e-42
-28.03610000 27.41729900 480.09698000 -0.27046099 0.77503902 -0.57110900 1.905766e-42
-27.07379900 28.51050000 481.15500000 -0.26545700 0.77685398 -0.57099098 1.905766e-42
-26.10820000 29.65560000 482.15302000 -0.26064199 0.77857399 -0.57086599 1.905766e-42
-25.26880100 30.76549900 483.29501000 -0.25786099 0.77810800 -0.57276201 1.905766e-42
-24.44420100 31.90070000 484.42200000 -0.25558299 0.77484298 -0.57818300 1.905766e-42
-23.65500100 32.96130000 485.64401000 -0.25414899 0.77157098 -0.58316898 1.905766e-42
-22.46240000 34.07230000 486.40799000 -0.24318001 0.76984102 -0.59009200 1.905766e-42
-21.50320100 35.14360000 487.48999000 -0.23456000 0.76800102 -0.59594899 1.905766e-42
-20.40539900 36.20710000 488.44101000 -0.22402300 0.76645201 -0.60196698 1.905766e-42
-19.97970000 37.29660000 489.80899000 -0.22385800 0.76408702 -0.60502702 1.905766e-42
-19.05310100 38.41299800 490.87500000 -0.21698301 0.76223898 -0.60984403 1.905766e-42
-17.88710000 39.50590100 491.70300000 -0.20770000 0.76040000 -0.61534798 1.905766e-42
-17.02190000 40.63230100 492.80899000 -0.20391899 0.75800103 -0.61955702 1.905766e-42
-16.59199900 41.76829900 494.13699000 -0.20599100 0.75552398 -0.62189299 1.905766e-42
-15.62030000 42.93500100 495.10400000 -0.20322099 0.75261903 -0.62631202 1.905766e-42
-15.01360000 44.12990200 496.30499000 -0.20520900 0.74685699 -0.63252997 1.905766e-42
-13.96470000 45.22959900 497.26999000 -0.20413101 0.73477799 -0.64686298 1.905766e-42
-13.51960000 46.45769900 498.50900000 -0.20847200 0.72083998 -0.66100597 1.905766e-42
-12.90760000 47.70270200 499.65500000 -0.21236999 0.70645702 -0.67514300 1.905766e-42
-12.34790000 48.95809900 500.81799000 -0.21690300 0.69155598 -0.68898702 1.905766e-42
-11.46260000 50.21559900 501.75299000 -0.22065599 0.67678899 -0.70232999 1.905766e-42
-10.66210000 51.48920100 502.74200000 -0.21684299 0.66229498 -0.71717799 1.905766e-42
-10.00970000 52.75970100 503.83701000 -0.21494900 0.64712900 -0.73145097 1.905766e-42
-9.11833000 53.97779800 504.81799000 -0.20970900 0.63237900 -0.74573398 1.905766e-42
-7.69883010 55.07320000 504.97601000 -0.19517200 0.62168300 -0.75856298 1.905766e-42
-6.32352020 56.12550000 505.46701000 -0.18401200 0.60866302 -0.77179599 1.905766e-42
-5.94336990 57.55260100 506.49600000 -0.18800400 0.59197402 -0.78372300 1.905766e-42
-4.81348990 58.79840100 507.13800000 -0.18319000 0.57627702 -0.79645801 1.905766e-42
-3.27000000 59.68780100 507.39600000 -0.17360801 0.56265098 -0.80826002 1.905766e-42
-2.07515000 60.90710100 507.96701000 -0.17094100 0.54169703 -0.82300901 1.905766e-42
-0.61159801 61.88639800 508.34000000 -0.16667600 0.52360499 -0.83549798 1.905766e-42
0.12011500 63.25080100 509.25800000 -0.17032100 0.50333899 -0.84713602 1.905766e-42
1.53009000 64.30960100 509.62000000 -0.14900400 0.48610401 -0.86110401 1.905766e-42
3.01955010 65.31739800 509.69501000 -0.12501200 0.46994001 -0.87380099 1.905766e-42
3.95338990 66.70069900 510.36899000 -0.11825200 0.45212400 -0.88408202 1.905766e-42
5.56203990 67.50640100 510.42599000 -0.09283820 0.43682501 -0.89474303 1.905766e-42
6.52732990 68.91760300 510.98801000 -0.08644360 0.41986299 -0.90346199 1.905766e-42
7.05051990 70.35330200 511.94000000 -0.09033340 0.40536800 -0.90967900 1.905766e-42
8.32322030 71.61650100 512.09601000 -0.07673600 0.38946500 -0.91783899 1.905766e-42
9.58901980 72.86489900 512.37799000 -0.06467510 0.37366900 -0.92530501 1.905766e-42
10.69860000 74.18689700 512.88898000 -0.05726310 0.35842901 -0.93179899 1.905766e-42
11.99620000 75.35060100 513.33801000 -0.04514500 0.34311500 -0.93820798 1.905766e-42
13.73000000 75.75650000 513.60101000 -0.01367310 0.32865900 -0.94435000 1.905766e-42
15.52880000 75.82250200 513.60901000 0.02351420 0.31604901 -0.94845200 1.905766e-42
17.32550000 75.91760300 513.66101000 0.06123630 0.30360600 -0.95082802 1.905766e-42
19.11200000 75.96830000 513.87598000 0.09962860 0.29151699 -0.95136303 1.905766e-42
20.89189900 76.00679800 514.14099000 0.13851900 0.27981499 -0.95000899 1.905766e-42
22.66449900 76.06810000 514.44800000 0.17740400 0.26837301 -0.94683897 1.905766e-42
24.42890000 75.98660300 514.79498000 0.20831101 0.25920799 -0.94308901 1.905766e-42
26.17180100 76.00180100 515.24402000 0.23721400 0.24901900 -0.93899900 1.905766e-42
27.92090000 75.80220000 515.62000000 0.26703399 0.23915800 -0.93353999 1.905766e-42
29.63950000 75.86609600 516.15100000 0.29512501 0.22759999 -0.92795402 1.905766e-42
31.33060100 75.89659900 516.76703000 0.32304901 0.21577001 -0.92145699 1.905766e-42
32.90660100 75.08280200 517.07300000 0.35283199 0.20765001 -0.91235501 1.905766e-42
34.56520100 74.97470100 517.76398000 0.37590799 0.19694200 -0.90548700 1.905766e-42
36.15560200 74.27120200 518.22900000 0.39907500 0.18768100 -0.89750499 1.905766e-42
37.79769900 74.14299800 518.95502000 0.42154700 0.17426901 -0.88990402 1.905766e-42
39.27719900 73.34420000 519.59698000 0.44847399 0.16130900 -0.87911898 1.905766e-42
40.49560200 72.07800300 519.98700000 0.47712401 0.15023500 -0.86589998 1.905766e-42
40.97860000 70.34400200 519.98602000 0.49878699 0.14692700 -0.85417998 1.905766e-42
41.39429900 68.59980000 519.82800000 0.51869202 0.14517701 -0.84254497 1.905766e-42
41.60640000 66.84159900 519.50598000 0.53865999 0.14499401 -0.82995301 1.905766e-42
41.69590000 65.06880200 519.20697000 0.55729502 0.14577900 -0.81741703 1.905766e-42
42.04970200 63.30519900 519.13898000 0.58415800 0.14195500 -0.79913002 1.905766e-42
42.09080100 61.51900100 518.92102000 0.60184097 0.14326900 -0.78566003 1.905766e-42
42.64519900 59.81580000 519.09998000 0.63243401 0.13639399 -0.76251101 1.905766e-42
42.43410100 58.12739900 518.51300000 0.63812500 0.14450100 -0.75625098 1.905766e-42
43.38970200 56.69559900 519.03900000 0.67323899 0.13272700 -0.72741598 1.905766e-42
43.84859800 54.96060200 519.17700000 0.69583702 0.13079400 -0.70618999 1.905766e-42
44.16439800 53.18909800 519.13202000 0.71264499 0.13313399 -0.68877602 1.905766e-42
44.49610100 51.42050200 519.17499000 0.72887897 0.13629700 -0.67093903 1.905766e-42
44.84130100 49.65390000 519.17401000 0.74297601 0.14158100 -0.65417200 1.905766e-42
45.14410000 47.88159900 519.26001000 0.75581098 0.14863500 -0.63769603 1.905766e-42
45.47169900 46.12340200 519.46399000 0.76820201 0.15719400 -0.62061000 1.905766e-42
45.84660000 44.43700000 519.96899000 0.78298998 0.16940001 -0.59852302 1.905766e-42
46.11430000 42.65700100 519.96899000 0.79132497 0.19170099 -0.58056498 1.905766e-42
46.38000100 40.87690000 519.94501000 0.79499400 0.21429400 -0.56750500 1.905766e-42
46.37810100 39.48109800 518.80798000 0.79013801 0.24015000 -0.56392300 1.905766e-42
45.88530000 38.84130100 517.19897000 0.77739203 0.25917301 -0.57314098 1.905766e-42
45.16420000 37.91379900 515.83600000 0.76657701 0.27964300 -0.57806599 1.905766e-42
44.62200200 36.52710000 514.82397000 0.76041299 0.30095401 -0.57549900 1.905766e-42
44.00389900 35.83770000 513.28101000 0.75042802 0.31924701 -0.57874000 1.905766e-42
43.17030000 35.12950100 511.85101000 0.74060601 0.33755600 -0.58099800 1.905766e-42
42.60789900 34.05429800 510.52100000 0.73425502 0.35694700 -0.57745898 1.905766e-42
42.09180100 32.97700100 509.17499000 0.72874701 0.37579799 -0.57245398 1.905766e-42
41.69780000 31.76800000 507.90100000 0.72525102 0.39168400 -0.56621099 1.905766e-42
41.12419900 30.85880100 506.45700000 0.71928400 0.40476400 -0.56462097 1.905766e-42
40.75370000 29.71250000 505.12000000 0.71571302 0.41689900 -0.56031197 1.905766e-42
40.24720000 28.69549900 503.72400000 0.71069700 0.42947599 -0.55719000 1.905766e-42
39.67580000 27.81119900 502.26401000 0.70435899 0.44245300 -0.55508000 1.905766e-42
39.69559900 26.39380100 501.15399000 0.70502400 0.45176601 -0.54667002 1.905766e-42
39.37540100 25.31769900 499.74701000 0.70097703 0.46358401 -0.54196101 1.905766e-42
38.93360100 24.35059900 498.29501000 0.69526601 0.47602999 -0.53851700 1.905766e-42
38.94170000 22.96880000 497.14200000 0.69537002 0.48525599 -0.53008199 1.905766e-42
38.79180100 21.70050000 495.87299000 0.69331598 0.49563301 -0.52312601 1.905766e-42
38.39920000 20.86570000 494.32700000 0.68598598 0.50845098 -0.52048200 1.905766e-42
38.31460200 19.64119900 493.01099000 0.68345499 0.51883399 -0.51351798 1.905766e-42
38.04370100 18.57250000 491.58801000 0.67821699 0.52293301 -0.51629603 1.905766e-42
38.17549900 17.19899900 490.43201000 0.67968798 0.52097601 -0.51634097 1.905766e-42
37.89670200 16.11410000 489.02301000 0.67413902 0.52332401 -0.52121800 1.905766e-42
37.99380100 14.78630000 487.81201000 0.67475802 0.52193302 -0.52181202 1.905766e-42
37.57899900 13.83000000 486.34399000 0.66605097 0.52618998 -0.52867800 1.905766e-42
37.59949900 12.53070000 485.09900000 0.66557401 0.52550298 -0.52996099 1.905766e-42
37.75410100 11.11370000 483.99899000 0.66833800 0.52292299 -0.52903301 1.905766e-42
37.56119900 10.03740000 482.57001000 0.66288900 0.52524602 -0.53356802 1.905766e-42
37.34999800 8.88197990 481.20599000 0.65810698 0.52717203 -0.53757298 1.905766e-42
37.05099900 7.84882020 479.76199000 0.65070701 0.53064901 -0.54313201 1.905766e-42
36.94520200 6.62727020 478.44501000 0.64798403 0.53138202 -0.54566503 1.905766e-42
36.78889800 5.43381020 477.10599000 0.64435297 0.53317899 -0.54820502 1.905766e-42
37.22660100 3.95503000 476.17801000 0.65259600 0.52848703 -0.54297298 1.905766e-42
37.15919900 2.65090990 474.93900000 0.65141100 0.52924597 -0.54365599 1.905766e-42
36.84109900 1.71582000 473.43399000 0.64350998 0.53381401 -0.54857898 1.905766e-42
36.90090200 0.37938201 472.23001000 0.64430398 0.53339797 -0.54804999 1.905766e-42
36.82820100 -0.87345803 470.94000000 0.64252698 0.53442901 -0.54913098 1.905766e-42
36.67760100 -2.12716010 469.65701000 0.63999200 0.53586799 -0.55068702 1.905766e-42
36.58110000 -3.34954000 468.33899000 0.63763398 0.53718698 -0.55213499 1.905766e-42
36.07700000 -4.27493000 466.88000000 0.62746203 0.54283500 -0.55823100 1.905766e-42
36.71040000 -5.77600000 466.11401000 0.63890100 0.53644300 -0.55139297 1.905766e-42
36.49280200 -6.93699980 464.75601000 0.63478100 0.53870100 -0.55394500 1.905766e-42
36.50080100 -8.22928050 463.50299000 0.63435000 0.53782302 -0.55528897 1.905766e-42
36.31769900 -9.45055010 462.19400000 0.63096601 0.53569198 -0.56117302 1.905766e-42
36.29909900 -10.73550000 460.93301000 0.63005197 0.53212702 -0.56557500 1.905766e-42
36.43660000 -12.09970000 459.76700000 0.63177598 0.52707899 -0.56837201 1.905766e-42
36.69920000 -13.56970000 458.76199000 0.63584298 0.52076399 -0.56965601 1.905766e-42
36.62860100 -14.77320000 457.42499000 0.63370299 0.51767302 -0.57483500 1.905766e-42
36.74150100 -16.17580000 456.30301000 0.63522899 0.51251203 -0.57776803 1.905766e-42
36.75550100 -17.53529900 455.12299000 0.63541502 0.50798398 -0.58154899 1.905766e-42
36.71500000 -19.08600000 454.20999000 0.63717502 0.50259000 -0.58430398 1.905766e-42
36.35070000 -19.87350100 452.63300000 0.63053501 0.50213301 -0.59185201 1.905766e-42
36.45309800 -21.32119900 451.56900000 0.63267398 0.49633101 -0.59445697 1.905766e-42
36.54539900 -22.81539900 450.56900000 0.63485402 0.48886701 -0.59830499 1.905766e-42
36.44960000 -24.10160100 449.31400000 0.63340402 0.47985101 -0.60707700 1.905766e-42
36.16830100 -25.33400000 448.03201000 0.63027298 0.47142401 -0.61685902 1.905766e-42
35.97840100 -26.68240000 446.85501000 0.62833399 0.46182400 -0.62603098 1.905766e-42
35.80460000 -28.08650000 445.74200000 0.62673998 0.45159999 -0.63502300 1.905766e-42
35.69279900 -29.51549900 444.65302000 0.62548202 0.44075999 -0.64381897 1.905766e-42
35.64540100 -31.05480000 443.72101000 0.62510097 0.42910901 -0.65200800 1.905766e-42
35.11200000 -32.12649900 442.37701000 0.62014103 0.41995499 -0.66261899 1.905766e-42
35.01739900 -33.60720100 441.35800000 0.61927199 0.40756601 -0.67111301 1.905766e-42
34.94290200 -35.14699900 440.42899000 0.61872202 0.39452201 -0.67936498 1.905766e-42
34.64469900 -36.56100100 439.35599000 0.61703801 0.38151699 -0.68826503 1.905766e-42
34.22449900 -37.89180000 438.21899000 0.61498398 0.36680901 -0.69802999 1.905766e-42
33.93059900 -39.36990000 437.23499000 0.61341101 0.35238200 -0.70679098 1.905766e-42
33.58229800 -40.87160100 436.30499000 0.61134100 0.33907700 -0.71504498 1.905766e-42
33.55390200 -42.57910200 435.73599000 0.60938400 0.32716301 -0.72223002 1.905766e-42
33.12440100 -43.72729900 434.41800000 0.60570002 0.31660599 -0.72999197 1.905766e-42
32.72629900 -45.18610000 433.44199000 0.60142797 0.30645800 -0.73781300 1.905766e-42
32.43569900 -46.73650000 432.57501000 0.59635299 0.29754499 -0.74554002 1.905766e-42
31.94549900 -48.19440100 431.64001000 0.58974499 0.28940701 -0.75395203 1.905766e-42
31.27780000 -49.53760100 430.64499000 0.58051699 0.28202200 -0.76384801 1.905766e-42
31.67720000 -51.26390100 430.32800000 0.57624698 0.27960101 -0.76796001 1.905766e-42
