# .PCD v0.7 - Point Cloud Data file format
# 5 214 0
# 1 87 0
# 88 126 0
# 127 166 0
# 167 195 0
# 196 214 0
VERSION 0.7
FIELDS x y z normal_x normal_y normal_z curvature
SIZE 4 4 4 4 4 4 4
TYPE F F F F F F F
COUNT 1 1 1 1 1 1 1
WIDTH 214
HEIGHT 1
VIEWPOINT 0 0 0 1 0 0 0
POINTS 214
DATA ascii
16.378599 57.2047 367.21701 0.131128 0.83517897 0.53411698 1.9057659e-42
14.8289 56.807301 368.04199 0.131964 0.82701802 0.54646802 1.9057659e-42
13.5098 56.285198 369.14899 0.130766 0.816742 0.56198901 1.9057659e-42
12.7826 55.521099 370.608 0.126632 0.80462903 0.580118 1.9057659e-42
12.746 54.609299 372.159 0.121862 0.79221803 0.597947 1.9057659e-42
12.5571 53.5746 373.62 0.118356 0.77877599 0.616036 1.9057659e-42
12.8366 52.407501 374.96201 0.116718 0.76472402 0.633699 1.9057659e-42
12.5433 51.310902 376.35901 0.115758 0.749367 0.65195799 1.9057659e-42
12.6731 50.146702 377.72501 0.116895 0.732575 0.67057401 1.9057659e-42
12.4055 48.945599 379.039 0.118544 0.71493697 0.68906599 1.9057659e-42
12.16 47.711899 380.327 0.121466 0.69601101 0.70768303 1.9057659e-42
11.8421 46.381401 381.496 0.125393 0.67595398 0.72619802 1.9057659e-42
11.647 45.013599 382.64999 0.128096 0.66416103 0.73653299 1.9057659e-42
11.0597 43.760601 383.80099 0.12934101 0.65387201 0.74546802 1.9057659e-42
10.7689 42.487202 385.04001 0.13045999 0.64249301 0.75510401 1.9057659e-42
9.9506197 41.3582 386.17801 0.13004699 0.63219398 0.76381898 1.9057659e-42
9.1391096 40.185001 387.276 0.128886 0.62125897 0.77293301 1.9057659e-42
8.3532104 38.949001 388.32199 0.126828 0.60959399 0.782502 1.9057659e-42
7.38802 37.8209 389.34 0.123465 0.59785801 0.79203701 1.9057659e-42
6.5205798 36.737598 390.48599 0.118959 0.58512199 0.80217302 1.9057659e-42
5.2189999 35.825199 391.33099 0.112056 0.57324702 0.81168401 1.9057659e-42
4.1394401 34.730202 392.26599 0.101769 0.55963999 0.82246298 1.9057659e-42
3.1751299 33.569 393.24701 0.091905698 0.545344 0.83315903 1.9057659e-42
1.58439 32.940701 393.80801 0.080728799 0.54058099 0.83740902 1.9057659e-42
0.246171 31.9554 394.5 0.070118196 0.53601801 0.84129 1.9057659e-42
-0.70455301 30.7092 395.38501 0.0607851 0.53173101 0.84472901 1.9057659e-42
-1.88405 29.563499 396.117 0.051229399 0.52681202 0.84843701 1.9057659e-42
-2.94713 28.318399 396.86499 0.042240001 0.52173901 0.85205901 1.9057659e-42
-4.3815699 27.387899 397.42801 0.033247601 0.51610398 0.85588002 1.9057659e-42
-5.7443199 26.3591 397.99701 0.024731999 0.510288 0.85964799 1.9057659e-42
-6.83179 25.239799 398.89401 0.0168663 0.50432998 0.86334598 1.9057659e-42
-7.9014401 24.015699 399.66699 0.0092946198 0.498059 0.86709303 1.9057659e-42
-9.1597404 22.934799 400.366 0.0092049604 0.49083501 0.87120402 1.9057659e-42
-10.4278 21.830601 401.008 0.00848368 0.48288 0.875646 1.9057659e-42
-11.5159 20.580999 401.71201 0.0052587101 0.47457501 0.88019902 1.9057659e-42
-12.5877 19.304501 402.39099 0.00100247 0.465092 0.88526201 1.9057659e-42
-13.6534 18.0012 403.02802 -0.0037189701 0.455414 0.89027202 1.9057659e-42
-14.7604 16.7299 403.659 -0.0085998299 0.44584799 0.89506698 1.9057659e-42
-15.6471 15.3128 404.327 -0.0148468 0.43691099 0.899382 1.9057659e-42
-16.498699 13.8789 405.004 -0.0214772 0.42824 0.90341002 1.9057659e-42
-17.210899 12.3723 405.68399 -0.028769 0.42012599 0.90701002 1.9057659e-42
-17.971001 10.8599 406.297 -0.036139298 0.41202399 0.910456 1.9057659e-42
-18.7628 9.3588495 406.897 -0.043709099 0.40395799 0.91373301 1.9057659e-42
-19.764299 7.9341202 407.35199 -0.0510781 0.395394 0.91709 1.9057659e-42
-20.441401 6.3782001 407.952 -0.0595783 0.38786799 0.919788 1.9057659e-42
-20.9487 4.7638102 408.56601 -0.068445101 0.380741 0.92214501 1.9057659e-42
-21.6404 3.1953199 409.11499 -0.076778203 0.37296599 0.92466301 1.9057659e-42
-21.9368 1.5487601 409.77899 -0.084108897 0.367098 0.92637199 1.9057659e-42
-22.439301 -0.106408 410.27701 -0.090527698 0.36126599 0.92805803 1.9057659e-42
-22.5716 -1.72824 411.04599 -0.094965197 0.356812 0.92933702 1.9057659e-42
-23.268499 -3.31705 411.526 -0.099155903 0.35220101 0.93065703 1.9057659e-42
-23.507601 -4.96456 412.20999 -0.100849 0.34854099 0.93185198 1.9057659e-42
-23.205601 -6.6626 412.72601 -0.0995107 0.344809 0.93338299 1.9057659e-42
-23.014601 -8.4035597 413.14099 -0.096825399 0.340487 0.935251 1.9057659e-42
-22.3351 -9.8032198 414.04599 -0.091659702 0.33473301 0.93784499 1.9057659e-42
-21.997499 -11.4567 414.672 -0.085985899 0.32624301 0.94136697 1.9057659e-42
-21.603001 -13.1343 415.19199 -0.079693601 0.315898 0.94543999 1.9057659e-42
-20.873301 -14.6257 415.88699 -0.072868101 0.30441201 0.94974899 1.9057659e-42
-20.6703 -16.3613 416.319 -0.066264696 0.29319099 0.95375502 1.9057659e-42
-20.192301 -18.0166 416.84 -0.059308998 0.280716 0.95795703 1.9057659e-42
-19.8666 -19.7691 417.091 -0.052449498 0.26817399 0.96194202 1.9057659e-42
-19.135099 -21.2869 417.724 -0.046121102 0.25443 0.96599102 1.9057659e-42
-18.2558 -22.7521 418.29001 -0.040723 0.240436 0.96981001 1.9057659e-42
-17.6068 -24.3846 418.68201 -0.035579599 0.226276 0.97341299 1.9057659e-42
-16.660299 -25.849199 419.12799 -0.032115299 0.213149 0.97649199 1.9057659e-42
-15.9267 -27.4498 419.50201 -0.028678 0.20491099 0.97836 1.9057659e-42
-15.1379 -29.0261 419.867 -0.026233301 0.19654 0.98014498 1.9057659e-42
-14.7364 -30.7736 420.02499 -0.0229272 0.18848599 0.98180801 1.9057659e-42
-13.5851 -32.056 420.54501 -0.0238468 0.179989 0.98337901 1.9057659e-42
-12.7713 -33.6399 420.80701 -0.023744 0.171103 0.98496699 1.9057659e-42
-12.0628 -35.292 420.89999 -0.0237439 0.161993 0.98650599 1.9057659e-42
-11.2659 -35.815601 421.211 -0.0270171 0.15768901 0.98711902 1.9057659e-42
-10.4423 -37.4044 421.40399 -0.029145001 0.148176 0.98853201 1.9057659e-42
-9.6838799 -39.0257 421.59399 -0.0232324 0.138143 0.99014002 1.9057659e-42
-8.6769505 -40.501598 421.81299 -0.016354499 0.12812801 0.99162298 1.9057659e-42
-7.5523601 -41.8955 421.992 -0.0095511004 0.119428 0.99279702 1.9057659e-42
-6.4050798 -43.278198 422.10199 -0.00214218 0.117328 0.99309099 1.9057659e-42
-5.63691 -44.882099 422.38101 0.0044788099 0.115608 0.993285 1.9057659e-42
-4.8714099 -46.503899 422.534 0.0112489 0.113102 0.99352002 1.9057659e-42
-3.8283701 -47.933399 422.86401 0.018264599 0.108905 0.99388403 1.9057659e-42
-3.1231599 -49.584999 422.987 0.0256084 0.104719 0.99417198 1.9057659e-42
-2.4591999 -51.256302 423.06201 0.0336124 0.099653497 0.99445403 1.9057659e-42
-1.9409 -52.974701 423.19901 0.0425249 0.094132803 0.99465102 1.9057659e-42
-1.61288 -54.7435 423.26001 0.052575398 0.088556103 0.99468303 1.9057659e-42
-0.685157 -56.251801 423.58301 0.062844403 0.078966603 0.99489403 1.9057659e-42
0.16854399 -57.835999 423.62201 0.0743315 0.0680729 0.99490702 1.9057659e-42
0.79057401 -59.498199 423.32199 0.088161498 0.056789201 0.99448597 1.9057659e-42
2.1675899 -60.6539 423.23099 0.102983 0.040378999 0.99386299 1.9057659e-42
3.7565601 -59.84 423.461 0.102811 0.032876302 0.99415702 1.9057659e-42
5.41644 -59.152199 423.35199 0.104885 0.0258382 0.99414903 1.9057659e-42
7.1911998 -59.011101 423.08701 0.111254 0.016573301 0.99365401 1.9057659e-42
8.8909597 -58.493801 422.79901 0.115754 0.0111118 0.99321598 1.9057659e-42
10.642 -58.542 422.384 0.123365 0.00319765 0.992356 1.9057659e-42
12.3403 -57.947201 422.34201 0.12829299 0.00031704799 0.99173599 1.9057659e-42
14.0051 -57.280602 422.18701 0.133467 -0.00138187 0.99105197 1.9057659e-42
15.7012 -56.722801 421.95801 0.14047299 -0.0034124099 0.99007899 1.9057659e-42
17.431499 -56.420101 421.565 0.148837 -0.0065425402 0.98883998 1.9057659e-42
19.169399 -56.655102 421.16 0.15868901 -0.0121416 0.98725402 1.9057659e-42
20.885201 -56.111599 421.18201 0.16646101 -0.0126837 0.98596698 1.9057659e-42
22.626301 -56.030998 420.73199 0.175892 -0.0155062 0.98428702 1.9057659e-42
24.2661 -55.311699 420.548 0.183733 -0.014116 0.98287499 1.9057659e-42
25.972099 -55.3069 419.974 0.19354001 -0.0164147 0.980955 1.9057659e-42
27.6677 -54.706402 419.90799 0.20224699 -0.0148158 0.979222 1.9057659e-42
29.409201 -54.509899 419.49799 0.210567 -0.014843 0.977467 1.9057659e-42
31.112801 -54.4543 418.91901 0.21889099 -0.0148134 0.97563702 1.9057659e-42
32.830002 -54.353001 418.38901 0.227809 -0.0137117 0.97360897 1.9057659e-42
34.470798 -53.613098 418.371 0.236882 -0.0082435403 0.97150302 1.9057659e-42
36.1628 -53.879601 417.81799 0.246589 -0.0076730498 0.96908998 1.9057659e-42
37.8825 -53.502399 417.44299 0.25766101 -0.0024097201 0.966232 1.9057659e-42
39.544601 -53.66 416.771 0.26846799 0.000546564 0.96328902 1.9057659e-42
41.241501 -53.580299 416.17499 0.28043601 0.0059820199 0.95985401 1.9057659e-42
42.905102 -52.943401 415.91699 0.294135 0.0156582 0.95563501 1.9057659e-42
44.503201 -53.3181 415.17801 0.30558199 0.018508101 0.95198601 1.9057659e-42
46.225399 -52.998501 414.76401 0.319177 0.0263125 0.94733 1.9057659e-42
47.912899 -52.9142 414.14301 0.33220699 0.032198898 0.94265699 1.9057659e-42
49.604099 -53.013199 413.534 0.34464401 0.036170099 0.93803602 1.9057659e-42
51.293301 -52.570202 413.09799 0.35750201 0.0434701 0.93290001 1.9057659e-42
52.965599 -52.5495 412.43301 0.36960399 0.046798199 0.92800999 1.9057659e-42
54.625401 -52.417099 411.74899 0.38110799 0.049855199 0.923186 1.9057659e-42
56.257801 -52.2257 411.01501 0.38784099 0.053228699 0.92018801 1.9057659e-42
57.872898 -52.112301 410.229 0.39485899 0.0560419 0.91703099 1.9057659e-42
59.504398 -52.420101 409.53299 0.40166 0.056809701 0.91402501 1.9057659e-42
61.144901 -52.135601 408.849 0.409529 0.060906101 0.91026199 1.9057659e-42
62.687698 -52.415901 407.965 0.41689 0.063136503 0.90676099 1.9057659e-42
64.309799 -51.9585 407.33301 0.42574099 0.068566702 0.90224302 1.9057659e-42
65.958298 -51.604301 406.703 0.43506101 0.074247703 0.89733398 1.9057659e-42
67.615402 -51.27 406.08499 0.439109 0.081838302 0.89469898 1.9057659e-42
68.423599 -49.808601 405.41299 0.444507 0.0891378 0.89132899 1.9057659e-42
69.306503 -48.442402 404.64301 0.44944701 0.096030198 0.88813001 1.9057659e-42
70.103996 -46.9674 403.98801 0.45465299 0.102425 0.88476002 1.9057659e-42
70.358902 -45.195 403.80499 0.46018201 0.106756 0.881383 1.9057659e-42
71.599701 -44.166901 403.00299 0.46454599 0.113595 0.87823302 1.9057659e-42
72.633698 -42.8848 402.27701 0.469854 0.120055 0.874542 1.9057659e-42
73.389999 -41.3596 401.69199 0.47583199 0.12572201 0.87050402 1.9057659e-42
74.229401 -39.919201 401.013 0.48215601 0.131588 0.86614698 1.9057659e-42
75.351898 -38.7999 400.16101 0.48884001 0.13818701 0.86136001 1.9057659e-42
76.083298 -37.310299 399.46301 0.496335 0.143804 0.85613799 1.9057659e-42
76.913696 -35.955601 398.61801 0.50506401 0.155615 0.84893698 1.9057659e-42
77.397797 -34.309799 398.073 0.51314998 0.167381 0.84182 1.9057659e-42
77.774803 -32.611301 397.61099 0.52026302 0.178349 0.83517599 1.9057659e-42
78.509804 -31.224899 396.729 0.52827197 0.18918701 0.82773 1.9057659e-42
78.745201 -29.4902 396.311 0.53355497 0.198881 0.82204902 1.9057659e-42
79.280602 -27.926001 395.599 0.539608 0.208465 0.81569898 1.9057659e-42
80.026199 -26.5907 394.64999 0.54623997 0.21691 0.80905598 1.9057659e-42
80.328499 -24.9389 394.00101 0.549927 0.22523899 0.80426902 1.9057659e-42
80.817398 -23.479401 393.06799 0.55423701 0.232582 0.79920399 1.9057659e-42
80.952499 -21.714199 392.74301 0.55476099 0.241987 0.79604203 1.9057659e-42
81.1278 -20.031 392.13 0.55587101 0.25252301 0.79198498 1.9057659e-42
81.775597 -18.6563 391.16501 0.55992001 0.261013 0.78636003 1.9057659e-42
82.061501 -17.0779 390.34799 0.56141597 0.27063799 0.78202701 1.9057659e-42
81.791298 -15.3614 389.879 0.55877 0.28154001 0.78007197 1.9057659e-42
82.0028 -13.9601 388.76901 0.56003702 0.290364 0.77591699 1.9057659e-42
81.609001 -12.2041 388.80899 0.55440903 0.30168101 0.77564102 1.9057659e-42
81.616501 -10.4789 388.29501 0.551624 0.312534 0.77332598 1.9057659e-42
81.547798 -8.7978096 387.65601 0.548428 0.323459 0.77110398 1.9057659e-42
81.284302 -7.1178198 387.065 0.543814 0.334959 0.76946002 1.9057659e-42
80.886902 -5.4264498 386.595 0.537664 0.343514 0.77000999 1.9057659e-42
80.802696 -3.78421 385.86301 0.53244102 0.35064301 0.77042598 1.9057659e-42
80.377098 -2.08605 385.444 0.524234 0.36028999 0.77160197 1.9057659e-42
80.370201 -0.429389 384.741 0.51719898 0.36851099 0.77246702 1.9057659e-42
80.064903 1.23853 384.13699 0.50810099 0.37881699 0.77351898 1.9057659e-42
80.016502 2.85623 383.349 0.49907601 0.38802299 0.77482998 1.9057659e-42
80.029297 4.4563398 382.52399 0.48907799 0.39717299 0.77656698 1.9057659e-42
80.050102 6.03406 381.65799 0.47786501 0.406452 0.77874398 1.9057659e-42
80.056099 7.5891199 380.75201 0.46533701 0.41596001 0.78130603 1.9057659e-42
80.002197 9.1870499 379.92499 0.451864 0.42458299 0.78456903 1.9057659e-42
79.423103 10.7741 379.30301 0.440862 0.434351 0.78548002 1.9057659e-42
77.957298 11.7496 379.677 0.440795 0.44556001 0.77921498 1.9057659e-42
76.650101 12.984 379.763 0.43999299 0.454716 0.77436399 1.9057659e-42
75.370003 14.2495 379.755 0.44076699 0.46218401 0.76948702 1.9057659e-42
73.959297 15.3402 380.00101 0.44567499 0.468032 0.76309901 1.9057659e-42
72.516502 16.394899 380.215 0.45289299 0.47235799 0.75615197 1.9057659e-42
71.270401 17.6819 380.039 0.459416 0.47626501 0.74973899 1.9057659e-42
69.729897 18.5811 380.28101 0.472561 0.47761399 0.74065602 1.9057659e-42
68.6259 19.9617 379.94101 0.46700501 0.48385701 0.74012798 1.9057659e-42
67.3144 21.193399 379.995 0.45658299 0.49114001 0.741831 1.9057659e-42
66.060402 22.484501 379.97198 0.44638401 0.49904299 0.74276298 1.9057659e-42
64.8172 23.7773 379.82101 0.43653601 0.50728899 0.74303001 1.9057659e-42
63.7169 25.1054 379.306 0.42814201 0.51578498 0.74206501 1.9057659e-42
62.396301 26.3221 379.17999 0.41879201 0.52396703 0.74166799 1.9057659e-42
61.009399 27.4694 379.189 0.40964001 0.53173101 0.74125302 1.9057659e-42
59.640999 28.636999 379.254 0.40100801 0.53924602 0.74054402 1.9057659e-42
58.3955 29.913601 379.01099 0.39353499 0.54759401 0.738424 1.9057659e-42
57.364399 31.2316 378.34799 0.38757601 0.556849 0.73464501 1.9057659e-42
56.1544 32.558498 378.224 0.37922701 0.565588 0.73232299 1.9057659e-42
54.986198 33.8521 377.77499 0.37080601 0.57532901 0.72904003 1.9057659e-42
53.780201 35.136902 377.40799 0.361965 0.58513498 0.72567099 1.9057659e-42
52.526001 36.388 377.08899 0.352882 0.59486401 0.72222602 1.9057659e-42
51.372398 37.6479 376.522 0.34449899 0.60512501 0.71773499 1.9057659e-42
50.497799 39.0354 375.78 0.33739099 0.61582702 0.71198702 1.9057659e-42
49.517502 40.3797 375.09299 0.32997799 0.62627399 0.70632601 1.9057659e-42
48.9188 41.797401 374.159 0.32446799 0.636832 0.699404 1.9057659e-42
48.541698 43.068901 372.94299 0.319893 0.64680302 0.692325 1.9057659e-42
47.91 44.523201 372.09 0.31280801 0.65642703 0.68647999 1.9057659e-42
47.3456 45.830601 370.98901 0.30522501 0.66544598 0.681189 1.9057659e-42
47.1609 46.8699 369.53101 0.29834899 0.67240798 0.67738801 1.9057659e-42
45.5597 47.676201 369.69299 0.289372 0.68088597 0.67279899 1.9057659e-42
43.8634 48.196301 369.99701 0.281333 0.68849498 0.66845 1.9057659e-42
42.239498 48.905499 369.681 0.27069101 0.69827002 0.66268098 1.9057659e-42
40.551102 49.4613 369.965 0.26166901 0.706366 0.65770602 1.9057659e-42
38.972698 50.2416 369.591 0.250613 0.71704799 0.65041202 1.9057659e-42
37.287601 50.873901 369.56799 0.240539 0.72679597 0.64335799 1.9057659e-42
35.571201 51.415798 369.58499 0.23079 0.73639202 0.63597399 1.9057659e-42
33.851002 51.945099 369.61499 0.221062 0.74615198 0.62800401 1.9057659e-42
32.1255 52.392101 369.866 0.21244401 0.754825 0.62057 1.9057659e-42
30.5665 53.181 369.43301 0.20005099 0.76787603 0.60856098 1.9057659e-42
29.124599 54.030201 368.76999 0.18467499 0.78228098 0.59492099 1.9057659e-42
27.453899 54.665199 368.556 0.17133 0.794245 0.582941 1.9057659e-42
25.9916 55.425201 367.83301 0.157318 0.80787498 0.56796902 1.9057659e-42
24.5931 56.185699 366.99301 0.14465401 0.82112998 0.55210602 1.9057659e-42
23.049999 56.851299 366.34799 0.135111 0.83245301 0.53737098 1.9057659e-42
21.313801 57.2757 366.13501 0.13056301 0.83957601 0.52732003 1.9057659e-42
19.6157 57.736198 365.754 0.128846 0.84558499 0.518058 1.9057659e-42
17.973801 57.591301 366.478 0.130548 0.84179199 0.52377701 1.9057659e-42
