# .PCD v0.7 - Point Cloud Data file format
# 4 105 0
# 1 15 0
# 16 37 0
# 38 80 0
# 81 105 0
VERSION 0.7
FIELDS x y z normal_x normal_y normal_z curvature
SIZE 4 4 4 4 4 4 4
TYPE F F F F F F F
COUNT 1 1 1 1 1 1 1
WIDTH 105
HEIGHT 1
VIEWPOINT 0 0 0 1 0 0 0
POINTS 105
DATA ascii
18.43610000 4.82480000 442.28699000 -0.01000270 0.97155499 -0.23660401 1.905766e-42
16.79320000 4.60657980 441.58499000 -0.00664101 0.97444803 -0.22451700 1.905766e-42
14.99450000 4.53850980 441.57401000 -0.00028916 0.97397900 -0.22663800 1.905766e-42
13.37660000 4.40291020 440.79599000 0.00830913 0.97546899 -0.21997900 1.905766e-42
11.58300000 4.38736010 440.64600000 0.02616670 0.97407699 -0.22470000 1.905766e-42
9.90839960 4.31473020 439.98901000 0.04319790 0.97331500 -0.22536901 1.905766e-42
8.11182980 4.42566010 439.99600000 0.06826600 0.96937603 -0.23590200 1.905766e-42
6.31841990 4.57958980 439.99799000 0.09585350 0.96433401 -0.24672100 1.905766e-42
4.53170010 4.79765990 440.00699000 0.11895400 0.95839900 -0.25946400 1.905766e-42
2.74335000 4.85608010 439.81100000 0.14114600 0.95246798 -0.26996800 1.905766e-42
0.99019903 5.26403000 439.80399000 0.16752000 0.94455701 -0.28239700 1.905766e-42
-0.65800703 5.29705000 439.08200000 0.18813901 0.93825799 -0.29030299 1.905766e-42
-2.40731000 5.57584000 438.76199000 0.20677800 0.92885602 -0.30735999 1.905766e-42
-2.50778010 5.26094010 438.36301000 0.20156799 0.92998397 -0.30740699 1.905766e-42
-4.16822000 5.95112990 438.44400000 0.21625100 0.91986698 -0.32723099 1.905766e-42
-5.86898990 6.36536980 438.86401000 0.23275600 0.90680701 -0.35146201 1.905766e-42
-6.96855020 7.24218990 439.98700000 0.25194401 0.89782000 -0.36116999 1.905766e-42
-8.05762000 8.06494050 441.16101000 0.26301000 0.89763802 -0.35365501 1.905766e-42
-9.18820000 8.80692010 442.34900000 0.27378601 0.89660800 -0.34804299 1.905766e-42
-10.29190000 9.49998000 443.59000000 0.28973499 0.89061600 -0.35050899 1.905766e-42
-10.44780000 10.41470000 445.13300000 0.31136000 0.87403202 -0.37299100 1.905766e-42
-11.33250000 11.25170000 446.45801000 0.33526000 0.85337001 -0.39919999 1.905766e-42
-12.74550000 12.06850000 447.21701000 0.35724199 0.83417600 -0.42015299 1.905766e-42
-13.28410000 13.08840000 448.59900000 0.36785501 0.82030100 -0.43793800 1.905766e-42
-13.68620000 14.13180000 450.01001000 0.37541100 0.80936599 -0.45165700 1.905766e-42
-14.51340000 15.23760000 451.16400000 0.38628200 0.79775500 -0.46300501 1.905766e-42
-15.72110000 16.21820100 452.06900000 0.40086699 0.78511000 -0.47213101 1.905766e-42
-16.19860100 17.39990000 453.34100000 0.42189601 0.74794102 -0.51243299 1.905766e-42
-17.02350000 18.52090100 454.48199000 0.44032499 0.70811099 -0.55198997 1.905766e-42
-17.45850000 19.81979900 455.64999000 0.45009699 0.66543603 -0.59548998 1.905766e-42
-18.26250100 21.07880000 456.65399000 0.45016301 0.63978797 -0.62291598 1.905766e-42
-18.31170100 22.51639900 457.73599000 0.44244000 0.63528800 -0.63297403 1.905766e-42
-19.11969900 23.82119900 458.67700000 0.44071701 0.63185698 -0.63759297 1.905766e-42
-19.31010100 25.21950000 459.79401000 0.44120201 0.62707800 -0.64196098 1.905766e-42
-19.74900100 26.55320000 460.92001000 0.44549099 0.62077898 -0.64511400 1.905766e-42
-19.59140000 27.89020000 462.11499000 0.44809499 0.61420500 -0.64958698 1.905766e-42
-20.19039900 29.25470000 463.12500000 0.45693600 0.60245299 -0.65441602 1.905766e-42
-19.91290100 30.60890000 464.27802000 0.47464499 0.53991199 -0.69513100 1.905766e-42
-19.00810100 31.41869900 465.60599000 0.47870800 0.48669499 -0.73073000 1.905766e-42
-17.41120000 31.33560000 466.43301000 0.46967500 0.48436701 -0.73810101 1.905766e-42
-16.09790000 31.79880000 467.57300000 0.46371901 0.45531699 -0.76003402 1.905766e-42
-14.66220000 32.15620000 468.59900000 0.45243999 0.43510899 -0.77844602 1.905766e-42
-13.26140000 32.56880200 469.65100000 0.43565601 0.41406399 -0.79922199 1.905766e-42
-11.68060000 32.67269900 470.50500000 0.41624799 0.40887901 -0.81212997 1.905766e-42
-10.14820000 32.89979900 471.42200000 0.40046600 0.40109399 -0.82386303 1.905766e-42
-8.79909990 33.51829900 472.44101000 0.39200100 0.38291100 -0.83648998 1.905766e-42
-7.17959020 33.59930000 473.22198000 0.37396401 0.38811901 -0.84232700 1.905766e-42
-5.50653980 33.59299900 473.88599000 0.34733301 0.39545101 -0.85028100 1.905766e-42
-4.20210980 34.36280100 474.85901000 0.33055300 0.37590599 -0.86569601 1.905766e-42
-2.49044990 34.30540100 475.41299000 0.30427101 0.38184100 -0.87270701 1.905766e-42
-0.78417999 34.35030000 475.98401000 0.27952099 0.38394901 -0.88002902 1.905766e-42
0.71962500 34.89210100 476.81201000 0.25906801 0.37024799 -0.89207602 1.905766e-42
2.43990990 34.36940000 476.89801000 0.23231600 0.38927400 -0.89134401 1.905766e-42
4.17650990 34.48949800 477.35599000 0.20715900 0.38881901 -0.89772201 1.905766e-42
5.67506980 35.19910000 478.05600000 0.18708099 0.37002701 -0.90998900 1.905766e-42
7.44305990 35.19969900 478.39401000 0.16156600 0.37202001 -0.91405600 1.905766e-42
9.22762970 35.14320000 478.62201000 0.14864700 0.37951800 -0.91316497 1.905766e-42
11.01120000 35.18719900 478.86099000 0.13509300 0.38776901 -0.91180301 1.905766e-42
12.79980000 35.16140000 479.06201000 0.11804400 0.40084100 -0.90851098 1.905766e-42
14.36060000 34.32560000 478.73801000 0.09094980 0.44011399 -0.89332402 1.905766e-42
16.15589900 34.29940000 478.86600000 0.06664510 0.45844901 -0.88621801 1.905766e-42
17.77459900 33.56589900 478.57999000 0.03031690 0.50359499 -0.86340803 1.905766e-42
19.57119900 33.45560100 478.57901000 -0.00235104 0.52974898 -0.84815198 1.905766e-42
21.27860100 32.96770100 478.28400000 -0.04257730 0.57795697 -0.81495601 1.905766e-42
23.00480100 32.58140200 477.95099000 -0.07189220 0.58678299 -0.80654699 1.905766e-42
24.63520100 32.02019900 477.43399000 -0.09666750 0.58236700 -0.80715799 1.905766e-42
26.05850000 31.24449900 476.65201000 -0.11223600 0.57591403 -0.80976897 1.905766e-42
27.80699900 31.07889900 476.25800000 -0.12512900 0.57347101 -0.80961299 1.905766e-42
29.54260100 30.81390000 475.86099000 -0.13836300 0.56955099 -0.81022698 1.905766e-42
30.86120000 30.05200000 474.90201000 -0.14949100 0.56043798 -0.81459302 1.905766e-42
32.41510000 29.49300000 474.18500000 -0.16333300 0.55237597 -0.81743699 1.905766e-42
33.94820000 28.87019900 473.47699000 -0.17812400 0.54299903 -0.82062399 1.905766e-42
35.63710000 28.57860000 472.92700000 -0.19726200 0.53499198 -0.82150501 1.905766e-42
37.07379900 27.84280000 472.13101000 -0.20562001 0.52839500 -0.82372302 1.905766e-42
38.52669900 27.17989900 471.29999000 -0.23401000 0.56743097 -0.78946900 1.905766e-42
40.23630100 27.16340100 470.73700000 -0.25602901 0.59169197 -0.76442701 1.905766e-42
41.85480100 26.94420100 469.98001000 -0.28095701 0.61610699 -0.73584998 1.905766e-42
43.41669800 26.63279900 469.14200000 -0.30522501 0.63699901 -0.70786297 1.905766e-42
44.73979900 26.13640000 468.02701000 -0.32659900 0.65359998 -0.68274403 1.905766e-42
45.87879900 25.45999900 466.80801000 -0.33995801 0.65724301 -0.67265201 1.905766e-42
47.04530000 24.86700100 465.57199000 -0.34881699 0.65885401 -0.66651201 1.905766e-42
46.10810100 23.54920000 464.78101000 -0.34063599 0.66781503 -0.66180801 1.905766e-42
44.52510100 22.69490100 464.71799000 -0.32995000 0.67633897 -0.65855801 1.905766e-42
43.41870100 21.47950000 463.98401000 -0.32055700 0.68877298 -0.65025699 1.905766e-42
41.77669900 20.74220100 463.96500000 -0.30520400 0.69596303 -0.64998901 1.905766e-42
40.64590100 19.52290000 463.27600000 -0.29581299 0.71358901 -0.63504702 1.905766e-42
39.78550000 18.22209900 462.37701000 -0.28952500 0.73865998 -0.60873300 1.905766e-42
38.05780000 17.72620000 462.28201000 -0.26090199 0.74831897 -0.60987502 1.905766e-42
36.84510000 16.66869900 461.47501000 -0.24550800 0.77589601 -0.58113003 1.905766e-42
35.57720200 15.73250000 460.60599000 -0.23056200 0.80359697 -0.54870200 1.905766e-42
34.13090100 14.90150000 459.92899000 -0.21363001 0.82563001 -0.52220398 1.905766e-42
32.53640000 14.22710000 459.43701000 -0.19587800 0.84068102 -0.50486398 1.905766e-42
31.10000000 13.44630000 458.68301000 -0.18426700 0.85786098 -0.47970900 1.905766e-42
30.15259900 12.48660000 457.49100000 -0.18095200 0.87595600 -0.44716501 1.905766e-42
28.58219900 11.90470000 456.83099000 -0.16382401 0.87756199 -0.45060700 1.905766e-42
27.29590000 11.11860000 455.84799000 -0.14902700 0.87548703 -0.45968801 1.905766e-42
25.90169900 10.41470000 454.95300000 -0.13241000 0.87472302 -0.46618301 1.905766e-42
24.58060100 9.68776990 453.97000000 -0.10785400 0.87768102 -0.46695101 1.905766e-42
23.86770100 8.77161980 452.59399000 -0.08874360 0.88123399 -0.46427399 1.905766e-42
22.66230000 8.17836000 451.39600000 -0.06485890 0.88916600 -0.45296499 1.905766e-42
21.88859900 7.32718990 450.01199000 -0.04303800 0.89859498 -0.43666300 1.905766e-42
20.73979900 6.87718010 448.70099000 -0.02944550 0.91994703 -0.39093500 1.905766e-42
19.82350000 6.33847000 447.24899000 -0.02133720 0.93843502 -0.34479600 1.905766e-42
19.61170000 5.76476000 445.55600000 -0.01874990 0.95326298 -0.30156100 1.905766e-42
18.98210000 5.28089000 443.94000000 -0.01386200 0.96364403 -0.26682901 1.905766e-42
