# .PCD v0.7 - Point Cloud Data file format
# 3 53 0
# 1 17 0
# 18 36 0
# 37 53 0
VERSION 0.7
FIELDS x y z normal_x normal_y normal_z curvature
SIZE 4 4 4 4 4 4 4
TYPE F F F F F F F
COUNT 1 1 1 1 1 1 1
WIDTH 53
HEIGHT 1
VIEWPOINT 0 0 0 1 0 0 0
POINTS 53
DATA ascii
15.1979 12.8327 465.59698 -0.0082033304 -0.94112998 0.33794501 1.9057659e-42
13.0377 12.8141 465.60501 -0.0191293 -0.94803798 0.31758299 1.9057659e-42
11.6537 12.6192 464.47101 -0.050314002 -0.94182497 0.33231601 1.9057659e-42
11.089 12.238 462.80399 -0.042183202 -0.931306 0.36178699 1.9057659e-42
11.0042 11.3428 461.245 -0.00107696 -0.91760802 0.397486 1.9057659e-42
10.7663 10.5777 459.633 0.034269899 -0.904001 0.42615399 1.9057659e-42
10.2946 9.8534002 458.05399 0.062428899 -0.88231599 0.46650001 1.9057659e-42
10.1143 8.9256401 456.52301 0.098435298 -0.85757703 0.504848 1.9057659e-42
9.4628201 7.9597902 455.14999 0.13137101 -0.82919401 0.54330301 1.9057659e-42
8.4612703 7.0588198 453.957 0.160661 -0.79905802 0.579391 1.9057659e-42
7.87006 5.8659601 452.745 0.18771499 -0.77527303 0.60308802 1.9057659e-42
7.3671298 4.7176299 451.45401 0.206661 -0.75685197 0.62005401 1.9057659e-42
7.16223 3.6431999 450.02399 0.217401 -0.73443502 0.64291698 1.9057659e-42
7.2690802 2.35145 448.77499 0.22388799 -0.70568001 0.67222798 1.9057659e-42
6.80828 1.13596 447.53 0.22790501 -0.67307299 0.70358503 1.9057659e-42
6.4052501 -0.26086599 446.46899 0.22584599 -0.63369602 0.73988003 1.9057659e-42
6.4503498 -1.56249 445.22601 0.219864 -0.66206098 0.716474 1.9057659e-42
6.6470499 -2.8505599 443.98401 0.198357 -0.69750398 0.68857998 1.9057659e-42
8.4153004 -2.5301399 443.88101 0.24414399 -0.68049997 0.69087899 1.9057659e-42
10.0578 -2.3022001 443.181 0.28025401 -0.68844801 0.66895199 1.9057659e-42
11.6842 -1.5315599 443.211 0.21434 -0.69704098 0.684246 1.9057659e-42
13.4319 -1.11063 443.302 0.15438101 -0.70586801 0.69131601 1.9057659e-42
15.1819 -0.75107402 443.522 0.109049 -0.71166801 0.69400102 1.9057659e-42
16.8015 -0.12751099 443.99899 0.063838601 -0.70478702 0.706541 1.9057659e-42
18.599899 -0.050633699 444.00601 0.011695 -0.72661 0.68695003 1.9057659e-42
20.3985 -0.0525948 444.07599 -0.040392701 -0.74965602 0.66059297 1.9057659e-42
22.165501 0.061674599 444.39899 -0.097256601 -0.770298 0.63022399 1.9057659e-42
23.9457 0.19041599 444.633 -0.14630701 -0.789213 0.59643698 1.9057659e-42
25.4196 0.42407301 445.63901 -0.198164 -0.79934698 0.56725198 1.9057659e-42
26.993401 0.56466699 446.50101 -0.241386 -0.81355202 0.529024 1.9057659e-42
28.746799 0.21886399 446.716 -0.25656599 -0.83084202 0.49383801 1.9057659e-42
30.454399 0.051742598 447.26001 -0.27371299 -0.84469801 0.45996401 1.9057659e-42
32.024899 -0.194272 448.10501 -0.296561 -0.82894498 0.47423801 1.9057659e-42
33.625702 -0.218868 448.927 -0.30754799 -0.79630601 0.52087599 1.9057659e-42
35.286301 -0.25785401 449.621 -0.198413 -0.78835398 0.582349 1.9057659e-42
37.057201 -0.214623 449.94 -0.050713401 -0.76280397 0.644638 1.9057659e-42
38.010601 0.99487603 450.87201 0.0379287 -0.69145203 0.72142601 1.9057659e-42
36.639999 1.682 451.815 -0.019993201 -0.67808002 0.734716 1.9057659e-42
35.125999 2.42539 452.444 -0.131044 -0.68258297 0.71896303 1.9057659e-42
33.877998 3.4951401 453.177 -0.113272 -0.72095299 0.68366402 1.9057659e-42
32.485401 4.2568798 454.026 -0.10894 -0.75275201 0.64922702 1.9057659e-42
31.3741 5.2637701 455.022 -0.087880097 -0.77012998 0.631805 1.9057659e-42
30.6833 6.4897299 456.14401 -0.059295502 -0.78530902 0.61625803 1.9057659e-42
29.224701 7.1044898 457.00101 -0.069344699 -0.80982703 0.58255601 1.9057659e-42
27.9655 7.91712 457.99799 -0.058035899 -0.82650298 0.55993199 1.9057659e-42
26.8421 8.9229803 458.98099 -0.055495299 -0.84355599 0.53416598 1.9057659e-42
25.503599 9.5489101 460.009 -0.0674849 -0.86491197 0.49736601 1.9057659e-42
23.914301 9.7979898 460.81699 -0.087674499 -0.88333303 0.460473 1.9057659e-42
22.616899 10.483 461.85901 -0.103961 -0.89089298 0.44215599 1.9057659e-42
21.130899 11.0427 462.707 -0.13094901 -0.89282799 0.43094099 1.9057659e-42
20.0068 11.9981 463.73801 -0.1226 -0.89412701 0.430704 1.9057659e-42
18.2087 12.0139 463.82001 -0.093578197 -0.917211 0.38725501 1.9057659e-42
16.6455 12.4535 464.59698 -0.044794001 -0.93075103 0.36289901 1.9057659e-42
