# .PCD v0.7 - Point Cloud Data file format
# 3 78 0
# 1 28 0
# 29 53 0
# 54 78 0
VERSION 0.7
FIELDS x y z normal_x normal_y normal_z curvature
SIZE 4 4 4 4 4 4 4
TYPE F F F F F F F
COUNT 1 1 1 1 1 1 1
WIDTH 78
HEIGHT 1
VIEWPOINT 0 0 0 1 0 0 0
POINTS 78
DATA ascii
7.63367990 36.79449800 464.04300000 -0.17713900 -0.62785202 0.75790697 1.905766e-42
7.39183000 37.60630000 464.22400000 -0.19633000 -0.63116801 0.75038803 1.905766e-42
5.72414020 37.16260100 463.71201000 -0.25425899 -0.59794003 0.76014501 1.905766e-42
4.82707980 36.24509800 462.45001000 -0.28190899 -0.59195799 0.75505900 1.905766e-42
4.83069990 34.74710100 461.45200000 -0.28439501 -0.61326498 0.73690301 1.905766e-42
4.78642990 33.40319800 460.25500000 -0.29505900 -0.64582801 0.70416403 1.905766e-42
4.73795990 32.19969900 458.91699000 -0.30606601 -0.68404597 0.66212201 1.905766e-42
4.93457980 30.91440000 457.67300000 -0.30063000 -0.69625098 0.65180999 1.905766e-42
4.93229010 29.71950000 456.32700000 -0.28909999 -0.69956201 0.65347898 1.905766e-42
4.91417980 28.65360100 454.87601000 -0.28026101 -0.69727600 0.65974200 1.905766e-42
4.95626020 27.28680000 453.70599000 -0.26371700 -0.70829600 0.65480602 1.905766e-42
4.77644010 26.04740000 452.41299000 -0.25905600 -0.72075200 0.64296699 1.905766e-42
4.72323990 24.78130000 451.13400000 -0.25575399 -0.73692799 0.62572199 1.905766e-42
4.67922020 23.66799900 449.72101000 -0.25987399 -0.74887800 0.60962802 1.905766e-42
4.52177000 22.62780000 448.26001000 -0.26271799 -0.75525802 0.60047001 1.905766e-42
4.70932010 21.45109900 446.91101000 -0.25664201 -0.76041299 0.59657902 1.905766e-42
4.41575000 20.57309900 445.36700000 -0.25622001 -0.76403201 0.59211999 1.905766e-42
4.75167990 19.40790000 444.03699000 -0.24607000 -0.77672100 0.57978803 1.905766e-42
4.78285980 18.20879900 442.69501000 -0.24097700 -0.78885198 0.56537002 1.905766e-42
4.79673000 17.19610000 441.20700000 -0.23806900 -0.80113602 0.54909402 1.905766e-42
5.32280020 16.13270000 439.85300000 -0.22958300 -0.81415898 0.53332603 1.905766e-42
4.94974990 15.31350000 438.29501000 -0.23254099 -0.82318699 0.51796401 1.905766e-42
5.48590990 14.27920000 436.92200000 -0.22811700 -0.83404201 0.50233001 1.905766e-42
5.57668020 13.32170000 435.40100000 -0.24798200 -0.83537799 0.49055901 1.905766e-42
5.53904010 12.42870000 433.83899000 -0.27306500 -0.83697802 0.47424001 1.905766e-42
5.79216000 11.47710000 432.33200000 -0.29751799 -0.84080201 0.45225501 1.905766e-42
5.92432020 10.63960000 430.74399000 -0.31204399 -0.86082602 0.40200299 1.905766e-42
6.03825000 10.02310000 429.05701000 -0.32590100 -0.87714601 0.35270801 1.905766e-42
5.86077980 9.58257960 427.32001000 -0.34702501 -0.91255099 0.21638700 1.905766e-42
7.32077980 8.87876030 428.10300000 -0.33276001 -0.88280302 0.33155599 1.905766e-42
8.93995000 8.63726040 428.85199000 -0.29087299 -0.87847501 0.37904301 1.905766e-42
10.61660000 8.82310960 429.48001000 -0.22123200 -0.87666500 0.42721599 1.905766e-42
12.20030000 8.80883980 430.33499000 -0.16753900 -0.86982101 0.46404999 1.905766e-42
13.67530000 8.98320960 431.35199000 -0.14530900 -0.86742997 0.47586799 1.905766e-42
15.29760000 9.17473030 432.10800000 -0.12136600 -0.86958802 0.47863001 1.905766e-42
16.88640000 9.44417950 432.91000000 -0.10422100 -0.87260503 0.47717801 1.905766e-42
18.47489900 9.80327990 433.67599000 -0.09064100 -0.87346399 0.47837800 1.905766e-42
19.79910100 10.17580000 434.83701000 -0.08254060 -0.86941397 0.48714101 1.905766e-42
21.29960100 10.60790000 435.73300000 -0.07081490 -0.86565399 0.49561000 1.905766e-42
22.62229900 11.04980000 436.87100000 -0.06068700 -0.86192501 0.50339001 1.905766e-42
24.39959900 11.21330000 437.10400000 -0.03941520 -0.86613399 0.49825600 1.905766e-42
25.82869900 11.63090000 438.11600000 -0.02371640 -0.86563897 0.50010699 1.905766e-42
27.40210000 12.07090000 438.87100000 -0.00305650 -0.86577803 0.50041902 1.905766e-42
28.69540000 12.62880000 439.99200000 0.01000830 -0.86142403 0.50778800 1.905766e-42
30.45439900 12.99980000 440.08200000 0.04024230 -0.86431599 0.50133699 1.905766e-42
31.91040000 13.43420000 441.04700000 0.06263120 -0.85565698 0.51374000 1.905766e-42
33.51670100 13.97780000 441.65100000 0.08688190 -0.84611702 0.52586800 1.905766e-42
35.24959900 14.44920000 441.77100000 0.10608400 -0.84014601 0.53188401 1.905766e-42
36.83160000 14.93680000 442.47800000 0.11435200 -0.83162200 0.54344100 1.905766e-42
38.36330000 15.55490000 443.19400000 0.12454600 -0.82237202 0.55515099 1.905766e-42
40.09069800 16.05640000 443.26099000 0.13825200 -0.81749701 0.55909300 1.905766e-42
41.51129900 16.86380000 444.01599000 0.14321101 -0.80909097 0.56996697 1.905766e-42
42.63830200 17.66830100 445.16599000 0.14041400 -0.79948598 0.58404303 1.905766e-42
43.62179900 18.69910000 446.26599000 0.13565500 -0.78817701 0.60031199 1.905766e-42
42.54690200 19.61650100 447.38101000 0.13446000 -0.77516299 0.61728698 1.905766e-42
40.91859800 19.77750000 448.13101000 0.12097500 -0.76120698 0.63712502 1.905766e-42
39.72200000 20.57150100 449.21600000 0.10979100 -0.75053197 0.65165001 1.905766e-42
38.17010100 20.90810000 450.06299000 0.09713250 -0.74299502 0.66221100 1.905766e-42
36.76240200 21.57670000 450.96399000 0.08358160 -0.73488998 0.67301702 1.905766e-42
35.01050200 21.77580100 451.32599000 0.06650180 -0.73080599 0.67933798 1.905766e-42
33.72560100 22.59830100 452.28101000 0.04939310 -0.72175401 0.69038498 1.905766e-42
32.54740100 23.50569900 453.29599000 0.03250080 -0.71113700 0.70230103 1.905766e-42
30.92550100 24.02400000 453.87900000 0.01312510 -0.70856303 0.70552599 1.905766e-42
29.53319900 24.80610100 454.70999000 0.00350330 -0.70812702 0.70607698 1.905766e-42
28.37190100 25.78879900 455.67200000 0.00026325 -0.70591402 0.70829701 1.905766e-42
27.02780000 26.61120000 456.54199000 -0.00111839 -0.70443302 0.70976901 1.905766e-42
25.54320000 27.34830100 457.24399000 -0.00236580 -0.70280099 0.71138197 1.905766e-42
24.07379900 28.10150000 457.96100000 -0.00446012 -0.69943601 0.71468103 1.905766e-42
22.56640100 28.79229900 458.66101000 -0.01526810 -0.69703603 0.71687400 1.905766e-42
20.84310000 29.22290000 458.95200000 -0.03823310 -0.69025999 0.72254997 1.905766e-42
19.41470000 30.08449900 459.62799000 -0.05614460 -0.67486000 0.73580700 1.905766e-42
18.25860000 31.16070000 460.49200000 -0.06865820 -0.65479797 0.75267899 1.905766e-42
16.76240000 31.98850100 461.05399000 -0.07680870 -0.64582503 0.75961202 1.905766e-42
15.41500000 32.93970100 461.77499000 -0.07812990 -0.64204597 0.76267499 1.905766e-42
13.81360000 33.61479900 462.24399000 -0.08004540 -0.63811100 0.76577300 1.905766e-42
12.32130000 34.48080100 462.75601000 -0.08914040 -0.63268501 0.76926202 1.905766e-42
10.81420000 35.32720200 463.25900000 -0.10137100 -0.63845199 0.76295698 1.905766e-42
9.16788960 35.99779900 463.54199000 -0.13012899 -0.63531399 0.76121098 1.905766e-42
