# .PCD v0.7 - Point Cloud Data file format
# 4 167 0
# 1 58 0
# 59 120 0
# 121 135 0
# 136 167 0
VERSION 0.7
FIELDS x y z normal_x normal_y normal_z curvature
SIZE 4 4 4 4 4 4 4
TYPE F F F F F F F
COUNT 1 1 1 1 1 1 1
WIDTH 167
HEIGHT 1
VIEWPOINT 0 0 0 1 0 0 0
POINTS 167
DATA ascii
45.94530100 18.67989900 448.56601000 -0.22316600 0.63194501 0.74218702 1.905766e-42
44.35329800 18.50009900 447.74500000 -0.36025101 0.69479799 0.62247598 1.905766e-42
42.75610000 17.78830000 447.31799000 -0.41843700 0.74266899 0.52283102 1.905766e-42
43.04710000 16.35580100 448.36801000 -0.31065601 0.78033501 0.54274303 1.905766e-42
43.11060000 15.17790000 449.72800000 -0.13749801 0.82025599 0.55522501 1.905766e-42
41.78210100 14.95730000 450.92200000 -0.03006360 0.93218100 0.36074299 1.905766e-42
40.10279800 14.79380000 451.54901000 0.18785299 0.98180997 0.02758590 1.905766e-42
38.35720100 14.79090000 451.98901000 -0.75150102 0.29580101 0.58970201 1.905766e-42
36.66529800 14.95050000 451.19601000 0.88608903 -0.45833200 0.06912100 1.905766e-42
35.05139900 14.99720000 450.39999000 -0.07675590 0.97728002 -0.19756800 1.905766e-42
33.58890200 14.81890000 449.36600000 0.87559599 -0.47391799 0.09345690 1.905766e-42
32.04499800 14.58730000 448.47000000 0.87083399 -0.47976401 0.10711800 1.905766e-42
30.32099900 14.32520000 448.02399000 0.86817700 -0.48256400 0.11576000 1.905766e-42
28.56920100 13.91260000 447.98999000 0.86699498 -0.48367900 0.11989500 1.905766e-42
26.86759900 13.32580000 447.99100000 -0.65957898 0.61982399 -0.42517599 1.905766e-42
25.21699900 12.73570000 447.58200000 -0.52598798 0.62652099 -0.57515901 1.905766e-42
23.54810000 12.13010000 447.28500000 -0.47481400 0.61805302 -0.62654698 1.905766e-42
21.92170000 11.49260000 447.71899000 -0.04429070 0.64680302 -0.76137000 1.905766e-42
20.31679900 10.70570000 447.93100000 0.41680399 -0.62216002 0.66271502 1.905766e-42
18.79299900 9.97410010 448.54999000 -0.50536299 0.60069001 -0.61949903 1.905766e-42
17.23860000 9.08932020 448.75201000 -0.62083697 0.59853500 -0.50627798 1.905766e-42
15.68680000 8.17720030 448.75601000 -0.71372700 0.59254199 -0.37348101 1.905766e-42
14.25550000 7.32094000 449.43301000 -0.79400200 0.57748002 -0.18993799 1.905766e-42
12.94300000 6.45619010 450.31000000 -0.82982200 0.55698699 -0.03406750 1.905766e-42
11.50290000 5.37864020 450.38101000 -0.83124501 0.55578500 0.01164320 1.905766e-42
10.32810000 4.45646000 451.38501000 -0.83247298 0.54279798 0.11117300 1.905766e-42
8.97111990 3.32307000 451.72299000 -0.82592601 0.54435199 0.14671899 1.905766e-42
7.76509000 2.23166990 452.49399000 -0.81814599 0.54477298 0.18401100 1.905766e-42
6.62974020 1.13264000 453.35599000 0.83759600 -0.29375201 0.46058899 1.905766e-42
5.50562000 -0.05705730 454.10501000 -0.80205399 0.53929001 0.25666201 1.905766e-42
4.60821010 -1.06737010 455.29401000 0.82399201 -0.56659901 0.00164777 1.905766e-42
3.53524990 -2.33622000 455.98599000 0.81507200 -0.57926297 -0.01062660 1.905766e-42
2.66476010 -3.45371010 457.09698000 0.79942399 -0.31329799 0.51260698 1.905766e-42
1.78286000 -4.65773010 458.10300000 0.82121700 -0.28827301 0.49244499 1.905766e-42
0.96541899 -5.92669010 459.08401000 0.86582899 -0.22558500 0.44659901 1.905766e-42
0.11393200 -7.29212000 459.89001000 -0.69342798 0.57172799 0.43850300 1.905766e-42
-0.53834999 -8.43498040 461.11801000 0.12970699 -0.13582300 0.98220599 1.905766e-42
-1.40158000 -9.96967980 461.49200000 0.91735601 -0.17914200 0.35547900 1.905766e-42
-1.90682010 -10.95230000 462.91299000 0.91235000 -0.16610099 0.37420201 1.905766e-42
-2.59225010 -12.38690000 463.75699000 0.91428602 -0.15034001 0.37613800 1.905766e-42
-3.14022990 -13.64290000 464.92401000 0.91328400 -0.14751001 0.37967399 1.905766e-42
-3.91687990 -15.17010000 465.47601000 0.91516000 -0.16683701 0.36694500 1.905766e-42
-4.24363990 -16.12030000 466.96899000 0.91939801 -0.16592400 0.35661799 1.905766e-42
-4.80193000 -17.53800000 467.92700000 0.94302100 -0.11763200 0.31124499 1.905766e-42
-5.17114020 -18.63690000 469.30399000 0.96470600 -0.06213110 0.25589401 1.905766e-42
-5.61649990 -19.85300100 470.55399000 0.98003000 -0.03248480 0.19617701 1.905766e-42
-6.09717990 -21.17000000 471.68301000 0.96380001 -0.08149520 0.25386700 1.905766e-42
-6.54406020 -22.41169900 472.90799000 -0.40854001 -0.86569601 -0.28925100 1.905766e-42
-7.15839000 -23.98280000 473.53500000 -0.53820097 -0.78373700 -0.30999401 1.905766e-42
-7.86837010 -25.48399900 474.23001000 -0.12370600 -0.98799098 -0.09257470 1.905766e-42
-8.03997990 -26.30100100 475.82501000 0.10541600 -0.98363799 0.14609800 1.905766e-42
-8.14019010 -25.62019900 477.48801000 0.54761201 -0.73537201 0.39918700 1.905766e-42
-9.53269960 -25.37850000 478.60300000 -0.76843798 0.48826399 0.41364300 1.905766e-42
-10.90490000 -24.90020000 479.66501000 -0.77230102 0.46195599 0.43606001 1.905766e-42
-10.03380000 -23.54150000 480.46201000 -0.77033597 0.40761799 0.49033701 1.905766e-42
-9.75998020 -22.40940100 481.83401000 -0.76718801 0.32899100 0.55062401 1.905766e-42
-10.14420000 -21.52879900 483.35599000 -0.75066102 0.28207901 0.59744400 1.905766e-42
-10.77400000 -20.72040000 484.83600000 -0.72743398 0.28066400 0.62615299 1.905766e-42
-11.76000000 -20.17900100 486.24100000 -0.70903200 0.28430000 0.64532697 1.905766e-42
-11.99300000 -18.39710000 486.34399000 -0.69834900 0.28532100 0.65643001 1.905766e-42
-12.02490000 -16.68969900 485.77499000 -0.69639200 0.28370199 0.65920597 1.905766e-42
-11.86140000 -15.14890000 484.85901000 -0.69886702 0.27960899 0.65833402 1.905766e-42
-11.55420000 -13.71750000 483.81201000 -0.70259798 0.27469301 0.65643001 1.905766e-42
-11.25530000 -12.27560000 482.77701000 -0.70569801 0.27000099 0.65504903 1.905766e-42
-10.96910000 -10.88760000 481.66699000 -0.70927501 0.26524401 0.65312701 1.905766e-42
-10.42200000 -9.61956980 480.51199000 -0.71288300 0.26016900 0.65123701 1.905766e-42
-10.33080000 -8.10276030 479.54800000 -0.71392602 0.25497499 0.65214801 1.905766e-42
-10.00940000 -6.68533990 478.48599000 -0.71535099 0.24838400 0.65312999 1.905766e-42
-9.69091990 -5.25165990 477.44501000 -0.71583802 0.23968101 0.65584201 1.905766e-42
-8.86538030 -4.08956000 476.34601000 -0.71610600 0.22737800 0.65991801 1.905766e-42
-8.16769030 -2.83357000 475.26199000 0.86746597 -0.48324499 0.11822600 1.905766e-42
-7.82121990 -1.36059000 474.28699000 0.79934603 0.04978220 0.59880602 1.905766e-42
-7.19139000 -0.03507220 473.24399000 0.79754698 0.04895180 0.60126799 1.905766e-42
-6.53710990 1.29023000 472.21701000 0.79846799 0.04947550 0.60000098 1.905766e-42
-6.21664000 2.81940010 471.32300000 0.79749697 0.06039090 0.60029298 1.905766e-42
-5.66424990 4.26696010 470.40701000 0.79358298 0.06509070 0.60496998 1.905766e-42
-4.83218000 5.56976990 469.48499000 -0.63530099 0.60108203 0.48486400 1.905766e-42
-3.74809000 6.69763990 468.59500000 0.74501097 0.00794387 0.66700500 1.905766e-42
-2.87323000 8.04214950 467.77802000 0.69380200 -0.01655020 0.71997601 1.905766e-42
-1.83882000 9.27383040 466.97000000 -0.75691402 0.46882799 0.45528200 1.905766e-42
-1.56082000 10.90730000 466.26700000 0.63110900 -0.00161696 0.77569199 1.905766e-42
-0.51142198 12.17440000 465.53699000 0.87700200 -0.47202301 0.08978800 1.905766e-42
0.40644801 13.54630000 464.81900000 0.87259001 -0.47771901 0.10183500 1.905766e-42
1.53562000 14.72860000 464.06500000 0.87288600 -0.47736099 0.10097400 1.905766e-42
2.62377000 15.96580000 463.34100000 0.87196398 -0.48255399 0.08258540 1.905766e-42
4.12519980 16.77910000 462.77100000 0.87334001 -0.48252100 0.06671860 1.905766e-42
5.25688980 18.00000000 462.08701000 0.87498999 -0.47982401 0.06450260 1.905766e-42
6.58827020 19.08070000 461.53900000 0.87781000 -0.47604400 0.05320750 1.905766e-42
8.05029960 20.00620100 461.04300000 0.88192302 -0.46997300 0.03657140 1.905766e-42
9.58098980 20.85120000 460.61600000 0.88755202 -0.46030799 0.01916160 1.905766e-42
11.20330000 21.55699900 460.28400000 0.16561800 -0.25483900 0.95269501 1.905766e-42
12.62240000 22.61010000 459.94199000 0.14380001 -0.31327501 0.93871200 1.905766e-42
14.31220000 23.21150000 459.79001000 0.19276901 -0.37084800 0.90846699 1.905766e-42
16.00449900 23.81710100 459.69501000 -0.58961302 0.68650597 -0.42551899 1.905766e-42
17.80240100 23.90510000 459.69299000 -0.67044401 0.67649502 -0.30472901 1.905766e-42
19.53400000 24.39650000 459.68701000 -0.68408698 0.68236297 -0.25769299 1.905766e-42
21.16050000 25.16160000 459.78299000 -0.65972400 0.70281100 -0.26612401 1.905766e-42
22.85310000 25.75760100 459.92300000 -0.60751700 0.72863400 -0.31625199 1.905766e-42
24.62350100 25.98290100 460.15799000 -0.60123301 0.74225301 -0.29593799 1.905766e-42
26.33060100 26.42590000 460.51801000 -0.65217400 0.73989999 -0.16497700 1.905766e-42
27.93059900 27.16690100 460.88000000 -0.66060197 0.74552602 -0.08829600 1.905766e-42
29.60549900 26.69360000 461.33899000 -0.62885797 0.76808000 -0.12079200 1.905766e-42
31.23390000 27.18779900 461.92499000 -0.55688000 0.80347902 -0.21049200 1.905766e-42
32.87810100 26.94969900 462.61801000 0.77135497 -0.31411400 -0.55348301 1.905766e-42
34.50650000 27.53890000 463.10901000 -0.60256398 0.79784399 0.01901880 1.905766e-42
36.18629800 27.51400000 463.75500000 -0.55524403 0.82030100 0.13714799 1.905766e-42
37.62200200 26.87039900 464.63000000 -0.60258698 0.50720602 0.61614197 1.905766e-42
38.63750100 25.46600000 465.11600000 -0.59320599 0.37245300 0.71371299 1.905766e-42
39.73669800 24.14950000 465.66199000 -0.58288300 0.32072100 0.74658298 1.905766e-42
40.59019900 22.56580000 465.60199000 -0.58270502 0.32835501 0.74339598 1.905766e-42
42.03990200 21.83530000 466.38000000 0.82051301 -0.49544901 0.28511301 1.905766e-42
43.26520200 21.93000000 467.69501000 0.82051301 -0.49544901 0.28511301 1.905766e-42
44.62279900 21.38430000 468.74301000 0.82051301 -0.49544901 0.28511301 1.905766e-42
45.81539900 20.41720000 469.68301000 0.73478001 0.33279499 -0.59105498 1.905766e-42
46.99720000 20.03790100 470.98599000 0.77534997 0.23679800 -0.58545601 1.905766e-42
48.12459900 19.89310100 472.38199000 0.81520402 0.12582999 -0.56533998 1.905766e-42
49.30839900 20.07539900 473.72601000 0.81580597 0.05259750 -0.57592797 1.905766e-42
50.57280000 19.90309900 474.99500000 0.80714101 -0.00647424 -0.59032398 1.905766e-42
51.73680100 19.31970000 476.23801000 0.79203600 -0.05006960 -0.60841697 1.905766e-42
53.15710100 18.90440000 477.26300000 0.81887901 -0.07071140 -0.56959403 1.905766e-42
54.35810100 18.16379900 478.38000000 0.88690799 -0.08282460 -0.45446101 1.905766e-42
53.38420100 16.69920000 478.76300000 0.85798699 -0.15182200 -0.49072301 1.905766e-42
52.60020100 15.10200000 479.03601000 0.83462900 -0.19292000 -0.51592201 1.905766e-42
52.37920000 13.54220000 479.90701000 0.88730001 -0.18049000 -0.42440701 1.905766e-42
52.47940100 11.96600000 480.76999000 -0.74839699 -0.53981203 -0.38536400 1.905766e-42
52.39609900 10.30240000 481.45200000 0.82051301 -0.49544901 0.28511301 1.905766e-42
52.25960200 8.75568010 482.36301000 0.82051301 -0.49544901 0.28511301 1.905766e-42
52.16490200 7.76297000 483.86099000 0.82051301 -0.49544901 0.28511301 1.905766e-42
51.68569900 6.03210020 483.98199000 -0.63530099 0.60108203 0.48486400 1.905766e-42
51.21780000 4.80436990 485.21201000 0.58103102 -0.18758900 0.79196799 1.905766e-42
50.44260000 3.18016000 485.24399000 0.38812301 -0.23881701 0.89012802 1.905766e-42
49.73049900 1.59029000 484.79099000 -0.63530099 0.60108203 0.48486400 1.905766e-42
49.62110100 -0.20638400 484.79501000 -0.63530099 0.60108203 0.48486400 1.905766e-42
49.61899900 -0.74256200 483.07599000 -0.10563600 -0.54324102 0.83290499 1.905766e-42
51.00659900 -1.45635000 483.97400000 0.72462702 -0.27609101 0.63141799 1.905766e-42
51.34040100 -0.29646000 485.30899000 0.04214680 -0.44711801 0.89348203 1.905766e-42
51.57690000 -1.53084000 484.01999000 0.86110002 -0.17205900 0.47843799 1.905766e-42
52.03540000 -2.73215010 482.76099000 0.50031602 -0.42932901 0.75190502 1.905766e-42
51.86570000 -3.93594000 481.43301000 0.82051301 -0.49544901 0.28511301 1.905766e-42
52.51580000 -5.02669000 480.15799000 0.82051301 -0.49544901 0.28511301 1.905766e-42
52.75529900 -4.96396020 478.37500000 0.80934399 -0.02515050 0.58679599 1.905766e-42
53.81409800 -5.17103000 476.93399000 0.77534300 0.06180270 0.62850899 1.905766e-42
55.13209900 -5.48402980 475.74899000 -0.63530099 0.60108203 0.48486400 1.905766e-42
55.88980100 -4.18100020 474.76501000 0.73151797 0.17151600 0.65989602 1.905766e-42
56.51260000 -2.92384000 473.63699000 0.72966599 0.20731001 0.65162200 1.905766e-42
56.28680000 -1.26246000 472.98199000 0.76099002 0.22197700 0.60960698 1.905766e-42
56.09510000 0.35846400 472.22299000 0.79848802 0.29934999 0.52231002 1.905766e-42
57.49399900 0.20633601 471.10101000 -0.63530099 0.60108203 0.48486400 1.905766e-42
58.55810200 0.60908502 469.70599000 -0.63530099 0.60108203 0.48486400 1.905766e-42
59.19580100 1.46655000 468.25800000 -0.63530099 0.60108203 0.48486400 1.905766e-42
58.73600000 2.72024010 467.05099000 -0.63530099 0.60108203 0.48486400 1.905766e-42
58.45579900 3.92558000 465.74301000 -0.63530099 0.60108203 0.48486400 1.905766e-42
57.40610100 5.02178000 464.77600000 -0.63530099 0.60108203 0.48486400 1.905766e-42
56.85860100 6.12247990 463.46100000 -0.63530099 0.60108203 0.48486400 1.905766e-42
55.74140200 7.11678980 462.45901000 -0.85704398 -0.51448101 -0.02801070 1.905766e-42
54.41299800 8.03339000 461.66199000 -0.63530099 0.60108203 0.48486400 1.905766e-42
53.07350200 8.97957040 460.92001000 0.66755998 0.74452800 0.00638188 1.905766e-42
52.12319900 9.76144980 459.60699000 0.66667598 0.73918802 0.09562510 1.905766e-42
51.42760100 10.50520000 458.12299000 0.61360198 0.76312602 0.20280901 1.905766e-42
51.32070200 11.36830000 456.54700000 0.51568300 0.77838898 0.35802400 1.905766e-42
51.23170100 12.27270000 454.99301000 0.37972501 0.77708298 0.50194699 1.905766e-42
51.61990000 13.60450000 453.84601000 0.26146299 0.72691202 0.63500899 1.905766e-42
52.45159900 14.99720000 453.06601000 0.18993600 0.64389098 0.74116701 1.905766e-42
51.36130100 15.86630000 451.92700000 0.06232030 0.65099198 0.75652200 1.905766e-42
50.03500000 16.59650000 450.95401000 -0.07889220 0.67852098 0.73033202 1.905766e-42
48.46189900 16.78540000 450.10001000 -0.16303800 0.69273800 0.70251900 1.905766e-42
47.03060200 17.38579900 449.18799000 -0.19849500 0.66847098 0.71676099 1.905766e-42
