# .PCD v0.7 - Point Cloud Data file format
# 6 210 2
# 1 24 0
# 25 37 0
# 38 75 0
# 76 104 0
# 105 150 0
# 151 210 0
VERSION 0.7
FIELDS x y z normal_x normal_y normal_z curvature
SIZE 4 4 4 4 4 4 4
TYPE F F F F F F F
COUNT 1 1 1 1 1 1 1
WIDTH 210
HEIGHT 1
VIEWPOINT 0 0 0 1 0 0 0
POINTS 210
DATA ascii
57.63620000 -37.37970000 413.15100000 -0.36547399 -0.57588601 0.73128903 1.905766e-42
58.18619900 -36.17910000 414.37399000 -0.36356699 -0.58861798 0.72204399 1.905766e-42
59.10369900 -35.22449900 415.59299000 -0.36745700 -0.60056299 0.71013999 1.905766e-42
59.91009900 -34.19319900 416.82901000 -0.37159601 -0.61580402 0.69476700 1.905766e-42
60.32289900 -33.06600200 418.17001000 -0.37313300 -0.63507003 0.67635602 1.905766e-42
60.92430100 -31.98240100 419.47501000 -0.37218899 -0.65347999 0.65911901 1.905766e-42
60.67660100 -30.76950100 420.78201000 -0.36355901 -0.67723000 0.63967502 1.905766e-42
61.18700000 -30.12319900 421.71100000 -0.36110100 -0.68912399 0.62826198 1.905766e-42
61.68370100 -28.94430000 422.97699000 -0.35428801 -0.70963699 0.60901201 1.905766e-42
61.83169900 -27.62700100 424.19501000 -0.34290200 -0.73388499 0.58637100 1.905766e-42
61.36830100 -26.80320000 425.72699000 -0.33842000 -0.74333602 0.57699603 1.905766e-42
61.61130100 -25.71010000 427.13599000 -0.34130299 -0.74789798 0.56935102 1.905766e-42
61.37139900 -24.65630000 428.57501000 -0.34481400 -0.75328201 0.56006199 1.905766e-42
61.41109800 -23.57460000 430.01300000 -0.34998500 -0.75969398 0.54806501 1.905766e-42
61.72959900 -22.55839900 431.46500000 -0.35523799 -0.76731598 0.53388399 1.905766e-42
61.67929800 -21.51580000 432.93100000 -0.36105201 -0.77466798 0.51916301 1.905766e-42
61.27809900 -20.47600000 434.34399000 -0.36813301 -0.78088301 0.50467700 1.905766e-42
61.24079900 -19.39069900 435.78000000 -0.37608001 -0.78298402 0.49547899 1.905766e-42
60.60080000 -18.40589900 437.14401000 -0.38491899 -0.78199399 0.49022800 1.905766e-42
60.71390200 -17.51479900 438.70401000 -0.38956001 -0.78354001 0.48405299 1.905766e-42
60.75799900 -16.60500000 440.25699000 -0.39498401 -0.78458500 0.47792599 1.905766e-42
60.39970000 -15.59460000 441.70200000 -0.40268800 -0.78420800 0.47207999 1.905766e-42
59.96600000 -14.58610000 443.12900000 -0.41154099 -0.78357500 0.46544901 1.905766e-42
59.28279900 -13.56890000 444.44699000 -0.41925800 -0.78498900 0.45608601 1.905766e-42
59.90119900 -12.98120000 446.03201000 -0.42698199 -0.79970002 0.42209801 1.905766e-42
60.95909900 -12.88900000 447.48599000 -0.43890399 -0.81063598 0.38759699 1.905766e-42
62.23199800 -12.96130000 448.75601000 -0.45147800 -0.81988299 0.35207900 1.905766e-42
63.82939900 -13.79080000 448.76599000 -0.44497001 -0.82453102 0.34950101 1.905766e-42
65.45249900 -14.56900000 448.75900000 -0.43863299 -0.82852399 0.34806600 1.905766e-42
67.04129800 -15.41470000 448.78201000 -0.43668699 -0.83055902 0.34565300 1.905766e-42
68.67540000 -16.16860000 448.74399000 -0.43957701 -0.83026898 0.34267500 1.905766e-42
70.33750200 -16.85940000 448.72800000 -0.44824001 -0.82659698 0.34032100 1.905766e-42
71.86840100 -17.58709900 449.33401000 -0.46127400 -0.82187098 0.33429700 1.905766e-42
73.33689900 -18.21789900 450.16199000 -0.47554600 -0.81580198 0.32912499 1.905766e-42
74.66169700 -18.57970000 451.32501000 -0.48813799 -0.80982500 0.32543099 1.905766e-42
76.18080100 -19.31360100 451.95300000 -0.50494099 -0.79926598 0.32589701 1.905766e-42
77.69080400 -20.06189900 452.58499000 -0.52219898 -0.78778797 0.32664600 1.905766e-42
79.03179900 -20.53340000 453.68900000 -0.53653002 -0.77646297 0.33051500 1.905766e-42
78.67170000 -19.59870000 455.18500000 -0.52544701 -0.77779299 0.34488100 1.905766e-42
77.68119800 -18.51180100 456.22299000 -0.50298297 -0.78816301 0.35469401 1.905766e-42
76.60369900 -17.47620000 457.22601000 -0.47813499 -0.80115598 0.35991099 1.905766e-42
75.62970000 -16.46649900 458.35400000 -0.45362800 -0.81296903 0.36510599 1.905766e-42
74.66929600 -15.42020000 459.45999000 -0.42945099 -0.82446498 0.36855099 1.905766e-42
73.56279800 -14.42490000 460.47198000 -0.40666801 -0.83611900 0.36813900 1.905766e-42
72.06569700 -13.50610000 460.86499000 -0.39131001 -0.84849799 0.35626900 1.905766e-42
71.55919600 -12.71840000 462.40302000 -0.36904201 -0.85474902 0.36498299 1.905766e-42
70.19480100 -11.86360000 463.20700000 -0.35202000 -0.86715698 0.35230899 1.905766e-42
69.20500200 -11.01190000 464.44601000 -0.32859200 -0.88193601 0.33795801 1.905766e-42
68.07379900 -10.19100000 465.58099000 -0.30938399 -0.89549899 0.31994200 1.905766e-42
66.89060200 -9.34712980 466.64301000 -0.29398301 -0.90757900 0.29979199 1.905766e-42
65.83599900 -8.57668970 467.88101000 -0.27810100 -0.91853797 0.28097501 1.905766e-42
64.52950300 -7.91032980 468.92499000 -0.26927599 -0.92789203 0.25788900 1.905766e-42
63.55690000 -7.20403000 470.26501000 -0.25548899 -0.93689501 0.23864700 1.905766e-42
62.39479800 -6.55798010 471.47800000 -0.24875499 -0.94346303 0.21908700 1.905766e-42
61.47460200 -5.94138000 472.89700000 -0.23941401 -0.94896501 0.20529599 1.905766e-42
60.75619900 -5.29151010 474.41400000 -0.22709900 -0.95438600 0.19383900 1.905766e-42
59.70489900 -4.81957010 475.79700000 -0.22130001 -0.95882499 0.17799100 1.905766e-42
58.66500100 -4.51293990 477.23401000 -0.21471700 -0.96303201 0.16268100 1.905766e-42
57.77999900 -4.04113010 478.72800000 -0.20538101 -0.96729398 0.14886400 1.905766e-42
56.57370000 -3.69961000 480.01999000 -0.20138900 -0.97066700 0.13132900 1.905766e-42
55.12649900 -3.24945000 480.99100000 -0.20152400 -0.97330999 0.10979900 1.905766e-42
53.73239900 -2.85422990 482.05899000 -0.19789000 -0.97617298 0.08902210 1.905766e-42
52.50680200 -2.54007010 483.33899000 -0.18896499 -0.97943401 0.07071420 1.905766e-42
51.20190000 -2.14654990 484.51501000 -0.18154100 -0.98204601 0.05126480 1.905766e-42
49.75400200 -1.85148000 485.54300000 -0.17689100 -0.98375499 0.03057600 1.905766e-42
48.24070000 -1.55281000 486.47000000 -0.17455800 -0.98460001 0.00961748 1.905766e-42
46.83190200 -1.30904000 487.56400000 -0.16898701 -0.98552102 -0.01387960 1.905766e-42
45.78780000 -1.12762000 489.01901000 -0.15496001 -0.98714101 -0.03924400 1.905766e-42
44.27270100 -0.81174201 489.93799000 -0.15258799 -0.98618799 -0.06442090 1.905766e-42
42.51350000 -0.69950700 490.30200000 -0.14963999 -0.98525900 -0.08290440 1.905766e-42
41.09730100 -0.66751802 491.41299000 -0.13303100 -0.98641402 -0.09638750 1.905766e-42
39.53530100 -0.58844900 492.30399000 -0.11671700 -0.98741901 -0.10668300 1.905766e-42
38.14619800 -0.53916800 493.44800000 -0.10274700 -0.98785400 -0.11656200 1.905766e-42
36.62030000 -0.45406401 494.39899000 -0.08989860 -0.98821402 -0.12389700 1.905766e-42
34.82270100 -0.36055401 494.39200000 -0.07787200 -0.98919600 -0.12420400 1.905766e-42
33.06620000 -0.36616901 494.78500000 -0.06901120 -0.98976499 -0.12491000 1.905766e-42
31.98950000 0.03033990 493.39801000 -0.06227000 -0.99116701 -0.11709100 1.905766e-42
31.50770000 0.32216701 491.68900000 -0.05768630 -0.99213499 -0.11109100 1.905766e-42
30.07189900 0.52975100 490.62299000 -0.04932690 -0.99299902 -0.10732700 1.905766e-42
28.64650000 0.74011499 489.54401000 -0.04106640 -0.99369001 -0.10437300 1.905766e-42
27.07329900 1.15383010 488.77301000 -0.02929540 -0.99452800 -0.10027900 1.905766e-42
25.54920000 1.03234000 487.82401000 -0.01218940 -0.99509001 -0.09821940 1.905766e-42
24.00420000 1.10602000 486.90302000 0.00582557 -0.99503398 -0.09936440 1.905766e-42
22.30999900 1.14311000 486.29599000 0.02601660 -0.99450600 -0.10139300 1.905766e-42
20.53580100 1.21305000 486.00000000 0.04933240 -0.99329299 -0.10456900 1.905766e-42
18.93540000 1.14233010 485.17999000 0.07100270 -0.99100101 -0.11347100 1.905766e-42
17.22520100 1.04653000 484.62601000 0.09625290 -0.98758799 -0.12412000 1.905766e-42
15.56370000 0.92744601 483.94400000 0.12102500 -0.98300600 -0.13802800 1.905766e-42
13.78750000 0.78315502 483.69101000 0.15275501 -0.97608602 -0.15466900 1.905766e-42
12.14670000 0.56810302 482.98300000 0.17934500 -0.96862000 -0.17207800 1.905766e-42
10.51740000 0.40569600 482.23499000 0.20294499 -0.96168798 -0.18431000 1.905766e-42
8.85824970 0.22030900 481.56201000 0.22515599 -0.95519698 -0.19210300 1.905766e-42
7.08569000 -0.08233760 481.48199000 0.24913400 -0.94738102 -0.20100200 1.905766e-42
5.50872990 -0.39258200 480.67200000 0.26481101 -0.94356900 -0.19887900 1.905766e-42
3.90290000 -0.73071003 479.93201000 0.27983701 -0.94058198 -0.19234499 1.905766e-42
2.32312010 -1.02630000 479.12100000 0.29376000 -0.93888301 -0.17945600 1.905766e-42
0.58793598 -1.44802000 478.89499000 0.30526999 -0.93701500 -0.16974400 1.905766e-42
-1.05423000 -1.90019000 478.31299000 0.31547701 -0.93709099 -0.14944600 1.905766e-42
-2.59834000 -2.46023990 477.57700000 0.32468200 -0.93774402 -0.12336100 1.905766e-42
-4.32058000 -2.90922000 477.30801000 0.32963601 -0.93859798 -0.10185600 1.905766e-42
-5.90023990 -3.55696010 476.73801000 0.33734000 -0.93833601 -0.07568270 1.905766e-42
-7.57560010 -4.21040010 476.65900000 0.33967400 -0.93904102 -0.05313070 1.905766e-42
-9.14583970 -4.78563020 475.99301000 0.34911901 -0.93676502 -0.02423460 1.905766e-42
-10.79090000 -5.51633980 475.99200000 0.35053900 -0.93654799 0.00045057 1.905766e-42
-12.46680000 -6.17223980 475.96201000 0.35496300 -0.93448699 0.02711750 1.905766e-42
-13.60570000 -6.78354980 474.70999000 0.37121999 -0.92695302 0.05434570 1.905766e-42
-13.87850000 -6.91981980 472.93600000 0.39454800 -0.91633701 0.06824330 1.905766e-42
-14.48970000 -7.25244000 471.27600000 0.41435400 -0.90625101 0.08378670 1.905766e-42
-14.82840000 -7.47404000 469.52200000 0.43092301 -0.89760900 0.09275940 1.905766e-42
-15.03840000 -7.76527980 467.75800000 0.44830501 -0.88831699 0.09957550 1.905766e-42
-15.60820000 -8.07767960 466.07901000 0.46373099 -0.87924403 0.10901500 1.905766e-42
-15.95010000 -8.50247960 464.36401000 0.48061699 -0.86928397 0.11555600 1.905766e-42
-16.09079900 -8.90546040 462.61499000 0.49887201 -0.85854101 0.11846600 1.905766e-42
-16.90679900 -9.46306040 461.11099000 0.51245099 -0.84900802 0.12876301 1.905766e-42
-16.91670000 -9.90507980 459.36600000 0.52676100 -0.83785200 0.14327200 1.905766e-42
-17.56889900 -10.59400000 457.83600000 0.53360802 -0.82839203 0.17037700 1.905766e-42
-17.76829900 -11.10210000 456.12100000 0.54095697 -0.81881499 0.19211400 1.905766e-42
-18.37200000 -11.81210000 454.58099000 0.54856300 -0.80899799 0.21119000 1.905766e-42
-18.98510000 -12.53760000 453.05200000 0.55755401 -0.79811001 0.22837199 1.905766e-42
-19.40320000 -13.31080000 451.48099000 0.56813902 -0.78581500 0.24436000 1.905766e-42
-19.46810000 -14.08870000 449.85901000 0.57974201 -0.77265400 0.25865799 1.905766e-42
-20.12050100 -15.03150000 448.47198000 0.59473699 -0.75485301 0.27656001 1.905766e-42
-20.72590100 -16.01960000 447.09399000 0.59549600 -0.74557900 0.29915801 1.905766e-42
-21.56860000 -16.97170100 445.82001000 0.58668202 -0.74270999 0.32278001 1.905766e-42
-22.26210000 -18.20490100 444.70700000 0.57669300 -0.74133199 0.34329501 1.905766e-42
-22.37050100 -19.05380100 443.12399000 0.57112402 -0.73489201 0.36572000 1.905766e-42
-23.19339900 -20.25470000 442.06500000 0.55990201 -0.73511499 0.38225099 1.905766e-42
-23.61130000 -21.24360100 440.62000000 0.55180699 -0.73105800 0.40132701 1.905766e-42
-24.53850000 -22.37340000 439.57001000 0.54053003 -0.73079300 0.41685700 1.905766e-42
-25.31220100 -23.61680000 438.52301000 0.52993000 -0.72867602 0.43382600 1.905766e-42
-25.52890000 -24.82379900 437.20599000 0.52418602 -0.72056502 0.45388901 1.905766e-42
-26.31790000 -26.12350100 436.24200000 0.51478702 -0.71458799 0.47366399 1.905766e-42
-27.15589900 -27.43059900 435.33200000 0.50543803 -0.70687199 0.49483800 1.905766e-42
-27.44689900 -28.64629900 434.03601000 0.50268400 -0.69323897 0.51645797 1.905766e-42
-28.32580000 -30.03410000 433.29999000 0.49485201 -0.68426800 0.53562897 1.905766e-42
-29.39670000 -31.39920000 432.82101000 0.50242001 -0.66433400 0.55338401 1.905766e-42
-29.66090000 -32.66410100 431.56799000 0.51237297 -0.64409602 0.56799102 1.905766e-42
-29.87859900 -33.90129900 430.27899000 0.51994699 -0.62757498 0.57948601 1.905766e-42
-31.07729900 -35.20949900 429.97601000 0.52564198 -0.61471403 0.58807099 1.905766e-42
-31.99230000 -36.56079900 429.21701000 0.53093201 -0.60264301 0.59576303 1.905766e-42
-32.49800100 -37.97180200 428.22000000 0.53578699 -0.59244001 0.60162097 1.905766e-42
-33.10929900 -39.35810100 427.24799000 0.54014403 -0.58393103 0.60602701 1.905766e-42
-33.31330100 -40.81769900 426.21500000 0.54415601 -0.57731700 0.60876799 1.905766e-42
-33.68669900 -42.21020100 425.13699000 0.54506201 -0.56915802 0.61560202 1.905766e-42
-33.77780200 -43.50930000 423.89499000 0.54470801 -0.56223398 0.62224299 1.905766e-42
-34.82820100 -44.94240200 423.60699000 0.54753298 -0.55729699 0.62420201 1.905766e-42
-35.20660000 -46.42750200 422.66299000 0.54825199 -0.55304903 0.62734097 1.905766e-42
-35.16199900 -47.83050200 421.53601000 0.54764003 -0.55147201 0.62926102 1.905766e-42
-35.12239800 -49.11629900 420.27701000 0.54652500 -0.55317497 0.62873399 1.905766e-42
-35.12570200 -50.50429900 419.13101000 0.54576498 -0.55871803 0.62448001 1.905766e-42
-34.96180000 -51.79219800 417.88400000 0.54391998 -0.56932700 0.61645597 1.905766e-42
-33.65959900 -50.57160200 417.65100000 0.53598303 -0.56662899 0.62582302 1.905766e-42
-32.37749900 -49.32379900 417.84900000 0.52971900 -0.56232101 0.63497400 1.905766e-42
-31.14990000 -48.00750000 417.82800000 0.52327400 -0.55926800 0.64296401 1.905766e-42
-29.74320000 -46.94369900 417.46799000 0.51518399 -0.55800200 0.65055299 1.905766e-42
-28.34250100 -45.95169800 416.92599000 0.50674200 -0.55706501 0.65794498 1.905766e-42
-27.06130000 -44.76219900 417.35501000 0.50262898 -0.55487901 0.66292799 1.905766e-42
-25.53000100 -43.98210100 416.81900000 0.49411201 -0.55398601 0.67003900 1.905766e-42
-24.16430100 -42.81380100 416.92001000 0.48912600 -0.55309302 0.67442101 1.905766e-42
-22.70220000 -41.77190000 416.79099000 0.48313299 -0.55256301 0.67915797 1.905766e-42
-21.29030000 -40.65620000 416.75101000 0.47812700 -0.55289102 0.68242699 1.905766e-42
-19.74300000 -39.90169900 416.22501000 0.47044599 -0.55114001 0.68914902 1.905766e-42
-18.42930000 -38.67869900 416.36099000 0.46248800 -0.55838400 0.68870300 1.905766e-42
-17.10590000 -37.45970200 416.41199000 0.45073199 -0.56731099 0.68920201 1.905766e-42
-15.49540000 -36.79079800 415.96701000 0.43314001 -0.57037097 0.69790101 1.905766e-42
-14.12850000 -35.88190100 415.22800000 0.41414800 -0.57276499 0.70740497 1.905766e-42
-12.79990000 -34.75370000 415.67700000 0.40186101 -0.57942700 0.70906401 1.905766e-42
-11.34220000 -33.75920100 415.32300000 0.38203099 -0.58173400 0.71807897 1.905766e-42
-10.07460000 -32.68809900 416.01999000 0.37143201 -0.58655697 0.71971500 1.905766e-42
-8.51964000 -31.78260000 415.97101000 0.35084799 -0.58736402 0.72932100 1.905766e-42
-6.97381020 -30.86070100 415.99500000 0.33000901 -0.58741802 0.73894203 1.905766e-42
-5.36672020 -30.05040000 416.01999000 0.30722201 -0.58621103 0.74964702 1.905766e-42
-4.29266980 -28.71660000 416.57401000 0.29850101 -0.58690900 0.75261903 1.905766e-42
-2.66738010 -27.94640000 416.50201000 0.27753001 -0.58547503 0.76170599 1.905766e-42
-0.95463300 -27.58869900 416.07901000 0.25510001 -0.58194798 0.77217901 1.905766e-42
0.33103800 -26.44640000 416.60999000 0.24571900 -0.58681202 0.77153999 1.905766e-42
2.05682990 -26.33569900 416.11099000 0.22660100 -0.58192497 0.78103501 1.905766e-42
3.78098990 -25.83180000 415.99500000 0.21180899 -0.58077401 0.78602701 1.905766e-42
5.49209020 -25.27360000 416.01901000 0.19932000 -0.58098102 0.78913403 1.905766e-42
7.18650010 -24.67310000 416.11099000 0.18857101 -0.58236903 0.79075098 1.905766e-42
8.94777970 -24.31480000 416.01300000 0.17657501 -0.57913101 0.79588300 1.905766e-42
10.69350000 -23.87870000 416.05899000 0.15896600 -0.58081400 0.79836398 1.905766e-42
12.47360000 -23.62039900 415.98901000 0.12005900 -0.58736598 0.80036700 1.905766e-42
14.25450000 -23.35920000 415.98901000 0.08178860 -0.59324700 0.80085498 1.905766e-42
16.05229900 -23.28179900 415.94501000 0.04431810 -0.59351897 0.80359900 1.905766e-42
17.84800000 -23.27590000 415.82101000 0.00872463 -0.58988899 0.80743802 1.905766e-42
19.42250100 -23.84760100 415.16199000 -0.01179980 -0.58246201 0.81277198 1.905766e-42
21.20540000 -24.09400000 415.13199000 -0.02978830 -0.59666002 0.80194098 1.905766e-42
22.50670100 -25.09199900 414.39099000 -0.03130320 -0.60129499 0.79841399 1.905766e-42
23.98460000 -25.92569900 413.79001000 -0.03741900 -0.60682201 0.79395700 1.905766e-42
25.63170100 -26.53459900 413.39499000 -0.04808940 -0.61299300 0.78862298 1.905766e-42
27.17790000 -27.27980000 412.85199000 -0.05715550 -0.61599803 0.78567100 1.905766e-42
28.90239900 -27.76020100 412.66400000 -0.07120460 -0.61978102 0.78153801 1.905766e-42
30.57460000 -28.35210000 412.35901000 -0.08722220 -0.62127900 0.77872002 1.905766e-42
31.32090000 -29.52860100 411.21899000 -0.09074940 -0.61481899 0.78342998 1.905766e-42
33.04679900 -29.75620100 411.67700000 -0.11487700 -0.61790198 0.77781802 1.905766e-42
34.70560100 -30.40080100 411.40701000 -0.13105901 -0.62362498 0.77065903 1.905766e-42
36.48170100 -30.47540100 411.69000000 -0.15125901 -0.62989700 0.76180798 1.905766e-42
38.25350200 -30.67090000 411.94000000 -0.16975901 -0.63581198 0.75294399 1.905766e-42
40.00820200 -31.06410000 412.01901000 -0.18588500 -0.64058000 0.74505299 1.905766e-42
41.77949900 -31.27240000 412.26300000 -0.20272800 -0.64466000 0.73709899 1.905766e-42
43.53519800 -31.50180100 412.58600000 -0.21910501 -0.64792800 0.72950900 1.905766e-42
45.16070200 -32.23640100 412.34500000 -0.23178300 -0.64653802 0.72681803 1.905766e-42
46.81300000 -32.94670100 412.27100000 -0.24652100 -0.64361501 0.72456002 1.905766e-42
48.55009800 -33.21559900 412.65900000 -0.26276499 -0.64133900 0.72085899 1.905766e-42
50.07420000 -34.14490100 412.42801000 -0.27857399 -0.63221902 0.72297698 1.905766e-42
51.47300000 -35.22639800 412.09000000 -0.29626101 -0.62064803 0.72596502 1.905766e-42
53.18529900 -35.58229800 412.51599000 -0.31510499 -0.61142802 0.72585398 1.905766e-42
54.78160100 -36.40900000 412.60901000 -0.33527300 -0.59773999 0.72821701 1.905766e-42
56.08240100 -37.60630000 412.27100000 -0.35481599 -0.58097702 0.73250997 1.905766e-42
