# .PCD v0.7 - Point Cloud Data file format
# 4 218 -2
# 1 41 0
# 42 79 0
# 80 126 0
# 127 218 0
VERSION 0.7
FIELDS x y z normal_x normal_y normal_z curvature
SIZE 4 4 4 4 4 4 4
TYPE F F F F F F F
COUNT 1 1 1 1 1 1 1
WIDTH 218
HEIGHT 1
VIEWPOINT 0 0 0 1 0 0 0
POINTS 218
DATA ascii
-68.26870000 3.64283990 464.45901000 0.35601899 0.57692403 -0.73512501 1.905766e-42
-68.92189800 5.04745010 465.37601000 0.36475101 0.58531499 -0.72412902 1.905766e-42
-68.44460300 6.24971010 466.62799000 0.36417300 0.59038401 -0.72029501 1.905766e-42
-67.42600300 7.20146990 467.76599000 0.35986900 0.59145200 -0.72158003 1.905766e-42
-66.62400100 8.20252990 469.02899000 0.35595599 0.59008002 -0.72463799 1.905766e-42
-65.42400400 8.91961000 470.16299000 0.35009199 0.58919197 -0.72820902 1.905766e-42
-64.21369900 9.61069010 471.30200000 0.34364200 0.58988303 -0.73071802 1.905766e-42
-63.11669900 10.40050000 472.49100000 0.33759299 0.58967501 -0.73369902 1.905766e-42
-62.42200100 11.22210000 473.93399000 0.33292899 0.58841699 -0.73683399 1.905766e-42
-60.34420000 12.56560000 475.46500000 0.32251900 0.58675802 -0.74276298 1.905766e-42
-59.57059900 13.58870000 476.72800000 0.31828800 0.58452803 -0.74633801 1.905766e-42
-58.73030100 14.64620000 477.91800000 0.31420001 0.58225501 -0.74983799 1.905766e-42
-57.41719800 15.44860000 478.85199000 0.30810401 0.58195901 -0.75259298 1.905766e-42
-56.49240100 16.45780000 480.02100000 0.30402699 0.58182198 -0.75435501 1.905766e-42
-55.54390000 17.42380000 481.20700000 0.30013299 0.58170098 -0.75600499 1.905766e-42
-54.88579900 18.52249900 482.47198000 0.29822499 0.58072102 -0.75751197 1.905766e-42
-53.83779900 19.56110000 483.50299000 0.29476699 0.58057201 -0.75897902 1.905766e-42
-52.64350100 20.34720000 484.59601000 0.29246801 0.58072501 -0.75975102 1.905766e-42
-51.58929800 21.21279900 485.77100000 0.29056099 0.57989299 -0.76111603 1.905766e-42
-49.96490100 21.54980100 486.46899000 0.28569499 0.58122897 -0.76193899 1.905766e-42
-49.07130100 22.60420000 487.62201000 0.28456199 0.57741499 -0.76525599 1.905766e-42
-47.89410000 23.46240000 488.67899000 0.28207701 0.57352400 -0.76909202 1.905766e-42
-46.66120100 24.27940000 489.70499000 0.27945200 0.56941903 -0.77309000 1.905766e-42
-45.41350200 25.06010100 490.74200000 0.27705300 0.56522399 -0.77702200 1.905766e-42
-44.71429800 26.24589900 491.90100000 0.27750400 0.55779499 -0.78221202 1.905766e-42
-44.34069800 27.61319900 493.01099000 0.27979401 0.54881501 -0.78772902 1.905766e-42
-43.70040100 28.81279900 494.19000000 0.28224000 0.54098499 -0.79225999 1.905766e-42
-43.13819900 30.10840000 495.30600000 0.28208101 0.55001497 -0.78607500 1.905766e-42
-43.00920100 31.56469900 496.35599000 0.27919501 0.55829000 -0.78125697 1.905766e-42
-42.71950100 32.94549900 497.47400000 0.27284801 0.56513602 -0.77857298 1.905766e-42
-42.12990200 34.28179900 498.52600000 0.26379299 0.56874102 -0.77906799 1.905766e-42
-40.98080100 35.27290000 499.49399000 0.25582901 0.56436598 -0.78488398 1.905766e-42
-39.51720000 35.90950000 500.32599000 0.25068900 0.55256897 -0.79487300 1.905766e-42
-38.41809800 36.85300100 501.39499000 0.23592199 0.55687702 -0.79638499 1.905766e-42
-37.42250100 37.95159900 502.41501000 0.21631999 0.56645203 -0.79519701 1.905766e-42
-36.34320100 38.97800100 503.42599000 0.20086600 0.57248801 -0.79492801 1.905766e-42
-36.14130000 40.33739900 504.58899000 0.17317200 0.59874099 -0.78199798 1.905766e-42
-36.44910000 41.63430000 505.79800000 0.13379900 0.63555801 -0.76037103 1.905766e-42
-37.69189800 41.80720100 507.08899000 0.08904810 0.67701101 -0.73056602 1.905766e-42
-38.21580100 42.95220200 508.37500000 -0.03536270 0.95185697 -0.30449501 1.905766e-42
-38.06610100 43.98970000 509.83801000 -0.06131440 0.99118602 -0.11743000 1.905766e-42
-37.29370100 44.88150000 511.19800000 -0.05683230 0.99821597 -0.01830060 1.905766e-42
-35.52290000 45.13209900 511.40201000 -0.03770890 0.99926698 -0.00659907 1.905766e-42
-34.04660000 44.78419900 512.37097000 -0.02495580 0.99871898 0.04401060 1.905766e-42
-32.27450200 44.58160000 512.12903000 -0.00190872 0.99983698 0.01797030 1.905766e-42
-30.83060100 44.36130100 513.18103000 0.00643035 0.99789101 0.06459020 1.905766e-42
-29.26680000 44.01499900 514.00201000 0.01755700 0.99585903 0.08919720 1.905766e-42
-27.57740000 43.66000000 514.51202000 0.03491110 0.99523902 0.09100130 1.905766e-42
-25.92050000 43.40710100 515.16803000 0.05125380 0.99423099 0.09422560 1.905766e-42
-24.13100100 43.21400100 515.19098000 0.08757580 0.99458200 0.05601450 1.905766e-42
-22.33460000 43.11150000 515.14301000 0.13687900 0.99058700 -0.00119204 1.905766e-42
-20.56629900 43.43349800 515.04700000 0.19410101 0.97839200 -0.07123060 1.905766e-42
-18.80340000 43.75370000 515.21899000 0.21477100 0.96854299 -0.12568900 1.905766e-42
-17.33440000 43.73389800 516.25897000 0.17941500 0.97810900 -0.10541900 1.905766e-42
-16.32020000 43.55699900 517.73499000 0.13107200 0.99010801 -0.05005430 1.905766e-42
-15.29260000 43.33219900 519.19598000 0.08861420 0.99601799 -0.00983043 1.905766e-42
-13.55260000 42.92520100 519.41199000 0.08261010 0.99530298 -0.05047990 1.905766e-42
-11.90010000 42.53110100 520.00702000 0.06374290 0.99556500 -0.06918360 1.905766e-42
-10.10270000 42.44210100 520.04102000 0.05653170 0.99165702 -0.11585000 1.905766e-42
-8.45781040 42.62640000 520.74799000 0.02949370 0.99221301 -0.12100900 1.905766e-42
-6.70726010 42.90810000 521.05798000 0.00954754 0.98930299 -0.14556500 1.905766e-42
-4.98237990 42.84009900 521.56799000 -0.01531230 0.98687899 -0.16073599 1.905766e-42
-3.23981000 42.39170100 521.61700000 -0.03008080 0.97946501 -0.19935700 1.905766e-42
-1.46868000 42.09740100 521.74500000 -0.04848080 0.97119099 -0.23332000 1.905766e-42
0.18283799 42.38270200 522.40198000 -0.06924030 0.97079498 -0.22970000 1.905766e-42
1.67808000 42.80519900 523.31097000 -0.09361810 0.97242302 -0.21360800 1.905766e-42
3.37607000 43.19440100 523.76398000 -0.11046400 0.96797901 -0.22542000 1.905766e-42
5.05601980 43.80600000 523.97302000 -0.12431000 0.96095401 -0.24721199 1.905766e-42
6.84572980 43.93240000 524.11798000 -0.13459399 0.95053798 -0.27993199 1.905766e-42
8.48336030 44.21400100 524.81000000 -0.15869200 0.94476998 -0.28674999 1.905766e-42
10.23480000 44.62830000 524.83698000 -0.16899499 0.93043298 -0.32517099 1.905766e-42
11.83790000 44.87710200 525.61700000 -0.19732501 0.92273098 -0.33110601 1.905766e-42
13.49910000 45.51380200 525.89099000 -0.21787900 0.90794998 -0.35798699 1.905766e-42
15.03390000 46.26890200 526.45099000 -0.24912401 0.89537901 -0.36909699 1.905766e-42
16.38320000 47.23709900 527.14600000 -0.28817400 0.88384598 -0.36847100 1.905766e-42
18.06839900 47.85469800 527.00897000 -0.29589599 0.85978502 -0.41619200 1.905766e-42
19.80590100 47.68080100 526.57300000 -0.25560400 0.83014297 -0.49550900 1.905766e-42
21.40830000 48.24039800 527.17200000 -0.26121199 0.81499898 -0.51724702 1.905766e-42
22.82990100 49.34429900 527.15900000 -0.25953901 0.79070097 -0.55446500 1.905766e-42
24.50000000 50.00260200 527.02600000 -0.24060400 0.75019997 -0.61588198 1.905766e-42
25.81340000 49.49929800 525.90198000 -0.15341800 0.68504101 -0.71216702 1.905766e-42
27.02339900 48.66040000 524.86700000 -0.06530740 0.61051702 -0.78930598 1.905766e-42
28.62280100 47.88470100 524.58398000 -0.00164853 0.53793699 -0.84298402 1.905766e-42
30.01490000 46.79610100 524.24103000 0.05510750 0.47060201 -0.88062298 1.905766e-42
31.52039900 45.82659900 524.05902000 0.09273690 0.41756400 -0.90390301 1.905766e-42
32.51680000 44.43000000 523.51398000 0.11835300 0.37252301 -0.92044502 1.905766e-42
34.02690100 43.47010000 523.31897000 0.12757000 0.34658501 -0.92930299 1.905766e-42
35.21040000 42.22280100 522.78699000 0.12589800 0.36471999 -0.92256600 1.905766e-42
36.83240100 41.44300100 522.75403000 0.12217300 0.38262501 -0.91579002 1.905766e-42
38.05950200 40.24210000 522.21399000 0.11467000 0.40942401 -0.90510899 1.905766e-42
39.22050100 38.96699900 521.69800000 0.10662900 0.43604901 -0.89358300 1.905766e-42
40.52080200 37.76279800 521.38300000 0.10034800 0.45868799 -0.88291299 1.905766e-42
41.54430000 36.43560000 520.72699000 0.09704070 0.48410800 -0.86961102 1.905766e-42
43.12289800 35.63740200 520.39398000 0.09335140 0.49719000 -0.86260498 1.905766e-42
44.79510100 34.97890100 520.29199000 0.09030500 0.49850899 -0.86216801 1.905766e-42
45.89139900 33.73799900 519.58698000 0.09129920 0.50184500 -0.86012501 1.905766e-42
47.25750000 32.66059900 519.12500000 0.09033870 0.50346500 -0.85927999 1.905766e-42
48.80820100 31.77269900 518.90900000 0.08762440 0.50368202 -0.85943401 1.905766e-42
50.26310000 30.84910000 518.38898000 0.08529180 0.50500101 -0.85889399 1.905766e-42
51.82749900 29.96040000 518.33698000 0.08143800 0.50526500 -0.85911298 1.905766e-42
52.46950100 28.62229900 517.31799000 0.08236360 0.51022398 -0.85608900 1.905766e-42
53.38819900 27.24220100 516.61700000 0.08126100 0.51722401 -0.85198301 1.905766e-42
54.59669900 26.01470000 516.09497000 0.07855730 0.52269202 -0.84889400 1.905766e-42
55.74729900 24.82620000 515.38501000 0.07628810 0.52817100 -0.84570402 1.905766e-42
56.74570100 23.54369900 514.61200000 0.07500700 0.53398502 -0.84215999 1.905766e-42
57.67570100 22.25079900 513.77301000 0.07435020 0.53964901 -0.83860099 1.905766e-42
59.16790000 21.33670000 513.35199000 0.07012390 0.54137599 -0.83785099 1.905766e-42
60.23040000 20.02960000 512.71698000 0.06889220 0.54546899 -0.83529502 1.905766e-42
61.67710100 19.06200000 512.25800000 0.06498090 0.54720098 -0.83447498 1.905766e-42
63.28870000 18.28630100 512.05603000 0.05896060 0.54744500 -0.83476198 1.905766e-42
64.50330400 17.32060100 511.14401000 0.05554530 0.55099100 -0.83266002 1.905766e-42
65.44760100 16.02190000 510.32999000 0.05312140 0.55589098 -0.82955599 1.905766e-42
66.90630300 15.11260000 509.79599000 0.04667260 0.55867201 -0.82807499 1.905766e-42
68.24140200 14.08770000 509.15799000 0.04046080 0.56206298 -0.82610399 1.905766e-42
69.83920300 13.34110000 508.79800000 0.03250410 0.56236303 -0.82625198 1.905766e-42
71.40190100 12.50730000 508.47800000 0.02456240 0.56287402 -0.82617801 1.905766e-42
72.61180100 11.46020000 507.65302000 0.01824300 0.56374598 -0.82574701 1.905766e-42
73.99700200 10.55210000 506.94901000 0.01043720 0.56440502 -0.82543200 1.905766e-42
75.48510000 9.72389980 506.36600000 0.00146916 0.56511199 -0.82501298 1.905766e-42
76.85220300 8.61505990 505.98901000 -0.00757418 0.56592202 -0.82442403 1.905766e-42
77.91929600 7.48459010 505.08200000 -0.01606490 0.56694001 -0.82360202 1.905766e-42
79.11150400 6.50140000 504.15900000 -0.02624050 0.57143801 -0.82022601 1.905766e-42
80.30570200 5.43660020 503.33401000 -0.03591320 0.57421798 -0.81791401 1.905766e-42
81.88710000 4.75389000 502.81201000 -0.04705870 0.57405400 -0.81746399 1.905766e-42
83.23420000 3.83125000 502.05399000 -0.05423880 0.56922102 -0.82039303 1.905766e-42
84.56849700 2.94368000 501.23401000 -0.05616590 0.55543101 -0.82966399 1.905766e-42
84.25029800 1.36839000 500.42401000 -0.03991920 0.54800999 -0.83551902 1.905766e-42
82.60759700 0.78977603 499.96899000 -0.02821270 0.55808699 -0.82930303 1.905766e-42
80.83329800 0.50050801 499.87900000 -0.01763410 0.56630999 -0.82400399 1.905766e-42
79.15869900 -0.09103830 499.58600000 -0.00465153 0.57154399 -0.82055801 1.905766e-42
77.56440000 -0.78946799 499.12799000 0.00929547 0.57312500 -0.81941497 1.905766e-42
75.77829700 -0.88881099 498.92801000 0.02272770 0.57768703 -0.81594199 1.905766e-42
73.98650400 -0.93720400 498.76300000 0.03726540 0.58231300 -0.81211001 1.905766e-42
72.30979900 -1.42297010 498.32401000 0.05412810 0.58071899 -0.81230301 1.905766e-42
70.56490300 -1.68587010 497.96899000 0.07196280 0.58021599 -0.81127799 1.905766e-42
68.85279800 -2.07831000 497.57599000 0.09112160 0.57674098 -0.81182897 1.905766e-42
67.08170300 -1.75875000 497.54199000 0.11046900 0.58282900 -0.80505103 1.905766e-42
65.29119900 -1.70927000 497.36401000 0.13265900 0.58467197 -0.80035001 1.905766e-42
63.64540100 -2.11761000 496.76001000 0.14825900 0.57540101 -0.80432200 1.905766e-42
61.86710000 -1.84340000 496.70999000 0.14596701 0.58420599 -0.79837197 1.905766e-42
60.09109900 -1.77782000 496.42401000 0.14476401 0.58744001 -0.79621500 1.905766e-42
58.39230000 -2.11237000 495.93201000 0.14534301 0.58052301 -0.80116701 1.905766e-42
56.66000000 -1.62451000 495.89700000 0.14263500 0.59417599 -0.79158700 1.905766e-42
55.13900000 -2.28555990 495.19800000 0.14476199 0.57704097 -0.80378300 1.905766e-42
53.38800000 -1.87783000 495.10901000 0.14277899 0.58784997 -0.79627001 1.905766e-42
51.60509900 -1.70443000 494.93201000 0.14171401 0.59324199 -0.79245299 1.905766e-42
49.95180100 -2.14149000 494.37000000 0.14283000 0.58114499 -0.80116802 1.905766e-42
48.23280000 -1.61679010 494.27200000 0.14132801 0.59298801 -0.79271197 1.905766e-42
46.49440000 -1.83163000 493.85699000 0.14180000 0.58634001 -0.79755700 1.905766e-42
44.79940000 -2.35151000 493.54599000 0.14336300 0.57598001 -0.80479503 1.905766e-42
43.17170000 -1.61935000 493.31299000 0.14307299 0.58827198 -0.79590601 1.905766e-42
41.40530000 -1.69265000 492.97400000 0.14410099 0.58628798 -0.79718399 1.905766e-42
39.62870000 -1.64009000 492.69000000 0.14464900 0.58759999 -0.79611701 1.905766e-42
37.87239800 -1.77435000 492.31900000 0.14560901 0.58577901 -0.79728401 1.905766e-42
36.27850000 -2.28397010 491.65601000 0.14814800 0.57713002 -0.80310202 1.905766e-42
35.10889800 -3.27677010 490.71500000 0.15342499 0.56259602 -0.81237102 1.905766e-42
33.88959900 -4.29509020 489.86801000 0.15972500 0.55282301 -0.81784701 1.905766e-42
32.63439900 -5.27180000 489.02499000 0.16705200 0.54720801 -0.82015699 1.905766e-42
31.12000100 -5.98101000 488.35901000 0.17358100 0.54832500 -0.81805199 1.905766e-42
29.58589900 -6.66252990 487.70999000 0.18072200 0.55212098 -0.81394202 1.905766e-42
28.12949900 -7.51526020 487.08401000 0.18971100 0.55698800 -0.80856299 1.905766e-42
26.51540000 -7.90572020 486.38901000 0.19380300 0.56582302 -0.80142701 1.905766e-42
25.20750000 -6.67118980 486.31500000 0.18514700 0.57748002 -0.79513401 1.905766e-42
23.47860000 -6.82535980 485.83899000 0.18610699 0.58542699 -0.78907502 1.905766e-42
21.90990100 -7.36322020 485.13901000 0.18907700 0.59028798 -0.78473598 1.905766e-42
20.26079900 -7.72676990 484.51599000 0.19006500 0.59487301 -0.78102601 1.905766e-42
18.55660100 -7.82504990 483.94501000 0.18944600 0.59877098 -0.77819300 1.905766e-42
16.84840000 -7.27191020 483.81799000 0.18720900 0.60300499 -0.77546000 1.905766e-42
15.18750000 -7.57499980 483.19400000 0.18708000 0.60298800 -0.77550399 1.905766e-42
13.42340000 -7.22417020 483.12399000 0.18667400 0.60389602 -0.77489501 1.905766e-42
11.86470000 -7.69912000 482.35901000 0.18585099 0.59953099 -0.77847397 1.905766e-42
10.13530000 -7.26102020 482.11899000 0.18675800 0.59727103 -0.77999300 1.905766e-42
8.42346950 -7.38117980 481.57599000 0.18657400 0.59050399 -0.78517199 1.905766e-42
6.66774990 -7.24196000 481.20499000 0.19095600 0.58415198 -0.78886199 1.905766e-42
4.92239000 -7.36963990 480.78299000 0.19547801 0.57700098 -0.79300600 1.905766e-42
3.20862010 -6.81935980 480.76999000 0.20144901 0.57666200 -0.79175699 1.905766e-42
1.46567000 -6.37197020 480.72501000 0.20635000 0.57696700 -0.79027098 1.905766e-42
-0.26581499 -6.53606990 480.26199000 0.21018501 0.57208300 -0.79280698 1.905766e-42
-1.48947000 -7.70050000 479.64001000 0.21271400 0.56015700 -0.80061001 1.905766e-42
-2.77491000 -8.86995030 479.17099000 0.21621400 0.54928702 -0.80717701 1.905766e-42
-4.42485000 -8.64822010 478.48599000 0.22143599 0.54807001 -0.80658901 1.905766e-42
-6.04157020 -8.01463030 478.01199000 0.22559400 0.55176598 -0.80290800 1.905766e-42
-7.71594000 -7.55030010 477.54199000 0.22940101 0.55521798 -0.79944199 1.905766e-42
-9.41425040 -7.20821000 477.05399000 0.23299700 0.55859298 -0.79604399 1.905766e-42
-11.17030000 -6.93718000 476.76501000 0.23602700 0.56305403 -0.79199803 1.905766e-42
-12.87170000 -6.35232020 476.70901000 0.23737900 0.56975299 -0.78678602 1.905766e-42
-14.63870000 -6.43550010 476.37601000 0.24107000 0.57122099 -0.78459603 1.905766e-42
-16.32690000 -5.96659990 475.96399000 0.24435601 0.57406700 -0.78149700 1.905766e-42
-18.04940000 -5.45644000 475.85001000 0.24787600 0.57706201 -0.77817500 1.905766e-42
-19.73420000 -4.82495020 475.79800000 0.25173500 0.58002698 -0.77472401 1.905766e-42
-21.39909900 -4.91859010 475.12100000 0.25663099 0.57815999 -0.77451301 1.905766e-42
-23.14020000 -4.57180980 474.82300000 0.26143301 0.57872301 -0.77248502 1.905766e-42
-24.82749900 -3.97066000 474.64600000 0.26613599 0.58053601 -0.76951301 1.905766e-42
-26.55349900 -3.83425000 474.15302000 0.27132499 0.57959902 -0.76840597 1.905766e-42
-28.26250100 -3.30330990 473.95999000 0.27615601 0.58149999 -0.76524198 1.905766e-42
-29.96600000 -3.17851000 473.39301000 0.28143400 0.58044398 -0.76412100 1.905766e-42
-31.66420000 -2.60748000 473.21899000 0.27937201 0.58373398 -0.76236898 1.905766e-42
-33.39650000 -2.39521000 472.77802000 0.27564001 0.58449298 -0.76314503 1.905766e-42
-35.11710000 -1.89611010 472.60400000 0.27135700 0.58874899 -0.76140600 1.905766e-42
-36.80820100 -1.99640000 471.99600000 0.26757899 0.58699000 -0.76409698 1.905766e-42
-38.43479900 -1.22595000 471.97198000 0.26261199 0.59458202 -0.75993901 1.905766e-42
-40.10979800 -0.57859498 471.84799000 0.25741199 0.60144699 -0.75630701 1.905766e-42
-41.85780000 -0.47996300 471.42999000 0.25271800 0.60214698 -0.75733203 1.905766e-42
-43.60480100 -0.13061599 471.17300000 0.24752000 0.60577601 -0.75615400 1.905766e-42
-45.29029800 0.49830699 471.11401000 0.24214700 0.61305797 -0.75201398 1.905766e-42
-47.04309800 0.82481599 470.86700000 0.23704600 0.61597502 -0.75125498 1.905766e-42
-48.80120100 1.04704000 470.55099000 0.23364300 0.61575699 -0.75249898 1.905766e-42
-50.48030100 1.67200010 470.37799000 0.24729399 0.61742097 -0.74675101 1.905766e-42
-52.15169900 2.34006000 470.37500000 0.26004601 0.61738002 -0.74244100 1.905766e-42
-53.79570000 3.07256010 470.34900000 0.27257499 0.61597198 -0.73910803 1.905766e-42
-55.50630200 3.22349000 469.80899000 0.28576300 0.61488599 -0.73502100 1.905766e-42
-57.22689800 3.62540010 469.46500000 0.29807201 0.61246002 -0.73215199 1.905766e-42
-58.95180100 4.03447010 469.15302000 0.30976599 0.60937798 -0.72986603 1.905766e-42
-60.67269900 4.35466000 468.73401000 0.32080701 0.60614401 -0.72778600 1.905766e-42
-62.33200100 4.45612000 468.04401000 0.33070001 0.60319901 -0.72580200 1.905766e-42
-63.65300000 3.87687990 466.96701000 0.33684099 0.60069102 -0.72505701 1.905766e-42
-65.22540300 3.79863000 466.09399000 0.34441200 0.59511203 -0.72610003 1.905766e-42
-66.60720100 3.29353000 465.05701000 0.34851101 0.58499998 -0.73233598 1.905766e-42
