# .PCD v0.7 - Point Cloud Data file format
# 3 57 1
# 1 15 1
# 16 25 0
# 26 57 1
VERSION 0.7
FIELDS x y z normal_x normal_y normal_z curvature
SIZE 4 4 4 4 4 4 4
TYPE F F F F F F F
COUNT 1 1 1 1 1 1 1
WIDTH 57
HEIGHT 1
VIEWPOINT 0 0 0 1 0 0 0
POINTS 57
DATA ascii
30.39430000 25.74449900 467.49799000 0.91522002 -0.17100400 0.36487001 1.905766e-42
30.24910000 23.97820100 467.18301000 0.85101801 -0.35670799 0.38539299 1.905766e-42
29.52109900 23.21130000 467.77100000 0.76475298 -0.50804299 0.39628899 1.905766e-42
28.83700000 21.78070100 466.91901000 0.64077097 -0.65149599 0.40615901 1.905766e-42
27.69860100 20.56230000 466.24100000 0.56420797 -0.72629303 0.39264199 1.905766e-42
26.50250100 19.45620000 465.47501000 0.51713902 -0.76496398 0.38392401 1.905766e-42
27.96229900 19.23860000 464.44501000 0.56942898 -0.75055498 0.33528599 1.905766e-42
28.62850000 19.59690100 462.81201000 0.61412799 -0.73837000 0.27866799 1.905766e-42
28.80200000 19.05279900 461.10501000 0.60958898 -0.75411701 0.24435300 1.905766e-42
28.64860000 18.41460000 459.42899000 0.61267400 -0.76329201 0.20498000 1.905766e-42
28.52990000 18.02640000 457.67499000 0.63764697 -0.75835699 0.13528299 1.905766e-42
28.10640000 17.34790000 456.06299000 0.65253699 -0.75533003 0.06058810 1.905766e-42
27.66580000 16.88740000 454.37900000 0.64688998 -0.76254499 -0.00762975 1.905766e-42
27.08900100 16.50470000 452.71799000 0.61966503 -0.78305697 -0.05327000 1.905766e-42
26.30880000 15.99110000 451.17899000 0.59685701 -0.79666102 -0.09535780 1.905766e-42
25.51059900 15.74510000 449.58499000 0.55183202 -0.82692403 -0.10806600 1.905766e-42
24.31660100 15.02430000 448.44699000 0.54309899 -0.82333100 -0.16483399 1.905766e-42
23.14450100 14.55060000 447.16501000 0.49490499 -0.84588599 -0.19886100 1.905766e-42
21.83169900 14.25290000 445.97000000 0.42690599 -0.87819302 -0.21570399 1.905766e-42
20.55110000 14.13480000 444.71100000 0.34686899 -0.91228098 -0.21777500 1.905766e-42
18.95719900 13.58650000 444.07901000 0.28570899 -0.92778301 -0.23997700 1.905766e-42
17.40880000 13.49000000 443.16699000 0.25130799 -0.93184400 -0.26174700 1.905766e-42
15.70130000 12.97650000 442.92001000 0.21866800 -0.93270600 -0.28678200 1.905766e-42
13.96970000 12.75130000 442.48300000 0.18273599 -0.92186898 -0.34170899 1.905766e-42
12.20680000 12.47020000 442.25299000 0.18565300 -0.89117402 -0.41393599 1.905766e-42
10.46470000 12.36790000 441.81201000 0.14337599 -0.85616398 -0.49641499 1.905766e-42
10.74810000 13.35440000 440.33301000 0.05623970 -0.90580100 -0.41995499 1.905766e-42
12.02120000 13.83720000 439.15601000 0.12042100 -0.92327899 -0.36476699 1.905766e-42
13.49840000 14.53280000 438.39801000 0.23607600 -0.81564200 -0.52819997 1.905766e-42
14.35140000 15.82730000 437.48300000 0.27837500 -0.62828100 -0.72647798 1.905766e-42
15.47180000 17.13110000 436.95001000 0.30938900 -0.49717799 -0.81061202 1.905766e-42
15.86780000 18.74650000 436.26099000 0.29592699 -0.48275501 -0.82424200 1.905766e-42
16.70240000 20.22139900 435.65500000 0.31967700 -0.46742699 -0.82420802 1.905766e-42
17.61260000 21.71019900 435.21301000 0.34076899 -0.44509599 -0.82810998 1.905766e-42
19.26350000 21.61340000 435.92401000 0.38837099 -0.43384299 -0.81298703 1.905766e-42
20.90460000 21.60780000 436.66299000 0.44896600 -0.42151600 -0.78788000 1.905766e-42
22.47209900 21.63960100 437.54700000 0.52194703 -0.43178201 -0.73561901 1.905766e-42
23.88820100 22.23130000 438.48801000 0.59063703 -0.41230199 -0.69365299 1.905766e-42
25.27109900 22.11770100 439.63400000 0.65046197 -0.39288899 -0.65002900 1.905766e-42
26.59070000 22.53340000 440.78601000 0.71394801 -0.35081699 -0.60597497 1.905766e-42
27.81090000 23.10820000 441.97800000 0.76761800 -0.31273001 -0.55943000 1.905766e-42
28.88220000 23.31749900 443.40900000 0.80626899 -0.30500200 -0.50685602 1.905766e-42
29.83289900 24.14909900 444.69199000 0.84270400 -0.28649500 -0.45581901 1.905766e-42
30.66980000 24.81860000 446.13800000 0.87452501 -0.27725300 -0.39791599 1.905766e-42
31.46740000 24.90900000 447.74899000 0.90059102 -0.28074801 -0.33183700 1.905766e-42
32.08390000 25.56940100 449.30600000 0.92409003 -0.27336800 -0.26707000 1.905766e-42
32.60839800 25.70000100 451.02301000 0.94369900 -0.26983699 -0.19136401 1.905766e-42
33.00640100 26.44890000 452.60999000 0.95903701 -0.25781801 -0.11738100 1.905766e-42
33.26649900 26.57659900 454.38699000 0.97074902 -0.23681299 -0.03957090 1.905766e-42
33.41159800 27.02610000 456.12399000 0.97991401 -0.19885300 0.01501880 1.905766e-42
33.42179900 27.97650000 457.65201000 0.98315001 -0.16696100 0.07443230 1.905766e-42
33.32429900 27.97660100 459.45001000 0.97933698 -0.14427000 0.14172000 1.905766e-42
33.11880100 28.74930000 461.06201000 0.97183800 -0.12904599 0.19717699 1.905766e-42
32.79140100 29.04660000 462.80701000 0.95957899 -0.12539800 0.25196099 1.905766e-42
32.23749900 29.31440000 464.49899000 0.94121701 -0.12354300 0.31440100 1.905766e-42
31.61010000 28.79590000 466.10400000 0.91912299 -0.11749200 0.37604401 1.905766e-42
31.00499900 27.36829900 467.01801000 0.91250199 -0.11774800 0.39176100 1.905766e-42
