# .PCD v0.7 - Point Cloud Data file format
# 3 100 0
# 1 31 0
# 32 61 0
# 62 100 0
VERSION 0.7
FIELDS x y z normal_x normal_y normal_z curvature
SIZE 4 4 4 4 4 4 4
TYPE F F F F F F F
COUNT 1 1 1 1 1 1 1
WIDTH 100
HEIGHT 1
VIEWPOINT 0 0 0 1 0 0 0
POINTS 100
DATA ascii
8.77106950 0.10008400 412.30801000 0.28938800 0.94288999 -0.16496199 1.905766e-42
7.58018020 0.54949403 411.99899000 0.31747901 0.90972102 -0.26761100 1.905766e-42
7.60463000 0.96879101 413.74899000 0.34209701 0.87195897 -0.35022399 1.905766e-42
7.87778000 1.49639000 415.44800000 0.35534200 0.84935802 -0.39028499 1.905766e-42
8.93406960 1.80830000 416.87201000 0.36366099 0.83647197 -0.40995699 1.905766e-42
9.32509040 2.46649000 418.50101000 0.35433599 0.84060001 -0.40967900 1.905766e-42
9.55169010 3.18652010 420.13501000 0.34522200 0.84959698 -0.39875600 1.905766e-42
10.08160000 3.73744990 421.76501000 0.34065101 0.85905898 -0.38206601 1.905766e-42
9.98173050 4.53222990 423.37701000 0.33546901 0.87074202 -0.35953900 1.905766e-42
10.14450000 5.19616990 425.04199000 0.34001800 0.85868299 -0.38347200 1.905766e-42
9.99736980 5.87070990 426.70401000 0.36391300 0.82001197 -0.44175500 1.905766e-42
10.07200000 6.60511020 428.34601000 0.37993300 0.77214301 -0.50935900 1.905766e-42
10.60540000 7.57231000 429.76700000 0.38596001 0.72124600 -0.57518601 1.905766e-42
11.15760000 8.55836960 431.16800000 0.38205999 0.67870599 -0.62720603 1.905766e-42
11.13010000 9.84379010 432.42801000 0.36841801 0.66384399 -0.65082997 1.905766e-42
10.73140000 11.19850000 433.54401000 0.36160800 0.65106499 -0.66734898 1.905766e-42
10.39200000 12.49900000 434.74100000 0.35488600 0.63783097 -0.68354100 1.905766e-42
10.65120000 13.77980000 435.97900000 0.34823400 0.62039000 -0.70274401 1.905766e-42
10.17580000 15.20390000 436.97198000 0.35127699 0.60440099 -0.71505499 1.905766e-42
9.75837990 16.63769900 437.97699000 0.35627899 0.58996302 -0.72457498 1.905766e-42
9.33769990 18.07840000 438.97101000 0.35811800 0.58620399 -0.72671700 1.905766e-42
9.52017970 19.47290000 440.09399000 0.35308900 0.58913702 -0.72680497 1.905766e-42
8.61198040 20.77129900 440.94800000 0.35202801 0.59171897 -0.72522002 1.905766e-42
8.14437010 22.27090100 441.82700000 0.34914199 0.59057802 -0.72754198 1.905766e-42
8.01088050 23.78500000 442.79099000 0.35109499 0.57889497 -0.73594302 1.905766e-42
7.35918000 25.25230000 443.60501000 0.35340300 0.56603199 -0.74479097 1.905766e-42
6.75209000 26.71890100 444.45401000 0.34848899 0.56082398 -0.75102103 1.905766e-42
6.01423980 28.06979900 445.38699000 0.29792699 0.61400700 -0.73091400 1.905766e-42
6.66311980 29.16610000 446.65900000 0.28719699 0.62394100 -0.72678399 1.905766e-42
7.64544010 30.13120100 447.81799000 0.28683999 0.62141800 -0.72908401 1.905766e-42
8.71613030 31.01240000 448.96600000 0.28878099 0.61059499 -0.73741400 1.905766e-42
9.59788040 31.97250000 450.20700000 0.28668600 0.59741902 -0.74893397 1.905766e-42
11.37130000 31.98040000 450.51501000 0.30558401 0.58086598 -0.75446200 1.905766e-42
13.05450000 31.37820100 450.72501000 0.31787899 0.57196999 -0.75617701 1.905766e-42
14.63960000 30.58340100 451.03500000 0.31843799 0.57028902 -0.75721002 1.905766e-42
16.18330000 29.65780100 451.05499000 0.30085999 0.57705599 -0.75926900 1.905766e-42
17.72200000 28.72730100 451.13599000 0.26643199 0.58418298 -0.76664501 1.905766e-42
19.05330100 27.72570000 450.45499000 0.24510700 0.58202600 -0.77534997 1.905766e-42
20.71489900 27.03520000 450.40900000 0.21946500 0.58176398 -0.78318900 1.905766e-42
22.39730100 26.39520100 450.40100000 0.19616701 0.58055401 -0.79023802 1.905766e-42
23.82290100 25.39150000 449.95401000 0.17932300 0.58003199 -0.79461098 1.905766e-42
25.50300000 24.75490000 449.84500000 0.16088100 0.57876903 -0.79946500 1.905766e-42
27.11890000 23.99609900 449.61401000 0.14594100 0.57651699 -0.80394602 1.905766e-42
28.89749900 23.96470100 449.88901000 0.12666100 0.57151598 -0.81075698 1.905766e-42
30.66760100 23.82869900 450.18600000 0.11086200 0.56822801 -0.81536901 1.905766e-42
32.35640000 23.28360000 449.88501000 0.08716000 0.58120698 -0.80907500 1.905766e-42
34.15300000 23.19910000 449.95700000 0.06350210 0.58701402 -0.80708200 1.905766e-42
35.93550100 23.11200000 450.19101000 0.04008900 0.59063399 -0.80594301 1.905766e-42
37.61539800 22.62039900 449.77100000 0.01756580 0.59912997 -0.80045903 1.905766e-42
39.40610100 22.49169900 449.64001000 -0.00384758 0.60184401 -0.79860401 1.905766e-42
40.92710100 21.73110000 449.04999000 -0.02204190 0.61480600 -0.78837001 1.905766e-42
42.71049900 21.59289900 448.85001000 -0.04249100 0.62120402 -0.78249598 1.905766e-42
44.50809900 21.66920100 448.79599000 -0.06357370 0.62507498 -0.77797198 1.905766e-42
46.29150000 21.91280000 448.78299000 -0.08484200 0.62734002 -0.77411002 1.905766e-42
48.08700200 22.03890000 448.76501000 -0.10693500 0.62974697 -0.76940501 1.905766e-42
49.76409900 21.73780100 448.18500000 -0.13014400 0.63560498 -0.76096499 1.905766e-42
51.54340000 21.96170000 448.02899000 -0.15252200 0.63867402 -0.75421000 1.905766e-42
53.33029900 22.17450000 447.98801000 -0.17377500 0.64385003 -0.74515700 1.905766e-42
54.96509900 21.98889900 447.25800000 -0.19924000 0.65180302 -0.73174900 1.905766e-42
56.73000000 22.22699900 446.99701000 -0.22236501 0.65868700 -0.71880901 1.905766e-42
58.46189900 22.33840000 446.51901000 -0.24147201 0.65873897 -0.71256900 1.905766e-42
60.16120100 22.36459900 445.92599000 -0.25533700 0.65167201 -0.71423203 1.905766e-42
59.83409900 20.97170100 444.83401000 -0.24697401 0.63606000 -0.73104900 1.905766e-42
58.64080000 19.78260000 444.20001000 -0.23574500 0.63094002 -0.73914701 1.905766e-42
57.28139900 18.71010000 443.70801000 -0.22420999 0.62876898 -0.74456698 1.905766e-42
56.34240000 17.39189900 442.92001000 -0.20843901 0.61793202 -0.75809801 1.905766e-42
54.84170200 16.48430100 442.51501000 -0.19499300 0.61847001 -0.76123101 1.905766e-42
53.74560200 15.26310000 441.77499000 -0.16561100 0.59893698 -0.78348398 1.905766e-42
52.16019800 14.45580000 441.50201000 -0.14849401 0.60616899 -0.78135097 1.905766e-42
50.77920200 13.42990000 440.97198000 -0.12923799 0.60509503 -0.78559399 1.905766e-42
49.97900000 12.01560000 440.19800000 -0.10479100 0.59410501 -0.79753298 1.905766e-42
48.68119800 10.95250000 439.54599000 -0.08941150 0.59759003 -0.79680097 1.905766e-42
46.97880200 10.47380000 439.20999000 -0.07966870 0.61461699 -0.78479201 1.905766e-42
46.26079900 8.97060010 438.52802000 -0.05327520 0.61588800 -0.78602999 1.905766e-42
44.87570200 8.18752000 437.68600000 -0.03443040 0.62932402 -0.77638000 1.905766e-42
43.41330000 7.47492980 436.91599000 -0.01781990 0.64474201 -0.76419199 1.905766e-42
41.64250200 7.21626000 436.72198000 -0.01061120 0.66256100 -0.74893302 1.905766e-42
40.55440100 6.14808990 435.76599000 0.00935466 0.67709702 -0.73583502 1.905766e-42
39.04040100 5.44497010 435.09201000 0.02171080 0.69824302 -0.71553200 1.905766e-42
38.08689900 4.23092990 434.16699000 0.03868310 0.72622699 -0.68636602 1.905766e-42
36.75890000 3.49304010 433.20099000 0.04832670 0.76062399 -0.64739102 1.905766e-42
35.20119900 3.06270000 432.40799000 0.04958560 0.79434502 -0.60544002 1.905766e-42
33.82529800 2.48910000 431.39999000 0.06650190 0.83530200 -0.54575402 1.905766e-42
32.24369800 2.20103000 430.59000000 0.08301680 0.86099702 -0.50178897 1.905766e-42
31.19949900 1.56087990 429.27100000 0.09964660 0.88874298 -0.44744501 1.905766e-42
29.74000000 1.30287000 428.24899000 0.12260900 0.89940602 -0.41956601 1.905766e-42
28.19820000 1.14045000 427.33499000 0.14974201 0.90026402 -0.40878201 1.905766e-42
26.93630000 0.71745902 426.12299000 0.15870200 0.89783400 -0.41074100 1.905766e-42
25.23950000 0.77819997 425.52499000 0.17745601 0.89249998 -0.41467300 1.905766e-42
24.32399900 0.23605300 424.07401000 0.18656901 0.88620400 -0.42406899 1.905766e-42
22.88120100 0.04972580 423.01401000 0.20436101 0.87829900 -0.43223500 1.905766e-42
21.73860000 -0.53027499 421.74899000 0.22000700 0.86911398 -0.44298699 1.905766e-42
20.16300000 -0.29696599 420.91101000 0.24750499 0.86336601 -0.43970501 1.905766e-42
18.85880100 -0.48949000 419.68500000 0.26969099 0.85919499 -0.43479899 1.905766e-42
17.55430000 -0.64853102 418.45499000 0.29030699 0.85944498 -0.42080399 1.905766e-42
15.94660000 -0.51026201 417.65799000 0.30624500 0.86357403 -0.40056700 1.905766e-42
14.62520000 -0.58778501 416.43799000 0.31830099 0.87209600 -0.37166300 1.905766e-42
13.12640000 -0.44471300 415.45099000 0.32742101 0.87688601 -0.35194701 1.905766e-42
11.66040000 -0.29370901 414.41800000 0.33267501 0.88302398 -0.33105201 1.905766e-42
10.19630000 -0.10904700 413.38699000 0.33154199 0.89391398 -0.30165800 1.905766e-42
