# .PCD v0.7 - Point Cloud Data file format
# 2 51 0
# 1 27 0
# 28 51 0
VERSION 0.7
FIELDS x y z normal_x normal_y normal_z curvature
SIZE 4 4 4 4 4 4 4
TYPE F F F F F F F
COUNT 1 1 1 1 1 1 1
WIDTH 51
HEIGHT 1
VIEWPOINT 0 0 0 1 0 0 0
POINTS 51
DATA ascii
13.38870000 -29.19930100 450.39700000 0.14671700 0.93472302 -0.32367799 1.905766e-42
12.71030000 -28.54430000 452.17801000 0.11511400 0.93827498 -0.32617199 1.905766e-42
12.40040000 -27.88880000 453.82599000 0.12073000 0.93222100 -0.34115800 1.905766e-42
12.52730000 -27.27199900 455.51199000 0.13603900 0.92314202 -0.35958701 1.905766e-42
12.06120000 -26.58720000 457.10999000 0.15118100 0.91004801 -0.38594899 1.905766e-42
12.35190000 -25.89780000 458.74701000 0.16311100 0.89986002 -0.40453300 1.905766e-42
12.72200000 -25.21649900 460.37201000 0.17365199 0.89040601 -0.42073900 1.905766e-42
12.65500000 -24.42950100 461.98901000 0.18445300 0.87684101 -0.44399101 1.905766e-42
12.63610000 -23.59129900 463.58200000 0.18147700 0.86602700 -0.46590099 1.905766e-42
12.63610000 -22.70340000 465.14801000 0.17843400 0.85557997 -0.48594600 1.905766e-42
12.90710000 -21.85000000 466.70901000 0.17547899 0.84319597 -0.50816202 1.905766e-42
13.52640000 -21.06340000 468.20499000 0.17203701 0.83016902 -0.53030401 1.905766e-42
13.33770000 -20.04810000 469.67999000 0.17427200 0.81473398 -0.55302602 1.905766e-42
12.90260000 -19.11370100 471.15500000 0.16725700 0.80212802 -0.57325101 1.905766e-42
13.62050000 -18.10210000 472.45999000 0.17284600 0.78659499 -0.59278399 1.905766e-42
14.18280000 -17.14760000 473.87799000 0.17368101 0.77082199 -0.61291701 1.905766e-42
14.31640000 -16.03160100 475.28400000 0.16323100 0.75582498 -0.63410097 1.905766e-42
14.31800000 -14.87930000 476.66699000 0.15018800 0.74308097 -0.65213102 1.905766e-42
14.17060000 -13.69950000 478.01801000 0.13834500 0.74294198 -0.65490299 1.905766e-42
15.03470000 -12.67380000 479.21899000 0.13816600 0.74997300 -0.64687800 1.905766e-42
16.80920000 -12.80930000 479.48901000 0.15675800 0.74245000 -0.65130299 1.905766e-42
18.56030100 -12.80120000 479.90601000 0.12992400 0.75332201 -0.64468998 1.905766e-42
20.10720100 -12.65590000 480.81500000 0.06276470 0.77096701 -0.63377398 1.905766e-42
21.87850000 -12.37410000 480.96600000 -0.03051960 0.77903199 -0.62624103 1.905766e-42
23.47890100 -11.91160000 481.64801000 -0.07992210 0.77644402 -0.62509698 1.905766e-42
25.22120100 -11.46020000 481.62900000 -0.04402910 0.75221199 -0.65744901 1.905766e-42
27.00610000 -11.25100000 481.73099000 -0.01473750 0.72315001 -0.69053298 1.905766e-42
28.79210100 -11.39980000 481.56400000 0.00849489 0.69710100 -0.71692199 1.905766e-42
29.47620000 -12.61990000 480.43100000 0.01862590 0.69740498 -0.71643502 1.905766e-42
29.58110000 -13.89670000 479.16599000 0.02280960 0.70798397 -0.70586002 1.905766e-42
29.54700100 -15.14180000 477.86700000 0.03234700 0.72337002 -0.68970299 1.905766e-42
29.63369900 -16.37249900 476.55600000 0.04817340 0.73982298 -0.67107397 1.905766e-42
29.82020000 -17.57420000 475.22900000 0.06234100 0.75670803 -0.65077400 1.905766e-42
30.37910100 -18.75020000 473.98599000 0.09514560 0.77184600 -0.62865102 1.905766e-42
30.30170100 -19.84009900 472.55600000 0.08947270 0.78746402 -0.60983300 1.905766e-42
30.34730000 -20.87280100 471.08200000 0.08858210 0.79864401 -0.59524798 1.905766e-42
30.06539900 -21.94930100 469.66800000 0.08381430 0.80753100 -0.58384001 1.905766e-42
29.24900100 -22.80850000 468.31299000 0.07843160 0.81609797 -0.57256699 1.905766e-42
28.32449900 -23.60960000 466.99200000 0.08013150 0.82467300 -0.55990398 1.905766e-42
27.57060100 -24.48080100 465.60901000 0.09312950 0.83442003 -0.54320300 1.905766e-42
26.66099900 -25.29460000 464.28601000 0.10615400 0.84619200 -0.52219701 1.905766e-42
25.43759900 -25.79210100 463.06299000 0.10629900 0.86225897 -0.49518701 1.905766e-42
24.11870000 -26.22699900 461.91800000 0.11565300 0.87318099 -0.47347501 1.905766e-42
22.82000000 -26.68009900 460.75699000 0.13735799 0.87967998 -0.45529801 1.905766e-42
21.96120100 -27.29620000 459.29999000 0.15534700 0.88672799 -0.43540800 1.905766e-42
20.63030100 -27.60100000 458.12701000 0.17132799 0.89248300 -0.41727901 1.905766e-42
19.75239900 -28.09660000 456.63599000 0.18306901 0.89867699 -0.39858001 1.905766e-42
18.50770000 -28.38800000 455.36899000 0.18986000 0.90659100 -0.37689000 1.905766e-42
17.18960000 -28.60460100 454.16199000 0.19681901 0.91248602 -0.35865301 1.905766e-42
16.04120100 -28.86969900 452.80200000 0.19022200 0.91834599 -0.34706801 1.905766e-42
14.65820000 -28.99420000 451.65701000 0.16837201 0.92737699 -0.33410001 1.905766e-42
