# .PCD v0.7 - Point Cloud Data file format
# 4 155 0
# 1 48 0
# 49 65 0
# 66 122 0
# 123 155 0
VERSION 0.7
FIELDS x y z normal_x normal_y normal_z curvature
SIZE 4 4 4 4 4 4 4
TYPE F F F F F F F
COUNT 1 1 1 1 1 1 1
WIDTH 155
HEIGHT 1
VIEWPOINT 0 0 0 1 0 0 0
POINTS 155
DATA ascii
12.81740000 18.43310000 387.28299000 0.36973801 0.10203300 0.92351699 1.905766e-42
13.51290000 20.03710000 386.85501000 0.37110400 0.11014100 0.92203599 1.905766e-42
14.21640000 21.61310000 386.34399000 0.37347999 0.11999200 0.91984499 1.905766e-42
14.40860000 22.28640000 386.14099000 0.37582099 0.12416200 0.91833699 1.905766e-42
14.90110000 23.92830100 385.59201000 0.38262099 0.13895200 0.91339701 1.905766e-42
15.13420000 25.68490000 385.27600000 0.39190701 0.15670900 0.90656000 1.905766e-42
15.38090000 27.42779900 384.89899000 0.40045100 0.17292801 0.89985299 1.905766e-42
15.24730000 29.21089900 384.69299000 0.40794101 0.18595900 0.89387000 1.905766e-42
15.76700000 30.82460000 384.08801000 0.41414201 0.20018999 0.88792503 1.905766e-42
15.99080000 32.53789900 383.58401000 0.41917801 0.21241300 0.88270599 1.905766e-42
16.09129900 34.27389900 383.11899000 0.42248699 0.22433200 0.87816799 1.905766e-42
16.53920000 35.87179900 382.42099000 0.42686599 0.23995000 0.87190002 1.905766e-42
16.78610000 37.49420200 381.68201000 0.43113601 0.25530800 0.86541301 1.905766e-42
16.80220000 39.24129900 381.24899000 0.43409401 0.27007499 0.85943103 1.905766e-42
16.80209900 40.96480200 380.73001000 0.43665001 0.28457999 0.85343498 1.905766e-42
16.80139900 42.67770000 380.17700000 0.43863899 0.29883000 0.84752399 1.905766e-42
16.81650000 44.37480200 379.57700000 0.44003001 0.31285799 0.84172100 1.905766e-42
16.82679900 46.05820100 378.94000000 0.44052300 0.32625499 0.83635998 1.905766e-42
16.85450000 47.71740000 378.24200000 0.43975499 0.33914801 0.83162099 1.905766e-42
16.72279900 49.39920000 377.61499000 0.43685400 0.35264099 0.82752800 1.905766e-42
16.80629900 50.99739800 376.79099000 0.43373701 0.36574200 0.82347101 1.905766e-42
16.58029900 52.68840000 376.21701000 0.42831200 0.38021499 0.81974697 1.905766e-42
16.43350000 54.33919900 375.51401000 0.42253101 0.39473701 0.81587398 1.905766e-42
16.61170000 55.79589800 374.47198000 0.41668200 0.40759000 0.81255502 1.905766e-42
16.11380000 57.48120100 374.08301000 0.41016099 0.42295000 0.80800998 1.905766e-42
16.04080000 59.06010100 373.22101000 0.40281701 0.43724799 0.80408502 1.905766e-42
15.87040000 60.64989900 372.39499000 0.39489701 0.45249301 0.79956597 1.905766e-42
15.34200000 62.27520000 371.82999000 0.38850600 0.46911201 0.79309303 1.905766e-42
15.30270000 63.76779900 370.82401000 0.37918201 0.48466599 0.78823799 1.905766e-42
14.59660000 65.33229800 370.28201000 0.37483999 0.50194001 0.77945501 1.905766e-42
14.48970000 66.83699800 369.29999000 0.36554900 0.51853901 0.77297598 1.905766e-42
14.31640000 68.29950000 368.26501000 0.35652700 0.53295797 0.76736200 1.905766e-42
13.87120000 69.84120200 367.45001000 0.35166401 0.54640597 0.76011401 1.905766e-42
13.32020000 71.36669900 366.66901000 0.34926099 0.55958098 0.75158900 1.905766e-42
12.95020000 72.83670000 365.69901000 0.34459499 0.57262200 0.74387997 1.905766e-42
12.40370000 74.31269800 364.82501000 0.34325099 0.58553398 0.73439002 1.905766e-42
12.09740000 75.63849600 363.64700000 0.33716801 0.59849101 0.72672302 1.905766e-42
11.52190000 77.07930000 362.73401000 0.33660299 0.61130297 0.71624500 1.905766e-42
10.80070000 78.52960200 361.94901000 0.33949000 0.62279397 0.70489299 1.905766e-42
10.35800000 79.85579700 360.81500000 0.33558300 0.63502699 0.69579101 1.905766e-42
9.53468040 81.27790100 360.08099000 0.34200299 0.64643198 0.68202603 1.905766e-42
8.54362960 82.62120100 359.40799000 0.34939399 0.65780300 0.66724700 1.905766e-42
8.14906020 83.94999700 358.25900000 0.34006900 0.67136699 0.65849698 1.905766e-42
7.71525000 85.17299700 357.01199000 0.33175001 0.68473202 0.64890999 1.905766e-42
6.45207020 86.40350300 356.65100000 0.32939801 0.69605702 0.63796699 1.905766e-42
6.07557010 87.64070100 355.39899000 0.32323700 0.70607901 0.63005501 1.905766e-42
5.44207000 88.85299700 354.22900000 0.31846401 0.71396703 0.62356400 1.905766e-42
4.79878000 90.03550000 353.03400000 0.31394801 0.72067702 0.61811203 1.905766e-42
3.51936010 91.14250200 352.41901000 0.31432101 0.72662199 0.61091900 1.905766e-42
1.99833000 92.03810100 352.06601000 0.31616500 0.73189700 0.60362798 1.905766e-42
0.34636399 92.42299700 352.66901000 0.30750200 0.73700100 0.60189098 1.905766e-42
-1.34218000 93.03610200 352.78299000 0.28838500 0.74326700 0.60364598 1.905766e-42
-3.07351990 93.42040300 353.09100000 0.27076799 0.74593502 0.60849398 1.905766e-42
-4.65986010 94.22100100 352.80301000 0.25860199 0.74859703 0.61051500 1.905766e-42
-6.36490010 94.79730200 352.77802000 0.23456500 0.75045103 0.61790103 1.905766e-42
-8.12030030 95.12130000 353.01001000 0.18950900 0.75291598 0.63024098 1.905766e-42
-9.82483960 95.67160000 352.83200000 0.14906600 0.75618899 0.63714701 1.905766e-42
-11.59890000 95.97530400 352.81400000 0.10757200 0.75620699 0.64542902 1.905766e-42
-13.38120000 96.22679900 352.79599000 0.07107890 0.75370097 0.65336299 1.905766e-42
-15.16720000 96.45050000 352.79300000 0.06980360 0.75017297 0.65754700 1.905766e-42
-16.77599900 96.99089800 352.19299000 0.06722840 0.75092202 0.65696001 1.905766e-42
-18.55730100 97.21830000 352.07001000 0.05932310 0.75277102 0.65560400 1.905766e-42
-20.35220000 97.33429700 352.00000000 0.04818670 0.75841200 0.64999199 1.905766e-42
-22.10310000 97.60640000 351.68301000 0.03923230 0.76779503 0.63949299 1.905766e-42
-23.88310100 97.74939700 351.90900000 0.03805050 0.77404201 0.63199002 1.905766e-42
-25.41480100 98.29280100 351.13501000 0.03509180 0.78128898 0.62318200 1.905766e-42
-26.97920000 97.94570200 351.95499000 0.03846420 0.77914298 0.62566501 1.905766e-42
-28.33709900 97.11820200 352.79901000 0.03441370 0.77288401 0.63361400 1.905766e-42
-29.13340000 96.15029900 354.09100000 0.01958950 0.76358598 0.64540899 1.905766e-42
-29.86890000 95.15640300 355.39899000 0.00141568 0.75305599 0.65795398 1.905766e-42
-30.89270000 94.08159600 356.41699000 -0.02358810 0.74121499 0.67085302 1.905766e-42
-31.79080000 92.90229800 357.43799000 -0.04918410 0.72838199 0.68340302 1.905766e-42
-32.18700000 91.84149900 358.83701000 -0.06583520 0.71595699 0.69503403 1.905766e-42
-32.88830200 90.64779700 359.98801000 -0.08724130 0.70198399 0.70682901 1.905766e-42
-33.90980100 89.49259900 360.91599000 -0.11358000 0.68772298 0.71703303 1.905766e-42
-34.38520100 88.20040100 362.07501000 -0.12593000 0.66917098 0.73236102 1.905766e-42
-35.00939900 86.87789900 363.12500000 -0.14100400 0.64696801 0.74936599 1.905766e-42
-35.86759900 85.54810300 363.98199000 -0.15629300 0.62338102 0.76613897 1.905766e-42
-36.03509900 84.18180100 365.14200000 -0.16879600 0.59982502 0.78212398 1.905766e-42
-36.67179900 82.76730300 366.05499000 -0.18539900 0.57438803 0.79731101 1.905766e-42
-37.05020100 81.28009800 366.99600000 -0.20046300 0.54971802 0.81094003 1.905766e-42
-37.24890100 79.75530200 367.93201000 -0.21413800 0.52645099 0.82279700 1.905766e-42
-37.69940200 78.20369700 368.72501000 -0.22678700 0.51342899 0.82762200 1.905766e-42
-37.70430000 76.70459700 369.72101000 -0.23707700 0.50331402 0.83094501 1.905766e-42
-38.35900100 75.13909900 370.32199000 -0.24604300 0.49115700 0.83560002 1.905766e-42
-38.39210100 73.55439800 371.17499000 -0.25399399 0.48168299 0.83872998 1.905766e-42
-38.29520000 72.05699900 372.16901000 -0.26087701 0.47312701 0.84148300 1.905766e-42
-38.45439900 70.45040100 372.96500000 -0.26685300 0.46389499 0.84474301 1.905766e-42
-38.26820000 68.97650100 373.98099000 -0.27162701 0.45537299 0.84785199 1.905766e-42
-37.98700000 67.47090100 374.92700000 -0.27575999 0.44622499 0.85137498 1.905766e-42
-37.67689900 65.94670100 375.83301000 -0.27928501 0.43730301 0.85484803 1.905766e-42
-37.62379800 64.33809700 376.63901000 -0.28300500 0.42773899 0.85845703 1.905766e-42
-37.48849900 62.69839900 377.36899000 -0.28617200 0.41851899 0.86194402 1.905766e-42
-36.84240000 61.33150100 378.34601000 -0.28586200 0.41140300 0.86546600 1.905766e-42
-36.31620000 59.84260200 379.20999000 -0.28453699 0.40365499 0.86954099 1.905766e-42
-36.12130000 58.23189900 379.98901000 -0.28436100 0.39502001 0.87355500 1.905766e-42
-35.94260000 56.60620100 380.74100000 -0.28390500 0.38637400 0.87756097 1.905766e-42
-35.46229900 55.07840000 381.56299000 -0.27894300 0.37865499 0.88250297 1.905766e-42
-34.55939900 53.78670100 382.43201000 -0.26815200 0.37269199 0.88836598 1.905766e-42
-34.31600200 52.13859900 383.11401000 -0.26695800 0.36411601 0.89227402 1.905766e-42
-34.41870100 50.49919900 383.85001000 -0.26926100 0.35480699 0.89532697 1.905766e-42
-34.97710000 48.84360100 384.28299000 -0.27681199 0.34482500 0.89692301 1.905766e-42
-35.17779900 47.14920000 384.85599000 -0.28095299 0.33489099 0.89939600 1.905766e-42
-35.23640100 45.45990000 385.47501000 -0.28372800 0.32513699 0.90210003 1.905766e-42
-35.31160000 43.74990100 386.03201000 -0.28674999 0.31533900 0.90461898 1.905766e-42
-35.74350000 42.04420100 386.41101000 -0.29558700 0.30504900 0.90530300 1.905766e-42
-35.97169900 40.32790000 386.90302000 -0.29995599 0.29516399 0.90714097 1.905766e-42
-36.02660000 38.61729800 387.46100000 -0.30137300 0.28558800 0.90973300 1.905766e-42
-36.75719800 36.97340000 387.51999000 -0.31108901 0.27615100 0.90937603 1.905766e-42
-36.78670100 35.28410000 388.14099000 -0.31147099 0.26852700 0.91152602 1.905766e-42
-36.84909800 33.57840000 388.71301000 -0.31209201 0.26346201 0.91279000 1.905766e-42
-37.53620100 31.91640100 388.78900000 -0.31830201 0.25859001 0.91203898 1.905766e-42
-37.61949900 30.20660000 389.34500000 -0.31766501 0.25369000 0.91363603 1.905766e-42
-38.08549900 28.49570100 389.65500000 -0.31980601 0.24906901 0.91416001 1.905766e-42
-38.88250000 26.88299900 389.59201000 -0.32436201 0.24540600 0.91354603 1.905766e-42
-39.19760100 25.18160100 390.08801000 -0.32394201 0.24085300 0.91490501 1.905766e-42
-39.79140100 23.49550100 390.29901000 -0.32486901 0.23443100 0.91624302 1.905766e-42
-40.00080100 21.77240000 390.77600000 -0.31905901 0.21746001 0.92244899 1.905766e-42
-40.77579900 20.14900000 390.83701000 -0.31811500 0.20698801 0.92518002 1.905766e-42
-41.58779900 18.54450000 390.91699000 -0.31694499 0.19856600 0.92742503 1.905766e-42
-42.14780000 16.84550100 391.11600000 -0.31328401 0.19009100 0.93044001 1.905766e-42
-42.87730000 15.20100000 391.17801000 -0.31065401 0.18516700 0.93231302 1.905766e-42
-43.15819900 13.44140000 391.43201000 -0.30052301 0.18338400 0.93597901 1.905766e-42
-41.94400000 12.25290000 392.02701000 -0.28545201 0.17897999 0.94153202 1.905766e-42
-40.21110200 12.01340000 392.45099000 -0.27430499 0.15977600 0.94827700 1.905766e-42
-38.60120000 12.63100000 392.96701000 -0.26262301 0.15072501 0.95305401 1.905766e-42
-36.85070000 12.76310000 393.36499000 -0.24172799 0.13994400 0.96019900 1.905766e-42
-35.17770000 13.34020000 393.69400000 -0.21684600 0.13082500 0.96740001 1.905766e-42
-33.47230100 13.81370000 394.02100000 -0.18240499 0.12034300 0.97583097 1.905766e-42
-31.74280000 14.19410000 394.34399000 -0.15084200 0.10955700 0.98246801 1.905766e-42
-29.95870000 14.37750000 394.49600000 -0.12091700 0.09805090 0.98780799 1.905766e-42
-28.16920100 14.20970000 394.39801000 -0.09226770 0.08490320 0.99210799 1.905766e-42
-26.50320100 14.82880000 394.68201000 -0.06725600 0.08101220 0.99444097 1.905766e-42
-24.76140000 15.24370000 394.86700000 -0.03961310 0.07612140 0.99631101 1.905766e-42
-22.96730000 15.19850000 394.72800000 -0.00903792 0.06798830 0.99764502 1.905766e-42
-21.23049900 15.66200000 394.82001000 0.01900420 0.06667940 0.99759299 1.905766e-42
-19.44890000 15.91690000 394.78699000 0.04125020 0.06532330 0.99701101 1.905766e-42
-17.67490000 15.88030000 394.48401000 0.05873490 0.06477260 0.99616998 1.905766e-42
-15.96250000 16.43470000 394.49500000 0.07714710 0.07238600 0.99438900 1.905766e-42
-14.18190000 16.68520000 394.41400000 0.09743960 0.07972990 0.99204302 1.905766e-42
-12.40700000 16.73060000 394.11700000 0.11655100 0.08778350 0.98929799 1.905766e-42
-10.62920000 16.77780000 393.83899000 0.12984601 0.09454310 0.98701602 1.905766e-42
-8.84082030 16.76820000 393.63599000 0.14229099 0.09829430 0.98493201 1.905766e-42
-7.19531010 17.46910100 393.43301000 0.15341800 0.10396000 0.98267800 1.905766e-42
-5.55677990 16.83729900 393.03799000 0.16363201 0.10007700 0.98143202 1.905766e-42
-3.79990010 17.15340000 392.80701000 0.18408100 0.10050100 0.97776002 1.905766e-42
-2.04234000 16.85689900 392.55600000 0.20735800 0.09581440 0.97356200 1.905766e-42
-0.28387001 16.76260000 392.18301000 0.23081701 0.09113010 0.96872002 1.905766e-42
1.43406000 16.77660000 391.64600000 0.25385699 0.08558160 0.96344799 1.905766e-42
3.15093990 16.78430000 391.10501000 0.28171200 0.07889720 0.95625001 1.905766e-42
4.82484010 16.71130000 390.44699000 0.31592599 0.07439460 0.94586301 1.905766e-42
6.50616980 17.06010100 389.90799000 0.35306701 0.07469080 0.93261200 1.905766e-42
8.20456030 17.20780000 389.32999000 0.39464501 0.07554240 0.91572303 1.905766e-42
9.86404040 17.29060000 388.63800000 0.39547101 0.08272430 0.91474497 1.905766e-42
11.52780000 17.37220000 387.95599000 0.37847999 0.09213180 0.92101300 1.905766e-42
