# .PCD v0.7 - Point Cloud Data file format
# 4 117 1
# 1 34 1
# 35 50 1
# 51 82 1
# 83 117 1
VERSION 0.7
FIELDS x y z normal_x normal_y normal_z curvature
SIZE 4 4 4 4 4 4 4
TYPE F F F F F F F
COUNT 1 1 1 1 1 1 1
WIDTH 117
HEIGHT 1
VIEWPOINT 0 0 0 1 0 0 0
POINTS 117
DATA ascii
-3.89561010 23.36160100 430.39301000 -0.70097601 0.70398098 0.11420700 1.905766e-42
-3.98720000 23.18429900 430.38000000 -0.70292997 0.70175099 0.11590800 1.905766e-42
-4.22313020 22.58009900 432.05899000 -0.71482998 0.67970800 0.16436200 1.905766e-42
-4.48962020 21.78830000 433.65302000 -0.72352898 0.65679002 0.21244501 1.905766e-42
-4.13175010 21.63990000 435.41101000 -0.72443902 0.64055097 0.25472000 1.905766e-42
-3.75139000 21.41130100 437.15601000 -0.72368699 0.62473500 0.29322901 1.905766e-42
-3.52272010 20.81100100 438.83701000 -0.72006702 0.61753100 0.31648001 1.905766e-42
-3.25623010 20.14920000 440.48999000 -0.71782303 0.61137301 0.33309799 1.905766e-42
-2.67566990 19.78830000 442.15500000 -0.71291602 0.61056203 0.34491301 1.905766e-42
-2.54043010 19.08009900 443.80399000 -0.71341801 0.60582501 0.35215101 1.905766e-42
-2.33049010 18.42540000 445.46799000 -0.71022999 0.60429603 0.36111000 1.905766e-42
-2.02418990 17.78240000 447.12100000 -0.70579702 0.60183197 0.37369499 1.905766e-42
-2.34399010 16.58849900 448.42899000 -0.71421999 0.58551598 0.38348401 1.905766e-42
-2.89854000 15.18820000 449.41501000 -0.72770202 0.56492901 0.38897899 1.905766e-42
-3.16363000 13.96790000 450.71100000 -0.73373401 0.54973400 0.39928299 1.905766e-42
-3.38261010 12.74840000 452.01700000 -0.73832703 0.53538698 0.41016400 1.905766e-42
-3.63911010 11.41370000 453.19699000 -0.74442798 0.51955497 0.41939199 1.905766e-42
-3.94215010 9.99057010 454.25699000 -0.75222600 0.50135201 0.42755401 1.905766e-42
-4.01130010 8.72354980 455.53400000 -0.75478601 0.48622301 0.44032401 1.905766e-42
-4.10437010 7.38750980 456.73599000 -0.75855201 0.46897900 0.45239100 1.905766e-42
-4.02526000 6.04281000 457.92999000 -0.76063597 0.45332500 0.46468300 1.905766e-42
-3.56109000 5.53519010 459.59399000 -0.75009501 0.45136601 0.48334900 1.905766e-42
-3.33892010 4.44877000 461.01199000 -0.74849898 0.43956399 0.49652100 1.905766e-42
-3.18617010 3.19177010 462.29099000 -0.75064301 0.42432699 0.50643998 1.905766e-42
-3.21369000 1.71788000 463.32401000 -0.75818402 0.40379199 0.51196599 1.905766e-42
-2.70172000 0.81566000 464.79501000 -0.75633103 0.38950899 0.52559102 1.905766e-42
-2.48165010 -0.35270700 466.14600000 -0.75575399 0.36531201 0.54349202 1.905766e-42
-2.08376000 -1.58796000 467.39401000 -0.75656003 0.33821300 0.55966800 1.905766e-42
-1.41052000 -2.44182990 468.82800000 -0.75701302 0.32164001 0.56875199 1.905766e-42
-0.93689102 -3.59309010 470.12799000 -0.77291203 0.29576001 0.56136698 1.905766e-42
-0.46187100 -4.69038010 471.47400000 -0.78496301 0.39734301 0.47534299 1.905766e-42
-0.53393900 -6.18326000 472.47699000 -0.78458202 0.49291199 0.37612301 1.905766e-42
-0.53729302 -7.41793010 473.78601000 -0.77862197 0.55821198 0.28661400 1.905766e-42
-0.77648401 -7.86543990 475.51300000 -0.77228498 0.59784400 0.21484800 1.905766e-42
-0.88010198 -8.39252000 477.23099000 -0.76189703 0.62598699 0.16629300 1.905766e-42
0.13073900 -8.01072030 478.67099000 -0.74838501 0.63959998 0.17559300 1.905766e-42
1.24189000 -6.66119000 479.10001000 -0.74398702 0.63686001 0.20221899 1.905766e-42
2.58172990 -5.67323020 479.78500000 -0.73004103 0.64714998 0.21963000 1.905766e-42
3.81030010 -4.81348990 480.78000000 -0.71128201 0.66548002 0.22630700 1.905766e-42
4.97735980 -3.70919990 481.59201000 -0.68506300 0.68985701 0.23406400 1.905766e-42
6.19145010 -2.55166010 482.24500000 -0.63930702 0.72855902 0.24594600 1.905766e-42
7.45063020 -1.81946000 483.30200000 -0.59091598 0.76764899 0.24806100 1.905766e-42
8.78911970 -0.72311598 483.79901000 -0.52808601 0.81235200 0.24740399 1.905766e-42
10.30470000 0.04826880 484.38901000 -0.46136299 0.85434502 0.23924699 1.905766e-42
11.90970000 0.03185290 485.20300000 -0.33555901 0.90416700 0.26435101 1.905766e-42
13.52920000 0.78514200 485.42700000 -0.17729400 0.94114798 0.28776300 1.905766e-42
15.20010000 0.72371203 486.09299000 -0.02507490 0.94740897 0.31904101 1.905766e-42
16.78960000 0.40205801 486.87399000 0.11603900 0.93066502 0.34698299 1.905766e-42
18.48240100 0.10394900 487.40900000 0.14845601 0.92863202 0.34000599 1.905766e-42
20.16230000 -0.39515001 487.81900000 0.18422800 0.92313600 0.33746001 1.905766e-42
21.85220000 -0.76539803 487.32199000 0.21398000 0.90683901 0.36311999 1.905766e-42
22.30800100 -0.17726600 485.68301000 0.18401299 0.88729799 0.42289701 1.905766e-42
23.09660000 -0.08135610 484.06799000 0.13445100 0.84088099 0.52425402 1.905766e-42
23.73140000 1.09443000 482.86200000 0.05915940 0.77233899 0.63244998 1.905766e-42
24.63559900 2.28038000 481.85400000 0.00453213 0.68845099 0.72526801 1.905766e-42
25.82180000 3.37207010 481.05301000 -0.02231500 0.60711598 0.79429901 1.905766e-42
26.50410100 4.82449010 480.23801000 -0.04794840 0.53225398 0.84522599 1.905766e-42
27.52330000 6.08869980 479.46100000 -0.03732390 0.51856500 0.85422301 1.905766e-42
28.75820000 7.10059020 478.63000000 -0.02127560 0.53665501 0.84353399 1.905766e-42
29.69630100 8.37921050 477.77899000 -0.00618659 0.55636698 0.83091402 1.905766e-42
30.79999900 9.54115960 476.95901000 0.01086640 0.57379699 0.81892502 1.905766e-42
31.62220000 10.93500000 476.17099000 0.02122570 0.59219998 0.80551201 1.905766e-42
32.71149800 11.98220000 475.19299000 0.03423860 0.60485601 0.79559797 1.905766e-42
33.41880000 13.28750000 474.17499000 0.04135700 0.61999398 0.78351599 1.905766e-42
34.07529800 14.56640000 473.09201000 0.04757260 0.63460499 0.77137101 1.905766e-42
34.95970200 15.74640000 472.05899000 0.05739710 0.64664102 0.76063198 1.905766e-42
35.35559800 17.09940000 470.94000000 0.05657250 0.66013098 0.74901700 1.905766e-42
36.37760200 18.11540000 469.86200000 0.06537190 0.66715300 0.74204701 1.905766e-42
37.34310200 19.19870000 468.79700000 0.07174770 0.67485303 0.73445600 1.905766e-42
38.36679800 20.26400000 467.76801000 0.07791180 0.68209499 0.72710103 1.905766e-42
39.13320200 21.44960000 466.65201000 0.07916490 0.69166398 0.71786702 1.905766e-42
40.04510100 22.41570100 465.43701000 0.08152580 0.69759601 0.71183801 1.905766e-42
40.86060000 23.47010000 464.22800000 0.08303540 0.70407802 0.70525098 1.905766e-42
41.54499800 24.68720100 463.09201000 0.08392080 0.71192002 0.69722801 1.905766e-42
42.37870000 25.61770100 461.79599000 0.08899010 0.71886897 0.68942600 1.905766e-42
42.96070100 26.72069900 460.49799000 0.09235400 0.72775102 0.67959499 1.905766e-42
42.84000000 28.07930000 459.32300000 0.08726770 0.74300599 0.66357100 1.905766e-42
43.09960200 29.17470000 457.91901000 0.08787470 0.75918603 0.64491397 1.905766e-42
43.23199800 30.33630000 456.54999000 0.08782880 0.77722102 0.62306798 1.905766e-42
43.59280000 31.40469900 455.14700000 0.09396090 0.79565603 0.59841698 1.905766e-42
43.81409800 32.46320000 453.70801000 0.10436200 0.82442898 0.55625999 1.905766e-42
43.80239900 33.43420000 452.19299000 0.10942300 0.84910899 0.51675999 1.905766e-42
44.66750000 34.07650000 450.75101000 0.12513100 0.86714298 0.48208401 1.905766e-42
43.74750100 34.83729900 449.40399000 0.11808100 0.88187200 0.45646301 1.905766e-42
42.28559900 35.45420100 448.55399000 0.09570920 0.89075398 0.44429401 1.905766e-42
40.63950000 35.96279900 448.03299000 0.06549890 0.89657003 0.43803200 1.905766e-42
38.98960100 36.33729900 447.41800000 0.02773490 0.90264398 0.42949399 1.905766e-42
37.33599900 36.68090100 446.79599000 -0.00719349 0.90833098 0.41819000 1.905766e-42
35.82650000 36.82310100 445.82501000 -0.03390380 0.91448498 0.40319601 1.905766e-42
34.06100100 37.09590100 445.60501000 -0.06125930 0.91431600 0.40034199 1.905766e-42
32.36999900 37.22720000 445.00201000 -0.09278540 0.91631800 0.38955301 1.905766e-42
30.71200000 37.30049900 444.30499000 -0.12351300 0.91831201 0.37609601 1.905766e-42
29.11829900 37.35419800 443.47101000 -0.15269201 0.92058200 0.35946399 1.905766e-42
27.34370000 37.18650100 443.22000000 -0.18390800 0.91716301 0.35353899 1.905766e-42
25.69599900 37.08760100 442.50201000 -0.21211199 0.91608202 0.34029600 1.905766e-42
24.06340000 36.93420000 441.76001000 -0.24112999 0.91330999 0.32820901 1.905766e-42
22.50200100 36.78279900 440.87701000 -0.26978701 0.90997601 0.31489500 1.905766e-42
20.92390100 36.51499900 440.05399000 -0.29975799 0.90450001 0.30335701 1.905766e-42
19.64220000 35.80509900 441.09900000 -0.32314900 0.89084500 0.31932801 1.905766e-42
18.41080100 34.98580200 442.12500000 -0.34457400 0.87572098 0.33820400 1.905766e-42
17.01600100 34.09899900 442.83801000 -0.36850700 0.85917902 0.35498500 1.905766e-42
15.44980000 33.25899900 443.12299000 -0.39535800 0.84249598 0.36591399 1.905766e-42
14.04080000 32.15190100 443.29300000 -0.42327499 0.82225502 0.38044199 1.905766e-42
12.82170000 32.26200100 441.97299000 -0.43970501 0.82762003 0.34886101 1.905766e-42
12.27400000 32.50659900 440.27600000 -0.44724700 0.83903199 0.30983099 1.905766e-42
11.68380000 32.99959900 438.64899000 -0.45497701 0.84681702 0.27549401 1.905766e-42
11.14030000 33.27679800 436.95499000 -0.46474499 0.85074198 0.24545801 1.905766e-42
9.68910030 32.76509900 436.02200000 -0.48935801 0.84182400 0.22772799 1.905766e-42
8.21638970 32.03500000 435.28799000 -0.51463598 0.83068001 0.21241800 1.905766e-42
6.76920990 31.30120100 434.50900000 -0.53696698 0.82010502 0.19772300 1.905766e-42
5.41535000 30.45150000 433.68100000 -0.56164199 0.80754399 0.18008800 1.905766e-42
3.87767000 29.51940000 433.59900000 -0.58736402 0.79069602 0.17263500 1.905766e-42
2.49698000 28.62400100 432.87000000 -0.61428899 0.77495700 0.14862899 1.905766e-42
1.23596000 27.68180100 431.99701000 -0.63690102 0.76082599 0.12450200 1.905766e-42
0.36736199 26.20999900 431.43201000 -0.65380299 0.74809903 0.11353000 1.905766e-42
-1.29890000 25.56100100 431.22601000 -0.66902697 0.73503500 0.11012500 1.905766e-42
-2.54951000 24.55649900 430.40900000 -0.68242902 0.72389698 0.10131600 1.905766e-42
